<svg width="30" height="34" viewBox="0 0 30 34" fill="none" xmlns="http://www.w3.org/2000/svg">
<path d="M30 16.905V23.2483C30 23.3752 30 23.5337 30 23.6606C29.7742 27.086 26.8065 29.8136 23.2258 29.8136H9.22581L4.83871 34.0002V29.6867C2.03226 28.8938 0 26.3565 0 23.3117V16.7781C0 13.1308 3.03226 10.1494 6.74194 10.1494H15.9677C14.2903 11.0692 12.6129 12.2427 12.5806 16.6196V16.8099H17.0968V16.6513C17.0968 15.0972 17.4194 14.0822 18.3548 13.4796C19.7419 12.5916 22.3871 11.989 23.8387 10.1811C23.9355 10.1811 24.0323 10.2128 24.129 10.2128C27.4194 10.6886 30 13.6065 30 16.905Z" fill="#EE0033"/>
<path d="M23.8381 10.1811C22.3865 12.0524 19.7736 12.5916 18.3865 13.5114C17.451 14.114 17.0962 15.0655 17.0962 16.6513V16.8099H12.5801V16.6196C12.6123 12.2744 14.0962 11.0692 15.8059 10.1494H23.193C23.4188 10.1494 23.6446 10.1811 23.8381 10.1811Z" fill="#A80000"/>
<path d="M24.9024 6.88246C24.9024 7.42164 24.8379 7.89739 24.7411 8.34142C24.5476 9.0709 24.2572 9.67351 23.8379 10.181C23.6121 10.1493 23.4185 10.1493 23.1927 10.1493H15.8056C15.9024 10.0858 16.0314 10.0541 16.1282 9.99067C17.354 9.35634 18.9992 9.03918 19.7089 8.27799C20.0637 7.9291 20.2572 7.48507 20.2572 6.85075C20.2572 4.34515 17.8701 3.74254 15.7734 3.74254C13.6121 3.74254 11.3863 4.91604 11.354 6.97761H6.83789C6.93466 2.15672 11.1282 0 15.8701 0C20.6121 0 24.9992 1.99813 24.9024 6.88246Z" fill="#B5B4B4"/>
<path d="M12.709 20.8694C12.709 23.6604 17.0638 23.6604 17.0638 20.8694C17.0638 18.0149 12.709 18.0149 12.709 20.8694Z" fill="#A80000"/>
</svg>
