<svg width="557" height="82" viewBox="0 0 557 82" fill="none" xmlns="http://www.w3.org/2000/svg">
<g clip-path="url(#clip0_3056_59509)">
<rect width="557" height="82" fill="#BE0129"/>
<path d="M425.385 37.248C425.439 37.05 425.313 36.996 425.187 36.996H424.143C423.963 36.996 423.855 37.086 423.801 37.248L418.059 52.476C418.005 52.674 418.131 52.728 418.293 52.728H419.265C419.445 52.728 419.571 52.638 419.643 52.476L425.385 37.248ZM427.448 42.792V48.732C427.448 50.406 428.096 51.198 429.968 51.198C430.31 51.198 431.192 51.162 431.894 50.946C432.092 50.874 432.056 50.784 432.038 50.64L431.876 49.83C431.858 49.704 431.822 49.632 431.606 49.686C431.192 49.74 430.526 49.812 430.22 49.812C429.356 49.812 429.014 49.47 429.014 48.624V42.792H431.012C431.228 42.792 431.264 42.738 431.264 42.54V41.82C431.264 41.658 431.228 41.55 431.012 41.55H429.014V39.372C429.014 39.138 428.906 39.084 428.744 39.138L428.15 39.354C427.952 39.444 427.88 39.48 427.826 39.714L427.538 41.442L426.134 41.712C425.972 41.766 425.882 41.856 425.882 42.018V42.54C425.882 42.684 425.918 42.792 426.134 42.792H427.448ZM441.185 45.6C441.185 42.972 440.105 41.352 437.423 41.352C436.721 41.352 435.731 41.46 434.957 41.766V38.112C434.957 37.878 434.867 37.842 434.669 37.842H433.679C433.481 37.842 433.391 37.878 433.391 38.112V50.73C433.391 50.964 433.481 51 433.679 51H434.669C434.867 51 434.957 50.964 434.957 50.73V43.098C435.551 42.828 436.451 42.72 437.153 42.72C438.791 42.72 439.601 43.674 439.601 45.6V50.73C439.601 50.964 439.673 51 439.889 51H440.897C441.095 51 441.185 50.964 441.185 50.73V45.6ZM450.842 44.484C450.842 42.45 449.78 41.352 447.386 41.352C446.396 41.352 445.118 41.496 444.2 41.874C444.002 41.946 443.984 42.054 444.038 42.18L444.254 42.954C444.308 43.152 444.416 43.152 444.614 43.08C445.208 42.882 446.27 42.72 447.116 42.72C448.916 42.72 449.258 43.476 449.258 44.61V45.006H447.062C444.182 45.006 443.138 46.554 443.138 48.21C443.138 49.794 443.912 51.198 447.008 51.198C448.16 51.198 449.492 51.072 450.572 50.586C450.752 50.514 450.842 50.352 450.842 50.118V44.484ZM449.24 49.56C448.484 49.848 447.404 49.902 446.99 49.902C445.712 49.902 444.704 49.524 444.704 48.21C444.704 46.482 446.288 46.356 447.152 46.356H449.24V49.56ZM446.684 40.398C446.774 40.524 446.81 40.578 447.026 40.488L450.068 39.102C450.194 39.048 450.194 38.94 450.104 38.814L449.348 37.788C449.222 37.59 449.096 37.68 448.97 37.77L446.45 39.588C446.288 39.714 446.288 39.768 446.378 39.912L446.684 40.398ZM460.96 45.906C460.96 42.648 459.664 41.352 456.586 41.352C456.01 41.352 454.84 41.424 454.318 41.514C453.454 41.64 453.184 42.072 453.184 42.882V50.73C453.184 50.964 453.274 51 453.472 51H454.462C454.66 51 454.75 50.964 454.75 50.73V42.882C455.524 42.756 456.19 42.738 456.46 42.738C458.764 42.738 459.394 43.8 459.394 45.96V50.73C459.394 50.964 459.484 51 459.682 51H460.672C460.888 51 460.96 50.964 460.96 50.73V45.906ZM469.447 49.488C468.529 49.776 467.629 49.848 467.179 49.848C465.523 49.848 464.533 48.678 464.533 46.302C464.533 43.746 465.685 42.702 467.359 42.702C467.917 42.702 468.745 42.774 469.447 43.008V49.488ZM467.305 41.37C464.281 41.37 462.931 43.476 462.931 46.41C462.931 49.218 464.173 51.216 466.999 51.216C467.647 51.216 468.637 51.054 469.411 50.82V50.928C469.411 52.71 468.295 53.304 466.243 53.592C466.117 53.61 466.045 53.7 466.045 53.826L466.171 54.816C466.225 55.014 466.279 55.032 466.477 55.014C469.465 54.582 471.031 53.484 471.031 50.262V42.306C471.031 42.144 470.959 42.018 470.815 41.964C469.735 41.514 468.457 41.37 467.305 41.37Z" fill="white"/>
<path d="M242.189 51.7C242.189 51.9933 242.136 52.2067 242.029 52.34C241.949 52.4467 241.762 52.5 241.469 52.5H226.829C226.536 52.5 226.336 52.4467 226.229 52.34C226.149 52.2067 226.109 51.9933 226.109 51.7V48.54C226.109 48.1667 226.149 47.94 226.229 47.86C226.336 47.78 226.536 47.74 226.829 47.74H231.069V30.94L226.829 31.66C226.509 31.7133 226.296 31.7 226.189 31.62C226.082 31.5133 226.029 31.3133 226.029 31.02V28.1C226.029 27.86 226.056 27.66 226.109 27.5C226.189 27.34 226.402 27.2067 226.749 27.1L233.389 25.3C233.842 25.1667 234.282 25.1 234.709 25.1C235.136 25.0733 235.509 25.14 235.829 25.3C236.149 25.4333 236.402 25.66 236.589 25.98C236.776 26.3 236.869 26.7133 236.869 27.22V47.74H241.469C241.762 47.74 241.949 47.78 242.029 47.86C242.136 47.94 242.189 48.1667 242.189 48.54V51.7ZM270.562 43.38C270.562 44.9533 270.269 46.34 269.682 47.54C269.122 48.74 268.335 49.74 267.322 50.54C266.335 51.34 265.162 51.9533 263.802 52.38C262.442 52.78 260.989 52.98 259.442 52.98C257.709 52.98 255.975 52.8067 254.242 52.46C252.535 52.0867 250.922 51.2867 249.402 50.06C249.029 49.7667 248.949 49.4467 249.162 49.1C249.269 48.94 249.415 48.7133 249.602 48.42C249.789 48.1267 249.975 47.82 250.162 47.5C250.375 47.18 250.575 46.8867 250.762 46.62C250.949 46.3267 251.095 46.1 251.202 45.94C251.389 45.6733 251.575 45.5533 251.762 45.58C251.975 45.58 252.242 45.6867 252.562 45.9C253.549 46.5933 254.602 47.0867 255.722 47.38C256.869 47.6733 257.949 47.82 258.962 47.82C260.775 47.82 262.162 47.4467 263.122 46.7C264.109 45.9267 264.602 44.8733 264.602 43.54C264.602 42.2867 264.189 41.34 263.362 40.7C262.535 40.06 261.522 39.74 260.322 39.74C259.735 39.74 259.215 39.78 258.762 39.86C258.309 39.94 257.869 40.0467 257.442 40.18C257.042 40.2867 256.642 40.4333 256.242 40.62C255.842 40.78 255.429 40.9533 255.002 41.14C254.682 41.2733 254.309 41.3667 253.882 41.42C253.455 41.4467 253.055 41.3933 252.682 41.26L251.282 40.86C250.669 40.6467 250.255 40.3667 250.042 40.02C249.855 39.6467 249.789 39.1533 249.842 38.54L250.882 28.54C250.989 27.5 251.295 26.7533 251.802 26.3C252.309 25.82 252.989 25.58 253.842 25.58H267.802C268.149 25.58 268.375 25.62 268.482 25.7C268.615 25.78 268.682 26.0333 268.682 26.46V29.62C268.682 29.9667 268.615 30.2067 268.482 30.34C268.349 30.4467 268.122 30.5 267.802 30.5H256.122L255.522 35.7C256.402 35.4067 257.295 35.22 258.202 35.14C259.109 35.0333 259.962 34.98 260.762 34.98C262.175 34.98 263.482 35.18 264.682 35.58C265.882 35.9533 266.909 36.5 267.762 37.22C268.642 37.94 269.322 38.82 269.802 39.86C270.309 40.9 270.562 42.0733 270.562 43.38ZM297.535 39.02C297.535 41.1 297.295 42.9933 296.815 44.7C296.361 46.4067 295.655 47.8733 294.695 49.1C293.735 50.3267 292.535 51.2733 291.095 51.94C289.655 52.6067 287.975 52.94 286.055 52.94C284.135 52.94 282.455 52.62 281.015 51.98C279.601 51.3133 278.415 50.38 277.455 49.18C276.521 47.9533 275.815 46.4867 275.335 44.78C274.881 43.0733 274.655 41.18 274.655 39.1C274.655 36.9933 274.895 35.0867 275.375 33.38C275.855 31.6733 276.575 30.2067 277.535 28.98C278.495 27.7533 279.681 26.8067 281.095 26.14C282.535 25.4733 284.215 25.14 286.135 25.14C288.081 25.14 289.761 25.4733 291.175 26.14C292.615 26.78 293.801 27.7133 294.735 28.94C295.695 30.14 296.401 31.5933 296.855 33.3C297.308 35.0067 297.535 36.9133 297.535 39.02ZM291.575 39.1C291.575 37.7933 291.468 36.5933 291.255 35.5C291.068 34.38 290.748 33.42 290.295 32.62C289.868 31.82 289.308 31.1933 288.615 30.74C287.921 30.2867 287.068 30.06 286.055 30.06C285.041 30.06 284.188 30.2867 283.495 30.74C282.828 31.1667 282.281 31.78 281.855 32.58C281.428 33.38 281.121 34.3267 280.935 35.42C280.748 36.5133 280.655 37.7133 280.655 39.02C280.655 40.3 280.748 41.4867 280.935 42.58C281.121 43.6733 281.428 44.6333 281.855 45.46C282.281 46.26 282.841 46.8867 283.535 47.34C284.255 47.7933 285.121 48.02 286.135 48.02C287.148 48.02 288.001 47.7933 288.695 47.34C289.388 46.8867 289.948 46.26 290.375 45.46C290.801 44.66 291.108 43.7267 291.295 42.66C291.481 41.5667 291.575 40.38 291.575 39.1ZM308.908 49.38C308.908 50.3933 308.548 51.2467 307.828 51.94C307.134 52.6333 306.268 52.98 305.228 52.98C304.721 52.98 304.241 52.8867 303.788 52.7C303.334 52.5133 302.934 52.26 302.588 51.94C302.268 51.62 302.001 51.2467 301.788 50.82C301.601 50.3667 301.508 49.8867 301.508 49.38C301.508 48.8733 301.601 48.4067 301.788 47.98C302.001 47.5267 302.268 47.14 302.588 46.82C302.934 46.5 303.334 46.2467 303.788 46.06C304.241 45.8733 304.721 45.78 305.228 45.78C306.268 45.78 307.134 46.1267 307.828 46.82C308.548 47.5133 308.908 48.3667 308.908 49.38ZM335.582 39.02C335.582 41.1 335.342 42.9933 334.862 44.7C334.408 46.4067 333.702 47.8733 332.742 49.1C331.782 50.3267 330.582 51.2733 329.142 51.94C327.702 52.6067 326.022 52.94 324.102 52.94C322.182 52.94 320.502 52.62 319.062 51.98C317.648 51.3133 316.462 50.38 315.502 49.18C314.568 47.9533 313.862 46.4867 313.382 44.78C312.928 43.0733 312.702 41.18 312.702 39.1C312.702 36.9933 312.942 35.0867 313.422 33.38C313.902 31.6733 314.622 30.2067 315.582 28.98C316.542 27.7533 317.728 26.8067 319.142 26.14C320.582 25.4733 322.262 25.14 324.182 25.14C326.128 25.14 327.808 25.4733 329.222 26.14C330.662 26.78 331.848 27.7133 332.782 28.94C333.742 30.14 334.448 31.5933 334.902 33.3C335.355 35.0067 335.582 36.9133 335.582 39.02ZM329.622 39.1C329.622 37.7933 329.515 36.5933 329.302 35.5C329.115 34.38 328.795 33.42 328.342 32.62C327.915 31.82 327.355 31.1933 326.662 30.74C325.968 30.2867 325.115 30.06 324.102 30.06C323.088 30.06 322.235 30.2867 321.542 30.74C320.875 31.1667 320.328 31.78 319.902 32.58C319.475 33.38 319.168 34.3267 318.982 35.42C318.795 36.5133 318.702 37.7133 318.702 39.02C318.702 40.3 318.795 41.4867 318.982 42.58C319.168 43.6733 319.475 44.6333 319.902 45.46C320.328 46.26 320.888 46.8867 321.582 47.34C322.302 47.7933 323.168 48.02 324.182 48.02C325.195 48.02 326.048 47.7933 326.742 47.34C327.435 46.8867 327.995 46.26 328.422 45.46C328.848 44.66 329.155 43.7267 329.342 42.66C329.528 41.5667 329.622 40.38 329.622 39.1ZM361.714 39.02C361.714 41.1 361.474 42.9933 360.994 44.7C360.541 46.4067 359.834 47.8733 358.874 49.1C357.914 50.3267 356.714 51.2733 355.274 51.94C353.834 52.6067 352.154 52.94 350.234 52.94C348.314 52.94 346.634 52.62 345.194 51.98C343.781 51.3133 342.594 50.38 341.634 49.18C340.701 47.9533 339.994 46.4867 339.514 44.78C339.061 43.0733 338.834 41.18 338.834 39.1C338.834 36.9933 339.074 35.0867 339.554 33.38C340.034 31.6733 340.754 30.2067 341.714 28.98C342.674 27.7533 343.861 26.8067 345.274 26.14C346.714 25.4733 348.394 25.14 350.314 25.14C352.261 25.14 353.941 25.4733 355.354 26.14C356.794 26.78 357.981 27.7133 358.914 28.94C359.874 30.14 360.581 31.5933 361.034 33.3C361.488 35.0067 361.714 36.9133 361.714 39.02ZM355.754 39.1C355.754 37.7933 355.648 36.5933 355.434 35.5C355.248 34.38 354.928 33.42 354.474 32.62C354.048 31.82 353.488 31.1933 352.794 30.74C352.101 30.2867 351.248 30.06 350.234 30.06C349.221 30.06 348.368 30.2867 347.674 30.74C347.008 31.1667 346.461 31.78 346.034 32.58C345.608 33.38 345.301 34.3267 345.114 35.42C344.928 36.5133 344.834 37.7133 344.834 39.02C344.834 40.3 344.928 41.4867 345.114 42.58C345.301 43.6733 345.608 44.6333 346.034 45.46C346.461 46.26 347.021 46.8867 347.714 47.34C348.434 47.7933 349.301 48.02 350.314 48.02C351.328 48.02 352.181 47.7933 352.874 47.34C353.568 46.8867 354.128 46.26 354.554 45.46C354.981 44.66 355.288 43.7267 355.474 42.66C355.661 41.5667 355.754 40.38 355.754 39.1ZM387.847 39.02C387.847 41.1 387.607 42.9933 387.127 44.7C386.674 46.4067 385.967 47.8733 385.007 49.1C384.047 50.3267 382.847 51.2733 381.407 51.94C379.967 52.6067 378.287 52.94 376.367 52.94C374.447 52.94 372.767 52.62 371.327 51.98C369.914 51.3133 368.727 50.38 367.767 49.18C366.834 47.9533 366.127 46.4867 365.647 44.78C365.194 43.0733 364.967 41.18 364.967 39.1C364.967 36.9933 365.207 35.0867 365.687 33.38C366.167 31.6733 366.887 30.2067 367.847 28.98C368.807 27.7533 369.994 26.8067 371.407 26.14C372.847 25.4733 374.527 25.14 376.447 25.14C378.394 25.14 380.074 25.4733 381.487 26.14C382.927 26.78 384.114 27.7133 385.047 28.94C386.007 30.14 386.714 31.5933 387.167 33.3C387.621 35.0067 387.847 36.9133 387.847 39.02ZM381.887 39.1C381.887 37.7933 381.781 36.5933 381.567 35.5C381.381 34.38 381.061 33.42 380.607 32.62C380.181 31.82 379.621 31.1933 378.927 30.74C378.234 30.2867 377.381 30.06 376.367 30.06C375.354 30.06 374.501 30.2867 373.807 30.74C373.141 31.1667 372.594 31.78 372.167 32.58C371.741 33.38 371.434 34.3267 371.247 35.42C371.061 36.5133 370.967 37.7133 370.967 39.02C370.967 40.3 371.061 41.4867 371.247 42.58C371.434 43.6733 371.741 44.6333 372.167 45.46C372.594 46.26 373.154 46.8867 373.847 47.34C374.567 47.7933 375.434 48.02 376.447 48.02C377.461 48.02 378.314 47.7933 379.007 47.34C379.701 46.8867 380.261 46.26 380.687 45.46C381.114 44.66 381.421 43.7267 381.607 42.66C381.794 41.5667 381.887 40.38 381.887 39.1ZM391.3 42.54C391.3 41.0733 391.473 39.7 391.82 38.42C392.193 37.14 392.74 36.02 393.46 35.06C394.18 34.1 395.1 33.3267 396.22 32.74C397.34 32.1533 398.66 31.8067 400.18 31.7C400.473 31.6733 400.74 31.66 400.98 31.66C401.22 31.66 401.473 31.66 401.74 31.66C402.247 31.6867 402.78 31.74 403.34 31.82C403.9 31.8733 404.513 31.9667 405.18 32.1V29.18H399.54C399.273 29.18 399.113 29.1267 399.06 29.02C399.007 28.9133 398.98 28.7133 398.98 28.42V27.3C398.98 26.9533 398.993 26.7267 399.02 26.62C399.073 26.5133 399.247 26.46 399.54 26.46H405.18V24.1C405.18 23.78 405.233 23.5667 405.34 23.46C405.473 23.3533 405.713 23.3 406.06 23.3H410.14C410.433 23.3 410.647 23.3533 410.78 23.46C410.94 23.54 411.02 23.7533 411.02 24.1V26.46H412.54C412.833 26.46 413.007 26.5133 413.06 26.62C413.14 26.7267 413.18 26.9533 413.18 27.3V28.42C413.18 28.7133 413.14 28.9133 413.06 29.02C412.98 29.1267 412.807 29.18 412.54 29.18H411.02V50.18C411.02 50.4733 410.967 50.7267 410.86 50.94C410.753 51.1267 410.513 51.2867 410.14 51.42L409.66 51.66C408.353 52.14 406.967 52.4733 405.5 52.66C404.033 52.8467 402.673 52.94 401.42 52.94C399.5 52.94 397.887 52.6867 396.58 52.18C395.3 51.6733 394.26 50.9667 393.46 50.06C392.687 49.1267 392.127 48.02 391.78 46.74C391.46 45.46 391.3 44.06 391.3 42.54ZM397.34 42.62C397.34 43.6333 397.447 44.4867 397.66 45.18C397.873 45.8733 398.18 46.4333 398.58 46.86C399.007 47.2867 399.513 47.5933 400.1 47.78C400.687 47.94 401.353 48.02 402.1 48.02C402.473 48.02 402.967 47.98 403.58 47.9C404.22 47.82 404.753 47.7 405.18 47.54V37.1C404.487 36.8867 403.873 36.7667 403.34 36.74C402.807 36.6867 402.327 36.66 401.9 36.66C400.567 36.66 399.473 37.1267 398.62 38.06C397.767 38.9933 397.34 40.5133 397.34 42.62Z" fill="white"/>
<path d="M177.5 6.08333C177.5 6.91176 178.172 7.58333 179 7.58333C179.828 7.58333 180.5 6.91176 180.5 6.08333H177.5ZM180.5 14.25C180.5 13.4216 179.828 12.75 179 12.75C178.172 12.75 177.5 13.4216 177.5 14.25H180.5ZM177.5 22.4167C177.5 23.2451 178.172 23.9167 179 23.9167C179.828 23.9167 180.5 23.2451 180.5 22.4167H177.5ZM180.5 30.5833C180.5 29.7549 179.828 29.0833 179 29.0833C178.172 29.0833 177.5 29.7549 177.5 30.5833H180.5ZM177.5 38.75C177.5 39.5784 178.172 40.25 179 40.25C179.828 40.25 180.5 39.5784 180.5 38.75H177.5ZM180.5 46.9167C180.5 46.0882 179.828 45.4167 179 45.4167C178.172 45.4167 177.5 46.0882 177.5 46.9167H180.5ZM177.5 55.0833C177.5 55.9118 178.172 56.5833 179 56.5833C179.828 56.5833 180.5 55.9118 180.5 55.0833H177.5ZM180.5 63.25C180.5 62.4216 179.828 61.75 179 61.75C178.172 61.75 177.5 62.4216 177.5 63.25H180.5ZM177.5 71.4167C177.5 72.2451 178.172 72.9167 179 72.9167C179.828 72.9167 180.5 72.2451 180.5 71.4167H177.5ZM180.5 79.5833C180.5 78.7549 179.828 78.0833 179 78.0833C178.172 78.0833 177.5 78.7549 177.5 79.5833H180.5ZM177.5 87.75C177.5 88.5784 178.172 89.25 179 89.25C179.828 89.25 180.5 88.5784 180.5 87.75H177.5ZM180.5 95.9167C180.5 95.0882 179.828 94.4167 179 94.4167C178.172 94.4167 177.5 95.0882 177.5 95.9167H180.5ZM177.5 2V6.08333H180.5V2H177.5ZM177.5 14.25V22.4167H180.5V14.25H177.5ZM177.5 30.5833V38.75H180.5V30.5833H177.5ZM177.5 46.9167V55.0833H180.5V46.9167H177.5ZM177.5 63.25V71.4167H180.5V63.25H177.5ZM177.5 79.5833V87.75H180.5V79.5833H177.5ZM177.5 95.9167V100H180.5V95.9167H177.5Z" fill="#FBFBFB"/>
<path d="M60.72 37.18C61.4667 37.4733 62.1067 37.8733 62.64 38.38C63.2 38.86 63.6533 39.4067 64 40.02C64.3467 40.6067 64.6 41.2467 64.76 41.94C64.92 42.6333 65 43.3133 65 43.98C65 45.26 64.7467 46.42 64.24 47.46C63.76 48.5 63.08 49.3933 62.2 50.14C61.3467 50.8867 60.3333 51.4733 59.16 51.9C58.0133 52.3 56.7733 52.5 55.44 52.5H45.4C44.44 52.5 43.8 52.3133 43.48 51.94C43.16 51.54 43 50.9133 43 50.06V26.94C43 26.0867 43.16 25.46 43.48 25.06C43.8 24.66 44.44 24.46 45.4 24.46H55.2C56.4 24.46 57.52 24.5933 58.56 24.86C59.6267 25.1267 60.5467 25.5533 61.32 26.14C62.0933 26.7 62.6933 27.4333 63.12 28.34C63.5733 29.22 63.8 30.2867 63.8 31.54C63.8 32.66 63.5067 33.7133 62.92 34.7C62.36 35.66 61.6267 36.3933 60.72 36.9V37.18ZM58.72 43.58C58.72 42.5133 58.3867 41.6467 57.72 40.98C57.08 40.3133 56.12 39.98 54.84 39.98H49.08V47.14H54.84C55.5867 47.14 56.2133 47.0333 56.72 46.82C57.2267 46.58 57.6267 46.2867 57.92 45.94C58.2133 45.5933 58.4133 45.2067 58.52 44.78C58.6533 44.3533 58.72 43.9533 58.72 43.58ZM49.08 35.1H54.52C54.84 35.1 55.1733 35.06 55.52 34.98C55.8933 34.9 56.2267 34.7667 56.52 34.58C56.8133 34.3667 57.0533 34.0867 57.24 33.74C57.4267 33.3667 57.52 32.9 57.52 32.34C57.52 31.54 57.2667 30.9133 56.76 30.46C56.2533 30.0067 55.5733 29.78 54.72 29.78H49.08V35.1ZM88.5875 51.7C88.5875 51.9933 88.5342 52.2067 88.4275 52.34C88.3475 52.4467 88.1608 52.5 87.8675 52.5H73.2275C72.9342 52.5 72.7342 52.4467 72.6275 52.34C72.5475 52.2067 72.5075 51.9933 72.5075 51.7V48.54C72.5075 48.1667 72.5475 47.94 72.6275 47.86C72.7342 47.78 72.9342 47.74 73.2275 47.74H77.4675V30.94L73.2275 31.66C72.9075 31.7133 72.6942 31.7 72.5875 31.62C72.4808 31.5133 72.4275 31.3133 72.4275 31.02V28.1C72.4275 27.86 72.4542 27.66 72.5075 27.5C72.5875 27.34 72.8008 27.2067 73.1475 27.1L79.7875 25.3C80.2408 25.1667 80.6808 25.1 81.1075 25.1C81.5342 25.0733 81.9075 25.14 82.2275 25.3C82.5475 25.4333 82.8008 25.66 82.9875 25.98C83.1742 26.3 83.2675 26.7133 83.2675 27.22V47.74H87.8675C88.1608 47.74 88.3475 47.78 88.4275 47.86C88.5342 47.94 88.5875 48.1667 88.5875 48.54V51.7ZM116.96 43.38C116.96 44.9533 116.667 46.34 116.08 47.54C115.52 48.74 114.734 49.74 113.72 50.54C112.734 51.34 111.56 51.9533 110.2 52.38C108.84 52.78 107.387 52.98 105.84 52.98C104.107 52.98 102.374 52.8067 100.64 52.46C98.9336 52.0867 97.3203 51.2867 95.8003 50.06C95.427 49.7667 95.347 49.4467 95.5603 49.1C95.667 48.94 95.8136 48.7133 96.0003 48.42C96.187 48.1267 96.3736 47.82 96.5603 47.5C96.7736 47.18 96.9736 46.8867 97.1603 46.62C97.347 46.3267 97.4936 46.1 97.6003 45.94C97.787 45.6733 97.9736 45.5533 98.1603 45.58C98.3736 45.58 98.6403 45.6867 98.9603 45.9C99.947 46.5933 101 47.0867 102.12 47.38C103.267 47.6733 104.347 47.82 105.36 47.82C107.174 47.82 108.56 47.4467 109.52 46.7C110.507 45.9267 111 44.8733 111 43.54C111 42.2867 110.587 41.34 109.76 40.7C108.934 40.06 107.92 39.74 106.72 39.74C106.134 39.74 105.614 39.78 105.16 39.86C104.707 39.94 104.267 40.0467 103.84 40.18C103.44 40.2867 103.04 40.4333 102.64 40.62C102.24 40.78 101.827 40.9533 101.4 41.14C101.08 41.2733 100.707 41.3667 100.28 41.42C99.8536 41.4467 99.4536 41.3933 99.0803 41.26L97.6803 40.86C97.067 40.6467 96.6536 40.3667 96.4403 40.02C96.2536 39.6467 96.187 39.1533 96.2403 38.54L97.2803 28.54C97.387 27.5 97.6936 26.7533 98.2003 26.3C98.707 25.82 99.387 25.58 100.24 25.58H114.2C114.547 25.58 114.774 25.62 114.88 25.7C115.014 25.78 115.08 26.0333 115.08 26.46V29.62C115.08 29.9667 115.014 30.2067 114.88 30.34C114.747 30.4467 114.52 30.5 114.2 30.5H102.52L101.92 35.7C102.8 35.4067 103.694 35.22 104.6 35.14C105.507 35.0333 106.36 34.98 107.16 34.98C108.574 34.98 109.88 35.18 111.08 35.58C112.28 35.9533 113.307 36.5 114.16 37.22C115.04 37.94 115.72 38.82 116.2 39.86C116.707 40.9 116.96 42.0733 116.96 43.38ZM143.933 39.02C143.933 41.1 143.693 42.9933 143.213 44.7C142.76 46.4067 142.053 47.8733 141.093 49.1C140.133 50.3267 138.933 51.2733 137.493 51.94C136.053 52.6067 134.373 52.94 132.453 52.94C130.533 52.94 128.853 52.62 127.413 51.98C126 51.3133 124.813 50.38 123.853 49.18C122.92 47.9533 122.213 46.4867 121.733 44.78C121.28 43.0733 121.053 41.18 121.053 39.1C121.053 36.9933 121.293 35.0867 121.773 33.38C122.253 31.6733 122.973 30.2067 123.933 28.98C124.893 27.7533 126.08 26.8067 127.493 26.14C128.933 25.4733 130.613 25.14 132.533 25.14C134.48 25.14 136.16 25.4733 137.573 26.14C139.013 26.78 140.2 27.7133 141.133 28.94C142.093 30.14 142.8 31.5933 143.253 33.3C143.706 35.0067 143.933 36.9133 143.933 39.02ZM137.973 39.1C137.973 37.7933 137.866 36.5933 137.653 35.5C137.466 34.38 137.146 33.42 136.693 32.62C136.266 31.82 135.706 31.1933 135.013 30.74C134.32 30.2867 133.466 30.06 132.453 30.06C131.44 30.06 130.586 30.2867 129.893 30.74C129.226 31.1667 128.68 31.78 128.253 32.58C127.826 33.38 127.52 34.3267 127.333 35.42C127.146 36.5133 127.053 37.7133 127.053 39.02C127.053 40.3 127.146 41.4867 127.333 42.58C127.52 43.6733 127.826 44.6333 128.253 45.46C128.68 46.26 129.24 46.8867 129.933 47.34C130.653 47.7933 131.52 48.02 132.533 48.02C133.546 48.02 134.4 47.7933 135.093 47.34C135.786 46.8867 136.346 46.26 136.773 45.46C137.2 44.66 137.506 43.7267 137.693 42.66C137.88 41.5667 137.973 40.38 137.973 39.1Z" fill="white"/>
<path d="M381.401 5.03397C386.135 5.03397 390.689 6.47562 394.594 9.19199C398.59 11.9691 401.575 15.8691 403.219 20.4824L409.009 36.6744C411.105 42.5472 410.803 48.8753 408.165 54.5205C405.526 60.1657 400.867 64.4299 395.031 66.5393L359.432 79.4231C353.551 81.5476 348.289 84.6737 343.81 88.7103C340.222 91.9275 337.131 95.7365 334.598 100.031C331.326 105.6 329.863 110.548 329.35 112.627L314.453 70.8794L310.834 60.7575L308.663 54.6874C306.567 48.8146 306.869 42.4865 309.507 36.8413C312.146 31.1961 316.805 26.9319 322.641 24.8225L373.545 6.39975C376.093 5.50441 378.732 5.03397 381.401 5.03397ZM381.401 4.73047C378.762 4.73047 376.078 5.18573 373.454 6.12659L322.55 24.5494C310.337 28.9653 304.004 42.5017 308.392 54.7936L310.563 60.8637L314.182 70.9856L329.426 113.674C329.426 113.674 333.904 88.9531 359.537 79.681L395.137 66.7972C407.35 62.3813 413.683 48.8449 409.295 36.553L403.505 20.361C400.052 10.7399 391.021 4.73047 381.401 4.73047Z" fill="#DADADA"/>
<path d="M388.752 -9.65931C395.164 -9.65931 401.33 -7.70705 406.619 -4.02857C412.03 -0.267896 416.073 5.01349 418.298 11.2607L426.139 33.1877C428.977 41.1406 428.569 49.7101 424.996 57.3547C421.422 64.9994 415.113 70.7739 407.211 73.6304L359.002 91.0775C351.039 93.9545 343.913 98.1878 337.848 103.654C332.989 108.011 328.803 113.169 325.372 118.985C320.941 126.526 318.961 133.226 318.267 136.041L298.093 79.5078L293.192 65.8008L290.252 57.5807C287.414 49.6278 287.822 41.0584 291.395 33.4138C294.969 25.7691 301.278 19.9945 309.18 17.1381L378.114 -7.8098C381.565 -9.02226 385.138 -9.65931 388.752 -9.65931ZM388.752 -10.0703C385.179 -10.0703 381.544 -9.45381 377.992 -8.1797L309.058 16.7682C292.518 22.7483 283.943 41.079 289.884 57.7246L292.825 65.9447L297.725 79.6516L318.369 137.459C318.369 137.459 324.433 103.983 359.145 91.4268L407.354 73.9798C423.893 67.9997 432.469 49.6689 426.527 33.0233L418.686 11.0963C414.01 -1.93246 401.78 -10.0703 388.752 -10.0703Z" fill="#DADADA"/>
<path d="M396.04 -24.3337C403.997 -24.3337 411.65 -21.9108 418.213 -17.3456C424.929 -12.6783 429.946 -6.1238 432.709 1.62943L442.439 28.8422C445.962 38.7123 445.455 49.3475 441.02 58.835C436.586 68.3225 428.755 75.4891 418.948 79.0341L359.118 100.687C349.235 104.258 340.391 109.511 332.865 116.296C326.834 121.702 321.639 128.104 317.381 135.322C311.882 144.682 309.424 152.996 308.563 156.49L283.526 86.3283L277.444 69.3171L273.795 59.1155C270.272 49.2454 270.779 38.6103 275.214 29.1228C279.649 19.6353 287.479 12.4686 297.286 8.92358L382.837 -22.0383C387.12 -23.543 391.555 -24.3337 396.04 -24.3337ZM396.04 -24.8438C391.605 -24.8438 387.095 -24.0786 382.685 -22.4974L297.134 8.46451C276.608 15.8862 265.964 38.6358 273.339 59.294L276.988 69.4956L283.07 86.5068L308.689 158.25C308.689 158.25 316.216 116.704 359.295 101.121L419.126 79.4677C439.652 72.046 450.295 49.2964 442.921 28.6382L433.19 1.4254C427.387 -14.7442 412.208 -24.8438 396.04 -24.8438Z" fill="#DADADA"/>
</g>
<defs>
<clipPath id="clip0_3056_59509">
<rect width="557" height="82" fill="white"/>
</clipPath>
</defs>
</svg>
