<svg width="1440" height="579" viewBox="0 0 1440 579" fill="none" xmlns="http://www.w3.org/2000/svg">
<path d="M0 -183H1440V476.5C877.582 579.84 562.417 581.002 0 476.5L0 -183Z" fill="url(#paint0_linear)"/>
<path d="M1212.29 82.5722L998.497 159.088C940.806 179.887 910.849 243.6 931.561 301.392L941.816 329.933L958.891 377.553L1030.98 578.408C1030.98 578.408 1052.15 462.166 1173.29 418.544L1314.74 368.09C1372.43 347.291 1402.39 283.578 1381.67 225.787L1354.34 149.625C1333.58 91.8331 1269.98 61.8239 1212.29 82.5722Z" fill="#CD0029"/>
<path d="M363.688 17.8591L238.156 62.7873C204.281 75 186.691 112.411 198.852 146.344L204.874 163.103L214.9 191.065L257.229 309.002C257.229 309.002 269.657 240.747 340.789 215.133L423.844 185.508C457.719 173.296 475.309 135.885 463.148 101.951L447.1 57.2307C434.909 23.2968 397.563 5.67612 363.688 17.8591Z" fill="#DA0130"/>
<path d="M505.199 328.858L444.773 350.484C428.467 356.363 420 374.37 425.854 390.704L428.753 398.771L433.579 412.231L453.954 469C453.954 469 459.937 436.146 494.176 423.816L534.155 409.556C550.461 403.677 558.928 385.67 553.074 369.336L545.349 347.809C539.481 331.475 521.505 322.993 505.199 328.858Z" fill="#C8032D"/>
<g clip-path="url(#clip0)">
<path fill-rule="evenodd" clip-rule="evenodd" d="M1097.47 455.445V474.371C1097.47 475.421 1096.6 476.278 1095.54 476.278H1075.69C1074.63 476.278 1073.76 475.421 1073.76 474.371V451.184C1077.69 453.827 1084.38 458.457 1087.56 460.699C1087.83 460.891 1088.01 461.332 1088.08 461.684C1088.16 462.189 1088.09 462.726 1088.12 463.246C1088.16 464.143 1087.76 464.832 1087.05 465.321C1086.01 466.025 1084.85 466.242 1083.63 465.937C1082.26 465.593 1081.49 464.632 1081.46 463.23C1081.44 462.205 1081.44 461.188 1081.44 460.163C1081.44 459.586 1081.19 459.281 1080.58 459.298C1079.81 459.314 1079.04 459.314 1078.27 459.298C1077.59 459.281 1077.32 459.602 1077.33 460.259C1077.36 461.204 1077.37 462.149 1077.34 463.086C1077.27 465.048 1078.12 466.538 1079.7 467.619C1082.29 469.389 1085.13 469.638 1088.04 468.54C1090.2 467.724 1091.85 466.338 1092.03 463.839C1092.12 462.742 1092.03 461.636 1092.08 460.539C1092.12 459.818 1091.78 459.37 1091.22 458.985C1089.69 457.944 1080.5 451.576 1073.76 446.931V446.899C1072.61 446.122 1071.65 445.473 1071 445.057V474.371C1071 476.926 1073.11 479.009 1075.69 479.009H1095.54C1098.12 479.009 1100.23 476.926 1100.23 474.371V452.642C1099.39 453.483 1098.4 454.5 1097.47 455.445Z" fill="white"/>
<path fill-rule="evenodd" clip-rule="evenodd" d="M1100.22 429.637C1100.22 427.082 1098.12 425 1095.54 425H1075.69C1073.11 425 1071 427.082 1071 429.637V440.755C1071.86 441.347 1072.78 441.98 1073.76 442.653V429.637C1073.76 428.588 1074.63 427.731 1075.69 427.731H1095.54C1096.6 427.731 1097.47 428.588 1097.47 429.637V445.408C1095.36 447.435 1093.25 449.485 1092.42 450.326C1091.93 450.807 1091.57 450.895 1090.94 450.446C1088.08 448.388 1085.15 446.401 1082.25 444.383C1081.21 443.662 1080.97 442.012 1081.77 441.003C1083 439.425 1085.45 439.137 1087.03 440.378C1087.7 440.899 1088.04 441.564 1088 442.421C1087.98 442.997 1087.99 443.574 1088 444.151C1088.01 444.623 1088.23 444.864 1088.75 444.848C1089.54 444.823 1090.34 444.807 1091.13 444.856C1091.78 444.896 1091.97 444.575 1091.97 444.007C1091.96 443.406 1091.95 442.805 1091.98 442.196C1092.02 440.731 1091.45 439.521 1090.36 438.584C1087.7 436.301 1084.65 435.877 1081.45 437.11C1078.78 438.136 1077.06 440.01 1077.28 443.109C1077.31 443.47 1077.3 443.846 1077.26 444.207C1077.19 444.823 1077.43 445.248 1077.95 445.6C1079.45 446.626 1080.93 447.675 1082.43 448.708C1085.42 450.783 1088.42 452.833 1091.4 454.939C1092.04 455.404 1092.45 455.404 1093.01 454.827C1094.18 453.618 1096.56 451.375 1097.85 450.206V450.134C1098.63 449.381 1099.44 448.588 1100.24 447.827V429.637H1100.22Z" fill="white"/>
<path d="M1107.66 451.84C1110.31 451.84 1111.63 453.225 1111.63 455.989V458.159C1111.63 460.915 1110.31 462.292 1107.66 462.292H1106.4V468.588H1103.74V451.84H1107.66ZM1106.4 454.235V459.913H1107.66C1108.53 459.913 1108.96 459.385 1108.96 458.328V455.821C1108.96 454.771 1108.53 454.243 1107.66 454.243H1106.4V454.235Z" fill="white"/>
<path d="M1115.52 468.588H1112.86V451.84H1115.52V459.024H1118.54V451.84H1121.25V468.588H1118.54V461.419H1115.52V468.588Z" fill="white"/>
<path d="M1122.96 455.859C1122.96 453.056 1124.31 451.654 1127 451.654C1129.69 451.654 1131.04 453.056 1131.04 455.859V464.574C1131.04 467.377 1129.7 468.779 1127 468.779C1124.32 468.779 1122.96 467.377 1122.96 464.574V455.859ZM1125.62 464.734C1125.62 465.839 1126.08 466.392 1127 466.392C1127.93 466.392 1128.39 465.839 1128.39 464.734V455.699C1128.39 454.602 1127.93 454.049 1127 454.049C1126.08 454.049 1125.62 454.602 1125.62 455.699V464.734Z" fill="white"/>
<path d="M1135.13 456.469V468.596H1132.73V451.84H1136.07L1138.8 461.876V451.84H1141.17V468.588H1138.44L1135.13 456.469Z" fill="white"/>
<path d="M1145.73 458.904H1149.39V461.291H1145.73V466.193H1150.32V468.588H1143.07V451.84H1150.32V454.235H1145.73V458.904Z" fill="white"/>
<path d="M1155.07 463.157L1159.92 451.84H1162.81V463.157H1164.07V465.552H1162.81V468.588H1160.15V465.552H1155.07V463.157ZM1160.15 463.157V456.966L1157.52 463.157H1160.15Z" fill="white"/>
<path d="M1169.27 459.255H1173V464.566C1173 467.369 1171.68 468.771 1169.03 468.771C1166.38 468.771 1165.06 467.369 1165.06 464.566V455.859C1165.06 453.056 1166.38 451.654 1169.03 451.654C1171.68 451.654 1173 453.056 1173 455.859V457.493H1170.48V455.691C1170.48 454.594 1170.02 454.041 1169.1 454.041C1168.17 454.041 1167.71 454.594 1167.71 455.691V464.734C1167.71 465.823 1168.17 466.368 1169.1 466.368C1170.02 466.368 1170.48 465.823 1170.48 464.734V461.65H1169.27V459.255Z" fill="white"/>
<path d="M1106.7 474.274L1106.71 474.29C1106.72 474.658 1106.59 474.963 1106.32 475.211C1106.06 475.459 1105.7 475.579 1105.26 475.579C1104.82 475.579 1104.45 475.427 1104.18 475.107C1103.9 474.794 1103.76 474.402 1103.76 473.921V473.225C1103.76 472.744 1103.9 472.352 1104.18 472.031C1104.46 471.719 1104.82 471.559 1105.26 471.559C1105.71 471.559 1106.07 471.679 1106.32 471.911C1106.59 472.143 1106.71 472.456 1106.7 472.84L1106.7 472.856H1106.19C1106.19 472.584 1106.11 472.368 1105.94 472.207C1105.78 472.047 1105.56 471.967 1105.26 471.967C1104.96 471.967 1104.72 472.087 1104.54 472.319C1104.37 472.56 1104.28 472.848 1104.28 473.201V473.897C1104.28 474.25 1104.37 474.546 1104.54 474.786C1104.72 475.027 1104.96 475.139 1105.26 475.139C1105.56 475.139 1105.78 475.059 1105.94 474.899C1106.11 474.738 1106.19 474.522 1106.19 474.242H1106.7V474.274Z" fill="white"/>
<path d="M1112.78 475.524H1112.24V473.802H1110.33V475.524H1109.8V471.623H1110.33V473.385H1112.24V471.623H1112.78V475.524Z" fill="white"/>
<path d="M1119.11 473.923C1119.11 474.396 1118.96 474.796 1118.66 475.109C1118.36 475.421 1117.98 475.581 1117.5 475.581C1117.04 475.581 1116.66 475.421 1116.38 475.109C1116.09 474.796 1115.95 474.396 1115.95 473.923V473.226C1115.95 472.754 1116.1 472.353 1116.38 472.041C1116.66 471.729 1117.04 471.568 1117.5 471.568C1117.98 471.568 1118.36 471.729 1118.66 472.041C1118.96 472.353 1119.11 472.754 1119.11 473.226V473.923ZM1118.57 473.226C1118.57 472.866 1118.48 472.578 1118.28 472.345C1118.09 472.113 1117.83 472.001 1117.5 472.001C1117.19 472.001 1116.94 472.113 1116.75 472.345C1116.57 472.578 1116.48 472.866 1116.48 473.226V473.923C1116.48 474.284 1116.57 474.58 1116.75 474.804C1116.94 475.036 1117.18 475.149 1117.5 475.149C1117.83 475.149 1118.09 475.036 1118.28 474.804C1118.48 474.58 1118.57 474.284 1118.57 473.923V473.226Z" fill="white"/>
<path d="M1128.01 474.795H1128.02L1129.28 471.631H1129.94V475.531H1129.41V472.608H1129.39L1128.2 475.531H1127.83L1126.6 472.512H1126.58V475.531H1126.05V471.631H1126.75L1128.01 474.795Z" fill="white"/>
<path d="M1136.27 473.923C1136.27 474.396 1136.13 474.796 1135.83 475.109C1135.53 475.421 1135.14 475.581 1134.66 475.581C1134.2 475.581 1133.83 475.421 1133.54 475.109C1133.25 474.796 1133.12 474.396 1133.12 473.923V473.226C1133.12 472.754 1133.26 472.353 1133.54 472.041C1133.83 471.729 1134.21 471.568 1134.66 471.568C1135.14 471.568 1135.53 471.729 1135.83 472.041C1136.13 472.353 1136.27 472.754 1136.27 473.226V473.923ZM1135.74 473.226C1135.74 472.866 1135.64 472.578 1135.45 472.345C1135.25 472.113 1134.99 472.001 1134.66 472.001C1134.35 472.001 1134.1 472.113 1133.92 472.345C1133.73 472.578 1133.64 472.866 1133.64 473.226V473.923C1133.64 474.284 1133.73 474.58 1133.92 474.804C1134.1 475.036 1134.35 475.149 1134.66 475.149C1134.99 475.149 1135.25 475.036 1135.45 474.804C1135.64 474.58 1135.74 474.284 1135.74 473.923V473.226ZM1134.99 476.446H1134.39V475.91H1134.99V476.446Z" fill="white"/>
<path d="M1140.03 475.524H1139.5V471.623H1140.03V475.524Z" fill="white"/>
<path d="M1150.16 475.524H1149.62L1147.73 472.544L1147.71 472.552V475.524H1147.18V471.623H1147.71L1149.61 474.595L1149.62 474.587V471.615H1150.16V475.524Z" fill="white"/>
<path d="M1156.31 475.004C1156.22 475.148 1156.05 475.284 1155.83 475.405C1155.59 475.525 1155.29 475.589 1154.93 475.589C1154.47 475.589 1154.09 475.437 1153.8 475.14C1153.5 474.844 1153.36 474.459 1153.36 473.987V473.186C1153.36 472.713 1153.5 472.329 1153.79 472.033C1154.07 471.736 1154.44 471.584 1154.9 471.584C1155.33 471.584 1155.68 471.696 1155.93 471.928C1156.18 472.161 1156.31 472.457 1156.3 472.809L1156.3 472.825H1155.79C1155.79 472.585 1155.71 472.393 1155.55 472.233C1155.4 472.073 1155.18 471.992 1154.89 471.992C1154.59 471.992 1154.35 472.105 1154.16 472.329C1153.97 472.553 1153.88 472.833 1153.88 473.178V473.987C1153.88 474.331 1153.98 474.62 1154.18 474.844C1154.37 475.068 1154.62 475.18 1154.92 475.18C1155.15 475.18 1155.34 475.148 1155.47 475.092C1155.61 475.036 1155.71 474.964 1155.78 474.876V473.995H1154.89V473.586H1156.31V475.004Z" fill="white"/>
<path d="M1162.54 471.632V472.104L1162.55 472.112C1162.71 472.064 1162.83 471.968 1162.91 471.824C1162.99 471.68 1163.03 471.496 1163.03 471.271H1163.54L1163.55 471.288C1163.55 471.632 1163.47 471.912 1163.29 472.128C1163.11 472.345 1162.86 472.481 1162.53 472.545V474.227C1162.53 474.651 1162.39 474.988 1162.11 475.228C1161.83 475.468 1161.47 475.589 1161.02 475.589C1160.59 475.589 1160.25 475.468 1159.97 475.228C1159.7 474.988 1159.57 474.651 1159.57 474.227V471.64H1160.1V474.227C1160.1 474.523 1160.19 474.756 1160.36 474.924C1160.53 475.092 1160.76 475.18 1161.02 475.18C1161.32 475.18 1161.55 475.092 1161.73 474.924C1161.91 474.756 1162 474.523 1162 474.227V471.64H1162.54V471.632Z" fill="white"/>
<path d="M1168.89 473.922C1168.89 474.395 1168.75 474.795 1168.45 475.108C1168.15 475.42 1167.76 475.58 1167.28 475.58C1166.82 475.58 1166.45 475.42 1166.17 475.108C1165.87 474.795 1165.74 474.395 1165.74 473.922V473.225C1165.74 472.753 1165.88 472.352 1166.17 472.04C1166.46 471.728 1166.83 471.567 1167.28 471.567C1167.5 471.567 1167.7 471.599 1167.89 471.672C1168.08 471.744 1168.24 471.848 1168.38 471.976C1168.6 471.96 1168.77 471.872 1168.89 471.72C1169 471.567 1169.06 471.359 1169.06 471.095H1169.59C1169.59 471.439 1169.51 471.72 1169.36 471.936C1169.19 472.152 1168.97 472.296 1168.68 472.36C1168.74 472.488 1168.8 472.625 1168.84 472.769C1168.88 472.921 1168.89 473.073 1168.89 473.225V473.922ZM1168.36 473.225C1168.36 472.865 1168.26 472.577 1168.07 472.344C1167.87 472.112 1167.61 472 1167.28 472C1166.98 472 1166.72 472.112 1166.54 472.344C1166.35 472.577 1166.26 472.865 1166.26 473.225V473.922C1166.26 474.283 1166.35 474.579 1166.54 474.803C1166.72 475.036 1166.97 475.148 1167.28 475.148C1167.61 475.148 1167.87 475.036 1168.07 474.803C1168.26 474.579 1168.36 474.283 1168.36 473.922V473.225ZM1167.56 471.287H1167.13L1166.45 470.59L1166.46 470.574H1167.08L1167.56 471.287Z" fill="white"/>
<path d="M1172.68 475.524H1172.15V471.623H1172.68V475.524Z" fill="white"/>
<path d="M1108.21 430.334C1110.78 430.334 1112.06 431.712 1112.06 434.467V435.34H1109.59V434.307C1109.59 433.225 1109.15 432.689 1108.28 432.689C1107.4 432.689 1106.96 433.225 1106.96 434.307C1106.96 435.052 1107.23 435.756 1107.77 436.437C1107.98 436.694 1108.25 436.99 1108.59 437.31L1109.29 437.951C1109.38 438.039 1109.46 438.111 1109.53 438.167C1109.92 438.52 1110.23 438.824 1110.46 439.088C1110.79 439.449 1111.07 439.801 1111.29 440.154C1111.82 441.011 1112.09 441.964 1112.09 443.021C1112.09 445.776 1110.79 447.154 1108.2 447.154C1105.6 447.154 1104.3 445.776 1104.3 443.021V441.419H1106.77V443.173C1106.77 444.246 1107.22 444.783 1108.13 444.783C1109.03 444.783 1109.47 444.246 1109.47 443.173C1109.47 442.428 1109.22 441.723 1108.69 441.051C1108.48 440.794 1108.2 440.498 1107.86 440.17L1106.92 439.313C1106.54 438.96 1106.23 438.656 1105.98 438.392C1105.66 438.031 1105.39 437.679 1105.18 437.334C1104.64 436.469 1104.37 435.508 1104.37 434.459C1104.36 431.704 1105.64 430.334 1108.21 430.334Z" fill="white"/>
<path d="M1119.09 442.188L1120.87 430.51H1124.5V446.961H1122.03V435.171L1120.24 446.961H1117.77L1115.81 435.331V446.961H1113.53V430.51H1117.16L1119.09 442.188Z" fill="white"/>
<path d="M1134.84 446.961H1132.21L1131.76 443.982H1128.56L1128.1 446.961H1125.71L1128.36 430.51H1132.19L1134.84 446.961ZM1128.88 441.739H1131.41L1130.14 433.425L1128.88 441.739Z" fill="white"/>
<path d="M1141.51 446.961C1141.42 446.705 1141.37 446.481 1141.34 446.296C1141.3 446 1141.29 445.544 1141.29 444.943V442.364C1141.29 440.962 1140.71 440.265 1139.57 440.265H1138.66V446.961H1136.05V430.51H1140C1142.58 430.51 1143.87 431.775 1143.87 434.298V435.596C1143.87 437.286 1143.29 438.399 1142.15 438.936C1143.31 439.408 1143.89 440.578 1143.89 442.436V444.967C1143.89 445.856 1143.98 446.521 1144.17 446.961H1141.51ZM1138.65 432.865V437.927H1139.67C1140.73 437.927 1141.25 437.342 1141.25 436.18V434.563C1141.25 433.433 1140.81 432.865 1139.92 432.865H1138.65Z" fill="white"/>
<path d="M1144.88 430.51H1152.95V432.865H1150.22V446.961H1147.62V432.865H1144.88V430.51Z" fill="white"/>
</g>
<defs>
<linearGradient id="paint0_linear" x1="307.2" y1="-183" x2="454.563" y2="395.26" gradientUnits="userSpaceOnUse">
<stop stop-color="#EF0134"/>
<stop offset="1" stop-color="#D7002E"/>
</linearGradient>
<clipPath id="clip0">
<rect width="102" height="54" fill="white" transform="translate(1071 425)"/>
</clipPath>
</defs>
</svg>
