<svg width="375" height="88" fill="none" xmlns="http://www.w3.org/2000/svg"><path d="M325.53 85.59h-276C23.64 85.59 2.67 67 2.67 44c0-23 21-41.57 46.84-41.57h276c25.87 0 46.84 18.61 46.84 41.57.02 23-20.95 41.59-46.82 41.59z" fill="#F7991C"/><path style="mix-blend-mode:color-burn" d="M325.53 85.59h-276C23.64 85.59 2.67 67 2.67 44c0-23 21-41.57 46.84-41.57h276c25.87 0 46.84 18.61 46.84 41.57.02 23-20.95 41.59-46.82 41.59z" fill="url(#paint0_linear)"/><path style="mix-blend-mode:color-dodge" d="M325.53 85.59h-276C23.64 85.59 2.67 67 2.67 44c0-23 21-41.57 46.84-41.57h276c25.87 0 46.84 18.61 46.84 41.57.02 23-20.95 41.59-46.82 41.59z" fill="url(#paint1_radial)"/><path d="M325.53 87.34h-276C22.62 87.34.73 67.91.73 44.02S22.6.71 49.51.71h276c26.91 0 48.81 19.43 48.81 43.31 0 23.88-21.88 43.32-48.79 43.32zM49.51 4.2C24.77 4.2 4.64 22.06 4.64 44c0 21.94 20.13 39.85 44.87 39.85h276C350.28 83.85 370.4 66 370.4 44S350.28 4.2 325.53 4.2H49.51z" fill="#fff"/><path style="mix-blend-mode:screen" d="M329.44 38.08H45.6c-8.72 0-15.79-6.27-15.79-14V22.4c0-7.73 7.07-14 15.79-14h283.84c8.72 0 15.79 6.28 15.79 14v1.67c0 7.74-7.07 14.01-15.79 14.01z" fill="url(#paint2_linear)"/><defs><linearGradient id="paint0_linear" x1="187.52" y1="4.93" x2="187.52" y2="89.13" gradientUnits="userSpaceOnUse"><stop stop-color="#fff"/><stop offset=".2" stop-color="#FCFCFC"/><stop offset=".37" stop-color="#F1F1F1"/><stop offset=".53" stop-color="#E0E0E0"/><stop offset=".68" stop-color="#C8C8C8"/><stop offset=".82" stop-color="#ABABAB"/><stop offset="1" stop-color="#fff"/></linearGradient><linearGradient id="paint2_linear" x1="187.52" y1="54.58" x2="187.52" y2="3.76" gradientUnits="userSpaceOnUse"><stop/><stop offset=".14" stop-color="#040302"/><stop offset=".27" stop-color="#0F0E08"/><stop offset=".39" stop-color="#222012"/><stop offset=".51" stop-color="#3D3821"/><stop offset=".63" stop-color="#5F5933"/><stop offset=".75" stop-color="#8A804A"/><stop offset=".87" stop-color="#BCAE65"/><stop offset=".98" stop-color="#F4E383"/><stop offset="1" stop-color="#FDEB88"/></linearGradient><radialGradient id="paint1_radial" cx="0" cy="0" r="1" gradientUnits="userSpaceOnUse" gradientTransform="matrix(175.647 0 0 155.44 191.91 119.24)"><stop offset=".17" stop-color="#838484"/><stop offset=".36" stop-color="#565757"/><stop offset=".55" stop-color="#313131"/><stop offset=".72" stop-color="#161616"/><stop offset=".88" stop-color="#060606"/><stop offset="1"/></radialGradient></defs></svg>