<svg width="554" height="374" viewBox="0 0 554 374" fill="none" xmlns="http://www.w3.org/2000/svg">
<path d="M37.3681 291.148C37.3681 292.841 37.0791 294.099 36.5009 294.922C35.9228 295.745 35.0192 296.156 33.79 296.156C32.5765 296.156 31.678 295.755 31.0947 294.953C30.5114 294.146 30.2093 292.943 30.1884 291.344V289.414C30.1884 287.742 30.4775 286.5 31.0556 285.688C31.6337 284.875 32.54 284.469 33.7744 284.469C34.9983 284.469 35.8994 284.862 36.4775 285.648C37.0556 286.43 37.3525 287.638 37.3681 289.273V291.148ZM35.9228 289.172C35.9228 287.948 35.7509 287.057 35.4072 286.5C35.0634 285.938 34.5192 285.656 33.7744 285.656C33.0348 285.656 32.4957 285.935 32.1572 286.492C31.8186 287.049 31.6442 287.906 31.6337 289.062V291.375C31.6337 292.604 31.8108 293.513 32.165 294.102C32.5244 294.685 33.066 294.977 33.79 294.977C34.5035 294.977 35.0322 294.701 35.3759 294.148C35.7249 293.596 35.9072 292.727 35.9228 291.539V289.172Z" fill="#44494D"/>
<path d="M122.267 319.859H118.61V330H117.118V319.859H113.47V318.625H122.267V319.859ZM125.173 322.57C125.813 321.784 126.647 321.391 127.673 321.391C129.459 321.391 130.36 322.398 130.376 324.414V330H128.931V324.406C128.925 323.797 128.785 323.346 128.509 323.055C128.238 322.763 127.813 322.617 127.235 322.617C126.767 322.617 126.355 322.742 126.001 322.992C125.647 323.242 125.371 323.57 125.173 323.977V330H123.728V318H125.173V322.57ZM137.759 330C137.675 329.833 137.608 329.536 137.556 329.109C136.884 329.807 136.082 330.156 135.149 330.156C134.316 330.156 133.631 329.922 133.095 329.453C132.563 328.979 132.298 328.38 132.298 327.656C132.298 326.776 132.631 326.094 133.298 325.609C133.97 325.12 134.912 324.875 136.126 324.875H137.532V324.211C137.532 323.706 137.381 323.305 137.079 323.008C136.777 322.706 136.332 322.555 135.743 322.555C135.228 322.555 134.795 322.685 134.446 322.945C134.097 323.206 133.923 323.521 133.923 323.891H132.47C132.47 323.469 132.618 323.062 132.915 322.672C133.217 322.276 133.623 321.964 134.134 321.734C134.649 321.505 135.215 321.391 135.829 321.391C136.803 321.391 137.566 321.635 138.118 322.125C138.67 322.609 138.957 323.279 138.978 324.133V328.023C138.978 328.799 139.076 329.417 139.274 329.875V330H137.759ZM135.36 328.898C135.813 328.898 136.243 328.781 136.649 328.547C137.056 328.312 137.35 328.008 137.532 327.633V325.898H136.399C134.629 325.898 133.743 326.417 133.743 327.453C133.743 327.906 133.894 328.26 134.196 328.516C134.498 328.771 134.886 328.898 135.36 328.898ZM136.696 318H138.446L136.353 320.297H135.188L136.696 318ZM142.61 321.547L142.657 322.609C143.303 321.797 144.147 321.391 145.188 321.391C146.975 321.391 147.876 322.398 147.892 324.414V330H146.446V324.406C146.441 323.797 146.3 323.346 146.024 323.055C145.754 322.763 145.329 322.617 144.751 322.617C144.282 322.617 143.871 322.742 143.517 322.992C143.162 323.242 142.886 323.57 142.688 323.977V330H141.243V321.547H142.61ZM149.728 325.703C149.728 324.385 150.032 323.339 150.642 322.562C151.251 321.781 152.058 321.391 153.063 321.391C154.095 321.391 154.899 321.755 155.478 322.484L155.548 321.547H156.868V329.797C156.868 330.891 156.543 331.753 155.892 332.383C155.246 333.013 154.376 333.328 153.282 333.328C152.673 333.328 152.076 333.198 151.493 332.938C150.91 332.677 150.465 332.32 150.157 331.867L150.907 331C151.527 331.766 152.285 332.148 153.181 332.148C153.884 332.148 154.431 331.951 154.821 331.555C155.217 331.159 155.415 330.602 155.415 329.883V329.156C154.837 329.823 154.048 330.156 153.048 330.156C152.058 330.156 151.256 329.758 150.642 328.961C150.032 328.164 149.728 327.078 149.728 325.703ZM151.181 325.867C151.181 326.82 151.376 327.57 151.767 328.117C152.157 328.659 152.704 328.93 153.407 328.93C154.319 328.93 154.988 328.516 155.415 327.688V323.828C154.972 323.021 154.308 322.617 153.423 322.617C152.72 322.617 152.17 322.891 151.774 323.438C151.379 323.984 151.181 324.794 151.181 325.867ZM163.54 324.297L164.118 318.625H169.946V319.961H165.345L165.001 323.062C165.558 322.734 166.191 322.57 166.899 322.57C167.936 322.57 168.759 322.914 169.368 323.602C169.978 324.284 170.282 325.208 170.282 326.375C170.282 327.547 169.965 328.471 169.329 329.148C168.699 329.82 167.816 330.156 166.681 330.156C165.675 330.156 164.855 329.878 164.22 329.32C163.584 328.763 163.222 327.992 163.134 327.008H164.501C164.59 327.659 164.821 328.151 165.196 328.484C165.571 328.812 166.066 328.977 166.681 328.977C167.353 328.977 167.879 328.747 168.259 328.289C168.644 327.831 168.837 327.198 168.837 326.391C168.837 325.63 168.629 325.021 168.212 324.562C167.8 324.099 167.251 323.867 166.563 323.867C165.933 323.867 165.438 324.005 165.079 324.281L164.696 324.594L163.54 324.297Z" fill="#44494D"/>
<path d="M292.267 319.859H288.61V330H287.118V319.859H283.47V318.625H292.267V319.859ZM295.173 322.57C295.813 321.784 296.647 321.391 297.673 321.391C299.459 321.391 300.36 322.398 300.376 324.414V330H298.931V324.406C298.925 323.797 298.785 323.346 298.509 323.055C298.238 322.763 297.813 322.617 297.235 322.617C296.767 322.617 296.355 322.742 296.001 322.992C295.647 323.242 295.371 323.57 295.173 323.977V330H293.728V318H295.173V322.57ZM307.759 330C307.675 329.833 307.608 329.536 307.556 329.109C306.884 329.807 306.082 330.156 305.149 330.156C304.316 330.156 303.631 329.922 303.095 329.453C302.563 328.979 302.298 328.38 302.298 327.656C302.298 326.776 302.631 326.094 303.298 325.609C303.97 325.12 304.912 324.875 306.126 324.875H307.532V324.211C307.532 323.706 307.381 323.305 307.079 323.008C306.777 322.706 306.332 322.555 305.743 322.555C305.228 322.555 304.795 322.685 304.446 322.945C304.097 323.206 303.923 323.521 303.923 323.891H302.47C302.47 323.469 302.618 323.062 302.915 322.672C303.217 322.276 303.623 321.964 304.134 321.734C304.649 321.505 305.215 321.391 305.829 321.391C306.803 321.391 307.566 321.635 308.118 322.125C308.67 322.609 308.957 323.279 308.978 324.133V328.023C308.978 328.799 309.076 329.417 309.274 329.875V330H307.759ZM305.36 328.898C305.813 328.898 306.243 328.781 306.649 328.547C307.056 328.312 307.35 328.008 307.532 327.633V325.898H306.399C304.629 325.898 303.743 326.417 303.743 327.453C303.743 327.906 303.894 328.26 304.196 328.516C304.498 328.771 304.886 328.898 305.36 328.898ZM306.696 318H308.446L306.353 320.297H305.188L306.696 318ZM312.61 321.547L312.657 322.609C313.303 321.797 314.147 321.391 315.188 321.391C316.975 321.391 317.876 322.398 317.892 324.414V330H316.446V324.406C316.441 323.797 316.3 323.346 316.024 323.055C315.754 322.763 315.329 322.617 314.751 322.617C314.282 322.617 313.871 322.742 313.517 322.992C313.162 323.242 312.886 323.57 312.688 323.977V330H311.243V321.547H312.61ZM319.728 325.703C319.728 324.385 320.032 323.339 320.642 322.562C321.251 321.781 322.058 321.391 323.063 321.391C324.095 321.391 324.899 321.755 325.478 322.484L325.548 321.547H326.868V329.797C326.868 330.891 326.543 331.753 325.892 332.383C325.246 333.013 324.376 333.328 323.282 333.328C322.673 333.328 322.076 333.198 321.493 332.938C320.91 332.677 320.465 332.32 320.157 331.867L320.907 331C321.527 331.766 322.285 332.148 323.181 332.148C323.884 332.148 324.431 331.951 324.821 331.555C325.217 331.159 325.415 330.602 325.415 329.883V329.156C324.837 329.823 324.048 330.156 323.048 330.156C322.058 330.156 321.256 329.758 320.642 328.961C320.032 328.164 319.728 327.078 319.728 325.703ZM321.181 325.867C321.181 326.82 321.376 327.57 321.767 328.117C322.157 328.659 322.704 328.93 323.407 328.93C324.319 328.93 324.988 328.516 325.415 327.688V323.828C324.972 323.021 324.308 322.617 323.423 322.617C322.72 322.617 322.17 322.891 321.774 323.438C321.379 323.984 321.181 324.794 321.181 325.867ZM338.548 318.617V319.844H338.282C337.157 319.865 336.261 320.198 335.595 320.844C334.928 321.49 334.543 322.398 334.438 323.57C335.037 322.883 335.855 322.539 336.892 322.539C337.881 322.539 338.67 322.888 339.259 323.586C339.853 324.284 340.149 325.185 340.149 326.289C340.149 327.461 339.829 328.398 339.188 329.102C338.553 329.805 337.699 330.156 336.626 330.156C335.537 330.156 334.655 329.74 333.978 328.906C333.3 328.068 332.962 326.99 332.962 325.672V325.117C332.962 323.023 333.407 321.424 334.298 320.32C335.194 319.211 336.524 318.643 338.29 318.617H338.548ZM336.649 323.742C336.155 323.742 335.699 323.891 335.282 324.188C334.866 324.484 334.576 324.857 334.415 325.305V325.836C334.415 326.773 334.626 327.529 335.048 328.102C335.47 328.674 335.996 328.961 336.626 328.961C337.277 328.961 337.787 328.721 338.157 328.242C338.532 327.763 338.72 327.135 338.72 326.359C338.72 325.578 338.53 324.948 338.149 324.469C337.774 323.984 337.274 323.742 336.649 323.742Z" fill="#44494D"/>
<path d="M461.266 319.859H457.609V330H456.117V319.859H452.469V318.625H461.266V319.859ZM464.172 322.57C464.812 321.784 465.646 321.391 466.672 321.391C468.458 321.391 469.359 322.398 469.375 324.414V330H467.93V324.406C467.924 323.797 467.784 323.346 467.508 323.055C467.237 322.763 466.812 322.617 466.234 322.617C465.766 322.617 465.354 322.742 465 322.992C464.646 323.242 464.37 323.57 464.172 323.977V330H462.727V318H464.172V322.57ZM476.758 330C476.674 329.833 476.607 329.536 476.555 329.109C475.883 329.807 475.081 330.156 474.148 330.156C473.315 330.156 472.63 329.922 472.094 329.453C471.562 328.979 471.297 328.38 471.297 327.656C471.297 326.776 471.63 326.094 472.297 325.609C472.969 325.12 473.911 324.875 475.125 324.875H476.531V324.211C476.531 323.706 476.38 323.305 476.078 323.008C475.776 322.706 475.331 322.555 474.742 322.555C474.227 322.555 473.794 322.685 473.445 322.945C473.096 323.206 472.922 323.521 472.922 323.891H471.469C471.469 323.469 471.617 323.062 471.914 322.672C472.216 322.276 472.622 321.964 473.133 321.734C473.648 321.505 474.214 321.391 474.828 321.391C475.802 321.391 476.565 321.635 477.117 322.125C477.669 322.609 477.956 323.279 477.977 324.133V328.023C477.977 328.799 478.076 329.417 478.273 329.875V330H476.758ZM474.359 328.898C474.812 328.898 475.242 328.781 475.648 328.547C476.055 328.312 476.349 328.008 476.531 327.633V325.898H475.398C473.628 325.898 472.742 326.417 472.742 327.453C472.742 327.906 472.893 328.26 473.195 328.516C473.497 328.771 473.885 328.898 474.359 328.898ZM475.695 318H477.445L475.352 320.297H474.188L475.695 318ZM481.609 321.547L481.656 322.609C482.302 321.797 483.146 321.391 484.188 321.391C485.974 321.391 486.875 322.398 486.891 324.414V330H485.445V324.406C485.44 323.797 485.299 323.346 485.023 323.055C484.753 322.763 484.328 322.617 483.75 322.617C483.281 322.617 482.87 322.742 482.516 322.992C482.161 323.242 481.885 323.57 481.688 323.977V330H480.242V321.547H481.609ZM488.727 325.703C488.727 324.385 489.031 323.339 489.641 322.562C490.25 321.781 491.057 321.391 492.062 321.391C493.094 321.391 493.898 321.755 494.477 322.484L494.547 321.547H495.867V329.797C495.867 330.891 495.542 331.753 494.891 332.383C494.245 333.013 493.375 333.328 492.281 333.328C491.672 333.328 491.076 333.198 490.492 332.938C489.909 332.677 489.464 332.32 489.156 331.867L489.906 331C490.526 331.766 491.284 332.148 492.18 332.148C492.883 332.148 493.43 331.951 493.82 331.555C494.216 331.159 494.414 330.602 494.414 329.883V329.156C493.836 329.823 493.047 330.156 492.047 330.156C491.057 330.156 490.255 329.758 489.641 328.961C489.031 328.164 488.727 327.078 488.727 325.703ZM490.18 325.867C490.18 326.82 490.375 327.57 490.766 328.117C491.156 328.659 491.703 328.93 492.406 328.93C493.318 328.93 493.987 328.516 494.414 327.688V323.828C493.971 323.021 493.307 322.617 492.422 322.617C491.719 322.617 491.169 322.891 490.773 323.438C490.378 323.984 490.18 324.794 490.18 325.867ZM509.219 319.438L504.508 330H502.992L507.688 319.812H501.531V318.625H509.219V319.438Z" fill="#44494D"/>
<path d="M17.0165 242H15.5633V232.367L12.6493 233.438V232.125L16.7899 230.57H17.0165V242ZM28.3837 237.148C28.3837 238.841 28.0946 240.099 27.5165 240.922C26.9383 241.745 26.0347 242.156 24.8055 242.156C23.592 242.156 22.6936 241.755 22.1102 240.953C21.5269 240.146 21.2248 238.943 21.204 237.344V235.414C21.204 233.742 21.493 232.5 22.0712 231.688C22.6493 230.875 23.5555 230.469 24.7899 230.469C26.0139 230.469 26.9149 230.862 27.493 231.648C28.0712 232.43 28.368 233.638 28.3837 235.273V237.148ZM26.9383 235.172C26.9383 233.948 26.7665 233.057 26.4227 232.5C26.079 231.938 25.5347 231.656 24.7899 231.656C24.0503 231.656 23.5113 231.935 23.1727 232.492C22.8342 233.049 22.6597 233.906 22.6493 235.062V237.375C22.6493 238.604 22.8264 239.513 23.1805 240.102C23.5399 240.685 24.0816 240.977 24.8055 240.977C25.5191 240.977 26.0477 240.701 26.3915 240.148C26.7404 239.596 26.9227 238.727 26.9383 237.539V235.172ZM37.368 237.148C37.368 238.841 37.079 240.099 36.5008 240.922C35.9227 241.745 35.0191 242.156 33.7899 242.156C32.5764 242.156 31.6779 241.755 31.0946 240.953C30.5113 240.146 30.2092 238.943 30.1883 237.344V235.414C30.1883 233.742 30.4774 232.5 31.0555 231.688C31.6337 230.875 32.5399 230.469 33.7743 230.469C34.9982 230.469 35.8993 230.862 36.4774 231.648C37.0555 232.43 37.3524 233.638 37.368 235.273V237.148ZM35.9227 235.172C35.9227 233.948 35.7508 233.057 35.4071 232.5C35.0633 231.938 34.5191 231.656 33.7743 231.656C33.0347 231.656 32.4956 231.935 32.1571 232.492C31.8186 233.049 31.6441 233.906 31.6337 235.062V237.375C31.6337 238.604 31.8107 239.513 32.1649 240.102C32.5243 240.685 33.0659 240.977 33.7899 240.977C34.5034 240.977 35.0321 240.701 35.3758 240.148C35.7248 239.596 35.9071 238.727 35.9227 237.539V235.172Z" fill="#44494D"/>
<path d="M19.7196 188H12.2665V186.961L16.204 182.586C16.7873 181.924 17.1883 181.388 17.4071 180.977C17.6311 180.56 17.743 180.13 17.743 179.688C17.743 179.094 17.5633 178.607 17.204 178.227C16.8446 177.846 16.3654 177.656 15.7665 177.656C15.0477 177.656 14.4878 177.862 14.0868 178.273C13.6909 178.68 13.493 179.247 13.493 179.977H12.0477C12.0477 178.93 12.3837 178.083 13.0555 177.438C13.7326 176.792 14.6363 176.469 15.7665 176.469C16.8238 176.469 17.6597 176.747 18.2743 177.305C18.8889 177.857 19.1962 178.594 19.1962 179.516C19.1962 180.635 18.4826 181.969 17.0555 183.516L14.0087 186.82H19.7196V188ZM28.3837 183.148C28.3837 184.841 28.0946 186.099 27.5165 186.922C26.9383 187.745 26.0347 188.156 24.8055 188.156C23.592 188.156 22.6936 187.755 22.1102 186.953C21.5269 186.146 21.2248 184.943 21.204 183.344V181.414C21.204 179.742 21.493 178.5 22.0712 177.688C22.6493 176.875 23.5555 176.469 24.7899 176.469C26.0139 176.469 26.9149 176.862 27.493 177.648C28.0712 178.43 28.368 179.638 28.3837 181.273V183.148ZM26.9383 181.172C26.9383 179.948 26.7665 179.057 26.4227 178.5C26.079 177.938 25.5347 177.656 24.7899 177.656C24.0503 177.656 23.5113 177.935 23.1727 178.492C22.8342 179.049 22.6597 179.906 22.6493 181.062V183.375C22.6493 184.604 22.8264 185.513 23.1805 186.102C23.5399 186.685 24.0816 186.977 24.8055 186.977C25.5191 186.977 26.0477 186.701 26.3915 186.148C26.7404 185.596 26.9227 184.727 26.9383 183.539V181.172ZM37.368 183.148C37.368 184.841 37.079 186.099 36.5008 186.922C35.9227 187.745 35.0191 188.156 33.7899 188.156C32.5764 188.156 31.6779 187.755 31.0946 186.953C30.5113 186.146 30.2092 184.943 30.1883 183.344V181.414C30.1883 179.742 30.4774 178.5 31.0555 177.688C31.6337 176.875 32.5399 176.469 33.7743 176.469C34.9982 176.469 35.8993 176.862 36.4774 177.648C37.0555 178.43 37.3524 179.638 37.368 181.273V183.148ZM35.9227 181.172C35.9227 179.948 35.7508 179.057 35.4071 178.5C35.0633 177.938 34.5191 177.656 33.7743 177.656C33.0347 177.656 32.4956 177.935 32.1571 178.492C31.8186 179.049 31.6441 179.906 31.6337 181.062V183.375C31.6337 184.604 31.8107 185.513 32.1649 186.102C32.5243 186.685 33.0659 186.977 33.7899 186.977C34.5034 186.977 35.0321 186.701 35.3758 186.148C35.7248 185.596 35.9071 184.727 35.9227 183.539V181.172Z" fill="#44494D"/>
<path d="M14.368 127.609H15.454C16.1363 127.599 16.6727 127.419 17.0633 127.07C17.454 126.721 17.6493 126.25 17.6493 125.656C17.6493 124.323 16.9852 123.656 15.6571 123.656C15.0321 123.656 14.5321 123.836 14.1571 124.195C13.7873 124.549 13.6024 125.021 13.6024 125.609H12.1571C12.1571 124.708 12.4852 123.961 13.1415 123.367C13.8029 122.768 14.6415 122.469 15.6571 122.469C16.73 122.469 17.5712 122.753 18.1805 123.32C18.7899 123.888 19.0946 124.677 19.0946 125.688C19.0946 126.182 18.9331 126.661 18.6102 127.125C18.2925 127.589 17.8576 127.935 17.3055 128.164C17.9305 128.362 18.4123 128.69 18.7508 129.148C19.0946 129.607 19.2665 130.167 19.2665 130.828C19.2665 131.849 18.9331 132.659 18.2665 133.258C17.5998 133.857 16.7326 134.156 15.6649 134.156C14.5972 134.156 13.7274 133.867 13.0555 133.289C12.3889 132.711 12.0555 131.948 12.0555 131H13.5087C13.5087 131.599 13.704 132.078 14.0946 132.438C14.4852 132.797 15.0087 132.977 15.6649 132.977C16.3628 132.977 16.8967 132.794 17.2665 132.43C17.6363 132.065 17.8212 131.542 17.8212 130.859C17.8212 130.198 17.618 129.69 17.2118 129.336C16.8055 128.982 16.2196 128.799 15.454 128.789H14.368V127.609ZM28.3837 129.148C28.3837 130.841 28.0946 132.099 27.5165 132.922C26.9383 133.745 26.0347 134.156 24.8055 134.156C23.592 134.156 22.6936 133.755 22.1102 132.953C21.5269 132.146 21.2248 130.943 21.204 129.344V127.414C21.204 125.742 21.493 124.5 22.0712 123.688C22.6493 122.875 23.5555 122.469 24.7899 122.469C26.0139 122.469 26.9149 122.862 27.493 123.648C28.0712 124.43 28.368 125.638 28.3837 127.273V129.148ZM26.9383 127.172C26.9383 125.948 26.7665 125.057 26.4227 124.5C26.079 123.938 25.5347 123.656 24.7899 123.656C24.0503 123.656 23.5113 123.935 23.1727 124.492C22.8342 125.049 22.6597 125.906 22.6493 127.062V129.375C22.6493 130.604 22.8264 131.513 23.1805 132.102C23.5399 132.685 24.0816 132.977 24.8055 132.977C25.5191 132.977 26.0477 132.701 26.3915 132.148C26.7404 131.596 26.9227 130.727 26.9383 129.539V127.172ZM37.368 129.148C37.368 130.841 37.079 132.099 36.5008 132.922C35.9227 133.745 35.0191 134.156 33.7899 134.156C32.5764 134.156 31.6779 133.755 31.0946 132.953C30.5113 132.146 30.2092 130.943 30.1883 129.344V127.414C30.1883 125.742 30.4774 124.5 31.0555 123.688C31.6337 122.875 32.5399 122.469 33.7743 122.469C34.9982 122.469 35.8993 122.862 36.4774 123.648C37.0555 124.43 37.3524 125.638 37.368 127.273V129.148ZM35.9227 127.172C35.9227 125.948 35.7508 125.057 35.4071 124.5C35.0633 123.938 34.5191 123.656 33.7743 123.656C33.0347 123.656 32.4956 123.935 32.1571 124.492C31.8186 125.049 31.6441 125.906 31.6337 127.062V129.375C31.6337 130.604 31.8107 131.513 32.1649 132.102C32.5243 132.685 33.0659 132.977 33.7899 132.977C34.5034 132.977 35.0321 132.701 35.3758 132.148C35.7248 131.596 35.9071 130.727 35.9227 129.539V127.172Z" fill="#44494D"/>
<path d="M18.368 76.1797H19.9462V77.3594H18.368V80H16.9149V77.3594H11.7352V76.5078L16.829 68.625H18.368V76.1797ZM13.3758 76.1797H16.9149V70.6016L16.743 70.9141L13.3758 76.1797ZM28.3837 75.1484C28.3837 76.8411 28.0946 78.099 27.5165 78.9219C26.9383 79.7448 26.0347 80.1562 24.8055 80.1562C23.592 80.1562 22.6936 79.7552 22.1102 78.9531C21.5269 78.1458 21.2248 76.9427 21.204 75.3438V73.4141C21.204 71.7422 21.493 70.5 22.0712 69.6875C22.6493 68.875 23.5555 68.4688 24.7899 68.4688C26.0139 68.4688 26.9149 68.862 27.493 69.6484C28.0712 70.4297 28.368 71.638 28.3837 73.2734V75.1484ZM26.9383 73.1719C26.9383 71.9479 26.7665 71.0573 26.4227 70.5C26.079 69.9375 25.5347 69.6562 24.7899 69.6562C24.0503 69.6562 23.5113 69.9349 23.1727 70.4922C22.8342 71.0495 22.6597 71.9062 22.6493 73.0625V75.375C22.6493 76.6042 22.8264 77.513 23.1805 78.1016C23.5399 78.6849 24.0816 78.9766 24.8055 78.9766C25.5191 78.9766 26.0477 78.7005 26.3915 78.1484C26.7404 77.5964 26.9227 76.7266 26.9383 75.5391V73.1719ZM37.368 75.1484C37.368 76.8411 37.079 78.099 36.5008 78.9219C35.9227 79.7448 35.0191 80.1562 33.7899 80.1562C32.5764 80.1562 31.6779 79.7552 31.0946 78.9531C30.5113 78.1458 30.2092 76.9427 30.1883 75.3438V73.4141C30.1883 71.7422 30.4774 70.5 31.0555 69.6875C31.6337 68.875 32.5399 68.4688 33.7743 68.4688C34.9982 68.4688 35.8993 68.862 36.4774 69.6484C37.0555 70.4297 37.3524 71.638 37.368 73.2734V75.1484ZM35.9227 73.1719C35.9227 71.9479 35.7508 71.0573 35.4071 70.5C35.0633 69.9375 34.5191 69.6562 33.7743 69.6562C33.0347 69.6562 32.4956 69.9349 32.1571 70.4922C31.8186 71.0495 31.6441 71.9062 31.6337 73.0625V75.375C31.6337 76.6042 31.8107 77.513 32.1649 78.1016C32.5243 78.6849 33.0659 78.9766 33.7899 78.9766C34.5034 78.9766 35.0321 78.7005 35.3758 78.1484C35.7248 77.5964 35.9071 76.7266 35.9227 75.5391V73.1719Z" fill="#44494D"/>
<path d="M17.5942 5.625L21.313 14.9062L25.0317 5.625H26.9771V17H25.4771V12.5703L25.6177 7.78906L21.8833 17H20.7349L17.0083 7.8125L17.1567 12.5703V17H15.6567V5.625H17.5942ZM29.6255 17V5.625H33.3442C34.5786 5.625 35.5057 5.88021 36.1255 6.39062C36.7505 6.90104 37.063 7.65625 37.063 8.65625C37.063 9.1875 36.9119 9.65885 36.6099 10.0703C36.3078 10.4766 35.8963 10.7917 35.3755 11.0156C35.9901 11.1875 36.4744 11.5156 36.8286 12C37.188 12.4792 37.3677 13.0521 37.3677 13.7188C37.3677 14.7396 37.0369 15.5417 36.3755 16.125C35.714 16.7083 34.7791 17 33.5708 17H29.6255ZM31.1255 11.6797V15.7734H33.6021C34.3 15.7734 34.8494 15.5938 35.2505 15.2344C35.6567 14.8698 35.8599 14.3698 35.8599 13.7344C35.8599 12.3646 35.1151 11.6797 33.6255 11.6797H31.1255ZM31.1255 10.4766H33.3911C34.0474 10.4766 34.5708 10.3125 34.9614 9.98438C35.3573 9.65625 35.5552 9.21094 35.5552 8.64844C35.5552 8.02344 35.3729 7.57031 35.0083 7.28906C34.6437 7.0026 34.089 6.85938 33.3442 6.85938H31.1255V10.4766Z" fill="#44494D"/>
<path d="M73.2747 75H553.001" stroke="#EAEDF2" stroke-linecap="square"/>
<path d="M73.2747 129H553.001" stroke="#EAEDF2" stroke-linecap="square"/>
<path d="M73.2747 183H553.001" stroke="#EAEDF2" stroke-linecap="square"/>
<path d="M73.2747 237H553.001" stroke="#EAEDF2" stroke-linecap="square"/>
<path d="M73.2747 291H553.001" stroke="#EAEDF2" stroke-linecap="square"/>
<path d="M475 178.584C475 175.27 477.686 172.584 481 172.584C484.314 172.584 487 175.27 487 178.584V291.451H475V178.584Z" fill="#44494D"/>
<path d="M306.001 220.186C306.001 216.872 308.687 214.186 312.001 214.186C315.315 214.186 318.001 216.872 318.001 220.186V291.449H306.001V220.186Z" fill="#44494D"/>
<path d="M136.001 135C136.001 131.686 138.687 129 142.001 129C145.315 129 148.001 131.686 148.001 135V291.451H136.001V135Z" fill="#44494D"/>
<path d="M203.228 362.563C202.102 362.24 201.282 361.843 200.767 361.374C200.256 360.9 200.001 360.317 200.001 359.624C200.001 358.84 200.313 358.193 200.938 357.683C201.566 357.168 202.382 356.91 203.385 356.91C204.068 356.91 204.677 357.042 205.21 357.307C205.748 357.571 206.162 357.936 206.454 358.4C206.75 358.865 206.898 359.373 206.898 359.925H205.579C205.579 359.323 205.388 358.852 205.005 358.51C204.622 358.163 204.082 357.99 203.385 357.99C202.738 357.99 202.232 358.134 201.867 358.421C201.507 358.703 201.327 359.098 201.327 359.604C201.327 360.009 201.498 360.353 201.84 360.636C202.186 360.914 202.772 361.169 203.597 361.401C204.426 361.634 205.073 361.891 205.538 362.174C206.007 362.452 206.354 362.778 206.577 363.151C206.805 363.525 206.919 363.965 206.919 364.471C206.919 365.277 206.604 365.924 205.976 366.412C205.347 366.895 204.506 367.137 203.453 367.137C202.77 367.137 202.132 367.007 201.539 366.747C200.947 366.483 200.489 366.123 200.165 365.667C199.846 365.211 199.687 364.694 199.687 364.115H201.006C201.006 364.717 201.227 365.193 201.669 365.544C202.116 365.89 202.71 366.063 203.453 366.063C204.146 366.063 204.677 365.922 205.046 365.64C205.415 365.357 205.6 364.972 205.6 364.484C205.6 363.997 205.429 363.621 205.087 363.356C204.745 363.088 204.125 362.823 203.228 362.563ZM216.305 359.016C216.305 359.836 216.136 360.415 215.799 360.752C215.466 361.085 214.935 361.26 214.206 361.278V367H213.003L212.976 366.269C212.483 366.847 211.761 367.137 210.809 367.137C210.02 367.137 209.419 366.909 209.004 366.453C208.594 365.993 208.386 365.314 208.382 364.416V359.604H209.646V364.382C209.646 365.503 210.102 366.063 211.014 366.063C211.98 366.063 212.622 365.703 212.941 364.983V359.604H214.206V360.499C214.516 360.49 214.748 360.447 214.903 360.369C215.058 360.287 215.168 360.164 215.231 360C215.3 359.836 215.334 359.508 215.334 359.016H216.305ZM210.993 358.544L210.986 357.498C211.328 357.475 211.579 357.43 211.738 357.361C211.898 357.293 211.978 357.17 211.978 356.992C211.978 356.814 211.873 356.682 211.663 356.596C211.458 356.505 211.185 356.459 210.843 356.459L210.891 355.734C211.57 355.734 212.085 355.853 212.436 356.09C212.786 356.322 212.962 356.632 212.962 357.02C212.962 357.298 212.873 357.528 212.695 357.71C212.518 357.892 212.253 358.008 211.902 358.059L211.896 358.544H210.993ZM220.242 363.24C220.242 362.105 220.511 361.194 221.049 360.506C221.587 359.813 222.291 359.467 223.161 359.467C224.027 359.467 224.713 359.763 225.219 360.355V356.5H226.483V367H225.321L225.26 366.207C224.754 366.827 224.05 367.137 223.147 367.137C222.291 367.137 221.591 366.786 221.049 366.084C220.511 365.382 220.242 364.466 220.242 363.336V363.24ZM221.507 363.384C221.507 364.222 221.68 364.879 222.026 365.353C222.373 365.826 222.851 366.063 223.462 366.063C224.264 366.063 224.85 365.703 225.219 364.983V361.586C224.84 360.889 224.259 360.54 223.476 360.54C222.856 360.54 222.373 360.779 222.026 361.258C221.68 361.736 221.507 362.445 221.507 363.384ZM233.019 366.269C232.526 366.847 231.804 367.137 230.852 367.137C230.063 367.137 229.462 366.909 229.047 366.453C228.637 365.993 228.429 365.314 228.425 364.416V359.604H229.689V364.382C229.689 365.503 230.145 366.063 231.057 366.063C232.023 366.063 232.665 365.703 232.984 364.983V359.604H234.249V367H233.046L233.019 366.269ZM230.182 368.675C230.182 368.47 230.243 368.297 230.366 368.155C230.494 368.014 230.681 367.943 230.927 367.943C231.173 367.943 231.36 368.014 231.487 368.155C231.615 368.297 231.679 368.47 231.679 368.675C231.679 368.88 231.615 369.051 231.487 369.188C231.36 369.324 231.173 369.393 230.927 369.393C230.681 369.393 230.494 369.324 230.366 369.188C230.243 369.051 230.182 368.88 230.182 368.675ZM237.373 359.604L237.414 360.533C237.979 359.822 238.717 359.467 239.629 359.467C241.192 359.467 241.98 360.349 241.994 362.112V367H240.729V362.105C240.725 361.572 240.602 361.178 240.36 360.923C240.123 360.668 239.752 360.54 239.246 360.54C238.836 360.54 238.476 360.649 238.166 360.868C237.856 361.087 237.615 361.374 237.441 361.729V367H236.177V359.604H237.373ZM243.601 363.24C243.601 362.087 243.867 361.171 244.4 360.492C244.934 359.809 245.64 359.467 246.52 359.467C247.422 359.467 248.126 359.786 248.632 360.424L248.693 359.604H249.849V366.822C249.849 367.779 249.564 368.534 248.994 369.085C248.429 369.636 247.668 369.912 246.711 369.912C246.178 369.912 245.656 369.798 245.146 369.57C244.635 369.342 244.245 369.03 243.977 368.634L244.633 367.875C245.175 368.545 245.838 368.88 246.622 368.88C247.237 368.88 247.716 368.707 248.058 368.36C248.404 368.014 248.577 367.526 248.577 366.897V366.262C248.071 366.845 247.381 367.137 246.506 367.137C245.64 367.137 244.938 366.788 244.4 366.091C243.867 365.394 243.601 364.443 243.601 363.24ZM244.872 363.384C244.872 364.218 245.043 364.874 245.385 365.353C245.727 365.826 246.205 366.063 246.82 366.063C247.618 366.063 248.203 365.701 248.577 364.977V361.6C248.19 360.893 247.609 360.54 246.834 360.54C246.219 360.54 245.738 360.779 245.392 361.258C245.045 361.736 244.872 362.445 244.872 363.384Z" fill="#44494D"/>
<path fill-rule="evenodd" clip-rule="evenodd" d="M179.511 371C183.929 371 187.511 367.418 187.511 363C187.511 358.582 183.929 355 179.511 355C175.092 355 171.511 358.582 171.511 363C171.511 367.418 175.092 371 179.511 371Z" fill="#EE0033"/>
<path d="M321.822 367H320.503L315.492 359.33V367H314.173V357.047H315.492L320.517 364.751V357.047H321.822V367ZM328.521 367C328.449 366.854 328.389 366.594 328.344 366.221C327.756 366.831 327.054 367.137 326.238 367.137C325.509 367.137 324.91 366.932 324.44 366.521C323.976 366.107 323.743 365.583 323.743 364.949C323.743 364.179 324.035 363.582 324.618 363.158C325.206 362.73 326.031 362.516 327.093 362.516H328.323V361.935C328.323 361.493 328.191 361.142 327.927 360.882C327.662 360.618 327.273 360.485 326.758 360.485C326.307 360.485 325.928 360.599 325.623 360.827C325.318 361.055 325.165 361.331 325.165 361.654H323.894C323.894 361.285 324.023 360.93 324.283 360.588C324.548 360.242 324.903 359.968 325.35 359.768C325.801 359.567 326.295 359.467 326.833 359.467C327.685 359.467 328.353 359.681 328.836 360.109C329.319 360.533 329.57 361.119 329.588 361.866V365.271C329.588 365.95 329.674 366.49 329.848 366.891V367H328.521ZM326.423 366.036C326.819 366.036 327.195 365.934 327.551 365.729C327.906 365.523 328.164 365.257 328.323 364.929V363.411H327.332C325.783 363.411 325.008 363.865 325.008 364.771C325.008 365.168 325.14 365.478 325.404 365.701C325.669 365.924 326.008 366.036 326.423 366.036ZM325.637 368.675C325.637 368.47 325.698 368.297 325.821 368.155C325.949 368.014 326.136 367.943 326.382 367.943C326.628 367.943 326.815 368.014 326.942 368.155C327.07 368.297 327.134 368.47 327.134 368.675C327.134 368.88 327.07 369.051 326.942 369.188C326.815 369.324 326.628 369.393 326.382 369.393C326.136 369.393 325.949 369.324 325.821 369.188C325.698 369.051 325.637 368.88 325.637 368.675ZM337.818 363.384C337.818 364.509 337.561 365.416 337.046 366.104C336.531 366.793 335.834 367.137 334.954 367.137C334.056 367.137 333.35 366.852 332.835 366.282V369.844H331.57V359.604H332.726L332.787 360.424C333.302 359.786 334.018 359.467 334.934 359.467C335.822 359.467 336.524 359.802 337.039 360.472C337.559 361.142 337.818 362.074 337.818 363.268V363.384ZM336.554 363.24C336.554 362.406 336.376 361.748 336.021 361.265C335.665 360.782 335.177 360.54 334.558 360.54C333.792 360.54 333.218 360.88 332.835 361.559V365.093C333.213 365.767 333.792 366.104 334.571 366.104C335.177 366.104 335.658 365.865 336.014 365.387C336.374 364.904 336.554 364.188 336.554 363.24ZM344.62 357.812V359.604H346.001V360.581H344.62V365.168C344.62 365.464 344.682 365.688 344.805 365.838C344.928 365.984 345.137 366.057 345.434 366.057C345.579 366.057 345.78 366.029 346.035 365.975V367C345.702 367.091 345.379 367.137 345.064 367.137C344.499 367.137 344.073 366.966 343.786 366.624C343.499 366.282 343.355 365.797 343.355 365.168V360.581H342.009V359.604H343.355V357.812H344.62ZM348.858 367H347.594V359.604H348.858V367ZM347.491 357.642C347.491 357.437 347.553 357.263 347.676 357.122C347.803 356.981 347.99 356.91 348.236 356.91C348.482 356.91 348.669 356.981 348.797 357.122C348.924 357.263 348.988 357.437 348.988 357.642C348.988 357.847 348.924 358.018 348.797 358.154C348.669 358.291 348.482 358.359 348.236 358.359C347.99 358.359 347.803 358.291 347.676 358.154C347.553 358.018 347.491 357.847 347.491 357.642ZM353.958 367.137C352.955 367.137 352.14 366.809 351.511 366.152C350.882 365.492 350.567 364.61 350.567 363.507V363.274C350.567 362.541 350.706 361.887 350.984 361.312C351.267 360.734 351.659 360.283 352.16 359.959C352.666 359.631 353.213 359.467 353.801 359.467C354.762 359.467 355.51 359.784 356.043 360.417C356.576 361.05 356.843 361.957 356.843 363.138V363.664H351.832C351.85 364.393 352.062 364.983 352.468 365.435C352.878 365.881 353.397 366.104 354.026 366.104C354.473 366.104 354.851 366.013 355.161 365.831C355.471 365.649 355.742 365.407 355.975 365.106L356.747 365.708C356.127 366.66 355.198 367.137 353.958 367.137ZM353.801 360.506C353.29 360.506 352.862 360.693 352.516 361.066C352.169 361.436 351.955 361.955 351.873 362.625H355.578V362.529C355.542 361.887 355.368 361.39 355.059 361.039C354.749 360.684 354.329 360.506 353.801 360.506ZM356.289 358.537H354.942L353.78 357.457L352.618 358.537H351.278L353.261 356.746H354.3L356.289 358.537ZM351.777 357.327H350.82L349.453 355.563H350.813L351.777 357.327ZM359.509 359.604L359.55 360.533C360.115 359.822 360.853 359.467 361.765 359.467C363.328 359.467 364.116 360.349 364.13 362.112V367H362.865V362.105C362.861 361.572 362.738 361.178 362.496 360.923C362.259 360.668 361.888 360.54 361.382 360.54C360.972 360.54 360.612 360.649 360.302 360.868C359.992 361.087 359.75 361.374 359.577 361.729V367H358.312V359.604H359.509Z" fill="#44494D"/>
<path fill-rule="evenodd" clip-rule="evenodd" d="M293.389 371C297.807 371 301.389 367.418 301.389 363C301.389 358.582 297.807 355 293.389 355C288.97 355 285.389 358.582 285.389 363C285.389 367.418 288.97 371 293.389 371Z" fill="#44494D"/>
</svg>
