<svg width="265" height="96" viewBox="0 0 265 96" fill="none" xmlns="http://www.w3.org/2000/svg">
<g clip-path="url(#clip0)">
<path d="M0.53125 8.00001C0.53125 3.58173 4.11297 0 8.53125 0H256.531C260.95 0 264.531 3.58172 264.531 8V95.7884H0.53125V8.00001Z" fill="#D92F3B"/>
<path d="M169.267 -16.7282C175.708 -16.7282 181.903 -14.7668 187.217 -11.0711C192.653 -7.29279 196.715 -1.98669 198.951 4.28979L206.828 26.3194C209.68 34.3095 209.27 42.9191 205.68 50.5995C202.09 58.2799 195.751 64.0815 187.812 66.9514L139.377 84.4801C131.377 87.3706 124.217 91.6237 118.124 97.1157C113.242 101.493 109.036 106.675 105.59 112.518C101.138 120.095 99.1484 126.826 98.4509 129.654L78.1827 72.8562L73.2593 59.0851L70.3052 50.8266C67.4537 42.8365 67.864 34.227 71.454 26.5465C75.044 18.8661 81.383 13.0645 89.322 10.1946L158.579 -14.87C162.046 -16.0881 165.636 -16.7282 169.267 -16.7282ZM169.267 -17.1411C165.677 -17.1411 162.025 -16.5217 158.456 -15.2416L89.1989 9.82301C72.5823 15.8311 63.9663 34.2476 69.9359 50.9711L72.89 59.2296L77.8135 73.0007L98.5535 131.079C98.5535 131.079 104.646 97.446 139.521 84.8311L187.955 67.3024C204.572 61.2943 213.188 42.8778 207.218 26.1542L199.341 4.12463C194.643 -8.96514 182.355 -17.1411 169.267 -17.1411Z" fill="white"/>
<rect x="57.9648" y="28.2324" width="164.244" height="40.332" fill="#D92F3B"/>
</g>
<defs>
<clipPath id="clip0">
<rect width="264" height="95.7884" fill="white" transform="translate(0.53125)"/>
</clipPath>
</defs>
</svg>
