<svg width="264" height="96" viewBox="0 0 264 96" fill="none" xmlns="http://www.w3.org/2000/svg">
<g clip-path="url(#clip0)">
<rect width="264" height="95.7884" fill="#BE0129"/>
<path d="M154.557 5.03451C159.292 5.03451 163.845 6.47616 167.751 9.19253C171.746 11.9696 174.732 15.8696 176.375 20.4829L182.165 36.6749C184.261 42.5477 183.96 48.8758 181.321 54.521C178.682 60.1662 174.023 64.4305 168.188 66.5398L132.588 79.4236C126.707 81.5481 121.445 84.6742 116.967 88.7109C113.378 91.928 110.287 95.737 107.754 100.032C104.482 105.601 103.02 110.548 102.507 112.627L87.6095 70.8799L83.9907 60.758L81.8194 54.6879C79.7236 48.8151 80.0251 42.487 82.6638 36.8418C85.3025 31.1966 89.9617 26.9324 95.797 24.823L146.701 6.40028C149.25 5.50494 151.888 5.03451 154.557 5.03451ZM154.557 4.731C151.918 4.731 149.234 5.18626 146.611 6.12713L95.7065 24.5499C83.4931 28.9659 77.1602 42.5022 81.548 54.7942L83.7193 60.8643L87.3381 70.9862L102.582 113.674C102.582 113.674 107.06 88.9537 132.694 79.6816L168.293 66.7978C180.507 62.3818 186.84 48.8455 182.452 36.5535L176.662 20.3615C173.209 10.7404 164.177 4.731 154.557 4.731Z" fill="white"/>
<path d="M163.047 -9.65849C169.458 -9.65849 175.625 -7.70622 180.913 -4.02775C186.324 -0.267072 190.367 5.01431 192.593 11.2616L200.433 33.1886C203.272 41.1415 202.863 49.7109 199.29 57.3555C195.717 65.0002 189.407 70.7748 181.505 73.6312L133.296 91.0783C125.333 93.9553 118.207 98.1887 112.142 103.655C107.283 108.012 103.097 113.17 99.6665 118.985C95.2356 126.527 93.255 133.227 92.5608 136.042L72.387 79.5086L67.4864 65.8016L64.5461 57.5816C61.7079 49.6287 62.1163 41.0593 65.6896 33.4146C69.2629 25.77 75.5723 19.9954 83.4744 17.1389L152.408 -7.80897C155.859 -9.02143 159.432 -9.65849 163.047 -9.65849ZM163.047 -10.0695C159.473 -10.0695 155.839 -9.45298 152.286 -8.17888L83.3519 16.769C66.8126 22.7491 58.2367 41.0798 64.1786 57.7254L67.1189 65.9455L72.0194 79.6524L92.6628 137.46C92.6628 137.46 98.7272 103.984 133.439 91.4277L181.648 73.9806C198.187 68.0005 206.763 49.6698 200.821 33.0242L192.981 11.0972C188.305 -1.93163 176.074 -10.0695 163.047 -10.0695Z" fill="white"/>
<path d="M170.41 -24.3341C178.367 -24.3341 186.02 -21.9112 192.584 -17.346C199.299 -12.6787 204.316 -6.12419 207.079 1.62903L216.81 28.8418C220.332 38.7119 219.825 49.3471 215.39 58.8346C210.956 68.3221 203.125 75.4887 193.318 79.0338L133.488 100.687C123.605 104.257 114.761 109.511 107.235 116.295C101.204 121.702 96.0088 128.103 91.7515 135.321C86.2525 144.681 83.7944 152.995 82.9328 156.489L57.8959 86.3279L51.814 69.3167L48.1649 59.1151C44.6425 49.245 45.1493 38.6099 49.584 29.1224C54.0187 19.6349 61.8491 12.4682 71.6561 8.92318L157.207 -22.0387C161.49 -23.5434 165.925 -24.3341 170.41 -24.3341ZM170.41 -24.8441C165.975 -24.8441 161.465 -24.079 157.055 -22.4978L71.504 8.46411C50.9778 15.8858 40.3345 38.6354 47.7088 59.2936L51.3579 69.4952L57.4397 86.5064L83.0595 158.249C83.0595 158.249 90.5858 116.703 133.666 101.12L193.496 79.4673C214.022 72.0456 224.665 49.2961 217.291 28.6378L207.56 1.425C201.757 -14.7446 186.578 -24.8441 170.41 -24.8441Z" fill="white"/>
</g>
<defs>
<clipPath id="clip0">
<rect width="264" height="95.7884" fill="white"/>
</clipPath>
</defs>
</svg>
