<svg width="151" height="41" viewBox="0 0 151 41" fill="none" xmlns="http://www.w3.org/2000/svg">
<path d="M26.1951 9.51901C22.4061 7.58301 16.3841 11.898 13.2081 10.81C16.9191 15.847 26.1951 9.51901 26.1951 9.51901ZM62.9951 0C54.3951 0 50.0481 3.42 42.5011 1.379C44.6231 6.279 47.8871 6.07902 51.9141 6.50302C55.9411 6.92702 52.5311 11.303 49.6141 10.03C28.8601 0.970999 21.6421 21.83 0.99707 18.419C10.0521 28.045 25.9661 21.057 30.9111 19.563C35.4971 18.173 33.7511 23.672 30.3961 23.328C25.5861 22.828 18.0231 25.758 13.3581 30.458C33.1361 26.441 28.3661 39.531 44.7731 31.992C49.4121 29.861 49.538 34.892 45.006 35.426C41.353 35.858 37.8861 37.133 36.9261 39.26C39.7091 37.769 43.202 40.666 48.188 40.666H150.242C150.242 21.545 150.255 19.559 150.255 0.00100708L62.9951 0Z" fill="url(#paint0_linear)"/>
<defs>
<linearGradient id="paint0_linear" x1="-1779.5" y1="-7.60456" x2="-1761.45" y2="70.5959" gradientUnits="userSpaceOnUse">
<stop stop-color="#FF8000"/>
<stop offset="0.443" stop-color="#FC6500"/>
<stop offset="1" stop-color="#EF0000"/>
</linearGradient>
</defs>
</svg>
