<svg width="1920" height="82" fill="none" xmlns="http://www.w3.org/2000/svg"><g filter="url(#filter0_f)"><g clip-path="url(#clip0)"><mask id="a" maskUnits="userSpaceOnUse" x="48" y="4" width="1977" height="89"><path d="M49.38 5.76h1973.9v85.5H49.38V5.76z" fill="url(#paint0_linear)" stroke="#F94978" stroke-width="2" stroke-miterlimit="10"/></mask><g mask="url(#a)"><path d="M1388 43h64.42l14 21h522" stroke="#fff" stroke-width="2" stroke-miterlimit="10"/></g></g><g clip-path="url(#clip1)"><mask id="b" maskUnits="userSpaceOnUse" x="-101" y="4" width="1977" height="89"><path d="M1874.04 5.76H-99.86v85.5h1973.9V5.76z" fill="url(#paint1_linear)" stroke="#F94978" stroke-width="2" stroke-miterlimit="10"/></mask><g mask="url(#b)"><path d="M535.42 43H471l-14 21H-65" stroke="#fff" stroke-width="2" stroke-miterlimit="10"/></g></g></g><g clip-path="url(#clip2)"><mask id="c" maskUnits="userSpaceOnUse" x="48" y="4" width="1977" height="89"><path d="M49.38 5.76h1973.9v85.5H49.38V5.76z" fill="url(#paint2_linear)" stroke="#F94978" stroke-width="2" stroke-miterlimit="10"/></mask><g mask="url(#c)"><path d="M1388 43h64.42l14 21h522" stroke="#fff" stroke-width="2" stroke-miterlimit="10"/></g></g><g clip-path="url(#clip3)"><mask id="d" maskUnits="userSpaceOnUse" x="-101" y="4" width="1977" height="89"><path d="M1874.04 5.76H-99.86v85.5h1973.9V5.76z" fill="url(#paint3_linear)" stroke="#F94978" stroke-width="2" stroke-miterlimit="10"/></mask><g mask="url(#d)"><path d="M535.42 43H471l-14 21H-65" stroke="#fff" stroke-width="2" stroke-miterlimit="10"/></g></g><path d="M1359.35 5.99l20.94 20.94V5.99h-20.94zM566.16 74.97l-20.94-20.94v20.94h20.94z" fill="#fff"/><path d="M1383.48 76.73H567.89l-.14-.13L542 51.17V3.86h815.58l24.84 24.54v.19l1.06 48.14zm-815.21-.94h814.25l-1.03-46.99-24.29-24.01H542.94v45.99l25.33 25.01z" fill="#fff"/><path d="M718.49 71.37h-32.26l-2.83 4.89 2.83 4.89h32.26l2.82-4.89-2.82-4.89zM926.03 0h-14.28l-2.5 4.33 2.5 4.32h14.28l2.49-4.32L926.03 0z" fill="#fff"/><defs><linearGradient id="paint0_linear" x1="2023.28" y1="48.511" x2="49.375" y2="48.511" gradientUnits="userSpaceOnUse"><stop/><stop offset=".3" stop-color="#fff"/><stop offset=".714" stop-color="#F0F0F0"/><stop offset="1"/></linearGradient><linearGradient id="paint1_linear" x1="-99.86" y1="48.511" x2="1874.04" y2="48.511" gradientUnits="userSpaceOnUse"><stop/><stop offset=".3" stop-color="#fff"/><stop offset=".714" stop-color="#F0F0F0"/><stop offset="1"/></linearGradient><linearGradient id="paint2_linear" x1="2023.28" y1="48.511" x2="49.375" y2="48.511" gradientUnits="userSpaceOnUse"><stop/><stop offset=".3" stop-color="#fff"/><stop offset=".714" stop-color="#F0F0F0"/><stop offset="1"/></linearGradient><linearGradient id="paint3_linear" x1="-99.86" y1="48.511" x2="1874.04" y2="48.511" gradientUnits="userSpaceOnUse"><stop/><stop offset=".3" stop-color="#fff"/><stop offset=".714" stop-color="#F0F0F0"/><stop offset="1"/></linearGradient><clipPath id="clip0"><path fill="#fff" transform="translate(1388 42)" d="M0 0h600.42v23H0z"/></clipPath><clipPath id="clip1"><path fill="#fff" transform="translate(-65 42)" d="M0 0h600.42v23H0z"/></clipPath><clipPath id="clip2"><path fill="#fff" transform="translate(1388 42)" d="M0 0h600.42v23H0z"/></clipPath><clipPath id="clip3"><path fill="#fff" transform="translate(-65 42)" d="M0 0h600.42v23H0z"/></clipPath><filter id="filter0_f" x="-69" y="38" width="2061.42" height="31" filterUnits="userSpaceOnUse" color-interpolation-filters="sRGB"><feFlood flood-opacity="0" result="BackgroundImageFix"/><feBlend in="SourceGraphic" in2="BackgroundImageFix" result="shape"/><feGaussianBlur stdDeviation="2" result="effect1_foregroundBlur"/></filter></defs></svg>