<svg width="1919" height="82" fill="none" xmlns="http://www.w3.org/2000/svg"><g clip-path="url(#clip0)" fill="#fff"><path d="M1185.85 5.99l20.94 20.94V5.99h-20.94zM732.16 74.97l-20.94-20.94v20.94h20.94z"/><path d="M1209.98 76.73H733.89l-.14-.13L708 51.17V3.86h476.08l24.84 24.54v.19l1.06 48.14zm-475.71-.94h474.75l-1.03-46.99-24.29-24.01H708.94v45.99l25.33 25.01z"/><path d="M855.27 71.37h-32.26l-2.82 4.89 2.82 4.89h32.26l2.82-4.89-2.82-4.89zM1098.52 0h-14.27l-2.5 4.33 2.5 4.32h14.27l2.5-4.32-2.5-4.33z"/></g><path d="M699.86 33H536l-14-21H0M1221 33h163.86l14-21h522" stroke="#fff" stroke-width="2" stroke-miterlimit="10"/><defs><clipPath id="clip0"><path fill="#fff" transform="translate(708)" d="M0 0h501.98v81.15H0z"/></clipPath></defs></svg>