<svg width="1920" height="120" fill="none" xmlns="http://www.w3.org/2000/svg"><path d="M1396.35 5.99l20.94 20.94V5.99h-20.94zM509.16 112.97l-20.94-20.94v20.94h20.94z" fill="#fff"/><path d="M1420.48 114.73H510.89l-.14-.13L485 89.17V3.86h909.58l24.84 24.54v.19l1.06 86.14zm-909.21-.94h908.25l-1.03-84.99-24.29-24.01H485.94v83.99l25.33 25.01z" fill="#fff"/><path d="M661.49 109.37h-32.26l-2.83 4.89 2.83 4.89h32.26l2.82-4.89-2.82-4.89zM869.03 0h-14.28l-2.5 4.33 2.5 4.32h14.28l2.49-4.32L869.03 0z" fill="#fff"/><g filter="url(#filter0_f)"><mask id="a" maskUnits="userSpaceOnUse" x="-158" y="19" width="1977" height="89"><path d="M1817.04 20.76h-1973.9v85.5h1973.9v-85.5z" fill="url(#paint0_linear)" stroke="#F94978" stroke-width="2" stroke-miterlimit="10"/></mask><g mask="url(#a)"><path d="M478.42 58H414l-14 21h-522" stroke="#fff" stroke-width="2" stroke-miterlimit="10"/></g></g><mask id="b" maskUnits="userSpaceOnUse" x="-158" y="19" width="1977" height="89"><path d="M1817.04 20.76h-1973.9v85.5h1973.9v-85.5z" fill="url(#paint1_linear)" stroke="#F94978" stroke-width="2" stroke-miterlimit="10"/></mask><g mask="url(#b)"><path d="M478.42 58H414l-14 21h-522" stroke="#fff" stroke-width="2" stroke-miterlimit="10"/></g><g filter="url(#filter1_f)"><mask id="c" maskUnits="userSpaceOnUse" x="87" y="20" width="1976" height="88"><path d="M88 21h1973.9v85.5H88V21z" fill="url(#paint2_linear)" stroke="#F94978" stroke-width="2" stroke-miterlimit="10"/></mask><g mask="url(#c)"><path d="M1427 58h64.42l14 21h522" stroke="#fff" stroke-width="2" stroke-miterlimit="10"/></g></g><mask id="d" maskUnits="userSpaceOnUse" x="87" y="20" width="1976" height="88"><path d="M88 21h1973.9v85.5H88V21z" fill="url(#paint3_linear)" stroke="#F94978" stroke-width="2" stroke-miterlimit="10"/></mask><g mask="url(#d)"><path d="M1427 58h64.42l14 21h522" stroke="#fff" stroke-width="2" stroke-miterlimit="10"/></g><defs><linearGradient id="paint0_linear" x1="-156.86" y1="63.511" x2="1817.04" y2="63.511" gradientUnits="userSpaceOnUse"><stop/><stop offset=".3" stop-color="#fff"/><stop offset=".714" stop-color="#F0F0F0"/><stop offset="1"/></linearGradient><linearGradient id="paint1_linear" x1="-156.86" y1="63.511" x2="1817.04" y2="63.511" gradientUnits="userSpaceOnUse"><stop/><stop offset=".3" stop-color="#fff"/><stop offset=".714" stop-color="#F0F0F0"/><stop offset="1"/></linearGradient><linearGradient id="paint2_linear" x1="2061.9" y1="63.751" x2="87.995" y2="63.751" gradientUnits="userSpaceOnUse"><stop/><stop offset=".3" stop-color="#fff"/><stop offset=".714" stop-color="#F0F0F0"/><stop offset="1"/></linearGradient><linearGradient id="paint3_linear" x1="2061.9" y1="63.751" x2="87.995" y2="63.751" gradientUnits="userSpaceOnUse"><stop/><stop offset=".3" stop-color="#fff"/><stop offset=".714" stop-color="#F0F0F0"/><stop offset="1"/></linearGradient><filter id="filter0_f" x="-126" y="53" width="608.42" height="31" filterUnits="userSpaceOnUse" color-interpolation-filters="sRGB"><feFlood flood-opacity="0" result="BackgroundImageFix"/><feBlend in="SourceGraphic" in2="BackgroundImageFix" result="shape"/><feGaussianBlur stdDeviation="2" result="effect1_foregroundBlur"/></filter><filter id="filter1_f" x="1423" y="53" width="608.42" height="31" filterUnits="userSpaceOnUse" color-interpolation-filters="sRGB"><feFlood flood-opacity="0" result="BackgroundImageFix"/><feBlend in="SourceGraphic" in2="BackgroundImageFix" result="shape"/><feGaussianBlur stdDeviation="2" result="effect1_foregroundBlur"/></filter></defs></svg>