<svg width="1920" height="82" fill="none" xmlns="http://www.w3.org/2000/svg"><path d="M1369.85 5.99l20.94 20.94V5.99h-20.94zM549.16 74.97l-20.94-20.94v20.94h20.94z" fill="#fff"/><path d="M1393.98 76.73H550.89l-.14-.13L525 51.17V3.86h843.08l24.84 24.54v.19l1.06 48.14zm-842.71-.94h841.75l-1.03-46.99-24.29-24.01H525.94v45.99l25.33 25.01z" fill="#fff"/><path d="M672.27 71.37h-32.26l-2.82 4.89 2.82 4.89h32.26l2.82-4.89-2.82-4.89zM915.52 0h-14.27l-2.5 4.33 2.5 4.32h14.27l2.5-4.32-2.5-4.33z" fill="#fff"/><path d="M1407 41h64.42l14 21h522M517.42 40H453l-14 21H-83" stroke="#fff" stroke-width="2" stroke-miterlimit="10"/></svg>