<svg width="375" height="35" fill="none" xmlns="http://www.w3.org/2000/svg"><path d="M367.986 18.932h27.133l5.897 8.845h219.86M8.89 18.932h-27.133l-5.897 8.845H-244" stroke="#fff" stroke-width=".842" stroke-miterlimit="10"/><path d="M355.919 3.343l8.82 8.82v-8.82h-8.82zM21.837 32.397l-8.82-8.82v8.82h8.82z" fill="#fff"/><path d="M366.083 33.138H22.566l-.06-.054-10.845-10.711V2.446h343.513l10.462 10.336v.08l.447 20.276zm-343.357-.396h342.952l-.434-19.791-10.23-10.113H12.057v19.37l10.669 10.534z" fill="#fff"/><path d="M85.996 30.88H72.41l-1.192 2.06L72.409 35h13.587l1.188-2.06-1.188-2.06zM173.41.82h-6.015l-1.052 1.824 1.052 1.82h6.015l1.049-1.82L173.41.821z" fill="#fff"/></svg>