<svg width="1920" height="82" fill="none" xmlns="http://www.w3.org/2000/svg"><g filter="url(#filter0_f)"><g clip-path="url(#clip0)"><mask id="a" maskUnits="userSpaceOnUse" x="-39" y="-6" width="1977" height="89"><path d="M1936.04-4.26H-37.86v85.5h1973.9v-85.5z" fill="url(#paint0_linear)" stroke="#F94978" stroke-width="2" stroke-miterlimit="10"/></mask><g mask="url(#a)"><path d="M560.01 44H533l-14-21H-3" stroke="#fff" stroke-width="2" stroke-miterlimit="10"/></g></g><g clip-path="url(#clip1)"><mask id="b" maskUnits="userSpaceOnUse" x="-21" y="-6" width="1977" height="89"><path d="M-19.3 81.24h1973.9v-85.5H-19.3v85.5z" fill="url(#paint1_linear)" stroke="#F94978" stroke-width="2" stroke-miterlimit="10"/></mask><g mask="url(#b)"><path d="M1363 44h20.74l14-21h522" stroke="#fff" stroke-width="2" stroke-miterlimit="10"/></g></g></g><g clip-path="url(#clip2)"><mask id="c" maskUnits="userSpaceOnUse" x="-39" y="-6" width="1977" height="89"><path d="M1936.04-4.26H-37.86v85.5h1973.9v-85.5z" fill="url(#paint2_linear)" stroke="#F94978" stroke-width="2" stroke-miterlimit="10"/></mask><g mask="url(#c)"><path d="M560.01 44H533l-14-21H-3" stroke="#fff" stroke-width="2" stroke-miterlimit="10"/></g></g><g clip-path="url(#clip3)"><mask id="d" maskUnits="userSpaceOnUse" x="-21" y="-6" width="1977" height="89"><path d="M-19.3 81.24h1973.9v-85.5H-19.3v85.5z" fill="url(#paint3_linear)" stroke="#F94978" stroke-width="2" stroke-miterlimit="10"/></mask><g mask="url(#d)"><path d="M1363 44h20.74l14-21h522" stroke="#fff" stroke-width="2" stroke-miterlimit="10"/></g></g><path d="M1336.35 5.99l20.94 20.94V5.99h-20.94zM593.16 74.97l-20.94-20.94v20.94h20.94z" fill="#fff"/><path d="M1360.48 76.73H594.89l-.14-.13L569 51.17V3.86h765.58l24.84 24.54v.19l1.06 48.14zm-765.21-.94h764.25l-1.03-46.99-24.29-24.01H569.94v45.99l25.33 25.01z" fill="#fff"/><path d="M745.49 71.37h-32.26l-2.83 4.89 2.83 4.89h32.26l2.82-4.89-2.82-4.89zM953.03 0h-14.28l-2.5 4.33 2.5 4.32h14.28l2.49-4.32L953.03 0z" fill="#fff"/><defs><linearGradient id="paint0_linear" x1="-37.86" y1="38.489" x2="1936.04" y2="38.489" gradientUnits="userSpaceOnUse"><stop/><stop offset=".3" stop-color="#fff"/><stop offset=".714" stop-color="#F0F0F0"/><stop offset="1"/></linearGradient><linearGradient id="paint1_linear" x1="1954.6" y1="38.489" x2="-19.302" y2="38.489" gradientUnits="userSpaceOnUse"><stop/><stop offset=".3" stop-color="#fff"/><stop offset=".714" stop-color="#F0F0F0"/><stop offset="1"/></linearGradient><linearGradient id="paint2_linear" x1="-37.86" y1="38.489" x2="1936.04" y2="38.489" gradientUnits="userSpaceOnUse"><stop/><stop offset=".3" stop-color="#fff"/><stop offset=".714" stop-color="#F0F0F0"/><stop offset="1"/></linearGradient><linearGradient id="paint3_linear" x1="1954.6" y1="38.489" x2="-19.302" y2="38.489" gradientUnits="userSpaceOnUse"><stop/><stop offset=".3" stop-color="#fff"/><stop offset=".714" stop-color="#F0F0F0"/><stop offset="1"/></linearGradient><clipPath id="clip0"><path fill="#fff" transform="translate(-3 22)" d="M0 0h563.01v23H0z"/></clipPath><clipPath id="clip1"><path fill="#fff" transform="translate(1363 22)" d="M0 0h556.74v23H0z"/></clipPath><clipPath id="clip2"><path fill="#fff" transform="translate(-3 22)" d="M0 0h563.01v23H0z"/></clipPath><clipPath id="clip3"><path fill="#fff" transform="translate(1363 22)" d="M0 0h556.74v23H0z"/></clipPath><filter id="filter0_f" x="-24" y="1" width="1964.74" height="65" filterUnits="userSpaceOnUse" color-interpolation-filters="sRGB"><feFlood flood-opacity="0" result="BackgroundImageFix"/><feBlend in="SourceGraphic" in2="BackgroundImageFix" result="shape"/><feGaussianBlur stdDeviation="10.5" result="effect1_foregroundBlur"/></filter></defs></svg>