<svg width="488" height="315" viewBox="0 0 488 315" fill="none" xmlns="http://www.w3.org/2000/svg">
<path d="M107.086 261V253.494H109.811V252.545H103.307V253.494H106.031V261H107.086ZM111.369 261H112.377V257.262C112.377 256.195 112.998 255.48 114.129 255.48C115.084 255.48 115.588 256.037 115.588 257.156V261H116.596V256.91C116.596 255.428 115.752 254.572 114.416 254.572C113.449 254.572 112.787 254.982 112.471 255.68H112.377V252.176H111.369V261ZM121.248 253.805L122.602 251.812H121.395L120.357 253.805H121.248ZM120.193 261.111C121.037 261.111 121.729 260.742 122.139 260.068H122.232V261H123.193V256.676C123.193 255.363 122.332 254.572 120.791 254.572C119.443 254.572 118.447 255.24 118.312 256.254H119.332C119.473 255.756 120 255.469 120.756 255.469C121.699 255.469 122.186 255.896 122.186 256.676V257.25L120.363 257.361C118.893 257.449 118.061 258.1 118.061 259.23C118.061 260.385 118.969 261.111 120.193 261.111ZM120.381 260.227C119.648 260.227 119.104 259.852 119.104 259.207C119.104 258.574 119.525 258.24 120.486 258.176L122.186 258.064V258.645C122.186 259.547 121.418 260.227 120.381 260.227ZM125.057 261H126.064V257.262C126.064 256.154 126.715 255.48 127.723 255.48C128.73 255.48 129.211 256.02 129.211 257.156V261H130.219V256.91C130.219 255.41 129.428 254.572 128.01 254.572C127.043 254.572 126.428 254.982 126.111 255.68H126.018V254.684H125.057V261ZM134.666 263.426C136.389 263.426 137.479 262.523 137.479 261.111V254.684H136.518V255.686H136.424C136.061 255.006 135.281 254.572 134.396 254.572C132.773 254.572 131.748 255.855 131.748 257.748C131.748 259.641 132.762 260.906 134.396 260.906C135.264 260.906 135.979 260.514 136.377 259.816H136.471V261.059C136.471 261.99 135.797 262.547 134.666 262.547C133.758 262.547 133.195 262.213 133.084 261.697H132.018C132.17 262.74 133.143 263.426 134.666 263.426ZM134.619 260.016C133.447 260.016 132.791 259.125 132.791 257.748C132.791 256.371 133.447 255.48 134.619 255.48C135.785 255.48 136.494 256.371 136.494 257.748C136.494 259.125 135.791 260.016 134.619 260.016ZM145.57 261.199C147.299 261.199 148.477 260.004 148.477 258.264C148.477 256.588 147.305 255.475 145.887 255.475C145.043 255.475 144.416 255.732 144.006 256.242H143.912L144.176 253.488H148.043V252.545H143.35L142.863 257.379H143.854C144.188 256.752 144.82 256.383 145.623 256.383C146.689 256.383 147.422 257.15 147.422 258.293C147.422 259.477 146.689 260.273 145.582 260.273C144.586 260.273 143.859 259.67 143.766 258.768H142.729C142.822 260.215 143.971 261.199 145.57 261.199Z" fill="#576C8A"/>
<path d="M169.842 306.5C169.953 307.959 171.189 308.908 172.982 308.908C174.916 308.908 176.141 307.918 176.141 306.365C176.141 305.123 175.438 304.443 173.686 304.004L172.801 303.77C171.635 303.471 171.172 303.09 171.172 302.428C171.172 301.572 171.916 301.01 173.041 301.01C174.096 301.01 174.811 301.525 174.957 302.393H176.018C175.93 301.027 174.711 300.055 173.076 300.055C171.289 300.055 170.088 301.027 170.088 302.463C170.088 303.664 170.75 304.355 172.279 304.742L173.363 305.023C174.529 305.316 175.057 305.773 175.057 306.494C175.057 307.332 174.219 307.947 173.082 307.947C171.881 307.947 171.037 307.385 170.908 306.5H169.842ZM179.51 300.207C179.668 300.125 179.908 300.072 180.172 300.072C180.506 300.072 180.758 300.26 180.758 300.512C180.758 300.764 180.488 301.027 180.102 301.139L180.541 301.719C181.18 301.508 181.631 300.98 181.631 300.441C181.631 299.773 181.121 299.363 180.295 299.363C180.014 299.363 179.697 299.41 179.51 299.486V300.207ZM181.824 307.719H181.918V308.709H182.879V303.143H182.996C183.688 303.143 184.18 302.779 184.18 302.053V300.986H183.248V301.877C183.248 302.223 183.09 302.393 182.715 302.393H181.871V306.131C181.871 307.238 181.262 307.9 180.148 307.9C179.141 307.9 178.719 307.373 178.719 306.236V302.393H177.711V306.482C177.711 307.977 178.449 308.82 179.867 308.82C180.834 308.82 181.508 308.422 181.824 307.719ZM191.205 308.82C192.078 308.82 192.828 308.404 193.227 307.701H193.32V308.709H194.281V299.885H193.273V303.389H193.186C192.828 302.697 192.084 302.281 191.205 302.281C189.6 302.281 188.551 303.57 188.551 305.551C188.551 307.537 189.588 308.82 191.205 308.82ZM191.439 303.189C192.582 303.189 193.297 304.104 193.297 305.551C193.297 307.01 192.588 307.912 191.439 307.912C190.285 307.912 189.594 307.027 189.594 305.551C189.594 304.08 190.291 303.189 191.439 303.189ZM201.348 302.393H200.34V306.131C200.34 307.238 199.73 307.9 198.617 307.9C197.609 307.9 197.188 307.373 197.188 306.236V302.393H196.18V306.482C196.18 307.977 196.918 308.82 198.336 308.82C199.303 308.82 199.977 308.422 200.293 307.719H200.387V308.709H201.348V302.393ZM198.764 311.006C199.15 311.006 199.467 310.689 199.467 310.303C199.467 309.916 199.15 309.6 198.764 309.6C198.377 309.6 198.061 309.916 198.061 310.303C198.061 310.689 198.377 311.006 198.764 311.006ZM203.246 308.709H204.254V304.971C204.254 303.863 204.904 303.189 205.912 303.189C206.92 303.189 207.4 303.729 207.4 304.865V308.709H208.408V304.619C208.408 303.119 207.617 302.281 206.199 302.281C205.232 302.281 204.617 302.691 204.301 303.389H204.207V302.393H203.246V308.709ZM212.855 311.135C214.578 311.135 215.668 310.232 215.668 308.82V302.393H214.707V303.395H214.613C214.25 302.715 213.471 302.281 212.586 302.281C210.963 302.281 209.938 303.564 209.938 305.457C209.938 307.35 210.951 308.615 212.586 308.615C213.453 308.615 214.168 308.223 214.566 307.525H214.66V308.768C214.66 309.699 213.986 310.256 212.855 310.256C211.947 310.256 211.385 309.922 211.273 309.406H210.207C210.359 310.449 211.332 311.135 212.855 311.135ZM212.809 307.725C211.637 307.725 210.98 306.834 210.98 305.457C210.98 304.08 211.637 303.189 212.809 303.189C213.975 303.189 214.684 304.08 214.684 305.457C214.684 306.834 213.98 307.725 212.809 307.725Z" fill="#576C8A"/>
<path d="M293.443 308.236V301.68H293.537L298.125 308.236H299.15V299.781H298.107V306.361H298.014L293.426 299.781H292.4V308.236H293.443ZM302.936 308.348C303.779 308.348 304.471 307.979 304.881 307.305H304.975V308.236H305.936V303.912C305.936 302.6 305.074 301.809 303.533 301.809C302.186 301.809 301.189 302.477 301.055 303.49H302.074C302.215 302.992 302.742 302.705 303.498 302.705C304.441 302.705 304.928 303.133 304.928 303.912V304.486L303.105 304.598C301.635 304.686 300.803 305.336 300.803 306.467C300.803 307.621 301.711 308.348 302.936 308.348ZM303.123 307.463C302.391 307.463 301.846 307.088 301.846 306.443C301.846 305.811 302.268 305.477 303.229 305.412L304.928 305.301V305.881C304.928 306.783 304.16 307.463 303.123 307.463ZM303.369 310.533C303.756 310.533 304.072 310.217 304.072 309.83C304.072 309.443 303.756 309.127 303.369 309.127C302.982 309.127 302.666 309.443 302.666 309.83C302.666 310.217 302.982 310.533 303.369 310.533ZM310.875 301.809C310.014 301.809 309.258 302.248 308.854 302.975H308.76V301.92H307.799V310.346H308.807V307.287H308.9C309.246 307.955 309.973 308.348 310.875 308.348C312.48 308.348 313.529 307.053 313.529 305.078C313.529 303.092 312.486 301.809 310.875 301.809ZM310.635 307.439C309.498 307.439 308.777 306.525 308.777 305.078C308.777 303.625 309.498 302.717 310.641 302.717C311.795 302.717 312.486 303.602 312.486 305.078C312.486 306.555 311.795 307.439 310.635 307.439ZM318.92 300.285V301.92H317.9V302.764H318.92V306.596C318.92 307.803 319.441 308.283 320.742 308.283C320.941 308.283 321.135 308.26 321.334 308.225V307.375C321.146 307.393 321.047 307.398 320.865 307.398C320.209 307.398 319.928 307.082 319.928 306.338V302.764H321.334V301.92H319.928V300.285H318.92ZM323.385 300.701C323.771 300.701 324.088 300.385 324.088 299.998C324.088 299.611 323.771 299.295 323.385 299.295C322.998 299.295 322.682 299.611 322.682 299.998C322.682 300.385 322.998 300.701 323.385 300.701ZM322.881 308.236H323.889V301.92H322.881V308.236ZM330.756 298.891L329.643 297.145H328.482L329.76 298.891H330.756ZM328.934 299.166H327.75L326.098 301.041H327.27L328.295 299.828H328.389L329.414 301.041H330.586L328.934 299.166ZM329.994 306.602C329.73 307.158 329.18 307.457 328.365 307.457C327.293 307.457 326.596 306.666 326.543 305.418V305.371H331.084V304.984C331.084 303.021 330.047 301.809 328.342 301.809C326.607 301.809 325.494 303.098 325.494 305.084C325.494 307.082 326.59 308.348 328.342 308.348C329.725 308.348 330.709 307.68 331.002 306.602H329.994ZM328.33 302.699C329.332 302.699 330 303.438 330.023 304.557H326.543C326.619 303.438 327.322 302.699 328.33 302.699ZM332.666 308.236H333.674V304.498C333.674 303.391 334.324 302.717 335.332 302.717C336.34 302.717 336.82 303.256 336.82 304.393V308.236H337.828V304.146C337.828 302.646 337.037 301.809 335.619 301.809C334.652 301.809 334.037 302.219 333.721 302.916H333.627V301.92H332.666V308.236Z" fill="#576C8A"/>
<path fill-rule="evenodd" clip-rule="evenodd" d="M153.302 312.602C158.007 312.602 161.821 308.807 161.821 304.126C161.821 299.445 158.007 295.65 153.302 295.65C148.597 295.65 144.783 299.445 144.783 304.126C144.783 308.807 148.597 312.602 153.302 312.602Z" fill="#FE9A00"/>
<path fill-rule="evenodd" clip-rule="evenodd" d="M275.446 312.602C280.151 312.602 283.965 308.807 283.965 304.126C283.965 299.445 280.151 295.65 275.446 295.65C270.741 295.65 266.927 299.445 266.927 304.126C266.927 308.807 270.741 312.602 275.446 312.602Z" fill="#EE0033"/>
<path d="M24.7852 234.199C26.6836 234.199 27.7734 232.594 27.7734 229.787C27.7734 226.986 26.666 225.346 24.7852 225.346C22.8926 225.346 21.7852 226.98 21.7852 229.77C21.7852 232.582 22.8809 234.199 24.7852 234.199ZM24.7852 233.279C23.5371 233.279 22.8457 232.031 22.8457 229.77C22.8457 227.537 23.5488 226.271 24.7852 226.271C26.0215 226.271 26.7129 227.525 26.7129 229.77C26.7129 232.037 26.0332 233.279 24.7852 233.279Z" fill="#576C8A"/>
<path d="M5.96484 189H7.01953V180.545H5.9707L3.7207 182.162V183.275L5.87109 181.717H5.96484V189ZM12.3867 189.199C14.2852 189.199 15.375 187.594 15.375 184.787C15.375 181.986 14.2676 180.346 12.3867 180.346C10.4941 180.346 9.38672 181.98 9.38672 184.77C9.38672 187.582 10.4824 189.199 12.3867 189.199ZM12.3867 188.279C11.1387 188.279 10.4473 187.031 10.4473 184.77C10.4473 182.537 11.1504 181.271 12.3867 181.271C13.623 181.271 14.3145 182.525 14.3145 184.77C14.3145 187.037 13.6348 188.279 12.3867 188.279ZM19.9453 189.199C21.8438 189.199 22.9336 187.594 22.9336 184.787C22.9336 181.986 21.8262 180.346 19.9453 180.346C18.0527 180.346 16.9453 181.98 16.9453 184.77C16.9453 187.582 18.041 189.199 19.9453 189.199ZM19.9453 188.279C18.6973 188.279 18.0059 187.031 18.0059 184.77C18.0059 182.537 18.709 181.271 19.9453 181.271C21.1816 181.271 21.873 182.525 21.873 184.77C21.873 187.037 21.1934 188.279 19.9453 188.279Z" fill="#576C8A"/>
<path d="M0.890625 137.93H1.91016C1.91016 136.928 2.58398 136.266 3.59766 136.266C4.59375 136.266 5.19727 136.934 5.19727 137.83C5.19727 138.574 4.88086 139.014 3.80273 140.18L0.943359 143.273V144H6.41602V143.051H2.4082V142.957L4.33008 140.971C5.85352 139.395 6.27539 138.691 6.27539 137.719C6.27539 136.348 5.14453 135.346 3.66797 135.346C2.05078 135.346 0.890625 136.424 0.890625 137.93ZM11.0391 144.199C12.9375 144.199 14.0273 142.594 14.0273 139.787C14.0273 136.986 12.9199 135.346 11.0391 135.346C9.14648 135.346 8.03906 136.98 8.03906 139.77C8.03906 142.582 9.13477 144.199 11.0391 144.199ZM11.0391 143.279C9.79102 143.279 9.09961 142.031 9.09961 139.77C9.09961 137.537 9.80273 136.271 11.0391 136.271C12.2754 136.271 12.9668 137.525 12.9668 139.77C12.9668 142.037 12.2871 143.279 11.0391 143.279ZM18.5977 144.199C20.4961 144.199 21.5859 142.594 21.5859 139.787C21.5859 136.986 20.4785 135.346 18.5977 135.346C16.7051 135.346 15.5977 136.98 15.5977 139.77C15.5977 142.582 16.6934 144.199 18.5977 144.199ZM18.5977 143.279C17.3496 143.279 16.6582 142.031 16.6582 139.77C16.6582 137.537 17.3613 136.271 18.5977 136.271C19.834 136.271 20.5254 137.525 20.5254 139.77C20.5254 142.037 19.8457 143.279 18.5977 143.279Z" fill="#576C8A"/>
<path d="M2.71875 95.1035H3.76758C4.95703 95.1035 5.68945 95.7129 5.68945 96.6914C5.68945 97.6406 4.89844 98.2793 3.78516 98.2793C2.69531 98.2793 1.93359 97.7109 1.83984 96.8203H0.820312C0.896484 98.2559 2.08008 99.1992 3.79688 99.1992C5.47852 99.1992 6.77344 98.1387 6.77344 96.7207C6.77344 95.543 6.04688 94.7988 4.95117 94.623V94.5293C5.81836 94.2773 6.45117 93.6035 6.45703 92.584C6.46289 91.4004 5.50195 90.3457 3.83203 90.3457C2.12109 90.3457 1.07227 91.3594 0.966797 92.7363H1.99219C2.08008 91.7871 2.74219 91.2656 3.76172 91.2656C4.78125 91.2656 5.38477 91.9102 5.38477 92.7012C5.38477 93.5801 4.69336 94.2012 3.7207 94.2012H2.71875V95.1035ZM11.3086 99.1992C13.207 99.1992 14.2969 97.5938 14.2969 94.7871C14.2969 91.9863 13.1895 90.3457 11.3086 90.3457C9.41602 90.3457 8.30859 91.9805 8.30859 94.7695C8.30859 97.582 9.4043 99.1992 11.3086 99.1992ZM11.3086 98.2793C10.0605 98.2793 9.36914 97.0312 9.36914 94.7695C9.36914 92.5371 10.0723 91.2715 11.3086 91.2715C12.5449 91.2715 13.2363 92.5254 13.2363 94.7695C13.2363 97.0371 12.5566 98.2793 11.3086 98.2793ZM18.8672 99.1992C20.7656 99.1992 21.8555 97.5938 21.8555 94.7871C21.8555 91.9863 20.748 90.3457 18.8672 90.3457C16.9746 90.3457 15.8672 91.9805 15.8672 94.7695C15.8672 97.582 16.9629 99.1992 18.8672 99.1992ZM18.8672 98.2793C17.6191 98.2793 16.9277 97.0312 16.9277 94.7695C16.9277 92.5371 17.6309 91.2715 18.8672 91.2715C20.1035 91.2715 20.7949 92.5254 20.7949 94.7695C20.7949 97.0371 20.1152 98.2793 18.8672 98.2793Z" fill="#576C8A"/>
<path d="M4.80469 54H5.83594V52.248H7.03711V51.3047H5.83594V45.5449H4.30664C3.12305 47.3086 1.82812 49.3711 0.685547 51.2871V52.248H4.80469V54ZM1.76367 51.2402C2.68359 49.6875 3.79102 47.9414 4.74023 46.5234H4.81055V51.3105H1.76367V51.2402ZM11.5078 54.1992C13.4062 54.1992 14.4961 52.5938 14.4961 49.7871C14.4961 46.9863 13.3887 45.3457 11.5078 45.3457C9.61523 45.3457 8.50781 46.9805 8.50781 49.7695C8.50781 52.582 9.60352 54.1992 11.5078 54.1992ZM11.5078 53.2793C10.2598 53.2793 9.56836 52.0312 9.56836 49.7695C9.56836 47.5371 10.2715 46.2715 11.5078 46.2715C12.7441 46.2715 13.4355 47.5254 13.4355 49.7695C13.4355 52.0371 12.7559 53.2793 11.5078 53.2793ZM19.0664 54.1992C20.9648 54.1992 22.0547 52.5938 22.0547 49.7871C22.0547 46.9863 20.9473 45.3457 19.0664 45.3457C17.1738 45.3457 16.0664 46.9805 16.0664 49.7695C16.0664 52.582 17.1621 54.1992 19.0664 54.1992ZM19.0664 53.2793C17.8184 53.2793 17.127 52.0312 17.127 49.7695C17.127 47.5371 17.8301 46.2715 19.0664 46.2715C20.3027 46.2715 20.9941 47.5254 20.9941 49.7695C20.9941 52.0371 20.3145 53.2793 19.0664 53.2793Z" fill="#576C8A"/>
<path d="M2.12109 10V3.44336H2.21484L6.80273 10H7.82812V1.54492H6.78516V8.125H6.69141L2.10352 1.54492H1.07812V10H2.12109ZM12.457 12.4258C14.1797 12.4258 15.2695 11.5234 15.2695 10.1113V3.68359H14.3086V4.68555H14.2148C13.8516 4.00586 13.0723 3.57227 12.1875 3.57227C10.5645 3.57227 9.53906 4.85547 9.53906 6.74805C9.53906 8.64062 10.5527 9.90625 12.1875 9.90625C13.0547 9.90625 13.7695 9.51367 14.168 8.81641H14.2617V10.0586C14.2617 10.9902 13.5879 11.5469 12.457 11.5469C11.5488 11.5469 10.9863 11.2129 10.875 10.6973H9.80859C9.96094 11.7402 10.9336 12.4258 12.457 12.4258ZM12.4102 9.01562C11.2383 9.01562 10.582 8.125 10.582 6.74805C10.582 5.37109 11.2383 4.48047 12.4102 4.48047C13.5762 4.48047 14.2852 5.37109 14.2852 6.74805C14.2852 8.125 13.582 9.01562 12.4102 9.01562ZM17.2266 10H18.2344V6.26172C18.2344 5.19531 18.8555 4.48047 19.9863 4.48047C20.9414 4.48047 21.4453 5.03711 21.4453 6.15625V10H22.4531V5.91016C22.4531 4.42773 21.6094 3.57227 20.2734 3.57227C19.3066 3.57227 18.6445 3.98242 18.3281 4.67969H18.2344V1.17578H17.2266V10ZM24.3633 2.80469H25.2539L24.2168 0.8125H23.0098L24.3633 2.80469ZM24.3164 10H25.3242V3.68359H24.3164V10ZM27.2461 10H28.2539V6.26172C28.2539 5.1543 28.9043 4.48047 29.9121 4.48047C30.9199 4.48047 31.4004 5.01953 31.4004 6.15625V10H32.4082V5.91016C32.4082 4.41016 31.6172 3.57227 30.1992 3.57227C29.2324 3.57227 28.6172 3.98242 28.3008 4.67969H28.207V3.68359H27.2461V10ZM41.2559 10L44.373 1.54492H43.2656L40.7812 8.63477H40.6875L38.2031 1.54492H37.0957L40.2129 10H41.2559ZM46.8984 10V3.44336H46.9922L51.5801 10H52.6055V1.54492H51.5625V8.125H51.4688L46.8809 1.54492H45.8555V10H46.8984ZM53.8359 6.11523H54.7617V10H57.6621C60.1758 10 61.6523 8.43555 61.6523 5.76953C61.6523 3.10938 60.1699 1.54492 57.6621 1.54492H54.7617V5.16602H53.8359V6.11523ZM55.8164 2.49414H57.5918C59.4668 2.49414 60.5742 3.71289 60.5742 5.78125C60.5742 7.84375 59.4785 9.05078 57.5918 9.05078H55.8164V6.11523H57.627V5.16602H55.8164V2.49414Z" fill="#576C8A"/>
<path d="M254.475 261V253.494H257.199V252.545H250.695V253.494H253.42V261H254.475ZM258.758 261H259.766V257.262C259.766 256.195 260.387 255.48 261.518 255.48C262.473 255.48 262.977 256.037 262.977 257.156V261H263.984V256.91C263.984 255.428 263.141 254.572 261.805 254.572C260.838 254.572 260.176 254.982 259.859 255.68H259.766V252.176H258.758V261ZM268.637 253.805L269.99 251.812H268.783L267.746 253.805H268.637ZM267.582 261.111C268.426 261.111 269.117 260.742 269.527 260.068H269.621V261H270.582V256.676C270.582 255.363 269.721 254.572 268.18 254.572C266.832 254.572 265.836 255.24 265.701 256.254H266.721C266.861 255.756 267.389 255.469 268.145 255.469C269.088 255.469 269.574 255.896 269.574 256.676V257.25L267.752 257.361C266.281 257.449 265.449 258.1 265.449 259.23C265.449 260.385 266.357 261.111 267.582 261.111ZM267.77 260.227C267.037 260.227 266.492 259.852 266.492 259.207C266.492 258.574 266.914 258.24 267.875 258.176L269.574 258.064V258.645C269.574 259.547 268.807 260.227 267.77 260.227ZM272.445 261H273.453V257.262C273.453 256.154 274.104 255.48 275.111 255.48C276.119 255.48 276.6 256.02 276.6 257.156V261H277.607V256.91C277.607 255.41 276.816 254.572 275.398 254.572C274.432 254.572 273.816 254.982 273.5 255.68H273.406V254.684H272.445V261ZM282.055 263.426C283.777 263.426 284.867 262.523 284.867 261.111V254.684H283.906V255.686H283.812C283.449 255.006 282.67 254.572 281.785 254.572C280.162 254.572 279.137 255.855 279.137 257.748C279.137 259.641 280.15 260.906 281.785 260.906C282.652 260.906 283.367 260.514 283.766 259.816H283.859V261.059C283.859 261.99 283.186 262.547 282.055 262.547C281.146 262.547 280.584 262.213 280.473 261.697H279.406C279.559 262.74 280.531 263.426 282.055 263.426ZM282.008 260.016C280.836 260.016 280.18 259.125 280.18 257.748C280.18 256.371 280.836 255.48 282.008 255.48C283.174 255.48 283.883 256.371 283.883 257.748C283.883 259.125 283.18 260.016 282.008 260.016ZM293.135 261.193C294.869 261.193 296.1 259.98 296.1 258.281C296.1 256.641 294.934 255.451 293.322 255.451C292.314 255.451 291.488 255.932 291.072 256.752H290.979C291.014 254.455 291.834 253.283 293.24 253.283C294.096 253.283 294.717 253.723 294.893 254.508H295.977C295.76 253.195 294.746 252.346 293.205 252.346C291.207 252.346 289.953 254.01 289.953 256.916C289.953 259.764 291.295 261.193 293.135 261.193ZM293.123 260.268C292.039 260.268 291.213 259.412 291.213 258.281C291.213 257.162 292.016 256.365 293.135 256.365C294.254 256.365 295.033 257.162 295.033 258.316C295.033 259.424 294.207 260.268 293.123 260.268Z" fill="#576C8A"/>
<path d="M402.379 261V253.494H405.104V252.545H398.6V253.494H401.324V261H402.379ZM406.662 261H407.67V257.262C407.67 256.195 408.291 255.48 409.422 255.48C410.377 255.48 410.881 256.037 410.881 257.156V261H411.889V256.91C411.889 255.428 411.045 254.572 409.709 254.572C408.742 254.572 408.08 254.982 407.764 255.68H407.67V252.176H406.662V261ZM416.541 253.805L417.895 251.812H416.688L415.65 253.805H416.541ZM415.486 261.111C416.33 261.111 417.021 260.742 417.432 260.068H417.525V261H418.486V256.676C418.486 255.363 417.625 254.572 416.084 254.572C414.736 254.572 413.74 255.24 413.605 256.254H414.625C414.766 255.756 415.293 255.469 416.049 255.469C416.992 255.469 417.479 255.896 417.479 256.676V257.25L415.656 257.361C414.186 257.449 413.354 258.1 413.354 259.23C413.354 260.385 414.262 261.111 415.486 261.111ZM415.674 260.227C414.941 260.227 414.396 259.852 414.396 259.207C414.396 258.574 414.818 258.24 415.779 258.176L417.479 258.064V258.645C417.479 259.547 416.711 260.227 415.674 260.227ZM420.35 261H421.357V257.262C421.357 256.154 422.008 255.48 423.016 255.48C424.023 255.48 424.504 256.02 424.504 257.156V261H425.512V256.91C425.512 255.41 424.721 254.572 423.303 254.572C422.336 254.572 421.721 254.982 421.404 255.68H421.311V254.684H420.35V261ZM429.959 263.426C431.682 263.426 432.771 262.523 432.771 261.111V254.684H431.811V255.686H431.717C431.354 255.006 430.574 254.572 429.689 254.572C428.066 254.572 427.041 255.855 427.041 257.748C427.041 259.641 428.055 260.906 429.689 260.906C430.557 260.906 431.271 260.514 431.67 259.816H431.764V261.059C431.764 261.99 431.09 262.547 429.959 262.547C429.051 262.547 428.488 262.213 428.377 261.697H427.311C427.463 262.74 428.436 263.426 429.959 263.426ZM429.912 260.016C428.74 260.016 428.084 259.125 428.084 257.748C428.084 256.371 428.74 255.48 429.912 255.48C431.078 255.48 431.787 256.371 431.787 257.748C431.787 259.125 431.084 260.016 429.912 260.016ZM438.402 261H439.51L443.271 253.523V252.545H437.676V253.488H442.199V253.57L438.402 261Z" fill="#576C8A"/>
<path d="M55.7526 53.5H487" stroke="#EEF1F7" stroke-linecap="square"/>
<path d="M55.7526 99H487" stroke="#EEF1F7" stroke-linecap="square"/>
<path d="M55.7526 142.5H487" stroke="#EEF1F7" stroke-linecap="square"/>
<path d="M55.7526 188H487" stroke="#EEF1F7" stroke-linecap="square"/>
<path d="M55.7526 231.5H487" stroke="#EEF1F7" stroke-linecap="square"/>
<path d="M411.75 113.803C411.75 112.698 412.645 111.803 413.75 111.803H415.429C416.534 111.803 417.429 112.698 417.429 113.803V230.669H411.75V113.803Z" fill="#FE9A00"/>
<path d="M424.528 149.324C424.528 148.22 425.424 147.324 426.528 147.324H428.208C429.312 147.324 430.208 148.22 430.208 149.324V230.669H424.528V149.324Z" fill="#EE0033"/>
<path d="M264.088 155.404C264.088 154.3 264.983 153.404 266.088 153.404H267.767C268.872 153.404 269.767 154.3 269.767 155.404V230.668H264.088V155.404Z" fill="#FE9A00"/>
<path d="M276.866 84.3438C276.866 83.2392 277.762 82.3438 278.866 82.3438H280.546C281.65 82.3438 282.546 83.2392 282.546 84.3438V230.669H276.866V84.3438Z" fill="#EE0033"/>
<path d="M116.426 70.2187C116.426 69.1142 117.321 68.2188 118.426 68.2188H120.105C121.21 68.2188 122.105 69.1142 122.105 70.2188V230.67H116.426V70.2187Z" fill="#FE9A00"/>
<path d="M129.204 102.709C129.204 101.604 130.1 100.709 131.204 100.709H132.883C133.988 100.709 134.883 101.604 134.883 102.709V230.67H129.204V102.709Z" fill="#EE0033"/>
</svg>
