<svg width="489" height="333" fill="none" xmlns="http://www.w3.org/2000/svg"><path d="M32.094 285.148c0 1.693-.29 2.951-.867 3.774-.579.823-1.482 1.234-2.711 1.234-1.214 0-2.112-.401-2.696-1.203-.583-.807-.885-2.01-.906-3.609v-1.93c0-1.672.29-2.914.867-3.726.578-.813 1.485-1.219 2.719-1.219 1.224 0 2.125.393 2.703 1.179.578.782.875 1.99.89 3.625v1.875zm-1.446-1.976c0-1.224-.171-2.115-.515-2.672-.344-.562-.888-.844-1.633-.844-.74 0-1.279.279-1.617.836-.339.557-.513 1.414-.524 2.57v2.313c0 1.229.177 2.138.532 2.727.359.583.9.875 1.625.875.713 0 1.242-.276 1.586-.829.349-.552.53-1.421.546-2.609v-2.367zM97.414 313.859h-3.656V324h-1.492v-10.141h-3.649v-1.234h8.797v1.234zM106.18 324h-7.453v-1.039l3.937-4.375c.583-.662.984-1.198 1.203-1.609.224-.417.336-.847.336-1.289 0-.594-.18-1.081-.539-1.461-.359-.381-.838-.571-1.437-.571-.719 0-1.279.206-1.68.617-.396.407-.594.974-.594 1.704h-1.445c0-1.047.336-1.894 1.008-2.539.677-.646 1.58-.969 2.711-.969 1.057 0 1.893.278 2.507.836.615.552.922 1.289.922 2.211 0 1.119-.713 2.453-2.14 4l-3.047 3.304h5.711V324zM170.414 313.859h-3.656V324h-1.492v-10.141h-3.649v-1.234h8.797v1.234zm3.414 3.75h1.086c.682-.01 1.219-.19 1.609-.539.391-.349.586-.82.586-1.414 0-1.333-.664-2-1.992-2-.625 0-1.125.18-1.5.539-.37.354-.555.826-.555 1.414h-1.445c0-.901.328-1.648.985-2.242.661-.599 1.5-.898 2.515-.898 1.073 0 1.914.284 2.524.851.609.568.914 1.357.914 2.368 0 .494-.162.973-.485 1.437-.317.464-.752.81-1.304 1.039.625.198 1.106.526 1.445.984.344.459.516 1.019.516 1.68 0 1.021-.334 1.831-1 2.43-.667.599-1.534.898-2.602.898-1.068 0-1.937-.289-2.609-.867-.667-.578-1-1.341-1-2.289h1.453c0 .599.195 1.078.586 1.438.39.359.914.539 1.57.539.698 0 1.232-.183 1.602-.547.369-.365.554-.888.554-1.571 0-.661-.203-1.169-.609-1.523-.406-.354-.992-.537-1.758-.547h-1.086v-1.18zM243.414 313.859h-3.656V324h-1.492v-10.141h-3.649v-1.234h8.797v1.234zm7.414 6.321h1.578v1.179h-1.578V324h-1.453v-2.641h-5.18v-.851l5.094-7.883h1.539v7.555zm-4.992 0h3.539v-5.578l-.172.312-3.367 5.266zM316.414 313.859h-3.656V324h-1.492v-10.141h-3.649v-1.234h8.797v1.234zm1.977 4.438l.578-5.672h5.828v1.336h-4.602l-.343 3.101c.557-.328 1.19-.492 1.898-.492 1.036 0 1.859.344 2.469 1.032.609.682.914 1.606.914 2.773 0 1.172-.318 2.096-.953 2.773-.631.672-1.513 1.008-2.649 1.008-1.005 0-1.825-.278-2.461-.836-.635-.557-.997-1.328-1.086-2.312h1.368c.088.651.32 1.143.695 1.476.375.328.87.493 1.484.493.672 0 1.198-.23 1.578-.688.386-.458.579-1.091.579-1.898 0-.761-.209-1.37-.626-1.829-.411-.463-.96-.695-1.648-.695-.63 0-1.125.138-1.484.414l-.383.313-1.156-.297zM389.414 313.859h-3.656V324h-1.492v-10.141h-3.649v-1.234h8.797v1.234zm6.984-1.242v1.227h-.265c-1.125.021-2.021.354-2.688 1-.666.646-1.052 1.554-1.156 2.726.599-.687 1.417-1.031 2.453-1.031.99 0 1.779.349 2.367 1.047.594.698.891 1.599.891 2.703 0 1.172-.32 2.109-.961 2.813-.635.703-1.49 1.054-2.562 1.054-1.089 0-1.972-.416-2.649-1.25-.677-.838-1.016-1.916-1.016-3.234v-.555c0-2.094.446-3.693 1.336-4.797.896-1.109 2.227-1.677 3.993-1.703h.257zm-1.898 5.125c-.495 0-.951.149-1.367.446a2.31 2.31 0 00-.867 1.117v.531c0 .937.211 1.693.632 2.266.422.572.948.859 1.579.859.651 0 1.161-.24 1.531-.719.375-.479.562-1.107.562-1.883 0-.781-.19-1.411-.57-1.89-.375-.485-.875-.727-1.5-.727zM462.414 313.859h-3.656V324h-1.492v-10.141h-3.649v-1.234h8.797v1.234zm8.656-.421L466.359 324h-1.515l4.695-10.188h-6.156v-1.187h7.687v.813zM11.742 236H10.29v-9.633l-2.914 1.071v-1.313l4.14-1.555h.227V236zm11.367-4.852c0 1.693-.289 2.951-.867 3.774-.578.823-1.482 1.234-2.71 1.234-1.214 0-2.113-.401-2.696-1.203-.583-.807-.885-2.01-.906-3.609v-1.93c0-1.672.289-2.914.867-3.726.578-.813 1.484-1.219 2.719-1.219 1.224 0 2.125.393 2.703 1.179.578.782.875 1.99.89 3.625v1.875zm-1.445-1.976c0-1.224-.172-2.115-.516-2.672-.343-.562-.888-.844-1.632-.844-.74 0-1.279.279-1.618.836-.338.557-.513 1.414-.523 2.57v2.313c0 1.229.177 2.138.531 2.727.36.583.901.875 1.625.875.714 0 1.242-.276 1.586-.829.35-.552.531-1.421.547-2.609v-2.367zm10.43 1.976c0 1.693-.29 2.951-.867 3.774-.579.823-1.482 1.234-2.711 1.234-1.214 0-2.112-.401-2.696-1.203-.583-.807-.885-2.01-.906-3.609v-1.93c0-1.672.29-2.914.867-3.726.578-.813 1.485-1.219 2.719-1.219 1.224 0 2.125.393 2.703 1.179.578.782.875 1.99.89 3.625v1.875zm-1.446-1.976c0-1.224-.171-2.115-.515-2.672-.344-.562-.888-.844-1.633-.844-.74 0-1.279.279-1.617.836-.339.557-.513 1.414-.524 2.57v2.313c0 1.229.177 2.138.532 2.727.359.583.9.875 1.625.875.713 0 1.242-.276 1.586-.829.349-.552.53-1.421.546-2.609v-2.367zM14.445 182H6.992v-1.039l3.938-4.375c.583-.662.984-1.198 1.203-1.609.224-.417.336-.847.336-1.289 0-.594-.18-1.081-.54-1.461-.359-.381-.838-.571-1.437-.571-.719 0-1.278.206-1.68.617-.395.407-.593.974-.593 1.704H6.773c0-1.047.336-1.894 1.008-2.539.677-.646 1.581-.969 2.711-.969 1.057 0 1.893.278 2.508.836.615.552.922 1.289.922 2.211 0 1.119-.714 2.453-2.14 4l-3.048 3.304h5.711V182zm8.664-4.852c0 1.693-.289 2.951-.867 3.774-.578.823-1.482 1.234-2.71 1.234-1.214 0-2.113-.401-2.696-1.203-.583-.807-.885-2.01-.906-3.609v-1.93c0-1.672.289-2.914.867-3.726.578-.813 1.484-1.219 2.719-1.219 1.224 0 2.125.393 2.703 1.179.578.782.875 1.99.89 3.625v1.875zm-1.445-1.976c0-1.224-.172-2.115-.516-2.672-.343-.562-.888-.844-1.632-.844-.74 0-1.279.279-1.618.836-.338.557-.513 1.414-.523 2.57v2.313c0 1.229.177 2.138.531 2.727.36.583.901.875 1.625.875.714 0 1.242-.276 1.586-.829.35-.552.531-1.421.547-2.609v-2.367zm10.43 1.976c0 1.693-.29 2.951-.867 3.774-.579.823-1.482 1.234-2.711 1.234-1.214 0-2.112-.401-2.696-1.203-.583-.807-.885-2.01-.906-3.609v-1.93c0-1.672.29-2.914.867-3.726.578-.813 1.485-1.219 2.719-1.219 1.224 0 2.125.393 2.703 1.179.578.782.875 1.99.89 3.625v1.875zm-1.446-1.976c0-1.224-.171-2.115-.515-2.672-.344-.562-.888-.844-1.633-.844-.74 0-1.279.279-1.617.836-.339.557-.513 1.414-.524 2.57v2.313c0 1.229.177 2.138.532 2.727.359.583.9.875 1.625.875.713 0 1.242-.276 1.586-.829.349-.552.53-1.421.546-2.609v-2.367zM9.094 121.609h1.086c.682-.01 1.218-.19 1.61-.539.39-.349.585-.82.585-1.414 0-1.333-.664-2-1.992-2-.625 0-1.125.18-1.5.539-.37.354-.555.826-.555 1.414H6.883c0-.901.328-1.648.984-2.242.662-.599 1.5-.898 2.516-.898 1.073 0 1.914.284 2.523.851.61.568.914 1.357.914 2.368 0 .494-.161.973-.484 1.437-.318.464-.753.81-1.305 1.039.625.198 1.107.526 1.446.984.343.459.515 1.019.515 1.68 0 1.021-.333 1.831-1 2.43-.667.599-1.534.898-2.601.898-1.068 0-1.938-.289-2.61-.867-.666-.578-1-1.341-1-2.289h1.453c0 .599.196 1.078.586 1.438.39.359.914.539 1.57.539.698 0 1.232-.183 1.602-.547.37-.365.555-.888.555-1.571 0-.661-.203-1.169-.61-1.523-.406-.354-.992-.537-1.757-.547H9.094v-1.18zm14.015 1.539c0 1.693-.289 2.951-.867 3.774-.578.823-1.482 1.234-2.71 1.234-1.214 0-2.113-.401-2.696-1.203-.583-.807-.885-2.01-.906-3.609v-1.93c0-1.672.289-2.914.867-3.726.578-.813 1.484-1.219 2.719-1.219 1.224 0 2.125.393 2.703 1.179.578.782.875 1.99.89 3.625v1.875zm-1.445-1.976c0-1.224-.172-2.115-.516-2.672-.343-.562-.888-.844-1.632-.844-.74 0-1.279.279-1.618.836-.338.557-.513 1.414-.523 2.57v2.313c0 1.229.177 2.138.531 2.727.36.583.901.875 1.625.875.714 0 1.242-.276 1.586-.829.35-.552.531-1.421.547-2.609v-2.367zm10.43 1.976c0 1.693-.29 2.951-.867 3.774-.579.823-1.482 1.234-2.711 1.234-1.214 0-2.112-.401-2.696-1.203-.583-.807-.885-2.01-.906-3.609v-1.93c0-1.672.29-2.914.867-3.726.578-.813 1.485-1.219 2.719-1.219 1.224 0 2.125.393 2.703 1.179.578.782.875 1.99.89 3.625v1.875zm-1.446-1.976c0-1.224-.171-2.115-.515-2.672-.344-.562-.888-.844-1.633-.844-.74 0-1.279.279-1.617.836-.339.557-.513 1.414-.524 2.57v2.313c0 1.229.177 2.138.532 2.727.359.583.9.875 1.625.875.713 0 1.242-.276 1.586-.829.349-.552.53-1.421.546-2.609v-2.367zM13.094 70.18h1.578v1.18h-1.578V74H11.64v-2.64H6.46v-.852l5.094-7.883h1.539v7.555zm-4.992 0h3.539v-5.578l-.172.312-3.367 5.266zm15.007-1.032c0 1.693-.289 2.951-.867 3.774-.578.823-1.482 1.234-2.71 1.234-1.214 0-2.113-.4-2.696-1.203-.583-.807-.885-2.01-.906-3.61v-1.929c0-1.672.289-2.914.867-3.727.578-.812 1.484-1.218 2.719-1.218 1.224 0 2.125.393 2.703 1.18.578.78.875 1.989.89 3.624v1.875zm-1.445-1.976c0-1.224-.172-2.115-.516-2.672-.343-.563-.888-.844-1.632-.844-.74 0-1.279.279-1.618.836-.338.557-.513 1.414-.523 2.57v2.313c0 1.23.177 2.138.531 2.727.36.583.901.875 1.625.875.714 0 1.242-.276 1.586-.829.35-.552.531-1.421.547-2.609v-2.367zm10.43 1.976c0 1.693-.29 2.951-.867 3.774-.579.823-1.482 1.234-2.711 1.234-1.214 0-2.112-.4-2.696-1.203-.583-.807-.885-2.01-.906-3.61v-1.929c0-1.672.29-2.914.867-3.727.578-.812 1.485-1.218 2.719-1.218 1.224 0 2.125.393 2.703 1.18.578.78.875 1.989.89 3.624v1.875zm-1.446-1.976c0-1.224-.171-2.115-.515-2.672-.344-.563-.888-.844-1.633-.844-.74 0-1.279.279-1.617.836-.339.557-.513 1.414-.524 2.57v2.313c0 1.23.177 2.138.532 2.727.359.583.9.875 1.625.875.713 0 1.242-.276 1.586-.829.349-.552.53-1.421.546-2.609v-2.367zM5.758 18.008l3.25-9.383h1.64L6.43 20H5.102L.89 8.625h1.632l3.235 9.383zM20.922 20h-1.508l-5.727-8.766V20H12.18V8.625h1.508l5.742 8.805V8.625h1.492V20zm2.898 0v-5.203h-1.5v-1.18h1.5V8.625h3.211c.99 0 1.865.219 2.625.656a4.414 4.414 0 011.758 1.867c.417.808.628 1.735.633 2.782v.726c0 1.073-.208 2.013-.625 2.82a4.338 4.338 0 01-1.774 1.86c-.765.432-1.658.654-2.68.664H23.82zm3.47-5.203h-1.97v3.976h1.57c1.157 0 2.055-.356 2.696-1.07.646-.713.971-1.719.977-3.015v-.727c0-1.292-.305-2.294-.915-3.008-.604-.719-1.463-1.083-2.578-1.094h-1.75v3.758h1.97v1.18z" fill="#576C8A"/><path d="M68.732 75H488M68.732 129H488M68.732 183H488M68.732 237H488M68.732 291H488" stroke="#EAEDF2" stroke-linecap="square"/><path d="M98 194l73-50.5 72 69 72-12.5 72-35.5h76" stroke="#EE0033" stroke-width="3"/><circle cx="171" cy="144" r="6" fill="#fff" stroke="#EE0033" stroke-width="3"/><path d="M258 110.47c0 5.523-4.477 10-10 10h-71.969s-4.832 12.43-4.832 11.478c0 .952-5.199-11.478-5.199-11.478h-5c-5.523 0-10-4.478-10-10V100c0-5.523 4.477-10 10-10h87c5.523 0 10 4.477 10 10v10.47z" fill="#FE9A00"/><path d="M171.38 101.074h-3.199v8.873h-1.306v-8.873h-3.192v-1.08h7.697v1.08zm2.987 3.281h.95c.597-.009 1.067-.166 1.409-.471.341-.306.512-.718.512-1.238 0-1.166-.581-1.75-1.743-1.75-.547 0-.984.158-1.312.472-.324.31-.486.722-.486 1.237h-1.264c0-.788.287-1.442.861-1.961.579-.525 1.312-.787 2.201-.787.939 0 1.675.249 2.208.746.533.496.8 1.187.8 2.071 0 .433-.141.852-.424 1.258a2.522 2.522 0 01-1.141.909c.546.173.968.46 1.264.861.301.401.451.891.451 1.47 0 .893-.291 1.602-.875 2.126-.583.524-1.342.786-2.276.786-.934 0-1.695-.253-2.283-.759-.584-.506-.875-1.173-.875-2.003h1.271c0 .524.171.944.513 1.258.342.315.8.472 1.374.472.611 0 1.078-.16 1.401-.479.324-.319.486-.777.486-1.374 0-.579-.178-1.023-.534-1.333-.355-.31-.868-.469-1.538-.478h-.95v-1.033zm6.112 4.929c0-.219.063-.401.191-.547.132-.146.328-.218.588-.218.26 0 .456.072.588.218a.772.772 0 01.205.547c0 .21-.069.385-.205.527-.132.141-.328.211-.588.211-.26 0-.456-.07-.588-.211a.756.756 0 01-.191-.527zm.006-6.036a.8.8 0 01.192-.547c.132-.146.328-.219.588-.219.259 0 .455.073.588.219a.772.772 0 01.205.547c0 .21-.069.385-.205.526-.133.142-.329.212-.588.212-.26 0-.456-.07-.588-.212a.753.753 0 01-.192-.526zm13.289 6.699h-6.521v-.909l3.445-3.828c.511-.579.862-1.048 1.053-1.408.196-.365.294-.741.294-1.128 0-.52-.157-.946-.472-1.278-.314-.333-.733-.5-1.258-.5-.628 0-1.118.18-1.469.541-.347.355-.52.852-.52 1.49h-1.264c0-.916.293-1.657.881-2.222.593-.565 1.383-.848 2.372-.848.926 0 1.657.244 2.195.732.538.483.806 1.128.806 1.934 0 .98-.624 2.147-1.873 3.5l-2.666 2.892h4.997v1.032zm7.862 0h-6.522v-.909l3.446-3.828c.51-.579.861-1.048 1.052-1.408.196-.365.294-.741.294-1.128 0-.52-.157-.946-.471-1.278-.315-.333-.734-.5-1.258-.5-.629 0-1.119.18-1.47.541-.346.355-.519.852-.519 1.49h-1.265c0-.916.294-1.657.882-2.222.592-.565 1.383-.848 2.372-.848.925 0 1.656.244 2.194.732.538.483.807 1.128.807 1.934 0 .98-.625 2.147-1.873 3.5l-2.666 2.892h4.997v1.032zm1.921-4.99l.505-4.963h5.1v1.169h-4.026l-.301 2.714a3.213 3.213 0 011.661-.431c.907 0 1.627.301 2.16.903.533.597.8 1.406.8 2.426 0 1.026-.278 1.835-.834 2.427-.551.588-1.324.882-2.317.882-.88 0-1.598-.244-2.154-.731-.556-.488-.872-1.163-.95-2.024h1.196c.078.57.281 1 .609 1.292.328.287.761.431 1.299.431.588 0 1.048-.201 1.381-.602.337-.401.505-.955.505-1.661 0-.665-.182-1.199-.546-1.6-.36-.405-.841-.608-1.443-.608-.551 0-.984.121-1.299.362l-.335.274-1.011-.26zm7.437 4.327a.8.8 0 01.192-.547c.132-.146.328-.218.587-.218.26 0 .456.072.588.218a.767.767 0 01.205.547c0 .21-.068.385-.205.527-.132.141-.328.211-.588.211-.259 0-.455-.07-.587-.211a.757.757 0 01-.192-.527zm5.373-4.929h.95c.597-.009 1.067-.166 1.409-.471.341-.306.512-.718.512-1.238 0-1.166-.581-1.75-1.743-1.75-.547 0-.984.158-1.312.472-.324.31-.486.722-.486 1.237h-1.264c0-.788.287-1.442.861-1.961.579-.525 1.312-.787 2.201-.787.939 0 1.675.249 2.208.746.533.496.8 1.187.8 2.071 0 .433-.141.852-.424 1.258a2.522 2.522 0 01-1.141.909c.546.173.968.46 1.264.861.301.401.451.891.451 1.47 0 .893-.291 1.602-.875 2.126-.583.524-1.342.786-2.276.786-.934 0-1.695-.253-2.283-.759-.584-.506-.875-1.173-.875-2.003h1.271c0 .524.171.944.513 1.258.342.315.8.472 1.374.472.611 0 1.078-.16 1.401-.479.324-.319.486-.777.486-1.374 0-.579-.178-1.023-.534-1.333-.355-.31-.868-.469-1.538-.478h-.95v-1.033zm10.179 5.592h-1.272v-8.428l-2.549.936v-1.148l3.623-1.36h.198v10zm9.044-3.343h1.381v1.033h-1.381v2.31h-1.272v-2.31h-4.532v-.745l4.457-6.898h1.347v6.61zm-4.368 0h3.096v-4.88l-.15.273-2.946 4.607zm14.239-5.085h-1.285v8.428h-1.162l-.062-.793c-.506.62-1.21.93-2.112.93-.857 0-1.556-.351-2.099-1.053-.538-.702-.806-1.618-.806-2.748v-.095c0-1.135.268-2.047.806-2.735.538-.693 1.242-1.039 2.113-1.039.865 0 1.551.296 2.057.889v-1.784h-1.805v-1.033h1.805v-1.039h1.265v1.039h1.285v1.033zm-6.262 4.812c0 .839.173 1.495.52 1.969.346.474.825.711 1.435.711.802 0 1.388-.36 1.757-1.08v-3.398c-.378-.697-.959-1.046-1.743-1.046-.62 0-1.103.24-1.449.718-.347.479-.52 1.187-.52 2.126z" fill="#fff"/></svg>