<svg width="30" height="30" fill="none" xmlns="http://www.w3.org/2000/svg"><path fill-rule="evenodd" clip-rule="evenodd" d="M10 3.75a6.25 6.25 0 100 12.5 6.25 6.25 0 000-12.5zM1.25 10a8.75 8.75 0 1117.5 0 8.75 8.75 0 01-17.5 0zM22.5 18.75a3.75 3.75 0 100 7.5 3.75 3.75 0 000-7.5zm-6.25 3.75a6.25 6.25 0 1112.5 0 6.25 6.25 0 01-12.5 0z" fill="#EE0033"/><path fill-rule="evenodd" clip-rule="evenodd" d="M25 7.5a1.25 1.25 0 100 2.5 1.25 1.25 0 000-2.5zm-3.75 1.25a3.75 3.75 0 117.5 0 3.75 3.75 0 01-7.5 0z" fill="#FE9A00"/></svg>