<svg width="30" height="30" fill="none" xmlns="http://www.w3.org/2000/svg"><path fill-rule="evenodd" clip-rule="evenodd" d="M2.5 23.75c0-.69.56-1.25 1.25-1.25h12.5a1.25 1.25 0 110 2.5H3.75c-.69 0-1.25-.56-1.25-1.25z" fill="#FE9A00"/><path fill-rule="evenodd" clip-rule="evenodd" d="M3.232 10.732A2.5 2.5 0 015 10h10a2.5 2.5 0 012.5 2.5v15A2.5 2.5 0 0115 30H5a2.5 2.5 0 01-2.5-2.5v-15a2.5 2.5 0 01.732-1.768zM15 12.5H5v15h10v-15zM13.75 6.25c0-.69.56-1.25 1.25-1.25a7.5 7.5 0 017.5 7.5 1.25 1.25 0 11-2.5 0 5 5 0 00-5-5c-.69 0-1.25-.56-1.25-1.25z" fill="#EE0033"/><path fill-rule="evenodd" clip-rule="evenodd" d="M13.75 1.25C13.75.56 14.31 0 15 0a12.5 12.5 0 0112.5 12.5 1.25 1.25 0 11-2.5 0 10 10 0 00-10-10c-.69 0-1.25-.56-1.25-1.25z" fill="#EE0033"/></svg>