<svg width="26" height="24" fill="none" xmlns="http://www.w3.org/2000/svg"><path fill-rule="evenodd" clip-rule="evenodd" d="M3 17a1 1 0 011 1v3a1 1 0 11-2 0v-3a1 1 0 011-1zM9 12a1 1 0 011 1v8a1 1 0 11-2 0v-8a1 1 0 011-1zM15 7a1 1 0 011 1v13a1 1 0 11-2 0V8a1 1 0 011-1zM21 2c.552 0 1 .201 1 .45v8.1c0 .248-.448.45-1 .45s-1-.201-1-.45v-8.1c0-.249.448-.45 1-.45z" fill="#EE0033"/><path fill-rule="evenodd" clip-rule="evenodd" d="M18.571 15c.316 0 .572.249.572.556v2.222c0 .136.128.41.688.681.526.256 1.292.43 2.169.43s1.643-.174 2.169-.43c.56-.272.688-.545.688-.681v-2.222c0-.307.256-.556.572-.556.315 0 .571.249.571.556v2.222c0 .784-.639 1.344-1.32 1.675-.715.348-1.664.547-2.68.547-1.016 0-1.965-.199-2.68-.547-.681-.33-1.32-.891-1.32-1.675v-2.222c0-.307.256-.556.571-.556z" fill="#FE9A00"/><path fill-rule="evenodd" clip-rule="evenodd" d="M18.571 17c.316 0 .572.249.572.556v2.222c0 .136.128.41.688.681.526.256 1.292.43 2.169.43s1.643-.174 2.169-.43c.56-.272.688-.545.688-.681v-2.222c0-.307.256-.556.572-.556.315 0 .571.249.571.556v2.222c0 .784-.639 1.344-1.32 1.675-.715.348-1.664.547-2.68.547-1.016 0-1.965-.199-2.68-.547-.681-.33-1.32-.891-1.32-1.675v-2.222c0-.307.256-.556.571-.556z" fill="#FE9A00"/><path fill-rule="evenodd" clip-rule="evenodd" d="M19.831 14.733c-.56.306-.688.614-.688.767 0 .153.128.46.688.767.526.287 1.292.483 2.169.483s1.643-.196 2.169-.483c.56-.306.688-.614.688-.767 0-.153-.128-.46-.688-.767-.526-.287-1.292-.483-2.169-.483s-1.643.196-2.169.483zm-.51-1.118C20.034 13.224 20.983 13 22 13c1.016 0 1.965.224 2.68.615.681.373 1.32 1.003 1.32 1.885 0 .882-.639 1.512-1.32 1.885-.715.391-1.664.615-2.68.615-1.016 0-1.965-.224-2.68-.615C18.64 17.012 18 16.382 18 15.5c0-.882.639-1.512 1.32-1.885z" fill="#FE9A00"/></svg>