<svg width="30" height="31" fill="none" xmlns="http://www.w3.org/2000/svg"><path fill-rule="evenodd" clip-rule="evenodd" d="M0 8a1 1 0 011-1h22a1 1 0 110 2H1a1 1 0 01-1-1z" fill="#FE9A00"/><path fill-rule="evenodd" clip-rule="evenodd" d="M0 4a1 1 0 011-1h22a1 1 0 011 1v8a1 1 0 11-2 0V5H2v16h10a1 1 0 110 2H1a1 1 0 01-1-1V4z" fill="#EE0033"/><path fill-rule="evenodd" clip-rule="evenodd" d="M7 0a1 1 0 011 1v3a1 1 0 01-2 0V1a1 1 0 011-1zM17 0a1 1 0 011 1v3a1 1 0 11-2 0V1a1 1 0 011-1z" fill="#FE9A00"/><path fill-rule="evenodd" clip-rule="evenodd" d="M17 18a1 1 0 011 1v4c0 .246.225.737 1.204 1.227.92.46 2.26.773 3.796.773 1.535 0 2.876-.313 3.796-.773C27.774 23.737 28 23.246 28 23v-4a1 1 0 112 0v4c0 1.411-1.118 2.42-2.31 3.016-1.252.626-2.911.984-4.69.984-1.779 0-3.438-.358-4.69-.984C17.118 25.42 16 24.41 16 23v-4a1 1 0 011-1z" fill="#EE0033"/><path fill-rule="evenodd" clip-rule="evenodd" d="M17 22a1 1 0 011 1v4c0 .246.225.737 1.204 1.227.92.46 2.26.773 3.796.773 1.535 0 2.876-.313 3.796-.773C27.774 27.737 28 27.246 28 27v-4a1 1 0 112 0v4c0 1.411-1.118 2.42-2.31 3.016-1.252.626-2.911.984-4.69.984-1.779 0-3.438-.358-4.69-.984C17.118 29.42 16 28.41 16 27v-4a1 1 0 011-1z" fill="#EE0033"/><path fill-rule="evenodd" clip-rule="evenodd" d="M19.205 17.773c-.98.49-1.205.981-1.205 1.227 0 .246.225.737 1.205 1.227.92.46 2.26.773 3.795.773 1.535 0 2.876-.313 3.795-.773.98-.49 1.205-.981 1.205-1.227 0-.246-.225-.737-1.205-1.227-.92-.46-2.26-.773-3.795-.773-1.535 0-2.876.313-3.795.773zm-.895-1.789C19.562 15.358 21.222 15 23 15c1.778 0 3.438.358 4.69.984C28.882 16.58 30 17.59 30 19s-1.118 2.42-2.31 3.016c-1.252.626-2.912.984-4.69.984-1.778 0-3.438-.358-4.69-.984C17.118 21.42 16 20.41 16 19s1.118-2.42 2.31-3.016z" fill="#EE0033"/></svg>