<svg width="264" height="96" viewBox="0 0 264 96" fill="none" xmlns="http://www.w3.org/2000/svg">
<g clip-path="url(#clip0)">
<path d="M0 8.00001C0 3.58173 3.58172 0 8 0H256C260.418 0 264 3.58172 264 8V95.7884H0V8.00001Z" fill="#D92F3B"/>
<path d="M168.736 -16.7281C175.177 -16.7281 181.372 -14.7667 186.686 -11.071C192.122 -7.29276 196.184 -1.98666 198.42 4.28982L206.297 26.3195C209.149 34.3096 208.739 42.9191 205.149 50.5995C201.559 58.28 195.22 64.0816 187.281 66.9514L138.846 84.4801C130.846 87.3706 123.686 91.6238 117.593 97.1157C112.711 101.493 108.505 106.675 105.059 112.518C100.607 120.095 98.6174 126.826 97.9199 129.654L77.6517 72.8562L72.7283 59.0852L69.7742 50.8266C66.9227 42.8365 67.333 34.227 70.923 26.5466C74.513 18.8661 80.852 13.0645 88.791 10.1947L158.048 -14.87C161.515 -16.0881 165.105 -16.7281 168.736 -16.7281ZM168.736 -17.1411C165.146 -17.1411 161.494 -16.5217 157.924 -15.2416L88.6679 9.82304C72.0513 15.8311 63.4353 34.2476 69.4049 50.9712L72.359 59.2297L77.2825 73.0008L98.0225 131.079C98.0225 131.079 104.115 97.446 138.99 84.8311L187.424 67.3024C204.041 61.2943 212.657 42.8778 206.687 26.1543L198.81 4.12466C194.112 -8.96511 181.824 -17.1411 168.736 -17.1411Z" fill="white"/>
<rect x="57.4336" y="28.2324" width="164.244" height="40.332" fill="#D92F3B"/>
<path d="M31.978 38.8364C31.978 37.6044 32.1833 36.4458 32.594 35.3604C33.034 34.2751 33.6793 33.3364 34.53 32.5444C35.3807 31.7231 36.466 31.0778 37.786 30.6084C39.106 30.1391 40.6607 29.9044 42.45 29.9044C43.2713 29.9044 44.122 29.9484 45.002 30.0364C45.9113 30.1244 46.7913 30.2564 47.642 30.4324C48.522 30.6084 49.358 30.8284 50.15 31.0924C50.942 31.3271 51.6607 31.6058 52.306 31.9284C52.658 32.1044 52.8487 32.2804 52.878 32.4564C52.9367 32.6031 52.8927 32.8964 52.746 33.3364L51.602 36.6364C51.4553 37.0471 51.3087 37.2818 51.162 37.3404C51.0153 37.3991 50.766 37.3844 50.414 37.2964C49.0353 36.8858 47.6567 36.5484 46.278 36.2844C44.9287 36.0204 43.6527 35.8884 42.45 35.8884C41.1593 35.8884 40.25 36.1231 39.722 36.5924C39.194 37.0618 38.93 37.6338 38.93 38.3084C38.93 38.6898 39.018 39.0418 39.194 39.3644C39.37 39.6871 39.6487 40.0098 40.03 40.3324C40.4407 40.6258 40.9687 40.9338 41.614 41.2564C42.2887 41.5791 43.11 41.9311 44.078 42.3124C45.574 42.8991 46.9527 43.5004 48.214 44.1164C49.4753 44.7031 50.546 45.3778 51.426 46.1404C52.3353 46.9031 53.0393 47.7978 53.538 48.8244C54.066 49.8511 54.33 51.0831 54.33 52.5204C54.33 54.0751 54.0513 55.4244 53.494 56.5684C52.9367 57.7124 52.1593 58.6658 51.162 59.4284C50.1647 60.1911 48.9473 60.7631 47.51 61.1444C46.102 61.5258 44.5473 61.7164 42.846 61.7164C41.9073 61.7164 40.9247 61.6578 39.898 61.5404C38.8713 61.4524 37.8447 61.3058 36.818 61.1004C35.8207 60.8658 34.838 60.5724 33.87 60.2204C32.902 59.8684 32.0073 59.4431 31.186 58.9444C30.9513 58.7978 30.8047 58.6364 30.746 58.4604C30.7167 58.2844 30.7753 58.0058 30.922 57.6244L32.418 54.1044C32.5647 53.7524 32.726 53.5471 32.902 53.4884C33.078 53.4298 33.3273 53.4738 33.65 53.6204C34.2367 53.8551 34.882 54.1044 35.586 54.3684C36.29 54.6031 37.0087 54.8231 37.742 55.0284C38.5047 55.2044 39.2673 55.3658 40.03 55.5124C40.822 55.6298 41.5993 55.6884 42.362 55.6884C43.2713 55.6884 44.034 55.6004 44.65 55.4244C45.266 55.2484 45.7647 55.0284 46.146 54.7644C46.5273 54.4711 46.7913 54.1484 46.938 53.7964C47.0847 53.4151 47.158 53.0191 47.158 52.6084C47.158 52.1684 47.07 51.7724 46.894 51.4204C46.7473 51.0684 46.4833 50.7311 46.102 50.4084C45.75 50.0564 45.2513 49.7338 44.606 49.4404C43.99 49.1178 43.2127 48.7804 42.274 48.4284C40.7193 47.8418 39.3113 47.2404 38.05 46.6244C36.7887 46.0084 35.7033 45.3338 34.794 44.6004C33.8847 43.8378 33.1807 43.0018 32.682 42.0924C32.2127 41.1538 31.978 40.0684 31.978 38.8364ZM80.4048 35.2724C80.4048 35.8591 80.1115 36.1524 79.5248 36.1524H71.5608V60.3084C71.5608 60.6898 71.4875 60.9391 71.3408 61.0564C71.2235 61.1738 70.9448 61.2324 70.5048 61.2324H65.7968C65.4448 61.2324 65.1808 61.1738 65.0048 61.0564C64.8581 60.9098 64.7848 60.6604 64.7848 60.3084V36.1524H56.9968C56.4395 36.1524 56.1608 35.8591 56.1608 35.2724V31.3564C56.1608 30.9751 56.2195 30.7258 56.3368 30.6084C56.4541 30.4911 56.6741 30.4324 56.9968 30.4324H79.5248C79.8768 30.4324 80.1115 30.4911 80.2288 30.6084C80.3461 30.7258 80.4048 30.9751 80.4048 31.3564V35.2724ZM103.866 31.5764C105.392 31.5764 106.154 32.2364 106.154 33.5564V34.9204C106.154 35.8298 105.92 36.7538 105.45 37.6924L92.9984 60.2644C92.7638 60.6458 92.5291 60.9098 92.2944 61.0564C92.0598 61.1738 91.6931 61.2324 91.1944 61.2324H86.3544C86.0024 61.2324 85.7678 61.1151 85.6504 60.8804C85.5331 60.6458 85.5478 60.3964 85.6944 60.1324L98.4984 37.0324H84.4624C84.1104 37.0324 83.8611 36.9738 83.7144 36.8564C83.5971 36.7098 83.5384 36.4311 83.5384 36.0204V32.6324C83.5384 32.1924 83.5971 31.9138 83.7144 31.7964C83.8318 31.6498 84.0811 31.5764 84.4624 31.5764H103.866ZM136.573 46.4044C136.573 48.6924 136.309 50.7751 135.781 52.6524C135.282 54.5298 134.505 56.1431 133.449 57.4924C132.393 58.8418 131.073 59.8831 129.489 60.6164C127.905 61.3498 126.057 61.7164 123.945 61.7164C121.833 61.7164 119.985 61.3644 118.401 60.6604C116.846 59.9271 115.541 58.9004 114.485 57.5804C113.458 56.2311 112.681 54.6178 112.153 52.7404C111.654 50.8631 111.405 48.7804 111.405 46.4924C111.405 44.1751 111.669 42.0778 112.197 40.2004C112.725 38.3231 113.517 36.7098 114.573 35.3604C115.629 34.0111 116.934 32.9698 118.489 32.2364C120.073 31.5031 121.921 31.1364 124.033 31.1364C126.174 31.1364 128.022 31.5031 129.577 32.2364C131.161 32.9404 132.466 33.9671 133.493 35.3164C134.549 36.6364 135.326 38.2351 135.825 40.1124C136.323 41.9898 136.573 44.0871 136.573 46.4044ZM130.017 46.4924C130.017 45.0551 129.899 43.7351 129.665 42.5324C129.459 41.3004 129.107 40.2444 128.609 39.3644C128.139 38.4844 127.523 37.7951 126.761 37.2964C125.998 36.7978 125.059 36.5484 123.945 36.5484C122.83 36.5484 121.891 36.7978 121.129 37.2964C120.395 37.7658 119.794 38.4404 119.325 39.3204C118.855 40.2004 118.518 41.2418 118.313 42.4444C118.107 43.6471 118.005 44.9671 118.005 46.4044C118.005 47.8124 118.107 49.1178 118.313 50.3204C118.518 51.5231 118.855 52.5791 119.325 53.4884C119.794 54.3684 120.41 55.0578 121.173 55.5564C121.965 56.0551 122.918 56.3044 124.033 56.3044C125.147 56.3044 126.086 56.0551 126.849 55.5564C127.611 55.0578 128.227 54.3684 128.697 53.4884C129.166 52.6084 129.503 51.5818 129.709 50.4084C129.914 49.2058 130.017 47.9004 130.017 46.4924ZM157.575 41.6084L167.827 60.1324C168.032 60.4551 168.091 60.7191 168.003 60.9244C167.915 61.1298 167.709 61.2324 167.387 61.2324H162.283C161.667 61.2324 161.212 61.2031 160.919 61.1444C160.655 61.0564 160.376 60.7484 160.083 60.2204L152.999 47.0644L148.335 52.6524V60.3084C148.335 60.7191 148.276 60.9831 148.159 61.1004C148.041 61.1884 147.763 61.2324 147.323 61.2324H142.703C142.351 61.2324 142.087 61.1738 141.911 61.0564C141.764 60.9098 141.691 60.6604 141.691 60.3084V31.3564C141.691 31.0044 141.764 30.7698 141.911 30.6524C142.087 30.5058 142.351 30.4324 142.703 30.4324H147.323C147.763 30.4324 148.041 30.4911 148.159 30.6084C148.276 30.6964 148.335 30.9458 148.335 31.3564V43.1484L148.511 43.2364L152.647 38.0004L158.147 31.1364C158.411 30.8431 158.675 30.6524 158.939 30.5644C159.203 30.4764 159.628 30.4324 160.215 30.4324H165.891C166.155 30.4324 166.331 30.5204 166.419 30.6964C166.536 30.8431 166.492 31.0338 166.287 31.2684L157.575 41.6084Z" fill="white"/>
<path d="M177.25 48.2324C177.25 42.7096 181.727 38.2324 187.25 38.2324H221.25C226.773 38.2324 231.25 42.7096 231.25 48.2324V52.2324C231.25 57.7553 226.773 62.2324 221.25 62.2324H177.25V48.2324Z" fill="white"/>
<path d="M192.989 53.9524C192.989 54.0551 192.97 54.1298 192.933 54.1764C192.905 54.2138 192.84 54.2324 192.737 54.2324H187.613C187.51 54.2324 187.44 54.2138 187.403 54.1764C187.375 54.1298 187.361 54.0551 187.361 53.9524V52.8464C187.361 52.7158 187.375 52.6364 187.403 52.6084C187.44 52.5804 187.51 52.5664 187.613 52.5664H189.097V46.6864L187.613 46.9384C187.501 46.9571 187.426 46.9524 187.389 46.9244C187.352 46.8871 187.333 46.8171 187.333 46.7144V45.6924C187.333 45.6084 187.342 45.5384 187.361 45.4824C187.389 45.4264 187.464 45.3798 187.585 45.3424L189.909 44.7124C190.068 44.6658 190.222 44.6424 190.371 44.6424C190.52 44.6331 190.651 44.6564 190.763 44.7124C190.875 44.7591 190.964 44.8384 191.029 44.9504C191.094 45.0624 191.127 45.2071 191.127 45.3844V52.5664H192.737C192.84 52.5664 192.905 52.5804 192.933 52.6084C192.97 52.6364 192.989 52.7158 192.989 52.8464V53.9524ZM202.92 51.0404C202.92 51.5911 202.817 52.0764 202.612 52.4964C202.416 52.9164 202.14 53.2664 201.786 53.5464C201.44 53.8264 201.03 54.0411 200.554 54.1904C200.078 54.3304 199.569 54.4004 199.028 54.4004C198.421 54.4004 197.814 54.3398 197.208 54.2184C196.61 54.0878 196.046 53.8078 195.514 53.3784C195.383 53.2758 195.355 53.1638 195.43 53.0424C195.467 52.9864 195.518 52.9071 195.584 52.8044C195.649 52.7018 195.714 52.5944 195.78 52.4824C195.854 52.3704 195.924 52.2678 195.99 52.1744C196.055 52.0718 196.106 51.9924 196.144 51.9364C196.209 51.8431 196.274 51.8011 196.34 51.8104C196.414 51.8104 196.508 51.8478 196.62 51.9224C196.965 52.1651 197.334 52.3378 197.726 52.4404C198.127 52.5431 198.505 52.5944 198.86 52.5944C199.494 52.5944 199.98 52.4638 200.316 52.2024C200.661 51.9318 200.834 51.5631 200.834 51.0964C200.834 50.6578 200.689 50.3264 200.4 50.1024C200.11 49.8784 199.756 49.7664 199.336 49.7664C199.13 49.7664 198.948 49.7804 198.79 49.8084C198.631 49.8364 198.477 49.8738 198.328 49.9204C198.188 49.9578 198.048 50.0091 197.908 50.0744C197.768 50.1304 197.623 50.1911 197.474 50.2564C197.362 50.3031 197.231 50.3358 197.082 50.3544C196.932 50.3638 196.792 50.3451 196.662 50.2984L196.172 50.1584C195.957 50.0838 195.812 49.9858 195.738 49.8644C195.672 49.7338 195.649 49.5611 195.668 49.3464L196.032 45.8464C196.069 45.4824 196.176 45.2211 196.354 45.0624C196.531 44.8944 196.769 44.8104 197.068 44.8104H201.954C202.075 44.8104 202.154 44.8244 202.192 44.8524C202.238 44.8804 202.262 44.9691 202.262 45.1184V46.2244C202.262 46.3458 202.238 46.4298 202.192 46.4764C202.145 46.5138 202.066 46.5324 201.954 46.5324H197.866L197.656 48.3524C197.964 48.2498 198.276 48.1844 198.594 48.1564C198.911 48.1191 199.21 48.1004 199.49 48.1004C199.984 48.1004 200.442 48.1704 200.862 48.3104C201.282 48.4411 201.641 48.6324 201.94 48.8844C202.248 49.1364 202.486 49.4444 202.654 49.8084C202.831 50.1724 202.92 50.5831 202.92 51.0404ZM209.168 52.4684C209.345 52.4684 209.569 52.4591 209.84 52.4404C210.111 52.4124 210.372 52.3518 210.624 52.2584L210.638 50.1864C210.311 50.1678 209.985 50.1864 209.658 50.2424C209.331 50.2984 209.014 50.3918 208.706 50.5224C208.575 50.5691 208.482 50.5924 208.426 50.5924C208.379 50.5924 208.333 50.5411 208.286 50.4384L207.922 49.3044C207.894 49.2298 207.885 49.1644 207.894 49.1084C207.903 49.0524 207.959 49.0011 208.062 48.9544C208.389 48.7958 208.771 48.6651 209.21 48.5624C209.658 48.4504 210.106 48.3944 210.554 48.3944C210.797 48.3944 211.021 48.4038 211.226 48.4224C211.431 48.4318 211.613 48.4551 211.772 48.4924C211.977 48.5391 212.141 48.6091 212.262 48.7024C212.383 48.7864 212.477 48.8984 212.542 49.0384C212.607 49.1691 212.649 49.3231 212.668 49.5004C212.687 49.6684 212.696 49.8551 212.696 50.0604V53.0004C212.696 53.1311 212.677 53.2524 212.64 53.3644C212.603 53.4671 212.509 53.5651 212.36 53.6584C212.08 53.8264 211.777 53.9571 211.45 54.0504C211.123 54.1438 210.801 54.2138 210.484 54.2604C210.176 54.3164 209.887 54.3491 209.616 54.3584C209.345 54.3771 209.131 54.3864 208.972 54.3864C208.207 54.3864 207.544 54.2744 206.984 54.0504C206.433 53.8171 205.976 53.4858 205.612 53.0564C205.257 52.6178 204.991 52.0904 204.814 51.4744C204.646 50.8584 204.562 50.1584 204.562 49.3744C204.562 48.6091 204.66 47.9138 204.856 47.2884C205.052 46.6631 205.341 46.1311 205.724 45.6924C206.116 45.2444 206.592 44.8991 207.152 44.6564C207.721 44.4138 208.37 44.2924 209.098 44.2924C209.583 44.2924 210.064 44.3344 210.54 44.4184C211.016 44.4931 211.473 44.6518 211.912 44.8944C212.015 44.9504 212.075 45.0064 212.094 45.0624C212.113 45.1184 212.085 45.2258 212.01 45.3844L211.576 46.3784C211.529 46.5091 211.478 46.5884 211.422 46.6164C211.375 46.6444 211.287 46.6351 211.156 46.5884C210.82 46.4671 210.493 46.3784 210.176 46.3224C209.868 46.2664 209.537 46.2384 209.182 46.2384C208.771 46.2384 208.417 46.3178 208.118 46.4764C207.819 46.6351 207.572 46.8544 207.376 47.1344C207.18 47.4144 207.035 47.7458 206.942 48.1284C206.849 48.5111 206.802 48.9311 206.802 49.3884C206.802 49.8551 206.839 50.2798 206.914 50.6624C206.989 51.0358 207.115 51.3578 207.292 51.6284C207.479 51.8898 207.721 52.0951 208.02 52.2444C208.328 52.3938 208.711 52.4684 209.168 52.4684ZM220.737 48.8704C220.999 48.9731 221.223 49.1131 221.409 49.2904C221.605 49.4584 221.764 49.6498 221.885 49.8644C222.007 50.0698 222.095 50.2938 222.151 50.5364C222.207 50.7791 222.235 51.0171 222.235 51.2504C222.235 51.6984 222.147 52.1044 221.969 52.4684C221.801 52.8324 221.563 53.1451 221.255 53.4064C220.957 53.6678 220.602 53.8731 220.191 54.0224C219.79 54.1624 219.356 54.2324 218.889 54.2324H215.375C215.039 54.2324 214.815 54.1671 214.703 54.0364C214.591 53.8964 214.535 53.6771 214.535 53.3784V45.2864C214.535 44.9878 214.591 44.7684 214.703 44.6284C214.815 44.4884 215.039 44.4184 215.375 44.4184H218.805C219.225 44.4184 219.617 44.4651 219.981 44.5584C220.355 44.6518 220.677 44.8011 220.947 45.0064C221.218 45.2024 221.428 45.4591 221.577 45.7764C221.736 46.0844 221.815 46.4578 221.815 46.8964C221.815 47.2884 221.713 47.6571 221.507 48.0024C221.311 48.3384 221.055 48.5951 220.737 48.7724V48.8704ZM220.037 51.1104C220.037 50.7371 219.921 50.4338 219.687 50.2004C219.463 49.9671 219.127 49.8504 218.679 49.8504H216.663V52.3564H218.679C218.941 52.3564 219.16 52.3191 219.337 52.2444C219.515 52.1604 219.655 52.0578 219.757 51.9364C219.86 51.8151 219.93 51.6798 219.967 51.5304C220.014 51.3811 220.037 51.2411 220.037 51.1104ZM216.663 48.1424H218.567C218.679 48.1424 218.796 48.1284 218.917 48.1004C219.048 48.0724 219.165 48.0258 219.267 47.9604C219.37 47.8858 219.454 47.7878 219.519 47.6664C219.585 47.5358 219.617 47.3724 219.617 47.1764C219.617 46.8964 219.529 46.6771 219.351 46.5184C219.174 46.3598 218.936 46.2804 218.637 46.2804H216.663V48.1424Z" fill="#D92F3B"/>
</g>
<defs>
<clipPath id="clip0">
<rect width="264" height="95.7884" fill="white"/>
</clipPath>
</defs>
</svg>
