<svg width="265" height="96" viewBox="0 0 265 96" fill="none" xmlns="http://www.w3.org/2000/svg">
<g clip-path="url(#clip0)">
<path d="M0.53125 8.00001C0.53125 3.58173 4.11297 0 8.53125 0H256.531C260.95 0 264.531 3.58172 264.531 8V95.7884H0.53125V8.00001Z" fill="#D92F3B"/>
<path d="M169.267 -16.7281C175.708 -16.7281 181.904 -14.7667 187.217 -11.071C192.653 -7.29276 196.715 -1.98666 198.951 4.28982L206.829 26.3195C209.68 34.3096 209.27 42.9191 205.68 50.5995C202.09 58.28 195.751 64.0816 187.812 66.9514L139.377 84.4801C131.377 87.3706 124.217 91.6238 118.124 97.1157C113.242 101.493 109.037 106.675 105.59 112.518C101.139 120.095 99.1487 126.826 98.4512 129.654L78.183 72.8562L73.2595 59.0852L70.3054 50.8266C67.4539 42.8365 67.8642 34.227 71.4543 26.5466C75.0443 18.8661 81.3832 13.0645 89.3223 10.1947L158.579 -14.87C162.046 -16.0881 165.636 -16.7281 169.267 -16.7281ZM169.267 -17.1411C165.677 -17.1411 162.025 -16.5217 158.456 -15.2416L89.1992 9.82304C72.5825 15.8311 63.9665 34.2476 69.9362 50.9712L72.8903 59.2297L77.8137 73.0008L98.5538 131.079C98.5538 131.079 104.647 97.446 139.521 84.8311L187.955 67.3024C204.572 61.2943 213.188 42.8778 207.218 26.1543L199.341 4.12466C194.643 -8.96511 182.355 -17.1411 169.267 -17.1411Z" fill="white"/>
<rect x="57.9648" y="28.2324" width="164.244" height="40.332" fill="#D92F3B"/>
<path d="M45.2573 53.8844H45.5653L47.6333 46.1844L52.3413 31.0484C52.4293 30.7551 52.5613 30.5791 52.7373 30.5204C52.9426 30.4324 53.2066 30.3884 53.5293 30.3884H58.8973C59.1906 30.3884 59.3519 30.4764 59.3813 30.6524C59.4399 30.8284 59.4399 30.9898 59.3813 31.1364L49.9213 58.9004C49.7453 59.4284 49.5546 59.8391 49.3493 60.1324C49.1733 60.4258 48.9533 60.6604 48.6893 60.8364C48.4546 60.9831 48.1759 61.0858 47.8533 61.1444C47.5306 61.2031 47.1639 61.2324 46.7533 61.2324H44.0253C43.5853 61.2324 43.2039 61.2031 42.8813 61.1444C42.5586 61.0858 42.2653 60.9684 42.0013 60.7924C41.7666 60.6164 41.5466 60.3818 41.3413 60.0884C41.1359 59.7658 40.9453 59.3551 40.7693 58.8564L31.3973 31.1364C31.3386 30.9311 31.3386 30.7551 31.3973 30.6084C31.4853 30.4618 31.6613 30.3884 31.9253 30.3884H37.2053C37.6159 30.3884 37.8946 30.4618 38.0413 30.6084C38.1879 30.7258 38.3053 30.9164 38.3933 31.1804L43.0133 46.0964L45.2573 53.8844ZM86.004 51.2004C86.004 52.9311 85.6813 54.4564 85.036 55.7764C84.42 57.0964 83.5547 58.1964 82.44 59.0764C81.3547 59.9564 80.064 60.6311 78.568 61.1004C77.072 61.5404 75.4733 61.7604 73.772 61.7604C71.8653 61.7604 69.9587 61.5698 68.052 61.1884C66.1747 60.7778 64.4 59.8978 62.728 58.5484C62.3173 58.2258 62.2293 57.8738 62.464 57.4924C62.5813 57.3164 62.7427 57.0671 62.948 56.7444C63.1533 56.4218 63.3587 56.0844 63.564 55.7324C63.7987 55.3804 64.0187 55.0578 64.224 54.7644C64.4293 54.4418 64.5907 54.1924 64.708 54.0164C64.9133 53.7231 65.1187 53.5911 65.324 53.6204C65.5587 53.6204 65.852 53.7378 66.204 53.9724C67.2893 54.7351 68.448 55.2778 69.68 55.6004C70.9413 55.9231 72.1293 56.0844 73.244 56.0844C75.2387 56.0844 76.764 55.6738 77.82 54.8524C78.9053 54.0018 79.448 52.8431 79.448 51.3764C79.448 49.9978 78.9933 48.9564 78.084 48.2524C77.1747 47.5484 76.06 47.1964 74.74 47.1964C74.0947 47.1964 73.5227 47.2404 73.024 47.3284C72.5253 47.4164 72.0413 47.5338 71.572 47.6804C71.132 47.7978 70.692 47.9591 70.252 48.1644C69.812 48.3404 69.3573 48.5311 68.888 48.7364C68.536 48.8831 68.1253 48.9858 67.656 49.0444C67.1867 49.0738 66.7467 49.0151 66.336 48.8684L64.796 48.4284C64.1213 48.1938 63.6667 47.8858 63.432 47.5044C63.2267 47.0938 63.1533 46.5511 63.212 45.8764L64.356 34.8764C64.4733 33.7324 64.8107 32.9111 65.368 32.4124C65.9253 31.8844 66.6733 31.6204 67.612 31.6204H82.968C83.3493 31.6204 83.5987 31.6644 83.716 31.7524C83.8627 31.8404 83.936 32.1191 83.936 32.5884V36.0644C83.936 36.4458 83.8627 36.7098 83.716 36.8564C83.5693 36.9738 83.32 37.0324 82.968 37.0324H70.12L69.46 42.7524C70.428 42.4298 71.4107 42.2244 72.408 42.1364C73.4053 42.0191 74.344 41.9604 75.224 41.9604C76.7787 41.9604 78.216 42.1804 79.536 42.6204C80.856 43.0311 81.9853 43.6324 82.924 44.4244C83.892 45.2164 84.64 46.1844 85.168 47.3284C85.7253 48.4724 86.004 49.7631 86.004 51.2004ZM115.674 46.4044C115.674 48.6924 115.41 50.7751 114.882 52.6524C114.383 54.5298 113.606 56.1431 112.55 57.4924C111.494 58.8418 110.174 59.8831 108.59 60.6164C107.006 61.3498 105.158 61.7164 103.046 61.7164C100.934 61.7164 99.0861 61.3644 97.5021 60.6604C95.9474 59.9271 94.6421 58.9004 93.5861 57.5804C92.5594 56.2311 91.7821 54.6178 91.2541 52.7404C90.7554 50.8631 90.5061 48.7804 90.5061 46.4924C90.5061 44.1751 90.7701 42.0778 91.2981 40.2004C91.8261 38.3231 92.6181 36.7098 93.6741 35.3604C94.7301 34.0111 96.0354 32.9698 97.5901 32.2364C99.1741 31.5031 101.022 31.1364 103.134 31.1364C105.275 31.1364 107.123 31.5031 108.678 32.2364C110.262 32.9404 111.567 33.9671 112.594 35.3164C113.65 36.6364 114.427 38.2351 114.926 40.1124C115.425 41.9898 115.674 44.0871 115.674 46.4044ZM109.118 46.4924C109.118 45.0551 109.001 43.7351 108.766 42.5324C108.561 41.3004 108.209 40.2444 107.71 39.3644C107.241 38.4844 106.625 37.7951 105.862 37.2964C105.099 36.7978 104.161 36.5484 103.046 36.5484C101.931 36.5484 100.993 36.7978 100.23 37.2964C99.4968 37.7658 98.8954 38.4404 98.4261 39.3204C97.9568 40.2004 97.6194 41.2418 97.4141 42.4444C97.2088 43.6471 97.1061 44.9671 97.1061 46.4044C97.1061 47.8124 97.2088 49.1178 97.4141 50.3204C97.6194 51.5231 97.9568 52.5791 98.4261 53.4884C98.8954 54.3684 99.5114 55.0578 100.274 55.5564C101.066 56.0551 102.019 56.3044 103.134 56.3044C104.249 56.3044 105.187 56.0551 105.95 55.5564C106.713 55.0578 107.329 54.3684 107.798 53.4884C108.267 52.6084 108.605 51.5818 108.81 50.4084C109.015 49.2058 109.118 47.9004 109.118 46.4924ZM136.676 41.6084L146.928 60.1324C147.134 60.4551 147.192 60.7191 147.104 60.9244C147.016 61.1298 146.811 61.2324 146.488 61.2324H141.384C140.768 61.2324 140.314 61.2031 140.02 61.1444C139.756 61.0564 139.478 60.7484 139.184 60.2204L132.1 47.0644L127.436 52.6524V60.3084C127.436 60.7191 127.378 60.9831 127.26 61.1004C127.143 61.1884 126.864 61.2324 126.424 61.2324H121.804C121.452 61.2324 121.188 61.1738 121.012 61.0564C120.866 60.9098 120.792 60.6604 120.792 60.3084V31.3564C120.792 31.0044 120.866 30.7698 121.012 30.6524C121.188 30.5058 121.452 30.4324 121.804 30.4324H126.424C126.864 30.4324 127.143 30.4911 127.26 30.6084C127.378 30.6964 127.436 30.9458 127.436 31.3564V43.1484L127.612 43.2364L131.748 38.0004L137.248 31.1364C137.512 30.8431 137.776 30.6524 138.04 30.5644C138.304 30.4764 138.73 30.4324 139.316 30.4324H144.992C145.256 30.4324 145.432 30.5204 145.52 30.6964C145.638 30.8431 145.594 31.0338 145.388 31.2684L136.676 41.6084Z" fill="white"/>
<path d="M155.781 48.2324C155.781 42.7096 160.258 38.2324 165.781 38.2324H220.781C226.304 38.2324 230.781 42.7096 230.781 48.2324V52.2324C230.781 57.7553 226.304 62.2324 220.781 62.2324H155.781V48.2324Z" fill="white"/>
<path d="M171.448 44.7964C171.933 44.7964 172.176 45.0064 172.176 45.4264V45.8604C172.176 46.1498 172.101 46.4438 171.952 46.7424L167.99 53.9244C167.915 54.0458 167.84 54.1298 167.766 54.1764C167.691 54.2138 167.574 54.2324 167.416 54.2324H165.876C165.764 54.2324 165.689 54.1951 165.652 54.1204C165.614 54.0458 165.619 53.9664 165.666 53.8824L169.74 46.5324H165.274C165.162 46.5324 165.082 46.5138 165.036 46.4764C164.998 46.4298 164.98 46.3411 164.98 46.2104V45.1324C164.98 44.9924 164.998 44.9038 165.036 44.8664C165.073 44.8198 165.152 44.7964 165.274 44.7964H171.448ZM180.776 53.9524C180.776 54.0551 180.757 54.1298 180.72 54.1764C180.692 54.2138 180.627 54.2324 180.524 54.2324H175.4C175.297 54.2324 175.227 54.2138 175.19 54.1764C175.162 54.1298 175.148 54.0551 175.148 53.9524V52.8464C175.148 52.7158 175.162 52.6364 175.19 52.6084C175.227 52.5804 175.297 52.5664 175.4 52.5664H176.884V46.6864L175.4 46.9384C175.288 46.9571 175.213 46.9524 175.176 46.9244C175.139 46.8871 175.12 46.8171 175.12 46.7144V45.6924C175.12 45.6084 175.129 45.5384 175.148 45.4824C175.176 45.4264 175.251 45.3798 175.372 45.3424L177.696 44.7124C177.855 44.6658 178.009 44.6424 178.158 44.6424C178.307 44.6331 178.438 44.6564 178.55 44.7124C178.662 44.7591 178.751 44.8384 178.816 44.9504C178.881 45.0624 178.914 45.2071 178.914 45.3844V52.5664H180.524C180.627 52.5664 180.692 52.5804 180.72 52.6084C180.757 52.6364 180.776 52.7158 180.776 52.8464V53.9524ZM190.973 51.1104C190.973 51.6704 190.865 52.1558 190.651 52.5664C190.445 52.9771 190.165 53.3178 189.811 53.5884C189.465 53.8591 189.064 54.0598 188.607 54.1904C188.159 54.3211 187.692 54.3864 187.207 54.3864C186.516 54.3864 185.914 54.2838 185.401 54.0784C184.897 53.8731 184.477 53.5791 184.141 53.1964C183.805 52.8044 183.553 52.3378 183.385 51.7964C183.217 51.2458 183.133 50.6344 183.133 49.9624C183.133 49.2064 183.226 48.5064 183.413 47.8624C183.599 47.2091 183.884 46.6444 184.267 46.1684C184.659 45.6831 185.149 45.3051 185.737 45.0344C186.325 44.7638 187.025 44.6284 187.837 44.6284C188.145 44.6284 188.481 44.6518 188.845 44.6984C189.209 44.7358 189.535 44.8058 189.825 44.9084C189.89 44.9271 189.941 44.9598 189.979 45.0064C190.016 45.0438 190.011 45.1371 189.965 45.2864L189.657 46.3924C189.619 46.5044 189.568 46.5651 189.503 46.5744C189.437 46.5744 189.367 46.5651 189.293 46.5464C189.087 46.4904 188.863 46.4484 188.621 46.4204C188.387 46.3831 188.154 46.3644 187.921 46.3644C187.221 46.3644 186.651 46.5418 186.213 46.8964C185.774 47.2418 185.485 47.7458 185.345 48.4084C185.475 48.3711 185.625 48.3384 185.793 48.3104C185.97 48.2731 186.147 48.2404 186.325 48.2124C186.511 48.1844 186.693 48.1658 186.871 48.1564C187.057 48.1378 187.225 48.1284 187.375 48.1284C187.869 48.1284 188.336 48.1844 188.775 48.2964C189.213 48.4084 189.596 48.5858 189.923 48.8284C190.249 49.0711 190.506 49.3791 190.693 49.7524C190.879 50.1258 190.973 50.5784 190.973 51.1104ZM188.887 51.1804C188.887 50.7418 188.751 50.4011 188.481 50.1584C188.219 49.9064 187.823 49.7804 187.291 49.7804C186.927 49.7804 186.586 49.8084 186.269 49.8644C185.961 49.9111 185.615 49.9858 185.233 50.0884V50.4104C185.233 51.1011 185.41 51.6471 185.765 52.0484C186.119 52.4498 186.6 52.6504 187.207 52.6504C187.692 52.6504 188.093 52.5291 188.411 52.2864C188.728 52.0344 188.887 51.6658 188.887 51.1804ZM198.299 49.1784C198.579 49.2718 198.812 49.4024 198.999 49.5704C199.195 49.7291 199.354 49.9111 199.475 50.1164C199.606 50.3218 199.699 50.5364 199.755 50.7604C199.811 50.9844 199.839 51.1991 199.839 51.4044C199.839 51.8338 199.755 52.2304 199.587 52.5944C199.419 52.9584 199.172 53.2758 198.845 53.5464C198.528 53.8078 198.136 54.0131 197.669 54.1624C197.202 54.3118 196.67 54.3864 196.073 54.3864C195.485 54.3864 194.958 54.3164 194.491 54.1764C194.034 54.0364 193.642 53.8404 193.315 53.5884C192.998 53.3364 192.755 53.0331 192.587 52.6784C192.419 52.3238 192.335 51.9271 192.335 51.4884C192.335 51.2364 192.372 50.9938 192.447 50.7604C192.522 50.5178 192.629 50.2938 192.769 50.0884C192.909 49.8831 193.072 49.7011 193.259 49.5424C193.446 49.3838 193.651 49.2624 193.875 49.1784V49.1364C193.651 49.0524 193.464 48.9404 193.315 48.8004C193.166 48.6604 193.044 48.5111 192.951 48.3524C192.867 48.1844 192.802 48.0211 192.755 47.8624C192.718 47.6944 192.699 47.5404 192.699 47.4004C192.699 46.9524 192.792 46.5558 192.979 46.2104C193.166 45.8651 193.413 45.5758 193.721 45.3424C194.038 45.1091 194.402 44.9318 194.813 44.8104C195.224 44.6891 195.653 44.6284 196.101 44.6284C196.624 44.6284 197.09 44.6938 197.501 44.8244C197.921 44.9458 198.276 45.1231 198.565 45.3564C198.864 45.5804 199.088 45.8558 199.237 46.1824C199.396 46.5091 199.475 46.8684 199.475 47.2604C199.475 47.4004 199.452 47.5591 199.405 47.7364C199.368 47.9044 199.302 48.0771 199.209 48.2544C199.116 48.4224 198.994 48.5858 198.845 48.7444C198.696 48.9031 198.514 49.0384 198.299 49.1504V49.1784ZM197.739 51.3344C197.739 50.9051 197.58 50.5738 197.263 50.3404C196.955 50.0978 196.563 49.9764 196.087 49.9764C195.611 49.9764 195.214 50.1024 194.897 50.3544C194.589 50.6064 194.435 50.9424 194.435 51.3624C194.435 51.5211 194.463 51.6844 194.519 51.8524C194.575 52.0111 194.668 52.1558 194.799 52.2864C194.93 52.4078 195.098 52.5104 195.303 52.5944C195.508 52.6691 195.765 52.7064 196.073 52.7064C196.39 52.7064 196.652 52.6644 196.857 52.5804C197.072 52.4964 197.244 52.3891 197.375 52.2584C197.506 52.1278 197.599 51.9831 197.655 51.8244C197.711 51.6564 197.739 51.4931 197.739 51.3344ZM197.445 47.4984C197.445 47.1904 197.333 46.9244 197.109 46.7004C196.894 46.4764 196.549 46.3644 196.073 46.3644C195.597 46.3644 195.252 46.4858 195.037 46.7284C194.832 46.9618 194.729 47.2324 194.729 47.5404C194.729 47.8204 194.85 48.0631 195.093 48.2684C195.345 48.4644 195.667 48.5624 196.059 48.5624C196.47 48.5624 196.801 48.4551 197.053 48.2404C197.314 48.0258 197.445 47.7784 197.445 47.4984ZM209.84 48.5904H209.756L209.182 49.8924L208.02 52.4684C207.917 52.7111 207.81 52.8744 207.698 52.9584C207.595 53.0424 207.436 53.0844 207.222 53.0844H206.452C206.218 53.0844 206.055 53.0424 205.962 52.9584C205.878 52.8744 205.78 52.7111 205.668 52.4684L204.8 50.6484L203.932 48.7584H203.848V53.9524C203.848 54.0831 203.824 54.1624 203.778 54.1904C203.731 54.2184 203.647 54.2324 203.526 54.2324H202.098C201.995 54.2324 201.916 54.2184 201.86 54.1904C201.804 54.1624 201.776 54.0831 201.776 53.9524V45.3984C201.776 45.0438 201.841 44.7918 201.972 44.6424C202.112 44.4931 202.345 44.4184 202.672 44.4184H203.484C203.745 44.4184 203.936 44.4698 204.058 44.5724C204.188 44.6658 204.31 44.8338 204.422 45.0764L205.948 48.4924L206.816 50.4804H206.872L207.824 48.2964L209.252 45.1044C209.364 44.8524 209.485 44.6751 209.616 44.5724C209.756 44.4698 209.975 44.4184 210.274 44.4184H210.96C211.258 44.4184 211.482 44.4838 211.632 44.6144C211.781 44.7358 211.856 44.9738 211.856 45.3284V53.9524C211.856 54.0831 211.832 54.1624 211.786 54.1904C211.739 54.2184 211.655 54.2324 211.534 54.2324H210.148C210.045 54.2324 209.966 54.2184 209.91 54.1904C209.863 54.1624 209.84 54.0831 209.84 53.9524V48.5904ZM220.159 48.8704C220.421 48.9731 220.645 49.1131 220.831 49.2904C221.027 49.4584 221.186 49.6498 221.307 49.8644C221.429 50.0698 221.517 50.2938 221.573 50.5364C221.629 50.7791 221.657 51.0171 221.657 51.2504C221.657 51.6984 221.569 52.1044 221.391 52.4684C221.223 52.8324 220.985 53.1451 220.677 53.4064C220.379 53.6678 220.024 53.8731 219.613 54.0224C219.212 54.1624 218.778 54.2324 218.311 54.2324H214.797C214.461 54.2324 214.237 54.1671 214.125 54.0364C214.013 53.8964 213.957 53.6771 213.957 53.3784V45.2864C213.957 44.9878 214.013 44.7684 214.125 44.6284C214.237 44.4884 214.461 44.4184 214.797 44.4184H218.227C218.647 44.4184 219.039 44.4651 219.403 44.5584C219.777 44.6518 220.099 44.8011 220.369 45.0064C220.64 45.2024 220.85 45.4591 220.999 45.7764C221.158 46.0844 221.237 46.4578 221.237 46.8964C221.237 47.2884 221.135 47.6571 220.929 48.0024C220.733 48.3384 220.477 48.5951 220.159 48.7724V48.8704ZM219.459 51.1104C219.459 50.7371 219.343 50.4338 219.109 50.2004C218.885 49.9671 218.549 49.8504 218.101 49.8504H216.085V52.3564H218.101C218.363 52.3564 218.582 52.3191 218.759 52.2444C218.937 52.1604 219.077 52.0578 219.179 51.9364C219.282 51.8151 219.352 51.6798 219.389 51.5304C219.436 51.3811 219.459 51.2411 219.459 51.1104ZM216.085 48.1424H217.989C218.101 48.1424 218.218 48.1284 218.339 48.1004C218.47 48.0724 218.587 48.0258 218.689 47.9604C218.792 47.8858 218.876 47.7878 218.941 47.6664C219.007 47.5358 219.039 47.3724 219.039 47.1764C219.039 46.8964 218.951 46.6771 218.773 46.5184C218.596 46.3598 218.358 46.2804 218.059 46.2804H216.085V48.1424Z" fill="#D92F3B"/>
</g>
<defs>
<clipPath id="clip0">
<rect width="264" height="95.7884" fill="white" transform="translate(0.53125)"/>
</clipPath>
</defs>
</svg>
