<svg width="264" height="96" viewBox="0 0 264 96" fill="none" xmlns="http://www.w3.org/2000/svg">
<g clip-path="url(#clip0)">
<path d="M0 8.00001C0 3.58173 3.58172 0 8 0H256C260.418 0 264 3.58172 264 8V95.7884H0V8.00001Z" fill="#D92F3B"/>
<path d="M168.736 -16.7281C175.177 -16.7281 181.372 -14.7667 186.686 -11.071C192.122 -7.29276 196.184 -1.98666 198.42 4.28982L206.297 26.3195C209.149 34.3096 208.739 42.9191 205.149 50.5995C201.559 58.28 195.22 64.0816 187.281 66.9514L138.846 84.4801C130.846 87.3706 123.686 91.6238 117.593 97.1157C112.711 101.493 108.505 106.675 105.059 112.518C100.607 120.095 98.6174 126.826 97.9199 129.654L77.6517 72.8562L72.7283 59.0852L69.7742 50.8266C66.9227 42.8365 67.333 34.227 70.923 26.5466C74.513 18.8661 80.852 13.0645 88.791 10.1947L158.048 -14.87C161.515 -16.0881 165.105 -16.7281 168.736 -16.7281ZM168.736 -17.1411C165.146 -17.1411 161.494 -16.5217 157.924 -15.2416L88.6679 9.82304C72.0513 15.8311 63.4353 34.2476 69.4049 50.9712L72.359 59.2297L77.2825 73.0008L98.0225 131.079C98.0225 131.079 104.115 97.446 138.99 84.8311L187.424 67.3024C204.041 61.2943 212.657 42.8778 206.687 26.1543L198.81 4.12466C194.112 -8.96511 181.824 -17.1411 168.736 -17.1411Z" fill="white"/>
<rect x="57.4336" y="28.2324" width="164.244" height="40.332" fill="#D92F3B"/>
<path d="M32.978 38.8364C32.978 37.6044 33.1833 36.4458 33.594 35.3604C34.034 34.2751 34.6793 33.3364 35.53 32.5444C36.3807 31.7231 37.466 31.0778 38.786 30.6084C40.106 30.1391 41.6607 29.9044 43.45 29.9044C44.2713 29.9044 45.122 29.9484 46.002 30.0364C46.9113 30.1244 47.7913 30.2564 48.642 30.4324C49.522 30.6084 50.358 30.8284 51.15 31.0924C51.942 31.3271 52.6607 31.6058 53.306 31.9284C53.658 32.1044 53.8487 32.2804 53.878 32.4564C53.9367 32.6031 53.8927 32.8964 53.746 33.3364L52.602 36.6364C52.4553 37.0471 52.3087 37.2818 52.162 37.3404C52.0153 37.3991 51.766 37.3844 51.414 37.2964C50.0353 36.8858 48.6567 36.5484 47.278 36.2844C45.9287 36.0204 44.6527 35.8884 43.45 35.8884C42.1593 35.8884 41.25 36.1231 40.722 36.5924C40.194 37.0618 39.93 37.6338 39.93 38.3084C39.93 38.6898 40.018 39.0418 40.194 39.3644C40.37 39.6871 40.6487 40.0098 41.03 40.3324C41.4407 40.6258 41.9687 40.9338 42.614 41.2564C43.2887 41.5791 44.11 41.9311 45.078 42.3124C46.574 42.8991 47.9527 43.5004 49.214 44.1164C50.4753 44.7031 51.546 45.3778 52.426 46.1404C53.3353 46.9031 54.0393 47.7978 54.538 48.8244C55.066 49.8511 55.33 51.0831 55.33 52.5204C55.33 54.0751 55.0513 55.4244 54.494 56.5684C53.9367 57.7124 53.1593 58.6658 52.162 59.4284C51.1647 60.1911 49.9473 60.7631 48.51 61.1444C47.102 61.5258 45.5473 61.7164 43.846 61.7164C42.9073 61.7164 41.9247 61.6578 40.898 61.5404C39.8713 61.4524 38.8447 61.3058 37.818 61.1004C36.8207 60.8658 35.838 60.5724 34.87 60.2204C33.902 59.8684 33.0073 59.4431 32.186 58.9444C31.9513 58.7978 31.8047 58.6364 31.746 58.4604C31.7167 58.2844 31.7753 58.0058 31.922 57.6244L33.418 54.1044C33.5647 53.7524 33.726 53.5471 33.902 53.4884C34.078 53.4298 34.3273 53.4738 34.65 53.6204C35.2367 53.8551 35.882 54.1044 36.586 54.3684C37.29 54.6031 38.0087 54.8231 38.742 55.0284C39.5047 55.2044 40.2673 55.3658 41.03 55.5124C41.822 55.6298 42.5993 55.6884 43.362 55.6884C44.2713 55.6884 45.034 55.6004 45.65 55.4244C46.266 55.2484 46.7647 55.0284 47.146 54.7644C47.5273 54.4711 47.7913 54.1484 47.938 53.7964C48.0847 53.4151 48.158 53.0191 48.158 52.6084C48.158 52.1684 48.07 51.7724 47.894 51.4204C47.7473 51.0684 47.4833 50.7311 47.102 50.4084C46.75 50.0564 46.2513 49.7338 45.606 49.4404C44.99 49.1178 44.2127 48.7804 43.274 48.4284C41.7193 47.8418 40.3113 47.2404 39.05 46.6244C37.7887 46.0084 36.7033 45.3338 35.794 44.6004C34.8847 43.8378 34.1807 43.0018 33.682 42.0924C33.2127 41.1538 32.978 40.0684 32.978 38.8364ZM81.4048 35.2724C81.4048 35.8591 81.1115 36.1524 80.5248 36.1524H72.5608V60.3084C72.5608 60.6898 72.4875 60.9391 72.3408 61.0564C72.2235 61.1738 71.9448 61.2324 71.5048 61.2324H66.7968C66.4448 61.2324 66.1808 61.1738 66.0048 61.0564C65.8581 60.9098 65.7848 60.6604 65.7848 60.3084V36.1524H57.9968C57.4395 36.1524 57.1608 35.8591 57.1608 35.2724V31.3564C57.1608 30.9751 57.2195 30.7258 57.3368 30.6084C57.4541 30.4911 57.6741 30.4324 57.9968 30.4324H80.5248C80.8768 30.4324 81.1115 30.4911 81.2288 30.6084C81.3461 30.7258 81.4048 30.9751 81.4048 31.3564V35.2724ZM105.438 60.3524C105.438 60.6751 105.38 60.9098 105.262 61.0564C105.174 61.1738 104.969 61.2324 104.646 61.2324H88.5424C88.2198 61.2324 87.9998 61.1738 87.8824 61.0564C87.7944 60.9098 87.7504 60.6751 87.7504 60.3524V56.8764C87.7504 56.4658 87.7944 56.2164 87.8824 56.1284C87.9998 56.0404 88.2198 55.9964 88.5424 55.9964H93.2064V37.5164L88.5424 38.3084C88.1904 38.3671 87.9558 38.3524 87.8384 38.2644C87.7211 38.1471 87.6624 37.9271 87.6624 37.6044V34.3924C87.6624 34.1284 87.6918 33.9084 87.7504 33.7324C87.8384 33.5564 88.0731 33.4098 88.4544 33.2924L95.7584 31.3124C96.2571 31.1658 96.7411 31.0924 97.2104 31.0924C97.6798 31.0631 98.0904 31.1364 98.4424 31.3124C98.7944 31.4591 99.0731 31.7084 99.2784 32.0604C99.4838 32.4124 99.5864 32.8671 99.5864 33.4244V55.9964H104.646C104.969 55.9964 105.174 56.0404 105.262 56.1284C105.38 56.2164 105.438 56.4658 105.438 56.8764V60.3524ZM135.725 60.3524C135.725 60.6751 135.666 60.9098 135.549 61.0564C135.461 61.1738 135.255 61.2324 134.933 61.2324H117.729C116.438 61.2324 115.441 60.9684 114.737 60.4404C114.062 59.8831 113.725 58.7831 113.725 57.1404C113.725 56.0551 114.091 54.8818 114.825 53.6204C115.587 52.3591 116.614 51.1124 117.905 49.8804C119.107 48.7071 120.354 47.6658 121.645 46.7564C122.935 45.8471 124.065 45.0844 125.033 44.4684C125.883 43.9404 126.573 43.4711 127.101 43.0604C127.658 42.6204 128.083 42.2244 128.377 41.8724C128.699 41.4911 128.919 41.1244 129.037 40.7724C129.154 40.4204 129.213 40.0391 129.213 39.6284C129.213 39.2764 129.139 38.9244 128.993 38.5724C128.846 38.2204 128.611 37.9124 128.289 37.6484C127.966 37.3844 127.526 37.1644 126.969 36.9884C126.441 36.8124 125.766 36.7244 124.945 36.7244C123.83 36.7244 122.701 36.9151 121.557 37.2964C120.442 37.6484 119.283 38.2204 118.081 39.0124C117.846 39.1591 117.626 39.2324 117.421 39.2324C117.215 39.2324 117.025 39.1151 116.849 38.8804L114.825 35.8004C114.531 35.3311 114.59 34.9498 115.001 34.6564C118.139 32.3098 121.63 31.1364 125.473 31.1364C126.939 31.1364 128.303 31.3124 129.565 31.6644C130.826 31.9871 131.926 32.5004 132.865 33.2044C133.803 33.8791 134.537 34.7298 135.065 35.7564C135.593 36.7831 135.857 37.9858 135.857 39.3644C135.857 40.4498 135.681 41.4471 135.329 42.3564C134.977 43.2364 134.478 44.0578 133.833 44.8204C133.187 45.5538 132.425 46.2431 131.545 46.8884C130.694 47.5044 129.741 48.1204 128.685 48.7364C127.951 49.1471 127.203 49.6311 126.441 50.1884C125.678 50.7164 124.945 51.2884 124.241 51.9044C123.566 52.5204 122.935 53.1804 122.349 53.8844C121.791 54.5591 121.366 55.2631 121.073 55.9964H134.933C135.255 55.9964 135.461 56.0404 135.549 56.1284C135.666 56.2164 135.725 56.4658 135.725 56.8764V60.3524ZM166.319 46.4044C166.319 48.6924 166.055 50.7751 165.527 52.6524C165.028 54.5298 164.251 56.1431 163.195 57.4924C162.139 58.8418 160.819 59.8831 159.235 60.6164C157.651 61.3498 155.803 61.7164 153.691 61.7164C151.579 61.7164 149.731 61.3644 148.147 60.6604C146.592 59.9271 145.287 58.9004 144.231 57.5804C143.204 56.2311 142.427 54.6178 141.899 52.7404C141.4 50.8631 141.151 48.7804 141.151 46.4924C141.151 44.1751 141.415 42.0778 141.943 40.2004C142.471 38.3231 143.263 36.7098 144.319 35.3604C145.375 34.0111 146.68 32.9698 148.235 32.2364C149.819 31.5031 151.667 31.1364 153.779 31.1364C155.92 31.1364 157.768 31.5031 159.323 32.2364C160.907 32.9404 162.212 33.9671 163.239 35.3164C164.295 36.6364 165.072 38.2351 165.571 40.1124C166.069 41.9898 166.319 44.0871 166.319 46.4044ZM159.763 46.4924C159.763 45.0551 159.645 43.7351 159.411 42.5324C159.205 41.3004 158.853 40.2444 158.355 39.3644C157.885 38.4844 157.269 37.7951 156.507 37.2964C155.744 36.7978 154.805 36.5484 153.691 36.5484C152.576 36.5484 151.637 36.7978 150.875 37.2964C150.141 37.7658 149.54 38.4404 149.071 39.3204C148.601 40.2004 148.264 41.2418 148.059 42.4444C147.853 43.6471 147.751 44.9671 147.751 46.4044C147.751 47.8124 147.853 49.1178 148.059 50.3204C148.264 51.5231 148.601 52.5791 149.071 53.4884C149.54 54.3684 150.156 55.0578 150.919 55.5564C151.711 56.0551 152.664 56.3044 153.779 56.3044C154.893 56.3044 155.832 56.0551 156.595 55.5564C157.357 55.0578 157.973 54.3684 158.443 53.4884C158.912 52.6084 159.249 51.5818 159.455 50.4084C159.66 49.2058 159.763 47.9004 159.763 46.4924Z" fill="white"/>
<path d="M176.25 48.2324C176.25 42.7096 180.727 38.2324 186.25 38.2324H220.25C225.773 38.2324 230.25 42.7096 230.25 48.2324V52.2324C230.25 57.7553 225.773 62.2324 220.25 62.2324H176.25V48.2324Z" fill="white"/>
<path d="M192.479 53.9524C192.479 54.0551 192.46 54.1298 192.423 54.1764C192.395 54.2138 192.33 54.2324 192.227 54.2324H186.753C186.342 54.2324 186.025 54.1484 185.801 53.9804C185.586 53.8031 185.479 53.4531 185.479 52.9304C185.479 52.5851 185.596 52.2118 185.829 51.8104C186.072 51.4091 186.398 51.0124 186.809 50.6204C187.192 50.2471 187.588 49.9158 187.999 49.6264C188.41 49.3371 188.769 49.0944 189.077 48.8984C189.348 48.7304 189.567 48.5811 189.735 48.4504C189.912 48.3104 190.048 48.1844 190.141 48.0724C190.244 47.9511 190.314 47.8344 190.351 47.7224C190.388 47.6104 190.407 47.4891 190.407 47.3584C190.407 47.2464 190.384 47.1344 190.337 47.0224C190.29 46.9104 190.216 46.8124 190.113 46.7284C190.01 46.6444 189.87 46.5744 189.693 46.5184C189.525 46.4624 189.31 46.4344 189.049 46.4344C188.694 46.4344 188.335 46.4951 187.971 46.6164C187.616 46.7284 187.248 46.9104 186.865 47.1624C186.79 47.2091 186.72 47.2324 186.655 47.2324C186.59 47.2324 186.529 47.1951 186.473 47.1204L185.829 46.1404C185.736 45.9911 185.754 45.8698 185.885 45.7764C186.884 45.0298 187.994 44.6564 189.217 44.6564C189.684 44.6564 190.118 44.7124 190.519 44.8244C190.92 44.9271 191.27 45.0904 191.569 45.3144C191.868 45.5291 192.101 45.7998 192.269 46.1264C192.437 46.4531 192.521 46.8358 192.521 47.2744C192.521 47.6198 192.465 47.9371 192.353 48.2264C192.241 48.5064 192.082 48.7678 191.877 49.0104C191.672 49.2438 191.429 49.4631 191.149 49.6684C190.878 49.8644 190.575 50.0604 190.239 50.2564C190.006 50.3871 189.768 50.5411 189.525 50.7184C189.282 50.8864 189.049 51.0684 188.825 51.2644C188.61 51.4604 188.41 51.6704 188.223 51.8944C188.046 52.1091 187.91 52.3331 187.817 52.5664H192.227C192.33 52.5664 192.395 52.5804 192.423 52.6084C192.46 52.6364 192.479 52.7158 192.479 52.8464V53.9524ZM200.366 49.1784C200.646 49.2718 200.879 49.4024 201.066 49.5704C201.262 49.7291 201.42 49.9111 201.542 50.1164C201.672 50.3218 201.766 50.5364 201.822 50.7604C201.878 50.9844 201.906 51.1991 201.906 51.4044C201.906 51.8338 201.822 52.2304 201.654 52.5944C201.486 52.9584 201.238 53.2758 200.912 53.5464C200.594 53.8078 200.202 54.0131 199.736 54.1624C199.269 54.3118 198.737 54.3864 198.14 54.3864C197.552 54.3864 197.024 54.3164 196.558 54.1764C196.1 54.0364 195.708 53.8404 195.382 53.5884C195.064 53.3364 194.822 53.0331 194.654 52.6784C194.486 52.3238 194.402 51.9271 194.402 51.4884C194.402 51.2364 194.439 50.9938 194.514 50.7604C194.588 50.5178 194.696 50.2938 194.836 50.0884C194.976 49.8831 195.139 49.7011 195.326 49.5424C195.512 49.3838 195.718 49.2624 195.942 49.1784V49.1364C195.718 49.0524 195.531 48.9404 195.382 48.8004C195.232 48.6604 195.111 48.5111 195.018 48.3524C194.934 48.1844 194.868 48.0211 194.822 47.8624C194.784 47.6944 194.766 47.5404 194.766 47.4004C194.766 46.9524 194.859 46.5558 195.046 46.2104C195.232 45.8651 195.48 45.5758 195.788 45.3424C196.105 45.1091 196.469 44.9318 196.88 44.8104C197.29 44.6891 197.72 44.6284 198.168 44.6284C198.69 44.6284 199.157 44.6938 199.568 44.8244C199.988 44.9458 200.342 45.1231 200.632 45.3564C200.93 45.5804 201.154 45.8558 201.304 46.1824C201.462 46.5091 201.542 46.8684 201.542 47.2604C201.542 47.4004 201.518 47.5591 201.472 47.7364C201.434 47.9044 201.369 48.0771 201.276 48.2544C201.182 48.4224 201.061 48.5858 200.912 48.7444C200.762 48.9031 200.58 49.0384 200.366 49.1504V49.1784ZM199.806 51.3344C199.806 50.9051 199.647 50.5738 199.33 50.3404C199.022 50.0978 198.63 49.9764 198.154 49.9764C197.678 49.9764 197.281 50.1024 196.964 50.3544C196.656 50.6064 196.502 50.9424 196.502 51.3624C196.502 51.5211 196.53 51.6844 196.586 51.8524C196.642 52.0111 196.735 52.1558 196.866 52.2864C196.996 52.4078 197.164 52.5104 197.37 52.5944C197.575 52.6691 197.832 52.7064 198.14 52.7064C198.457 52.7064 198.718 52.6644 198.924 52.5804C199.138 52.4964 199.311 52.3891 199.442 52.2584C199.572 52.1278 199.666 51.9831 199.722 51.8244C199.778 51.6564 199.806 51.4931 199.806 51.3344ZM199.512 47.4984C199.512 47.1904 199.4 46.9244 199.176 46.7004C198.961 46.4764 198.616 46.3644 198.14 46.3644C197.664 46.3644 197.318 46.4858 197.104 46.7284C196.898 46.9618 196.796 47.2324 196.796 47.5404C196.796 47.8204 196.917 48.0631 197.16 48.2684C197.412 48.4644 197.734 48.5624 198.126 48.5624C198.536 48.5624 198.868 48.4551 199.12 48.2404C199.381 48.0258 199.512 47.7784 199.512 47.4984ZM208.168 52.4684C208.345 52.4684 208.569 52.4591 208.84 52.4404C209.111 52.4124 209.372 52.3518 209.624 52.2584L209.638 50.1864C209.311 50.1678 208.985 50.1864 208.658 50.2424C208.331 50.2984 208.014 50.3918 207.706 50.5224C207.575 50.5691 207.482 50.5924 207.426 50.5924C207.379 50.5924 207.333 50.5411 207.286 50.4384L206.922 49.3044C206.894 49.2298 206.885 49.1644 206.894 49.1084C206.903 49.0524 206.959 49.0011 207.062 48.9544C207.389 48.7958 207.771 48.6651 208.21 48.5624C208.658 48.4504 209.106 48.3944 209.554 48.3944C209.797 48.3944 210.021 48.4038 210.226 48.4224C210.431 48.4318 210.613 48.4551 210.772 48.4924C210.977 48.5391 211.141 48.6091 211.262 48.7024C211.383 48.7864 211.477 48.8984 211.542 49.0384C211.607 49.1691 211.649 49.3231 211.668 49.5004C211.687 49.6684 211.696 49.8551 211.696 50.0604V53.0004C211.696 53.1311 211.677 53.2524 211.64 53.3644C211.603 53.4671 211.509 53.5651 211.36 53.6584C211.08 53.8264 210.777 53.9571 210.45 54.0504C210.123 54.1438 209.801 54.2138 209.484 54.2604C209.176 54.3164 208.887 54.3491 208.616 54.3584C208.345 54.3771 208.131 54.3864 207.972 54.3864C207.207 54.3864 206.544 54.2744 205.984 54.0504C205.433 53.8171 204.976 53.4858 204.612 53.0564C204.257 52.6178 203.991 52.0904 203.814 51.4744C203.646 50.8584 203.562 50.1584 203.562 49.3744C203.562 48.6091 203.66 47.9138 203.856 47.2884C204.052 46.6631 204.341 46.1311 204.724 45.6924C205.116 45.2444 205.592 44.8991 206.152 44.6564C206.721 44.4138 207.37 44.2924 208.098 44.2924C208.583 44.2924 209.064 44.3344 209.54 44.4184C210.016 44.4931 210.473 44.6518 210.912 44.8944C211.015 44.9504 211.075 45.0064 211.094 45.0624C211.113 45.1184 211.085 45.2258 211.01 45.3844L210.576 46.3784C210.529 46.5091 210.478 46.5884 210.422 46.6164C210.375 46.6444 210.287 46.6351 210.156 46.5884C209.82 46.4671 209.493 46.3784 209.176 46.3224C208.868 46.2664 208.537 46.2384 208.182 46.2384C207.771 46.2384 207.417 46.3178 207.118 46.4764C206.819 46.6351 206.572 46.8544 206.376 47.1344C206.18 47.4144 206.035 47.7458 205.942 48.1284C205.849 48.5111 205.802 48.9311 205.802 49.3884C205.802 49.8551 205.839 50.2798 205.914 50.6624C205.989 51.0358 206.115 51.3578 206.292 51.6284C206.479 51.8898 206.721 52.0951 207.02 52.2444C207.328 52.3938 207.711 52.4684 208.168 52.4684ZM219.737 48.8704C219.999 48.9731 220.223 49.1131 220.409 49.2904C220.605 49.4584 220.764 49.6498 220.885 49.8644C221.007 50.0698 221.095 50.2938 221.151 50.5364C221.207 50.7791 221.235 51.0171 221.235 51.2504C221.235 51.6984 221.147 52.1044 220.969 52.4684C220.801 52.8324 220.563 53.1451 220.255 53.4064C219.957 53.6678 219.602 53.8731 219.191 54.0224C218.79 54.1624 218.356 54.2324 217.889 54.2324H214.375C214.039 54.2324 213.815 54.1671 213.703 54.0364C213.591 53.8964 213.535 53.6771 213.535 53.3784V45.2864C213.535 44.9878 213.591 44.7684 213.703 44.6284C213.815 44.4884 214.039 44.4184 214.375 44.4184H217.805C218.225 44.4184 218.617 44.4651 218.981 44.5584C219.355 44.6518 219.677 44.8011 219.947 45.0064C220.218 45.2024 220.428 45.4591 220.577 45.7764C220.736 46.0844 220.815 46.4578 220.815 46.8964C220.815 47.2884 220.713 47.6571 220.507 48.0024C220.311 48.3384 220.055 48.5951 219.737 48.7724V48.8704ZM219.037 51.1104C219.037 50.7371 218.921 50.4338 218.687 50.2004C218.463 49.9671 218.127 49.8504 217.679 49.8504H215.663V52.3564H217.679C217.941 52.3564 218.16 52.3191 218.337 52.2444C218.515 52.1604 218.655 52.0578 218.757 51.9364C218.86 51.8151 218.93 51.6798 218.967 51.5304C219.014 51.3811 219.037 51.2411 219.037 51.1104ZM215.663 48.1424H217.567C217.679 48.1424 217.796 48.1284 217.917 48.1004C218.048 48.0724 218.165 48.0258 218.267 47.9604C218.37 47.8858 218.454 47.7878 218.519 47.6664C218.585 47.5358 218.617 47.3724 218.617 47.1764C218.617 46.8964 218.529 46.6771 218.351 46.5184C218.174 46.3598 217.936 46.2804 217.637 46.2804H215.663V48.1424Z" fill="#D92F3B"/>
</g>
<defs>
<clipPath id="clip0">
<rect width="264" height="95.7884" fill="white"/>
</clipPath>
</defs>
</svg>
