<svg width="264" height="96" viewBox="0 0 264 96" fill="none" xmlns="http://www.w3.org/2000/svg">
<g clip-path="url(#clip0)">
<path d="M0 8.00001C0 3.58173 3.58172 0 8 0H256C260.418 0 264 3.58172 264 8V95.7884H0V8.00001Z" fill="#D92F3B"/>
<path d="M168.736 -16.7281C175.177 -16.7281 181.372 -14.7667 186.686 -11.071C192.122 -7.29276 196.184 -1.98666 198.42 4.28982L206.297 26.3195C209.149 34.3096 208.739 42.9191 205.149 50.5995C201.559 58.28 195.22 64.0816 187.281 66.9514L138.846 84.4801C130.846 87.3706 123.686 91.6238 117.593 97.1157C112.711 101.493 108.505 106.675 105.059 112.518C100.607 120.095 98.6174 126.826 97.9199 129.654L77.6517 72.8562L72.7283 59.0852L69.7742 50.8266C66.9227 42.8365 67.333 34.227 70.923 26.5466C74.513 18.8661 80.852 13.0645 88.791 10.1947L158.048 -14.87C161.515 -16.0881 165.105 -16.7281 168.736 -16.7281ZM168.736 -17.1411C165.146 -17.1411 161.494 -16.5217 157.924 -15.2416L88.6679 9.82304C72.0513 15.8311 63.4353 34.2476 69.4049 50.9712L72.359 59.2297L77.2825 73.0008L98.0225 131.079C98.0225 131.079 104.115 97.446 138.99 84.8311L187.424 67.3024C204.041 61.2943 212.657 42.8778 206.687 26.1543L198.81 4.12466C194.112 -8.96511 181.824 -17.1411 168.736 -17.1411Z" fill="white"/>
<rect x="57.4336" y="28.2324" width="164.244" height="40.332" fill="#D92F3B"/>
<path d="M45.726 53.8844H46.034L48.102 46.1844L52.81 31.0484C52.898 30.7551 53.03 30.5791 53.206 30.5204C53.4113 30.4324 53.6753 30.3884 53.998 30.3884H59.366C59.6593 30.3884 59.8207 30.4764 59.85 30.6524C59.9087 30.8284 59.9087 30.9898 59.85 31.1364L50.39 58.9004C50.214 59.4284 50.0233 59.8391 49.818 60.1324C49.642 60.4258 49.422 60.6604 49.158 60.8364C48.9233 60.9831 48.6447 61.0858 48.322 61.1444C47.9993 61.2031 47.6327 61.2324 47.222 61.2324H44.494C44.054 61.2324 43.6727 61.2031 43.35 61.1444C43.0273 61.0858 42.734 60.9684 42.47 60.7924C42.2353 60.6164 42.0153 60.3818 41.81 60.0884C41.6047 59.7658 41.414 59.3551 41.238 58.8564L31.866 31.1364C31.8073 30.9311 31.8073 30.7551 31.866 30.6084C31.954 30.4618 32.13 30.3884 32.394 30.3884H37.674C38.0847 30.3884 38.3633 30.4618 38.51 30.6084C38.6567 30.7258 38.774 30.9164 38.862 31.1804L43.482 46.0964L45.726 53.8844ZM69.0048 41.0804C69.0048 42.4591 69.4301 43.5444 70.2808 44.3364C71.1608 45.0991 72.3928 45.4804 73.9768 45.4804C75.1501 45.4804 76.2208 45.4071 77.1888 45.2604C78.1861 45.1138 79.2568 44.8791 80.4008 44.5564C80.4594 44.2924 80.4888 44.0871 80.4888 43.9404C80.4888 43.7938 80.4888 43.6471 80.4888 43.5004C80.4888 42.4444 80.3274 41.4911 80.0048 40.6404C79.6821 39.7604 79.2421 39.0124 78.6848 38.3964C78.1568 37.7804 77.5114 37.3111 76.7488 36.9884C75.9861 36.6364 75.1648 36.4604 74.2848 36.4604C73.5808 36.4604 72.9061 36.5631 72.2608 36.7684C71.6448 36.9738 71.0874 37.2671 70.5888 37.6484C70.1194 38.0298 69.7381 38.5138 69.4448 39.1004C69.1514 39.6871 69.0048 40.3471 69.0048 41.0804ZM62.4488 41.3004C62.4488 39.5404 62.7714 38.0298 63.4168 36.7684C64.0914 35.4778 64.9714 34.4071 66.0568 33.5564C67.1714 32.7058 68.4328 32.0751 69.8408 31.6644C71.2488 31.2538 72.7154 31.0484 74.2408 31.0484C76.3821 31.0484 78.2448 31.3711 79.8288 32.0164C81.4421 32.6618 82.7768 33.6004 83.8328 34.8324C84.9181 36.0351 85.7248 37.5018 86.2528 39.2324C86.7808 40.9338 87.0448 42.8404 87.0448 44.9524C87.0448 47.3284 86.7514 49.5431 86.1648 51.5964C85.5781 53.6204 84.6688 55.3804 83.4368 56.8764C82.2341 58.3724 80.6941 59.5604 78.8168 60.4404C76.9688 61.2911 74.7688 61.7164 72.2168 61.7164C71.2781 61.7164 70.2368 61.6431 69.0928 61.4964C67.9781 61.3791 66.9661 61.1591 66.0568 60.8364C65.8514 60.7484 65.6754 60.6458 65.5288 60.5284C65.4114 60.4111 65.4261 60.1178 65.5728 59.6484L66.5408 56.1284C66.6288 55.8058 66.7754 55.6298 66.9808 55.6004C67.1861 55.5711 67.4208 55.5858 67.6848 55.6444C68.2714 55.7911 68.9608 55.9231 69.7528 56.0404C70.5448 56.1578 71.2928 56.2164 71.9968 56.2164C74.1674 56.2164 75.9421 55.6738 77.3208 54.5884C78.7288 53.4738 79.6528 51.8751 80.0928 49.7924C79.6821 49.9391 79.2128 50.0711 78.6848 50.1884C78.1861 50.2764 77.6581 50.3644 77.1008 50.4524C76.5434 50.5404 75.9861 50.6138 75.4288 50.6724C74.8714 50.7018 74.3581 50.7164 73.8888 50.7164C72.3341 50.7164 70.8528 50.5404 69.4448 50.1884C68.0661 49.8364 66.8488 49.2791 65.7928 48.5164C64.7661 47.7538 63.9448 46.7858 63.3288 45.6124C62.7421 44.4098 62.4488 42.9724 62.4488 41.3004ZM116.143 46.4044C116.143 48.6924 115.879 50.7751 115.351 52.6524C114.852 54.5298 114.075 56.1431 113.019 57.4924C111.963 58.8418 110.643 59.8831 109.059 60.6164C107.475 61.3498 105.627 61.7164 103.515 61.7164C101.403 61.7164 99.5548 61.3644 97.9708 60.6604C96.4162 59.9271 95.1108 58.9004 94.0548 57.5804C93.0282 56.2311 92.2508 54.6178 91.7228 52.7404C91.2242 50.8631 90.9748 48.7804 90.9748 46.4924C90.9748 44.1751 91.2388 42.0778 91.7668 40.2004C92.2948 38.3231 93.0868 36.7098 94.1428 35.3604C95.1988 34.0111 96.5042 32.9698 98.0588 32.2364C99.6428 31.5031 101.491 31.1364 103.603 31.1364C105.744 31.1364 107.592 31.5031 109.147 32.2364C110.731 32.9404 112.036 33.9671 113.063 35.3164C114.119 36.6364 114.896 38.2351 115.395 40.1124C115.894 41.9898 116.143 44.0871 116.143 46.4044ZM109.587 46.4924C109.587 45.0551 109.47 43.7351 109.235 42.5324C109.03 41.3004 108.678 40.2444 108.179 39.3644C107.71 38.4844 107.094 37.7951 106.331 37.2964C105.568 36.7978 104.63 36.5484 103.515 36.5484C102.4 36.5484 101.462 36.7978 100.699 37.2964C99.9655 37.7658 99.3642 38.4404 98.8948 39.3204C98.4255 40.2004 98.0882 41.2418 97.8828 42.4444C97.6775 43.6471 97.5748 44.9671 97.5748 46.4044C97.5748 47.8124 97.6775 49.1178 97.8828 50.3204C98.0882 51.5231 98.4255 52.5791 98.8948 53.4884C99.3642 54.3684 99.9802 55.0578 100.743 55.5564C101.535 56.0551 102.488 56.3044 103.603 56.3044C104.718 56.3044 105.656 56.0551 106.419 55.5564C107.182 55.0578 107.798 54.3684 108.267 53.4884C108.736 52.6084 109.074 51.5818 109.279 50.4084C109.484 49.2058 109.587 47.9004 109.587 46.4924ZM135.033 55.6444C136.441 55.6444 137.688 55.4831 138.773 55.1604C139.858 54.8084 140.87 54.4564 141.809 54.1044C142.22 53.9284 142.513 53.8991 142.689 54.0164C142.865 54.1044 143.026 54.3098 143.173 54.6324L144.669 57.8004C144.874 58.2111 144.948 58.5191 144.889 58.7244C144.83 58.9298 144.669 59.1058 144.405 59.2524C142.821 60.2204 141.149 60.8804 139.389 61.2324C137.658 61.5551 135.942 61.7164 134.241 61.7164C131.836 61.7164 129.753 61.3644 127.993 60.6604C126.262 59.9271 124.825 58.8858 123.681 57.5364C122.566 56.1871 121.73 54.5444 121.173 52.6084C120.645 50.6431 120.381 48.4431 120.381 46.0084C120.381 43.6031 120.718 41.4178 121.393 39.4524C122.097 37.4871 123.065 35.8004 124.297 34.3924C125.529 32.9844 127.01 31.8991 128.741 31.1364C130.501 30.3738 132.437 29.9924 134.549 29.9924C136.045 29.9924 137.512 30.1244 138.949 30.3884C140.386 30.6231 141.794 31.1218 143.173 31.8844C143.496 32.0604 143.686 32.2364 143.745 32.4124C143.804 32.5884 143.73 32.9258 143.525 33.4244L142.161 36.4604C142.014 36.8711 141.853 37.1204 141.677 37.2084C141.53 37.2964 141.252 37.2671 140.841 37.1204C139.785 36.7391 138.802 36.4604 137.893 36.2844C136.984 36.0791 135.972 35.9764 134.857 35.9764C133.654 35.9764 132.584 36.2404 131.645 36.7684C130.736 37.2671 129.958 37.9711 129.313 38.8804C128.697 39.7604 128.228 40.8164 127.905 42.0484C127.582 43.2511 127.421 44.5711 127.421 46.0084C127.421 47.4458 127.538 48.7511 127.773 49.9244C128.037 51.0978 128.462 52.1098 129.049 52.9604C129.665 53.8111 130.457 54.4711 131.425 54.9404C132.393 55.4098 133.596 55.6444 135.033 55.6444Z" fill="white"/>
<path d="M154.25 48.2324C154.25 42.7096 158.727 38.2324 164.25 38.2324H219.25C224.773 38.2324 229.25 42.7096 229.25 48.2324V52.2324C229.25 57.7553 224.773 62.2324 219.25 62.2324H154.25V48.2324Z" fill="white"/>
<path d="M170.882 51.0404C170.882 51.5911 170.78 52.0764 170.574 52.4964C170.378 52.9164 170.103 53.2664 169.748 53.5464C169.403 53.8264 168.992 54.0411 168.516 54.1904C168.04 54.3304 167.532 54.4004 166.99 54.4004C166.384 54.4004 165.777 54.3398 165.17 54.2184C164.573 54.0878 164.008 53.8078 163.476 53.3784C163.346 53.2758 163.318 53.1638 163.392 53.0424C163.43 52.9864 163.481 52.9071 163.546 52.8044C163.612 52.7018 163.677 52.5944 163.742 52.4824C163.817 52.3704 163.887 52.2678 163.952 52.1744C164.018 52.0718 164.069 51.9924 164.106 51.9364C164.172 51.8431 164.237 51.8011 164.302 51.8104C164.377 51.8104 164.47 51.8478 164.582 51.9224C164.928 52.1651 165.296 52.3378 165.688 52.4404C166.09 52.5431 166.468 52.5944 166.822 52.5944C167.457 52.5944 167.942 52.4638 168.278 52.2024C168.624 51.9318 168.796 51.5631 168.796 51.0964C168.796 50.6578 168.652 50.3264 168.362 50.1024C168.073 49.8784 167.718 49.7664 167.298 49.7664C167.093 49.7664 166.911 49.7804 166.752 49.8084C166.594 49.8364 166.44 49.8738 166.29 49.9204C166.15 49.9578 166.01 50.0091 165.87 50.0744C165.73 50.1304 165.586 50.1911 165.436 50.2564C165.324 50.3031 165.194 50.3358 165.044 50.3544C164.895 50.3638 164.755 50.3451 164.624 50.2984L164.134 50.1584C163.92 50.0838 163.775 49.9858 163.7 49.8644C163.635 49.7338 163.612 49.5611 163.63 49.3464L163.994 45.8464C164.032 45.4824 164.139 45.2211 164.316 45.0624C164.494 44.8944 164.732 44.8104 165.03 44.8104H169.916C170.038 44.8104 170.117 44.8244 170.154 44.8524C170.201 44.8804 170.224 44.9691 170.224 45.1184V46.2244C170.224 46.3458 170.201 46.4298 170.154 46.4764C170.108 46.5138 170.028 46.5324 169.916 46.5324H165.828L165.618 48.3524C165.926 48.2498 166.239 48.1844 166.556 48.1564C166.874 48.1191 167.172 48.1004 167.452 48.1004C167.947 48.1004 168.404 48.1704 168.824 48.3104C169.244 48.4411 169.604 48.6324 169.902 48.8844C170.21 49.1364 170.448 49.4444 170.616 49.8084C170.794 50.1724 170.882 50.5831 170.882 51.0404ZM180.323 49.5144C180.323 50.2424 180.239 50.9051 180.071 51.5024C179.912 52.0998 179.665 52.6131 179.329 53.0424C178.993 53.4718 178.573 53.8031 178.069 54.0364C177.565 54.2698 176.977 54.3864 176.305 54.3864C175.633 54.3864 175.045 54.2744 174.541 54.0504C174.046 53.8171 173.631 53.4904 173.295 53.0704C172.968 52.6411 172.721 52.1278 172.553 51.5304C172.394 50.9331 172.315 50.2704 172.315 49.5424C172.315 48.8051 172.399 48.1378 172.567 47.5404C172.735 46.9431 172.987 46.4298 173.323 46.0004C173.659 45.5711 174.074 45.2398 174.569 45.0064C175.073 44.7731 175.661 44.6564 176.333 44.6564C177.014 44.6564 177.602 44.7731 178.097 45.0064C178.601 45.2304 179.016 45.5571 179.343 45.9864C179.679 46.4064 179.926 46.9151 180.085 47.5124C180.244 48.1098 180.323 48.7771 180.323 49.5144ZM178.237 49.5424C178.237 49.0851 178.2 48.6651 178.125 48.2824C178.06 47.8904 177.948 47.5544 177.789 47.2744C177.64 46.9944 177.444 46.7751 177.201 46.6164C176.958 46.4578 176.66 46.3784 176.305 46.3784C175.95 46.3784 175.652 46.4578 175.409 46.6164C175.176 46.7658 174.984 46.9804 174.835 47.2604C174.686 47.5404 174.578 47.8718 174.513 48.2544C174.448 48.6371 174.415 49.0571 174.415 49.5144C174.415 49.9624 174.448 50.3778 174.513 50.7604C174.578 51.1431 174.686 51.4791 174.835 51.7684C174.984 52.0484 175.18 52.2678 175.423 52.4264C175.675 52.5851 175.978 52.6644 176.333 52.6644C176.688 52.6644 176.986 52.5851 177.229 52.4264C177.472 52.2678 177.668 52.0484 177.817 51.7684C177.966 51.4884 178.074 51.1618 178.139 50.7884C178.204 50.4058 178.237 49.9904 178.237 49.5424ZM189.469 49.5144C189.469 50.2424 189.385 50.9051 189.217 51.5024C189.059 52.0998 188.811 52.6131 188.475 53.0424C188.139 53.4718 187.719 53.8031 187.215 54.0364C186.711 54.2698 186.123 54.3864 185.451 54.3864C184.779 54.3864 184.191 54.2744 183.687 54.0504C183.193 53.8171 182.777 53.4904 182.441 53.0704C182.115 52.6411 181.867 52.1278 181.699 51.5304C181.541 50.9331 181.461 50.2704 181.461 49.5424C181.461 48.8051 181.545 48.1378 181.713 47.5404C181.881 46.9431 182.133 46.4298 182.469 46.0004C182.805 45.5711 183.221 45.2398 183.715 45.0064C184.219 44.7731 184.807 44.6564 185.479 44.6564C186.161 44.6564 186.749 44.7731 187.243 45.0064C187.747 45.2304 188.163 45.5571 188.489 45.9864C188.825 46.4064 189.073 46.9151 189.231 47.5124C189.39 48.1098 189.469 48.7771 189.469 49.5144ZM187.383 49.5424C187.383 49.0851 187.346 48.6651 187.271 48.2824C187.206 47.8904 187.094 47.5544 186.935 47.2744C186.786 46.9944 186.59 46.7751 186.347 46.6164C186.105 46.4578 185.806 46.3784 185.451 46.3784C185.097 46.3784 184.798 46.4578 184.555 46.6164C184.322 46.7658 184.131 46.9804 183.981 47.2604C183.832 47.5404 183.725 47.8718 183.659 48.2544C183.594 48.6371 183.561 49.0571 183.561 49.5144C183.561 49.9624 183.594 50.3778 183.659 50.7604C183.725 51.1431 183.832 51.4791 183.981 51.7684C184.131 52.0484 184.327 52.2678 184.569 52.4264C184.821 52.5851 185.125 52.6644 185.479 52.6644C185.834 52.6644 186.133 52.5851 186.375 52.4264C186.618 52.2678 186.814 52.0484 186.963 51.7684C187.113 51.4884 187.22 51.1618 187.285 50.7884C187.351 50.4058 187.383 49.9904 187.383 49.5424ZM198.616 49.5144C198.616 50.2424 198.532 50.9051 198.364 51.5024C198.205 52.0998 197.958 52.6131 197.622 53.0424C197.286 53.4718 196.866 53.8031 196.362 54.0364C195.858 54.2698 195.27 54.3864 194.598 54.3864C193.926 54.3864 193.338 54.2744 192.834 54.0504C192.339 53.8171 191.924 53.4904 191.588 53.0704C191.261 52.6411 191.014 52.1278 190.846 51.5304C190.687 50.9331 190.608 50.2704 190.608 49.5424C190.608 48.8051 190.692 48.1378 190.86 47.5404C191.028 46.9431 191.28 46.4298 191.616 46.0004C191.952 45.5711 192.367 45.2398 192.862 45.0064C193.366 44.7731 193.954 44.6564 194.626 44.6564C195.307 44.6564 195.895 44.7731 196.39 45.0064C196.894 45.2304 197.309 45.5571 197.636 45.9864C197.972 46.4064 198.219 46.9151 198.378 47.5124C198.537 48.1098 198.616 48.7771 198.616 49.5144ZM196.53 49.5424C196.53 49.0851 196.493 48.6651 196.418 48.2824C196.353 47.8904 196.241 47.5544 196.082 47.2744C195.933 46.9944 195.737 46.7751 195.494 46.6164C195.251 46.4578 194.953 46.3784 194.598 46.3784C194.243 46.3784 193.945 46.4578 193.702 46.6164C193.469 46.7658 193.277 46.9804 193.128 47.2604C192.979 47.5404 192.871 47.8718 192.806 48.2544C192.741 48.6371 192.708 49.0571 192.708 49.5144C192.708 49.9624 192.741 50.3778 192.806 50.7604C192.871 51.1431 192.979 51.4791 193.128 51.7684C193.277 52.0484 193.473 52.2678 193.716 52.4264C193.968 52.5851 194.271 52.6644 194.626 52.6644C194.981 52.6644 195.279 52.5851 195.522 52.4264C195.765 52.2678 195.961 52.0484 196.11 51.7684C196.259 51.4884 196.367 51.1618 196.432 50.7884C196.497 50.4058 196.53 49.9904 196.53 49.5424ZM208.308 48.5904H208.224L207.65 49.8924L206.488 52.4684C206.386 52.7111 206.278 52.8744 206.166 52.9584C206.064 53.0424 205.905 53.0844 205.69 53.0844H204.92C204.687 53.0844 204.524 53.0424 204.43 52.9584C204.346 52.8744 204.248 52.7111 204.136 52.4684L203.268 50.6484L202.4 48.7584H202.316V53.9524C202.316 54.0831 202.293 54.1624 202.246 54.1904C202.2 54.2184 202.116 54.2324 201.994 54.2324H200.566C200.464 54.2324 200.384 54.2184 200.328 54.1904C200.272 54.1624 200.244 54.0831 200.244 53.9524V45.3984C200.244 45.0438 200.31 44.7918 200.44 44.6424C200.58 44.4931 200.814 44.4184 201.14 44.4184H201.952C202.214 44.4184 202.405 44.4698 202.526 44.5724C202.657 44.6658 202.778 44.8338 202.89 45.0764L204.416 48.4924L205.284 50.4804H205.34L206.292 48.2964L207.72 45.1044C207.832 44.8524 207.954 44.6751 208.084 44.5724C208.224 44.4698 208.444 44.4184 208.742 44.4184H209.428C209.727 44.4184 209.951 44.4838 210.1 44.6144C210.25 44.7358 210.324 44.9738 210.324 45.3284V53.9524C210.324 54.0831 210.301 54.1624 210.254 54.1904C210.208 54.2184 210.124 54.2324 210.002 54.2324H208.616C208.514 54.2324 208.434 54.2184 208.378 54.1904C208.332 54.1624 208.308 54.0831 208.308 53.9524V48.5904ZM218.628 48.8704C218.889 48.9731 219.113 49.1131 219.3 49.2904C219.496 49.4584 219.655 49.6498 219.776 49.8644C219.897 50.0698 219.986 50.2938 220.042 50.5364C220.098 50.7791 220.126 51.0171 220.126 51.2504C220.126 51.6984 220.037 52.1044 219.86 52.4684C219.692 52.8324 219.454 53.1451 219.146 53.4064C218.847 53.6678 218.493 53.8731 218.082 54.0224C217.681 54.1624 217.247 54.2324 216.78 54.2324H213.266C212.93 54.2324 212.706 54.1671 212.594 54.0364C212.482 53.8964 212.426 53.6771 212.426 53.3784V45.2864C212.426 44.9878 212.482 44.7684 212.594 44.6284C212.706 44.4884 212.93 44.4184 213.266 44.4184H216.696C217.116 44.4184 217.508 44.4651 217.872 44.5584C218.245 44.6518 218.567 44.8011 218.838 45.0064C219.109 45.2024 219.319 45.4591 219.468 45.7764C219.627 46.0844 219.706 46.4578 219.706 46.8964C219.706 47.2884 219.603 47.6571 219.398 48.0024C219.202 48.3384 218.945 48.5951 218.628 48.7724V48.8704ZM217.928 51.1104C217.928 50.7371 217.811 50.4338 217.578 50.2004C217.354 49.9671 217.018 49.8504 216.57 49.8504H214.554V52.3564H216.57C216.831 52.3564 217.051 52.3191 217.228 52.2444C217.405 52.1604 217.545 52.0578 217.648 51.9364C217.751 51.8151 217.821 51.6798 217.858 51.5304C217.905 51.3811 217.928 51.2411 217.928 51.1104ZM214.554 48.1424H216.458C216.57 48.1424 216.687 48.1284 216.808 48.1004C216.939 48.0724 217.055 48.0258 217.158 47.9604C217.261 47.8858 217.345 47.7878 217.41 47.6664C217.475 47.5358 217.508 47.3724 217.508 47.1764C217.508 46.8964 217.419 46.6771 217.242 46.5184C217.065 46.3598 216.827 46.2804 216.528 46.2804H214.554V48.1424Z" fill="#D92F3B"/>
</g>
<defs>
<clipPath id="clip0">
<rect width="264" height="95.7884" fill="white"/>
</clipPath>
</defs>
</svg>
