<svg width="16" height="16" viewBox="0 0 16 16" fill="none" xmlns="http://www.w3.org/2000/svg">
<path d="M3.5801 4.89889C3.34034 4.76188 3.03491 4.84518 2.89791 5.08494C2.7609 5.3247 2.8442 5.63012 3.08396 5.76713L3.5801 4.89889ZM7.33718 7.62166L7.58525 7.18754L7.33718 7.62166ZM8.66022 7.62166L8.90829 8.05579L8.66022 7.62166ZM12.9134 5.76713C13.1532 5.63012 13.2365 5.3247 13.0995 5.08494C12.9625 4.84518 12.6571 4.76188 12.4173 4.89889L12.9134 5.76713ZM12.1654 4.66634V11.333H13.1654V4.66634H12.1654ZM11.332 12.1663H4.66536V13.1663H11.332V12.1663ZM3.83203 11.333V4.66634H2.83203V11.333H3.83203ZM11.332 2.83301H4.66536V3.83301H11.332V2.83301ZM4.66536 12.1663C4.20513 12.1663 3.83203 11.7932 3.83203 11.333H2.83203C2.83203 12.3455 3.65284 13.1663 4.66536 13.1663V12.1663ZM12.1654 11.333C12.1654 11.7932 11.7923 12.1663 11.332 12.1663V13.1663C12.3446 13.1663 13.1654 12.3455 13.1654 11.333H12.1654ZM13.1654 4.66634C13.1654 3.65382 12.3446 2.83301 11.332 2.83301V3.83301C11.7923 3.83301 12.1654 4.2061 12.1654 4.66634H13.1654ZM3.83203 4.66634C3.83203 4.2061 4.20513 3.83301 4.66536 3.83301V2.83301C3.65284 2.83301 2.83203 3.65382 2.83203 4.66634H3.83203ZM3.08396 5.76713L7.08911 8.05579L7.58525 7.18754L3.5801 4.89889L3.08396 5.76713ZM8.90829 8.05579L12.9134 5.76713L12.4173 4.89889L8.41215 7.18754L8.90829 8.05579ZM7.08911 8.05579C7.65274 8.37786 8.34466 8.37786 8.90829 8.05579L8.41215 7.18754C8.15595 7.33394 7.84144 7.33394 7.58525 7.18754L7.08911 8.05579Z" fill="#727272"/>
</svg>
