<svg width="30" height="37" viewBox="0 0 30 37" fill="none" xmlns="http://www.w3.org/2000/svg">
<g clip-path="url(#clip0)">
<path d="M27.4682 23.4081H20.0796C16.9395 23.4081 14.3535 20.7652 14.3535 17.556V8.68359H27.4682C28.5764 8.68359 29.5 9.62747 29.5 10.7601V21.3316C29.5 22.4642 28.5764 23.4081 27.4682 23.4081Z" fill="#92001F"/>
<path d="M3.2707 37H0.5V1.5102C0.5 0.566327 1.05414 0 1.97771 0C2.71656 0 3.45541 0.566327 3.45541 1.5102V37H3.2707Z" fill="#EE0033"/>
<path d="M16.3861 3.39844H3.27148V18.1229H12.6919C13.6154 18.1229 14.3543 18.6893 14.7237 19.6331C14.9084 20.0107 15.0931 20.3882 15.2779 20.577C16.2014 22.0872 18.6027 21.5209 18.6027 19.6331C18.6027 17.7454 18.6027 15.8576 18.6027 15.8576V12.0821V5.28619C18.418 4.15354 17.4944 3.39844 16.3861 3.39844Z" fill="#EE0033"/>
</g>
<defs>
<clipPath id="clip0">
<rect width="29" height="37" fill="white" transform="translate(0.5)"/>
</clipPath>
</defs>
</svg>
