<svg width="72" height="58" viewBox="0 0 72 58" fill="none" xmlns="http://www.w3.org/2000/svg">
<g clip-path="url(#clip0)">
<path d="M59.1833 23.0207V48.4605C59.1833 52.7465 55.9621 56.2722 52.046 56.2722H8.71647C4.80039 56.2722 1.5791 52.7465 1.5791 48.4605V23.0207C1.5791 22.3985 1.64226 21.8455 1.76859 21.2924C2.46338 17.8359 5.30569 15.209 8.71647 15.209H52.046C55.4568 15.209 58.2991 17.8359 58.9939 21.2924C59.1202 21.8455 59.1833 22.3985 59.1833 23.0207Z" stroke="#EE0033" stroke-width="4.5" stroke-linecap="round" stroke-linejoin="round"/>
<path d="M59 27.1447V36H2V27.1447C2 26.3836 2.0625 25.6918 2.1875 25H58.8125C58.9375 25.6918 59 26.3836 59 27.1447Z" stroke="#EE0033" stroke-width="4.5" stroke-linecap="round" stroke-linejoin="round"/>
<path d="M49.7536 50H40.2464C38.4493 50 37 48.9474 37 47.6421V44.3579C37 43.0526 38.4493 42 40.2464 42H49.7536C51.5507 42 53 43.0526 53 44.3579V47.6421C52.942 48.9895 51.4928 50 49.7536 50Z" stroke="#FE9A00" stroke-width="4.5" stroke-linecap="round" stroke-linejoin="round"/>
<path d="M69.9209 9.5402V34.98C69.9209 39.2661 66.6996 42.7917 62.7835 42.7917H59.1832V23.0205C59.1832 22.3984 59.1201 21.8453 58.9938 21.2923C58.8674 20.8084 58.7411 20.3245 58.5516 19.8406C57.4147 17.0754 54.9514 15.2088 52.0459 15.2088H12.3167V9.5402C12.3167 8.91803 12.3798 8.36499 12.5061 7.81195C13.2009 4.35545 16.0432 1.72852 19.454 1.72852H62.7835C66.1943 1.72852 69.0366 4.35545 69.7314 7.81195C69.8577 8.36499 69.9209 8.91803 69.9209 9.5402Z" stroke="#EE0033" stroke-width="4.5" stroke-linecap="round" stroke-linejoin="round"/>
</g>
<defs>
<clipPath id="clip0">
<rect width="71.5" height="58" fill="white"/>
</clipPath>
</defs>
</svg>
