<svg width="62" height="63" viewBox="0 0 62 63" fill="none" xmlns="http://www.w3.org/2000/svg">
<g clip-path="url(#clip0)">
<path d="M40.2217 30.0185C38.2596 30.0185 36.2976 30.0185 34.5318 30.0185C33.3546 30.0185 32.766 29.6235 32.766 28.2411C32.766 28.0436 32.766 27.8461 32.766 27.8461C32.766 25.8712 32.766 24.0937 32.766 22.1188C32.766 21.7238 32.766 21.3289 32.766 20.9339C31.9812 16.7866 28.8419 14.2191 24.5255 14.4166C20.6014 14.6141 17.4621 18.169 17.2659 22.1188C17.2659 24.0937 17.2659 26.0687 17.2659 27.8461C17.2659 29.4261 16.8735 29.821 15.3039 29.821C13.3419 29.821 11.5761 29.821 9.61405 29.821C9.02544 29.821 8.43686 29.821 8.04445 30.0185C3.9242 30.8085 1.17737 35.1533 2.15838 39.1032C2.94319 42.8555 6.08243 45.4229 10.0065 45.4229C11.9685 45.4229 13.7343 45.4229 15.6963 45.4229C16.6774 45.4229 17.4622 46.2129 17.4622 47.2003C17.4622 48.1878 17.4622 49.3727 17.4622 50.7552C17.4622 51.9401 17.266 53.1251 17.6584 54.5076C18.247 57.8649 21.19 60.6298 24.5255 60.8273C28.8419 61.2223 31.785 58.4574 32.766 55.2975C32.9622 54.705 32.9621 53.9151 32.9621 53.3226C32.9621 51.3477 32.9621 49.3728 32.9621 47.5953C32.9621 46.2129 33.3545 45.6204 34.9242 45.6204C36.69 45.6204 38.652 45.6204 40.4179 45.6204C41.2027 45.6204 41.9875 45.6204 42.5761 45.4229C46.304 44.4354 48.8546 40.6831 48.266 36.7333C47.4812 32.7834 44.1457 30.0185 40.2217 30.0185Z" stroke="#EE0033" stroke-width="5" stroke-linecap="round" stroke-linejoin="round"/>
<path d="M54.8737 10.7982C53.9745 10.7982 53.0753 10.7982 52.176 10.7982C51.6365 10.7982 51.4566 10.6209 51.2768 10.0889V9.91164C51.2768 9.02509 51.2768 8.13852 51.2768 7.42927C51.2768 7.25196 51.2768 7.07467 51.2768 6.89736C50.9171 4.94694 49.1187 3.70576 47.1404 4.06038C45.7016 4.23769 44.2628 5.83349 44.2628 7.25198C44.2628 7.96122 44.2628 8.67046 44.2628 9.3797C44.2628 10.2663 43.5434 10.9755 42.6442 10.9755C41.9248 10.9755 41.3853 10.9755 40.6659 10.9755C40.3062 10.9755 39.9465 10.9755 39.5868 11.1528C37.7883 11.6847 36.7093 13.4578 37.069 15.0536C37.4287 16.8268 38.8674 18.0679 40.6659 18.0679C41.5651 18.0679 42.4643 18.0679 43.1837 18.0679C43.7233 18.0679 43.9031 18.2453 43.9031 18.7772C43.9031 19.3091 43.9031 19.6637 43.9031 20.373C43.9031 20.9049 43.9031 21.4368 43.9031 22.1461C44.2628 23.7419 45.5217 24.9831 46.9605 24.9831C48.9388 25.1604 50.3776 23.9192 50.7373 22.5007C50.7373 22.1461 50.9171 21.9688 50.9171 21.6141C50.9171 20.9049 50.9171 20.373 50.9171 19.6637C50.9171 18.7772 51.6365 18.0679 52.5357 18.0679C53.0753 18.0679 53.7947 18.0679 54.3342 18.0679C54.6939 18.0679 55.0536 18.0679 55.4133 17.8906C57.2118 17.3587 58.2908 15.7629 57.9311 13.9898C58.111 12.0394 56.6722 10.7982 54.8737 10.7982Z" stroke="#FE9A00" stroke-width="5" stroke-linecap="round" stroke-linejoin="round"/>
</g>
<defs>
<clipPath id="clip0">
<rect width="62" height="63" fill="white"/>
</clipPath>
</defs>
</svg>
