<svg width="25" height="24" viewBox="0 0 25 24" fill="none" xmlns="http://www.w3.org/2000/svg">
<ellipse cx="12.0647" cy="18.0001" rx="6.03243" ry="2.4" fill="#C4C4C4"/>
<path d="M18.4188 9.4693C18.4188 11.1116 17.8588 12.8231 16.5599 14.5C15.8612 15.4021 14.548 16.7847 13.5682 17.6455C12.852 18.2747 12.2221 18.4138 11.5807 17.9962C11.2803 17.8006 10.9824 17.5773 10.7012 17.3549C9.89654 16.7184 8.44983 15.2214 7.89112 14.5C6.59227 12.8231 6.03223 11.1116 6.03223 9.4693C6.03223 6.22783 8.80506 3.6001 12.2255 3.6001C15.646 3.6001 18.4188 6.22783 18.4188 9.4693Z" fill="#EE0033"/>
<path d="M15.3222 9.46018C15.3222 11.0783 13.9358 12.3901 12.2256 12.3901C10.5153 12.3901 9.12891 11.0783 9.12891 9.46018C9.12891 7.84204 10.5153 6.53027 12.2256 6.53027C13.9358 6.53027 15.3222 7.84204 15.3222 9.46018Z" fill="#92001F"/>
</svg>
