<svg width="32" height="32" viewBox="0 0 32 32" fill="none" xmlns="http://www.w3.org/2000/svg">
<ellipse cx="16" cy="24.0008" rx="8" ry="3.2" fill="#C4C4C4"/>
<path d="M24.4267 12.6264C24.4267 14.8161 23.684 17.0982 21.9615 19.334C21.0349 20.5368 19.2933 22.3802 17.994 23.528C16.9898 24.415 16.1135 24.5714 15.212 23.8927C14.9249 23.6765 14.6201 23.4652 14.3326 23.2494C13.3026 22.4764 11.24 20.3398 10.4652 19.334C8.74271 17.0982 8 14.8161 8 12.6264C8 8.30442 11.6772 4.80078 16.2133 4.80078C20.7494 4.80078 24.4267 8.30442 24.4267 12.6264Z" fill="#EE0033"/>
<path d="M20.32 12.6136C20.32 14.7711 18.4814 16.5201 16.2134 16.5201C13.9453 16.5201 12.1067 14.7711 12.1067 12.6136C12.1067 10.456 13.9453 8.70703 16.2134 8.70703C18.4814 8.70703 20.32 10.456 20.32 12.6136Z" fill="#92001F"/>
</svg>
