<svg width="30" height="30" viewBox="0 0 30 30" fill="none" xmlns="http://www.w3.org/2000/svg">
<ellipse cx="15" cy="22.5" rx="7.5" ry="3" fill="#C4C4C4"/>
<path d="M22.9 11.8365C22.9 13.8893 22.2037 16.0288 20.5889 18.1249C19.7202 19.2525 18.0875 20.9807 16.8693 22.0568C15.9382 22.8792 15.1244 23.0317 14.2889 22.4192C13.9991 22.2067 13.6959 21.9928 13.4098 21.7752C12.4355 21.0339 10.5308 19.0591 9.81112 18.1249C8.19629 16.0288 7.5 13.8893 7.5 11.8365C7.5 7.78466 10.9474 4.5 15.2 4.5C19.4526 4.5 22.9 7.78466 22.9 11.8365Z" fill="#EE0033"/>
<path d="M19.0496 11.825C19.0496 13.8477 17.3259 15.4874 15.1996 15.4874C13.0733 15.4874 11.3496 13.8477 11.3496 11.825C11.3496 9.8023 13.0733 8.1626 15.1996 8.1626C17.3259 8.1626 19.0496 9.8023 19.0496 11.825Z" fill="#92001F"/>
</svg>
