<svg width="20" height="20" viewBox="0 0 20 20" fill="none" xmlns="http://www.w3.org/2000/svg">
<path fill-rule="evenodd" clip-rule="evenodd" d="M4.88778 6.41615C5.20902 6.37228 5.49002 6.4197 5.80398 6.53146C6.14738 6.65371 6.51855 6.45551 6.63302 6.08877C6.74748 5.72203 6.5619 5.32563 6.2185 5.20338C5.75542 5.03853 5.25737 4.94539 4.67327 5.03451C4.65398 5.03745 4.63482 5.04131 4.61585 5.04608C3.20322 5.40105 2.20986 6.73515 2.20986 8.31728V9.08724C2.20986 10.1564 2.7011 11.1643 3.52992 11.7683L3.45347 12.3398L1.87152 12.9029C1.85934 12.9073 1.84728 12.912 1.83536 12.9171C1.34963 13.1246 0.833496 13.6089 0.833496 14.4069V18.4667C0.833496 18.8533 1.12693 19.1667 1.48891 19.1667H3.25852C3.62049 19.1667 3.91393 18.8533 3.91393 18.4667C3.91393 18.0801 3.62049 17.7667 3.25852 17.7667H2.14432V14.4069C2.14432 14.3811 2.14811 14.3657 2.15117 14.3568C2.15434 14.3474 2.15961 14.3365 2.16963 14.3234C2.19006 14.2965 2.23287 14.2577 2.30755 14.2234L4.25227 13.5311C4.48778 13.4472 4.65872 13.2285 4.69383 12.966L4.89046 11.4961C4.93142 11.1899 4.77929 10.8912 4.51629 10.7616C3.90264 10.4591 3.52068 9.80162 3.52068 9.08724V8.31728C3.52068 7.39044 4.08694 6.63157 4.88778 6.41615Z" fill="#FE9A00"/>
<path fill-rule="evenodd" clip-rule="evenodd" d="M8.32054 5.34312C8.32054 2.86628 10.1935 0.833313 12.6038 0.833313C15.0141 0.833313 16.887 2.86628 16.887 5.34312C16.887 5.36349 16.8862 5.38386 16.8844 5.40416C16.7597 6.86749 17.1358 8.31778 17.9307 9.44035C18.1477 9.74685 18.0889 10.1734 17.7974 10.407C16.9374 11.0963 15.914 11.5055 14.8444 11.5327L14.9601 12.477L17.8368 13.3329C17.8374 13.3331 17.8381 13.3333 17.8388 13.3335C18.6504 13.5711 19.1668 14.3666 19.1668 15.2083V19.2953C19.1668 19.6845 18.8575 20 18.476 20H6.52434C6.1428 20 5.8335 19.6845 5.8335 19.2953V15.2083C5.8335 14.3037 6.47766 13.5539 7.2306 13.3335C7.23129 13.3333 7.23197 13.3331 7.23265 13.3329L10.1377 12.4686L10.31 11.5312C9.244 11.494 8.19991 11.0892 7.3907 10.3908C7.12027 10.1574 7.06675 9.75322 7.26679 9.45501C8.07729 8.24675 8.44708 6.85795 8.32314 5.40416C8.32141 5.38386 8.32054 5.36349 8.32054 5.34312ZM9.70235 5.31467C9.82743 6.85623 9.49758 8.3405 8.76751 9.66067C9.44332 10.056 10.2594 10.2143 11.033 10.075C11.2562 10.0348 11.4846 10.109 11.6441 10.2734C11.8036 10.4378 11.8738 10.6715 11.832 10.8988L11.4175 13.1537C11.3695 13.4147 11.1818 13.626 10.9319 13.7003L7.61224 14.688C7.39888 14.7501 7.21519 14.9863 7.21519 15.2083V18.5907H17.7851V15.2083C17.7851 14.9233 17.6116 14.733 17.4572 14.6879L17.4535 14.6869L14.1375 13.7003C13.8729 13.6217 13.6796 13.3902 13.6454 13.1113L13.3691 10.8564C13.3419 10.6344 13.4196 10.4125 13.5785 10.2583C13.7374 10.1042 13.9587 10.0362 14.1746 10.075C14.9392 10.2127 15.7178 10.061 16.4246 9.6543C15.7001 8.36233 15.382 6.83461 15.5052 5.31468C15.4912 3.57743 14.1918 2.24263 12.6038 2.24263C11.0158 2.24263 9.71639 3.57742 9.70235 5.31467Z" fill="#EE0033"/>
</svg>
