<svg width="14" height="14" viewBox="0 0 14 14" fill="none" xmlns="http://www.w3.org/2000/svg">
<g clip-path="url(#clip0)">
<path fill-rule="evenodd" clip-rule="evenodd" d="M9.7318 13.8217C9.48328 13.584 9.48328 13.1986 9.7318 12.9609L12.4636 10.3478L9.7318 7.73475C9.48328 7.49704 9.48328 7.11164 9.7318 6.87393C9.98031 6.63622 10.3832 6.63622 10.6318 6.87393L13.8136 9.91741C14.0621 10.1551 14.0621 10.5405 13.8136 10.7782L10.6318 13.8217C10.3832 14.0594 9.98031 14.0594 9.7318 13.8217Z" fill="#EE0033"/>
<path fill-rule="evenodd" clip-rule="evenodd" d="M-2.78163e-08 10.3478C-4.31789e-08 10.0117 0.28491 9.73915 0.636364 9.73915L13.3636 9.73915C13.7151 9.73915 14 10.0117 14 10.3478C14 10.684 13.7151 10.9565 13.3636 10.9565L0.636364 10.9565C0.28491 10.9565 -1.24538e-08 10.684 -2.78163e-08 10.3478Z" fill="#EE0033"/>
<path fill-rule="evenodd" clip-rule="evenodd" d="M4.26796 0.178283C4.51647 0.415994 4.51647 0.801399 4.26796 1.03911L1.53612 3.65218L4.26796 6.26525C4.51647 6.50296 4.51647 6.88836 4.26796 7.12607C4.01944 7.36378 3.61652 7.36378 3.368 7.12607L0.186187 4.08259C-0.0623285 3.84488 -0.0623285 3.45948 0.186187 3.22177L3.36801 0.178283C3.61652 -0.0594277 4.01944 -0.0594277 4.26796 0.178283Z" fill="#EE0033"/>
<path fill-rule="evenodd" clip-rule="evenodd" d="M14 3.65215C14 3.98833 13.7151 4.26085 13.3636 4.26085L0.636364 4.26085C0.28491 4.26085 -4.31789e-08 3.98833 -2.78163e-08 3.65215C-1.24538e-08 3.31598 0.28491 3.04346 0.636364 3.04346L13.3636 3.04346C13.7151 3.04346 14 3.31598 14 3.65215Z" fill="#EE0033"/>
</g>
<defs>
<clipPath id="clip0">
<rect width="14" height="14" fill="white"/>
</clipPath>
</defs>
</svg>
