<svg width="23" height="24" viewBox="0 0 23 24" fill="none" xmlns="http://www.w3.org/2000/svg">
<path fill-rule="evenodd" clip-rule="evenodd" d="M2.15625 1.58728C1.76258 1.58728 1.4375 1.91236 1.4375 2.30603V8.05603C1.4375 8.4497 1.76258 8.77478 2.15625 8.77478H7.90625C8.29992 8.77478 8.625 8.4497 8.625 8.05603V2.30603C8.625 1.91236 8.29992 1.58728 7.90625 1.58728H2.15625ZM0 2.30603C0 1.11845 0.96867 0.14978 2.15625 0.14978H7.90625C9.09383 0.14978 10.0625 1.11845 10.0625 2.30603V8.05603C10.0625 9.24361 9.09383 10.2123 7.90625 10.2123H2.15625C0.96867 10.2123 0 9.24361 0 8.05603V2.30603Z" fill="#EE0033"/>
<path fill-rule="evenodd" clip-rule="evenodd" d="M18.2508 1.73621C18.1003 1.58565 17.8366 1.58565 17.6861 1.73621L14.5236 4.89871C14.373 5.04927 14.373 5.31293 14.5236 5.4635L17.6861 8.626C17.8366 8.77656 18.1003 8.77656 18.2508 8.626L21.4134 5.4635C21.5639 5.31293 21.5639 5.04927 21.4134 4.89871L18.2508 1.73621ZM16.6696 0.719746C17.3815 0.00780618 18.5554 0.00780618 19.2673 0.719746L22.4298 3.88225C23.1418 4.59418 23.1418 5.76802 22.4298 6.47996L19.2673 9.64246C18.5554 10.3544 17.3815 10.3544 16.6696 9.64246L13.5071 6.47996C12.7952 5.76802 12.7952 4.59418 13.5071 3.88225L16.6696 0.719746Z" fill="#FE9A00"/>
<path fill-rule="evenodd" clip-rule="evenodd" d="M2.15625 14.5248C1.76258 14.5248 1.4375 14.8499 1.4375 15.2435V20.9935C1.4375 21.3872 1.76258 21.7123 2.15625 21.7123H7.90625C8.29992 21.7123 8.625 21.3872 8.625 20.9935V15.2435C8.625 14.8499 8.29992 14.5248 7.90625 14.5248H2.15625ZM0 15.2435C0 14.056 0.96867 13.0873 2.15625 13.0873H7.90625C9.09383 13.0873 10.0625 14.056 10.0625 15.2435V20.9935C10.0625 22.1811 9.09383 23.1498 7.90625 23.1498H2.15625C0.96867 23.1498 0 22.1811 0 20.9935V15.2435Z" fill="#EE0033"/>
<path fill-rule="evenodd" clip-rule="evenodd" d="M15.0938 14.5248C14.7001 14.5248 14.375 14.8499 14.375 15.2435V20.9935C14.375 21.3872 14.7001 21.7123 15.0938 21.7123H20.8438C21.2374 21.7123 21.5625 21.3872 21.5625 20.9935V15.2435C21.5625 14.8499 21.2374 14.5248 20.8438 14.5248H15.0938ZM12.9375 15.2435C12.9375 14.056 13.9062 13.0873 15.0938 13.0873H20.8438C22.0313 13.0873 23 14.056 23 15.2435V20.9935C23 22.1811 22.0313 23.1498 20.8438 23.1498H15.0938C13.9062 23.1498 12.9375 22.1811 12.9375 20.9935V15.2435Z" fill="#EE0033"/>
</svg>
