<svg width="24" height="24" viewBox="0 0 24 24" fill="none" xmlns="http://www.w3.org/2000/svg">
<path d="M12.1648 8.19531L9.76666 10.5049C9.61677 10.6492 9.37695 10.5337 9.37695 10.3605V8.19531H12.1648Z" fill="#92001F"/>
<path d="M8.11908 9.63916H14.0846C15.4036 9.63916 16.4828 8.59986 16.4828 7.32961V4.18286C16.4828 3.86529 16.213 3.60547 15.8832 3.60547H8.11908C7.78933 3.60547 7.51953 3.86529 7.51953 4.18286V9.09064C7.51953 9.37933 7.78933 9.63916 8.11908 9.63916Z" fill="#EE0033"/>
<path d="M18.9013 13.9428V13.1328C18.9013 12.4999 18.5805 11.8924 18.0376 11.5886C17.4947 11.2595 16.8285 11.2595 16.2856 11.5886C15.7427 11.9177 15.4219 12.4999 15.4219 13.1328V13.9428C15.4219 14.4998 15.718 15.0314 16.1869 15.3098C16.8038 15.6642 17.5441 15.6642 18.1363 15.3098C18.6052 15.0314 18.9013 14.4998 18.9013 13.9428Z" fill="#C4C4C4"/>
<path d="M17.1616 16.4512C15.1381 16.4512 13.5094 18.046 13.3613 20.0964C14.5458 20.2736 15.829 20.3749 17.1616 20.3749C18.4941 20.3749 19.7773 20.2736 20.9618 20.0964C20.8137 18.046 19.1851 16.4512 17.1616 16.4512Z" fill="#C4C4C4"/>
<path d="M8.57904 13.9428V13.1328C8.57904 12.4999 8.25824 11.8924 7.71535 11.5886C7.17246 11.2595 6.50619 11.2595 5.9633 11.5886C5.42041 11.9177 5.09961 12.4999 5.09961 13.1328V13.9428C5.09961 14.4998 5.39573 15.0314 5.86459 15.3098C6.48151 15.6642 7.22182 15.6642 7.81406 15.3098C8.28292 15.0314 8.57904 14.4998 8.57904 13.9428Z" fill="#C4C4C4"/>
<path d="M6.8393 16.4512C4.81579 16.4512 3.18712 18.046 3.03906 20.0964C4.22355 20.2736 5.50675 20.3749 6.8393 20.3749C8.17184 20.3749 9.45504 20.2736 10.6395 20.0964C10.4915 18.046 8.8628 16.4512 6.8393 16.4512Z" fill="#C4C4C4"/>
<path d="M14.1152 5.0332H8.90625V5.50175H14.1152V5.0332Z" fill="white"/>
<path d="M14.1152 6.16406H8.90625V6.63261H14.1152V6.16406Z" fill="white"/>
<path d="M11.5107 7.29688H8.90625V7.76542H11.5107V7.29688Z" fill="white"/>
<path d="M7.41388 19.9503C8.30057 20.1435 9.25841 20.2571 10.2229 20.3578C10.3438 20.3644 10.466 20.3469 10.5908 20.2813C10.8404 20.1499 10.9744 19.9158 10.9405 19.6483C10.8328 18.5075 10.0141 17.7082 8.96674 17.1502C8.15376 17.8304 7.57085 18.8481 7.41388 19.9503Z" fill="#DCDCDC"/>
<path d="M16.2416 19.9252C15.3575 20.1178 14.5093 20.1532 13.5477 20.2537C13.4272 20.2602 13.3053 20.2428 13.1809 20.1773C12.932 20.0464 12.7984 19.8129 12.8323 19.5462C12.9396 18.4088 13.8739 17.7568 14.9182 17.2005C15.7288 17.8787 16.0851 18.8262 16.2416 19.9252Z" fill="#DCDCDC"/>
<path d="M11.9995 16.4512C9.97595 16.4512 8.34728 18.046 8.19922 20.0964C9.38371 20.2736 10.6669 20.3749 11.9995 20.3749C13.332 20.3749 14.6152 20.2736 15.7997 20.0964C15.6516 18.046 14.023 16.4512 11.9995 16.4512Z" fill="#EE0033"/>
<path d="M13.7392 13.9428V13.1328C13.7392 12.4999 13.4184 11.8924 12.8755 11.5886C12.3326 11.2595 11.6663 11.2595 11.1235 11.5886C10.5806 11.9177 10.2598 12.4999 10.2598 13.1328V13.9428C10.2598 14.4998 10.5559 15.0314 11.0247 15.3098C11.6417 15.6642 12.382 15.6642 12.9742 15.3098C13.4431 15.0314 13.7392 14.4998 13.7392 13.9428Z" fill="#EE0033"/>
</svg>
