<svg width="23" height="22" viewBox="0 0 23 22" fill="none" xmlns="http://www.w3.org/2000/svg">
<path fill-rule="evenodd" clip-rule="evenodd" d="M1.42578 11C1.42578 10.6548 1.7056 10.375 2.05078 10.375H20.8008C21.146 10.375 21.4258 10.6548 21.4258 11C21.4258 11.3452 21.146 11.625 20.8008 11.625H2.05078C1.7056 11.625 1.42578 11.3452 1.42578 11Z" fill="white" stroke="white" stroke-width="2" stroke-linecap="round" stroke-linejoin="round"/>
<path fill-rule="evenodd" clip-rule="evenodd" d="M10.9838 1.18306C11.2279 0.938981 11.6236 0.938981 11.8677 1.18306L21.2427 10.5581C21.4868 10.8021 21.4868 11.1979 21.2427 11.4419L11.8677 20.8169C11.6236 21.061 11.2279 21.061 10.9838 20.8169C10.7398 20.5729 10.7398 20.1771 10.9838 19.9331L19.9169 11L10.9838 2.06694C10.7398 1.82286 10.7398 1.42714 10.9838 1.18306Z" fill="white" stroke="white" stroke-width="2" stroke-linecap="round" stroke-linejoin="round"/>
</svg>
