<svg width="19" height="19" viewBox="0 0 19 19" fill="none" xmlns="http://www.w3.org/2000/svg">
<g clip-path="url(#clip0)">
<path d="M15.8332 12.6667V6.33333C15.8332 5.45888 15.1243 4.75 14.2498 4.75H4.74984C3.87539 4.75 3.1665 5.45888 3.1665 6.33333V12.6667C3.1665 13.5411 3.87539 14.25 4.74984 14.25H14.2498C15.1243 14.25 15.8332 13.5411 15.8332 12.6667Z" stroke="#44494D" stroke-linecap="round" stroke-linejoin="round"/>
<path d="M6.38477 11.1875V9.45459H6.35986L5.83398 9.82373V9.46045L6.38623 9.07373H6.7627V11.1875H6.38477ZM7.34277 9.69189C7.34277 9.49463 7.41113 9.3335 7.54785 9.2085C7.68555 9.0835 7.86279 9.021 8.07959 9.021C8.28857 9.021 8.46045 9.07812 8.59521 9.19238C8.73096 9.30664 8.79883 9.45215 8.79883 9.62891C8.79883 9.74219 8.76465 9.85449 8.69629 9.96582C8.62793 10.0762 8.50391 10.2202 8.32422 10.3979L7.88184 10.8418V10.8667H8.83105V11.1875H7.36328V10.9253L8.06787 10.2046C8.2124 10.0581 8.30859 9.94824 8.35645 9.875C8.4043 9.80078 8.42822 9.72656 8.42822 9.65234C8.42822 9.55957 8.39404 9.48291 8.32568 9.42236C8.2583 9.36182 8.17236 9.33154 8.06787 9.33154C7.95752 9.33154 7.86816 9.36475 7.7998 9.43115C7.73145 9.49756 7.69727 9.58447 7.69727 9.69189V9.69775H7.34277V9.69189ZM9.73779 10.25V9.95703H9.99561C10.103 9.95703 10.1904 9.92773 10.2578 9.86914C10.3252 9.80957 10.3589 9.73242 10.3589 9.6377C10.3589 9.54395 10.3257 9.46924 10.2593 9.41357C10.1938 9.35693 10.106 9.32861 9.99561 9.32861C9.88623 9.32861 9.79736 9.35742 9.729 9.41504C9.66162 9.47266 9.62451 9.55127 9.61768 9.65088H9.26465C9.27441 9.45654 9.3457 9.30322 9.47852 9.19092C9.61133 9.07764 9.7876 9.021 10.0073 9.021C10.2124 9.021 10.3828 9.07471 10.5186 9.18213C10.6553 9.28857 10.7236 9.42285 10.7236 9.58496C10.7236 9.70898 10.689 9.81494 10.6196 9.90283C10.5513 9.99072 10.4585 10.0469 10.3413 10.0713V10.0962C10.4858 10.1128 10.5996 10.167 10.6826 10.2588C10.7666 10.3506 10.8086 10.4668 10.8086 10.6074C10.8086 10.7891 10.7324 10.9399 10.5801 11.0601C10.4287 11.1802 10.2383 11.2402 10.0088 11.2402C9.78125 11.2402 9.5957 11.1821 9.45215 11.0659C9.30957 10.9497 9.2334 10.7949 9.22363 10.6016H9.58545C9.59326 10.6992 9.63574 10.7773 9.71289 10.8359C9.79004 10.8936 9.88965 10.9224 10.0117 10.9224C10.1328 10.9224 10.2314 10.8911 10.3076 10.8286C10.3848 10.7651 10.4233 10.6836 10.4233 10.584C10.4233 10.4805 10.3857 10.3989 10.3105 10.3394C10.2354 10.2798 10.1328 10.25 10.0029 10.25H9.73779ZM12.1958 11.1875V10.7935H11.1631V10.4565C11.335 10.1401 11.6221 9.6792 12.0244 9.07373H12.5576V10.4741H12.8433V10.7935H12.5576V11.1875H12.1958ZM11.5132 10.4609V10.4829H12.2017V9.38135H12.1812C11.9526 9.71924 11.73 10.0791 11.5132 10.4609Z" fill="#44494D"/>
<path d="M6.38477 11.1875H6.33477V11.2375H6.38477V11.1875ZM6.38477 9.45459H6.43477V9.40459H6.38477V9.45459ZM6.35986 9.45459V9.40459H6.34407L6.33114 9.41367L6.35986 9.45459ZM5.83398 9.82373H5.78398V9.91992L5.86271 9.86465L5.83398 9.82373ZM5.83398 9.46045L5.8053 9.41949L5.78398 9.43442V9.46045H5.83398ZM6.38623 9.07373V9.02373H6.37046L6.35755 9.03277L6.38623 9.07373ZM6.7627 9.07373H6.8127V9.02373H6.7627V9.07373ZM6.7627 11.1875V11.2375H6.8127V11.1875H6.7627ZM6.43477 11.1875V9.45459H6.33477V11.1875H6.43477ZM6.38477 9.40459H6.35986V9.50459H6.38477V9.40459ZM6.33114 9.41367L5.80526 9.78281L5.86271 9.86465L6.38859 9.49551L6.33114 9.41367ZM5.88398 9.82373V9.46045H5.78398V9.82373H5.88398ZM5.86266 9.50141L6.41491 9.11469L6.35755 9.03277L5.8053 9.41949L5.86266 9.50141ZM6.38623 9.12373H6.7627V9.02373H6.38623V9.12373ZM6.7127 9.07373V11.1875H6.8127V9.07373H6.7127ZM6.7627 11.1375H6.38477V11.2375H6.7627V11.1375ZM7.54785 9.2085L7.51424 9.17148L7.51411 9.17159L7.54785 9.2085ZM8.59521 9.19238L8.56288 9.23052L8.56302 9.23064L8.59521 9.19238ZM8.69629 9.96582L8.73879 9.99215L8.7389 9.99198L8.69629 9.96582ZM8.32422 10.3979L8.28906 10.3624L8.28881 10.3627L8.32422 10.3979ZM7.88184 10.8418L7.84642 10.8065L7.83184 10.8211V10.8418H7.88184ZM7.88184 10.8667H7.83184V10.9167H7.88184V10.8667ZM8.83105 10.8667H8.88105V10.8167H8.83105V10.8667ZM8.83105 11.1875V11.2375H8.88105V11.1875H8.83105ZM7.36328 11.1875H7.31328V11.2375H7.36328V11.1875ZM7.36328 10.9253L7.32753 10.8903L7.31328 10.9049V10.9253H7.36328ZM8.06787 10.2046L8.03228 10.1695L8.03212 10.1696L8.06787 10.2046ZM8.35645 9.875L8.3983 9.90235L8.39847 9.90209L8.35645 9.875ZM8.32568 9.42236L8.29226 9.45956L8.29253 9.45979L8.32568 9.42236ZM7.69727 9.69775V9.74775H7.74727V9.69775H7.69727ZM7.34277 9.69775H7.29277V9.74775H7.34277V9.69775ZM7.39277 9.69189C7.39277 9.50764 7.45596 9.36026 7.58159 9.2454L7.51411 9.17159C7.3663 9.30674 7.29277 9.48162 7.29277 9.69189H7.39277ZM7.58146 9.24552C7.70845 9.13023 7.87303 9.071 8.07959 9.071V8.971C7.85256 8.971 7.66264 9.03676 7.51424 9.17148L7.58146 9.24552ZM8.07959 9.071C8.279 9.071 8.43874 9.12527 8.56288 9.23052L8.62755 9.15425C8.48216 9.03098 8.29814 8.971 8.07959 8.971V9.071ZM8.56302 9.23064C8.68752 9.33543 8.74883 9.46697 8.74883 9.62891H8.84883C8.84883 9.43733 8.77439 9.27785 8.62741 9.15413L8.56302 9.23064ZM8.74883 9.62891C8.74883 9.73161 8.71796 9.83497 8.65368 9.93966L8.7389 9.99198C8.81134 9.87401 8.84883 9.75277 8.84883 9.62891H8.74883ZM8.65378 9.93949C8.58863 10.0447 8.46805 10.1854 8.28906 10.3624L8.35938 10.4335C8.53976 10.2551 8.66723 10.1077 8.73879 9.99215L8.65378 9.93949ZM8.28881 10.3627L7.84642 10.8065L7.91725 10.8771L8.35963 10.4332L8.28881 10.3627ZM7.83184 10.8418V10.8667H7.93184V10.8418H7.83184ZM7.88184 10.9167H8.83105V10.8167H7.88184V10.9167ZM8.78105 10.8667V11.1875H8.88105V10.8667H8.78105ZM8.83105 11.1375H7.36328V11.2375H8.83105V11.1375ZM7.41328 11.1875V10.9253H7.31328V11.1875H7.41328ZM7.39903 10.9602L8.10362 10.2395L8.03212 10.1696L7.32753 10.8903L7.39903 10.9602ZM8.10346 10.2397C8.24805 10.0932 8.34744 9.98019 8.3983 9.90235L8.31459 9.84765C8.26974 9.91629 8.17675 10.023 8.03228 10.1695L8.10346 10.2397ZM8.39847 9.90209C8.45052 9.82135 8.47822 9.73787 8.47822 9.65234H8.37822C8.37822 9.71526 8.35807 9.78021 8.31442 9.84791L8.39847 9.90209ZM8.47822 9.65234C8.47822 9.54552 8.4381 9.45514 8.35884 9.38493L8.29253 9.45979C8.34998 9.51068 8.37822 9.57362 8.37822 9.65234H8.47822ZM8.3591 9.38517C8.28114 9.31512 8.18268 9.28154 8.06787 9.28154V9.38154C8.16204 9.38154 8.23546 9.40851 8.29227 9.45955L8.3591 9.38517ZM8.06787 9.28154C7.94672 9.28154 7.84413 9.31838 7.76497 9.39529L7.83464 9.46702C7.8922 9.41111 7.96832 9.38154 8.06787 9.38154V9.28154ZM7.76497 9.39529C7.68564 9.47235 7.64727 9.57284 7.64727 9.69189H7.74727C7.74727 9.5961 7.77725 9.52277 7.83464 9.46702L7.76497 9.39529ZM7.64727 9.69189V9.69775H7.74727V9.69189H7.64727ZM7.69727 9.64775H7.34277V9.74775H7.69727V9.64775ZM7.39277 9.69775V9.69189H7.29277V9.69775H7.39277ZM9.73779 10.25H9.68779V10.3H9.73779V10.25ZM9.73779 9.95703V9.90703H9.68779V9.95703H9.73779ZM10.2578 9.86914L10.2906 9.90687L10.2909 9.9066L10.2578 9.86914ZM10.2593 9.41357L10.2265 9.45138L10.2272 9.45189L10.2593 9.41357ZM9.729 9.41504L9.69678 9.37681L9.69651 9.37704L9.729 9.41504ZM9.61768 9.65088V9.70088H9.66436L9.66756 9.6543L9.61768 9.65088ZM9.26465 9.65088L9.21471 9.64837L9.21207 9.70088H9.26465V9.65088ZM9.47852 9.19092L9.5108 9.2291L9.51096 9.22896L9.47852 9.19092ZM10.5186 9.18213L10.4875 9.22134L10.4878 9.22158L10.5186 9.18213ZM10.6196 9.90283L10.5804 9.87186L10.5802 9.87214L10.6196 9.90283ZM10.3413 10.0713L10.3311 10.0223L10.2913 10.0306V10.0713H10.3413ZM10.3413 10.0962H10.2913V10.1408L10.3356 10.1459L10.3413 10.0962ZM10.6826 10.2588L10.6455 10.2923L10.6457 10.2925L10.6826 10.2588ZM10.5801 11.0601L10.5491 11.0208L10.549 11.0209L10.5801 11.0601ZM9.45215 11.0659L9.42056 11.1047L9.42069 11.1048L9.45215 11.0659ZM9.22363 10.6016V10.5516H9.17104L9.1737 10.6041L9.22363 10.6016ZM9.58545 10.6016L9.63529 10.5976L9.63161 10.5516H9.58545V10.6016ZM9.71289 10.8359L9.68265 10.8758L9.68297 10.876L9.71289 10.8359ZM10.3076 10.8286L10.3393 10.8673L10.3394 10.8672L10.3076 10.8286ZM9.78779 10.25V9.95703H9.68779V10.25H9.78779ZM9.73779 10.007H9.99561V9.90703H9.73779V10.007ZM9.99561 10.007C10.1125 10.007 10.2124 9.97491 10.2906 9.90687L10.225 9.83141C10.1685 9.88056 10.0935 9.90703 9.99561 9.90703V10.007ZM10.2909 9.9066C10.3697 9.83698 10.4089 9.74589 10.4089 9.6377H10.3089C10.3089 9.71896 10.2807 9.78216 10.2247 9.83168L10.2909 9.9066ZM10.4089 9.6377C10.4089 9.53053 10.3702 9.44127 10.2914 9.37526L10.2272 9.45189C10.2812 9.49721 10.3089 9.55736 10.3089 9.6377H10.4089ZM10.292 9.37577C10.2152 9.30929 10.1146 9.27861 9.99561 9.27861V9.37861C10.0973 9.37861 10.1725 9.40457 10.2266 9.45138L10.292 9.37577ZM9.99561 9.27861C9.87717 9.27861 9.77605 9.31 9.69678 9.37681L9.76123 9.45327C9.81868 9.40485 9.89529 9.37861 9.99561 9.37861V9.27861ZM9.69651 9.37704C9.6176 9.44451 9.57542 9.5363 9.56779 9.64746L9.66756 9.6543C9.6736 9.56624 9.70565 9.5008 9.7615 9.45304L9.69651 9.37704ZM9.61768 9.60088H9.26465V9.70088H9.61768V9.60088ZM9.31459 9.65339C9.32375 9.47106 9.38987 9.33136 9.5108 9.2291L9.44623 9.15274C9.30154 9.27509 9.22508 9.44203 9.21471 9.64837L9.31459 9.65339ZM9.51096 9.22896C9.63258 9.12523 9.79632 9.071 10.0073 9.071V8.971C9.77887 8.971 9.59008 9.03004 9.44607 9.15288L9.51096 9.22896ZM10.0073 9.071C10.2033 9.071 10.3622 9.12214 10.4875 9.22134L10.5496 9.14292C10.4035 9.02728 10.2215 8.971 10.0073 8.971V9.071ZM10.4878 9.22158C10.6134 9.31931 10.6736 9.43946 10.6736 9.58496H10.7736C10.7736 9.40624 10.6972 9.25784 10.5493 9.14268L10.4878 9.22158ZM10.6736 9.58496C10.6736 9.69903 10.642 9.79375 10.5804 9.87186L10.6589 9.9338C10.7359 9.83613 10.7736 9.71894 10.7736 9.58496H10.6736ZM10.5802 9.87214C10.5197 9.94993 10.4376 10.0001 10.3311 10.0223L10.3515 10.1202C10.4794 10.0936 10.5829 10.0315 10.6591 9.93353L10.5802 9.87214ZM10.2913 10.0713V10.0962H10.3913V10.0713H10.2913ZM10.3356 10.1459C10.4703 10.1613 10.5721 10.2111 10.6455 10.2923L10.7197 10.2253C10.6271 10.1229 10.5014 10.0642 10.347 10.0465L10.3356 10.1459ZM10.6457 10.2925C10.7202 10.3739 10.7586 10.4775 10.7586 10.6074H10.8586C10.8586 10.4561 10.813 10.3273 10.7195 10.225L10.6457 10.2925ZM10.7586 10.6074C10.7586 10.7726 10.6904 10.9094 10.5491 11.0208L10.611 11.0993C10.7745 10.9705 10.8586 10.8055 10.8586 10.6074H10.7586ZM10.549 11.0209C10.4081 11.1327 10.2292 11.1902 10.0088 11.1902V11.2902C10.2474 11.2902 10.4494 11.2276 10.6112 11.0992L10.549 11.0209ZM10.0088 11.1902C9.78997 11.1902 9.61635 11.1345 9.48361 11.0271L9.42069 11.1048C9.57506 11.2297 9.77253 11.2902 10.0088 11.2902V11.1902ZM9.48374 11.0272C9.35276 10.9204 9.28266 10.7791 9.27357 10.599L9.1737 10.6041C9.18413 10.8107 9.26638 10.979 9.42056 11.1047L9.48374 11.0272ZM9.22363 10.6516H9.58545V10.5516H9.22363V10.6516ZM9.53561 10.6055C9.54454 10.7172 9.59402 10.8084 9.68265 10.8758L9.74313 10.7961C9.67746 10.7462 9.64198 10.6812 9.63529 10.5976L9.53561 10.6055ZM9.68297 10.876C9.77084 10.9416 9.88178 10.9724 10.0117 10.9724V10.8724C9.89752 10.8724 9.80924 10.8455 9.74281 10.7959L9.68297 10.876ZM10.0117 10.9724C10.1416 10.9724 10.2523 10.9387 10.3393 10.8673L10.2759 10.79C10.2106 10.8436 10.124 10.8724 10.0117 10.8724V10.9724ZM10.3394 10.8672C10.428 10.7943 10.4733 10.6986 10.4733 10.584H10.3733C10.3733 10.6686 10.3415 10.736 10.2758 10.79L10.3394 10.8672ZM10.4733 10.584C10.4733 10.4666 10.4298 10.37 10.3416 10.3002L10.2795 10.3785C10.3417 10.4278 10.3733 10.4944 10.3733 10.584H10.4733ZM10.3416 10.3002C10.2549 10.2315 10.1401 10.2 10.0029 10.2V10.3C10.1255 10.3 10.2158 10.3281 10.2795 10.3785L10.3416 10.3002ZM10.0029 10.2H9.73779V10.3H10.0029V10.2ZM12.1958 11.1875H12.1458V11.2375H12.1958V11.1875ZM12.1958 10.7935H12.2458V10.7435H12.1958V10.7935ZM11.1631 10.7935H11.1131V10.8435H11.1631V10.7935ZM11.1631 10.4565L11.1191 10.4327L11.1131 10.4438V10.4565H11.1631ZM12.0244 9.07373V9.02373H11.9976L11.9828 9.04606L12.0244 9.07373ZM12.5576 9.07373H12.6076V9.02373H12.5576V9.07373ZM12.5576 10.4741H12.5076V10.5241H12.5576V10.4741ZM12.8433 10.4741H12.8933V10.4241H12.8433V10.4741ZM12.8433 10.7935V10.8435H12.8933V10.7935H12.8433ZM12.5576 10.7935V10.7435H12.5076V10.7935H12.5576ZM12.5576 11.1875V11.2375H12.6076V11.1875H12.5576ZM11.5132 10.4609L11.4697 10.4363L11.4632 10.4477V10.4609H11.5132ZM11.5132 10.4829H11.4632V10.5329H11.5132V10.4829ZM12.2017 10.4829V10.5329H12.2517V10.4829H12.2017ZM12.2017 9.38135H12.2517V9.33135H12.2017V9.38135ZM12.1812 9.38135V9.33135H12.1546L12.1397 9.35334L12.1812 9.38135ZM12.2458 11.1875V10.7935H12.1458V11.1875H12.2458ZM12.1958 10.7435H11.1631V10.8435H12.1958V10.7435ZM11.2131 10.7935V10.4565H11.1131V10.7935H11.2131ZM11.207 10.4804C11.3778 10.166 11.6639 9.70661 12.0661 9.1014L11.9828 9.04606C11.5803 9.65179 11.2921 10.1142 11.1191 10.4327L11.207 10.4804ZM12.0244 9.12373H12.5576V9.02373H12.0244V9.12373ZM12.5076 9.07373V10.4741H12.6076V9.07373H12.5076ZM12.5576 10.5241H12.8433V10.4241H12.5576V10.5241ZM12.7933 10.4741V10.7935H12.8933V10.4741H12.7933ZM12.8433 10.7435H12.5576V10.8435H12.8433V10.7435ZM12.5076 10.7935V11.1875H12.6076V10.7935H12.5076ZM12.5576 11.1375H12.1958V11.2375H12.5576V11.1375ZM11.4632 10.4609V10.4829H11.5632V10.4609H11.4632ZM11.5132 10.5329H12.2017V10.4329H11.5132V10.5329ZM12.2517 10.4829V9.38135H12.1517V10.4829H12.2517ZM12.2017 9.33135H12.1812V9.43135H12.2017V9.33135ZM12.1397 9.35334C11.9104 9.69239 11.6871 10.0534 11.4697 10.4363L11.5567 10.4856C11.7729 10.1048 11.9948 9.74609 12.2226 9.40936L12.1397 9.35334Z" fill="#44494D"/>
</g>
<defs>
<clipPath id="clip0">
<rect width="19" height="19" fill="white"/>
</clipPath>
</defs>
</svg>
