<svg width="16" height="17" viewBox="0 0 16 17" fill="none" xmlns="http://www.w3.org/2000/svg">
<path fill-rule="evenodd" clip-rule="evenodd" d="M0 8.64151C0 8.35847 0.229445 8.12903 0.512479 8.12903H4.50582C4.78886 8.12903 5.0183 8.35847 5.0183 8.64151V13.6332C5.0183 15.0144 3.89036 16.1423 2.50915 16.1423C1.12795 16.1423 0 15.0144 0 13.6332V8.64151ZM1.02496 9.15399V13.6332C1.02496 14.4483 1.69402 15.1174 2.50915 15.1174C3.32429 15.1174 3.99334 14.4483 3.99334 13.6332V9.15399H1.02496Z" fill="#EE0033"/>
<path fill-rule="evenodd" clip-rule="evenodd" d="M3.99325 0.654813C3.99325 0.371779 4.2227 0.142334 4.50573 0.142334H15.4874C15.7705 0.142334 15.9999 0.371779 15.9999 0.654813V13.6332C15.9999 15.0144 14.872 16.1423 13.4908 16.1423H2.50906C2.22603 16.1423 1.99658 15.9129 1.99658 15.6299C1.99658 15.3468 2.22603 15.1174 2.50906 15.1174H13.4908C14.3059 15.1174 14.975 14.4483 14.975 13.6332V1.16729H5.01821V8.6415C5.01821 8.92454 4.78877 9.15398 4.50573 9.15398C4.2227 9.15398 3.99325 8.92454 3.99325 8.6415V0.654813Z" fill="#EE0033"/>
<path fill-rule="evenodd" clip-rule="evenodd" d="M6.98828 3.64981C6.98828 3.36677 7.21773 3.13733 7.50076 3.13733H12.4924C12.7755 3.13733 13.0049 3.36677 13.0049 3.64981C13.0049 3.93284 12.7755 4.16229 12.4924 4.16229H7.50076C7.21773 4.16229 6.98828 3.93284 6.98828 3.64981Z" fill="#EE0033"/>
<path fill-rule="evenodd" clip-rule="evenodd" d="M6.98828 6.6448C6.98828 6.36177 7.21773 6.13232 7.50076 6.13232H12.4924C12.7755 6.13232 13.0049 6.36177 13.0049 6.6448C13.0049 6.92784 12.7755 7.15728 12.4924 7.15728H7.50076C7.21773 7.15728 6.98828 6.92784 6.98828 6.6448Z" fill="#EE0033"/>
<path fill-rule="evenodd" clip-rule="evenodd" d="M6.98828 9.6398C6.98828 9.35676 7.21773 9.12732 7.50076 9.12732H12.4924C12.7755 9.12732 13.0049 9.35676 13.0049 9.6398C13.0049 9.92283 12.7755 10.1523 12.4924 10.1523H7.50076C7.21773 10.1523 6.98828 9.92283 6.98828 9.6398Z" fill="#EE0033"/>
<path fill-rule="evenodd" clip-rule="evenodd" d="M6.98828 12.6349C6.98828 12.3519 7.21773 12.1224 7.50076 12.1224H9.49743C9.78047 12.1224 10.0099 12.3519 10.0099 12.6349C10.0099 12.918 9.78047 13.1474 9.49743 13.1474H7.50076C7.21773 13.1474 6.98828 12.918 6.98828 12.6349Z" fill="#EE0033"/>
</svg>
