<svg width="40" height="40" viewBox="0 0 40 40" fill="none" xmlns="http://www.w3.org/2000/svg">
<g clip-path="url(#clip0)">
<path d="M37 31.1898C37 34.3986 34.4751 37 31.3607 37H9.63933C6.52489 37 4 34.3986 4 31.1898V8.81022C4 5.60141 6.52489 3 9.63933 3H31.3607C34.4751 3 37 5.60141 37 8.81022V31.1898Z" fill="#C4C4C4"/>
<path d="M26.6439 37.0002V23.9459H30.8963L31.5342 18.8576H26.6439V15.6114C26.6439 14.1377 27.0401 13.1345 29.0915 13.1345H31.7058V8.58392C31.2539 8.52168 29.7028 8.38477 27.8955 8.38477C24.1263 8.38477 21.5458 10.7547 21.5458 15.1086V18.8601H17.2812V23.9484H21.5458V37.0027H26.6439V37.0002Z" fill="#EE0033"/>
</g>
<defs>
<clipPath id="clip0">
<rect width="33" height="34" fill="white" transform="translate(4 3)"/>
</clipPath>
</defs>
</svg>
