<svg width="30" height="30" viewBox="0 0 30 30" fill="none" xmlns="http://www.w3.org/2000/svg">
<path d="M8.4789 26.9568H21.5212C22.6363 26.9568 23.5406 25.983 23.5406 24.7822V15V8.16759C22.6865 7.31354 18.4162 3.04326 18.4162 3.04326H8.4789C7.36378 3.04326 6.45947 4.01704 6.45947 5.21782V24.7806C6.45947 25.983 7.36378 26.9568 8.4789 26.9568Z" fill="#DCDCDC"/>
<path d="M18.4163 8.16759V3.04326L23.5406 8.16759H18.4163Z" fill="#828282"/>
<path fill-rule="evenodd" clip-rule="evenodd" d="M18.2254 11.1234C17.7265 11.1234 17.274 11.4161 17.0694 11.8712L15.0004 16.4743L12.913 11.9084C12.7067 11.4573 12.2563 11.168 11.7603 11.168L9.9541 11.168L13.3499 17.9427C13.4992 18.2975 14.0128 18.8766 14.9726 18.8766C15.9367 18.8766 16.4787 18.2927 16.6414 17.9489L20.045 11.1234H18.2254Z" fill="#EE0033"/>
<mask id="mask0_4429_132587" style="mask-type:alpha" maskUnits="userSpaceOnUse" x="9" y="11" width="12" height="8">
<path fill-rule="evenodd" clip-rule="evenodd" d="M18.2254 11.1234C17.7265 11.1234 17.274 11.4161 17.0694 11.8712L15.0004 16.4743L12.913 11.9084C12.7067 11.4573 12.2563 11.168 11.7603 11.168L9.9541 11.168L13.3499 17.9427C13.4992 18.2975 14.0128 18.8766 14.9726 18.8766C15.9367 18.8766 16.4787 18.2927 16.6414 17.9489L20.045 11.1234H18.2254Z" fill="#EE0033"/>
</mask>
<g mask="url(#mask0_4429_132587)">
<rect x="14.9851" y="6.84377" width="14.3906" height="14.3906" fill="#92001F"/>
</g>
</svg>
