<svg width="20" height="20" viewBox="0 0 20 20" fill="none" xmlns="http://www.w3.org/2000/svg">
<path d="M4.99984 19.1667C5.46007 19.1667 5.83317 18.7936 5.83317 18.3333C5.83317 17.8731 5.46007 17.5 4.99984 17.5C4.5396 17.5 4.1665 17.8731 4.1665 18.3333C4.1665 18.7936 4.5396 19.1667 4.99984 19.1667Z" fill="#EE0033"/>
<path d="M16.6668 19.1667C17.1271 19.1667 17.5002 18.7936 17.5002 18.3333C17.5002 17.8731 17.1271 17.5 16.6668 17.5C16.2066 17.5 15.8335 17.8731 15.8335 18.3333C15.8335 18.7936 16.2066 19.1667 16.6668 19.1667Z" fill="#EE0033"/>
<path fill-rule="evenodd" clip-rule="evenodd" d="M3.3335 18.3333C3.3335 17.4128 4.07969 16.6666 5.00016 16.6666C5.92064 16.6666 6.66683 17.4128 6.66683 18.3333C6.66683 19.2538 5.92064 20 5.00016 20C4.07969 20 3.3335 19.2538 3.3335 18.3333Z" fill="#FE9A00"/>
<path fill-rule="evenodd" clip-rule="evenodd" d="M15 18.3333C15 17.4128 15.7462 16.6666 16.6667 16.6666C17.5871 16.6666 18.3333 17.4128 18.3333 18.3333C18.3333 19.2538 17.5871 20 16.6667 20C15.7462 20 15 19.2538 15 18.3333Z" fill="#FE9A00"/>
<path fill-rule="evenodd" clip-rule="evenodd" d="M0 1.66665C0 1.20641 0.373096 0.833313 0.833333 0.833313H3.33333C3.751 0.833313 4.10416 1.1425 4.15936 1.55651L4.61849 4.99998H18.3333C18.583 4.99998 18.8195 5.11192 18.9778 5.30499C19.1361 5.49806 19.1994 5.75193 19.1505 5.99674L17.4838 14.3301C17.4059 14.7196 17.0639 15 16.6667 15H5C4.58233 15 4.22918 14.6908 4.17398 14.2768L2.60374 2.49998H0.833333C0.373096 2.49998 0 2.12688 0 1.66665ZM4.84071 6.66665L5.7296 13.3333H15.9835L17.3168 6.66665H4.84071Z" fill="#EE0033"/>
</svg>
