<svg width="23" height="22" viewBox="0 0 23 22" fill="none" xmlns="http://www.w3.org/2000/svg">
<path d="M13.9589 15.2116L13.4227 14.6783C12.6854 13.9449 11.4789 13.9449 10.7416 14.6783C10.6076 14.8116 10.5405 14.9783 10.5405 15.1449C10.5405 15.4783 10.3059 15.7449 10.0043 15.7783C8.9319 15.9116 7.82596 15.5783 7.02165 14.7783C6.21733 13.9783 5.8822 12.8783 6.01625 11.8116C6.04977 11.5116 6.35138 11.2783 6.653 11.2783C6.82057 11.2783 6.98813 11.2116 7.12219 11.0783C7.85948 10.345 7.85948 9.14499 7.12219 8.41167L6.58598 7.87834C5.81517 7.11168 4.50816 7.21168 3.90492 8.11167C3.26817 9.04499 2.96655 10.1783 3.03358 11.3116C3.13412 13.145 3.93844 14.9783 5.34599 16.4116C6.75354 17.8449 8.63028 18.6116 10.4735 18.7449C11.613 18.8116 12.7524 18.5116 13.6908 17.8782C14.6291 17.2782 14.7297 15.9783 13.9589 15.2116Z" fill="#EE0033"/>
<path d="M11.0674 3C15.5095 3 19.1106 6.58172 19.1106 11M11.0674 6.63636C13.4904 6.63636 15.4546 8.59003 15.4546 11M11.0674 9.54545C11.875 9.54545 12.5298 10.1967 12.5298 11" stroke="#C4C4C4" stroke-linecap="round" stroke-linejoin="round"/>
</svg>
