<svg width="12" height="12" viewBox="0 0 12 12" fill="none" xmlns="http://www.w3.org/2000/svg">
<path fill-rule="evenodd" clip-rule="evenodd" d="M0.082188 3.16956C0.211567 3.00784 0.447551 2.98162 0.609274 3.111L6.00001 7.42359L11.3908 3.111C11.5525 2.98162 11.7885 3.00784 11.9178 3.16956C12.0472 3.33128 12.021 3.56727 11.8593 3.69665L6.23427 8.19665C6.09732 8.30621 5.90271 8.30621 5.76575 8.19665L0.140753 3.69665C-0.0209701 3.56727 -0.0471906 3.33128 0.082188 3.16956Z" fill="#FE9A00"/>
<path fill-rule="evenodd" clip-rule="evenodd" d="M1.125 2.25C0.873574 2.25 0.75 2.42123 0.75 2.53846V9.83654C0.75 9.95377 0.873574 10.125 1.125 10.125H10.875C11.1264 10.125 11.25 9.95377 11.25 9.83654V2.53846C11.25 2.42123 11.1264 2.25 10.875 2.25H1.125ZM0 2.53846C0 1.92323 0.548426 1.5 1.125 1.5H10.875C11.4516 1.5 12 1.92323 12 2.53846V9.83654C12 10.4518 11.4516 10.875 10.875 10.875H1.125C0.548426 10.875 0 10.4518 0 9.83654V2.53846Z" fill="#14AFB4"/>
</svg>
