<svg width="17" height="16" viewBox="0 0 17 16" fill="none" xmlns="http://www.w3.org/2000/svg">
<path fill-rule="evenodd" clip-rule="evenodd" d="M0.0397949 5C0.0397949 4.72386 0.264057 4.5 0.540697 4.5H15.5678C15.8444 4.5 16.0687 4.72386 16.0687 5C16.0687 5.27614 15.8444 5.5 15.5678 5.5H0.540697C0.264057 5.5 0.0397949 5.27614 0.0397949 5Z" fill="#EE0033"/>
<path fill-rule="evenodd" clip-rule="evenodd" d="M0.0397949 3C0.0397949 2.17386 0.714869 1.5 1.5425 1.5H14.566C15.3936 1.5 16.0687 2.17386 16.0687 3V6.94336C16.0687 7.2195 15.8444 7.44336 15.5678 7.44336C15.2911 7.44336 15.0669 7.2195 15.0669 6.94336V3C15.0669 2.72614 14.8403 2.5 14.566 2.5H1.5425C1.26815 2.5 1.0416 2.72614 1.0416 3V14C1.0416 14.2739 1.26815 14.5 1.5425 14.5H1.5488L1.54879 14.5L7.55962 14.5754C7.83624 14.5789 8.05767 14.8055 8.05419 15.0817C8.05072 15.3578 7.82366 15.5788 7.54704 15.5753L1.53901 15.5C0.71297 15.4981 0.0397949 14.825 0.0397949 14V3Z" fill="#EE0033"/>
<path fill-rule="evenodd" clip-rule="evenodd" d="M4.54802 0C4.82466 0 5.04893 0.223858 5.04893 0.5V2C5.04893 2.27614 4.82466 2.5 4.54802 2.5C4.27138 2.5 4.04712 2.27614 4.04712 2V0.5C4.04712 0.223858 4.27138 0 4.54802 0Z" fill="#EE0033"/>
<path fill-rule="evenodd" clip-rule="evenodd" d="M11.5605 0C11.8371 0 12.0614 0.223858 12.0614 0.5V2C12.0614 2.27614 11.8371 2.5 11.5605 2.5C11.2838 2.5 11.0596 2.27614 11.0596 2V0.5C11.0596 0.223858 11.2838 0 11.5605 0Z" fill="#EE0033"/>
<path fill-rule="evenodd" clip-rule="evenodd" d="M11.5606 7.5C9.62413 7.5 8.0543 9.067 8.0543 11C8.0543 12.933 9.62413 14.5 11.5606 14.5C13.4971 14.5 15.0669 12.933 15.0669 11C15.0669 9.067 13.4971 7.5 11.5606 7.5ZM7.05249 11C7.05249 8.51472 9.07085 6.5 11.5606 6.5C14.0504 6.5 16.0687 8.51472 16.0687 11C16.0687 13.4853 14.0504 15.5 11.5606 15.5C9.07085 15.5 7.05249 13.4853 7.05249 11Z" fill="#FE9A00"/>
<path fill-rule="evenodd" clip-rule="evenodd" d="M11.7108 8.6499C11.9875 8.6499 12.2117 8.87376 12.2117 9.1499V11.1499C12.2117 11.426 11.9875 11.6499 11.7108 11.6499H9.7072C9.43056 11.6499 9.2063 11.426 9.2063 11.1499C9.2063 10.8738 9.43056 10.6499 9.7072 10.6499H11.2099V9.1499C11.2099 8.87376 11.4342 8.6499 11.7108 8.6499Z" fill="#FE9A00"/>
</svg>
