<svg width="12" height="12" viewBox="0 0 12 12" fill="none" xmlns="http://www.w3.org/2000/svg">
<path fill-rule="evenodd" clip-rule="evenodd" d="M2 6C2 5.72386 2.22386 5.5 2.5 5.5H3.5C3.77614 5.5 4 5.72386 4 6V6.5C4 6.77614 3.77614 7 3.5 7H2.5C2.22386 7 2 6.77614 2 6.5V6Z" fill="#EE0033"/>
<path fill-rule="evenodd" clip-rule="evenodd" d="M5 6C5 5.72386 5.22386 5.5 5.5 5.5H6.5C6.77614 5.5 7 5.72386 7 6V6.5C7 6.77614 6.77614 7 6.5 7H5.5C5.22386 7 5 6.77614 5 6.5V6Z" fill="#EE0033"/>
<path fill-rule="evenodd" clip-rule="evenodd" d="M2 8.5C2 8.22385 2.22386 8 2.5 8H3.5C3.77614 8 4 8.22385 4 8.5V9C4 9.27614 3.77614 9.5 3.5 9.5H2.5C2.22386 9.5 2 9.27614 2 9V8.5Z" fill="#EE0033"/>
<path fill-rule="evenodd" clip-rule="evenodd" d="M5 8.5C5 8.22385 5.22386 8 5.5 8H6.5C6.77614 8 7 8.22385 7 8.5V9C7 9.27614 6.77614 9.5 6.5 9.5H5.5C5.22386 9.5 5 9.27614 5 9V8.5Z" fill="#EE0033"/>
<path fill-rule="evenodd" clip-rule="evenodd" d="M8 6C8 5.72386 8.22386 5.5 8.5 5.5H9.5C9.77614 5.5 10 5.72386 10 6V6.5C10 6.77614 9.77614 7 9.5 7H8.5C8.22386 7 8 6.77614 8 6.5V6Z" fill="#EE0033"/>
<path d="M3.5 6H2.5V6.5H3.5V6Z" fill="#EE0033"/>
<path d="M6.5 6H5.5V6.5H6.5V6Z" fill="#EE0033"/>
<path d="M3.5 8.5H2.5V9H3.5V8.5Z" fill="#EE0033"/>
<path d="M6.5 8.5H5.5V9H6.5V8.5Z" fill="#EE0033"/>
<path d="M9.5 6H8.5V6.5H9.5V6Z" fill="#EE0033"/>
<path fill-rule="evenodd" clip-rule="evenodd" d="M0 2C0 1.72386 0.223858 1.5 0.5 1.5H11.5C11.7761 1.5 12 1.72386 12 2V11C12 11.2761 11.7761 11.5 11.5 11.5H0.5C0.223858 11.5 0 11.2761 0 11V2ZM1 2.5V10.5H11V2.5H1Z" fill="#EE0033"/>
<path fill-rule="evenodd" clip-rule="evenodd" d="M8.5 0C8.77614 0 9 0.223858 9 0.5V2C9 2.27614 8.77614 2.5 8.5 2.5C8.22386 2.5 8 2.27614 8 2V0.5C8 0.223858 8.22386 0 8.5 0Z" fill="#EE0033"/>
<path fill-rule="evenodd" clip-rule="evenodd" d="M3.5 0C3.77614 0 4 0.223858 4 0.5V2C4 2.27614 3.77614 2.5 3.5 2.5C3.22386 2.5 3 2.27614 3 2V0.5C3 0.223858 3.22386 0 3.5 0Z" fill="#EE0033"/>
<path fill-rule="evenodd" clip-rule="evenodd" d="M0 4C0 3.72385 0.223858 3.5 0.5 3.5H11.5C11.7761 3.5 12 3.72385 12 4C12 4.27614 11.7761 4.5 11.5 4.5H0.5C0.223858 4.5 0 4.27614 0 4Z" fill="#EE0033"/>
</svg>
