<svg width="30" height="30" viewBox="0 0 30 30" fill="none" xmlns="http://www.w3.org/2000/svg">
<path d="M13.6705 3.55024L4.05684 9.82774C3.23866 10.409 2.72729 11.3971 2.72729 12.4434V23.7777C2.72729 25.4633 3.90343 26.8002 5.38638 26.8002H24.6136C26.0966 26.8002 27.2727 25.4633 27.2727 23.7777V12.4434C27.2727 11.339 26.7614 10.3509 25.9432 9.82774L16.3296 3.55024C15.5114 3.02712 14.4886 3.02712 13.6705 3.55024Z" fill="#DCDCDC"/>
<path d="M27.2727 23.8368V12.4443C27.2727 11.3399 26.7614 10.3518 25.9432 9.8287L18.0171 4.65558L11.7273 20.2912L19.7046 25.4062C21.1875 26.3943 22.9261 26.8593 24.6136 26.8593C26.0966 26.8593 27.2727 25.4643 27.2727 23.8368Z" fill="#828282"/>
<path d="M25.9432 9.82773L16.3296 3.55024C15.5114 3.02712 14.4886 3.02712 13.6705 3.55024L4.05684 9.82773C3.23866 10.409 2.72729 11.3971 2.72729 12.4434V12.6177C2.72729 13.7221 3.23866 14.7102 4.05684 15.2334L13.6705 21.569C14.4886 22.0921 15.5114 22.0921 16.3296 21.569L25.9432 15.2334C26.7614 14.7102 27.2727 13.7221 27.2727 12.6177V12.4434C27.2727 11.3971 26.7614 10.409 25.9432 9.82773Z" fill="#EE0033"/>
<path d="M2.72729 12.6187C2.72729 13.7231 3.23866 14.7112 4.05684 15.2343L13.6705 21.5699C14.4886 22.093 15.5114 22.093 16.3296 21.5699L25.9432 15.2343C26.7614 14.7112 27.2727 13.7231 27.2727 12.6187V12.4443C27.2727 12.3862 2.72729 12.6187 2.72729 12.6187Z" fill="#92001F"/>
</svg>
