<svg width="35" height="35" viewBox="0 0 35 35" fill="none" xmlns="http://www.w3.org/2000/svg">
<path d="M22.5448 9.47893V7.31549C22.5448 5.59747 21.669 4.0067 20.1677 3.11587C18.7288 2.22505 16.9147 2.22505 15.4133 3.11587C13.9745 4.0067 13.0361 5.59747 13.0361 7.31549V9.47893C13.0361 11.0061 13.8494 12.4059 15.1005 13.1695C16.727 14.124 18.7914 14.124 20.4179 13.1695C21.7316 12.4059 22.5448 11.0061 22.5448 9.47893Z" fill="#C4C4C4"/>
<path d="M24.7346 29.3314H10.8469C8.97018 29.3314 7.40625 27.7406 7.40625 25.8317C7.40625 19.9777 12.0355 15.269 17.7908 15.269C23.546 15.269 28.1753 19.9777 28.1753 25.8317C28.1753 27.7406 26.6739 29.3314 24.7346 29.3314Z" fill="#C4C4C4"/>
<path d="M18.1033 23.7323L18.0408 23.7959C17.9157 23.9232 17.728 23.9232 17.6654 23.7959L17.6029 23.7323C16.4143 22.5233 14.5376 22.3324 13.2239 23.4141C11.785 24.6231 11.7225 26.7865 13.0362 28.1228C13.2239 28.3137 13.4115 28.5046 13.6618 28.6954H22.1696C22.3572 28.5046 22.6075 28.3137 22.7951 28.1228C24.1088 26.7865 24.0463 24.6231 22.6075 23.4141C21.1686 22.3324 19.2294 22.5869 18.1033 23.7323Z" fill="#828282"/>
<path d="M21.1063 31.6861H14.4753C12.5985 31.6861 11.0972 30.1589 11.0972 28.25C11.0972 26.3411 12.5985 24.814 14.4753 24.814H21.1063C22.983 24.814 24.4844 26.3411 24.4844 28.25C24.4844 30.1589 22.983 31.6861 21.1063 31.6861Z" fill="#828282"/>
<path d="M12.0355 27.1681V23.4775L7.40625 25.8319V26.5318C7.40625 29.0134 9.03274 31.2405 11.4099 31.8768L16.2268 33.0221C17.0401 33.213 17.7908 32.6403 17.7908 31.8131C17.7908 31.3041 17.5405 30.8587 17.1026 30.6678L12.7236 28.3135C12.3483 28.0589 12.0355 27.6135 12.0355 27.1681Z" fill="#C4C4C4"/>
<path d="M23.5458 27.1681V23.4775L28.175 25.8319V26.5318C28.175 29.0134 26.5485 31.2405 24.1714 31.8768L19.3545 33.0221C18.5412 33.213 17.7905 32.6403 17.7905 31.8131C17.7905 31.3041 18.0408 30.8587 18.4787 30.6678L22.8577 28.3135C23.233 28.0589 23.5458 27.6135 23.5458 27.1681Z" fill="#C4C4C4"/>
<path d="M18.4789 30.604L19.8552 29.8404C20.6058 29.395 21.294 28.886 21.9195 28.2497C23.0456 27.1043 22.983 25.259 21.7319 24.241C20.6684 23.2865 19.0419 23.4774 18.041 24.4955L17.9784 24.5591C17.8533 24.6864 17.7282 24.6864 17.6031 24.5591L17.5405 24.4955C16.5396 23.4774 14.9131 23.2865 13.8497 24.241C12.6611 25.259 12.5985 27.1043 13.662 28.2497C14.2876 28.886 14.9757 29.395 15.7264 29.8404L17.1026 30.604C17.5405 30.7949 17.7908 31.2403 17.7908 31.7494C17.7908 31.2403 18.041 30.7949 18.4789 30.604Z" fill="#EE0033"/>
<path d="M14.6001 15.7781C15.2257 16.2235 16.4143 16.478 17.7905 16.478C19.1668 16.478 20.2928 16.1599 20.9809 15.7781C19.98 15.4599 18.9165 15.269 17.7905 15.269C16.6645 15.269 15.601 15.4599 14.6001 15.7781Z" fill="#828282"/>
</svg>
