<svg width="30" height="30" viewBox="0 0 30 30" fill="none" xmlns="http://www.w3.org/2000/svg">
<path d="M8.4789 26.9568H21.5212C22.6363 26.9568 23.5406 25.983 23.5406 24.7822V15V8.16758C22.6865 7.31352 18.4162 3.04324 18.4162 3.04324H8.4789C7.36378 3.04324 6.45947 4.01702 6.45947 5.2178V24.7806C6.45947 25.983 7.36378 26.9568 8.4789 26.9568Z" fill="#DCDCDC"/>
<path d="M18.416 8.16757V3.04324L23.5403 8.16757H18.416Z" fill="#828282"/>
<path fill-rule="evenodd" clip-rule="evenodd" d="M17.2284 11.7931C17.2818 11.704 17.2528 11.5884 17.1637 11.5349C17.0745 11.4815 16.9589 11.5105 16.9055 11.5996L16.7551 11.8505C16.489 11.7848 16.2002 11.8961 16.052 12.1435L15.5671 12.9526L15.1136 12.6808L15.3658 12.2599C15.4192 12.1708 15.3902 12.0552 15.3011 12.0017L13.36 10.8385C13.0564 10.6566 12.6628 10.7553 12.4809 11.0588L12.2483 11.4471C12.0664 11.7507 12.165 12.1443 12.4686 12.3262L14.4097 13.4894C14.4989 13.5428 14.6145 13.5138 14.6679 13.4247L14.9201 13.0038L15.3736 13.2755L15.1214 13.6965C14.9395 14 15.0382 14.3936 15.3417 14.5755C15.6453 14.7575 16.0389 14.6588 16.2208 14.3552L16.473 13.9343L16.9265 14.2061L16.6743 14.627C16.6209 14.7162 16.6499 14.8318 16.739 14.8852L18.6802 16.0484C18.9837 16.2303 19.3773 16.1317 19.5592 15.8281L19.7918 15.4399C19.9738 15.1363 19.8751 14.7427 19.5715 14.5608L17.6304 13.3976C17.5876 13.3719 17.5363 13.3643 17.4879 13.3765C17.4395 13.3886 17.3979 13.4195 17.3722 13.4623L17.12 13.8832L16.6665 13.6114L17.1513 12.8023C17.2996 12.5549 17.2615 12.2477 17.078 12.044L17.2284 11.7931Z" fill="#EE0033"/>
<path fill-rule="evenodd" clip-rule="evenodd" d="M14.2283 14.5869C14.4307 14.5362 14.636 14.6592 14.6867 14.8616C14.7526 15.1248 15.0195 15.2848 15.2827 15.2188C15.4852 15.1681 15.6904 15.2911 15.7411 15.4936C15.7918 15.696 15.6688 15.9012 15.4663 15.9519C14.7982 16.1192 14.121 15.7133 13.9536 15.0452C13.9029 14.8428 14.0259 14.6376 14.2283 14.5869ZM12.7684 14.6314C12.9709 14.5807 13.1761 14.7037 13.2268 14.9061C13.526 16.1007 14.737 16.8265 15.9317 16.5273C16.1341 16.4766 16.3393 16.5995 16.39 16.802C16.4407 17.0044 16.3177 17.2096 16.1153 17.2603C14.5158 17.6609 12.8944 16.6891 12.4937 15.0897C12.443 14.8873 12.566 14.6821 12.7684 14.6314ZM10.9859 14.6164C11.1883 14.5657 11.3936 14.6887 11.4443 14.8911C12.0351 17.2498 14.4263 18.683 16.7852 18.0921C16.9876 18.0414 17.1928 18.1644 17.2435 18.3668C17.2942 18.5693 17.1712 18.7745 16.9688 18.8252C14.2051 19.5174 11.4035 17.8382 10.7112 15.0747C10.6605 14.8723 10.7835 14.6671 10.9859 14.6164Z" fill="#EE0033"/>
<mask id="mask0_4429_132607" style="mask-type:alpha" maskUnits="userSpaceOnUse" x="10" y="14" width="8" height="5">
<path fill-rule="evenodd" clip-rule="evenodd" d="M14.2283 14.5869C14.4307 14.5362 14.6359 14.6592 14.6866 14.8616C14.7526 15.1249 15.0194 15.2848 15.2827 15.2189C15.4851 15.1682 15.6903 15.2912 15.741 15.4936C15.7917 15.696 15.6687 15.9012 15.4663 15.9519C14.7982 16.1193 14.1209 15.7133 13.9536 15.0452C13.9029 14.8428 14.0259 14.6376 14.2283 14.5869ZM12.7684 14.6314C12.9708 14.5807 13.176 14.7037 13.2267 14.9061C13.526 16.1007 14.737 16.8265 15.9316 16.5273C16.134 16.4766 16.3392 16.5996 16.3899 16.802C16.4406 17.0044 16.3176 17.2096 16.1152 17.2603C14.5157 17.6609 12.8943 16.6891 12.4937 15.0897C12.443 14.8873 12.566 14.6821 12.7684 14.6314ZM10.9859 14.6164C11.1883 14.5657 11.3935 14.6887 11.4442 14.8911C12.035 17.2498 14.4262 18.683 16.7851 18.0922C16.9875 18.0415 17.1927 18.1645 17.2434 18.3669C17.2941 18.5693 17.1711 18.7745 16.9687 18.8252C14.205 19.5174 11.4034 17.8383 10.7112 15.0747C10.6605 14.8723 10.7835 14.6671 10.9859 14.6164Z" fill="#92001F"/>
</mask>
<g mask="url(#mask0_4429_132607)">
<rect width="4.26166" height="11.0156" transform="matrix(0.865977 0.500083 -0.500037 0.866004 17.2104 11.3822)" fill="#92001F"/>
</g>
<mask id="mask1_4429_132607" style="mask-type:alpha" maskUnits="userSpaceOnUse" x="12" y="10" width="8" height="7">
<path fill-rule="evenodd" clip-rule="evenodd" d="M17.2349 11.7976C17.2887 11.7086 17.2601 11.5929 17.1712 11.5391C17.0822 11.4853 16.9665 11.5139 16.9128 11.6028L16.7615 11.8532C16.4956 11.7864 16.2064 11.8966 16.0572 12.1435L15.5693 12.9509L15.1168 12.6774L15.3706 12.2574C15.4244 12.1684 15.3959 12.0527 15.3069 11.9989L13.3702 10.8283C13.0673 10.6452 12.6734 10.7424 12.4903 11.0453L12.2562 11.4327C12.0732 11.7356 12.1703 12.1296 12.4732 12.3127L14.4099 13.4833C14.4989 13.5371 14.6146 13.5085 14.6683 13.4195L14.9221 12.9996L15.3746 13.2731L15.1208 13.6931C14.9378 13.996 15.0349 14.39 15.3378 14.573C15.6407 14.7561 16.0346 14.6589 16.2177 14.356L16.4715 13.936L16.924 14.2096L16.6702 14.6295C16.6164 14.7185 16.645 14.8342 16.7339 14.888L18.6706 16.0586C18.9735 16.2417 19.3674 16.1445 19.5505 15.8416L19.7846 15.4542C19.9676 15.1513 19.8705 14.7573 19.5676 14.5742L17.6309 13.4036C17.5882 13.3778 17.537 13.37 17.4885 13.382C17.44 13.3939 17.3983 13.4246 17.3725 13.4674L17.1187 13.8873L16.6662 13.6138L17.1541 12.8065C17.3032 12.5596 17.2663 12.2523 17.0836 12.0479L17.2349 11.7976Z" fill="#EE0033"/>
</mask>
<g mask="url(#mask1_4429_132607)">
<rect width="4.2617" height="11.0156" transform="matrix(0.865977 0.500085 -0.500036 0.866005 18.8081 8.61536)" fill="#92001F"/>
</g>
</svg>
