<svg width="30" height="30" viewBox="0 0 30 30" fill="none" xmlns="http://www.w3.org/2000/svg">
<path d="M26.7586 21.2728H17.4727L14.9727 17.1401H25.0749L27.1667 20.6095C27.3198 20.8646 27.1157 21.2728 26.7586 21.2728Z" fill="#92001F"/>
<path d="M14.9723 17.1401H4.87012V27.2423H14.9723V17.1401Z" fill="#828282"/>
<path d="M25.0749 17.1401H14.9727V27.2423H25.0749V17.1401Z" fill="#EE0033"/>
<path d="M3.18664 21.2729H12.2684C12.4215 21.2729 12.5745 21.1709 12.6256 21.0689L14.9725 17.1912H4.87034L2.77847 20.6097C2.62541 20.8648 2.82949 21.2729 3.18664 21.2729Z" fill="#DCDCDC"/>
<path d="M15.4981 4.51746C15.5675 4.35627 15.796 4.35627 15.8655 4.51746L17.294 7.83457C17.3229 7.9018 17.3863 7.94785 17.4592 7.95461L21.0554 8.28815C21.2301 8.30435 21.3007 8.52172 21.1689 8.63755L18.4556 11.0212C18.4006 11.0695 18.3764 11.144 18.3925 11.2154L19.1865 14.7386C19.2251 14.9099 19.0402 15.0442 18.8893 14.9546L15.7839 13.1106C15.7209 13.0733 15.6426 13.0733 15.5797 13.1106L12.4742 14.9546C12.3233 15.0442 12.1384 14.9099 12.177 14.7386L12.9711 11.2154C12.9872 11.144 12.963 11.0695 12.908 11.0212L10.1947 8.63755C10.0628 8.52172 10.1334 8.30435 10.3082 8.28815L13.9044 7.95461C13.9773 7.94785 14.0406 7.9018 14.0696 7.83457L15.4981 4.51746Z" fill="#EE0033"/>
</svg>
