<svg width="22" height="21" viewBox="0 0 22 21" fill="none" xmlns="http://www.w3.org/2000/svg">
<path fill-rule="evenodd" clip-rule="evenodd" d="M12.6748 5.94156C13.3298 6.07054 13.9329 6.26977 14.3464 6.50344C14.5517 6.61951 14.6241 6.88006 14.508 7.08541C14.3919 7.29076 14.1314 7.36313 13.926 7.24707C13.6207 7.07449 13.1144 6.89872 12.5097 6.77966C11.9101 6.66159 11.2444 6.60539 10.6299 6.65265C10.0087 6.70044 9.48109 6.85069 9.11965 7.10864C8.78045 7.35072 8.56329 7.70237 8.56329 8.25026C8.56329 8.90366 8.84169 9.32263 9.29568 9.65295C9.77821 10.004 10.4399 10.2398 11.1775 10.4857C11.2264 10.502 11.2757 10.5184 11.3253 10.5348C11.991 10.7557 12.7122 10.9951 13.2711 11.3537C13.901 11.7578 14.3758 12.3465 14.3758 13.2503C14.3758 14.0707 14.1039 14.7156 13.6155 15.1784C13.1385 15.6305 12.4946 15.8715 11.8107 15.977C10.4492 16.1871 8.77967 15.8845 7.43005 15.4025C7.20791 15.3231 7.09215 15.0787 7.17148 14.8566C7.25082 14.6345 7.49521 14.5187 7.71734 14.598C8.99272 15.0535 10.5107 15.3134 11.6804 15.1328C12.2621 15.0431 12.7198 14.8504 13.0279 14.5584C13.3248 14.2771 13.5216 13.8673 13.5216 13.2503C13.5216 12.7165 13.2698 12.3677 12.8099 12.0726C12.3453 11.7746 11.7222 11.5672 11.0202 11.3336C10.9828 11.3212 10.9452 11.3087 10.9074 11.2961C10.1918 11.0575 9.40043 10.7855 8.79312 10.3437C8.15726 9.88101 7.7091 9.22185 7.7091 8.25026C7.7091 7.42314 8.06226 6.81386 8.62345 6.41336C9.1624 6.02873 9.86522 5.85476 10.5644 5.80098C11.2702 5.74669 12.0146 5.81158 12.6748 5.94156Z" fill="#FE9A00" stroke="#FE9A00" stroke-width="0.5" stroke-linecap="round" stroke-linejoin="round"/>
<path fill-rule="evenodd" clip-rule="evenodd" d="M11.2611 4.13574C11.497 4.13574 11.6882 4.32696 11.6882 4.56284V17.3753C11.6882 17.6112 11.497 17.8024 11.2611 17.8024C11.0252 17.8024 10.834 17.6112 10.834 17.3753V4.56284C10.834 4.32696 11.0252 4.13574 11.2611 4.13574Z" fill="#FE9A00" stroke="#FE9A00" stroke-width="0.5" stroke-linecap="round" stroke-linejoin="round"/>
<path fill-rule="evenodd" clip-rule="evenodd" d="M10.7617 2C5.92923 2 2.01172 5.91751 2.01172 10.75C2.01172 15.5825 5.92923 19.5 10.7617 19.5C15.5942 19.5 19.5117 15.5825 19.5117 10.75C19.5117 5.91751 15.5942 2 10.7617 2ZM0.761719 10.75C0.761719 5.22715 5.23887 0.75 10.7617 0.75C16.2846 0.75 20.7617 5.22715 20.7617 10.75C20.7617 16.2728 16.2846 20.75 10.7617 20.75C5.23887 20.75 0.761719 16.2728 0.761719 10.75Z" fill="#EE0033" stroke="#EE0033" stroke-width="0.5" stroke-linecap="round" stroke-linejoin="round"/>
</svg>
