<svg width="24" height="24" viewBox="0 0 24 24" fill="none" xmlns="http://www.w3.org/2000/svg">
<path d="M15.1368 16.5945L14.555 16.0127C13.755 15.2127 12.4459 15.2127 11.646 16.0127C11.5005 16.1581 11.4278 16.3399 11.4278 16.5217C11.4278 16.8854 11.1732 17.1763 10.846 17.2126C9.68234 17.3581 8.48235 16.9945 7.60963 16.1217C6.73692 15.249 6.37328 14.049 6.51874 12.8854C6.5551 12.5581 6.88237 12.3036 7.20964 12.3036C7.39145 12.3036 7.57327 12.2309 7.71872 12.0854C8.51872 11.2854 8.51872 9.97636 7.71872 9.17636L7.13691 8.59455C6.30056 7.7582 4.88239 7.86729 4.22785 8.8491C3.53695 9.86727 3.20968 11.1036 3.28241 12.34C3.3915 14.3399 4.26421 16.3399 5.79147 17.9035C7.31873 19.4672 9.35507 20.3035 11.3551 20.449C12.5914 20.5217 13.8278 20.1944 14.8459 19.5035C15.8641 18.849 15.9732 17.4308 15.1368 16.5945Z" fill="#EE0033"/>
<path d="M12 3.27344C16.8199 3.27344 20.7273 7.18077 20.7273 12.0007M12 7.24038C14.6291 7.24038 16.7603 9.37165 16.7603 12.0007M12 10.4139C12.8764 10.4139 13.5868 11.1244 13.5868 12.0007" stroke="#C4C4C4" stroke-linecap="round" stroke-linejoin="round"/>
</svg>
