<svg width="14" height="15" viewBox="0 0 14 15" fill="none" xmlns="http://www.w3.org/2000/svg">
<path d="M11.3113 2.94512C10.0529 1.62417 8.32464 0.900795 6.5357 0.947972C2.97297 1.05805 0.183427 4.12453 0.289551 7.82003C0.304712 8.59059 0.456317 9.34541 0.729207 10.0531C0.956616 10.6506 1.25983 11.201 1.63884 11.7042L1.10822 13.0095C0.895973 13.5127 1.12338 14.0945 1.60852 14.3147C1.77529 14.3933 1.97237 14.409 2.1543 14.3776L4.61031 13.9373C5.48962 14.2518 6.41441 14.3619 7.33921 14.2675C10.5078 13.9373 12.9789 11.2482 13.1457 7.94584C13.2367 6.0745 12.5696 4.26606 11.3113 2.94512ZM6.24765 10.2889H4.56483C4.3071 10.2889 4.07969 10.0688 4.07969 9.78573C4.07969 9.51839 4.29194 9.28251 4.56483 9.28251H6.24765C6.50538 9.28251 6.73279 9.50267 6.73279 9.78573C6.73279 10.0688 6.52054 10.2889 6.24765 10.2889ZM8.87042 8.24462H4.56483C4.3071 8.24462 4.07969 8.02447 4.07969 7.74141C4.07969 7.45835 4.29194 7.23819 4.56483 7.23819H8.87042C9.12815 7.23819 9.35556 7.45835 9.35556 7.74141C9.35556 8.02447 9.12815 8.24462 8.87042 8.24462ZM8.87042 6.18458H4.56483C4.3071 6.18458 4.07969 5.96442 4.07969 5.68136C4.07969 5.41403 4.29194 5.17814 4.56483 5.17814H8.87042C9.12815 5.17814 9.35556 5.3983 9.35556 5.68136C9.35556 5.94869 9.12815 6.18458 8.87042 6.18458Z" fill="white"/>
</svg>
