<svg width="48" height="50" viewBox="0 0 48 50" fill="none" xmlns="http://www.w3.org/2000/svg">
<path d="M38.4329 45.0345H11.1035V27.7503L24.7682 16.5664L38.4329 26.7336V45.0345Z" fill="white"/>
<mask id="mask0" style="mask-type:alpha" maskUnits="userSpaceOnUse" x="11" y="16" width="28" height="30">
<path d="M38.4329 45.0345H11.1035V27.7503L24.7682 16.5664L38.4329 26.7336V45.0345Z" fill="white"/>
</mask>
<g mask="url(#mask0)">
<rect x="25.2559" y="14.5322" width="17.0808" height="34.5684" fill="#C4C4C4"/>
</g>
<path d="M40.9501 45.0342H9.15234V43.0007H40.9501V45.0342Z" fill="#727272"/>
<path d="M29.1033 43.0014H21.2949V34.6053C21.2949 32.5062 23.0451 30.8008 25.1991 30.8008C27.3532 30.8008 29.1033 32.5062 29.1033 34.6053V43.0014Z" fill="#EE0033"/>
<mask id="mask1" style="mask-type:alpha" maskUnits="userSpaceOnUse" x="21" y="30" width="9" height="14">
<path d="M29.1033 43.0014H21.2949V34.6053C21.2949 32.5062 23.0451 30.8008 25.1991 30.8008C27.3532 30.8008 29.1033 32.5062 29.1033 34.6053V43.0014Z" fill="#C4C4C4"/>
</mask>
<g mask="url(#mask1)">
<rect x="25.2012" y="26.7334" width="5.85629" height="18.3009" fill="#92001F"/>
</g>
<path fill-rule="evenodd" clip-rule="evenodd" d="M25.1992 12.5L42.5547 25.2614C42.9146 25.526 43.001 26.0278 42.7504 26.3976L40.8496 29.2027C40.5926 29.5818 40.0775 29.6818 39.6974 29.4262L25.1992 19.6781L10.701 29.4262C10.3209 29.6818 9.8058 29.5818 9.54888 29.2027L7.648 26.3976C7.3974 26.0278 7.48384 25.526 7.84374 25.2614L25.1992 12.5Z" fill="#EE0033"/>
<mask id="mask2" style="mask-type:alpha" maskUnits="userSpaceOnUse" x="7" y="12" width="36" height="18">
<path fill-rule="evenodd" clip-rule="evenodd" d="M25.1992 12.5L42.5547 25.2614C42.9146 25.526 43.001 26.0278 42.7504 26.3976L40.8496 29.2027C40.5926 29.5818 40.0775 29.6818 39.6974 29.4262L25.1992 19.6781L10.701 29.4262C10.3209 29.6818 9.8058 29.5818 9.54888 29.2027L7.648 26.3976C7.3974 26.0278 7.48384 25.526 7.84374 25.2614L25.1992 12.5Z" fill="#EE0033"/>
</mask>
<g mask="url(#mask2)">
<rect x="25.2559" y="10.4658" width="19.0329" height="20.3343" fill="#92001F"/>
</g>
<path d="M18.7286 10.9915C18.7286 12.6679 18.2073 14.4151 16.9983 16.127C16.348 17.0479 15.1256 18.4592 14.2136 19.338C13.5304 19.9963 12.9315 20.129 12.319 19.663C12.0718 19.4749 11.8182 19.274 11.5816 19.0727C10.8407 18.4421 9.45808 16.8755 8.92946 16.127C7.7205 14.4151 7.19922 12.6679 7.19922 10.9915C7.19922 7.68247 9.78015 5 12.9639 5C16.1476 5 18.7286 7.68247 18.7286 10.9915Z" fill="#EE0033"/>
<path d="M15.8467 10.9821C15.8467 12.634 14.5562 13.9731 12.9644 13.9731C11.3725 13.9731 10.082 12.634 10.082 10.9821C10.082 9.3303 11.3725 7.99121 12.9644 7.99121C14.5562 7.99121 15.8467 9.3303 15.8467 10.9821Z" fill="#92001F"/>
</svg>
