<svg width="13" height="12" viewBox="0 0 13 12" fill="none" xmlns="http://www.w3.org/2000/svg">
<path fill-rule="evenodd" clip-rule="evenodd" d="M1.77386 0.109835C1.92031 -0.0366117 2.15775 -0.0366117 2.30419 0.109835L4.71491 2.52055C4.78523 2.59088 4.82474 2.68626 4.82474 2.78571C4.82474 2.88517 4.78523 2.98055 4.71491 3.05088L3.37293 4.39286L7.66403 8.68396L9.00601 7.34198C9.15245 7.19553 9.38989 7.19553 9.53634 7.34198L11.9471 9.75269C12.0174 9.82302 12.0569 9.9184 12.0569 10.0179C12.0569 10.1173 12.0174 10.2127 11.9471 10.283L10.3399 11.8902C10.2696 11.9605 10.1742 12 10.0747 12C4.52388 12 0.0568848 7.533 0.0568848 1.98214C0.0568848 1.88269 0.0963936 1.7873 0.16672 1.71698L1.77386 0.109835ZM2.03903 0.90533L0.808126 2.13623C0.888942 7.14989 4.90699 11.1679 9.92065 11.2488L11.1516 10.0179L9.27117 8.13747L7.92919 9.47945C7.78275 9.6259 7.54531 9.6259 7.39886 9.47945L2.57743 4.65802C2.50711 4.5877 2.4676 4.49231 2.4676 4.39286C2.4676 4.2934 2.50711 4.19802 2.57743 4.12769L3.91941 2.78571L2.03903 0.90533Z" fill="#EE0033"/>
<path fill-rule="evenodd" clip-rule="evenodd" d="M6.0835 2.78516C6.0835 2.57805 6.25139 2.41016 6.4585 2.41016C8.23257 2.41016 9.646 3.82359 9.646 5.59766C9.646 5.80476 9.4781 5.97266 9.271 5.97266C9.06389 5.97266 8.896 5.80476 8.896 5.59766C8.896 4.2378 7.81835 3.16016 6.4585 3.16016C6.25139 3.16016 6.0835 2.99226 6.0835 2.78516Z" fill="#EE0033"/>
<path fill-rule="evenodd" clip-rule="evenodd" d="M6.0835 0.375C6.0835 0.167893 6.25139 0 6.4585 0C9.55846 0 12.0567 2.49825 12.0567 5.59821C12.0567 5.80532 11.8888 5.97321 11.6817 5.97321C11.4746 5.97321 11.3067 5.80532 11.3067 5.59821C11.3067 2.91246 9.14425 0.75 6.4585 0.75C6.25139 0.75 6.0835 0.582107 6.0835 0.375Z" fill="#EE0033"/>
</svg>
