<svg width="80" height="80" viewBox="0 0 80 80" fill="none" xmlns="http://www.w3.org/2000/svg">
<path d="M63.0352 47.6917C63.0352 59.7798 54.3478 69.4729 42.2598 69.4729C41.6987 69.4729 41.1424 69.5579 40.5918 69.5164C40.1793 69.4853 39.77 69.4428 39.3642 69.3892C38.707 69.3023 38.0589 68.0743 37.4214 67.9305C36.5882 67.7426 35.7731 68.619 34.979 68.3389C29.1668 66.2895 24.4796 61.8552 22.0925 56.2112C20.9849 53.5927 21.4844 50.7137 21.4844 47.6916C21.4844 42.8223 21.9626 38.3242 24.6519 34.6886C28.3287 29.7179 34.0603 26.3591 40.5918 25.8669C41.1423 25.8254 41.6986 25.9104 42.2598 25.9104C54.3478 25.9106 63.0352 35.6037 63.0352 47.6917Z" fill="#DCDCDC"/>
<path d="M20.3726 47.6915C20.3726 50.7009 20.9801 53.5684 22.079 56.1782C25.8361 59.1056 29.4881 56.7425 28.871 53.5192L28.1275 50.9422C27.4831 47.6915 29.3851 46.9962 31.3499 45.858L39.7089 41.2035C41.0329 40.4365 38.385 41.0055 38.385 39.4754C38.385 37.9749 37.6007 36.5834 36.3171 35.8064L32.0456 33.2207C29.5726 31.7237 26.3721 32.3654 24.6528 34.6893C21.9632 38.3245 20.3726 42.822 20.3726 47.6915Z" fill="#C4C4C4"/>
<path d="M42.2597 25.8047C41.6985 25.8047 41.1424 25.826 40.5918 25.8674C51.9007 26.7196 60.8113 36.1651 60.8113 47.692C60.8113 59.2189 51.9007 68.6643 40.5918 69.5165C41.1424 69.558 41.6985 69.5793 42.2597 69.5793C49.6136 69.5793 56.1203 65.9527 60.089 60.3903C62.6439 56.8093 63.8285 52.4262 63.8285 47.692C63.8285 45.0743 63.6874 42.5638 62.8447 40.2371C59.7955 31.8193 51.73 25.8047 42.2597 25.8047Z" fill="#DCDCDC"/>
<path d="M43.836 52.9558L33.3151 50.4231C32.2661 50.1705 31.2568 50.9656 31.2568 52.0446V58.5659C31.2568 59.1557 31.4911 59.7213 31.9082 60.1383L34.491 62.7211C34.8037 63.034 34.9795 63.4582 34.9795 63.9005V68.3377C36.3813 68.832 37.8481 69.188 39.3642 69.3884V65.0773C39.3642 64.6349 39.5399 64.2107 39.8527 63.8979L44.462 59.2886C44.879 58.8716 45.1133 58.3059 45.1133 57.7161V54.5772C45.1134 53.8066 44.5854 53.1362 43.836 52.9558Z" fill="#DCDCDC"/>
<path d="M63.0352 47.6919C63.0352 45.0742 63.6868 42.5641 62.8439 40.2373H49.7888C47.5537 40.2373 45.7417 42.0492 45.7417 44.2844C45.7417 46.5197 47.5536 48.3316 49.7888 48.3316C51.7967 48.3316 53.4244 49.9593 53.4244 51.9671V58.229C53.4244 61.7983 58.0149 63.295 60.0883 60.3898C62.6437 56.8091 63.0352 52.4263 63.0352 47.6919Z" fill="#C4C4C4"/>
<path d="M60.0887 60.3897C62.6441 56.809 64.1476 52.4262 64.1476 47.6919C64.1476 45.0742 63.6872 42.564 62.8445 40.2373H59.508C60.3509 42.5642 60.8119 45.0741 60.8119 47.6919C60.8119 53.0034 58.9188 57.8721 55.772 61.6626C57.2192 62.2261 59.0006 61.9144 60.0887 60.3897Z" fill="#C4C4C4"/>
<path d="M38.6116 65.8855H36.0258C34.9321 65.8855 34.0454 64.9989 34.0454 63.9052C34.0454 62.8115 34.932 61.9248 36.0258 61.9248H38.6116C39.7053 61.9248 40.592 62.8114 40.592 63.9052C40.592 64.9988 39.7053 65.8855 38.6116 65.8855Z" fill="#C4C4C4"/>
<path d="M41.4872 36.2049C41.4872 38.9921 40.5418 41.8968 38.3494 44.7427C37.17 46.2736 34.9533 48.62 33.2994 50.081C31.9775 51.2485 30.8297 51.4216 29.6405 50.4528C29.3619 50.2257 29.0535 50.0234 28.7605 49.8152C27.4972 48.9175 24.7341 46.0637 23.7164 44.7427C21.524 41.8968 20.5786 38.9921 20.5786 36.2049C20.5786 30.7037 25.2592 26.2441 31.0329 26.2441C36.8067 26.2441 41.4872 30.7037 41.4872 36.2049Z" fill="#EE0033"/>
<path d="M36.26 36.1892C36.26 38.9354 33.9197 41.1616 31.0328 41.1616C28.1459 41.1616 25.8057 38.9354 25.8057 36.1892C25.8057 33.443 28.1459 31.2168 31.0328 31.2168C33.9197 31.2168 36.26 33.443 36.26 36.1892Z" fill="white"/>
<path d="M31.9368 53.7289H30.835C30.369 53.7289 29.9912 53.386 29.9912 52.9631C29.9912 52.5401 30.369 52.1973 30.835 52.1973H31.9368C32.4028 52.1973 32.7806 52.5401 32.7806 52.9631C32.7806 53.386 32.4028 53.7289 31.9368 53.7289Z" fill="#C4C4C4"/>
<path d="M34.0852 56.5218H32.9834C32.5175 56.5218 32.1396 56.179 32.1396 55.756C32.1396 55.3331 32.5174 54.9902 32.9834 54.9902H34.0852C34.5512 54.9902 34.929 55.3331 34.929 55.756C34.929 56.179 34.5512 56.5218 34.0852 56.5218Z" fill="#C4C4C4"/>
<path d="M45.0037 20.7029C45.901 20.2428 46.2631 19.1363 45.7148 18.29C44.2838 16.0815 42.3826 14.2063 40.1388 12.8034C37.3774 11.0769 34.2002 10.13 30.9441 10.0633C27.6881 9.99662 24.4747 10.8126 21.645 12.4246C19.3456 13.7345 17.3692 15.5302 15.849 17.6782C15.2665 18.5013 15.583 19.6218 16.4607 20.1182C17.3385 20.6146 18.4437 20.2967 19.0471 19.4889C20.2283 17.9077 21.7263 16.5809 23.4525 15.5976C25.7095 14.3118 28.2724 13.6611 30.8694 13.7143C33.4663 13.7675 36.0005 14.5226 38.2029 15.8997C39.8874 16.9529 41.3298 18.3399 42.4452 19.9681C43.0151 20.8 44.1063 21.1629 45.0037 20.7029Z" fill="#EE0033"/>
<path d="M40.7346 23.3613C41.4683 22.9382 41.727 21.9938 41.2216 21.314C40.1364 19.854 38.7578 18.6294 37.1683 17.7223C35.1333 16.561 32.826 15.9619 30.4831 15.9866C28.1402 16.0112 25.8461 16.6587 23.836 17.8626C22.266 18.803 20.9134 20.0564 19.8592 21.5388C19.3683 22.2291 19.6467 23.1679 20.3892 23.5755C21.1317 23.9831 22.0555 23.7025 22.5704 23.0299C23.3462 22.0164 24.3093 21.1547 25.4121 20.4941C26.9553 19.5698 28.7167 19.0727 30.5154 19.0538C32.3142 19.0349 34.0856 19.4948 35.6479 20.3864C36.7644 21.0236 37.7454 21.8648 38.5424 22.8618C39.0713 23.5234 40.0008 23.7845 40.7346 23.3613Z" fill="#EE0033"/>
<path d="M36.7396 25.3538C37.3463 24.9123 37.4868 24.0535 36.9577 23.5214C36.2698 22.8297 35.4699 22.2542 34.5889 21.8209C33.2999 21.187 31.876 20.8765 30.4402 20.9161C29.0043 20.9558 27.5998 21.3444 26.3478 22.0485C25.492 22.5298 24.7251 23.1486 24.0764 23.8773C23.5775 24.4377 23.7652 25.2875 24.3953 25.6948C25.0255 26.1021 25.8579 25.9072 26.3937 25.382C26.7768 25.0066 27.2088 24.6817 27.6797 24.4169C28.5472 23.9291 29.5204 23.6598 30.5152 23.6323C31.5101 23.6048 32.4966 23.82 33.3897 24.2592C33.8745 24.4976 34.3238 24.7981 34.727 25.1518C35.291 25.6466 36.1329 25.7953 36.7396 25.3538Z" fill="#EE0033"/>
<mask id="mask0" mask-type="alpha" maskUnits="userSpaceOnUse" x="20" y="26" width="22" height="26">
<path d="M41.4872 36.2039C41.4872 38.9911 40.5418 41.8958 38.3494 44.7417C37.17 46.2727 34.9533 48.6191 33.2994 50.08C31.9775 51.2476 30.8297 51.4206 29.6405 50.4518C29.3619 50.2247 29.0535 50.0224 28.7605 49.8142C27.4972 48.9166 24.7341 46.0628 23.7164 44.7417C21.524 41.8958 20.5786 38.9911 20.5786 36.2039C20.5786 30.7028 25.2592 26.2432 31.0329 26.2432C36.8067 26.2432 41.4872 30.7028 41.4872 36.2039Z" fill="#EE0033"/>
</mask>
<g mask="url(#mask0)">
<rect x="31.0327" y="15.4922" width="20.625" height="39.8493" fill="#92001F"/>
</g>
<mask id="mask1" mask-type="alpha" maskUnits="userSpaceOnUse" x="25" y="31" width="12" height="11">
<path d="M36.26 36.1892C36.26 38.9354 33.9197 41.1616 31.0328 41.1616C28.1459 41.1616 25.8057 38.9354 25.8057 36.1892C25.8057 33.443 28.1459 31.2168 31.0328 31.2168C33.9197 31.2168 36.26 33.443 36.26 36.1892Z" fill="white"/>
</mask>
<g mask="url(#mask1)">
<rect x="31.0327" y="29.6211" width="7.375" height="12.4612" fill="#C4C4C4"/>
</g>
<mask id="mask2" mask-type="alpha" maskUnits="userSpaceOnUse" x="15" y="10" width="31" height="16">
<path fill-rule="evenodd" clip-rule="evenodd" d="M44.9245 20.6443C45.8219 20.1843 46.184 19.0777 45.6356 18.2314C44.2047 16.023 42.3035 14.1478 40.0597 12.7449C37.2983 11.0183 34.1211 10.0715 30.865 10.0048C27.609 9.93806 24.3956 10.754 21.5658 12.366C19.2665 13.6759 17.2901 15.4717 15.7699 17.6197C15.1874 18.4428 15.5038 19.5633 16.3816 20.0596C17.2593 20.556 18.3645 20.2382 18.968 19.4303C20.1492 17.8491 21.6472 16.5224 23.3734 15.539C25.6303 14.2533 28.1933 13.6025 30.7902 13.6557C33.3872 13.7089 35.9213 14.4641 38.1238 15.8412C39.8082 16.8944 41.2507 18.2813 42.3661 19.9096C42.936 20.7415 44.0272 21.1043 44.9245 20.6443ZM40.6554 23.3028C41.3892 22.8796 41.6478 21.9352 41.1425 21.2554C40.0573 19.7955 38.6786 18.5709 37.0892 17.6638C35.0542 16.5024 32.7469 15.9034 30.404 15.928C28.0611 15.9527 25.7669 16.6002 23.7569 17.8041C22.1868 18.7444 20.8343 19.9978 19.78 21.4802C19.2891 22.1705 19.5676 23.1093 20.3101 23.5169C21.0526 23.9245 21.9764 23.6439 22.4913 22.9713C23.267 21.9578 24.2301 21.0961 25.333 20.4356C26.8762 19.5113 28.6375 19.0142 30.4363 18.9952C32.2351 18.9763 34.0065 19.4362 35.5688 20.3278C36.6853 20.965 37.6663 21.8063 38.4633 22.8032C38.9921 23.4649 39.9216 23.7259 40.6554 23.3028ZM36.8786 23.4634C37.4077 23.9954 37.2672 24.8543 36.6605 25.2957C36.0538 25.7372 35.2119 25.5886 34.6479 25.0938C34.2447 24.7401 33.7954 24.4395 33.3106 24.2011C32.4175 23.7619 31.4309 23.5467 30.4361 23.5742C29.4412 23.6017 28.468 23.871 27.6006 24.3588C27.1297 24.6237 26.6976 24.9485 26.3146 25.3239C25.7787 25.8491 24.9463 26.044 24.3162 25.6367C23.686 25.2294 23.4983 24.3796 23.9973 23.8192C24.646 23.0905 25.4128 22.4717 26.2686 21.9905C27.5206 21.2864 28.9252 20.8977 30.3611 20.8581C31.7969 20.8184 33.2208 21.1289 34.5097 21.7628C35.3908 22.1961 36.1907 22.7716 36.8786 23.4634Z" fill="#92001F"/>
</mask>
<g mask="url(#mask2)">
<rect x="30.3584" y="4.64844" width="18.75" height="28.1875" fill="#92001F"/>
</g>
</svg>
