<svg width="16" height="15" viewBox="0 0 16 15" fill="none" xmlns="http://www.w3.org/2000/svg">
<g clip-path="url(#clip0_4312_128074)">
<path d="M13.5334 3.98377V3.98415C13.5331 3.98377 13.5338 3.98452 13.5327 3.98597C13.2449 4.76185 12.2074 6.7572 10.8803 6.72948C10.0967 6.70797 9.42845 5.42721 9.09287 3.30347H8.62886H8.16485C7.82927 5.42721 7.16099 6.70797 6.37744 6.72948C6.36541 6.72985 6.35373 6.7302 6.34205 6.7302C5.05146 6.7302 4.00992 4.75492 3.72502 3.98597C3.72429 3.9845 3.72429 3.98377 3.72429 3.98415V3.98377L3.02319 4.24204C3.08338 4.40838 4.51997 8.36332 4.51997 12.3325H8.62886H12.7377C12.7377 8.36332 14.1743 4.40838 14.2345 4.24204L13.5334 3.98377Z" fill="#FAB3C2"/>
<path d="M14.2346 4.24204L13.5335 3.98377V3.98415C13.5331 3.98377 13.5338 3.98452 13.5328 3.98597C13.2449 4.76185 12.2074 6.7572 10.8803 6.72948C10.0968 6.70797 9.4285 5.42721 9.09291 3.30347H8.62891V12.3325H12.7378C12.7378 8.36332 14.1744 4.40838 14.2346 4.24204V4.24204Z" fill="#F56685"/>
<path d="M5.64062 10.4648H4.14648C3.94002 10.4648 3.77295 10.2978 3.77295 10.0913C3.77295 9.88484 3.94002 9.71777 4.14648 9.71777H5.64062C5.84709 9.71777 6.01416 9.88484 6.01416 10.0913C6.01416 10.2978 5.84709 10.4648 5.64062 10.4648Z" fill="#F56685"/>
<path d="M13.1113 10.4648H11.6172C11.4107 10.4648 11.2437 10.2978 11.2437 10.0913C11.2437 9.88484 11.4107 9.71777 11.6172 9.71777H13.1113C13.3178 9.71777 13.4849 9.88484 13.4849 10.0913C13.4849 10.2978 13.3178 10.4648 13.1113 10.4648Z" fill="#FAB3C2"/>
<path d="M13.8833 5.23535C13.2654 5.23535 12.7627 4.73267 12.7627 4.11475C12.7627 3.49682 13.2654 2.99414 13.8833 2.99414C14.5012 2.99414 15.0039 3.49682 15.0039 4.11475C15.0039 4.73267 14.5012 5.23535 13.8833 5.23535Z" fill="#F56685"/>
<path d="M3.37451 5.23535C2.75658 5.23535 2.25391 4.73267 2.25391 4.11475C2.25391 3.49682 2.75658 2.99414 3.37451 2.99414C3.99244 2.99414 4.49512 3.49682 4.49512 4.11475C4.49512 4.73267 3.99244 5.23535 3.37451 5.23535Z" fill="#FAB3C2"/>
<path d="M9.37598 8.17947C9.05424 8.17947 8.80838 8.30057 8.62891 8.46035C8.44944 8.30057 8.20357 8.17947 7.88184 8.17947C7.25333 8.17947 6.76123 8.65187 6.76123 9.25486C6.76123 9.88994 7.28943 10.2755 8.02009 10.8096L8.40493 11.093C8.47132 11.143 8.55012 11.1678 8.62891 11.1678C8.7077 11.1678 8.78649 11.143 8.85288 11.093L9.23772 10.8096C9.96838 10.2755 10.4966 9.88992 10.4966 9.25483C10.4966 8.65185 10.0045 8.17947 9.37598 8.17947V8.17947Z" fill="#EE0033"/>
<path d="M9.23772 10.8096C9.96838 10.2755 10.4966 9.88994 10.4966 9.25486C10.4966 8.65187 10.0045 8.17947 9.37598 8.17947C9.05424 8.17947 8.80838 8.30057 8.62891 8.46035V11.1678C8.7077 11.1678 8.78649 11.143 8.85288 11.093L9.23772 10.8096Z" fill="#EE0033"/>
<path d="M13.1113 11.959H8.62891H4.14648C3.94002 11.959 3.77295 12.1261 3.77295 12.3325C3.77295 12.539 3.94002 12.7061 4.14648 12.7061H8.62891H13.1113C13.3178 12.7061 13.4849 12.539 13.4849 12.3325C13.4849 12.1261 13.3178 11.959 13.1113 11.959Z" fill="#FAB3C2"/>
<path d="M13.4849 12.3325C13.4849 12.1261 13.3178 11.959 13.1113 11.959H8.62891V12.7061H13.1113C13.3178 12.7061 13.4849 12.539 13.4849 12.3325Z" fill="#F56685"/>
<path d="M8.62891 3.74121C9.2478 3.74121 9.74951 3.2395 9.74951 2.62061C9.74951 2.00171 9.2478 1.5 8.62891 1.5C8.01001 1.5 7.5083 2.00171 7.5083 2.62061C7.5083 3.2395 8.01001 3.74121 8.62891 3.74121Z" fill="#FAB3C2"/>
</g>
<defs>
<clipPath id="clip0_4312_128074">
<rect width="15" height="15" fill="white" transform="translate(0.753906)"/>
</clipPath>
</defs>
</svg>
