<svg width="56" height="56" viewBox="0 0 56 56" fill="none" xmlns="http://www.w3.org/2000/svg">
<path fill-rule="evenodd" clip-rule="evenodd" d="M25.667 53.6667V2.33333H30.3337V53.6667H25.667Z" fill="#576C8A"/>
<path fill-rule="evenodd" clip-rule="evenodd" d="M21.0121 10.8944C18.8836 15.1516 17.4997 21.196 17.4997 28C17.4997 34.804 18.8836 40.8484 21.0121 45.1056C23.2105 49.5023 25.8158 51.3333 27.9997 51.3333C30.1836 51.3333 32.7889 49.5023 34.9872 45.1056C37.1158 40.8484 38.4997 34.804 38.4997 28C38.4997 21.196 37.1158 15.1516 34.9872 10.8944C32.7889 6.49771 30.1836 4.66667 27.9997 4.66667C25.8158 4.66667 23.2105 6.49771 21.0121 10.8944ZM16.8381 8.80743C19.2845 3.91463 23.0959 0 27.9997 0C32.9034 0 36.7148 3.91463 39.1612 8.80743C41.6774 13.8398 43.1663 20.6287 43.1663 28C43.1663 35.3713 41.6774 42.1602 39.1612 47.1926C36.7148 52.0854 32.9034 56 27.9997 56C23.0959 56 19.2845 52.0854 16.8381 47.1926C14.322 42.1602 12.833 35.3713 12.833 28C12.833 20.6287 14.322 13.8398 16.8381 8.80743Z" fill="#576C8A"/>
<path fill-rule="evenodd" clip-rule="evenodd" d="M53.6663 30.3333H2.33301V25.6667H53.6663V30.3333Z" fill="#576C8A"/>
<path fill-rule="evenodd" clip-rule="evenodd" d="M28 4.66667C15.1134 4.66667 4.66667 15.1134 4.66667 28C4.66667 40.8866 15.1134 51.3333 28 51.3333C40.8866 51.3333 51.3333 40.8866 51.3333 28C51.3333 15.1134 40.8866 4.66667 28 4.66667ZM0 28C0 12.536 12.536 0 28 0C43.464 0 56 12.536 56 28C56 43.464 43.464 56 28 56C12.536 56 0 43.464 0 28Z" fill="#576C8A"/>
</svg>
