<svg width="24" height="24" viewBox="0 0 24 24" fill="none" xmlns="http://www.w3.org/2000/svg">
<path d="M20 9C20.2761 9 20.5 8.77614 20.5 8.5C20.5 8.22386 20.2761 8 20 8V9ZM4 8C3.72386 8 3.5 8.22386 3.5 8.5C3.5 8.77614 3.72386 9 4 9V8ZM15.5 4C15.5 3.72386 15.2761 3.5 15 3.5C14.7239 3.5 14.5 3.72386 14.5 4H15.5ZM14.5 6C14.5 6.27614 14.7239 6.5 15 6.5C15.2761 6.5 15.5 6.27614 15.5 6H14.5ZM9.5 4C9.5 3.72386 9.27614 3.5 9 3.5C8.72386 3.5 8.5 3.72386 8.5 4H9.5ZM8.5 6C8.5 6.27614 8.72386 6.5 9 6.5C9.27614 6.5 9.5 6.27614 9.5 6H8.5ZM8 12.5C8.27614 12.5 8.5 12.2761 8.5 12C8.5 11.7239 8.27614 11.5 8 11.5V12.5ZM7 11.5C6.72386 11.5 6.5 11.7239 6.5 12C6.5 12.2761 6.72386 12.5 7 12.5V11.5ZM13 12.5C13.2761 12.5 13.5 12.2761 13.5 12C13.5 11.7239 13.2761 11.5 13 11.5V12.5ZM11 11.5C10.7239 11.5 10.5 11.7239 10.5 12C10.5 12.2761 10.7239 12.5 11 12.5V11.5ZM17 12.5C17.2761 12.5 17.5 12.2761 17.5 12C17.5 11.7239 17.2761 11.5 17 11.5V12.5ZM16 11.5C15.7239 11.5 15.5 11.7239 15.5 12C15.5 12.2761 15.7239 12.5 16 12.5V11.5ZM8 16.5C8.27614 16.5 8.5 16.2761 8.5 16C8.5 15.7239 8.27614 15.5 8 15.5V16.5ZM7 15.5C6.72386 15.5 6.5 15.7239 6.5 16C6.5 16.2761 6.72386 16.5 7 16.5V15.5ZM13 16.5C13.2761 16.5 13.5 16.2761 13.5 16C13.5 15.7239 13.2761 15.5 13 15.5V16.5ZM11 15.5C10.7239 15.5 10.5 15.7239 10.5 16C10.5 16.2761 10.7239 16.5 11 16.5V15.5ZM17 16.5C17.2761 16.5 17.5 16.2761 17.5 16C17.5 15.7239 17.2761 15.5 17 15.5V16.5ZM16 15.5C15.7239 15.5 15.5 15.7239 15.5 16C15.5 16.2761 15.7239 16.5 16 16.5V15.5ZM19.5 7V18H20.5V7H19.5ZM18 19.5H6V20.5H18V19.5ZM4.5 18V7H3.5V18H4.5ZM18 4.5H6V5.5H18V4.5ZM6 19.5C5.17157 19.5 4.5 18.8284 4.5 18H3.5C3.5 19.3807 4.61929 20.5 6 20.5V19.5ZM19.5 18C19.5 18.8284 18.8284 19.5 18 19.5V20.5C19.3807 20.5 20.5 19.3807 20.5 18H19.5ZM20.5 7C20.5 5.61929 19.3807 4.5 18 4.5V5.5C18.8284 5.5 19.5 6.17157 19.5 7H20.5ZM4.5 7C4.5 6.17157 5.17157 5.5 6 5.5V4.5C4.61929 4.5 3.5 5.61929 3.5 7H4.5ZM20 8H4V9H20V8ZM14.5 4V6H15.5V4H14.5ZM8.5 4V6H9.5V4H8.5ZM8 11.5H7V12.5H8V11.5ZM13 11.5H11V12.5H13V11.5ZM17 11.5H16V12.5H17V11.5ZM8 15.5H7V16.5H8V15.5ZM13 15.5H11V16.5H13V15.5ZM17 15.5H16V16.5H17V15.5Z" fill="black"/>
</svg>
