<svg width="24" height="24" viewBox="0 0 24 24" fill="none" xmlns="http://www.w3.org/2000/svg">
<path fill-rule="evenodd" clip-rule="evenodd" d="M0 7.65625C0 7.24204 0.335786 6.90625 0.75 6.90625H23.25C23.6642 6.90625 24 7.24204 24 7.65625C24 8.07046 23.6642 8.40625 23.25 8.40625H0.75C0.335786 8.40625 0 8.07046 0 7.65625Z" fill="#EE0033"/>
<path fill-rule="evenodd" clip-rule="evenodd" d="M0 4.65625C0 3.41704 1.01079 2.40625 2.25 2.40625H21.75C22.9892 2.40625 24 3.41704 24 4.65625V10.5713C24 10.9855 23.6642 11.3213 23.25 11.3213C22.8358 11.3213 22.5 10.9855 22.5 10.5713V4.65625C22.5 4.24546 22.1608 3.90625 21.75 3.90625H2.25C1.83921 3.90625 1.5 4.24546 1.5 4.65625V21.1562C1.5 21.567 1.83921 21.9062 2.25 21.9062H2.25942L2.25942 21.9063L11.2594 22.0194C11.6736 22.0246 12.0051 22.3646 11.9999 22.7787C11.9947 23.1929 11.6548 23.5245 11.2406 23.5193L2.24477 23.4062C1.00794 23.4034 0 22.3937 0 21.1562V4.65625Z" fill="#EE0033"/>
<path fill-rule="evenodd" clip-rule="evenodd" d="M6.75 0.15625C7.16421 0.15625 7.5 0.492036 7.5 0.90625V3.15625C7.5 3.57046 7.16421 3.90625 6.75 3.90625C6.33579 3.90625 6 3.57046 6 3.15625V0.90625C6 0.492036 6.33579 0.15625 6.75 0.15625Z" fill="#EE0033"/>
<path fill-rule="evenodd" clip-rule="evenodd" d="M17.25 0.15625C17.6642 0.15625 18 0.492036 18 0.90625V3.15625C18 3.57046 17.6642 3.90625 17.25 3.90625C16.8358 3.90625 16.5 3.57046 16.5 3.15625V0.90625C16.5 0.492036 16.8358 0.15625 17.25 0.15625Z" fill="#EE0033"/>
<path fill-rule="evenodd" clip-rule="evenodd" d="M17.25 11.4062C14.3505 11.4062 12 13.7568 12 16.6562C12 19.5557 14.3505 21.9062 17.25 21.9062C20.1495 21.9062 22.5 19.5557 22.5 16.6562C22.5 13.7568 20.1495 11.4062 17.25 11.4062ZM10.5 16.6562C10.5 12.9283 13.5221 9.90625 17.25 9.90625C20.9779 9.90625 24 12.9283 24 16.6562C24 20.3842 20.9779 23.4062 17.25 23.4062C13.5221 23.4062 10.5 20.3842 10.5 16.6562Z" fill="#FE9A00"/>
<path fill-rule="evenodd" clip-rule="evenodd" d="M18.3152 13.7131C18.6986 13.7886 19.0516 13.9052 19.2937 14.042C19.4139 14.1099 19.4562 14.2624 19.3883 14.3826C19.3203 14.5028 19.1678 14.5452 19.0476 14.4773C18.8689 14.3762 18.5725 14.2733 18.2186 14.2037C17.8676 14.1345 17.4779 14.1016 17.1182 14.1293C16.7546 14.1573 16.4457 14.2452 16.2341 14.3962C16.0356 14.5379 15.9084 14.7438 15.9084 15.0645C15.9084 15.447 16.0714 15.6922 16.3372 15.8856C16.6196 16.0911 17.007 16.2291 17.4387 16.373C17.4673 16.3826 17.4962 16.3922 17.5252 16.4018C17.9149 16.5311 18.3371 16.6712 18.6642 16.8811C19.033 17.1177 19.3109 17.4623 19.3109 17.9913C19.3109 18.4716 19.1517 18.8491 18.8659 19.12C18.5866 19.3847 18.2097 19.5257 17.8094 19.5875C17.0124 19.7105 16.0351 19.5333 15.2451 19.2511C15.1151 19.2047 15.0473 19.0616 15.0937 18.9316C15.1402 18.8016 15.2832 18.7338 15.4133 18.7803C16.1598 19.0469 17.0484 19.199 17.7331 19.0933C18.0736 19.0408 18.3416 18.928 18.5219 18.7571C18.6957 18.5924 18.8109 18.3525 18.8109 17.9913C18.8109 17.6789 18.6635 17.4747 18.3942 17.302C18.1223 17.1275 17.7576 17.0061 17.3466 16.8694C17.3247 16.8621 17.3027 16.8548 17.2806 16.8474C16.8617 16.7078 16.3985 16.5486 16.043 16.2899C15.6708 16.0191 15.4084 15.6332 15.4084 15.0645C15.4084 14.5803 15.6152 14.2237 15.9437 13.9892C16.2591 13.7641 16.6706 13.6623 17.0798 13.6308C17.493 13.599 17.9287 13.637 18.3152 13.7131Z" fill="#FE9A00" stroke="#FE9A00" stroke-width="0.8" stroke-linecap="round" stroke-linejoin="round"/>
<path fill-rule="evenodd" clip-rule="evenodd" d="M17.3291 12.6561C17.4672 12.6561 17.5791 12.7681 17.5791 12.9061V20.4061C17.5791 20.5442 17.4672 20.6561 17.3291 20.6561C17.191 20.6561 17.0791 20.5442 17.0791 20.4061V12.9061C17.0791 12.7681 17.191 12.6561 17.3291 12.6561Z" fill="#FE9A00" stroke="#FE9A00" stroke-width="0.8" stroke-linecap="round" stroke-linejoin="round"/>
</svg>
