<svg width="17" height="17" viewBox="0 0 17 17" fill="none" xmlns="http://www.w3.org/2000/svg">
<path fill-rule="evenodd" clip-rule="evenodd" d="M10.34 4.49126C10.864 4.59445 11.3465 4.75383 11.6773 4.94077C11.8415 5.03362 11.8994 5.24206 11.8066 5.40634C11.7137 5.57062 11.5053 5.62852 11.341 5.53567C11.0967 5.39761 10.6917 5.25699 10.208 5.16174C9.72825 5.06728 9.19568 5.02232 8.70408 5.06014C8.20715 5.09836 7.78504 5.21857 7.49589 5.42493C7.22453 5.61859 7.0508 5.89991 7.0508 6.33822C7.0508 6.86095 7.27352 7.19612 7.63671 7.46037C8.02274 7.74125 8.55212 7.92989 9.14217 8.12658C9.18129 8.13961 9.22072 8.1527 9.2604 8.16587C9.79294 8.3426 10.37 8.5341 10.8171 8.82095C11.321 9.14426 11.7008 9.61523 11.7008 10.3382C11.7008 10.9946 11.4833 11.5105 11.0926 11.8807C10.711 12.2424 10.1959 12.4352 9.64874 12.5196C8.55955 12.6877 7.22391 12.4456 6.14421 12.06C5.9665 11.9965 5.87389 11.801 5.93736 11.6233C6.00082 11.4456 6.19634 11.353 6.37404 11.4164C7.39435 11.7808 8.60871 11.9887 9.54452 11.8443C10.0099 11.7725 10.376 11.6184 10.6225 11.3848C10.86 11.1597 11.0175 10.8318 11.0175 10.3382C11.0175 9.9112 10.816 9.63218 10.4481 9.39611C10.0764 9.15766 9.57796 8.9918 9.01632 8.8049C8.98641 8.79495 8.95633 8.78494 8.92608 8.77486C8.35363 8.58404 7.72051 8.36644 7.23467 8.01294C6.72598 7.64282 6.36745 7.11549 6.36745 6.33822C6.36745 5.67652 6.64998 5.1891 7.09893 4.8687C7.53009 4.56099 8.09235 4.42182 8.65167 4.3788C9.21633 4.33536 9.81188 4.38728 10.34 4.49126Z" fill="#EE0033"/>
<path fill-rule="evenodd" clip-rule="evenodd" d="M9.20923 3.04663C9.39793 3.04663 9.5509 3.1996 9.5509 3.38831V13.6383C9.5509 13.827 9.39793 13.98 9.20923 13.98C9.02053 13.98 8.86755 13.827 8.86755 13.6383V3.38831C8.86755 3.1996 9.02053 3.04663 9.20923 3.04663Z" fill="#EE0033"/>
<path fill-rule="evenodd" clip-rule="evenodd" d="M8.8092 1.33813C4.94321 1.33813 1.8092 4.47214 1.8092 8.33813C1.8092 12.2041 4.94321 15.3381 8.8092 15.3381C12.6752 15.3381 15.8092 12.2041 15.8092 8.33813C15.8092 4.47214 12.6752 1.33813 8.8092 1.33813ZM0.809204 8.33813C0.809204 3.91986 4.39093 0.338135 8.8092 0.338135C13.2275 0.338135 16.8092 3.91986 16.8092 8.33813C16.8092 12.7564 13.2275 16.3381 8.8092 16.3381C4.39093 16.3381 0.809204 12.7564 0.809204 8.33813Z" fill="#EE0033"/>
</svg>
