<svg width="15" height="11" viewBox="0 0 15 11" fill="none" xmlns="http://www.w3.org/2000/svg">
<path d="M11.0475 3.69092H3.87109V7.81735H11.0475V3.69092Z" stroke="#FF9801" stroke-width="0.7" stroke-miterlimit="10" stroke-linecap="square"/>
<path d="M12.1952 5.73643C12.1952 5.27964 12.3767 4.84155 12.6997 4.51855C13.0227 4.19555 13.4607 4.01409 13.9175 4.01409V1H1V4.01409C1.45679 4.01409 1.89488 4.19555 2.21788 4.51855C2.54088 4.84155 2.72234 5.27964 2.72234 5.73643C2.72234 6.19322 2.54088 6.63131 2.21788 6.95431C1.89488 7.27731 1.45679 7.45877 1 7.45877V10.4729H13.9175V7.45877C13.4607 7.45877 13.0227 7.27731 12.6997 6.95431C12.3767 6.63131 12.1952 6.19322 12.1952 5.73643Z" stroke="#14AFB4" stroke-width="0.7" stroke-miterlimit="10" stroke-linecap="square"/>
</svg>
