<svg width="40" height="40" viewBox="0 0 40 40" fill="none" xmlns="http://www.w3.org/2000/svg">
<path d="M26.2315 31.6616H21.1365C20.5371 31.6616 20.0875 31.2845 19.9377 30.6811L18.2144 23.2141C18.0645 22.6107 18.3642 21.9319 18.8887 21.7056C19.638 21.4039 20.3872 21.8565 20.5371 22.5353L21.9607 28.8709C21.9607 29.0217 22.1106 29.0972 22.2604 29.0972H26.2315C26.831 29.0972 27.4304 29.5497 27.5053 30.1531C27.5802 30.9828 26.9808 31.6616 26.2315 31.6616Z" fill="#DCDCDC"/>
<path d="M20.688 22.6115C20.5381 21.8573 19.714 21.4802 19.0396 21.7819C18.4402 22.0082 18.2154 22.687 18.3653 23.2904L18.9647 25.8548H21.5122L20.688 22.6115Z" fill="#C4C4C4"/>
<path d="M27.1313 29.3242C25.8576 29.3242 24.8086 30.3802 24.8086 31.6624C24.8086 32.1149 24.9584 32.492 25.1083 32.7937H24.8086V34.0005H27.1313C28.4051 34.0005 29.4541 32.9446 29.4541 31.6624C29.529 30.3802 28.48 29.3242 27.1313 29.3242Z" fill="#D11313"/>
<path d="M29.3798 32.3413C29.4548 32.115 29.4548 31.8887 29.4548 31.6624C29.4548 31.4362 29.3798 31.1345 29.3049 30.9082H24.8842C24.8093 31.1345 24.7344 31.3607 24.7344 31.6624C24.7344 31.8887 24.7344 32.115 24.8093 32.3413H29.3798Z" fill="#D11313"/>
<path d="M26.8295 28.1172H24.8064V28.796C23.9073 29.3994 23.3828 30.4553 23.3828 31.6621H24.8064H26.8295H29.9764C30.2012 31.6621 30.351 31.5113 30.351 31.285C30.1262 29.4748 28.6277 28.1172 26.8295 28.1172Z" fill="#C4C4C4"/>
<path d="M24.8067 28.1172C22.8586 28.1172 21.2852 29.7011 21.2852 31.6621H28.2534C28.3283 29.7011 26.7548 28.1172 24.8067 28.1172Z" fill="#DCDCDC"/>
<path d="M27.1298 31.6624C27.1298 30.3802 26.0809 29.3242 24.8071 29.3242C23.5334 29.3242 22.4844 30.3802 22.4844 31.6624C22.4844 32.9446 23.5334 34.0005 24.8071 34.0005C26.0809 34.0005 27.1298 32.9446 27.1298 31.6624Z" fill="#92001F"/>
<path d="M25.405 31.662C25.405 31.3603 25.1804 31.0586 24.806 31.0586C24.5065 31.0586 24.207 31.2849 24.207 31.662C24.207 31.9637 24.4317 32.2654 24.806 32.2654C25.1055 32.2654 25.405 32.0391 25.405 31.662Z" fill="white"/>
<path d="M16.9386 31.6616H11.8435C11.2441 31.6616 10.7946 31.2845 10.6447 30.6811L8.92139 23.2141C8.77153 22.6107 9.07124 21.9319 9.59573 21.7056C10.345 21.4039 11.0943 21.8565 11.2441 22.5353L12.6677 28.8709C12.6677 29.0217 12.8176 29.0972 12.9674 29.0972H16.7887C17.3881 29.0972 17.9875 29.5497 18.0625 30.1531C18.2873 30.9828 17.6878 31.6616 16.9386 31.6616Z" fill="#DCDCDC"/>
<path d="M11.3208 22.6115C11.171 21.8573 10.3468 21.4802 9.67242 21.7819C9.07301 22.0082 8.84823 22.687 8.99808 23.2904L9.5975 25.8548H12.145L11.3208 22.6115Z" fill="#C4C4C4"/>
<path d="M17.8384 29.3242C16.5646 29.3242 15.5156 30.3802 15.5156 31.6624C15.5156 32.1149 15.6655 32.492 15.8153 32.7937H15.5156V34.0005H17.8384C19.1121 34.0005 20.1611 32.9446 20.1611 31.6624C20.1611 30.3802 19.1121 29.3242 17.8384 29.3242Z" fill="#D11313"/>
<path d="M20.0869 32.3413C20.1618 32.115 20.1618 31.8887 20.1618 31.6624C20.1618 31.4362 20.0869 31.1345 20.0119 30.9082H15.5913C15.5163 31.1345 15.4414 31.3607 15.4414 31.6624C15.4414 31.8887 15.4414 32.115 15.5163 32.3413H20.0869Z" fill="#D11313"/>
<path d="M17.5365 28.1172H15.5135V28.796C14.6143 29.3994 14.0898 30.4553 14.0898 31.6621H15.5135H17.5365H20.6085C20.8333 31.6621 20.9831 31.5113 20.9831 31.285C20.7583 29.4748 19.3347 28.1172 17.5365 28.1172Z" fill="#C4C4C4"/>
<path d="M15.5138 28.1172C13.5657 28.1172 11.9922 29.7011 11.9922 31.6621H18.9604C18.9604 29.7011 17.3869 28.1172 15.5138 28.1172Z" fill="#DCDCDC"/>
<path d="M17.8369 31.6624C17.8369 30.3802 16.7879 29.3242 15.5141 29.3242C14.2404 29.3242 13.1914 30.3802 13.1914 31.6624C13.1914 32.9446 14.2404 34.0005 15.5141 34.0005C16.7879 34.0005 17.8369 32.9446 17.8369 31.6624Z" fill="#92001F"/>
<path d="M16.0378 31.662C16.0378 31.3603 15.8132 31.0586 15.4388 31.0586C15.1393 31.0586 14.8398 31.2849 14.8398 31.662C14.8398 31.9637 15.0645 32.2654 15.4388 32.2654C15.8132 32.2654 16.0378 32.0391 16.0378 31.662Z" fill="white"/>
<path d="M32.0007 11.9762L25.1823 15.5965C24.6578 15.8982 24.1333 15.2948 24.3581 14.7668L27.9546 7.90324C28.4791 6.92273 29.5281 6.31934 30.5771 6.31934C32.2255 6.31934 33.5741 7.67697 33.5741 9.3363C33.5741 10.4677 32.9747 11.5236 32.0007 11.9762Z" fill="#C4C4C4"/>
<path d="M29.0762 9.2605L27.8783 8.05371L27.5039 8.73253L28.5521 9.78847C28.7019 9.93931 28.9265 9.93931 29.0762 9.78847C29.226 9.63762 29.226 9.41135 29.0762 9.2605Z" fill="#DCDCDC"/>
<path d="M30.2771 10.5428C30.1273 10.392 29.9027 10.392 29.7529 10.5428C29.6032 10.6937 29.6032 10.9199 29.7529 11.0708L31.1007 12.4284L31.7745 12.0513L30.2771 10.5428Z" fill="#DCDCDC"/>
<path d="M28.2523 11.7501L27.4287 10.9204C27.279 10.7696 27.279 10.5433 27.4287 10.3924C27.5785 10.2416 27.8031 10.2416 27.9528 10.3924L28.7764 11.2221C28.9262 11.3729 28.9262 11.5992 28.7764 11.7501C28.6267 11.9009 28.4021 11.9009 28.2523 11.7501Z" fill="#DCDCDC"/>
<path d="M28.3278 12.9569C28.1781 12.806 27.9535 12.806 27.8037 12.9569C27.654 13.1077 27.654 13.334 27.8037 13.4849L28.253 13.9374L28.9268 13.5603L28.3278 12.9569Z" fill="#DCDCDC"/>
<path d="M35.4467 7.6015C35.5216 7.07354 35.2219 6.62099 34.6974 6.54557C34.6225 6.54557 34.5475 6.54557 34.5475 6.54557C34.9971 6.31929 35.4467 6.0176 35.5965 5.79132C35.9711 5.4142 35.9711 4.73539 35.5965 4.28284C35.2219 3.90572 34.5475 3.90572 34.098 4.28284C33.9481 4.43369 33.6484 4.88623 33.3487 5.33878C33.3487 5.26335 33.3487 5.18793 33.3487 5.18793C33.2738 4.65996 32.7493 4.35826 32.2997 4.43369C31.7752 4.50911 31.4755 5.03708 31.5505 5.48963C31.6254 5.86675 32 6.84726 32.4496 7.29981L32.5245 7.37523L32.5994 7.45066C33.049 7.82778 34.023 8.28032 34.3977 8.35575C34.8472 8.50659 35.3717 8.12947 35.4467 7.6015Z" fill="#DCDCDC"/>
<path d="M15.1397 9.41113H6.97266V10.3162H15.1397V9.41113Z" fill="#DCDCDC"/>
<path d="M1.50423 7.60095H2.85291C3.30247 7.60095 3.67711 7.90265 3.75203 8.27977L5.17564 13.3332H8.62228L7.04882 7.52553C6.52433 5.79077 4.95086 4.58398 3.15262 4.58398H2.70306H1.57915C0.829883 4.58398 0.0806138 5.18738 0.00568686 5.94162C-0.0692401 6.84671 0.605102 7.60095 1.50423 7.60095Z" fill="#DCDCDC"/>
<path d="M5.17647 13.3326H8.62311L7.79891 10.2402H4.27734L5.17647 13.3326Z" fill="#C4C4C4"/>
<path d="M11.3949 7.60095H12.7435C13.1931 7.60095 13.5677 7.90265 13.6427 8.27977L15.0663 13.3332H18.5129L16.9394 7.52553C16.4899 5.79077 14.8415 4.58398 13.0432 4.58398H12.5937H11.4698C10.7205 4.58398 9.97124 5.18738 9.89631 5.94162C9.82138 6.84671 10.4957 7.60095 11.3949 7.60095Z" fill="#DCDCDC"/>
<path d="M15.0671 13.3326H18.5137L17.6895 10.2402H14.168L15.0671 13.3326Z" fill="#C4C4C4"/>
<path d="M30.6529 25.9307H19.1891C18.2151 25.9307 17.3909 25.2519 17.1661 24.3468L13.6445 11.751H35.0736C35.673 11.751 36.1226 12.3544 35.9728 12.8823L32.7509 24.3468C32.4512 25.2519 31.627 25.9307 30.6529 25.9307Z" fill="#92001F"/>
<path d="M20.6111 25.929H10.2712C9.2971 25.929 8.47291 25.2502 8.24813 24.3451L4.72656 11.6738H27.3545L24.1326 23.2137C23.6831 24.7976 22.2595 25.929 20.6111 25.929Z" fill="#92001F"/>
<path d="M34.997 11.6738H27.2796H24.807H4.72656L8.54783 25.4765C8.62276 25.7027 8.84754 25.8536 9.07232 25.8536H20.3863C22.1845 25.8536 23.6831 24.6468 24.2076 22.9875L26.3055 15.5205C26.6052 14.5399 27.5043 13.7857 28.5533 13.7857H34.7723C35.3717 13.7857 35.8212 13.4086 35.9711 12.8806C36.046 12.2772 35.5965 11.6738 34.997 11.6738Z" fill="#EE0033"/>
<path d="M10.8711 16.5759H10.2722C10.1224 16.5759 9.97266 16.4251 9.97266 16.2742V15.6708C9.97266 15.52 10.1224 15.3691 10.2722 15.3691H10.8711C11.0209 15.3691 11.1706 15.52 11.1706 15.6708V16.2742C11.2455 16.4251 11.0958 16.5759 10.8711 16.5759Z" fill="#92001F"/>
<path d="M14.4688 16.5759H13.8698C13.7201 16.5759 13.5703 16.4251 13.5703 16.2742V15.6708C13.5703 15.52 13.7201 15.3691 13.8698 15.3691H14.4688C14.6185 15.3691 14.7683 15.52 14.7683 15.6708V16.2742C14.8432 16.4251 14.6934 16.5759 14.4688 16.5759Z" fill="#92001F"/>
<path d="M18.0625 16.5759H17.4636C17.3138 16.5759 17.1641 16.4251 17.1641 16.2742V15.6708C17.1641 15.52 17.3138 15.3691 17.4636 15.3691H18.0625C18.2123 15.3691 18.362 15.52 18.362 15.6708V16.2742C18.4369 16.4251 18.2872 16.5759 18.0625 16.5759Z" fill="#92001F"/>
<path d="M21.7344 16.5759H21.1354C20.9857 16.5759 20.8359 16.4251 20.8359 16.2742V15.6708C20.8359 15.52 20.9857 15.3691 21.1354 15.3691H21.7344C21.8842 15.3691 22.0339 15.52 22.0339 15.6708V16.2742C22.0339 16.4251 21.8842 16.5759 21.7344 16.5759Z" fill="#92001F"/>
<path d="M12.668 19.4421H12.069C11.9193 19.4421 11.7695 19.2913 11.7695 19.1404V18.537C11.7695 18.3862 11.9193 18.2354 12.069 18.2354H12.668C12.8178 18.2354 12.9675 18.3862 12.9675 18.537V19.065C13.0424 19.2913 12.8926 19.4421 12.668 19.4421Z" fill="#92001F"/>
<path d="M16.2657 19.4421H15.6667C15.5169 19.4421 15.3672 19.2913 15.3672 19.1404V18.537C15.3672 18.3862 15.5169 18.2354 15.6667 18.2354H16.2657C16.4154 18.2354 16.5652 18.3862 16.5652 18.537V19.065C16.64 19.2913 16.4903 19.4421 16.2657 19.4421Z" fill="#92001F"/>
<path d="M19.8633 19.4421H19.2643C19.1146 19.4421 18.9648 19.2913 18.9648 19.1404V18.537C18.9648 18.3862 19.1146 18.2354 19.2643 18.2354H19.8633C20.0131 18.2354 20.1628 18.3862 20.1628 18.537V19.065C20.2377 19.2913 20.0879 19.4421 19.8633 19.4421Z" fill="#92001F"/>
<path d="M14.4688 22.3076H13.8698C13.7201 22.3076 13.5703 22.1568 13.5703 22.0059V21.3271C13.5703 21.1762 13.7201 21.0254 13.8698 21.0254H14.4688C14.6185 21.0254 14.7683 21.1762 14.7683 21.3271V21.9305C14.8432 22.1568 14.6934 22.3076 14.4688 22.3076Z" fill="#92001F"/>
<path d="M18.0665 22.3076H17.4675C17.3177 22.3076 17.168 22.1568 17.168 22.0059V21.3271C17.168 21.1762 17.3177 21.0254 17.4675 21.0254H18.0665C18.2162 21.0254 18.3659 21.1762 18.3659 21.3271V21.9305C18.4408 22.1568 18.2911 22.3076 18.0665 22.3076Z" fill="#92001F"/>
</svg>
