<svg width="20" height="20" viewBox="0 0 20 20" fill="none" xmlns="http://www.w3.org/2000/svg">
<path fill-rule="evenodd" clip-rule="evenodd" d="M3.08926 3.29746C3.41469 2.97203 3.93291 2.9626 4.24672 3.27642L16.3686 15.3982C16.6824 15.7121 16.6729 16.2303 16.3475 16.5557C16.0221 16.8812 15.5039 16.8906 15.19 16.5768L3.06821 4.45493C2.7544 4.14112 2.76382 3.6229 3.08926 3.29746Z" fill="#FF0048"/>
<path fill-rule="evenodd" clip-rule="evenodd" d="M3.29726 16.3476C2.97183 16.0221 2.9624 15.5039 3.27622 15.1901L15.398 3.06826C15.7119 2.75444 16.2301 2.76387 16.5555 3.0893C16.881 3.41474 16.8904 3.93296 16.5766 4.24677L4.45473 16.3686C4.14092 16.6824 3.6227 16.673 3.29726 16.3476Z" fill="#FF0048"/>
</svg>
