<svg width="49" height="48" viewBox="0 0 49 48" fill="none" xmlns="http://www.w3.org/2000/svg">
<path d="M12.9156 17.4793L18.4053 5.9502H14.3232C13.7601 5.9502 13.3379 6.21831 13.0563 6.62049L5.8775 16.675C5.45521 17.2112 5.31445 17.7475 5.31445 18.2837V20.5627C5.31445 21.5011 6.01826 22.1714 7.00359 22.1714H12.634V18.4178C12.634 18.1496 12.7748 17.7475 12.9156 17.4793Z" fill="#EE0033"/>
<path d="M44.022 16.675L36.8432 6.62049C36.5617 6.21831 35.9986 5.9502 35.4356 5.9502H31.3535L36.8432 17.4793C36.984 17.7475 36.984 18.0156 36.984 18.4178V22.1714H42.6144C43.5998 22.1714 44.3036 21.5011 44.3036 20.5627V18.2837C44.5851 17.7475 44.4443 17.2112 44.022 16.675Z" fill="#EE0033"/>
<path d="M41.4912 19.4902H8.27148V38.1245H41.4912V19.4902Z" fill="#EE0033"/>
<path d="M12.9156 17.4795H5.45521C5.31445 17.7476 5.31445 18.0157 5.31445 18.2839V20.5629C5.31445 21.5013 6.01826 22.1716 7.00359 22.1716H12.634V18.4179C12.634 18.1498 12.7748 17.7476 12.9156 17.4795Z" fill="#92001F"/>
<path d="M44.4467 17.4795H36.9863C37.1271 17.7476 37.1271 18.0157 37.1271 18.4179V22.1716H42.7575C43.7429 22.1716 44.4467 21.5013 44.4467 20.5629V18.2839C44.5874 18.0157 44.4467 17.7476 44.4467 17.4795Z" fill="#92001F"/>
<path d="M31.4968 5.9502H18.406L12.9163 17.4793C12.7755 17.7475 12.6348 18.1496 12.6348 18.4178V22.1714H37.1273V18.4178C37.1273 18.1496 36.9865 17.7475 36.9865 17.4793L31.4968 5.9502Z" fill="#C4C4C4"/>
<path d="M12.9163 17.4795C12.7755 17.7476 12.6348 18.1498 12.6348 18.4179V22.1716H37.1273V18.4179C37.1273 18.1498 36.9865 17.7476 36.9865 17.4795H12.9163Z" fill="#DCDCDC"/>
<path d="M26.9923 5.9502H22.7695L20.7988 17.7475C20.7988 17.8815 20.7988 18.0156 20.7988 18.0156V22.0374H28.963V18.0156C28.963 17.8815 28.963 17.7475 28.963 17.7475L26.9923 5.9502Z" fill="#EE0033"/>
<path d="M28.963 17.4795H20.9396V17.7476C20.7988 17.8817 20.7988 18.0157 20.7988 18.0157V22.0375H28.963V18.0157C28.963 17.8817 28.963 17.7476 28.963 17.7476V17.4795Z" fill="#92001F"/>
<path d="M28.963 38.2586H20.7988V29.6787C20.7988 27.5338 22.6287 25.791 24.8809 25.791C27.1331 25.791 28.963 27.5338 28.963 29.6787V38.2586Z" fill="#92001F"/>
<path d="M44.5869 38.124H5.31445V39.8668H44.5869V38.124Z" fill="#C4C4C4"/>
</svg>
