<svg width="20" height="20" viewBox="0 0 20 20" fill="none" xmlns="http://www.w3.org/2000/svg">
<path d="M11.6667 7.49984V5.83317C11.6667 4.9127 10.9205 4.1665 10 4.1665H6.66667C5.74619 4.1665 5 4.9127 5 5.83317V11.6665C5 12.587 5.74619 13.3332 6.66667 13.3332H10C10.9205 13.3332 11.6667 12.587 11.6667 11.6665V9.58317M8.33333 13.3332V14.1665C8.33333 15.087 9.07953 15.8332 10 15.8332H13.3333C14.2538 15.8332 15 15.087 15 14.1665V9.1665C15 8.24603 14.2538 7.49984 13.3333 7.49984H10C9.07953 7.49984 8.33333 8.24603 8.33333 9.1665V11.2498" stroke="#44494D" stroke-linecap="round" stroke-linejoin="round"/>
</svg>
