<svg width="30" height="30" viewBox="0 0 30 30" fill="none" xmlns="http://www.w3.org/2000/svg">
<path d="M21.772 8.94823H21.5233H21.185H20.8467H18.2631H8.76952H7.52413H6.47617H6.28194H5.63096C5.28627 8.94823 4.97785 9.10476 4.77722 9.3527C4.68545 9.46616 4.61608 9.59748 4.57659 9.74141C4.55205 9.83175 4.53711 9.9263 4.53711 10.023V10.1522V11.3771V21.9994C4.53711 22.5929 5.02588 23.0741 5.62883 23.0741H21.7698C22.3728 23.0741 22.8616 22.5929 22.8616 21.9994V10.023C22.8637 9.42939 22.3749 8.94823 21.772 8.94823Z" fill="#DCDCDC"/>
<path d="M18.3428 7.71909C18.2079 7.24004 17.7549 6.92592 17.2613 6.92592C17.1626 6.92592 17.0639 6.93852 16.9652 6.96479L5.72852 8.94825H9.37537H15.864H17.5158H18.6927L18.3428 7.71909Z" fill="#92001F"/>
<path d="M21.75 19.5C23.8211 19.5 25.5 17.8211 25.5 15.75C25.5 13.679 23.8211 12 21.75 12C19.6789 12 18 13.679 18 15.75C18 17.8211 19.6789 19.5 21.75 19.5Z" fill="#EE0033"/>
<path fill-rule="evenodd" clip-rule="evenodd" d="M24.0449 14.3458C24.2167 14.5175 24.2167 14.7959 24.0449 14.9676L21.1955 17.8171C21.113 17.8995 21.0012 17.9459 20.8846 17.9459C20.768 17.9459 20.6561 17.8995 20.5737 17.8171L19.0765 16.32C18.9048 16.1483 18.9048 15.8698 19.0765 15.6981C19.2483 15.5264 19.5267 15.5264 19.6984 15.6981L20.8846 16.8843L23.4231 14.3458C23.5948 14.1741 23.8732 14.1741 24.0449 14.3458Z" fill="white"/>
</svg>
