<svg width="40" height="40" viewBox="0 0 40 40" fill="none" xmlns="http://www.w3.org/2000/svg">
<path d="M26.848 29.0172L25.7631 27.9419C24.288 26.4798 21.8974 26.4798 20.4222 27.9419C20.18 28.182 20.0449 28.505 20.0449 28.845C20.0449 29.4762 19.5818 30.0329 18.9514 30.1116C16.8416 30.3751 14.6354 29.7057 13.0166 28.0991C11.3957 26.4925 10.7203 24.308 10.9862 22.2169C11.0655 21.59 11.6273 21.1331 12.2641 21.1331C12.605 21.1331 12.933 20.9992 13.1753 20.7591C14.6504 19.297 14.6504 16.9275 13.1753 15.4655L12.0904 14.3902C10.5552 12.8686 7.95234 13.0514 6.76238 14.8492C5.52526 16.7193 4.89919 18.9464 5.05999 21.2096C5.32157 24.9072 6.87816 28.5305 9.73192 31.3569C12.5835 34.1832 16.2392 35.7261 19.9698 35.9875C22.2533 36.1468 24.5003 35.5284 26.387 34.3001C28.2009 33.1186 28.3832 30.5366 26.848 29.0172Z" fill="#C4C4C4"/>
<path d="M24.2351 17.3877L18.9018 22.721C18.5685 23.0543 18.0352 22.7876 18.0352 22.3876V17.3877H24.2351Z" fill="#92001F"/>
<path d="M16.3685 20.7214H33.635C34.3683 20.7214 34.9683 20.1215 34.9683 19.3881V5.3216C34.9683 4.58828 34.3683 3.98828 33.635 3.98828H16.3685C15.6352 3.98828 15.0352 4.58828 15.0352 5.3216V19.3881C15.0352 20.1215 15.6352 20.7214 16.3685 20.7214Z" fill="#EE0033"/>
</svg>
