<svg width="28" height="28" viewBox="0 0 28 28" fill="none" xmlns="http://www.w3.org/2000/svg">
<path d="M12.4766 10.2941C12.4766 7.43043 14.8152 5.0918 17.6788 5.0918C20.2084 5.0918 22.2607 7.14407 22.2607 9.67361C22.2607 12.2032 20.2084 14.2554 17.6788 14.2554H12.4766V10.2941ZM15.5311 10.2941V11.2486H17.6788C18.5379 11.2486 19.2061 10.5327 19.2061 9.72134C19.2061 8.86225 18.4902 8.19407 17.6788 8.19407C16.4857 8.09861 15.5311 9.10089 15.5311 10.2941Z" fill="#92001F"/>
<path d="M15.5302 14.2554H10.3279C7.79837 14.2554 5.74609 12.2032 5.74609 9.67361C5.74609 7.14407 7.79837 5.0918 10.3279 5.0918C13.1915 5.0918 15.5302 7.43043 15.5302 10.2941V14.2554ZM10.3279 8.09861C9.46882 8.09861 8.80064 8.81452 8.80064 9.62589C8.80064 10.485 9.51655 11.1532 10.3279 11.1532H12.4756V10.1986C12.4756 9.10089 11.5211 8.09861 10.3279 8.09861Z" fill="#EE0033"/>
<path d="M23.6281 25.4553H4.32561C4.02243 25.4553 3.82031 25.2587 3.82031 25.0621V15.2734H24.184V25.0621C24.184 25.2587 23.9313 25.4553 23.6281 25.4553Z" fill="#828282"/>
<path d="M25.0264 15.6398H2.97642C2.73778 15.6398 2.54688 15.4489 2.54688 15.2103V11.6307C2.54688 11.3921 2.73778 11.2012 2.97642 11.2012H25.0264C25.2651 11.2012 25.456 11.3921 25.456 11.6307V15.2103C25.456 15.4489 25.2651 15.6398 25.0264 15.6398Z" fill="#DCDCDC"/>
<path d="M15.4795 15.6387H12.4727V25.4546H15.4795V15.6387Z" fill="#92001F"/>
<path d="M15.4795 10.8184H12.4727V15.6388H15.4795V10.8184Z" fill="#EE0033"/>
</svg>
