<svg width="30" height="30" viewBox="0 0 30 30" fill="none" xmlns="http://www.w3.org/2000/svg">
<path d="M12.2053 4.89714C11.8635 5.47464 11.5717 6.08031 11.333 6.70753C10.4224 9.34717 9.98487 12.127 10.0407 14.9189C8.21069 14.5448 6.43194 13.9533 4.74219 13.157C5.08782 11.2188 5.97073 9.41683 7.29026 7.95642C8.60979 6.496 10.3128 5.43596 12.2053 4.89714V4.89714Z" fill="#DCDCDC"/>
<path d="M12.2054 25.1026C9.99466 24.4918 8.04458 23.1735 6.65315 21.3492C5.26173 19.5249 4.50549 17.2949 4.5 15V14.8545C6.25626 15.653 8.09943 16.2443 9.99231 16.6164C10.0725 18.9084 10.4973 21.1752 11.2523 23.3407C11.5194 23.954 11.8383 24.5434 12.2054 25.1026V25.1026Z" fill="#C4C4C4"/>
<path d="M25.5001 14.8545V15C25.4996 17.2844 24.755 19.5064 23.3791 21.3294C22.0033 23.1524 20.0712 24.477 17.8755 25.1026C18.2237 24.5285 18.5158 23.9223 18.7478 23.2922C19.498 21.1422 19.9227 18.892 20.0078 16.6164C21.9007 16.2443 23.7438 15.653 25.5001 14.8545V14.8545Z" fill="#EE0033"/>
<path d="M18.4248 15V15.2101C16.1531 15.5333 13.8472 15.5333 11.5756 15.2101V15C11.522 12.3811 11.9209 9.77264 12.7548 7.28967C13.0241 6.49858 13.4286 5.76024 13.9502 5.10751C14.0564 4.92285 14.2094 4.76946 14.3937 4.66281C14.5781 4.55616 14.7872 4.5 15.0002 4.5C15.2131 4.5 15.4223 4.55616 15.6066 4.66281C15.791 4.76946 15.9439 4.92285 16.0502 5.10751C16.5718 5.76024 16.9762 6.49858 17.2456 7.28967C18.0794 9.77264 18.4784 12.3811 18.4248 15Z" fill="#DCDCDC"/>
<path d="M18.3601 16.8427C18.2821 18.8432 17.9064 20.8208 17.2455 22.7103C16.9762 23.5014 16.5717 24.2398 16.0501 24.8925C15.9439 25.0772 15.7909 25.2305 15.6066 25.3372C15.4222 25.4438 15.2131 25.5 15.0001 25.5C14.7872 25.5 14.578 25.4438 14.3937 25.3372C14.2094 25.2305 14.0564 25.0772 13.9501 24.8925C13.4286 24.2398 13.0241 23.5014 12.7548 22.7103C12.0938 20.8208 11.7182 18.8432 11.6401 16.8427C13.8707 17.1337 16.1296 17.1337 18.3601 16.8427V16.8427Z" fill="#C4C4C4"/>
<path d="M25.3386 13.157C23.6524 13.9811 21.8736 14.5997 20.0401 14.9997C20.0959 12.2078 19.6584 9.42792 18.7478 6.78828C18.5158 6.15819 18.2237 5.55193 17.8755 4.97789C19.7572 5.51054 21.4529 6.55844 22.7715 8.00353C24.0901 9.44862 24.9792 11.2335 25.3386 13.157V13.157Z" fill="#EE0033"/>
</svg>
