<svg width="80" height="80" viewBox="0 0 80 80" fill="none" xmlns="http://www.w3.org/2000/svg">
<path d="M47.2824 68.0309H20.9131C18.1997 68.0309 16 65.8463 16 63.1516V16.9106C16 14.2158 18.1997 12.0312 20.9131 12.0312H55.0869C57.8003 12.0312 60 14.2158 60 16.9106V55.4006C60.0001 62.3761 54.3062 68.0309 47.2824 68.0309Z" fill="#DCDCDC"/>
<path d="M46.1263 68.0314C53.7886 68.0314 60.0002 62.3894 60.0002 55.4297V52.2656C60.0002 56.86 55.0611 57.0764 53.299 57.0764C50.3389 57.0764 47.9392 59.2561 47.9392 61.9447C47.9392 63.5453 47.7009 68.0314 42.6426 68.0314H46.1263Z" fill="#C4C4C4"/>
<path d="M30.4753 24.7564H27.7956C27.264 24.7564 26.833 24.365 26.833 23.8821C26.833 23.3993 27.264 23.0078 27.7956 23.0078H30.4753C31.0069 23.0078 31.4378 23.3993 31.4378 23.8821C31.4378 24.365 31.0069 24.7564 30.4753 24.7564Z" fill="#828282"/>
<path d="M52.2072 24.7564H49.5275C48.9959 24.7564 48.5649 24.365 48.5649 23.8821C48.5649 23.3993 48.9959 23.0078 49.5275 23.0078H52.2072C52.7388 23.0078 53.1698 23.3993 53.1698 23.8821C53.1698 24.365 52.7388 24.7564 52.2072 24.7564Z" fill="#828282"/>
<path d="M47.5189 29.9142C47.156 29.4857 46.5114 29.4399 46.0916 29.8129L43.2286 32.3565C41.5605 31.4805 39.4637 31.6815 37.9838 33.0208L32.0977 38.3484L42.9533 50.5953L48.8394 45.2677C50.3193 43.9284 50.747 41.8444 50.0683 40.073L52.8052 37.678C53.2161 37.3184 53.2626 36.6958 52.9097 36.2791L47.5189 29.9142Z" fill="#EE0033"/>
<path d="M23.055 35.9779C22.6855 36.3838 22.7123 37.0117 23.1151 37.3847L26.1283 40.1753C25.4921 41.9612 25.9693 44.0356 27.4804 45.3427C29.1126 46.8824 34.3591 51.93 37.2711 54.7342C38.3926 55.8142 40.1603 55.8364 41.3087 54.785L47.6072 49.0182C48.8967 47.8377 48.8821 45.8011 47.5759 44.6391L39.5037 36.349L38.0397 32.862C36.5285 31.5548 34.4278 31.3995 32.7812 32.3115L30.0244 29.8051C29.6159 29.4338 28.9837 29.4637 28.6121 29.872L23.055 35.9779Z" fill="#92001F"/>
<path d="M43.2291 32.3565C41.561 31.4805 39.4642 31.6815 37.9843 33.0208L35.0369 35.5878C34.099 36.4208 33.5412 37.6075 33.4944 38.8701L33.3687 41.6603C33.3687 44.096 37.0757 44.36 37.2132 41.8087L37.4357 38.7836L39.8346 36.6132L41.2586 38.0758" fill="#EE0033"/>
<path d="M33.8288 55.0455L27.2272 48.4106C26.5286 47.7072 26.5571 46.5636 27.2896 45.8956C28.6472 44.6577 30.7383 44.706 32.0375 46.0051L36.1848 50.1524C37.4817 51.4493 37.577 53.521 36.4043 54.9314C35.7474 55.7215 34.5528 55.7745 33.8288 55.0455Z" fill="#EE0033"/>
<path d="M38.8262 21.1719H26.7886C26.3032 21.1719 25.9097 20.7784 25.9097 20.293C25.9097 19.8076 26.3032 19.4141 26.7886 19.4141H38.8262C39.3116 19.4141 39.7051 19.8076 39.7051 20.293C39.7051 20.7784 39.3116 21.1719 38.8262 21.1719Z" fill="#828282"/>
<path d="M23.0019 36.0705C22.6203 36.4826 22.6527 37.1279 23.0736 37.4996L25.9443 40.0347L32.7786 32.3135L30.0708 29.8857C29.6642 29.5212 29.0405 29.5502 28.6695 29.9508L23.0019 36.0705Z" fill="#92001F"/>
</svg>
