<svg width="21" height="20" viewBox="0 0 21 20" fill="none" xmlns="http://www.w3.org/2000/svg">
<path fill-rule="evenodd" clip-rule="evenodd" d="M10.0947 1.42857C5.34636 1.42857 1.5233 5.25163 1.5233 10C1.5233 14.7484 5.34636 18.5714 10.0947 18.5714C14.8431 18.5714 18.6662 14.7484 18.6662 10C18.6662 9.61079 18.6176 9.2753 18.5545 8.83889C18.5467 8.78504 18.5387 8.72966 18.5305 8.67244C18.4747 8.28192 18.746 7.92011 19.1366 7.86432C19.5271 7.80853 19.8889 8.07989 19.9447 8.47041C19.9525 8.525 19.9605 8.57969 19.9685 8.6346C20.0307 9.06163 20.0947 9.50135 20.0947 10C20.0947 15.5373 15.6321 20 10.0947 20C4.55738 20 0.0947266 15.5373 0.0947266 10C0.0947266 4.46265 4.55738 0 10.0947 0C11.779 0 13.3283 0.384052 14.7273 1.16132C15.0722 1.3529 15.1964 1.78776 15.0048 2.1326C14.8133 2.47745 14.3784 2.60169 14.0336 2.41011C12.8612 1.75881 11.5533 1.42857 10.0947 1.42857Z" fill="#EE0033"/>
<path fill-rule="evenodd" clip-rule="evenodd" d="M19.8822 1.63463C20.163 1.91175 20.1659 2.364 19.8888 2.64476L10.0187 12.6448C9.88446 12.7807 9.70137 12.8573 9.51031 12.8573C9.31925 12.8573 9.13616 12.7807 9.00194 12.6448L5.30065 8.89476C5.02353 8.614 5.02648 8.16175 5.30725 7.88463C5.58801 7.60751 6.04026 7.61047 6.31738 7.89123L9.51031 11.1262L18.8721 1.64123C19.1492 1.36047 19.6014 1.35751 19.8822 1.63463Z" fill="#FE9A00"/>
</svg>
