<svg width="20" height="20" viewBox="0 0 20 20" fill="none" xmlns="http://www.w3.org/2000/svg">
<g clip-path="url(#clip0)">
<path d="M16.9462 3.07371C16.9187 1.37418 15.5276 0 13.8216 0H3.125C1.40188 0 0 1.40188 0 3.125V13.8021C0 15.5014 1.36336 16.8883 3.05379 16.9263C3.08129 18.6258 4.47238 20 6.1784 20H16.875C18.5981 20 20 18.5981 20 16.875V6.19793C20 4.49855 18.6366 3.11164 16.9462 3.07371ZM3.83465 15.3646H3.125C2.26344 15.3646 1.5625 14.6636 1.5625 13.8021V3.125C1.5625 2.26344 2.26344 1.5625 3.125 1.5625H13.8216C14.6832 1.5625 15.3841 2.26344 15.3841 3.125V13.8021C15.3841 14.6636 14.6832 15.3646 13.8216 15.3646H3.83465ZM18.4375 16.875C18.4375 17.7366 17.7366 18.4375 16.875 18.4375H6.1784C5.33426 18.4375 4.6443 17.7646 4.61676 16.9271H13.8216C15.5448 16.9271 16.9466 15.5252 16.9466 13.8021V4.63703C17.7751 4.67453 18.4375 5.36031 18.4375 6.19789V16.875H18.4375Z" fill="#EE0033"/>
</g>
<defs>
<clipPath id="clip0">
<rect width="20" height="20" fill="white"/>
</clipPath>
</defs>
</svg>
