<svg width="72" height="72" viewBox="0 0 72 72" fill="none" xmlns="http://www.w3.org/2000/svg">
<path d="M43.7128 52V15.7001C43.7128 14.3001 42.6088 13.2001 41.2036 13.2001H15.7095C14.3043 13.2001 13.2002 14.3001 13.2002 15.7001V52.1C13.2002 57.1 17.3154 61.2 22.4343 61.2H52.9469C47.828 61.2 43.7128 57.1 43.7128 52Z" fill="#DCDCDC"/>
<path d="M28.6756 35.6846C28.1179 35.6846 27.6996 35.1951 27.6996 34.5424C27.6996 33.8897 28.1179 33.4002 28.6756 33.4002C29.2334 33.4002 29.6517 33.8897 29.6517 34.5424H33.8347C33.8347 32.0948 32.5798 29.9735 30.7671 28.9945L30.7671 27.8522H26.5841L26.5841 28.9945C24.7715 29.9735 23.5166 32.0948 23.5166 34.5424C23.5166 37.8059 25.887 40.5798 28.6756 40.5798C29.2334 40.5798 29.6517 41.0693 29.6517 41.722C29.6517 42.3747 29.2334 42.8642 28.6756 42.8642C28.1179 42.8642 27.6996 42.3747 27.6996 41.722H23.5166C23.5166 44.1696 24.7715 46.2909 26.5841 47.27L26.5841 48.4122H30.7672L30.7672 47.27C32.5798 46.2909 33.8347 44.1696 33.8347 41.722C33.8347 38.4585 31.4643 35.6846 28.6756 35.6846Z" fill="white"/>
<path d="M32.858 55.0002C32.2558 55.0002 31.6536 55.4002 31.4528 55.9002C29.9473 59.1002 26.8358 61.2002 23.1221 61.2002H53.6347C56.5455 61.2002 59.2555 59.8002 60.8614 57.7002C61.6644 56.6002 60.9618 55.1002 59.5566 55.1002H32.858V55.0002Z" fill="#828282"/>
<g clip-path="url(#clip0_23596_36887)">
<path d="M47.3882 40.0731C54.785 40.0731 60.7812 34.099 60.7812 26.7295C60.7812 19.3601 54.785 13.3859 47.3882 13.3859C39.9914 13.3859 33.9951 19.3601 33.9951 26.7295C33.9951 34.099 39.9914 40.0731 47.3882 40.0731Z" fill="#EE0033"/>
<path d="M46.216 29.6787C45.655 29.6787 45.1562 29.1819 45.1562 28.6229V22.2255C45.1562 21.6666 45.655 21.1697 46.216 21.1697C46.7771 21.1697 47.2758 21.6666 47.2758 22.2255V28.6229C47.2758 29.1819 46.7771 29.6787 46.216 29.6787Z" fill="#C4C4C4"/>
<path d="M45.1562 28.6229C45.1562 28.064 45.655 27.5671 46.216 27.5671H50.5798C51.1409 27.5671 51.6396 28.064 51.6396 28.6229C51.6396 29.1819 51.1409 29.6788 50.5798 29.6788H46.216C45.655 29.6788 45.1562 29.1819 45.1562 28.6229Z" fill="white"/>
<path d="M47.2758 28.6229V27.5671H46.216C45.655 27.5671 45.1562 28.064 45.1562 28.6229C45.1562 29.1819 45.655 29.6788 46.216 29.6788C46.7771 29.6788 47.2758 29.1819 47.2758 28.6229Z" fill="white"/>
<path d="M51.3283 29.3681L52.0764 28.6228L51.3283 27.8775C50.892 27.4427 50.2685 27.4427 49.8322 27.8775C49.3958 28.3122 49.3958 28.9333 49.8322 29.3681C50.2685 29.8029 50.892 29.8029 51.3283 29.3681Z" fill="white"/>
</g>
<defs>
<clipPath id="clip0_23596_36887">
<rect width="26.7861" height="26.6872" fill="white" transform="translate(33.9951 13.3859)"/>
</clipPath>
</defs>
</svg>
