<svg width="32" height="32" viewBox="0 0 32 32" fill="none" xmlns="http://www.w3.org/2000/svg">
<path d="M16 7C17.6569 7 19 5.65685 19 4C19 2.34315 17.6569 1 16 1C14.3431 1 13 2.34315 13 4C13 5.65685 14.3431 7 16 7Z" stroke="#44494D" stroke-width="2" stroke-miterlimit="10" stroke-linecap="round" stroke-linejoin="round"/>
<path d="M4.30859 27.25C5.96545 27.25 7.30859 25.9069 7.30859 24.25C7.30859 22.5931 5.96545 21.25 4.30859 21.25C2.65174 21.25 1.30859 22.5931 1.30859 24.25C1.30859 25.9069 2.65174 27.25 4.30859 27.25Z" stroke="#44494D" stroke-width="2" stroke-miterlimit="10" stroke-linecap="round" stroke-linejoin="round"/>
<path d="M27.6914 27.25C29.3483 27.25 30.6914 25.9069 30.6914 24.25C30.6914 22.5931 29.3483 21.25 27.6914 21.25C26.0346 21.25 24.6914 22.5931 24.6914 24.25C24.6914 25.9069 26.0346 27.25 27.6914 27.25Z" stroke="#44494D" stroke-width="2" stroke-miterlimit="10" stroke-linecap="round" stroke-linejoin="round"/>
<path d="M9.25094 5.82812C6.59826 7.3574 4.5449 9.74379 3.42848 12.5949C2.31205 15.4461 2.19901 18.5922 3.10794 21.5161" stroke="#44494D" stroke-width="2" stroke-miterlimit="10" stroke-linecap="round" stroke-linejoin="round"/>
<path d="M25.9087 26.6445C23.8383 28.9006 21.0598 30.3825 18.0328 30.8451C15.0057 31.3077 11.9115 30.7233 9.26172 29.1885" stroke="#44494D" stroke-width="2" stroke-miterlimit="10" stroke-linecap="round" stroke-linejoin="round"/>
<path d="M29.4988 17.5009C29.4972 14.4371 28.4535 11.465 26.5392 9.0729C24.6248 6.6808 21.9538 5.01102 18.9648 4.33789" stroke="#44494D" stroke-width="2" stroke-miterlimit="10" stroke-linecap="round" stroke-linejoin="round"/>
</svg>
