<svg width="30" height="30" viewBox="0 0 30 30" fill="none" xmlns="http://www.w3.org/2000/svg">
<path d="M18.9223 20.7426L18.195 20.0153C17.195 19.0153 15.5587 19.0153 14.5587 20.0153C14.3769 20.1972 14.2859 20.4244 14.2859 20.6517C14.2859 21.1062 13.9678 21.4699 13.5587 21.5153C12.1041 21.6971 10.6042 21.2426 9.51326 20.1517C8.42237 19.0608 7.96782 17.5608 8.14964 16.1063C8.1951 15.6972 8.60418 15.379 9.01327 15.379C9.24054 15.379 9.46781 15.2881 9.64963 15.1063C10.6496 14.1063 10.6496 12.47 9.64963 11.47L8.92236 10.7427C7.87692 9.69726 6.10421 9.83362 5.28603 11.0609C4.42241 12.3336 4.01332 13.879 4.10423 15.4245C4.24059 17.9244 5.33149 20.4244 7.24056 22.3789C9.14963 24.3335 11.6951 25.3789 14.195 25.5607C15.7405 25.6516 17.2859 25.2426 18.5586 24.3789C19.8313 23.5608 19.9677 21.788 18.9223 20.7426Z" fill="#EE0033"/>
<path d="M15 4.09082C21.0249 4.09082 25.9091 8.97499 25.9091 14.9999M15 9.0495C18.2863 9.0495 20.9504 11.7136 20.9504 14.9999M15 13.0164C16.0954 13.0164 16.9835 13.9045 16.9835 14.9999" stroke="#C4C4C4" stroke-linecap="round" stroke-linejoin="round"/>
</svg>
