<svg width="17" height="17" viewBox="0 0 17 17" fill="none" xmlns="http://www.w3.org/2000/svg">
<path fill-rule="evenodd" clip-rule="evenodd" d="M8.07593 2.09794C4.27723 2.09794 1.21878 5.15638 1.21878 8.95508C1.21878 12.7538 4.27723 15.8122 8.07593 15.8122C11.8746 15.8122 14.9331 12.7538 14.9331 8.95508C14.9331 8.64371 14.8942 8.37532 14.8437 8.02619C14.8375 7.98311 14.8311 7.9388 14.8245 7.89303C14.7799 7.58061 14.997 7.29117 15.3094 7.24654C15.6218 7.2019 15.9113 7.41899 15.9559 7.73141C15.9621 7.77508 15.9685 7.81883 15.9749 7.86276C16.0247 8.20438 16.0759 8.55615 16.0759 8.95508C16.0759 13.385 12.5058 16.9551 8.07593 16.9551C3.64605 16.9551 0.0759277 13.385 0.0759277 8.95508C0.0759277 4.5252 3.64605 0.955078 8.07593 0.955078C9.42332 0.955078 10.6627 1.26232 11.782 1.88413C12.0579 2.0374 12.1573 2.38528 12.004 2.66116C11.8508 2.93704 11.5029 3.03643 11.227 2.88317C10.2891 2.36212 9.24282 2.09794 8.07593 2.09794Z" fill="#EE0033"/>
<path fill-rule="evenodd" clip-rule="evenodd" d="M15.9059 2.26434C16.1305 2.48604 16.1329 2.84784 15.9112 3.07245L8.01509 11.0724C7.90772 11.1812 7.76124 11.2425 7.6084 11.2425C7.45555 11.2425 7.30907 11.1812 7.2017 11.0724L4.24066 8.07245C4.01897 7.84784 4.02133 7.48604 4.24594 7.26434C4.47056 7.04265 4.83236 7.04502 5.05405 7.26963L7.6084 9.85758L15.0978 2.26963C15.3195 2.04502 15.6813 2.04265 15.9059 2.26434Z" fill="#EE0033"/>
</svg>
