<svg width="40" height="40" viewBox="0 0 40 40" fill="none" xmlns="http://www.w3.org/2000/svg">
<path d="M34.1029 34H5.89708C4.29625 34 3 32.7094 3 31.1155V7.88448C3 6.29061 4.29625 5 5.89708 5H34.1029C35.7038 5 37 6.29061 37 7.88448V31.1155C37 32.7094 35.7038 34 34.1029 34Z" fill="#C4C4C4"/>
<path d="M34.1029 5H5.89708C4.29625 5 3 6.29061 3 7.88448V9.23152H37V7.88448C37 6.29061 35.7038 5 34.1029 5Z" fill="#EE0033"/>
<path d="M7.17203 6.67871H6.30078V7.54617H7.17203V6.67871Z" fill="#92001F"/>
<path d="M8.965 6.67871H8.09375V7.54617H8.965V6.67871Z" fill="#92001F"/>
<path d="M10.7502 6.67871H9.87891V7.54617H10.7502V6.67871Z" fill="#92001F"/>
<path d="M37 9.23145H3V10.3951H37V9.23145Z" fill="#92001F"/>
<path d="M37 12.3632H4.97625C3.88542 12.3632 3 11.4816 3 10.3955H37V12.3632Z" fill="#C4C4C4"/>
<path d="M24.7292 25.6565L27.1893 31.7321C27.3541 32.1389 27.9604 32.1191 28.096 31.7025L28.7519 29.6866C28.8381 29.4216 29.0439 29.2079 29.3123 29.1048L31.3932 28.3054C31.7938 28.1515 31.7967 27.6078 31.3977 27.45L25.3601 25.0624C24.9693 24.9078 24.576 25.2781 24.7292 25.6565Z" fill="#EE0033"/>
<g clip-path="url(#clip0)">
<path d="M9.87891 18.2338V15.7739C9.87891 15.623 10.0119 15.5 10.1752 15.5H12.8357C12.999 15.5 13.132 15.623 13.132 15.7739V18.2338C13.132 18.3847 12.999 18.5077 12.8357 18.5077H10.1752C10.0119 18.5077 9.87891 18.3847 9.87891 18.2338Z" fill="#EE0033"/>
<path d="M11.1732 17.5575L11.0402 17.4345C10.9918 17.3897 10.9918 17.3171 11.0402 17.2667L11.923 16.4505C11.9714 16.4058 12.05 16.4058 12.1044 16.4505L12.2374 16.5735C12.2858 16.6182 12.2858 16.6909 12.2374 16.7412L11.3486 17.5575C11.3002 17.6022 11.2216 17.6022 11.1732 17.5575Z" fill="white"/>
<path d="M10.7752 17.0208L10.9082 16.8978C10.9566 16.8531 11.0352 16.8531 11.0896 16.8978L11.4947 17.2724C11.5431 17.3171 11.5431 17.3898 11.4947 17.4401L11.3557 17.5575C11.3073 17.6022 11.2287 17.6022 11.1743 17.5575L10.7752 17.1829C10.7208 17.1382 10.7208 17.0655 10.7752 17.0208Z" fill="white"/>
<path d="M30.8807 16.0928H14.4883V16.6239H30.8807V16.0928Z" fill="white"/>
<path d="M27.6397 17.373H14.4883V17.9041H27.6397V17.373Z" fill="white"/>
<path d="M9.87891 23.2259V20.7661C9.87891 20.6152 10.0119 20.4922 10.1752 20.4922H12.8357C12.999 20.4922 13.132 20.6152 13.132 20.7661V23.2259C13.132 23.3769 12.999 23.4999 12.8357 23.4999H10.1752C10.0119 23.4999 9.87891 23.3769 9.87891 23.2259Z" fill="white"/>
<path d="M30.8807 21.0908H14.4883V21.6219H30.8807V21.0908Z" fill="white"/>
<path d="M27.6397 22.3711H14.4883V22.9022H27.6397V22.3711Z" fill="white"/>
<path d="M11.5073 22.5048C11.8112 22.5048 12.0575 22.277 12.0575 21.996C12.0575 21.7151 11.8112 21.4873 11.5073 21.4873C11.2034 21.4873 10.957 21.7151 10.957 21.996C10.957 22.277 11.2034 22.5048 11.5073 22.5048Z" fill="#C4C4C4"/>
</g>
<defs>
<clipPath id="clip0">
<rect width="21" height="8" fill="white" transform="translate(9.87891 15.5)"/>
</clipPath>
</defs>
</svg>
