<svg width="13" height="13" viewBox="0 0 13 13" fill="none" xmlns="http://www.w3.org/2000/svg">
<path fill-rule="evenodd" clip-rule="evenodd" d="M4.70736 8.22339C4.91894 8.22339 5.09046 8.39491 5.09046 8.60649V8.87466C5.09046 9.79451 4.51393 10.6359 3.64652 10.9223L0.612362 12.0311C0.413635 12.1038 0.19366 12.0015 0.121036 11.8028C0.0484111 11.6041 0.150638 11.3841 0.349366 11.3115L3.38948 10.2005C3.39367 10.199 3.39789 10.1975 3.40213 10.1961C3.93982 10.0207 4.32426 9.48487 4.32426 8.87466V8.60649C4.32426 8.39491 4.49578 8.22339 4.70736 8.22339ZM7.30258 8.2617C7.51416 8.2617 7.68568 8.43322 7.68568 8.6448V8.87466C7.68568 9.48487 8.07012 10.0207 8.60781 10.1961L8.61373 10.1981L11.8392 11.3091C12.0393 11.378 12.1456 11.596 12.0767 11.7961C12.0078 11.9961 11.7897 12.1024 11.5897 12.0335L8.36699 10.9235C7.49759 10.6382 6.91948 9.79577 6.91948 8.87466V8.6448C6.91948 8.43322 7.091 8.2617 7.30258 8.2617Z" fill="#FE9A00"/>
<path fill-rule="evenodd" clip-rule="evenodd" d="M0.0976562 11.6714C0.0976562 11.4599 0.269178 11.2883 0.48076 11.2883H11.7143C11.9259 11.2883 12.0974 11.4599 12.0974 11.6714C12.0974 11.883 11.9259 12.0545 11.7143 12.0545H0.48076C0.269178 12.0545 0.0976562 11.883 0.0976562 11.6714Z" fill="#FE9A00"/>
<path fill-rule="evenodd" clip-rule="evenodd" d="M6.00525 2.28525C4.56022 2.28525 3.34824 3.51927 3.34824 5.0436C3.34824 5.81626 3.66044 6.74672 4.17371 7.48211C4.6927 8.2257 5.35185 8.68308 6.00525 8.68308C6.65864 8.68308 7.3178 8.2257 7.83678 7.48211C8.35005 6.74672 8.66226 5.81626 8.66226 5.0436C8.66226 3.51927 7.45028 2.28525 6.00525 2.28525ZM2.58203 5.0436C2.58203 3.11998 4.11357 1.51904 6.00525 1.51904C7.89693 1.51904 9.42846 3.11998 9.42846 5.0436C9.42846 5.9949 9.05479 7.07573 8.46509 7.92064C7.88111 8.75735 7.02021 9.44929 6.00525 9.44929C4.99029 9.44929 4.12939 8.75735 3.5454 7.92064C2.95571 7.07573 2.58203 5.9949 2.58203 5.0436Z" fill="#14AFB4"/>
<path fill-rule="evenodd" clip-rule="evenodd" d="M8.58789 4.1624C8.58789 3.95082 8.75941 3.7793 8.97099 3.7793H9.45296C10.4521 3.7793 11.319 4.53674 11.319 5.54157C11.319 6.5464 10.4521 7.30385 9.45296 7.30385H8.97099C8.75941 7.30385 8.58789 7.13233 8.58789 6.92075V4.1624ZM9.3541 4.5455V6.53764H9.45296C10.0851 6.53764 10.5528 6.06916 10.5528 5.54157C10.5528 5.01399 10.0851 4.5455 9.45296 4.5455H9.3541Z" fill="#14AFB4"/>
<path fill-rule="evenodd" clip-rule="evenodd" d="M2.55749 4.5455C1.92534 4.5455 1.45761 5.01399 1.45761 5.54157C1.45761 6.06916 1.92534 6.53764 2.55749 6.53764H2.65636V4.5455H2.55749ZM0.691406 5.54157C0.691406 4.53674 1.55836 3.7793 2.55749 3.7793H3.03946C3.25104 3.7793 3.42256 3.95082 3.42256 4.1624V6.92075C3.42256 7.13233 3.25104 7.30385 3.03946 7.30385H2.55749C1.55836 7.30385 0.691406 6.5464 0.691406 5.54157Z" fill="#14AFB4"/>
<path fill-rule="evenodd" clip-rule="evenodd" d="M4.59586 0.94443C3.55106 0.94443 2.75449 1.72384 2.75449 2.59178V4.00926C2.75449 4.22084 2.58297 4.39236 2.37138 4.39236C2.1598 4.39236 1.98828 4.22084 1.98828 4.00926V2.59178C1.98828 1.2377 3.19374 0.178223 4.59586 0.178223H7.37645C8.77857 0.178223 9.98402 1.2377 9.98402 2.59178V3.97095C9.98402 4.18253 9.8125 4.35405 9.60092 4.35405C9.38934 4.35405 9.21782 4.18253 9.21782 3.97095V2.59178C9.21782 1.72384 8.42125 0.94443 7.37645 0.94443H4.59586Z" fill="#FE9A00"/>
<path fill-rule="evenodd" clip-rule="evenodd" d="M2.37138 6.49951C2.58297 6.49951 2.75449 6.67103 2.75449 6.88262V7.5722C2.75449 8.13876 3.1879 8.56827 3.70607 8.56827C3.91765 8.56827 4.08917 8.73979 4.08917 8.95137C4.08917 9.16296 3.91765 9.33448 3.70607 9.33448C2.74125 9.33448 1.98828 8.53805 1.98828 7.5722V6.88262C1.98828 6.67103 2.1598 6.49951 2.37138 6.49951Z" fill="#14AFB4"/>
</svg>
