<svg width="80" height="80" viewBox="0 0 80 80" fill="none" xmlns="http://www.w3.org/2000/svg">
<path d="M28.9995 70.001H37.9995L40.9995 64.001V58.001H33.6245L32.9995 63.001L28.9995 70.001Z" fill="#C4C4C4"/>
<path d="M33.8745 56.813L32.9995 62.8767L39.3845 67.2305L40.9995 64.0005V56.813H33.8745Z" fill="#EE0033"/>
<path d="M66.0005 70.0012V55.4012L66.4591 54.8814C68.0968 53.0254 69.0005 50.6353 69.0005 48.1601C69.0005 45.4658 67.9302 42.8818 66.025 40.9767C64.1199 39.0715 61.5359 38.0012 58.8416 38.0012H42.6255C40.769 38.0012 38.9885 38.7387 37.6757 40.0515C36.363 41.3642 34.8755 42.6435 34.8755 44.5L33.7505 57.001L41.0005 57.0012V70.0012H66.0005Z" fill="#EE0033"/>
<path d="M55 31.999V37.999L51 41.999L47 37.999V31.999H55Z" fill="#C4C4C4"/>
<path d="M55 24.0005V33.0005C55 34.3266 54.4732 35.5983 53.5355 36.536C52.5979 37.4737 51.3261 38.0005 50 38.0005C48.6739 38.0005 47.4021 37.4737 46.4645 36.536C45.5268 35.5983 45 34.3266 45 33.0005V24.0005H55Z" fill="#DCDCDC"/>
<path d="M53.0002 25.999L51.6571 27.3422C51.1318 27.8675 50.5082 28.2841 49.8219 28.5684C49.1356 28.8527 48.4 28.999 47.6571 28.999C46.1568 28.999 44.718 28.403 43.6571 27.3422C42.5962 26.2813 42.0002 24.8425 42.0002 23.3422V21.999H53.1623C54.1802 21.999 55.1564 22.4034 55.8761 23.1231C56.5959 23.8429 57.0002 24.8191 57.0002 25.837C57.0002 26.5947 56.776 27.3354 56.3557 27.9659L55.0002 29.999L53.0002 25.999Z" fill="#828282"/>
<path d="M50.0005 46.6245L48.0005 58.6245H54.0005L52.0005 46.6245H50.0005Z" fill="#92001F"/>
<path d="M52.0005 46.6245L54.0005 43.6245L51.0005 41.6245L48.0005 43.6245L50.0005 46.6245H52.0005Z" fill="#92001F"/>
<path d="M65.9995 55.499L58.8357 48.324L51.6245 56.124L37.6245 50.124L34.9965 45.744C34.883 45.5549 34.7226 45.3984 34.5307 45.2898C34.3388 45.1811 34.122 45.124 33.9015 45.124C33.7338 45.124 33.5677 45.1571 33.4128 45.2212C33.2579 45.2854 33.1171 45.3795 32.9985 45.498C32.88 45.6166 32.7859 45.7574 32.7217 45.9123C32.6575 46.0673 32.6245 46.2333 32.6245 46.401V49.124H26.933C26.7612 49.124 26.591 49.1579 26.4323 49.2236C26.2735 49.2894 26.1293 49.3858 26.0078 49.5073C25.8862 49.6288 25.7899 49.773 25.7241 49.9318C25.6584 50.0905 25.6245 50.2607 25.6245 50.4325C25.6245 50.6456 25.6766 50.8555 25.7761 51.0439C25.8757 51.2323 26.0198 51.3935 26.1959 51.5136L44.6053 64.0655C46.5724 65.4067 48.8979 66.124 51.2787 66.124H51.2787C52.9589 66.124 54.6199 65.7666 56.1513 65.0755C57.6828 64.3844 59.0498 63.3754 60.1614 62.1155L65.9995 55.499Z" fill="#DCDCDC"/>
<path d="M29.204 42.6536H27.1087C26.9157 42.6536 26.7595 42.8097 26.7595 43.0028V43.352C26.7595 44.1223 27.386 44.7488 28.1563 44.7488C28.9267 44.7488 29.5532 44.1223 29.5532 43.352V43.0028C29.5532 42.8097 29.397 42.6536 29.204 42.6536Z" fill="#C4C4C4"/>
<path d="M28.156 42.6536H27.1087C26.9157 42.6536 26.7595 42.8097 26.7595 43.0028V43.352C26.7595 44.1222 27.3858 44.7486 28.156 44.7487V42.6536Z" fill="#828282"/>
<path d="M33.6544 24.5771C32.0222 23.0432 29.8844 22.2749 27.6422 22.4156C23.5561 22.6698 20.255 26.0783 20.1275 30.1755C20.0334 33.2112 21.628 36.0062 24.2893 37.4702C24.9509 37.8344 25.3618 38.5338 25.3618 39.296V41.9549C25.3618 42.7253 25.9883 43.3518 26.7586 43.3518H29.5522C30.3226 43.3518 30.949 42.7253 30.949 41.9549V39.296C30.949 38.5345 31.363 37.8334 32.0301 37.4658C34.5942 36.0512 36.1871 33.3558 36.1871 30.4312C36.1871 28.2235 35.264 26.0897 33.6544 24.5771Z" fill="#92001F"/>
<path d="M28.1555 37.0225C31.7958 37.0225 34.7468 34.0715 34.7468 30.4312C34.7468 26.7909 31.7958 23.8398 28.1555 23.8398C24.5152 23.8398 21.5642 26.7909 21.5642 30.4312C21.5642 34.0715 24.5152 37.0225 28.1555 37.0225Z" fill="#92001F"/>
<path d="M25.303 38.8103C25.3401 38.9671 25.363 39.1286 25.363 39.2942V41.9531C25.363 42.7235 25.9894 43.35 26.7598 43.35H29.5534C30.3237 43.35 30.9502 42.7235 30.9502 41.9531V39.2942C30.9502 39.1288 30.9732 38.9672 31.0106 38.8103H25.303Z" fill="#DCDCDC"/>
<path d="M28.1564 38.8103H25.303C25.3401 38.9671 25.363 39.1286 25.363 39.2942V41.9531C25.363 42.7235 25.9894 43.35 26.7598 43.35H28.1564V38.8103Z" fill="#C4C4C4"/>
<path d="M30.9484 39.8586H28.1548V40.557H30.9484V39.8586Z" fill="#C4C4C4"/>
<path d="M30.9484 41.2554H28.1548V41.9538H30.9484V41.2554Z" fill="#C4C4C4"/>
<path d="M28.1547 39.8586H25.3611V40.557H28.1547V39.8586Z" fill="#828282"/>
<path d="M28.1547 41.2554H25.3611V41.9538H28.1547V41.2554Z" fill="#828282"/>
<path d="M28.1234 21.6668C27.906 21.6668 27.7297 21.4905 27.7297 21.2731V19.6429C27.7297 19.4255 27.9059 19.2493 28.1234 19.2493C28.3408 19.2493 28.517 19.4255 28.517 19.6429V21.2732C28.517 21.4905 28.3408 21.6668 28.1234 21.6668Z" fill="#C4C4C4"/>
<path d="M33.5371 22.7657C33.4703 22.7657 33.4027 22.7487 33.3407 22.7128C33.1524 22.6042 33.0879 22.3634 33.1966 22.1752L34.0117 20.7633C34.1204 20.5751 34.361 20.5105 34.5494 20.6192C34.7377 20.7279 34.8021 20.9687 34.6935 21.1569L33.8784 22.5688C33.8055 22.6951 33.6731 22.7657 33.5371 22.7657Z" fill="#C4C4C4"/>
<path d="M37.0019 26.4565C36.8659 26.4565 36.7336 26.3859 36.6607 26.2596C36.552 26.0713 36.6165 25.8306 36.8048 25.7219L38.2166 24.9068C38.4048 24.7981 38.6457 24.8626 38.7543 25.0509C38.863 25.2392 38.7985 25.4799 38.6102 25.5886L37.1984 26.4037C37.1364 26.4394 37.0687 26.4565 37.0019 26.4565Z" fill="#C4C4C4"/>
<path d="M18.3176 37.1691C18.1816 37.1691 18.0493 37.0985 17.9764 36.9722C17.8677 36.784 17.9322 36.5432 18.1205 36.4346L19.5323 35.6194C19.7205 35.5108 19.9613 35.5752 20.07 35.7635C20.1787 35.9518 20.1142 36.1926 19.9259 36.3012L18.5141 37.1163C18.4521 37.1521 18.3844 37.1691 18.3176 37.1691Z" fill="#C4C4C4"/>
<path d="M22.4499 22.7656C22.3139 22.7656 22.1815 22.6951 22.1086 22.5688L21.2935 21.1569C21.1848 20.9687 21.2494 20.7279 21.4376 20.6193C21.6258 20.5105 21.8666 20.575 21.9753 20.7633L22.7904 22.1752C22.8991 22.3634 22.8346 22.6042 22.6463 22.7129C22.5844 22.7486 22.5167 22.7656 22.4499 22.7656Z" fill="#C4C4C4"/>
<path d="M19.1289 26.272C19.0621 26.272 18.9945 26.255 18.9324 26.2191L17.5206 25.404C17.3323 25.2954 17.2678 25.0546 17.3765 24.8663C17.4852 24.678 17.7258 24.6135 17.9142 24.7223L19.326 25.5374C19.5143 25.646 19.5788 25.8868 19.4701 26.0751C19.3972 26.2014 19.2649 26.272 19.1289 26.272Z" fill="#C4C4C4"/>
<path d="M37.6147 37.1689C37.5479 37.1689 37.4802 37.1519 37.4183 37.1161L36.0064 36.301C35.8182 36.1923 35.7537 35.9515 35.8624 35.7633C35.971 35.575 36.2119 35.5105 36.4 35.6192L37.8119 36.4343C38.0001 36.543 38.0646 36.7838 37.956 36.972C37.8831 37.0983 37.7507 37.1689 37.6147 37.1689Z" fill="#C4C4C4"/>
<path d="M18.1396 31.4943H16.5094C16.292 31.4943 16.1157 31.3181 16.1157 31.1007C16.1157 30.8833 16.2919 30.707 16.5094 30.707H18.1396C18.357 30.707 18.5332 30.8833 18.5332 31.1007C18.5332 31.3181 18.357 31.4943 18.1396 31.4943Z" fill="#C4C4C4"/>
<path d="M39.4911 31.4943H37.8609C37.6435 31.4943 37.4673 31.3181 37.4673 31.1007C37.4673 30.8833 37.6435 30.707 37.8609 30.707H39.4912C39.7086 30.707 39.8848 30.8833 39.8848 31.1007C39.8848 31.3181 39.7086 31.4943 39.4911 31.4943Z" fill="#C4C4C4"/>
<path d="M26.51 34.1496L23.0659 27.2785C24.3459 27.2785 25.5083 28.0252 26.0405 29.1893L27.1123 31.5335C27.4593 32.2926 28.539 32.2891 28.8812 31.5278L29.9432 29.1651C30.4725 27.9876 31.6433 27.2302 32.9343 27.2302L29.484 34.1496C29.3561 34.4232 28.8742 34.9703 27.9703 34.9703C27.0664 34.9703 26.6202 34.4232 26.51 34.1496Z" fill="white"/>
</svg>
