<svg width="42" height="56" viewBox="0 0 42 56" fill="none" xmlns="http://www.w3.org/2000/svg">
<path fill-rule="evenodd" clip-rule="evenodd" d="M7 4.66667C6.38116 4.66667 5.78767 4.9125 5.35008 5.35008C4.9125 5.78767 4.66667 6.38116 4.66667 7V49C4.66667 49.6188 4.9125 50.2123 5.35008 50.6499C5.78767 51.0875 6.38116 51.3333 7 51.3333H35C35.6188 51.3333 36.2123 51.0875 36.6499 50.6499C37.0875 50.2123 37.3333 49.6188 37.3333 49V7C37.3333 6.38116 37.0875 5.78767 36.6499 5.35008C36.2123 4.9125 35.6188 4.66667 35 4.66667H7ZM7 0H35C36.8565 0 38.637 0.737498 39.9497 2.05025C41.2625 3.36301 42 5.14348 42 7V49C42 50.8565 41.2625 52.637 39.9497 53.9497C38.637 55.2625 36.8565 56 35 56H7C5.14348 56 3.36301 55.2625 2.05025 53.9497C0.737498 52.637 0 50.8565 0 49V7C0 5.14348 0.737498 3.36301 2.05025 2.05025C3.36301 0.737498 5.14348 0 7 0Z" fill="#576C8A"/>
<path d="M21.0003 46.6667C22.289 46.6667 23.3337 45.622 23.3337 44.3333C23.3337 43.0447 22.289 42 21.0003 42C19.7117 42 18.667 43.0447 18.667 44.3333C18.667 45.622 19.7117 46.6667 21.0003 46.6667Z" fill="#576C8A"/>
</svg>
