<svg width="32" height="32" viewBox="0 0 32 32" fill="none" xmlns="http://www.w3.org/2000/svg">
<path d="M13.9688 14.0362L25.1687 2.82819C25.6993 2.2979 26.4186 2 27.1687 2C27.9188 2 28.6382 2.2979 29.1687 2.82819V2.82819C29.699 3.3587 29.9969 4.07809 29.9969 4.82819C29.9969 5.57829 29.699 6.29768 29.1687 6.82819L17.9667 18.0342" stroke="#44494D" stroke-width="2" stroke-miterlimit="10" stroke-linecap="round" stroke-linejoin="round"/>
<path d="M10.163 15.3458C11.028 14.505 12.1892 14.0384 13.3955 14.047C14.6018 14.0556 15.7562 14.5386 16.6092 15.3915C17.4622 16.2445 17.9452 17.399 17.9538 18.6053C17.9624 19.8116 17.4958 20.9728 16.655 21.8378C14.862 23.6288 8 24.0008 8 24.0008C8 24.0008 8.372 17.1388 10.163 15.3458Z" stroke="#44494D" stroke-width="2" stroke-miterlimit="10" stroke-linecap="round" stroke-linejoin="round"/>
<path d="M19 2H2V30H30V13" stroke="#44494D" stroke-width="2" stroke-miterlimit="10" stroke-linecap="round" stroke-linejoin="round"/>
</svg>
