<svg width="30" height="30" viewBox="0 0 30 30" fill="none" xmlns="http://www.w3.org/2000/svg">
<circle cx="15" cy="15" r="12" fill="#EE0033"/>
<path d="M3 15C3 21.6274 8.37258 27 15 27V3C8.37258 3 3 8.37258 3 15Z" fill="#92001F"/>
<path d="M15 13.5714C14.6757 13.5714 14.4324 13.2857 14.4324 12.9048C14.4324 12.5238 14.6757 12.2381 15 12.2381C15.3243 12.2381 15.5676 12.5238 15.5676 12.9048H18C18 11.4762 17.2703 10.2381 16.2162 9.66667V9H13.7838V9.66667C12.7297 10.2381 12 11.4762 12 12.9048C12 14.8095 13.3784 16.4286 15 16.4286C15.3243 16.4286 15.5676 16.7143 15.5676 17.0952C15.5676 17.4762 15.3243 17.7619 15 17.7619C14.6757 17.7619 14.4324 17.4762 14.4324 17.0952H12C12 18.5238 12.7297 19.7619 13.7838 20.3333V21H16.2162V20.3333C17.2703 19.7619 18 18.5238 18 17.0952C18 15.1905 16.6216 13.5714 15 13.5714Z" fill="white"/>
</svg>
