<svg width="24" height="24" viewBox="0 0 24 24" fill="none" xmlns="http://www.w3.org/2000/svg">
<rect x="3.60156" y="6" width="16.8" height="13.2" rx="1" fill="#DCDCDC"/>
<path d="M3.60156 7C3.60156 6.44772 4.04928 6 4.60156 6H19.4016C19.9538 6 20.4016 6.44772 20.4016 7V9.6H3.60156V7Z" fill="#EE0033"/>
<path d="M12 6H19.4C19.9523 6 20.4 6.44772 20.4 7V9.6H12V6Z" fill="#92001F"/>
<rect x="6" y="3.59961" width="2.4" height="4.8" rx="1" fill="#DCDCDC"/>
<rect x="10.8008" y="3.59961" width="2.4" height="4.8" rx="1" fill="#DCDCDC"/>
<rect x="15.6016" y="3.59961" width="2.4" height="4.8" rx="1" fill="#DCDCDC"/>
<mask id="mask0" mask-type="alpha" maskUnits="userSpaceOnUse" x="6" y="3" width="3" height="6">
<rect x="6" y="3.59961" width="2.4" height="4.8" rx="1" fill="#DCDCDC"/>
</mask>
<g mask="url(#mask0)">
<rect x="7.19922" y="2.40039" width="2.4" height="7.2" fill="#C4C4C4"/>
</g>
<mask id="mask1" mask-type="alpha" maskUnits="userSpaceOnUse" x="10" y="3" width="4" height="6">
<rect x="10.8008" y="3.59961" width="2.4" height="4.8" rx="1" fill="#DCDCDC"/>
</mask>
<g mask="url(#mask1)">
<rect x="12" y="2.40039" width="2.4" height="7.2" fill="#C4C4C4"/>
</g>
<mask id="mask2" mask-type="alpha" maskUnits="userSpaceOnUse" x="15" y="3" width="4" height="6">
<rect x="15.6016" y="3.59961" width="2.4" height="4.8" rx="1" fill="#DCDCDC"/>
</mask>
<g mask="url(#mask2)">
<rect x="16.8008" y="2.40039" width="2.4" height="7.2" fill="#C4C4C4"/>
</g>
<ellipse cx="18.9563" cy="17.9797" rx="2.69063" ry="2.69062" fill="#EE0033"/>
<path fill-rule="evenodd" clip-rule="evenodd" d="M18.8525 16.1762C18.7059 16.1724 18.5781 16.2878 18.567 16.4339L18.5702 18.2048C18.5649 18.275 18.5877 18.343 18.6337 18.394C18.6797 18.4449 18.745 18.4745 18.8154 18.4764L20.0679 18.4764C20.2144 18.4802 20.3423 18.3648 20.3534 18.2186C20.3645 18.0725 20.2547 17.9509 20.1082 17.947L19.121 17.954L19.0977 16.4478C19.1088 16.3016 18.999 16.18 18.8525 16.1762Z" fill="white"/>
<path d="M13.3899 11.0345V12.9834C13.3899 13.0729 13.3361 13.1547 13.251 13.1947L12.1117 13.7297C12.0412 13.7629 11.9582 13.7629 11.8877 13.7297L10.7484 13.1947C10.6633 13.1547 10.6096 13.0729 10.6096 12.9834V11.0345C10.6096 10.9141 10.46 10.8486 10.3621 10.9262L9.6767 11.4696C9.50522 11.6055 9.40625 11.8058 9.40625 12.0168V13.5433C9.40625 13.8717 9.58567 14.177 9.88123 14.3515L11.0281 15.0286V17.7442C11.0281 17.8747 11.1404 17.9804 11.279 17.9804H12.7205C12.8591 17.9804 12.9714 17.8747 12.9714 17.7442V15.0286L14.1183 14.3515C14.4138 14.1769 14.5933 13.8717 14.5933 13.5433V12.0168C14.5933 11.8058 14.4943 11.6055 14.3228 11.4696L13.6374 10.9262C13.5395 10.8486 13.3899 10.9141 13.3899 11.0345Z" fill="#EE0033"/>
<mask id="mask3" mask-type="alpha" maskUnits="userSpaceOnUse" x="9" y="10" width="6" height="8">
<path d="M13.3899 11.0345V12.9834C13.3899 13.0729 13.3361 13.1547 13.251 13.1947L12.1117 13.7297C12.0412 13.7629 11.9582 13.7629 11.8877 13.7297L10.7484 13.1947C10.6633 13.1547 10.6096 13.0729 10.6096 12.9834V11.0345C10.6096 10.9141 10.46 10.8486 10.3621 10.9262L9.6767 11.4696C9.50522 11.6055 9.40625 11.8058 9.40625 12.0168V13.5433C9.40625 13.8717 9.58567 14.177 9.88123 14.3515L11.0281 15.0286V17.7442C11.0281 17.8747 11.1404 17.9804 11.279 17.9804H12.7205C12.8591 17.9804 12.9714 17.8747 12.9714 17.7442V15.0286L14.1183 14.3515C14.4138 14.1769 14.5933 13.8717 14.5933 13.5433V12.0168C14.5933 11.8058 14.4943 11.6055 14.3228 11.4696L13.6374 10.9262C13.5395 10.8486 13.3899 10.9141 13.3899 11.0345Z" fill="#EE0033"/>
</mask>
<g mask="url(#mask3)">
<rect x="12" y="9.59961" width="4.28781" height="13.1323" fill="#92001F"/>
</g>
</svg>
