<svg width="16" height="16" viewBox="0 0 16 16" fill="none" xmlns="http://www.w3.org/2000/svg">
<path fill-rule="evenodd" clip-rule="evenodd" d="M2.66675 8.00001C2.66675 7.63182 2.96522 7.33334 3.33341 7.33334H4.66675C5.03494 7.33334 5.33341 7.63182 5.33341 8.00001V8.66668C5.33341 9.03487 5.03494 9.33334 4.66675 9.33334H3.33341C2.96522 9.33334 2.66675 9.03487 2.66675 8.66668V8.00001Z" fill="#EE0033"/>
<path fill-rule="evenodd" clip-rule="evenodd" d="M6.66675 8.00001C6.66675 7.63182 6.96522 7.33334 7.33341 7.33334H8.66675C9.03494 7.33334 9.33341 7.63182 9.33341 8.00001V8.66668C9.33341 9.03487 9.03494 9.33334 8.66675 9.33334H7.33341C6.96522 9.33334 6.66675 9.03487 6.66675 8.66668V8.00001Z" fill="#EE0033"/>
<path fill-rule="evenodd" clip-rule="evenodd" d="M2.66675 11.3333C2.66675 10.9651 2.96522 10.6667 3.33341 10.6667H4.66675C5.03494 10.6667 5.33341 10.9651 5.33341 11.3333V12C5.33341 12.3682 5.03494 12.6667 4.66675 12.6667H3.33341C2.96522 12.6667 2.66675 12.3682 2.66675 12V11.3333Z" fill="#EE0033"/>
<path fill-rule="evenodd" clip-rule="evenodd" d="M6.66675 11.3333C6.66675 10.9651 6.96522 10.6667 7.33341 10.6667H8.66675C9.03494 10.6667 9.33341 10.9651 9.33341 11.3333V12C9.33341 12.3682 9.03494 12.6667 8.66675 12.6667H7.33341C6.96522 12.6667 6.66675 12.3682 6.66675 12V11.3333Z" fill="#EE0033"/>
<path fill-rule="evenodd" clip-rule="evenodd" d="M10.6667 8.00001C10.6667 7.63182 10.9652 7.33334 11.3334 7.33334H12.6667C13.0349 7.33334 13.3334 7.63182 13.3334 8.00001V8.66668C13.3334 9.03487 13.0349 9.33334 12.6667 9.33334H11.3334C10.9652 9.33334 10.6667 9.03487 10.6667 8.66668V8.00001Z" fill="#EE0033"/>
<path d="M4.66659 8H3.33325V8.66667H4.66659V8Z" fill="#EE0033"/>
<path d="M8.66659 8H7.33325V8.66667H8.66659V8Z" fill="#EE0033"/>
<path d="M4.66659 11.3333H3.33325V12H4.66659V11.3333Z" fill="#EE0033"/>
<path d="M8.66659 11.3333H7.33325V12H8.66659V11.3333Z" fill="#EE0033"/>
<path d="M12.6666 8H11.3333V8.66667H12.6666V8Z" fill="#EE0033"/>
<path fill-rule="evenodd" clip-rule="evenodd" d="M0 2.66667C0 2.29848 0.298477 2 0.666667 2H15.3333C15.7015 2 16 2.29848 16 2.66667V14.6667C16 15.0349 15.7015 15.3333 15.3333 15.3333H0.666667C0.298477 15.3333 0 15.0349 0 14.6667V2.66667ZM1.33333 3.33333V14H14.6667V3.33333H1.33333Z" fill="#EE0033"/>
<path fill-rule="evenodd" clip-rule="evenodd" d="M11.3334 0C11.7016 0 12.0001 0.298477 12.0001 0.666667V2.66667C12.0001 3.03486 11.7016 3.33333 11.3334 3.33333C10.9652 3.33333 10.6667 3.03486 10.6667 2.66667V0.666667C10.6667 0.298477 10.9652 0 11.3334 0Z" fill="#EE0033"/>
<path fill-rule="evenodd" clip-rule="evenodd" d="M4.66667 0C5.03486 0 5.33333 0.298477 5.33333 0.666667V2.66667C5.33333 3.03486 5.03486 3.33333 4.66667 3.33333C4.29848 3.33333 4 3.03486 4 2.66667V0.666667C4 0.298477 4.29848 0 4.66667 0Z" fill="#EE0033"/>
<path fill-rule="evenodd" clip-rule="evenodd" d="M0 5.33332C0 4.96513 0.298477 4.66666 0.666667 4.66666H15.3333C15.7015 4.66666 16 4.96513 16 5.33332C16 5.70151 15.7015 5.99999 15.3333 5.99999H0.666667C0.298477 5.99999 0 5.70151 0 5.33332Z" fill="#EE0033"/>
</svg>
