<svg width="24" height="24" viewBox="0 0 24 24" fill="none" xmlns="http://www.w3.org/2000/svg">
<path fill-rule="evenodd" clip-rule="evenodd" d="M2.25 4.01782C2.66421 4.01782 3 4.35361 3 4.76782V9.58925C3 9.87989 3.13971 10.2266 3.53952 10.6162C3.94174 11.0082 4.56275 11.3957 5.39117 11.737C7.0445 12.4183 9.38056 12.8571 12 12.8571C14.6194 12.8571 16.9555 12.4183 18.6088 11.737C19.4373 11.3957 20.0583 11.0082 20.4605 10.6162C20.8603 10.2266 21 9.87989 21 9.58925V4.76782C21 4.35361 21.3358 4.01782 21.75 4.01782C22.1642 4.01782 22.5 4.35361 22.5 4.76782V9.58925C22.5 10.4083 22.0942 11.1187 21.5073 11.6905C20.9229 12.26 20.1162 12.7383 19.1803 13.1239C17.305 13.8967 14.7661 14.3571 12 14.3571C9.2339 14.3571 6.69496 13.8967 4.81967 13.1239C3.88379 12.7383 3.07708 12.26 2.49267 11.6905C1.90585 11.1187 1.5 10.4083 1.5 9.58925V4.76782C1.5 4.35361 1.83579 4.01782 2.25 4.01782Z" fill="#FE9A00"/>
<path fill-rule="evenodd" clip-rule="evenodd" d="M2.25 8.83936C2.66421 8.83936 3 9.17514 3 9.58936V14.4108C3 14.7014 3.13971 15.0482 3.53952 15.4378C3.94174 15.8297 4.56275 16.2172 5.39117 16.5586C7.0445 17.2399 9.38056 17.6786 12 17.6786C14.6194 17.6786 16.9555 17.2399 18.6088 16.5586C19.4373 16.2172 20.0583 15.8297 20.4605 15.4378C20.8603 15.0482 21 14.7014 21 14.4108V9.58936C21 9.17514 21.3358 8.83936 21.75 8.83936C22.1642 8.83936 22.5 9.17514 22.5 9.58936V14.4108C22.5 15.2299 22.0942 15.9402 21.5073 16.5121C20.9229 17.0815 20.1162 17.5598 19.1803 17.9454C17.305 18.7182 14.7661 19.1786 12 19.1786C9.2339 19.1786 6.69496 18.7182 4.81967 17.9454C3.88379 17.5598 3.07708 17.0815 2.49267 16.5121C1.90585 15.9402 1.5 15.2299 1.5 14.4108V9.58936C1.5 9.17514 1.83579 8.83936 2.25 8.83936Z" fill="#FE9A00"/>
<path fill-rule="evenodd" clip-rule="evenodd" d="M21.75 14.092C22.1642 14.092 22.5 14.4278 22.5 14.842V19.2323C22.5 20.0514 22.0942 20.7617 21.5073 21.3336C20.9229 21.903 20.1162 22.3813 19.1803 22.7669C17.305 23.5397 14.7661 24.0001 12 24.0001C9.2339 24.0001 6.69496 23.5397 4.81967 22.7669C3.88379 22.3813 3.07708 21.903 2.49267 21.3336C1.90585 20.7617 1.5 20.0514 1.5 19.2323V15.2656C1.5 14.8514 1.83579 14.5156 2.25 14.5156C2.66421 14.5156 3 14.8514 3 15.2656V19.2323C3 19.5229 3.13971 19.8697 3.53952 20.2593C3.94174 20.6512 4.56275 21.0387 5.39117 21.3801C7.0445 22.0614 9.38056 22.5001 12 22.5001C14.6194 22.5001 16.9555 22.0614 18.6088 21.3801C19.4373 21.0387 20.0583 20.6512 20.4605 20.2593C20.8603 19.8697 21 19.5229 21 19.2323V14.842C21 14.4278 21.3358 14.092 21.75 14.092Z" fill="#FE9A00"/>
<path fill-rule="evenodd" clip-rule="evenodd" d="M3.53958 3.74112C3.13967 4.13074 3 4.47742 3 4.76786C3 5.05829 3.13967 5.40497 3.53958 5.7946C3.94188 6.18655 4.56298 6.57407 5.39146 6.91548C7.04491 7.59685 9.38098 8.03571 12 8.03571C14.619 8.03571 16.9551 7.59685 18.6085 6.91548C19.437 6.57407 20.0581 6.18655 20.4604 5.7946C20.8603 5.40497 21 5.05829 21 4.76786C21 4.47742 20.8603 4.13074 20.4604 3.74112C20.0581 3.34917 19.437 2.96164 18.6085 2.62023C16.9551 1.93887 14.619 1.5 12 1.5C9.38098 1.5 7.04491 1.93887 5.39146 2.62023C4.56298 2.96164 3.94188 3.34917 3.53958 3.74112ZM4.81995 1.23337C6.69531 0.460562 9.23424 0 12 0C14.7658 0 17.3047 0.460562 19.18 1.23337C20.116 1.61905 20.9227 2.09731 21.5072 2.66673C22.094 3.23849 22.5 3.94879 22.5 4.76786C22.5 5.58692 22.094 6.29722 21.5072 6.86898C20.9227 7.43841 20.116 7.91666 19.18 8.30234C17.3047 9.07515 14.7658 9.53571 12 9.53571C9.23424 9.53571 6.69531 9.07515 4.81995 8.30234C3.88404 7.91666 3.07728 7.43841 2.49283 6.86898C1.90598 6.29722 1.5 5.58692 1.5 4.76786C1.5 3.94879 1.90598 3.23849 2.49283 2.66673C3.07728 2.09731 3.88404 1.61905 4.81995 1.23337Z" fill="#EE0033"/>
<path fill-rule="evenodd" clip-rule="evenodd" d="M14.7837 10.7947C14.7837 10.3805 15.1195 10.0447 15.5337 10.0447H16.947C17.3612 10.0447 17.697 10.3805 17.697 10.7947C17.697 11.2089 17.3612 11.5447 16.947 11.5447H15.5337C15.1195 11.5447 14.7837 11.2089 14.7837 10.7947Z" fill="#EE0033"/>
<path fill-rule="evenodd" clip-rule="evenodd" d="M14.7837 15.6162C14.7837 15.202 15.1195 14.8662 15.5337 14.8662H16.947C17.3612 14.8662 17.697 15.202 17.697 15.6162C17.697 16.0304 17.3612 16.3662 16.947 16.3662H15.5337C15.1195 16.3662 14.7837 16.0304 14.7837 15.6162Z" fill="#EE0033"/>
<path fill-rule="evenodd" clip-rule="evenodd" d="M14.7837 20.4375C14.7837 20.0233 15.1195 19.6875 15.5337 19.6875H16.947C17.3612 19.6875 17.697 20.0233 17.697 20.4375C17.697 20.8517 17.3612 21.1875 16.947 21.1875H15.5337C15.1195 21.1875 14.7837 20.8517 14.7837 20.4375Z" fill="#EE0033"/>
</svg>
