<svg width="19" height="19" viewBox="0 0 19 19" fill="none" xmlns="http://www.w3.org/2000/svg">
<path d="M15.8332 7.229C16.1093 7.229 16.3332 7.00515 16.3332 6.729C16.3332 6.45286 16.1093 6.229 15.8332 6.229V7.229ZM3.16651 6.229C2.89036 6.229 2.66651 6.45286 2.66651 6.729C2.66651 7.00515 2.89036 7.229 3.16651 7.229V6.229ZM12.3748 3.1665C12.3748 2.89036 12.151 2.6665 11.8748 2.6665C11.5987 2.6665 11.3748 2.89036 11.3748 3.1665H12.3748ZM11.3748 4.74984C11.3748 5.02598 11.5987 5.24984 11.8748 5.24984C12.151 5.24984 12.3748 5.02598 12.3748 4.74984H11.3748ZM7.62484 3.1665C7.62484 2.89036 7.40098 2.6665 7.12484 2.6665C6.84869 2.6665 6.62484 2.89036 6.62484 3.1665H7.62484ZM6.62484 4.74984C6.62484 5.02598 6.84869 5.24984 7.12484 5.24984C7.40098 5.24984 7.62484 5.02598 7.62484 4.74984H6.62484ZM6.33317 9.99984C6.60931 9.99984 6.83317 9.77598 6.83317 9.49984C6.83317 9.22369 6.60931 8.99984 6.33317 8.99984V9.99984ZM5.5415 8.99984C5.26536 8.99984 5.0415 9.22369 5.0415 9.49984C5.0415 9.77598 5.26536 9.99984 5.5415 9.99984V8.99984ZM10.2915 9.99984C10.5676 9.99984 10.7915 9.77598 10.7915 9.49984C10.7915 9.22369 10.5676 8.99984 10.2915 8.99984V9.99984ZM8.70817 8.99984C8.43203 8.99984 8.20817 9.22369 8.20817 9.49984C8.20817 9.77598 8.43203 9.99984 8.70817 9.99984V8.99984ZM13.4582 9.99984C13.7343 9.99984 13.9582 9.77598 13.9582 9.49984C13.9582 9.22369 13.7343 8.99984 13.4582 8.99984V9.99984ZM12.6665 8.99984C12.3904 8.99984 12.1665 9.22369 12.1665 9.49984C12.1665 9.77598 12.3904 9.99984 12.6665 9.99984V8.99984ZM6.33317 13.1665C6.60931 13.1665 6.83317 12.9426 6.83317 12.6665C6.83317 12.3904 6.60931 12.1665 6.33317 12.1665V13.1665ZM5.5415 12.1665C5.26536 12.1665 5.0415 12.3904 5.0415 12.6665C5.0415 12.9426 5.26536 13.1665 5.5415 13.1665V12.1665ZM10.2915 13.1665C10.5676 13.1665 10.7915 12.9426 10.7915 12.6665C10.7915 12.3904 10.5676 12.1665 10.2915 12.1665V13.1665ZM8.70817 12.1665C8.43203 12.1665 8.20817 12.3904 8.20817 12.6665C8.20817 12.9426 8.43203 13.1665 8.70817 13.1665V12.1665ZM13.4582 13.1665C13.7343 13.1665 13.9582 12.9426 13.9582 12.6665C13.9582 12.3904 13.7343 12.1665 13.4582 12.1665V13.1665ZM12.6665 12.1665C12.3904 12.1665 12.1665 12.3904 12.1665 12.6665C12.1665 12.9426 12.3904 13.1665 12.6665 13.1665V12.1665ZM15.3332 5.5415V14.2498H16.3332V5.5415H15.3332ZM14.2498 15.3332H4.74984V16.3332H14.2498V15.3332ZM3.6665 14.2498V5.5415H2.6665V14.2498H3.6665ZM14.2498 3.45817H4.74984V4.45817H14.2498V3.45817ZM4.74984 15.3332C4.15153 15.3332 3.6665 14.8481 3.6665 14.2498H2.6665C2.6665 15.4004 3.59924 16.3332 4.74984 16.3332V15.3332ZM15.3332 14.2498C15.3332 14.8481 14.8481 15.3332 14.2498 15.3332V16.3332C15.4004 16.3332 16.3332 15.4004 16.3332 14.2498H15.3332ZM16.3332 5.5415C16.3332 4.39091 15.4004 3.45817 14.2498 3.45817V4.45817C14.8481 4.45817 15.3332 4.9432 15.3332 5.5415H16.3332ZM3.6665 5.5415C3.6665 4.9432 4.15153 4.45817 4.74984 4.45817V3.45817C3.59924 3.45817 2.6665 4.39091 2.6665 5.5415H3.6665ZM15.8332 6.229H3.16651V7.229H15.8332V6.229ZM11.3748 3.1665V4.74984H12.3748V3.1665H11.3748ZM6.62484 3.1665V4.74984H7.62484V3.1665H6.62484ZM6.33317 8.99984H5.5415V9.99984H6.33317V8.99984ZM10.2915 8.99984H8.70817V9.99984H10.2915V8.99984ZM13.4582 8.99984H12.6665V9.99984H13.4582V8.99984ZM6.33317 12.1665H5.5415V13.1665H6.33317V12.1665ZM10.2915 12.1665H8.70817V13.1665H10.2915V12.1665ZM13.4582 12.1665H12.6665V13.1665H13.4582V12.1665Z" fill="#44494D"/>
</svg>
