<svg width="103" height="86" viewBox="0 0 103 86" fill="none" xmlns="http://www.w3.org/2000/svg">
<path d="M32.4296 43.22C37.4223 43.22 41.4696 39.1727 41.4696 34.1801C41.4696 29.1874 37.4223 25.14 32.4296 25.14C27.437 25.14 23.3896 29.1874 23.3896 34.1801C23.3896 39.1727 27.437 43.22 32.4296 43.22Z" stroke="white" stroke-width="6" stroke-miterlimit="10" stroke-linecap="round" stroke-linejoin="round"/>
<path d="M71.0898 43.22C76.0825 43.22 80.1298 39.1727 80.1298 34.1801C80.1298 29.1874 76.0825 25.14 71.0898 25.14C66.0972 25.14 62.0498 29.1874 62.0498 34.1801C62.0498 39.1727 66.0972 43.22 71.0898 43.22Z" stroke="white" stroke-width="6" stroke-miterlimit="10" stroke-linecap="round" stroke-linejoin="round"/>
<path d="M90.4599 3.94995H12.9698C7.94985 3.94995 3.87988 8.02004 3.87988 13.04V57.6899C3.87988 62.7099 7.94985 66.78 12.9698 66.78H27.1999V82.96L43.3799 66.78H90.4599C95.4799 66.78 99.5499 62.7099 99.5499 57.6899V13.04C99.5499 8.02004 95.4799 3.94995 90.4599 3.94995Z" stroke="white" stroke-width="6" stroke-miterlimit="10" stroke-linecap="round" stroke-linejoin="round"/>
<path d="M71.0897 43.22H32.4297" stroke="white" stroke-width="6" stroke-miterlimit="10" stroke-linecap="round" stroke-linejoin="round"/>
</svg>
