<svg width="16" height="19" viewBox="0 0 16 19" fill="none" xmlns="http://www.w3.org/2000/svg">
<path d="M15.881 0.569998C15.7932 0.398424 15.6604 0.254541 15.4973 0.154031C15.3342 0.0535217 15.1469 0.000242296 14.9559 2.42655e-07H1.04409C0.853182 -0.000130694 0.665895 0.0527311 0.502625 0.152829C0.339355 0.252928 0.206362 0.396425 0.118127 0.567696C0.0298912 0.738968 -0.0102039 0.931447 0.00220764 1.12418C0.0146192 1.3169 0.0790614 1.50249 0.188517 1.66074L4.86984 8.42331V17.9444C4.86984 18.2243 4.97977 18.4928 5.17544 18.6908C5.37111 18.8887 5.6365 18.9999 5.91322 18.9999C6.11877 19.0013 6.31997 18.94 6.49056 18.824L10.6641 16.0092C10.8075 15.9129 10.9251 15.7821 11.0064 15.6286C11.0877 15.4752 11.1302 15.3037 11.1301 15.1296V8.42331L15.8115 1.66074C15.9211 1.50298 15.9856 1.3177 15.9978 1.12526C16.0101 0.932828 15.9697 0.740697 15.881 0.569998ZM9.23119 7.48738C9.10706 7.66402 9.04132 7.87585 9.04338 8.09257V14.5666L6.95661 15.974V8.09257C6.95867 7.87585 6.89293 7.66402 6.7688 7.48738L3.04739 2.1111H12.9526L9.23119 7.48738Z" fill="#5E5E5E"/>
</svg>
