<svg width="98" height="76" viewBox="0 0 98 76" fill="none" xmlns="http://www.w3.org/2000/svg">
<path d="M94.3096 3.87988H3.88965V72.02H94.3096V3.87988Z" stroke="white" stroke-width="6" stroke-miterlimit="10" stroke-linecap="round" stroke-linejoin="round"/>
<path d="M3.88965 29.6499C3.88965 29.6499 5.32964 27.5001 7.75964 25.0801" stroke="white" stroke-width="6" stroke-linecap="round" stroke-linejoin="round"/>
<path d="M16.9297 19.05C21.4797 17.56 26.8197 18.08 32.2597 23.54C46.7797 38.13 48.9997 51.3999 66.1497 48.8899C81.7497 46.6099 85.1397 29.22 78.5097 13.75" stroke="white" stroke-width="6" stroke-linecap="round" stroke-linejoin="round" stroke-dasharray="11.07 11.07"/>
<path d="M75.9996 8.82007C74.9896 7.12007 73.8596 5.45988 72.5996 3.87988" stroke="white" stroke-width="6" stroke-linecap="round" stroke-linejoin="round"/>
<path d="M71.8044 49.5396C72.5519 44.9216 69.4141 40.5719 64.7961 39.8244C60.1781 39.0769 55.8286 42.2146 55.081 46.8325C54.3335 51.4505 57.4711 55.8001 62.0891 56.5476C66.7071 57.2951 71.0569 54.1576 71.8044 49.5396Z" fill="white"/>
<path d="M35.4791 22.5438C36.5499 17.9904 33.7267 13.4311 29.1733 12.3603C24.6198 11.2896 20.0603 14.1128 18.9896 18.6662C17.9188 23.2196 20.7423 27.779 25.2957 28.8497C29.8491 29.9205 34.4084 27.0972 35.4791 22.5438Z" fill="white"/>
</svg>
