<svg width="20" height="20" viewBox="0 0 20 20" fill="none" xmlns="http://www.w3.org/2000/svg">
<circle cx="10" cy="10" r="7" fill="#D11313"/>
<path d="M13.0952 7.83465C13.352 7.57782 13.352 7.16143 13.0952 6.90461C12.8384 6.64779 12.422 6.64779 12.1652 6.90461L13.0952 7.83465ZM6.90412 12.1657C6.6473 12.4225 6.6473 12.8389 6.90412 13.0957C7.16095 13.3525 7.57734 13.3525 7.83416 13.0957L6.90412 12.1657ZM7.83416 6.90461C7.57734 6.64779 7.16095 6.64779 6.90412 6.90461C6.6473 7.16143 6.6473 7.57782 6.90412 7.83465L7.83416 6.90461ZM12.1652 13.0957C12.422 13.3525 12.8384 13.3525 13.0952 13.0957C13.352 12.8389 13.352 12.4225 13.0952 12.1657L12.1652 13.0957ZM12.1652 6.90461L6.90412 12.1657L7.83416 13.0957L13.0952 7.83465L12.1652 6.90461ZM6.90412 7.83465L12.1652 13.0957L13.0952 12.1657L7.83416 6.90461L6.90412 7.83465Z" fill="white"/>
</svg>
