<svg width="81" height="80" viewBox="0 0 81 80" fill="none" xmlns="http://www.w3.org/2000/svg">
<path d="M77.5882 39.9585C77.5882 60.4646 60.9647 77.0881 40.4586 77.0881C19.9526 77.0881 3.3291 60.4646 3.3291 39.9585C3.3291 19.4525 19.9526 2.82901 40.4586 2.82901C60.9647 2.82901 77.5882 19.4525 77.5882 39.9585Z" stroke="#FE9705" stroke-width="4" stroke-linecap="round" stroke-linejoin="round"/>
<path d="M42.8625 25.8039C42.9 25.4231 42.75 25 42.1125 25H38.8125C38.25 25 38.0625 25.3385 38.1 25.8039L38.925 44.6333C38.9625 45.0987 39.225 45.3103 39.7125 45.3103H41.1375C41.775 45.3103 42 45.1834 42 44.5487L42.8625 25.8039ZM43.5 51.6573C43.5 49.7955 42.1875 48.3145 40.5 48.3145C38.85 48.3145 37.5 49.8378 37.5 51.6573C37.5 53.5614 38.8125 55 40.5 55C42.1875 55 43.5 53.519 43.5 51.6573Z" fill="#FE9705"/>
</svg>
