<svg width="105" height="111" viewBox="0 0 105 111" fill="none" xmlns="http://www.w3.org/2000/svg">
<path d="M82 42.0301V90.2401H23.48V42.0301C23.48 28.2601 32.99 16.7102 45.81 13.6002C48.03 13.0602 50.35 12.7701 52.74 12.7701C55.13 12.7701 57.44 13.0502 59.66 13.6002C64.96 14.8802 69.7 17.6001 73.43 21.3401C78.72 26.6401 82 33.9501 82 42.0301Z" stroke="white" stroke-width="6" stroke-miterlimit="10" stroke-linecap="round" stroke-linejoin="round"/>
<path d="M93.1999 99.1102C93.1999 101.56 92.1999 103.78 90.5999 105.39C88.9899 107 86.7699 107.99 84.3199 107.99H21.0099C16.0999 107.99 12.1299 104.02 12.1299 99.1102C12.1299 96.6602 13.1199 94.4401 14.7299 92.8401C16.3399 91.2301 18.5599 90.2401 21.0099 90.2401H84.3199C89.2199 90.2401 93.1999 94.2102 93.1999 99.1102Z" stroke="white" stroke-width="6" stroke-miterlimit="10" stroke-linecap="round" stroke-linejoin="round"/>
<path d="M60.2599 10.65C60.2599 11.7 60.0499 12.6902 59.6599 13.6002C57.4399 13.0502 55.1299 12.7701 52.7399 12.7701C50.3499 12.7701 48.0299 13.0602 45.8099 13.6002C45.4199 12.6902 45.21 11.7 45.21 10.65C45.21 6.48996 48.5799 3.12018 52.7399 3.12018C56.8899 3.12018 60.2599 6.48996 60.2599 10.65Z" stroke="white" stroke-width="6" stroke-miterlimit="10" stroke-linecap="round" stroke-linejoin="round"/>
<path d="M101.43 33.6299L95.9399 45.67L101.43 56.9901L95.9399 69.3799" stroke="white" stroke-width="6" stroke-miterlimit="10" stroke-linecap="round" stroke-linejoin="round"/>
<path d="M8.78983 33.6299L3.2998 45.67L8.78983 56.9901L3.2998 69.3799" stroke="white" stroke-width="6" stroke-miterlimit="10" stroke-linecap="round" stroke-linejoin="round"/>
</svg>
