<svg width="25" height="24" viewBox="0 0 25 24" fill="none" xmlns="http://www.w3.org/2000/svg">
<path fill-rule="evenodd" clip-rule="evenodd" d="M0.810297 4.99366C1.11745 4.71576 1.59173 4.73947 1.86963 5.04663L10.4196 14.4966C10.5444 14.6345 10.6135 14.8139 10.6135 14.9998V21.7498C10.6135 22.1606 10.9527 22.4998 11.3635 22.4998H12.8635C13.2743 22.4998 13.6135 22.1606 13.6135 21.7498V14.9998C13.6135 14.8139 13.6826 14.6345 13.8073 14.4966L22.3573 5.04663C22.6352 4.73947 23.1095 4.71576 23.4167 4.99366C23.7238 5.27156 23.7475 5.74584 23.4696 6.053L15.1135 15.2887V21.7498C15.1135 22.989 14.1027 23.9998 12.8635 23.9998H11.3635C10.1243 23.9998 9.11348 22.989 9.11348 21.7498V15.2887L0.757331 6.053C0.479429 5.74584 0.503143 5.27156 0.810297 4.99366Z" fill="#FE9A00"/>
<path fill-rule="evenodd" clip-rule="evenodd" d="M2.21159 3.62939C1.72779 4.01067 1.61328 4.31053 1.61328 4.5C1.61328 4.68947 1.72779 4.98933 2.21159 5.37061C2.68694 5.74522 3.42125 6.11539 4.3955 6.44014C6.33616 7.08702 9.06486 7.5 12.1133 7.5C15.1617 7.5 17.8904 7.08702 19.8311 6.44014C20.8053 6.11539 21.5396 5.74522 22.015 5.37061C22.4988 4.98933 22.6133 4.68947 22.6133 4.5C22.6133 4.31053 22.4988 4.01067 22.015 3.62939C21.5396 3.25477 20.8053 2.88461 19.8311 2.55986C17.8904 1.91298 15.1617 1.5 12.1133 1.5C9.06486 1.5 6.33616 1.91298 4.3955 2.55986C3.42125 2.88461 2.68694 3.25477 2.21159 3.62939ZM3.92116 1.13684C6.0522 0.42649 8.9485 0 12.1133 0C15.2781 0 18.1744 0.42649 20.3054 1.13684C21.367 1.4907 22.2802 1.9286 22.9434 2.45127C23.5982 2.96728 24.1133 3.65393 24.1133 4.5C24.1133 5.34607 23.5982 6.03272 22.9434 6.54873C22.2802 7.0714 21.367 7.5093 20.3054 7.86316C18.1744 8.57351 15.2781 9 12.1133 9C8.9485 9 6.0522 8.57351 3.92116 7.86316C2.85956 7.5093 1.94635 7.0714 1.28313 6.54873C0.628371 6.03272 0.113281 5.34607 0.113281 4.5C0.113281 3.65393 0.628371 2.96728 1.28313 2.45127C1.94635 1.9286 2.85956 1.4907 3.92116 1.13684Z" fill="#EE0033"/>
</svg>
