<svg width="20" height="20" viewBox="0 0 20 20" fill="none" xmlns="http://www.w3.org/2000/svg">
<path fill-rule="evenodd" clip-rule="evenodd" d="M10.6533 2.65074C12.7805 0.310839 16.3023 0.310839 18.4295 2.65074C20.5236 4.95423 20.5236 8.71409 18.4295 11.0176L18.4223 11.0253L10.7832 19.1637C10.5331 19.4301 10.1144 19.4434 9.84799 19.1933C9.58155 18.9432 9.5683 18.5245 9.81839 18.258L17.4538 10.1236C19.0856 8.32449 19.0844 5.33839 17.4503 3.54089C15.8482 1.77853 13.2346 1.77853 11.6325 3.54089C11.3267 3.87728 11.1288 4.20466 10.9775 4.59316C10.8448 4.93365 10.4613 5.10213 10.1208 4.96947C9.78027 4.83681 9.61179 4.45325 9.74445 4.11276C9.95399 3.57494 10.2373 3.10833 10.6533 2.65074Z" fill="#FE9A00"/>
<path fill-rule="evenodd" clip-rule="evenodd" d="M8.36756 3.54089C6.76541 1.77853 4.15188 1.77853 2.54973 3.54089C0.915638 5.3384 0.9145 8.32451 2.54632 10.1237L10.1817 18.258C10.4318 18.5245 10.4185 18.9432 10.1521 19.1933C9.88564 19.4434 9.46691 19.4301 9.21682 19.1637L1.57773 11.0253L1.57057 11.0176C-0.523522 8.71409 -0.523522 4.95423 1.57057 2.65074C3.69775 0.310839 7.21955 0.310839 9.34673 2.65074C9.76272 3.10833 10.0461 3.57494 10.2556 4.11276C10.3883 4.45325 10.2198 4.83681 9.8793 4.96947C9.53881 5.10213 9.15524 4.93365 9.02258 4.59316C8.87122 4.20466 8.67337 3.87728 8.36756 3.54089Z" fill="#EE0033"/>
</svg>
