<svg width="117" height="89" viewBox="0 0 117 89" fill="none" xmlns="http://www.w3.org/2000/svg">
<path d="M113.13 58.0801C113.13 73.0801 100.96 85.2501 85.9702 85.2501H25.7302C13.5902 85.2501 3.74023 75.4001 3.74023 63.2501C3.74023 55.9201 7.33021 49.44 12.8402 45.44C16.4602 42.81 20.9202 41.2601 25.7302 41.2601C28.5002 41.2601 31.1502 41.78 33.5902 42.7C31.8702 39.14 30.9003 35.14 30.9003 30.92C30.9003 25.58 32.4402 20.6 35.1102 16.4C39.9202 8.79996 48.4102 3.76007 58.0702 3.76007C73.0702 3.76007 85.2302 15.92 85.2302 30.92C85.2302 30.93 85.2302 30.93 85.2302 30.94C85.4702 30.92 85.7202 30.92 85.9702 30.92C100.96 30.93 113.13 43.1001 113.13 58.0801Z" stroke="white" stroke-width="6" stroke-miterlimit="10" stroke-linecap="round" stroke-linejoin="round"/>
<path d="M30.9005 30.93C30.9005 35.15 31.8705 39.15 33.5905 42.71C31.1505 41.79 28.5005 41.2701 25.7305 41.2701C20.9205 41.2701 16.4705 42.82 12.8405 45.45C11.2205 42.58 10.3105 39.2601 10.3105 35.7401C10.3105 24.7201 19.2405 15.8101 30.2405 15.8101C31.9205 15.8101 33.5505 16.01 35.1105 16.41C32.4405 20.61 30.9005 25.59 30.9005 30.93Z" stroke="white" stroke-width="6" stroke-miterlimit="10" stroke-linecap="round" stroke-linejoin="round"/>
</svg>
