<svg width="30" height="30" viewBox="0 0 30 30" fill="none" xmlns="http://www.w3.org/2000/svg">
<path d="M8.47841 26.9568H21.5207C22.6358 26.9568 23.5401 25.983 23.5401 24.7822V15V8.16758C22.686 7.31352 18.4158 3.04324 18.4158 3.04324H8.47841C7.3633 3.04324 6.45898 4.01702 6.45898 5.2178V24.7806C6.45898 25.983 7.3633 26.9568 8.47841 26.9568Z" fill="#DCDCDC"/>
<path d="M18.416 8.16757V3.04324L23.5403 8.16757H18.416Z" fill="#828282"/>
<path fill-rule="evenodd" clip-rule="evenodd" d="M17.2284 11.7931C17.2818 11.704 17.2528 11.5884 17.1637 11.5349C17.0745 11.4815 16.9589 11.5105 16.9055 11.5996L16.7551 11.8505C16.489 11.7848 16.2002 11.8961 16.052 12.1435L15.5671 12.9526L15.1136 12.6808L15.3658 12.2599C15.4192 12.1708 15.3902 12.0552 15.3011 12.0017L13.36 10.8385C13.0564 10.6566 12.6628 10.7553 12.4809 11.0588L12.2483 11.4471C12.0664 11.7507 12.165 12.1443 12.4686 12.3262L14.4097 13.4894C14.4989 13.5428 14.6145 13.5138 14.6679 13.4247L14.9201 13.0038L15.3736 13.2755L15.1214 13.6965C14.9395 14 15.0382 14.3936 15.3417 14.5755C15.6453 14.7575 16.0389 14.6588 16.2208 14.3552L16.473 13.9343L16.9265 14.2061L16.6743 14.627C16.6209 14.7162 16.6499 14.8318 16.739 14.8852L18.6802 16.0484C18.9837 16.2303 19.3773 16.1317 19.5592 15.8281L19.7918 15.4399C19.9738 15.1363 19.8751 14.7427 19.5715 14.5608L17.6304 13.3976C17.5876 13.3719 17.5363 13.3643 17.4879 13.3765C17.4395 13.3886 17.3979 13.4195 17.3722 13.4623L17.12 13.8832L16.6665 13.6114L17.1513 12.8023C17.2996 12.5549 17.2615 12.2477 17.078 12.044L17.2284 11.7931Z" fill="#EE0033"/>
<path fill-rule="evenodd" clip-rule="evenodd" d="M14.2278 14.5869C14.4303 14.5362 14.6355 14.6592 14.6862 14.8616C14.7521 15.1248 15.019 15.2848 15.2822 15.2188C15.4847 15.1681 15.6899 15.2911 15.7406 15.4936C15.7913 15.696 15.6683 15.9012 15.4659 15.9519C14.7977 16.1192 14.1205 15.7133 13.9531 15.0452C13.9024 14.8428 14.0254 14.6376 14.2278 14.5869ZM12.768 14.6314C12.9704 14.5807 13.1756 14.7037 13.2263 14.9061C13.5255 16.1007 14.7365 16.8265 15.9312 16.5273C16.1336 16.4766 16.3388 16.5995 16.3895 16.802C16.4402 17.0044 16.3172 17.2096 16.1148 17.2603C14.5153 17.6609 12.8939 16.6891 12.4932 15.0897C12.4425 14.8873 12.5655 14.6821 12.768 14.6314ZM10.9854 14.6164C11.1879 14.5657 11.3931 14.6887 11.4438 14.8911C12.0346 17.2498 14.4258 18.683 16.7847 18.0921C16.9871 18.0414 17.1923 18.1644 17.243 18.3668C17.2937 18.5693 17.1707 18.7745 16.9683 18.8252C14.2046 19.5174 11.403 17.8382 10.7107 15.0747C10.66 14.8723 10.783 14.6671 10.9854 14.6164Z" fill="#EE0033"/>
<mask id="mask0_23755_35342" style="mask-type:alpha" maskUnits="userSpaceOnUse" x="10" y="14" width="8" height="5">
<path fill-rule="evenodd" clip-rule="evenodd" d="M14.2288 14.5869C14.4312 14.5362 14.6364 14.6592 14.6871 14.8616C14.753 15.1249 15.0199 15.2848 15.2832 15.2189C15.4856 15.1682 15.6908 15.2912 15.7415 15.4936C15.7922 15.696 15.6692 15.9012 15.4668 15.9519C14.7987 16.1193 14.1214 15.7133 13.9541 15.0452C13.9034 14.8428 14.0264 14.6376 14.2288 14.5869ZM12.7689 14.6314C12.9713 14.5807 13.1765 14.7037 13.2272 14.9061C13.5264 16.1007 14.7374 16.8265 15.9321 16.5273C16.1345 16.4766 16.3397 16.5996 16.3904 16.802C16.4411 17.0044 16.3181 17.2096 16.1157 17.2603C14.5162 17.6609 12.8948 16.6891 12.4942 15.0897C12.4435 14.8873 12.5665 14.6821 12.7689 14.6314ZM10.9864 14.6164C11.1888 14.5657 11.394 14.6887 11.4447 14.8911C12.0355 17.2498 14.4267 18.683 16.7856 18.0922C16.988 18.0415 17.1932 18.1645 17.2439 18.3669C17.2946 18.5693 17.1716 18.7745 16.9692 18.8252C14.2054 19.5174 11.4039 17.8383 10.7117 15.0747C10.6609 14.8723 10.7839 14.6671 10.9864 14.6164Z" fill="#92001F"/>
</mask>
<g mask="url(#mask0_23755_35342)">
<rect width="4.26166" height="11.0156" transform="matrix(0.865977 0.500083 -0.500037 0.866004 17.21 11.3822)" fill="#92001F"/>
</g>
<mask id="mask1_23755_35342" style="mask-type:alpha" maskUnits="userSpaceOnUse" x="12" y="10" width="8" height="7">
<path fill-rule="evenodd" clip-rule="evenodd" d="M17.2339 11.7976C17.2877 11.7086 17.2592 11.5929 17.1702 11.5391C17.0812 11.4853 16.9655 11.5139 16.9118 11.6028L16.7605 11.8532C16.4946 11.7864 16.2054 11.8966 16.0563 12.1435L15.5684 12.9509L15.1159 12.6774L15.3696 12.2574C15.4234 12.1684 15.3949 12.0527 15.3059 11.9989L13.3692 10.8283C13.0663 10.6452 12.6724 10.7424 12.4894 11.0453L12.2553 11.4327C12.0722 11.7356 12.1694 12.1296 12.4722 12.3127L14.4089 13.4833C14.4979 13.5371 14.6136 13.5085 14.6674 13.4195L14.9211 12.9996L15.3737 13.2731L15.1199 13.6931C14.9368 13.996 15.034 14.39 15.3368 14.573C15.6397 14.7561 16.0337 14.6589 16.2167 14.356L16.4705 13.936L16.923 14.2096L16.6692 14.6295C16.6155 14.7185 16.644 14.8342 16.7329 14.888L18.6696 16.0586C18.9725 16.2417 19.3664 16.1445 19.5495 15.8416L19.7836 15.4542C19.9666 15.1513 19.8695 14.7573 19.5666 14.5742L17.6299 13.4036C17.5872 13.3778 17.536 13.37 17.4875 13.382C17.4391 13.3939 17.3973 13.4246 17.3715 13.4674L17.1177 13.8873L16.6652 13.6138L17.1531 12.8065C17.3023 12.5596 17.2654 12.2523 17.0827 12.0479L17.2339 11.7976Z" fill="#EE0033"/>
</mask>
<g mask="url(#mask1_23755_35342)">
<rect width="4.2617" height="11.0156" transform="matrix(0.865977 0.500085 -0.500036 0.866005 18.8076 8.61536)" fill="#92001F"/>
</g>
</svg>
