<svg width="56" height="56" viewBox="0 0 56 56" fill="none" xmlns="http://www.w3.org/2000/svg">
<path d="M30.45 37.6865L17.8048 47.2167C17.0145 47.8124 15.75 47.3359 15.75 46.6211V37.6865H30.45Z" fill="#92001F"/>
<path d="M11.0225 45.0367H37.1121C42.8807 45.0367 47.6004 39.9726 47.6004 33.7831V18.4501C47.6004 16.9027 46.4205 15.6367 44.9783 15.6367H11.0225C9.58032 15.6367 8.40039 16.9027 8.40039 18.4501V42.364C8.40039 43.7707 9.58032 45.0367 11.0225 45.0367Z" fill="#EE0033"/>
<path d="M39.8073 23.3228H15.75V25.3735H39.8073V23.3228Z" fill="white"/>
<path d="M39.8073 28.2788H15.75V30.3296H39.8073V28.2788Z" fill="white"/>
<path d="M29.5556 33.2349H15.75V35.2857H29.5556V33.2349Z" fill="white"/>
</svg>
