<svg width="129" height="53" viewBox="0 0 129 53" fill="none" xmlns="http://www.w3.org/2000/svg">
<path d="M19.7604 52.11C13.8704 52.11 7.12036 51.33 1.44036 48.49C0.870357 48.28 0.730382 47.78 1.09038 47L3.01043 42.67C3.29043 42.1 3.72045 41.96 4.29045 42.17C9.40046 44.37 14.1604 45.51 18.4904 45.51C26.4404 45.51 29.6404 42.6 29.6404 38.12C29.6404 33.5 25.8004 31.44 18.7004 28.6C8.19037 24.48 2.65044 21 2.65044 13.83C2.65044 5.94996 7.91037 0.76001 18.2004 0.76001C23.0304 0.76001 29.2804 1.74998 33.6104 3.59998C34.1804 3.87998 34.3204 4.31006 34.1104 4.81006L32.4804 9.35999C32.2004 10.14 31.9804 10.1401 31.4904 9.93005C26.6604 8.23005 21.8305 7.43994 17.9205 7.43994C12.5205 7.43994 10.0405 10.07 10.0405 13.26C10.0405 17.45 14.0205 19.15 22.5405 22.78C29.7105 25.83 37.1705 28.96 37.1705 37.84C37.1605 47.7 29.2104 52.11 19.7604 52.11Z" fill="white"/>
<path d="M64.2904 52.11C50.3704 52.11 43.1304 43.52 43.1304 26.54C43.1304 10.06 52.3604 0.829956 64.5104 0.829956C78.4304 0.829956 85.8904 10.42 85.8904 26.26C85.8804 42.94 78.4904 52.11 64.2904 52.11ZM64.7103 7.43005C55.1203 7.43005 50.5104 15.95 50.5104 26.25C50.5104 37.83 53.7804 45.5 64.3604 45.5C75.1604 45.5 78.4204 36.34 78.4204 26.54C78.4204 16.59 76.0103 7.43005 64.7103 7.43005Z" fill="white"/>
<path d="M111.3 52.11C105.41 52.11 98.6604 51.33 92.9804 48.49C92.4104 48.28 92.2704 47.78 92.6304 47L94.5505 42.67C94.8305 42.1 95.2604 41.96 95.8304 42.17C100.94 44.37 105.7 45.51 110.03 45.51C117.98 45.51 121.18 42.6 121.18 38.12C121.18 33.5 117.34 31.44 110.24 28.6C99.7304 24.48 94.1904 21 94.1904 13.83C94.1904 5.94996 99.4504 0.76001 109.74 0.76001C114.57 0.76001 120.82 1.74998 125.15 3.59998C125.72 3.87998 125.86 4.31006 125.65 4.81006L124.02 9.35999C123.74 10.14 123.52 10.1401 123.03 9.93005C118.2 8.23005 113.37 7.43994 109.46 7.43994C104.06 7.43994 101.58 10.07 101.58 13.26C101.58 17.45 105.56 19.15 114.08 22.78C121.25 25.83 128.71 28.96 128.71 37.84C128.7 47.7 120.75 52.11 111.3 52.11Z" fill="white"/>
</svg>
