<svg width="30" height="30" viewBox="0 0 30 30" fill="none" xmlns="http://www.w3.org/2000/svg">
<path d="M8.47841 26.9568H21.5207C22.6358 26.9568 23.5401 25.983 23.5401 24.7822V15V8.16757C22.686 7.31352 18.4158 3.04324 18.4158 3.04324H8.47841C7.3633 3.04324 6.45898 4.01702 6.45898 5.2178V24.7806C6.45898 25.983 7.3633 26.9568 8.47841 26.9568Z" fill="#DCDCDC"/>
<path d="M18.416 8.16757V3.04324L23.5403 8.16757H18.416Z" fill="#828282"/>
<path fill-rule="evenodd" clip-rule="evenodd" d="M18.2254 11.1234C17.7265 11.1234 17.274 11.4161 17.0694 11.8712L15.0004 16.4743L12.913 11.9084C12.7067 11.4573 12.2563 11.168 11.7603 11.168L9.9541 11.168L13.3499 17.9427C13.4992 18.2975 14.0128 18.8766 14.9726 18.8766C15.9367 18.8766 16.4787 18.2927 16.6414 17.9489L20.045 11.1234H18.2254Z" fill="#EE0033"/>
<mask id="mask0_23755_35330" style="mask-type:alpha" maskUnits="userSpaceOnUse" x="9" y="11" width="12" height="8">
<path fill-rule="evenodd" clip-rule="evenodd" d="M18.2254 11.1234C17.7265 11.1234 17.274 11.4161 17.0694 11.8712L15.0004 16.4743L12.913 11.9084C12.7067 11.4573 12.2563 11.168 11.7603 11.168L9.9541 11.168L13.3499 17.9427C13.4992 18.2975 14.0128 18.8766 14.9726 18.8766C15.9367 18.8766 16.4787 18.2927 16.6414 17.9489L20.045 11.1234H18.2254Z" fill="#EE0033"/>
</mask>
<g mask="url(#mask0_23755_35330)">
<rect x="14.9854" y="6.84375" width="14.3906" height="14.3906" fill="#92001F"/>
</g>
</svg>
