<svg width="35" height="35" viewBox="0 0 35 35" fill="none" xmlns="http://www.w3.org/2000/svg">
<g clip-path="url(#clip0)">
<path d="M25.3679 17.7072C26.808 12.0555 23.3938 6.30651 17.7421 4.86646C12.0904 3.42642 6.34141 6.84063 4.90137 12.4923C3.46133 18.144 6.87554 23.893 12.5272 25.333C18.1789 26.7731 23.9279 23.3588 25.3679 17.7072Z" fill="#EE0033"/>
<path d="M30.9717 25.6361L30.0917 24.976C29.8716 24.811 29.7616 24.591 29.7066 24.316C29.5966 22.9959 28.9366 21.7858 27.9465 20.9058L27.4515 20.5207C26.4064 19.5857 24.8663 19.4757 23.6563 20.1357L20.6311 21.8408C20.4661 21.8958 20.3011 21.8958 20.191 21.7858L16.0658 18.4306C15.8458 18.2656 15.5158 18.2656 15.3508 18.4856C14.7457 19.0907 14.7457 20.0257 15.3508 20.6307L19.751 25.031C20.026 25.306 20.191 25.6911 20.191 26.1311V26.8461C20.191 28.1662 21.1811 29.2113 22.4462 29.4313L23.9863 29.6513C24.2063 29.7063 24.4263 29.8163 24.6463 29.9813L25.6364 30.9714H30.9717V25.6361Z" fill="#DCDCDC"/>
<path d="M18.6513 23.9311L15.3511 20.6309L18.6513 23.9311Z" fill="#DCDCDC"/>
<path d="M30.972 25.6359L30.092 24.9759C29.982 24.9209 29.927 24.8109 29.872 24.7559V27.561C29.872 28.8261 28.8269 29.8712 27.5618 29.8712H24.5366L24.6466 29.9812L25.6367 30.9712H30.972V25.6359Z" fill="#828282"/>
<path d="M20.2465 26.8462C20.2465 27.0662 20.3015 27.3412 20.3565 27.5613C20.6865 27.4513 21.0165 27.4513 21.2916 27.6163C21.4016 27.6713 21.5666 27.6713 21.6766 27.5613C21.8416 27.3963 21.8416 27.1762 21.6766 27.0662L19.7515 25.1411C20.0265 25.4161 20.1915 25.8012 20.1915 26.2412L20.2465 26.8462Z" fill="#828282"/>
<path d="M13.0411 14.2502C13.7094 14.2502 14.2512 13.7085 14.2512 13.0402C14.2512 12.3718 13.7094 11.8301 13.0411 11.8301C12.3728 11.8301 11.8311 12.3718 11.8311 13.0402C11.8311 13.7085 12.3728 14.2502 13.0411 14.2502Z" fill="white"/>
<path d="M18.4314 17.1656C18.4314 17.8257 17.8813 18.3757 17.2213 18.3757C16.5613 18.3757 16.0112 17.8257 16.0112 17.1656C16.0112 16.5056 16.5613 15.9556 17.2213 15.9556C17.8813 15.9556 18.4314 16.5056 18.4314 17.1656Z" fill="white"/>
<path d="M12.9314 17.8252C12.7664 17.8252 12.6564 17.7702 12.5464 17.6602C12.3263 17.4402 12.3263 17.1102 12.5464 16.8902L16.8916 12.5449C17.1116 12.3249 17.4417 12.3249 17.6617 12.5449C17.8817 12.7649 17.8817 13.0949 17.6617 13.3149L13.3714 17.6602C13.2614 17.7702 13.0964 17.8252 12.9314 17.8252Z" fill="white"/>
</g>
<defs>
<clipPath id="clip0">
<rect width="33.945" height="33.945" fill="white" transform="translate(0.79834 0.79834)"/>
</clipPath>
</defs>
</svg>
