<svg width="20" height="20" viewBox="0 0 20 20" fill="none" xmlns="http://www.w3.org/2000/svg">
<path d="M9.99999 3.00002C13.866 3.00002 17 6.13402 17 10C17 13.866 13.866 17 9.99999 17C6.134 17 3 13.866 3 10C3 6.13402 6.134 3.00002 9.99999 3.00002Z" fill="#EE0033"/>
<path d="M14.9499 14.9496C13.2503 16.6491 10.8944 17.2917 8.69824 16.878C10.0347 16.6263 11.312 15.9837 12.3461 14.9496C15.0798 12.2159 15.0798 7.78373 12.3461 5.05005C11.312 4.01587 10.0346 3.37327 8.69824 3.12158C10.8944 2.70794 13.2503 3.35058 14.9499 5.05005C17.6835 7.78373 17.6835 12.2159 14.9499 14.9496Z" fill="#EE0033"/>
<path d="M13.8646 12.6808C14.8083 12.8022 15.6121 12.9679 16.1895 13.1681C16.2051 13.1735 16.22 13.1801 16.2341 13.1877C16.2056 13.2435 16.1762 13.299 16.146 13.3543C16.1458 13.3545 16.1457 13.3548 16.1456 13.355C16.1398 13.3656 16.1339 13.3762 16.1281 13.3868C16.1277 13.3876 16.1273 13.3883 16.1269 13.389C16.1211 13.3995 16.1152 13.4101 16.1093 13.4206C16.1091 13.421 16.1089 13.4214 16.1086 13.4218C16.072 13.4872 16.0341 13.5521 15.9952 13.6166C15.9948 13.6173 15.9943 13.618 15.994 13.6186C15.9879 13.6287 15.9817 13.6388 15.9755 13.6489C15.9749 13.6499 15.9743 13.6509 15.9737 13.6519C15.9676 13.6618 15.9615 13.6717 15.9554 13.6817C15.9547 13.6827 15.954 13.6839 15.9533 13.685C15.947 13.6951 15.9407 13.7052 15.9344 13.7153C15.3556 13.5225 14.5469 13.3644 13.5977 13.2511C13.6957 13.0643 13.7846 12.8739 13.8646 12.6808Z" fill="#C4C4C4"/>
<path d="M12.3461 5.04987C11.9981 4.70181 11.6224 4.39806 11.2263 4.13868C10.9324 3.86815 10.6206 3.6954 10.3007 3.62866C9.90831 3.44993 9.50282 3.30931 9.08984 3.20679C9.28812 3.11418 9.49199 3.05202 9.69993 3.02153V3.00634C9.89992 2.99779 10.1002 2.99779 10.3002 3.0063V3.02153C11.2073 3.15454 12.037 3.8901 12.6619 5.1264C12.7548 5.31022 12.8419 5.50244 12.9229 5.70215C12.7464 5.47587 12.5542 5.25794 12.3461 5.04987Z" fill="#C4C4C4"/>
<path d="M16.1895 6.83159C15.6121 7.03173 14.8083 7.19749 13.8646 7.31885C13.7847 7.12566 13.6957 6.93535 13.5977 6.74854C14.5469 6.63522 15.3557 6.47708 15.9344 6.28432C15.941 6.29477 15.9475 6.30522 15.9539 6.31567L15.955 6.31734C15.9614 6.32771 15.9678 6.33808 15.9741 6.34846C15.9745 6.34892 15.9747 6.34939 15.975 6.34989C15.9815 6.36046 15.9879 6.37103 15.9943 6.38159C15.9943 6.38167 15.9944 6.38175 15.9945 6.38183C16.0335 6.44643 16.0714 6.5115 16.1082 6.57707C16.1087 6.57788 16.1091 6.5787 16.1096 6.57952C16.1152 6.58969 16.1209 6.59983 16.1266 6.61001C16.1272 6.61114 16.1278 6.61226 16.1284 6.61343C16.1341 6.62365 16.1397 6.6339 16.1453 6.64416C16.1457 6.64486 16.1461 6.64556 16.1465 6.64629C16.1765 6.70122 16.2057 6.75646 16.2341 6.81198C16.22 6.81959 16.2052 6.82619 16.1895 6.83159Z" fill="#C4C4C4"/>
<path d="M10.3007 16.3708C10.6207 16.304 10.9325 16.1313 11.2264 15.8607C11.6225 15.6013 11.9981 15.2976 12.3462 14.9496C12.5542 14.7415 12.7464 14.5236 12.9229 14.2973C12.8419 14.497 12.7548 14.6893 12.6619 14.873C12.037 16.1093 11.2073 16.8449 10.3002 16.9779V16.9931C10.1002 17.0016 9.89995 17.0016 9.69993 16.9931V16.9779C9.49199 16.9474 9.28812 16.8852 9.08984 16.7926C9.50282 16.6901 9.90831 16.5495 10.3007 16.3708Z" fill="#C4C4C4"/>
<path d="M13.4231 7.37144C13.5957 8.19511 13.6862 9.08447 13.6862 9.99997C13.6862 10.9155 13.5957 11.8049 13.4231 12.6285C14.5577 12.7525 15.524 12.9375 16.1895 13.1682C16.2052 13.1737 16.2201 13.1803 16.2342 13.1879C16.1425 13.3671 16.0426 13.5431 15.9344 13.7155C15.2927 13.5018 14.3683 13.3306 13.2831 13.2159C13.1214 13.818 12.9131 14.3763 12.6619 14.8732C12.037 16.1095 11.2073 16.8451 10.3003 16.9781V16.9936C10.2018 16.9978 10.1033 16.9999 10.0048 17C10.0032 17 10.0017 17 10.0001 17C9.99857 17 9.99702 17 9.99546 17C9.89695 16.9999 9.79843 16.9978 9.69999 16.9936V16.9781C8.79292 16.8451 7.96319 16.1095 7.33831 14.8732C7.08712 14.3763 6.87887 13.818 6.71718 13.2159C5.632 13.3306 4.70756 13.5018 4.06585 13.7155C3.95771 13.5431 3.85779 13.3671 3.76611 13.1879C3.78025 13.1802 3.79517 13.1736 3.81086 13.1682C4.47643 12.9375 5.44266 12.7525 6.57718 12.6285C6.40458 11.8049 6.31411 10.9155 6.31411 9.99997C6.31411 9.08447 6.40458 8.19507 6.57718 7.37141C5.44258 7.24741 4.47631 7.06242 3.81075 6.83171C3.79509 6.82627 3.78021 6.8197 3.76611 6.81205C3.85779 6.63285 3.95771 6.4568 4.06585 6.28444C4.7076 6.49817 5.63204 6.66933 6.71722 6.78404C6.8789 6.18196 7.08716 5.62369 7.33834 5.12672C7.96327 3.89047 8.793 3.15486 9.70003 3.02185V3.00635C9.79901 3.00212 9.89803 3.00002 9.99705 2.99998C9.9981 2.99998 9.99911 2.99994 10.0002 2.99994C10.0012 2.99994 10.0022 2.99998 10.0033 2.99998C10.1023 3.00002 10.2013 3.00216 10.3003 3.00635V3.02185C11.2074 3.15486 12.0371 3.89043 12.662 5.12672C12.9132 5.62369 13.1214 6.18196 13.2831 6.78404C14.3683 6.66933 15.2928 6.49817 15.9345 6.28444C16.0426 6.4568 16.1425 6.63289 16.2342 6.81205C16.2201 6.81966 16.2052 6.82627 16.1896 6.83171C15.524 7.06246 14.5577 7.24745 13.4231 7.37144ZM13.0884 10C13.0884 9.10047 12.9977 8.23 12.8249 7.42983C12.0348 7.49805 11.1802 7.53814 10.3003 7.54559V12.4545C11.1802 12.4619 12.0348 12.502 12.8249 12.5702C12.9977 11.7701 13.0884 10.8995 13.0884 10ZM12.1285 14.6036C12.348 14.1693 12.5325 13.6833 12.6793 13.1593C11.9343 13.0979 11.1299 13.0618 10.3003 13.0548V16.3711C10.9771 16.2301 11.6172 15.615 12.1285 14.6036ZM7.87175 14.6036C8.38297 15.615 9.02317 16.2301 9.69995 16.371V13.0547C8.87034 13.0618 8.06598 13.0979 7.3209 13.1593C7.4677 13.6834 7.65223 14.1693 7.87175 14.6036ZM6.91181 10C6.91181 10.8995 7.00251 11.7701 7.17527 12.5702C7.96545 12.502 8.82 12.4619 9.69995 12.4545V7.54556C8.82 7.5381 7.96545 7.49801 7.17527 7.42979C7.00251 8.22996 6.91181 9.10047 6.91181 10ZM7.87175 5.39644C7.65223 5.83074 7.4677 6.31664 7.3209 6.84072C8.06598 6.9021 8.87034 6.93823 9.69995 6.94526V3.62899C9.02317 3.76989 8.38301 4.38506 7.87175 5.39644ZM12.1285 5.39644C11.6173 4.38506 10.9771 3.76988 10.3003 3.62895V6.94522C11.1299 6.93819 11.9343 6.90202 12.6793 6.84068C12.5325 6.31664 12.348 5.83074 12.1285 5.39644Z" fill="#DCDCDC"/>
</svg>
