<svg width="56" height="56" viewBox="0 0 56 56" fill="none" xmlns="http://www.w3.org/2000/svg">
<path d="M49.3233 44.4491L41.8402 36.966C40.9164 36.0422 40.824 34.6565 41.3783 33.5479C45.166 26.4344 44.1498 17.4732 38.3297 11.3759C31.3086 4.17005 19.4835 3.70813 11.9081 10.4521C3.77841 17.7504 3.50126 30.4068 11.1691 37.9823C17.2663 44.0795 26.4123 45.0958 33.6181 41.308C34.7267 40.7537 36.1125 40.8461 37.0363 41.77L44.6117 49.3454C46.0899 50.8235 48.6766 50.6387 49.8776 48.7911C50.709 47.4053 50.4319 45.6501 49.3233 44.4491ZM16.6197 35.026C9.78331 29.7602 9.78331 19.4133 16.6197 14.1474C21.3312 10.5445 27.9828 10.5445 32.6943 14.1474C39.5307 19.4133 39.5307 29.7602 32.6943 35.026C27.9828 38.6289 21.2388 38.6289 16.6197 35.026Z" fill="#EE0033"/>
<path d="M46.1887 41.2998L41.3848 46.1037L44.6182 49.3371C45.9115 50.6305 48.1287 50.6305 49.4221 49.3371C50.7155 48.0438 50.7155 45.8266 49.4221 44.5332L46.1887 41.2998Z" fill="#92001F"/>
<path d="M25.3134 15.5122L18.3545 17.6974C18.0191 17.8165 17.7676 18.1344 17.7676 18.4522V28.3847C17.7676 28.5437 17.8095 28.6628 17.8933 28.8218C20.199 32.2783 25.3134 34.5826 25.3134 34.5826V15.5122Z" fill="#828282"/>
<path d="M25.3133 32.5959C23.7622 31.7219 20.7858 30.1327 19.5282 28.4243C19.4863 28.3846 19.4443 28.3051 19.4443 28.2256C19.4443 27.3118 19.4443 21.551 19.4443 19.6837C19.4443 19.3261 19.6959 19.0083 20.0732 18.9288L25.3133 17.4985V32.5959Z" fill="#828282"/>
<path d="M25.2696 15.5122L32.2285 17.6974C32.5639 17.8165 32.8154 18.1344 32.8154 18.4522V28.3847C32.8154 28.5437 32.7735 28.6628 32.6897 28.8218C30.384 32.2783 25.2696 34.5826 25.2696 34.5826V15.5122Z" fill="#828282"/>
<path d="M25.2677 32.5959C26.8188 31.7219 29.7952 30.1327 31.0529 28.4243C31.0948 28.3846 31.1367 28.3051 31.1367 28.2256C31.1367 27.3118 31.1367 21.551 31.1367 19.6837C31.1367 19.3261 30.8852 19.0083 30.5079 18.9288L25.2677 17.4985V32.5959Z" fill="#828282"/>
<path d="M21.061 25.5744C21.8899 26.489 22.7195 27.4043 23.5484 28.3189C23.9668 28.7806 24.6781 28.7814 25.0973 28.3189C26.5579 26.7073 28.0184 25.0958 29.479 23.4843C29.8975 23.0225 29.8975 22.2369 29.479 21.7752C29.0591 21.3119 28.3493 21.3119 27.9301 21.7752C26.4695 23.3868 25.0089 24.9983 23.5484 26.6098C24.0647 26.6098 24.581 26.6098 25.0973 26.6098C24.2684 25.6953 23.4396 24.7799 22.61 23.8654C22.1915 23.4037 21.4795 23.4037 21.061 23.8654C20.6411 24.3279 20.6411 25.1111 21.061 25.5744Z" fill="white"/>
</svg>
