<svg width="22" height="23" viewBox="0 0 22 23" fill="none" xmlns="http://www.w3.org/2000/svg">
<path fill-rule="evenodd" clip-rule="evenodd" d="M5.98125 1.50525C4.97422 1.50525 4.125 2.3753 4.125 3.56775C4.125 4.74765 5.03139 5.63025 5.98125 5.63025H10.0695C9.898 5.14808 9.64105 4.52651 9.28682 3.91045C8.52954 2.59344 7.45354 1.50525 5.98125 1.50525ZM11 6.31775C11.6689 6.15889 11.6688 6.15866 11.6688 6.15841L11.6683 6.1562L11.6671 6.15151L11.6634 6.13624C11.6602 6.12348 11.6557 6.10562 11.6498 6.08298C11.638 6.03773 11.6208 5.97334 11.5977 5.89255C11.5515 5.7311 11.482 5.50335 11.3868 5.23126C11.1971 4.68939 10.9015 3.9602 10.4788 3.22505C9.65484 1.79206 8.22146 0.130249 5.98125 0.130249C4.10078 0.130249 2.75 1.7352 2.75 3.56775C2.75 5.41285 4.18111 7.00525 5.98125 7.00525H10.9993L11 6.31775ZM11 6.31775L10.9993 7.00525C11.2096 7.00525 11.409 6.90901 11.5394 6.74403C11.6698 6.57906 11.7174 6.363 11.6688 6.15841L11 6.31775Z" fill="#FE9A00"/>
<path fill-rule="evenodd" clip-rule="evenodd" d="M11.5211 3.22505C12.3451 1.79206 13.7785 0.130249 16.0187 0.130249C17.8991 0.130249 19.2499 1.7352 19.2499 3.56775C19.2499 5.41285 17.8188 7.00525 16.0187 7.00525H11.0006L10.9999 6.31775C10.331 6.15889 10.3311 6.15866 10.3311 6.15841L10.3317 6.1562L10.3328 6.15151L10.3365 6.13624C10.3397 6.12348 10.3442 6.10562 10.3501 6.08298C10.3619 6.03773 10.3792 5.97334 10.4022 5.89255C10.4484 5.7311 10.5179 5.50335 10.6131 5.23126C10.8028 4.68939 11.0984 3.9602 11.5211 3.22505ZM10.9999 6.31775L10.3311 6.15841C10.2825 6.363 10.3301 6.57906 10.4605 6.74403C10.5909 6.90901 10.7903 7.00525 11.0006 7.00525L10.9999 6.31775ZM11.9304 5.63025H16.0187C16.9685 5.63025 17.8749 4.74765 17.8749 3.56775C17.8749 2.3753 17.0257 1.50525 16.0187 1.50525C14.5464 1.50525 13.4704 2.59344 12.7131 3.91045C12.3589 4.52651 12.1019 5.14808 11.9304 5.63025Z" fill="#FE9A00"/>
<path fill-rule="evenodd" clip-rule="evenodd" d="M3.4375 9.75525C3.8172 9.75525 4.125 10.0631 4.125 10.4427V20.7552H17.875V10.4427C17.875 10.0631 18.1828 9.75525 18.5625 9.75525C18.9422 9.75525 19.25 10.0631 19.25 10.4427V21.4427C19.25 21.8224 18.9422 22.1302 18.5625 22.1302H3.4375C3.0578 22.1302 2.75 21.8224 2.75 21.4427V10.4427C2.75 10.0631 3.0578 9.75525 3.4375 9.75525Z" fill="#EE0033"/>
<path fill-rule="evenodd" clip-rule="evenodd" d="M0 6.31775C0 5.93805 0.307804 5.63025 0.6875 5.63025H21.3125C21.6922 5.63025 22 5.93805 22 6.31775V10.4428C22 10.8224 21.6922 11.1303 21.3125 11.1303H0.6875C0.307804 11.1303 0 10.8224 0 10.4428V6.31775ZM1.375 7.00525V9.75525H20.625V7.00525H1.375Z" fill="#EE0033"/>
</svg>
