<svg width="14" height="15" viewBox="0 0 14 15" fill="none" xmlns="http://www.w3.org/2000/svg">
<path fill-rule="evenodd" clip-rule="evenodd" d="M0 1.40332C0 0.623766 0.711075 0.0908203 1.44712 0.0908203H12.5529C13.2889 0.0908203 14 0.623766 14 1.40332V13.6533C14 13.8161 13.9096 13.9654 13.7654 14.0409C13.6212 14.1164 13.447 14.1056 13.3132 14.0129L11.0683 12.4564L9.30576 13.9839C9.14132 14.1264 8.89714 14.1264 8.7327 13.9839L7 12.4823L5.2673 13.9839C5.10286 14.1264 4.85868 14.1264 4.69424 13.9839L2.93168 12.4564L0.686779 14.0129C0.553006 14.1056 0.378801 14.1164 0.234588 14.0409C0.0903741 13.9654 0 13.8161 0 13.6533V1.40332ZM1.44712 0.96582C1.07258 0.96582 0.875 1.22037 0.875 1.40332V12.8176L2.71226 11.5438C2.8765 11.4299 3.09704 11.4418 3.24807 11.5727L4.98077 13.0744L6.71347 11.5727C6.87791 11.4302 7.12209 11.4302 7.28653 11.5727L9.01923 13.0744L10.7519 11.5727C10.903 11.4418 11.1235 11.4299 11.2877 11.5438L13.125 12.8176V1.40332C13.125 1.22037 12.9274 0.96582 12.5529 0.96582H1.44712Z" fill="#EE0033"/>
<path fill-rule="evenodd" clip-rule="evenodd" d="M3.02856 4.90332C3.02856 4.6617 3.22444 4.46582 3.46606 4.46582H10.5334C10.775 4.46582 10.9709 4.6617 10.9709 4.90332C10.9709 5.14494 10.775 5.34082 10.5334 5.34082H3.46606C3.22444 5.34082 3.02856 5.14494 3.02856 4.90332Z" fill="#FE9A00"/>
<path fill-rule="evenodd" clip-rule="evenodd" d="M3.02856 8.40332C3.02856 8.1617 3.22444 7.96582 3.46606 7.96582H10.5334C10.775 7.96582 10.9709 8.1617 10.9709 8.40332C10.9709 8.64495 10.775 8.84082 10.5334 8.84082H3.46606C3.22444 8.84082 3.02856 8.64495 3.02856 8.40332Z" fill="#FE9A00"/>
</svg>
