<svg width="67" height="66" viewBox="0 0 67 66" fill="none" xmlns="http://www.w3.org/2000/svg">
<path d="M20.4391 30.0088L19.05 31.3978L10.7156 32.7869L7.9375 38.3432L12.1047 43.8994L21.8281 46.6775V55.0119L28.7735 57.7901L32.9407 56.401L35.7188 45.2885L41.2751 43.8994L48.2204 39.7322L45.4423 34.176L35.7188 31.3978L34.3297 21.6744L27.3844 18.8962L21.8281 21.6744L20.4391 30.0088Z" fill="#EE0033"/>
<path fill-rule="evenodd" clip-rule="evenodd" d="M33.1246 18.3845C34.686 19.6229 35.7096 21.4162 36.1101 23.5187C36.1297 23.6218 36.1396 23.7265 36.1396 23.8315V29.8483L40.8201 29.8494C44.9735 29.8494 48.4907 32.7652 49.313 36.8767C49.3183 36.9032 49.3229 36.9298 49.3269 36.9565C49.9551 41.1441 47.2572 45.0969 43.2978 46.1639C42.5426 46.4012 41.6605 46.3996 41.0918 46.3986C41.0557 46.3985 41.0208 46.3984 40.9873 46.3984H36.3067V51.2462C36.3067 51.2687 36.3068 51.2928 36.3068 51.3184C36.3078 51.7688 36.3096 52.6659 36.0593 53.4298C35.027 56.714 31.8919 59.6686 27.3218 59.2654C23.7018 59.0389 20.6253 56.1351 19.9655 52.6232C19.6562 51.4776 19.7072 50.3389 19.7412 49.5795C19.75 49.3832 19.7577 49.2122 19.7577 49.073V46.2328L15.0771 46.2313C10.9675 46.2313 7.60628 43.5315 6.76125 39.5851C5.72463 35.3613 8.58526 30.8496 12.9084 29.9163C13.2654 29.7809 13.6098 29.7327 13.8601 29.71C14.1668 29.6821 14.4831 29.6821 14.7144 29.6822C14.724 29.6822 14.7335 29.6822 14.7428 29.6822H19.5905V24.8345C19.5905 24.8066 19.5912 24.7788 19.5926 24.751C19.7971 20.6615 23.0559 16.861 27.3637 16.6456L27.3712 16.6452C29.5659 16.5455 31.5618 17.145 33.1246 18.3845ZM27.527 19.9849C29.008 19.9183 30.1869 20.3217 31.0472 21.0039C31.8794 21.664 32.5121 22.6635 32.7963 23.9979V30.0155C32.7963 30.7843 32.9531 31.7418 33.7145 32.4398C34.4434 33.1079 35.3615 33.1926 35.9724 33.1926H40.8201C43.34 33.1926 45.4971 34.939 46.0265 37.4922C46.3757 39.9605 44.7556 42.3234 42.4007 42.9431C42.366 42.9522 42.3315 42.9625 42.2975 42.9738C42.1095 43.0365 41.7507 43.0552 40.9873 43.0552H36.3067C35.5133 43.0552 34.4828 43.1865 33.7411 43.99C33.0293 44.7612 32.9635 45.7571 32.9635 46.3984V51.2462C32.9635 51.8257 32.9462 52.1968 32.8821 52.3892L32.8724 52.4192C32.2307 54.4726 30.3632 56.1849 27.5985 55.9336C27.5808 55.932 27.563 55.9306 27.5453 55.9296C25.5222 55.8106 23.6177 54.084 23.2426 51.9586C23.2326 51.9018 23.2196 51.8454 23.2038 51.7899C23.0306 51.184 23.0488 50.7421 23.0757 50.0854C23.0875 49.7992 23.1009 49.4722 23.1009 49.073V46.0641C23.1009 44.3051 21.6838 42.888 19.9248 42.888H15.0771C12.5107 42.888 10.5294 41.2554 10.0264 38.8661C10.0221 38.8456 10.0174 38.8253 10.0123 38.805C9.41378 36.4109 11.1338 33.6554 13.7183 33.1631C13.844 33.1391 13.9665 33.1008 14.0834 33.049C14.1001 33.0463 14.1259 33.0428 14.1628 33.0395C14.303 33.0267 14.4747 33.0254 14.7428 33.0254H19.5905C20.2472 33.0254 21.3275 32.9838 22.1098 32.2015C22.8921 31.4192 22.9337 30.3389 22.9337 29.6822V24.8792C23.0823 22.3003 25.1615 20.1053 27.527 19.9849Z" fill="#EE0033"/>
<path fill-rule="evenodd" clip-rule="evenodd" d="M47.6353 6.96357C50.3753 6.48874 52.8853 8.2685 53.3804 10.9915C53.3983 11.0902 53.4074 11.1902 53.4074 11.2905V13.2963L55.079 13.2965C56.2997 13.2965 57.4965 13.7261 58.3714 14.601C59.2143 15.4439 59.6575 16.6017 59.6017 17.887C59.9759 20.3528 58.4462 22.481 56.1823 23.2177C55.5382 23.4974 54.926 23.4948 54.629 23.4935C54.6106 23.4935 54.5934 23.4934 54.5775 23.4934H53.073V25.165C53.073 25.6081 52.9576 25.9513 52.9103 26.0919C52.9079 26.099 52.9057 26.1055 52.9037 26.1115C52.903 26.1134 52.9024 26.1153 52.9018 26.1171C52.895 26.2146 52.8797 26.3113 52.856 26.4063C52.3331 28.4977 50.2958 30.2187 47.6451 30.012C45.3284 29.9686 43.692 28.0172 43.2502 26.0291C43.2238 25.9101 43.2104 25.7885 43.2104 25.6665V23.4934H41.8731C39.3483 23.4934 37.3781 21.7065 36.8941 19.3248C36.3722 16.9297 37.9147 14.5113 40.2671 13.7398C40.9117 13.4597 41.5244 13.4622 41.8217 13.4635C41.8401 13.4636 41.8572 13.4636 41.8731 13.4636H43.5448V11.6249C43.5448 10.4314 44.1173 9.34226 44.8028 8.57102C45.4799 7.80926 46.4747 7.12386 47.6353 6.96357ZM44.2472 23.495C44.2466 23.4955 44.2358 23.4954 44.2167 23.4934C44.2383 23.4935 44.2478 23.4945 44.2472 23.495ZM43.2104 22.4872C43.2084 22.4681 43.2084 22.4573 43.2088 22.4566C43.2093 22.456 43.2103 22.4656 43.2104 22.4872ZM52.5539 13.296C52.554 13.296 52.5565 13.296 52.5612 13.2964L52.5539 13.296ZM50.0641 11.4648C49.8469 10.6006 49.0692 10.1007 48.19 10.2606C48.1596 10.2661 48.129 10.2708 48.0983 10.2746C47.9423 10.2941 47.6181 10.4361 47.3016 10.7922C46.9842 11.1493 46.888 11.481 46.888 11.6249V13.6308C46.888 15.3898 45.471 16.8069 43.7119 16.8069H41.8731C41.7852 16.8069 41.7277 16.807 41.6746 16.8087C41.6285 16.8101 41.6003 16.8124 41.5831 16.8144C41.5079 16.8498 41.4302 16.8797 41.3505 16.9036C40.4344 17.1784 40.0358 18.0508 40.1617 18.6174L40.1691 18.6522C40.3597 19.6052 41.0607 20.1501 41.8731 20.1501H44.2134C44.5568 20.1501 45.3176 20.1858 45.9178 20.786C46.518 21.3862 46.5537 22.1471 46.5537 22.4904V25.4603C46.8074 26.3409 47.4246 26.6695 47.7238 26.6695C47.7744 26.6695 47.8249 26.6718 47.8752 26.6763C48.8029 26.7607 49.392 26.2348 49.5796 25.7046C49.6134 25.4068 49.6893 25.1813 49.7254 25.074C49.7269 25.0694 49.7284 25.065 49.7298 25.0609V23.3262C49.7298 21.5672 51.1468 20.1501 52.9059 20.1501H54.5775C54.6654 20.1501 54.7229 20.15 54.776 20.1483C54.8221 20.1469 54.8503 20.1446 54.8675 20.1427C54.9427 20.1072 55.0205 20.0774 55.1001 20.0535C56.0397 19.7716 56.4282 19.038 56.2816 18.3049C56.25 18.1472 56.2414 17.9858 56.256 17.8257C56.2976 17.3683 56.1568 17.1145 56.0074 16.965C55.8376 16.7952 55.5299 16.6397 55.079 16.6397H52.5715C52.1652 16.6397 51.5253 16.5787 50.9581 16.106C50.448 15.6809 50.2462 15.1169 50.1499 14.8281C50.0931 14.6576 50.0641 14.4791 50.0641 14.2995V11.4648Z" fill="#FAB3C2"/>
<path d="M44.0528 14.7289L38.4966 17.507V20.2851L44.0528 21.6742L48.22 28.6195L52.3872 23.0633L57.9435 17.507L52.3872 13.3398L48.22 9.17261L44.0528 14.7289Z" fill="#FAB3C2"/>
</svg>
