<svg width="72" height="72" viewBox="0 0 72 72" fill="none" xmlns="http://www.w3.org/2000/svg">
<path d="M54.3649 26.9591C54.3649 25.6827 53.9394 24.6191 53.3013 23.6618C52.9822 23.2364 52.7694 22.5982 52.8758 22.0664C52.9822 20.8964 52.7694 19.7264 52.2376 18.6627C51.5994 17.5991 50.7485 16.8545 49.6849 16.4291C49.0467 16.2164 48.6213 15.7909 48.4085 15.2591C47.9831 14.1954 47.2385 13.2382 46.1749 12.7064C45.1113 12.0682 43.9413 11.8554 42.7713 12.0682C42.2394 12.0682 41.6013 11.9618 41.1758 11.5364C40.3249 10.8982 39.1549 10.4727 37.8785 10.4727C36.6022 10.4727 35.5385 10.8982 34.5813 11.5364C34.1558 11.8554 33.5176 12.0682 32.9858 11.9618C31.8158 11.8554 30.6458 12.0682 29.5822 12.6C28.5185 13.2382 27.774 14.0891 27.3485 15.1527C27.1358 15.7909 26.7104 16.2164 26.1785 16.4291C25.1149 16.8545 24.1576 17.5991 23.6258 18.6627C22.9876 19.7264 22.7749 20.8964 22.9876 22.0664C23.094 22.5982 22.8813 23.2364 22.5622 23.6618C21.924 24.5127 21.4985 25.6827 21.4985 26.9591C21.4985 28.2354 21.924 29.2991 22.5622 30.2564C22.8813 30.6818 23.094 31.32 22.9876 31.8518C22.8813 33.0218 23.094 34.1918 23.6258 35.2554C24.264 36.3191 25.1149 37.0636 26.1785 37.4891C26.7104 37.7018 27.1358 38.1273 27.3485 38.6591C27.774 39.7227 28.5185 40.68 29.5822 41.2118C30.6458 41.85 31.8158 42.0627 32.9858 41.85C33.5176 41.7436 34.1558 41.9564 34.5813 42.2754C35.4322 42.9136 36.6022 43.3391 37.8785 43.3391C39.1549 43.3391 40.2185 42.9136 41.1758 42.2754C41.6013 41.9564 42.2394 41.7436 42.7713 41.85C43.9413 41.9564 45.1113 41.7436 46.1749 41.2118C47.2385 40.5736 47.9831 39.7227 48.4085 38.6591C48.6213 38.1273 49.0467 37.7018 49.5785 37.4891C50.6422 37.0636 51.5994 36.3191 52.1313 35.2554C52.7694 34.1918 52.9822 33.0218 52.7694 31.8518C52.6631 31.32 52.8758 30.6818 53.1949 30.2564C53.9394 29.2991 54.3649 28.2354 54.3649 26.9591Z" fill="#C4C4C4"/>
<path d="M10.4727 45.5727L15.5781 44.509C17.3863 44.19 19.1945 43.5518 20.8963 42.9136C23.5554 41.7436 26.6399 41.6372 29.4054 42.4881L39.0845 45.5727C40.2545 45.8918 40.7863 47.1681 40.3608 48.3381C40.2545 48.7636 39.829 48.9763 39.4036 48.9763L33.1281 48.87L39.1908 50.2527C42.9136 51.1036 46.849 51.21 50.6781 50.4654L53.3372 49.9336C54.5072 49.7209 55.4645 50.5718 55.4645 51.7418C55.4645 52.0609 55.2517 52.4863 54.9327 52.5927L51.7417 53.869C47.2745 55.6772 42.3817 56.3154 37.5954 55.6772L28.4481 54.5072C25.5763 53.9754 22.5981 55.4645 20.0454 56.7409L10.4727 61.5272V45.5727Z" fill="#C4C4C4"/>
<path d="M13.0254 45.0409L10.4727 45.5727V61.5273L13.0254 60.2509V45.0409Z" fill="#92001F"/>
<path d="M61.527 26.9591C61.527 25.6827 61.1016 24.6191 60.4634 23.6618C60.1443 23.2364 59.9316 22.5982 60.0379 22.0664C60.1443 20.8964 59.9316 19.7264 59.3997 18.6627C58.7616 17.5991 57.9106 16.8545 56.847 16.4291C56.2088 16.2164 55.7834 15.7909 55.5706 15.2591C55.1452 14.1954 54.4006 13.2382 53.337 12.7064C52.2734 12.0682 51.1034 11.8554 49.9334 12.0682C49.4016 12.0682 48.7634 11.9618 48.3379 11.5364C47.487 10.8982 46.317 10.4727 45.0406 10.4727C43.7643 10.4727 42.7006 10.8982 41.7434 11.5364C41.3179 11.8554 40.6797 12.0682 40.1479 11.9618C38.9779 11.8554 37.8079 12.0682 36.7443 12.6C35.6806 13.2382 34.9361 14.0891 34.5106 15.1527C34.2979 15.7909 33.8725 16.2164 33.3406 16.4291C32.277 16.8545 31.3197 17.5991 30.7879 18.6627C30.1497 19.7264 29.937 20.8964 30.1497 22.0664C30.2561 22.5982 30.0434 23.2364 29.7243 23.6618C29.0861 24.5127 28.6606 25.6827 28.6606 26.9591C28.6606 28.2354 29.0861 29.2991 29.7243 30.2564C30.0434 30.6818 30.2561 31.32 30.1497 31.8518C30.0434 33.0218 30.2561 34.1918 30.7879 35.2554C31.4261 36.3191 32.277 37.0636 33.3406 37.4891C33.8725 37.7018 34.2979 38.1273 34.5106 38.6591C34.9361 39.7227 35.6806 40.68 36.7443 41.2118C37.8079 41.85 38.9779 42.0627 40.1479 41.85C40.6797 41.7436 41.3179 41.9564 41.7434 42.2754C42.5943 42.9136 43.7643 43.3391 45.0406 43.3391C46.317 43.3391 47.3806 42.9136 48.3379 42.2754C48.7634 41.9564 49.4016 41.7436 49.9334 41.85C51.1034 41.9564 52.2734 41.7436 53.337 41.2118C54.4006 40.5736 55.1452 39.7227 55.5706 38.6591C55.7834 38.1273 56.2088 37.7018 56.7406 37.4891C57.8043 37.0636 58.7616 36.3191 59.2934 35.2554C59.9316 34.1918 60.1443 33.0218 59.9316 31.8518C59.8252 31.32 60.0379 30.6818 60.357 30.2564C61.1016 29.2991 61.527 28.2354 61.527 26.9591Z" fill="#EE0033"/>
<path fill-rule="evenodd" clip-rule="evenodd" d="M47.8231 18.9499C48.8055 19.1541 49.7099 19.4693 50.3299 19.8391C50.6378 20.0228 50.7464 20.4351 50.5723 20.7601C50.3983 21.085 50.0075 21.1996 49.6996 21.0159C49.2417 20.7428 48.4825 20.4646 47.5756 20.2762C46.6764 20.0894 45.6781 20.0004 44.7566 20.0752C43.825 20.1508 43.0338 20.3886 42.4917 20.7968C41.9831 21.1799 41.6574 21.7364 41.6574 22.6034C41.6574 23.6374 42.0749 24.3004 42.7557 24.8232C43.4793 25.3788 44.4717 25.7519 45.5778 26.141C45.6511 26.1668 45.725 26.1927 45.7994 26.2187C46.7977 26.5683 47.8793 26.9471 48.7174 27.5145C49.6621 28.1541 50.374 29.0857 50.374 30.5158C50.374 31.8142 49.9662 32.8347 49.2339 33.5671C48.5185 34.2826 47.553 34.6639 46.5274 34.8309C44.4856 35.1634 41.9819 34.6845 39.958 33.9217C39.6248 33.7961 39.4512 33.4094 39.5702 33.0579C39.6892 32.7063 40.0557 32.5231 40.3888 32.6487C42.3014 33.3695 44.5778 33.7807 46.332 33.495C47.2043 33.3529 47.8907 33.0481 48.3528 32.586C48.7979 32.1408 49.0931 31.4923 49.0931 30.5158C49.0931 29.6712 48.7155 29.1192 48.0257 28.6522C47.329 28.1806 46.3947 27.8525 45.3419 27.4828C45.2858 27.4631 45.2294 27.4433 45.1727 27.4233C44.0996 27.0459 42.9128 26.6154 42.0021 25.9162C41.0485 25.1841 40.3764 24.1409 40.3764 22.6034C40.3764 21.2945 40.906 20.3303 41.7476 19.6965C42.5558 19.0879 43.6098 18.8126 44.6583 18.7275C45.7168 18.6416 46.8332 18.7442 47.8231 18.9499Z" fill="#FBFBFB" stroke="#FBFBFB" stroke-width="0.5" stroke-linecap="round" stroke-linejoin="round"/>
<path fill-rule="evenodd" clip-rule="evenodd" d="M45.7035 16.0922C46.0572 16.0922 46.344 16.3948 46.344 16.7681V37.0437C46.344 37.417 46.0572 37.7196 45.7035 37.7196C45.3497 37.7196 45.063 37.417 45.063 37.0437V16.7681C45.063 16.3948 45.3497 16.0922 45.7035 16.0922Z" fill="#FBFBFB" stroke="#FBFBFB" stroke-width="0.5" stroke-linecap="round" stroke-linejoin="round"/>
</svg>
