<svg width="15" height="16" viewBox="0 0 15 16" fill="none" xmlns="http://www.w3.org/2000/svg">
<g clip-path="url(#clip0)">
<path fill-rule="evenodd" clip-rule="evenodd" d="M2.05806 1.26411C2.30214 1.02004 2.69786 1.02004 2.94194 1.26411L6.06694 4.38911C6.31102 4.63319 6.31102 5.02892 6.06694 5.273L4.63388 6.70606L8.75 10.8222L10.1831 9.38911C10.4271 9.14504 10.8229 9.14504 11.0669 9.38911L14.1919 12.5141C14.436 12.7582 14.436 13.1539 14.1919 13.398L12.3169 15.273C12.1997 15.3902 12.0408 15.4561 11.875 15.4561C5.3167 15.4561 0 10.1394 0 3.58105C0 3.41529 0.065848 3.25632 0.183058 3.13911L2.05806 1.26411ZM1.25302 3.83692C1.3869 9.50162 5.95444 14.0692 11.6191 14.203L12.8661 12.9561L10.625 10.7149L9.19194 12.148C8.94786 12.3921 8.55214 12.3921 8.30806 12.148L3.30806 7.148C3.06398 6.90392 3.06398 6.50819 3.30806 6.26411L4.74112 4.83106L2.5 2.58994L1.25302 3.83692Z" fill="#EE0033"/>
<path fill-rule="evenodd" clip-rule="evenodd" d="M8.12488 1.08105C8.12488 0.735877 8.4047 0.456055 8.74988 0.456055C12.2019 0.456055 14.9999 3.254 14.9999 6.70606C14.9999 7.05123 14.7201 7.33106 14.3749 7.33106C14.0297 7.33106 13.7499 7.05123 13.7499 6.70606C13.7499 3.94436 11.5116 1.70605 8.74988 1.70605C8.4047 1.70605 8.12488 1.42623 8.12488 1.08105Z" fill="#EE0033"/>
<path fill-rule="evenodd" clip-rule="evenodd" d="M8.12488 3.58105C8.12488 3.23588 8.4047 2.95605 8.74988 2.95605C10.8207 2.95605 12.4999 4.63525 12.4999 6.70605C12.4999 7.05123 12.2201 7.33105 11.8749 7.33105C11.5297 7.33105 11.2499 7.05123 11.2499 6.70605C11.2499 5.32561 10.1303 4.20605 8.74988 4.20605C8.4047 4.20605 8.12488 3.92623 8.12488 3.58105Z" fill="#EE0033"/>
</g>
<defs>
<clipPath id="clip0">
<rect width="15" height="15" fill="white" transform="translate(0 0.456055)"/>
</clipPath>
</defs>
</svg>
