<svg width="20" height="20" viewBox="0 0 20 20" fill="none" xmlns="http://www.w3.org/2000/svg">
<path d="M15.8817 16.8817H3.73535V9.50714L9.80854 4.73535L15.8817 9.07334V16.8817Z" fill="#DCDCDC"/>
<mask id="mask0_820_38267" style="mask-type:alpha" maskUnits="userSpaceOnUse" x="3" y="4" width="13" height="13">
<path d="M15.8817 16.8817H3.73535V9.50714L9.80854 4.73535L15.8817 9.07334V16.8817Z" fill="#DCDCDC"/>
</mask>
<g mask="url(#mask0_820_38267)">
<rect x="10.0254" y="3.86816" width="7.59149" height="14.7492" fill="#C4C4C4"/>
</g>
<path d="M17 16.8818H2.86768V16.0142H17V16.8818Z" fill="#727272"/>
<path d="M11.735 16.0142H8.26465V12.4318C8.26465 11.5363 9.0425 10.8086 9.99985 10.8086C10.9572 10.8086 11.735 11.5363 11.735 12.4318V16.0142Z" fill="#EE0033"/>
<mask id="mask1_820_38267" style="mask-type:alpha" maskUnits="userSpaceOnUse" x="8" y="10" width="4" height="7">
<path d="M11.735 16.0142H8.26465V12.4318C8.26465 11.5363 9.0425 10.8086 9.99985 10.8086C10.9572 10.8086 11.735 11.5363 11.735 12.4318V16.0142Z" fill="#92001F"/>
</mask>
<g mask="url(#mask1_820_38267)">
<rect x="10" y="9.07324" width="2.6028" height="7.80839" fill="#92001F"/>
</g>
<path fill-rule="evenodd" clip-rule="evenodd" d="M10 3L17.183 8.07038C17.6342 8.38887 17.7418 9.01283 17.4233 9.46403L17.3024 9.63529C16.9932 10.0733 16.3936 10.1896 15.9431 9.89879L10 6.06265L4.05686 9.89879C3.60639 10.1896 3.00677 10.0733 2.69758 9.63529L2.57668 9.46403C2.25819 9.01283 2.36577 8.38887 2.81697 8.07038L10 3Z" fill="#EE0033"/>
<mask id="mask2_820_38267" style="mask-type:alpha" maskUnits="userSpaceOnUse" x="2" y="3" width="16" height="8">
<path fill-rule="evenodd" clip-rule="evenodd" d="M10 3L17.183 8.07038C17.6342 8.38887 17.7418 9.01283 17.4233 9.46403L17.3024 9.63529C16.9932 10.0733 16.3936 10.1896 15.9431 9.89879L10 6.06265L4.05686 9.89879C3.60639 10.1896 3.00677 10.0733 2.69758 9.63529L2.57668 9.46403C2.25819 9.01283 2.36577 8.38887 2.81697 8.07038L10 3Z" fill="#EE0033"/>
</mask>
<g mask="url(#mask2_820_38267)">
<rect x="10.0254" y="2.13281" width="8.45909" height="8.67599" fill="#92001F"/>
</g>
</svg>
