<svg width="20" height="20" viewBox="0 0 20 20" fill="none" xmlns="http://www.w3.org/2000/svg">
<path d="M10.4932 5.58822C7.43349 5.58822 4.95312 8.0693 4.95312 11.1299C4.95312 14.1905 7.43349 16.6715 10.4932 16.6715C13.5529 16.6715 16.0332 14.1905 16.0332 11.1299C16.0332 8.0693 13.5529 5.58822 10.4932 5.58822ZM10.4932 5.58822V4.00488M10.4932 10.3382C10.0561 10.3382 9.70175 10.6927 9.70175 11.1299C9.70175 11.5671 10.0561 11.9215 10.4932 11.9215C10.9303 11.9215 11.2846 11.5671 11.2846 11.1299C11.2846 10.6927 10.9303 10.3382 10.4932 10.3382ZM10.4932 10.3382V7.96322M14.4504 5.58822L13.6589 6.37988M6.536 5.58822L7.32744 6.37988M12.0761 4.00488H8.91031" stroke="#727272" stroke-width="1.5" stroke-linecap="round" stroke-linejoin="round"/>
</svg>
