<svg width="16" height="17" viewBox="0 0 16 17" fill="none" xmlns="http://www.w3.org/2000/svg">
<path fill-rule="evenodd" clip-rule="evenodd" d="M0 1.60416C0 0.713238 0.812657 0.104156 1.65385 0.104156H14.3462C15.1873 0.104156 16 0.713238 16 1.60416V15.6042C16 15.7902 15.8967 15.9608 15.7319 16.0471C15.5671 16.1334 15.368 16.121 15.2151 16.0151L12.6495 14.2362L10.6352 15.982C10.4472 16.1449 10.1682 16.1449 9.98023 15.982L8 14.2658L6.01977 15.982C5.83184 16.1449 5.55277 16.1449 5.36484 15.982L3.3505 14.2362L0.78489 16.0151C0.632007 16.121 0.432916 16.1334 0.2681 16.0471C0.103285 15.9608 0 15.7902 0 15.6042V1.60416ZM1.65385 1.10416C1.2258 1.10416 1 1.39508 1 1.60416V14.6491L3.09973 13.1933C3.28743 13.0631 3.53947 13.0767 3.71208 13.2263L5.69231 14.9425L7.67253 13.2263C7.86047 13.0634 8.13953 13.0634 8.32746 13.2263L10.3077 14.9425L12.2879 13.2263C12.4605 13.0767 12.7126 13.0631 12.9003 13.1933L15 14.6491V1.60416C15 1.39507 14.7742 1.10416 14.3462 1.10416H1.65385Z" fill="#EE0033"/>
<path fill-rule="evenodd" clip-rule="evenodd" d="M3.46118 5.60416C3.46118 5.32801 3.68504 5.10416 3.96118 5.10416H12.0381C12.3142 5.10416 12.5381 5.32801 12.5381 5.60416C12.5381 5.8803 12.3142 6.10416 12.0381 6.10416H3.96118C3.68504 6.10416 3.46118 5.8803 3.46118 5.60416Z" fill="#EE0033"/>
<path fill-rule="evenodd" clip-rule="evenodd" d="M3.46118 9.60416C3.46118 9.32801 3.68504 9.10416 3.96118 9.10416H12.0381C12.3142 9.10416 12.5381 9.32801 12.5381 9.60416C12.5381 9.8803 12.3142 10.1042 12.0381 10.1042H3.96118C3.68504 10.1042 3.46118 9.8803 3.46118 9.60416Z" fill="#EE0033"/>
</svg>
