<svg width="20" height="22" viewBox="0 0 20 22" fill="none" xmlns="http://www.w3.org/2000/svg">
<path d="M1.73926 5.46741C1.32504 5.46741 0.989258 5.80319 0.989258 6.21741C0.989258 6.63162 1.32504 6.96741 1.73926 6.96741V5.46741ZM18.6671 6.74774C18.96 6.45484 18.96 5.97997 18.6671 5.68708L13.8941 0.914106C13.6012 0.621213 13.1264 0.621213 12.8335 0.914106C12.5406 1.207 12.5406 1.68187 12.8335 1.97477L17.0761 6.21741L12.8335 10.46C12.5406 10.7529 12.5406 11.2278 12.8335 11.5207C13.1264 11.8136 13.6012 11.8136 13.8941 11.5207L18.6671 6.74774ZM1.73926 6.96741H18.1368V5.46741H1.73926V6.96741Z" fill="#EE0033"/>
<path d="M18.1367 16.5326C18.5509 16.5326 18.8867 16.1968 18.8867 15.7826C18.8867 15.3684 18.5509 15.0326 18.1367 15.0326L18.1367 16.5326ZM1.20887 15.2523C0.915981 15.5452 0.915981 16.02 1.20887 16.3129L5.98185 21.0859C6.27474 21.3788 6.74961 21.3788 7.04251 21.0859C7.3354 20.793 7.3354 20.3181 7.04251 20.0252L2.79986 15.7826L7.0425 11.54C7.3354 11.2471 7.3354 10.7722 7.0425 10.4793C6.74961 10.1864 6.27474 10.1864 5.98184 10.4793L1.20887 15.2523ZM18.1367 15.0326L1.7392 15.0326L1.7392 16.5326L18.1367 16.5326L18.1367 15.0326Z" fill="#FE9A00"/>
</svg>
