<svg width="24" height="24" viewBox="0 0 24 24" fill="none" xmlns="http://www.w3.org/2000/svg">
<path fill-rule="evenodd" clip-rule="evenodd" d="M9.02081 15.7613C9.42635 15.7613 9.7551 16.09 9.7551 16.4956V17.0096C9.7551 18.7726 8.65008 20.3853 6.98753 20.9343L1.17207 23.0595C0.791172 23.1987 0.369554 23.0028 0.230357 22.6219C0.0911603 22.241 0.287095 21.8194 0.66799 21.6802L6.49487 19.5507C6.50291 19.5478 6.51099 19.545 6.51912 19.5424C7.54969 19.2061 8.28653 18.1791 8.28653 17.0096V16.4956C8.28653 16.09 8.61528 15.7613 9.02081 15.7613ZM13.995 15.8347C14.4005 15.8347 14.7293 16.1635 14.7293 16.569V17.0096C14.7293 18.1791 15.4661 19.2061 16.4967 19.5424L16.508 19.5462L22.6902 21.6756C23.0736 21.8076 23.2774 22.2255 23.1453 22.609C23.0132 22.9924 22.5954 23.1961 22.2119 23.0641L16.0351 20.9365C14.3687 20.3897 13.2607 18.775 13.2607 17.0096V16.569C13.2607 16.1635 13.5894 15.8347 13.995 15.8347Z" fill="#FE9A00"/>
<path fill-rule="evenodd" clip-rule="evenodd" d="M0.186035 22.3698C0.186035 21.9643 0.514784 21.6356 0.920317 21.6356H22.4514C22.8569 21.6356 23.1856 21.9643 23.1856 22.3698C23.1856 22.7754 22.8569 23.1041 22.4514 23.1041H0.920317C0.514784 23.1041 0.186035 22.7754 0.186035 22.3698Z" fill="#FE9A00"/>
<path fill-rule="evenodd" clip-rule="evenodd" d="M11.5079 4.37994C8.7383 4.37994 6.41534 6.74515 6.41534 9.66677C6.41534 11.1477 7.01373 12.9311 7.9975 14.3406C8.99222 15.7658 10.2556 16.6424 11.5079 16.6424C12.7603 16.6424 14.0237 15.7658 15.0184 14.3406C16.0022 12.9311 16.6005 11.1477 16.6005 9.66677C16.6005 6.74515 14.2776 4.37994 11.5079 4.37994ZM4.94678 9.66677C4.94678 5.97985 7.88222 2.91138 11.5079 2.91138C15.1337 2.91138 18.0691 5.97985 18.0691 9.66677C18.0691 11.4901 17.3529 13.5617 16.2226 15.1811C15.1033 16.7848 13.4533 18.111 11.5079 18.111C9.5626 18.111 7.91254 16.7848 6.79324 15.1811C5.66299 13.5617 4.94678 11.4901 4.94678 9.66677Z" fill="#EE0033"/>
<path fill-rule="evenodd" clip-rule="evenodd" d="M16.4585 7.97781C16.4585 7.57228 16.7872 7.24353 17.1928 7.24353H18.1166C20.0316 7.24353 21.6932 8.6953 21.6932 10.6212C21.6932 12.5471 20.0316 13.9989 18.1166 13.9989H17.1928C16.7872 13.9989 16.4585 13.6702 16.4585 13.2646V7.97781ZM17.9271 8.71209V12.5304H18.1166C19.3282 12.5304 20.2247 11.6324 20.2247 10.6212C20.2247 9.61002 19.3282 8.71209 18.1166 8.71209H17.9271Z" fill="#EE0033"/>
<path fill-rule="evenodd" clip-rule="evenodd" d="M4.89942 8.71209C3.6878 8.71209 2.79132 9.61002 2.79132 10.6212C2.79132 11.6324 3.6878 12.5304 4.89942 12.5304H5.08891V8.71209H4.89942ZM1.32275 10.6212C1.32275 8.6953 2.98442 7.24353 4.89942 7.24353H5.82319C6.22872 7.24353 6.55747 7.57228 6.55747 7.97781V13.2646C6.55747 13.6702 6.22872 13.9989 5.82319 13.9989H4.89942C2.98442 13.9989 1.32275 12.5471 1.32275 10.6212Z" fill="#EE0033"/>
<path fill-rule="evenodd" clip-rule="evenodd" d="M8.80742 1.80993C6.80489 1.80993 5.27813 3.30381 5.27813 4.96734V7.68419C5.27813 8.08972 4.94938 8.41847 4.54385 8.41847C4.13832 8.41847 3.80957 8.08972 3.80957 7.68419V4.96734C3.80957 2.37204 6.12003 0.34137 8.80742 0.34137H14.1369C16.8243 0.34137 19.1347 2.37204 19.1347 4.96734V7.61076C19.1347 8.01629 18.806 8.34504 18.4005 8.34504C17.9949 8.34504 17.6662 8.01629 17.6662 7.61076V4.96734C17.6662 3.30381 16.1394 1.80993 14.1369 1.80993H8.80742Z" fill="#FE9A00"/>
<path fill-rule="evenodd" clip-rule="evenodd" d="M4.54385 12.457C4.94938 12.457 5.27813 12.7858 5.27813 13.1913V14.513C5.27813 15.5989 6.10885 16.4222 7.102 16.4222C7.50753 16.4222 7.83628 16.7509 7.83628 17.1564C7.83628 17.562 7.50753 17.8907 7.102 17.8907C5.25276 17.8907 3.80957 16.3642 3.80957 14.513V13.1913C3.80957 12.7858 4.13832 12.457 4.54385 12.457Z" fill="#EE0033"/>
</svg>
