<svg width="12" height="13" viewBox="0 0 12 13" fill="none" xmlns="http://www.w3.org/2000/svg">
<path fill-rule="evenodd" clip-rule="evenodd" d="M4.875 5.66406C5.08211 5.66406 5.25 5.83196 5.25 6.03906V6.86406C5.25 7.651 4.74498 8.40386 3.97881 8.64559L1.54522 9.46927C1.54045 9.47088 1.53565 9.4724 1.53081 9.47382C1.06291 9.61144 0.75 10.0573 0.75 10.5391V11.3266H11.25V10.5391C11.25 10.0525 10.932 9.60678 10.5006 9.47199L10.4923 9.46927L8.05869 8.64559C7.29252 8.40386 6.7875 7.651 6.7875 6.86406V6.03906C6.7875 5.83196 6.95539 5.66406 7.1625 5.66406C7.36961 5.66406 7.5375 5.83196 7.5375 6.03906V6.86406C7.5375 7.3506 7.85552 7.79634 8.28685 7.93113L8.29522 7.93386L10.7288 8.75753C11.495 8.99926 12 9.75213 12 10.5391V11.7016C12 11.9087 11.8321 12.0766 11.625 12.0766H0.375C0.167893 12.0766 0 11.9087 0 11.7016V10.5391C0 9.74839 0.508851 8.99646 1.31152 8.75657L3.74228 7.93386L3.75065 7.93113C4.18198 7.79634 4.5 7.3506 4.5 6.86406V6.03906C4.5 5.83196 4.66789 5.66406 4.875 5.66406Z" fill="#EE0033"/>
<path fill-rule="evenodd" clip-rule="evenodd" d="M6 0.828125C4.74461 0.828125 3.75 1.82273 3.75 3.07812C3.75 3.72129 4.01007 4.49001 4.44392 5.09569C4.88142 5.70646 5.43873 6.07812 6 6.07812C6.56127 6.07812 7.11858 5.70646 7.55608 5.09569C7.98993 4.49001 8.25 3.72129 8.25 3.07812C8.25 1.82273 7.25539 0.828125 6 0.828125ZM3 3.07812C3 1.40852 4.33039 0.078125 6 0.078125C7.66961 0.078125 9 1.40852 9 3.07812C9 3.89746 8.67881 4.81624 8.1658 5.53244C7.65642 6.24354 6.90123 6.82812 6 6.82812C5.09877 6.82812 4.34358 6.24354 3.8342 5.53244C3.32118 4.81624 3 3.89746 3 3.07812Z" fill="#EE0033"/>
</svg>
