<svg width="16" height="17" viewBox="0 0 16 17" fill="none" xmlns="http://www.w3.org/2000/svg">
<path fill-rule="evenodd" clip-rule="evenodd" d="M6.5 8.09241C6.77614 8.09241 7 8.31626 7 8.59241V9.69241C7 10.7417 6.32664 11.7455 5.30508 12.0678L2.0603 13.166C2.05393 13.1682 2.04753 13.1702 2.04108 13.1721C1.41721 13.3556 1 13.95 1 14.5924V15.6424H15V14.5924C15 13.9437 14.576 13.3494 14.0009 13.1696L13.9897 13.166L10.7449 12.0678C9.72336 11.7455 9.05 10.7417 9.05 9.69241V8.59241C9.05 8.31626 9.27386 8.09241 9.55 8.09241C9.82614 8.09241 10.05 8.31626 10.05 8.59241V9.69241C10.05 10.3411 10.474 10.9354 11.0491 11.1152L11.0603 11.1188L14.3051 12.217C15.3266 12.5393 16 13.5432 16 14.5924V16.1424C16 16.4185 15.7761 16.6424 15.5 16.6424H0.5C0.223858 16.6424 0 16.4185 0 16.1424V14.5924C0 13.5382 0.678469 12.5356 1.7487 12.2158L4.9897 11.1188L5.00086 11.1152C5.57597 10.9354 6 10.3411 6 9.69241V8.59241C6 8.31626 6.22386 8.09241 6.5 8.09241Z" fill="#EE0033"/>
<path fill-rule="evenodd" clip-rule="evenodd" d="M8 1.64307C6.32614 1.64307 5 2.96921 5 4.64307C5 5.50062 5.34675 6.52558 5.92523 7.33315C6.50856 8.14751 7.25164 8.64307 8 8.64307C8.74836 8.64307 9.49144 8.14751 10.0748 7.33315C10.6532 6.52558 11 5.50062 11 4.64307C11 2.96921 9.67386 1.64307 8 1.64307ZM4 4.64307C4 2.41692 5.77386 0.643066 8 0.643066C10.2261 0.643066 12 2.41692 12 4.64307C12 5.73552 11.5718 6.96055 10.8877 7.91548C10.2086 8.86362 9.20164 9.64307 8 9.64307C6.79836 9.64307 5.79144 8.86362 5.11227 7.91548C4.42825 6.96055 4 5.73552 4 4.64307Z" fill="#EE0033"/>
</svg>
