<svg width="44" height="44" viewBox="0 0 44 44" fill="none" xmlns="http://www.w3.org/2000/svg">
<g clip-path="url(#clip0)">
<path d="M14.3739 7.6875L13.3208 9.16179L17.0207 11.8046L18.5076 12.4085L20.1885 11.8045L14.3739 7.6875Z" fill="#828282"/>
<path d="M25.9401 6.83093L20.1885 11.8045L21.5875 12.4084L22.9216 11.8045L27.1192 8.20654L25.9401 6.83093Z" fill="#828282"/>
<path d="M10.435 11.8043C8.32043 11.8043 6.6001 13.5247 6.6001 15.6392V33.3341C6.6001 35.4487 8.32043 37.169 10.435 37.169H20.1883L20.7923 24.1243L20.1883 11.8043H10.435Z" fill="#C4C4C4"/>
<path d="M33.5653 11.8043H20.1885V37.169H33.5653C35.6799 37.169 37.4002 35.4487 37.4002 33.3341V15.6392C37.4002 13.5247 35.6799 11.8043 33.5653 11.8043Z" fill="#C4C4C4"/>
<path d="M31.9648 19.9575H33.7766V21.7693H31.9648V19.9575Z" fill="#828282"/>
<path d="M31.9648 23.5809H33.7766V25.3927H31.9648V23.5809Z" fill="#828282"/>
<path d="M31.9648 27.2043H33.7766V29.0161H31.9648V27.2043Z" fill="#828282"/>
<path d="M14.7228 15.4279C12.242 15.4279 10.2236 17.4462 10.2236 19.9271V29.0463C10.2236 31.5271 12.242 33.5455 14.7228 33.5455H20.1883L20.7923 24.4867L20.1883 15.4279H14.7228Z" fill="#EE0033"/>
<path d="M25.654 15.4279C25.0837 15.4279 20.8315 15.4279 20.1885 15.4279V33.5455H25.654C28.1348 33.5455 30.1532 31.5271 30.1532 29.0463V19.9271C30.1532 17.4462 28.1348 15.4279 25.654 15.4279Z" fill="#EE0033"/>
</g>
<defs>
<clipPath id="clip0">
<rect width="30.8" height="30.8" fill="white" transform="translate(6.6001 6.59998)"/>
</clipPath>
</defs>
</svg>
