<svg width="60" height="60" viewBox="0 0 60 60" fill="none" xmlns="http://www.w3.org/2000/svg">
<rect x="9" y="15" width="42" height="33" rx="1" fill="#EEEEEE"/>
<path d="M9 16C9 15.4477 9.44772 15 10 15H50C50.5523 15 51 15.4477 51 16V24H9V16Z" fill="#EE0033"/>
<path d="M30 15H50C50.5523 15 51 15.4477 51 16V24H30V15Z" fill="#92001F"/>
<rect x="15" y="9" width="6" height="12" rx="1" fill="#DCDCDC"/>
<rect x="27" y="9" width="6" height="12" rx="1" fill="#DCDCDC"/>
<rect x="39" y="9" width="6" height="12" rx="1" fill="#DCDCDC"/>
<path d="M20.8875 30H15.1125C15.05 30 15 29.871 15 29.7097V27.2903C15 27.129 15.05 27 15.1125 27H20.8875C20.95 27 21 27.129 21 27.2903V29.7097C21 29.871 20.95 30 20.8875 30Z" fill="#C4C4C4"/>
<path d="M20.8875 36H15.1125C15.05 36 15 35.871 15 35.7097V33.2903C15 33.129 15.05 33 15.1125 33H20.8875C20.95 33 21 33.129 21 33.2903V35.7097C21 35.871 20.95 36 20.8875 36Z" fill="#C4C4C4"/>
<path d="M20.8875 42H15.1125C15.05 42 15 41.871 15 41.7097V39.2903C15 39.129 15.05 39 15.1125 39H20.8875C20.95 39 21 39.129 21 39.2903V41.7097C21 41.871 20.95 42 20.8875 42Z" fill="#C4C4C4"/>
<path d="M32.8875 30H27.1125C27.05 30 27 29.871 27 29.7097V27.2903C27 27.129 27.05 27 27.1125 27H32.8875C32.95 27 33 27.129 33 27.2903V29.7097C33 29.871 32.95 30 32.8875 30Z" fill="#C4C4C4"/>
<path d="M32.8875 36H27.1125C27.05 36 27 35.871 27 35.7097V33.2903C27 33.129 27.05 33 27.1125 33H32.8875C32.95 33 33 33.129 33 33.2903V35.7097C33 35.871 32.95 36 32.8875 36Z" fill="#C4C4C4"/>
<path d="M32.8875 42H27.1125C27.05 42 27 41.871 27 41.7097V39.2903C27 39.129 27.05 39 27.1125 39H32.8875C32.95 39 33 39.129 33 39.2903V41.7097C33 41.871 32.95 42 32.8875 42Z" fill="#C4C4C4"/>
<path d="M44.8875 30H39.1125C39.05 30 39 29.871 39 29.7097V27.2903C39 27.129 39.05 27 39.1125 27H44.8875C44.95 27 45 27.129 45 27.2903V29.7097C45 29.871 44.95 30 44.8875 30Z" fill="#C4C4C4"/>
<path d="M44.8875 36H39.1125C39.05 36 39 35.871 39 35.7097V33.2903C39 33.129 39.05 33 39.1125 33H44.8875C44.95 33 45 33.129 45 33.2903V35.7097C45 35.871 44.95 36 44.8875 36Z" fill="#C4C4C4"/>
<path d="M44.8875 42H39.1125C39.05 42 39 41.871 39 41.7097V39.2903C39 39.129 39.05 39 39.1125 39H44.8875C44.95 39 45 39.129 45 39.2903V41.7097C45 41.871 44.95 42 44.8875 42Z" fill="#C4C4C4"/>
<mask id="mask0_4896_172804" style="mask-type:alpha" maskUnits="userSpaceOnUse" x="15" y="9" width="6" height="12">
<rect x="15" y="9" width="6" height="12" rx="1" fill="#DCDCDC"/>
</mask>
<g mask="url(#mask0_4896_172804)">
<rect x="18" y="6" width="6" height="18" fill="#C4C4C4"/>
</g>
<mask id="mask1_4896_172804" style="mask-type:alpha" maskUnits="userSpaceOnUse" x="27" y="9" width="6" height="12">
<rect x="27" y="9" width="6" height="12" rx="1" fill="#DCDCDC"/>
</mask>
<g mask="url(#mask1_4896_172804)">
<rect x="30" y="6" width="6" height="18" fill="#C4C4C4"/>
</g>
<mask id="mask2_4896_172804" style="mask-type:alpha" maskUnits="userSpaceOnUse" x="39" y="9" width="6" height="12">
<rect x="39" y="9" width="6" height="12" rx="1" fill="#DCDCDC"/>
</mask>
<g mask="url(#mask2_4896_172804)">
<rect x="42" y="6" width="6" height="18" fill="#C4C4C4"/>
</g>
</svg>
