<svg width="80" height="80" viewBox="0 0 80 80" fill="none" xmlns="http://www.w3.org/2000/svg">
<rect x="11.4492" y="24" width="56" height="32" rx="1" fill="#C4C4C4"/>
<path d="M39.4492 24H66.4492C67.0015 24 67.4492 24.4477 67.4492 25V55C67.4492 55.5523 67.0015 56 66.4492 56H39.4492V24Z" fill="#DCDCDC"/>
<path d="M29.5278 35.6532V34.1845C29.5278 33.0372 28.9311 31.9357 27.9215 31.385C26.9118 30.7883 25.6726 30.7883 24.6629 31.385C23.6533 31.9816 23.0566 33.0372 23.0566 34.1845V35.6532C23.0566 36.6628 23.6074 37.6266 24.4794 38.1315C25.6267 38.774 27.0036 38.774 28.105 38.1315C28.977 37.6266 29.5278 36.6628 29.5278 35.6532Z" fill="#EE0033"/>
<path d="M26.2924 39.25C22.529 39.25 19.5 42.4491 19.2246 46.5623C21.4275 46.9178 23.8141 47.1209 26.2924 47.1209C28.7707 47.1209 31.1572 46.9178 33.3601 46.5623C33.0848 42.4491 30.0557 39.25 26.2924 39.25Z" fill="#EE0033"/>
<mask id="mask0" mask-type="alpha" maskUnits="userSpaceOnUse" x="23" y="30" width="7" height="9">
<path d="M29.5278 35.6532V34.1845C29.5278 33.0372 28.9311 31.9357 27.9215 31.385C26.9118 30.7883 25.6726 30.7883 24.6629 31.385C23.6533 31.9816 23.0566 33.0372 23.0566 34.1845V35.6532C23.0566 36.6628 23.6074 37.6266 24.4794 38.1315C25.6267 38.774 27.0036 38.774 28.105 38.1315C28.977 37.6266 29.5278 36.6628 29.5278 35.6532Z" fill="#EE0033"/>
</mask>
<g mask="url(#mask0)">
<rect x="26.292" y="27.0625" width="9.34315" height="21.25" fill="#92001F"/>
</g>
<mask id="mask1" mask-type="alpha" maskUnits="userSpaceOnUse" x="19" y="39" width="15" height="9">
<path d="M26.2924 39.25C22.529 39.25 19.5 42.4491 19.2246 46.5623C21.4275 46.9178 23.8141 47.1209 26.2924 47.1209C28.7707 47.1209 31.1572 46.9178 33.3601 46.5623C33.0848 42.4491 30.0557 39.25 26.2924 39.25Z" fill="#EE0033"/>
</mask>
<g mask="url(#mask1)">
<rect x="26.292" y="27.0625" width="9.34315" height="21.25" fill="#92001F"/>
</g>
<rect x="19.2246" y="50.375" width="14.1355" height="1.5625" rx="0.78125" fill="#EE0033"/>
<path d="M26.3242 50.375H32.5789C33.0103 50.375 33.3601 50.7248 33.3601 51.1562C33.3601 51.5877 33.0103 51.9375 32.5789 51.9375H26.3242V50.375Z" fill="#92001F"/>
<path fill-rule="evenodd" clip-rule="evenodd" d="M43.2117 42.3574C42.8381 42.1416 42.71 41.6638 42.9258 41.2902L43.2199 40.7807H42.6318C42.2004 40.7807 41.8506 40.4309 41.8506 39.9994C41.8506 39.568 42.2004 39.2182 42.6318 39.2182H43.2198L42.9258 38.7091C42.7101 38.3354 42.8381 37.8576 43.2118 37.6419C43.5855 37.4262 44.0633 37.5542 44.279 37.9279L44.573 38.4371L44.867 37.9279C45.0827 37.5542 45.5605 37.4262 45.9342 37.6419C46.3079 37.8576 46.4359 38.3354 46.2202 38.7091L45.9262 39.2182H46.5143C46.9457 39.2182 47.2955 39.568 47.2955 39.9994C47.2955 40.4309 46.9457 40.7807 46.5143 40.7807H45.9261L46.2202 41.2902C46.436 41.6638 46.3079 42.1416 45.9343 42.3574C45.5606 42.5731 45.0828 42.4451 44.8671 42.0714L44.573 41.5621L44.2789 42.0714C44.0632 42.4451 43.5854 42.5731 43.2117 42.3574Z" fill="#EE0033"/>
<path fill-rule="evenodd" clip-rule="evenodd" d="M52.0867 42.3574C51.7131 42.1416 51.585 41.6638 51.8008 41.2902L52.0949 40.7807H51.5068C51.0754 40.7807 50.7256 40.4309 50.7256 39.9994C50.7256 39.568 51.0754 39.2182 51.5068 39.2182H52.0948L51.8008 38.7091C51.5851 38.3354 51.7131 37.8576 52.0868 37.6419C52.4605 37.4262 52.9383 37.5542 53.154 37.9279L53.448 38.4371L53.742 37.9279C53.9577 37.5542 54.4355 37.4262 54.8092 37.6419C55.1829 37.8576 55.3109 38.3354 55.0952 38.7091L54.8012 39.2182H55.3893C55.8207 39.2182 56.1705 39.568 56.1705 39.9994C56.1705 40.4309 55.8207 40.7807 55.3893 40.7807H54.8011L55.0952 41.2902C55.311 41.6638 55.1829 42.1416 54.8093 42.3574C54.4356 42.5731 53.9578 42.4451 53.7421 42.0714L53.448 41.5621L53.1539 42.0714C52.9382 42.4451 52.4604 42.5731 52.0867 42.3574Z" fill="#EE0033"/>
<path fill-rule="evenodd" clip-rule="evenodd" d="M60.9637 42.3574C60.59 42.1416 60.462 41.6638 60.6777 41.2902L60.9719 40.7807H60.3838C59.9523 40.7807 59.6025 40.4309 59.6025 39.9994C59.6025 39.568 59.9523 39.2182 60.3838 39.2182H60.9717L60.6778 38.7091C60.4621 38.3354 60.5901 37.8576 60.9637 37.6419C61.3374 37.4262 61.8152 37.5542 62.031 37.9279L62.325 38.4371L62.619 37.9279C62.8347 37.5542 63.3125 37.4262 63.6862 37.6419C64.0598 37.8576 64.1879 38.3354 63.9721 38.7091L63.6782 39.2182H64.2662C64.6977 39.2182 65.0475 39.568 65.0475 39.9994C65.0475 40.4309 64.6977 40.7807 64.2662 40.7807H63.678L63.9722 41.2902C64.1879 41.6638 64.0599 42.1416 63.6862 42.3574C63.3125 42.5731 62.8347 42.4451 62.619 42.0714L62.325 41.5621L62.0309 42.0714C61.8152 42.4451 61.3374 42.5731 60.9637 42.3574Z" fill="#EE0033"/>
<mask id="mask2" mask-type="alpha" maskUnits="userSpaceOnUse" x="41" y="37" width="7" height="6">
<path fill-rule="evenodd" clip-rule="evenodd" d="M43.2117 42.3574C42.8381 42.1416 42.71 41.6638 42.9258 41.2902L43.2199 40.7807H42.6318C42.2004 40.7807 41.8506 40.4309 41.8506 39.9994C41.8506 39.568 42.2004 39.2182 42.6318 39.2182H43.2198L42.9258 38.7091C42.7101 38.3354 42.8381 37.8576 43.2118 37.6419C43.5855 37.4262 44.0633 37.5542 44.279 37.9279L44.573 38.4371L44.867 37.9279C45.0827 37.5542 45.5605 37.4262 45.9342 37.6419C46.3079 37.8576 46.4359 38.3354 46.2202 38.7091L45.9262 39.2182H46.5143C46.9457 39.2182 47.2955 39.568 47.2955 39.9994C47.2955 40.4309 46.9457 40.7807 46.5143 40.7807H45.9261L46.2202 41.2902C46.436 41.6638 46.3079 42.1416 45.9343 42.3574C45.5606 42.5731 45.0828 42.4451 44.8671 42.0714L44.573 41.5621L44.2789 42.0714C44.0632 42.4451 43.5854 42.5731 43.2117 42.3574Z" fill="#EE0033"/>
</mask>
<g mask="url(#mask2)">
<rect x="44.5596" y="36.418" width="4.1875" height="7.53125" fill="#92001F"/>
</g>
<mask id="mask3" mask-type="alpha" maskUnits="userSpaceOnUse" x="50" y="37" width="7" height="6">
<path fill-rule="evenodd" clip-rule="evenodd" d="M52.0867 42.3574C51.7131 42.1416 51.585 41.6638 51.8008 41.2902L52.0949 40.7807H51.5068C51.0754 40.7807 50.7256 40.4309 50.7256 39.9994C50.7256 39.568 51.0754 39.2182 51.5068 39.2182H52.0948L51.8008 38.7091C51.5851 38.3354 51.7131 37.8576 52.0868 37.6419C52.4605 37.4262 52.9383 37.5542 53.154 37.9279L53.448 38.4371L53.742 37.9279C53.9577 37.5542 54.4355 37.4262 54.8092 37.6419C55.1829 37.8576 55.3109 38.3354 55.0952 38.7091L54.8012 39.2182H55.3893C55.8207 39.2182 56.1705 39.568 56.1705 39.9994C56.1705 40.4309 55.8207 40.7807 55.3893 40.7807H54.8011L55.0952 41.2902C55.311 41.6638 55.1829 42.1416 54.8093 42.3574C54.4356 42.5731 53.9578 42.4451 53.7421 42.0714L53.448 41.5621L53.1539 42.0714C52.9382 42.4451 52.4604 42.5731 52.0867 42.3574Z" fill="#EE0033"/>
</mask>
<g mask="url(#mask3)">
<rect x="53.4346" y="36.418" width="4.1875" height="7.53125" fill="#92001F"/>
</g>
<mask id="mask4" mask-type="alpha" maskUnits="userSpaceOnUse" x="59" y="37" width="7" height="6">
<path fill-rule="evenodd" clip-rule="evenodd" d="M60.9637 42.3574C60.59 42.1416 60.462 41.6638 60.6777 41.2902L60.9719 40.7807H60.3838C59.9523 40.7807 59.6025 40.4309 59.6025 39.9994C59.6025 39.568 59.9523 39.2182 60.3838 39.2182H60.9717L60.6778 38.7091C60.4621 38.3354 60.5901 37.8576 60.9637 37.6419C61.3374 37.4262 61.8152 37.5542 62.031 37.9279L62.325 38.4371L62.619 37.9279C62.8347 37.5542 63.3125 37.4262 63.6862 37.6419C64.0598 37.8576 64.1879 38.3354 63.9721 38.7091L63.6782 39.2182H64.2662C64.6977 39.2182 65.0475 39.568 65.0475 39.9994C65.0475 40.4309 64.6977 40.7807 64.2662 40.7807H63.678L63.9722 41.2902C64.1879 41.6638 64.0599 42.1416 63.6862 42.3574C63.3125 42.5731 62.8347 42.4451 62.619 42.0714L62.325 41.5621L62.0309 42.0714C61.8152 42.4451 61.3374 42.5731 60.9637 42.3574Z" fill="#EE0033"/>
</mask>
<g mask="url(#mask4)">
<rect x="62.3115" y="36.418" width="4.1875" height="7.53125" fill="#92001F"/>
</g>
<path d="M48.1728 22.06H43.7858V20.9632C43.7858 18.5403 41.8216 16.5762 39.3987 16.5762C36.9758 16.5762 35.0117 18.5403 35.0117 20.9632V22.06H30.6246C30.0188 22.06 29.5278 22.551 29.5278 23.1568V26.4471C29.5278 27.0527 30.0188 27.5438 30.6246 27.5438H48.173C48.7787 27.5438 49.2697 27.0527 49.2697 26.4471V23.1568C49.2696 22.551 48.7786 22.06 48.1728 22.06ZM40.4954 22.0708C40.489 22.6727 39.9994 23.1568 39.3986 23.1568C39.3954 23.1568 39.3911 23.1568 39.3878 23.1568C38.7815 23.1504 38.2964 22.6555 38.3018 22.0492L38.3126 20.9525C38.319 20.3506 38.8085 19.8665 39.4093 19.8665C39.4125 19.8665 39.4168 19.8665 39.4201 19.8665C40.0264 19.8728 40.5116 20.3677 40.5061 20.974L40.4954 22.0708Z" fill="#828282"/>
<path d="M48.1728 22.06H43.7858V20.9632C43.7858 18.5403 41.8216 16.5762 39.3987 16.5762C36.9758 16.5762 35.0117 18.5403 35.0117 20.9632V22.06H30.6246C30.0188 22.06 29.5278 22.551 29.5278 23.1568V24.2535H49.2697V23.1568C49.2696 22.551 48.7786 22.06 48.1728 22.06ZM40.4954 22.0708C40.489 22.6727 39.9994 23.1568 39.3986 23.1568H39.3878C38.7815 23.1504 38.2964 22.6555 38.3018 22.0492L38.3126 20.9525C38.319 20.3506 38.8085 19.8665 39.4093 19.8665H39.4201C40.0264 19.8728 40.5116 20.3677 40.5061 20.974L40.4954 22.0708Z" fill="#828282"/>
</svg>
