<svg width="73" height="72" viewBox="0 0 73 72" fill="none" xmlns="http://www.w3.org/2000/svg">
<rect width="72" height="72" transform="translate(0.5)" fill="white"/>
<path d="M63.9158 57.1484L54.2947 47.5274C53.1069 46.3396 52.9882 44.5579 53.7008 43.1326C58.5707 33.9866 57.2642 22.4651 49.7812 14.6258C40.754 5.36108 25.5504 4.76719 15.8106 13.438C5.3581 22.8215 5.00177 39.0941 14.8604 48.8339C22.6997 56.6733 34.4588 57.9798 43.7235 53.1099C45.1488 52.3973 46.9305 52.516 48.1183 53.7038L57.8581 63.4436C59.7585 65.3441 63.0843 65.1065 64.6284 62.731C65.6974 60.9493 65.3411 58.6925 63.9158 57.1484ZM21.8683 45.033C13.0787 38.2626 13.0787 24.9595 21.8683 18.1891C27.926 13.5568 36.478 13.5568 42.5357 18.1891C51.3253 24.9595 51.3253 38.2626 42.5357 45.033C36.478 49.6654 27.8072 49.6654 21.8683 45.033Z" fill="#EE0033"/>
<path d="M59.8845 53.1002L53.708 59.2766L57.8652 63.4339C59.5281 65.0968 62.3788 65.0968 64.0417 63.4339C65.7046 61.771 65.7046 58.9203 64.0417 57.2574L59.8845 53.1002Z" fill="#92001F"/>
<path d="M19.4863 25.5426C19.4863 24.9903 19.934 24.5426 20.4863 24.5426H43.6467C44.199 24.5426 44.6467 24.9903 44.6467 25.5426V39.1388C44.6467 39.415 44.4228 39.6388 44.1467 39.6388H19.9863C19.7102 39.6388 19.4863 39.415 19.4863 39.1388V25.5426Z" fill="#DCDCDC"/>
<path d="M19.4863 25.0426C19.4863 24.7665 19.7102 24.5426 19.9863 24.5426H44.1467C44.4228 24.5426 44.6467 24.7665 44.6467 25.0426V28.736H19.4863V25.0426Z" fill="#828282"/>
<path d="M19.4863 34.6067H44.6467V36.7034H19.4863V34.6067Z" fill="#828282"/>
<g clip-path="url(#clip0_23755_36778)">
<path d="M39.3435 48.4123C39.3435 56.9778 32.3736 63.9247 23.7719 63.9247C15.1701 63.9247 8.2002 56.9778 8.2002 48.4123C8.2002 39.8469 15.1701 32.9 23.7719 32.9C32.3736 32.9 39.3435 39.8469 39.3435 48.4123Z" fill="#92001F" stroke="#92001F"/>
<path d="M22.3655 51.9514C21.6922 51.9514 21.0938 51.3552 21.0938 50.6844V43.0076C21.0938 42.3368 21.6922 41.7405 22.3655 41.7405C23.0388 41.7405 23.6372 42.3368 23.6372 43.0076V50.6844C23.6372 51.3552 23.0388 51.9514 22.3655 51.9514Z" fill="#C4C4C4"/>
<path d="M21.0938 50.6845C21.0938 50.0137 21.6922 49.4175 22.3655 49.4175H27.6021C28.2753 49.4175 28.8738 50.0137 28.8738 50.6845C28.8738 51.3553 28.2753 51.9516 27.6021 51.9516H22.3655C21.6922 51.9516 21.0938 51.3553 21.0938 50.6845Z" fill="#DCDCDC"/>
<path d="M23.6372 50.6845V49.4175H22.3655C21.6922 49.4175 21.0938 50.0137 21.0938 50.6845C21.0938 51.3553 21.6922 51.9516 22.3655 51.9516C23.0388 51.9516 23.6372 51.3553 23.6372 50.6845Z" fill="#DCDCDC"/>
<path d="M28.4997 51.5787L29.3974 50.6843L28.4997 49.7899C27.976 49.2682 27.2279 49.2682 26.7043 49.7899C26.1806 50.3116 26.1806 51.057 26.7043 51.5787C27.2279 52.1004 27.976 52.1004 28.4997 51.5787Z" fill="#DCDCDC"/>
</g>
<defs>
<clipPath id="clip0_23755_36778">
<rect width="32.1434" height="32.0246" fill="white" transform="translate(7.7002 32.4)"/>
</clipPath>
</defs>
</svg>
