<svg width="30" height="30" viewBox="0 0 30 30" fill="none" xmlns="http://www.w3.org/2000/svg">
<rect width="30" height="30" fill="white"/>
<g clip-path="url(#clip0)">
<path d="M26.7636 26.7144C26.0536 27.4244 24.8365 27.4244 24.1265 26.7144L18.4466 21.0851C17.7366 20.3751 17.7366 19.158 18.4466 18.448C19.1565 17.738 20.3737 17.738 21.0837 18.448L26.7636 24.128C27.4736 24.7872 27.4736 26.0044 26.7636 26.7144Z" fill="#EE0033"/>
<path d="M8.75993 18.8539C5.00711 15.9632 5.00711 10.2832 8.75993 7.39256C11.3463 5.41472 14.9977 5.41472 17.5841 7.39256C21.3369 10.2832 21.3369 15.9632 17.5841 18.8539C14.9977 20.8317 11.2956 20.8317 8.75993 18.8539Z" fill="white"/>
<path d="M26.7102 24.0305L22.6024 19.9227C22.0952 19.4156 22.0445 18.6549 22.3488 18.0463C24.4281 14.1413 23.8702 9.2221 20.6753 5.87499C16.821 1.91932 10.3297 1.66575 6.17113 5.36785C1.70832 9.37424 1.55618 16.322 5.76542 20.4805C9.11253 23.8277 14.1332 24.3855 18.0889 22.3062C18.6974 22.002 19.4581 22.0527 19.9653 22.5598L24.1238 26.7183C24.9352 27.5298 26.3552 27.4283 27.0145 26.4141C27.4709 25.6533 27.3188 24.6898 26.7102 24.0305ZM8.75753 18.8577C5.00471 15.967 5.00471 10.2871 8.75753 7.3964C11.3439 5.41857 14.9953 5.41857 17.5817 7.3964C21.3345 10.2871 21.3345 15.967 17.5817 18.8577C14.9953 20.8355 11.2932 20.8355 8.75753 18.8577Z" fill="#EE0033"/>
<path d="M24.9887 22.3022L22.3516 24.9394L24.1265 26.7143C24.8365 27.4243 26.0537 27.4243 26.7637 26.7143C27.4737 26.0043 27.4737 24.7872 26.7637 24.0772L24.9887 22.3022Z" fill="#92001F"/>
<g clip-path="url(#clip1)">
<path d="M16.4849 16.0347H11.5223C11.236 16.0347 11.0451 15.8438 11.0451 15.5575L10.0908 12.0264C9.99533 11.6447 10.2816 11.3584 10.6634 11.3584H17.4392C17.8209 11.3584 18.0118 11.6447 17.9164 12.0264L17.0575 15.5575C16.962 15.8438 16.7712 16.0347 16.4849 16.0347Z" fill="#828282"/>
<path d="M12.5719 17.7528C12.5719 18.23 12.1901 18.5163 11.8084 18.5163C11.3312 18.5163 11.0449 18.1345 11.0449 17.7528C11.0449 17.2756 11.4267 16.9893 11.8084 16.9893C12.2856 16.8939 12.5719 17.2756 12.5719 17.7528Z" fill="#828282"/>
<path d="M16.9625 17.7528C16.9625 18.23 16.5808 18.5163 16.199 18.5163C15.7218 18.5163 15.4355 18.1345 15.4355 17.7528C15.4355 17.2756 15.8173 16.9893 16.199 16.9893C16.6762 16.8939 16.9625 17.2756 16.9625 17.7528Z" fill="#828282"/>
<path d="M11.7127 13.5537L10.8538 9.92715C10.7584 9.73628 10.5675 9.54541 10.2812 9.54541H8.65881C8.37251 9.54541 8.18164 9.73628 8.18164 10.0226C8.18164 10.3089 8.37251 10.4998 8.65881 10.4998H9.42229C9.61316 10.4998 9.70859 10.5952 9.80402 10.7861L10.4721 13.4582C10.5675 13.7445 10.7584 13.9354 11.0447 13.9354H12.2853C11.999 13.9354 11.8081 13.7445 11.7127 13.5537Z" fill="#828282"/>
</g>
</g>
<defs>
<clipPath id="clip0">
<rect width="24.5455" height="24.5455" fill="white" transform="translate(2.72656 2.72705)"/>
</clipPath>
<clipPath id="clip1">
<rect width="9.7343" height="8.97083" fill="white" transform="translate(8.18164 9.54541)"/>
</clipPath>
</defs>
</svg>
