<svg width="36" height="36" viewBox="0 0 36 36" fill="none" xmlns="http://www.w3.org/2000/svg">
<rect width="36" height="36" fill="white"/>
<g clip-path="url(#clip0)">
<path d="M18.2764 13.6914H8.26172V14.7544H18.2764V13.6914Z" fill="#828282"/>
<path d="M18.2764 16.7695H8.26172V17.8325H18.2764V16.7695Z" fill="#828282"/>
<path d="M18.2764 19.8438H8.26172V20.9068H18.2764V19.8438Z" fill="#828282"/>
<path d="M14.5279 22.8672H8.26172V23.9302H14.5279V22.8672Z" fill="#828282"/>
</g>
<path d="M21.9091 26.8815V5.10156C21.9091 4.26156 21.2467 3.60156 20.4036 3.60156H5.10712C4.26401 3.60156 3.60156 4.26156 3.60156 5.10156V26.9415C3.60156 29.9415 6.07068 32.4015 9.14202 32.4015H27.4496C24.3783 32.4015 21.9091 29.9415 21.9091 26.8815Z" fill="#DCDCDC"/>
<path d="M12.8884 17.0939C12.5538 17.0939 12.3028 16.8002 12.3028 16.4086C12.3028 16.017 12.5538 15.7233 12.8884 15.7233C13.223 15.7233 13.474 16.017 13.474 16.4086H15.9838C15.9838 14.94 15.2309 13.6673 14.1433 13.0799L14.1433 12.3945H11.6335L11.6335 13.0799C10.5459 13.6673 9.79297 14.94 9.79297 16.4086C9.79297 18.3667 11.2152 20.0311 12.8884 20.0311C13.223 20.0311 13.474 20.3248 13.474 20.7164C13.474 21.108 13.223 21.4017 12.8884 21.4017C12.5538 21.4017 12.3028 21.108 12.3028 20.7164H9.79297C9.79297 22.185 10.5459 23.4577 11.6335 24.0452L11.6335 24.7305H14.1433L14.1433 24.0452C15.2309 23.4577 15.9838 22.185 15.9838 20.7164C15.9838 18.7583 14.5616 17.0939 12.8884 17.0939Z" fill="white"/>
<path d="M15.3963 28.6836C15.0349 28.6836 14.6736 28.9236 14.5531 29.2236C13.6498 31.1436 11.7829 32.4036 9.55469 32.4036H27.8623C29.6087 32.4036 31.2347 31.5636 32.1983 30.3036C32.6801 29.6436 32.2585 28.7436 31.4154 28.7436H15.3963V28.6836Z" fill="#828282"/>
<g clip-path="url(#clip1)">
<path d="M24.114 19.7272C28.552 19.7272 32.1498 16.1427 32.1498 11.721C32.1498 7.29932 28.552 3.71484 24.114 3.71484C19.6759 3.71484 16.0781 7.29932 16.0781 11.721C16.0781 16.1427 19.6759 19.7272 24.114 19.7272Z" fill="#EE0033"/>
<path d="M23.4093 13.4922C23.0727 13.4922 22.7734 13.194 22.7734 12.8586V9.02024C22.7734 8.68485 23.0727 8.38672 23.4093 8.38672C23.7459 8.38672 24.0452 8.68485 24.0452 9.02024V12.8586C24.0452 13.194 23.7459 13.4922 23.4093 13.4922Z" fill="#C4C4C4"/>
<path d="M22.7734 12.8562C22.7734 12.5208 23.0727 12.2227 23.4093 12.2227H26.0276C26.3642 12.2227 26.6635 12.5208 26.6635 12.8562C26.6635 13.1916 26.3642 13.4897 26.0276 13.4897H23.4093C23.0727 13.4897 22.7734 13.1916 22.7734 12.8562Z" fill="white"/>
<path d="M24.0452 12.8562V12.2227H23.4093C23.0727 12.2227 22.7734 12.5208 22.7734 12.8562C22.7734 13.1916 23.0727 13.4897 23.4093 13.4897C23.7459 13.4897 24.0452 13.1916 24.0452 12.8562Z" fill="white"/>
<path d="M26.4769 13.3049L26.9257 12.8577L26.4769 12.4105C26.2151 12.1496 25.841 12.1496 25.5792 12.4105C25.3174 12.6714 25.3174 13.044 25.5792 13.3049C25.841 13.5657 26.2151 13.5657 26.4769 13.3049Z" fill="white"/>
</g>
<defs>
<clipPath id="clip0">
<rect width="32.7273" height="32.7273" fill="white" transform="translate(1.63672 1.63672)"/>
</clipPath>
<clipPath id="clip1">
<rect width="16.0717" height="16.0123" fill="white" transform="translate(16.0781 3.71484)"/>
</clipPath>
</defs>
</svg>
