<svg width="32" height="32" viewBox="0 0 32 32" fill="none" xmlns="http://www.w3.org/2000/svg">
<path d="M23 31H9C8.20435 31 7.44129 30.6839 6.87868 30.1213C6.31607 29.5587 6 28.7956 6 28V4C6 3.20435 6.31607 2.44129 6.87868 1.87868C7.44129 1.31607 8.20435 1 9 1H23C23.7956 1 24.5587 1.31607 25.1213 1.87868C25.6839 2.44129 26 3.20435 26 4V28C26 28.7956 25.6839 29.5587 25.1213 30.1213C24.5587 30.6839 23.7956 31 23 31V31Z" stroke="#EE0033" stroke-width="2" stroke-linecap="round" stroke-linejoin="round"/>
<path d="M12 9C13.1046 9 14 8.10457 14 7C14 5.89543 13.1046 5 12 5C10.8954 5 10 5.89543 10 7C10 8.10457 10.8954 9 12 9Z" stroke="#FE9A00" stroke-width="2" stroke-linecap="round" stroke-linejoin="round"/>
</svg>
