<svg width="32" height="32" viewBox="0 0 32 32" fill="none" xmlns="http://www.w3.org/2000/svg">
<path d="M5 6H26" stroke="#EE0033" stroke-width="2" stroke-linecap="round" stroke-linejoin="round"/>
<path d="M5 25H26" stroke="#EE0033" stroke-width="2" stroke-linecap="round" stroke-linejoin="round"/>
<path d="M23.5 31H7.5C6.83696 31 6.20107 30.7366 5.73223 30.2678C5.26339 29.7989 5 29.163 5 28.5V3.5C5 2.83696 5.26339 2.20107 5.73223 1.73223C6.20107 1.26339 6.83696 1 7.5 1H23.5C24.163 1 24.7989 1.26339 25.2678 1.73223C25.7366 2.20107 26 2.83696 26 3.5V28.5C26 29.163 25.7366 29.7989 25.2678 30.2678C24.7989 30.7366 24.163 31 23.5 31V31Z" stroke="#EE0033" stroke-width="2" stroke-linecap="round" stroke-linejoin="round"/>
<path d="M13 9C12.6364 9 9.51515 9 8 9V14" stroke="#FE9A00" stroke-width="2" stroke-linecap="round" stroke-linejoin="round"/>
<path d="M18 22C18.3636 22 21.4848 22 23 22L23 17" stroke="#FE9A00" stroke-width="2" stroke-linecap="round" stroke-linejoin="round"/>
<path d="M8 9L12.5 13.5" stroke="#FE9A00" stroke-width="2" stroke-linecap="round" stroke-linejoin="round"/>
<path d="M23 22L18.5 17.5" stroke="#FE9A00" stroke-width="2" stroke-linecap="round" stroke-linejoin="round"/>
</svg>
