<svg width="72" height="72" viewBox="0 0 72 72" fill="none" xmlns="http://www.w3.org/2000/svg">
<path fill-rule="evenodd" clip-rule="evenodd" d="M34.8328 12.6017C36.4533 12.6017 37.7671 11.2922 37.7671 9.67692C37.7671 9.6512 37.7668 9.62554 37.7661 9.59998H40.3901C41.9351 9.59998 43.1491 10.81 43.1491 12.35V52.2798C43.1491 57.8897 47.6737 62.3997 53.302 62.3997H19.7531C14.1248 62.3997 9.6001 57.8897 9.6001 52.3898V12.35C9.6001 10.81 10.814 9.59998 12.3591 9.59998H14.2921C14.2914 9.62554 14.2911 9.6512 14.2911 9.67692C14.2911 11.2922 15.6048 12.6017 17.2254 12.6017C18.846 12.6017 20.1597 11.2922 20.1597 9.67692C20.1597 9.6512 20.1594 9.62554 20.1587 9.59998H23.0963C23.0957 9.62554 23.0954 9.6512 23.0954 9.67692C23.0954 11.2922 24.4091 12.6017 26.0297 12.6017C27.6503 12.6017 28.964 11.2922 28.964 9.67692C28.964 9.6512 28.9637 9.62554 28.963 9.59998H31.8994C31.8988 9.62554 31.8984 9.6512 31.8984 9.67692C31.8984 11.2922 33.2122 12.6017 34.8328 12.6017Z" fill="#DCDCDC"/>
<path fill-rule="evenodd" clip-rule="evenodd" d="M27.9473 16.6869C28.5151 16.8049 29.0379 16.9871 29.3963 17.2009C29.5743 17.307 29.637 17.5454 29.5364 17.7332C29.4358 17.921 29.21 17.9872 29.032 17.8811C28.7673 17.7232 28.3284 17.5624 27.8043 17.4535C27.2845 17.3455 26.7074 17.2941 26.1748 17.3373C25.6363 17.3811 25.179 17.5185 24.8657 17.7544C24.5716 17.9759 24.3834 18.2975 24.3834 18.7987C24.3834 19.3964 24.6247 19.7796 25.0182 20.0818C25.4365 20.4029 26.0101 20.6186 26.6495 20.8435C26.6918 20.8584 26.7346 20.8734 26.7776 20.8884C27.3546 21.0905 27.9798 21.3094 28.4643 21.6374C29.0103 22.0071 29.4218 22.5456 29.4218 23.3723C29.4218 24.1228 29.1861 24.7126 28.7628 25.136C28.3493 25.5495 27.7912 25.7699 27.1983 25.8665C26.0182 26.0587 24.571 25.7818 23.4011 25.3409C23.2085 25.2683 23.1082 25.0448 23.1769 24.8416C23.2457 24.6384 23.4576 24.5325 23.6501 24.6051C24.7556 25.0217 26.0714 25.2594 27.0854 25.0943C27.5896 25.0122 27.9864 24.836 28.2535 24.5689C28.5108 24.3115 28.6814 23.9367 28.6814 23.3723C28.6814 22.884 28.4631 22.565 28.0644 22.2951C27.6617 22.0224 27.1216 21.8328 26.5131 21.6191C26.4807 21.6077 26.4481 21.5963 26.4153 21.5847C25.795 21.3665 25.109 21.1177 24.5826 20.7136C24.0314 20.2904 23.643 19.6874 23.643 18.7987C23.643 18.0421 23.9491 17.4848 24.4355 17.1185C24.9027 16.7666 25.5119 16.6075 26.118 16.5583C26.7298 16.5087 27.3751 16.568 27.9473 16.6869Z" fill="#EE0033" stroke="#EE0033" stroke-width="0.5" stroke-linecap="round" stroke-linejoin="round"/>
<path fill-rule="evenodd" clip-rule="evenodd" d="M26.7223 15.0351C26.9267 15.0351 27.0925 15.21 27.0925 15.4258V27.1455C27.0925 27.3613 26.9267 27.5362 26.7223 27.5362C26.5178 27.5362 26.3521 27.3613 26.3521 27.1455V15.4258C26.3521 15.21 26.5178 15.0351 26.7223 15.0351Z" fill="#EE0033" stroke="#EE0033" stroke-width="0.5" stroke-linecap="round" stroke-linejoin="round"/>
<path d="M31.2375 55.5801C30.5753 55.5801 29.9132 56.0201 29.6925 56.5701C28.0371 60.0901 24.616 62.4 20.5327 62.4H54.0817C57.2821 62.4 60.2617 60.8601 62.0275 58.5501C62.9104 57.3401 62.1378 55.6901 60.5928 55.6901H31.2375V55.5801Z" fill="#EE0033"/>
<path d="M36.6375 30.2368H16.8833V32.3268H36.6375V30.2368Z" fill="#828282"/>
<path d="M36.6384 36.2863H16.8843V38.3762H36.6384V36.2863Z" fill="#828282"/>
<path d="M36.6384 42.3361H16.8843V44.4261H36.6384V42.3361Z" fill="#828282"/>
<path d="M29.2444 48.2758H16.8843V50.3657H29.2444V48.2758Z" fill="#828282"/>
</svg>
