<svg width="24" height="24" viewBox="0 0 24 24" fill="none" xmlns="http://www.w3.org/2000/svg">
<path fill-rule="evenodd" clip-rule="evenodd" d="M0.164376 6.33918C0.423133 6.01574 0.895102 5.9633 1.21855 6.22205L12 14.8472L22.7815 6.22205C23.105 5.9633 23.5769 6.01574 23.8357 6.33918C24.0944 6.66263 24.042 7.1346 23.7185 7.39336L12.4685 16.3934C12.1946 16.6125 11.8054 16.6125 11.5315 16.3934L0.281506 7.39336C-0.0419401 7.1346 -0.0943811 6.66263 0.164376 6.33918Z" fill="#FE9A00"/>
<path fill-rule="evenodd" clip-rule="evenodd" d="M2.25 4.5C1.74715 4.5 1.5 4.84245 1.5 5.07692V19.6731C1.5 19.9075 1.74715 20.25 2.25 20.25H21.75C22.2529 20.25 22.5 19.9075 22.5 19.6731V5.07692C22.5 4.84245 22.2529 4.5 21.75 4.5H2.25ZM0 5.07692C0 3.84647 1.09685 3 2.25 3H21.75C22.9031 3 24 3.84647 24 5.07692V19.6731C24 20.9035 22.9031 21.75 21.75 21.75H2.25C1.09685 21.75 0 20.9035 0 19.6731V5.07692Z" fill="#EE0033"/>
</svg>
