<svg width="14" height="14" viewBox="0 0 14 14" fill="none" xmlns="http://www.w3.org/2000/svg">
<path d="M11.2008 5.96295C11.2008 7.14124 10.821 8.36924 9.94017 9.57238C9.46635 10.2196 8.57578 11.2115 7.91133 11.8292C7.58453 12.1329 7.28421 12.2775 6.99019 12.2483C6.44102 12.1937 6.01947 11.6896 5.62172 11.307C5.07523 10.7814 4.36937 9.99307 4.06139 9.57238C3.18058 8.36924 2.80078 7.14124 2.80078 5.96295C2.80078 3.63728 4.68119 1.75195 7.00078 1.75195C9.32038 1.75195 11.2008 3.63728 11.2008 5.96295Z" fill="#EE0033"/>
<path d="M9.10234 5.95565C9.10234 7.11662 8.16214 8.05778 7.00234 8.05778C5.84255 8.05778 4.90234 7.11662 4.90234 5.95565C4.90234 4.79467 5.84255 3.85352 7.00234 3.85352C8.16214 3.85352 9.10234 4.79467 9.10234 5.95565Z" fill="#92001F"/>
</svg>
