<svg width="25" height="24" viewBox="0 0 25 24" fill="none" xmlns="http://www.w3.org/2000/svg">
<path d="M15.3543 16.5945L14.7693 16.0127C13.965 15.2127 12.6489 15.2127 11.8445 16.0127C11.6983 16.1581 11.6252 16.3399 11.6252 16.5217C11.6252 16.8854 11.3693 17.1763 11.0402 17.2126C9.87031 17.3581 8.66384 16.9945 7.7864 16.1217C6.90896 15.249 6.54337 14.049 6.6896 12.8854C6.72616 12.5581 7.0552 12.3036 7.38424 12.3036C7.56704 12.3036 7.74984 12.2309 7.89608 12.0854C8.70039 11.2854 8.70039 9.97636 7.89608 9.17636L7.31112 8.59455C6.47025 7.7582 5.04441 7.86729 4.38634 8.8491C3.6917 9.86727 3.36266 11.1036 3.43578 12.34C3.54546 14.3399 4.4229 16.3399 5.95841 17.9035C7.49392 19.4672 9.54127 20.3035 11.5521 20.449C12.7951 20.5217 14.0381 20.1944 15.0618 19.5035C16.0855 18.849 16.1952 17.4308 15.3543 16.5945Z" fill="#EE0033"/>
<path d="M12.2031 3.27344C17.0491 3.27344 20.9776 7.18077 20.9776 12.0007M12.2031 7.24038C14.8464 7.24038 16.9892 9.37165 16.9892 12.0007M12.2031 10.4139C13.0842 10.4139 13.7985 11.1244 13.7985 12.0007" stroke="#C4C4C4" stroke-linecap="round" stroke-linejoin="round"/>
</svg>
