<svg width="80" height="80" viewBox="0 0 80 80" fill="none" xmlns="http://www.w3.org/2000/svg">
<path d="M33.9763 71.9997C32.9408 71.9997 32.1013 71.1602 32.1013 70.1247V58.0747C32.1013 57.0392 32.9408 56.1997 33.9763 56.1997C35.0118 56.1997 35.8513 57.0392 35.8513 58.0747V70.1247C35.8513 71.1602 35.0118 71.9997 33.9763 71.9997Z" fill="#828282"/>
<path d="M33.975 59.95C48.3206 59.95 59.95 48.3206 59.95 33.975C59.95 19.6294 48.3206 8 33.975 8C19.6294 8 8 19.6294 8 33.975C8 48.3206 19.6294 59.95 33.975 59.95Z" fill="#EE0033"/>
<path d="M33.9763 59.95C48.3219 59.95 59.9513 48.3206 59.9513 33.975C59.9513 19.6294 48.3218 8 33.9763 8V59.95Z" fill="#92001F"/>
<path d="M33.9734 51.9184C43.8823 51.9184 51.915 43.8857 51.915 33.9768C51.915 24.0679 43.8823 16.0352 33.9734 16.0352C24.0645 16.0352 16.0317 24.0679 16.0317 33.9768C16.0317 43.8857 24.0645 51.9184 33.9734 51.9184Z" fill="white"/>
<path d="M33.9763 51.9184C43.8852 51.9184 51.9179 43.8857 51.9179 33.9768C51.9179 24.0679 43.8852 16.0352 33.9763 16.0352V51.9184Z" fill="#DCDCDC"/>
<path d="M33.9745 43.8829C39.4468 43.8829 43.8829 39.4468 43.8829 33.9745C43.8829 28.5023 39.4468 24.0662 33.9745 24.0662C28.5023 24.0662 24.0662 28.5023 24.0662 33.9745C24.0662 39.4468 28.5023 43.8829 33.9745 43.8829Z" fill="#EE0033"/>
<path d="M33.9763 43.8829C39.4486 43.8829 43.8847 39.4468 43.8847 33.9745C43.8847 28.5023 39.4486 24.0662 33.9763 24.0662V43.8829Z" fill="#92001F"/>
<path d="M62.0929 35.8513H33.9763C32.9408 35.8513 32.1013 35.0118 32.1013 33.9763C32.1013 32.9408 32.9408 32.1013 33.9763 32.1013H62.0931C63.1286 32.1013 63.9681 32.9408 63.9681 33.9763C63.9681 35.0118 63.1286 35.8513 62.0929 35.8513Z" fill="#828282"/>
<path d="M50.04 72H17.9067C16.8712 72 16.0317 71.1605 16.0317 70.125C16.0317 69.0895 16.8712 68.25 17.9067 68.25H50.04C51.0755 68.25 51.915 69.0895 51.915 70.125C51.915 71.1605 51.0755 72 50.04 72Z" fill="#DCDCDC"/>
<path d="M70.1226 43.8831H58.0726C57.5752 43.8831 57.0984 43.6854 56.7469 43.3338L48.7135 35.3004C47.9812 34.5682 47.9812 33.381 48.7135 32.6488L56.7469 24.6154C57.0984 24.2638 57.5754 24.0662 58.0726 24.0662H70.1226C70.881 24.0662 71.5646 24.523 71.8549 25.2237C72.145 25.9243 71.9846 26.7308 71.4484 27.267L64.7409 33.9745L71.4484 40.6822C71.9846 41.2184 72.145 42.0249 71.8549 42.7256C71.5646 43.4262 70.881 43.8831 70.1226 43.8831Z" fill="#DCDCDC"/>
<path d="M50.0429 68.25H33.9763V72H50.0429C51.0784 72 51.9179 71.1605 51.9179 70.125C51.9179 69.0895 51.0784 68.25 50.0429 68.25Z" fill="#C4C4C4"/>
<path d="M56.7506 43.3353C57.1021 43.6869 57.5791 43.8846 58.0763 43.8846H70.1264C70.8848 43.8846 71.5684 43.4277 71.8587 42.7271C72.1488 42.0264 71.9884 41.2199 71.4522 40.6837L64.7447 33.9761H48.168C48.168 34.4559 48.3511 34.9357 48.7172 35.3018L56.7506 43.3353Z" fill="#C4C4C4"/>
</svg>
