<svg width="35" height="35" viewBox="0 0 35 35" fill="none" xmlns="http://www.w3.org/2000/svg">
<path d="M17.7713 29.6758C24.2511 29.6758 29.5041 24.3456 29.5041 17.7705C29.5041 11.1954 24.2511 5.86523 17.7713 5.86523C11.2915 5.86523 6.03857 11.1954 6.03857 17.7705C6.03857 24.3456 11.2915 29.6758 17.7713 29.6758Z" fill="#C4C4C4"/>
<path d="M14.9297 21.0986C14.9297 21.986 15.5856 22.6515 16.46 22.6515H16.6058C17.4803 22.6515 18.1361 21.986 18.1361 21.0986V14.4435C18.1361 13.2604 18.5734 12.2251 19.375 11.4117C20.1766 10.5983 20.6139 9.48913 20.6139 8.37994V6.3834C19.6665 6.16156 18.7191 6.01367 17.6989 6.01367C12.5248 6.01367 8.0795 9.48913 6.54915 14.2217C6.33052 14.8872 6.54915 15.6266 6.98639 16.0703L8.22525 17.3274C8.51675 17.6232 8.88112 17.7711 9.31837 17.7711C11.1402 17.7711 12.8892 18.5105 14.2009 19.8416L14.4196 20.0634C14.7839 20.2852 14.9297 20.655 14.9297 21.0986Z" fill="#EE0033"/>
<path d="M22.435 18.4361H21.7791C21.1233 18.4361 20.686 17.9185 20.686 17.3269V16.6614C20.686 15.9959 21.1962 15.5522 21.7791 15.5522H22.435C23.018 15.5522 23.5281 16.0699 23.5281 16.6614V17.3269C23.5281 17.9185 23.018 18.4361 22.435 18.4361Z" fill="#EE0033"/>
<path d="M29.2849 19.6934H27.2444C26.5885 19.6934 25.9326 19.9891 25.4225 20.4328L24.9853 20.8765C24.6938 21.1723 24.548 21.542 24.548 21.9117V22.2815C24.548 23.0949 23.8922 23.6864 23.1634 23.6864C22.3618 23.6864 21.7788 24.352 21.7788 25.0914V28.9366C25.714 27.5316 28.629 23.9822 29.2849 19.6934Z" fill="#EE0033"/>
<path d="M21.1962 21.024C20.9047 21.024 20.686 20.8022 20.686 20.5064C20.686 20.2106 20.9047 19.9888 21.1962 19.9888C21.4877 19.9888 21.7063 20.2106 21.7063 20.5064C21.7792 20.8022 21.4877 21.024 21.1962 21.024Z" fill="#EE0033"/>
<path d="M24.9847 13.9254C24.6932 13.9254 24.4746 13.7035 24.4746 13.4078C24.4746 13.112 24.6932 12.8901 24.9847 12.8901C25.2762 12.8901 25.4948 13.112 25.4948 13.4078C25.5677 13.6296 25.2762 13.9254 24.9847 13.9254Z" fill="#EE0033"/>
<path d="M14.7824 29.3069V28.3456C14.7824 26.497 13.325 25.0181 11.5031 25.0181H8.44238C10.0456 27.0885 12.2318 28.5675 14.7824 29.3069Z" fill="#EE0033"/>
<path d="M22.9896 7.9375C22.9896 4.91073 20.5331 2.50712 17.4625 2.59615C14.9182 2.68517 12.6372 4.99975 12.4617 7.58141C12.374 9.45088 13.1636 11.0533 14.3918 12.1216C15.6201 13.1008 16.6729 14.3471 17.4625 15.7715L17.6379 16.0386C17.7257 16.1276 17.8134 16.1276 17.9011 16.0386L17.9889 15.8605C18.7784 14.4361 19.8312 13.1008 21.0595 12.1216C22.2 11.1423 22.9896 9.62893 22.9896 7.9375Z" fill="#92001F"/>
<path d="M19.3223 10.1943C19.3223 10.0438 19.2985 10.0359 19.1797 10.0359H18.2684V5.97099C18.2684 5.56688 17.9436 5.47972 17.5791 5.59065L16.2637 5.94722C16.129 5.98684 16.1211 6.05023 16.1211 6.14531V6.72375C16.1211 6.8426 16.1528 6.8743 16.2796 6.85053L17.1195 6.7079V10.0359H16.2796C16.1607 10.0359 16.1369 10.0438 16.1369 10.1943V10.8203C16.1369 10.9392 16.1607 10.9788 16.2796 10.9788H19.1797C19.2985 10.9788 19.3223 10.9392 19.3223 10.8203V10.1943Z" fill="white"/>
</svg>
