<svg width="80" height="80" viewBox="0 0 80 80" fill="none" xmlns="http://www.w3.org/2000/svg">
<path d="M55.625 66.9985H24.375C23.3395 66.9985 22.5 66.159 22.5 65.1235V48.3102C22.5 47.9665 22.5945 47.6295 22.7731 47.3359L32.6815 31.0471L35.8852 32.996L26.25 48.8357V63.2485H53.75V48.8357L44.1149 32.996L47.3186 31.0471L57.227 47.3359C57.4056 47.6295 57.5001 47.9666 57.5001 48.3102V65.1235C57.5 66.159 56.6605 66.9985 55.625 66.9985Z" fill="#828282"/>
<path d="M47.3186 31.0471L44.1149 32.996L53.75 48.8357V63.2485H40V66.9985H55.625C56.6605 66.9985 57.5 66.159 57.5 65.1235V48.3102C57.5 47.9665 57.4055 47.6295 57.2269 47.3359L47.3186 31.0471Z" fill="#828282"/>
<path d="M51.25 35.5H28.75C27.7145 35.5 26.875 34.6605 26.875 33.625C26.875 26.3879 32.7629 20.5 40 20.5C47.2371 20.5 53.125 26.3879 53.125 33.625C53.125 34.6605 52.2855 35.5 51.25 35.5Z" fill="#EE0033"/>
<path d="M51.25 35.5C52.2855 35.5 53.125 34.6605 53.125 33.625C53.125 26.3879 47.2371 20.5 40 20.5V35.5H51.25Z" fill="#92001F"/>
<path d="M40 24.25C35.5199 24.25 31.875 20.6051 31.875 16.125C31.875 11.6449 35.5199 8 40 8C44.4801 8 48.125 11.6449 48.125 16.125C48.125 20.6051 44.4801 24.25 40 24.25Z" fill="#DCDCDC"/>
<path d="M48.125 16.125C48.125 11.6449 44.4801 8 40 8V24.25C44.4801 24.25 48.125 20.6051 48.125 16.125Z" fill="#C4C4C4"/>
<path d="M32.375 72H9.875C8.8395 72 8 71.1605 8 70.125C8 62.8879 13.8879 57 21.125 57C28.3621 57 34.25 62.8879 34.25 70.125C34.25 71.1605 33.4105 72 32.375 72Z" fill="#EE0033"/>
<path d="M32.375 72C33.4105 72 34.25 71.1605 34.25 70.125C34.25 62.8879 28.3621 57 21.125 57V72H32.375Z" fill="#92001F"/>
<path d="M21.125 60.75C16.6449 60.75 13 57.1051 13 52.625C13 48.1449 16.6449 44.5 21.125 44.5C25.6051 44.5 29.25 48.1449 29.25 52.625C29.25 57.1051 25.6051 60.75 21.125 60.75Z" fill="#DCDCDC"/>
<path d="M29.25 52.625C29.25 48.1449 25.6051 44.5 21.125 44.5V60.75C25.6051 60.75 29.25 57.1051 29.25 52.625Z" fill="#C4C4C4"/>
<path d="M70.125 72H47.625C46.5895 72 45.75 71.1605 45.75 70.125C45.75 62.8879 51.6379 57 58.875 57C66.1121 57 72 62.8879 72 70.125C72 71.1605 71.1605 72 70.125 72Z" fill="#EE0033"/>
<path d="M70.125 72C71.1605 72 72 71.1605 72 70.125C72 62.8879 66.1121 57 58.875 57V72H70.125Z" fill="#92001F"/>
<path d="M58.875 60.75C54.3949 60.75 50.75 57.1051 50.75 52.625C50.75 48.1449 54.3949 44.5 58.875 44.5C63.3551 44.5 67 48.1449 67 52.625C67 57.1051 63.3551 60.75 58.875 60.75Z" fill="#DCDCDC"/>
<path d="M67 52.625C67 48.1449 63.3551 44.5 58.875 44.5V60.75C63.3551 60.75 67 57.1051 67 52.625Z" fill="#C4C4C4"/>
</svg>
