<svg width="32" height="32" viewBox="0 0 32 32" fill="none" xmlns="http://www.w3.org/2000/svg">
<circle cx="12.9225" cy="15.3854" r="10.4615" fill="#EE0033"/>
<circle cx="19.0768" cy="15.3854" r="10.4615" fill="#DCDCDC"/>
<path d="M24.1688 17.8235L23.7014 17.3601C23.0657 16.7301 22.0356 16.7301 21.3999 17.3601C21.2955 17.4636 21.2373 17.6028 21.2373 17.7493C21.2373 18.0213 21.0378 18.2612 20.7661 18.2951C19.857 18.4086 18.9063 18.1202 18.2088 17.4279C17.5103 16.7356 17.2193 15.7943 17.3339 14.8932C17.3681 14.6231 17.6101 14.4262 17.8845 14.4262C18.0314 14.4262 18.1728 14.3685 18.2772 14.265C18.9128 13.635 18.9128 12.614 18.2772 11.984L17.8097 11.5206C17.1482 10.865 16.0266 10.9437 15.5138 11.7184C14.9807 12.5242 14.7109 13.4839 14.7802 14.4591C14.8929 16.0525 15.5637 17.6138 16.7934 18.8317C18.0222 20.0496 19.5974 20.7144 21.205 20.827C22.1889 20.8957 23.1572 20.6292 23.9702 20.1C24.7518 19.5908 24.8304 18.4782 24.1688 17.8235Z" fill="#EE0033"/>
</svg>
