<svg width="33" height="32" viewBox="0 0 33 32" fill="none" xmlns="http://www.w3.org/2000/svg">
<path d="M23.288 19.1992H8.90682C8.20923 19.1992 7.56529 19.4847 7.13601 19.9605L3.75536 23.4813C3.43339 23.8619 3.21875 24.2901 3.21875 24.7659V27.1992H28.976V24.7659C28.976 24.2901 28.7614 23.8143 28.4394 23.4813L25.1125 19.9129C24.6832 19.4371 23.9856 19.1992 23.288 19.1992Z" fill="#828282"/>
<path d="M3.21875 18.5996C3.21875 18.0473 3.66647 17.5996 4.21875 17.5996H27.976C28.5283 17.5996 28.976 18.0473 28.976 18.5996V25.5996H3.21875V18.5996Z" fill="#C4C4C4"/>
<path d="M23.0752 19.3477H9.12329C8.34819 19.3477 7.75195 20.0158 7.75195 20.8055C7.75195 21.5951 8.40781 22.2633 9.18291 22.2633H23.1348C23.9099 22.2633 24.5657 21.5951 24.5657 20.8055C24.5657 20.0158 23.8503 19.3477 23.0752 19.3477Z" fill="#92001F"/>
<path d="M19.4242 21.5934C23.3951 19.7894 25.5416 15.252 24.3074 10.8786C22.9122 6.12255 18.029 3.44385 13.3605 4.8652C8.692 6.28655 6.06261 11.2613 7.4578 15.9627C8.20905 18.5867 10.0335 20.5548 12.341 21.5934H19.4242Z" fill="#EE0033"/>
<path d="M14.9994 12.4662C14.7802 12.592 14.5043 12.4944 14.3556 12.2384C14.2069 11.9825 14.2598 11.6962 14.4791 11.5704C14.6983 11.4446 14.9742 11.5422 15.1229 11.7981L16.7671 10.8546C16.2096 9.89489 15.2331 9.34615 14.2976 9.3711L14.0375 8.92321L12.3933 9.8667L12.6534 10.3146C12.1639 11.1073 12.1539 12.2222 12.7114 13.1819C13.4547 14.4616 15.0183 15.0147 16.1145 14.3857C16.3337 14.2599 16.6096 14.3575 16.7583 14.6134C16.9069 14.8693 16.854 15.1556 16.6348 15.2814C16.4156 15.4072 16.1396 15.3096 15.991 15.0537L14.3468 15.9972C14.9043 16.9569 15.8807 17.5057 16.8162 17.4807L17.0764 17.9286L18.7206 16.9851L18.4604 16.5372C18.9499 15.7445 18.96 14.6297 18.4025 13.6699C17.6591 12.3902 16.0956 11.8372 14.9994 12.4662Z" fill="white"/>
</svg>
