<svg width="30" height="31" viewBox="0 0 30 31" fill="none" xmlns="http://www.w3.org/2000/svg">
<path fill-rule="evenodd" clip-rule="evenodd" d="M10.9951 24.4441C11.5317 24.4441 11.9668 24.8791 11.9668 25.4158C11.9668 26.81 13.2045 28.0878 14.9789 28.0878C16.7533 28.0878 17.991 26.81 17.991 25.4158C17.991 24.8791 18.4261 24.4441 18.9627 24.4441C19.4993 24.4441 19.9344 24.8791 19.9344 25.4158C19.9344 28.0296 17.6742 30.0311 14.9789 30.0311C12.2837 30.0311 10.0234 28.0296 10.0234 25.4158C10.0234 24.8791 10.4585 24.4441 10.9951 24.4441Z" fill="#FE9A00"/>
<path fill-rule="evenodd" clip-rule="evenodd" d="M4.67817 11.2053C4.67817 5.10374 9.2121 0.03125 14.9778 0.03125C20.7434 0.03125 25.2774 5.10374 25.2774 11.2053V17.0353C25.2774 18.9936 26.0233 20.9239 26.8149 22.408C27.2061 23.1415 27.5976 23.746 27.8901 24.1654C28.0361 24.3748 28.1567 24.5369 28.2392 24.6449C28.2805 24.6988 28.3122 24.7392 28.3327 24.765L28.3549 24.7927L28.3591 24.7979C28.5981 25.088 28.6485 25.4904 28.4881 25.8304C28.3277 26.1705 27.9854 26.3875 27.6093 26.3875H2.34618C1.97011 26.3875 1.6278 26.1705 1.46737 25.8304C1.30705 25.4905 1.35712 25.0886 1.59588 24.7985L4.20791 24.4442C3.29355 24.5682 1.59588 24.7985 1.59588 24.7985L1.60061 24.7927L1.62281 24.765C1.64334 24.7392 1.67502 24.6988 1.71627 24.6449C1.79882 24.5369 1.91941 24.3748 2.0654 24.1654C2.35793 23.746 2.74946 23.1415 3.14066 22.408C3.9322 20.9239 4.67817 18.9936 4.67817 17.0353V11.2053ZM25.7476 24.4442H4.20791C4.41431 24.1125 4.63478 23.7361 4.85535 23.3225C5.71563 21.7095 6.62149 19.4495 6.62149 17.0353V11.2053C6.62149 6.01139 10.4438 1.97457 14.9778 1.97457C19.5117 1.97457 23.334 6.01139 23.334 11.2053V17.0353C23.334 19.4495 24.2399 21.7095 25.1002 23.3225C25.3207 23.7361 25.5412 24.1125 25.7476 24.4442Z" fill="#EE0033"/>
</svg>
