<svg width="20" height="20" viewBox="0 0 20 20" fill="none" xmlns="http://www.w3.org/2000/svg">
<rect x="5.5" y="5.5" width="5" height="5" stroke="#FE9A00"/>
<line x1="12" y1="5.5" x2="18" y2="5.5" stroke="#FE9A00"/>
<line x1="12" y1="7.5" x2="18" y2="7.5" stroke="#FE9A00"/>
<line x1="12" y1="9.5" x2="18" y2="9.5" stroke="#FE9A00"/>
<line x1="5" y1="12.5" x2="18" y2="12.5" stroke="#FE9A00"/>
<line x1="5" y1="14.5" x2="18" y2="14.5" stroke="#FE9A00"/>
<path d="M2.5 15.8182C2.5 16.2159 2.2168 16.5455 1.875 16.5455C1.5332 16.5455 1.25 16.2159 1.25 15.8182V4.90909H2.5V15.8182ZM18.75 15.8182C18.75 16.2159 18.4668 16.5455 18.125 16.5455H3.64258C3.71094 16.3182 3.75 16.0682 3.75 15.8182V3.45455H18.75V15.8182ZM20 2H2.5V3.45455H0V15.8182C0 17.0227 0.839844 18 1.875 18H18.125C19.1602 18 20 17.0227 20 15.8182V2Z" fill="#EE0033"/>
</svg>
