<svg width="32" height="32" viewBox="0 0 32 32" fill="none" xmlns="http://www.w3.org/2000/svg">
<circle cx="12.9225" cy="15.3854" r="10.4615" fill="#EE0033"/>
<circle cx="19.0768" cy="15.3854" r="10.4615" fill="#DCDCDC"/>
<path fill-rule="evenodd" clip-rule="evenodd" d="M20.6644 11.5147C21.2375 11.6338 21.7651 11.8177 22.1267 12.0334C22.3064 12.1406 22.3697 12.3811 22.2682 12.5707C22.1666 12.7602 21.9387 12.8271 21.759 12.7199C21.4919 12.5606 21.049 12.3983 20.52 12.2884C19.9954 12.1794 19.4131 12.1275 18.8755 12.1712C18.3321 12.2153 17.8705 12.354 17.5543 12.5921C17.2576 12.8156 17.0676 13.1402 17.0676 13.646C17.0676 14.2492 17.3111 14.636 17.7083 14.9409C18.1304 15.265 18.7093 15.4827 19.3546 15.7097C19.3973 15.7247 19.4404 15.7398 19.4838 15.755C20.0662 15.959 20.6972 16.1799 21.1861 16.5109C21.7371 16.884 22.1525 17.4275 22.1525 18.2618C22.1525 19.0192 21.9146 19.6145 21.4874 20.0418C21.0701 20.4592 20.5068 20.6816 19.9085 20.779C18.7174 20.973 17.2569 20.6936 16.0762 20.2486C15.8819 20.1754 15.7806 19.9498 15.85 19.7447C15.9194 19.5396 16.1332 19.4328 16.3275 19.506C17.4433 19.9265 18.7712 20.1663 19.7945 19.9997C20.3034 19.9168 20.7038 19.739 20.9734 19.4694C21.233 19.2097 21.4052 18.8314 21.4052 18.2618C21.4052 17.769 21.185 17.4471 20.7826 17.1746C20.3762 16.8995 19.8311 16.7081 19.2169 16.4924C19.1842 16.4809 19.1513 16.4694 19.1182 16.4578C18.4923 16.2376 17.7999 15.9865 17.2686 15.5785C16.7124 15.1514 16.3203 14.5429 16.3203 13.646C16.3203 12.8825 16.6293 12.32 17.1202 11.9503C17.5917 11.5952 18.2065 11.4346 18.8182 11.385C19.4356 11.3348 20.0869 11.3947 20.6644 11.5147Z" fill="#EE0033" stroke="#EE0033" stroke-width="0.5" stroke-linecap="round" stroke-linejoin="round"/>
<path fill-rule="evenodd" clip-rule="evenodd" d="M19.4283 9.84766C19.6347 9.84766 19.802 10.0242 19.802 10.2419V22.0698C19.802 22.2876 19.6347 22.4641 19.4283 22.4641C19.222 22.4641 19.0547 22.2876 19.0547 22.0698V10.2419C19.0547 10.0242 19.222 9.84766 19.4283 9.84766Z" fill="#EE0033" stroke="#EE0033" stroke-width="0.5" stroke-linecap="round" stroke-linejoin="round"/>
</svg>
