<svg width="70" height="70" viewBox="0 0 70 70" fill="none" xmlns="http://www.w3.org/2000/svg">
<path d="M50.6333 42H19.3667C17.85 42 16.45 42.6245 15.5167 43.6652L8.16667 51.367C7.46667 52.1997 7 53.1364 7 54.1771V59.5H63V54.1771C63 53.1364 62.5333 52.0956 61.8333 51.367L54.6 43.5612C53.6667 42.5204 52.15 42 50.6333 42Z" fill="#828282"/>
<path d="M7 39.5C7 38.9477 7.44772 38.5 8 38.5H62C62.5523 38.5 63 38.9477 63 39.5V56H7V39.5Z" fill="#C4C4C4"/>
<path d="M50.1664 42.3223H19.833C18.1479 42.3223 16.8516 43.7839 16.8516 45.5112C16.8516 47.2385 18.2775 48.7001 19.9627 48.7001H50.296C51.9812 48.7001 53.4071 47.2385 53.4071 45.5112C53.4071 43.7839 51.8516 42.3223 50.1664 42.3223Z" fill="#92001F"/>
<path d="M42.2298 47.2366C50.8631 43.2903 55.5298 33.3648 52.8464 23.798C49.8131 13.3941 39.1964 7.53439 29.0464 10.6436C18.8964 13.7528 13.1798 24.6351 16.2131 34.9194C17.8464 40.6595 21.8131 44.9645 26.8298 47.2366H42.2298Z" fill="#EE0033"/>
<path d="M32.608 27.2724C32.1313 27.5476 31.5314 27.3341 31.2082 26.7742C30.885 26.2144 31 25.5881 31.4766 25.3129C31.9533 25.0377 32.5532 25.2512 32.8764 25.8111L36.4512 23.7472C35.239 21.6478 33.1161 20.4474 31.0822 20.502L30.5165 19.5222L26.9418 21.5861L27.5075 22.5658C26.4432 24.3 26.4213 26.7387 27.6334 28.8381C29.2496 31.6374 32.649 32.8472 35.0322 31.4713C35.5088 31.1961 36.1087 31.4096 36.432 31.9695C36.7552 32.5294 36.6401 33.1556 36.1635 33.4308C35.6869 33.706 35.087 33.4925 34.7637 32.9326L31.189 34.9965C32.4011 37.096 34.5241 38.2963 36.558 38.2418L37.1236 39.2215L40.6984 37.1576L40.1327 36.1779C41.1969 34.4438 41.2188 32.0051 40.0067 29.9056C38.3906 27.1063 34.9911 25.8965 32.608 27.2724Z" fill="white"/>
</svg>
