<svg width="16" height="16" viewBox="0 0 16 16" fill="none" xmlns="http://www.w3.org/2000/svg">
<g clip-path="url(#clip0)">
<path fill-rule="evenodd" clip-rule="evenodd" d="M11.1222 11.5726C10.8382 11.3009 10.8382 10.8605 11.1222 10.5888L14.2443 7.60245L11.1222 4.61609C10.8382 4.34442 10.8382 3.90395 11.1222 3.63228C11.4062 3.36061 11.8667 3.36061 12.1507 3.63228L15.7871 7.11055C16.0711 7.38222 16.0711 7.82268 15.7871 8.09435L12.1507 11.5726C11.8667 11.8443 11.4062 11.8443 11.1222 11.5726Z" fill="#EE0033"/>
<path fill-rule="evenodd" clip-rule="evenodd" d="M-3.17901e-08 7.60244C-4.93473e-08 7.21825 0.325611 6.90679 0.727273 6.90679L15.2727 6.90679C15.6744 6.90679 16 7.21824 16 7.60244C16 7.98664 15.6744 8.2981 15.2727 8.2981L0.727273 8.2981C0.325611 8.2981 -1.42329e-08 7.98664 -3.17901e-08 7.60244Z" fill="#EE0033"/>
</g>
<defs>
<clipPath id="clip0">
<rect width="16" height="16" fill="white"/>
</clipPath>
</defs>
</svg>
