<svg width="32" height="32" viewBox="0 0 32 32" fill="none" xmlns="http://www.w3.org/2000/svg">
<circle cx="15.9992" cy="15.9992" r="12.8" fill="#EE0033"/>
<path d="M3.19922 15.9992C3.19922 23.0685 8.92997 28.7992 15.9992 28.7992V3.19922C8.92997 3.19922 3.19922 8.92997 3.19922 15.9992Z" fill="#92001F"/>
<path d="M10.8457 20.4457C10.6504 20.6409 10.6504 20.9575 10.8457 21.1528C11.0409 21.348 11.3575 21.348 11.5528 21.1528L10.8457 20.4457ZM21.1528 11.5528C21.348 11.3575 21.348 11.0409 21.1528 10.8457C20.9575 10.6504 20.6409 10.6504 20.4457 10.8457L21.1528 11.5528ZM11.5528 21.1528L21.1528 11.5528L20.4457 10.8457L10.8457 20.4457L11.5528 21.1528Z" fill="white"/>
<circle cx="12.7992" cy="11.1996" r="1.75" fill="white" stroke="white" stroke-width="0.3"/>
<path d="M19.1996 22.5492C20.1661 22.5492 20.9496 21.7657 20.9496 20.7992C20.9496 19.8327 20.1661 19.0492 19.1996 19.0492C18.2331 19.0492 17.4496 19.8327 17.4496 20.7992C17.4496 21.7657 18.2331 22.5492 19.1996 22.5492Z" fill="white" stroke="white" stroke-width="0.3"/>
</svg>
