<svg width="52" height="52" viewBox="0 0 52 52" fill="none" xmlns="http://www.w3.org/2000/svg">
<path d="M37.6126 31.1992H14.3859C13.2592 31.1992 12.2192 31.6631 11.5259 32.4363L6.06589 38.1576C5.54589 38.7761 5.19922 39.4719 5.19922 40.2451V44.1992H46.7992V40.2451C46.7992 39.4719 46.4525 38.6988 45.9325 38.1576L40.5592 32.3589C39.8659 31.5858 38.7392 31.1992 37.6126 31.1992Z" fill="#828282"/>
<path d="M5.19922 29.6016C5.19922 29.0493 5.64693 28.6016 6.19922 28.6016H45.7992C46.3515 28.6016 46.7992 29.0493 46.7992 29.6016V41.6016H5.19922V29.6016Z" fill="#C4C4C4"/>
<path d="M37.2677 31.4375H14.7343C13.4825 31.4375 12.5195 32.5233 12.5195 33.8064C12.5195 35.0896 13.5788 36.1754 14.8306 36.1754H37.364C38.6158 36.1754 39.6751 35.0896 39.6751 33.8064C39.6751 32.5233 38.5195 31.4375 37.2677 31.4375Z" fill="#92001F"/>
<path d="M31.3718 35.0913C37.7851 32.1598 41.2518 24.7865 39.2585 17.6797C37.0051 9.9511 29.1185 5.5982 21.5785 7.9079C14.0385 10.2176 9.79181 18.3016 12.0451 25.9413C13.2585 30.2054 16.2051 33.4034 19.9318 35.0913H31.3718Z" fill="#EE0033"/>
<path d="M24.2229 20.26C23.8689 20.4644 23.4232 20.3058 23.1831 19.8899C22.943 19.474 23.0285 19.0088 23.3825 18.8043C23.7366 18.5999 24.1822 18.7585 24.4224 19.1744L27.0779 17.6412C26.1775 16.0816 24.6004 15.1899 23.0895 15.2305L22.6693 14.5027L20.0138 16.0358L20.434 16.7636C19.6434 18.0519 19.6272 19.8635 20.5276 21.4231C21.7282 23.5025 24.2535 24.4013 26.0238 23.3791C26.3779 23.1747 26.8235 23.3333 27.0636 23.7492C27.3037 24.1651 27.2183 24.6303 26.8642 24.8348C26.5101 25.0392 26.0645 24.8806 25.8244 24.4647L23.1689 25.9979C24.0693 27.5575 25.6463 28.4492 27.1572 28.4086L27.5774 29.1364L30.233 27.6033L29.8128 26.8755C30.6033 25.5872 30.6196 23.7756 29.7192 22.216C28.5186 20.1366 25.9933 19.2378 24.2229 20.26Z" fill="white"/>
</svg>
