<svg width="22" height="22" viewBox="0 0 22 22" fill="none" xmlns="http://www.w3.org/2000/svg">
<path d="M13.381 15.2857H17.1906V2.90476C17.1906 1.85714 18.0477 1 19.0953 1H11.4763C9.85724 1 8.61914 2.2381 8.61914 3.85714V12.4286" stroke="#EE0033" stroke-width="1.2" stroke-miterlimit="10" stroke-linecap="round" stroke-linejoin="round"/>
<path d="M3.85714 15.2857C3.85714 13.6667 5.09524 12.4286 6.71429 12.4286H14.8095H15.2857C14.2381 12.4286 13.381 13.2857 13.381 14.3334V18.1429C13.381 19.7619 12.1429 21 10.5238 21H1C2.61905 21 3.85714 19.7619 3.85714 18.1429V15.2857Z" stroke="#EE0033" stroke-width="1.2" stroke-miterlimit="10" stroke-linecap="round" stroke-linejoin="round"/>
<path d="M14.3335 12.4286H15.2859C16.3335 12.4286 17.1906 13.2857 17.1906 14.3334V15.2857" stroke="#EE0033" stroke-width="1.2" stroke-miterlimit="10" stroke-linecap="round" stroke-linejoin="round"/>
<path d="M19.0952 1C20.1428 1 21 1.85714 21 2.90476V3.85714H17.1904" stroke="#EE0033" stroke-width="1.2" stroke-miterlimit="10" stroke-linecap="round" stroke-linejoin="round"/>
<path d="M10.5239 3.85718H15.2858" stroke="#FE9A00" stroke-width="1.2" stroke-miterlimit="10" stroke-linecap="round" stroke-linejoin="round"/>
<path d="M10.5239 6.71429H15.2858" stroke="#FE9A00" stroke-width="1.2" stroke-miterlimit="10" stroke-linecap="round" stroke-linejoin="round"/>
<path d="M10.5239 9.57141H15.2858" stroke="#FE9A00" stroke-width="1.2" stroke-miterlimit="10" stroke-linecap="round" stroke-linejoin="round"/>
<path d="M5.76172 15.2857H11.476" stroke="#FE9A00" stroke-width="1.2" stroke-miterlimit="10" stroke-linecap="round" stroke-linejoin="round"/>
<path d="M5.76172 18.1428H11.476" stroke="#FE9A00" stroke-width="1.2" stroke-miterlimit="10" stroke-linecap="round" stroke-linejoin="round"/>
</svg>
