<svg width="25" height="24" viewBox="0 0 25 24" fill="none" xmlns="http://www.w3.org/2000/svg">
<path fill-rule="evenodd" clip-rule="evenodd" d="M12.1138 10.5C11.2853 10.5 10.6138 11.1716 10.6138 12C10.6138 12.8284 11.2853 13.5 12.1138 13.5C12.9422 13.5 13.6138 12.8284 13.6138 12C13.6138 11.1716 12.9422 10.5 12.1138 10.5ZM9.11377 12C9.11377 10.3431 10.4569 9 12.1138 9C13.7706 9 15.1138 10.3431 15.1138 12C15.1138 13.6569 13.7706 15 12.1138 15C10.4569 15 9.11377 13.6569 9.11377 12Z" fill="#FE9A00"/>
<path fill-rule="evenodd" clip-rule="evenodd" d="M21.1138 10.5C20.2853 10.5 19.6138 11.1716 19.6138 12C19.6138 12.8284 20.2853 13.5 21.1138 13.5C21.9422 13.5 22.6138 12.8284 22.6138 12C22.6138 11.1716 21.9422 10.5 21.1138 10.5ZM18.1138 12C18.1138 10.3431 19.4569 9 21.1138 9C22.7706 9 24.1138 10.3431 24.1138 12C24.1138 13.6569 22.7706 15 21.1138 15C19.4569 15 18.1138 13.6569 18.1138 12Z" fill="#EE0033"/>
<path fill-rule="evenodd" clip-rule="evenodd" d="M3.11377 10.5C2.28534 10.5 1.61377 11.1716 1.61377 12C1.61377 12.8284 2.28534 13.5 3.11377 13.5C3.9422 13.5 4.61377 12.8284 4.61377 12C4.61377 11.1716 3.9422 10.5 3.11377 10.5ZM0.11377 12C0.11377 10.3431 1.45692 9 3.11377 9C4.77062 9 6.11377 10.3431 6.11377 12C6.11377 13.6569 4.77062 15 3.11377 15C1.45692 15 0.11377 13.6569 0.11377 12Z" fill="#EE0033"/>
</svg>
