<svg width="23" height="17" viewBox="0 0 23 17" fill="none" xmlns="http://www.w3.org/2000/svg">
<path d="M17.1359 5.39551H5.41406V12.1356H17.1359V5.39551Z" stroke="#FF9801" stroke-miterlimit="10" stroke-linecap="square"/>
<path d="M19.0127 8.73643C19.0127 7.99031 19.3091 7.27475 19.8367 6.74716C20.3642 6.21958 21.0798 5.92318 21.8259 5.92318V1H0.726562V5.92318C1.47268 5.92318 2.18824 6.21958 2.71583 6.74716C3.24341 7.27475 3.53981 7.99031 3.53981 8.73643C3.53981 9.48255 3.24341 10.1981 2.71583 10.7257C2.18824 11.2533 1.47268 11.5497 0.726562 11.5497V16.4729H21.8259V11.5497C21.0798 11.5497 20.3642 11.2533 19.8367 10.7257C19.3091 10.1981 19.0127 9.48255 19.0127 8.73643Z" stroke="#14AFB4" stroke-miterlimit="10" stroke-linecap="square"/>
</svg>
