<svg width="40" height="40" viewBox="0 0 40 40" fill="none" xmlns="http://www.w3.org/2000/svg">
<path fill-rule="evenodd" clip-rule="evenodd" d="M19.271 5.50262C20.2752 5.50262 21.0892 4.68859 21.0892 3.68444C21.0892 3.66848 21.089 3.65258 21.0886 3.63672H22.7149C23.6722 3.63672 24.4244 4.3889 24.4244 5.34623V30.1684C24.4244 33.6558 27.228 36.4594 30.7154 36.4594H9.92773C6.44032 36.4594 3.63672 33.6558 3.63672 30.2368V5.34623C3.63672 4.3889 4.3889 3.63672 5.34623 3.63672H6.54439C6.54398 3.65258 6.54377 3.66848 6.54377 3.68444C6.54377 4.68859 7.3578 5.50262 8.36195 5.50262C9.36611 5.50262 10.1801 4.68859 10.1801 3.68444C10.1801 3.66848 10.1799 3.65258 10.1795 3.63672H11.9989C11.9985 3.65258 11.9983 3.66848 11.9983 3.68444C11.9983 4.68859 12.8123 5.50262 13.8165 5.50262C14.8207 5.50262 15.6347 4.68859 15.6347 3.68444C15.6347 3.66848 15.6345 3.65258 15.6341 3.63672H17.4535C17.4531 3.65258 17.4529 3.66848 17.4529 3.68444C17.4529 4.68859 18.2669 5.50262 19.271 5.50262Z" fill="#DCDCDC"/>
<path d="M17.0431 32.2188C16.6328 32.2188 16.2225 32.4923 16.0857 32.8342C15.06 35.0224 12.9402 36.4583 10.4102 36.4583H31.1978C33.1809 36.4583 35.0272 35.501 36.1212 34.065C36.6683 33.3128 36.1896 32.2871 35.2323 32.2871H17.0431V32.2188Z" fill="#EE0033"/>
<path d="M20.3886 14.7812H8.14844V16.0805H20.3886V14.7812Z" fill="#828282"/>
<path d="M20.3886 18.543H8.14844V19.8422H20.3886V18.543Z" fill="#828282"/>
<path d="M20.3886 22.3047H8.14844V23.6039H20.3886V22.3047Z" fill="#828282"/>
<path d="M15.8071 25.9961H8.14844V27.2953H15.8071V25.9961Z" fill="#828282"/>
<g clip-path="url(#clip0_4405_134290)">
<path d="M19.3707 29.9034C19.3707 34.0919 15.9622 37.4905 11.7537 37.4905C7.54522 37.4905 4.13672 34.0919 4.13672 29.9034C4.13672 25.715 7.54522 22.3164 11.7537 22.3164C15.9622 22.3164 19.3707 25.715 19.3707 29.9034Z" fill="#92001F" stroke="#92001F"/>
<path d="M11.0446 31.6922C10.7046 31.6922 10.4023 31.391 10.4023 31.0522V27.1751C10.4023 26.8363 10.7046 26.5352 11.0446 26.5352C11.3847 26.5352 11.6869 26.8363 11.6869 27.1751V31.0522C11.6869 31.391 11.3847 31.6922 11.0446 31.6922Z" fill="#C4C4C4"/>
<path d="M10.4023 31.0501C10.4023 30.7113 10.7046 30.4102 11.0446 30.4102H13.6894C14.0294 30.4102 14.3317 30.7113 14.3317 31.0501C14.3317 31.3889 14.0294 31.69 13.6894 31.69H11.0446C10.7046 31.69 10.4023 31.3889 10.4023 31.0501Z" fill="#DCDCDC"/>
<path d="M11.6869 31.0501V30.4102H11.0446C10.7046 30.4102 10.4023 30.7113 10.4023 31.0501C10.4023 31.3889 10.7046 31.69 11.0446 31.69C11.3847 31.69 11.6869 31.3889 11.6869 31.0501Z" fill="#DCDCDC"/>
<path d="M14.1403 31.5034L14.5937 31.0517L14.1403 30.6C13.8758 30.3365 13.498 30.3365 13.2335 30.6C12.969 30.8635 12.969 31.2399 13.2335 31.5034C13.498 31.7669 13.8758 31.7669 14.1403 31.5034Z" fill="#DCDCDC"/>
</g>
<defs>
<clipPath id="clip0_4405_134290">
<rect width="16.234" height="16.1741" fill="white" transform="translate(3.63672 21.8164)"/>
</clipPath>
</defs>
</svg>
