<svg width="33" height="32" viewBox="0 0 33 32" fill="none" xmlns="http://www.w3.org/2000/svg">
<path d="M23.5 31H9.5C8.70435 31 7.94129 30.6839 7.37868 30.1213C6.81607 29.5587 6.5 28.7956 6.5 28V4C6.5 3.20435 6.81607 2.44129 7.37868 1.87868C7.94129 1.31607 8.70435 1 9.5 1H23.5C24.2956 1 25.0587 1.31607 25.6213 1.87868C26.1839 2.44129 26.5 3.20435 26.5 4V28C26.5 28.7956 26.1839 29.5587 25.6213 30.1213C25.0587 30.6839 24.2956 31 23.5 31V31Z" stroke="#727272" stroke-width="2" stroke-linecap="round" stroke-linejoin="round"/>
<path d="M12.5 9C13.6046 9 14.5 8.10457 14.5 7C14.5 5.89543 13.6046 5 12.5 5C11.3954 5 10.5 5.89543 10.5 7C10.5 8.10457 11.3954 9 12.5 9Z" stroke="#727272" stroke-width="2" stroke-linecap="round" stroke-linejoin="round"/>
</svg>
