<svg width="14" height="13" viewBox="0 0 14 13" fill="none" xmlns="http://www.w3.org/2000/svg">
<path d="M5.56515 3.80659V1.09533C5.56515 0.491442 5.06309 5.39002e-07 4.4469 5.39002e-07H1.11704C0.500845 -0.000594427 0 0.491442 0 1.09533V2.94746C0 3.04087 0.12081 12.2932 10.61 13H12.8836C13.4985 13 14 12.5092 14 11.9041V8.79597C14 8.19149 13.4985 7.70064 12.8836 7.70064H9.92342C9.65084 7.70064 9.40193 7.85414 9.28173 8.0957L7.7968 11.1122C4.45601 10.1287 2.86666 7.95231 2.11084 6.09304L5.19726 4.41703C5.42431 4.29506 5.56515 4.06124 5.56515 3.80659ZM10.3714 9.09762H12.574V11.6024L10.6598 11.6042C10.1517 11.5697 9.67148 11.5144 9.2192 11.4376L10.3714 9.09762ZM4.13911 3.39487L1.67434 4.73355C1.43758 3.75423 1.42544 3.04146 1.42544 2.94746V1.39698H4.13911V3.39487Z" fill="white"/>
<path d="M7.84961 5.8497C7.98864 5.98594 8.17076 6.05436 8.3535 6.05436C8.53623 6.05436 8.71835 5.98594 8.85738 5.8497L10.9676 3.7816V5.35587C10.9676 5.74141 11.2863 6.05436 11.6809 6.05436C12.0731 6.05436 12.3937 5.74141 12.3937 5.35587V2.09546C12.3937 2.09189 12.3906 2.08951 12.3906 2.08654C12.3894 1.99848 12.373 1.91162 12.3378 1.82892C12.2656 1.65757 12.1259 1.52132 11.9523 1.45052C11.8788 1.42137 11.8042 1.41066 11.7277 1.40649C11.7107 1.40471 11.6973 1.39697 11.6803 1.39697H8.3535C7.9595 1.39697 7.64078 1.70992 7.64078 2.09546C7.64078 2.481 7.95889 2.79395 8.3535 2.79395H9.95984L7.84961 4.86205C7.57096 5.13514 7.57096 5.5772 7.84961 5.8497Z" fill="white"/>
</svg>
