<svg width="14" height="12" viewBox="0 0 14 12" fill="none" xmlns="http://www.w3.org/2000/svg">
<path d="M11.8368 0H2.15104C0.972222 0 0 0.898076 0 2.02496V6.72127C0 7.83099 0.953993 8.74623 2.15104 8.74623H2.36979V9.63286C2.36979 10.1992 2.74045 10.7025 3.29948 10.9085C3.47569 10.9771 3.65191 11.0057 3.84635 11.0057C4.24132 11.0057 4.62413 10.8513 4.90365 10.5767L6.72656 8.74623H11.849C13.0278 8.74623 14 7.84815 14 6.72127V2.02496C13.9818 0.898076 13.0278 0 11.8368 0ZM12.6875 6.72127C12.6875 7.16745 12.3047 7.51066 11.849 7.51066H6.4349C6.25868 7.51066 6.08247 7.5793 5.96094 7.70515L3.94358 9.72439C3.90104 9.78159 3.84028 9.79303 3.76736 9.76443C3.69444 9.73583 3.66406 9.69579 3.66406 9.62714V8.12844C3.66406 7.79667 3.3724 7.51638 3.01389 7.51638H2.15104C1.67708 7.51638 1.3125 7.15601 1.3125 6.72699V2.02496C1.3125 1.57878 1.69531 1.23557 2.15104 1.23557H11.849C12.3229 1.23557 12.6875 1.59594 12.6875 2.02496V6.72127Z" fill="white"/>
<path d="M10.4941 2.56268H3.48806C3.13563 2.56268 2.83789 2.83725 2.83789 3.17475C2.83789 3.51224 3.12956 3.78681 3.48806 3.78681H10.482C10.8344 3.78681 11.1322 3.51224 11.1322 3.17475C11.1322 2.83725 10.8466 2.56268 10.4941 2.56268Z" fill="white"/>
<path d="M10.4941 4.95947H3.48806C3.13563 4.95947 2.83789 5.23404 2.83789 5.57154C2.83789 5.90903 3.12956 6.1836 3.48806 6.1836H10.482C10.8344 6.1836 11.1322 5.90903 11.1322 5.57154C11.1443 5.2226 10.8466 4.95947 10.4941 4.95947Z" fill="white"/>
</svg>
