<svg width="14" height="11" viewBox="0 0 14 11" fill="none" xmlns="http://www.w3.org/2000/svg">
<path d="M12.5038 6.39294H0.729794C0.328407 6.39294 0 6.73196 0 7.14631V7.16514C0 7.36604 0.079061 7.55438 0.212857 7.69878C0.352734 7.84317 0.535183 7.91851 0.729794 7.91851H12.5221L12.5525 7.92479H12.5585L10.8557 9.40641C10.7037 9.53825 10.6185 9.72031 10.6003 9.91493C10.582 10.1158 10.6428 10.3104 10.7766 10.4674C10.9226 10.6244 11.1172 10.706 11.3118 10.706C11.476 10.706 11.6402 10.6495 11.774 10.5302L13.4708 9.05484C13.9391 8.65304 14.1154 7.98757 13.9087 7.39743C13.6958 6.78846 13.1302 6.39294 12.5038 6.39294Z" fill="white"/>
<path d="M9.7669 4.34005H13.2699C13.6713 4.34005 13.9997 4.00103 13.9997 3.58668C13.9997 3.17233 13.6713 2.83331 13.2699 2.83331H9.7669C9.36552 2.83331 9.03711 3.17233 9.03711 3.58668C9.03711 4.00103 9.36552 4.34005 9.7669 4.34005Z" fill="white"/>
<path d="M1.48977 4.34002C1.50193 4.34002 1.52018 4.34002 1.53234 4.34002H7.65653C8.05792 4.34002 8.38632 4.001 8.38632 3.58665C8.38632 3.1723 8.05792 2.83328 7.65653 2.83328H1.53234L1.50193 2.82073H1.49585L3.1987 1.33911C3.50278 1.06915 3.53927 0.59202 3.2656 0.265562C3.13789 0.114888 2.96152 0.0207176 2.77299 0.00188342C2.59662 -0.0106727 2.42026 0.0395517 2.2743 0.152557L0.534954 1.65929C0.0605882 2.06108 -0.115779 2.72656 0.0970779 3.31669C0.303853 3.93194 0.863362 4.34002 1.48977 4.34002Z" fill="white"/>
</svg>
