<svg width="24" height="24" viewBox="0 0 24 24" fill="none" xmlns="http://www.w3.org/2000/svg">
<path d="M2.76854 19.2899C2.27864 18.8 2.27864 17.9602 2.76854 17.4703L6.65277 13.551C7.14268 13.0611 7.98251 13.0611 8.47242 13.551C8.96232 14.0409 8.96232 14.8808 8.47242 15.3707L4.55319 19.2899C4.09828 19.7798 3.25844 19.7798 2.76854 19.2899Z" fill="#DCDCDC"/>
<path d="M8.1891 6.8679C10.1837 4.27841 14.1029 4.27841 16.0975 6.8679C17.4623 8.65255 17.4623 11.1721 16.0975 12.9567C14.1029 15.5462 10.1837 15.5462 8.1891 12.9567C6.82437 11.1721 6.82437 8.61755 8.1891 6.8679Z" fill="white"/>
<path d="M4.61973 19.2537L7.45417 16.4193C7.8041 16.0694 8.329 16.0344 8.74891 16.2443C11.4434 17.6791 14.8377 17.2941 17.1473 15.0896C19.8767 12.4301 20.0517 7.95097 17.4972 5.08154C14.7327 2.00215 9.93868 1.89717 7.06924 4.80159C4.7597 7.11114 4.37478 10.5755 5.80949 13.3049C6.01945 13.7248 5.98446 14.2497 5.63453 14.5997L2.76509 17.4691C2.2052 18.029 2.27519 19.0088 2.97505 19.4637C3.49995 19.7786 4.16482 19.6737 4.61973 19.2537ZM8.18902 6.86619C10.1836 4.2767 14.1029 4.2767 16.0975 6.86619C17.4622 8.65084 17.4622 11.1703 16.0975 12.955C14.1029 15.5445 10.1836 15.5445 8.18902 12.955C6.82429 11.1703 6.82429 8.61584 8.18902 6.86619Z" fill="#DCDCDC"/>
<path d="M5.8125 18.0657L3.99286 16.2461L2.7681 17.4709C2.2782 17.9608 2.2782 18.8006 2.7681 19.2905C3.258 19.7804 4.09784 19.7804 4.58774 19.2905L5.8125 18.0657Z" fill="#828282"/>
<path d="M13.8471 7.49812C13.8471 6.75918 13.2106 6.16016 12.4255 6.16016C11.6404 6.16016 11.0039 6.75918 11.0039 7.49812V7.83262H13.8471V7.49812H13.8471Z" fill="#DCDCDC"/>
<path d="M15.7054 8.92515H14.6985C14.5284 8.92515 14.3906 8.79544 14.3906 8.63543C14.3906 8.47542 14.5284 8.3457 14.6985 8.3457H15.7055C15.8755 8.3457 16.0133 8.47542 16.0133 8.63543C16.0133 8.79544 15.8755 8.92515 15.7054 8.92515Z" fill="#DCDCDC"/>
<path d="M15.7054 10.1791H14.6985C14.5284 10.1791 14.3906 10.0493 14.3906 9.88933C14.3906 9.72932 14.5284 9.59961 14.6985 9.59961H15.7055C15.8755 9.59961 16.0133 9.72932 16.0133 9.88933C16.0133 10.0493 15.8755 10.1791 15.7054 10.1791Z" fill="#DCDCDC"/>
<path d="M10.1507 8.92515H9.14377C8.97376 8.92515 8.83594 8.79544 8.83594 8.63543C8.83594 8.47542 8.97376 8.3457 9.14377 8.3457H10.1507C10.3208 8.3457 10.4586 8.47542 10.4586 8.63543C10.4586 8.79544 10.3208 8.92515 10.1507 8.92515Z" fill="#DCDCDC"/>
<path d="M10.1507 10.1791H9.14377C8.97376 10.1791 8.83594 10.0493 8.83594 9.88933C8.83594 9.72932 8.97376 9.59961 9.14377 9.59961H10.1507C10.3208 9.59961 10.4586 9.72932 10.4586 9.88933C10.4586 10.0493 10.3208 10.1791 10.1507 10.1791Z" fill="#DCDCDC"/>
<path d="M13.5922 12.89L14.3892 12.1399C14.5891 11.9517 14.7015 11.6964 14.7015 11.4303V8.63483C14.7015 8.19147 14.3196 7.83203 13.8485 7.83203H11.0053C10.5342 7.83203 10.1523 8.19147 10.1523 8.63483V11.4303C10.1523 11.6964 10.2647 11.9517 10.4646 12.1399L11.2617 12.89C11.4616 13.0782 11.7328 13.184 12.0156 13.184H12.8383C13.121 13.184 13.3922 13.0782 13.5922 12.89Z" fill="#828282"/>
<path d="M14.3872 12.1406C14.5872 11.9524 14.6995 11.6972 14.6995 11.431V9.50781C14.0844 10.5166 12.9393 11.8921 11 12.6463L11.2597 12.8908C11.4596 13.0789 11.7309 13.1847 12.0136 13.1847H12.8363C13.1191 13.1847 13.3902 13.079 13.5902 12.8908L14.3872 12.1406Z" fill="#828282"/>
<path d="M12.1172 6.63281H12.7329V11.9847H12.1172V6.63281Z" fill="#DCDCDC"/>
<path d="M18.5414 11.2487V13.8316C18.5414 13.9502 18.4701 14.0586 18.3574 14.1116L16.8474 14.8207C16.7539 14.8646 16.644 14.8646 16.5505 14.8207L15.0406 14.1116C14.9278 14.0586 14.8565 13.9502 14.8565 13.8316V11.2487C14.8565 11.089 14.6582 11.0022 14.5285 11.1051L13.6202 11.8253C13.3929 12.0054 13.2617 12.2709 13.2617 12.5505V14.5736C13.2617 15.0088 13.4995 15.4135 13.8912 15.6447L15.4113 16.5422V20.1413C15.4113 20.3141 15.5601 20.4542 15.7437 20.4542H17.6542C17.8379 20.4542 17.9867 20.3141 17.9867 20.1413V16.5422L19.5067 15.6447C19.8985 15.4134 20.1362 15.0088 20.1362 14.5736V12.5505C20.1362 12.2708 20.0051 12.0054 19.7778 11.8252L18.8694 11.105C18.7397 11.0022 18.5414 11.089 18.5414 11.2487Z" fill="#EE0033"/>
<mask id="mask0" mask-type="alpha" maskUnits="userSpaceOnUse" x="13" y="11" width="8" height="10">
<path d="M18.5414 11.2487V13.8316C18.5414 13.9502 18.4701 14.0586 18.3574 14.1116L16.8474 14.8207C16.7539 14.8646 16.644 14.8646 16.5505 14.8207L15.0406 14.1116C14.9278 14.0586 14.8565 13.9502 14.8565 13.8316V11.2487C14.8565 11.089 14.6582 11.0022 14.5285 11.1051L13.6202 11.8253C13.3929 12.0054 13.2617 12.2709 13.2617 12.5505V14.5736C13.2617 15.0088 13.4995 15.4135 13.8912 15.6447L15.4113 16.5422V20.1413C15.4113 20.3141 15.5601 20.4542 15.7437 20.4542H17.6542C17.8379 20.4542 17.9867 20.3141 17.9867 20.1413V16.5422L19.5067 15.6447C19.8985 15.4134 20.1362 15.0088 20.1362 14.5736V12.5505C20.1362 12.2708 20.0051 12.0054 19.7778 11.8252L18.8694 11.105C18.7397 11.0022 18.5414 11.089 18.5414 11.2487Z" fill="#EE0033"/>
</mask>
<g mask="url(#mask0)">
<rect x="16.6992" y="9.67969" width="4.28781" height="13.1323" fill="#92001F"/>
</g>
<mask id="mask1" mask-type="alpha" maskUnits="userSpaceOnUse" x="13" y="11" width="8" height="10">
<path d="M18.5414 11.2487V13.8316C18.5414 13.9502 18.4701 14.0586 18.3574 14.1116L16.8474 14.8207C16.7539 14.8646 16.644 14.8646 16.5505 14.8207L15.0406 14.1116C14.9278 14.0586 14.8565 13.9502 14.8565 13.8316V11.2487C14.8565 11.089 14.6582 11.0022 14.5285 11.1051L13.6202 11.8253C13.3929 12.0054 13.2617 12.2709 13.2617 12.5505V14.5736C13.2617 15.0088 13.4995 15.4135 13.8912 15.6447L15.4113 16.5422V20.1413C15.4113 20.3141 15.5601 20.4542 15.7437 20.4542H17.6542C17.8379 20.4542 17.9867 20.3141 17.9867 20.1413V16.5422L19.5067 15.6447C19.8985 15.4134 20.1362 15.0088 20.1362 14.5736V12.5505C20.1362 12.2708 20.0051 12.0054 19.7778 11.8252L18.8694 11.105C18.7397 11.0022 18.5414 11.089 18.5414 11.2487Z" fill="#EE0033"/>
</mask>
<g mask="url(#mask1)">
<rect x="16.6992" y="9.67969" width="4.28781" height="13.1323" fill="#92001F"/>
</g>
</svg>
