<svg width="16" height="15" viewBox="0 0 16 15" fill="none" xmlns="http://www.w3.org/2000/svg">
<path fill-rule="evenodd" clip-rule="evenodd" d="M2.21751 0.137294C2.40057 -0.0457646 2.69737 -0.0457646 2.88042 0.137294L5.89382 3.15069C5.98172 3.23859 6.03111 3.35782 6.03111 3.48214C6.03111 3.60646 5.98172 3.72569 5.89382 3.8136L4.21634 5.49107L9.58022 10.8549L11.2577 9.17747C11.4407 8.99441 11.7375 8.99441 11.9206 9.17747L14.934 12.1909C15.0219 12.2788 15.0713 12.398 15.0713 12.5223C15.0713 12.6466 15.0219 12.7659 14.934 12.8538L12.9251 14.8627C12.8372 14.9506 12.7179 15 12.5936 15C5.65504 15 0.0712891 9.41625 0.0712891 2.47768C0.0712891 2.35336 0.120675 2.23413 0.208583 2.14622L2.21751 0.137294ZM2.54897 1.13166L1.01034 2.67029C1.11136 8.93737 6.13392 13.9599 12.401 14.0609L13.9396 12.5223L11.5891 10.1718L9.91168 11.8493C9.72862 12.0324 9.43182 12.0324 9.24876 11.8493L3.22198 5.82253C3.13407 5.73462 3.08468 5.61539 3.08468 5.49107C3.08468 5.36675 3.13407 5.24752 3.22198 5.15962L4.89945 3.48214L2.54897 1.13166Z" fill="#EE0033"/>
<path fill-rule="evenodd" clip-rule="evenodd" d="M7.60498 3.48212C7.60498 3.22323 7.81485 3.01337 8.07373 3.01337C10.2913 3.01337 12.0581 4.78015 12.0581 6.99774C12.0581 7.25663 11.8482 7.46649 11.5894 7.46649C11.3305 7.46649 11.1206 7.25663 11.1206 6.99774C11.1206 5.29792 9.77355 3.95087 8.07373 3.95087C7.81485 3.95087 7.60498 3.741 7.60498 3.48212Z" fill="#EE0033"/>
<path fill-rule="evenodd" clip-rule="evenodd" d="M7.60498 0.46875C7.60498 0.209866 7.81485 0 8.07373 0C11.9487 0 15.0715 3.12281 15.0715 6.99777C15.0715 7.25665 14.8616 7.46652 14.6027 7.46652C14.3439 7.46652 14.134 7.25665 14.134 6.99777C14.134 3.64058 11.4309 0.9375 8.07373 0.9375C7.81485 0.9375 7.60498 0.727633 7.60498 0.46875Z" fill="#EE0033"/>
</svg>
