<svg width="24" height="24" viewBox="0 0 24 24" fill="none" xmlns="http://www.w3.org/2000/svg">
<path d="M2.11523 23.4196L4.87388 20.2668" stroke="#14AFB4" stroke-miterlimit="10"/>
<path d="M21.8153 23.4196L19.0566 20.2668" stroke="#14AFB4" stroke-miterlimit="10"/>
<path d="M11.966 23.4199C17.1897 23.4199 21.4243 19.1853 21.4243 13.9616C21.4243 8.73801 17.1897 4.50342 11.966 4.50342C6.7424 4.50342 2.50781 8.73801 2.50781 13.9616C2.50781 19.1853 6.7424 23.4199 11.966 23.4199Z" stroke="#14AFB4" stroke-miterlimit="10" stroke-linecap="square"/>
<path d="M9.89738 2.3606C8.97851 1.51479 7.79255 1.01734 6.54526 0.954524C5.29796 0.891713 4.06802 1.26751 3.06884 2.01673C2.06965 2.76594 1.36426 3.8413 1.07504 5.05622C0.785823 6.27115 0.931028 7.54899 1.48547 8.66805" stroke="#14AFB4" stroke-miterlimit="10" stroke-linecap="square"/>
<path d="M22.4432 8.66737C22.8045 7.94075 22.9947 7.14108 22.9992 6.32961C23.0031 5.28923 22.7038 4.27027 22.1379 3.39728C21.5719 2.52429 20.7639 1.83511 19.8125 1.41399C18.8612 0.99288 17.8078 0.858077 16.781 1.02607C15.7543 1.19406 14.7988 1.65756 14.0312 2.35991" stroke="#14AFB4" stroke-miterlimit="10" stroke-linecap="square"/>
<path d="M7.23438 9.23242L11.9635 13.9615L15.5103 10.4147" stroke="#FF9801" stroke-miterlimit="10" stroke-linecap="square"/>
</svg>
