<svg width="81" height="80" viewBox="0 0 81 80" fill="none" xmlns="http://www.w3.org/2000/svg">
<path d="M57.8508 59.2617H57.0508V50.3242H60.2508V56.8242C60.2508 57.4707 59.9979 58.0907 59.5478 58.5478C59.0977 59.0049 58.4873 59.2617 57.8508 59.2617Z" fill="#EE0033"/>
<path d="M26.6504 14.5742H57.8504C58.4869 14.5742 59.0974 14.831 59.5475 15.2881C59.9975 15.7453 60.2504 16.3653 60.2504 17.0117V50.3242C60.2504 50.9707 59.9975 51.5907 59.5475 52.0478C59.0974 52.5049 58.4869 52.7617 57.8504 52.7617H26.6504V14.5742Z" fill="#EE0033"/>
<path d="M26.65 52.7617L20.25 56.0117V20.2617C20.25 18.7533 20.84 17.3067 21.8902 16.24C22.9404 15.1734 24.3648 14.5742 25.85 14.5742H26.65V52.7617Z" fill="#92001F"/>
<path d="M23.2957 52.7617H57.0506V59.2617H23.2957C22.447 59.2617 21.6331 58.9193 21.033 58.3098C20.4328 57.7003 20.0957 56.8737 20.0957 56.0117C20.0957 55.1498 20.4328 54.3231 21.033 53.7136C21.6331 53.1041 22.447 52.7617 23.2957 52.7617Z" fill="#DCDCDC"/>
<path d="M32.2512 61.6992L29.8512 60.0742L27.4512 61.6992V56.0117H32.2512V61.6992Z" fill="#EE0033"/>
<path d="M57.0504 56.8242H23.4504C23.2382 56.8242 23.0347 56.7386 22.8847 56.5862C22.7347 56.4339 22.6504 56.2272 22.6504 56.0117C22.6504 55.7962 22.7347 55.5896 22.8847 55.4372C23.0347 55.2848 23.2382 55.1992 23.4504 55.1992H57.0504V56.8242Z" fill="#828282"/>
<path d="M38.6504 49.5117H35.4504C35.2382 49.5117 35.0347 49.4261 34.8847 49.2737C34.7347 49.1214 34.6504 48.9147 34.6504 48.6992C34.6504 48.4837 34.7347 48.2771 34.8847 48.1247C35.0347 47.9723 35.2382 47.8867 35.4504 47.8867H38.6504C38.8626 47.8867 39.066 47.9723 39.2161 48.1247C39.3661 48.2771 39.4504 48.4837 39.4504 48.6992C39.4504 48.9147 39.3661 49.1214 39.2161 49.2737C39.066 49.4261 38.8626 49.5117 38.6504 49.5117Z" fill="#92001F"/>
<path d="M50.6508 49.5117H41.8508C41.6386 49.5117 41.4351 49.4261 41.2851 49.2737C41.1351 49.1214 41.0508 48.9147 41.0508 48.6992C41.0508 48.4837 41.1351 48.2771 41.2851 48.1247C41.4351 47.9723 41.6386 47.8867 41.8508 47.8867H50.6508C50.863 47.8867 51.0664 47.9723 51.2165 48.1247C51.3665 48.2771 51.4508 48.4837 51.4508 48.6992C51.4508 48.9147 51.3665 49.1214 51.2165 49.2737C51.0664 49.4261 50.863 49.5117 50.6508 49.5117Z" fill="#92001F"/>
<path d="M37.7958 38.2074L30.2734 23.2002C33.0691 23.2002 35.6078 24.831 36.7702 27.3735L39.1111 32.4936C39.8691 34.1515 42.2273 34.144 42.9747 32.4812L45.2942 27.3207C46.4502 24.749 49.0075 23.0947 51.827 23.0947L44.2912 38.2074C44.0118 38.8049 42.9595 40 40.9852 40C39.011 40 38.0363 38.8049 37.7958 38.2074Z" fill="white"/>
</svg>
