<svg width="40" height="40" viewBox="0 0 40 40" fill="none" xmlns="http://www.w3.org/2000/svg">
<path d="M31.7713 14.2049C31.7713 13.3867 31.4986 12.7049 31.0895 12.0913C30.8849 11.8185 30.7486 11.4094 30.8168 11.0685C30.8849 10.3185 30.7486 9.56854 30.4077 8.88672C29.9986 8.2049 29.4531 7.72763 28.7713 7.4549C28.3622 7.31854 28.0895 7.04581 27.9531 6.7049C27.6804 6.02308 27.2031 5.40945 26.5213 5.06854C25.8395 4.65945 25.0895 4.52308 24.3395 4.65945C23.9986 4.65945 23.5895 4.59126 23.3168 4.31854C22.7713 3.90945 22.0213 3.63672 21.2031 3.63672C20.3849 3.63672 19.7031 3.90945 19.0895 4.31854C18.8168 4.52308 18.4077 4.65945 18.0668 4.59126C17.3168 4.52308 16.5668 4.65945 15.8849 5.00036C15.2031 5.40945 14.7259 5.9549 14.4531 6.63672C14.3168 7.04581 14.044 7.31854 13.7031 7.4549C13.0213 7.72763 12.4077 8.2049 12.0668 8.88672C11.6577 9.56854 11.5213 10.3185 11.6577 11.0685C11.7259 11.4094 11.5895 11.8185 11.3849 12.0913C10.9759 12.6367 10.7031 13.3867 10.7031 14.2049C10.7031 15.0231 10.9759 15.7049 11.3849 16.3185C11.5895 16.5913 11.7259 17.0004 11.6577 17.3413C11.5895 18.0913 11.7259 18.8413 12.0668 19.5231C12.4759 20.2049 13.0213 20.6822 13.7031 20.9549C14.044 21.0913 14.3168 21.364 14.4531 21.7049C14.7259 22.3867 15.2031 23.0004 15.8849 23.3413C16.5668 23.7504 17.3168 23.8867 18.0668 23.7504C18.4077 23.6822 18.8168 23.8185 19.0895 24.0231C19.6349 24.4322 20.3849 24.7049 21.2031 24.7049C22.0213 24.7049 22.7031 24.4322 23.3168 24.0231C23.5895 23.8185 23.9986 23.6822 24.3395 23.7504C25.0895 23.8185 25.8395 23.6822 26.5213 23.3413C27.2031 22.9322 27.6804 22.3867 27.9531 21.7049C28.0895 21.364 28.3622 21.0913 28.7031 20.9549C29.3849 20.6822 29.9986 20.2049 30.3395 19.5231C30.7486 18.8413 30.8849 18.0913 30.7486 17.3413C30.6804 17.0004 30.8168 16.5913 31.0213 16.3185C31.4986 15.7049 31.7713 15.0231 31.7713 14.2049Z" fill="#DCDCDC"/>
<path d="M3.63672 26.1359L6.90945 25.4541C8.06854 25.2496 9.22763 24.8405 10.3185 24.4314C12.0231 23.6814 14.0004 23.6132 15.7731 24.1586L21.9776 26.1359C22.7276 26.3405 23.0685 27.1586 22.7958 27.9086C22.7276 28.1814 22.4549 28.3177 22.1822 28.3177L18.1594 28.2496L22.0458 29.1359C24.4322 29.6814 26.9549 29.7496 29.4094 29.2723L31.114 28.9314C31.864 28.795 32.4776 29.3405 32.4776 30.0905C32.4776 30.295 32.3413 30.5677 32.1367 30.6359L30.0913 31.4541C27.2276 32.6132 24.0913 33.0223 21.0231 32.6132L15.1594 31.8632C13.3185 31.5223 11.4094 32.4768 9.77308 33.295L3.63672 36.3632V26.1359Z" fill="#DCDCDC"/>
<path d="M5.27308 25.7969L3.63672 26.1378V36.3651L5.27308 35.5469V25.7969Z" fill="#92001F"/>
<path d="M36.3651 14.2049C36.3651 13.3867 36.0923 12.7049 35.6832 12.0913C35.4787 11.8185 35.3423 11.4094 35.4105 11.0685C35.4787 10.3185 35.3423 9.56854 35.0014 8.88672C34.5923 8.2049 34.0469 7.72763 33.3651 7.4549C32.956 7.31854 32.6832 7.04581 32.5469 6.7049C32.2742 6.02308 31.7969 5.40945 31.1151 5.06854C30.4332 4.65945 29.6832 4.52308 28.9332 4.65945C28.5923 4.65945 28.1832 4.59126 27.9105 4.31854C27.3651 3.90945 26.6151 3.63672 25.7969 3.63672C24.9787 3.63672 24.2969 3.90945 23.6832 4.31854C23.4105 4.52308 23.0014 4.65945 22.6605 4.59126C21.9105 4.52308 21.1605 4.65945 20.4787 5.00036C19.7969 5.40945 19.3196 5.9549 19.0469 6.63672C18.9105 7.04581 18.6378 7.31854 18.2969 7.4549C17.6151 7.72763 17.0014 8.2049 16.6605 8.88672C16.2514 9.56854 16.1151 10.3185 16.2514 11.0685C16.3196 11.4094 16.1832 11.8185 15.9787 12.0913C15.5696 12.6367 15.2969 13.3867 15.2969 14.2049C15.2969 15.0231 15.5696 15.7049 15.9787 16.3185C16.1832 16.5913 16.3196 17.0004 16.2514 17.3413C16.1832 18.0913 16.3196 18.8413 16.6605 19.5231C17.0696 20.2049 17.6151 20.6822 18.2969 20.9549C18.6378 21.0913 18.9105 21.364 19.0469 21.7049C19.3196 22.3867 19.7969 23.0004 20.4787 23.3413C21.1605 23.7504 21.9105 23.8867 22.6605 23.7504C23.0014 23.6822 23.4105 23.8185 23.6832 24.0231C24.2287 24.4322 24.9787 24.7049 25.7969 24.7049C26.6151 24.7049 27.2969 24.4322 27.9105 24.0231C28.1832 23.8185 28.5923 23.6822 28.9332 23.7504C29.6832 23.8185 30.4332 23.6822 31.1151 23.3413C31.7969 22.9322 32.2742 22.3867 32.5469 21.7049C32.6832 21.364 32.956 21.0913 33.2969 20.9549C33.9787 20.6822 34.5923 20.2049 34.9332 19.5231C35.3423 18.8413 35.4787 18.0913 35.3423 17.3413C35.2741 17.0004 35.4105 16.5913 35.6151 16.3185C36.0923 15.7049 36.3651 15.0231 36.3651 14.2049Z" fill="#EE0033"/>
<path fill-rule="evenodd" clip-rule="evenodd" d="M27.58 9.06837C28.2097 9.19922 28.7895 9.40132 29.1869 9.63836C29.3843 9.7561 29.4539 10.0204 29.3423 10.2287C29.2307 10.437 28.9802 10.5104 28.7828 10.3927C28.4893 10.2176 28.0026 10.0393 27.4213 9.91855C26.8449 9.79878 26.205 9.74177 25.6142 9.78972C25.0171 9.83819 24.5099 9.99061 24.1624 10.2523C23.8364 10.4978 23.6276 10.8546 23.6276 11.4103C23.6276 12.0732 23.8952 12.4982 24.3317 12.8333C24.7955 13.1894 25.4316 13.4286 26.1407 13.678C26.1877 13.6945 26.235 13.7111 26.2827 13.7278C26.9226 13.9519 27.616 14.1948 28.1533 14.5585C28.7588 14.9685 29.2152 15.5657 29.2152 16.4824C29.2152 17.3147 28.9538 17.9689 28.4844 18.4384C28.0258 18.897 27.4068 19.1414 26.7494 19.2485C25.4406 19.4616 23.8356 19.1546 22.5382 18.6656C22.3247 18.5852 22.2134 18.3373 22.2897 18.1119C22.3659 17.8866 22.6009 17.7691 22.8144 17.8496C24.0404 18.3117 25.4996 18.5753 26.6241 18.3921C27.1833 18.3011 27.6233 18.1057 27.9195 17.8094C28.2049 17.5241 28.3941 17.1083 28.3941 16.4824C28.3941 15.941 28.152 15.5871 27.7099 15.2878C27.2633 14.9854 26.6643 14.7751 25.9894 14.5381C25.9535 14.5255 25.9173 14.5128 25.881 14.5C25.1931 14.2581 24.4324 13.9822 23.8485 13.5339C23.2373 13.0646 22.8065 12.3959 22.8065 11.4103C22.8065 10.5713 23.146 9.95325 23.6854 9.54697C24.2035 9.1568 24.8792 8.98033 25.5513 8.92577C26.2298 8.8707 26.9454 8.93652 27.58 9.06837Z" fill="#FBFBFB" stroke="#FBFBFB" stroke-width="0.5" stroke-linecap="round" stroke-linejoin="round"/>
<path fill-rule="evenodd" clip-rule="evenodd" d="M26.2231 7.23828C26.4498 7.23828 26.6336 7.43225 26.6336 7.67153V20.6687C26.6336 20.908 26.4498 21.102 26.2231 21.102C25.9963 21.102 25.8125 20.908 25.8125 20.6687V7.67153C25.8125 7.43225 25.9963 7.23828 26.2231 7.23828Z" fill="#FBFBFB" stroke="#FBFBFB" stroke-width="0.5" stroke-linecap="round" stroke-linejoin="round"/>
</svg>
