<svg width="14" height="13" viewBox="0 0 14 13" fill="none" xmlns="http://www.w3.org/2000/svg">
<path d="M5.56515 3.80659V1.09533C5.56515 0.491442 5.06309 5.39002e-07 4.4469 5.39002e-07H1.11704C0.500845 -0.000594427 0 0.491442 0 1.09533V2.94746C0 3.04087 0.12081 12.2932 10.61 13H12.8836C13.4985 13 14 12.5092 14 11.9041V8.79597C14 8.19149 13.4985 7.70064 12.8836 7.70064H9.92342C9.65084 7.70064 9.40193 7.85414 9.28173 8.0957L7.7968 11.1122C4.45601 10.1287 2.86666 7.95231 2.11084 6.09304L5.19726 4.41703C5.42431 4.29506 5.56515 4.06124 5.56515 3.80659ZM10.3714 9.09762H12.574V11.6024L10.6598 11.6042C10.1517 11.5697 9.67148 11.5144 9.2192 11.4376L10.3714 9.09762ZM4.13911 3.39487L1.67434 4.73355C1.43758 3.75423 1.42544 3.04146 1.42544 2.94746V1.39698H4.13911V3.39487Z" fill="white"/>
<path d="M12.1847 1.60164C12.0456 1.46539 11.8635 1.39697 11.6808 1.39697C11.498 1.39697 11.3159 1.46539 11.1769 1.60164L9.06667 3.66974V2.09546C9.06667 1.70992 8.74795 1.39697 8.35334 1.39697C7.96117 1.39697 7.64062 1.70992 7.64062 2.09546V5.35587C7.64062 5.35944 7.64366 5.36182 7.64366 5.3648C7.64487 5.45285 7.66127 5.53972 7.69648 5.62242C7.76872 5.79377 7.90835 5.93002 8.08198 6.00082C8.15483 6.02997 8.2295 6.04068 8.30599 6.04544C8.32299 6.04663 8.33695 6.05496 8.35334 6.05496H11.6802C12.0742 6.05496 12.3929 5.74201 12.3929 5.35647C12.3929 4.97093 12.0754 4.65798 11.6808 4.65798H10.0744L12.1847 2.58928C12.4627 2.31619 12.4627 1.87414 12.1847 1.60164Z" fill="white"/>
</svg>
