<svg width="66" height="66" viewBox="0 0 66 66" fill="none" xmlns="http://www.w3.org/2000/svg">
<path d="M46.2377 56.1001H19.7624C17.533 56.1001 15.675 54.1751 15.675 51.8651V19.3327C15.675 17.0227 17.533 15.0977 19.7624 15.0977H46.2377C48.4671 15.0977 50.3251 17.0227 50.3251 19.3327V51.8651C50.3251 54.1751 48.56 56.1001 46.2377 56.1001Z" fill="#EE0033"/>
<path d="M40.1997 12.8837H37.8773C36.9484 12.8837 36.1123 12.3062 35.6478 11.4399C34.9976 10.4774 34.0686 9.8999 33.0467 9.8999C32.0249 9.8999 31.003 10.4774 30.5386 11.4399C30.0741 12.3062 29.238 12.8837 28.3091 12.8837H25.8938C24.3146 12.8837 23.2927 13.9424 23.2927 15.2899V16.0599C23.2927 16.7337 23.8501 17.3112 24.5004 17.3112H41.3144C41.9647 17.3112 42.5221 16.7337 42.5221 16.0599V15.2899C42.4292 13.9424 41.4073 12.8837 40.1997 12.8837Z" fill="#C4C4C4"/>
<path d="M35.5547 11.4399C34.9973 10.4774 34.0684 9.8999 33.0465 9.8999C32.0247 9.8999 31.0028 10.4774 30.5383 11.4399C30.0739 12.3062 29.2378 12.8837 28.3088 12.8837H37.8771C36.8552 12.8837 36.0192 12.3062 35.5547 11.4399Z" fill="#828282"/>
<path d="M37.8769 42.4324H28.1229C27.6584 42.4324 27.1939 42.1437 27.101 41.6624L25.336 34.4437C25.1502 33.7699 25.7076 33.0962 26.3579 33.0962H39.549C40.1993 33.0962 40.7567 33.7699 40.5709 34.4437L38.8988 41.5662C38.713 42.0474 38.3414 42.4324 37.8769 42.4324Z" fill="white"/>
<path d="M30.2598 45.8977C30.2598 46.764 29.6095 47.534 28.6805 47.534C27.8445 47.534 27.1013 46.8602 27.1013 45.8977C27.1013 45.0315 27.7516 44.2615 28.6805 44.2615C29.6095 44.2615 30.2598 45.0315 30.2598 45.8977Z" fill="white"/>
<path d="M38.8061 45.8977C38.8061 46.764 38.1559 47.534 37.2269 47.534C36.3909 47.534 35.6477 46.8602 35.6477 45.8977C35.6477 45.0315 36.298 44.2615 37.2269 44.2615C38.1559 44.2615 38.8061 45.0315 38.8061 45.8977Z" fill="white"/>
<path d="M28.4946 37.4275L26.8225 30.1125C26.7296 29.6313 26.358 29.3425 25.8936 29.3425H22.6422C22.0848 29.3425 21.6204 29.8238 21.6204 30.4013C21.6204 30.9788 22.0848 31.46 22.6422 31.46H24.1285C24.5001 31.46 24.7788 31.6525 24.8717 32.0375L26.1722 37.4275C26.2651 37.9088 26.7296 38.1975 27.1941 38.1975H29.6094C29.052 38.1975 28.6804 37.9088 28.4946 37.4275Z" fill="white"/>
</svg>
