<svg width="24" height="24" viewBox="0 0 24 24" fill="none" xmlns="http://www.w3.org/2000/svg">
<rect width="24" height="24" fill="white"/>
<g clip-path="url(#clip0)">
<path d="M12.1842 9.12891H5.50781V9.83758H12.1842V9.12891Z" fill="#828282"/>
<path d="M12.1842 11.1797H5.50781V11.8884H12.1842V11.1797Z" fill="#828282"/>
<path d="M12.1842 13.2324H5.50781V13.9411H12.1842V13.2324Z" fill="#828282"/>
<path d="M9.68524 15.2461H5.50781V15.9548H9.68524V15.2461Z" fill="#828282"/>
</g>
<path d="M14.6035 17.9204V3.40039C14.6035 2.84039 14.1619 2.40039 13.5998 2.40039H3.40214C2.84007 2.40039 2.39844 2.84039 2.39844 3.40039V17.9604C2.39844 19.9604 4.04451 21.6004 6.09207 21.6004H18.2971C16.2496 21.6004 14.6035 19.9604 14.6035 17.9204Z" fill="#DCDCDC"/>
<path d="M10.2616 19.1211C10.0207 19.1211 9.77979 19.2811 9.69949 19.4811C9.09727 20.7611 7.85267 21.6011 6.36719 21.6011H18.5722C19.7365 21.6011 20.8205 21.0411 21.4629 20.2011C21.7841 19.7611 21.5031 19.1611 20.941 19.1611H10.2616V19.1211Z" fill="#828282"/>
<path d="M19.2442 18.0202C18.8429 18.4215 18.1549 18.4215 17.7536 18.0202L14.5432 14.8384C14.1419 14.4371 14.1419 13.7492 14.5432 13.3479C14.9445 12.9465 15.6324 12.9465 16.0337 13.3479L19.2442 16.5583C19.6455 16.931 19.6455 17.6189 19.2442 18.0202Z" fill="#EE0033"/>
<path d="M9.07137 13.5784C6.95017 11.9445 6.95017 8.73407 9.07137 7.10017C10.5333 5.98224 12.5972 5.98224 14.0591 7.10017C16.1803 8.73407 16.1803 11.9445 14.0591 13.5784C12.5972 14.6964 10.5046 14.6964 9.07137 13.5784Z" fill="white"/>
<path d="M19.2163 16.5032L16.8945 14.1814C16.6078 13.8947 16.5792 13.4647 16.7512 13.1208C17.9264 10.9136 17.6111 8.13306 15.8052 6.24118C13.6267 4.00532 9.95757 3.86199 7.60704 5.95453C5.08453 8.21906 4.99854 12.1462 7.37772 14.4967C9.26961 16.3886 12.1074 16.7039 14.3433 15.5286C14.6873 15.3566 15.1173 15.3853 15.4039 15.6719L17.7544 18.0225C18.2131 18.4811 19.0157 18.4238 19.3883 17.8505C19.6463 17.4205 19.5603 16.8759 19.2163 16.5032ZM9.06895 13.5794C6.94775 11.9455 6.94775 8.73503 9.06895 7.10113C10.5309 5.9832 12.5947 5.9832 14.0566 7.10113C16.1779 8.73503 16.1779 11.9455 14.0566 13.5794C12.5947 14.6973 10.5022 14.6973 9.06895 13.5794Z" fill="#EE0033"/>
<path d="M18.2445 15.5273L16.7539 17.0179L17.7572 18.0212C18.1585 18.4225 18.8464 18.4225 19.2478 18.0212C19.6491 17.6199 19.6491 16.9319 19.2478 16.5306L18.2445 15.5273Z" fill="#92001F"/>
<path d="M12.0724 12.7003L13.557 11.8099C13.7472 11.6958 13.8648 11.4819 13.8648 11.25L13.8648 9.42806C13.8648 9.19619 13.7472 8.98228 13.557 8.86819L12.0724 7.97777C11.8874 7.86679 11.6611 7.86679 11.476 7.97777L9.99143 8.86819C9.80121 8.98228 9.68359 9.19619 9.68359 9.42806L9.68359 11.25C9.68359 11.4819 9.80121 11.6958 9.99143 11.8099L11.476 12.7003C11.6611 12.8113 11.8874 12.8113 12.0724 12.7003Z" fill="#89011E"/>
<path d="M11.9384 11.6344L12.7522 11.1463C12.8565 11.0837 12.9209 10.9665 12.9209 10.8394L12.9209 9.84063C12.9209 9.71353 12.8565 9.59627 12.7522 9.53373L11.9384 9.04563C11.8369 8.98479 11.7129 8.98479 11.6115 9.04563L10.7977 9.53373C10.6934 9.59627 10.6289 9.71353 10.6289 9.84063L10.6289 10.8394C10.6289 10.9665 10.6934 11.0837 10.7977 11.1463L11.6115 11.6344C11.7129 11.6952 11.8369 11.6952 11.9384 11.6344Z" fill="white"/>
<defs>
<clipPath id="clip0">
<rect width="21.8182" height="21.8182" fill="white" transform="translate(1.08984 1.0918)"/>
</clipPath>
</defs>
</svg>
