<svg width="20" height="20" viewBox="0 0 20 20" fill="none" xmlns="http://www.w3.org/2000/svg">
<circle cx="10" cy="10" r="7" fill="#F28705"/>
<path d="M13.1634 8.50026C13.2819 8.74969 13.5802 8.85584 13.8296 8.73734C14.079 8.61885 14.1852 8.3206 14.0667 8.07117L13.1634 8.50026ZM14.0667 11.9288C14.1852 11.6794 14.079 11.3811 13.8296 11.2627C13.5802 11.1442 13.2819 11.2503 13.1634 11.4997L14.0667 11.9288ZM12 8.35714C11.7239 8.35714 11.5 8.581 11.5 8.85714C11.5 9.13329 11.7239 9.35714 12 9.35714V8.35714ZM13.4286 8.85714V8.35714V8.85714ZM14 8.28571H14.5H14ZM14.5 6.57143C14.5 6.29529 14.2761 6.07143 14 6.07143C13.7239 6.07143 13.5 6.29529 13.5 6.57143H14.5ZM10 13.5C8.067 13.5 6.5 11.933 6.5 10H5.5C5.5 12.4853 7.51472 14.5 10 14.5V13.5ZM6.5 10C6.5 8.067 8.067 6.5 10 6.5V5.5C7.51472 5.5 5.5 7.51472 5.5 10H6.5ZM10 6.5C11.3954 6.5 12.6012 7.31663 13.1634 8.50026L14.0667 8.07117C13.345 6.55201 11.7959 5.5 10 5.5V6.5ZM13.1634 11.4997C12.6012 12.6834 11.3954 13.5 10 13.5V14.5C11.7959 14.5 13.345 13.448 14.0667 11.9288L13.1634 11.4997ZM12 9.35714H13.4286V8.35714H12V9.35714ZM14.5 8.28571V6.57143H13.5V8.28571H14.5ZM13.4286 9.35714C14.0203 9.35714 14.5 8.87745 14.5 8.28571H13.5C13.5 8.32516 13.468 8.35714 13.4286 8.35714V9.35714Z" fill="white"/>
</svg>
