<svg width="12" height="13" viewBox="0 0 12 13" fill="none" xmlns="http://www.w3.org/2000/svg">
<g clip-path="url(#clip0)">
<path fill-rule="evenodd" clip-rule="evenodd" d="M6 1.95508C4.27574 1.95508 2.5 3.22906 2.5 5.45508C2.5 5.94749 2.70639 6.57409 3.06901 7.27439C3.426 7.96384 3.90773 8.67463 4.39841 9.32172C4.88777 9.96707 5.37835 10.539 5.74717 10.9501C5.83997 11.0535 5.92491 11.1466 6 11.2279C6.07509 11.1466 6.16003 11.0535 6.25283 10.9501C6.62165 10.539 7.11223 9.96707 7.60159 9.32172C8.09227 8.67463 8.574 7.96384 8.93099 7.27439C9.29361 6.57409 9.5 5.94749 9.5 5.45508C9.5 3.22906 7.72426 1.95508 6 1.95508ZM6 11.9551C5.64426 12.3064 5.64419 12.3064 5.64411 12.3063L5.64052 12.3026L5.63108 12.293C5.62293 12.2847 5.61111 12.2725 5.59585 12.2568C5.56533 12.2253 5.52107 12.1792 5.46504 12.12C5.35299 12.0017 5.19368 11.8306 5.00283 11.6179C4.62165 11.193 4.11223 10.5993 3.60159 9.92594C3.09227 9.25428 2.574 8.4932 2.18099 7.7342C1.79361 6.98607 1.5 6.18767 1.5 5.45508C1.5 2.58109 3.82426 0.955078 6 0.955078C8.17574 0.955078 10.5 2.58109 10.5 5.45508C10.5 6.18767 10.2064 6.98607 9.81901 7.7342C9.426 8.4932 8.90773 9.25428 8.39841 9.92594C7.88777 10.5993 7.37835 11.193 6.99717 11.6179C6.80632 11.8306 6.64701 12.0017 6.53496 12.12C6.47893 12.1792 6.43467 12.2253 6.40415 12.2568C6.38889 12.2725 6.37707 12.2847 6.36892 12.293L6.35948 12.3026L6.35613 12.306C6.35605 12.3061 6.35574 12.3064 6 11.9551ZM6 11.9551L6.35574 12.3064L6 12.6666L5.64411 12.3063L6 11.9551Z" fill="#EE0033"/>
<path fill-rule="evenodd" clip-rule="evenodd" d="M6 4.45508C5.44772 4.45508 5 4.90279 5 5.45508C5 6.00736 5.44772 6.45508 6 6.45508C6.55228 6.45508 7 6.00736 7 5.45508C7 4.90279 6.55228 4.45508 6 4.45508ZM4 5.45508C4 4.35051 4.89543 3.45508 6 3.45508C7.10457 3.45508 8 4.35051 8 5.45508C8 6.55965 7.10457 7.45508 6 7.45508C4.89543 7.45508 4 6.55965 4 5.45508Z" fill="#EE0033"/>
</g>
<defs>
<clipPath id="clip0">
<rect width="12" height="12" fill="white" transform="translate(0 0.955078)"/>
</clipPath>
</defs>
</svg>
