<svg width="66" height="66" viewBox="0 0 66 66" fill="none" xmlns="http://www.w3.org/2000/svg">
<path d="M59.4822 56.0999H17.0359C15.3034 56.0999 13.8184 54.6244 13.8184 52.9028V29.7852C13.8184 28.0637 15.3034 26.5881 17.0359 26.5881H59.4822C61.2147 26.5881 62.6997 28.0637 62.6997 29.7852V52.9028C62.6997 54.6244 61.2147 56.0999 59.4822 56.0999Z" fill="#DCDCDC"/>
<path d="M26.4411 38.2875H20.501C20.1298 38.2875 19.7585 37.9186 19.7585 37.5497V33.7378C19.7585 33.3689 20.1298 33 20.501 33H26.4411C26.8123 33 27.1836 33.3689 27.1836 33.7378V37.5497C27.1836 38.0416 26.8123 38.2875 26.4411 38.2875Z" fill="white"/>
<path d="M47.1075 47.1412C47.1075 45.4197 48.0975 43.8211 49.4588 43.0833C48.7163 42.7144 47.9738 42.4685 47.1075 42.4685C44.5088 42.4685 42.2812 44.5589 42.2812 47.2642C42.2812 49.9694 44.385 52.0598 47.1075 52.0598C47.9738 52.0598 48.84 51.8139 49.4588 51.445C48.0975 50.4613 47.1075 48.9857 47.1075 47.1412Z" fill="white"/>
<path d="M51.9339 42.4685C51.0676 42.4685 50.2014 42.7144 49.5826 43.0833C51.0676 43.9441 51.9339 45.4197 51.9339 47.1412C51.9339 48.8627 50.9439 50.4613 49.5826 51.1991C50.3251 51.568 51.0676 51.8139 51.9339 51.8139C54.5326 51.8139 56.7602 49.7235 56.7602 47.0182C56.7602 44.313 54.5326 42.4685 51.9339 42.4685Z" fill="#C4C4C4"/>
<path d="M51.9337 47.1411C51.9337 45.4196 50.9437 43.821 49.5825 43.0833C48.0975 43.944 47.2312 45.4196 47.2312 47.1411C47.2312 48.8626 48.2212 50.4612 49.5825 51.199C50.9437 50.4612 51.9337 48.9856 51.9337 47.1411Z" fill="#DCDCDC"/>
<path d="M48.9639 39.4117H6.51756C4.78505 39.4117 3.30005 37.9361 3.30005 36.2146V13.097C3.30005 11.3755 4.78505 9.8999 6.51756 9.8999H48.9639C50.6964 9.8999 52.1814 11.3755 52.1814 13.097V36.2146C52.1814 37.9361 50.6964 39.4117 48.9639 39.4117Z" fill="#EE0033"/>
<path d="M52.1814 17.2778H3.30005V24.6558H52.1814V17.2778Z" fill="#92001F"/>
</svg>
