<svg width="40" height="40" viewBox="0 0 40 40" fill="none" xmlns="http://www.w3.org/2000/svg">
<rect width="40" height="40" fill="white"/>
<path d="M20.3032 15.2109H9.17578V16.3921H20.3032V15.2109Z" fill="#828282"/>
<path d="M20.3032 18.6289H9.17578V19.81H20.3032V18.6289Z" fill="#828282"/>
<path d="M20.3032 22.0508H9.17578V23.2319H20.3032V22.0508Z" fill="#828282"/>
<path d="M16.1382 25.4062H9.17578V26.5874H16.1382V25.4062Z" fill="#828282"/>
<path d="M24.3418 29.8666V5.66666C24.3418 4.73333 23.6057 4 22.6689 4H5.67284C4.73605 4 4 4.73333 4 5.66666V29.9333C4 33.2666 6.74346 36 10.1561 36H30.4978C27.0852 36 24.3418 33.2666 24.3418 29.8666Z" fill="#DCDCDC"/>
<path d="M14.3183 18.9911C13.9464 18.9911 13.6676 18.6648 13.6676 18.2296C13.6676 17.7945 13.9464 17.4681 14.3183 17.4681C14.6901 17.4681 14.969 17.7945 14.969 18.2296H17.7576C17.7576 16.5979 16.921 15.1837 15.7126 14.531L15.7126 13.7695H12.9239L12.9239 14.531C11.7155 15.1837 10.8789 16.5979 10.8789 18.2296C10.8789 20.4053 12.4592 22.2546 14.3183 22.2546C14.6901 22.2546 14.969 22.5809 14.969 23.0161C14.969 23.4512 14.6901 23.7775 14.3183 23.7775C13.9464 23.7775 13.6676 23.4512 13.6676 23.0161H10.8789C10.8789 24.6478 11.7155 26.062 12.9239 26.7147L12.9239 27.4762H15.7126L15.7126 26.7147C16.921 26.062 17.7576 24.6478 17.7576 23.0161C17.7576 20.8404 16.1774 18.9911 14.3183 18.9911Z" fill="white"/>
<path d="M17.1039 31.8672C16.7024 31.8672 16.3009 32.1339 16.1671 32.4672C15.1634 34.6005 13.0891 36.0005 10.6133 36.0005H30.955C32.8955 36.0005 34.7022 35.0672 35.7728 33.6672C36.3081 32.9339 35.8397 31.9339 34.903 31.9339H17.1039V31.8672Z" fill="#828282"/>
<g clip-path="url(#clip0_4405_134298)">
<path d="M26.792 21.9165C31.7232 21.9165 35.7207 17.9337 35.7207 13.0207C35.7207 8.10775 31.7232 4.125 26.792 4.125C21.8608 4.125 17.8633 8.10775 17.8633 13.0207C17.8633 17.9337 21.8608 21.9165 26.792 21.9165Z" fill="#EE0033"/>
<path d="M26.0112 14.9852C25.6372 14.9852 25.3047 14.6539 25.3047 14.2813V10.0164C25.3047 9.64375 25.6372 9.3125 26.0112 9.3125C26.3852 9.3125 26.7177 9.64375 26.7177 10.0164V14.2813C26.7177 14.6539 26.3852 14.9852 26.0112 14.9852Z" fill="#C4C4C4"/>
<path d="M25.3047 14.282C25.3047 13.9094 25.6372 13.5781 26.0112 13.5781H28.9204C29.2945 13.5781 29.6269 13.9094 29.6269 14.282C29.6269 14.6547 29.2945 14.9859 28.9204 14.9859H26.0112C25.6372 14.9859 25.3047 14.6547 25.3047 14.282Z" fill="white"/>
<path d="M26.7177 14.282V13.5781H26.0112C25.6372 13.5781 25.3047 13.9094 25.3047 14.282C25.3047 14.6547 25.6372 14.9859 26.0112 14.9859C26.3852 14.9859 26.7177 14.6547 26.7177 14.282Z" fill="white"/>
<path d="M29.4188 14.7815L29.9175 14.2846L29.4188 13.7877C29.1278 13.4979 28.7122 13.4979 28.4213 13.7877C28.1304 14.0775 28.1304 14.4916 28.4213 14.7815C28.7122 15.0713 29.1278 15.0713 29.4188 14.7815Z" fill="white"/>
</g>
<defs>
<clipPath id="clip0_4405_134298">
<rect width="17.8574" height="17.7915" fill="white" transform="translate(17.8633 4.125)"/>
</clipPath>
</defs>
</svg>
