<svg width="24" height="24" viewBox="0 0 24 24" fill="none" xmlns="http://www.w3.org/2000/svg">
<path fill-rule="evenodd" clip-rule="evenodd" d="M7.2561 0.571045C7.41523 0.571051 7.56785 0.634278 7.68037 0.746814L11.5372 4.60421C11.7715 4.83853 11.7714 5.21841 11.5371 5.45271L9.38983 7.60001L16.256 14.4652L18.4028 12.3184C18.6371 12.0841 19.017 12.0841 19.2513 12.3184L23.1087 16.1758C23.2213 16.2883 23.2845 16.4409 23.2845 16.6001C23.2845 16.7592 23.2212 16.9118 23.1087 17.0244L20.5371 19.5954C20.4246 19.7079 20.272 19.771 20.1129 19.771C20.0239 19.771 19.9308 19.7713 19.834 19.7715C19.0738 19.7733 18.0879 19.7757 17.0977 19.6736C15.99 19.5594 14.7976 19.3083 13.8627 18.7225C13.5819 18.5465 13.4969 18.1763 13.6729 17.8955C13.8489 17.6147 14.2191 17.5297 14.4999 17.7057C15.2002 18.1445 16.1722 18.3719 17.2208 18.48C18.1436 18.5751 19.0643 18.5731 19.8292 18.5715C19.8409 18.5714 19.8525 18.5714 19.864 18.5714L21.8359 16.6L18.8271 13.5912L16.6803 15.7379C16.446 15.9722 16.0662 15.9722 15.8318 15.7379L8.11704 8.02434C8.0045 7.91182 7.94128 7.75921 7.94127 7.60007C7.94127 7.44093 8.00448 7.28831 8.11701 7.17578L10.2644 5.02841L7.25604 2.01961L5.28602 3.98963C5.31492 6.27161 5.75059 7.96466 6.72961 9.90023C6.87918 10.1959 6.76071 10.5569 6.46502 10.7065C6.16932 10.856 5.80836 10.7376 5.6588 10.4419C4.55909 8.26769 4.08447 6.33738 4.08447 3.74265C4.08447 3.58352 4.14769 3.4309 4.26021 3.31838L6.83181 0.746781C6.94434 0.634253 7.09696 0.571039 7.2561 0.571045Z" fill="#EE0033"/>
<path fill-rule="evenodd" clip-rule="evenodd" d="M6.56279 13.4795C4.19281 13.4795 2.27129 15.4006 2.27129 17.771C2.27129 20.141 4.19286 22.0625 6.56279 22.0625C8.93272 22.0625 10.8543 20.141 10.8543 17.771C10.8543 15.4006 8.93277 13.4795 6.56279 13.4795ZM0.908691 17.771C0.908691 14.6479 3.44037 12.1169 6.56279 12.1169C9.68521 12.1169 12.2169 14.6479 12.2169 17.771C12.2169 20.8935 9.68526 23.4251 6.56279 23.4251C3.44032 23.4251 0.908691 20.8935 0.908691 17.771Z" fill="#FE9A00"/>
<path fill-rule="evenodd" clip-rule="evenodd" d="M6.6316 14.5435C7.00787 14.5435 7.3129 14.8485 7.3129 15.2248V17.95C7.3129 18.3262 7.00787 18.6313 6.6316 18.6313H3.9064C3.53013 18.6313 3.2251 18.3262 3.2251 17.95C3.2251 17.5737 3.53013 17.2687 3.9064 17.2687H5.9503V15.2248C5.9503 14.8485 6.25533 14.5435 6.6316 14.5435Z" fill="#FE9A00"/>
</svg>
