<svg width="80" height="80" viewBox="0 0 80 80" fill="none" xmlns="http://www.w3.org/2000/svg">
<g clip-path="url(#clip0)">
<path d="M53.1857 63.8565H26.9045C24.2002 63.8565 22.0078 61.6782 22.0078 58.9911V12.8829C22.0078 10.1959 24.2002 8.01758 26.9045 8.01758H60.9641C63.6684 8.01758 65.8608 10.1959 65.8608 12.8829V51.2624C65.8609 58.2179 60.186 63.8565 53.1857 63.8565Z" fill="#DCDCDC"/>
<path d="M39.8125 56.7051L24.0625 41.2676C23.4058 40.611 22.8572 39.3209 22.0078 39.0176V59.3196C22.0078 62.024 24.2002 64.2163 26.9045 64.2163H43.625C42 60.1426 41.625 59.7676 39.8125 56.7051Z" fill="#C4C4C4"/>
<path d="M53.1856 63.856C60.1859 63.856 65.8609 58.31 65.8609 51.4687V48.3584C65.8609 52.8746 61.3486 53.0874 59.7386 53.0874C57.0343 53.0874 54.842 55.2299 54.842 57.8728C54.842 59.4462 54.6242 63.856 50.0029 63.856H53.1856Z" fill="#C4C4C4"/>
<path d="M55.9723 33.0645H31.897C31.4116 33.0645 31.0181 32.6709 31.0181 32.1855C31.0181 31.7002 31.4116 31.3066 31.897 31.3066H55.9723C56.4577 31.3066 56.8512 31.7002 56.8512 32.1855C56.8512 32.6709 56.4577 33.0645 55.9723 33.0645Z" fill="#828282"/>
<path d="M55.9723 38.377H31.897C31.4116 38.377 31.0181 37.9834 31.0181 37.4981C31.0181 37.0127 31.4116 36.6191 31.897 36.6191H55.9723C56.4577 36.6191 56.8512 37.0127 56.8512 37.4981C56.8512 37.9834 56.4577 38.377 55.9723 38.377Z" fill="#828282"/>
<path d="M43.9346 43.6904H31.897C31.4116 43.6904 31.0181 43.2969 31.0181 42.8115C31.0181 42.3261 31.4116 41.9326 31.897 41.9326H43.9346C44.42 41.9326 44.8135 42.3261 44.8135 42.8115C44.8135 43.2969 44.42 43.6904 43.9346 43.6904Z" fill="#828282"/>
<path d="M39.6979 56.5742L32.4161 63.856L14.4499 45.8898C13.4529 44.8928 13.4529 43.2764 14.4499 42.2794L18.1213 38.608C19.1182 37.6111 20.7347 37.6111 21.7317 38.608L39.6979 56.5742Z" fill="#7CA0DB"/>
<path d="M22.8606 57.191C23.6585 56.3931 23.6585 55.0993 22.8606 54.3015L14.4497 45.8906L13.7923 46.548C12.5595 47.7809 12.5595 49.7796 13.7923 51.0123L19.971 57.191C20.769 57.989 22.0627 57.989 22.8606 57.191Z" fill="#92001F"/>
<path d="M39.6979 56.5742L32.4161 63.856L14.4499 45.8898C13.4529 44.8928 13.4529 43.2764 14.4499 42.2794L18.1213 38.608C19.1182 37.6111 20.7347 37.6111 21.7317 38.608L39.6979 56.5742Z" fill="#EE0033"/>
<path d="M12.2947 34.7151L10.5577 36.4461C9.99964 37.0023 9.99964 37.9041 10.5577 38.4603L14.4056 42.295L18.1636 38.5498L14.3158 34.7151C13.7576 34.1588 12.8528 34.1588 12.2947 34.7151Z" fill="#92001F"/>
<path d="M39.6978 56.5742C42.1859 59.0623 43.2652 62.2017 43.8227 65.3298C44.1006 66.8887 42.7305 68.2588 41.1716 67.9809C38.0435 67.4233 34.9041 66.3442 32.416 63.856L39.6978 56.5742Z" fill="#92001F"/>
<path d="M36.0782 20.6885H33.6313C33.146 20.6885 32.7524 20.295 32.7524 19.8096C32.7524 19.3242 33.146 18.9307 33.6313 18.9307H36.0782C36.5636 18.9307 36.9571 19.3242 36.9571 19.8096C36.9571 20.295 36.5636 20.6885 36.0782 20.6885Z" fill="#828282"/>
<path d="M55.9947 20.6885H53.5479C53.0625 20.6885 52.6689 20.295 52.6689 19.8096C52.6689 19.3242 53.0625 18.9307 53.5479 18.9307H55.9947C56.4801 18.9307 56.8736 19.3242 56.8736 19.8096C56.8736 20.295 56.4801 20.6885 55.9947 20.6885Z" fill="#828282"/>
<path d="M42.4406 23.7862L36.957 12.8464C38.995 12.8464 40.8456 14.0352 41.693 15.8886L43.3994 19.621C43.952 20.8296 45.6711 20.8241 46.2159 19.612L47.9068 15.8502C48.7494 13.9754 50.6136 12.7695 52.669 12.7695L47.1756 23.7862C46.9719 24.2218 46.2048 25.093 44.7656 25.093C43.3264 25.093 42.6159 24.2218 42.4406 23.7862Z" fill="#EE0033"/>
</g>
<defs>
<clipPath id="clip0">
<rect width="60" height="60" fill="white" transform="translate(8 8.01758)"/>
</clipPath>
</defs>
</svg>
