<svg width="80" height="80" viewBox="0 0 80 80" fill="none" xmlns="http://www.w3.org/2000/svg">
<path d="M51.6947 33.7891H28.3062C27.2733 33.7891 26.4358 34.6265 26.4358 35.6595V70.0519C26.4358 70.6797 26.7508 71.2655 27.2745 71.6119C27.7979 71.9582 28.4605 72.0187 29.0383 71.7732L40.0005 67.1109L50.9627 71.7732C51.1977 71.8731 51.4467 71.9223 51.6946 71.9223C52.0562 71.9223 52.4158 71.8174 52.7264 71.6119C53.25 71.2657 53.5652 70.6797 53.5652 70.0519V35.6595C53.5652 34.6265 52.7277 33.7891 51.6947 33.7891Z" fill="#DCDCDC"/>
<path d="M53.5647 70.0519V35.6595C53.5647 34.6265 52.7272 33.7891 51.6942 33.7891H40V67.1109L50.9622 71.7732C51.1972 71.8731 51.4462 71.9223 51.6941 71.9223C52.0557 71.9223 52.4153 71.8174 52.726 71.6119C53.2497 71.2655 53.5647 70.6797 53.5647 70.0519Z" fill="#C4C4C4"/>
<path d="M61.1324 26.9923C60.2942 26.191 59.4274 25.3625 59.1531 24.6977C58.8517 23.9673 58.8765 22.7206 58.9006 21.515C58.9432 19.3741 58.9915 16.9477 57.3425 15.2908C55.6905 13.6308 53.2603 13.6684 51.118 13.7029C49.9148 13.7217 48.6698 13.7415 47.9424 13.4384C47.2777 13.1613 46.4513 12.2937 45.6523 11.4547C44.1442 9.87154 42.4352 8.07715 40.0002 8.07715C37.5653 8.07715 35.8563 9.87154 34.3483 11.4546C33.5493 12.2937 32.7229 13.1613 32.0581 13.4383C31.3309 13.7414 30.0859 13.7217 28.8827 13.7026C26.7386 13.6698 24.3101 13.6307 22.6582 15.2905C21.009 16.9475 21.0574 19.374 21.1 21.5149C21.124 22.7206 21.1489 23.9673 20.8476 24.6974C20.5732 25.3624 19.7064 26.191 18.8682 26.9922C17.2896 28.5013 15.5005 30.2115 15.5005 32.6434C15.5005 35.0752 17.2896 36.7855 18.8682 38.2944C19.7064 39.0957 20.5732 39.9242 20.8475 40.5891C21.1489 41.3194 21.1241 42.5661 21.1 43.7718C21.0574 45.9126 21.0091 48.339 22.6581 49.9961C24.3101 51.656 26.7394 51.6184 28.8827 51.584C30.0861 51.5651 31.3309 51.5454 32.0581 51.8483C32.7229 52.1254 33.5493 52.993 34.3483 53.832C35.8563 55.4152 37.5653 57.2096 40.0002 57.2096C42.4352 57.2096 44.1442 55.4152 45.652 53.8321C46.4512 52.993 47.2776 52.1254 47.9423 51.8485C48.6697 51.5453 49.9139 51.5648 51.1179 51.584C53.2612 51.6185 55.6904 51.6558 57.3422 49.9962C58.9915 48.3392 58.9431 45.9126 58.9005 43.7718C58.8765 42.5661 58.8516 41.3194 59.1528 40.5893C59.4273 39.9243 60.2941 39.0957 61.1323 38.2945C62.7108 36.7854 64.5 35.0752 64.5 32.6434C64.5 30.2115 62.7109 28.5014 61.1324 26.9923Z" fill="#EE0033"/>
<path d="M45.6518 53.8326C46.451 52.9936 47.2773 52.1259 47.9421 51.849C48.6694 51.5458 49.9137 51.5653 51.1176 51.5845C53.2609 51.619 55.6901 51.6563 57.342 49.9967C58.9913 48.3397 58.9429 45.9131 58.9002 43.7723C58.8763 42.5666 58.8513 41.3199 59.1526 40.5898C59.4271 39.9248 60.2938 39.0962 61.1321 38.295C62.7106 36.7859 64.4997 35.0757 64.4997 32.6439C64.4997 30.212 62.7106 28.5017 61.1321 26.9927C60.2938 26.1914 59.4271 25.3629 59.1527 24.698C58.8513 23.9677 58.8762 22.721 58.9002 21.5154C58.9429 19.3745 58.9911 16.9481 57.3421 15.2911C55.6901 13.6312 53.2599 13.6688 51.1176 13.7032C49.9144 13.7221 48.6694 13.7419 47.9421 13.4388C47.2773 13.1617 46.451 12.294 45.6519 11.4551C44.1439 9.87154 42.435 8.07715 40 8.07715V57.2101C42.435 57.2101 44.1439 55.4157 45.6518 53.8326Z" fill="#92001F"/>
<path d="M40.0003 45.9617C47.4175 45.9617 53.4303 39.9322 53.4303 32.4945C53.4303 25.0568 47.4175 19.0273 40.0003 19.0273C32.5831 19.0273 26.5703 25.0568 26.5703 32.4945C26.5703 39.9322 32.5831 45.9617 40.0003 45.9617Z" fill="white"/>
<path d="M53.43 32.4945C53.43 25.0687 47.4054 19.0273 40 19.0273V45.9617C47.4054 45.9617 53.43 39.9202 53.43 32.4945Z" fill="#DCDCDC"/>
<path d="M38.8037 36.8708C38.3075 36.8708 37.8318 36.6738 37.4811 36.3229L35.1616 34.0034C34.4312 33.273 34.4312 32.0887 35.1616 31.3582C35.892 30.6278 37.0764 30.6278 37.8068 31.3582L38.8037 32.355L42.1939 28.9648C42.9243 28.2344 44.1086 28.2344 44.8391 28.9648C45.5696 29.6951 45.5696 30.8794 44.8391 31.61L40.1263 36.3229C39.7755 36.6738 39.2998 36.8708 38.8037 36.8708Z" fill="#EE0033"/>
<path d="M42.1936 28.9649L40 31.1584V36.437C40.0434 36.4008 40.0857 36.3631 40.1259 36.3229L44.8388 31.6099C45.5692 30.8795 45.5692 29.6952 44.8388 28.9647C44.1083 28.2344 42.9239 28.2344 42.1936 28.9649Z" fill="#92001F"/>
</svg>
