<svg width="18" height="17" viewBox="0 0 18 17" fill="none" xmlns="http://www.w3.org/2000/svg">
<path fill-rule="evenodd" clip-rule="evenodd" d="M0 0.0545654H8.25V7.72123H0V0.0545654ZM1.5 1.4485V6.32729H6.75V1.4485H1.5Z" fill="white"/>
<path fill-rule="evenodd" clip-rule="evenodd" d="M9.75015 0.0545654H18.0002V7.72123H9.75015V0.0545654ZM11.2502 1.4485V6.32729H16.5002V1.4485H11.2502Z" fill="white"/>
<path fill-rule="evenodd" clip-rule="evenodd" d="M0 9.11523H8.25V16.7819H0V9.11523ZM1.5 10.5092V15.388H6.75V10.5092H1.5Z" fill="white"/>
<path fill-rule="evenodd" clip-rule="evenodd" d="M11.9998 9.11523V11.2061H13.4998V9.11523H17.9998V13.994H16.4998V10.5092H14.9998V12.6001H10.4998V9.11523H11.9998Z" fill="white"/>
<path fill-rule="evenodd" clip-rule="evenodd" d="M11.9998 13.9939V15.3878H17.9998V16.7818H10.4998V13.9939H11.9998Z" fill="white"/>
<path fill-rule="evenodd" clip-rule="evenodd" d="M3.00015 2.84241H5.25015V4.93332H3.00015V2.84241Z" fill="white"/>
<path fill-rule="evenodd" clip-rule="evenodd" d="M12.7498 2.84241H14.9998V4.93332H12.7498V2.84241Z" fill="white"/>
<path fill-rule="evenodd" clip-rule="evenodd" d="M3.00015 11.9031H5.25015V13.994H3.00015V11.9031Z" fill="white"/>
</svg>
