<svg width="75" height="74" viewBox="0 0 75 74" fill="none" xmlns="http://www.w3.org/2000/svg">
<path opacity="0.8" d="M63.3981 14.2874V22.8914C63.3981 23.5299 62.9227 24.0494 62.3381 24.0494L54.5912 24.0463C54.0067 24.0463 53.5312 23.5267 53.5312 22.8882V12.2577C53.5312 11.6192 54.0067 11.0996 54.5912 11.0996L60.1557 11.0996C60.2269 11.0996 60.2938 11.1309 60.3433 11.1841L63.321 14.0824C63.369 14.1372 63.3981 14.2107 63.3981 14.2874Z" fill="white"/>
<rect x="56" y="18.3838" width="4.93343" height="5.66554" fill="#EE0033"/>
<path opacity="0.8" d="M63.3981 33.7122V42.3162C63.3981 42.9547 62.9227 43.4742 62.3381 43.4742L54.5912 43.4711C54.0067 43.4711 53.5312 42.9515 53.5312 42.313V31.6825C53.5312 31.044 54.0067 30.5244 54.5912 30.5244H60.1557C60.2269 30.5244 60.2938 30.5557 60.3433 30.6089L63.321 33.5072C63.369 33.562 63.3981 33.6355 63.3981 33.7122Z" fill="white"/>
<rect x="56" y="37.8076" width="4.93343" height="5.66554" fill="#EE0033"/>
<path opacity="0.8" d="M63.3981 53.138V61.7419C63.3981 62.3804 62.9227 62.9 62.3381 62.9L54.5912 62.8969C54.0067 62.8969 53.5312 62.3773 53.5312 61.7388V51.1083C53.5312 50.4698 54.0067 49.9502 54.5912 49.9502H60.1557C60.2269 49.9502 60.2938 49.9815 60.3433 50.0347L63.321 52.933C63.369 52.9878 63.3981 53.0613 63.3981 53.138Z" fill="white"/>
<rect x="56" y="57.2344" width="4.93343" height="5.66553" fill="#EE0033"/>
<path d="M39.423 62.8988H17.9638C14.7287 62.8988 12.1406 60.3089 12.1406 57.0714V16.927C12.1406 13.6896 14.7287 11.0996 17.9638 11.0996H39.423C42.6581 11.0996 45.2462 13.6896 45.2462 16.927V57.0714C45.1383 60.3089 42.5503 62.8988 39.423 62.8988Z" fill="#DCDCDC"/>
<path d="M39.423 11.0996H17.9638C14.7287 11.0996 12.1406 13.6896 12.1406 16.927V57.0714C12.1406 60.3089 14.7287 62.8988 17.9638 62.8988H39.423C42.6581 62.8988 45.2462 60.3089 45.2462 57.0714V16.927C45.1383 13.6896 42.5503 11.0996 39.423 11.0996ZM42.9816 57.0714C42.9816 59.1218 41.3641 60.7405 39.3152 60.7405H17.9638C15.9149 60.7405 14.2973 59.1218 14.2973 57.0714V16.927C14.2973 14.8766 15.9149 13.2579 17.9638 13.2579H20.6596C21.1988 13.2579 21.8458 13.4737 22.1693 14.0133C22.4929 14.445 23.1399 14.7687 23.679 14.7687H33.5999C34.1391 14.7687 34.7861 14.5529 35.1096 14.0133C35.541 13.4737 36.0801 13.2579 36.6193 13.2579H39.3152C41.3641 13.2579 42.9816 14.8766 42.9816 16.927V57.0714Z" fill="#EE0033"/>
<path d="M12.1407 29.0129H12.0329C11.8172 29.0129 11.6016 28.7971 11.6016 28.5812V25.3438C11.6016 25.1279 11.8172 24.9121 12.0329 24.9121H12.1407V29.0129Z" fill="#92001F"/>
<path d="M12.1407 33.7614H12.0329C11.8172 33.7614 11.6016 33.6535 11.6016 33.4377V30.2002C11.6016 29.9844 11.8172 29.7686 12.0329 29.7686H12.1407V33.7614Z" fill="#92001F"/>
<path d="M45.1367 25.0205H45.2446C45.4602 25.0205 45.6759 25.2363 45.6759 25.4522V28.6896C45.6759 28.9054 45.4602 29.1213 45.2446 29.1213H45.1367V25.0205Z" fill="#92001F"/>
<path d="M37.3718 45.3105H22.9219V46.6055H37.3718V45.3105Z" fill="white"/>
<path d="M37.3718 48.4395H22.9219V49.7344H37.3718V48.4395Z" fill="white"/>
<path d="M30.1469 51.5693H22.9219V52.8643H30.1469V51.5693Z" fill="white"/>
<path d="M21.4136 45.3105H20.0117V46.6055H21.4136V45.3105Z" fill="white"/>
<path d="M21.4136 48.4395H20.0117V49.7344H21.4136V48.4395Z" fill="white"/>
<path d="M21.4136 51.5693H20.0117V52.8643H21.4136V51.5693Z" fill="white"/>
<path d="M53.5297 15.9563L53.5297 18.294L50.1421 18.294L50.1421 56.5149L53.5297 56.5149L53.5297 58.8525L48.991 58.8525C48.3003 58.8525 47.8398 58.385 47.8398 57.6837L47.8398 17.1251C47.8398 16.4238 48.3003 15.9563 48.991 15.9563L53.5297 15.9563Z" fill="#92001F"/>
<path d="M45.3086 36.1901L45.3086 38.6182L53.531 38.6182L53.531 36.1901L45.3086 36.1901Z" fill="#92001F"/>
<rect x="19" y="22.2002" width="18.5" height="18.5" fill="#C4C4C4"/>
</svg>
