<svg width="56" height="56" viewBox="0 0 56 56" fill="none" xmlns="http://www.w3.org/2000/svg">
<path d="M49.3233 44.4491L41.8402 36.966C40.9164 36.0422 40.824 34.6565 41.3783 33.5479C45.166 26.4344 44.1498 17.4732 38.3297 11.3759C31.3086 4.17005 19.4835 3.70813 11.9081 10.4521C3.77841 17.7504 3.50126 30.4068 11.1691 37.9823C17.2663 44.0795 26.4123 45.0958 33.6181 41.308C34.7267 40.7537 36.1125 40.8461 37.0363 41.77L44.6117 49.3454C46.0899 50.8235 48.6766 50.6387 49.8776 48.7911C50.709 47.4053 50.4319 45.6501 49.3233 44.4491ZM16.6197 35.026C9.78331 29.7602 9.78331 19.4133 16.6197 14.1474C21.3312 10.5445 27.9828 10.5445 32.6943 14.1474C39.5307 19.4133 39.5307 29.7602 32.6943 35.026C27.9828 38.6289 21.2388 38.6289 16.6197 35.026Z" fill="#EE0033"/>
<path d="M46.1887 41.2998L41.3848 46.1037L44.6182 49.3371C45.9115 50.6305 48.1287 50.6305 49.4221 49.3371C50.7155 48.0438 50.7155 45.8266 49.4221 44.5332L46.1887 41.2998Z" fill="#92001F"/>
<path d="M14.7656 21.8889C14.7656 20.3425 16.0192 19.0889 17.5656 19.0889H31.5348C33.0812 19.0889 34.3348 20.3425 34.3348 21.8889V29.4304C34.3348 30.2036 33.708 30.8304 32.9348 30.8304H16.1656C15.3924 30.8304 14.7656 30.2036 14.7656 29.4304V21.8889Z" fill="#DCDCDC"/>
<path d="M14.7656 20.4889C14.7656 19.7157 15.3924 19.0889 16.1656 19.0889H32.9348C33.708 19.0889 34.3348 19.7157 34.3348 20.4889V22.3504H14.7656V20.4889Z" fill="#828282"/>
<path d="M14.7656 26.916H34.3348V28.5468H14.7656V26.916Z" fill="#828282"/>
<g clip-path="url(#clip0)">
<path d="M29.2 37.6542C29.2 43.7543 24.2352 48.7082 18.0998 48.7082C11.9644 48.7082 6.99961 43.7543 6.99961 37.6542C6.99961 31.5541 11.9644 26.6002 18.0998 26.6002C24.2352 26.6002 29.2 31.5541 29.2 37.6542Z" fill="#92001F" stroke="#92001F" stroke-width="2.8"/>
<path d="M17.0067 40.4071C16.4831 40.4071 16.0176 39.9434 16.0176 39.4216V33.4508C16.0176 32.9291 16.4831 32.4653 17.0067 32.4653C17.5304 32.4653 17.9958 32.9291 17.9958 33.4508V39.4216C17.9958 39.9434 17.5304 40.4071 17.0067 40.4071Z" fill="#C4C4C4"/>
<path d="M16.0176 39.421C16.0176 38.8993 16.4831 38.4355 17.0067 38.4355H21.0796C21.6033 38.4355 22.0687 38.8993 22.0687 39.421C22.0687 39.9427 21.6033 40.4065 21.0796 40.4065H17.0067C16.4831 40.4065 16.0176 39.9427 16.0176 39.421Z" fill="#DCDCDC"/>
<path d="M17.9958 39.421V38.4355H17.0067C16.4831 38.4355 16.0176 38.8993 16.0176 39.421C16.0176 39.9427 16.4831 40.4065 17.0067 40.4065C17.5304 40.4065 17.9958 39.9427 17.9958 39.421Z" fill="#DCDCDC"/>
<path d="M21.7781 40.1165L22.4763 39.4209L21.7781 38.7252C21.3708 38.3195 20.7889 38.3195 20.3816 38.7252C19.9743 39.131 19.9743 39.7107 20.3816 40.1165C20.7889 40.5223 21.3708 40.5223 21.7781 40.1165Z" fill="#DCDCDC"/>
</g>
<defs>
<clipPath id="clip0">
<rect width="25.0004" height="24.9081" fill="white" transform="translate(5.59961 25.2002)"/>
</clipPath>
</defs>
</svg>
