<svg width="21" height="20" viewBox="0 0 21 20" fill="none" xmlns="http://www.w3.org/2000/svg">
<path d="M16 4.06745H15.6H16ZM16 15.9625H16.4H16ZM5 4.06745H5.4H5ZM5 15.9625H4.6H5ZM6.93488 3.98377L7.24604 4.23513V4.23513L6.93488 3.98377ZM7.17187 3.6904L6.86072 3.43904V3.43904L7.17187 3.6904ZM8.32813 3.6904L8.01697 3.94176L8.01697 3.94176L8.32813 3.6904ZM8.4375 3.82579L8.74866 3.57443L8.74866 3.57443L8.4375 3.82579ZM12.5625 3.82579L12.2513 3.57443L12.2513 3.57443L12.5625 3.82579ZM12.6719 3.6904L12.983 3.94176L12.983 3.94176L12.6719 3.6904ZM13.8281 3.6904L14.1393 3.43904L14.1393 3.43904L13.8281 3.6904ZM14.0651 3.98377L13.754 4.23513L14.0651 3.98377ZM7.24716 16.2803L7.03664 16.6204H7.03664L7.24716 16.2803ZM6.87569 16.0504L7.08621 15.7102L6.87569 16.0504ZM8.4375 16.166L8.22698 15.8259H8.22698L8.4375 16.166ZM8.25284 16.2803L8.46336 16.6204H8.46336L8.25284 16.2803ZM12.7472 16.2803L12.5366 16.6204H12.5366L12.7472 16.2803ZM12.5625 16.166L12.773 15.8259L12.773 15.8259L12.5625 16.166ZM14.1243 16.0504L13.9138 15.7102L14.1243 16.0504ZM13.7528 16.2803L13.9634 16.6204L13.7528 16.2803ZM14.9156 16.28L14.5634 16.4697V16.4697L14.9156 16.28ZM11.1875 16.166L10.977 15.8259V15.8259L11.1875 16.166ZM6.08443 16.28L5.73226 16.0903L6.08443 16.28ZM14.9658 3.83312L15.3367 3.98293V3.98293L14.9658 3.83312ZM6.03421 3.83312L5.66332 3.98293L5.66332 3.98293L6.03421 3.83312ZM10.5 10.3959C10.7209 10.3959 10.9 10.2168 10.9 9.99589C10.9 9.77498 10.7209 9.59589 10.5 9.59589V10.3959ZM7.35714 9.59589C7.13623 9.59589 6.95714 9.77498 6.95714 9.99589C6.95714 10.2168 7.13623 10.3959 7.35714 10.3959V9.59589ZM13.6429 7.84275C13.8638 7.84275 14.0429 7.66366 14.0429 7.44275C14.0429 7.22183 13.8638 7.04275 13.6429 7.04275V7.84275ZM7.35714 7.04275C7.13623 7.04275 6.95714 7.22183 6.95714 7.44275C6.95714 7.66366 7.13623 7.84275 7.35714 7.84275V7.04275ZM12.0714 12.949C12.2923 12.949 12.4714 12.77 12.4714 12.549C12.4714 12.3281 12.2923 12.149 12.0714 12.149V12.949ZM7.35714 12.149C7.13623 12.149 6.95714 12.3281 6.95714 12.549C6.95714 12.77 7.13623 12.949 7.35714 12.949V12.149ZM15.6 4.06745V15.9625H16.4V4.06745H15.6ZM4.6 4.06745L4.6 15.9625H5.4L5.4 4.06745H4.6ZM7.24604 4.23513L7.48303 3.94176L6.86072 3.43904L6.62372 3.73241L7.24604 4.23513ZM8.01697 3.94176L8.12634 4.07715L8.74866 3.57443L8.63928 3.43904L8.01697 3.94176ZM12.8737 4.07715L12.983 3.94176L12.3607 3.43904L12.2513 3.57443L12.8737 4.07715ZM13.517 3.94176L13.754 4.23513L14.3763 3.73241L14.1393 3.43904L13.517 3.94176ZM7.45767 15.9402L7.08621 15.7102L6.66518 16.3905L7.03664 16.6204L7.45767 15.9402ZM8.22698 15.8259L8.04233 15.9402L8.46336 16.6204L8.64802 16.5061L8.22698 15.8259ZM12.9577 15.9402L12.773 15.8259L12.352 16.5061L12.5366 16.6204L12.9577 15.9402ZM13.9138 15.7102L13.5423 15.9402L13.9634 16.6204L14.3348 16.3905L13.9138 15.7102ZM15.2677 16.0903C15.0055 15.6034 14.4008 15.4088 13.9138 15.7102L14.3348 16.3905C14.3749 16.3657 14.4152 16.3623 14.4521 16.373C14.4898 16.3839 14.5327 16.4127 14.5634 16.4697L15.2677 16.0903ZM12.5366 16.6204C12.9772 16.8931 13.5228 16.8931 13.9634 16.6204L13.5423 15.9402C13.3597 16.0532 13.1403 16.0532 12.9577 15.9402L12.5366 16.6204ZM11.398 16.5061C11.695 16.3223 12.055 16.3223 12.352 16.5061L12.773 15.8259C12.218 15.4824 11.532 15.4824 10.977 15.8259L11.398 16.5061ZM9.60198 16.5061C10.157 16.8496 10.843 16.8496 11.398 16.5061L10.977 15.8259C10.68 16.0097 10.32 16.0097 10.023 15.8259L9.60198 16.5061ZM8.64802 16.5061C8.94504 16.3223 9.30496 16.3223 9.60198 16.5061L10.023 15.8259C9.46802 15.4824 8.78198 15.4824 8.22698 15.8259L8.64802 16.5061ZM7.03664 16.6204C7.47722 16.8931 8.02278 16.8931 8.46336 16.6204L8.04233 15.9402C7.85973 16.0532 7.64027 16.0532 7.45767 15.9402L7.03664 16.6204ZM6.43661 16.4697C6.46729 16.4127 6.51019 16.3839 6.54792 16.373C6.5848 16.3623 6.62507 16.3657 6.66518 16.3905L7.08621 15.7102C6.5992 15.4088 5.9945 15.6034 5.73226 16.0903L6.43661 16.4697ZM13.754 4.23513C14.2179 4.80946 15.071 4.64075 15.3367 3.98293L14.5949 3.68332C14.5671 3.75203 14.5216 3.77637 14.4877 3.78205C14.4552 3.78749 14.4145 3.77975 14.3763 3.73241L13.754 4.23513ZM12.983 3.94176C13.129 3.76108 13.371 3.76108 13.517 3.94176L14.1393 3.43904C13.6731 2.86199 12.8269 2.86198 12.3607 3.43904L12.983 3.94176ZM10.8763 4.07715C11.4004 4.72588 12.3496 4.72588 12.8737 4.07715L12.2513 3.57443C12.0475 3.82679 11.7025 3.82679 11.4987 3.57443L10.8763 4.07715ZM10.1237 4.07715C10.3275 3.8248 10.6725 3.8248 10.8763 4.07715L11.4987 3.57443C10.9746 2.9257 10.0254 2.9257 9.50134 3.57443L10.1237 4.07715ZM8.12634 4.07715C8.6504 4.72588 9.5996 4.72588 10.1237 4.07715L9.50134 3.57443C9.29748 3.82679 8.95252 3.82679 8.74866 3.57443L8.12634 4.07715ZM7.48303 3.94176C7.62899 3.76108 7.87101 3.76108 8.01697 3.94176L8.63928 3.43904C8.17312 2.86199 7.32688 2.86198 6.86072 3.43904L7.48303 3.94176ZM5.66332 3.98293C5.92902 4.64075 6.78208 4.80945 7.24604 4.23513L6.62373 3.73241C6.58548 3.77975 6.54483 3.78748 6.51231 3.78204C6.47841 3.77637 6.43285 3.75202 6.4051 3.68332L5.66332 3.98293ZM15.6 15.9625C15.6 16.1029 15.5243 16.1674 15.4576 16.187C15.4214 16.1975 15.3877 16.1951 15.3605 16.1842C15.3363 16.1744 15.3007 16.1515 15.2677 16.0903L14.5634 16.4697C14.807 16.9219 15.2764 17.0736 15.6824 16.9547C16.0831 16.8374 16.4 16.4653 16.4 15.9625H15.6ZM16.4 4.06745C16.4 3.55891 16.0657 3.19722 15.6592 3.10511C15.2475 3.01184 14.7889 3.20298 14.5949 3.68332L15.3367 3.98293C15.3614 3.92163 15.391 3.90084 15.4071 3.8927C15.4265 3.88284 15.4526 3.87858 15.4824 3.88533C15.5123 3.8921 15.5403 3.90886 15.5607 3.93402C15.579 3.95666 15.6 3.99681 15.6 4.06745H16.4ZM5.4 4.06745C5.4 3.99681 5.42096 3.95666 5.43932 3.93402C5.45972 3.90886 5.48774 3.8921 5.51761 3.88533C5.54741 3.87858 5.57347 3.88284 5.59292 3.8927C5.60899 3.90084 5.63856 3.92163 5.66332 3.98293L6.4051 3.68332C6.21108 3.20298 5.75247 3.01184 5.34083 3.10511C4.93428 3.19722 4.6 3.55892 4.6 4.06745H5.4ZM4.6 15.9625C4.6 16.4653 4.91687 16.8374 5.31758 16.9547C5.72358 17.0736 6.19304 16.9219 6.43661 16.4697L5.73226 16.0903C5.69931 16.1515 5.66367 16.1744 5.63948 16.1842C5.61226 16.1951 5.57856 16.1975 5.54241 16.187C5.47572 16.1674 5.4 16.1029 5.4 15.9625H4.6ZM10.5 9.59589H7.35714V10.3959H10.5V9.59589ZM13.6429 7.04275H7.35714V7.84275H13.6429V7.04275ZM12.0714 12.149H7.35714V12.949H12.0714V12.149Z" fill="#EE0033"/>
</svg>
