<svg width="19" height="19" viewBox="0 0 19 19" fill="none" xmlns="http://www.w3.org/2000/svg">
<path fill-rule="evenodd" clip-rule="evenodd" d="M11.4795 0.96586C12.1539 1.50076 12.5961 2.27539 12.769 3.18356C12.7775 3.22809 12.7818 3.27332 12.7818 3.31866V5.9176L14.8035 5.91804C16.5976 5.91804 18.1168 7.17753 18.472 8.95346C18.4743 8.96491 18.4763 8.97641 18.478 8.98796C18.7493 10.7968 17.584 12.5041 15.8738 12.965C15.5475 13.0675 15.1665 13.0669 14.9209 13.0664C14.9053 13.0664 14.8902 13.0663 14.8757 13.0663H12.854V15.1603C12.854 15.17 12.854 15.1804 12.854 15.1915C12.8544 15.3861 12.8552 15.7735 12.7471 16.1035C12.3012 17.5221 10.947 18.7983 8.973 18.6242C7.40935 18.5263 6.08048 17.2721 5.79547 15.7551C5.66189 15.2603 5.68391 14.7684 5.6986 14.4404C5.70239 14.3556 5.7057 14.2817 5.7057 14.2216V12.9948L3.68396 12.9941C1.90883 12.9941 0.456971 11.828 0.0919668 10.1233C-0.355796 8.2989 0.879839 6.35008 2.74718 5.94697C2.90142 5.8885 3.05017 5.86766 3.15828 5.85783C3.29076 5.84579 3.42739 5.84581 3.5273 5.84584C3.53145 5.84584 3.53553 5.84584 3.53955 5.84584H5.6335V3.75189C5.6335 3.73987 5.6338 3.72784 5.6344 3.71583C5.72272 1.94938 7.13038 0.307779 8.99108 0.214744L8.99435 0.21458C9.94233 0.17149 10.8044 0.430471 11.4795 0.96586ZM9.06162 1.65712C9.70135 1.62839 10.2106 1.8026 10.5821 2.09731C10.9416 2.38243 11.2149 2.81414 11.3377 3.39053V5.98982C11.3377 6.3219 11.4054 6.73549 11.7343 7.03697C12.0491 7.32557 12.4457 7.36214 12.7096 7.36214H14.8035C15.892 7.36214 16.8237 8.11648 17.0524 9.21933C17.2032 10.2855 16.5035 11.3061 15.4862 11.5738C15.4712 11.5778 15.4564 11.5822 15.4417 11.5871C15.3605 11.6142 15.2055 11.6222 14.8757 11.6222H12.854C12.5113 11.6222 12.0662 11.679 11.7458 12.026C11.4383 12.3591 11.4099 12.7893 11.4099 13.0663V15.1603C11.4099 15.4106 11.4024 15.5709 11.3747 15.654L11.3706 15.667C11.0934 16.5539 10.2867 17.2936 9.09251 17.185C9.08486 17.1843 9.0772 17.1837 9.06953 17.1833C8.19569 17.1319 7.37303 16.3861 7.21102 15.468C7.20668 15.4435 7.20108 15.4191 7.19423 15.3952C7.11945 15.1334 7.12728 14.9426 7.13893 14.6589C7.144 14.5353 7.1498 14.394 7.1498 14.2216V12.9219C7.1498 12.1621 6.53771 11.55 5.7779 11.55H3.68396C2.57542 11.55 1.71959 10.8448 1.50232 9.81278C1.50046 9.80395 1.49844 9.79515 1.49625 9.7864C1.23771 8.75226 1.98065 7.56203 3.09701 7.34939C3.15133 7.33905 3.20424 7.3225 3.25472 7.30011C3.26193 7.29895 3.27311 7.29745 3.28902 7.296C3.34961 7.29049 3.42374 7.28994 3.53955 7.28994H5.6335C5.91716 7.28994 6.38378 7.27197 6.7217 6.93404C7.05963 6.59612 7.0776 6.1295 7.0776 5.84584V3.7712C7.14174 2.65726 8.03988 1.70913 9.06162 1.65712Z" fill="#EE0033"/>
</svg>
