<svg width="75" height="74" viewBox="0 0 75 74" fill="none" xmlns="http://www.w3.org/2000/svg">
<path d="M15.0617 39.6778C15.1832 39.556 15.1832 39.556 15.3048 39.4342C16.2772 38.4597 16.885 37.1199 16.7634 35.7801C16.7634 34.8057 17.3712 33.9531 18.3436 33.7094L22.7195 32.4914C23.6919 32.2478 24.6643 32.735 25.1505 33.5876L25.2721 33.8312C25.8799 34.9275 26.8523 35.6583 28.0678 35.9019C28.4325 36.0237 28.6756 36.0237 29.0402 36.1455C30.2557 36.5109 31.4713 36.3891 32.5652 35.6583C32.6868 35.6583 32.6868 35.5365 32.6868 35.5365C33.6592 34.9275 34.7532 35.0493 35.4825 35.7801L38.6429 38.947C39.3722 39.6778 39.4937 40.774 38.886 41.6266L38.7644 41.8702C38.0351 42.9664 37.9135 44.1845 38.2782 45.4025C38.3998 45.7679 38.3998 46.0115 38.5213 46.3769C38.7644 47.5949 39.4937 48.5694 40.5877 49.1784C40.7093 49.1784 40.7093 49.3002 40.7093 49.3002C41.6817 49.7874 42.1679 50.7618 41.9248 51.7362L40.7093 56.1211C40.4662 57.0955 39.6153 57.7046 38.6429 57.7046C37.3058 57.5828 35.9687 58.1918 34.9963 59.1662C34.8747 59.288 34.8747 59.288 34.7532 59.4098C34.6316 59.5316 34.6316 59.5316 34.5101 59.6534C33.5377 60.6278 32.9299 61.9677 33.0515 63.3075C33.0515 64.2819 32.4437 65.1345 31.4713 65.3781L27.0954 66.5962C26.123 66.8398 25.1505 66.3526 24.6643 65.4999L24.5428 65.2563C23.935 64.1601 22.9626 63.4293 21.7471 63.1857C21.3824 63.0639 21.1393 63.0639 20.7746 62.9421C19.5591 62.5767 18.3436 62.6985 17.2496 63.4293C16.3988 64.0383 15.3048 63.9165 14.5755 63.1857L11.4151 60.0188C10.6858 59.288 10.5642 58.1918 11.172 57.3392L11.2935 57.0955C12.0229 55.9993 12.1444 54.7813 11.7798 53.5633C11.6582 53.1979 11.6582 52.9543 11.5367 52.5889C11.2935 51.3708 10.5642 50.3964 9.47026 49.7874H9.1056C8.13318 49.3002 7.64697 48.3258 7.89008 47.3513L9.1056 42.9664C9.34871 41.992 10.1996 41.383 11.172 41.383C12.5091 41.5048 13.8461 40.8958 14.8186 39.9214C14.9401 39.7996 15.0617 39.7996 15.0617 39.6778Z" fill="#C4C4C4"/>
<path d="M25.5763 31.0301C25.5763 30.9083 25.5763 30.6647 25.5763 30.5429C25.5763 28.594 24.847 26.767 23.5099 25.549C22.5375 24.5746 22.2944 23.1129 22.9022 21.8949L26.0625 16.4138C26.7919 15.1958 28.1289 14.7085 29.466 15.074L29.8307 15.3176C31.4109 15.8048 33.2341 15.5612 34.6928 14.5867C35.0574 14.3431 35.4221 14.0995 35.9083 13.9777C37.3669 13.1251 38.5825 11.7853 38.9471 10.08C38.9471 9.95825 38.9471 9.83644 38.9471 9.83644C39.1902 8.37481 40.2842 7.40039 41.7428 7.40039H48.0635C49.2791 7.40039 50.4946 8.37481 50.7377 9.71464L50.8593 10.08C51.2239 11.7853 52.3179 13.1251 53.8981 13.9777C54.2627 14.2213 54.6274 14.4649 55.1136 14.5867C56.5722 15.4394 58.274 15.8048 59.9757 15.3176C60.0972 15.3176 60.0972 15.3176 60.0972 15.3176C61.5559 14.8304 63.0145 15.4394 63.7438 16.5356L66.9042 22.0167C67.6335 23.2347 67.3904 24.6964 66.2964 25.6708C64.8378 26.8888 64.1085 28.7159 64.23 30.6647C64.23 30.7865 64.23 31.0301 64.23 31.1519C64.23 31.2737 64.23 31.5173 64.23 31.6391C64.23 33.588 64.9594 35.415 66.2964 36.633C67.2688 37.6074 67.512 39.0691 66.9042 40.2871L63.7438 45.7682C63.0145 46.9862 61.6774 47.4735 60.3404 47.1081L59.9757 46.9862C58.3955 46.499 56.5722 46.7426 55.1136 47.7171C54.7489 47.9607 54.3843 48.2043 54.0196 48.3261C52.4394 49.1787 51.3455 50.5185 50.9808 52.2238L50.8593 52.5892C50.4946 53.6854 49.2791 54.538 47.942 54.538H41.6213C40.2842 54.538 39.0687 53.5636 38.8256 52.2238L38.704 51.8584C38.3393 50.1531 37.2454 48.8133 35.6652 47.9607C35.3005 47.7171 34.9359 47.4735 34.4497 47.3517C32.991 46.499 31.2893 46.1336 29.5876 46.6208H29.466C28.0074 47.1081 26.5488 46.499 25.8194 45.4028L22.6591 39.9217C21.9298 38.7037 22.1729 37.242 23.2668 36.2676C24.7255 35.0496 25.4548 33.2226 25.3332 31.2737C25.5763 31.2737 25.5763 31.1519 25.5763 31.0301Z" fill="#EE0033"/>
<path d="M24.9094 54.5376C27.6618 54.5376 29.8931 52.3018 29.8931 49.5437C29.8931 46.7857 27.6618 44.5498 24.9094 44.5498C22.157 44.5498 19.9258 46.7857 19.9258 49.5437C19.9258 52.3018 22.157 54.5376 24.9094 54.5376Z" fill="white"/>
<path d="M52.804 29.1992V39.4654C52.804 40.2273 52.2367 40.8472 51.5393 40.8472L42.296 40.8435C41.5985 40.8435 41.0312 40.2235 41.0312 39.4617V26.7773C41.0312 26.0154 41.5985 25.3955 42.296 25.3955H48.9352C49.0203 25.3955 49.1001 25.4329 49.159 25.4963L52.712 28.9546C52.7693 29.0199 52.804 29.1077 52.804 29.1992Z" fill="white"/>
<rect x="43.9766" y="34.0869" width="5.88636" height="6.76012" fill="#92001F"/>
</svg>
