<svg width="24" height="24" viewBox="0 0 24 24" fill="none" xmlns="http://www.w3.org/2000/svg">
<path fill-rule="evenodd" clip-rule="evenodd" d="M15.7792 12.624C15.4346 12.8538 14.9689 12.7607 14.7392 12.416L7.23922 1.1661C7.00946 0.821453 7.10259 0.355804 7.44724 0.126041C7.79188 -0.103722 8.25753 -0.0105919 8.48729 0.334052L15.9872 11.584C16.217 11.9286 16.1239 12.3943 15.7792 12.624Z" fill="#EE0033"/>
<path fill-rule="evenodd" clip-rule="evenodd" d="M15.7792 11.376C16.1239 11.6058 16.217 12.0715 15.9872 12.4161L8.48729 23.666C8.25753 24.0107 7.79188 24.1038 7.44724 23.874C7.10259 23.6443 7.00946 23.1786 7.23922 22.834L14.7392 11.5841C14.9689 11.2394 15.4346 11.1463 15.7792 11.376Z" fill="#FE9A00"/>
</svg>
