<svg width="75" height="74" viewBox="0 0 75 74" fill="none" xmlns="http://www.w3.org/2000/svg">
<path d="M15.5938 65.474C15.4655 65.474 15.3372 65.474 15.209 65.2137V65.0836C14.5677 64.4329 14.0547 63.652 13.5417 63.0013C13.2852 62.7411 13.4134 62.3506 13.6699 62.0903C13.9264 61.8301 14.3112 61.9602 14.5677 62.2205C15.0807 62.8712 15.5938 63.5219 16.1068 64.1726C16.3633 64.4329 16.3633 64.9535 16.1068 65.0836C15.9785 65.3439 15.8503 65.474 15.5938 65.474ZM59.0723 65.3439C58.944 65.3439 58.8158 65.3439 58.6875 65.2137C58.431 64.9535 58.431 64.563 58.6875 64.3027C59.2005 63.652 59.7136 63.0013 60.2266 62.3506C60.4831 62.0903 60.8679 61.9602 61.1244 62.2205C61.3809 62.4808 61.5091 62.8712 61.2526 63.1315C60.7396 63.9123 60.2266 64.563 59.5853 65.2137C59.457 65.2137 59.3288 65.3439 59.0723 65.3439ZM12.0026 60.0081C11.7461 60.0081 11.4896 59.8779 11.4896 59.6177C11.1048 58.8368 10.7201 58.056 10.3353 57.145C10.207 56.7546 10.3353 56.4943 10.7201 56.234C11.1048 56.1038 11.3613 56.234 11.6178 56.6244C12.0026 57.4053 12.2591 58.1861 12.7721 58.967C12.9004 59.2272 12.7721 59.6177 12.5156 59.8779C12.1309 60.0081 12.1309 60.0081 12.0026 60.0081ZM62.7917 60.0081C62.6634 60.0081 62.5352 60.0081 62.5352 59.8779C62.2787 59.7478 62.1504 59.3574 62.2787 58.967C62.6634 58.1861 63.0482 57.4053 63.433 56.6244C63.5612 56.234 63.946 56.1038 64.3307 56.234C64.7155 56.3641 64.8438 56.7546 64.7155 57.145C64.3307 57.9258 63.946 58.8368 63.5612 59.6177C63.3047 59.8779 63.0482 60.0081 62.7917 60.0081ZM9.56576 53.8914C9.30925 53.8914 9.05273 53.7613 8.92448 53.3709C8.66797 52.4599 8.53971 51.679 8.2832 50.768C8.2832 50.3776 8.41146 50.1173 8.79622 49.9872C9.18099 49.9872 9.4375 50.1173 9.56576 50.5078C9.69401 51.2886 9.95052 52.1996 10.0788 52.9805C10.207 53.3709 9.95052 53.6312 9.56576 53.7613C9.69401 53.8914 9.56576 53.8914 9.56576 53.8914ZM65.2285 53.8914H65.1003C64.7155 53.7613 64.5873 53.501 64.5873 53.1106C64.8438 52.3297 64.972 51.4188 65.1003 50.6379C65.1003 50.2475 65.485 49.9872 65.8698 50.1173C66.2546 50.1173 66.5111 50.5078 66.3828 50.8982C66.2546 51.8092 65.9981 52.7202 65.7416 53.501C65.7416 53.7613 65.485 53.8914 65.2285 53.8914ZM8.53971 47.3844C8.15495 47.3844 7.89844 47.1241 7.89844 46.7337C7.89844 46.3432 7.89844 45.8227 7.89844 45.4323C7.89844 44.9117 7.89844 44.5213 7.89844 44.0007C7.89844 43.6103 8.15495 43.35 8.53971 43.35C8.92448 43.35 9.18099 43.6103 9.18099 44.0007C9.18099 44.3911 9.18099 44.9117 9.18099 45.3021C9.18099 45.6925 9.18099 46.083 9.18099 46.6035C9.18099 47.1241 8.92448 47.3844 8.53971 47.3844ZM66.2546 47.3844C66.1263 47.3844 66.1263 47.3844 66.2546 47.3844C65.8698 47.3844 65.6133 47.1241 65.6133 46.7337C65.6133 46.3432 65.6133 45.9528 65.6133 45.4323C65.6133 45.0418 65.6133 44.5213 65.6133 44.1308C65.6133 43.7404 65.8698 43.4801 66.2546 43.4801C66.6393 43.4801 66.8959 43.7404 66.8959 44.1308C66.8959 44.5213 66.8959 45.0418 66.8959 45.4323C66.8959 45.8227 66.8959 46.3432 66.8959 46.7337C66.7676 47.1241 66.5111 47.3844 66.2546 47.3844ZM9.05273 40.8773C8.92448 40.8773 8.92448 40.8773 9.05273 40.8773C8.53971 40.7472 8.41146 40.4869 8.41146 40.0965C8.53971 39.1855 8.79622 38.2745 9.05273 37.4936C9.18099 37.1032 9.56576 36.9731 9.82227 37.1032C10.207 37.2333 10.3353 37.4936 10.207 37.8841C9.95052 38.6649 9.82227 39.5759 9.69401 40.3567C9.56576 40.617 9.30925 40.8773 9.05273 40.8773ZM65.7416 40.8773C65.485 40.8773 65.2285 40.617 65.1003 40.3567C64.972 39.5759 64.7155 38.6649 64.5873 37.8841C64.459 37.4936 64.7155 37.2333 64.972 37.1032C65.3568 36.9731 65.6133 37.2333 65.7416 37.4936C65.9981 38.4046 66.1263 39.1855 66.3828 40.0965C66.5111 40.4869 66.2546 40.7472 65.7416 40.8773C65.8698 40.8773 65.7416 40.8773 65.7416 40.8773ZM10.8483 34.6305C10.7201 34.6305 10.7201 34.6305 10.5918 34.6305C10.207 34.5004 10.0788 34.11 10.207 33.7195C10.5918 32.9387 10.9766 32.0277 11.3613 31.2468C11.4896 30.9866 11.8744 30.8564 12.2591 30.9866C12.5156 31.1167 12.6439 31.5071 12.5156 31.8976C12.1309 32.6784 11.7461 33.4592 11.3613 34.2401C11.3613 34.5004 11.1048 34.6305 10.8483 34.6305ZM63.946 34.6305C63.6895 34.6305 63.433 34.5004 63.3047 34.2401C62.9199 33.4592 62.6634 32.6784 62.1504 31.8976C62.0222 31.6373 62.1504 31.2468 62.4069 30.9866C62.6634 30.8564 63.0482 30.9866 63.3047 31.2468C63.6895 32.0277 64.0742 32.8085 64.459 33.7195C64.5873 34.11 64.459 34.3702 64.0742 34.6305H63.946ZM14.0547 28.9043C13.9264 28.9043 13.7982 28.9043 13.6699 28.7742C13.4134 28.5139 13.2852 28.1235 13.5417 27.8632C14.0547 27.0823 14.5677 26.4316 15.209 25.7809C15.4655 25.5206 15.8503 25.5206 16.1068 25.7809C16.3633 26.0412 16.3633 26.4316 16.1068 26.6919C15.5938 27.3426 15.0807 27.9933 14.5677 28.644C14.4395 28.7742 14.1829 28.9043 14.0547 28.9043ZM60.7396 28.9043C60.4831 28.9043 60.3548 28.7742 60.2266 28.644C59.7136 27.9933 59.2005 27.3426 58.6875 26.6919L59.5853 25.7809L59.0723 26.1713L59.5853 25.7809C60.0983 26.4316 60.7396 27.0823 61.2526 27.8632C61.5091 28.1235 61.3809 28.5139 61.1244 28.7742C60.9961 28.9043 60.8679 28.9043 60.7396 28.9043ZM56.3789 24.0891C56.2507 24.0891 56.1224 24.0891 55.9942 23.9589C55.3529 23.4384 54.7116 22.9178 54.0703 22.3972C53.8138 22.137 53.6856 21.7465 53.9421 21.4862C54.1986 21.226 54.5833 21.0958 54.8399 21.3561C55.6094 21.8767 56.2507 22.3972 56.8919 23.0479C57.1485 23.3082 57.1485 23.6986 56.8919 23.9589C56.7637 23.9589 56.5072 24.0891 56.3789 24.0891ZM18.4154 24.0891C18.2871 24.0891 18.0306 23.9589 17.9023 23.8288C17.6458 23.5685 17.6458 23.1781 17.9023 22.9178C18.5436 22.3972 19.1849 21.7465 19.9544 21.226C20.2109 20.9657 20.5957 21.0958 20.8522 21.3561C21.1087 21.6164 20.9805 22.0068 20.724 22.2671C20.0827 22.7877 19.4414 23.3082 18.8001 23.8288C18.6719 23.9589 18.5436 24.0891 18.4154 24.0891ZM23.6738 20.315C23.4173 20.315 23.1608 20.1848 23.1608 19.9245C23.0326 19.6643 23.1608 19.2738 23.4173 19.0136C24.1869 18.6231 24.9564 18.2327 25.8542 17.8423C26.2389 17.7121 26.4954 17.8423 26.752 18.2327C26.8802 18.6231 26.752 18.8834 26.3672 19.1437C25.5977 19.5341 24.8281 19.7944 24.0586 20.315C23.9303 20.315 23.8021 20.315 23.6738 20.315ZM50.9922 20.315C50.8639 20.315 50.7357 20.315 50.7357 20.1848C49.9662 19.7944 49.1966 19.404 48.4271 19.0136C48.0423 18.8834 47.9141 18.493 48.0423 18.1026C48.1706 17.7121 48.5554 17.582 48.9401 17.7121C49.7096 18.1026 50.6074 18.493 51.377 18.8834C51.6335 19.0136 51.7617 19.404 51.6335 19.7944C51.5052 20.1848 51.2487 20.315 50.9922 20.315ZM45.0925 17.9724H44.9642C44.1947 17.7121 43.2969 17.582 42.5274 17.4519C42.1426 17.4519 41.8861 17.0614 42.0143 16.671C42.0143 16.2806 42.3991 16.0203 42.7839 16.1504C43.6817 16.2806 44.5794 16.5409 45.349 16.8012C45.7337 16.9313 45.862 17.1916 45.7337 17.582C45.6055 17.7121 45.349 17.9724 45.0925 17.9724ZM29.7018 17.9724C29.4453 17.9724 29.1888 17.8423 29.0606 17.4519C28.9323 17.0614 29.1888 16.8012 29.4453 16.671C30.3431 16.4107 31.1126 16.2806 32.0104 16.0203C32.3952 15.8902 32.6517 16.1504 32.78 16.5409C32.78 16.9313 32.6517 17.1916 32.2669 17.3217C31.4974 17.4519 30.5996 17.7121 29.8301 17.8423L29.7018 17.9724ZM38.6797 16.9313C37.7819 16.9313 37.0124 16.9313 36.1146 16.9313C35.7298 16.9313 35.4733 16.671 35.4733 16.2806C35.4733 15.8902 35.7298 15.6299 36.1146 15.6299C37.0124 15.6299 37.9102 15.6299 38.808 15.6299C39.1927 15.6299 39.4492 15.8902 39.4492 16.2806C39.321 16.671 39.0645 16.9313 38.6797 16.9313Z" fill="#828282"/>
<path d="M37.3991 66.385C48.8033 66.385 58.0482 57.0041 58.0482 45.4323C58.0482 33.8604 48.8033 24.4795 37.3991 24.4795C25.9949 24.4795 16.75 33.8604 16.75 45.4323C16.75 57.0041 25.9949 66.385 37.3991 66.385Z" fill="#C4C4C4"/>
<path d="M32.3964 51.2891C32.3964 52.8508 33.5507 54.022 35.0898 54.022H35.3463C36.8853 54.022 38.0396 52.8508 38.0396 51.2891V39.5763C38.0396 37.4941 38.8092 35.6721 40.22 34.2406C41.6308 32.809 42.4003 30.8569 42.4003 28.9048V25.3909C40.733 25.0005 39.0657 24.7402 37.2701 24.7402C28.164 24.7402 20.3404 30.8569 17.647 39.1859C17.2623 40.3572 17.647 41.6586 18.4166 42.4395L20.5969 44.6519C21.1099 45.1724 21.7512 45.4327 22.5207 45.4327C25.7271 45.4327 28.8052 46.7341 31.1138 49.0767L31.4986 49.4671C32.1399 49.8575 32.3964 50.5082 32.3964 51.2891Z" fill="#EE0033"/>
<path d="M45.6094 46.6038H44.4551C43.3008 46.6038 42.5312 45.6929 42.5312 44.6517V43.4804C42.5312 42.3092 43.429 41.5283 44.4551 41.5283H45.6094C46.6354 41.5283 47.5332 42.4393 47.5332 43.4804V44.6517C47.5332 45.6929 46.6354 46.6038 45.6094 46.6038Z" fill="#EE0033"/>
<path d="M57.6634 48.8164H54.0723C52.918 48.8164 51.7637 49.337 50.8659 50.1178L50.0964 50.8987C49.5833 51.4192 49.3268 52.0699 49.3268 52.7206V53.3714C49.3268 54.8029 48.1725 55.844 46.89 55.844C45.4792 55.844 44.4531 57.0153 44.4531 58.3167V65.0841C51.3789 62.6114 56.5091 56.3646 57.6634 48.8164Z" fill="#EE0033"/>
<path d="M43.429 51.1589C42.916 51.1589 42.5312 50.7685 42.5312 50.2479C42.5312 49.7273 42.916 49.3369 43.429 49.3369C43.9421 49.3369 44.3268 49.7273 44.3268 50.2479C44.4551 50.7685 43.9421 51.1589 43.429 51.1589Z" fill="#EE0033"/>
<path d="M50.097 38.6647C49.584 38.6647 49.1992 38.2743 49.1992 37.7538C49.1992 37.2332 49.584 36.8428 50.097 36.8428C50.61 36.8428 50.9948 37.2332 50.9948 37.7538C51.123 38.1442 50.61 38.6647 50.097 38.6647Z" fill="#EE0033"/>
<path d="M32.1387 65.7357V64.0438C32.1387 60.7903 29.5736 58.1875 26.3672 58.1875H20.9805C23.8021 61.8314 27.6497 64.4343 32.1387 65.7357Z" fill="#EE0033"/>
<path d="M45.0917 11.726C45.0917 7.30124 41.5006 3.78742 37.0117 3.91756C33.2923 4.04771 29.9576 7.43138 29.7011 11.2055C29.5729 13.9384 30.7272 16.281 32.5227 17.8427C34.3183 19.2742 35.8574 21.0962 37.0117 23.1785L37.2682 23.5689C37.3964 23.6991 37.5247 23.6991 37.6529 23.5689L37.7812 23.3086C38.9355 21.2264 40.4745 19.2742 42.2701 17.8427C43.9374 16.4111 45.0917 14.1987 45.0917 11.726Z" fill="#92001F"/>
<path d="M37.9121 15.1102L39.0664 14.4594C39.7077 14.069 40.2207 13.6786 40.7337 13.158C41.6315 12.247 41.6315 10.8155 40.6055 9.9045C39.7077 9.12365 38.4251 9.25379 37.5274 10.0346L37.3991 10.1648C37.2708 10.2949 37.1426 10.2949 37.1426 10.1648L37.0143 10.0346C36.2448 9.25379 34.834 9.12365 33.9362 9.9045C33.0384 10.8155 32.9102 12.247 33.8079 13.158C34.321 13.6786 34.834 14.069 35.4753 14.4594L36.6296 15.1102C36.7578 15.2403 36.8861 15.3704 37.0143 15.5006C37.1426 15.6307 37.2708 15.6307 37.3991 15.5006C37.6556 15.3704 37.7839 15.2403 37.9121 15.1102Z" fill="white"/>
</svg>
