<svg width="23" height="22" viewBox="0 0 23 22" fill="none" xmlns="http://www.w3.org/2000/svg">
<g clip-path="url(#clip0)">
<path d="M6.40828 4.72716V4.08549C6.40828 3.69758 6.2012 3.33883 5.86578 3.14633C5.53036 2.95383 5.1162 2.95383 4.78078 3.14633C4.44536 3.33883 4.23828 3.69758 4.23828 4.08549V4.72716C4.23828 5.06841 4.41911 5.38049 4.7137 5.55258C5.08995 5.77133 5.55661 5.77133 5.93286 5.55258C6.22745 5.38341 6.40828 5.06841 6.40828 4.72716Z" fill="#C4C4C4"/>
<path d="M5.28339 6.09766C4.0963 6.09766 3.13672 7.14766 3.13672 11.9806H7.43005C7.43005 7.14766 6.46755 6.09766 5.28339 6.09766Z" fill="#C4C4C4"/>
<path d="M3.5013 17.0001C3.30005 17.0001 3.13672 16.8367 3.13672 16.6355V11.9805H4.9538L3.85714 16.7171C3.81922 16.8834 3.67047 17.0001 3.5013 17.0001Z" fill="#C4C4C4"/>
<path d="M7.06286 17.0001C7.26411 17.0001 7.42745 16.8367 7.42745 16.6355V11.9805H5.61328L6.70995 16.7171C6.74786 16.8834 6.8937 17.0001 7.06286 17.0001Z" fill="#C4C4C4"/>
<path d="M5.28339 6.09766C4.0963 6.09766 3.13672 7.14766 3.13672 11.9806V16.6356C3.13672 16.8368 3.30005 17.0002 3.5013 17.0002C3.67047 17.0002 3.81922 16.8835 3.85714 16.7172L4.88089 12.3014C4.92464 12.1147 5.09089 11.9806 5.28339 11.9806C5.47589 11.9806 5.64214 12.1147 5.68589 12.3014L6.70964 16.7172C6.74755 16.8835 6.89339 17.0002 7.06255 17.0002C7.2638 17.0002 7.42714 16.8368 7.42714 16.6356V11.9806C7.43005 7.14766 6.46755 6.09766 5.28339 6.09766Z" fill="#C4C4C4"/>
<path d="M16.1153 4.72716V4.08549C16.1153 3.69758 15.9082 3.33883 15.5728 3.14633C15.2374 2.95383 14.8232 2.95383 14.4878 3.14633C14.1524 3.33883 13.9453 3.69758 13.9453 4.08549V4.72716C13.9453 5.06841 14.1261 5.38049 14.4207 5.55258C14.797 5.77133 15.2636 5.77133 15.6399 5.55258C15.9345 5.38341 16.1153 5.06841 16.1153 4.72716Z" fill="#C4C4C4"/>
<path d="M14.9904 6.09766C13.8063 6.09766 12.8438 7.14766 12.8438 11.9806H17.1371C17.1371 7.14766 16.1775 6.09766 14.9904 6.09766Z" fill="#C4C4C4"/>
<path d="M13.2122 17.0001C13.011 17.0001 12.8477 16.8367 12.8477 16.6355V11.9805H14.6647L13.5681 16.7171C13.5272 16.8834 13.3814 17.0001 13.2122 17.0001Z" fill="#C4C4C4"/>
<path d="M16.7728 17.0001C16.9741 17.0001 17.1374 16.8367 17.1374 16.6355V11.9805H15.3203L16.417 16.7171C16.4549 16.8834 16.6036 17.0001 16.7728 17.0001Z" fill="#C4C4C4"/>
<path d="M14.9904 6.09766C13.8063 6.09766 12.8438 7.14766 12.8438 11.9806V16.6356C12.8438 16.8368 13.0071 17.0002 13.2083 17.0002C13.3775 17.0002 13.5263 16.8835 13.5642 16.7172L14.5879 12.3014C14.6317 12.1147 14.7979 11.9806 14.9904 11.9806C15.1829 11.9806 15.3492 12.1147 15.3929 12.3014L16.4167 16.7172C16.4546 16.8835 16.6033 17.0002 16.7725 17.0002C16.9737 17.0002 17.1371 16.8368 17.1371 16.6356V11.9806C17.1371 7.14766 16.1775 6.09766 14.9904 6.09766Z" fill="#C4C4C4"/>
<path d="M8.35411 9.20771L6.51953 6.73438L6.6362 10.3656H7.76786C8.17036 10.3656 8.49411 10.0419 8.49411 9.63937C8.49703 9.48479 8.44453 9.33312 8.35411 9.20771Z" fill="#C4C4C4"/>
<path d="M8.53141 9.26516H5.53307C5.39599 9.26516 5.28516 9.15432 5.28516 9.01724V6.34557C5.28516 6.20849 5.39599 6.09766 5.53307 6.09766H8.53141C8.66849 6.09766 8.77932 6.20849 8.77932 6.34557V9.01724C8.78224 9.15432 8.66849 9.26516 8.53141 9.26516Z" fill="#EE0033"/>
<path d="M7.36542 6.99891H6.70042C6.60708 6.99891 6.53125 6.92307 6.53125 6.82974V6.09766H7.53458V6.82974C7.53458 6.92307 7.45875 6.99891 7.36542 6.99891Z" fill="#92001F"/>
<path d="M7.38495 10.3652H6.39911C6.24161 10.3652 6.11328 10.4936 6.11328 10.6511C6.11328 10.8086 6.24161 10.9369 6.39911 10.9369H7.4112C7.40245 10.7386 7.39661 10.5461 7.38495 10.3652Z" fill="#828282"/>
<path d="M13.9454 9.85211V8.66211L12.9799 9.28628C12.9216 9.76461 12.8837 10.3129 12.8633 10.9342C13.4612 10.9371 13.9454 10.45 13.9454 9.85211Z" fill="#828282"/>
<path d="M13.7536 6.73633L12.7648 8.27633C12.3682 8.89174 11.6857 9.26508 10.9536 9.26508C10.6503 9.26508 10.4023 9.51008 10.4023 9.81633C10.4023 10.1197 10.6473 10.3676 10.9536 10.3676H11.3123C12.0736 10.3676 12.8261 10.1984 13.5144 9.86883L14.4653 9.40216L13.7536 6.73633Z" fill="#C4C4C4"/>
</g>
<defs>
<clipPath id="clip0">
<rect width="14" height="14" fill="white" transform="translate(3.13672 3)"/>
</clipPath>
</defs>
</svg>
