<svg width="28" height="28" viewBox="0 0 28 28" fill="none" xmlns="http://www.w3.org/2000/svg">
<g clip-path="url(#clip0)">
<path d="M25.9008 21.8325C25.9008 24.0786 24.1334 25.8996 21.9532 25.8996H6.74831C4.56821 25.8996 2.80078 24.0786 2.80078 21.8325V6.16676C2.80078 3.92059 4.56821 2.09961 6.74831 2.09961H21.9532C24.1334 2.09961 25.9008 3.92059 25.9008 6.16676V21.8325Z" fill="#C4C4C4"/>
<path d="M18.6515 25.9V16.7619H21.6282L22.0747 13.2001H18.6515V10.9278C18.6515 9.89622 18.9289 9.19396 20.3648 9.19396H22.1948V6.00855C21.8785 5.96498 20.7927 5.86914 19.5276 5.86914C16.8892 5.86914 15.0828 7.52807 15.0828 10.5758V13.2019H12.0977V16.7637H15.0828V25.9017H18.6515V25.9Z" fill="#EE0033"/>
</g>
<defs>
<clipPath id="clip0">
<rect width="23.1" height="23.8" fill="white" transform="translate(2.80078 2.09961)"/>
</clipPath>
</defs>
</svg>
