<svg width="25" height="24" viewBox="0 0 25 24" fill="none" xmlns="http://www.w3.org/2000/svg">
<path d="M19.1394 16.6604L19.0182 17.1455H19.0182L19.1394 16.6604ZM5.86058 16.6604L5.73931 16.1753H5.73931L5.86058 16.6604ZM18.8641 5.30728L18.772 4.81585V4.81585L18.8641 5.30728ZM6.1359 5.30728L6.04375 5.79872L6.1359 5.30728ZM13 16.0006C13 15.7244 12.7761 15.5006 12.5 15.5006C12.2239 15.5006 12 15.7244 12 16.0006H13ZM16.5 19.5006C16.7761 19.5006 17 19.2767 17 19.0006C17 18.7244 16.7761 18.5006 16.5 18.5006V19.5006ZM8.5 18.5006C8.22386 18.5006 8 18.7244 8 19.0006C8 19.2767 8.22386 19.5006 8.5 19.5006V18.5006ZM20 6.66496V15.5981H21V6.66496H20ZM5 15.5981V6.66496H4V15.5981H5ZM19.2607 16.1753C14.8219 15.0656 10.1781 15.0656 5.73931 16.1753L5.98185 17.1455C10.2614 16.0756 14.7386 16.0756 19.0182 17.1455L19.2607 16.1753ZM18.772 4.81585C14.6268 5.59307 10.3732 5.59307 6.22804 4.81585L6.04375 5.79872C10.3107 6.59878 14.6893 6.59878 18.9562 5.79872L18.772 4.81585ZM4 15.5981C4 16.6358 4.97517 17.3971 5.98185 17.1455L5.73931 16.1753C5.36378 16.2692 5 15.9852 5 15.5981H4ZM20 15.5981C20 15.9852 19.6362 16.2692 19.2607 16.1753L19.0182 17.1455C20.0248 17.3971 21 16.6358 21 15.5981H20ZM21 6.66496C21 5.48698 19.9298 4.59876 18.772 4.81585L18.9562 5.79872C19.4986 5.69702 20 6.11312 20 6.66496H21ZM5 6.66496C5 6.11312 5.50137 5.69702 6.04375 5.79872L6.22804 4.81585C5.07024 4.59876 4 5.48698 4 6.66496H5ZM13 19.0006V16.0006H12V19.0006H13ZM16.5 18.5006H12.5V19.5006H16.5V18.5006ZM12.5 18.5006H8.5V19.5006H12.5V18.5006Z" fill="#44494D"/>
<path d="M9.90039 8.40039L15.1004 13.6004" stroke="#44494D" stroke-linecap="round" stroke-linejoin="round"/>
<path d="M9.90039 13.5996L15.1004 8.39961" stroke="#44494D" stroke-linecap="round" stroke-linejoin="round"/>
</svg>
