<svg width="74" height="74" viewBox="0 0 74 74" fill="none" xmlns="http://www.w3.org/2000/svg">
<path d="M40.2375 49.8007L23.5278 62.3941C22.4835 63.1812 20.8125 62.5516 20.8125 61.607V49.8007H40.2375Z" fill="#92001F"/>
<path d="M14.5645 59.5131H49.0401C56.6628 59.5131 62.8996 52.8212 62.8996 44.6423V24.3808C62.8996 22.3361 61.3404 20.6631 59.4347 20.6631H14.5645C12.6588 20.6631 11.0996 22.3361 11.0996 24.3808V55.9813C11.0996 57.8401 12.6588 59.5131 14.5645 59.5131Z" fill="#EE0033"/>
<path d="M35.4087 24.7419L38.588 24.7419C40.0553 24.7419 41.4004 25.9647 41.4004 27.5543L41.4004 40.2714C41.4004 41.7388 40.1776 43.0839 38.588 43.0839L35.4087 43.0839C33.9413 43.0839 32.5963 41.8611 32.5963 40.2714L32.5963 27.4321C32.5963 25.9647 33.8191 24.7419 35.4087 24.7419Z" fill="white"/>
<path d="M36.5092 46.6299L37.4874 46.6299C39.5662 46.6299 41.4004 48.3419 41.4004 50.5429L41.4004 51.5211C41.4004 53.5999 39.6885 55.4341 37.4874 55.4341L36.5092 55.4341C34.4304 55.4341 32.5963 53.7222 32.5963 51.5211L32.5963 50.5429C32.5963 48.3419 34.3082 46.6299 36.5092 46.6299Z" fill="#C4C4C4"/>
</svg>
