<svg width="25" height="24" viewBox="0 0 25 24" fill="none" xmlns="http://www.w3.org/2000/svg">
<path d="M13.0603 9C13.0603 10.9308 11.4872 12.5 9.54188 12.5C7.59653 12.5 6.02344 10.9308 6.02344 9C6.02344 7.06917 7.59653 5.5 9.54188 5.5C11.4872 5.5 13.0603 7.06917 13.0603 9Z" stroke="#44494D"/>
<path d="M14.5647 19C14.5647 17 12.3158 15 9.54161 15C6.76745 15 4.51855 17 4.51855 19" stroke="#44494D" stroke-linecap="round" stroke-linejoin="round"/>
<path d="M21.5965 11.5H21.9965V11.3845L21.9348 11.2867L21.5965 11.5ZM17.8872 11.5C17.8872 11.7209 18.0662 11.9 18.2872 11.9C18.5081 11.9 18.6872 11.7209 18.6872 11.5H17.8872ZM18.6872 10C18.6872 9.77909 18.5081 9.6 18.2872 9.6C18.0662 9.6 17.8872 9.77909 17.8872 10H18.6872ZM14.9778 11.5L14.6395 11.2867L14.2529 11.9H14.9778V11.5ZM20.9316 10.4453L21.27 10.232V10.232L20.9316 10.4453ZM20.1449 10V9.6V10ZM16.4294 10V10.4V10ZM15.6427 10.4453L15.9811 10.6586V10.6586L15.6427 10.4453ZM16.3961 14.9C16.617 14.9 16.7961 14.7209 16.7961 14.5C16.7961 14.2791 16.617 14.1 16.3961 14.1V14.9ZM13.5596 14.1C13.3387 14.1 13.1596 14.2791 13.1596 14.5C13.1596 14.7209 13.3387 14.9 13.5596 14.9V14.1ZM17.8144 13.4C18.0353 13.4 18.2144 13.2209 18.2144 13C18.2144 12.7791 18.0353 12.6 17.8144 12.6V13.4ZM14.5051 12.6C14.2842 12.6 14.1051 12.7791 14.1051 13C14.1051 13.2209 14.2842 13.4 14.5051 13.4V12.6ZM21.1965 11.5V15.5H21.9965V11.5H21.1965ZM21.1237 15.6H15.4506V16.4H21.1237V15.6ZM21.1965 15.5C21.1965 15.5349 21.1834 15.5618 21.1673 15.5787C21.1517 15.5953 21.1363 15.6 21.1237 15.6V16.4C21.6265 16.4 21.9965 15.9756 21.9965 15.5H21.1965ZM18.6872 11.5V10H17.8872V11.5H18.6872ZM14.9778 11.9H21.5965V11.1H14.9778V11.9ZM21.9348 11.2867L21.27 10.232L20.5933 10.6586L21.2581 11.7133L21.9348 11.2867ZM20.1449 9.6L16.4294 9.6V10.4L20.1449 10.4V9.6ZM15.3162 11.7133L15.9811 10.6586L15.3043 10.232L14.6395 11.2867L15.3162 11.7133ZM21.27 10.232C21.025 9.84325 20.605 9.6 20.1449 9.6V10.4C20.3171 10.4 20.4876 10.4909 20.5933 10.6586L21.27 10.232ZM16.4294 9.6C15.9693 9.6 15.5493 9.84325 15.3043 10.232L15.9811 10.6586C16.0867 10.4909 16.2572 10.4 16.4294 10.4V9.6ZM16.3961 14.1H13.5596V14.9H16.3961V14.1ZM17.8144 12.6H14.5051V13.4H17.8144V12.6Z" fill="#44494D"/>
</svg>
