<svg width="75" height="74" viewBox="0 0 75 74" fill="none" xmlns="http://www.w3.org/2000/svg">
<path d="M37.6414 62.2817C52.0535 62.2817 63.7368 50.5984 63.7368 36.1863C63.7368 21.7742 52.0535 10.0908 37.6414 10.0908C23.2292 10.0908 11.5459 21.7742 11.5459 36.1863C11.5459 50.5984 23.2292 62.2817 37.6414 62.2817Z" fill="#EE0033"/>
<path d="M35.8467 18.8061L39.4361 18.8061C41.0927 18.8061 42.6113 20.1867 42.6113 21.9814L42.6113 36.339C42.6113 37.9957 41.2308 39.5143 39.4361 39.5143L35.8467 39.5143C34.19 39.5143 32.6714 38.1337 32.6714 36.339L32.6714 21.8433C32.6714 20.1867 34.052 18.8061 35.8467 18.8061Z" fill="white"/>
<path d="M37.0892 43.518L38.1936 43.518C40.5405 43.518 42.6113 45.4507 42.6113 47.9357L42.6113 49.0401C42.6113 51.3871 40.6786 53.4579 38.1936 53.4579L37.0892 53.4579C34.7422 53.4579 32.6714 51.5251 32.6714 49.0401L32.6714 47.9357C32.6714 45.4507 34.6042 43.518 37.0892 43.518Z" fill="#92001F"/>
</svg>
