<svg width="24" height="24" viewBox="0 0 24 24" fill="none" xmlns="http://www.w3.org/2000/svg">
<path d="M10.9362 2.83927L3.24528 7.86126C2.59073 8.32626 2.18164 9.11676 2.18164 9.95376V19.0212C2.18164 20.3697 3.12255 21.4392 4.30891 21.4392H19.6907C20.8771 21.4392 21.818 20.3697 21.818 19.0212V9.95376C21.818 9.07026 21.4089 8.27976 20.7544 7.86126L13.0634 2.83927C12.4089 2.42077 11.5907 2.42077 10.9362 2.83927Z" fill="#DCDCDC"/>
<path d="M21.8172 19.0676V9.95365C21.8172 9.07015 21.4081 8.27965 20.7536 7.86115L14.4127 3.72266L9.38086 16.2311L15.7627 20.3231C16.949 21.1136 18.3399 21.4856 19.6899 21.4856C20.8763 21.4856 21.8172 20.3696 21.8172 19.0676Z" fill="#828282"/>
<path d="M20.7544 7.86126L13.0634 2.83927C12.4089 2.42077 11.5907 2.42077 10.9362 2.83927L3.24528 7.86126C2.59073 8.32626 2.18164 9.11676 2.18164 9.95376V10.0933C2.18164 10.9768 2.59073 11.7673 3.24528 12.1858L10.9362 17.2542C11.5907 17.6727 12.4089 17.6727 13.0634 17.2542L20.7544 12.1858C21.4089 11.7673 21.818 10.9768 21.818 10.0933V9.95376C21.818 9.11676 21.4089 8.32626 20.7544 7.86126Z" fill="#EE0033"/>
<path d="M2.18164 10.0942C2.18164 10.9777 2.59073 11.7682 3.24528 12.1867L10.9362 17.2552C11.5907 17.6737 12.4089 17.6737 13.0634 17.2552L20.7543 12.1867C21.4089 11.7682 21.818 10.9777 21.818 10.0942V9.95473C21.818 9.90823 2.18164 10.0942 2.18164 10.0942Z" fill="#92001F"/>
</svg>
