<svg width="24" height="24" viewBox="0 0 24 24" fill="none" xmlns="http://www.w3.org/2000/svg">
<path d="M11.875 5.25C7.52576 5.25 4 8.77576 4 13.125C4 17.4742 7.52576 21 11.875 21C16.2242 21 19.75 17.4742 19.75 13.125C19.75 8.77576 16.2242 5.25 11.875 5.25ZM11.875 5.25V3M11.875 12C11.2537 12 10.75 12.5037 10.75 13.125C10.75 13.7463 11.2537 14.25 11.875 14.25C12.4963 14.25 13 13.7463 13 13.125C13 12.5037 12.4963 12 11.875 12ZM11.875 12V8.625M17.5 5.25L16.375 6.375M6.25 5.25L7.375 6.375M14.125 3H9.625" stroke="#44494D" stroke-width="1.5" stroke-linecap="round" stroke-linejoin="round"/>
</svg>
