<svg width="25" height="20" viewBox="0 0 25 20" fill="none" xmlns="http://www.w3.org/2000/svg">
<path d="M21.4688 7.68359C21.7449 7.68359 21.9688 7.45974 21.9688 7.18359C21.9688 6.90745 21.7449 6.68359 21.4688 6.68359V7.68359ZM8.53125 6.68359C8.25511 6.68359 8.03125 6.90745 8.03125 7.18359C8.03125 7.45974 8.25511 7.68359 8.53125 7.68359V6.68359ZM17.9258 3.5625C17.9258 3.28636 17.7019 3.0625 17.4258 3.0625C17.1496 3.0625 16.9258 3.28636 16.9258 3.5625H17.9258ZM16.9258 5.17188C16.9258 5.44802 17.1496 5.67188 17.4258 5.67188C17.7019 5.67188 17.9258 5.44802 17.9258 5.17188H16.9258ZM13.0742 3.5625C13.0742 3.28636 12.8504 3.0625 12.5742 3.0625C12.2981 3.0625 12.0742 3.28636 12.0742 3.5625H13.0742ZM12.0742 5.17188C12.0742 5.44802 12.2981 5.67188 12.5742 5.67188C12.8504 5.67188 13.0742 5.44802 13.0742 5.17188H12.0742ZM20.9688 5.97656V14.8281H21.9688V5.97656H20.9688ZM19.8516 15.9375H10.1484V16.9375H19.8516V15.9375ZM9.03125 14.8281V5.97656H8.03125V14.8281H9.03125ZM19.8516 3.86719H10.1484V4.86719H19.8516V3.86719ZM10.1484 15.9375C9.52915 15.9375 9.03125 15.4385 9.03125 14.8281H8.03125C8.03125 15.9954 8.98143 16.9375 10.1484 16.9375V15.9375ZM20.9688 14.8281C20.9688 15.4385 20.4709 15.9375 19.8516 15.9375V16.9375C21.0186 16.9375 21.9688 15.9954 21.9688 14.8281H20.9688ZM21.9688 5.97656C21.9688 4.80931 21.0186 3.86719 19.8516 3.86719V4.86719C20.4709 4.86719 20.9688 5.36615 20.9688 5.97656H21.9688ZM9.03125 5.97656C9.03125 5.36615 9.52915 4.86719 10.1484 4.86719V3.86719C8.98143 3.86719 8.03125 4.80931 8.03125 5.97656H9.03125ZM21.4688 6.68359H8.53125V7.68359H21.4688V6.68359ZM16.9258 3.5625V5.17188H17.9258V3.5625H16.9258ZM12.0742 3.5625V5.17188H13.0742V3.5625H12.0742Z" fill="#44494D"/>
<path d="M18.0844 11.6094C18.0844 13.3128 16.7035 14.6937 15 14.6937C13.2965 14.6937 11.9156 13.3128 11.9156 11.6094C11.9156 9.90592 13.2965 8.525 15 8.525C16.7035 8.525 18.0844 9.90592 18.0844 11.6094Z" stroke="#44494D" stroke-width="0.8" stroke-miterlimit="10" stroke-linecap="round" stroke-linejoin="round"/>
<path d="M15 10.5V12.0821H16.4603" stroke="#44494D" stroke-width="0.8" stroke-miterlimit="10" stroke-linecap="round" stroke-linejoin="round"/>
</svg>
