<svg width="56" height="56" viewBox="0 0 56 56" fill="none" xmlns="http://www.w3.org/2000/svg">
<path d="M27.9996 2.7998L7.34183 8.89564C6.34628 9.22814 5.59961 10.1148 5.59961 11.0015V38.7098C5.59961 39.1531 5.72405 39.4856 5.97294 39.929C12.8174 49.5715 27.9996 55.9998 27.9996 55.9998V2.7998Z" fill="#C4C4C4"/>
<path d="M27.9984 50.458C23.394 48.0196 14.5584 43.5863 10.8251 38.8205C10.7006 38.7096 10.5762 38.488 10.5762 38.2663C10.5762 35.7171 10.5762 19.6463 10.5762 14.4371C10.5762 13.4396 11.3228 12.553 12.4428 12.3313L27.9984 8.34131V50.458Z" fill="#EE0033"/>
<path d="M28 2.7998L48.6578 8.89564C49.6534 9.22814 50.4 10.004 50.4 11.0015V38.7098C50.4 39.1531 50.2756 39.4856 50.0267 39.929C43.1822 49.5715 28 55.9998 28 55.9998V2.7998Z" fill="#C4C4C4"/>
<path d="M28 50.458C32.6045 48.0196 41.44 43.5863 45.1734 38.8205C45.2978 38.5988 45.4223 38.488 45.4223 38.2663C45.4223 35.828 45.4223 20.4221 45.4223 15.4346C45.4223 14.548 44.8 13.6613 43.8045 13.3288L28 8.34131V50.458Z" fill="#EE0033"/>
<path fill-rule="evenodd" clip-rule="evenodd" d="M38.6478 21.8448C39.3838 22.5923 39.3838 23.8042 38.6478 24.5516L26.4343 36.9548C26.0808 37.3138 25.6014 37.5154 25.1016 37.5154C24.6017 37.5154 24.1223 37.3138 23.7688 36.9548L17.3518 30.4381C16.6158 29.6907 16.6158 28.4788 17.3518 27.7313C18.0879 26.9838 19.2813 26.9838 20.0173 27.7313L25.1016 32.8945L35.9823 21.8448C36.7184 21.0973 37.9117 21.0973 38.6478 21.8448Z" fill="white"/>
</svg>
