<svg width="75" height="74" viewBox="0 0 75 74" fill="none" xmlns="http://www.w3.org/2000/svg">
<path d="M32.4317 20.1709L35.1106 20.1709C36.3471 20.1709 37.4805 21.2013 37.4805 22.5407L37.4805 33.2565C37.4805 34.4929 36.4501 35.6263 35.1106 35.6263L32.4317 35.6263C31.1953 35.6263 30.0619 34.596 30.0619 33.2565L30.0619 22.4377C30.0619 21.2013 31.0922 20.1709 32.4317 20.1709Z" fill="#828282"/>
<path d="M33.359 38.6143L34.1833 38.6143C35.9349 38.6143 37.4805 40.0569 37.4805 41.9115L37.4805 42.7358C37.4805 44.4874 36.038 46.033 34.1833 46.033L33.359 46.033C31.6074 46.033 30.0619 44.5905 30.0619 42.7358L30.0619 41.9115C30.0619 40.0569 31.5044 38.6143 33.359 38.6143Z" fill="#C4C4C4"/>
<path d="M65.6772 58.7358L55.7889 48.8475C54.5681 47.6268 54.4461 45.7956 55.1785 44.3307C60.1837 34.9307 58.8409 23.0891 51.15 15.032C41.8721 5.50997 26.2461 4.89958 16.2358 13.8112C5.49294 23.4554 5.12671 40.18 15.2591 50.1904C23.3163 58.2475 35.4019 59.5904 44.924 54.5852C46.3889 53.8527 48.2201 53.9748 49.4409 55.1956L59.4512 65.2059C61.4045 67.1592 64.8227 66.915 66.4097 64.4735C67.5084 62.6423 67.1421 60.3228 65.6772 58.7358ZM22.4617 46.2839C13.428 39.3255 13.428 25.6528 22.4617 18.6944C28.6877 13.9333 37.4773 13.9333 43.7032 18.6944C52.737 25.6528 52.737 39.3255 43.7032 46.2839C37.4773 51.0449 28.5656 51.0449 22.4617 46.2839Z" fill="#EE0033"/>
<path d="M61.5336 54.5752L55.1855 60.9232L59.4583 65.1959C61.1674 66.905 64.0972 66.905 65.8063 65.1959C67.5154 63.4869 67.5154 60.557 65.8063 58.8479L61.5336 54.5752Z" fill="#92001F"/>
</svg>
