<svg width="30" height="30" viewBox="0 0 30 30" fill="none" xmlns="http://www.w3.org/2000/svg">
<path d="M18.9 13.0508L14.9 17.0507C14.65 17.3007 14.25 17.1007 14.25 16.8007V13.0508H18.9Z" fill="#92001F"/>
<path d="M13 15.5499H25.9499C26.4999 15.5499 26.9498 15.0999 26.9498 14.5499V3.99999C26.9498 3.45 26.4999 3 25.9499 3H13C12.45 3 12 3.45 12 3.99999V14.5499C12 15.0999 12.45 15.5499 13 15.5499Z" fill="#EE0033"/>
<path d="M16.7856 5.40854C16.9574 5.28252 17.143 5.16464 17.3426 5.05488C17.5468 4.94512 17.7649 4.84959 17.997 4.76829C18.2291 4.68293 18.4774 4.61789 18.7419 4.57317C19.0111 4.52439 19.3012 4.5 19.6121 4.5C20.0484 4.5 20.4406 4.55081 20.7887 4.65244C21.1414 4.75407 21.4408 4.90041 21.6868 5.09146C21.9328 5.27846 22.1207 5.5061 22.2507 5.77439C22.3853 6.03862 22.4526 6.33334 22.4526 6.65854C22.4526 6.97155 22.4038 7.23984 22.3064 7.46342C22.2089 7.687 22.0836 7.88212 21.9304 8.04879C21.7819 8.21545 21.6172 8.35976 21.4361 8.48171C21.2598 8.5996 21.0904 8.71139 20.9279 8.81708C20.7701 8.92277 20.6309 9.02643 20.5102 9.12806C20.3942 9.22968 20.3223 9.3435 20.2944 9.46952L20.0995 10.3232H18.6236L18.4704 9.34147C18.4658 9.31708 18.4611 9.29269 18.4565 9.2683C18.4565 9.24391 18.4565 9.21952 18.4565 9.19513C18.4565 9.01627 18.5052 8.85976 18.6027 8.72562C18.7001 8.59147 18.8231 8.46952 18.9717 8.35976C19.1202 8.24594 19.2803 8.13822 19.452 8.03659C19.6238 7.9309 19.7839 7.81911 19.9324 7.70122C20.0809 7.57927 20.2039 7.44513 20.3014 7.29879C20.3988 7.14838 20.4476 6.97155 20.4476 6.7683C20.4476 6.52439 20.3547 6.3313 20.1691 6.18903C19.9881 6.04269 19.7375 5.96951 19.4172 5.96951C19.1712 5.96951 18.9647 5.99187 18.7976 6.03659C18.6352 6.0813 18.4936 6.13212 18.3729 6.18903C18.2569 6.24187 18.1548 6.29065 18.0666 6.33537C17.9784 6.38008 17.8903 6.40244 17.8021 6.40244C17.6025 6.40244 17.454 6.32724 17.3565 6.17683L16.7856 5.40854ZM18.0666 12.5244C18.0666 12.3781 18.0968 12.2419 18.1571 12.1159C18.2221 11.9899 18.308 11.8801 18.4147 11.7866C18.5261 11.6931 18.6561 11.6199 18.8046 11.5671C18.9531 11.5102 19.1155 11.4817 19.2919 11.4817C19.4636 11.4817 19.6238 11.5102 19.7723 11.5671C19.9208 11.6199 20.0507 11.6931 20.1621 11.7866C20.2735 11.8801 20.3594 11.9899 20.4197 12.1159C20.4847 12.2419 20.5172 12.3781 20.5172 12.5244C20.5172 12.6707 20.4847 12.809 20.4197 12.939C20.3594 13.0651 20.2735 13.1748 20.1621 13.2683C20.0507 13.3618 19.9208 13.435 19.7723 13.4878C19.6238 13.5407 19.4636 13.5671 19.2919 13.5671C19.1155 13.5671 18.9531 13.5407 18.8046 13.4878C18.6561 13.435 18.5261 13.3618 18.4147 13.2683C18.308 13.1748 18.2221 13.0651 18.1571 12.939C18.0968 12.809 18.0666 12.6707 18.0666 12.5244Z" fill="white"/>
<path d="M15.7995 14.1005V12.512C15.7995 11.271 15.1542 10.0797 14.0621 9.48399C12.9701 8.83867 11.6298 8.83867 10.5377 9.48399C9.44561 10.1293 8.80029 11.271 8.80029 12.512V14.1005C8.80029 15.1926 9.39597 16.235 10.3391 16.7811C11.5801 17.476 13.0693 17.476 14.2607 16.7811C15.2038 16.235 15.7995 15.1926 15.7995 14.1005Z" fill="#C4C4C4"/>
<path d="M12.1446 17.9336C8.07408 17.9336 4.79784 21.0609 4.5 25.0818C6.88272 25.4292 9.464 25.6278 12.1446 25.6278C14.8251 25.6278 17.4064 25.4292 19.7891 25.0818C19.4913 21.0609 16.215 17.9336 12.1446 17.9336Z" fill="#C4C4C4"/>
</svg>
