<svg width="22" height="20" viewBox="0 0 22 20" fill="none" xmlns="http://www.w3.org/2000/svg">
<path d="M11.975 2.74848L19.025 6.72423C19.625 7.09235 20 7.71817 20 8.38079V15.5592C20 16.6268 19.1375 17.4735 18.05 17.4735H3.95002C2.86252 17.4735 2.00002 16.6268 2.00002 15.5592V8.38079C2.00002 7.68135 2.37502 7.05554 2.97502 6.72423L10.025 2.74848C10.625 2.41717 11.375 2.41717 11.975 2.74848Z" fill="#DCDCDC"/>
<path d="M1.99991 15.5968V8.3816C1.99991 7.68216 2.37491 7.05635 2.97491 6.72504L8.78741 3.44873L13.3999 13.3513L7.54991 16.5908C6.46241 17.2166 5.18741 17.5111 3.94991 17.5111C2.86241 17.5111 1.99991 16.6276 1.99991 15.5968Z" fill="#828282"/>
<path d="M2.97502 6.72423L10.025 2.74848C10.625 2.41717 11.375 2.41717 11.975 2.74848L19.025 6.72423C19.625 7.09235 20 7.71817 20 8.38079V8.49123C20 9.19066 19.625 9.81648 19.025 10.1478L11.975 14.1603C11.375 14.4917 10.625 14.4917 10.025 14.1603L2.97502 10.1478C2.37502 9.81648 2.00002 9.19066 2.00002 8.49123V8.38079C2.00002 7.71817 2.37502 7.09235 2.97502 6.72423Z" fill="#EE0033"/>
<path d="M20 8.49183C20 9.19127 19.625 9.81708 19.025 10.1484L11.975 14.161C11.375 14.4923 10.625 14.4923 10.025 14.161L2.97502 10.1484C2.37502 9.81708 2.00002 9.19127 2.00002 8.49183V8.3814C2.00002 8.34458 20 8.49183 20 8.49183Z" fill="#92001F"/>
</svg>
