<svg width="20" height="21" viewBox="0 0 20 21" fill="none" xmlns="http://www.w3.org/2000/svg">
<path fill-rule="evenodd" clip-rule="evenodd" d="M13.5785 5.85875C13.7844 6.2719 13.6175 6.77428 13.2059 6.98085L7.5392 9.82449C7.12755 10.0311 6.62699 9.8636 6.42117 9.45046C6.21534 9.03731 6.3822 8.53493 6.79385 8.32836L12.4605 5.48472C12.8722 5.27815 13.3727 5.44561 13.5785 5.85875Z" fill="#EE0033"/>
<path fill-rule="evenodd" clip-rule="evenodd" d="M6.42117 11.6296C6.62699 11.2165 7.12755 11.049 7.5392 11.2556L13.2059 14.0992C13.6175 14.3058 13.7844 14.8082 13.5785 15.2213C13.3727 15.6345 12.8722 15.8019 12.4605 15.5954L6.79385 12.7517C6.3822 12.5452 6.21534 12.0428 6.42117 11.6296Z" fill="#EE0033"/>
<path fill-rule="evenodd" clip-rule="evenodd" d="M4.16667 8.07275C2.78595 8.07275 1.66667 9.19611 1.66667 10.5818C1.66667 11.9676 2.78595 13.0909 4.16667 13.0909C5.54738 13.0909 6.66667 11.9676 6.66667 10.5818C6.66667 9.19611 5.54738 8.07275 4.16667 8.07275ZM0 10.5818C0 8.27229 1.86548 6.40002 4.16667 6.40002C6.46785 6.40002 8.33333 8.27229 8.33333 10.5818C8.33333 12.8914 6.46785 14.7637 4.16667 14.7637C1.86548 14.7637 0 12.8914 0 10.5818Z" fill="#FE9A00"/>
<path fill-rule="evenodd" clip-rule="evenodd" d="M15.8332 2.21814C14.4525 2.21814 13.3332 3.3415 13.3332 4.72723C13.3332 6.11296 14.4525 7.23632 15.8332 7.23632C17.2139 7.23632 18.3332 6.11296 18.3332 4.72723C18.3332 3.3415 17.2139 2.21814 15.8332 2.21814ZM11.6665 4.72723C11.6665 2.41767 13.532 0.54541 15.8332 0.54541C18.1344 0.54541 19.9998 2.41767 19.9998 4.72723C19.9998 7.03678 18.1344 8.90905 15.8332 8.90905C13.532 8.90905 11.6665 7.03678 11.6665 4.72723Z" fill="#EE0033"/>
<path fill-rule="evenodd" clip-rule="evenodd" d="M15.8332 13.9272C14.4525 13.9272 13.3332 15.0506 13.3332 16.4363C13.3332 17.8221 14.4525 18.9454 15.8332 18.9454C17.2139 18.9454 18.3332 17.8221 18.3332 16.4363C18.3332 15.0506 17.2139 13.9272 15.8332 13.9272ZM11.6665 16.4363C11.6665 14.1268 13.532 12.2545 15.8332 12.2545C18.1344 12.2545 19.9998 14.1268 19.9998 16.4363C19.9998 18.7459 18.1344 20.6182 15.8332 20.6182C13.532 20.6182 11.6665 18.7459 11.6665 16.4363Z" fill="#EE0033"/>
</svg>
