<svg width="15" height="21" viewBox="0 0 15 21" fill="none" xmlns="http://www.w3.org/2000/svg">
<path d="M0 6.5C0.666667 6.5 2 7 2 9C2 11 2.66667 14.8333 3 16.5C3 17.1667 3.4 18.5 5 18.5C6.6 18.5 8 18.5 8.5 18.5" stroke="#FF0048"/>
<circle cx="7" cy="3.5" r="2.5" stroke="#FF0048"/>
<path d="M13 13H10.5C9.94772 13 9.5 12.5523 9.5 12V9.5C9.5 8.94772 9.05228 8.5 8.5 8.5H7C6.44772 8.5 6 8.94772 6 9.5V14.5C6 15.0523 6.44772 15.5 7 15.5H10C10.5523 15.5 11 15.9477 11 16.5V19.5C11 20.0523 11.4477 20.5 12 20.5H13C13.5523 20.5 14 20.0523 14 19.5V14C14 13.4477 13.5523 13 13 13Z" stroke="#FF0048"/>
</svg>
