<svg width="20" height="20" viewBox="0 0 20 20" fill="none" xmlns="http://www.w3.org/2000/svg">
<path fill-rule="evenodd" clip-rule="evenodd" d="M13.3645 13.7818C13.6174 13.4974 14.053 13.4718 14.3374 13.7246L19.7686 18.5523C20.0531 18.8052 20.0787 19.2408 19.8258 19.5253C19.573 19.8097 19.1374 19.8354 18.8529 19.5825L13.4217 14.7548C13.1373 14.5019 13.1116 14.0663 13.3645 13.7818Z" fill="#FE9A00"/>
<path fill-rule="evenodd" clip-rule="evenodd" d="M0 8.86522C0 4.51514 3.55151 0.963623 7.9016 0.963623C12.2517 0.963623 15.8032 4.51514 15.8032 8.86522C15.8032 13.2153 12.2517 16.7668 7.9016 16.7668C3.55151 16.7668 0 13.2153 0 8.86522ZM7.9016 2.17055C4.21808 2.17055 1.20693 5.1817 1.20693 8.86522C1.20693 12.5487 4.21808 15.5599 7.9016 15.5599C11.5851 15.5599 14.5963 12.5487 14.5963 8.86522C14.5963 5.1817 11.5851 2.17055 7.9016 2.17055Z" fill="#EE0033"/>
</svg>
