<svg width="35" height="35" viewBox="0 0 35 35" fill="none" xmlns="http://www.w3.org/2000/svg">
<path d="M30.1156 29.6066H29.7489L26.3265 23.4652C26.0209 22.8511 25.1042 22.8511 24.7375 23.4652L21.3151 29.6066H20.9484C20.4595 29.6066 20.0928 29.9416 20.0928 30.3882C20.0928 30.8349 20.4595 31.1699 20.9484 31.1699H29.9934C30.4823 31.1699 30.849 30.8349 30.849 30.3882C30.9712 29.9416 30.5434 29.6066 30.1156 29.6066Z" fill="#C4C4C4"/>
<path d="M4.87549 24.2469C10.8036 29.6625 20.3987 29.6625 26.3268 24.2469C32.255 18.8313 32.255 10.066 26.3268 4.65039L4.87549 24.2469Z" fill="#C4C4C4"/>
<path d="M18.2369 16.8175C24.1558 11.4103 27.7932 5.96648 26.3612 4.6583C24.9292 3.35012 18.9701 6.67298 13.0511 12.0801C7.13222 17.4873 3.49485 22.9311 4.92684 24.2393C6.35884 25.5474 12.3179 22.2246 18.2369 16.8175Z" fill="#DCDCDC"/>
<path d="M23.1488 7.55337C23.8211 8.16751 21.0098 11.7965 16.854 15.593C12.6981 19.3894 8.72568 21.9576 8.05342 21.3435C7.38115 20.7294 10.1924 17.1004 14.3483 13.3039C18.5041 9.50744 22.4765 6.93924 23.1488 7.55337Z" fill="#EE0033"/>
<path d="M10.437 20.5621C12.0871 19.5571 14.4095 17.7706 16.8541 15.5932C19.2376 13.4158 21.1932 11.2384 22.2933 9.73096C20.6432 10.7359 18.3208 12.5225 15.8762 14.6999C13.4928 16.9331 11.5371 19.0547 10.437 20.5621Z" fill="#92001F"/>
<path d="M15.6928 12.1317L14.0427 11.1825L11.4148 9.67512C10.9258 9.39597 10.6203 8.89349 10.6814 8.39102C10.6814 7.83271 10.4369 7.27441 9.82577 6.99525C9.33685 6.7161 8.66459 6.7161 8.11456 6.99525C7.0756 7.55356 6.95337 8.78183 7.74787 9.50763C8.05344 9.78678 8.54236 9.95427 9.03128 9.95427C9.58131 9.95427 10.0702 10.1776 10.3758 10.6242L12.0259 13.0249L13.0649 14.5324L14.9594 17.2681C15.5706 16.7656 16.2428 16.2073 16.854 15.5932C17.5262 14.979 18.1374 14.4207 18.6874 13.8624L15.6928 12.1317Z" fill="#C4C4C4"/>
<path d="M9.52019 8.11174C9.39796 8.2234 9.21461 8.2234 9.03127 8.16757C8.97015 8.11174 8.90904 8.11174 8.84792 8.16757C8.66458 8.2234 8.48123 8.16757 8.359 8.05591C8.23677 7.88841 8.29789 7.66509 8.48123 7.60926C8.78681 7.44177 9.1535 7.44177 9.39796 7.60926C9.5813 7.72092 9.64242 7.88841 9.52019 8.05591C9.52019 8.05591 9.52019 8.05591 9.52019 8.11174Z" fill="#DCDCDC"/>
</svg>
