<svg width="16" height="17" viewBox="0 0 16 17" fill="none" xmlns="http://www.w3.org/2000/svg">
<path fill-rule="evenodd" clip-rule="evenodd" d="M0 5.14233C0 4.86619 0.223858 4.64233 0.5 4.64233H15.5C15.7761 4.64233 16 4.86619 16 5.14233C16 5.41848 15.7761 5.64233 15.5 5.64233H0.5C0.223858 5.64233 0 5.41848 0 5.14233Z" fill="#EE0033"/>
<path fill-rule="evenodd" clip-rule="evenodd" d="M0 3.14233C0 2.31619 0.673858 1.64233 1.5 1.64233H14.5C15.3261 1.64233 16 2.31619 16 3.14233V7.08569C16 7.36184 15.7761 7.58569 15.5 7.58569C15.2239 7.58569 15 7.36184 15 7.08569V3.14233C15 2.86848 14.7739 2.64233 14.5 2.64233H1.5C1.22614 2.64233 1 2.86848 1 3.14233V14.1423C1 14.4162 1.22614 14.6423 1.5 14.6423H1.50628L1.50628 14.6424L7.50628 14.7178C7.7824 14.7212 8.00343 14.9479 7.99996 15.224C7.99649 15.5001 7.76984 15.7211 7.49372 15.7177L1.49651 15.6423C0.671962 15.6404 0 14.9673 0 14.1423V3.14233Z" fill="#EE0033"/>
<path fill-rule="evenodd" clip-rule="evenodd" d="M4.5 0.142334C4.77614 0.142334 5 0.366192 5 0.642334V2.14233C5 2.41848 4.77614 2.64233 4.5 2.64233C4.22386 2.64233 4 2.41848 4 2.14233V0.642334C4 0.366192 4.22386 0.142334 4.5 0.142334Z" fill="#EE0033"/>
<path fill-rule="evenodd" clip-rule="evenodd" d="M11.5 0.142334C11.7761 0.142334 12 0.366192 12 0.642334V2.14233C12 2.41848 11.7761 2.64233 11.5 2.64233C11.2239 2.64233 11 2.41848 11 2.14233V0.642334C11 0.366192 11.2239 0.142334 11.5 0.142334Z" fill="#EE0033"/>
<path fill-rule="evenodd" clip-rule="evenodd" d="M11.5 7.64233C9.567 7.64233 8 9.20934 8 11.1423C8 13.0753 9.567 14.6423 11.5 14.6423C13.433 14.6423 15 13.0753 15 11.1423C15 9.20934 13.433 7.64233 11.5 7.64233ZM7 11.1423C7 8.65705 9.01472 6.64233 11.5 6.64233C13.9853 6.64233 16 8.65705 16 11.1423C16 13.6276 13.9853 15.6423 11.5 15.6423C9.01472 15.6423 7 13.6276 7 11.1423Z" fill="#EE0033"/>
<path fill-rule="evenodd" clip-rule="evenodd" d="M11.6499 8.79236C11.926 8.79236 12.1499 9.01622 12.1499 9.29236V11.2924C12.1499 11.5685 11.926 11.7924 11.6499 11.7924H9.6499C9.37376 11.7924 9.1499 11.5685 9.1499 11.2924C9.1499 11.0162 9.37376 10.7924 9.6499 10.7924H11.1499V9.29236C11.1499 9.01622 11.3738 8.79236 11.6499 8.79236Z" fill="#EE0033"/>
</svg>
