<svg width="28" height="28" viewBox="0 0 28 28" fill="none" xmlns="http://www.w3.org/2000/svg">
<path d="M21.013 12.8336C21.013 8.98726 17.8949 5.86914 14.0485 5.86914C10.2021 5.86914 7.08398 8.98726 7.08398 12.8336" stroke="#828282"/>
<path d="M6.93781 19.1557C4.87062 18.7328 3.30078 16.8632 3.30078 14.6082C3.30078 12.3532 4.87062 10.4836 6.93781 10.0607C7.03553 10.0407 7.12199 10.0681 7.19489 10.1366C7.27285 10.2098 7.33103 10.3296 7.33103 10.4707V18.7457C7.33103 18.8868 7.27285 19.0066 7.19489 19.0798C7.12199 19.1483 7.03553 19.1757 6.93781 19.1557Z" fill="#EE0033" stroke="#EE0033"/>
<path d="M21.0641 10.0611C23.1313 10.484 24.7012 12.3536 24.7012 14.6086C24.7012 16.8636 23.1313 18.7331 21.0641 19.1561C20.9664 19.1761 20.88 19.1487 20.8071 19.0802C20.7291 19.007 20.6709 18.8872 20.6709 18.7461L20.6709 10.4711C20.6709 10.33 20.7291 10.2102 20.8071 10.137C20.88 10.0685 20.9664 10.0411 21.0641 10.0611Z" fill="#EE0033" stroke="#EE0033"/>
<path d="M6.99609 18.5312V21.0252C6.99609 22.6821 8.33922 24.0252 9.99607 24.0252L11.8317 24.0252" stroke="#EE0033"/>
<ellipse cx="12.1088" cy="24.0248" rx="1.19672" ry="1.19672" fill="#92001F"/>
</svg>
