<svg width="16" height="17" viewBox="0 0 16 17" fill="none" xmlns="http://www.w3.org/2000/svg">
<g clip-path="url(#clip0)">
<path fill-rule="evenodd" clip-rule="evenodd" d="M1.2998 6.60205C1.57054 6.60205 1.79002 6.82153 1.79002 7.09228V15.1521H6.5498C6.82054 15.1521 7.04002 15.3715 7.04002 15.6423C7.04002 15.913 6.82054 16.1325 6.5498 16.1325H1.2998C1.02905 16.1325 0.80957 15.913 0.80957 15.6423V7.09228C0.80957 6.82153 1.02905 6.60205 1.2998 6.60205ZM14.6998 6.65205C14.9705 6.65205 15.19 6.87153 15.19 7.14228V15.6423C15.19 15.913 14.9705 16.1325 14.6998 16.1325H9.4498C9.17905 16.1325 8.95957 15.913 8.95957 15.6423C8.95957 15.3715 9.17905 15.1521 9.4498 15.1521H14.2096V7.14228C14.2096 6.87153 14.4291 6.65205 14.6998 6.65205Z" fill="#EE0033"/>
<path fill-rule="evenodd" clip-rule="evenodd" d="M2.56292 0.399513C2.65111 0.24078 2.81842 0.142334 3 0.142334H13C13.1816 0.142334 13.3489 0.24078 13.4371 0.399513L15.9371 4.89951C15.9783 4.97379 16 5.05736 16 5.14233C16 6.81848 14.6761 8.14233 13 8.14233C11.9477 8.14233 11.0342 7.62049 10.5 6.81726C9.96583 7.62049 9.05235 8.14233 8 8.14233C6.94765 8.14233 6.03417 7.62049 5.5 6.81726C4.96583 7.62049 4.05235 8.14233 3 8.14233C1.32386 8.14233 0 6.81848 0 5.14233C0 5.05736 0.0216553 4.97379 0.0629214 4.89951L2.56292 0.399513ZM6 5.14233C6 6.26619 6.87614 7.14233 8 7.14233C9.12386 7.14233 10 6.26619 10 5.14233C10 4.86619 10.2239 4.64233 10.5 4.64233C10.7761 4.64233 11 4.86619 11 5.14233C11 6.26619 11.8761 7.14233 13 7.14233C14.0824 7.14233 14.9351 6.32957 14.9965 5.26553L12.7058 1.14233H3.2942L1.00354 5.26553C1.0649 6.32957 1.91755 7.14233 3 7.14233C4.12386 7.14233 5 6.26619 5 5.14233C5 4.86619 5.22386 4.64233 5.5 4.64233C5.77614 4.64233 6 4.86619 6 5.14233Z" fill="#EE0033"/>
<path fill-rule="evenodd" clip-rule="evenodd" d="M6 11.6423C6 11.3662 6.22386 11.1423 6.5 11.1423H9.5C9.77614 11.1423 10 11.3662 10 11.6423V15.6423C10 15.9185 9.77614 16.1423 9.5 16.1423C9.22386 16.1423 9 15.9185 9 15.6423V12.1423H7V15.6423C7 15.9185 6.77614 16.1423 6.5 16.1423C6.22386 16.1423 6 15.9185 6 15.6423V11.6423Z" fill="#EE0033"/>
</g>
<defs>
<clipPath id="clip0">
<rect width="16" height="16" fill="white" transform="translate(0 0.038208)"/>
</clipPath>
</defs>
</svg>
