<svg width="12" height="12" viewBox="0 0 12 12" fill="none" xmlns="http://www.w3.org/2000/svg">
<path fill-rule="evenodd" clip-rule="evenodd" d="M1.85275 6.62271C2.70763 6.33446 4.01627 6 5.5 6V7C4.15986 7 2.96361 7.30348 2.17249 7.57021C1.77118 7.70607 1.5 8.08582 1.5 8.516V10H5.5V11H0.5V8.516C0.5 7.66326 1.03918 6.89792 1.85275 6.62271Z" fill="#576C8A"/>
<path fill-rule="evenodd" clip-rule="evenodd" d="M5.5 1C4.39564 1 3.5 1.89564 3.5 3V3.5C3.5 4.06589 3.73424 4.70945 4.12589 5.20931C4.51905 5.71109 5.01301 6 5.5 6C5.98699 6 6.48095 5.71109 6.87411 5.20931C7.26576 4.70945 7.5 4.06589 7.5 3.5V3C7.5 1.89564 6.60436 1 5.5 1ZM2.5 3C2.5 1.34336 3.84336 0 5.5 0C7.15664 0 8.5 1.34336 8.5 3V3.5C8.5 4.31461 8.17449 5.17105 7.66126 5.82607C7.14955 6.47916 6.39351 7 5.5 7C4.60649 7 3.85045 6.47916 3.33874 5.82607C2.82551 5.17105 2.5 4.31461 2.5 3.5V3Z" fill="#576C8A"/>
<path fill-rule="evenodd" clip-rule="evenodd" d="M8.99983 7.5C8.30153 7.5 7.71358 7.97765 7.54705 8.62463L6.57861 8.37537C6.85608 7.29735 7.83414 6.5 8.99983 6.5C9.92556 6.5 10.7329 7.00351 11.1645 7.74894L10.2991 8.25006C10.0388 7.80049 9.5541 7.5 8.99983 7.5Z" fill="#576C8A"/>
<path d="M11.6102 6.82446L11.3962 8.99996L9.26123 8.53046L11.6102 6.82446Z" fill="#576C8A"/>
<path fill-rule="evenodd" clip-rule="evenodd" d="M9.00014 11.0001C9.69844 11.0001 10.2864 10.5225 10.4529 9.87549L11.4214 10.1248C11.1439 11.2028 10.1658 12.0001 9.00014 12.0001C8.0744 12.0001 7.26711 11.4966 6.83545 10.7512L7.70083 10.2501C7.96116 10.6996 8.44587 11.0001 9.00014 11.0001Z" fill="#576C8A"/>
<path d="M6.39014 11.6755L6.60414 9.5L8.73914 9.9695L6.39014 11.6755Z" fill="#576C8A"/>
</svg>
