<svg width="25" height="24" viewBox="0 0 25 24" fill="none" xmlns="http://www.w3.org/2000/svg">
<g clip-path="url(#clip0)">
<path d="M14.1126 18.4603C13.6762 18.4603 13.3243 18.0961 13.3243 17.6444V16.457H11.0687V17.6444C11.0687 18.0961 10.7168 18.4603 10.2805 18.4603C9.59076 18.4603 9.03125 19.0394 9.03125 19.7533C9.03125 20.1139 9.31276 20.4017 9.65762 20.4017H12.1948H14.7319C15.0803 20.4017 15.3583 20.1103 15.3583 19.7533C15.3618 19.0394 14.8023 18.4603 14.1126 18.4603Z" fill="#92001F"/>
<path d="M14.5841 18.4609H9.80541C9.3761 18.4609 9.03125 18.8215 9.03125 19.2622V19.7503C9.03125 20.1109 9.31276 20.3986 9.65762 20.3986H12.1948H14.7319C15.0803 20.3986 15.3583 20.1073 15.3583 19.7503V19.2622C15.3618 18.8215 15.0134 18.4609 14.5841 18.4609Z" fill="#EE0033"/>
<path d="M19.2192 17.1846H5.17164C4.38692 17.1846 3.75 16.5254 3.75 15.7131V6.27227C3.75 5.46004 4.38692 4.80078 5.17164 4.80078H19.2192C20.0039 4.80078 20.6408 5.46004 20.6408 6.27227V15.7131C20.6408 16.5254 20.0039 17.1846 19.2192 17.1846Z" fill="#DCDCDC"/>
<path d="M3.75 15.0762V15.7136C3.75 16.5258 4.38692 17.1851 5.17164 17.1851H19.2192C20.0039 17.1851 20.6408 16.5258 20.6408 15.7136V15.0762H3.75Z" fill="#EE0033"/>
<path d="M20.6408 14.3262H3.75V15.0765H20.6408V14.3262Z" fill="#828282"/>
<path d="M12.1953 16.4955C12.3915 16.4955 12.5507 16.3308 12.5507 16.1276C12.5507 15.9245 12.3915 15.7598 12.1953 15.7598C11.999 15.7598 11.8398 15.9245 11.8398 16.1276C11.8398 16.3308 11.999 16.4955 12.1953 16.4955Z" fill="#92001F"/>
<path d="M7.58585 11.7748C7.58585 11.9897 7.41695 12.1608 7.21285 12.1608C7.00523 12.1608 6.83984 11.986 6.83984 11.7748C6.83984 11.5635 7.00875 11.3887 7.21285 11.3887C7.41695 11.3887 7.58585 11.5599 7.58585 11.7748Z" fill="#DCDCDC"/>
<path d="M9.28319 9.30699C8.9943 9.01966 8.50579 9.27684 8.58223 9.67602L8.80313 10.8295C8.8187 10.9108 8.85849 10.9856 8.91733 11.0441L9.62655 11.7495C9.71073 11.8332 9.827 11.877 9.94581 11.8696L11.5602 11.7692C11.679 11.7618 11.7953 11.8056 11.8794 11.8893L12.9068 12.9111C13.2956 13.2979 13.9261 13.2979 14.315 12.9111C14.7039 12.5243 14.7039 11.8972 14.315 11.5104L13.2877 10.4886C13.2035 10.4049 13.1595 10.2892 13.167 10.1711L13.2679 8.56539C13.2753 8.44722 13.2313 8.33157 13.1471 8.24785L12.4379 7.54243C12.3791 7.48391 12.3039 7.44434 12.2222 7.42885L11.0624 7.20914C10.6611 7.13311 10.4025 7.619 10.6914 7.90633L11.326 8.53745C11.65 8.85977 11.65 9.38235 11.326 9.70467L11.0912 9.93811C10.7672 10.2604 10.2418 10.2604 9.91772 9.93811L9.28319 9.30699Z" fill="#EE0033"/>
</g>
<defs>
<clipPath id="clip0">
<rect width="16.8908" height="15.6" fill="white" transform="translate(3.75 4.80078)"/>
</clipPath>
</defs>
</svg>
