<svg width="24" height="24" viewBox="0 0 24 24" fill="none" xmlns="http://www.w3.org/2000/svg">
<path d="M18.0104 11.0008C18.0104 7.70392 15.3378 5.03125 12.0409 5.03125C8.74396 5.03125 6.07129 7.70392 6.07129 11.0008" stroke="#828282"/>
<path d="M5.83677 16.3213C4.15944 15.9183 2.89941 14.3748 2.89941 12.5208C2.89941 10.6667 4.15944 9.12322 5.83677 8.72025C5.92749 8.69845 6.00688 8.7217 6.07653 8.78642C6.15237 8.8569 6.21106 8.97586 6.21106 9.11719V15.9244C6.21106 16.0657 6.15237 16.1846 6.07653 16.2551C6.00688 16.3198 5.92749 16.3431 5.83677 16.3213Z" fill="#EE0033" stroke="#EE0033"/>
<path d="M18.1623 8.72167C19.8396 9.12464 21.0996 10.6681 21.0996 12.5222C21.0996 14.3762 19.8396 15.9198 18.1623 16.3227C18.0715 16.3445 17.9921 16.3213 17.9225 16.2565C17.8466 16.1861 17.788 16.0671 17.788 15.9258L17.788 9.11861C17.788 8.97728 17.8466 8.85832 17.9225 8.78784C17.9921 8.72312 18.0715 8.69987 18.1623 8.72167Z" fill="#EE0033" stroke="#EE0033"/>
<path d="M5.99512 15.8848V17.5939C5.99512 19.2507 7.33825 20.5939 8.99509 20.5939L10.14 20.5939" stroke="#EE0033"/>
<ellipse cx="10.3773" cy="20.5941" rx="1.02576" ry="1.02576" fill="#92001F"/>
</svg>
