<svg width="12" height="13" viewBox="0 0 12 13" fill="none" xmlns="http://www.w3.org/2000/svg">
<path fill-rule="evenodd" clip-rule="evenodd" d="M0 0.453125C0 0.246018 0.167893 0.078125 0.375 0.078125H5.25C5.34946 0.078125 5.44484 0.117634 5.51516 0.18796L11.8902 6.56296C12.0366 6.70941 12.0366 6.94684 11.8902 7.09329L7.01517 11.9683C6.86872 12.1147 6.63128 12.1147 6.48483 11.9683L0.109835 5.59329C0.0395088 5.52296 0 5.42758 0 5.32812V0.453125ZM0.75 0.828125V5.1728L6.75 11.1728L11.0947 6.82812L5.09467 0.828125H0.75Z" fill="#EE0033"/>
<path d="M3 3.82812C3.41421 3.82812 3.75 3.49234 3.75 3.07812C3.75 2.66391 3.41421 2.32812 3 2.32812C2.58579 2.32812 2.25 2.66391 2.25 3.07812C2.25 3.49234 2.58579 3.82812 3 3.82812Z" fill="#FE9A00"/>
</svg>
