<svg width="19" height="19" viewBox="0 0 19 19" fill="none" xmlns="http://www.w3.org/2000/svg">
<path d="M9.50016 4.74984C6.43958 4.74984 3.9585 7.23093 3.9585 10.2915C3.9585 13.3521 6.43958 15.8332 9.50016 15.8332C12.5607 15.8332 15.0418 13.3521 15.0418 10.2915C15.0418 7.23093 12.5607 4.74984 9.50016 4.74984ZM9.50016 4.74984V3.1665M9.50016 9.49984C9.06294 9.49984 8.7085 9.85428 8.7085 10.2915C8.7085 10.7287 9.06294 11.0832 9.50016 11.0832C9.93739 11.0832 10.2918 10.7287 10.2918 10.2915C10.2918 9.85428 9.93739 9.49984 9.50016 9.49984ZM9.50016 9.49984V7.12484M13.4585 4.74984L12.6668 5.5415M5.54183 4.74984L6.3335 5.5415M11.0835 3.1665H7.91683" stroke="#44494D" stroke-linecap="round" stroke-linejoin="round"/>
</svg>
