<svg width="72" height="72" viewBox="0 0 72 72" fill="none" xmlns="http://www.w3.org/2000/svg">
<path d="M17.71 28.2495H17.6059C17.3977 28.2495 17.1895 28.0404 17.1895 27.8312V24.6937C17.1895 24.4846 17.3977 24.2754 17.6059 24.2754H17.71V28.2495Z" fill="#828282"/>
<path d="M17.71 32.852H17.6059C17.3977 32.852 17.1895 32.7474 17.1895 32.5382V29.4008C17.1895 29.1916 17.3977 28.9824 17.6059 28.9824H17.71V32.852Z" fill="#828282"/>
<path d="M49.5703 24.3809H49.6744C49.8827 24.3809 50.0909 24.59 50.0909 24.7992V27.9367C50.0909 28.1458 49.8827 28.355 49.6744 28.355H49.5703V24.3809Z" fill="#828282"/>
<path d="M41.3278 64.6269H17.3164C13.6966 64.6269 10.8008 61.7643 10.8008 58.1861V13.8158C10.8008 10.2376 13.6966 7.375 17.3164 7.375H41.3278C44.9476 7.375 47.8435 10.2376 47.8435 13.8158V58.1861C47.7228 61.7643 44.827 64.6269 41.3278 64.6269Z" fill="#DCDCDC"/>
<path d="M41.3278 7.375H17.3164C13.6966 7.375 10.8008 10.2376 10.8008 13.8158V58.1861C10.8008 61.7643 13.6966 64.6269 17.3164 64.6269H41.3278C44.9476 64.6269 47.8435 61.7643 47.8435 58.1861V13.8158C47.7228 10.2376 44.827 7.375 41.3278 7.375ZM45.3096 58.1861C45.3096 60.4523 43.4997 62.2414 41.2072 62.2414H17.3164C15.0239 62.2414 13.214 60.4523 13.214 58.1861V13.8158C13.214 11.5496 15.0239 9.7605 17.3164 9.7605H20.3329C20.9362 9.7605 21.6602 9.99905 22.0222 10.5954C22.3842 11.0725 23.1081 11.4303 23.7114 11.4303H34.8122C35.4155 11.4303 36.1394 11.1918 36.5014 10.5954C36.9841 9.99905 37.5874 9.7605 38.1907 9.7605H41.2072C43.4997 9.7605 45.3096 11.5496 45.3096 13.8158V58.1861Z" fill="#828282"/>
<rect x="23.6543" y="14.498" width="37.5474" height="22.4395" rx="1" fill="#EE0033"/>
<path d="M23.6543 15.498C23.6543 14.9458 24.102 14.498 24.6543 14.498H60.2017C60.7539 14.498 61.2017 14.9458 61.2017 15.498V20.7312H23.6543V15.498Z" fill="#92001F"/>
<path d="M23.6543 29.457H61.2017V32.5736H23.6543V29.457Z" fill="white"/>
</svg>
