<svg width="15" height="15" viewBox="0 0 15 15" fill="none" xmlns="http://www.w3.org/2000/svg">
<path fill-rule="evenodd" clip-rule="evenodd" d="M7.45676 0.98584C3.9663 0.98584 1.13672 3.81542 1.13672 7.30588C1.13672 10.7963 3.9663 13.6259 7.45676 13.6259C10.9472 13.6259 13.7768 10.7963 13.7768 7.30588C13.7768 3.81542 10.9472 0.98584 7.45676 0.98584ZM0.199219 7.30588C0.199219 3.29765 3.44853 0.0483398 7.45676 0.0483398C11.465 0.0483398 14.7143 3.29765 14.7143 7.30588C14.7143 11.3141 11.465 14.5634 7.45676 14.5634C3.44853 14.5634 0.199219 11.3141 0.199219 7.30588Z" fill="#EE0033"/>
<path fill-rule="evenodd" clip-rule="evenodd" d="M7.45616 2.7666C7.71504 2.7666 7.92491 2.97647 7.92491 3.23535V8.27591C7.92491 8.5348 7.71504 8.74466 7.45616 8.74466H3.67383C3.41494 8.74466 3.20508 8.5348 3.20508 8.27591C3.20508 8.01703 3.41494 7.80716 3.67383 7.80716H6.98741V3.23535C6.98741 2.97647 7.19727 2.7666 7.45616 2.7666Z" fill="#FE9A00"/>
</svg>
