<svg width="67" height="66" viewBox="0 0 67 66" fill="none" xmlns="http://www.w3.org/2000/svg">
<path d="M48.0866 19.686H47.5396H46.7954H46.0511H40.3671H19.4812H16.7414H14.4358H14.0085H12.5764C11.8181 19.686 11.1396 20.0304 10.6982 20.5759C10.4963 20.8255 10.3437 21.1144 10.2568 21.431C10.2028 21.6298 10.1699 21.8378 10.1699 22.0504V22.3347V25.0296V48.3985C10.1699 49.7044 11.2452 50.7629 12.5717 50.7629H48.0819C49.4084 50.7629 50.4837 49.7044 50.4837 48.3985V22.0504C50.4884 20.7446 49.4131 19.686 48.0866 19.686Z" fill="#DCDCDC"/>
<path d="M40.5424 16.982C40.2456 15.9281 39.249 15.2371 38.1632 15.2371C37.9461 15.2371 37.7289 15.2648 37.5117 15.3226L12.791 19.6862H20.8141H35.0891H38.723H41.3121L40.5424 16.982Z" fill="#92001F"/>
<path d="M48.0386 42.9001C52.5949 42.9001 56.2886 39.2065 56.2886 34.6502C56.2886 30.0938 52.5949 26.4001 48.0386 26.4001C43.4822 26.4001 39.7886 30.0938 39.7886 34.6502C39.7886 39.2065 43.4822 42.9001 48.0386 42.9001Z" fill="#EE0033"/>
<path fill-rule="evenodd" clip-rule="evenodd" d="M53.0878 31.5607C53.4656 31.9385 53.4656 32.551 53.0878 32.9288L46.8191 39.1975C46.6377 39.379 46.3916 39.4809 46.135 39.4809C45.8785 39.4809 45.6324 39.379 45.451 39.1975L42.1574 35.9039C41.7796 35.5261 41.7796 34.9136 42.1574 34.5358C42.5352 34.158 43.1477 34.158 43.5255 34.5358L46.135 37.1454L51.7198 31.5607C52.0975 31.1829 52.7101 31.1829 53.0878 31.5607Z" fill="white"/>
</svg>
