<svg width="25" height="24" viewBox="0 0 25 24" fill="none" xmlns="http://www.w3.org/2000/svg">
<path d="M19.1125 17.5895L18.17 18.5371C17.8269 18.882 17.331 19.0494 16.8365 18.9872L15.8888 18.8681C9.63718 18.0825 5.10193 12.8059 5.52766 6.81346C5.55687 6.4023 5.77939 6.02568 6.13322 5.78851L6.99503 5.21087C7.54186 4.84435 8.29687 4.96773 8.68416 5.48691L9.84579 7.04412C10.1842 7.49782 10.2389 8.09029 9.98878 8.59328L9.5905 9.39414C9.5905 9.39414 8.78718 11.0095 11.1972 13.4325C13.6072 15.8555 15.2138 14.644 15.2138 14.644L15.6276 14.332C16.3028 13.8228 17.2746 13.889 17.8669 14.4846L19.1125 15.7369C19.6292 16.2564 19.6292 17.07 19.1125 17.5895Z" stroke="black" stroke-width="0.833333" stroke-linecap="round" stroke-linejoin="round"/>
</svg>
