<svg width="70" height="70" viewBox="0 0 70 70" fill="none" xmlns="http://www.w3.org/2000/svg">
<path d="M61.6533 55.5618L52.2996 46.208C51.1448 45.0532 51.0293 43.3211 51.7222 41.9353C56.4568 33.0434 55.1865 21.842 47.9114 14.2204C39.135 5.21305 24.3537 4.63565 14.8844 13.0656C4.72228 22.1884 4.37585 38.009 13.9606 47.4783C21.5822 55.0999 33.0146 56.3702 42.0219 51.6355C43.4077 50.9427 45.1399 51.0581 46.2947 52.2129L55.7639 61.6822C57.6116 63.5299 60.845 63.2989 62.3462 60.9893C63.3855 59.2571 63.0391 57.063 61.6533 55.5618ZM20.7738 43.783C12.2284 37.2007 12.2284 24.2671 20.7738 17.6848C26.6633 13.1811 34.9777 13.1811 40.8672 17.6848C49.4126 24.2671 49.4126 37.2007 40.8672 43.783C34.9777 48.2867 26.5478 48.2867 20.7738 43.783Z" fill="#EE0033"/>
<path d="M57.7334 51.627L51.7285 57.6319L55.7703 61.6736C57.387 63.2903 60.1585 63.2903 61.7752 61.6736C63.3919 60.0569 63.3919 57.2854 61.7752 55.6687L57.7334 51.627Z" fill="#92001F"/>
<path d="M18.459 24.8613C18.459 24.309 18.9067 23.8613 19.459 23.8613H41.9205C42.4727 23.8613 42.9205 24.309 42.9205 24.8613V38.0382C42.9205 38.3144 42.6966 38.5382 42.4205 38.5382H18.959C18.6828 38.5382 18.459 38.3144 18.459 38.0382V24.8613Z" fill="#DCDCDC"/>
<path d="M18.459 24.3613C18.459 24.0852 18.6828 23.8613 18.959 23.8613H42.4205C42.6966 23.8613 42.9205 24.0852 42.9205 24.3613V27.9382H18.459V24.3613Z" fill="#828282"/>
<path d="M18.459 33.6465H42.9205V35.6849H18.459V33.6465Z" fill="#828282"/>
</svg>
