<svg width="72" height="72" viewBox="0 0 72 72" fill="none" xmlns="http://www.w3.org/2000/svg">
<path d="M14.3984 25.2012H21.5984V54.0012H14.3984V25.2012Z" fill="#EE0033"/>
<path d="M32.3984 25.2012H39.5984V54.0012H32.3984V25.2012Z" fill="#EE0033"/>
<path d="M50.3984 25.2012H57.5984V54.0012H50.3984V25.2012Z" fill="#EE0033"/>
<path d="M61.1992 60.2012C61.1992 60.7535 60.7515 61.2012 60.1992 61.2012L11.7992 61.2012C11.2469 61.2012 10.7992 60.7535 10.7992 60.2012L10.7992 54.0012L61.1992 54.0012L61.1992 60.2012Z" fill="#C4C4C4"/>
<path d="M61.1578 25.2008H10.7578L35.9578 10.8008L61.1578 25.2008Z" fill="#C4C4C4"/>
<path d="M10.7988 25.2012H25.1988V28.8012H10.7988V25.2012Z" fill="#92001F"/>
<path d="M28.7988 25.2012H43.1988V28.8012H28.7988V25.2012Z" fill="#92001F"/>
<path d="M46.7988 25.2012H61.1988V28.8012H46.7988V25.2012Z" fill="#92001F"/>
<path d="M10.7988 50.4004H25.1988V54.0004H10.7988V50.4004Z" fill="#92001F"/>
<path d="M28.7988 50.4004H43.1988V54.0004H28.7988V50.4004Z" fill="#92001F"/>
<path d="M46.7988 50.4004H61.1988V54.0004H46.7988V50.4004Z" fill="#92001F"/>
</svg>
