<svg width="29" height="37" viewBox="0 0 29 37" fill="none" xmlns="http://www.w3.org/2000/svg">
<path d="M26.9662 23.4081H19.5777C16.4376 23.4081 13.8516 20.7652 13.8516 17.556V8.68359H26.9662C28.0745 8.68359 28.9981 9.62747 28.9981 10.7601V21.3316C28.9981 22.4642 28.0745 23.4081 26.9662 23.4081Z" fill="#92001F"/>
<path d="M2.7707 37H0V1.5102C0 0.566327 0.55414 0 1.47771 0C2.21656 0 2.95541 0.566327 2.95541 1.5102V37H2.7707Z" fill="#EE0033"/>
<path d="M15.8842 3.39746H2.76953V18.122H12.1899C13.1135 18.122 13.8523 18.6883 14.2218 19.6322C14.4065 20.0097 14.5912 20.3873 14.7759 20.576C15.6995 22.0862 18.1007 21.5199 18.1007 19.6322C18.1007 17.7444 18.1007 15.8566 18.1007 15.8566V12.0811V5.28522C17.916 4.15256 16.9925 3.39746 15.8842 3.39746Z" fill="#EE0033"/>
</svg>
