<svg width="16" height="16" viewBox="0 0 16 16" fill="none" xmlns="http://www.w3.org/2000/svg">
<path d="M9.37123 9.90809L8.11906 11.1603C7.46316 10.7429 6.80726 10.2659 6.27061 9.72921C5.73396 9.19257 5.25695 8.53667 4.83955 7.88076L6.09173 6.62859C6.27061 6.44971 6.27061 6.2112 6.21098 6.03232L4.89918 2.99132C4.77993 2.69319 4.54142 2.57393 4.24328 2.63356L1.85819 3.28946C1.61968 3.34909 1.4408 3.5876 1.4408 3.82611C1.61968 6.62859 2.7526 9.25219 4.7203 11.2795C6.74763 13.2472 9.37123 14.3801 12.1737 14.559C12.4122 14.559 12.6507 14.3801 12.7104 14.1416L13.3663 11.7565C13.4259 11.518 13.3066 11.2199 13.0681 11.1006L9.96751 9.78884C9.78862 9.72921 9.55011 9.72921 9.37123 9.90809Z" stroke="#444444" stroke-miterlimit="10" stroke-linecap="square"/>
<path d="M9.19238 1.44092C12.1737 1.44092 14.5588 3.82601 14.5588 6.80738" stroke="#444444" stroke-miterlimit="10" stroke-linecap="square"/>
<path d="M9.19238 3.82617C10.8619 3.82617 12.1737 5.13797 12.1737 6.80754" stroke="#444444" stroke-miterlimit="10" stroke-linecap="square"/>
</svg>
