<svg width="80" height="80" viewBox="0 0 80 80" fill="none" xmlns="http://www.w3.org/2000/svg">
<path d="M43.0095 66.6365H37.7714C37.2889 66.6365 36.8984 67.0269 36.8984 67.5095V68.3825C36.8984 70.3084 38.4646 71.8745 40.3905 71.8745C42.3163 71.8745 43.8825 70.3084 43.8825 68.3825V67.5095C43.8825 67.0269 43.4921 66.6365 43.0095 66.6365Z" fill="#C4C4C4"/>
<path d="M40.3896 66.6365H37.7715C37.2889 66.6365 36.8984 67.0269 36.8984 67.5095V68.3825C36.8984 70.3081 38.4641 71.874 40.3896 71.8744V66.6365Z" fill="#828282"/>
<path d="M54.1357 21.4451C50.0553 17.6103 44.7108 15.6896 39.1053 16.0412C28.89 16.6769 20.6373 25.1981 20.3185 35.441C20.0832 43.0304 24.0697 50.0179 30.723 53.6778C32.3769 54.5884 33.4042 56.3369 33.4042 58.2424V64.8897C33.4042 66.8155 34.9704 68.3817 36.8963 68.3817H43.8803C45.8062 68.3817 47.3724 66.8155 47.3724 64.8897V58.2424C47.3724 56.3387 48.4073 54.5858 50.075 53.6667C56.4853 50.1304 60.4675 43.3918 60.4675 36.0804C60.4675 30.561 58.1597 25.2266 54.1357 21.4451Z" fill="#92001F"/>
<path d="M40.3887 52.5584C49.4894 52.5584 56.867 45.1808 56.867 36.0801C56.867 26.9794 49.4894 19.6018 40.3887 19.6018C31.288 19.6018 23.9104 26.9794 23.9104 36.0801C23.9104 45.1808 31.288 52.5584 40.3887 52.5584Z" fill="#EE0033"/>
<path d="M43.4394 41.3199C42.2791 41.3199 41.6858 40.643 41.2535 40.1493C40.8725 39.7146 40.7207 39.5739 40.3805 39.5739C40.042 39.5739 39.8912 39.7146 39.5118 40.1485C39.1043 40.6148 38.4878 41.3199 37.3275 41.3199C36.168 41.3199 35.5517 40.6148 35.1441 40.1485C34.7647 39.7146 34.6139 39.5739 34.2754 39.5739C33.7928 39.5739 33.4023 39.1834 33.4023 38.7009C33.4023 38.2183 33.7928 37.8279 34.2754 37.8279C35.4348 37.8279 36.0512 38.5329 36.4587 38.9992C36.8382 39.4332 36.989 39.5739 37.3275 39.5739C37.666 39.5739 37.8177 39.4332 38.1971 38.9992C38.6046 38.5329 39.2211 37.8279 40.3805 37.8279C41.5409 37.8279 42.1342 38.5048 42.5664 38.9985C42.9475 39.4332 43.0993 39.5739 43.4394 39.5739C43.7787 39.5739 43.9305 39.4332 44.3116 38.9992C44.7199 38.5329 45.3364 37.8279 46.4975 37.8279C46.98 37.8279 47.3705 38.2183 47.3705 38.7009C47.3705 39.1834 46.98 39.5739 46.4975 39.5739C46.1573 39.5739 46.0055 39.7146 45.6245 40.1493C45.2161 40.6157 44.5998 41.3199 43.4394 41.3199Z" fill="white"/>
<path d="M37.7692 57.904C37.3676 57.904 37.0062 57.6252 36.9166 57.2169L32.5516 37.1376C32.4492 36.6662 32.7485 36.2016 33.2191 36.0984C33.6931 35.9944 34.1552 36.2954 34.2583 36.766L38.6233 56.8452C38.7257 57.3166 38.4264 57.7813 37.9558 57.8844C37.8928 57.8981 37.8305 57.904 37.7692 57.904Z" fill="#C4C4C4"/>
<path d="M43.0105 57.9038C42.9491 57.9038 42.8869 57.8978 42.8238 57.8841C42.3532 57.781 42.0539 57.3164 42.1563 56.8449L46.5214 36.7657C46.6245 36.2951 47.0849 35.995 47.5606 36.0982C48.0312 36.2013 48.3305 36.666 48.2281 37.1374L43.863 57.2166C43.7737 57.6251 43.4121 57.9038 43.0105 57.9038Z" fill="#C4C4C4"/>
<path d="M33.2573 57.0278C33.3502 57.4199 33.4073 57.8237 33.4073 58.2376V64.8849C33.4073 66.8108 34.9734 68.3769 36.8993 68.3769H43.8834C45.8092 68.3769 47.3754 66.8108 47.3754 64.8849V58.2376C47.3754 57.824 47.4329 57.4201 47.5264 57.0278H33.2573Z" fill="#DCDCDC"/>
<path d="M40.3908 57.0278H33.2573C33.3502 57.4199 33.4073 57.8237 33.4073 58.2376V64.8849C33.4073 66.8108 34.9734 68.3769 36.8993 68.3769H40.3908V57.0278Z" fill="#C4C4C4"/>
<path d="M47.3703 59.6489H40.3862V61.3949H47.3703V59.6489Z" fill="#C4C4C4"/>
<path d="M47.3703 63.1409H40.3862V64.8869H47.3703V63.1409Z" fill="#C4C4C4"/>
<path d="M40.3864 59.6489H33.4023V61.3949H40.3864V59.6489Z" fill="#828282"/>
<path d="M40.3864 63.1409H33.4023V64.8869H40.3864V63.1409Z" fill="#828282"/>
<path d="M40.3083 14.169C39.7649 14.169 39.3242 13.7284 39.3242 13.1849V9.10937C39.3242 8.56588 39.7647 8.12524 40.3083 8.12524C40.852 8.12524 41.2925 8.56588 41.2925 9.10937V13.185C41.2925 13.7284 40.8518 14.169 40.3083 14.169Z" fill="#C4C4C4"/>
<path d="M53.843 16.9166C53.676 16.9166 53.5069 16.8741 53.3518 16.7845C52.8811 16.5129 52.7199 15.911 52.9916 15.4403L55.0294 11.9108C55.301 11.4401 55.9026 11.2786 56.3736 11.5505C56.8443 11.8222 57.0055 12.4241 56.7338 12.8948L54.696 16.4243C54.5138 16.7402 54.183 16.9166 53.843 16.9166Z" fill="#C4C4C4"/>
<path d="M62.5049 26.1429C62.1649 26.1429 61.834 25.9665 61.6518 25.6507C61.38 25.18 61.5413 24.5782 62.012 24.3065L65.5416 22.2687C66.012 21.997 66.6143 22.1581 66.8858 22.6289C67.1576 23.0996 66.9963 23.7015 66.5256 23.9732L62.996 26.0109C62.8411 26.1003 62.6719 26.1429 62.5049 26.1429Z" fill="#C4C4C4"/>
<path d="M15.7937 52.9244C15.4537 52.9244 15.123 52.7479 14.9406 52.4322C14.6688 51.9615 14.8302 51.3597 15.3008 51.088L18.8304 49.0502C19.3008 48.7785 19.9028 48.9396 20.1746 49.4104C20.4464 49.8811 20.2851 50.483 19.8144 50.7546L16.2848 52.7924C16.1299 52.8818 15.9607 52.9244 15.7937 52.9244Z" fill="#C4C4C4"/>
<path d="M26.1244 16.9163C25.7844 16.9163 25.4536 16.7399 25.2714 16.4241L23.2336 12.8945C22.9618 12.4239 23.1231 11.822 23.5938 11.5503C24.0642 11.2784 24.6664 11.4397 24.938 11.9106L26.9758 15.4401C27.2476 15.9108 27.0863 16.5127 26.6156 16.7843C26.4607 16.8738 26.2914 16.9163 26.1244 16.9163Z" fill="#C4C4C4"/>
<path d="M17.8217 25.6824C17.6547 25.6824 17.4857 25.6399 17.3306 25.5503L13.801 23.5125C13.3304 23.2408 13.1691 22.639 13.4408 22.1683C13.7125 21.6975 14.3141 21.5363 14.785 21.8081L18.3146 23.8459C18.7853 24.1175 18.9465 24.7194 18.6748 25.1901C18.4926 25.5058 18.1618 25.6824 17.8217 25.6824Z" fill="#C4C4C4"/>
<path d="M64.0366 52.9245C63.8696 52.9245 63.7004 52.882 63.5455 52.7924L60.0159 50.7547C59.5452 50.4828 59.384 49.881 59.6557 49.4104C59.9273 48.9396 60.5295 48.7785 60.9999 49.0502L64.5294 51.088C65.0001 51.3598 65.1614 51.9617 64.8897 52.4322C64.7075 52.748 64.3766 52.9245 64.0366 52.9245Z" fill="#C4C4C4"/>
<path d="M15.3487 38.7383H11.2732C10.7297 38.7383 10.2891 38.2976 10.2891 37.7541C10.2891 37.2107 10.7296 36.77 11.2732 36.77H15.3487C15.8922 36.77 16.3328 37.2107 16.3328 37.7541C16.3328 38.2976 15.8923 38.7383 15.3487 38.7383Z" fill="#C4C4C4"/>
<path d="M68.7276 38.7383H64.6521C64.1086 38.7383 63.668 38.2976 63.668 37.7541C63.668 37.2107 64.1085 36.77 64.6521 36.77H68.7278C69.2712 36.77 69.7119 37.2107 69.7119 37.7541C69.7119 38.2976 69.2712 38.7383 68.7276 38.7383Z" fill="#C4C4C4"/>
</svg>
