<svg width="72" height="72" viewBox="0 0 72 72" fill="none" xmlns="http://www.w3.org/2000/svg">
<path d="M63.4158 57.1484L53.7947 47.5274C52.6069 46.3396 52.4882 44.5579 53.2008 43.1326C58.0707 33.9866 56.7642 22.4651 49.2812 14.6258C40.254 5.36108 25.0504 4.76719 15.3106 13.438C4.8581 22.8215 4.50177 39.0941 14.3604 48.8339C22.1997 56.6733 33.9588 57.9798 43.2235 53.1099C44.6488 52.3973 46.4305 52.516 47.6183 53.7038L57.3581 63.4436C59.2585 65.3441 62.5843 65.1065 64.1284 62.731C65.1974 60.9493 64.8411 58.6925 63.4158 57.1484ZM21.3683 45.033C12.5787 38.2626 12.5787 24.9595 21.3683 18.1891C27.426 13.5568 35.978 13.5568 42.0357 18.1891C50.8253 24.9595 50.8253 38.2626 42.0357 45.033C35.978 49.6654 27.3072 49.6654 21.3683 45.033Z" fill="#EE0033"/>
<path d="M59.3845 53.1002L53.208 59.2766L57.3652 63.4339C59.0281 65.0968 61.8788 65.0968 63.5417 63.4339C65.2046 61.771 65.2046 58.9203 63.5417 57.2574L59.3845 53.1002Z" fill="#92001F"/>
<path d="M31.5543 29.3192C31.0046 29.3192 30.5923 28.8368 30.5923 28.1935C30.5923 27.5502 31.0046 27.0678 31.5543 27.0678C32.104 27.0678 32.5162 27.5502 32.5162 28.1935H36.6388C36.6388 25.7812 35.4021 23.6906 33.6156 22.7257L33.6156 21.6H29.493L29.493 22.7257C27.7065 23.6906 26.4697 25.7812 26.4697 28.1935C26.4697 31.4099 28.8059 34.1438 31.5543 34.1438C32.104 34.1438 32.5162 34.6262 32.5162 35.2695C32.5162 35.9128 32.104 36.3952 31.5543 36.3952C31.0046 36.3952 30.5923 35.9128 30.5923 35.2695H26.4697C26.4697 37.6818 27.7065 39.7724 29.493 40.7373L29.493 41.8631H33.6156L33.6156 40.7373C35.4021 39.7724 36.6388 37.6818 36.6388 35.2695C36.6388 32.0532 34.3027 29.3192 31.5543 29.3192Z" fill="#828282"/>
</svg>
