<svg width="72" height="72" viewBox="0 0 72 72" fill="none" xmlns="http://www.w3.org/2000/svg">
<path d="M58.161 31.0078H57.4771H56.5466H55.6162H48.5101H22.3987H18.9734H16.091H15.5568H13.7664C12.8183 31.0078 11.97 31.3835 11.4182 31.9785C11.1658 32.2508 10.975 32.566 10.8664 32.9114C10.7989 33.1283 10.7578 33.3552 10.7578 33.5872V33.8973V36.8372V62.3305C10.7578 63.7551 12.1021 64.9099 13.7605 64.9099H58.1551C59.8135 64.9099 61.1578 63.7551 61.1578 62.3305V33.5872C61.1637 32.1626 59.8194 31.0078 58.161 31.0078Z" fill="#C4C4C4"/>
<path d="M48.7297 28.0579C48.3586 26.9082 47.1128 26.1543 45.7553 26.1543C45.4838 26.1543 45.2123 26.1846 44.9408 26.2476L14.0352 31.0079H24.0655H41.9121H46.4551H49.692L48.7297 28.0579Z" fill="#828282"/>
<path d="M61.1571 43.0234H48.7834C45.9788 43.0234 43.834 44.661 43.834 46.8025C43.834 48.9439 45.9788 50.5815 48.7834 50.5815H61.1571V43.0234Z" fill="#EE0033"/>
<circle cx="25.157" cy="14.3992" r="7.2" fill="#EE0033"/>
<ellipse cx="35.9574" cy="25.1996" rx="3.6" ry="3.6" fill="#92001F"/>
</svg>
