<svg width="25" height="24" viewBox="0 0 25 24" fill="none" xmlns="http://www.w3.org/2000/svg">
<path d="M9.69083 10.1437V9.18086C9.69083 8.41063 9.22046 7.71741 8.49352 7.3323C7.76658 6.94718 6.82583 6.94718 6.09889 7.3323C5.37195 7.71741 4.94434 8.41063 4.94434 9.18086V10.1437C4.94434 10.8369 5.32919 11.4531 6.01337 11.7612C6.82583 12.1848 7.8521 12.1848 8.70732 11.7612C9.30598 11.4531 9.69083 10.8369 9.69083 10.1437Z" fill="#C4C4C4"/>
<path d="M11.9148 17.7687C12.3424 17.5377 12.5562 17.1525 12.4707 16.7289C12.0859 14.4952 9.90504 12.7622 7.2966 12.7622C6.44138 12.7622 5.62892 12.9548 4.90198 13.3014C4.13228 13.6865 3.61914 14.4182 3.61914 15.227C3.61914 16.2668 4.4316 17.1525 5.58616 17.3451C7.33936 17.6532 9.26362 17.8458 11.2734 17.9613C11.53 17.9228 11.7438 17.8458 11.9148 17.7687Z" fill="#C4C4C4"/>
<path d="M6.31348 17.3838C7.89564 17.6149 9.56333 17.8074 11.2738 17.8845C11.4876 17.8845 11.7014 17.8459 11.9152 17.7304C12.3428 17.4993 12.5566 17.1142 12.4711 16.6906C12.1718 14.8805 10.6751 13.3786 8.75086 12.8779C7.38251 14.0333 6.48452 15.6123 6.31348 17.3838Z" fill="#DCDCDC"/>
<path d="M16.961 8.75689V7.52451C16.961 6.56172 16.4051 5.63743 15.4643 5.17529C14.5236 4.67464 13.369 4.67464 12.4283 5.17529C11.4875 5.67595 10.9316 6.56172 10.9316 7.52451V8.75689C10.9316 9.60414 11.4448 10.4129 12.2572 10.8365C13.3263 11.3757 14.6091 11.3757 15.6354 10.8365C16.4478 10.4129 16.961 9.60414 16.961 8.75689Z" fill="#EE0033"/>
<path d="M13.9251 12.0303C10.4187 12.0303 7.59641 14.4565 7.33984 17.576C9.39238 17.8455 11.616 17.9996 13.9251 17.9996C16.2342 17.9996 18.4578 17.8455 20.5103 17.576C20.2537 14.4565 17.4315 12.0303 13.9251 12.0303Z" fill="#EE0033"/>
</svg>
