<svg width="15" height="16" viewBox="0 0 15 16" fill="none" xmlns="http://www.w3.org/2000/svg">
<path fill-rule="evenodd" clip-rule="evenodd" d="M6.09375 7.08203C6.35263 7.08203 6.5625 7.2919 6.5625 7.55078V8.58203C6.5625 9.5657 5.93123 10.5068 4.97352 10.8089L1.93153 11.8385C1.92556 11.8406 1.91956 11.8425 1.91352 11.8442C1.32864 12.0163 0.9375 12.5735 0.9375 13.1758V14.1602H14.0625V13.1758C14.0625 12.5676 13.665 12.0104 13.1258 11.8419L13.1153 11.8385L10.0734 10.8089C9.11565 10.5068 8.48438 9.5657 8.48438 8.58203V7.55078C8.48438 7.2919 8.69424 7.08203 8.95312 7.08203C9.21201 7.08203 9.42188 7.2919 9.42188 7.55078V8.58203C9.42188 9.1902 9.8194 9.74738 10.3586 9.91587L10.369 9.91927L13.411 10.9489C14.3687 11.251 15 12.1921 15 13.1758V14.6289C15 14.8878 14.7901 15.0977 14.5312 15.0977H0.46875C0.209867 15.0977 0 14.8878 0 14.6289V13.1758C0 12.1874 0.636064 11.2475 1.63941 10.9477L4.67785 9.91927L4.68831 9.91587C5.22747 9.74738 5.625 9.1902 5.625 8.58203V7.55078C5.625 7.2919 5.83487 7.08203 6.09375 7.08203Z" fill="#FE9A00"/>
<path fill-rule="evenodd" clip-rule="evenodd" d="M7.5 1.03516C5.93076 1.03516 4.6875 2.27841 4.6875 3.84766C4.6875 4.65161 5.01258 5.61251 5.5549 6.36961C6.10178 7.13307 6.79841 7.59766 7.5 7.59766C8.20159 7.59766 8.89822 7.13307 9.4451 6.36961C9.98742 5.61251 10.3125 4.65161 10.3125 3.84766C10.3125 2.27841 9.06924 1.03516 7.5 1.03516ZM3.75 3.84766C3.75 1.76065 5.41299 0.0976562 7.5 0.0976562C9.58701 0.0976562 11.25 1.76065 11.25 3.84766C11.25 4.87183 10.8485 6.0203 10.2072 6.91554C9.57053 7.80443 8.62654 8.53516 7.5 8.53516C6.37346 8.53516 5.42947 7.80443 4.79276 6.91554C4.15148 6.0203 3.75 4.87183 3.75 3.84766Z" fill="#EE0033"/>
</svg>
