<svg width="19" height="22" viewBox="0 0 19 22" fill="none" xmlns="http://www.w3.org/2000/svg">
<path fill-rule="evenodd" clip-rule="evenodd" d="M0 19.2499C0 15.7058 2.87257 12.8333 6.41667 12.8333H11.9167C15.4608 12.8333 18.3333 15.7058 18.3333 19.2499V20.1666C18.3333 20.5652 18.0757 20.9181 17.696 21.0396L17.4167 20.1666C17.696 21.0396 17.6963 21.0396 17.696 21.0396L17.6937 21.0404L17.6902 21.0415L17.6802 21.0446L17.6475 21.0546C17.6201 21.0629 17.5816 21.0742 17.532 21.0882C17.4327 21.1162 17.2891 21.1548 17.1019 21.2004C16.7275 21.2917 16.1785 21.4109 15.4604 21.5294C14.024 21.7663 11.9116 21.9999 9.16667 21.9999C6.42175 21.9999 4.30934 21.7663 2.87295 21.5294C2.15482 21.4109 1.60583 21.2917 1.2314 21.2004C1.04419 21.1548 0.900626 21.1162 0.801381 21.0882C0.751759 21.0742 0.713217 21.0629 0.685841 21.0546L0.65316 21.0446L0.643119 21.0415L0.639677 21.0404L0.638351 21.04C0.638097 21.0399 0.637289 21.0396 0.916667 20.1666L0.637289 21.0396C0.257624 20.9181 0 20.5652 0 20.1666V19.2499ZM1.83333 19.4591C2.15803 19.5342 2.60509 19.6271 3.17132 19.7205C4.51358 19.9419 6.52616 20.1666 9.16667 20.1666C11.8072 20.1666 13.8198 19.9419 15.162 19.7205C15.7282 19.6271 16.1753 19.5342 16.5 19.4591V19.2499C16.5 16.7183 14.4482 14.6666 11.9167 14.6666H6.41667C3.88509 14.6666 1.83333 16.7183 1.83333 19.2499V19.4591Z" fill="#2FB6BA"/>
<path fill-rule="evenodd" clip-rule="evenodd" d="M9.16675 1.83333C7.14209 1.83333 5.50008 3.47534 5.50008 5.5C5.50008 6.53746 5.92951 7.71732 6.64755 8.63373C7.36834 9.55367 8.27394 10.0833 9.16675 10.0833C10.0596 10.0833 10.9652 9.55367 11.686 8.63373C12.404 7.71732 12.8334 6.53746 12.8334 5.5C12.8334 3.47534 11.1914 1.83333 9.16675 1.83333ZM3.66675 5.5C3.66675 2.46282 6.12957 0 9.16675 0C12.2039 0 14.6667 2.46282 14.6667 5.5C14.6667 6.99346 14.07 8.56359 13.1291 9.76445C12.1909 10.9618 10.8049 11.9167 9.16675 11.9167C7.52864 11.9167 6.14258 10.9618 5.20443 9.76445C4.26352 8.56359 3.66675 6.99346 3.66675 5.5Z" fill="#FE9A00"/>
</svg>
