<svg width="13" height="15" viewBox="0 0 13 15" fill="none" xmlns="http://www.w3.org/2000/svg">
<g clip-path="url(#clip0)">
<path fill-rule="evenodd" clip-rule="evenodd" d="M6.57225 1.51855C6.84784 1.51855 7.07126 1.7584 7.07126 2.05427V13.4828C7.07126 13.7787 6.84784 14.0186 6.57225 14.0186C6.29665 14.0186 6.07324 13.7787 6.07324 13.4828V2.05427C6.07324 1.7584 6.29665 1.51855 6.57225 1.51855Z" fill="#576C8A"/>
<path fill-rule="evenodd" clip-rule="evenodd" d="M1.08301 7.62953C1.08301 7.32271 1.29844 7.07397 1.56419 7.07397H11.8295C12.0952 7.07397 12.3106 7.32271 12.3106 7.62953C12.3106 7.93636 12.0952 8.18509 11.8295 8.18509H1.56419C1.29844 8.18509 1.08301 7.93636 1.08301 7.62953Z" fill="#576C8A"/>
</g>
<defs>
<clipPath id="clip0">
<rect width="11.9762" height="13.3333" fill="white" transform="translate(0.583984 0.962891)"/>
</clipPath>
</defs>
</svg>
