<svg width="25" height="24" viewBox="0 0 25 24" fill="none" xmlns="http://www.w3.org/2000/svg">
<path d="M9.82071 10.1451V9.18233C9.82071 8.41209 9.35034 7.71888 8.6234 7.33376C7.89646 6.94864 6.95571 6.94864 6.22877 7.33376C5.50183 7.71888 5.07422 8.41209 5.07422 9.18233V10.1451C5.07422 10.8383 5.45907 11.4545 6.14325 11.7626C6.95571 12.1862 7.98198 12.1862 8.83721 11.7626C9.43586 11.4545 9.82071 10.8383 9.82071 10.1451Z" fill="#C4C4C4"/>
<path d="M12.0457 17.7702C12.4733 17.5391 12.6871 17.154 12.6016 16.7304C12.2167 14.4967 10.0359 12.7637 7.42746 12.7637C6.57224 12.7637 5.75978 12.9562 5.03284 13.3028C4.26313 13.688 3.75 14.4197 3.75 15.2284C3.75 16.2682 4.56246 17.154 5.71702 17.3466C7.47022 17.6547 9.39448 17.8472 11.4043 17.9628C11.6608 17.9242 11.8746 17.8472 12.0457 17.7702Z" fill="#C4C4C4"/>
<path d="M6.44531 17.3848C8.02748 17.6159 9.69516 17.8084 11.4056 17.8854C11.6194 17.8854 11.8332 17.8469 12.047 17.7314C12.4746 17.5003 12.6884 17.1152 12.6029 16.6916C12.3036 14.8815 10.807 13.3796 8.8827 12.8789C7.51434 14.0343 6.61636 15.6132 6.44531 17.3848Z" fill="#DCDCDC"/>
<path d="M17.0918 8.75786V7.52549C17.0918 6.56269 16.5359 5.63841 15.5952 5.17627C14.6544 4.67562 13.4999 4.67562 12.5591 5.17627C11.6184 5.67692 11.0625 6.56269 11.0625 7.52549V8.75786C11.0625 9.60512 11.5756 10.4139 12.3881 10.8375C13.4571 11.3767 14.74 11.3767 15.7662 10.8375C16.5787 10.4139 17.0918 9.60512 17.0918 8.75786Z" fill="#EE0033"/>
<path d="M14.054 12.0312C10.5476 12.0312 7.72532 14.4575 7.46875 17.5769C9.52129 17.8465 11.7449 18.0006 14.054 18.0006C16.3631 18.0006 18.5867 17.8465 20.6392 17.5769C20.3826 14.4575 17.5604 12.0312 14.054 12.0312Z" fill="#EE0033"/>
</svg>
