<svg width="48" height="48" viewBox="0 0 48 48" fill="none" xmlns="http://www.w3.org/2000/svg">
<path d="M20.3665 7.90694L39.2964 18.3906C41.5336 19.5695 42.351 22.3483 41.0173 24.5798C40.7592 24.9587 40.501 25.3798 40.0708 25.6324L23.9804 40.6211C22.1304 42.3474 19.2049 42.221 17.484 40.3685C16.8386 39.6949 16.4084 38.8107 16.2793 37.7581L13.6119 12.2857C13.3538 9.80158 15.2038 7.57011 17.6991 7.27539C18.5165 7.27539 19.5921 7.4017 20.3665 7.90694Z" fill="#828282"/>
<path d="M5.82475 18.0551L37.0591 10.5186C38.78 10.1397 40.63 11.1923 41.0172 12.8764C41.1463 13.55 41.1463 14.1816 40.8881 14.8552L31.2511 39.1909C30.6057 40.9171 28.7558 41.675 27.0349 41.0434C26.7767 40.9171 26.5186 40.7908 26.2605 40.5382L4.49105 23.8232C3.02828 22.7706 2.89921 20.6655 3.97478 19.234C4.36198 18.6866 5.05034 18.3077 5.82475 18.0551Z" fill="#EE0033"/>
</svg>
