<svg width="60" height="61" viewBox="0 0 60 61" fill="none" xmlns="http://www.w3.org/2000/svg">
<path fill-rule="evenodd" clip-rule="evenodd" d="M59.1758 19.463C59.691 19.8118 59.9996 20.3935 59.9996 21.0156V47.2656C59.9996 47.8878 59.691 48.4695 59.1758 48.8183C58.6606 49.1671 58.0059 49.2376 57.4282 49.0065L38.6782 41.5065C37.7168 41.1219 37.2491 40.0307 37.6337 39.0693C38.0183 38.1078 39.1095 37.6402 40.0709 38.0247L56.2496 44.4962V23.7851L40.0709 30.2565C39.1095 30.6411 38.0183 30.1735 37.6337 29.212C37.2491 28.2505 37.7168 27.1593 38.6782 26.7747L57.4282 19.2747C58.0059 19.0437 58.6606 19.1142 59.1758 19.463Z" fill="#EE0033"/>
<path fill-rule="evenodd" clip-rule="evenodd" d="M7.5 2.26562C7.5 1.23009 8.33947 0.390625 9.375 0.390625H28.125C29.1605 0.390625 30 1.23009 30 2.26562V13.5156C30 14.5512 29.1605 15.3906 28.125 15.3906C27.0895 15.3906 26.25 14.5512 26.25 13.5156V4.14062H9.375C8.33947 4.14062 7.5 3.30116 7.5 2.26562Z" fill="#EE0033"/>
<path fill-rule="evenodd" clip-rule="evenodd" d="M5.625 15.3906C4.74827 15.3906 3.75 16.2352 3.75 17.6065V54.4247C3.75 55.7961 4.74827 56.6406 5.625 56.6406H35.625C36.5017 56.6406 37.5 55.7961 37.5 54.4247V17.6065C37.5 16.2352 36.5017 15.3906 35.625 15.3906H5.625ZM0 17.6065C0 14.4779 2.37673 11.6406 5.625 11.6406H35.625C38.8733 11.6406 41.25 14.4779 41.25 17.6065V54.4247C41.25 57.5533 38.8733 60.3906 35.625 60.3906H5.625C2.37673 60.3906 0 57.5533 0 54.4247V17.6065Z" fill="#EE0033"/>
</svg>
