<svg width="23" height="23" viewBox="0 0 23 23" fill="none" xmlns="http://www.w3.org/2000/svg">
<g clip-path="url(#clip0)">
<path d="M14.5305 11.0976C13.8257 11.0976 13.1913 11.0976 12.557 11.0976C12.1341 11.0976 11.9226 10.9548 11.9226 10.4549C11.9226 10.3835 11.9226 10.3121 11.9226 10.3121C11.9226 9.59799 11.9226 9.0267 11.9226 8.31258C11.9226 8.16976 11.9226 8.02693 11.9226 7.88411C11.6407 6.45588 10.5834 5.52753 9.03277 5.59894C7.69357 5.67035 6.56582 6.88435 6.49533 8.31258C6.49533 9.0267 6.49533 9.6694 6.49533 10.3121C6.49533 10.8834 6.35436 11.0262 5.79049 11.0262C5.08564 11.0262 4.52176 11.0262 3.81691 11.0262C3.60546 11.0262 3.39402 11.0262 3.25305 11.0976C1.84336 11.3833 0.856585 12.8829 1.20901 14.3111C1.49094 15.5966 2.5482 16.5249 3.95789 16.5249C4.66273 16.5249 5.2266 16.5249 5.93144 16.5249C6.28387 16.5249 6.56582 16.8105 6.56582 17.1676C6.56582 17.5247 6.56582 17.9531 6.56582 18.453C6.56582 18.8815 6.49532 19.31 6.63629 19.7384C6.84774 20.9524 7.90502 21.8808 9.03277 21.9522C10.5129 22.095 11.5702 21.0952 11.9226 20.0241C11.9931 19.8098 11.9931 19.5242 11.9931 19.31C11.9931 18.5958 11.9931 17.9531 11.9931 17.3104C11.9931 16.8106 12.1341 16.5963 12.6979 16.5963C13.3323 16.5963 13.9667 16.5963 14.601 16.5963C14.883 16.5963 15.1649 16.5963 15.3764 16.5249C16.6451 16.1678 17.5614 14.8824 17.3499 13.4542C17.068 12.0974 15.8697 11.0976 14.5305 11.0976Z" stroke="#EE0033" stroke-width="1.5" stroke-linecap="round" stroke-linejoin="round"/>
<path d="M20.6625 3.45671C20.3101 3.45671 19.9577 3.45671 19.6052 3.45671C19.3938 3.45671 19.3233 3.3853 19.2528 3.17107V3.09965C19.2528 2.74259 19.2528 2.38554 19.2528 2.09989C19.2528 2.02848 19.2528 1.95707 19.2528 1.88566C19.1119 1.10013 18.407 0.600245 17.7022 0.743068C17.1383 0.814479 16.5744 1.45718 16.5744 2.02848C16.5744 2.31412 16.5744 2.59977 16.5744 2.88541C16.5744 3.24247 16.2925 3.52812 15.9401 3.52812C15.6581 3.52812 15.4467 3.52812 15.1647 3.52812C15.0238 3.52812 14.8828 3.52812 14.7418 3.59953C14.037 3.81376 13.6141 4.52788 13.755 5.09917C13.896 5.81329 14.4599 6.31317 15.0942 6.31317C15.4467 6.31317 15.7991 6.31317 16.081 6.31317C16.2925 6.31317 16.363 6.38459 16.363 6.59882C16.363 6.81306 16.363 6.95587 16.363 7.24152C16.363 7.45575 16.363 7.66999 16.363 7.95563C16.5039 8.59834 16.9973 9.09822 17.5612 9.09822C18.3365 9.16964 18.8299 8.66975 18.9709 8.09846C18.9709 7.95563 19.0414 7.88422 19.0414 7.7414C19.0414 7.45575 19.0414 7.24152 19.0414 6.95588C19.0414 6.59882 19.3233 6.31317 19.6757 6.31317C19.8872 6.31317 20.1691 6.31317 20.3806 6.31317C20.5215 6.31317 20.6625 6.31317 20.8035 6.24176C21.5083 6.02753 21.9312 5.38482 21.7902 4.74212C21.8607 3.95659 21.3674 3.45671 20.6625 3.45671Z" stroke="#FE9A00" stroke-width="1.5" stroke-linecap="round" stroke-linejoin="round"/>
</g>
<defs>
<clipPath id="clip0">
<path d="M0 0H23V23H0V0Z" fill="white"/>
</clipPath>
</defs>
</svg>
