<svg width="67" height="66" viewBox="0 0 67 66" fill="none" xmlns="http://www.w3.org/2000/svg">
<path d="M59.6707 56.0999H17.2243C15.4918 56.0999 14.0068 54.6244 14.0068 52.9028V29.7852C14.0068 28.0637 15.4918 26.5881 17.2243 26.5881H59.6707C61.4032 26.5881 62.8882 28.0637 62.8882 29.7852V52.9028C62.8882 54.6244 61.4032 56.0999 59.6707 56.0999Z" fill="#DCDCDC"/>
<path d="M26.6293 38.2875H20.6893C20.318 38.2875 19.9468 37.9186 19.9468 37.5497V33.7378C19.9468 33.3689 20.318 33 20.6893 33H26.6293C27.0005 33 27.3718 33.3689 27.3718 33.7378V37.5497C27.3718 38.0416 27.0005 38.2875 26.6293 38.2875Z" fill="white"/>
<path d="M47.296 47.1412C47.296 45.4197 48.286 43.8211 49.6472 43.0833C48.9047 42.7144 48.1622 42.4685 47.296 42.4685C44.6972 42.4685 42.4697 44.5589 42.4697 47.2642C42.4697 49.9694 44.5735 52.0598 47.296 52.0598C48.1622 52.0598 49.0285 51.8139 49.6472 51.445C48.286 50.4613 47.296 48.9857 47.296 47.1412Z" fill="white"/>
<path d="M52.1222 42.4685C51.256 42.4685 50.3897 42.7144 49.771 43.0833C51.256 43.9441 52.1222 45.4197 52.1222 47.1412C52.1222 48.8627 51.1322 50.4613 49.771 51.1991C50.5135 51.568 51.256 51.8139 52.1222 51.8139C54.721 51.8139 56.9485 49.7235 56.9485 47.0182C56.9485 44.313 54.721 42.4685 52.1222 42.4685Z" fill="#C4C4C4"/>
<path d="M52.1224 47.1411C52.1224 45.4196 51.1324 43.821 49.7712 43.0833C48.2862 43.944 47.4199 45.4196 47.4199 47.1411C47.4199 48.8626 48.4099 50.4612 49.7712 51.199C51.1324 50.4612 52.1224 48.9856 52.1224 47.1411Z" fill="#DCDCDC"/>
<path d="M49.1521 39.4117H6.70579C4.97328 39.4117 3.48828 37.9361 3.48828 36.2146V13.097C3.48828 11.3755 4.97328 9.8999 6.70579 9.8999H49.1521C50.8846 9.8999 52.3696 11.3755 52.3696 13.097V36.2146C52.3696 37.9361 50.8846 39.4117 49.1521 39.4117Z" fill="#EE0033"/>
<path d="M52.3696 17.2778H3.48828V24.6558H52.3696V17.2778Z" fill="#92001F"/>
</svg>
