<svg width="80" height="80" viewBox="0 0 80 80" fill="none" xmlns="http://www.w3.org/2000/svg">
<path d="M77.0882 39.9586C77.0882 60.4647 60.4647 77.0882 39.9586 77.0882C19.4526 77.0882 2.8291 60.4647 2.8291 39.9586C2.8291 19.4526 19.4526 2.8291 39.9586 2.8291C60.4647 2.8291 77.0882 19.4526 77.0882 39.9586Z" stroke="#FE9705" stroke-width="4" stroke-linecap="round" stroke-linejoin="round"/>
<path d="M42.3625 25.8039C42.4 25.4231 42.25 25 41.6125 25H38.3125C37.75 25 37.5625 25.3385 37.6 25.8039L38.425 44.6333C38.4625 45.0987 38.725 45.3103 39.2125 45.3103H40.6375C41.275 45.3103 41.5 45.1834 41.5 44.5487L42.3625 25.8039ZM43 51.6573C43 49.7955 41.6875 48.3145 40 48.3145C38.35 48.3145 37 49.8378 37 51.6573C37 53.5614 38.3125 55 40 55C41.6875 55 43 53.519 43 51.6573Z" fill="#FE9705"/>
</svg>
