<svg width="72" height="72" viewBox="0 0 72 72" fill="none" xmlns="http://www.w3.org/2000/svg">
<rect x="7.36328" y="20.7441" width="53.4533" height="32.072" rx="1" fill="#DCDCDC"/>
<path d="M7.36328 21.7441C7.36328 21.1919 7.811 20.7441 8.36328 20.7441H59.8166C60.3689 20.7441 60.8166 21.1919 60.8166 21.7441V29.653H7.36328V21.7441Z" fill="#828282"/>
<rect x="36.8418" y="42.2754" width="7.7723" height="33.9516" rx="3.88615" transform="rotate(-45 36.8418 42.2754)" fill="#EE0033"/>
<rect x="60.8496" y="36.7793" width="7.7723" height="33.9516" rx="3.88615" transform="rotate(45 60.8496 36.7793)" fill="#EE0033"/>
<path d="M18.0615 47.4296C21.997 47.4296 25.1874 44.2392 25.1874 40.3036C25.1874 36.3681 21.997 33.1777 18.0615 33.1777C14.1259 33.1777 10.9355 36.3681 10.9355 40.3036C10.9355 44.2392 14.1259 47.4296 18.0615 47.4296Z" fill="#EE0033"/>
<path d="M17.6124 35.968L18.5104 35.968C18.9248 35.968 19.3047 36.3134 19.3047 36.7623L19.3047 40.3541C19.3047 40.7685 18.9593 41.1484 18.5104 41.1484L17.6124 41.1484C17.198 41.1484 16.8181 40.8031 16.8181 40.3541L16.8181 36.7278C16.8181 36.3134 17.1634 35.968 17.6124 35.968Z" fill="white"/>
<path d="M17.9252 42.1536L18.2011 42.1536C18.7874 42.1536 19.3047 42.6365 19.3047 43.2572L19.3047 43.5331C19.3047 44.1194 18.8219 44.6367 18.2011 44.6367L17.9252 44.6367C17.3389 44.6367 16.8216 44.1539 16.8216 43.5331L16.8216 43.2572C16.8216 42.6365 17.3044 42.1536 17.9252 42.1536Z" fill="white"/>
</svg>
