<svg width="25" height="25" viewBox="0 0 25 25" fill="none" xmlns="http://www.w3.org/2000/svg">
<path fill-rule="evenodd" clip-rule="evenodd" d="M13.2844 3.68013C15.837 0.872249 20.0632 0.872249 22.6158 3.68013C25.1287 6.44432 25.1287 10.9561 22.6158 13.7203L22.6072 13.7296L13.4403 23.4957C13.1402 23.8154 12.6377 23.8313 12.318 23.5312C11.9983 23.2311 11.9824 22.7286 12.2825 22.4089L21.4449 12.6476C23.4031 10.4886 23.4017 6.90531 21.4408 4.74831C19.5182 2.63348 16.382 2.63348 14.4594 4.74831C14.0924 5.15198 13.855 5.54483 13.6734 6.01103C13.5142 6.41962 13.0539 6.6218 12.6453 6.46261C12.2367 6.30342 12.0345 5.84314 12.1937 5.43455C12.4452 4.78917 12.7852 4.22923 13.2844 3.68013Z" fill="#FE9A00"/>
<path fill-rule="evenodd" clip-rule="evenodd" d="M10.5411 4.74831C8.6185 2.63348 5.48225 2.63348 3.55968 4.74831C1.59877 6.90532 1.5974 10.4887 3.55559 12.6476L12.718 22.4089C13.0181 22.7286 13.0022 23.2311 12.6825 23.5312C12.3628 23.8313 11.8603 23.8154 11.5602 23.4957L2.39327 13.7296L2.38468 13.7203C-0.128226 10.9561 -0.128226 6.44432 2.38468 3.68013C4.93729 0.872249 9.16346 0.872249 11.7161 3.68013C12.2153 4.22923 12.5553 4.78917 12.8067 5.43455C12.9659 5.84314 12.7637 6.30342 12.3552 6.46261C11.9466 6.6218 11.4863 6.41962 11.3271 6.01103C11.1455 5.54483 10.908 5.15198 10.5411 4.74831Z" fill="#EE0033"/>
</svg>
