<svg width="30" height="30" viewBox="0 0 30 30" fill="none" xmlns="http://www.w3.org/2000/svg">
<mask id="path-1-outside-1" maskUnits="userSpaceOnUse" x="3.47683" y="16.1159" width="23.0546" height="13.3595" fill="black">
<rect fill="white" x="3.47683" y="16.1159" width="23.0546" height="13.3595"/>
<path fill-rule="evenodd" clip-rule="evenodd" d="M6.72569 21.1648C6.72453 21.1647 6.72348 21.164 6.72284 21.1631C6.72164 21.1612 6.71918 21.1607 6.71736 21.162L6.71643 21.1626C6.71544 21.1633 6.71425 21.1635 6.71307 21.1634L5.63627 21.0441C5.22629 20.9987 4.94174 21.4413 5.15282 21.7962L5.33063 22.0952C5.33381 22.1006 5.33869 22.1047 5.34449 22.1069C5.34986 22.109 5.35446 22.1127 5.35764 22.1175C6.51376 23.8604 8.11836 25.2524 9.99924 26.1438C11.8904 27.0401 13.9887 27.3959 16.066 27.1726C18.1434 26.9493 20.1204 26.1555 21.7825 24.8773C23.3136 23.6998 24.5234 22.1528 25.303 20.3817C25.4138 20.13 25.2869 19.8401 25.031 19.7384L24.416 19.4938C24.1584 19.3913 23.8682 19.5184 23.7547 19.771C23.0874 21.2555 22.0651 22.5525 20.7767 23.5434C19.356 24.636 17.666 25.3145 15.8903 25.5054C14.1146 25.6963 12.3211 25.3921 10.7045 24.626C9.91871 24.2536 9.18933 23.779 8.53355 23.2171C8.30553 23.0217 8.31998 22.6705 8.55213 22.4811L8.83053 22.2538C9.1737 21.9738 9.0088 21.4178 8.56806 21.369L6.72569 21.1648Z"/>
</mask>
<path fill-rule="evenodd" clip-rule="evenodd" d="M6.72569 21.1648C6.72453 21.1647 6.72348 21.164 6.72284 21.1631C6.72164 21.1612 6.71918 21.1607 6.71736 21.162L6.71643 21.1626C6.71544 21.1633 6.71425 21.1635 6.71307 21.1634L5.63627 21.0441C5.22629 20.9987 4.94174 21.4413 5.15282 21.7962L5.33063 22.0952C5.33381 22.1006 5.33869 22.1047 5.34449 22.1069C5.34986 22.109 5.35446 22.1127 5.35764 22.1175C6.51376 23.8604 8.11836 25.2524 9.99924 26.1438C11.8904 27.0401 13.9887 27.3959 16.066 27.1726C18.1434 26.9493 20.1204 26.1555 21.7825 24.8773C23.3136 23.6998 24.5234 22.1528 25.303 20.3817C25.4138 20.13 25.2869 19.8401 25.031 19.7384L24.416 19.4938C24.1584 19.3913 23.8682 19.5184 23.7547 19.771C23.0874 21.2555 22.0651 22.5525 20.7767 23.5434C19.356 24.636 17.666 25.3145 15.8903 25.5054C14.1146 25.6963 12.3211 25.3921 10.7045 24.626C9.91871 24.2536 9.18933 23.779 8.53355 23.2171C8.30553 23.0217 8.31998 22.6705 8.55213 22.4811L8.83053 22.2538C9.1737 21.9738 9.0088 21.4178 8.56806 21.369L6.72569 21.1648Z" fill="#EE0033"/>
<path d="M9.99924 26.1438L9.91395 26.3246L9.99924 26.1438ZM16.066 27.1726L16.0443 26.9737L16.066 27.1726ZM21.7825 24.8773L21.9046 25.036L21.7825 24.8773ZM20.7767 23.5434L20.6546 23.3847L20.7767 23.5434ZM15.8903 25.5054L15.8686 25.3065L15.8903 25.5054ZM10.7045 24.626L10.6192 24.8067L10.7045 24.626ZM24.416 19.4938L24.4896 19.3079L24.416 19.4938ZM23.7547 19.771L23.9371 19.8534L23.7547 19.771ZM25.031 19.7384L25.1045 19.5525L25.031 19.7384ZM5.35764 22.1175L5.52417 22.0071L5.35764 22.1175ZM8.83053 22.2538L8.95712 22.409L8.83053 22.2538ZM5.33063 22.0952L5.50241 21.9932L5.33063 22.0952ZM8.53355 23.2171L8.40367 23.3689L8.53355 23.2171ZM8.55213 22.4811L8.67872 22.6362L8.55213 22.4811ZM5.63627 21.0441L5.65787 20.8453L5.63627 21.0441ZM5.15282 21.7962L4.98104 21.8983L5.15282 21.7962ZM6.71643 21.1626L6.82816 21.3287L6.71643 21.1626ZM6.71307 21.1634L6.73467 20.9646L6.71307 21.1634ZM6.71736 21.162L6.8291 21.3281L6.71736 21.162ZM6.72569 21.1648L6.74729 20.966L6.72569 21.1648ZM6.60563 20.9958L6.6047 20.9965L6.82816 21.3287L6.8291 21.3281L6.60563 20.9958ZM6.73467 20.9646L5.65787 20.8453L5.61467 21.2429L6.69147 21.3622L6.73467 20.9646ZM4.98104 21.8983L5.15885 22.1972L5.50241 21.9932L5.32459 21.6942L4.98104 21.8983ZM5.19111 22.2279C6.3673 24.001 7.99994 25.4175 9.91395 26.3246L10.0845 25.9631C8.23679 25.0874 6.66022 23.7197 5.52417 22.0071L5.19111 22.2279ZM9.91395 26.3246C11.8385 27.2366 13.9738 27.5987 16.0878 27.3715L16.0443 26.9737C14.0036 27.1931 11.9424 26.8435 10.0845 25.9631L9.91395 26.3246ZM16.0878 27.3715C18.2018 27.1443 20.2136 26.3364 21.9046 25.036L21.6604 24.7186C20.0273 25.9745 18.0849 26.7544 16.0443 26.9737L16.0878 27.3715ZM21.9046 25.036C23.4623 23.838 24.693 22.2642 25.4861 20.4626L25.12 20.3007C24.3538 22.0414 23.1648 23.5616 21.6604 24.7186L21.9046 25.036ZM25.1045 19.5525L24.4896 19.3079L24.3425 19.6796L24.9575 19.9242L25.1045 19.5525ZM23.5723 19.6886C22.9185 21.1433 21.9168 22.414 20.6546 23.3847L20.8988 23.7021C22.2134 22.691 23.2564 21.3677 23.9371 19.8534L23.5723 19.6886ZM20.6546 23.3847C19.2629 24.455 17.6076 25.1196 15.8686 25.3065L15.9121 25.7043C17.7245 25.5095 19.4491 24.8169 20.8988 23.7021L20.6546 23.3847ZM15.8686 25.3065C14.1295 25.4934 12.373 25.1956 10.7898 24.4452L10.6192 24.8067C12.2691 25.5887 14.0997 25.8991 15.9121 25.7043L15.8686 25.3065ZM10.7898 24.4452C10.0202 24.0805 9.30579 23.6156 8.66344 23.0652L8.40367 23.3689C9.07287 23.9423 9.81723 24.4267 10.6192 24.8067L10.7898 24.4452ZM8.67872 22.6362L8.95712 22.409L8.70394 22.0987L8.42554 22.3259L8.67872 22.6362ZM8.58967 21.1701L6.74729 20.966L6.70409 21.3636L8.54646 21.5678L8.58967 21.1701ZM24.4896 19.3079C24.1266 19.1635 23.727 19.3445 23.5723 19.6886L23.9371 19.8534C24.0095 19.6923 24.1902 19.6191 24.3425 19.6796L24.4896 19.3079ZM25.4861 20.4626C25.6448 20.102 25.4605 19.6941 25.1045 19.5525L24.9575 19.9242C25.1132 19.9862 25.1829 20.1579 25.12 20.3007L25.4861 20.4626ZM5.27283 22.2935C5.23934 22.2806 5.21083 22.2576 5.19111 22.2279L5.52417 22.0071C5.49809 21.9678 5.46038 21.9374 5.41616 21.9203L5.27283 22.2935ZM8.95712 22.409C9.43756 22.0168 9.20669 21.2385 8.58967 21.1701L8.54646 21.5678C8.8109 21.5971 8.90985 21.9307 8.70394 22.0987L8.95712 22.409ZM5.15885 22.1972C5.185 22.2412 5.22514 22.2751 5.27283 22.2935L5.41616 21.9203C5.45225 21.9343 5.48263 21.9599 5.50241 21.9932L5.15885 22.1972ZM8.66344 23.0652C8.53632 22.9563 8.53666 22.7521 8.67872 22.6362L8.42554 22.3259C8.1033 22.5889 8.07474 23.087 8.40367 23.3689L8.66344 23.0652ZM5.65787 20.8453C5.08389 20.7817 4.68554 21.4014 4.98104 21.8983L5.32459 21.6942C5.19795 21.4813 5.36868 21.2157 5.61467 21.2429L5.65787 20.8453ZM6.6047 20.9965C6.64287 20.9708 6.68891 20.9595 6.73467 20.9646L6.69147 21.3622C6.73959 21.3676 6.78802 21.3557 6.82816 21.3287L6.6047 20.9965ZM6.88966 21.0531C6.82721 20.9585 6.69965 20.9326 6.60563 20.9958L6.8291 21.3281C6.7387 21.3888 6.61606 21.364 6.55602 21.273L6.88966 21.0531ZM6.55602 21.273C6.5895 21.3238 6.64379 21.357 6.70409 21.3636L6.74729 20.966C6.80527 20.9724 6.85747 21.0043 6.88966 21.0531L6.55602 21.273Z" fill="#EE0033" mask="url(#path-1-outside-1)"/>
<mask id="path-3-outside-2" maskUnits="userSpaceOnUse" x="3.25594" y="0.477137" width="23.4619" height="14.4368" fill="black">
<rect fill="white" x="3.25594" y="0.477137" width="23.4619" height="14.4368"/>
<path fill-rule="evenodd" clip-rule="evenodd" d="M23.1708 9.7621C23.172 9.76229 23.173 9.76298 23.1735 9.76397C23.1746 9.76584 23.177 9.76645 23.1789 9.76535L23.1798 9.76478C23.1808 9.76418 23.182 9.76395 23.1832 9.76414L24.2525 9.94033C24.6595 10.0074 24.9666 9.58026 24.7742 9.21464L24.6123 8.90687C24.6094 8.90134 24.6047 8.89695 24.599 8.8944C24.5938 8.89204 24.5893 8.88809 24.5864 8.88311C23.5223 7.0814 21.9922 5.60631 20.1602 4.61658C18.3181 3.62142 16.2412 3.15501 14.1551 3.26801C12.069 3.38101 10.0535 4.0691 8.32737 5.25755C6.7373 6.35232 5.44885 7.83314 4.57837 9.56047C4.45462 9.80602 4.56638 10.1022 4.81659 10.2174L5.41812 10.4943C5.67001 10.6102 5.96632 10.4986 6.09281 10.2524C6.83623 8.80527 7.92445 7.56416 9.26254 6.64287C10.738 5.627 12.4609 5.03882 14.244 4.94223C16.0272 4.84564 17.8025 5.24432 19.3771 6.09498C20.1425 6.50846 20.8462 7.02105 21.4719 7.6169C21.6895 7.82411 21.6568 8.17412 21.4151 8.35108L21.1256 8.56301C20.7684 8.82456 20.9041 9.3886 21.3417 9.4607L23.1708 9.7621Z"/>
</mask>
<path fill-rule="evenodd" clip-rule="evenodd" d="M23.1708 9.7621C23.172 9.76229 23.173 9.76298 23.1735 9.76397C23.1746 9.76584 23.177 9.76645 23.1789 9.76535L23.1798 9.76478C23.1808 9.76418 23.182 9.76395 23.1832 9.76414L24.2525 9.94033C24.6595 10.0074 24.9666 9.58026 24.7742 9.21464L24.6123 8.90687C24.6094 8.90134 24.6047 8.89695 24.599 8.8944C24.5938 8.89204 24.5893 8.88809 24.5864 8.88311C23.5223 7.0814 21.9922 5.60631 20.1602 4.61658C18.3181 3.62142 16.2412 3.15501 14.1551 3.26801C12.069 3.38101 10.0535 4.0691 8.32737 5.25755C6.7373 6.35232 5.44885 7.83314 4.57837 9.56047C4.45462 9.80602 4.56638 10.1022 4.81659 10.2174L5.41812 10.4943C5.67001 10.6102 5.96632 10.4986 6.09281 10.2524C6.83623 8.80527 7.92445 7.56416 9.26254 6.64287C10.738 5.627 12.4609 5.03882 14.244 4.94223C16.0272 4.84564 17.8025 5.24432 19.3771 6.09498C20.1425 6.50846 20.8462 7.02105 21.4719 7.6169C21.6895 7.82411 21.6568 8.17412 21.4151 8.35108L21.1256 8.56301C20.7684 8.82456 20.9041 9.3886 21.3417 9.4607L23.1708 9.7621Z" fill="#EE0033"/>
<path d="M20.1602 4.61658L20.0656 4.79261L20.1602 4.61658ZM14.1551 3.26801L14.1437 3.0682L14.1437 3.0682L14.1551 3.26801ZM8.32737 5.25755L8.44099 5.42252L8.32737 5.25755ZM9.26254 6.64287L9.37616 6.80784L9.26254 6.64287ZM14.244 4.94223L14.2326 4.74243L14.244 4.94223ZM19.3771 6.09498L19.4716 5.91895L19.3771 6.09498ZM4.57837 9.56047L4.39983 9.46992L4.57837 9.56047ZM4.81659 10.2174L4.73352 10.3992L4.81659 10.2174ZM24.5864 8.88311L24.7584 8.78166L24.5864 8.88311ZM21.3417 9.4607L21.3736 9.26326L21.3417 9.4607ZM24.6123 8.90687L24.4355 8.9997L24.6123 8.90687ZM21.4151 8.35108L21.5334 8.51271L21.4151 8.35108ZM24.2525 9.94033L24.2844 9.74289L24.2525 9.94033ZM24.7742 9.21464L24.5974 9.30748L24.7742 9.21464ZM23.1798 9.76478L23.2828 9.93662L23.1798 9.76478ZM23.1832 9.76414L23.1513 9.96158L23.1832 9.76414ZM23.1789 9.76535L23.2818 9.93719L23.1789 9.76535ZM23.1708 9.7621L23.2027 9.56466L23.1708 9.7621ZM23.2818 9.93719L23.2828 9.93662L23.0769 9.59294L23.076 9.59351L23.2818 9.93719ZM23.1513 9.96158L24.2206 10.1378L24.2844 9.74289L23.2151 9.5667L23.1513 9.96158ZM24.9511 9.12181L24.7891 8.81403L24.4355 8.9997L24.5974 9.30748L24.9511 9.12181ZM24.7584 8.78166C23.6759 6.94866 22.119 5.44771 20.2547 4.44055L20.0656 4.79261C21.8654 5.76491 23.3688 7.21414 24.4144 8.98456L24.7584 8.78166ZM20.2547 4.44055C18.3802 3.42786 16.2666 2.95321 14.1437 3.0682L14.1665 3.46782C16.2158 3.35681 18.256 3.81498 20.0656 4.79261L20.2547 4.44055ZM14.1437 3.0682C12.0208 3.1832 9.96994 3.88342 8.21375 5.09257L8.44099 5.42252C10.137 4.25478 12.1172 3.57882 14.1665 3.46782L14.1437 3.0682ZM8.21375 5.09257C6.59599 6.20642 5.28529 7.71288 4.39983 9.46992L4.7569 9.65101C5.61241 7.95339 6.87861 6.49823 8.44099 5.42252L8.21375 5.09257ZM4.73352 10.3992L5.33506 10.676L5.50119 10.3125L4.89966 10.0357L4.73352 10.3992ZM6.27064 10.3443C6.9991 8.92632 8.06533 7.71036 9.37616 6.80784L9.14892 6.4779C7.78357 7.41795 6.67337 8.68422 5.91498 10.1605L6.27064 10.3443ZM9.37616 6.80784C10.8215 5.81268 12.5091 5.23664 14.2554 5.14204L14.2326 4.74243C12.4127 4.84101 10.6545 5.44132 9.14892 6.4779L9.37616 6.80784ZM14.2554 5.14204C16.0018 5.04744 17.7404 5.43788 19.2826 6.271L19.4716 5.91895C17.8646 5.05076 16.0526 4.64384 14.2326 4.74243L14.2554 5.14204ZM19.2826 6.271C20.0322 6.67597 20.7214 7.17803 21.3343 7.76168L21.6095 7.47212C20.9709 6.86407 20.2528 6.34095 19.4716 5.91895L19.2826 6.271ZM21.2968 8.18944L21.0073 8.40137L21.2439 8.72465L21.5334 8.51271L21.2968 8.18944ZM21.3098 9.65814L23.1389 9.95954L23.2027 9.56466L21.3736 9.26326L21.3098 9.65814ZM5.33506 10.676C5.68993 10.8394 6.09832 10.6798 6.27064 10.3443L5.91498 10.1605C5.83432 10.3175 5.65009 10.3811 5.50119 10.3125L5.33506 10.676ZM4.39983 9.46992C4.22255 9.8217 4.38537 10.2389 4.73352 10.3992L4.89966 10.0357C4.74739 9.96557 4.68669 9.79033 4.7569 9.65101L4.39983 9.46992ZM24.6803 8.71181C24.713 8.72649 24.7403 8.75095 24.7584 8.78166L24.4144 8.98456C24.4384 9.02523 24.4745 9.05759 24.5178 9.07699L24.6803 8.71181ZM21.0073 8.40137C20.5071 8.76754 20.6972 9.5572 21.3098 9.65814L21.3736 9.26326C21.111 9.22 21.0296 8.88158 21.2439 8.72465L21.0073 8.40137ZM24.7891 8.81403C24.7653 8.76873 24.7269 8.73273 24.6803 8.71181L24.5178 9.07699C24.4825 9.06117 24.4535 9.03395 24.4355 8.9997L24.7891 8.81403ZM21.3343 7.76168C21.4557 7.87719 21.4447 8.08116 21.2968 8.18944L21.5334 8.51271C21.8689 8.26709 21.9233 7.77102 21.6095 7.47212L21.3343 7.76168ZM24.2206 10.1378C24.7904 10.2317 25.2204 9.63368 24.9511 9.12181L24.5974 9.30748C24.7129 9.52685 24.5286 9.78314 24.2844 9.74289L24.2206 10.1378ZM23.2828 9.93662C23.2433 9.96023 23.1967 9.96907 23.1513 9.96158L23.2151 9.5667C23.1673 9.55883 23.1184 9.56813 23.0769 9.59294L23.2828 9.93662ZM23.0013 9.86497C23.0587 9.96279 23.1847 9.99529 23.2818 9.93719L23.076 9.59351C23.1694 9.53761 23.2906 9.56888 23.3458 9.66298L23.0013 9.86497ZM23.3458 9.66298C23.315 9.61055 23.2626 9.57453 23.2027 9.56466L23.1389 9.95954C23.0813 9.95005 23.0309 9.9154 23.0013 9.86497L23.3458 9.66298Z" fill="#EE0033" mask="url(#path-3-outside-2)"/>
<path d="M16.8424 10.8496L10.9297 16.1938L17.982 18.6711" stroke="#C4C4C4"/>
<circle cx="10.9297" cy="16.1719" r="2.25" fill="#828282"/>
<ellipse cx="16.4297" cy="11.2832" rx="2.25" ry="2.25" fill="#828282"/>
<ellipse cx="17.7754" cy="18.4219" rx="2.25" ry="2.25" fill="#828282"/>
</svg>
