<svg width="190" height="190" viewBox="0 0 190 190" fill="none" xmlns="http://www.w3.org/2000/svg">
<g filter="url(#filter0_d)">
<circle cx="95" cy="85" r="55" fill="white"/>
</g>
<g clip-path="url(#clip0)">
<path d="M78.3819 107.493C75.2184 107.493 72.5068 104.782 72.5068 101.618V87.0059H84.2568V101.618C84.2568 104.932 81.5453 107.493 78.3819 107.493Z" stroke="#EE0033" stroke-width="4" stroke-linecap="round" stroke-linejoin="round"/>
<path d="M84.2568 87.0058V63.5059H116.494C116.494 77.0636 116.494 87.1564 116.494 93.9353C116.494 95.5923 116.494 98.1534 116.494 101.618C116.494 104.782 113.782 107.493 110.619 107.493H78.3818" stroke="#EE0033" stroke-width="4" stroke-linecap="round" stroke-linejoin="round"/>
<path d="M92.9941 72.2441H107.606" stroke="#FE9A00" stroke-width="4" stroke-linecap="round" stroke-linejoin="round"/>
<path d="M92.9941 81.1309H107.606" stroke="#FE9A00" stroke-width="4" stroke-linecap="round" stroke-linejoin="round"/>
<path d="M92.9941 89.8672H107.606" stroke="#FE9A00" stroke-width="4" stroke-linecap="round" stroke-linejoin="round"/>
<path d="M92.9941 98.7559H98.8692" stroke="#FE9A00" stroke-width="4" stroke-linecap="round" stroke-linejoin="round"/>
</g>
<defs>
<filter id="filter0_d" x="0" y="0" width="190" height="190" filterUnits="userSpaceOnUse" color-interpolation-filters="sRGB">
<feFlood flood-opacity="0" result="BackgroundImageFix"/>
<feColorMatrix in="SourceAlpha" type="matrix" values="0 0 0 0 0 0 0 0 0 0 0 0 0 0 0 0 0 0 127 0"/>
<feOffset dy="10"/>
<feGaussianBlur stdDeviation="20"/>
<feColorMatrix type="matrix" values="0 0 0 0 0.152941 0 0 0 0 0.203922 0 0 0 0 0.490196 0 0 0 0.12 0"/>
<feBlend mode="normal" in2="BackgroundImageFix" result="effect1_dropShadow"/>
<feBlend mode="normal" in="SourceGraphic" in2="effect1_dropShadow" result="shape"/>
</filter>
<clipPath id="clip0">
<rect width="47" height="47" fill="white" transform="translate(71 62)"/>
</clipPath>
</defs>
</svg>
