<svg width="30" height="30" viewBox="0 0 30 30" fill="none" xmlns="http://www.w3.org/2000/svg">
<path d="M19.8828 20.4707L24.4276 24.8475C24.7117 25.1211 25.1662 24.9022 25.1662 24.574V20.4707H19.8828Z" fill="#828282"/>
<path d="M27.5534 23.206H12.7827C12.1578 23.206 11.6465 22.7136 11.6465 22.1117V16.1483C11.6465 13.7411 13.6917 11.7715 16.1913 11.7715H27.4965C28.1215 11.7715 28.6327 12.2639 28.6327 12.8657V22.1665C28.6896 22.7136 28.1783 23.206 27.5534 23.206Z" fill="#C4C4C4"/>
<path d="M10.1115 13.7422L5.56666 18.119C5.28261 18.3926 4.82812 18.1737 4.82812 17.8455V13.7422H10.1115Z" fill="#92001F"/>
<path d="M2.44285 16.4774H13.7481C16.2477 16.4774 18.2929 14.5079 18.2929 12.1006V6.13718C18.2929 5.53536 17.7816 5.04297 17.1567 5.04297H2.44285C1.81793 5.04297 1.30664 5.53536 1.30664 6.13718V15.4379C1.30664 15.985 1.81793 16.4774 2.44285 16.4774Z" fill="#EE0033"/>
<path d="M9.43043 8.81846L7.83974 12.2105C7.72612 12.4841 7.89655 12.8123 8.23741 12.8123H11.362C11.646 12.8123 11.8733 12.4841 11.7597 12.2105L10.169 8.81846C10.0553 8.4902 9.54405 8.4902 9.43043 8.81846Z" fill="#C4C4C4"/>
<path d="M20.7921 17.4071C21.417 17.4071 21.8715 16.9147 21.8715 16.3676C21.8715 15.7658 21.3602 15.3281 20.7921 15.3281H18.9174C18.6901 15.3281 18.4629 15.547 18.4629 15.7658V17.4618V19.1579C18.4629 19.3767 18.6901 19.5955 18.9174 19.5955H20.8489C21.4738 19.5955 21.9283 19.1031 21.9283 18.556C21.9283 17.8995 21.417 17.4071 20.7921 17.4071Z" fill="#EE0033"/>
</svg>
