<svg width="190" height="190" viewBox="0 0 190 190" fill="none" xmlns="http://www.w3.org/2000/svg">
<g filter="url(#filter0_d)">
<circle cx="95" cy="85" r="55" fill="white"/>
</g>
<path fill-rule="evenodd" clip-rule="evenodd" d="M95.0003 80.3346C92.423 80.3346 90.3337 82.424 90.3337 85.0013C90.3337 87.5786 92.423 89.668 95.0003 89.668C97.5777 89.668 99.667 87.5786 99.667 85.0013C99.667 82.424 97.5777 80.3346 95.0003 80.3346ZM85.667 85.0013C85.667 79.8466 89.8457 75.668 95.0003 75.668C100.155 75.668 104.334 79.8466 104.334 85.0013C104.334 90.156 100.155 94.3346 95.0003 94.3346C89.8457 94.3346 85.667 90.156 85.667 85.0013Z" fill="#FE9A00"/>
<path fill-rule="evenodd" clip-rule="evenodd" d="M88.0187 59.0438C88.1646 57.8762 89.1572 57 90.334 57H99.6673C100.844 57 101.837 57.8762 101.983 59.0438L102.79 65.5006C104.654 66.2503 106.402 67.2642 107.978 68.511L113.988 65.9755C115.072 65.5181 116.327 65.9396 116.915 66.9586L121.582 75.0413C122.17 76.0603 121.908 77.3579 120.97 78.0682L115.781 81.9975C115.925 82.9896 115.999 83.9914 116.001 84.9952L113.667 85L116.001 85.0048C115.999 86.0086 115.925 87.0104 115.781 88.0025L120.97 91.9318C121.908 92.6421 122.17 93.9397 121.582 94.9587L116.915 103.041C116.327 104.06 115.072 104.482 113.988 104.025L107.978 101.489C106.402 102.736 104.654 103.75 102.79 104.499L101.983 110.956C101.837 112.124 100.844 113 99.6673 113H90.334C89.1572 113 88.1646 112.124 88.0187 110.956L87.2113 104.499C85.3468 103.75 83.5996 102.736 82.0235 101.489L76.0136 104.025C74.9294 104.482 73.6743 104.06 73.0859 103.041L68.4192 94.9587C67.8309 93.9397 68.0933 92.6421 69.0314 91.9318L74.2191 88.0037C73.9279 86.0119 73.9279 83.9881 74.2191 81.9963L69.0314 78.0682C68.0933 77.3579 67.8309 76.0603 68.4192 75.0413L73.0859 66.9586C73.6743 65.9396 74.9294 65.5181 76.0136 65.9755L82.0235 68.511C83.5996 67.2642 85.3468 66.2503 87.2113 65.5006L88.0187 59.0438ZM111.334 85C111.331 83.8244 111.202 82.6525 110.95 81.5044C110.754 80.6148 111.094 79.6926 111.82 79.1428L116.511 75.5911L113.904 71.0758L108.468 73.3692C107.627 73.7239 106.657 73.5559 105.984 72.9393C104.247 71.3465 102.185 70.1494 99.9402 69.4305C99.075 69.1533 98.4494 68.3993 98.3366 67.4978L97.6075 61.6667H92.3937L91.6646 67.4978C91.5519 68.3993 90.9262 69.1533 90.061 69.4305C87.8164 70.1494 85.7544 71.3465 84.0171 72.9393C83.3444 73.5559 82.3741 73.7239 81.5333 73.3692L76.0974 71.0758L73.4905 75.5911L78.1812 79.1428C78.9087 79.6936 79.2483 80.6181 79.0504 81.5089C78.5397 83.8083 78.5397 86.1917 79.0504 88.4911C79.2483 89.3819 78.9087 90.3064 78.1812 90.8572L73.4905 94.4089L76.0974 98.9242L81.5333 96.6308C82.3741 96.2761 83.3444 96.4441 84.0171 97.0607C85.7544 98.6535 87.8164 99.8506 90.061 100.57C90.9262 100.847 91.5519 101.601 91.6646 102.502L92.3937 108.333H97.6075L98.3366 102.502C98.4494 101.601 99.075 100.847 99.9402 100.57C102.185 99.8506 104.247 98.6535 105.984 97.0607C106.657 96.4441 107.627 96.2761 108.468 96.6308L113.904 98.9242L116.511 94.4089L111.82 90.8572C111.094 90.3074 110.754 89.3852 110.95 88.4956C111.202 87.3475 111.331 86.1756 111.334 85Z" fill="#EE0033"/>
<defs>
<filter id="filter0_d" x="0" y="0" width="190" height="190" filterUnits="userSpaceOnUse" color-interpolation-filters="sRGB">
<feFlood flood-opacity="0" result="BackgroundImageFix"/>
<feColorMatrix in="SourceAlpha" type="matrix" values="0 0 0 0 0 0 0 0 0 0 0 0 0 0 0 0 0 0 127 0"/>
<feOffset dy="10"/>
<feGaussianBlur stdDeviation="20"/>
<feColorMatrix type="matrix" values="0 0 0 0 0.152941 0 0 0 0 0.203922 0 0 0 0 0.490196 0 0 0 0.12 0"/>
<feBlend mode="normal" in2="BackgroundImageFix" result="effect1_dropShadow"/>
<feBlend mode="normal" in="SourceGraphic" in2="effect1_dropShadow" result="shape"/>
</filter>
</defs>
</svg>
