<svg width="76" height="59" viewBox="0 0 76 59" fill="none" xmlns="http://www.w3.org/2000/svg">
<path d="M55.0638 43.9049C56.456 43.9049 57.5846 42.7763 57.5846 41.3841C57.5846 39.9919 56.456 38.8633 55.0638 38.8633C53.6716 38.8633 52.543 39.9919 52.543 41.3841C52.543 42.7763 53.6716 43.9049 55.0638 43.9049Z" fill="#FE9A00"/>
<path d="M29.5958 34.7392C29.5958 35.5249 29.0701 36.0487 28.2817 36.0487H16.4547C15.6663 36.0487 15.1406 35.5249 15.1406 34.7392C15.1406 33.9535 15.6663 33.4297 16.4547 33.4297H28.2817C29.0701 33.4297 29.5958 33.9535 29.5958 34.7392Z" stroke="#FE9A00" stroke-width="3.5" stroke-miterlimit="10" stroke-linecap="round" stroke-linejoin="round"/>
<path d="M70.1176 21H74L52.6471 2L46.9529 6.75L30 21H33.8824H70.1176Z" stroke="#EE0033" stroke-width="3.5" stroke-miterlimit="10" stroke-linecap="round" stroke-linejoin="round"/>
<path d="M34 40V31.5294V26.2353V25.1765V22" stroke="#EE0033" stroke-width="3.5" stroke-miterlimit="10" stroke-linecap="round" stroke-linejoin="round"/>
<path d="M70 22V26.2353V40" stroke="#EE0033" stroke-width="3.5" stroke-miterlimit="10" stroke-linecap="round" stroke-linejoin="round"/>
<path d="M59.8203 51.7617H67.7049" stroke="#EE0033" stroke-width="3.5" stroke-miterlimit="10" stroke-linecap="round" stroke-linejoin="round"/>
<path d="M36.168 51.7617H44.0526" stroke="#EE0033" stroke-width="3.5" stroke-miterlimit="10" stroke-linecap="round" stroke-linejoin="round"/>
<path d="M72.9616 51.7617V56.9998H30.9102V51.7617" stroke="#EE0033" stroke-width="3.5" stroke-miterlimit="10" stroke-linecap="round" stroke-linejoin="round"/>
<path d="M36.1666 51.7583H30.9102V39.9727H33.5384H36.1666V51.7583Z" stroke="#EE0033" stroke-width="3.5" stroke-miterlimit="10" stroke-linecap="round" stroke-linejoin="round"/>
<path d="M72.9595 51.7583H67.7031V39.9727H70.3313H72.9595V51.7583Z" stroke="#EE0033" stroke-width="3.5" stroke-miterlimit="10" stroke-linecap="round" stroke-linejoin="round"/>
<path d="M59.6677 29.5H43.8984V51.7617H59.6677V29.5Z" stroke="#EE0033" stroke-width="3.5" stroke-miterlimit="10" stroke-linecap="round" stroke-linejoin="round"/>
<path d="M35 21H69" stroke="#EE0033" stroke-width="3.5" stroke-miterlimit="10" stroke-linecap="round" stroke-linejoin="round"/>
<path d="M46.811 5.92969H12.5129L2 21.6438H5.94232H33.5386" stroke="#EE0033" stroke-width="3.5" stroke-miterlimit="10" stroke-linecap="round" stroke-linejoin="round"/>
<path d="M5.94141 21.6445V57.0013H11.1978H30.9094" stroke="#EE0033" stroke-width="3.5" stroke-miterlimit="10" stroke-linecap="round" stroke-linejoin="round"/>
<path d="M33.539 29.5H11.1992V56.9997" stroke="#EE0033" stroke-width="3.5" stroke-miterlimit="10" stroke-linecap="round" stroke-linejoin="round"/>
</svg>
