<svg width="20" height="20" viewBox="0 0 20 20" fill="none" xmlns="http://www.w3.org/2000/svg">
<path d="M15.5105 14.6573L14.7251 15.4469C14.4392 15.7343 14.0259 15.8739 13.6138 15.8221L12.824 15.7228C7.61439 15.0681 3.83502 10.6709 4.1898 5.67724C4.21414 5.3346 4.39958 5.02075 4.69443 4.82311L5.41261 4.34174C5.8683 4.03631 6.49747 4.13913 6.82021 4.57177L7.78824 5.86945C8.07028 6.24753 8.11585 6.74126 7.9074 7.16041L7.5755 7.8278C7.5755 7.8278 6.90606 9.17392 8.91439 11.1931C10.9227 13.2123 12.2616 12.2027 12.2616 12.2027L12.6064 11.9427C13.1691 11.5184 13.9789 11.5735 14.4725 12.0698L15.5105 13.1134C15.9411 13.5463 15.9411 14.2244 15.5105 14.6573Z" stroke="black" stroke-width="0.833333" stroke-linecap="round" stroke-linejoin="round"/>
</svg>
