<svg width="30" height="30" viewBox="0 0 30 30" fill="none" xmlns="http://www.w3.org/2000/svg">
<path d="M25.7968 21.6278C23.9078 20.503 22.6695 18.5415 22.4797 16.364L22.0006 10.8662C21.7204 7.68991 18.7558 5.27845 15.059 4.99052L14.9867 4.1897C14.9054 3.30789 14.128 2.66004 13.2423 2.73202C12.3565 2.80401 11.7057 3.58683 11.778 4.46864L11.8503 5.26946C8.262 6.19625 5.75832 9.0846 6.03851 12.2609L6.51756 17.7587C6.70737 19.9452 5.83063 22.0867 4.16753 23.5174C3.93253 23.8503 4.27599 24.2102 4.76407 24.1742L15.05 23.2834L25.3359 22.3926C25.8149 22.3386 26.0861 21.9157 25.7968 21.6278Z" fill="#EE0033"/>
<path d="M15.5744 23.9126C15.9811 23.8767 16.3155 24.2366 16.2523 24.6325C16.0263 26.0182 14.8784 27.1249 13.4142 27.2509C11.9499 27.3769 10.6212 26.4861 10.1603 25.1634C10.0247 24.7765 10.2958 24.3715 10.7026 24.3356L15.5744 23.9126Z" fill="#C4C4C4"/>
</svg>
