<svg width="30" height="30" viewBox="0 0 30 30" fill="none" xmlns="http://www.w3.org/2000/svg">
<path d="M7.0293 3.00195L19.272 3.00196C19.6249 3.00196 19.9516 3.18793 20.1318 3.49132L23.5221 9.19963C23.7974 9.6632 23.9427 10.1924 23.9427 10.7316V25.9519C23.9427 26.5042 23.495 26.9519 22.9427 26.9519H7.0293C6.47701 26.9519 6.0293 26.5042 6.0293 25.9519V4.00195C6.0293 3.44967 6.47701 3.00195 7.0293 3.00195Z" fill="#C4C4C4"/>
<path d="M8.61719 14.6738C8.61719 14.1215 9.0649 13.6738 9.61719 13.6738H19.9499C20.5022 13.6738 20.9499 14.1215 20.9499 14.6738V26.9967H8.61719V14.6738Z" fill="#EE0033"/>
<path fill-rule="evenodd" clip-rule="evenodd" d="M13.0821 23.2009C13.0255 23.1757 12.9952 23.1143 13.0074 23.0534L13.1752 22.2133C13.2504 21.8368 12.8911 21.5218 12.5268 21.6448L10.7079 22.2587C10.4698 22.339 10.3988 22.6414 10.5768 22.817C10.5895 22.8296 10.6013 22.8433 10.6119 22.8577C11.1009 23.5196 11.759 24.0471 12.5222 24.3875C13.3249 24.7455 14.2131 24.8828 15.0904 24.7846C15.9677 24.6863 16.8006 24.3562 17.4985 23.8301C18.059 23.4076 18.5153 22.8716 18.8372 22.2617C18.9676 22.0146 18.8358 21.7208 18.5749 21.6234L18.257 21.5048C18.0012 21.4093 17.718 21.5397 17.5811 21.777C17.3535 22.1715 17.0461 22.5192 16.6758 22.7983C16.1718 23.1783 15.5703 23.4167 14.9368 23.4876C14.3032 23.5586 13.6617 23.4594 13.0821 23.2009Z" fill="white"/>
<path fill-rule="evenodd" clip-rule="evenodd" d="M16.366 17.7906C16.4216 17.8195 16.4484 17.8835 16.4322 17.9443L16.2125 18.7709C16.1138 19.142 16.4529 19.4777 16.8244 19.3766L18.67 18.8741C18.9164 18.807 19.0077 18.5051 18.8385 18.3163C18.8265 18.3029 18.8156 18.2885 18.8058 18.2734C18.3596 17.5866 17.7374 17.0233 16.9993 16.6395C16.2206 16.2345 15.3427 16.0446 14.4609 16.0906C13.579 16.1366 12.727 16.4167 11.9973 16.9003C11.4112 17.2888 10.922 17.7968 10.5624 18.3866C10.4168 18.6254 10.53 18.9262 10.7843 19.0389L11.0938 19.1761C11.3433 19.2866 11.6343 19.1733 11.7859 18.9446C12.0379 18.5644 12.3665 18.2356 12.7537 17.979C13.2806 17.6297 13.8959 17.4275 14.5328 17.3943C15.1696 17.361 15.8036 17.4981 16.366 17.7906Z" fill="white"/>
</svg>
