<svg width="20" height="20" viewBox="0 0 20 20" fill="none" xmlns="http://www.w3.org/2000/svg">
<path d="M2.5 5.33301C2.22386 5.33301 2 5.55687 2 5.83301C2 6.10915 2.22386 6.33301 2.5 6.33301V5.33301ZM7.5 12.833C7.22386 12.833 7 13.0569 7 13.333C7 13.6092 7.22386 13.833 7.5 13.833V12.833ZM5 13.833C5.27614 13.833 5.5 13.6092 5.5 13.333C5.5 13.0569 5.27614 12.833 5 12.833V13.833ZM3.33333 12.833C3.05719 12.833 2.83333 13.0569 2.83333 13.333C2.83333 13.6092 3.05719 13.833 3.33333 13.833V12.833ZM10.8333 7.49967V6.99967H10.3333V7.49967H10.8333ZM14.4161 7.79068L14.7957 7.46529V7.46529L14.4161 7.79068ZM16.466 10.1823L16.0864 10.5077L16.466 10.1823ZM15 12.833C14.7239 12.833 14.5 13.0569 14.5 13.333C14.5 13.6092 14.7239 13.833 15 13.833V12.833ZM12.5 13.833C12.7761 13.833 13 13.6092 13 13.333C13 13.0569 12.7761 12.833 12.5 12.833V13.833ZM5.83333 11.333C6.10948 11.333 6.33333 11.1092 6.33333 10.833C6.33333 10.5569 6.10948 10.333 5.83333 10.333V11.333ZM2.5 10.333C2.22386 10.333 2 10.5569 2 10.833C2 11.1092 2.22386 11.333 2.5 11.333V10.333ZM6.66667 8.83301C6.94281 8.83301 7.16667 8.60915 7.16667 8.33301C7.16667 8.05687 6.94281 7.83301 6.66667 7.83301V8.83301ZM3.33333 7.83301C3.05719 7.83301 2.83333 8.05687 2.83333 8.33301C2.83333 8.60915 3.05719 8.83301 3.33333 8.83301V7.83301ZM2.5 6.33301H10V5.33301H2.5V6.33301ZM10.3333 6.66634V13.333H11.3333V6.66634H10.3333ZM10.8333 12.833H7.5V13.833H10.8333V12.833ZM5 12.833H3.33333V13.833H5V12.833ZM10 6.33301C10.1841 6.33301 10.3333 6.48225 10.3333 6.66634H11.3333C11.3333 5.92996 10.7364 5.33301 10 5.33301V6.33301ZM10.8333 7.99967H13.7834V6.99967H10.8333V7.99967ZM11.3333 13.333V7.49967H10.3333V13.333H11.3333ZM14.0365 8.11608L16.0864 10.5077L16.8457 9.85689L14.7957 7.46529L14.0365 8.11608ZM16.1667 10.7246V12.4997H17.1667V10.7246H16.1667ZM15.8333 12.833H15V13.833H15.8333V12.833ZM12.5 12.833H10.8333V13.833H12.5V12.833ZM16.0864 10.5077C16.1382 10.5681 16.1667 10.645 16.1667 10.7246H17.1667C17.1667 10.4063 17.0528 10.0985 16.8457 9.85689L16.0864 10.5077ZM16.1667 12.4997C16.1667 12.6838 16.0174 12.833 15.8333 12.833V13.833C16.5697 13.833 17.1667 13.2361 17.1667 12.4997H16.1667ZM13.7834 7.99967C13.8807 7.99967 13.9731 8.0422 14.0365 8.11608L14.7957 7.46529C14.5424 7.16976 14.1726 6.99967 13.7834 6.99967V7.99967ZM13.75 14.4997C13.3358 14.4997 13 14.1639 13 13.7497H12C12 14.7162 12.7835 15.4997 13.75 15.4997V14.4997ZM13 13.7497C13 13.3355 13.3358 12.9997 13.75 12.9997V11.9997C12.7835 11.9997 12 12.7832 12 13.7497H13ZM13.75 12.9997C14.1642 12.9997 14.5 13.3355 14.5 13.7497H15.5C15.5 12.7832 14.7165 11.9997 13.75 11.9997V12.9997ZM14.5 13.7497C14.5 14.1639 14.1642 14.4997 13.75 14.4997V15.4997C14.7165 15.4997 15.5 14.7162 15.5 13.7497H14.5ZM6.25 14.4997C5.83579 14.4997 5.5 14.1639 5.5 13.7497H4.5C4.5 14.7162 5.2835 15.4997 6.25 15.4997V14.4997ZM5.5 13.7497C5.5 13.3355 5.83579 12.9997 6.25 12.9997V11.9997C5.2835 11.9997 4.5 12.7832 4.5 13.7497H5.5ZM6.25 12.9997C6.66421 12.9997 7 13.3355 7 13.7497H8C8 12.7832 7.2165 11.9997 6.25 11.9997V12.9997ZM7 13.7497C7 14.1639 6.66421 14.4997 6.25 14.4997V15.4997C7.2165 15.4997 8 14.7162 8 13.7497H7ZM5.83333 10.333H2.5V11.333H5.83333V10.333ZM6.66667 7.83301H3.33333V8.83301H6.66667V7.83301Z" fill="#EE0033"/>
</svg>
