<svg width="30" height="30" viewBox="0 0 30 30" fill="none" xmlns="http://www.w3.org/2000/svg">
<path d="M18.3486 22.4V4.25C18.3486 3.55 17.8069 3 17.1175 3H4.60997C3.92057 3 3.37891 3.55 3.37891 4.25V22.45C3.37891 24.95 5.39785 27 7.90921 27H22.8789C20.3675 27 18.3486 24.95 18.3486 22.4Z" fill="#DCDCDC"/>
<path d="M12.5977 24.0938C12.3156 24.0938 12.0335 24.2813 11.9394 24.5156C11.2342 26.0156 9.7767 27 8.03711 27H22.33C23.6934 27 24.9628 26.3437 25.7151 25.3594C26.0912 24.8437 25.7621 24.1406 25.1039 24.1406H12.5977V24.0938Z" fill="#EE0033"/>
<path d="M15.5507 9.2444H8.64752C8.39026 9.2444 8.21875 8.91963 8.21875 8.59486C8.21875 8.20513 8.43313 7.94531 8.64752 7.94531H15.5507C15.808 7.94531 15.9795 8.27008 15.9795 8.59486C16.0224 8.91963 15.808 9.2444 15.5507 9.2444Z" fill="#828282"/>
<path d="M15.5507 13.012H8.64752C8.39026 13.012 8.21875 12.6872 8.21875 12.3624C8.21875 11.9727 8.43313 11.7129 8.64752 11.7129H15.5507C15.808 11.7129 15.9795 12.0377 15.9795 12.3624C16.0224 12.7522 15.808 13.012 15.5507 13.012Z" fill="#828282"/>
<path d="M15.5507 16.844H8.64752C8.39026 16.844 8.21875 16.5192 8.21875 16.1945C8.21875 15.8047 8.43313 15.5449 8.64752 15.5449H15.5507C15.808 15.5449 15.9795 15.8697 15.9795 16.1945C16.0224 16.5192 15.808 16.844 15.5507 16.844Z" fill="#828282"/>
<path d="M13.8109 20.6116H8.76167C8.43592 20.6116 8.21875 20.2868 8.21875 19.962C8.21875 19.5723 8.49021 19.3125 8.76167 19.3125H13.8109C14.1366 19.3125 14.3538 19.6373 14.3538 19.962C14.4081 20.2868 14.1366 20.6116 13.8109 20.6116Z" fill="#828282"/>
<path d="M5.78276 9.63323C6.3348 9.63323 6.78232 9.16793 6.78232 8.59396C6.78232 8.01999 6.3348 7.55469 5.78276 7.55469C5.23072 7.55469 4.7832 8.01999 4.7832 8.59396C4.7832 9.16793 5.23072 9.63323 5.78276 9.63323Z" fill="#EE0033"/>
<path d="M5.78276 13.4008C6.3348 13.4008 6.78232 12.9355 6.78232 12.3615C6.78232 11.7876 6.3348 11.3223 5.78276 11.3223C5.23072 11.3223 4.7832 11.7876 4.7832 12.3615C4.7832 12.9355 5.23072 13.4008 5.78276 13.4008Z" fill="#EE0033"/>
<path d="M5.78276 17.1684C6.3348 17.1684 6.78232 16.7031 6.78232 16.1291C6.78232 15.5551 6.3348 15.0898 5.78276 15.0898C5.23072 15.0898 4.7832 15.5551 4.7832 16.1291C4.7832 16.7031 5.23072 17.1684 5.78276 17.1684Z" fill="#EE0033"/>
<path d="M5.78276 21.0004C6.3348 21.0004 6.78232 20.5351 6.78232 19.9611C6.78232 19.3872 6.3348 18.9219 5.78276 18.9219C5.23072 18.9219 4.7832 19.3872 4.7832 19.9611C4.7832 20.5351 5.23072 21.0004 5.78276 21.0004Z" fill="#EE0033"/>
<path fill-rule="evenodd" clip-rule="evenodd" d="M25.909 9.02286C25.1785 8.54028 24.1935 8.74029 23.709 9.4696L16.9351 19.6668L16.9339 19.6686L16.9349 19.6692L16.6289 22.7673L19.589 21.4194L19.581 21.414L26.3546 11.2172C26.8391 10.4879 26.6396 9.50544 25.909 9.02286Z" fill="#EE0033"/>
</svg>
