<svg width="30" height="31" viewBox="0 0 30 31" fill="none" xmlns="http://www.w3.org/2000/svg">
<path d="M20.375 26.4493L10.8941 26.4614C9.46479 26.4632 8.31992 25.3343 8.31812 23.9214L8.29584 6.40176C8.29404 4.98888 9.43603 3.85713 10.8653 3.85531L20.3463 3.84325C21.7756 3.84143 22.9204 4.97028 22.9222 6.38316L22.9445 23.9028C22.8987 25.3158 21.7567 26.4475 20.375 26.4493Z" fill="#DCDCDC"/>
<path d="M20.3462 3.84322L10.8652 3.85528C9.43591 3.8571 8.29392 4.98885 8.29572 6.40173L8.318 23.9214C8.3198 25.3343 9.46467 26.4631 10.894 26.4613L20.3749 26.4493C21.8042 26.4474 22.9462 25.3157 22.9444 23.9028L22.9221 6.38313C22.8727 4.97031 21.7278 3.84146 20.3462 3.84322ZM21.9439 23.9041C21.945 24.7989 21.2313 25.5063 20.3261 25.5074L10.8928 25.5194C9.98754 25.5206 9.272 24.815 9.27086 23.9202L9.24858 6.40052C9.24744 5.5057 9.96118 4.79835 10.8664 4.7972L12.0575 4.79568C12.2957 4.79538 12.5817 4.88921 12.7249 5.1245C12.8681 5.31271 13.1541 5.45363 13.3923 5.45333L17.7755 5.44775C18.0137 5.44745 18.2994 5.35289 18.4421 5.11723C18.6323 4.88151 18.8704 4.78702 19.1086 4.78671L20.2997 4.7852C21.2049 4.78405 21.9205 5.48958 21.9216 6.3844L21.9439 23.9041Z" fill="#C4C4C4"/>
<path d="M17.3763 27.7275H7.94882C6.5276 27.7275 5.39062 26.6035 5.39062 25.1986V7.77785C5.39062 6.37295 6.5276 5.24902 7.94882 5.24902H17.3763C18.7975 5.24902 19.9345 6.37295 19.9345 7.77785V25.1986C19.8871 26.6035 18.7501 27.7275 17.3763 27.7275Z" fill="#DCDCDC"/>
<path d="M17.3763 5.24902H7.94882C6.5276 5.24902 5.39062 6.37295 5.39062 7.77785V25.1986C5.39062 26.6035 6.5276 27.7275 7.94882 27.7275H17.3763C18.7975 27.7275 19.9345 26.6035 19.9345 25.1986V7.77785C19.8871 6.37295 18.7501 5.24902 17.3763 5.24902ZM18.9396 25.1986C18.9396 26.0884 18.229 26.7909 17.3289 26.7909H7.94882C7.04872 26.7909 6.33811 26.0884 6.33811 25.1986V7.77785C6.33811 6.88808 7.04872 6.18563 7.94882 6.18563H9.13317C9.37005 6.18563 9.65429 6.27929 9.79641 6.51344C9.93853 6.70076 10.2228 6.84125 10.4596 6.84125H14.8181C15.0549 6.84125 15.3392 6.74759 15.4813 6.51344C15.6708 6.27929 15.9077 6.18563 16.1445 6.18563H17.3289C18.229 6.18563 18.9396 6.88808 18.9396 7.77785V25.1986Z" fill="#828282"/>
<ellipse cx="12.6625" cy="16.4883" rx="5.55469" ry="5.55469" fill="#EE0033"/>
<path d="M7.10779 16.4883C7.10779 19.5561 9.59471 22.043 12.6625 22.043V10.9336C9.59471 10.9336 7.10779 13.4205 7.10779 16.4883Z" fill="#92001F"/>
<path d="M12.6625 15.827C12.5123 15.827 12.3998 15.6948 12.3998 15.5184C12.3998 15.3421 12.5123 15.2098 12.6625 15.2098C12.8126 15.2098 12.9252 15.3421 12.9252 15.5184H14.0511C14.0511 14.8571 13.7134 14.284 13.2255 14.0195V13.7109H12.0995V14.0195C11.6116 14.284 11.2738 14.8571 11.2738 15.5184C11.2738 16.4001 11.9118 17.1496 12.6625 17.1496C12.8126 17.1496 12.9252 17.2818 12.9252 17.4581C12.9252 17.6345 12.8126 17.7667 12.6625 17.7667C12.5123 17.7667 12.3998 17.6345 12.3998 17.4581H11.2738C11.2738 18.1194 11.6116 18.6925 12.0995 18.957V19.2656H13.2255V18.957C13.7134 18.6925 14.0511 18.1194 14.0511 17.4581C14.0511 16.5765 13.4131 15.827 12.6625 15.827Z" fill="white"/>
</svg>
