<svg width="50" height="50" viewBox="0 0 50 50" fill="none" xmlns="http://www.w3.org/2000/svg">
<path d="M30.5823 37.3333V7.08333C30.5823 5.91667 29.6795 5 28.5305 5H7.68458C6.53559 5 5.63281 5.91667 5.63281 7.08333V37.4167C5.63281 41.5833 8.99771 45 13.1833 45H38.1328C33.9472 45 30.5823 41.5833 30.5823 37.3333Z" fill="white"/>
<path d="M20.9954 40.1562C20.5253 40.1562 20.0551 40.4688 19.8984 40.8594C18.723 43.3594 16.2938 45 13.3945 45H37.2159C39.4884 45 41.6041 43.9062 42.8578 42.2656C43.4847 41.4062 42.9362 40.2344 41.8392 40.2344H20.9954V40.1562Z" fill="#EE0033"/>
<path d="M25.9192 15.4044H14.4138C13.9851 15.4044 13.6992 14.8631 13.6992 14.3218C13.6992 13.6723 14.0565 13.2393 14.4138 13.2393H25.9192C26.3479 13.2393 26.6338 13.7805 26.6338 14.3218C26.7052 14.8631 26.3479 15.4044 25.9192 15.4044Z" fill="#828282"/>
<path d="M25.9192 21.6837H14.4138C13.9851 21.6837 13.6992 21.1424 13.6992 20.6011C13.6992 19.9516 14.0565 19.5186 14.4138 19.5186H25.9192C26.3479 19.5186 26.6338 20.0598 26.6338 20.6011C26.7052 21.2507 26.3479 21.6837 25.9192 21.6837Z" fill="#828282"/>
<path d="M25.9192 28.0704H14.4138C13.9851 28.0704 13.6992 27.5291 13.6992 26.9878C13.6992 26.3383 14.0565 25.9053 14.4138 25.9053H25.9192C26.3479 25.9053 26.6338 26.4466 26.6338 26.9878C26.7052 27.5291 26.3479 28.0704 25.9192 28.0704Z" fill="#828282"/>
<path d="M23.0194 34.3497H14.6041C14.0612 34.3497 13.6992 33.8084 13.6992 33.2671C13.6992 32.6176 14.1517 32.1846 14.6041 32.1846H23.0194C23.5623 32.1846 23.9243 32.7259 23.9243 33.2671C24.0148 33.8084 23.5623 34.3497 23.0194 34.3497Z" fill="#828282"/>
<path d="M9.63859 16.0541C10.5587 16.0541 11.3045 15.2786 11.3045 14.322C11.3045 13.3653 10.5587 12.5898 9.63859 12.5898C8.71852 12.5898 7.97266 13.3653 7.97266 14.322C7.97266 15.2786 8.71852 16.0541 9.63859 16.0541Z" fill="#EE0033"/>
<path d="M9.63859 22.3334C10.5587 22.3334 11.3045 21.5579 11.3045 20.6013C11.3045 19.6446 10.5587 18.8691 9.63859 18.8691C8.71852 18.8691 7.97266 19.6446 7.97266 20.6013C7.97266 21.5579 8.71852 22.3334 9.63859 22.3334Z" fill="#EE0033"/>
<path d="M9.63859 28.6117C10.5587 28.6117 11.3045 27.8362 11.3045 26.8796C11.3045 25.923 10.5587 25.1475 9.63859 25.1475C8.71852 25.1475 7.97266 25.923 7.97266 26.8796C7.97266 27.8362 8.71852 28.6117 9.63859 28.6117Z" fill="#EE0033"/>
<path d="M9.63859 34.9994C10.5587 34.9994 11.3045 34.2239 11.3045 33.2673C11.3045 32.3107 10.5587 31.5352 9.63859 31.5352C8.71852 31.5352 7.97266 32.3107 7.97266 33.2673C7.97266 34.2239 8.71852 34.9994 9.63859 34.9994Z" fill="#EE0033"/>
<path fill-rule="evenodd" clip-rule="evenodd" d="M43.1818 15.0371C41.9641 14.2328 40.3225 14.5662 39.515 15.7817L28.2252 32.777L28.2232 32.7801L28.2248 32.7811L27.7148 37.9446L32.6484 35.698L32.6349 35.6891L43.9244 18.6943C44.7319 17.4788 44.3994 15.8414 43.1818 15.0371Z" fill="#EE0033"/>
</svg>
