<svg width="59" height="54" viewBox="0 0 59 54" fill="none" xmlns="http://www.w3.org/2000/svg">
<path d="M14.0345 22.1079C14.0345 22.7856 13.4818 23.3312 12.8007 23.3312H6.6318C5.95075 23.3312 5.39802 23.8817 5.39802 24.5546C5.39802 25.2323 5.95075 25.7779 6.6318 25.7779H11.6039L19.0066 18.4379H18.9696H1.69667C1.01562 18.4379 0.462891 18.9884 0.462891 19.6613C0.462891 20.339 1.01562 20.8846 1.69667 20.8846H12.8007C13.4818 20.8846 14.0345 21.4351 14.0345 22.1079Z" fill="#C9C9C9"/>
<path d="M41.0921 0L35.9818 5.06701C36.9219 6.43958 37.4771 8.09352 37.4771 9.87468C37.4771 12.5317 36.2236 14.8781 34.3038 16.4513C36.0805 16.943 37.7634 17.8312 39.16 19.216C43.4955 23.5147 43.4955 30.4877 39.16 34.7865C34.827 39.0852 27.7919 39.0852 23.4589 34.7865C19.1234 30.4877 19.1234 23.5147 23.4589 19.216C23.7575 18.9199 24.0955 18.6948 24.4188 18.438H22.4965L4.07617 36.7022L21.5243 54L58.5378 17.3003L41.0921 0ZM18.9704 42.9044C16.9248 42.9044 15.269 41.2627 15.269 39.2345C15.269 37.2062 16.9248 35.5645 18.9704 35.5645C21.016 35.5645 22.6717 37.2062 22.6717 39.2345C22.6717 41.2627 21.0135 42.9044 18.9704 42.9044ZM43.646 18.438C41.6004 18.438 39.9447 16.7962 39.9447 14.768C39.9447 12.7397 41.6004 11.098 43.646 11.098C45.6916 11.098 47.3474 12.7397 47.3474 14.768C47.3474 16.7962 45.6916 18.438 43.646 18.438Z" fill="#C9C9C9"/>
<path d="M35.6706 26.1351C34.2271 24.7038 31.8804 24.7038 30.4369 26.1351C29.9557 26.6098 29.1735 26.6098 28.6923 26.1351C28.2112 25.658 28.2112 24.8824 28.6923 24.4053L30.4369 22.6756C30.9156 22.1985 30.9156 21.4204 30.4369 20.9433C29.9557 20.4687 29.1735 20.4687 28.6923 20.9433L27.8188 21.8094L26.9453 20.9433C26.4641 20.4687 25.6794 20.4687 25.2007 20.9433C24.7196 21.4204 24.7196 22.1985 25.2007 22.6756L26.2322 23.6983C25.5807 25.061 25.8102 26.7394 26.9453 27.8649C28.3888 29.2962 30.7355 29.2962 32.179 27.8649C32.6602 27.3902 33.4449 27.3902 33.9236 27.8649C34.4047 28.3395 34.4047 29.12 33.9236 29.5947L32.179 31.3245C31.7003 31.8016 31.7003 32.5796 32.179 33.0542C32.6602 33.5313 33.4449 33.5313 33.9236 33.0542L34.7971 32.1881L35.6706 33.0542C36.1518 33.5313 36.9365 33.5313 37.4152 33.0542C37.8963 32.5796 37.8963 31.8016 37.4152 31.3245L36.3837 30.3018C37.0352 28.939 36.8057 27.2606 35.6706 26.1351Z" fill="#C9C9C9"/>
<path d="M9.10097 6.20468H20.205C20.8861 6.20468 21.4388 6.75517 21.4388 7.428C21.4388 8.10572 20.8861 8.65133 20.205 8.65133H14.0361C13.355 8.65133 12.8023 9.20182 12.8023 9.87465C12.8023 10.5524 13.355 11.098 14.0361 11.098H22.6726C23.3536 11.098 23.9064 11.6485 23.9064 12.3213C23.9064 12.999 23.3536 13.5446 22.6726 13.5446H18.9712C18.2902 13.5446 17.7374 14.0951 17.7374 14.7679C17.7374 15.4457 18.2902 15.9913 18.9712 15.9913H28.8415C32.2492 15.9913 35.0104 13.2535 35.0104 9.87465C35.0104 6.49583 32.2492 3.75803 28.8415 3.75803H9.10097C8.41992 3.75803 7.86719 4.30852 7.86719 4.98135C7.86719 5.65907 8.41992 6.20468 9.10097 6.20468Z" fill="#C9C9C9"/>
</svg>
