<svg width="60" height="60" viewBox="0 0 60 60" fill="none" xmlns="http://www.w3.org/2000/svg">
<path d="M48.0406 54.0416H13.8789V33.3005L30.9598 19.8799L48.0406 32.0805V54.0416Z" fill="#DCDCDC"/>
<mask id="mask0" mask-type="alpha" maskUnits="userSpaceOnUse" x="13" y="19" width="36" height="36">
<path d="M48.0406 54.0416H13.8789V33.3005L30.9598 19.8799L48.0406 32.0805V54.0416Z" fill="#DCDCDC"/>
</mask>
<g mask="url(#mask0)">
<rect x="31.5703" y="17.4395" width="21.3511" height="41.4821" fill="#C4C4C4"/>
</g>
<path d="M51.1886 54.042H11.4414V51.6019H51.1886V54.042Z" fill="#727272"/>
<path d="M36.3816 51.6017H26.6211V41.5263C26.6211 39.0075 28.8088 36.9609 31.5013 36.9609C34.1939 36.9609 36.3816 39.0075 36.3816 41.5263V51.6017Z" fill="#EE0033"/>
<mask id="mask1" mask-type="alpha" maskUnits="userSpaceOnUse" x="26" y="36" width="11" height="16">
<path d="M36.3816 51.6017H26.6211V41.5263C26.6211 39.0075 28.8088 36.9609 31.5013 36.9609C34.1939 36.9609 36.3816 39.0075 36.3816 41.5263V51.6017Z" fill="#C4C4C4"/>
</mask>
<g mask="url(#mask1)">
<rect x="31.5" y="32.0811" width="7.32036" height="21.9611" fill="#92001F"/>
</g>
<path fill-rule="evenodd" clip-rule="evenodd" d="M31.5 15L53.183 30.3057C53.6342 30.6242 53.7418 31.2481 53.4233 31.6993L51.0353 35.0823C50.7261 35.5204 50.1265 35.6366 49.676 35.3458L31.5 23.6137L13.324 35.3458C12.8735 35.6366 12.2739 35.5204 11.9647 35.0823L9.57668 31.6993C9.25819 31.2481 9.36577 30.6242 9.81697 30.3057L31.5 15Z" fill="#EE0033"/>
<mask id="mask2" mask-type="alpha" maskUnits="userSpaceOnUse" x="9" y="15" width="45" height="21">
<path fill-rule="evenodd" clip-rule="evenodd" d="M31.5 15L53.183 30.3057C53.6342 30.6242 53.7418 31.2481 53.4233 31.6993L51.0353 35.0823C50.7261 35.5204 50.1265 35.6366 49.676 35.3458L31.5 23.6137L13.324 35.3458C12.8735 35.6366 12.2739 35.5204 11.9647 35.0823L9.57668 31.6993C9.25819 31.2481 9.36577 30.6242 9.81697 30.3057L31.5 15Z" fill="#EE0033"/>
</mask>
<g mask="url(#mask2)">
<rect x="31.5703" y="12.5596" width="23.7912" height="24.4012" fill="#92001F"/>
</g>
<path d="M23.4117 13.1897C23.4117 15.2015 22.7601 17.2982 21.2489 19.3524C20.4359 20.4574 18.908 22.1511 17.768 23.2056C16.9075 24.0016 16.154 24.1572 15.3824 23.5828C15.0879 23.3636 14.7837 23.1348 14.4983 22.9038C13.5774 22.1583 11.8284 20.2572 11.1628 19.3524C9.65161 17.2982 9 15.2015 9 13.1897C9 9.21896 12.2262 6 16.2058 6C20.1855 6 23.4117 9.21896 23.4117 13.1897Z" fill="#EE0033"/>
<path d="M19.8074 13.178C19.8074 15.1602 18.1943 16.7671 16.2045 16.7671C14.2146 16.7671 12.6016 15.1602 12.6016 13.178C12.6016 11.1958 14.2146 9.58887 16.2045 9.58887C18.1943 9.58887 19.8074 11.1958 19.8074 13.178Z" fill="#92001F"/>
</svg>
