<svg width="37" height="39" viewBox="0 0 37 39" fill="none" xmlns="http://www.w3.org/2000/svg">
<path d="M18.1326 38.6959C25.0675 38.6959 30.6894 32.9913 30.6894 25.9543C30.6894 18.9174 25.0675 13.2128 18.1326 13.2128C11.1976 13.2128 5.57568 18.9174 5.57568 25.9543C5.57568 32.9913 11.1976 38.6959 18.1326 38.6959Z" fill="#C4C4C4"/>
<path d="M4.87343 38.142C4.79544 38.142 4.71744 38.142 4.63945 37.9838V37.9046C4.24949 37.5089 3.93751 37.0341 3.62554 36.6384C3.46956 36.4801 3.54755 36.2427 3.70354 36.0844C3.85952 35.9261 4.0935 36.0053 4.24949 36.1635C4.56146 36.5592 4.87343 36.9549 5.1854 37.3506C5.34139 37.5089 5.34139 37.8255 5.1854 37.9046C5.10741 38.0629 5.02942 38.142 4.87343 38.142ZM31.3131 38.0629C31.2351 38.0629 31.1571 38.0629 31.0791 37.9838C30.9231 37.8255 30.9231 37.5881 31.0791 37.4298C31.3911 37.0341 31.703 36.6384 32.015 36.2427C32.171 36.0844 32.405 36.0053 32.561 36.1635C32.7169 36.3218 32.7949 36.5592 32.639 36.7175C32.327 37.1924 32.015 37.5881 31.625 37.9838C31.5471 37.9838 31.4691 38.0629 31.3131 38.0629ZM2.68963 34.8182C2.53364 34.8182 2.37765 34.739 2.37765 34.5807C2.14367 34.1059 1.90969 33.6311 1.67572 33.0771C1.59772 32.8397 1.67572 32.6814 1.90969 32.5231C2.14367 32.444 2.29966 32.5231 2.45565 32.7605C2.68963 33.2354 2.84561 33.7102 3.15758 34.185C3.23558 34.3433 3.15758 34.5807 3.0016 34.739C2.76762 34.8182 2.76762 34.8182 2.68963 34.8182ZM33.5749 34.8182C33.4969 34.8182 33.4189 34.8182 33.4189 34.739C33.2629 34.6599 33.1849 34.4225 33.2629 34.185C33.4969 33.7102 33.7309 33.2354 33.9648 32.7605C34.0428 32.5231 34.2768 32.444 34.5108 32.5231C34.7448 32.6022 34.8228 32.8397 34.7448 33.0771C34.5108 33.5519 34.2768 34.1059 34.0428 34.5807C33.8868 34.739 33.7309 34.8182 33.5749 34.8182ZM1.20776 31.0986C1.05177 31.0986 0.895785 31.0194 0.817792 30.782C0.661806 30.228 0.583813 29.7532 0.427827 29.1992C0.427827 28.9618 0.50582 28.8035 0.739799 28.7244C0.973778 28.7244 1.12976 28.8035 1.20776 29.0409C1.28575 29.5158 1.44174 30.0698 1.51973 30.5446C1.59772 30.782 1.44174 30.9403 1.20776 31.0194C1.28575 31.0986 1.20776 31.0986 1.20776 31.0986ZM35.0567 31.0986H34.9787C34.7448 31.0194 34.6668 30.8612 34.6668 30.6237C34.8228 30.1489 34.9008 29.5949 34.9787 29.1201C34.9787 28.8827 35.2127 28.7244 35.4467 28.8035C35.6807 28.8035 35.8367 29.0409 35.7587 29.2784C35.6807 29.8323 35.5247 30.3863 35.3687 30.8612C35.3687 31.0194 35.2127 31.0986 35.0567 31.0986ZM0.583813 27.1416C0.349834 27.1416 0.193848 26.9833 0.193848 26.7459C0.193848 26.5085 0.193848 26.1919 0.193848 25.9545C0.193848 25.6379 0.193848 25.4005 0.193848 25.0839C0.193848 24.8465 0.349834 24.6882 0.583813 24.6882C0.817792 24.6882 0.973778 24.8465 0.973778 25.0839C0.973778 25.3214 0.973778 25.6379 0.973778 25.8753C0.973778 26.1128 0.973778 26.3502 0.973778 26.6667C0.973778 26.9833 0.817792 27.1416 0.583813 27.1416ZM35.6807 27.1416C35.6027 27.1416 35.6027 27.1416 35.6807 27.1416C35.4467 27.1416 35.2907 26.9833 35.2907 26.7459C35.2907 26.5085 35.2907 26.271 35.2907 25.9545C35.2907 25.7171 35.2907 25.4005 35.2907 25.1631C35.2907 24.9257 35.4467 24.7674 35.6807 24.7674C35.9147 24.7674 36.0707 24.9257 36.0707 25.1631C36.0707 25.4005 36.0707 25.7171 36.0707 25.9545C36.0707 26.1919 36.0707 26.5085 36.0707 26.7459C35.9927 26.9833 35.8367 27.1416 35.6807 27.1416ZM0.895785 23.1846C0.817792 23.1846 0.817792 23.1846 0.895785 23.1846C0.583813 23.1054 0.50582 22.9472 0.50582 22.7097C0.583813 22.1558 0.739799 21.6018 0.895785 21.1269C0.973778 20.8895 1.20776 20.8104 1.36374 20.8895C1.59772 20.9687 1.67572 21.1269 1.59772 21.3644C1.44174 21.8392 1.36374 22.3932 1.28575 22.868C1.20776 23.0263 1.05177 23.1846 0.895785 23.1846ZM35.3687 23.1846C35.2127 23.1846 35.0567 23.0263 34.9787 22.868C34.9008 22.3932 34.7448 21.8392 34.6668 21.3644C34.5888 21.1269 34.7448 20.9687 34.9008 20.8895C35.1347 20.8104 35.2907 20.9687 35.3687 21.1269C35.5247 21.6809 35.6027 22.1558 35.7587 22.7097C35.8367 22.9472 35.6807 23.1054 35.3687 23.1846C35.4467 23.1846 35.3687 23.1846 35.3687 23.1846ZM1.98769 19.3859C1.90969 19.3859 1.90969 19.3859 1.8317 19.3859C1.59772 19.3067 1.51973 19.0693 1.59772 18.8319C1.8317 18.357 2.06568 17.8031 2.29966 17.3282C2.37765 17.1699 2.61163 17.0908 2.84561 17.1699C3.0016 17.2491 3.07959 17.4865 3.0016 17.7239C2.76762 18.1988 2.53364 18.6736 2.29966 19.1484C2.29966 19.3067 2.14367 19.3859 1.98769 19.3859ZM34.2768 19.3859C34.1208 19.3859 33.9648 19.3067 33.8868 19.1484C33.6529 18.6736 33.4969 18.1988 33.1849 17.7239C33.1069 17.5656 33.1849 17.3282 33.3409 17.1699C33.4969 17.0908 33.7309 17.1699 33.8868 17.3282C34.1208 17.8031 34.3548 18.2779 34.5888 18.8319C34.6668 19.0693 34.5888 19.2276 34.3548 19.3859H34.2768ZM3.93751 15.9037C3.85952 15.9037 3.78153 15.9037 3.70354 15.8246C3.54755 15.6663 3.46956 15.4289 3.62554 15.2706C3.93751 14.7957 4.24949 14.4 4.63945 14.0043C4.79544 13.8461 5.02942 13.8461 5.1854 14.0043C5.34139 14.1626 5.34139 14.4 5.1854 14.5583C4.87343 14.954 4.56146 15.3497 4.24949 15.7454C4.17149 15.8246 4.01551 15.9037 3.93751 15.9037ZM32.327 15.9037C32.171 15.9037 32.093 15.8246 32.015 15.7454C31.703 15.3497 31.3911 14.954 31.0791 14.5583L31.625 14.0043L31.3131 14.2418L31.625 14.0043C31.937 14.4 32.327 14.7957 32.639 15.2706C32.7949 15.4289 32.7169 15.6663 32.561 15.8246C32.483 15.9037 32.405 15.9037 32.327 15.9037ZM29.6752 12.9755C29.5972 12.9755 29.5192 12.9755 29.4412 12.8964C29.0513 12.5798 28.6613 12.2633 28.2713 11.9467C28.1154 11.7884 28.0374 11.551 28.1934 11.3927C28.3493 11.2344 28.5833 11.1553 28.7393 11.3136C29.2073 11.6301 29.5972 11.9467 29.9872 12.3424C30.1432 12.5007 30.1432 12.7381 29.9872 12.8964C29.9092 12.8964 29.7532 12.9755 29.6752 12.9755ZM6.58928 12.9755C6.51128 12.9755 6.3553 12.8964 6.27731 12.8172C6.12132 12.659 6.12132 12.4215 6.27731 12.2633C6.66727 11.9467 7.05724 11.551 7.52519 11.2344C7.68118 11.0762 7.91516 11.1553 8.07115 11.3136C8.22713 11.4719 8.14914 11.7093 7.99315 11.8676C7.60319 12.1841 7.21322 12.5007 6.82326 12.8172C6.74526 12.8964 6.66727 12.9755 6.58928 12.9755ZM9.78699 10.6805C9.63101 10.6805 9.47502 10.6013 9.47502 10.443C9.39703 10.2848 9.47502 10.0473 9.63101 9.88906C10.099 9.65164 10.5669 9.41422 11.1129 9.1768C11.3469 9.09766 11.5028 9.1768 11.6588 9.41422C11.7368 9.65164 11.6588 9.80992 11.4248 9.9682C10.9569 10.2056 10.4889 10.3639 10.021 10.6805C9.94298 10.6805 9.86499 10.6805 9.78699 10.6805ZM26.3995 10.6805C26.3215 10.6805 26.2435 10.6805 26.2435 10.6013C25.7756 10.3639 25.3076 10.1265 24.8397 9.88906C24.6057 9.80992 24.5277 9.5725 24.6057 9.33508C24.6837 9.09766 24.9176 9.01852 25.1516 9.09766C25.6196 9.33508 26.1655 9.5725 26.6335 9.80992C26.7895 9.88906 26.8675 10.1265 26.7895 10.3639C26.7115 10.6013 26.5555 10.6805 26.3995 10.6805ZM22.8118 9.25594H22.7338C22.2659 9.09766 21.7199 9.01852 21.252 8.93938C21.018 8.93938 20.862 8.70196 20.94 8.46454C20.94 8.22712 21.174 8.06884 21.408 8.14798C21.9539 8.22712 22.4999 8.3854 22.9678 8.54368C23.2018 8.62282 23.2798 8.7811 23.2018 9.01852C23.1238 9.09766 22.9678 9.25594 22.8118 9.25594ZM13.4527 9.25594C13.2967 9.25594 13.1407 9.1768 13.0627 8.93938C12.9847 8.70196 13.1407 8.54368 13.2967 8.46454C13.8426 8.30626 14.3106 8.22712 14.8565 8.06884C15.0905 7.9897 15.2465 8.14798 15.3245 8.3854C15.3245 8.62282 15.2465 8.7811 15.0125 8.86024C14.5446 8.93938 13.9986 9.09766 13.5307 9.1768L13.4527 9.25594ZM18.9122 8.62282C18.3662 8.62282 17.8983 8.62282 17.3523 8.62282C17.1183 8.62282 16.9624 8.46454 16.9624 8.22712C16.9624 7.9897 17.1183 7.83142 17.3523 7.83142C17.8983 7.83142 18.4442 7.83142 18.9902 7.83142C19.2242 7.83142 19.3801 7.9897 19.3801 8.22712C19.3021 8.46454 19.1462 8.62282 18.9122 8.62282Z" fill="#828282"/>
<path d="M15.0908 29.5159C15.0908 30.4656 15.7927 31.1778 16.7286 31.1778H16.8846C17.8205 31.1778 18.5225 30.4656 18.5225 29.5159V22.3933C18.5225 21.1271 18.9904 20.0191 19.8484 19.1486C20.7063 18.278 21.1742 17.0909 21.1742 15.9038V13.767C20.1603 13.5296 19.1464 13.3713 18.0545 13.3713C12.517 13.3713 7.75943 17.0909 6.12158 22.1559C5.8876 22.8681 6.12158 23.6595 6.58953 24.1344L7.91542 25.4798C8.22739 25.7963 8.61735 25.9546 9.08531 25.9546C11.0351 25.9546 12.907 26.746 14.3108 28.1705L14.5448 28.4079C14.9348 28.6454 15.0908 29.0411 15.0908 29.5159Z" fill="#EE0033"/>
<path d="M23.1242 26.6668H22.4222C21.7203 26.6668 21.2523 26.1128 21.2523 25.4797V24.7674C21.2523 24.0552 21.7983 23.5803 22.4222 23.5803H23.1242C23.7481 23.5803 24.294 24.1343 24.294 24.7674V25.4797C24.294 26.1128 23.7481 26.6668 23.1242 26.6668Z" fill="#EE0033"/>
<path d="M30.4552 28.0123H28.2714C27.5694 28.0123 26.8675 28.3289 26.3215 28.8037L25.8536 29.2786C25.5416 29.5951 25.3856 29.9908 25.3856 30.3865V30.7822C25.3856 31.6528 24.6837 32.2859 23.9037 32.2859C23.0458 32.2859 22.4219 32.9982 22.4219 33.7896V37.9048C26.6335 36.4012 29.7532 32.6025 30.4552 28.0123Z" fill="#EE0033"/>
<path d="M21.7983 29.4366C21.4863 29.4366 21.2523 29.1992 21.2523 28.8826C21.2523 28.566 21.4863 28.3286 21.7983 28.3286C22.1102 28.3286 22.3442 28.566 22.3442 28.8826C22.4222 29.1992 22.1102 29.4366 21.7983 29.4366Z" fill="#EE0033"/>
<path d="M25.8534 21.8394C25.5415 21.8394 25.3075 21.602 25.3075 21.2854C25.3075 20.9689 25.5415 20.7314 25.8534 20.7314C26.1654 20.7314 26.3994 20.9689 26.3994 21.2854C26.4774 21.5228 26.1654 21.8394 25.8534 21.8394Z" fill="#EE0033"/>
<path d="M14.9342 38.3008V37.272C14.9342 35.2935 13.3743 33.7107 11.4245 33.7107H8.1488C9.86465 35.9266 12.2044 37.5094 14.9342 38.3008Z" fill="#EE0033"/>
<path d="M22.8118 5.45744C22.8118 2.76668 20.628 0.629899 17.8983 0.709039C15.6365 0.788179 13.6087 2.84582 13.4527 5.14088C13.3747 6.80282 14.0766 8.22734 15.1685 9.17702C16.2604 10.0476 17.1963 11.1555 17.8983 12.4218L18.0543 12.6592C18.1323 12.7383 18.2103 12.7383 18.2882 12.6592L18.3662 12.5009C19.0682 11.2347 20.0041 10.0476 21.096 9.17702C22.1099 8.30648 22.8118 6.9611 22.8118 5.45744Z" fill="#92001F"/>
<path d="M18.4443 7.51526L19.1462 7.11956C19.5362 6.88214 19.8481 6.64472 20.1601 6.32816C20.7061 5.77418 20.7061 4.90364 20.0821 4.34966C19.5362 3.87482 18.7562 3.95396 18.2103 4.4288L18.1323 4.50794C18.0543 4.58708 17.9763 4.58708 17.9763 4.50794L17.8983 4.4288C17.4303 3.95396 16.5724 3.87482 16.0265 4.34966C15.4805 4.90364 15.4025 5.77418 15.9485 6.32816C16.2604 6.64472 16.5724 6.88214 16.9624 7.11956L17.6643 7.51526C17.7423 7.5944 17.8203 7.67354 17.8983 7.75268C17.9763 7.83182 18.0543 7.83182 18.1323 7.75268C18.2883 7.67354 18.3663 7.5944 18.4443 7.51526Z" fill="white"/>
</svg>
