<svg width="80" height="80" viewBox="0 0 80 80" fill="none" xmlns="http://www.w3.org/2000/svg">
<g opacity="0.6" clip-path="url(#clip0)">
<path d="M23.6362 12.6895L21.9121 15.1031L27.9693 19.4297L30.4037 20.4184L33.1556 19.4296L23.6362 12.6895Z" fill="#C4C4C4"/>
<path d="M42.5716 11.2871L33.1553 19.4295L35.4457 20.4182L37.6298 19.4295L44.5019 13.5392L42.5716 11.2871Z" fill="#DCDCDC"/>
<path d="M17.1875 19.4292C13.7256 19.4292 10.9092 22.2456 10.9092 25.7075V54.6767C10.9092 58.1386 13.7256 60.955 17.1875 60.955H33.1552L34.1439 39.5989L33.1552 19.4292H17.1875Z" fill="#DCDCDC"/>
<path d="M55.0552 19.4292H33.1553V60.955H55.0552C58.5171 60.955 61.3335 58.1386 61.3335 54.6767V25.7075C61.3335 22.2456 58.5171 19.4292 55.0552 19.4292Z" fill="#DCDCDC"/>
<path d="M52.4346 32.7773H55.4007V35.7435H52.4346V32.7773Z" fill="#C4C4C4"/>
<path d="M52.4346 38.7095H55.4007V41.6756H52.4346V38.7095Z" fill="#C4C4C4"/>
<path d="M52.4346 44.6416H55.4007V47.6077H52.4346V44.6416Z" fill="#C4C4C4"/>
<path d="M24.2077 25.3618C20.1462 25.3618 16.8418 28.6661 16.8418 32.7277V47.6572C16.8418 51.7188 20.1462 55.0231 24.2077 55.0231H33.1555L34.1442 40.1925L33.1555 25.3618H24.2077Z" fill="#C4C4C4"/>
<path d="M42.1031 25.3618C41.1696 25.3618 34.208 25.3618 33.1553 25.3618V55.0231H42.1031C46.1646 55.0231 49.469 51.7188 49.469 47.6572V32.7277C49.469 28.6661 46.1646 25.3618 42.1031 25.3618Z" fill="#C4C4C4"/>
</g>
<g clip-path="url(#clip1)">
<path d="M51.6361 47.2729C49.2362 47.2729 47.2725 49.2365 47.2725 51.6366C47.2725 53.6657 48.6688 55.3674 50.5452 55.8475C50.8942 55.9566 51.2653 56.0002 51.6361 56.0002C52.0069 56.0002 52.378 55.9565 52.727 55.8475C54.6034 55.3674 55.9997 53.6657 55.9997 51.6366C55.9997 49.2365 54.036 47.2729 51.6361 47.2729Z" fill="#EE0033"/>
<path d="M52.7267 51.6367V55.8476C52.3777 55.9567 52.0067 56.0004 51.6358 56.0004C51.265 56.0004 50.8939 55.9567 50.5449 55.8476V51.6367H52.7267Z" fill="#EE0033"/>
<path d="M52.7267 55.8477V66.9095H50.5449V55.8477C50.8939 55.9567 51.265 56.0004 51.6358 56.0004C52.0067 56.0004 52.3777 55.9567 52.7267 55.8477Z" fill="#92001F"/>
<path d="M45.0908 67.9092C45.0908 67.3569 45.5385 66.9092 46.0908 66.9092H57.1817C57.734 66.9092 58.1817 67.3569 58.1817 67.9092V68.091C58.1817 68.6433 57.734 69.091 57.1817 69.091H46.0908C45.5385 69.091 45.0908 68.6433 45.0908 68.091V67.9092Z" fill="#92001F"/>
<path d="M40.1347 63.1382C40.5252 62.7477 40.5225 62.1166 40.1581 61.7015C37.7968 59.012 36.3635 55.4886 36.3635 51.6367C36.3635 43.2151 43.2146 36.3639 51.6362 36.3639C60.0577 36.3639 66.9089 43.2151 66.9089 51.6367C66.9089 55.4886 65.4756 59.012 63.1143 61.7015C62.7499 62.1166 62.7472 62.7477 63.1377 63.1382L63.2654 63.2659C63.656 63.6564 64.2915 63.6583 64.6592 63.2462C67.4142 60.1592 69.0907 56.09 69.0907 51.6367C69.0907 42.0124 61.2605 34.1821 51.6362 34.1821C42.0119 34.1821 34.1816 42.0124 34.1816 51.6367C34.1816 56.09 35.8581 60.1592 38.6131 63.2463C38.9808 63.6583 39.6164 63.6565 40.0069 63.266L40.1347 63.1382Z" fill="#EE0033"/>
<path d="M46.3031 56.9698C46.6936 56.5793 46.6863 55.9499 46.3593 55.5049C45.5623 54.4205 45.091 53.0825 45.091 51.6365C45.091 48.027 48.0271 45.091 51.6365 45.091C55.2458 45.091 58.1819 48.0271 58.1819 51.6365C58.1819 53.0825 57.7106 54.4205 56.9136 55.5049C56.5866 55.9499 56.5793 56.5793 56.9698 56.9698L57.0976 57.0976C57.4881 57.4881 58.1264 57.4912 58.4701 57.0589C59.6551 55.5688 60.3637 53.6838 60.3637 51.6365C60.3637 46.8243 56.4486 42.9092 51.6365 42.9092C46.8243 42.9092 42.9092 46.8243 42.9092 51.6365C42.9092 53.6838 43.6178 55.5688 44.8028 57.0589C45.1465 57.4912 45.7848 57.4881 46.1754 57.0976L46.3031 56.9698Z" fill="#EE0033"/>
<path d="M43.2186 60.0541C43.6091 59.6635 43.6051 59.0331 43.2516 58.6087C41.6758 56.7169 40.7267 54.2855 40.7267 51.6368C40.7267 45.6219 45.6209 40.7277 51.6358 40.7277C57.6508 40.7277 62.5449 45.6219 62.5449 51.6368C62.5449 54.2855 61.5959 56.7169 60.02 58.6087C59.6665 59.0331 59.6626 59.6635 60.0531 60.0541L60.1812 60.1822C60.5717 60.5727 61.2081 60.5751 61.568 60.1561C63.5361 57.8649 64.7267 54.8874 64.7267 51.6368C64.7267 44.4181 58.8546 38.5459 51.6358 38.5459C44.4171 38.5459 38.5449 44.4181 38.5449 51.6368C38.5449 54.8874 39.7356 57.8649 41.7037 60.1561C42.0635 60.5751 42.6999 60.5727 43.0905 60.1822L43.2186 60.0541Z" fill="#EE0033"/>
</g>
<defs>
<clipPath id="clip0">
<rect width="50.4242" height="50.4242" fill="white" transform="translate(10.9092 10.9092)"/>
</clipPath>
<clipPath id="clip1">
<rect width="34.9091" height="34.9091" fill="white" transform="translate(34.1816 34.1821)"/>
</clipPath>
</defs>
</svg>
