<svg width="55" height="56" viewBox="0 0 55 56" fill="none" xmlns="http://www.w3.org/2000/svg">
<path d="M27.37 55.63C12.25 55.63 0 43.37 0 28.26C0 13.14 12.25 0.889984 27.37 0.889984C42.49 0.889984 54.74 13.14 54.74 28.26C54.74 43.37 42.49 55.63 27.37 55.63Z" fill="url(#paint0_linear)"/>
<path d="M40.0398 14.81C39.8998 14.66 39.7098 14.58 39.5098 14.58C39.0598 14.58 38.7198 14.93 38.7298 15.35V19.5L38.3298 19.02C35.5898 15.79 31.5998 13.93 27.3698 13.93C19.4798 13.93 13.0498 20.36 13.0498 28.25C13.0498 28.46 13.1198 28.65 13.2698 28.8C13.4098 28.95 13.5998 29.02 13.7998 29.03C14.1998 29.05 14.5698 28.7 14.5698 28.28C14.5698 21.19 20.3198 15.45 27.3698 15.45C31.3798 15.45 35.0798 17.28 37.5398 20.47L37.8198 20.84H33.2498C32.8298 20.84 32.4898 21.18 32.4898 21.59C32.4798 22.01 32.8198 22.36 33.2298 22.36H39.4898C39.9098 22.36 40.2498 22.02 40.2498 21.6V15.36C40.2498 15.16 40.1698 14.95 40.0398 14.81ZM40.9498 27.48L40.9098 27.25L40.9198 27.48C40.5098 27.49 40.1698 27.84 40.1798 28.25C40.1798 35.32 34.4298 41.06 27.3598 41.06C23.3598 41.06 19.6498 39.24 17.1998 36.05L16.9198 35.67H21.4998C21.6998 35.67 21.8898 35.6 22.0298 35.46C22.1798 35.32 22.2598 35.13 22.2698 34.93C22.2698 34.72 22.1898 34.53 22.0498 34.38C21.9098 34.24 21.7198 34.16 21.5198 34.15H15.1598C14.7798 34.19 14.4798 34.52 14.4798 34.91V41.15C14.4798 41.36 14.5498 41.55 14.6898 41.7C14.8398 41.85 15.0298 41.93 15.2298 41.93C15.4298 41.92 15.6198 41.86 15.7698 41.71C15.9198 41.57 15.9998 41.38 15.9998 41.18V37L16.3998 37.48C19.1398 40.72 23.1298 42.58 27.3498 42.58C35.2598 42.58 41.6898 36.15 41.6898 28.25C41.6998 27.83 41.3598 27.48 40.9498 27.48Z" fill="#EDEFEF"/>
<defs>
<linearGradient id="paint0_linear" x1="0" y1="28.256" x2="54.744" y2="28.256" gradientUnits="userSpaceOnUse">
<stop stop-color="#F0843F"/>
<stop offset="1" stop-color="#E81E36"/>
</linearGradient>
</defs>
</svg>
