<svg width="31" height="32" viewBox="0 0 31 32" fill="none" xmlns="http://www.w3.org/2000/svg">
<path d="M30.56 19.3199C31.45 15.8199 29.33 12.2499 25.83 11.3599C25.73 11.3299 25.63 11.3099 25.53 11.2899C25.59 11.2099 25.65 11.1199 25.7 11.0299C27.63 7.96992 26.71 3.92992 23.66 1.99992C20.6 0.0799159 16.55 0.999916 14.62 4.04992C14.56 4.13992 14.51 4.22992 14.46 4.30992C14.4 4.22992 14.33 4.14992 14.27 4.06992C11.96 1.29992 7.84 0.919916 5.06 3.22992C2.28 5.53992 1.9 9.66992 4.21 12.4499C4.28 12.5299 4.34 12.6099 4.41 12.6799C4.31 12.7099 4.22 12.7499 4.12 12.7899C0.760003 14.1299 -0.869997 17.9399 0.470003 21.2899C1.81 24.6499 5.62 26.2799 8.97 24.9399C9.07 24.8999 9.16 24.8599 9.25 24.8199C9.25 24.9199 9.26 25.0299 9.26 25.1299C9.5 28.7399 12.61 31.4699 16.22 31.2299C19.83 30.9899 22.56 27.8799 22.32 24.2699C22.31 24.1699 22.3 24.0599 22.29 23.9599C22.39 23.9899 22.49 24.0199 22.59 24.0399C26.11 24.9399 29.67 22.8199 30.56 19.3199ZM20.9 20.2599C20.55 20.0399 20.38 19.6199 20.46 19.2399L16.08 16.4699L18.49 21.0599C18.88 21.0099 19.28 21.2099 19.47 21.5799C19.72 22.0599 19.54 22.6499 19.06 22.9099C18.58 23.1599 17.99 22.9799 17.73 22.4999C17.53 22.1299 17.6 21.6899 17.86 21.3899L15.45 16.7999L15.25 21.9799C15.61 22.1399 15.86 22.4999 15.84 22.9199C15.82 23.4599 15.36 23.8799 14.82 23.8599C14.28 23.8399 13.86 23.3799 13.88 22.8399C13.9 22.4199 14.17 22.0799 14.55 21.9499L14.75 16.7699L11.98 21.1499C12.22 21.4699 12.25 21.9099 12.02 22.2599C11.73 22.7199 11.12 22.8599 10.66 22.5699C10.2 22.2799 10.06 21.6699 10.35 21.2099C10.57 20.8599 10.99 20.6899 11.37 20.7699L14.14 16.3899L9.55 18.7999C9.6 19.1899 9.4 19.5899 9.03 19.7899C8.55 20.0399 7.96 19.8599 7.7 19.3799C7.45 18.8999 7.63 18.3099 8.11 18.0499C8.48 17.8499 8.92 17.9199 9.22 18.1799L13.81 15.7699L8.63 15.5699C8.47 15.9299 8.11 16.1799 7.69 16.1599C7.15 16.1399 6.73 15.6799 6.75 15.1399C6.77 14.5999 7.23 14.1799 7.77 14.1999C8.19 14.2199 8.53 14.4899 8.66 14.8699L13.84 15.0699L9.46 12.2999C9.14 12.5399 8.7 12.5699 8.35 12.3399C7.89 12.0499 7.75 11.4399 8.04 10.9799C8.33 10.5199 8.94 10.3799 9.4 10.6699C9.75 10.8899 9.92 11.3099 9.84 11.6899L14.22 14.4599L11.81 9.86992C11.42 9.91992 11.02 9.71992 10.83 9.34992C10.58 8.86992 10.76 8.27992 11.24 8.01992C11.72 7.76992 12.31 7.94992 12.57 8.42992C12.77 8.79992 12.7 9.23992 12.44 9.53992L14.85 14.1299L15.05 8.94992C14.69 8.78992 14.44 8.42992 14.46 8.00992C14.48 7.46992 14.94 7.04992 15.48 7.06992C16.02 7.08992 16.44 7.54992 16.42 8.08992C16.41 8.52992 16.14 8.86992 15.76 8.99992L15.56 14.1799L18.33 9.79992C18.09 9.47992 18.06 9.03992 18.29 8.68992C18.58 8.22992 19.19 8.08992 19.65 8.37992C20.11 8.66992 20.25 9.27992 19.96 9.73992C19.74 10.0899 19.32 10.2599 18.94 10.1799L16.17 14.5599L20.76 12.1499C20.71 11.7599 20.91 11.3599 21.28 11.1599C21.76 10.9099 22.35 11.0899 22.61 11.5699C22.86 12.0499 22.68 12.6399 22.2 12.8999C21.83 13.0999 21.39 13.0299 21.09 12.7699L16.5 15.1799L21.68 15.3799C21.84 15.0199 22.2 14.7699 22.62 14.7899C23.16 14.8099 23.58 15.2699 23.56 15.8099C23.54 16.3499 23.08 16.7699 22.54 16.7499C22.12 16.7299 21.78 16.4599 21.65 16.0799L16.47 15.8799L20.85 18.6499C21.17 18.4099 21.61 18.3799 21.96 18.6099C22.42 18.8999 22.56 19.5099 22.27 19.9699C21.97 20.4199 21.36 20.5499 20.9 20.2599Z" fill="#EA546D"/>
</svg>
