<svg width="52" height="52" viewBox="0 0 52 52" fill="none" xmlns="http://www.w3.org/2000/svg">
<path d="M17.7682 22.428C16.9916 20.8748 15.4384 19.7876 13.5746 19.7876H7.36195C4.79923 19.7876 2.70245 21.8844 2.70245 24.4471V30.6598L5.80879 32.2129L6.58537 43.0851H15.1278" stroke="#EE0033" stroke-width="3" stroke-linecap="round" stroke-linejoin="round"/>
<path d="M10.4683 15.1281C13.0416 15.1281 15.1278 13.042 15.1278 10.4686C15.1278 7.89521 13.0416 5.80908 10.4683 5.80908C7.89491 5.80908 5.80878 7.89521 5.80878 10.4686C5.80878 13.042 7.89491 15.1281 10.4683 15.1281Z" stroke="#FE9A00" stroke-width="3" stroke-linecap="round" stroke-linejoin="round"/>
<path d="M34.2318 22.428C35.0083 20.8748 36.5615 19.7876 38.4253 19.7876H44.638C47.2007 19.7876 49.2975 21.8844 49.2975 24.4471V30.6598L46.1911 32.2129L45.4145 43.0851H36.8721" stroke="#EE0033" stroke-width="3" stroke-linecap="round" stroke-linejoin="round"/>
<path d="M41.5316 15.1281C44.105 15.1281 46.1911 13.042 46.1911 10.4686C46.1911 7.89521 44.105 5.80908 41.5316 5.80908C38.9583 5.80908 36.8721 7.89521 36.8721 10.4686C36.8721 13.042 38.9583 15.1281 41.5316 15.1281Z" stroke="#FE9A00" stroke-width="3" stroke-linecap="round" stroke-linejoin="round"/>
<path d="M30.6595 49.2978H21.3405L20.5639 36.8724L16.681 36.0958V26.0003C16.681 22.5833 19.4767 19.7876 22.8936 19.7876H29.1063C32.5233 19.7876 35.319 22.5833 35.319 26.0003V36.0958L31.436 36.8724L30.6595 49.2978Z" stroke="#EE0033" stroke-width="3" stroke-linecap="round" stroke-linejoin="round"/>
<path d="M26 15.128C29.4311 15.128 32.2126 12.3465 32.2126 8.9153C32.2126 5.48414 29.4311 2.70264 26 2.70264C22.5688 2.70264 19.7873 5.48414 19.7873 8.9153C19.7873 12.3465 22.5688 15.128 26 15.128Z" stroke="#FE9A00" stroke-width="3" stroke-linecap="round" stroke-linejoin="round"/>
</svg>
