<svg width="36" height="36" viewBox="0 0 36 36" fill="none" xmlns="http://www.w3.org/2000/svg">
<path d="M12 1.5H1.5V12H12V1.5ZM10.5 10.5H3V3H10.5V10.5Z" fill="white"/>
<path d="M23.25 31.5H21.75V34.5H34.5V33H23.25V31.5Z" fill="white"/>
<path d="M9 4.5H4.5V9H9V4.5Z" fill="white"/>
<path d="M1.5 34.5H12V24H1.5V34.5ZM3 25.5H10.5V33H3V25.5Z" fill="white"/>
<path d="M9 27H4.5V31.5H9V27Z" fill="white"/>
<path d="M24 1.5V12H34.5V1.5H24ZM33 10.5H25.5V3H33V10.5Z" fill="white"/>
<path d="M31.5 4.5H27V9H31.5V4.5Z" fill="white"/>
<path d="M34.5 13.5H31.5V16.5H34.5V13.5Z" fill="white"/>
<path d="M4.5 19.5H1.5V22.5H4.5V19.5Z" fill="white"/>
<path d="M17.25 13.5H11.25V15H18.75V12V10.5H20.25V7.5H18.75H17.25H15.75V4.5H17.25V6H22.5V1.5H21V4.5H18.75V1.5H18H15H14.25V9H17.25V10.5H14.25V12H17.25V13.5Z" fill="white"/>
<path d="M3.75 18H6.75H8.25H9V19.5H6V21H9V22.5H15V21H10.5V19.5V16.5H8.25V14.25H6.75V16.5H5.25V13.5H1.5V15H3.75V18Z" fill="white"/>
<path d="M18 31.5V27.75H15V24.75H13.5V29.25H16.5V31.5H13.5V33H16.5V34.5H20.25V33H18V31.5Z" fill="white"/>
<path d="M25.5 16.5H22.5V12.75H21V18H28.5V16.5H27V15H29.25V13.5H27H25.5H24V15H25.5V16.5Z" fill="white"/>
<path d="M24 30H26.25V31.5H29.25V30V28.5V26.25H26.25V28.5H24V26.25H22.5V28.5H21V22.5H19.5V21H18V16.5H12.75V19.5H14.25V18H16.5V21V24H19.5V28.5V30H21H22.5H24Z" fill="white"/>
<path d="M33 20.25H30.75H29.25H25.5V23.25H24V20.25H22.5V24.75H27V21.75H29.25V24H30.75V21.75H33V26.25H30.75V30.75H34.5V29.25H32.25V27.75H34.5V21.75V20.25V18H33V20.25Z" fill="white"/>
</svg>
