<svg width="61" height="60" viewBox="0 0 61 60" fill="none" xmlns="http://www.w3.org/2000/svg">
<g opacity="0.6" clip-path="url(#clip0)">
<path d="M13.6237 1.83594L11.8457 4.325L18.0922 8.78681L20.6027 9.80642L23.4406 8.78671L13.6237 1.83594Z" fill="#C4C4C4"/>
<path d="M33.152 0.389648L23.4414 8.78652L25.8034 9.80613L28.0557 8.78652L35.1426 2.71211L33.152 0.389648Z" fill="#DCDCDC"/>
<path d="M6.97451 8.78613C3.40445 8.78613 0.5 11.6906 0.5 15.2606V45.1352C0.5 48.7052 3.40445 51.6097 6.97451 51.6097H23.4412L24.4608 29.5861L23.4412 8.78613H6.97451Z" fill="#DCDCDC"/>
<path d="M46.0257 8.78613H23.4414V51.6097H46.0257C49.5958 51.6097 52.5002 48.7052 52.5002 45.1352V15.2606C52.5002 11.6906 49.5958 8.78613 46.0257 8.78613Z" fill="#DCDCDC"/>
<path d="M43.3242 22.5518H46.383V25.6106H43.3242V22.5518Z" fill="#C4C4C4"/>
<path d="M43.3242 28.6689H46.383V31.7278H43.3242V28.6689Z" fill="#C4C4C4"/>
<path d="M43.3242 34.7861H46.383V37.845H43.3242V34.7861Z" fill="#C4C4C4"/>
<path d="M14.2133 14.9043C10.0248 14.9043 6.61719 18.3118 6.61719 22.5004V37.8965C6.61719 42.0849 10.0248 45.4925 14.2133 45.4925H23.4407L24.4603 30.1984L23.4407 14.9043H14.2133Z" fill="#C4C4C4"/>
<path d="M32.6689 14.9043C31.7061 14.9043 24.527 14.9043 23.4414 14.9043V45.4925H32.6689C36.8573 45.4925 40.2649 42.0849 40.2649 37.8965V22.5004C40.2649 18.3118 36.8573 14.9043 32.6689 14.9043Z" fill="#C4C4C4"/>
</g>
<g clip-path="url(#clip1)">
<path d="M42.5 37.5C40.0251 37.5 38 39.5249 38 42C38 44.0925 39.44 45.8474 41.375 46.3425C41.7349 46.455 42.1176 46.5 42.5 46.5C42.8824 46.5 43.2651 46.4549 43.625 46.3425C45.56 45.8474 47 44.0925 47 42C47 39.5249 44.9749 37.5 42.5 37.5Z" fill="#EE0033"/>
<path d="M43.625 42V46.3425C43.2651 46.455 42.8824 46.5 42.5 46.5C42.1176 46.5 41.7349 46.4549 41.375 46.3425V42H43.625Z" fill="#EE0033"/>
<path d="M43.625 46.3428V57.7503H41.375V46.3428C41.7349 46.4553 42.1176 46.5003 42.5 46.5003C42.8824 46.5003 43.2651 46.4552 43.625 46.3428Z" fill="#92001F"/>
<path d="M35.75 58.75C35.75 58.1977 36.1977 57.75 36.75 57.75H48.25C48.8023 57.75 49.25 58.1977 49.25 58.75V59C49.25 59.5523 48.8023 60 48.25 60H36.75C36.1977 60 35.75 59.5523 35.75 59V58.75Z" fill="#92001F"/>
<path d="M30.6612 53.8389C31.0517 53.4483 31.049 52.8172 30.6838 52.4028C28.2364 49.6263 26.75 45.9835 26.75 42C26.75 33.3153 33.8153 26.25 42.5 26.25C51.1847 26.25 58.25 33.3153 58.25 42C58.25 45.9835 56.7636 49.6263 54.3162 52.4028C53.951 52.8172 53.9483 53.4483 54.3389 53.8389L54.5148 54.0148C54.9053 54.4053 55.5407 54.4071 55.9092 53.9957C58.7627 50.8093 60.5 46.6037 60.5 42C60.5 32.075 52.425 24 42.5 24C32.575 24 24.5 32.075 24.5 42C24.5 46.6037 26.2373 50.8093 29.0908 53.9957C29.4592 54.4071 30.0947 54.4053 30.4852 54.0148L30.6612 53.8389Z" fill="#EE0033"/>
<path d="M37.0221 47.4779C37.4126 47.0874 37.4056 46.4579 37.0765 46.0144C36.2433 44.8917 35.75 43.5024 35.75 42C35.75 38.2778 38.7779 35.25 42.5 35.25C46.2221 35.25 49.25 38.2779 49.25 42C49.25 43.5024 48.7567 44.8917 47.9235 46.0144C47.5944 46.4579 47.5874 47.0874 47.9779 47.4779L48.1539 47.6539C48.5444 48.0444 49.1825 48.0475 49.5278 47.6164C50.7614 46.0758 51.5 44.1225 51.5 42C51.5 37.0375 47.4625 33 42.5 33C37.5375 33 33.5 37.0375 33.5 42C33.5 44.1225 34.2386 46.0758 35.4723 47.6164C35.8175 48.0475 36.4556 48.0444 36.8461 47.6539L37.0221 47.4779Z" fill="#EE0033"/>
<path d="M33.8418 50.6582C34.2323 50.2677 34.2285 49.6371 33.8738 49.2138C32.2367 47.2594 31.25 44.7427 31.25 42C31.25 35.7971 36.2971 30.75 42.5 30.75C48.7029 30.75 53.75 35.7971 53.75 42C53.75 44.7427 52.7633 47.2594 51.1262 49.2138C50.7715 49.6371 50.7677 50.2677 51.1582 50.6582L51.3345 50.8345C51.725 51.225 52.3613 51.2273 52.7222 50.8092C54.7639 48.4432 56 45.3634 56 42C56 34.5557 49.9443 28.5 42.5 28.5C35.0557 28.5 29 34.5557 29 42C29 45.3634 30.2361 48.4432 32.2778 50.8092C32.6387 51.2273 33.275 51.225 33.6655 50.8345L33.8418 50.6582Z" fill="#EE0033"/>
</g>
<defs>
<clipPath id="clip0">
<rect width="52" height="52" fill="white" transform="translate(0.5)"/>
</clipPath>
<clipPath id="clip1">
<rect width="36" height="36" fill="white" transform="translate(24.5 24)"/>
</clipPath>
</defs>
</svg>
