<svg width="264" height="186" fill="none" xmlns="http://www.w3.org/2000/svg"><path fill="url(#paint0_linear)" d="M0-1.196h264v187.538H0z"/><path d="M-8.325 184.07l87.885 79.629c23.787 21.45 61.144 19.47 83.443-4.409l11.006-11.806 18.373-19.68 77.474-83.042s-60.052 19.056-109.977-25.998l-58.066-52.727c-23.787-21.45-61.143-19.47-83.442 4.409l-29.38 31.486c-22.286 23.903-21.079 60.675 2.684 82.138z" stroke="#fff" stroke-opacity=".3" stroke-width="1.371"/><path d="M10.363 227.331l99.992 63.766c27.047 17.158 63.543 8.943 81.522-18.338l8.871-13.484 14.813-22.482 62.454-94.857s-56.008 28.856-112.78-7.19L99.15 92.502c-27.047-17.158-63.542-8.943-81.522 18.338l-23.683 35.966c-17.963 27.302-10.608 63.351 16.418 80.525z" stroke="#fff" stroke-opacity=".3" stroke-width="1.371"/><path d="M-31.706 148.113l81.85 96.17c22.167 25.921 61.885 28.969 88.716 6.82l13.246-10.952 22.106-18.254 93.23-77.031s-66.033 11.862-112.553-42.579l-54.063-63.662C78.659 12.704 38.941 9.656 12.11 31.805L-23.243 61.01c-26.82 22.175-30.603 61.17-8.463 87.102z" stroke="#fff" stroke-opacity=".3" stroke-width="1.311"/><defs><linearGradient id="paint0_linear" x1="56.32" y1="-1.196" x2="105.531" y2="138.015" gradientUnits="userSpaceOnUse"><stop stop-color="#EF0134"/><stop offset="1" stop-color="#D7002E"/></linearGradient></defs></svg>