<svg width="201" height="201" viewBox="0 0 201 201" fill="none" xmlns="http://www.w3.org/2000/svg">
<path d="M100.8 200.6C156.028 200.6 200.8 155.829 200.8 100.6C200.8 45.3716 156.028 0.600098 100.8 0.600098C45.5713 0.600098 0.799805 45.3716 0.799805 100.6C0.799805 155.829 45.5713 200.6 100.8 200.6Z" fill="#EE0033"/>
<path d="M82.7998 64.6001C86.2998 62.0001 90.4998 60.7001 94.7998 60.6001H131.8C135.7 60.6001 138.8 63.7001 138.8 67.6001C138.8 69.5001 138 71.4001 136.6 72.7001C140.4 73.1001 143.2 76.5001 142.8 80.4001C142.6 82.1001 141.9 83.6001 140.6 84.7001C144.4 85.1001 147.2 88.5001 146.8 92.4001C146.6 94.7001 145.1 96.8001 143 97.9001C146.8 100.2 147.9 105.2 145.6 108.9C144.1 111.2 141.6 112.7 138.8 112.7H110.8C113 118.5 114.3 124.5 114.8 130.7C114.8 138.2 108.3 144.7 104.8 144.7C102.6 144.7 100.5 144 98.7998 142.7V128.7L86.7998 102.7L82.7998 100.7V64.6001Z" fill="white"/>
<path d="M131.8 58.6001H94.7998C89.9998 58.6001 85.1998 60.3001 81.3998 63.2001C80.9998 63.6001 80.7998 64.1001 80.7998 64.6001V100.6C80.7998 101.4 81.1998 102 81.8998 102.4L85.2998 104.1L96.7998 129.1V142.7C96.7998 143.3 97.0998 143.9 97.4998 144.3C99.5998 145.8 102.1 146.7 104.8 146.7C109.4 146.7 116.8 139.4 116.8 130.7C116.5 125.2 115.4 119.9 113.6 114.7H138.8C144.3 114.7 148.8 110.2 148.8 104.7C148.8 102.2 147.9 99.8001 146.2 98.0001C149.7 94.5001 149.7 88.8 146.2 85.3C145.5 84.6 144.7 84.1001 143.9 83.6001C144.5 82.4001 144.8 81.0001 144.8 79.6001C144.8 76.2001 142.9 73.1001 139.9 71.6001C140.5 70.4001 140.8 69.0001 140.8 67.6001C140.8 62.6001 136.7 58.6001 131.8 58.6001ZM84.7998 65.5001C87.7998 63.7001 91.2998 62.7001 94.7998 62.6001H131.8C134.6 62.6001 136.8 64.8001 136.8 67.6001C136.8 69.0001 136.2 70.3001 135.2 71.2001C134.4 72.0001 134.4 73.2001 135.1 74.0001C135.4 74.3001 135.9 74.6001 136.3 74.6001C139 74.9001 141 77.3001 140.7 80.0001C140.6 81.2001 140 82.3001 139.1 83.1001C138.3 83.9001 138.3 85.1001 139 85.9001C139.3 86.2001 139.8 86.5001 140.2 86.5001C142.9 86.8001 144.9 89.2001 144.6 91.9001C144.4 93.6001 143.4 95.1 141.9 95.8C140.9 96.3 140.5 97.5001 141 98.5001C141.2 98.8001 141.4 99.1 141.7 99.3C144.5 101.1 145.4 104.7 143.6 107.6C142.5 109.4 140.6 110.4 138.6 110.4H110.6C109.5 110.4 108.6 111.3 108.6 112.4C108.6 112.6 108.6 112.9 108.7 113.1C110.8 118.7 112.1 124.5 112.6 130.4C112.6 137 106.8 142.4 104.6 142.4C103.2 142.4 101.8 142 100.6 141.3V128.6C100.6 128.3 100.5 128 100.4 127.8L88.3998 101.8C88.1998 101.4 87.8998 101 87.4998 100.8L84.5998 99.4001V65.5001H84.7998Z" fill="white"/>
<path d="M82.7998 104.6H54.7998V56.6001H82.7998V104.6Z" fill="#EE8FA3"/>
<path d="M82.7998 54.6001H54.7998C53.6998 54.6001 52.7998 55.5001 52.7998 56.6001V104.6C52.7998 105.7 53.6998 106.6 54.7998 106.6H82.7998C83.8998 106.6 84.7998 105.7 84.7998 104.6V56.6001C84.7998 55.5001 83.8998 54.6001 82.7998 54.6001ZM56.7998 58.6001H80.7998V102.6H56.7998V58.6001Z" fill="#EE8FA3"/>
</svg>
