<svg width="56" height="56" viewBox="0 0 56 56" fill="none" xmlns="http://www.w3.org/2000/svg">
<path d="M28.1903 55.58C13.0703 55.58 0.820312 43.33 0.820312 28.21C0.820312 13.09 13.0703 0.839996 28.1903 0.839996C43.3103 0.839996 55.5603 13.09 55.5603 28.21C55.5603 43.32 43.3103 55.58 28.1903 55.58Z" fill="url(#paint0_linear)"/>
<path d="M28.1904 22.71C24.3904 22.71 21.3204 25.79 21.3204 29.58C21.3204 33.38 24.4004 36.45 28.1904 36.45C31.9904 36.45 35.0604 33.37 35.0604 29.58C35.0604 25.78 31.9904 22.71 28.1904 22.71ZM28.1904 35.08C25.1504 35.08 22.6904 32.62 22.6904 29.58C22.6904 26.54 25.1504 24.08 28.1904 24.08C31.2304 24.08 33.6904 26.54 33.6904 29.58C33.6904 32.62 31.2304 35.08 28.1904 35.08ZM41.2504 19.96H37.5504L35.7504 16.36C35.1704 15.19 33.9704 14.46 32.6704 14.46H23.7104C22.4104 14.45 21.2104 15.19 20.6304 16.36L18.8304 19.96H15.1304C13.2304 19.96 11.6904 21.5 11.6904 23.4V38.52C11.6904 40.42 13.2304 41.96 15.1304 41.96H41.2504C43.1504 41.96 44.6904 40.42 44.6904 38.52V23.39C44.6804 21.49 43.1504 19.96 41.2504 19.96ZM43.3104 38.51C43.3104 39.65 42.3904 40.57 41.2504 40.57H15.1304C13.9904 40.57 13.0704 39.65 13.0704 38.51V23.39C13.0704 22.25 13.9904 21.33 15.1304 21.33H19.2504C19.5104 21.33 19.7504 21.18 19.8704 20.95L21.8504 16.98C22.2004 16.28 22.9204 15.83 23.7104 15.84H32.6704C33.4604 15.84 34.1705 16.28 34.5305 16.98L36.5104 20.95C36.6304 21.18 36.8704 21.33 37.1304 21.33H41.2504C42.3904 21.33 43.3104 22.25 43.3104 23.39V38.51Z" fill="#EDEFEF"/>
<defs>
<linearGradient id="paint0_linear" x1="0.817613" y1="28.2038" x2="55.5615" y2="28.2038" gradientUnits="userSpaceOnUse">
<stop stop-color="#F0843F"/>
<stop offset="1" stop-color="#E81E36"/>
</linearGradient>
</defs>
</svg>
