<svg width="55" height="67" viewBox="0 0 55 67" fill="none" xmlns="http://www.w3.org/2000/svg">
<path d="M52.4453 37.1591C51.7366 37.017 51.0987 37.017 50.5318 37.2301C49.3978 33.0382 46.9882 29.4146 43.799 26.7147C43.3029 24.5122 44.0825 22.5228 45.0038 21.0308C45.6417 19.965 44.7912 18.544 43.5155 18.7572C39.6176 19.2545 37.4206 21.0308 36.1449 22.6649C34.5149 22.1676 32.7431 21.9544 30.9713 21.8834C31.68 23.8727 32.1052 26.0042 32.1052 28.2068C32.1052 38.0827 24.0968 46.1114 14.2457 46.1114C10.3478 46.1114 6.73335 44.8325 3.75675 42.701C3.75675 48.8823 6.44986 54.4242 10.7021 58.1898C12.1196 59.4687 12.97 61.245 12.97 63.1633V65.6501C12.97 66.4316 13.6079 67 14.3166 67H22.6085C23.3881 67 23.9551 66.3606 23.9551 65.6501V63.5186C24.1677 63.5186 24.3094 63.5186 24.522 63.5186H30.4043C30.4752 63.5186 30.4752 63.5186 30.5461 63.5186V65.6501C30.5461 66.4316 31.1839 67 31.8926 67H40.1846C40.9642 67 41.5311 66.3606 41.5311 65.6501V63.6607C41.5311 61.6713 42.4524 59.824 43.9407 58.5451C47.0591 55.8452 49.3978 52.2216 50.4609 48.1718C51.0279 48.3849 51.6657 48.3849 52.3744 48.2428C53.9336 47.8876 54.9967 46.3955 54.9967 44.8325V40.5695C55.0675 39.0064 54.0045 37.5143 52.4453 37.1591ZM42.169 37.4433C41.035 37.4433 40.1137 36.5196 40.1137 35.3828C40.1137 34.246 41.035 33.3224 42.169 33.3224C43.3029 33.3224 44.2242 34.246 44.2242 35.3828C44.2242 36.5907 43.3029 37.4433 42.169 37.4433ZM16.0884 10.0891C16.0884 10.018 16.0884 9.94698 16.0884 9.94698C16.0884 4.47614 20.5532 0 26.0103 0C31.4674 0 35.9323 4.47614 35.9323 9.94698C35.9323 14.0679 33.4518 17.5493 29.9082 19.1124C27.0734 14.1389 22.0415 10.6575 16.0884 10.0891ZM14.2457 42.4878C22.1124 42.4878 28.4908 36.0933 28.4908 28.2068C28.4908 20.3203 22.1124 13.9258 14.2457 13.9258C6.37899 13.9258 0.000578576 20.3203 0.000578576 28.2068C-0.0702927 36.0933 6.37899 42.4878 14.2457 42.4878ZM9.35558 31.0488L11.9069 30.9777C12.1904 30.9777 12.403 31.1909 12.403 31.404C12.4739 32.0435 12.6157 32.5408 12.97 32.825C13.3244 33.1803 13.8205 33.3934 14.4583 33.3934C14.9544 33.3934 15.3796 33.2513 15.5923 32.9671C15.8757 32.6829 16.0175 32.2566 16.0175 31.8303C16.0175 31.2619 15.8757 30.8356 15.5923 30.5514C15.3088 30.2672 14.8835 29.912 14.1748 29.6278C12.5448 28.9883 11.34 28.2778 10.5604 27.6384C9.78081 26.9279 9.42645 25.9332 9.42645 24.6543C9.42645 23.4464 9.85168 22.4518 10.6313 21.7413C11.34 21.0308 12.3322 20.6045 13.4661 20.4624V18.544C13.4661 18.3309 13.6787 18.1177 13.8913 18.1177H15.4505C15.6631 18.1177 15.8757 18.3309 15.8757 18.544V20.4624C17.0097 20.6755 17.8601 21.1729 18.498 21.9544C19.1358 22.736 19.4902 23.6596 19.561 24.7253C19.561 25.0095 19.3484 25.2227 19.0649 25.2227L16.5136 25.2937C16.2301 25.2937 16.0175 25.0806 16.0175 24.8674C15.9466 24.299 15.8049 23.8727 15.5923 23.5885C15.3088 23.2333 14.8835 23.0201 14.3874 23.0201C13.8913 23.0201 13.537 23.1622 13.2535 23.5175C13.0409 23.8017 12.8991 24.228 12.8991 24.7253C12.8991 25.2227 13.0409 25.5779 13.2535 25.9332C13.537 26.2174 13.9622 26.5726 14.6709 26.8568C16.301 27.5673 17.5058 28.2778 18.2854 28.9173C19.0649 29.6278 19.4193 30.6225 19.4193 31.9014C19.4193 33.1092 19.0649 34.1039 18.2854 34.8855C17.6475 35.5249 16.7971 35.9512 15.734 36.0933V37.8696C15.734 38.0827 15.5214 38.2959 15.3088 38.2959H13.7496C13.537 38.2959 13.3244 38.0827 13.3244 37.8696V36.1644C12.0487 36.0223 10.9147 35.5249 10.0643 34.7434C9.28471 34.0329 8.85948 32.9671 8.78861 31.6172C8.85948 31.2619 9.14297 31.0488 9.35558 31.0488Z" fill="#C9C9C9"/>
</svg>
