<svg width="122" height="24" viewBox="0 0 122 24" fill="none" xmlns="http://www.w3.org/2000/svg">
<path d="M1 9V14" stroke="#EE0033" stroke-linecap="round"/>
<path d="M7 6V17" stroke="#EE0033" stroke-linecap="round"/>
<path d="M13 1L13 23" stroke="#EE0033" stroke-linecap="round"/>
<path d="M19 6V17" stroke="#EE0033" stroke-linecap="round"/>
<path d="M25 3L25 21" stroke="#EE0033" stroke-linecap="round"/>
<path d="M31 1L31 23" stroke="#EE0033" stroke-linecap="round"/>
<path d="M37 6V17" stroke="#EE0033" stroke-linecap="round"/>
<path d="M43 9V14" stroke="#EE0033" stroke-linecap="round"/>
<path d="M49 6V17" stroke="#EE0033" stroke-linecap="round"/>
<path d="M55 1L55 23" stroke="#EE0033" stroke-linecap="round"/>
<path d="M61 6V17" stroke="#EE0033" stroke-linecap="round"/>
<path d="M67 3L67 21" stroke="#EE0033" stroke-linecap="round"/>
<path d="M73 1L73 23" stroke="#EE0033" stroke-linecap="round"/>
<path d="M79 6V17" stroke="#EE0033" stroke-linecap="round"/>
<path d="M85 9V14" stroke="#EE0033" stroke-linecap="round"/>
<path d="M91 6V17" stroke="#EE0033" stroke-linecap="round"/>
<path d="M97 1L97 23" stroke="#EE0033" stroke-linecap="round"/>
<path d="M103 6V17" stroke="#EE0033" stroke-linecap="round"/>
<path d="M109 3L109 21" stroke="#EE0033" stroke-linecap="round"/>
<path d="M115 1L115 23" stroke="#EE0033" stroke-linecap="round"/>
<path d="M121 6V17" stroke="#EE0033" stroke-linecap="round"/>
</svg>
