<svg width="253" height="343" viewBox="0 0 253 343" fill="none" xmlns="http://www.w3.org/2000/svg">
<circle cx="126.5" cy="125.869" r="125.869" fill="#DEE6EE"/>
<path d="M70.3697 111.126C78.198 111.126 84.5442 104.78 84.5442 96.9513C84.5442 89.123 78.198 82.7769 70.3697 82.7769C62.5414 82.7769 56.1953 89.123 56.1953 96.9513C56.1953 104.78 62.5414 111.126 70.3697 111.126Z" fill="white"/>
<path d="M184.33 111.126C191.845 111.126 197.938 104.78 197.938 96.9513C197.938 89.123 191.845 82.7769 184.33 82.7769C176.815 82.7769 170.723 89.123 170.723 96.9513C170.723 104.78 176.815 111.126 184.33 111.126Z" fill="white"/>
<path d="M69.8037 167.826C69.8037 167.826 119.104 124.453 184.333 167.826H69.8037Z" fill="white"/>
<path fill-rule="evenodd" clip-rule="evenodd" d="M148.96 306.4L139.307 305.624L138.219 333.931H146.047L148.96 306.4ZM175.378 334.006H183.117L183.398 307.283H173.842L175.378 334.006Z" fill="#F7B17D"/>
<path fill-rule="evenodd" clip-rule="evenodd" d="M132.294 339.368L132.313 339.369C132.156 339.628 132.072 339.924 132.069 340.226V341.472H147.694V340.226C147.694 340.076 147.672 339.928 147.631 339.784L146.703 330.642C146.571 329.718 146.105 329.621 145.436 329.748C145.536 329.365 145.569 328.968 145.534 328.573C145.468 327.906 139.485 327.636 139.351 328.388C139.3 328.777 139.274 329.168 139.272 329.56C138.762 329.392 138.09 329.365 137.585 330.254L132.294 339.368ZM175.409 330.438C175.326 330.245 175.248 330.062 175.163 329.898C174.664 328.935 174.081 328.932 173.873 329.576C173.85 329.646 173.809 329.759 173.755 329.907C173.318 331.102 172.028 334.628 172.583 337.486C172.583 337.486 180.601 337.832 185.385 338.916C185.385 338.916 198.376 339.252 201.122 339.252C201.122 339.252 200.914 336.924 199.999 336.161C199.084 335.398 196.92 335.117 196.92 335.117C196.92 335.117 185.605 329.617 184.689 329.577C183.774 329.537 182.693 330.219 181.861 330.982C181.75 331.083 181.64 331.191 181.527 331.302C180.786 332.029 179.916 332.883 178.075 332.708C176.313 332.542 175.814 331.379 175.409 330.438Z" fill="#6A6A6A"/>
<g style="mix-blend-mode:overlay" opacity="0.6">
<path d="M145.455 338.071C145.455 338.071 144.708 336.885 140.525 336.837C136.039 336.785 135.055 338 135.055 338L145.455 338.071Z" fill="white"/>
</g>
<g style="mix-blend-mode:overlay" opacity="0.6">
<path d="M139.273 329.559C139.274 329.168 139.301 328.777 139.351 328.388C139.486 327.636 145.468 327.906 145.535 328.573C145.549 328.973 145.514 329.372 145.43 329.763C145.43 329.763 145.478 335.616 144.525 336.187C144.002 336.501 136.58 336.425 136.534 336.245C136.411 335.766 139.115 329.559 139.273 329.559Z" fill="white"/>
</g>
<g style="mix-blend-mode:overlay" opacity="0.6">
<path d="M147.375 337.551L145.706 336.268C145.681 336.249 145.67 336.218 145.675 336.187L145.839 335.322C145.845 335.294 145.864 335.271 145.89 335.26C145.916 335.25 145.946 335.253 145.969 335.27L147.23 336.187L147.375 337.551Z" fill="white"/>
</g>
<g style="mix-blend-mode:overlay" opacity="0.6">
<path d="M147.182 335.769L145.989 334.855C145.933 334.812 145.905 334.741 145.915 334.67L146.045 333.762C146.049 333.738 146.071 333.674 146.125 333.717C146.184 333.765 147.028 334.4 147.028 334.4L147.182 335.769Z" fill="white"/>
</g>
<g style="mix-blend-mode:overlay" opacity="0.6">
<path d="M146.993 334.039L146.22 333.458C146.164 333.415 146.136 333.344 146.146 333.274L146.276 332.365C146.28 332.341 146.302 332.277 146.356 332.32C146.415 332.368 146.831 332.613 146.831 332.613L146.993 334.039Z" fill="white"/>
</g>
<g style="mix-blend-mode:overlay" opacity="0.6">
<path d="M134.148 336.161L136.249 335.619C136.279 335.611 136.302 335.587 136.309 335.556L136.507 334.689C136.513 334.661 136.505 334.632 136.485 334.612C136.465 334.592 136.436 334.583 136.408 334.589L134.856 334.946L134.148 336.161Z" fill="white"/>
</g>
<g style="mix-blend-mode:overlay" opacity="0.6">
<path d="M135.077 334.568L136.556 334.197C136.626 334.179 136.68 334.125 136.699 334.055L136.945 333.162C136.951 333.138 136.956 333.069 136.89 333.089C136.816 333.11 135.776 333.367 135.776 333.367L135.077 334.568Z" fill="white"/>
</g>
<g style="mix-blend-mode:overlay" opacity="0.6">
<path d="M135.951 333.051L136.907 332.811C136.976 332.792 137.031 332.738 137.05 332.669L137.295 331.775C137.302 331.752 137.307 331.683 137.24 331.702C137.167 331.724 136.676 331.819 136.676 331.819L135.951 333.051Z" fill="white"/>
</g>
<g style="mix-blend-mode:overlay" opacity="0.6">
<path d="M196.921 335.117L196.795 335.199C195.7 335.907 194.329 336.038 193.12 335.548L181.861 330.982C181.861 330.982 183.623 329.217 184.69 329.577C184.69 329.577 186.988 330.262 196.921 335.117Z" fill="white"/>
</g>
<g style="mix-blend-mode:overlay" opacity="0.6">
<path d="M178.075 332.708C178.075 332.708 177.853 334.671 176.97 334.092C175.52 333.196 173.636 333.483 172.516 334.77C172.516 334.77 172.867 331.643 173.873 329.575C173.873 329.575 174.391 328.322 175.163 329.898C175.935 331.475 176.127 332.367 178.075 332.708Z" fill="white"/>
</g>
<g style="mix-blend-mode:overlay" opacity="0.6">
<path d="M198.151 335.362C198.151 335.362 196.839 335.536 196.576 336.803C196.419 337.587 196.413 338.394 196.558 339.18L201.122 339.252C201.122 339.252 200.891 336.856 199.999 336.161C199.441 335.775 198.814 335.504 198.151 335.362V335.362Z" fill="white"/>
</g>
<g style="mix-blend-mode:overlay" opacity="0.6">
<path d="M189.39 339.016L190.981 336.074C191.013 336.015 191.019 335.945 190.996 335.881C190.973 335.818 190.924 335.767 190.861 335.743L189.787 335.317C189.677 335.274 189.553 335.318 189.495 335.42L187.494 338.969L189.39 339.016Z" fill="white"/>
</g>
<g style="mix-blend-mode:overlay" opacity="0.6">
<path d="M186.707 338.949L188.756 335.213C188.788 335.154 188.793 335.083 188.77 335.02C188.747 334.957 188.698 334.906 188.635 334.881L187.561 334.456C187.452 334.412 187.327 334.456 187.27 334.559L184.872 338.805L185.385 338.916L186.707 338.949Z" fill="white"/>
</g>
<g style="mix-blend-mode:overlay" opacity="0.6">
<path d="M184.108 338.656L186.454 334.359C186.486 334.3 186.491 334.23 186.468 334.167C186.445 334.103 186.396 334.053 186.334 334.028L185.259 333.602C185.15 333.559 185.026 333.603 184.968 333.705L182.345 338.369L182.89 338.437L184.108 338.656Z" fill="white"/>
</g>
<path fill-rule="evenodd" clip-rule="evenodd" d="M144.774 330.448L144.774 330.448C144.747 330.439 142.727 329.816 139.34 330.452C139.332 330.453 139.323 330.454 139.315 330.454C139.242 330.451 139.181 330.395 139.172 330.322C139.157 330.239 139.209 330.158 139.291 330.139C142.757 329.489 144.772 330.116 144.856 330.143C144.935 330.173 144.978 330.259 144.954 330.34C144.945 330.379 144.921 330.412 144.887 330.433C144.853 330.453 144.812 330.458 144.774 330.448ZM185.787 332.112C185.923 332.22 186.121 332.198 186.231 332.063L187.443 330.531C187.55 330.393 187.526 330.195 187.39 330.087C187.253 329.978 187.055 330 186.946 330.136L185.734 331.668C185.627 331.806 185.651 332.004 185.787 332.112ZM172.461 335.453H172.461L172.461 335.457L172.461 335.453ZM172.583 337.486C172.583 337.486 180.601 337.832 185.385 338.916C185.385 338.916 198.376 339.252 201.122 339.252V340.374C201.122 340.651 201.012 340.918 200.816 341.114C200.62 341.311 200.354 341.421 200.077 341.421H173.492C173.215 341.421 172.949 341.311 172.753 341.114C172.557 340.918 172.447 340.651 172.447 340.374L172.458 336.395C172.473 336.761 172.515 337.125 172.583 337.486ZM188.426 332.882C188.317 333.018 188.119 333.04 187.983 332.931C187.846 332.823 187.823 332.625 187.93 332.487L189.142 330.956C189.251 330.82 189.449 330.798 189.585 330.906C189.722 331.015 189.746 331.213 189.639 331.35L188.426 332.882ZM189.701 333.851C189.837 333.959 190.035 333.937 190.144 333.801L191.356 332.27C191.463 332.132 191.439 331.934 191.303 331.826C191.167 331.717 190.969 331.739 190.86 331.875L189.647 333.407C189.54 333.544 189.564 333.743 189.701 333.851ZM192.262 334.862C192.152 334.997 191.954 335.019 191.818 334.911C191.682 334.803 191.658 334.605 191.765 334.467L192.977 332.936C193.086 332.8 193.284 332.778 193.421 332.886C193.557 332.994 193.581 333.193 193.474 333.33L192.262 334.862ZM193.963 335.688C194.1 335.797 194.298 335.775 194.407 335.639L195.619 334.107C195.726 333.97 195.702 333.771 195.566 333.663C195.43 333.555 195.232 333.577 195.122 333.713L193.91 335.244C193.803 335.382 193.827 335.58 193.963 335.688ZM135.339 337.961H144.424C146.23 337.961 147.694 338.975 147.694 340.226V341.472H132.069V340.226C132.069 338.975 133.533 337.961 135.339 337.961ZM144.48 335.365C144.457 335.327 144.42 335.301 144.378 335.292C144.276 335.265 141.85 334.638 137.673 335.288C137.63 335.292 137.59 335.314 137.563 335.349C137.536 335.384 137.524 335.428 137.53 335.471C137.549 335.551 137.621 335.606 137.702 335.603C137.712 335.603 137.722 335.603 137.732 335.601C141.814 334.965 144.247 335.589 144.279 335.597L144.279 335.597C144.369 335.623 144.463 335.576 144.496 335.489C144.508 335.447 144.502 335.402 144.48 335.365ZM144.667 334.016C144.709 334.026 144.745 334.053 144.767 334.09C144.788 334.127 144.794 334.172 144.782 334.213C144.751 334.299 144.66 334.346 144.572 334.321L144.572 334.321C144.541 334.312 142.19 333.689 138.248 334.325C138.238 334.326 138.229 334.327 138.219 334.327C138.139 334.329 138.069 334.273 138.053 334.195C138.046 334.152 138.057 334.109 138.083 334.074C138.109 334.04 138.148 334.017 138.191 334.012C142.225 333.362 144.569 333.989 144.667 334.016ZM144.846 332.761C144.825 332.724 144.79 332.697 144.749 332.687C144.653 332.659 142.364 332.033 138.424 332.682C138.382 332.688 138.344 332.711 138.319 332.746C138.293 332.78 138.283 332.823 138.289 332.866C138.305 332.943 138.373 332.999 138.452 332.998C138.461 332.998 138.47 332.997 138.48 332.996C142.33 332.36 144.625 332.983 144.656 332.991L144.656 332.991C144.742 333.016 144.832 332.969 144.861 332.884C144.873 332.843 144.867 332.799 144.846 332.761ZM144.76 331.827L144.76 331.827C144.814 331.843 144.873 331.828 144.914 331.789C144.955 331.75 144.972 331.692 144.958 331.637C144.945 331.582 144.903 331.538 144.849 331.522C144.757 331.495 142.557 330.868 138.77 331.518C138.714 331.527 138.667 331.566 138.648 331.619C138.628 331.672 138.638 331.732 138.674 331.776C138.71 331.819 138.767 331.841 138.823 331.831C142.524 331.195 144.73 331.818 144.76 331.827Z" fill="#727272"/>
<path d="M136.819 295.504C138.769 280.832 137.004 271.033 138.902 265.329C138.902 265.329 136.173 235.295 137.016 215.437H181.462C181.462 215.437 185.183 262.865 184.972 270.682C184.761 278.498 185.303 302.934 185.702 315.256C185.768 317.298 184.121 318.593 183.802 318.737C183.853 320.687 184.004 323.598 183.963 324.498C183.875 326.438 181.165 326.573 178.622 326.54C174.564 326.487 174.254 325.98 174.107 324.634C174.058 324.183 173.656 320.947 173.587 319.046C173.48 318.995 171.701 318.741 170.787 317.051C168.677 313.148 169.479 297.37 168.003 288.497C166.527 279.625 168.058 269.694 168.107 267.09C162.724 259.697 160.518 248.289 160.518 248.289L149.138 316.868C149.138 316.868 149.017 318.132 148.077 318.804C147.964 320.768 147.704 324.283 147.264 324.674C146.649 325.22 143.276 325.114 141.396 324.938C139.516 324.762 138.164 324.199 137.953 323.107C137.804 322.335 137.866 319.285 137.915 317.564C137.153 317.187 136.65 316.431 136.596 315.581C136.596 315.581 135.238 307.404 136.819 295.504Z" fill="#727272"/>
<g style="mix-blend-mode:overlay" opacity="0.6">
<path d="M182 324.445C182.042 324.445 182.082 324.429 182.112 324.399C182.142 324.369 182.158 324.329 182.158 324.287V319.797C182.158 319.71 182.087 319.639 182 319.639C181.912 319.639 181.841 319.71 181.841 319.797V324.287C181.841 324.329 181.858 324.369 181.888 324.399C181.917 324.429 181.958 324.445 182 324.445Z" fill="white"/>
</g>
<g style="mix-blend-mode:overlay" opacity="0.6">
<path d="M179.645 324.657C179.687 324.657 179.728 324.64 179.757 324.61C179.787 324.58 179.804 324.54 179.804 324.498V320.009C179.804 319.921 179.733 319.85 179.645 319.85C179.558 319.85 179.487 319.921 179.487 320.009V324.498C179.487 324.54 179.503 324.58 179.533 324.61C179.563 324.64 179.603 324.657 179.645 324.657Z" fill="white"/>
</g>
<g style="mix-blend-mode:overlay" opacity="0.6">
<path d="M177.755 324.797H177.758C177.845 324.795 177.915 324.723 177.913 324.635L177.83 320.147C177.829 320.06 177.758 319.991 177.672 319.991H177.669C177.581 319.993 177.512 320.065 177.513 320.153L177.596 324.641C177.598 324.728 177.668 324.797 177.755 324.797Z" fill="white"/>
</g>
<g style="mix-blend-mode:overlay" opacity="0.6">
<path d="M175.922 324.793C175.926 324.793 175.929 324.793 175.933 324.793C176.02 324.787 176.086 324.712 176.081 324.624L175.798 320.144C175.796 320.102 175.777 320.062 175.745 320.034C175.714 320.006 175.672 319.992 175.629 319.996C175.542 320.001 175.476 320.077 175.481 320.164L175.764 324.644C175.77 324.728 175.839 324.793 175.922 324.793Z" fill="white"/>
</g>
<g style="mix-blend-mode:overlay" opacity="0.6">
<path d="M145.432 323.959C145.513 323.959 145.581 323.898 145.59 323.817L146.054 319.352C146.06 319.295 146.035 319.24 145.989 319.206C145.944 319.173 145.883 319.167 145.832 319.19C145.78 319.213 145.744 319.262 145.739 319.319L145.275 323.784C145.27 323.826 145.283 323.868 145.309 323.9C145.335 323.933 145.374 323.954 145.416 323.958C145.421 323.959 145.427 323.959 145.432 323.959Z" fill="white"/>
</g>
<g style="mix-blend-mode:overlay" opacity="0.6">
<path d="M143.069 323.925C143.15 323.925 143.218 323.863 143.226 323.782L143.691 319.318C143.697 319.261 143.672 319.206 143.626 319.172C143.58 319.139 143.52 319.132 143.468 319.156C143.417 319.179 143.381 319.228 143.375 319.285L142.911 323.749C142.907 323.791 142.919 323.833 142.946 323.866C142.972 323.899 143.011 323.919 143.052 323.924C143.058 323.924 143.063 323.925 143.069 323.925Z" fill="white"/>
</g>
<g style="mix-blend-mode:overlay" opacity="0.6">
<path d="M141.173 323.869C141.255 323.869 141.324 323.806 141.33 323.723L141.712 319.251C141.716 319.209 141.703 319.167 141.676 319.135C141.649 319.102 141.61 319.082 141.568 319.079C141.481 319.073 141.405 319.137 141.397 319.223L141.015 323.696C141.011 323.738 141.024 323.78 141.051 323.812C141.078 323.844 141.117 323.864 141.159 323.868C141.164 323.868 141.168 323.869 141.173 323.869Z" fill="white"/>
</g>
<g style="mix-blend-mode:overlay" opacity="0.6">
<path d="M139.351 323.674C139.436 323.674 139.506 323.607 139.51 323.522L139.691 319.036C139.695 318.949 139.627 318.875 139.539 318.871C139.497 318.869 139.456 318.884 139.425 318.912C139.394 318.941 139.376 318.981 139.375 319.023L139.193 323.509C139.189 323.596 139.257 323.67 139.345 323.674H139.351Z" fill="white"/>
</g>
<g style="mix-blend-mode:overlay" opacity="0.6">
<path d="M136.819 228.592C136.828 228.592 136.838 228.592 136.847 228.59C146.652 226.842 145.042 215.951 145.024 215.841C145.01 215.755 144.929 215.696 144.843 215.71C144.757 215.723 144.698 215.804 144.711 215.891C144.728 215.998 146.288 226.584 136.792 228.277C136.711 228.292 136.654 228.366 136.661 228.448C136.669 228.53 136.737 228.592 136.819 228.592Z" fill="#B5B4B4"/>
</g>
<g style="mix-blend-mode:overlay" opacity="0.6">
<path d="M182.382 226.372C182.455 226.372 182.519 226.322 182.536 226.251C182.554 226.18 182.521 226.107 182.456 226.073C182.387 226.037 175.602 222.403 175.961 215.874C175.964 215.832 175.949 215.791 175.921 215.76C175.893 215.728 175.854 215.709 175.812 215.707C175.77 215.704 175.728 215.718 175.697 215.747C175.665 215.775 175.647 215.815 175.645 215.857C175.275 222.592 182.239 226.317 182.309 226.354C182.332 226.366 182.357 226.372 182.382 226.372Z" fill="#B5B4B4"/>
</g>
<g style="mix-blend-mode:overlay" opacity="0.6">
<path d="M181.461 215.437L181.726 218.897C164.104 225.896 136.927 221.038 136.927 221.038L137.015 215.437H181.461Z" fill="#B5B4B4"/>
</g>
<g style="mix-blend-mode:overlay" opacity="0.6">
<path d="M160.517 248.289L164.736 232.551C164.736 232.551 166.946 241.074 165.998 250.296C165.049 259.518 165.359 262.496 165.359 262.496C165.359 262.496 161.828 255.419 160.517 248.289Z" fill="#B5B4B4"/>
</g>
<g style="mix-blend-mode:overlay" opacity="0.6">
<path d="M182.33 227.217C182.33 227.217 180.442 226.425 179.704 229.382C178.966 232.34 179.841 246.916 180.684 255.155C181.527 263.393 182.542 275.963 182.702 282.512C182.863 289.06 185.07 292.071 185.07 292.071C185.07 292.071 184.912 270.312 184.869 266.874C184.807 262.041 183.437 243.008 182.33 227.217Z" fill="white"/>
</g>
<g style="mix-blend-mode:overlay" opacity="0.6">
<path d="M159.287 255.901C159.287 255.901 153.287 262.895 151.895 272.281C150.503 281.667 149.344 300.292 148.641 305.08C147.938 309.869 146.266 314.789 149.338 315.203L159.287 255.901Z" fill="white"/>
</g>
<g style="mix-blend-mode:overlay" opacity="0.6">
<path d="M168.056 269.853C168.062 269.853 168.067 269.853 168.072 269.852C168.114 269.848 168.152 269.828 168.179 269.795C168.206 269.763 168.218 269.721 168.214 269.679C168.209 269.627 167.732 264.48 169.788 261.046C169.817 260.997 169.818 260.936 169.791 260.887C169.763 260.837 169.711 260.806 169.654 260.805C169.598 260.804 169.545 260.834 169.516 260.883C167.405 264.408 167.894 269.657 167.899 269.71C167.907 269.791 167.975 269.853 168.056 269.853Z" fill="#B5B4B4"/>
</g>
<path d="M149.727 128.322C149.727 123.252 155.314 124.868 156.265 125.186C157.216 125.503 159.435 118.198 159.435 118.198C159.435 118.198 170.846 117.245 173.065 119.468C173.065 119.468 173.699 128.997 173.382 135.032C173.065 141.067 171.13 143.602 168.911 143.602C168.209 143.563 167.52 143.402 166.873 143.126V154.235L153.451 147.264L155.104 134.14C155.036 134.1 154.997 134.079 154.997 134.079C154.997 134.079 149.727 133.11 149.727 128.322Z" fill="#F7B17D"/>
<path d="M173.428 127.729C173.428 127.729 172.809 122.513 172.73 121.069C172.616 118.992 170.686 118.556 169.551 120.013C167.918 122.176 165.147 123.144 162.527 122.465C160.227 121.928 159.259 121.312 159.048 123.638C158.837 125.963 158.047 129.825 157.309 128.792C156.571 127.759 155.745 125.488 154.284 125.224C152.05 124.82 150.668 127.493 151.195 129.087C151.722 130.681 152.468 131.675 155.225 133.182L154.365 140.01C147.533 130.931 144.959 118.464 154.226 115.577C157.688 114.498 161.284 107.508 167.983 109.098C172.73 110.225 172.73 113.869 173.067 117.038C179.444 117.302 173.428 127.729 173.428 127.729Z" fill="#352316"/>
<path d="M153.226 127.238C154.747 126.722 156.157 130.038 156.216 130.179C156.25 130.26 156.212 130.353 156.132 130.387C156.112 130.395 156.091 130.399 156.07 130.4C156.006 130.4 155.949 130.361 155.924 130.302C155.678 129.73 155.376 129.183 155.024 128.669C154.705 128.613 154.376 128.674 154.096 128.84C153.819 129.047 153.642 129.362 153.608 129.707C153.596 129.784 153.53 129.84 153.452 129.84C153.444 129.84 153.435 129.84 153.426 129.838C153.385 129.831 153.348 129.808 153.323 129.774C153.299 129.74 153.289 129.697 153.296 129.656C153.351 128.888 154.005 128.303 154.772 128.334C154.321 127.775 153.807 127.377 153.328 127.539C153.274 127.558 153.215 127.546 153.172 127.508C153.13 127.471 153.11 127.414 153.121 127.358C153.132 127.302 153.172 127.257 153.226 127.238H153.226Z" fill="#0B122D"/>
<path d="M166.874 143.285C166.949 143.285 167.013 143.232 167.029 143.159C167.044 143.086 167.006 143.011 166.938 142.981C166.886 142.958 161.678 140.623 159.48 137.801C159.426 137.732 159.327 137.719 159.258 137.773C159.188 137.827 159.176 137.927 159.23 137.996C161.477 140.882 166.593 143.175 166.81 143.271C166.83 143.28 166.852 143.285 166.874 143.285Z" fill="#0B122D"/>
<path d="M159.447 120.884C159.482 120.884 159.517 120.872 159.544 120.851C161.937 118.989 161.046 115.381 161.007 115.229C160.993 115.174 160.951 115.13 160.897 115.115C160.842 115.099 160.783 115.114 160.743 115.154C160.702 115.194 160.686 115.252 160.7 115.308C160.709 115.343 161.577 118.867 159.35 120.6C159.297 120.642 159.275 120.713 159.297 120.777C159.319 120.841 159.38 120.884 159.447 120.884V120.884Z" fill="white"/>
<g style="mix-blend-mode:overlay" opacity="0.6">
<path d="M166.863 143.199C166.863 143.199 162.296 141.07 160.82 139.521C160.82 139.521 161.161 143.697 164.177 146.633C167.194 149.568 166.863 147.196 166.863 147.196L166.863 143.199Z" fill="#030F1C"/>
</g>
<path d="M165.768 126.22C165.723 126.757 165.951 127.215 166.278 127.243C166.604 127.27 166.905 126.856 166.949 126.318C166.994 125.78 166.766 125.322 166.44 125.295C166.113 125.268 165.812 125.682 165.768 126.22" fill="#161B36"/>
<path d="M171.581 127.112C171.536 127.65 171.764 128.108 172.091 128.135C172.416 128.163 172.717 127.749 172.762 127.211C172.807 126.673 172.578 126.215 172.253 126.188C171.926 126.161 171.625 126.575 171.581 127.112" fill="#161B36"/>
<path d="M167.766 123.053C167.497 122.886 167.166 122.791 166.348 123.091C165.53 123.389 164.499 124.551 164.837 124.67C165.176 124.79 165.806 123.858 166.53 123.89C167.255 123.922 167.688 123.997 167.871 123.807C168.102 123.568 167.896 123.134 167.766 123.053Z" fill="#161B36"/>
<path d="M171.88 123.481C172.188 123.406 172.531 123.42 173.216 123.96C173.901 124.5 174.518 125.925 174.159 125.933C173.801 125.941 173.492 124.858 172.794 124.662C172.096 124.466 171.661 124.402 171.546 124.165C171.4 123.865 171.731 123.517 171.88 123.481" fill="#161B36"/>
<g style="mix-blend-mode:overlay" opacity="0.6">
<path d="M169.709 133.154C169.947 133.161 170.183 133.113 170.4 133.014C170.585 132.931 170.722 132.768 170.774 132.572C170.873 132.165 170.505 131.491 170.051 130.717C169.935 130.531 169.83 130.339 169.737 130.141C169.651 129.907 169.852 127.86 170.096 126.015L169.781 125.974C169.697 126.613 169.283 129.825 169.44 130.25C169.538 130.467 169.651 130.677 169.778 130.878C170.064 131.365 170.543 132.181 170.466 132.496C170.436 132.602 170.359 132.689 170.257 132.731C169.787 132.889 169.275 132.862 168.824 132.656L168.702 132.949C169.022 133.082 169.364 133.151 169.709 133.154Z" fill="#030F1C"/>
</g>
<path d="M164.635 136.651C164.635 137.645 165.691 138.448 166.99 138.448C167.382 138.45 167.77 138.373 168.131 138.223C168.857 137.918 169.349 137.327 169.349 136.651C169.349 135.656 168.293 134.853 166.99 134.853C165.846 134.853 164.889 135.479 164.68 136.308C164.65 136.42 164.636 136.535 164.635 136.651Z" fill="#161B36"/>
<path d="M164.636 136.651C164.636 137.645 165.691 138.448 166.991 138.448C167.382 138.45 167.77 138.373 168.132 138.223C167.777 137.718 166.537 136.165 164.68 136.308C164.651 136.42 164.636 136.535 164.636 136.651Z" fill="#E55151"/>
<path d="M102.033 154.083L121.187 176.101C121.404 176.348 121.733 176.465 122.057 176.41C122.38 176.355 122.653 176.137 122.777 175.832C124.357 171.964 126.159 168.192 128.174 164.533C132.092 157.489 137.061 150.369 142.975 149.382C146.616 148.397 152.368 147.178 152.368 147.178L153.792 141.756C155.453 145.617 158.791 148.498 162.847 149.572C165.547 148.339 166.766 145.277 166.766 145.277L169.095 148.023C169.095 148.023 177.363 151.585 180.476 153.971C184.11 156.338 185.631 162 188.86 167.806C191.35 172.285 193.795 176.826 195.921 179.264C196.248 179.632 196.717 179.843 197.209 179.841C197.702 179.84 198.169 179.627 198.494 179.256C198.494 179.256 212.455 163.491 217.98 157.252C219.193 159.682 221.512 162.322 224.516 162.428C215.53 177.834 204.058 196.063 200.736 197.258C197.911 198.274 194.464 197.337 191.828 194.698C187.182 190.045 183.444 185.765 180.415 182.142C180.145 185.64 179.945 188.658 179.936 190.555C179.913 195.502 180.435 201.226 180.597 207.666C180.674 210.716 183.582 216.709 181.236 218.651C173.662 224.919 136.473 218.651 136.473 218.651C136.519 214.997 136.976 211.359 137.838 207.807C139.604 200.986 139.345 197.526 139.119 193.513C139.027 191.864 138.763 185.678 138.474 178.804C134.969 183.279 131.529 187.268 128.136 190.453C121.917 196.29 118.428 195.732 108.681 180.513C107.288 178.339 95.8614 162.051 94.233 159.259C101.084 159.259 102.033 154.083 102.033 154.083Z" fill="#D1D1D1"/>
<g style="mix-blend-mode:overlay" opacity="0.6">
<path d="M186.753 169.997C187.454 171.76 188.509 174.081 190.83 177.883C193.147 181.686 196.136 184.767 199.892 181.6C202.925 179.04 206.78 173.589 207.933 172.039C209.087 170.492 207.933 168.64 207.933 168.64C202.865 174.358 198.494 179.256 198.494 179.256C198.169 179.626 197.701 179.839 197.209 179.84C196.717 179.842 196.248 179.633 195.92 179.265C193.796 176.826 191.349 172.284 188.861 167.805C188.611 167.351 188.364 166.9 188.129 166.446H188.126C188.126 166.446 186.05 168.237 186.753 169.997Z" fill="#DCE4EF"/>
</g>
<g style="mix-blend-mode:overlay" opacity="0.6">
<path d="M181.498 168.323C184.387 172.325 183.264 181.01 185.734 184.046C188.255 187.146 192.974 189.527 191.829 194.698C187.237 189.858 183.375 185.749 180.413 182.174C180.744 177.89 181.18 172.883 181.498 168.323Z" fill="#030F1C"/>
</g>
<path d="M198.855 185.576C198.919 185.576 198.976 185.538 199.001 185.479C199.026 185.42 199.013 185.352 198.969 185.307C197.104 183.379 197.385 180.73 197.389 180.703C197.393 180.661 197.381 180.619 197.355 180.586C197.329 180.553 197.291 180.532 197.249 180.527C197.207 180.521 197.165 180.533 197.132 180.559C197.099 180.586 197.078 180.624 197.073 180.666C197.06 180.78 196.769 183.49 198.741 185.527C198.771 185.558 198.812 185.576 198.855 185.576Z" fill="#0B122D"/>
<path d="M165.049 221.556C165.132 221.556 165.2 221.493 165.207 221.411C165.407 218.945 165.12 211.868 164.842 205.024C164.56 198.046 164.267 190.83 164.491 188.529C164.931 183.992 163.03 151.511 163.011 151.183C163.008 151.127 162.975 151.076 162.925 151.05C162.874 151.024 162.814 151.028 162.766 151.059C162.719 151.09 162.692 151.144 162.695 151.201C162.714 151.528 164.613 183.984 164.175 188.497C163.95 190.82 164.242 198.047 164.526 205.035C164.803 211.87 165.089 218.937 164.891 221.384C164.884 221.472 164.949 221.548 165.036 221.556C165.04 221.556 165.045 221.557 165.049 221.556Z" fill="#0B122D"/>
<g style="mix-blend-mode:overlay" opacity="0.6">
<path d="M166.766 145.277C166.766 145.277 165.547 148.338 162.847 149.572L166.517 153.727L169.096 148.023L166.766 145.277Z" fill="white"/>
</g>
<g style="mix-blend-mode:overlay" opacity="0.6">
<path d="M153.792 141.756C155.452 145.617 158.791 148.498 162.847 149.572C161.236 151.122 160.824 153.727 160.824 153.727L152.367 147.178L153.792 141.756Z" fill="white"/>
</g>
<g style="mix-blend-mode:overlay" opacity="0.6">
<path d="M138.511 178.758C140.646 176.029 142.806 173.121 144.993 170.098C145.166 172.482 145.564 180.672 143.679 188.707C140.834 200.836 145.38 208.899 149.877 213.652C153.694 217.687 161.56 218.651 167.216 221.437C156.408 222.031 136.474 218.651 136.474 218.651C136.474 218.651 136.397 213.514 138.329 205.767C140.017 198.998 138.836 182.754 138.511 178.758Z" fill="#030F1C"/>
</g>
<path d="M181.015 174.853C181.093 174.853 181.159 174.796 181.171 174.718C182.201 167.686 181.681 162.599 181.675 162.548C181.665 162.461 181.588 162.398 181.501 162.406C181.459 162.411 181.421 162.431 181.394 162.464C181.368 162.497 181.356 162.539 181.36 162.581C181.366 162.631 181.881 167.681 180.857 174.671C180.844 174.758 180.904 174.838 180.991 174.852C180.999 174.853 181.007 174.853 181.015 174.853Z" fill="#0B122D"/>
<path d="M176.929 212.895C176.957 212.895 176.984 212.888 177.008 212.874C179.767 211.275 180.712 207.853 180.751 207.708C180.774 207.624 180.724 207.537 180.64 207.514C180.556 207.491 180.469 207.54 180.445 207.625C180.436 207.659 179.493 211.067 176.848 212.599C176.787 212.635 176.757 212.709 176.775 212.778C176.794 212.847 176.857 212.895 176.929 212.895Z" fill="#0B122D"/>
<g style="mix-blend-mode:overlay" opacity="0.6">
<path d="M160.825 153.727L147.199 148.339L152.368 147.178L160.825 153.727Z" fill="#030F1C"/>
</g>
<g style="mix-blend-mode:overlay" opacity="0.6">
<ellipse rx="0.493336" ry="0.491488" transform="matrix(-0.707039 -0.707174 -0.70571 0.708501 164.239 164.43)" fill="#030F1C"/>
</g>
<g style="mix-blend-mode:overlay" opacity="0.6">
<ellipse rx="0.493335" ry="0.491487" transform="matrix(-0.707037 -0.707176 -0.705708 0.708503 163.929 174.201)" fill="#030F1C"/>
</g>
<g style="mix-blend-mode:overlay" opacity="0.6">
<ellipse rx="0.493337" ry="0.491489" transform="matrix(-0.707037 -0.707176 -0.705708 0.708503 163.156 184.937)" fill="#030F1C"/>
</g>
<g style="mix-blend-mode:overlay" opacity="0.6">
<ellipse rx="0.493336" ry="0.491488" transform="matrix(-0.707039 -0.707174 -0.70571 0.708501 163.018 194.965)" fill="#030F1C"/>
</g>
<g style="mix-blend-mode:overlay" opacity="0.6">
<ellipse rx="0.493336" ry="0.491488" transform="matrix(-0.707039 -0.707174 -0.70571 0.708501 163.562 209.081)" fill="#030F1C"/>
</g>
<path d="M162.418 154.273L161.189 152.355C161.189 152.355 161.856 150.4 162.848 149.572L165.694 152.794L165.174 154.273L170.686 201.681L166.394 206.61L161.208 201.441L162.418 154.273Z" fill="#E37171"/>
<g style="mix-blend-mode:overlay" opacity="0.6">
<path d="M149.738 176.612L153.38 178.302L157.011 176.612L156.98 168.336H149.707L149.738 176.612Z" fill="white"/>
</g>
<g style="mix-blend-mode:overlay" opacity="0.6">
<path d="M169.691 169.218H177.597L177.592 168.041H169.687L169.691 169.218Z" fill="white"/>
</g>
<path d="M120.588 182.151C120.631 182.151 120.673 182.133 120.702 182.102C122.674 180.065 122.383 177.355 122.37 177.241C122.36 177.154 122.281 177.092 122.194 177.102C122.108 177.112 122.045 177.191 122.055 177.278C122.058 177.305 122.339 179.954 120.475 181.881C120.43 181.927 120.418 181.995 120.443 182.054C120.467 182.112 120.525 182.151 120.588 182.151Z" fill="#0B122D"/>
<path d="M142.69 172.942C142.723 172.942 142.754 172.932 142.781 172.914C147.313 169.76 147.327 162.896 147.327 162.827C147.328 162.785 147.312 162.744 147.281 162.714C147.251 162.684 147.21 162.668 147.168 162.669C147.08 162.67 147.01 162.741 147.01 162.829C147.01 162.896 146.994 169.596 142.6 172.653C142.543 172.692 142.518 172.764 142.539 172.831C142.56 172.897 142.621 172.942 142.69 172.942Z" fill="#0B122D"/>
<g style="mix-blend-mode:overlay" opacity="0.60001">
<path d="M184.255 158.577C182.898 157.094 180.346 154.105 176.604 153.206C174.163 152.593 171.782 151.763 169.489 150.725L170.512 148.675C170.512 148.675 173.277 149.862 177.944 152.345C183.196 155.14 183.776 158.027 184.255 158.577Z" fill="white"/>
</g>
<path fill-rule="evenodd" clip-rule="evenodd" d="M84.1102 139.848C83.8201 139.463 82.6679 139.348 82.6679 139.348C82.6679 139.348 83.5416 142.481 83.3284 145.22C83.1803 147.124 83.8181 148.251 84.4125 149.301C84.6738 149.763 84.9267 150.21 85.1008 150.701C85.671 152.311 86.9881 154.201 90.5899 154.712C92.2566 154.949 94.2839 156.746 96.2728 159.084C98.9564 158.602 100.42 157.201 101.197 156.003L98.9141 153.381C98.9141 153.381 98.6743 152.031 96.9578 150.43C95.6299 149.191 92.582 148.904 91.2697 148.838C90.8512 148.817 90.4446 148.692 90.0865 148.474L88.1045 147.265C87.8299 147.097 87.6542 146.806 87.6335 146.484C87.5367 145.351 87.5638 144.21 87.7144 143.083C87.9919 141.664 86.5761 141.386 86.5761 141.386L85.8226 147.214C85.8226 147.214 85.4482 142.743 85.4848 141.245C85.526 140.867 85.3952 140.49 85.1286 140.219C84.8621 139.948 84.4881 139.812 84.1102 139.848ZM228.838 151.321C227.525 151.387 224.477 151.674 223.15 152.913C221.433 154.514 221.193 155.864 221.193 155.864L218.783 158.632C219.863 160.246 221.406 161.717 223.281 162.233C225.443 159.576 227.696 157.454 229.518 157.195C233.119 156.684 234.436 154.794 235.007 153.184C235.181 152.693 235.434 152.246 235.695 151.784C236.289 150.734 236.927 149.607 236.779 147.703C236.566 144.964 237.439 141.831 237.439 141.831C237.439 141.831 236.287 141.946 235.997 142.331C235.619 142.295 235.245 142.431 234.979 142.702C234.712 142.973 234.581 143.35 234.623 143.728C234.659 145.226 234.285 149.697 234.285 149.697L233.531 143.869C233.531 143.869 232.115 144.147 232.393 145.566C232.544 146.693 232.571 147.834 232.474 148.967C232.453 149.289 232.277 149.58 232.003 149.748L230.021 150.957C229.663 151.175 229.256 151.3 228.838 151.321Z" fill="#F7B17D"/>
<path d="M83.9108 140.22C83.9114 140.177 83.9298 140.137 83.9615 140.108C83.9932 140.08 84.0353 140.066 84.0776 140.07C84.1196 140.072 84.1589 140.091 84.187 140.122C84.215 140.154 84.2295 140.195 84.2272 140.237C84.2247 140.287 83.9631 145.234 84.3058 146.377C84.3179 146.417 84.3135 146.461 84.2936 146.498C84.2737 146.535 84.2398 146.562 84.1996 146.574C84.1848 146.579 84.1695 146.581 84.1541 146.581C84.0841 146.581 84.0224 146.535 84.0024 146.468C83.6436 145.273 83.8996 140.426 83.9108 140.22Z" fill="#0B122D"/>
<path d="M85.8834 148.281C85.9659 148.252 86.0563 148.295 86.0858 148.378C86.0914 148.394 86.669 150.013 87.259 150.466C87.3286 150.519 87.3419 150.619 87.2887 150.688C87.2355 150.758 87.136 150.771 87.0665 150.718C86.4019 150.208 85.8115 148.554 85.7868 148.484C85.7578 148.401 85.8009 148.311 85.8834 148.281Z" fill="#0B122D"/>
<path d="M88.0437 147.55C88.0709 147.583 90.7797 150.774 94.2903 150.953C94.376 150.958 94.4426 151.03 94.4404 151.116C94.4382 151.202 94.3681 151.27 94.2822 151.271L94.2742 151.27C90.6231 151.084 87.9143 147.89 87.8006 147.755C87.7448 147.687 87.7538 147.587 87.8207 147.531C87.8876 147.475 87.9873 147.484 88.0436 147.55L88.0437 147.55Z" fill="#0B122D"/>
<path d="M235.881 142.72C235.878 142.678 235.893 142.637 235.921 142.605C235.949 142.574 235.988 142.555 236.03 142.553C236.072 142.549 236.114 142.563 236.146 142.592C236.177 142.62 236.196 142.66 236.197 142.703C236.208 142.909 236.464 147.756 236.105 148.951C236.089 149.006 236.045 149.048 235.99 149.061C235.934 149.074 235.876 149.057 235.837 149.015C235.799 148.973 235.785 148.914 235.802 148.86C236.145 147.717 235.883 142.77 235.881 142.72Z" fill="#0B122D"/>
<path d="M234.022 150.861C234.051 150.778 234.142 150.735 234.224 150.764C234.307 150.793 234.35 150.884 234.321 150.967C234.296 151.037 233.706 152.691 233.041 153.201C232.996 153.236 232.936 153.244 232.884 153.222C232.831 153.2 232.795 153.152 232.787 153.095C232.78 153.039 232.804 152.983 232.849 152.948C233.439 152.496 234.016 150.877 234.022 150.861Z" fill="#0B122D"/>
<path d="M225.818 153.436C229.328 153.257 232.037 150.066 232.064 150.034C232.12 149.967 232.22 149.958 232.287 150.014C232.354 150.071 232.363 150.17 232.307 150.238C232.194 150.374 229.485 153.567 225.834 153.753L225.826 153.754C225.74 153.754 225.67 153.685 225.667 153.599C225.665 153.513 225.732 153.441 225.818 153.436L225.818 153.436Z" fill="#0B122D"/>
<path fill-rule="evenodd" clip-rule="evenodd" d="M78.1634 233.41C78.7718 231.44 90.6392 226.203 92.5162 237.485C93.319 242.311 89.9821 260.297 88.4372 268.624C87.9725 271.128 87.67 272.759 87.691 272.895C88.9752 281.193 87.1422 291.828 85.4529 301.629C84.7394 305.769 84.0515 309.76 83.635 313.363C83.3552 315.783 83.0054 321.702 83.0328 322.587C83.0432 322.924 83.2389 323.525 83.4736 324.245C84.0622 326.05 84.8965 328.609 83.6726 329.667C81.0067 330.546 78.9606 332.96 77.0146 335.255C73.878 338.955 71.0018 342.348 66.2104 338.515C66.2104 338.056 66.0618 337.722 65.9383 337.445C65.7308 336.98 65.5941 336.673 66.3526 336.197C71.7976 332.777 72.7962 329.589 73.424 327.585C73.5539 327.17 73.6679 326.806 73.8022 326.501C75.0182 323.739 75.7992 317.176 75.7959 314.247C75.7827 302.406 73.9287 267.731 73.9287 267.731C73.9287 267.731 76.2433 239.628 78.1634 233.41ZM115.19 324.705C115.19 324.705 118.682 335.771 118.769 336.062C118.827 336.248 118.814 336.45 118.731 336.627C118.665 336.651 118.601 336.676 118.54 336.702C118.471 336.731 118.404 336.763 118.339 336.799C115.636 337.432 110.222 337.108 108.695 336.785C108.589 336.757 108.484 336.722 108.382 336.682C108.344 336.667 108.307 336.651 108.27 336.634C108.215 336.61 108.163 336.583 108.111 336.556C108.003 336.499 107.898 336.435 107.798 336.364L107.797 336.364C107.775 336.239 107.761 336.112 107.757 335.984C107.746 335.612 108.949 325.03 108.949 325.03C108.949 325.03 108.474 317.422 106.991 307.62C106.899 307.016 106.594 305.177 106.153 302.526C104.857 294.732 102.396 279.924 100.793 268.902C100.716 268.377 100.647 267.517 100.562 266.464C100.336 263.657 99.9996 259.474 99.1204 256.589C97.6649 251.813 96.8302 246.097 96.3993 242.351C96.4531 241 96.5127 239.542 96.5763 238.046C99.2671 236.691 110.969 231.263 115.124 237.146C115.125 238.163 115.087 239.702 115.042 241.544C114.929 246.144 114.769 252.631 115.053 257.591C115.13 258.948 115.299 260.421 115.482 262.015C115.798 264.774 116.155 267.896 116.155 271.414C116.155 282.063 115.699 289.41 115.334 295.287C115.125 298.65 114.946 301.53 114.9 304.272C114.614 321.138 115.19 324.705 115.19 324.705Z" fill="#F7B17D"/>
<path fill-rule="evenodd" clip-rule="evenodd" d="M76.3473 333.275C76.5598 333.004 76.7824 332.72 77.0182 332.423C79.5796 329.195 85.8892 327.578 85.9089 327.573L85.909 327.573C85.732 328.184 84.8032 341.817 84.8032 341.817H83.255V333.297C83.255 330.588 81.928 331.33 81.928 331.33C76.6392 333.663 75.3025 338.418 74.9648 340.633C74.8638 341.312 74.2744 341.816 73.5793 341.817H67.0698C66.4832 341.817 65.9595 341.454 65.7595 340.91L64.4561 337.36H70.2948C73.1467 337.36 74.2478 335.955 76.3473 333.275ZM107.138 338.486V336.369L119.421 336.369L119.407 338.486C119.407 340.282 118.752 341.738 117.943 341.738H108.602C107.793 341.738 107.138 340.282 107.138 338.486Z" fill="#727272"/>
<path fill-rule="evenodd" clip-rule="evenodd" d="M80.779 324.951C81.0444 323.728 82.9022 322.155 82.9022 322.155L83.7869 323.116C81.1771 325.607 81.5071 329.199 81.5071 329.199L79.0982 330.544L79.5848 326.481L73.0458 325.303C72.4949 328.481 70.4308 333.505 70.4308 333.505L70.4231 333.501C71.6957 334.231 72.928 335.027 74.1149 335.886C72.1395 338.738 64.4571 337.361 64.4571 337.361C63.8379 334.389 69.8093 333.21 69.8093 333.21C71.7555 330.85 72.5518 324.296 72.5518 324.296H73.171C73.1705 324.304 73.1697 324.313 73.1689 324.322C73.1682 324.33 73.1675 324.338 73.167 324.345L80.779 324.951ZM113.282 326.596L113.456 331.625C116.794 332.023 119.423 336.369 119.423 336.369C119.423 336.369 117.879 338.199 113.282 338.199C107.855 338.199 107.14 336.369 107.14 336.369C107.454 334.731 109.693 332.318 111.966 331.732C111.9 329.993 111.787 327.564 111.647 326.596C111.647 326.596 109.603 326.398 108.86 325.833C108.86 325.833 108.217 324.845 108.89 324.168C108.89 324.168 112.046 325.946 115.125 324.099C115.964 324.478 115.51 325.714 115.51 325.714C115.51 325.714 114.871 326.222 113.282 326.596Z" fill="#727272"/>
<path d="M116.771 243.544C117.706 238.597 118.996 230.565 117.858 223.135C116.412 213.693 113.736 211.401 112.082 202.429C102.087 198.158 88.7867 197.877 78.3671 203.181C74.7043 230.847 74.1042 236.85 74.0009 240.717C73.924 243.596 70.6908 297.344 68.3884 309.288C67.7939 312.372 85.8759 311.595 87.427 309.569C89.451 306.925 91.3237 277.251 92.625 265.026C93.9363 259.23 95.4072 243.486 95.4072 243.486C95.4072 243.486 95.8591 248.815 97.8405 260.85C100.68 278.097 103.906 310.3 103.906 310.3C104.4 310.571 115.505 311.138 117.306 309.358C119.979 306.717 115.298 251.343 116.771 243.544Z" fill="#727272"/>
<path d="M113.52 304.037C113.436 304.037 113.367 303.973 113.36 303.891C113.325 303.474 109.867 262.039 110.446 252.651C111.024 243.281 110.452 217.645 110.446 217.387C110.444 217.3 110.514 217.227 110.603 217.225H110.606C110.694 217.225 110.765 217.294 110.767 217.38C110.773 217.638 111.345 243.288 110.766 252.67C110.188 262.035 113.645 303.448 113.68 303.865C113.683 303.907 113.67 303.949 113.642 303.981C113.615 304.013 113.576 304.033 113.533 304.036C113.529 304.036 113.524 304.037 113.52 304.037Z" fill="#0B122D"/>
<path d="M103.379 305.367C103.294 305.367 103.224 305.301 103.219 305.218C103.214 305.134 103.276 305.061 103.36 305.051C103.498 305.035 117.16 303.434 118.088 303.298C118.145 303.289 118.202 303.311 118.238 303.356C118.274 303.4 118.283 303.46 118.261 303.513C118.24 303.565 118.192 303.603 118.135 303.611C117.203 303.748 103.536 305.35 103.398 305.366C103.392 305.367 103.385 305.367 103.379 305.367Z" fill="#0B122D"/>
<path d="M88.542 304.036H69.3137C69.2251 304.036 69.1533 303.965 69.1533 303.878C69.1533 303.79 69.2251 303.719 69.3137 303.719H88.542C88.6306 303.719 88.7024 303.79 88.7024 303.878C88.7024 303.965 88.6306 304.036 88.542 304.036Z" fill="#0B122D"/>
<path d="M82.142 303.613C82.1368 303.613 82.1315 303.612 82.126 303.612C82.0379 303.603 81.9736 303.526 81.9822 303.439C82.0247 303.014 86.252 260.781 88.5494 246.67C88.5556 246.629 88.5786 246.591 88.6132 246.566C88.6479 246.542 88.6912 246.532 88.7333 246.539C88.7753 246.546 88.8129 246.569 88.8378 246.603C88.8627 246.637 88.8729 246.679 88.8661 246.721C86.5703 260.822 82.3439 303.045 82.3015 303.47C82.2934 303.551 82.2245 303.613 82.142 303.613Z" fill="#0B122D"/>
<path d="M114.862 218.141C103.631 218.141 102.088 206.747 102.073 206.626C102.063 206.54 102.126 206.461 102.213 206.45C102.301 206.44 102.381 206.501 102.392 206.588C102.407 206.711 104.067 218.929 116.539 217.742C116.627 217.734 116.706 217.798 116.714 217.885C116.723 217.972 116.658 218.049 116.57 218.058C115.978 218.114 115.409 218.142 114.862 218.141Z" fill="#0B122D"/>
<path d="M115.301 213.619C112.782 213.619 110.785 212.853 109.366 211.342C106.697 208.5 107 204.079 107.014 203.892C107.017 203.85 107.037 203.811 107.069 203.784C107.101 203.756 107.144 203.743 107.186 203.746C107.274 203.753 107.341 203.829 107.334 203.916C107.331 203.961 107.029 208.389 109.602 211.128C110.958 212.571 112.876 213.302 115.301 213.302C115.39 213.302 115.462 213.373 115.462 213.461C115.462 213.548 115.39 213.619 115.301 213.619Z" fill="#0B122D"/>
<path d="M76.7855 214.316C76.7116 214.316 76.6473 214.266 76.6297 214.195C76.612 214.125 76.6456 214.051 76.711 214.017C76.7682 213.988 82.4356 210.995 82.1361 205.622C82.1321 205.536 82.1996 205.462 82.2875 205.457C82.3753 205.452 82.4506 205.518 82.4563 205.605C82.7674 211.183 76.9186 214.268 76.8595 214.298C76.8367 214.31 76.8113 214.316 76.7855 214.316Z" fill="#0B122D"/>
<g style="mix-blend-mode:overlay" opacity="0.6">
<path d="M74.0008 240.717C74.0008 240.717 77.0228 241.982 77.1651 246.197C77.3073 250.413 76.2767 274.581 75.5829 284.558C74.8891 294.534 69.79 298.747 69.79 298.747C72.3902 271.416 74.0008 240.717 74.0008 240.717Z" fill="white"/>
</g>
<g style="mix-blend-mode:overlay" opacity="0.6">
<path d="M96.9707 255.368C96.9707 255.368 100.068 257.438 101.063 262.356C102.059 267.274 106.847 293.27 105.52 297.485C104.193 301.7 102.991 301.552 102.991 301.552C100.979 279.548 96.9707 255.368 96.9707 255.368Z" fill="white"/>
</g>
<g style="mix-blend-mode:overlay" opacity="0.6">
<path d="M95.4068 243.486L90.7602 224.109C90.7602 224.109 86.8793 232.798 87.2994 239.541C87.7195 246.284 90.9271 251.712 93.3032 261.307L95.4068 243.486Z" fill="#030F1C"/>
</g>
<g style="mix-blend-mode:overlay" opacity="0.6">
<path d="M78.3679 203.181L77.7393 208.006C77.7393 208.006 90.604 215.264 114.482 211.523C114.482 211.523 112.412 205.408 112.083 202.428L78.3679 203.181Z" fill="#030F1C"/>
</g>
<path d="M104.196 131.068C103.446 127.28 102.246 124.46 97.3725 127.844C97.3725 127.844 97.3296 124.092 95.605 122.611C93.8805 121.129 82.9849 114.528 82.5681 125.377C82.5681 125.377 82.3682 134.092 82.3682 136.268C82.3682 138.444 85.5254 145.816 88.1498 145.816C88.9666 145.796 89.7743 145.64 90.5394 145.354C90.1773 148.437 89.2185 151.421 87.7162 154.14L103.837 151.001C103.837 151.001 100.945 146.512 100.439 137.692C102.704 135.664 104.708 133.654 104.196 131.068Z" fill="#F7B17D"/>
<path d="M108.782 127.466C107.271 121.064 105.119 111.877 92.1069 112.772C86.4178 113.163 83.1234 115.613 81.5183 118.378L81.5166 118.376C81.5166 118.376 78.674 121.439 80.2854 132.719C81.3618 140.254 80.1654 142.428 77.127 148.399C79.6368 151.388 84.6633 152.151 88.6652 152.234C89.6214 150.044 90.2529 147.726 90.5398 145.354C89.7747 145.64 88.9669 145.796 88.1502 145.816C85.5258 145.816 82.3686 138.444 82.3686 136.269C82.3686 134.255 82.5396 126.647 82.5652 125.522C83.3544 124.525 84.4677 123.024 84.931 121.941C84.931 121.941 85.9509 126.271 92.1069 127.877C95.381 128.731 95.7772 131.753 96.8469 131.483C97.2761 131.375 97.3663 128.321 100.065 127.877C102.764 127.433 105.341 131.411 103.611 133.84C102.681 135.187 101.604 136.427 100.4 137.537C100.4 137.537 100.945 145.653 103.425 150.256C103.425 150.256 112.82 150.256 119.157 141.305C113.419 138.788 109.715 131.418 108.782 127.466Z" fill="#352316"/>
<g style="mix-blend-mode:overlay" opacity="0.6">
<path d="M90.5397 145.354C90.5397 145.354 94.2117 143.752 96.8183 141.301C96.9035 143.922 95.9985 146.479 94.2829 148.466C92.9325 149.983 90.8185 150.424 89.335 150.524C89.9343 148.853 90.3385 147.118 90.5397 145.354Z" fill="#030F1C"/>
</g>
<path d="M111.428 143.911C111.407 143.911 111.387 143.907 111.367 143.899C109.692 143.206 108.368 141.424 107.537 138.745C107.154 137.489 106.901 136.198 106.782 134.891C106.776 134.804 106.842 134.728 106.929 134.722C107.017 134.716 107.093 134.782 107.099 134.869C107.104 134.94 107.64 142.014 111.489 143.605C111.559 143.634 111.599 143.709 111.585 143.783C111.57 143.857 111.504 143.911 111.428 143.911Z" fill="white"/>
<path d="M95.605 122.77C95.5384 122.77 95.4789 122.728 95.4558 122.666C94.2952 119.539 89.894 118.092 89.8497 118.078C89.7955 118.061 89.7548 118.016 89.7428 117.96C89.7309 117.905 89.7495 117.847 89.7916 117.809C89.8338 117.771 89.8932 117.758 89.9473 117.776C90.1342 117.836 94.5395 119.283 95.7542 122.556C95.7723 122.604 95.7654 122.659 95.7356 122.701C95.7059 122.744 95.6571 122.77 95.605 122.77Z" fill="white"/>
<path d="M88.6449 126.657C88.8608 126.415 89.1576 126.226 90.0482 126.28C90.9387 126.334 92.288 127.168 91.9912 127.384C91.6944 127.599 90.8038 126.872 90.1022 127.115C89.4005 127.357 88.9977 127.556 88.7618 127.424C88.465 127.258 88.5411 126.773 88.6449 126.657Z" fill="#161B36"/>
<path d="M84.7847 126.41C84.502 126.25 84.1601 126.167 83.3346 126.505C82.5092 126.843 81.5023 128.067 81.8529 128.176C82.2036 128.284 82.8112 127.309 83.5537 127.312C84.2961 127.316 84.7419 127.374 84.9224 127.174C85.1496 126.921 84.9207 126.487 84.7847 126.41Z" fill="#161B36"/>
<g style="mix-blend-mode:overlay" opacity="0.6">
<path d="M86.3218 137.319C85.9624 137.324 85.608 137.234 85.2957 137.056C85.0717 136.937 84.9125 136.725 84.8612 136.477C84.7866 136.01 85.2066 135.094 85.6434 134.197C85.7142 134.052 85.7718 133.933 85.8054 133.856C86.37 132.563 86.1132 130.101 86.1106 130.076C86.1045 130.02 86.1291 129.965 86.175 129.931C86.221 129.898 86.2813 129.891 86.3333 129.914C86.3853 129.937 86.421 129.986 86.4271 130.043C86.4383 130.147 86.6952 132.613 86.0973 133.983C86.0625 134.062 86.003 134.185 85.9298 134.335C85.6638 134.882 85.1104 136.019 85.1755 136.427C85.2159 136.582 85.3201 136.712 85.4623 136.786C85.8849 137.013 86.3811 137.063 86.8409 136.925C86.895 136.908 86.9543 136.92 86.9965 136.958C87.0386 136.997 87.0571 137.054 87.0451 137.11C87.0331 137.165 86.9923 137.21 86.9382 137.227C86.7387 137.289 86.5308 137.32 86.3218 137.319Z" fill="#030F1C"/>
</g>
<path d="M85.7089 140.442C85.6814 140.346 85.6932 140.244 85.7419 140.157C85.7905 140.07 85.8718 140.006 85.9679 139.979C86.4454 139.841 87.3257 139.582 87.9963 139.354C88.6954 139.078 89.3753 138.755 90.0314 138.388C90.1458 138.326 90.2841 138.328 90.3974 138.392C90.5107 138.456 90.583 138.573 90.5887 138.703C90.6342 139.7 90.514 141.646 88.9429 142.043C87.0321 142.526 86.0318 141.494 85.7089 140.442Z" fill="#161B36"/>
<path d="M86.54 141.684C86.54 141.684 88.1842 139.393 90.5328 139.917C90.5328 139.917 90.5364 141.706 89.0223 142.109C87.3921 142.543 86.54 141.684 86.54 141.684Z" fill="#E55151"/>
<path d="M90.8284 129.757C90.5231 129.689 90.2118 129.652 89.8992 129.645C89.5638 129.645 89.292 130.091 89.292 130.641C89.292 131.192 89.5638 131.638 89.8992 131.638C90.2345 131.638 90.5064 131.192 90.5064 130.641C90.5108 130.4 90.4517 130.162 90.335 129.95C90.5788 129.958 90.8208 129.995 91.056 130.059C91.2837 130.125 91.2994 129.867 90.8284 129.757Z" fill="#161B36"/>
<path d="M84.7594 130.171C84.4774 130.108 84.1902 130.072 83.9014 130.061C83.8977 130.061 83.8942 130.059 83.8904 130.059C83.8878 130.059 83.8854 130.061 83.8827 130.061C83.8517 130.06 83.8302 130.059 83.8302 130.059L83.8274 130.07C83.522 130.122 83.2832 130.541 83.2832 131.055C83.2832 131.606 83.5551 132.052 83.8904 132.052C84.2257 132.052 84.4976 131.606 84.4976 131.055C84.5019 130.815 84.4433 130.578 84.3276 130.367C84.5506 130.378 84.7717 130.414 84.987 130.473C85.2147 130.539 85.2304 130.281 84.7594 130.171Z" fill="#161B36"/>
<path d="M102.001 130.231C101.233 129.972 100.492 130.668 99.9311 131.454L99.9295 131.456C99.5432 132.013 99.2125 132.606 98.9421 133.228C98.9201 133.28 98.9277 133.34 98.9621 133.385C98.9964 133.431 99.0524 133.454 99.1088 133.447C99.1652 133.44 99.2136 133.403 99.2356 133.351C99.4877 132.767 99.7963 132.208 100.157 131.684C100.486 131.627 100.824 131.689 101.111 131.858C101.397 132.07 101.579 132.392 101.613 132.745C101.625 132.822 101.692 132.878 101.769 132.878C101.778 132.878 101.787 132.877 101.795 132.876C101.837 132.869 101.874 132.846 101.899 132.812C101.923 132.777 101.933 132.735 101.927 132.693C101.88 132.252 101.647 131.852 101.286 131.593C101.024 131.427 100.72 131.342 100.41 131.349C100.874 130.774 101.404 130.364 101.898 130.532C101.952 130.551 102.012 130.539 102.055 130.502C102.098 130.464 102.117 130.407 102.106 130.351C102.095 130.295 102.055 130.249 102.001 130.231L102.001 130.231Z" fill="#0B122D"/>
<path d="M90.2784 145.604C90.2032 145.604 90.1382 145.552 90.1226 145.479C90.107 145.405 90.145 145.331 90.2138 145.3C90.2674 145.277 95.6013 142.896 97.8529 140.018C97.8878 139.973 97.9441 139.95 98.0005 139.958C98.057 139.966 98.1049 140.003 98.1262 140.056C98.1475 140.109 98.139 140.169 98.1038 140.214C95.8029 143.155 90.5646 145.493 90.3428 145.591C90.3225 145.6 90.3006 145.604 90.2784 145.604Z" fill="#0B122D"/>
<path fill-rule="evenodd" clip-rule="evenodd" d="M86.5625 167.428C86.6318 166.713 86.6923 166.089 86.7386 165.595C87.335 160.234 87.9859 155.545 88.336 153.126C88.6618 156.583 94.4258 158.145 103.074 150.317C103.053 150.449 103.03 150.583 103.008 150.717C103.002 150.755 102.996 150.793 102.989 150.83C102.889 151.421 102.699 152.501 102.412 153.948C100.979 161.038 98.7498 168.477 98.4968 169.314C98.0867 170.61 97.6484 171.925 97.1777 173.245C96.0922 176.287 93.9636 182.511 90.5913 192.632C88.6006 187.311 87.171 185.026 86.3472 183.71C85.8511 182.917 85.5746 182.475 85.5274 181.932C85.3523 179.917 86.1296 171.896 86.5625 167.428ZM111.401 152.51C110.123 152.036 107.014 151.258 104.978 150.767L104.978 150.767C107.015 151.258 110.124 152.036 111.403 152.509C111.438 152.525 111.469 152.551 111.492 152.583C111.468 152.551 111.437 152.526 111.401 152.51ZM77.3981 183.957L77.3982 183.957C77.3999 183.962 77.4016 183.967 77.4033 183.971L77.3717 183.892L77.3911 183.938C77.3935 183.943 77.3958 183.95 77.3981 183.957ZM75.6755 175.858L75.6774 175.836L75.6764 175.846L75.6752 175.857C75.6733 175.878 75.672 175.899 75.6707 175.919C75.6696 175.937 75.6686 175.955 75.667 175.973C75.6686 175.955 75.6697 175.937 75.6709 175.92L75.6709 175.92C75.6722 175.9 75.6735 175.879 75.6755 175.858Z" fill="white"/>
<g style="mix-blend-mode:overlay" opacity="0.6">
<path d="M85.1924 184.762C85.1924 184.762 91.3994 185.474 97.4275 174.673C97.4275 174.673 97.2155 176.151 95.9568 179.578C94.6982 183.004 92.2239 188.502 90.6253 192.811C90.6253 192.811 86.0499 188.613 85.1924 184.762Z" fill="#030F1C"/>
</g>
<path fill-rule="evenodd" clip-rule="evenodd" d="M121.314 166.813C122.575 170.219 124.156 174.488 126.316 179.875C128.514 185.355 127.977 189.844 121.34 191.176L121.226 191.199C119.252 191.595 115.105 192.426 110.679 193.153C110.778 193.716 110.874 194.258 110.966 194.779C111.757 199.242 112.286 202.227 111.995 204.042C107.625 209.19 81.0367 209.56 77.4138 205.279C77.0553 204.318 77.1866 203.438 77.3942 202.047C77.5525 200.986 77.7552 199.628 77.8193 197.71C78.0577 190.576 77.8078 184.929 77.3913 183.938C77.2669 183.642 77.1457 183.36 77.0288 183.088C76.0473 180.805 75.3675 179.224 75.6749 175.858C75.9594 171.933 76.4796 168.029 77.2329 164.167C76.6932 164.092 76.1455 164.015 75.5808 163.93C70.0621 163.108 64.6076 161.903 59.2574 160.323C57.4268 159.775 55.5784 159.168 53.7312 158.492C53.0238 158.244 52.3462 157.919 51.711 157.522C47.6783 154.911 49.8898 150.224 58.0062 139.895C58.7672 138.927 61.6523 135.375 63.435 133.18C64.0045 132.479 64.4614 131.916 64.7007 131.621C68.5926 131.985 71.1397 135.642 71.1397 135.642L62.8858 150.153C62.7555 150.382 62.7529 150.662 62.879 150.893C63.0051 151.124 63.242 151.275 63.5056 151.29C64.9324 151.371 85.6082 151.388 87.4845 151.39C87.7874 150.985 88.2923 150.474 88.9127 150.474L88.5939 151.386C88.5939 151.386 87.6083 157.778 86.7386 165.595C86.6923 166.089 86.6318 166.713 86.5625 167.428C86.1296 171.896 85.3523 179.917 85.5274 181.932C85.5746 182.475 85.8511 182.917 86.3472 183.71C87.171 185.026 88.6006 187.31 90.5913 192.632C93.9636 182.511 96.0922 176.287 97.1777 173.245C97.6484 171.925 98.0867 170.61 98.4968 169.314C98.7498 168.477 100.979 161.038 102.412 153.948C102.699 152.501 102.889 151.421 102.989 150.83C102.996 150.793 103.002 150.755 103.008 150.717C103.03 150.583 103.053 150.449 103.074 150.317L102.799 149.754C102.802 149.761 102.842 149.761 102.909 149.761C103.274 149.762 104.446 149.765 104.978 150.767C107.015 151.258 110.123 152.036 111.401 152.51C111.476 152.552 111.535 152.617 111.568 152.696C116.624 154.149 117.52 156.568 121.314 166.813ZM110.329 184.888C112.214 184.21 114.596 183.328 115.849 182.861C116.073 182.778 116.251 182.607 116.343 182.388C116.435 182.169 116.432 181.921 116.334 181.705C115.621 180.119 113.999 176.52 112.404 173.033C112.241 175.092 111.93 177.137 111.471 179.151C110.959 181.035 110.578 182.952 110.329 184.888Z" fill="#EDA1A1"/>
<g style="mix-blend-mode:overlay" opacity="0.6">
<path d="M78.4922 158.589C76.4632 159.271 73.4993 160.213 71.6668 160.545C68.6688 161.089 66.2947 158.82 62.5182 158.847C60.562 158.861 59.2578 160.323 59.2578 160.323C64.6081 161.903 70.0625 163.108 75.5812 163.929C76.1459 164.015 76.6936 164.092 77.2333 164.167C77.5681 162.465 77.9802 160.606 78.4922 158.589Z" fill="#030F1C"/>
</g>
<path d="M60.2133 151.781C59.5182 151.785 58.8311 151.635 58.2016 151.341C58.1382 151.311 58.1112 151.235 58.1411 151.172C58.171 151.108 58.2466 151.081 58.3102 151.111C60.26 152.026 62.1999 151.125 62.2196 151.116C62.2607 151.096 62.3092 151.1 62.3468 151.126C62.3843 151.151 62.4053 151.195 62.4018 151.241C62.3982 151.286 62.3707 151.326 62.3296 151.346C61.6616 151.634 60.9412 151.783 60.2133 151.781Z" fill="#0B122D"/>
<g style="mix-blend-mode:overlay" opacity="0.6">
<path d="M58.598 142.914C57.8676 144.371 51.3396 152.423 52.2212 155.128C52.8924 157.189 55.3947 156.977 55.1708 159.005C53.9624 158.65 52.8009 158.152 51.711 157.522C47.6783 154.911 49.8898 150.224 58.0062 139.895C58.3582 140.165 59.1082 141.896 58.598 142.914Z" fill="white"/>
</g>
<g style="mix-blend-mode:overlay" opacity="0.6">
<path d="M76.501 182.104C76.501 182.104 79.2018 184.588 81.9816 184.64C83.8802 184.675 84.2843 185.702 82.3265 186.122C81.4177 186.317 79.7295 186.16 77.9337 186.111C77.5717 184.737 77.0924 183.396 76.501 182.104L76.501 182.104Z" fill="#030F1C"/>
</g>
<path d="M81.9741 199.289C81.968 199.289 81.9619 199.288 81.9559 199.288C78.9748 198.947 77.3931 196.279 77.3272 196.166C77.2831 196.09 77.309 195.993 77.3851 195.949C77.4611 195.905 77.5585 195.931 77.6026 196.006C77.618 196.033 79.1728 198.65 81.992 198.972C82.0758 198.982 82.1375 199.055 82.1328 199.139C82.128 199.223 82.0584 199.289 81.9741 199.289Z" fill="#0B122D"/>
<g style="mix-blend-mode:overlay" opacity="0.6">
<path d="M104.053 184.815C104.916 184.795 105.686 185.337 106.337 186.216C106.951 186.034 107.606 185.83 108.284 185.605C108.789 185.437 109.529 185.176 110.364 184.876C110.733 182.011 111.91 178.386 112.508 173.259C111.6 171.272 110.696 169.311 109.965 167.759C110.169 169.919 110.375 174.122 109.363 177.432C108.393 180.608 104.595 182.228 102.029 182.667C98.1079 183.338 98.6144 184.944 104.053 184.815Z" fill="#030F1C"/>
</g>
<g style="mix-blend-mode:overlay" opacity="0.6">
<path d="M108.563 193.488C108.659 194.645 108.568 195.81 108.292 196.938C106.94 201.693 102 205.022 99.1381 205.702C96.2757 206.382 93.6143 208.222 93.6143 208.222C93.6143 208.222 108.332 208.113 111.995 204.042C112.255 200.394 111.236 197.065 110.619 193.163C109.938 193.274 109.25 193.384 108.563 193.488Z" fill="#030F1C"/>
</g>
<g style="mix-blend-mode:overlay" opacity="0.6">
<path d="M76.5283 181.932C76.5283 181.932 78.5984 183.085 82.1456 183.327C85.6927 183.57 82.3801 184.671 80.6603 184.757C78.9406 184.843 78.2923 184.85 77.6901 184.743C77.3323 183.767 76.5283 181.932 76.5283 181.932Z" fill="#030F1C"/>
</g>
<g style="mix-blend-mode:overlay" opacity="0.6">
<path d="M102.798 149.754C102.818 149.795 104.354 149.577 104.982 150.774C105.611 151.971 108.789 160.914 108.39 162.921C107.99 164.927 99.5684 165.595 99.5684 165.595C99.5684 165.595 101.531 158.923 103.073 150.317L102.798 149.754Z" fill="#030F1C"/>
</g>
<g style="mix-blend-mode:overlay" opacity="0.6">
<path d="M88.9137 150.474L88.5949 151.386C88.5949 151.386 87.6093 157.778 86.7397 165.595C86.7397 165.595 80.8398 165.825 80.9628 162.789C81.0456 160.745 87.1734 151.877 87.1734 151.877C87.1734 151.877 87.8874 150.474 88.9137 150.474Z" fill="#030F1C"/>
</g>
<g style="mix-blend-mode:overlay" opacity="0.6">
<path d="M90.5908 192.632L91.1613 205.961C91.1613 205.961 91.8096 196.246 91.82 194.395C91.8305 192.544 91.8688 188.805 91.8688 188.805L90.5908 192.632Z" fill="#030F1C"/>
</g>
<path d="M106.648 193.93C106.58 193.932 106.522 193.88 106.515 193.812C106.509 193.745 106.557 193.684 106.624 193.673L115.069 192.362C115.139 192.351 115.205 192.4 115.216 192.47C115.227 192.54 115.179 192.606 115.108 192.617L106.664 193.928C106.659 193.929 106.653 193.929 106.648 193.93Z" fill="#0B122D"/>
<g style="mix-blend-mode:overlay" opacity="0.6">
<path d="M118.694 184.1C115.693 185.297 106.996 189.117 105.566 186.423C110.092 185.156 115.85 182.861 115.85 182.861C116.069 182.79 116.247 182.63 116.339 182.42C116.431 182.21 116.429 181.97 116.332 181.762C115.663 180.394 114.539 177.578 112.527 173.353C113.208 173.082 114.623 173.351 115.068 174.171C115.584 175.127 118.177 180.223 119.277 182.278C119.523 182.739 119.488 183.783 118.694 184.1Z" fill="white"/>
</g>
<path d="M119.193 184.787C119.13 184.787 119.076 184.741 119.066 184.679C119.052 184.594 118.692 182.603 116.328 182.535C116.282 182.534 116.24 182.508 116.218 182.468C116.196 182.427 116.197 182.378 116.221 182.339C116.246 182.299 116.289 182.276 116.335 182.277C117.769 182.246 119.023 183.237 119.321 184.637C119.333 184.707 119.285 184.773 119.215 184.785C119.208 184.786 119.201 184.787 119.193 184.787Z" fill="#0B122D"/>
<path d="M112.217 171.315C112.191 171.315 112.165 171.307 112.143 171.292C108.444 168.729 108.432 163.151 108.433 163.095C108.433 163.024 108.491 162.967 108.562 162.967H108.563C108.597 162.967 108.63 162.981 108.654 163.005C108.678 163.03 108.692 163.063 108.691 163.097C108.691 163.152 108.704 168.595 112.291 171.08C112.337 171.112 112.357 171.17 112.341 171.224C112.324 171.278 112.274 171.315 112.217 171.315L112.217 171.315Z" fill="#0B122D"/>
<path d="M98.5397 199.436L87.6983 181.081L84.7334 176.061C84.4979 175.661 84.0679 175.416 83.6033 175.417H66.0341C65.5141 175.476 65.0522 175.775 64.786 176.225C64.7281 176.306 64.6753 176.391 64.6277 176.479C64.5536 176.611 64.4933 176.75 64.4476 176.894C64.4476 176.897 64.4445 176.897 64.4445 176.9C64.3027 177.24 64.314 177.625 64.4756 177.956L64.4569 177.919C64.4649 177.941 64.4743 177.963 64.4849 177.984L64.4942 177.997C64.4973 178 64.4973 178.003 64.5004 178.006C64.5085 178.025 64.5178 178.044 64.5284 178.062L74.1869 194.415L75.9379 197.376L78.3347 201.437C78.5702 201.836 79.0002 202.082 79.4648 202.081H97.034C97.0984 202.081 97.1628 202.076 97.2265 202.066C98.2417 202.063 99.0551 200.31 98.5397 199.436Z" fill="#B5B4B4"/>
<g style="mix-blend-mode:overlay" opacity="0.6">
<path d="M64.3862 177.725C64.375 177.68 64.3662 177.635 64.3599 177.589C64.3658 177.635 64.3746 177.68 64.3862 177.725Z" fill="#030F1C"/>
<path d="M64.4553 177.919C64.4656 177.94 64.4726 177.963 64.4845 177.983L64.4998 178.007C64.4841 177.978 64.4684 177.949 64.4553 177.919Z" fill="#030F1C"/>
<path d="M64.4412 177.886C64.4197 177.834 64.4015 177.781 64.3869 177.726C64.4003 177.781 64.4185 177.835 64.4412 177.886Z" fill="#030F1C"/>
<path d="M97.2261 202.066C97.6576 202.002 98.0292 201.729 98.2172 201.336C98.4053 200.943 98.3852 200.483 98.1637 200.108L87.1112 181.397L84.3573 176.733C84.1218 176.333 83.6918 176.088 83.2272 176.089H65.6581C65.1277 176.086 64.6487 176.404 64.4473 176.894C64.4929 176.75 64.5533 176.611 64.6273 176.479C64.6742 176.391 64.7271 176.306 64.7857 176.225C65.0518 175.775 65.5138 175.476 66.0337 175.417H83.6029C84.0675 175.416 84.4975 175.661 84.733 176.061L87.6979 181.081L98.5394 199.436C99.0547 200.31 98.2413 202.063 97.2261 202.066Z" fill="#030F1C"/>
</g>
<g style="mix-blend-mode:overlay" opacity="0.6">
<path d="M65.4977 177.292H66.7136C66.7929 177.292 66.8663 177.334 66.9064 177.403L67.2035 177.91C67.2439 177.979 67.2442 178.064 67.2044 178.133C67.1646 178.202 67.0907 178.245 67.0107 178.245H65.7948C65.7155 178.245 65.6421 178.203 65.6021 178.135L65.3049 177.628C65.2646 177.559 65.2642 177.474 65.304 177.404C65.3438 177.335 65.4177 177.292 65.4977 177.292V177.292Z" fill="#030F1C"/>
</g>
<g style="mix-blend-mode:overlay" opacity="0.6">
<path d="M77.484 185.63H79.0788C79.5484 185.649 79.9874 185.867 80.2848 186.23C80.97 187.038 80.6525 188.053 79.7149 188.053H78.12C77.6505 188.034 77.2114 187.816 76.914 187.453C76.2289 186.645 76.5463 185.63 77.484 185.63Z" fill="#030F1C"/>
</g>
<path fill-rule="evenodd" clip-rule="evenodd" d="M82.738 125.146C82.9855 124.519 82.9072 123.811 82.5288 123.254C82.5288 123.254 82.6482 123.144 82.8272 122.982C83.2595 122.591 84.6168 120.962 84.0204 120.186C83.4897 119.496 82.9038 119.896 82.4381 120.257C82.6058 120.07 83.1594 119.19 82.2759 118.149C81.6564 117.415 80.411 118.5 80.411 118.5C80.411 118.5 80.5263 117.123 79.7181 116.75C78.8334 116.345 77.8933 117.29 77.8321 117.358C77.8415 117.28 77.9884 115.981 76.8057 115.885C76.3351 115.848 75.2953 116.704 74.1855 118.047C74.0485 118.214 73.9107 118.388 73.772 118.568C73.7413 118.609 73.7113 118.648 73.6788 118.69L73.6786 118.692C73.4289 119.022 73.1798 119.374 72.9358 119.743L72.9368 119.745C72.782 119.979 72.631 120.203 72.485 120.421C71.506 121.876 70.747 123.004 70.529 124.604H70.5305C70.386 125.33 69.8682 126.135 69.5093 126.694C69.4654 126.762 69.424 126.826 69.3858 126.887L69.3858 126.886L65.2617 131.699C67.9216 132.174 69.8779 134.125 70.7043 135.093L73.9218 129.566C74.3339 129.18 74.833 128.898 75.3771 128.744C76.8995 128.325 78.3867 127.788 79.8253 127.138C79.8253 127.138 82.3007 126.152 82.738 125.146ZM103.074 150.317L88.5942 151.386C88.3695 152.112 88.2583 152.868 88.2643 153.627C88.2895 153.451 88.3137 153.284 88.3364 153.126C88.6622 156.583 94.4262 158.145 103.074 150.317ZM95.9787 189.318C96.0627 189.308 98.5536 188.678 101.443 187.942C101.311 189.047 101.276 191.514 103.169 193.353L97.8347 194.374C97.8328 194.377 97.8311 194.381 97.8294 194.385C97.8276 194.39 97.8257 194.394 97.8236 194.398C96.8433 194.608 95.7271 194.922 95.0417 195.354C93.9344 196.051 91.1659 196.318 90.168 196.12C88.5212 196.34 86.2396 196.617 85.8134 196.522C85.1329 196.371 85.3036 195.726 85.6627 195.486C85.8172 195.383 85.1252 195.256 84.5572 195.151C84.3705 195.117 84.1973 195.085 84.0718 195.057C83.3109 194.889 83.5016 194.167 83.9029 193.899C84.1624 193.726 83.2239 193.513 82.635 193.383C81.874 193.214 82.0648 192.492 82.466 192.225C82.5555 192.165 82.7314 192.085 82.9218 191.997C83.3821 191.787 83.9266 191.537 83.5362 191.451C82.7756 191.283 82.9666 190.561 83.3677 190.293C83.6806 190.084 86.9004 189.712 88.2994 189.558C88.4014 189.544 88.5075 189.53 88.6147 189.516C89.2367 189.435 89.8971 189.349 90.0287 189.158C90.152 188.979 89.8187 188.528 89.3862 187.944C89.1877 187.676 88.9683 187.379 88.7626 187.068C88.108 186.078 89.0028 184.689 89.3086 184.783C89.4479 184.825 90.0008 185.522 90.6287 186.313C91.3792 187.259 92.2368 188.34 92.6234 188.6C93.1328 188.944 93.7949 189.098 94.3165 189.221C94.5216 189.268 94.705 189.311 94.8488 189.359C95.2257 189.406 95.6075 189.4 95.9826 189.34L95.9787 189.318Z" fill="#F7B17D"/>
<path d="M76.2739 119.348C76.3118 119.348 76.3478 119.331 76.372 119.302L77.6123 117.814C77.6569 117.76 77.6494 117.68 77.5954 117.635C77.5415 117.59 77.4614 117.597 77.4162 117.651L76.176 119.139C76.1444 119.177 76.1376 119.23 76.1585 119.274C76.1795 119.319 76.2244 119.347 76.2739 119.348Z" fill="#030F1C"/>
<path d="M78.8479 123.012C78.4034 123.116 78.1085 123.08 77.9704 122.907C77.7085 122.577 78.0102 121.78 78.1486 121.501C78.1735 121.451 78.1625 121.39 78.1216 121.352C78.0807 121.313 78.0194 121.306 77.9707 121.334C77.3438 121.693 76.8705 121.771 76.5641 121.566C75.9429 121.15 76.1281 119.708 76.1301 119.693C76.1362 119.648 76.117 119.602 76.0798 119.574C76.0426 119.547 75.9933 119.542 75.9511 119.561C75.456 119.784 75.0751 119.813 74.8193 119.645C74.4297 119.391 74.4337 118.75 74.4338 118.743C74.4348 118.673 74.3786 118.615 74.3082 118.614C74.2741 118.613 74.2408 118.625 74.2163 118.649C74.1918 118.673 74.1782 118.705 74.1788 118.739C74.1783 118.771 74.1717 119.525 74.6785 119.858C75.0451 120.054 75.4849 120.061 75.8571 119.875C75.8268 120.331 75.8278 121.379 76.4216 121.777C76.7555 122.001 77.211 121.981 77.7792 121.72C77.6395 122.101 77.4883 122.709 77.7705 123.065C77.9326 123.248 78.172 123.344 78.416 123.323C78.5812 123.321 78.7456 123.299 78.906 123.26C78.9507 123.25 78.9867 123.217 79.0001 123.173C79.0135 123.129 79.0024 123.082 78.9709 123.048C78.9394 123.015 78.8925 123.001 78.8479 123.012L78.8479 123.012Z" fill="#030F1C"/>
<path d="M82.5301 123.018C82.458 122.901 80.9376 120.447 79.5607 119.996L80.3362 118.998C80.3793 118.942 80.3691 118.862 80.3135 118.819C80.2578 118.776 80.1778 118.786 80.1346 118.842L79.2866 119.933C79.2036 119.922 79.1196 119.921 79.0363 119.929C78.8263 119.944 78.639 120.066 78.5413 120.252C78.0416 121.194 79.4824 123.948 79.6483 124.259C79.6705 124.301 79.7138 124.327 79.761 124.327C79.8058 124.327 79.8472 124.303 79.8702 124.265C79.8933 124.227 79.8945 124.179 79.8735 124.14C79.4403 123.328 78.3971 121.068 78.7667 120.371C78.8242 120.259 78.9378 120.187 79.0638 120.182C80.3814 120.037 82.2934 123.12 82.3126 123.151C82.3497 123.21 82.4277 123.228 82.4873 123.192C82.5469 123.156 82.566 123.078 82.5301 123.018L82.5301 123.018Z" fill="#030F1C"/>
<path d="M88.5441 191.119C88.5413 191.088 88.5264 191.06 88.5027 191.04C88.479 191.021 88.4484 191.012 88.4179 191.015L83.3468 191.504C83.2845 191.51 83.2383 191.564 83.2424 191.626C83.2466 191.688 83.2997 191.736 83.3622 191.734L83.369 191.733L88.4401 191.244C88.4706 191.242 88.4988 191.227 88.5183 191.203C88.5378 191.179 88.5471 191.149 88.5441 191.119Z" fill="#0B122D"/>
<path d="M88.8603 193.246C88.8518 193.183 88.7943 193.138 88.731 193.146L83.5797 193.797C83.5183 193.804 83.4739 193.859 83.4789 193.921C83.484 193.982 83.5367 194.029 83.5985 194.026L83.6087 194.026L88.76 193.375C88.7904 193.371 88.8181 193.355 88.8369 193.331C88.8557 193.307 88.8641 193.276 88.8603 193.246Z" fill="#0B122D"/>
<path d="M89.6701 194.935L85.3421 195.383C85.28 195.39 85.2342 195.444 85.2386 195.506C85.243 195.568 85.296 195.616 85.3583 195.613L85.3659 195.613L89.6939 195.165C89.7575 195.158 89.8037 195.102 89.7971 195.038C89.7898 194.975 89.7335 194.93 89.6701 194.935Z" fill="#0B122D"/>
</svg>
