<svg width="59" height="46" viewBox="0 0 59 46" fill="none" xmlns="http://www.w3.org/2000/svg">
<path d="M55.1785 45.3988H14.0184C12.3384 45.3988 10.8984 43.9679 10.8984 42.2985V19.8815C10.8984 18.2121 12.3384 16.7812 14.0184 16.7812H55.1785C56.8585 16.7812 58.2985 18.2121 58.2985 19.8815V42.2985C58.2985 43.9679 56.8585 45.3988 55.1785 45.3988Z" fill="#DCDCDC"/>
<path d="M23.1402 28.1273H17.3802C17.0202 28.1273 16.6602 27.7696 16.6602 27.4119V23.7154C16.6602 23.3577 17.0202 23 17.3802 23H23.1402C23.5002 23 23.8602 23.3577 23.8602 23.7154V27.4119C23.8602 27.8888 23.5002 28.1273 23.1402 28.1273Z" fill="white"/>
<path d="M43.1781 36.7127C43.1781 35.0434 44.1381 33.4933 45.4581 32.7778C44.7381 32.4201 44.0181 32.1816 43.1781 32.1816C40.6581 32.1816 38.498 34.2087 38.498 36.832C38.498 39.4553 40.5381 41.4823 43.1781 41.4823C44.0181 41.4823 44.8581 41.2439 45.4581 40.8861C44.1381 39.9322 43.1781 38.5013 43.1781 36.7127Z" fill="white"/>
<path d="M47.8581 32.1816C47.0181 32.1816 46.1781 32.4201 45.5781 32.7778C47.0181 33.6125 47.8581 35.0434 47.8581 36.7127C47.8581 38.3821 46.8981 39.9322 45.5781 40.6477C46.2981 41.0054 47.0181 41.2439 47.8581 41.2439C50.3781 41.2439 52.5381 39.2168 52.5381 36.5935C52.5381 33.9702 50.3781 32.1816 47.8581 32.1816Z" fill="#C4C4C4"/>
<path d="M47.8588 36.7132C47.8588 35.0439 46.8988 33.4938 45.5788 32.7783C44.1388 33.613 43.2988 35.0439 43.2988 36.7132C43.2988 38.3826 44.2588 39.9327 45.5788 40.6481C46.8988 39.9327 47.8588 38.5018 47.8588 36.7132Z" fill="#DCDCDC"/>
<path d="M44.9793 29.2171H3.81923C2.13922 29.2171 0.699219 27.7862 0.699219 26.1169V3.69984C0.699219 2.03048 2.13922 0.599609 3.81923 0.599609H44.9793C46.6593 0.599609 48.0993 2.03048 48.0993 3.69984V26.1169C48.0993 27.7862 46.6593 29.2171 44.9793 29.2171Z" fill="#EE0033"/>
<path d="M48.0993 7.75293H0.699219V14.9073H48.0993V7.75293Z" fill="#92001F"/>
</svg>
