<svg width="529" height="53" viewBox="0 0 529 53" fill="none" xmlns="http://www.w3.org/2000/svg">
<path d="M48.0625 0.187502L30.75 52H18.625L1.3125 0.187502H11.8125L24.9375 44.1875L38.0625 0.187502H48.0625ZM48.0262 24.125C48.0262 21.9167 48.6304 19.9375 49.8387 18.1875C51.0887 16.4375 52.8179 15.0833 55.0262 14.125C57.2345 13.1667 59.7345 12.6875 62.5262 12.6875C66.4429 12.6875 69.6929 13.4375 72.2762 14.9375C74.8595 16.3958 76.5679 18.4583 77.4012 21.125L70.5262 24.3125C69.4845 21.1458 66.9429 19.5625 62.9012 19.5625C61.0679 19.5625 59.6095 19.9375 58.5262 20.6875C57.4845 21.3958 56.9637 22.4375 56.9637 23.8125C56.9637 25.1458 57.5262 26.1667 58.6512 26.875C59.8179 27.5833 61.8595 28.1458 64.7762 28.5625C69.3595 29.1875 72.7345 30.4792 74.9012 32.4375C77.1095 34.3958 78.2137 37.1042 78.2137 40.5625C78.2137 43.0208 77.5679 45.1667 76.2762 47C74.9845 48.875 73.172 50.3125 70.8387 51.3125C68.547 52.3542 65.922 52.875 62.9637 52.875C58.672 52.875 55.1304 52.0625 52.3387 50.4375C49.547 48.8125 47.672 46.5 46.7137 43.5L53.5887 40.3125C54.2137 42.1042 55.2554 43.5 56.7137 44.5C58.2137 45.5 60.1304 46 62.4637 46C64.6304 46 66.3179 45.6042 67.5262 44.8125C68.7345 43.9792 69.3387 42.7708 69.3387 41.1875C69.3387 39.5208 68.7345 38.2917 67.5262 37.5C66.3179 36.6667 64.0887 36.0417 60.8387 35.625C56.547 35.0417 53.3387 33.7708 51.2137 31.8125C49.0887 29.8542 48.0262 27.2917 48.0262 24.125ZM140.686 25.5625V52H131.624V27.0625C131.624 22.5208 129.499 20.25 125.249 20.25C122.874 20.25 120.978 21.0625 119.561 22.6875C118.186 24.3125 117.499 26.4792 117.499 29.1875V52H108.436V27.0625C108.436 22.5208 106.311 20.25 102.061 20.25C99.6862 20.25 97.8112 21.0625 96.4362 22.6875C95.0612 24.3125 94.3737 26.4792 94.3737 29.1875V52H85.3112V22.375C85.3112 18.7917 85.207 15.8542 84.9987 13.5625H93.0612C93.2279 14.6042 93.3737 16.375 93.4987 18.875C96.1237 14.75 100.103 12.6875 105.436 12.6875C107.978 12.6875 110.165 13.2292 111.999 14.3125C113.832 15.3958 115.228 16.9375 116.186 18.9375C118.853 14.7708 122.999 12.6875 128.624 12.6875C132.374 12.6875 135.311 13.8333 137.436 16.125C139.603 18.375 140.686 21.5208 140.686 25.5625ZM185.358 43.1875C185.358 47.2292 185.442 50.1667 185.608 52H177.483C177.483 51.8333 177.421 51.2292 177.296 50.1875C177.213 49.1875 177.15 47.8958 177.108 46.3125C175.733 48.4375 173.963 50.0625 171.796 51.1875C169.671 52.3125 167.254 52.875 164.546 52.875C161.546 52.875 158.796 52.0208 156.296 50.3125C153.796 48.6458 151.817 46.2917 150.358 43.25C148.9 40.2083 148.171 36.7292 148.171 32.8125C148.171 28.8958 148.9 25.4167 150.358 22.375C151.817 19.2917 153.796 16.9167 156.296 15.25C158.796 13.5417 161.546 12.6875 164.546 12.6875C167.254 12.6875 169.671 13.2708 171.796 14.4375C173.921 15.5625 175.692 17.1667 177.108 19.25C177.15 17.75 177.213 16.4792 177.296 15.4375C177.421 14.3958 177.483 13.7708 177.483 13.5625H185.608C185.442 15.3958 185.358 18.3333 185.358 22.375V43.1875ZM176.233 32.8125C176.233 28.8958 175.358 25.7708 173.608 23.4375C171.858 21.0625 169.567 19.875 166.733 19.875C164.9 19.875 163.254 20.4167 161.796 21.5C160.379 22.5417 159.275 24.0417 158.483 26C157.692 27.9583 157.296 30.2292 157.296 32.8125C157.296 35.3542 157.692 37.6042 158.483 39.5625C159.275 41.5208 160.379 43.0417 161.796 44.125C163.254 45.1667 164.9 45.6875 166.733 45.6875C169.567 45.6875 171.858 44.5208 173.608 42.1875C175.358 39.8125 176.233 36.6875 176.233 32.8125ZM215.629 13.125V21.1875C214.629 21.0208 213.691 20.9375 212.816 20.9375C210.025 20.9375 207.775 21.8125 206.066 23.5625C204.358 25.3125 203.504 27.8125 203.504 31.0625V52H194.441V22.375C194.441 18.7917 194.337 15.8542 194.129 13.5625H202.004C202.212 14.8125 202.337 16.8542 202.379 19.6875C203.545 17.3958 205.045 15.6667 206.879 14.5C208.712 13.2917 210.795 12.6875 213.129 12.6875C214.337 12.6875 215.17 12.8333 215.629 13.125ZM234.3 20.75V40.25C234.3 43.625 235.946 45.3125 239.238 45.3125C240.613 45.3125 241.842 45.1458 242.925 44.8125V51.875C241.092 52.5417 239.175 52.875 237.175 52.875C233.467 52.875 230.55 51.7917 228.425 49.625C226.3 47.4583 225.238 44.4792 225.238 40.6875V20.75H219.988V13.5625H225.238V4.5H234.3V13.5625H242.925V20.75H234.3Z" fill="white"/>
<path d="M306.34 37.7C306.34 40.5 305.74 42.96 304.54 45.08C303.38 47.2 301.72 48.84 299.56 50C297.44 51.2 294.98 51.8 292.18 51.8H269.56V2.06H291.34C293.9 2.06 296.16 2.6 298.12 3.68C300.12 4.76 301.66 6.3 302.74 8.3C303.86 10.26 304.42 12.52 304.42 15.08C304.42 17.72 303.74 19.94 302.38 21.74C301.06 23.54 299.24 24.84 296.92 25.64C299.8 26.44 302.08 27.88 303.76 29.96C305.48 32.04 306.34 34.62 306.34 37.7ZM278.98 9.44V22.28H288.22C290.34 22.28 291.98 21.74 293.14 20.66C294.34 19.54 294.94 17.96 294.94 15.92C294.94 13.88 294.34 12.3 293.14 11.18C291.98 10.02 290.34 9.44 288.22 9.44H278.98ZM296.92 37.04C296.92 34.68 296.22 32.86 294.82 31.58C293.46 30.3 291.56 29.66 289.12 29.66H278.98V44.48H289.12C291.56 44.48 293.46 43.84 294.82 42.56C296.22 41.24 296.92 39.4 296.92 37.04ZM345.929 35.72H320.789C321.069 39 322.029 41.5 323.669 43.22C325.349 44.9 327.529 45.74 330.209 45.74C332.289 45.74 333.929 45.3 335.129 44.42C336.369 43.5 337.329 42.2 338.009 40.52L345.209 43.94C342.769 49.74 337.809 52.64 330.329 52.64C326.609 52.64 323.369 51.82 320.609 50.18C317.849 48.58 315.729 46.32 314.249 43.4C312.769 40.48 312.029 37.14 312.029 33.38C312.029 29.62 312.769 26.28 314.249 23.36C315.769 20.44 317.829 18.16 320.429 16.52C323.029 14.88 325.949 14.06 329.189 14.06C332.629 14.06 335.609 14.86 338.129 16.46C340.689 18.06 342.649 20.32 344.009 23.24C345.369 26.12 346.049 29.5 346.049 33.38C346.049 34.22 346.009 35 345.929 35.72ZM320.969 29.48H337.169C336.849 26.68 336.009 24.56 334.649 23.12C333.289 21.68 331.449 20.96 329.129 20.96C326.969 20.96 325.169 21.7 323.729 23.18C322.289 24.66 321.369 26.76 320.969 29.48ZM385.802 35.72H360.662C360.942 39 361.902 41.5 363.542 43.22C365.222 44.9 367.402 45.74 370.082 45.74C372.162 45.74 373.802 45.3 375.002 44.42C376.242 43.5 377.202 42.2 377.882 40.52L385.082 43.94C382.642 49.74 377.682 52.64 370.202 52.64C366.482 52.64 363.242 51.82 360.482 50.18C357.722 48.58 355.602 46.32 354.122 43.4C352.642 40.48 351.902 37.14 351.902 33.38C351.902 29.62 352.642 26.28 354.122 23.36C355.642 20.44 357.702 18.16 360.302 16.52C362.902 14.88 365.822 14.06 369.062 14.06C372.502 14.06 375.482 14.86 378.002 16.46C380.562 18.06 382.522 20.32 383.882 23.24C385.242 26.12 385.922 29.5 385.922 33.38C385.922 34.22 385.882 35 385.802 35.72ZM360.842 29.48H377.042C376.722 26.68 375.882 24.56 374.522 23.12C373.162 21.68 371.322 20.96 369.002 20.96C366.842 20.96 365.042 21.7 363.602 23.18C362.162 24.66 361.242 26.76 360.842 29.48ZM441.179 43.94V51.8H411.239V2.06H420.659V43.94H441.179ZM452.857 0.679999C454.417 0.679999 455.657 1.16 456.577 2.12C457.537 3.04 458.017 4.28 458.017 5.84C458.017 7.4 457.537 8.66 456.577 9.62C455.657 10.54 454.417 11 452.857 11C451.297 11 450.037 10.54 449.077 9.62C448.157 8.66 447.697 7.4 447.697 5.84C447.697 4.28 448.157 3.04 449.077 2.12C450.037 1.16 451.297 0.679999 452.857 0.679999ZM457.177 14.9V51.8H448.477V14.9H457.177ZM477.827 21.8V40.52C477.827 43.76 479.407 45.38 482.567 45.38C483.887 45.38 485.067 45.22 486.107 44.9V51.68C484.347 52.32 482.507 52.64 480.587 52.64C477.027 52.64 474.227 51.6 472.187 49.52C470.147 47.44 469.127 44.58 469.127 40.94V21.8H464.087V14.9H469.127V6.2H477.827V14.9H486.107V21.8H477.827ZM525.517 35.72H500.377C500.657 39 501.617 41.5 503.257 43.22C504.937 44.9 507.117 45.74 509.797 45.74C511.877 45.74 513.517 45.3 514.717 44.42C515.957 43.5 516.917 42.2 517.597 40.52L524.797 43.94C522.357 49.74 517.397 52.64 509.917 52.64C506.197 52.64 502.957 51.82 500.197 50.18C497.437 48.58 495.317 46.32 493.837 43.4C492.357 40.48 491.617 37.14 491.617 33.38C491.617 29.62 492.357 26.28 493.837 23.36C495.357 20.44 497.417 18.16 500.017 16.52C502.617 14.88 505.537 14.06 508.777 14.06C512.217 14.06 515.197 14.86 517.717 16.46C520.277 18.06 522.237 20.32 523.597 23.24C524.957 26.12 525.637 29.5 525.637 33.38C525.637 34.22 525.597 35 525.517 35.72ZM500.557 29.48H516.757C516.437 26.68 515.597 24.56 514.237 23.12C512.877 21.68 511.037 20.96 508.717 20.96C506.557 20.96 504.757 21.7 503.317 23.18C501.877 24.66 500.957 26.76 500.557 29.48Z" fill="#FFD66B"/>
</svg>
