<svg width="176" height="199" viewBox="0 0 176 199" fill="none" xmlns="http://www.w3.org/2000/svg">
<g opacity="0.4">
<path d="M105.81 14.3977L27.8135 42.3127C6.76627 49.9007 -4.16283 73.1448 3.39355 94.2287L39.6641 195.291C39.6641 195.291 47.3864 152.884 91.582 136.969L143.186 118.562C164.234 110.974 175.163 87.73 167.606 66.646L157.636 38.8603C150.061 17.7763 126.857 6.82817 105.81 14.3977Z" stroke="#D1D1D1" stroke-width="1.68681"/>
<path d="M110.81 3.39772L32.8135 31.3127C11.7663 38.9007 0.837173 62.1448 8.39355 83.2287L44.6641 184.291C44.6641 184.291 52.3864 141.883 96.582 125.969L148.186 107.562C169.234 99.9741 180.163 76.73 172.606 55.6461L162.636 27.8603C155.061 6.77632 131.857 -4.17183 110.81 3.39772Z" stroke="#D1D1D1" stroke-width="1.68681"/>
</g>
</svg>
