<svg width="175" height="175" viewBox="0 0 175 175" fill="none" xmlns="http://www.w3.org/2000/svg">
<path d="M87.1 159.2C126.92 159.2 159.2 126.92 159.2 87.1C159.2 47.2803 126.92 15 87.1 15C47.2803 15 15 47.2803 15 87.1C15 126.92 47.2803 159.2 87.1 159.2Z" fill="url(#paint0_linear)"/>
<path d="M87.1 174.1C39.1 174.1 0 135 0 87C0 39 39.1 0 87.1 0C135.1 0 174.2 39.1 174.2 87.1C174.2 135.1 135.1 174.1 87.1 174.1ZM87.1 1C39.6 1 1 39.6 1 87.1C1 134.5 39.6 173.2 87.1 173.2C134.5 173.2 173.2 134.6 173.2 87.1C173.1 39.6 134.5 1 87.1 1Z" fill="url(#paint1_linear)"/>
<path d="M122.099 66.2V66C121.999 63.7001 121.999 61.5 121.999 59.3C121.999 58.4 121.299 57.6 120.299 57.6C106.899 57.5 96.6994 53.7 88.1994 45.5C87.5994 44.9 86.3994 44.9 85.7994 45.5C77.2994 53.7 67.0994 57.6 53.7994 57.6C52.8994 57.6 52.0994 58.3 52.0994 59.3C52.0994 61.4 52.0994 63.7 51.9994 66.1C51.5994 87.5 50.9994 116.7 86.2994 129H86.3994C86.5994 129.1 86.6994 129.1 86.8994 129.1C86.9994 129.1 87.1994 129.1 87.3994 129C122.899 116.7 122.399 87.5 122.099 66.2ZM87.4994 125.3L86.9994 125.5L86.4994 125.3C54.4994 113.6 54.9994 88.4 55.3994 66.1C55.3994 65.4 55.3994 64.8 55.3994 64.1C55.3994 63.5 55.3994 62.9 55.3994 62.3V61L56.6994 60.9001C68.6994 60.3 77.9994 56.7 86.0994 49.7L86.9994 48.9001L87.8994 49.7C96.0994 56.8 105.399 60.3 117.199 60.8H118.499V62.1C118.499 63.3 118.499 64.5001 118.599 65.8001C119.099 88.3001 119.599 113.6 87.4994 125.3Z" fill="white"/>
<path d="M100.799 79.8L83.8994 96.7C83.5994 97.1 83.0994 97.1 82.7994 97.1C82.2994 97.1 81.9994 96.9 81.5994 96.6L73.1994 88.2C72.4994 87.5 72.4994 86.3 73.0994 85.7C73.4994 85.4 73.8994 85.2 74.3994 85.2C74.7994 85.2 75.2994 85.4 75.5994 85.7L82.7994 92.9L98.2994 77.4C98.5994 77.1 98.9994 76.9 99.4994 76.9C99.8994 76.9 100.399 77.1 100.599 77.3C101.399 78 101.399 79.1 100.799 79.8Z" fill="white"/>
<defs>
<linearGradient id="paint0_linear" x1="14.9255" y1="87.0523" x2="159.18" y2="87.0523" gradientUnits="userSpaceOnUse">
<stop stop-color="#F0843F"/>
<stop offset="1" stop-color="#E81E36"/>
</linearGradient>
<linearGradient id="paint1_linear" x1="0" y1="87.0525" x2="174.105" y2="87.0525" gradientUnits="userSpaceOnUse">
<stop stop-color="#F0843F"/>
<stop offset="1" stop-color="#E81E36"/>
</linearGradient>
</defs>
</svg>
