<svg width="163" height="144" viewBox="0 0 163 144" fill="none" xmlns="http://www.w3.org/2000/svg">
<g clip-path="url(#clip0)">
<path opacity="0.3" d="M9.64568 102.796C-2.76556 111.382 43.6299 111.334 36.038 115.018C22.8411 121.422 29.0796 130.261 46.6628 126.457C58.8151 123.829 58.758 144 83.0845 144C103.794 144 105.562 123.077 114.839 126.478C133.026 133.142 148.137 124.843 138.289 119.807C126.432 113.744 136.639 108.764 142.444 109.841C152.687 111.74 174.945 110.198 153.474 101.255C146.471 98.3356 100.198 84.8332 81.4986 84.6617C62.799 84.4901 15.3034 98.8829 9.64568 102.796Z" fill="#9AF7F0"/>
<path d="M42.3424 94.2957L78.413 116.661L113.247 98.0466V94.871L78.8255 78.3203L42.3424 91.1201V94.2957Z" fill="#FBA319"/>
<path d="M42.3424 91.1209L78.413 113.486L113.247 94.8718L78.8255 75.1455L42.3424 91.1209Z" fill="#FFCF50"/>
<path d="M47.8168 91.1876L78.3555 110.123L107.848 94.3632V88.8951L78.7052 77.6631L47.8168 85.7195V91.1876Z" fill="url(#paint0_linear)"/>
<path d="M107.81 88.6122L104.464 90.3989L78.3178 104.37L51.2818 87.6079L47.7792 85.4367L78.6675 71.9106L107.81 88.6122Z" fill="url(#paint1_linear)"/>
<path d="M78.7055 66.8706L78.3573 102.625L55.2525 88.3865C55.251 88.385 55.2481 88.385 55.2481 88.385L49.9884 85.1429L43.8069 49.3481L69.4296 62.2115L76.0296 65.5276L76.7523 65.89L78.7055 66.8706Z" fill="#8BCBE3"/>
<path d="M112.871 54.0747L112.764 54.5613L105.317 88.6211L78.3178 102.795L78.3515 99.4375L78.666 67.0416L112.871 54.0747Z" fill="#8BCBE3"/>
<path d="M78.666 67.0417L78.3178 102.796L55.213 88.5576C55.4807 88.6833 67.4428 94.3008 71.2072 89.7038C75.0171 85.0581 74.5474 66.7547 74.5474 66.7547L76.7128 66.0596L78.666 67.0417Z" fill="#72BACE"/>
<path d="M112.739 54.2021L105.292 88.262L78.2921 102.436L78.3257 99.0784C80.731 97.7428 93.9923 90.2513 98.7751 84.7788C104.044 78.7531 104.649 58.6482 104.649 58.6482L112.739 54.2021Z" fill="#72BACE"/>
<path d="M79.5117 39.3027L38.9525 43.2385L39.4835 49.1503L78.7158 68.8485L117.107 54.2945L117.685 48.43L79.5117 39.3027Z" fill="#00649F"/>
<path d="M117.729 48.7504L99.3628 55.7138L95.5618 57.1544L78.7598 63.5233L60.7875 54.4995L57.0084 52.6019L38.9951 43.5589L59.1971 38.786L64.2623 37.5909L79.5558 33.9775L94.3006 39.6823L99.2019 41.5814L117.729 48.7504Z" fill="#00649F"/>
<path d="M94.2566 39.3623L78.6924 44.5346L74.2081 46.0255L57.9315 51.4344C57.4999 51.5779 57.159 51.89 56.9644 52.2819C56.8444 52.5274 56.7815 52.8025 56.7917 53.0895L57.1004 61.5896C57.1004 61.6044 57.2745 65.8434 57.2745 65.8434L59.3082 63.7017L60.764 65.3465L60.3836 60.6416L60.1948 55.4856C60.1773 54.9768 60.3865 54.5049 60.7435 54.1795C60.9117 54.0257 61.1093 53.9059 61.3346 53.832L78.4349 48.1479L82.9193 46.657L99.1579 41.2599L94.2566 39.3623Z" fill="url(#paint2_linear)"/>
<path d="M78.7158 63.2035V68.8491L117.107 54.2951L117.685 48.4307L78.7158 63.2035Z" fill="#00508B"/>
<path d="M99.3187 55.394C99.1754 55.0035 98.8871 54.6722 98.5038 54.4799L82.9207 46.6571L78.6924 44.5347L64.2182 37.2695L59.1516 38.4661C59.1662 38.475 59.1794 38.4838 59.1955 38.4912L74.2066 46.0256L78.4349 48.148L95.0583 56.4929C95.2324 56.5817 95.386 56.6955 95.5177 56.8346C95.8322 57.1659 96.0049 57.6214 95.9771 58.0977L94.8739 76.157L94.4613 80.7436L96.6428 79.0678L98.1951 80.7436V76.157L99.4226 56.0847C99.4358 55.8451 99.3992 55.6114 99.3187 55.394Z" fill="url(#paint3_linear)"/>
<path d="M78.694 47.642H76.6881L76.9661 45.6334C77.0027 45.3716 77.882 39.1625 80.4804 32.8513C84.1 24.0627 89.3364 19.4155 95.6217 19.4155C100.488 19.4155 104.546 20.3976 107.361 22.2553C110.163 24.1056 111.707 26.7931 111.707 29.8252C111.707 34.2668 108.507 38.7202 102.927 42.0422C98.6356 44.5951 90.9487 47.642 78.694 47.642ZM95.6217 22.9431C90.8038 22.9431 86.8023 26.7132 83.7269 34.1485C82.1527 37.9541 81.2383 41.8085 80.7847 44.0804C91.0321 43.7683 97.4827 41.1873 101.157 38.9998C105.578 36.3671 108.217 32.9371 108.217 29.8222C108.216 25.6439 103.272 22.9431 95.6217 22.9431Z" fill="url(#paint4_linear)"/>
<path d="M81.1167 47.6967H78.6675C68.3543 47.6967 61.7676 44.9323 58.0572 42.6132C53.3622 39.6787 50.3849 35.6779 49.8889 31.6356C49.3154 26.9706 52.0835 23.2744 57.1106 21.9921C60.4845 21.1313 63.8569 21.9492 67.1341 24.4222C69.5745 26.2636 71.9667 29.0428 74.2447 32.6828C78.0355 38.741 80.2242 45.0876 80.3164 45.3554L81.1167 47.6967ZM59.6505 25.2002C59.096 25.2002 58.5342 25.2682 57.9651 25.4132C54.6849 26.2503 53.0038 28.3595 53.352 31.2007C53.7119 34.1337 56.1567 37.2767 59.8919 39.6122C62.9073 41.4965 68.0837 43.7077 76.0969 44.1056C75.1415 41.7627 73.478 38.0488 71.2673 34.5257C68.5065 30.1255 64.3631 25.2002 59.6505 25.2002Z" fill="url(#paint5_linear)"/>
<path d="M78.3178 104.37V109.839L107.81 94.0799V88.6118L78.3178 104.37Z" fill="#F9BB41"/>
<path d="M113.247 94.8711L78.413 113.485V116.661L113.247 98.0466V94.8711Z" fill="#F9BB41"/>
<path d="M29.0797 108.489C31.7785 108.489 33.9663 107.003 33.9663 105.17C33.9663 103.337 31.7785 101.851 29.0797 101.851C26.3808 101.851 24.193 103.337 24.193 105.17C24.193 107.003 26.3808 108.489 29.0797 108.489Z" fill="#FBA319"/>
<path d="M131.62 108.489C134.319 108.489 136.507 107.003 136.507 105.17C136.507 103.337 134.319 101.851 131.62 101.851C128.922 101.851 126.734 103.337 126.734 105.17C126.734 107.003 128.922 108.489 131.62 108.489Z" fill="#FBA319"/>
<path d="M131.62 107.891C134.319 107.891 136.507 106.405 136.507 104.572C136.507 102.739 134.319 101.253 131.62 101.253C128.922 101.253 126.734 102.739 126.734 104.572C126.734 106.405 128.922 107.891 131.62 107.891Z" fill="#FFCF50"/>
<path d="M29.0797 107.891C31.7785 107.891 33.9663 106.405 33.9663 104.572C33.9663 102.739 31.7785 101.253 29.0797 101.253C26.3808 101.253 24.193 102.739 24.193 104.572C24.193 106.405 26.3808 107.891 29.0797 107.891Z" fill="#FFCF50"/>
<path d="M29.0796 105.17C28.6451 105.17 28.291 104.814 28.291 104.373V77.2411C28.291 76.8018 28.6436 76.4438 29.0796 76.4438C29.5141 76.4438 29.8682 76.8003 29.8682 77.2411V104.374C29.8682 104.814 29.5156 105.17 29.0796 105.17Z" fill="#2A425B"/>
<path d="M29.0797 79.4818C30.7394 79.4818 32.0848 78.1216 32.0848 76.4438C32.0848 74.7659 30.7394 73.4058 29.0797 73.4058C27.42 73.4058 26.0745 74.7659 26.0745 76.4438C26.0745 78.1216 27.42 79.4818 29.0797 79.4818Z" fill="#2A425B"/>
<path d="M131.62 105.17C131.186 105.17 130.832 104.814 130.832 104.373V77.2411C130.832 76.8018 131.184 76.4438 131.62 76.4438C132.055 76.4438 132.409 76.8003 132.409 77.2411V104.374C132.408 104.814 132.055 105.17 131.62 105.17Z" fill="#2A425B"/>
<path d="M131.62 79.4818C133.28 79.4818 134.626 78.1216 134.626 76.4438C134.626 74.7659 133.28 73.4058 131.62 73.4058C129.961 73.4058 128.615 74.7659 128.615 76.4438C128.615 78.1216 129.961 79.4818 131.62 79.4818Z" fill="#2A425B"/>
<path d="M29.0797 79.4819C29.0797 79.4819 52.1186 107.865 80.35 111.74V119.807C80.35 119.807 49.6724 115.426 29.0797 88.0472V79.4819Z" fill="#58DBDB"/>
<path d="M131.968 79.2808C131.968 79.2808 108.929 107.664 80.698 111.539V119.606C80.698 119.606 111.376 115.225 131.968 87.846V79.2808Z" fill="#58DBDB"/>
<path d="M80.35 136.168C83.0489 136.168 85.2367 134.682 85.2367 132.849C85.2367 131.016 83.0489 129.53 80.35 129.53C77.6512 129.53 75.4634 131.016 75.4634 132.849C75.4634 134.682 77.6512 136.168 80.35 136.168Z" fill="#FBA319"/>
<path d="M80.35 135.571C83.0489 135.571 85.2367 134.085 85.2367 132.252C85.2367 130.419 83.0489 128.933 80.35 128.933C77.6512 128.933 75.4634 130.419 75.4634 132.252C75.4634 134.085 77.6512 135.571 80.35 135.571Z" fill="#FFCF50"/>
<path d="M80.35 132.849C79.9155 132.849 79.5614 132.493 79.5614 132.052V104.919C79.5614 104.48 79.914 104.122 80.35 104.122C80.7845 104.122 81.1386 104.478 81.1386 104.919V132.052C81.1386 132.493 80.786 132.849 80.35 132.849Z" fill="#2A425B"/>
<path d="M80.3501 107.161C82.0098 107.161 83.3552 105.801 83.3552 104.123C83.3552 102.446 82.0098 101.085 80.3501 101.085C78.6904 101.085 77.3449 102.446 77.3449 104.123C77.3449 105.801 78.6904 107.161 80.3501 107.161Z" fill="#2A425B"/>
<path d="M4.70043 64.6396C4.70043 64.6396 7.50222 61.3753 9.33983 60.8857C11.1774 60.3962 11.3852 60.5618 11.3852 60.5618C11.3852 60.5618 13.2887 57.9113 12.1255 57.1496C10.9624 56.3864 7.96893 55.9087 7.96893 55.9087C7.96893 55.9087 3.93086 64.4621 4.03913 64.4414C4.14886 64.4222 4.70043 64.6396 4.70043 64.6396Z" fill="#2A425B"/>
<path d="M11.8944 55.9989C11.8944 55.9989 10.0612 58.96 11.2127 60.3118C11.2127 60.3118 25.8785 63.6634 26.9377 62.8499C27.997 62.0364 29.5639 47.904 29.9912 47.302C30.4184 46.6986 31.2348 43.2124 31.2348 43.2124L20.1666 43.5644C20.1666 43.5644 24.4959 56.2282 22.986 56.8405C22.035 57.225 11.8944 55.9989 11.8944 55.9989Z" fill="#00508B"/>
<path d="M5.09553 69.914C5.09553 69.914 5.59737 71.8279 5.46276 72.7567C5.46276 72.7567 3.79047 74.1456 3.27108 76.16C2.75023 78.176 2.61855 78.8623 2.17963 79.0782C2.17963 79.0782 -0.123241 76.765 0.665354 70.6668C0.663891 70.6668 0.580496 69.4303 5.09553 69.914Z" fill="#2A425B"/>
<path d="M4.08448 69.0029C4.08448 69.0029 2.84087 72.3648 5.28127 73.9016C5.28127 73.9016 22.844 67.2591 23.3414 65.7934C23.8389 64.3276 26.4168 49.6878 26.9976 49.3772C27.5785 49.0681 28.5602 45.7979 28.6509 44.804C28.7416 43.81 19.2302 43.6592 19.2302 43.6592C19.2302 43.6592 18.1739 48.827 18.9683 49.6938C19.7627 50.562 17.6369 61.8221 16.5864 62.6178C15.2682 63.6162 4.08448 69.0029 4.08448 69.0029Z" fill="#00649F"/>
<path d="M51.4427 30.9212C51.4427 30.9212 53.8772 30.4375 54.4903 30.4464C55.1033 30.4568 58.9673 31.0558 58.799 31.2821C58.6308 31.5084 55.6242 31.3723 55.1808 31.4818C54.7375 31.5912 53.7061 32.0793 53.7661 32.3396C53.826 32.5999 54.0396 33.0436 54.3762 33.1797C54.7127 33.3143 55.0536 33.5554 55.0536 33.5554C55.0536 33.5554 54.4639 33.9326 53.7543 33.548C53.0448 33.1634 50.7346 33.3395 49.5875 33.5155C48.4405 33.6915 41.4236 35.3347 40.7081 35.0862C39.9927 34.8377 37.899 34.0405 37.899 34.0405L39.2304 30.7703C39.2304 30.7703 40.7901 31.4093 41.1646 31.4167C41.5406 31.4255 51.4427 30.9212 51.4427 30.9212Z" fill="#F7BCB7"/>
<path d="M42.4945 31.2572C42.4945 31.2572 41.384 35.5287 41.0095 35.5198C40.6349 35.511 39.4235 35.3231 39.3401 35.0214C39.2567 34.7197 40.711 30.4481 40.8368 30.4851C40.9627 30.5221 42.237 30.7484 42.4945 31.2572Z" fill="#FFCF50"/>
<path d="M40.8369 30.485C40.8369 30.485 35.839 28.7264 35.1909 28.4882C34.5427 28.2501 33.5713 30.0472 33.6371 31.3458C33.7029 32.6459 34.3657 33.4697 34.6803 33.5969C34.9948 33.7241 39.3401 35.0212 39.3401 35.0212C39.3401 35.0212 41.1002 30.8754 40.8369 30.485Z" fill="#9EDCEF"/>
<path d="M14.3113 34.2287C14.3113 34.2287 14.9478 35.2152 15.2184 35.2256C15.4891 35.2374 15.9295 34.4343 15.9295 34.4343L15.2594 33.8545L14.3113 34.2287Z" fill="#F9BB41"/>
<path d="M31.2757 47.0446C31.2757 47.0446 25.8521 48.0504 21.501 46.8375C20.2003 46.4766 18.9962 45.9146 18.0598 45.0715C18.0598 45.0715 20.1301 36.9544 21.6341 31.6032C22.3247 29.148 22.8953 27.2725 23.0899 27.0314C23.0899 27.0314 27.0489 26.6543 28.8485 26.9249C30.6481 27.1971 34.8822 28.2561 35.1895 28.4883C35.4982 28.719 35.7659 29.5591 35.1938 31.6387C34.6233 33.7168 31.2757 47.0446 31.2757 47.0446Z" fill="#9EDCEF"/>
<path d="M21.5847 47.0469C20.284 46.686 19.0799 46.1239 18.1436 45.2808C18.1436 45.2808 20.2138 37.1638 21.7178 31.8125L24.3557 29.9326C24.3557 29.9326 24.9805 32.45 23.6008 34.4659C23.6008 34.4659 24.1187 34.0769 24.3294 34.2337C24.5416 34.3876 24.2314 34.9185 24.2314 34.9185C24.2314 34.9185 23.829 36.6697 23.9476 36.6342C24.0661 36.6017 25.2599 34.7987 25.3858 35.1271C25.5116 35.454 25.4238 36.1062 25.4238 36.1062C25.4238 36.1062 23.7047 39.1206 23.3989 38.9963C23.0946 38.8721 21.0946 39.0377 20.8956 39.6012C20.6981 40.1618 19.3725 45.5205 21.5847 47.0469Z" fill="#8AC8DB"/>
<path d="M24.7153 39.2719C23.9311 39.3843 21.1908 38.3327 21.1908 38.3327C21.1908 38.3327 11.3267 40.8131 10.8469 40.4625C10.3684 40.112 10.4547 38.4066 11.8139 37.1509C13.1731 35.8952 15.9676 33.9473 15.9676 33.9473L17.0269 34.5167L18.6289 35.379L18.4343 35.805L19.6443 35.7606L21.7906 35.6852C21.7906 35.6852 23.498 34.4087 24.4563 34.1765C25.3956 33.9487 24.1549 35.3361 24.1023 35.3953C24.1491 35.3879 25.7482 35.1512 25.8858 35.2607C26.0262 35.3716 25.501 39.1595 24.7153 39.2719Z" fill="#F7BCB7"/>
<path d="M19.6472 35.7625L15.3575 36.4088C15.4409 36.3851 16.7576 36.0302 16.8835 35.7284C17.0122 35.4164 15.8213 34.807 15.8213 34.807L17.0298 34.5171L18.6318 35.3794L18.4372 35.8054L19.6472 35.7625Z" fill="#DB9795"/>
<path d="M14.3114 34.2285L18.4372 35.8066L19.8901 35.7549C19.8901 35.7549 16.901 33.0985 16.0568 32.708C16.0554 32.708 14.2543 34.0229 14.3114 34.2285Z" fill="#FFCF50"/>
<path d="M16.5045 32.9801C16.5045 32.9801 22.5133 26.9041 23.0898 27.0313C23.6662 27.1585 25.0884 29.9657 23.7701 33.2463L19.8886 35.7548C19.8901 35.7548 16.563 33.6545 16.5045 32.9801Z" fill="#9EDCEF"/>
<path d="M29.264 27.7397L28.1272 28.8712L26.4915 30.4952L26.5091 28.4985L26.5193 27.1555L26.5237 26.5757L26.8163 26.3184L29.264 27.7397Z" fill="#FFCF50"/>
<path d="M30.591 27.3579C30.5632 27.531 30.5061 27.8031 30.4418 28.0945L29.9297 28.6284C29.9282 28.6284 29.9282 28.6284 29.9282 28.6284L29.4132 29.1668L29.2625 27.741L26.8148 26.3196L27.7995 23.5464L29.7805 23.8452L30.5866 23.965L30.7139 24.3732H30.7154L31.4864 26.8373C31.4893 26.8373 30.6788 26.8299 30.591 27.3579Z" fill="#F7BCB7"/>
<path d="M30.591 27.358C30.5632 27.531 30.5062 27.8032 30.4418 28.0946L29.9297 28.6285C29.9282 28.6285 29.9282 28.6285 29.9282 28.6285C29.9282 28.6285 30.1082 27.0755 29.2377 26.5401C28.3671 26.0017 28.5003 24.5803 28.5003 24.5803L29.7805 23.8452C29.7805 23.8452 30.196 24.0819 30.7154 24.3732H30.7168L31.4879 26.8374C31.4893 26.8374 30.6788 26.83 30.591 27.358Z" fill="#DB9795"/>
<path d="M29.4147 29.1656L28.3437 28.6553L29.264 27.7397L29.4147 29.1656Z" fill="#F9BB41"/>
<path d="M30.5428 28.8135L30.2545 28.9038L29.4147 29.1656L30.4418 28.0947L30.5428 28.8135Z" fill="#F9BB41"/>
<path d="M33.5186 24.8396C32.891 26.3054 32.1814 27.0715 32.0248 27.0242C31.8683 26.9769 29.3138 26.1116 29.0226 25.4697C28.7285 24.8293 27.5844 23.2422 27.5844 23.2422L32.0482 18.9692C32.0482 18.9692 34.2019 19.6245 34.1755 20.364C34.1755 20.364 34.1755 20.435 34.1726 20.5578C34.1624 20.8432 34.1404 21.4141 34.079 22.0738C33.9927 23.0071 33.8288 24.1149 33.5186 24.8396Z" fill="#F7BCB7"/>
<path d="M34.0775 22.075C33.8434 22.0173 33.8975 21.8782 33.7673 21.7185C33.6166 21.5307 32.9773 21.8309 32.2208 22.0897C31.463 22.3471 30.8265 21.6741 30.8265 21.6741L31.1294 20.6373C31.1294 20.6373 33.4542 20.0176 33.5449 20.0176C33.5976 20.0191 33.9151 20.3134 34.1711 20.5589C34.1623 20.8429 34.1389 21.4138 34.0775 22.075Z" fill="#DB9795"/>
<path d="M29.738 22.3098C29.738 22.3098 29.7248 21.943 29.4044 21.9859C29.084 22.0288 28.6114 23.2372 29.3839 23.5197L28.212 24.1453C28.212 24.1453 27.4761 24.4574 27.343 24.8331C27.2098 25.2087 27.2142 23.6853 27.1396 23.4723C27.065 23.2593 26.6158 21.6605 26.6977 20.7538C26.8089 19.5114 28.3379 18.1314 30.5398 17.7942C31.6722 17.6212 34.6261 19.4596 34.6261 19.4596C34.6261 19.4596 34.392 21.5954 34.1053 21.7655C34.1111 21.696 33.4601 21.344 33.5844 20.7405C33.5844 20.7405 31.9238 22.1486 31.0328 21.7433C30.1418 21.3395 29.738 22.3098 29.738 22.3098Z" fill="#2A425B"/>
<path d="M30.5924 27.3579L30.4432 28.0915L30.5719 29.6534C30.5719 29.6519 31.0591 28.2749 30.5924 27.3579Z" fill="#FFCF50"/>
<path d="M29.2816 22.2603C29.2816 22.2603 29.6532 22.3623 29.5478 22.7543C29.4425 23.1462 29.2889 23.0575 29.3035 23.0353C29.3181 23.0161 29.5771 22.7469 29.2816 22.2603Z" fill="#E8BAA6"/>
<path d="M61.8846 12.7704C61.8846 12.7704 60.5488 19.8388 66.7508 19.8388C67.2248 19.5903 69.1649 18.4944 69.1649 18.4944C69.1649 18.4944 62.9629 17.4827 65.1882 12.1226L61.8846 12.7704Z" fill="#BCF7E2"/>
<path d="M82.1671 8.56236C82.1671 8.56236 88.849 3.91367 85.9141 0.538446C85.4766 0.470409 83.6214 0.24707 83.6214 0.24707C83.6214 0.24707 85.6902 4.3914 80.05 7.25782L82.1671 8.56236Z" fill="#F9BB41"/>
<path d="M95.6201 15.7582C95.6201 15.7582 97.01 22.8266 90.5594 22.8266C90.0663 22.5781 88.0473 21.4822 88.0473 21.4822C88.0473 21.4822 94.498 20.4705 92.1834 15.1104L95.6201 15.7582Z" fill="#FFCF50"/>
<path d="M46.1317 57.4614C46.1317 57.4614 49.8011 63.6409 43.7293 65.8433C43.1821 65.7767 40.9158 65.4351 40.9158 65.4351C40.9158 65.4351 46.6496 62.2802 42.6803 58.0249L46.1317 57.4614Z" fill="#FBA319"/>
<path d="M48.2093 22.4625C48.2093 22.4625 46.4595 24.3675 48.2093 25.5167C49.9592 26.666 47.7543 30.5944 47.7543 30.5944L45.5875 29.3786C45.5875 29.3786 47.5158 26.5092 45.8011 24.9207C44.0864 23.3322 46.5297 21.3384 46.5297 21.3384L48.2093 22.4625Z" fill="#F9BB41"/>
<path d="M88.7627 34.4857C88.7627 34.4857 88.3472 31.921 86.375 32.6132C84.4028 33.3069 82.6851 29.1374 82.6851 29.1374L84.9631 28.1509C84.9631 28.1509 86.0238 31.4492 88.3165 31.0543C90.6091 30.6594 90.6706 33.832 90.6706 33.832L88.7627 34.4857Z" fill="#FBA319"/>
<path d="M109.015 72.1766C109.015 72.1766 109.43 69.6119 111.402 70.3041C113.374 70.9963 115.092 66.8283 115.092 66.8283L112.814 65.8418C112.814 65.8418 111.753 69.1401 109.461 68.7452C107.168 68.3503 107.107 71.5229 107.107 71.5229L109.015 72.1766Z" fill="#F9BB41"/>
<path d="M75.4642 82.8635C75.4642 82.8635 72.8936 82.8635 73.2506 80.7839C73.6091 78.7043 69.2623 77.6631 69.2623 77.6631L68.6683 80.0947C68.6683 80.0947 72.0597 80.6197 72.045 82.9714C72.0304 85.3231 75.1365 84.872 75.1365 84.872L75.4642 82.8635Z" fill="#BCF7E2"/>
<path d="M124.625 43.3082C124.568 43.4546 124.513 43.5996 124.456 43.746C124.394 43.8052 124.381 43.8939 124.352 43.9708C124.197 44.3702 124.042 44.771 123.887 45.1703C122.798 47.9761 121.708 50.7819 120.621 53.5892C120.084 54.9736 119.547 56.358 119.01 57.7438C118.835 58.1949 118.659 58.6475 118.494 59.1031C118.406 59.3442 118.325 59.3812 118.16 59.1534C117.149 57.769 116.129 56.3905 115.116 55.0091C114.706 54.45 114.293 53.8953 113.894 53.3288C113.75 53.1277 113.585 53.0848 113.357 53.1292C111.063 53.5714 108.769 54.0092 106.475 54.4455C106.36 54.4677 106.223 54.5461 106.134 54.4411C106.033 54.3228 106.14 54.1882 106.185 54.0713C107.025 51.903 107.867 49.7377 108.709 47.5708C109.629 45.1984 110.545 42.8245 111.465 40.4506C111.509 40.3368 111.54 40.2554 111.572 40.2007C111.582 40.1844 111.591 40.1696 111.601 40.1578C111.674 40.0691 111.767 40.1031 112.015 40.1933C112.817 40.4802 113.66 40.5453 114.495 40.6133C115.36 40.6829 116.036 41.0068 116.53 41.7448C116.871 42.2551 117.255 42.7417 117.648 43.2135C118.827 44.629 120.166 44.9588 121.87 44.2755C122.56 43.9989 123.243 43.7046 123.931 43.4265C124.16 43.3319 124.391 43.2934 124.625 43.3082Z" fill="#58DBDB"/>
<path d="M128.842 43.3082C128.899 43.4546 128.955 43.5996 129.012 43.746C129.073 43.8052 129.086 43.8939 129.116 43.9708C129.271 44.3702 129.426 44.771 129.581 45.1703C130.669 47.9761 131.759 50.7819 132.846 53.5892C133.383 54.9736 133.92 56.358 134.457 57.7438C134.633 58.1949 134.808 58.6475 134.974 59.1031C135.062 59.3442 135.142 59.3812 135.307 59.1534C136.318 57.769 137.338 56.3905 138.352 55.0091C138.762 54.45 139.174 53.8953 139.574 53.3288C139.717 53.1277 139.882 53.0848 140.111 53.1292C142.405 53.5714 144.699 54.0092 146.993 54.4455C147.107 54.4677 147.245 54.5461 147.334 54.4411C147.435 54.3228 147.328 54.1882 147.283 54.0713C146.443 51.903 145.6 49.7377 144.759 47.5708C143.839 45.1984 142.923 42.8245 142.002 40.4506C141.958 40.3368 141.928 40.2554 141.896 40.2007C141.885 40.1844 141.877 40.1696 141.866 40.1578C141.793 40.0691 141.701 40.1031 141.452 40.1933C140.651 40.4802 139.808 40.5453 138.972 40.6133C138.108 40.6829 137.432 41.0068 136.937 41.7448C136.596 42.2551 136.213 42.7417 135.819 43.2135C134.64 44.629 133.301 44.9588 131.597 44.2755C130.908 43.9989 130.225 43.7046 129.537 43.4265C129.307 43.3319 129.076 43.2934 128.842 43.3082Z" fill="#58DBDB"/>
<path d="M141.146 49.7037C140.292 49.544 139.436 49.3887 138.585 49.2216C138.351 49.1757 138.187 49.2275 138.046 49.4198C137.064 50.7702 136.078 52.1191 135.092 53.4665C134.678 54.033 134.257 54.5965 133.837 55.1585C133.774 55.2428 133.729 55.376 133.597 55.3478C133.49 55.3242 133.477 55.1999 133.442 55.1097C132.884 53.6839 132.327 52.2581 131.771 50.8308C130.958 48.7424 130.146 46.6539 129.334 44.5655C129.537 44.53 129.74 44.4723 129.945 44.388C130.65 44.1011 131.152 43.5686 131.623 42.9977C132.056 42.4726 132.424 41.8958 132.855 41.3678C133.176 40.9743 133.579 40.7821 134.055 40.6948C134.934 40.5336 135.838 40.535 136.707 40.2954C137.135 40.1771 137.309 40.1327 137.436 40.2644C137.522 40.3516 137.587 40.5188 137.695 40.7954C138.845 43.7653 139.995 46.7353 141.146 49.7037Z" fill="#0C6D6A"/>
<path d="M145.566 50.5424C144.237 50.2925 142.907 50.0351 141.577 49.7851C141.433 49.7585 141.29 49.7304 141.147 49.7038C140.292 49.5441 139.436 49.3888 138.585 49.2216C138.351 49.1758 138.187 49.2275 138.046 49.4198C137.065 50.7702 136.078 52.1191 135.092 53.4665C134.678 54.033 134.257 54.5965 133.837 55.1586C133.774 55.2429 133.729 55.376 133.597 55.3479C133.49 55.3242 133.477 55.2 133.442 55.1098C132.885 53.684 132.327 52.2581 131.771 50.8308C130.958 48.7424 130.146 46.654 129.334 44.5655C129 43.7077 128.667 42.8498 128.333 41.992C128.008 41.1548 127.686 40.3147 127.361 39.4761C127.206 39.0708 127.05 38.6656 126.892 38.2603C126.858 38.173 126.849 38.0651 126.75 38.0074C126.63 38.0562 126.62 38.176 126.582 38.2736C126.427 38.6729 126.271 39.0738 126.116 39.4731C125.62 40.751 125.124 42.0304 124.628 43.3083C124.571 43.4548 124.516 43.5997 124.459 43.7461C123.385 46.5135 122.311 49.2793 121.239 52.0466C121.063 52.4977 120.887 52.9503 120.722 53.4059C120.69 53.4961 120.658 53.5582 120.621 53.5878C120.561 53.6381 120.491 53.5982 120.388 53.4547C119.378 52.0703 118.358 50.6918 117.344 49.3104C116.934 48.7513 116.522 48.1966 116.122 47.6301C115.979 47.429 115.813 47.3861 115.585 47.4305C113.291 47.8727 110.997 48.3105 108.703 48.7468C108.589 48.769 108.451 48.8474 108.362 48.7424C108.261 48.6241 108.368 48.4895 108.413 48.3726C109.253 46.2043 110.096 44.039 110.937 41.8722C111.158 41.2998 111.38 40.7288 111.601 40.1565C112.299 38.355 112.996 36.5535 113.692 34.7534C113.736 34.6395 113.767 34.5582 113.799 34.5035C113.879 34.3644 113.96 34.394 114.244 34.4961C115.045 34.783 115.888 34.8481 116.723 34.9161C117.588 34.9857 118.264 35.3096 118.759 36.0476C119.1 36.5579 119.483 37.0445 119.876 37.5163C121.056 38.9318 122.394 39.2616 124.099 38.5783C124.788 38.3017 125.471 38.0074 126.159 37.7293C126.536 37.577 126.914 37.571 127.309 37.7056C128.015 37.9438 128.674 38.2943 129.369 38.5591C130.289 38.9111 131.218 39.0812 132.175 38.6922C132.88 38.4052 133.382 37.8728 133.853 37.3019C134.286 36.7768 134.653 36.2 135.085 35.6719C135.405 35.2785 135.809 35.0862 136.285 34.999C137.164 34.8377 138.068 34.8392 138.937 34.5996C139.365 34.4813 139.539 34.4369 139.666 34.5686C139.752 34.6558 139.817 34.823 139.925 35.0995C141.335 38.7366 142.743 42.3736 144.152 46.0091C144.674 47.355 145.201 48.698 145.726 50.0425C145.754 50.1135 145.783 50.186 145.808 50.2584C145.902 50.5543 145.868 50.6001 145.566 50.5424Z" fill="#257E99"/>
<path d="M126.767 0C115.98 0 107.237 8.83887 107.237 19.7425C107.237 25.6144 109.772 30.8873 113.796 34.5021C117.094 37.4661 121.392 39.3164 126.115 39.4732C126.27 39.0739 126.425 38.673 126.58 38.2737C126.618 38.1761 126.628 38.0563 126.748 38.0075C126.848 38.0651 126.855 38.1731 126.89 38.2604C127.047 38.6656 127.205 39.0709 127.36 39.4762C132.07 39.3342 136.362 37.5061 139.663 34.5686C143.73 30.9509 146.295 25.6514 146.295 19.744C146.295 8.83888 137.552 0 126.767 0ZM133.938 22.0425C134.473 22.6282 134.258 23.5585 133.515 23.9327C133.307 24.0377 133.25 24.1058 133.421 24.3039C133.757 24.6915 133.805 25.1515 133.606 25.6055C133.394 26.0907 132.98 26.3525 132.459 26.3554C129.677 26.3717 126.892 26.4767 124.118 26.1424C123.859 26.1114 123.597 26.0788 123.337 26.0759C123.028 26.0729 122.956 25.9117 122.959 25.6321C122.969 24.5613 122.963 23.4919 122.963 22.4211C122.963 21.3503 122.971 20.2794 122.958 19.2086C122.955 18.9216 123.057 18.7708 123.338 18.7456C123.36 18.7427 123.38 18.7368 123.402 18.7353C124.599 18.6451 125.375 17.9928 125.891 16.9234C126.359 15.9502 126.925 15.0347 127.704 14.2656C128.07 13.9047 128.203 13.4181 128.213 12.9033C128.219 12.5498 128.207 12.1963 128.219 11.8429C128.23 11.4879 128.413 11.2986 128.762 11.2571C129.579 11.158 130.245 11.7201 130.233 12.5498C130.223 13.3219 130.343 14.0895 130.245 14.8646C130.192 15.2772 130.084 15.6618 129.913 16.033C129.853 16.1632 129.793 16.2948 129.752 16.4309C129.628 16.8317 129.743 16.9974 130.157 17.0003C131.162 17.0048 132.166 16.9959 133.171 17.0033C133.828 17.0092 134.289 17.3997 134.424 18.046C134.516 18.4898 134.361 18.8566 134.045 19.1479C133.865 19.3136 133.875 19.3949 134.065 19.5473C134.744 20.0931 134.716 21.0426 134.008 21.5529C133.786 21.7126 133.716 21.7984 133.938 22.0425ZM118.978 19.3491C118.979 18.7368 119.183 18.5267 119.775 18.5238C120.397 18.5208 121.019 18.5193 121.641 18.5253C122.081 18.5297 122.345 18.7693 122.346 19.2175C122.355 21.3562 122.355 23.4949 122.346 25.6351C122.345 26.0847 122.087 26.3199 121.639 26.3258C121.006 26.3332 120.374 26.3303 119.742 26.3273C119.203 26.3243 118.982 26.1084 118.981 25.5685C118.977 24.5214 118.979 23.4742 118.979 22.4255C118.979 22.4255 118.979 22.4255 118.978 22.4255C118.977 21.3991 118.975 20.3741 118.978 19.3491Z" fill="url(#paint6_linear)"/>
<path d="M144.196 22.749C143.973 22.1278 143.687 21.5302 143.439 20.9164C143.153 20.2109 143.074 19.495 143.319 18.7526C143.477 18.2689 143.697 17.8133 143.891 17.3445C144.145 16.7248 144.455 16.1213 144.436 15.3951C144.474 14.8064 144.227 14.3109 143.823 13.8716C143.327 13.3333 142.722 12.9339 142.135 12.5153C141.232 11.869 140.641 11.0526 140.546 9.9048C140.493 9.25697 140.407 8.61062 140.305 7.96871C140.125 6.84166 139.512 6.10805 138.376 5.86548C137.851 5.75307 137.324 5.66581 136.789 5.64067C135.477 5.5815 134.41 5.10081 133.664 3.9501C133.283 3.36291 132.872 2.78607 132.366 2.29207C131.791 1.73002 131.128 1.50373 130.329 1.68417C129.596 1.84983 128.925 2.17226 128.258 2.49618C127.133 3.04343 126.035 3.03456 124.922 2.47547C124.454 2.2403 123.965 2.04359 123.478 1.85279C122.247 1.37505 121.38 1.62205 120.536 2.63817C120.092 3.17063 119.708 3.74747 119.285 4.29472C118.78 4.94698 118.145 5.36556 117.329 5.5179C116.565 5.65989 115.788 5.67025 115.026 5.82703C113.763 6.08734 113.112 6.73221 112.91 8.01752C112.821 8.58252 112.758 9.15344 112.704 9.72436C112.604 10.7582 112.247 11.6471 111.383 12.2772C110.852 12.6647 110.331 13.067 109.819 13.4782C108.786 14.305 108.541 15.2176 108.979 16.4733C109.111 16.849 109.252 17.2202 109.437 17.5708C110.123 18.8812 110.28 20.1902 109.53 21.545C109.271 22.0124 109.092 22.5316 108.922 23.0433C108.601 24.018 108.767 24.8773 109.538 25.608C110.146 26.1863 110.857 26.6197 111.503 27.1462C112.173 27.692 112.537 28.3842 112.645 29.2288C112.736 29.9283 112.796 30.6324 112.91 31.329C113.051 32.1824 113.402 32.9116 114.25 33.2725C114.572 33.4101 114.909 33.5077 115.258 33.5535C115.788 33.6216 116.318 33.7029 116.85 33.7458C117.917 33.8316 118.754 34.2975 119.392 35.1746C119.844 35.7958 120.266 36.4407 120.805 36.9968C121.469 37.6831 122.242 37.8709 123.14 37.5914C123.631 37.439 124.122 37.2689 124.568 37.0175C125.936 36.2469 127.283 36.2499 128.65 37.019C129.068 37.2541 129.529 37.408 129.984 37.5633C130.942 37.8887 131.76 37.6949 132.46 36.9465C132.988 36.3815 133.405 35.7337 133.873 35.1243C134.451 34.3729 135.16 33.9011 136.114 33.7857C136.871 33.6926 137.635 33.6378 138.382 33.4707C139.534 33.2148 140.138 32.4679 140.308 31.3275C140.41 30.6413 140.482 29.9491 140.567 29.2598C140.676 28.3724 141.082 27.6535 141.781 27.1078C142.274 26.7232 142.78 26.3594 143.27 25.9719C144.464 25.0297 144.713 24.1896 144.196 22.749ZM141.529 19.7154C141.501 28.1387 134.675 34.8226 126.563 34.7309C118.603 34.7945 111.665 28.1919 111.69 19.6222C111.715 11.196 118.509 4.55799 126.657 4.58905C134.888 4.62011 141.556 11.375 141.529 19.7154Z" fill="#FFCF50"/>
<path d="M139.432 19.7025C139.483 12.8707 133.964 6.94705 126.808 6.92487C119.645 6.90268 114.088 12.813 114.083 19.7498C114.077 26.7576 119.783 32.6162 126.838 32.5777C133.863 32.5393 139.544 26.6526 139.432 19.7025ZM122.346 25.635C122.344 26.0846 122.087 26.3198 121.639 26.3257C121.006 26.3331 120.374 26.3302 119.742 26.3272C119.203 26.3242 118.982 26.1083 118.981 25.5684C118.976 24.5213 118.979 23.4741 118.979 22.4254C118.979 22.4254 118.979 22.4254 118.978 22.4254C118.978 21.4004 118.976 20.3755 118.978 19.349C118.979 18.7367 119.183 18.5266 119.775 18.5237C120.397 18.5207 121.019 18.5192 121.641 18.5251C122.081 18.5296 122.344 18.7692 122.346 19.2173C122.353 21.3561 122.355 23.4963 122.346 25.635ZM133.938 22.0424C134.473 22.6281 134.258 23.5584 133.515 23.9326C133.307 24.0376 133.25 24.1056 133.421 24.3038C133.756 24.6914 133.805 25.1513 133.606 25.6054C133.394 26.0905 132.98 26.3523 132.459 26.3553C129.677 26.3716 126.892 26.4766 124.118 26.1423C123.859 26.1113 123.597 26.0787 123.336 26.0758C123.028 26.0728 122.956 25.9116 122.959 25.632C122.969 24.5612 122.963 23.4918 122.963 22.421C122.963 21.3502 122.971 20.2793 122.958 19.2085C122.955 18.9215 123.057 18.7707 123.338 18.7455C123.36 18.7426 123.38 18.7367 123.402 18.7352C124.599 18.645 125.374 17.9927 125.891 16.9233C126.359 15.9501 126.925 15.0346 127.704 14.2655C128.069 13.9046 128.203 13.4179 128.213 12.9032C128.219 12.5497 128.207 12.1962 128.219 11.8427C128.23 11.4878 128.413 11.2985 128.761 11.257C129.579 11.1579 130.245 11.72 130.233 12.5497C130.223 13.3218 130.343 14.0894 130.245 14.8645C130.192 15.2771 130.084 15.6617 129.913 16.0329C129.853 16.1631 129.793 16.2947 129.752 16.4308C129.628 16.8316 129.743 16.9973 130.157 17.0002C131.162 17.0047 132.166 16.9958 133.171 17.0032C133.828 17.0091 134.289 17.3996 134.424 18.0459C134.516 18.4897 134.361 18.8565 134.045 19.1478C133.865 19.3135 133.875 19.3948 134.065 19.5472C134.744 20.093 134.716 21.0425 134.008 21.5528C133.786 21.7125 133.715 21.7983 133.938 22.0424Z" fill="url(#paint7_linear)"/>
<path d="M122.562 25.7155C122.56 26.1651 122.303 26.4003 121.855 26.4062C121.222 26.4136 120.589 26.4106 119.957 26.4077C119.419 26.4047 119.198 26.1888 119.197 25.6489C119.192 24.6017 119.195 23.5546 119.195 22.5059C119.195 22.5059 119.195 22.5059 119.194 22.5059C119.194 21.4809 119.192 20.4559 119.194 19.4295C119.195 18.8171 119.399 18.6071 119.991 18.6042C120.613 18.6012 121.235 18.5997 121.856 18.6056C122.297 18.6101 122.56 18.8497 122.562 19.2978C122.569 21.4366 122.57 23.5768 122.562 25.7155Z" fill="#257E99"/>
<path d="M134.154 22.1223C134.689 22.708 134.474 23.6384 133.731 24.0126C133.523 24.1176 133.466 24.1856 133.637 24.3838C133.972 24.7713 134.02 25.2313 133.822 25.6854C133.609 26.1705 133.195 26.4323 132.674 26.4353C129.893 26.4515 127.107 26.5565 124.333 26.2223C124.075 26.1912 123.813 26.1587 123.552 26.1557C123.244 26.1528 123.172 25.9915 123.175 25.712C123.185 24.6412 123.179 23.5718 123.179 22.501C123.179 21.4301 123.186 20.3593 123.173 19.2884C123.17 19.0015 123.273 18.8506 123.554 18.8255C123.576 18.8225 123.596 18.8166 123.618 18.8151C124.815 18.7249 125.59 18.0726 126.107 17.0033C126.575 16.0301 127.141 15.1145 127.919 14.3454C128.285 13.9845 128.418 13.4979 128.429 12.9832C128.434 12.6297 128.423 12.2762 128.434 11.9227C128.446 11.5677 128.629 11.3784 128.977 11.337C129.795 11.2379 130.461 11.7999 130.449 12.6297C130.439 13.4018 130.559 14.1694 130.461 14.9444C130.408 15.3571 130.3 15.7416 130.129 16.1129C130.069 16.243 130.009 16.3747 129.968 16.5108C129.843 16.9116 129.959 17.0772 130.373 17.0802C131.378 17.0846 132.382 17.0758 133.387 17.0832C134.044 17.0891 134.505 17.4795 134.639 18.1259C134.732 18.5696 134.576 18.9364 134.26 19.2278C134.08 19.3934 134.091 19.4748 134.281 19.6271C134.96 20.1729 134.932 21.1225 134.224 21.6327C134.001 21.7925 133.931 21.8783 134.154 22.1223Z" fill="#257E99"/>
</g>
<defs>
<linearGradient id="paint0_linear" x1="47.7399" y1="93.8972" x2="107.811" y2="93.8972" gradientUnits="userSpaceOnUse">
<stop stop-color="#FCB31E"/>
<stop offset="1" stop-color="#F0974C"/>
</linearGradient>
<linearGradient id="paint1_linear" x1="47.7022" y1="88.1448" x2="107.774" y2="88.1448" gradientUnits="userSpaceOnUse">
<stop stop-color="#FCB31E"/>
<stop offset="1" stop-color="#F0974C"/>
</linearGradient>
<linearGradient id="paint2_linear" x1="79.8961" y1="74.0224" x2="73.6179" y2="45.4666" gradientUnits="userSpaceOnUse">
<stop offset="8.3e-07" stop-color="#00BEC5"/>
<stop offset="1" stop-color="#00D89E"/>
</linearGradient>
<linearGradient id="paint3_linear" x1="78.3735" y1="70.4719" x2="79.2322" y2="44.1816" gradientUnits="userSpaceOnUse">
<stop offset="8.3e-07" stop-color="#00BEC5"/>
<stop offset="1" stop-color="#00D89E"/>
</linearGradient>
<linearGradient id="paint4_linear" x1="93.4018" y1="40.9728" x2="93.8184" y2="23.8952" gradientUnits="userSpaceOnUse">
<stop offset="8.3e-07" stop-color="#00BEC5"/>
<stop offset="1" stop-color="#00D89E"/>
</linearGradient>
<linearGradient id="paint5_linear" x1="64.7544" y1="41.5451" x2="65.1508" y2="25.7933" gradientUnits="userSpaceOnUse">
<stop offset="8.3e-07" stop-color="#00BEC5"/>
<stop offset="1" stop-color="#00D89E"/>
</linearGradient>
<linearGradient id="paint6_linear" x1="107.187" y1="19.7434" x2="146.271" y2="19.7434" gradientUnits="userSpaceOnUse">
<stop stop-color="#FCB31E"/>
<stop offset="1" stop-color="#F0974C"/>
</linearGradient>
<linearGradient id="paint7_linear" x1="114.05" y1="19.7548" x2="141.047" y2="43.048" gradientUnits="userSpaceOnUse">
<stop stop-color="#FAD930"/>
<stop offset="1" stop-color="#F0974C"/>
</linearGradient>
<clipPath id="clip0">
<rect width="162" height="144" fill="white" transform="translate(0.5)"/>
</clipPath>
</defs>
</svg>
