<svg width="122" height="122" viewBox="0 0 122 122" fill="none" xmlns="http://www.w3.org/2000/svg">
<g clip-path="url(#clip0)">
<rect width="122" height="122" fill="url(#paint0_linear)"/>
<path d="M83.1295 -23.5861L-0.040514 6.18047C-22.4838 14.2718 -34.1378 39.0576 -26.0803 61.54L-22.0908 72.6434L-15.4482 91.1688L12.5961 169.306C12.5961 169.306 20.8306 124.085 67.9576 107.115L122.985 87.4874C145.428 79.396 157.082 54.6102 149.025 32.1278L138.393 2.49902C130.315 -19.9834 105.573 -31.6578 83.1295 -23.5861Z" fill="url(#paint1_linear)"/>
<path d="M62.482 -6.7438L-1.61716 16.1973C-18.9142 22.4333 -27.896 41.5357 -21.686 58.863L-18.6113 67.4204L-13.4919 81.6979L8.12191 141.918C8.12191 141.918 14.4682 107.067 50.789 93.9878L93.1987 78.8606C110.496 72.6246 119.478 53.5222 113.268 36.195L105.073 13.36C98.8483 -3.96719 79.7791 -12.9646 62.482 -6.7438Z" fill="url(#paint2_linear)"/>
<path d="M49.4015 9.69001L2.00087 26.6547C-10.7901 31.2661 -17.432 45.3922 -12.8398 58.2055L-10.5661 64.5336L-6.78033 75.0916L9.2028 119.624C9.2028 119.624 13.8958 93.8515 40.7547 84.1799L72.1161 72.9935C84.9071 68.382 91.549 54.256 86.9568 41.4427L80.8973 24.5566C76.2939 11.7433 62.1925 5.08979 49.4015 9.69001Z" fill="url(#paint3_linear)"/>
<path d="M39.6919 57.4506H39.5233L38.3709 60.0645L36.038 65.2362C35.8319 65.7234 35.6164 66.0513 35.3916 66.22C35.1854 66.3886 34.8669 66.4729 34.4359 66.4729H32.89C32.4216 66.4729 32.0937 66.3886 31.9063 66.22C31.7376 66.0513 31.5409 65.7234 31.316 65.2362L29.5734 61.5823L27.8308 57.7879H27.6621V68.2156C27.6621 68.4779 27.6153 68.6372 27.5216 68.6934C27.4279 68.7496 27.2593 68.7777 27.0157 68.7777H24.1488C23.9426 68.7777 23.7834 68.7496 23.6709 68.6934C23.5585 68.6372 23.5023 68.4779 23.5023 68.2156V51.0422C23.5023 50.3302 23.6335 49.8242 23.8958 49.5244C24.1769 49.2246 24.6453 49.0747 25.3011 49.0747H26.9313C27.456 49.0747 27.8401 49.1778 28.0837 49.3839C28.3461 49.5713 28.5897 49.9085 28.8145 50.3957L31.8782 57.2538L33.6208 61.245H33.7332L35.6445 56.8603L38.5114 50.452C38.7363 49.946 38.9799 49.59 39.2422 49.3839C39.5233 49.1778 39.9636 49.0747 40.5632 49.0747H41.9405C42.5401 49.0747 42.9898 49.2059 43.2896 49.4682C43.5894 49.7118 43.7393 50.1896 43.7393 50.9017V68.2156C43.7393 68.4779 43.6925 68.6372 43.5988 68.6934C43.5051 68.7496 43.3365 68.7777 43.0929 68.7777H40.3103C40.1042 68.7777 39.9449 68.7496 39.8325 68.6934C39.7388 68.6372 39.6919 68.4779 39.6919 68.2156V57.4506ZM52.2309 68.1875C52.2309 68.4498 52.1841 68.6184 52.0904 68.6934C52.0154 68.7496 51.8374 68.7777 51.5564 68.7777H48.6051C48.3803 68.7777 48.2116 68.7402 48.0992 68.6653C48.0055 68.5716 47.9587 68.4123 47.9587 68.1875V50.7892C47.9587 50.2646 48.0711 49.8523 48.296 49.5525C48.5208 49.234 48.9705 49.0747 49.6451 49.0747H56.5313C57.5432 49.0747 58.4519 49.234 59.2577 49.5525C60.0822 49.8523 60.7755 50.2739 61.3376 50.8173C61.9185 51.3607 62.3588 52.0072 62.6586 52.7567C62.9584 53.5062 63.1083 54.3307 63.1083 55.2301C63.1083 55.7173 63.0334 56.3263 62.8835 57.0571C62.7336 57.7691 62.4057 58.4718 61.8997 59.1651C61.4126 59.8397 60.6911 60.4206 59.7355 60.9078C58.7986 61.3949 57.5432 61.6385 55.9692 61.6385H52.2309V68.1875ZM58.6955 55.5112C58.6955 55.2489 58.6581 54.9678 58.5831 54.668C58.5082 54.3495 58.3583 54.059 58.1334 53.7967C57.9273 53.5156 57.6368 53.2908 57.2621 53.1221C56.9061 52.9347 56.447 52.841 55.8848 52.841H52.2309V58.1814H55.9129C56.8686 58.1814 57.5713 57.9284 58.021 57.4225C58.4707 56.8978 58.6955 56.2607 58.6955 55.5112ZM80.5503 62.3693C80.5503 63.4749 80.3441 64.4492 79.9319 65.2924C79.5384 66.1357 78.9856 66.8383 78.2736 67.4005C77.5803 67.9626 76.7558 68.3936 75.8002 68.6934C74.8445 68.9745 73.8233 69.115 72.7365 69.115C71.5186 69.115 70.3006 68.9932 69.0826 68.7496C67.8834 68.4873 66.7497 67.9251 65.6817 67.0632C65.4193 66.8571 65.3631 66.6322 65.513 66.3886C65.588 66.2762 65.691 66.1169 65.8222 65.9108C65.9534 65.7047 66.0845 65.4892 66.2157 65.2643C66.3656 65.0395 66.5061 64.8334 66.6373 64.646C66.7685 64.4399 66.8715 64.2806 66.9465 64.1682C67.0776 63.9808 67.2088 63.8965 67.34 63.9152C67.4899 63.9152 67.6773 63.9902 67.9021 64.1401C68.5954 64.6272 69.3356 64.9739 70.1226 65.18C70.9283 65.3861 71.6872 65.4892 72.3992 65.4892C73.6734 65.4892 74.6478 65.2269 75.3224 64.7022C76.0157 64.1588 76.3623 63.4186 76.3623 62.4817C76.3623 61.6011 76.0719 60.9359 75.491 60.4861C74.9101 60.0364 74.1981 59.8116 73.3549 59.8116C72.9426 59.8116 72.5772 59.8397 72.2587 59.8959C71.9402 59.9521 71.631 60.0271 71.3312 60.1208C71.0501 60.1957 70.769 60.2988 70.488 60.4299C70.2069 60.5424 69.9165 60.6642 69.6166 60.7953C69.3918 60.889 69.1295 60.9546 68.8297 60.9921C68.5298 61.0108 68.2488 60.9733 67.9864 60.8796L67.0027 60.5986C66.5717 60.4487 66.2813 60.2519 66.1314 60.0083C66.0002 59.746 65.9534 59.3993 65.9908 58.9684L66.7216 51.9416C66.7966 51.2108 67.0121 50.6862 67.3681 50.3676C67.7241 50.0303 68.2019 49.8617 68.8015 49.8617H78.6109C78.8545 49.8617 79.0138 49.8898 79.0887 49.946C79.1824 50.0022 79.2292 50.1802 79.2292 50.4801V52.7005C79.2292 52.9441 79.1824 53.1127 79.0887 53.2064C78.995 53.2814 78.8357 53.3189 78.6109 53.3189H70.4036L69.982 56.9728C70.6004 56.7667 71.2281 56.6355 71.8652 56.5793C72.5023 56.5043 73.1019 56.4668 73.6641 56.4668C74.6572 56.4668 75.5753 56.6074 76.4185 56.8885C77.2617 57.1508 77.9832 57.5349 78.5828 58.0408C79.2011 58.5468 79.6789 59.1651 80.0162 59.8959C80.3723 60.6267 80.5503 61.4512 80.5503 62.3693ZM90.9589 62.032L87.5579 68.1312C87.3893 68.3936 87.23 68.5716 87.0801 68.6653C86.9302 68.7402 86.6772 68.7777 86.3212 68.7777H82.864C82.6954 68.7777 82.583 68.7215 82.5268 68.6091C82.4893 68.4779 82.508 68.3467 82.583 68.2156L88.5698 58.5468L83.0889 49.6087C82.9952 49.4963 82.9765 49.3839 83.0327 49.2715C83.0889 49.1403 83.2201 49.0747 83.4262 49.0747H86.7147C87.0895 49.0747 87.3424 49.1122 87.4736 49.1871C87.6235 49.2621 87.7734 49.4307 87.9233 49.6931L91.0151 55.1739L94.0787 49.6931C94.2286 49.4307 94.3692 49.2621 94.5003 49.1871C94.6502 49.1122 94.9126 49.0747 95.2873 49.0747H98.5196C98.7258 49.0747 98.8476 49.1403 98.885 49.2715C98.9412 49.3839 98.9225 49.5057 98.8288 49.6368L93.4042 58.5187L99.391 68.2156C99.4659 68.3467 99.4753 68.4779 99.4191 68.6091C99.3628 68.7215 99.2598 68.7777 99.1099 68.7777H95.5965C95.2592 68.7777 95.0063 68.7402 94.8376 68.6653C94.6877 68.5716 94.5378 68.3936 94.3879 68.1312L90.9589 62.032Z" fill="white"/>
</g>
<defs>
<linearGradient id="paint0_linear" x1="26.0267" y1="-9.46133e-07" x2="66.6614" y2="81.6575" gradientUnits="userSpaceOnUse">
<stop stop-color="#EF0134"/>
<stop offset="1" stop-color="#D7002E"/>
</linearGradient>
<linearGradient id="paint1_linear" x1="9.81216" y1="-26.1429" x2="78.0289" y2="100.253" gradientUnits="userSpaceOnUse">
<stop stop-color="#DA0532"/>
<stop offset="1" stop-color="#CA042F"/>
</linearGradient>
<linearGradient id="paint2_linear" x1="5.9763" y1="-8.7143" x2="58.551" y2="88.6994" gradientUnits="userSpaceOnUse">
<stop stop-color="#AF0026"/>
<stop offset="1" stop-color="#BD0029"/>
</linearGradient>
<linearGradient id="paint3_linear" x1="7.61615" y1="8.23285" x2="46.4945" y2="80.2691" gradientUnits="userSpaceOnUse">
<stop stop-color="#91001F"/>
<stop offset="1" stop-color="#A70024"/>
</linearGradient>
<clipPath id="clip0">
<rect width="122" height="122" fill="white"/>
</clipPath>
</defs>
</svg>
