<svg width="201" height="201" viewBox="0 0 201 201" fill="none" xmlns="http://www.w3.org/2000/svg">
<path d="M100.399 200.6C155.628 200.6 200.399 155.829 200.399 100.6C200.399 45.3716 155.628 0.600098 100.399 0.600098C45.1709 0.600098 0.399414 45.3716 0.399414 100.6C0.399414 155.829 45.1709 200.6 100.399 200.6Z" fill="#EE0033"/>
<path d="M55.5996 116.4V53.6002C55.5996 51.7002 57.0995 50.2002 58.9995 50.2002H151.1C153 50.2002 154.5 51.7002 154.5 53.6002V116.4H55.5996Z" fill="#EE8FA3"/>
<path d="M41.5996 142.4L55.6996 116.4H154.6L168.7 142.4H41.5996Z" fill="white"/>
<path d="M150.5 54.2002H59.5996V112.4H150.5V54.2002Z" fill="white"/>
<g opacity="0.2">
<path opacity="0.2" d="M108.2 77.0001C108.9 77.0001 109.4 77.5001 109.4 78.2001C109.4 78.9001 108.9 79.4001 108.2 79.4001C107.5 79.4001 107 78.9001 107 78.2001C107 77.5001 107.5 77.0001 108.2 77.0001ZM108.2 76.6001C107.3 76.6001 106.6 77.3001 106.6 78.2001C106.6 79.1001 107.3 79.8 108.2 79.8C109.1 79.8 109.8 79.1001 109.8 78.2001C109.8 77.3001 109.1 76.6001 108.2 76.6001Z" fill="#EE0033"/>
<path opacity="0.2" d="M108.399 64.0001C109.799 64.0001 110.799 64.3001 111.599 65.0001C112.399 65.7001 112.699 66.6 112.699 67.8C112.699 68.9 112.199 70.0001 111.199 71.0001L109.899 72.3C109.899 72.3 109.899 72.3001 109.799 72.4001C109.399 72.9001 109.099 73.6001 108.999 74.5001C108.999 74.6001 108.899 74.6001 108.899 74.6001H107.499C107.399 74.6001 107.399 74.6001 107.399 74.5001C107.399 74.5001 107.399 74.5001 107.399 74.4001C107.399 73.7001 107.499 73.2 107.699 72.8C107.899 72.3 108.399 71.7001 108.999 71.0001C109.699 70.3001 110.199 69.8001 110.399 69.5001C110.699 69.0001 110.899 68.4 110.899 67.8C110.899 67 110.699 66.4001 110.299 66.0001C109.899 65.6001 109.299 65.3 108.499 65.3C107.799 65.3 107.199 65.5001 106.699 65.9001C106.399 66.2001 106.099 66.6001 105.999 67.1001C105.999 67.2001 105.899 67.2001 105.899 67.2001H104.299C104.199 67.2001 104.199 67.2001 104.199 67.1001C104.199 67.1001 104.199 67.1001 104.199 67.0001C104.299 66.1001 104.699 65.4 105.299 64.8C105.999 64.3 107.099 64.0001 108.399 64.0001ZM108.399 63.6001C106.999 63.6001 105.799 64.0001 104.999 64.7001C104.299 65.3001 103.799 66.2001 103.699 67.2001C103.699 67.5001 103.899 67.8 104.199 67.8H105.799C105.999 67.8 106.299 67.6001 106.299 67.4001C106.399 67.0001 106.499 66.7001 106.799 66.4001C107.199 66.1001 107.699 65.9001 108.299 65.9001C108.999 65.9001 109.499 66.1001 109.799 66.4001C110.099 66.8001 110.299 67.3001 110.299 68.0001C110.299 68.5001 110.199 69.0001 109.899 69.4001C109.699 69.7001 109.299 70.2001 108.599 70.9001C107.899 71.6001 107.399 72.2 107.199 72.8C106.999 73.3 106.899 73.8001 106.899 74.6001C106.899 74.7001 106.899 74.7 106.899 74.8C106.899 74.9 106.999 74.9001 106.999 75.0001C106.999 75.1001 107.099 75.1001 107.199 75.1001C107.299 75.1001 107.299 75.1001 107.399 75.1001H108.799C109.099 75.1001 109.299 74.9001 109.299 74.6001C109.399 73.8001 109.599 73.2001 109.999 72.7001L111.299 71.4001C112.399 70.3001 112.999 69.1001 112.999 67.9001C112.999 66.6001 112.599 65.5 111.799 64.8C110.999 64.1 109.799 63.6001 108.399 63.6001Z" fill="#EE0033"/>
</g>
<path d="M101.1 79.8C102 79.8 102.7 79.1001 102.7 78.2001C102.7 77.3001 102 76.6001 101.1 76.6001C100.2 76.6001 99.5 77.3001 99.5 78.2001C99.5 79.1001 100.2 79.8 101.1 79.8Z" fill="#EE0033"/>
<path d="M101.9 75.5001H100.2C99.9001 75.5001 99.7001 75.3001 99.7001 75.0001L99.5 64.2001C99.5 63.9001 99.7 63.6001 100 63.6001H102.2C102.5 63.6001 102.8 63.8001 102.7 64.2001L102.5 75.0001C102.5 75.3001 102.2 75.5001 101.9 75.5001Z" fill="#EE0033"/>
<path fill-rule="evenodd" clip-rule="evenodd" d="M106.8 74.5002C106.8 74.8002 107 75.1002 107.3 75.1002H108.7C109 75.1002 109.2 74.9002 109.2 74.6002C109.3 73.8002 109.5 73.2002 109.9 72.7002L111.2 71.4003C112.3 70.3003 112.9 69.1003 112.9 67.9003C112.9 66.6003 112.5 65.5002 111.7 64.8002C110.9 64.1002 109.7 63.7002 108.3 63.7002C106.9 63.7002 105.7 64.1002 104.9 64.8002C104.2 65.4002 103.7 66.3002 103.6 67.3002C103.6 67.6002 103.8 67.9003 104.1 67.9003H105.7C105.9 67.9003 106.2 67.7002 106.2 67.5002C106.3 67.1002 106.4 66.8002 106.7 66.5002C107.1 66.2002 107.6 66.0002 108.2 66.0002C108.9 66.0002 109.4 66.2002 109.7 66.5002C110 66.9002 110.2 67.4002 110.2 68.1002C110.2 68.6002 110.1 69.1002 109.8 69.5002C109.6 69.8002 109.2 70.3002 108.5 71.0002C107.8 71.7002 107.3 72.3003 107.1 72.9003C107 73.2003 106.9 73.7002 106.8 74.5002ZM109.8 78.2002C109.8 79.1002 109.1 79.8002 108.2 79.8002C107.3 79.8002 106.6 79.1002 106.6 78.2002C106.6 77.3002 107.3 76.6002 108.2 76.6002C109.1 76.6002 109.8 77.3002 109.8 78.2002Z" fill="#EE0033"/>
<path opacity="0.2" fill-rule="evenodd" clip-rule="evenodd" d="M102.3 64.0001C102.3 64.0001 102.2 64.0001 102.3 64.0001H100H99.9C99.9 64.0001 99.9 64.0001 99.9 64.1001L100.1 74.9001C100.1 75.0001 100.2 75.0001 100.2 75.0001H101.9C102 75.0001 102 74.9001 102 74.9001L102.3 64.0001C102.3 64.1001 102.3 64.0001 102.3 64.0001ZM100 63.6001H102.2C102.5 63.6001 102.8 63.8001 102.7 64.2001L102.5 75.0001C102.5 75.3001 102.3 75.5001 101.9 75.5001H100.2C99.9001 75.5001 99.7001 75.3001 99.7001 75.0001L99.5 64.2001C99.5 63.8001 99.7 63.6001 100 63.6001ZM102.3 78.2001C102.3 77.5001 101.7 77.0001 101.1 77.0001C100.4 77.0001 99.9 77.5001 99.9 78.2001C99.9 78.9001 100.4 79.4001 101.1 79.4001C101.8 79.4001 102.3 78.9001 102.3 78.2001ZM99.5 78.2001C99.5 77.3001 100.2 76.6001 101.1 76.6001C102 76.6001 102.7 77.3001 102.7 78.2001C102.7 79.1001 102 79.8 101.1 79.8C100.2 79.8 99.5 79.1001 99.5 78.2001Z" fill="#EE0033"/>
<path d="M41.5996 142.4H168.6V147.7C168.6 149.6 167.1 151.1 165.2 151.1H44.9995C43.0995 151.1 41.5996 149.6 41.5996 147.7V142.4Z" fill="#EE8FA3"/>
<path d="M118.6 136.4H91.5L96 128.1H114.1L118.6 136.4Z" fill="#EE8FA3"/>
<path d="M81.1995 98.2002C80.4995 98.2002 79.8994 98.8002 79.8994 99.5002C79.8994 100.2 80.4995 100.8 81.1995 100.8C81.8995 100.8 82.4994 100.2 82.4994 99.5002C82.4994 98.7002 81.8995 98.2002 81.1995 98.2002Z" fill="#EE0033"/>
<path d="M88.4994 90.3003L87.4994 91.7003C85.7994 90.4003 83.5994 89.6004 81.3994 89.5004H81.1995C78.8995 89.5004 76.5994 90.3003 74.8994 91.7003L73.8994 90.3003L74.1995 90.1003C76.1995 88.7003 78.6995 87.9004 81.1995 87.9004C83.4995 87.9004 86.0994 88.6003 88.4994 90.3003Z" fill="#EE8FA3"/>
<path d="M86.5 93.1003L85.5 94.5004C84.4 93.5004 82.8001 93.0004 81.2001 93.0004C79.7001 93.0004 78.1 93.5004 77 94.5004L76 93.1003L76.3 92.9004C77.7 91.9004 79.6 91.3003 81.3 91.3003C83 91.3003 84.8001 91.8004 86.2001 92.9004L86.5 93.1003Z" fill="#EE8FA3"/>
<path d="M84.3994 95.9003L83.3994 97.3002C82.8994 96.8002 81.9994 96.5002 81.3994 96.5002C81.2994 96.5002 81.2995 96.5002 81.1995 96.5002C80.4995 96.5002 79.4994 96.8002 78.8994 97.3002L77.8994 95.9003L78.1995 95.6002C78.9995 95.0002 80.0995 94.7002 81.0995 94.7002C82.1995 94.7002 83.3994 95.1003 84.3994 95.9003Z" fill="#EE0033"/>
<path d="M105.3 98.2002C104.6 98.2002 104 98.8003 104 99.4003C104 100.1 104.6 100.7 105.3 100.7C106 100.7 106.5 100.1 106.5 99.4003C106.5 98.7003 106 98.2002 105.3 98.2002Z" fill="#EE0033"/>
<path d="M112.399 90.6002L111.399 92.0002C109.799 90.7002 107.599 90.0003 105.499 89.9003H105.299C103.099 89.9003 100.899 90.7002 99.1992 92.0002L98.1992 90.6002L98.4991 90.4003C100.399 89.0003 102.899 88.2002 105.299 88.2002C107.599 88.2002 110.099 88.9002 112.399 90.6002Z" fill="#EE0033"/>
<path d="M110.4 93.3L109.4 94.7001C108.3 93.8001 106.7 93.2001 105.2 93.2001C103.7 93.2001 102.2 93.8001 101.1 94.7001L100.1 93.3L100.4 93.1001C101.8 92.1001 103.6 91.6001 105.2 91.6001C106.8 91.6001 108.6 92.1001 110 93.1001L110.4 93.3Z" fill="#EE0033"/>
<path d="M108.5 96.0004L107.5 97.4004C107 96.9004 106.2 96.6003 105.5 96.6003C105.4 96.6003 105.4 96.6003 105.3 96.6003C104.6 96.6003 103.7 96.9004 103.1 97.4004L102.1 96.0004L102.4 95.8003C103.2 95.2003 104.3 94.9004 105.3 94.9004C106.3 94.9004 107.4 95.2004 108.5 96.0004Z" fill="#EE0033"/>
<path d="M129.399 98.2002C128.699 98.2002 128.199 98.8003 128.199 99.4003C128.199 100.1 128.799 100.7 129.399 100.7C130.099 100.7 130.599 100.1 130.599 99.4003C130.599 98.7003 130.099 98.2002 129.399 98.2002Z" fill="#EE0033"/>
<path d="M136.5 90.6002L135.5 92.0002C133.9 90.7002 131.7 90.0003 129.6 89.9003H129.4C127.2 89.9003 125 90.7002 123.3 92.0002L122.3 90.6002L122.6 90.4003C124.5 89.0003 127 88.2002 129.4 88.2002C131.7 88.2002 134.2 88.9002 136.5 90.6002Z" fill="#EE0033"/>
<path d="M134.499 93.3L133.499 94.7001C132.399 93.8001 130.799 93.2001 129.299 93.2001C127.799 93.2001 126.299 93.8001 125.199 94.7001L124.199 93.3L124.499 93.1001C125.899 92.1001 127.699 91.6001 129.299 91.6001C130.899 91.6001 132.699 92.1001 134.099 93.1001L134.499 93.3Z" fill="#EE0033"/>
<path d="M132.599 96.0004L131.599 97.4004C131.099 96.9004 130.299 96.6003 129.599 96.6003C129.499 96.6003 129.499 96.6003 129.399 96.6003C128.699 96.6003 127.799 96.9004 127.199 97.4004L126.199 96.0004L126.499 95.8003C127.299 95.2003 128.399 94.9004 129.399 94.9004C130.399 94.9004 131.499 95.2004 132.599 96.0004Z" fill="#EE0033"/>
</svg>
