<svg width="64" height="44" viewBox="0 0 64 44" fill="none" xmlns="http://www.w3.org/2000/svg">
<rect width="59.9849" height="22.4542" rx="4" transform="matrix(0.921389 -0.388641 0.388815 0.921316 0 23.3126)" fill="#EE0033"/>
<path d="M23.9847 19.5071L27.7876 28.5391L26.0855 29.2587L24.4122 25.2846L19.7184 27.2689L21.3917 31.243L19.6896 31.9626L15.8866 22.9306L17.5887 22.211L19.1479 25.9141L23.8417 23.9298L22.2825 20.2266L23.9847 19.5071ZM29.8606 16.9014C30.7375 16.5307 31.4843 16.296 32.101 16.1974C32.7178 16.0988 33.2938 16.1441 33.8291 16.3332C34.3645 16.5224 34.8388 16.8792 35.252 17.4037C35.6617 17.9195 36.0602 18.6377 36.4478 19.5581C36.8353 20.4785 37.0724 21.27 37.159 21.9326C37.2419 22.5866 37.1642 23.1717 36.9259 23.6879C36.6875 24.2041 36.3179 24.6491 35.8171 25.023C35.3162 25.3969 34.6274 25.7691 33.7505 26.1398C32.8823 26.5069 32.1398 26.7397 31.523 26.8383C30.9063 26.9369 30.3302 26.8917 29.7949 26.7025C29.2595 26.5134 28.7871 26.1609 28.3774 25.645C27.9642 25.1205 27.5638 24.3981 27.1763 23.4777C26.7887 22.5573 26.5535 21.7701 26.4705 21.1161C26.3839 20.4535 26.4598 19.8641 26.6982 19.3479C26.9365 18.8317 27.3061 18.3866 27.807 18.0128C28.3078 17.6389 28.9924 17.2684 29.8606 16.9014ZM28.4312 19.892C28.224 20.5065 28.3903 21.4546 28.93 22.7363C29.4696 24.018 30.0314 24.7989 30.6151 25.079C31.2075 25.3555 32.0625 25.2575 33.1801 24.785C34.2976 24.3126 34.9643 23.7673 35.18 23.1492C35.3957 22.5311 35.2337 21.5812 34.6941 20.2995C34.1544 19.0178 33.5884 18.2387 32.996 17.9622C32.4036 17.6857 31.5486 17.7837 30.4311 18.2562C29.3135 18.7286 28.6469 19.2739 28.4312 19.892ZM43.695 21.8142L41.9928 22.5338L38.7603 14.8566L35.24 16.3448L34.6695 14.99L43.4252 11.2885L43.9957 12.6433L40.4624 14.137L43.695 21.8142Z" fill="white"/>
<ellipse rx="1.98486" ry="1.97589" transform="matrix(0.810146 -0.586228 0.588199 0.808716 11.3933 37.6375)" fill="white"/>
</svg>
