<svg width="203" height="203" viewBox="0 0 203 203" fill="none" xmlns="http://www.w3.org/2000/svg">
<path d="M101.1 202.7C156.936 202.7 202.2 157.436 202.2 101.6C202.2 45.764 156.936 0.5 101.1 0.5C45.264 0.5 0 45.764 0 101.6C0 157.436 45.264 202.7 101.1 202.7Z" fill="#EE0033"/>
<path d="M44.6 131.5L43.6 100.2C43.6 99.2 42.8 98.5 41.8 98.5C40.8 98.5 40.1 99.3 40 100.2L39 131.5L41.8 132.7L44.6 131.5Z" fill="#454D58"/>
<path d="M88.1 131.5L87.1 100.2C87.1 99.2 86.3 98.5 85.3 98.5C84.3 98.5 83.6 99.3 83.5 100.2L82.5 131.5L85.3 132.7L88.1 131.5Z" fill="#454D58"/>
<path d="M38.9004 133.8L41.8004 135L44.7004 133.8L44.6004 131.5H39.0004L38.9004 133.8Z" fill="#3C434C"/>
<path d="M82.4004 133.8L85.3004 135L88.2004 133.8L88.1004 131.5H82.5004L82.4004 133.8Z" fill="#3C434C"/>
<path d="M34.0004 145.9H93.1004C95.7004 145.9 95.7004 143.6 95.7004 142.1V136.3C95.7004 134.9 94.5004 133.7 93.1004 133.7H34.0004C32.6004 133.7 31.4004 134.9 31.4004 136.3V142.1C31.4004 143.6 31.4004 145.9 34.0004 145.9Z" fill="#F0F0F0"/>
<path d="M93.1004 144.8H34.0004C32.6004 144.8 31.4004 143.6 31.4004 142.2V144.5C31.4004 145.9 32.6004 147.1 34.0004 147.1H93.1004C94.5004 147.1 95.7004 145.9 95.7004 144.5V142.2C95.7004 143.6 94.5004 144.8 93.1004 144.8Z" fill="#EE8FA3"/>
<path d="M37.9004 141.6C37.4004 141.6 36.9004 142 36.9004 142.6C36.9004 143.2 37.3004 143.6 37.9004 143.6H41.0004C41.5004 143.6 42.0004 143.2 42.0004 142.6C42.0004 142 41.6004 141.6 41.0004 141.6H37.9004Z" fill="#FFBF00"/>
<path d="M48.3002 141.6H45.2002C44.7002 141.6 44.2002 142 44.2002 142.6C44.2002 143.2 44.6002 143.6 45.2002 143.6H48.3002C48.8002 143.6 49.3002 143.2 49.3002 142.6C49.3002 142 48.9002 141.6 48.3002 141.6Z" fill="#FFBF00"/>
<path d="M52.5996 141.6C52.0996 141.6 51.5996 142 51.5996 142.6C51.5996 143.2 51.9996 143.6 52.5996 143.6H55.6996C56.1996 143.6 56.6996 143.2 56.6996 142.6C56.6996 142 56.2996 141.6 55.6996 141.6H52.5996Z" fill="#FFBF00"/>
<path d="M59.9004 141.6C59.4004 141.6 58.9004 142 58.9004 142.6C58.9004 143.2 59.3004 143.6 59.9004 143.6H63.0004C63.5004 143.6 64.0004 143.2 64.0004 142.6C64.0004 142 63.6004 141.6 63.0004 141.6H59.9004Z" fill="#FFBF00"/>
<path d="M82.0004 143.6C82.5004 143.6 83.0004 143.2 83.0004 142.6C83.0004 142 82.6004 141.6 82.0004 141.6H78.9004C78.4004 141.6 77.9004 142 77.9004 142.6C77.9004 143.2 78.3004 143.6 78.9004 143.6H82.0004Z" fill="#DF667C"/>
<path d="M89.1996 143.6C89.6996 143.6 90.1996 143.2 90.1996 142.6C90.1996 142 89.7996 141.6 89.1996 141.6H86.0996C85.5996 141.6 85.0996 142 85.0996 142.6C85.0996 143.2 85.4996 143.6 86.0996 143.6H89.1996Z" fill="#FFBF00"/>
<path d="M51.6 113.5C58.2 106.9 68.9 106.9 75.5 113.5C75.7 113.7 75.9 113.8 76.2 113.8C76.4 113.8 76.7 113.7 76.9 113.5C77.3 113.1 77.3 112.5 76.9 112.1C69.6 104.8 57.6 104.8 50.3 112.1C49.9 112.5 49.9 113.1 50.3 113.5C50.6 113.8 51.2 113.8 51.6 113.5Z" fill="white"/>
<path d="M73.0997 117.2C73.4997 116.8 73.4997 116.2 73.0997 115.8C67.7997 110.5 59.1998 110.5 53.8998 115.8C53.5998 116.1 53.4998 116.6 53.6998 116.9C53.8998 117.2 54.1997 117.4 54.5997 117.4C54.6997 117.4 54.8998 117.4 54.9998 117.3C55.0998 117.2 55.1998 117.2 55.2998 117.1C59.7998 112.6 67.1998 112.6 71.7998 117.1C72.0998 117.5 72.7997 117.5 73.0997 117.2Z" fill="white"/>
<path d="M68.8002 121.1C69.0002 121.1 69.3002 121 69.5002 120.8C69.9002 120.4 69.9002 119.8 69.5002 119.4C67.9002 117.8 65.8002 116.9 63.5002 116.9C61.2002 116.9 59.1002 117.8 57.5002 119.4C57.1002 119.8 57.1002 120.4 57.5002 120.8C57.9002 121.2 58.5002 121.2 58.9002 120.8C60.1002 119.6 61.8002 118.9 63.5002 118.9C65.2002 118.9 66.9002 119.6 68.1002 120.8C68.3002 121 68.6002 121.1 68.8002 121.1Z" fill="white"/>
<path d="M60.7004 122.6C60.5004 122.8 60.4004 123 60.4004 123.3C60.4004 124.2 61.5004 124.6 62.1004 124C62.5004 123.6 63.0004 123.4 63.5004 123.4C64.0004 123.4 64.6004 123.6 64.9004 124C65.8004 124.9 67.2004 123.6 66.3004 122.6C64.8004 121 62.3004 121 60.7004 122.6Z" fill="white"/>
<path d="M119.1 131.5L118.1 100.2C118.1 99.2 117.3 98.5 116.3 98.5C115.3 98.5 114.6 99.3 114.5 100.2L113.5 131.5L116.3 132.7L119.1 131.5Z" fill="#454D58"/>
<path d="M162.6 131.5L161.6 100.2C161.6 99.2 160.8 98.5 159.8 98.5C158.8 98.5 158.1 99.3 158 100.2L157 131.5L159.8 132.7L162.6 131.5Z" fill="#454D58"/>
<path d="M113.4 133.8L116.3 135L119.2 133.8L119.1 131.5H113.5L113.4 133.8Z" fill="#3C434C"/>
<path d="M156.9 133.8L159.8 135L162.7 133.8L162.6 131.5H157L156.9 133.8Z" fill="#3C434C"/>
<path d="M108.5 145.9H167.6C170.2 145.9 170.2 143.6 170.2 142.1V136.3C170.2 134.9 169 133.7 167.6 133.7H108.5C107.1 133.7 105.9 134.9 105.9 136.3V142.1C105.9 143.6 105.9 145.9 108.5 145.9Z" fill="#F0F0F0"/>
<path d="M167.6 144.8H108.5C107.1 144.8 105.9 143.6 105.9 142.2V144.5C105.9 145.9 107.1 147.1 108.5 147.1H167.6C169 147.1 170.2 145.9 170.2 144.5V142.2C170.2 143.6 169 144.8 167.6 144.8Z" fill="#EE8FA3"/>
<path d="M112.4 141.6C111.9 141.6 111.4 142 111.4 142.6C111.4 143.2 111.8 143.6 112.4 143.6H115.5C116 143.6 116.5 143.2 116.5 142.6C116.5 142 116.1 141.6 115.5 141.6H112.4Z" fill="#FFBF00"/>
<path d="M122.9 141.6H119.8C119.3 141.6 118.8 142 118.8 142.6C118.8 143.2 119.2 143.6 119.8 143.6H122.9C123.4 143.6 123.9 143.2 123.9 142.6C123.9 142 123.4 141.6 122.9 141.6Z" fill="#FFBF00"/>
<path d="M127.1 141.6C126.6 141.6 126.1 142 126.1 142.6C126.1 143.2 126.5 143.6 127.1 143.6H130.2C130.7 143.6 131.2 143.2 131.2 142.6C131.2 142 130.8 141.6 130.2 141.6H127.1Z" fill="#FFBF00"/>
<path d="M134.4 141.6C133.9 141.6 133.4 142 133.4 142.6C133.4 143.2 133.8 143.6 134.4 143.6H137.5C138 143.6 138.5 143.2 138.5 142.6C138.5 142 138.1 141.6 137.5 141.6H134.4Z" fill="#FFBF00"/>
<path d="M156.5 143.6C157 143.6 157.5 143.2 157.5 142.6C157.5 142 157.1 141.6 156.5 141.6H153.4C152.9 141.6 152.4 142 152.4 142.6C152.4 143.2 152.8 143.6 153.4 143.6H156.5Z" fill="#DF667C"/>
<path d="M163.7 143.6C164.2 143.6 164.7 143.2 164.7 142.6C164.7 142 164.3 141.6 163.7 141.6H160.6C160.1 141.6 159.6 142 159.6 142.6C159.6 143.2 160 143.6 160.6 143.6H163.7Z" fill="#FFBF00"/>
<path d="M126.1 113.5C132.7 106.9 143.4 106.9 150 113.5C150.2 113.7 150.4 113.8 150.7 113.8C150.9 113.8 151.2 113.7 151.4 113.5C151.8 113.1 151.8 112.5 151.4 112.1C144.1 104.8 132.1 104.8 124.8 112.1C124.4 112.5 124.4 113.1 124.8 113.5C125.1 113.8 125.7 113.8 126.1 113.5Z" fill="white"/>
<path d="M147.7 117.2C148.1 116.8 148.1 116.2 147.7 115.8C142.4 110.5 133.8 110.5 128.5 115.8C128.2 116.1 128.1 116.6 128.3 116.9C128.5 117.2 128.8 117.4 129.2 117.4C129.3 117.4 129.5 117.4 129.6 117.3C129.7 117.2 129.8 117.2 129.9 117.1C134.4 112.6 141.8 112.6 146.4 117.1C146.7 117.5 147.3 117.5 147.7 117.2Z" fill="white"/>
<path d="M143.3 121.1C143.5 121.1 143.8 121 144 120.8C144.4 120.4 144.4 119.8 144 119.4C142.4 117.8 140.3 116.9 138 116.9C135.7 116.9 133.6 117.8 132 119.4C131.6 119.8 131.6 120.4 132 120.8C132.4 121.2 133 121.2 133.4 120.8C134.6 119.6 136.3 118.9 138 118.9C139.7 118.9 141.4 119.6 142.6 120.8C142.8 121 143.1 121.1 143.3 121.1Z" fill="white"/>
<path d="M135.2 122.6C135 122.8 134.9 123 134.9 123.3C134.9 124.2 136 124.6 136.6 124C137 123.6 137.5 123.4 138 123.4C138.5 123.4 139.1 123.6 139.4 124C140.3 124.9 141.7 123.6 140.8 122.6C139.3 121 136.8 121 135.2 122.6Z" fill="white"/>
<path d="M82.6 76.1001L81.6 44.8C81.6 43.8 80.8 43.1001 79.8 43.1001C78.8 43.1001 78.1 43.9 78 44.8L77 76.1001L79.8 77.3L82.6 76.1001Z" fill="#454D58"/>
<path d="M126.1 76.1001L125.1 44.8C125.1 43.8 124.3 43.1001 123.3 43.1001C122.3 43.1001 121.6 43.9 121.5 44.8L120.5 76.1001L123.3 77.3L126.1 76.1001Z" fill="#454D58"/>
<path d="M76.9004 78.4001L79.8004 79.6001L82.7004 78.4001L82.6004 76.1001H77.0004L76.9004 78.4001Z" fill="#3C434C"/>
<path d="M120.4 78.4001L123.3 79.6001L126.2 78.4001L126.1 76.1001H120.5L120.4 78.4001Z" fill="#3C434C"/>
<path d="M72.0004 90.4999H131.1C133.7 90.4999 133.7 88.1998 133.7 86.6998V80.9999C133.7 79.5999 132.5 78.3999 131.1 78.3999H72.0004C70.6004 78.3999 69.4004 79.5999 69.4004 80.9999V86.6998C69.4004 88.1998 69.4004 90.4999 72.0004 90.4999Z" fill="#F0F0F0"/>
<path d="M131.1 89.2999H72.0004C70.6004 89.2999 69.4004 88.1 69.4004 86.7V89C69.4004 90.4 70.6004 91.6 72.0004 91.6H131.1C132.5 91.6 133.7 90.4 133.7 89V86.7C133.7 88.2 132.6 89.2999 131.1 89.2999Z" fill="#EE8FA3"/>
<path d="M75.9004 86.2C75.4004 86.2 74.9004 86.6 74.9004 87.2C74.9004 87.7 75.3004 88.2 75.9004 88.2H79.0004C79.5004 88.2 80.0004 87.8 80.0004 87.2C80.0004 86.7 79.6004 86.2 79.0004 86.2H75.9004Z" fill="#FFBF00"/>
<path d="M86.3998 86.2H83.2998C82.7998 86.2 82.2998 86.6 82.2998 87.2C82.2998 87.7 82.6998 88.2 83.2998 88.2H86.3998C86.8998 88.2 87.3998 87.8 87.3998 87.2C87.2998 86.6 86.8998 86.2 86.3998 86.2Z" fill="#FFBF00"/>
<path d="M90.5996 86.2C90.0996 86.2 89.5996 86.6 89.5996 87.2C89.5996 87.7 89.9996 88.2 90.5996 88.2H93.6996C94.1996 88.2 94.6996 87.8 94.6996 87.2C94.6996 86.7 94.2996 86.2 93.6996 86.2H90.5996Z" fill="#FFBF00"/>
<path d="M98 86.2C97.5 86.2 97 86.6 97 87.2C97 87.7 97.4 88.2 98 88.2H101.1C101.6 88.2 102.1 87.8 102.1 87.2C102.1 86.7 101.7 86.2 101.1 86.2H98Z" fill="#FFBF00"/>
<path d="M120 88.1001C120.5 88.1001 121 87.7001 121 87.1001C121 86.6001 120.6 86.1001 120 86.1001H116.9C116.4 86.1001 115.9 86.5001 115.9 87.1001C115.9 87.6001 116.3 88.1001 116.9 88.1001H120Z" fill="#DF667C"/>
<path d="M127.2 88.1001C127.7 88.1001 128.2 87.7001 128.2 87.1001C128.2 86.6001 127.8 86.1001 127.2 86.1001H124.1C123.6 86.1001 123.1 86.5001 123.1 87.1001C123.1 87.6001 123.5 88.1001 124.1 88.1001H127.2Z" fill="#FFBF00"/>
<path d="M89.6 58C96.2 51.4 106.9 51.4 113.5 58C113.7 58.2 113.9 58.3 114.2 58.3C114.4 58.3 114.7 58.2 114.9 58C115.3 57.6 115.3 57 114.9 56.6C107.6 49.3 95.6 49.3 88.3 56.6C87.9 57 87.9 57.6 88.3 58C88.6 58.4 89.2 58.4 89.6 58Z" fill="white"/>
<path d="M111.2 61.7C111.6 61.3 111.6 60.7 111.2 60.3C105.9 55 97.3003 55 92.0003 60.3C91.7003 60.6 91.6003 61.1 91.8003 61.4C92.0003 61.7 92.3003 61.9 92.7003 61.9C92.8003 61.9 93.0003 61.9 93.1003 61.8C93.2003 61.7 93.3003 61.7 93.4003 61.6C97.9003 57.1 105.3 57.1 109.9 61.6C110.2 62.1 110.8 62.1 111.2 61.7Z" fill="white"/>
<path d="M106.9 65.5999C107.1 65.5999 107.4 65.4998 107.6 65.2998C108 64.8998 108 64.2999 107.6 63.8999C106 62.2999 103.9 61.3999 101.6 61.3999C99.2998 61.3999 97.1998 62.2999 95.5998 63.8999C95.1998 64.2999 95.1998 64.8998 95.5998 65.2998C95.9998 65.6998 96.5998 65.6998 96.9998 65.2998C98.1998 64.0998 99.8998 63.3999 101.6 63.3999C103.3 63.3999 105 64.0998 106.2 65.2998C106.4 65.4998 106.6 65.5999 106.9 65.5999Z" fill="white"/>
<path d="M98.7004 67.1001C98.5004 67.3001 98.4004 67.5 98.4004 67.8C98.4004 68.7 99.5004 69.1001 100.1 68.5001C100.5 68.1001 101 67.9001 101.5 67.9001C102 67.9001 102.6 68.1001 102.9 68.5001C103.8 69.4001 105.2 68.1001 104.3 67.1001C102.8 65.6001 100.3 65.6001 98.7004 67.1001Z" fill="white"/>
</svg>
