<svg width="477" height="239" viewBox="0 0 477 239" fill="none" xmlns="http://www.w3.org/2000/svg">
<path d="M69.7018 21.7684C49.9661 91.4193 29.8412 160.714 5.0323 228.75C4.66525 229.757 3.06561 234.406 2.02327 236.396C1.70301 237.007 2.24436 235.027 2.46723 234.374C8.82414 215.741 15.7695 197.141 24.369 179.422C52.5661 121.322 87.6795 64.7651 127.811 14.0732C131.107 9.90899 130.712 12.0684 130.376 16.3916C129.305 30.1575 125.791 43.6858 122.286 56.9889C118.554 71.1529 114.493 85.1579 108.178 98.4247C103.106 109.081 96.337 126.768 83.1191 129.6C69.9734 132.417 55.0507 127.705 43.0645 122.892C30.5273 117.856 16.6972 112.482 5.3776 104.936C-1.22535 100.534 14.938 95.1566 17.7097 94.1824C22.9023 92.3573 45.2874 83.5499 48.3919 92.9986C49.2471 95.6013 48.6508 99.1034 48.2439 101.68C48.1422 102.324 45.7997 110.85 46.9121 110.461C56.5837 107.076 65.657 98.1793 74.5359 93.1465C87.853 85.5982 101.933 78.5857 116.169 72.9219C121.671 70.7328 117.809 76.4968 116.712 79.1373C115.195 82.7873 113.462 86.4397 112.864 90.3842C112.18 94.9004 117.633 90.1846 115.873 94.2318C112.948 100.959 134.217 87.3736 135.308 86.6845C138.712 84.535 146.905 76.7957 148.627 83.9221C150.623 92.181 158.011 93.7738 166.188 93.7878C182.468 93.8156 204.311 89.8843 219.068 86.8818C245.707 81.4619 287.99 70.8783 313.877 63.5002C362.004 49.7834 407.798 31.2001 453.575 11.2122C460.54 8.17102 467.17 4.18001 474.49 2.13574C475.582 1.83072 473.506 4.19749 472.813 5.09544C468.61 10.5455 463.971 15.6582 459.494 20.8805" stroke="#576C8A" stroke-width="3" stroke-linecap="round" stroke-linejoin="round"/>
</svg>
