<svg width="30" height="30" viewBox="0 0 30 30" fill="none" xmlns="http://www.w3.org/2000/svg">
<path d="M18.9203 20.7426L18.193 20.0153C17.1931 19.0153 15.5567 19.0153 14.5567 20.0153C14.3749 20.1972 14.284 20.4244 14.284 20.6517C14.284 21.1062 13.9658 21.4699 13.5567 21.5153C12.1022 21.6971 10.6022 21.2426 9.51131 20.1517C8.42041 19.0608 7.96587 17.5608 8.14769 16.1063C8.19314 15.6972 8.60223 15.379 9.01132 15.379C9.23859 15.379 9.46586 15.2881 9.64767 15.1063C10.6477 14.1063 10.6477 12.47 9.64767 11.47L8.92041 10.7427C7.87496 9.69726 6.10225 9.83362 5.28408 11.0609C4.42045 12.3336 4.01137 13.879 4.10227 15.4245C4.23864 17.9244 5.32953 20.4244 7.23861 22.3789C9.14768 24.3335 11.6931 25.3789 14.1931 25.5607C15.7385 25.6516 17.284 25.2426 18.5567 24.3789C19.8294 23.5608 19.9657 21.788 18.9203 20.7426Z" fill="#EE0033"/>
<path d="M15 4.09082C21.0249 4.09082 25.9091 8.97499 25.9091 14.9999M15 9.0495C18.2863 9.0495 20.9504 11.7136 20.9504 14.9999M15 13.0164C16.0954 13.0164 16.9835 13.9045 16.9835 14.9999" stroke="#C4C4C4" stroke-linecap="round" stroke-linejoin="round"/>
</svg>
