<svg width="54" height="54" viewBox="0 0 54 54" fill="none" xmlns="http://www.w3.org/2000/svg">
<path d="M16.5832 31.8073C17.9108 31.8073 18.9871 30.731 18.9871 29.4034C18.9871 28.0758 17.9108 26.9995 16.5832 26.9995C15.2556 26.9995 14.1793 28.0758 14.1793 29.4034C14.1793 30.731 15.2556 31.8073 16.5832 31.8073Z" stroke="#EE0033" stroke-width="3" stroke-linecap="round" stroke-linejoin="round"/>
<path d="M31.0065 12.5764C33.6617 12.5764 35.8142 10.4239 35.8142 7.76868C35.8142 5.11344 33.6617 2.96094 31.0065 2.96094C28.3512 2.96094 26.1987 5.11344 26.1987 7.76868C26.1987 10.4239 28.3512 12.5764 31.0065 12.5764Z" stroke="#FE9A00" stroke-width="3" stroke-linecap="round" stroke-linejoin="round"/>
<path d="M26.1987 23.7944H35.8142" stroke="#EE0033" stroke-width="3" stroke-linecap="round" stroke-linejoin="round"/>
<path d="M37.4168 18.9866H21.391C17.5448 12.416 10.9742 14.1788 10.9742 14.1788L13.4582 21.5507C11.0543 23.2334 9.2915 25.7174 8.41008 28.6021H2.9613V39.8201H9.8524C11.6954 42.7849 14.6601 45.0285 18.1858 45.8298V51.0382H26.1987V46.2305H34.2116V51.0382H42.2245V45.349C47.3528 43.4259 51.0387 38.4579 51.0387 32.6085C51.0387 25.0764 44.9489 18.9866 37.4168 18.9866Z" stroke="#EE0033" stroke-width="3" stroke-linecap="round" stroke-linejoin="round"/>
</svg>
