<svg width="60" height="60" viewBox="0 0 60 60" fill="none" xmlns="http://www.w3.org/2000/svg">
<g clip-path="url(#clip0)">
<rect width="60" height="60" rx="12" fill="#EE0033"/>
<path d="M13.5252 7.71936L13.4305 7.45156L13.5252 7.71936ZM8.97012 30.9363L8.92975 31.2174L9.39437 31.2841L9.23792 30.8416L8.97012 30.9363ZM8.96799 30.936L9.00835 30.6548L8.54373 30.5881L8.70018 31.0306L8.96799 30.936ZM18.4415 57.7334L18.1737 57.8281L18.507 58.7709L18.7191 57.7937L18.4415 57.7334ZM35.3213 36.5818L35.2266 36.314L35.2125 36.319L35.1991 36.3254L35.3213 36.5818ZM47.9873 32.1041L47.8927 31.8363L47.9873 32.1041ZM36.4959 -0.401326L36.5906 -0.133524L36.4959 -0.401326ZM6.45878 22.9804C4.29601 16.8626 7.50215 10.1499 13.6199 7.98717L13.4305 7.45156C7.01699 9.7189 3.65583 16.7562 5.92318 23.1697L6.45878 22.9804ZM9.23792 30.8416L6.45878 22.9804L5.92318 23.1697L8.70232 31.0309L9.23792 30.8416ZM8.92762 31.2171L8.92975 31.2174L9.01049 30.6551L9.00835 30.6548L8.92762 31.2171ZM18.7093 57.6387L9.23579 30.8413L8.70018 31.0306L18.1737 57.8281L18.7093 57.6387ZM35.1991 36.3254C24.2361 41.5514 19.2745 52.5557 18.164 57.6732L18.7191 57.7937C19.8063 52.7837 24.6904 41.9642 35.4435 36.8382L35.1991 36.3254ZM47.8927 31.8363L35.2266 36.314L35.416 36.8496L48.082 32.3719L47.8927 31.8363ZM55.0538 16.8431C57.2165 22.9608 54.0104 29.6735 47.8927 31.8363L48.082 32.3719C54.4956 30.1046 57.8567 23.0673 55.5894 16.6538L55.0538 16.8431ZM51.5837 7.02759L55.0538 16.8431L55.5894 16.6538L52.1193 6.83824L51.5837 7.02759ZM36.5906 -0.133524C42.7083 -2.29629 49.421 0.909849 51.5837 7.02759L52.1193 6.83824C49.852 0.424694 42.8148 -2.93647 36.4012 -0.669129L36.5906 -0.133524ZM13.6199 7.98717L36.5906 -0.133524L36.4012 -0.669129L13.4305 7.45156L13.6199 7.98717Z" fill="white"/>
<path d="M23.5683 43.1626L8.70166 13.5031L13.5579 13.5031C16.1245 13.5031 18.4552 15.0002 19.5223 17.3344L29.2107 38.5254C29.5232 39.2089 30.4954 39.2058 30.8036 38.5203L40.4027 17.1642C41.4612 14.8094 43.8027 13.2947 46.3845 13.2947H51.299L36.4055 43.1626C35.8534 44.3435 33.7737 46.7053 29.8718 46.7053C25.97 46.7053 24.0437 44.3435 23.5683 43.1626Z" fill="white"/>
</g>
<defs>
<clipPath id="clip0">
<rect width="60" height="60" rx="12" fill="white"/>
</clipPath>
</defs>
</svg>
