<svg width="26" height="27" viewBox="0 0 26 27" fill="none" xmlns="http://www.w3.org/2000/svg">
<path d="M24.7445 0.0410401C24.5412 -0.0421199 24.3081 0.00324012 24.1521 0.15822L21.0167 3.27348C18.702 1.1583 15.7263 0 12.5795 0C6.06796 0 0.716742 4.85406 0.133032 11.2914C0.119445 11.4426 0.16999 11.5922 0.273253 11.7045C0.375973 11.8163 0.521629 11.88 0.67435 11.88H5.05706C5.32772 11.88 5.55653 11.6824 5.59512 11.4167C6.09024 7.9866 9.09303 5.4 12.5795 5.4C14.2807 5.4 15.891 5.99778 17.1704 7.09506L13.2823 10.9582C13.1268 11.1127 13.0801 11.3449 13.1643 11.5468C13.248 11.7482 13.4469 11.88 13.6665 11.88H24.5363C24.8369 11.88 25.0798 11.6381 25.0798 11.34V0.54C25.0798 0.32184 24.9478 0.12474 24.7445 0.0410401Z" fill="white"/>
<path d="M24.4856 15.12H20.1028C19.8327 15.12 19.6034 15.3171 19.5648 15.5833C19.0691 19.0134 16.0669 21.6 12.5804 21.6C10.8792 21.6 9.26888 21.0022 7.98951 19.9049L11.8776 16.0418C12.0331 15.8873 12.0798 15.6551 11.9956 15.4532C11.9113 15.2512 11.713 15.12 11.4934 15.12H0.623569C0.323562 15.12 0.0800781 15.3614 0.0800781 15.66V26.46C0.0800781 26.6782 0.21269 26.8758 0.415412 26.959C0.482805 26.987 0.553459 27 0.623569 27C0.764877 27 0.904011 26.9449 1.00782 26.8418L4.14322 23.7265C6.45795 25.8417 9.43302 27 12.5804 27C19.0919 27 24.4432 22.1459 25.0269 15.7086C25.0405 15.5579 24.9899 15.4073 24.8867 15.2955C24.7834 15.1837 24.6388 15.12 24.4856 15.12Z" fill="white"/>
</svg>
