<svg width="56" height="56" viewBox="0 0 56 56" fill="none" xmlns="http://www.w3.org/2000/svg">
<path d="M27.9403 55.58C12.8203 55.58 0.570312 43.33 0.570312 28.21C0.570312 13.09 12.8203 0.839996 27.9403 0.839996C43.0603 0.839996 55.3103 13.09 55.3103 28.21C55.3103 43.32 43.0603 55.58 27.9403 55.58Z" fill="url(#paint0_linear)"/>
<path d="M41.3299 20.24V20.15C41.2999 19.26 41.2999 18.42 41.2999 17.6C41.2999 17.24 41.0199 16.96 40.6599 16.96C35.5199 16.93 31.6299 15.45 28.3899 12.32C28.1499 12.07 27.7099 12.08 27.4799 12.31C24.2199 15.46 20.3299 16.93 15.2399 16.93C14.8799 16.93 14.5999 17.21 14.5999 17.57C14.5999 18.39 14.5999 19.24 14.5699 20.16C14.3999 28.34 14.1799 39.54 27.7099 44.23L27.7599 44.24C27.8499 44.26 27.8899 44.27 27.9399 44.27C27.9899 44.27 28.0699 44.25 28.1499 44.23C41.6499 39.57 41.4699 28.4 41.3299 20.24ZM28.0999 42.86L27.9299 42.92L27.7499 42.86C15.4699 38.39 15.6699 28.73 15.8399 20.2C15.8399 19.95 15.8499 19.69 15.8599 19.44C15.8699 19.21 15.8799 18.98 15.8799 18.76V18.28L16.3599 18.26C20.9499 18.03 24.5199 16.67 27.5999 13.98L27.9399 13.69L28.2699 13.98C31.3999 16.71 34.9699 18.06 39.4999 18.22L39.9899 18.24V18.73C39.9899 19.21 39.9899 19.66 40.0199 20.15C40.1899 28.71 40.3799 38.39 28.0999 42.86Z" fill="#EDEFEF"/>
<path d="M33.1904 25.44L26.7304 31.9C26.6104 32.04 26.4104 32.06 26.3004 32.06C26.1104 32.06 25.9804 32 25.8504 31.87L22.6504 28.67C22.4004 28.4 22.3904 27.96 22.6204 27.73C22.7604 27.6 22.9404 27.54 23.1204 27.54C23.2904 27.54 23.4604 27.6 23.5804 27.72L26.3404 30.48L32.2804 24.54L32.2904 24.53C32.4104 24.4 32.5604 24.34 32.7304 24.33C32.9004 24.33 33.0604 24.39 33.1704 24.49C33.4304 24.75 33.4304 25.19 33.1904 25.44Z" fill="#EDEFEF"/>
<defs>
<linearGradient id="paint0_linear" x1="0.568712" y1="28.2039" x2="55.3127" y2="28.2039" gradientUnits="userSpaceOnUse">
<stop stop-color="#F0843F"/>
<stop offset="1" stop-color="#E81E36"/>
</linearGradient>
</defs>
</svg>
