<svg width="53" height="53" viewBox="0 0 53 53" fill="none" xmlns="http://www.w3.org/2000/svg">
<path d="M51.3538 3.96794L49.0315 1.63624C48.3454 0.94733 47.1843 1.10631 46.3926 1.9542L20.531 27.9208L15.042 21.7206C14.3558 21.0317 14.3558 20.1838 14.8308 19.3889L19.0004 13.6657C20.2143 12.1289 20.1087 9.90317 18.8948 8.36637L13.5114 1.63624C11.8752 -0.377499 8.86684 -0.589471 7.01958 1.31828L1.31947 7.04154C0.422231 7.94242 0 9.16127 0 10.3801C0.527788 20.5548 4.64454 30.2525 10.978 37.5656L2.21671 46.3624C1.42503 47.1573 1.31947 48.3762 1.90004 49.0121L4.22231 51.3438C4.90843 52.0327 6.06956 51.8737 6.86125 51.0258L51.0899 6.6176C51.9344 5.8227 52.0399 4.60386 51.3538 3.96794Z" fill="#C9C9C9"/>
<path d="M51.3551 39.6323L44.6522 34.227C43.1216 33.0082 40.9049 32.9022 39.3743 34.121L33.6742 38.3075C32.988 38.8374 32.038 38.7314 31.3519 38.0955L28.7129 35.6578L19.3711 45.0376C26.074 49.542 34.0964 52.5627 42.4882 52.9866C43.7021 53.0926 44.916 52.5627 45.8133 51.6618L51.5134 45.9385C53.5718 44.2427 53.4662 41.1691 51.3551 39.6323Z" fill="#C9C9C9"/>
</svg>
