<svg width="202" height="226" fill="none" xmlns="http://www.w3.org/2000/svg"><path d="M167.989 197.6h-9.333v7.492h9.333V197.6z" fill="#686868"/><path d="M108.674 16.021l-.505 67.253h6.437V12.855h-5.995l.063 3.166zM153.987 15.135l.505 67.316h-6.437V12.032h5.932v3.103z" fill="#7F7F7F"/><path d="M157.267 3.04c-1.136-1.963-.063-3.04-6.185-3.04h-19.816-19.816c-6.122 0-5.112 1.077-6.185 3.04-1.136 1.963 1.073 3.8 1.894 8.422.82 4.623 1.893 4.75 4.291 4.876 2.398.127 4.291-6.143 7.068-6.84 2.777-.696 12.748 1.204 12.748 1.204s9.971-1.9 12.748-1.203c2.777.696 4.67 6.966 7.068 6.84 2.398-.127 3.471-.254 4.292-4.877.82-4.623 2.966-6.46 1.893-8.422z" fill="#262626"/><path d="M56.42 114.937c-3.407-2.597-11.8-7.409-20.068-10.639-8.267-3.166-23.476-6.65-23.476-6.65s9.214 7.536 24.234 12.729c15.02 5.193 19.31 4.56 19.31 4.56z" fill="#7ABE1A"/><path d="M51.813 111.897c1.01 1.013 1.325 2.153 1.199 2.787 2.46.38 3.407.253 3.407.253-1.072-.823-2.65-1.9-4.606-3.04zM81.54 143.306c2.65-3.103 3.281-12.665 3.281-12.665s-3.218 4.37-3.597 6.713c-.378 2.343.316 5.952.316 5.952z" fill="#7ABE1A"/><path d="M81.223 137.354c-.378 2.343.316 6.016.316 6.016.947-1.14 1.64-3.103 2.146-5.13v-.316c-1.389 2.026-2.21.506-2.272-1.14-.126.19-.126.38-.19.57zM81.915 143.75s-3.219 3.8-9.908 8.296c-6.69 4.496-18.743 7.599-18.743 7.599s2.524-1.33 4.543-3.039c2.02-1.71 5.175-5.446 11.17-8.803 5.996-3.293 12.938-4.053 12.938-4.053z" fill="#7ABE1A"/><path d="M76.867 148.436c3.408-2.723 5.049-4.686 5.049-4.686s-5.49.57-10.918 3.04c2.02-.38 3.534-.57 4.733-.127.947.444 1.136 1.203 1.136 1.773zM79.33 139.889c-7.7-.19-15.84-.57-22.214 1.14-5.743 1.52-18.491 9.055-18.491 9.055s10.602-1.963 17.544-2.343c12.559-.76 23.161-7.852 23.161-7.852z" fill="#7ABE1A"/><path d="M66.33 139.76c2.587.887 5.49 2.09 5.048 4.18 4.796-2.027 7.888-4.117 7.888-4.117-4.291-.063-8.709-.253-12.937-.063zM76.237 135.581c-5.68-1.71-12.558-3.673-17.607-3.419-5.049.253-11.422 1.899-16.471 3.609-5.301 1.773-5.68 4.18-5.68 4.18s-.568-1.647 15.462-1.33c14.262.38 24.296-3.04 24.296-3.04z" fill="#7ABE1A"/><path d="M68.035 137.417c5.175-.886 8.204-1.836 8.204-1.836-2.966-.887-6.184-1.837-9.403-2.533 1.83 1.646 2.461 2.976 1.199 4.369zM70.746 129.248c-5.617-2.85-14.073-5.636-19.816-6.839-5.743-1.204-10.665-.507-15.588-.697-7.383-.253-7.131.19-7.131.19s5.175 2.85 15.146 5.193c9.971 2.406 26.569 3.419 27.768 3.103 1.199-.254-.379-.95-.379-.95z" fill="#7ABE1A"/><path d="M71.568 130.007c-.316-.316-.82-.696-1.452-1.076-1.577-.76-3.344-1.52-5.175-2.28 1.136 1.267 1.389 2.66.253 3.42 3.218.19 5.49.253 5.932.19a.883.883 0 00.442-.254zM65.384 123.232c-.378-.823-11.36-6.902-18.49-8.359-20.006-4.242-25.118-5.002-25.118-5.002s5.365 4.939 20.448 9.625c14.01 4.243 23.16 3.736 23.16 3.736z" fill="#7ABE1A"/><path d="M60.4 120.193c.947.95 1.389 2.153 1.2 2.977 2.46.126 3.975.126 3.975.126s-.063-.126-.063-.19c-.379-.38-2.272-1.709-5.112-2.913zM43.673 105.627c-5.617-5.382-12.117-11.272-16.409-13.805-4.29-2.533-19.121-9.055-19.121-9.055s9.97 10.575 16.597 14.375c6.248 3.609 18.933 8.485 18.933 8.485z" fill="#7ABE1A"/><path d="M39.443 101.638c.758 1.013 1.2 2.09 1.2 2.786 1.199.507 2.145.887 2.65 1.077v-.127c-.063-.063-.126-.19-.252-.316l-3.598-3.42zM47.963 108.857c-1.01-3.8-2.209-10.513-4.733-17.415-1.956-5.383-6.627-14.248-6.627-14.248s1.957 9.562 4.418 17.034c2.461 7.536 6.942 14.629 6.942 14.629z" fill="#7ABE1A"/><path d="M47.456 106.767a213.128 213.128 0 00-1.704-7.22c.252 1.71.505 4.307.126 5.637.758 1.393 1.389 2.406 1.704 3.039 0-.253-.063-.886-.126-1.456zM43.987 105.817c-2.588-5.762-4.48-9.688-8.267-14.691-3.787-5.003-12.243-16.212-12.243-16.212s5.048 12.222 9.908 19.125c3.723 5.32 5.175 7.029 7.825 9.435.82.697 2.777 2.343 2.777 2.343z" fill="#7ABE1A"/><path d="M37.17 99.168c1.39 1.773 2.525 2.913 4.103 4.306.82.76 2.777 2.343 2.777 2.343-.505-1.076-1.01-2.279-1.452-3.166-1.325-.443-3.913-2.28-5.427-3.483zM52.255 111.707s-.568-10.892-1.956-14.375c-1.388-3.483-1.515-10.386-1.515-10.386s-.946 8.993-.63 12.666c.378 3.672 3.28 10.955 3.28 10.955l.821 1.14z" fill="#7ABE1A"/><path d="M49.418 104.74a87.996 87.996 0 002.083 5.763l.757 1.14s-.063-1.773-.316-4.053c-.568.063-1.64-1.266-2.524-2.85zM58.377 116.33c.884-3.23.568-7.03-.315-11.399-.884-4.37-3.03-10.386-3.03-10.386s-.82 7.22-.189 11.526c.694 4.369 3.534 10.259 3.534 10.259z" fill="#7ABE1A"/><path d="M55.982 110.377a62.027 62.027 0 002.398 5.953c.38-1.457.505-2.977.505-4.687-.63 0-1.956-.126-2.903-1.266zM64.626 122.726s.946-4.749.757-8.929c-.126-4.179-3.471-13.298-3.471-13.298s-.253 8.739-.063 12.665c.126 3.926 2.777 9.562 2.777 9.562z" fill="#7ABE1A"/><path d="M62.226 115.887c.757 3.356 2.398 6.839 2.398 6.839s.63-3.293.757-6.775c-.757.823-2.146.823-3.155-.064zM71.378 129.818c.378-3.293 1.072-11.462-.253-15.641-1.325-4.18-4.165-9.436-4.165-9.436s.631 7.599.757 13.172c.063 5.636 3.66 11.905 3.66 11.905z" fill="#7ABE1A"/><path d="M67.716 118.736c.442 5.383 3.66 11.082 3.66 11.082.253-2.343.694-7.219.442-11.272-.757.95-2.525 1.837-4.102.19zM74.532 133.048c1.325-2.217 1.515-15.832 1.515-15.832s-3.282 6.143-3.219 8.549c0 2.407 1.704 7.283 1.704 7.283z" fill="#7ABE1A"/><path d="M72.83 126.083c.188 2.533 1.703 6.965 1.703 6.965.505-.823.82-3.293 1.073-6.016-.947 1.014-2.02.507-2.777-.949zM79.204 139.254c2.272-4.496.127-16.338.127-16.338s-2.525 6.143-2.272 9.119c.252 2.976 2.145 7.219 2.145 7.219z" fill="#7ABE1A"/><path d="M77.063 132.035c.252 2.977 2.145 7.219 2.145 7.219.82-1.646 1.073-4.179 1.01-6.839-.063-.19-.063-.38-.063-.38-1.073 2.85-2.461 1.204-3.093-.76v.76z" fill="#7ABE1A"/><path d="M40.075 102.462c9.403 6.902 18.554 13.552 26.948 21.911 7.951 7.915 15.398 16.908 18.87 27.736.82 2.597 2.145 9.943 2.334 12.539.126 2.153.19 5.003-1.01 6.649-.441.634-1.514.57-1.451-.506 0-.76.757-1.52.883-2.28.695-5.953-.441-9.752-.883-12.285-2.146-11.526-9.719-21.468-17.797-29.89-4.48-4.623-9.277-8.929-14.2-12.982a221.599 221.599 0 00-7.635-5.889c-1.389-1.014-2.777-2.027-4.165-3.103-.632-.444-1.073-.887-1.641-1.394.19.127-.758-.57-.758-.696-.063-.19.316 0 .505.19z" fill="#6FA212"/><path opacity=".25" d="M82.421 138.431c-.883-1.076-.189-2.976.569-4.116.757-1.14 1.199-2.09 1.262-1.836.063.253-.631 3.166-1.01 4.369-.442 1.203-.505 1.963-.82 1.583zM68.157 142.927c-2.966-3.419-9.655-1.583-13.947.634-4.291 2.216-7.825 3.419-6.942 3.673.884.253 10.729-1.14 15.083-2.154 4.355-.949 6.879-.949 5.806-2.153zM75.036 148.247c-3.03-2.217-7.573.95-10.287 3.799-2.713 2.85-5.048 4.75-4.291 4.75.694 0 7.826-3.483 10.792-5.32 2.966-1.836 4.859-2.406 3.786-3.229zM67.464 135.961c-2.209-3.673-9.088-3.166-13.695-1.899-4.607 1.266-8.267 1.773-7.446 2.153.82.38 10.728.886 15.083.76 4.354-.127 6.878.316 6.058-1.014zM63.991 128.806c-1.325-3.736-7.952-4.053-12.748-4.56-11.044-1.14-13.19-2.723-12.306-.506.883 2.153 14.767 3.926 19.059 4.686 4.228.76 6.5 1.71 5.995.38zM59.578 121.397c-1.578-3.926-9.845-5.32-14.641-5.953-8.583-1.203-19.185-4.623-18.365-3.926.82.633 9.466 5.509 26 9.246 4.482.949 7.448 1.773 7.006.633zM50.363 112.847c-2.903-4.243-9.34-5.7-15.272-7.473-4.292-1.33-12.685-4.116-11.99-3.483 4.29 3.863 17.922 9.119 21.96 10.386 3.977 1.266 6.185 1.9 5.302.57zM36.795 101.512c-.883-4.306-6.878-7.093-11.17-8.233-4.291-1.14-7.51-2.406-6.942-1.646.568.76 8.899 5.89 12.685 7.852 3.787 1.9 5.743 3.547 5.427 2.027zM44.37 100.372c1.388-1.9-.19-5.573-1.641-7.916-1.452-2.28-2.398-4.243-2.462-3.673-.063.507 1.578 6.08 2.462 8.423.883 2.406 1.136 3.862 1.64 3.166zM39.697 99.549c-3.03-.444-5.049-4.18-5.806-6.84-.82-2.66-1.704-4.686-1.2-4.306.506.38 4.166 5.446 5.554 7.79 1.389 2.28 2.525 3.482 1.452 3.356zM50.932 105.438c-1.767-.697-2.145-3.23-2.02-5.003.127-1.773 0-3.166.253-2.85.253.317 1.325 3.927 1.641 5.573.379 1.583.757 2.533.126 2.28zM57.745 110.568c-2.02-.697-2.335-3.8-2.082-5.953.252-2.153.189-3.799.441-3.483.253.317 1.325 4.686 1.641 6.65.316 1.963.694 3.039 0 2.786zM64.436 115.76c-1.893-.887-2.272-3.8-2.02-5.826.19-2.026.127-3.61.38-3.23.252.317 1.324 4.56 1.577 6.46.315 1.836.757 2.913.063 2.596zM70.683 118.293c-2.146-1.203-2.777-4.433-2.777-6.65 0-2.153-.252-3.862.063-3.482.316.379 1.894 5.129 2.398 7.219.505 2.153 1.073 3.356.316 2.913zM74.09 126.779c-1.135-1.266-.504-3.356.253-4.623.758-1.266 1.136-2.343 1.262-2.026.063.316-.378 3.483-.757 4.876-.379 1.393-.379 2.28-.757 1.773zM78.825 132.985c-1.452-1.077-1.136-3.546-.568-5.129.568-1.584.82-2.913.946-2.533.126.316.19 3.989.126 5.572-.189 1.52 0 2.47-.504 2.09z" fill="#B6FF29"/><path d="M86.777 171.234c1.136-1.647 1.136-4.497 1.01-6.65-.19-2.596-1.515-9.942-2.335-12.538-3.471-10.829-10.918-19.821-18.87-27.737-8.393-8.359-17.544-15.008-26.947-21.911-.063-.063-.126-.127-.126-.19 0-.19.315 0 .568.19 9.403 6.903 18.554 13.552 26.947 21.911 7.952 7.916 15.399 16.908 18.87 27.737.82 2.596 2.145 9.942 2.335 12.538.126 2.153.189 5.003-1.01 6.65-.253.38-.694.506-1.073.316.316 0 .505-.126.631-.316z" fill="#16610E"/><path d="M83.998 174.653c-2.462 1.203-7.826 7.409-11.234 12.032-3.407 4.622-2.398 9.562-6.563 14.311 0 0 5.806-4.116 10.35-11.525 4.544-7.409 7.447-14.818 7.447-14.818zM77.75 173.513c-6.438 2.913-11.865 8.232-15.147 11.525-3.282 3.293-13.126 15.262-13.126 15.262s9.781-4.686 17.922-13.299c8.141-8.612 10.35-13.488 10.35-13.488zM68.916 172.12c-3.281 1.266-13 6.839-17.544 11.462-12.622 12.855-14.389 13.742-14.389 13.742s9.656-4.433 14.579-7.789c4.922-3.357 11.548-10.449 13.946-13.172 2.399-2.787 3.408-4.243 3.408-4.243zM59.195 171.297c-6.5 3.04-15.525 7.726-20.321 10.766-4.796 3.039-15.777 11.778-15.777 11.778s11.738-3.673 20.889-10.005c9.15-6.333 15.209-12.539 15.209-12.539zM51.56 170.727c-3.723.38-11.486 2.849-18.049 5.572-6.563 2.723-18.68 8.549-18.68 8.549s10.476-.506 21.836-5.826c11.422-5.319 14.893-8.295 14.893-8.295zM43.734 169.523c-5.238.824-16.345 1.204-20.447 2.154-4.102.949-17.544 4.812-17.544 4.812s13.695-.126 19.943-1.646c5.869-1.457 18.048-5.32 18.048-5.32zM35.279 168.827c-4.102-.127-9.971-.57-17.418-.38-5.112.127-15.966 1.457-15.966 1.457s10.097.823 18.175.633c8.078-.19 15.209-1.71 15.209-1.71z" fill="#1F7F11"/><path d="M35.151 168.701c-6.5-3.23-9.781-3.863-16.03-5.003C12.875 162.558 0 161.862 0 161.862s11.423 4.242 19.816 5.382c8.393 1.14 11.928 2.153 12.874 1.963 1.01-.126 2.461-.506 2.461-.506zM84.06 175.159c-1.956-1.393-7.825-7.092-10.791-11.398s-5.301-10.069-8.646-15.832c0 0 7.952 7.093 12.054 13.932 4.039 6.776 7.383 13.298 7.383 13.298zM76.804 173.323c-6.816-4.243-14.263-10.575-17.544-14.818-10.666-13.869-15.273-14.945-15.273-14.945s10.792 3.483 19.943 13.868c9.15 10.386 12.874 15.895 12.874 15.895zM69.925 172.437c-3.408-1.774-13.631-7.98-19.311-12.476s-17.166-15.388-17.166-15.388 11.486 6.206 16.976 10.132c5.49 3.926 12.054 10.829 14.894 13.679 2.84 2.723 4.607 4.053 4.607 4.053zM60.079 171.55c-7.258-3.926-17.481-9.879-23.035-13.489-5.553-3.672-18.68-13.995-18.68-13.995s12.685 5.193 23.414 12.792c10.665 7.536 18.301 14.692 18.301 14.692zM52.57 170.727c-3.786-1.14-12.748-5.446-19.626-9.563-6.88-4.179-22.404-14.945-22.404-14.945s13.442 4.75 25.243 12.792c12.875 8.739 16.787 11.716 16.787 11.716zM45.122 169.777c-4.607-2.977-11.486-7.03-16.597-9.309-5.112-2.28-22.214-7.663-22.214-7.663s15.398 8.359 20.384 10.449c4.985 2.09 18.427 6.523 18.427 6.523z" fill="#1F7F11"/><path d="M81.915 179.402a102.91 102.91 0 002.082-4.749c-.883.443-2.209 1.583-3.66 3.039.631.19 1.578.634 1.578 1.71zM77.75 173.513a32.218 32.218 0 00-3.282 1.71c.568.38.82 1.9.315 3.039 2.21-3.103 2.966-4.749 2.966-4.749zM65.695 173.766c.316.38.694 1.204-.19 2.597 2.399-2.787 3.409-4.243 3.409-4.243-.758.253-1.894.823-3.219 1.646zM59.197 171.297c-1.073.507-2.272 1.077-3.471 1.647.19.316.315.886-.126 1.773 2.271-2.09 3.597-3.42 3.597-3.42zM51.623 170.664c-.947.063-2.146.316-3.534.633.252.127.631.507.126 1.647 2.461-1.457 3.408-2.28 3.408-2.28zM42.976 169.777s-.063-.063-.126-.063h-.063c-1.073.126-2.335.253-3.66.38.189.253.252.57-.253.949 1.83-.569 3.282-1.013 4.102-1.266zM30.418 169.65c2.966-.443 4.86-.823 4.86-.823-2.084-.063-4.608-.19-7.574-.317.631.19 1.578.57 2.714 1.14z" fill="#1F7F11"/><path d="M83.871 174.843c-.315-.633-1.262-2.407-2.524-4.686-.315.38-1.073.886-2.272.506 1.83 1.9 3.597 3.483 4.607 4.243.126 0 .19 0 .19-.063zM70.806 169.144c1.767 1.393 3.597 2.659 5.364 3.799h.315c-.504-.696-1.767-2.469-3.912-5.193-.063.507-.442 1.774-1.767 1.394zM65.001 168.004c-.19.316-.63.76-1.64.57 2.776 1.709 5.237 3.103 6.563 3.799 0 0-1.767-1.33-4.607-4.116-.126-.063-.253-.127-.316-.253zM53.264 167.814c2.145 1.203 4.165 2.343 6.058 3.356h.063c.063 0 .126-.063.19-.063-.695-.634-2.146-1.964-4.229-3.673-.441.253-1.073.506-2.082.38zM45.06 167.624c3.092 1.457 5.805 2.596 7.51 3.103 0 0-1.2-.886-4.355-3.166-.505.253-1.515.506-3.155.063zM38.685 167.624l6.437 2.153c-1.326-.823-2.777-1.773-4.355-2.723-.379.253-1.01.57-2.082.57zM32.69 169.27c1.01-.19 2.461-.57 2.461-.57-1.704-.823-3.218-1.519-4.607-2.089-.441.57-1.388.886-3.281 1.773 3.155.633 4.796.95 5.427.886z" fill="#1F7F11"/><path opacity=".25" d="M69.609 196.437c.63-.316 4.417-4.369 6.942-8.549 3.344-5.446 3.723-6.902 2.587-7.219-1.2-.317-3.976 4.053-6.248 8.106-2.145 4.053-4.417 8.232-3.281 7.662zM60.078 191.814c.694-.253 5.301-3.736 8.646-7.409 4.417-4.876 5.049-6.206 3.913-6.649-1.136-.443-4.797 3.483-7.763 7.093-3.029 3.609-6.058 7.409-4.796 6.965zM49.224 189.471c.758-.19 5.554-3.293 9.151-6.712 4.796-4.497 5.49-5.826 4.418-6.333-1.073-.507-5.05 3.04-8.33 6.459-3.22 3.42-6.564 6.903-5.239 6.586zM36.794 186.431c.758-.127 6.248-2.723 10.602-5.699 5.68-3.927 6.69-5.13 5.617-5.7-1.01-.57-5.743 2.533-9.656 5.51-3.975 3.039-7.951 6.079-6.563 5.889zM28.398 181.176c.757-.064 6.752-2.027 11.738-4.307 6.5-3.039 7.825-3.989 7.005-4.559-.82-.57-6.185 1.836-10.792 4.243-4.607 2.28-9.34 4.749-7.951 4.623zM17.294 175.413c.758 0 7.258-1.013 12.937-2.343 7.447-1.71 9.025-2.343 8.52-2.723-.568-.443-6.626.95-11.99 2.28-5.365 1.393-10.855 2.786-9.467 2.786zM9.025 169.84c.694.127 7.447.697 12.748.253 6.942-.57 7.447-.316 7.005-.823-.442-.507-6.185-.95-11.17-.443-4.986.506-9.782.823-8.583 1.013zM18.807 157.998c.505.444 6.248 4.18 11.549 6.016 6.879 2.47 7.194 2.913 7.194 2.153.064-.759-4.859-3.926-9.908-5.572-5.048-1.583-9.781-3.357-8.835-2.597zM24.676 154.705c.568.57 6.627 5.446 12.37 8.359 7.51 3.863 7.762 4.37 7.888 3.61.126-.76-5.048-4.94-10.602-7.599-5.49-2.597-10.602-5.383-9.656-4.37zM32.944 153.249c.505.57 6.248 5.699 11.675 8.929 7.195 4.306 7.384 4.812 7.574 4.116.189-.697-4.734-5.066-10.035-8.043-5.238-2.976-10.097-6.016-9.214-5.002zM42.598 151.475c.442.633 6.058 6.649 12.054 10.829 7.825 5.509 7.951 6.016 8.393 5.383.442-.634-4.354-5.7-10.16-9.626-5.806-3.863-11.107-7.726-10.287-6.586zM53.264 150.336c.441.696 5.427 7.282 10.728 11.905 6.942 6.079 7.005 6.649 7.447 5.953.379-.697-3.913-6.27-9.088-10.576-5.175-4.306-9.845-8.549-9.087-7.282zM68.85 154.199c.19.57 2.967 6.206 6.312 10.385 4.354 5.446 4.354 5.953 4.796 5.446.442-.506-1.957-5.256-5.238-9.182-3.345-3.926-6.248-7.726-5.87-6.649zM7.763 163.064c.695-.127 6.438 0 11.991 1.52 7.384 2.026 8.898 1.456 8.646 2.28-.252.823-5.617.506-11.423-.697-5.3-1.14-10.413-2.85-9.214-3.103z" fill="#F6FFE6"/><path d="M34.33 168.761c2.84.19 5.807.696 8.647 1.076 5.553.76 11.107 1.52 16.597 1.774 10.476.57 21.836 2.216 31.744 6.965 3.155 1.52 6.184 3.293 8.772 5.51 2.019 1.71 4.291 4.053 4.985 6.396.127.886 1.263.443 1.073-.317-.315-1.013-1.136-2.09-1.893-2.976a30.614 30.614 0 00-6.31-5.763c-4.797-3.293-10.54-5.953-16.157-7.346a171.116 171.116 0 00-11.044-2.279c-5.932-.95-11.8-.824-17.733-1.394-3.345-.316-6.69-.696-10.098-1.076-1.703-.19-3.344-.38-5.048-.57-.442.063-3.66-.253-3.534 0z" fill="#1F7F11"/><path d="M105.329 189.978c-.694-2.343-2.966-4.686-4.986-6.396-2.587-2.217-5.616-3.99-8.772-5.51-9.908-4.749-21.267-6.396-31.743-6.966-3.913-.19-7.889-.633-11.865-1.139-1.64-.19-3.345-.38-4.985-.57-1.704-.19-3.345-.38-5.049-.57-.568-.064-3.723-.38-3.597-.127 2.84.19 5.806.697 8.646 1.077 5.553.76 11.107 1.519 16.597 1.773 10.476.57 21.836 2.216 31.744 6.966 3.155 1.519 6.184 3.293 8.772 5.509 2.019 1.71 4.291 4.053 4.985 6.396.127.823 1.136.507 1.073-.19-.252.38-.757.317-.82-.253zM73.522 120.509c-3.471-.126-9.53-4.559-9.53-4.559s4.48.38 6.122 1.393c1.64.95 3.408 3.166 3.408 3.166z" fill="#1F7F11"/><path d="M70.112 117.342c1.641.95 3.408 3.167 3.408 3.167-1.262-.064-2.84-.634-4.354-1.394-.126-.063-.19-.126-.19-.126 2.02.253 1.578-.95.695-1.837.19 0 .315.127.441.19zM73.584 120.952s4.165.127 10.855-1.33c6.69-1.456 14.073-5.952 14.073-5.952s-.758.126-2.903.38c-2.209.253-6.311.126-11.864 1.773-5.554 1.646-10.161 5.129-10.161 5.129z" fill="#1F7F11"/><path d="M79.39 120.509c-3.66.507-5.806.444-5.806.444s3.597-2.723 8.267-4.496c-1.451.949-2.461 1.646-2.903 2.533-.252.696.063 1.203.442 1.519zM72.763 117.533c4.417-4.306 9.024-9.056 13.82-11.779 4.292-2.406 13.38-4.243 13.38-4.243s-4.481 3.483-8.773 7.093c-7.888 6.649-18.427 8.929-18.427 8.929z" fill="#1F7F11"/><path d="M80.399 110.313c-1.01 1.837-2.02 4.053-.505 4.94-4.039 1.646-7.131 2.343-7.131 2.343 2.524-2.533 5.048-5.066 7.636-7.283zM72.01 113.67c2.335-3.99 5.175-8.803 8.393-11.462 3.156-2.66 4.923-3.736 8.962-5.636 4.228-2.027 6.815-2.597 6.815-2.597s1.389-1.266-7.888 7.789c-8.33 8.106-16.282 11.906-16.282 11.906z" fill="#1F7F11"/><path d="M78.005 110.06c-3.534 2.407-5.995 3.61-5.995 3.61 1.199-2.09 2.587-4.37 4.039-6.459-.063 1.836.378 2.849 1.956 2.849zM71.501 107.464c1.64-4.56 4.922-10.639 7.636-14.375 2.714-3.736 5.995-6.143 8.835-8.992 3.408-3.42 3.408-2.914 3.534-2.914 0 0-.757 3.673-5.048 10.07-4.418 6.712-13.632 16.401-14.578 16.907-.884.507-.379-.696-.379-.696z" fill="#1F7F11"/><path d="M71.44 108.287c0-.317.063-.824.252-1.33.442-1.267 1.073-2.597 1.704-3.99.126 1.267.757 2.09 1.893 1.9-1.767 1.9-3.092 3.166-3.408 3.356-.19.064-.315.064-.442.064zM71.064 101.448c-.253-.633 2.587-9.752 5.869-14.438 9.276-13.236 10.602-15.705 10.602-15.705s1.01 4.75-5.112 15.388c-5.617 9.942-11.36 14.755-11.36 14.755z" fill="#1F7F11"/><path d="M72.134 97.206c0 1.013.442 1.836 1.073 2.153a60.917 60.917 0 01-2.272 2.28l-.063-.127c.063-.443.379-2.153 1.262-4.306zM71.376 92.329c.442-3.166 2.524-10.259 5.49-16.465 2.966-6.206 8.015-14.058 8.015-14.058s.947 6.649-4.86 17.541c-5.805 10.892-8.645 12.982-8.645 12.982z" fill="#1F7F11"/><path d="M72.26 88.276c0 1.076.505 1.836.947 2.09-1.262 1.583-1.893 2.026-1.893 2.026.189-1.077.504-2.47.946-4.116zM73.331 80.614c.126-5.826.757-12.729 2.209-16.275 1.64-4.053 5.048-8.866 5.048-8.866s.505 4.813-1.135 10.386c-1.515 5.256-6.122 14.755-6.122 14.755z" fill="#1F7F11"/><path d="M73.455 76.245c.19.886.568 1.71.947 2.026-.442.95-.757 1.647-.947 2.027l-.063-.064c0-.063-.063-.19-.063-.316.063-1.203.063-2.407.126-3.673zM72.766 84.603c-1.703-2.47-4.985-6.523-7.636-11.399-2.082-3.8-4.607-10.828-4.607-10.828s4.544 5.889 7.574 11.018c3.029 5.193 4.67 11.209 4.67 11.209z" fill="#1F7F11"/><path d="M71.819 83.273a193.513 193.513 0 01-3.282-4.56c.884.95 2.272 2.407 3.282 2.914.378 1.076.63 1.963.82 2.47-.252-.127-.568-.507-.82-.824zM73.27 80.867c-1.894-4.306-3.156-7.346-3.913-11.969-.758-4.622-2.462-14.881-2.462-14.881s4.292 8.929 5.554 15.071c.947 4.687 1.136 6.396 1.01 9.12 0 .823-.19 2.66-.19 2.66z" fill="#1F7F11"/><path d="M73.335 73.774c.253 1.647.253 2.85.19 4.433-.064.823-.253 2.723-.253 2.723-.379-.823-.757-1.71-1.073-2.406.505-.95.947-3.293 1.136-4.75zM71.88 88.402s-6.184-5.762-7.446-8.295c-1.262-2.47-5.301-6.08-5.301-6.08s5.995 3.99 7.952 6.016c1.956 2.027 4.606 7.283 4.606 7.283l.19 1.076z" fill="#1F7F11"/><path d="M69.418 83.336a55.718 55.718 0 012.272 4.053l.252 1.013s-1.01-.95-2.272-2.217c.316-.253.127-1.583-.252-2.85zM71.06 94.102c-2.46-1.14-4.543-3.23-6.626-5.89-2.082-2.659-4.417-6.902-4.417-6.902s4.796 3.167 7.005 5.7c2.209 2.596 4.039 7.092 4.039 7.092z" fill="#1F7F11"/><path d="M68.916 89.796a38.72 38.72 0 012.146 4.306 12.113 12.113 0 01-3.092-2.09c.315-.316 1.073-1.14.946-2.216zM71.187 100.751s-3.408-1.836-5.806-4.053c-2.398-2.153-5.87-8.612-5.87-8.612s5.365 4.243 7.637 6.333c2.209 2.09 4.039 6.332 4.039 6.332z" fill="#1F7F11"/><path d="M68.535 96.065c1.578 2.154 2.65 4.75 2.65 4.75s-2.334-1.267-4.48-2.976c.884-.064 1.767-.824 1.83-1.774zM71.44 108.098c-2.21-1.457-7.51-5.193-9.214-7.979-1.704-2.85-3.156-7.03-3.156-7.03s4.166 4.18 7.447 7.03c3.282 2.849 4.923 7.979 4.923 7.979z" fill="#1F7F11"/><path d="M66.96 100.499c2.967 2.913 4.482 7.599 4.482 7.599-1.578-1.013-4.734-3.229-7.005-5.446 1.01.063 2.587-.443 2.524-2.153zM71.5 111.453c-2.147-.38-10.35-7.155-10.35-7.155s5.616 1.266 7.005 2.469c1.388 1.204 3.344 4.686 3.344 4.686z" fill="#1F7F11"/><path d="M68.343 107.021c1.389 1.33 3.156 4.496 3.156 4.496-.82-.126-2.462-1.203-4.228-2.406 1.199-.064 1.514-.95 1.072-2.09zM72.45 117.153c-4.04-1.013-9.846-8.106-9.846-8.106s5.175 1.647 6.816 3.293c1.641 1.647 3.03 4.813 3.03 4.813z" fill="#1F7F11"/><path d="M69.42 112.34c1.64 1.647 3.029 4.813 3.029 4.813-1.452-.38-3.156-1.52-4.733-2.85l-.19-.19c2.335.824 2.21-.759 1.389-2.089.252.063.378.19.505.316z" fill="#1F7F11"/><path d="M73.523 77.068c-1.451 8.676-2.84 17.035-2.777 25.964.063 8.359 1.01 17.034 5.428 24.38 1.072 1.773 4.67 6.206 6.121 7.599 1.2 1.14 2.903 2.597 4.544 2.787.631.063 1.262-.507.568-1.077-.442-.38-1.388-.316-1.83-.633-3.976-2.596-5.617-5.13-6.816-6.713-5.617-6.966-7.131-16.148-7.384-24.887-.126-4.813.127-9.625.631-14.375.253-2.406.632-4.813 1.01-7.22.19-1.266.442-2.595.631-3.862.063-.57.126-1.013.126-1.583 0 .19.127-.697 0-.76-.126-.127-.189.127-.252.38z" fill="#124F0A"/><path opacity=".25" d="M70.047 118.482c-.126-1.076-1.64-1.583-2.776-1.773-1.136-.19-1.957-.38-1.83-.253.126.19 2.272 1.267 3.218 1.647.947.443 1.452.759 1.388.379zM81.221 112.91c-.315-3.356 4.733-6.143 8.646-7.409 3.913-1.267 6.69-2.597 6.31-1.963-.378.633-7.004 5.382-10.16 7.282-3.218 1.837-4.733 3.293-4.796 2.09zM80.335 119.369c.442-2.786 5.048-3.736 8.393-3.799 3.345-.063 5.806-.38 5.428 0-.442.38-6.69 2.596-9.593 3.293-2.903.76-4.355 1.52-4.228.506zM77.434 108.983c-.883-3.103 3.471-6.649 6.942-8.549 3.471-1.9 5.932-3.673 5.68-3.04-.253.634-5.806 6.396-8.457 8.739-2.713 2.343-3.85 3.99-4.165 2.85zM75.223 103.538c-1.451-2.597 2.272-6.46 4.796-9.372 5.87-6.65 6.185-8.676 6.942-7.093.758 1.583-6.437 10.132-8.456 12.855-2.02 2.787-2.777 4.56-3.282 3.61zM73.396 97.332c-1.451-2.85 2.65-8.106 5.049-11.082 4.354-5.32 8.583-12.919 8.52-12.16-.127.76-2.273 7.98-9.846 19.062-2.019 2.913-3.281 5.003-3.723 4.18zM73.709 87.896c-.82-3.736 2.145-8.042 4.544-12.222 1.767-3.04 5.048-9.055 4.985-8.359-.252 4.306-5.112 14.502-6.752 17.352-1.578 2.912-2.525 4.432-2.777 3.23zM74.908 74.724c-.883-4.18-.19-7.409 1.704-10.322 1.83-2.913 3.03-5.383 3.092-4.686.064.697-1.703 7.852-2.776 10.955-1.073 3.103-1.767 5.193-2.02 4.053zM69.796 78.334c-1.957-.19-3.219-2.913-3.787-4.876-.505-1.963-1.073-3.483-.757-3.23.316.253 2.714 3.926 3.597 5.636.884 1.71 1.641 2.533.947 2.47zM72.066 75.357c1.514-1.9.505-4.876-.631-6.649-1.136-1.773-1.767-3.293-1.894-2.85-.063.444.758 5.067 1.389 6.966.505 1.963.568 3.23 1.136 2.533zM68.913 84.54c.631-1.33-.694-2.85-1.83-3.673-1.136-.824-1.893-1.584-1.83-1.33.063.253 1.577 2.723 2.335 3.736.82 1.077 1.073 1.71 1.325 1.267zM68.028 90.873c.758-1.456-.883-3.166-2.335-4.116-1.388-.95-2.398-1.773-2.335-1.52.063.317 2.02 3.103 3.03 4.243.946 1.14 1.325 1.9 1.64 1.393zM67.148 97.205c.63-1.52-.947-3.166-2.272-4.053-1.326-.886-2.209-1.71-2.209-1.393.063.317 1.956 3.04 2.903 4.116 1.01 1.077 1.325 1.837 1.578 1.33zM65 101.892c.569-1.774-1.01-3.8-2.334-4.877-1.326-1.076-2.21-2.09-2.146-1.71.063.38 1.956 3.61 2.903 4.94.946 1.393 1.325 2.28 1.578 1.647zM68.029 108.097c-.063-1.266-1.704-1.963-2.903-2.216-1.2-.254-2.083-.507-1.957-.317.127.19 2.335 1.52 3.345 2.027 1.073.506 1.578.949 1.515.506zM68.977 113.797c.19-1.33-1.451-2.406-2.777-2.913-1.262-.506-2.209-1.013-2.082-.76.126.254 2.272 2.09 3.281 2.85 1.01.76 1.515 1.33 1.578.823z" fill="#F6FFE6"/><path d="M87.154 137.417c-1.703-.19-3.344-1.646-4.543-2.786-1.452-1.393-5.05-5.826-6.122-7.599-4.418-7.346-5.427-15.958-5.427-24.381-.063-8.865 1.325-17.224 2.776-25.9 0-.063 0-.127-.063-.127-.126-.126-.189.19-.252.38-1.451 8.676-2.84 17.035-2.777 25.964.063 8.359 1.01 17.035 5.428 24.381 1.072 1.773 4.67 6.206 6.121 7.599 1.2 1.14 2.903 2.596 4.544 2.786.379.063.694-.127.82-.38-.126.063-.315.063-.505.063z" fill="#16610E"/><path d="M48.97 152.679c3.282 2.153 13.443 4.686 13.443 4.686l11.233 5.51 9.15 4.179s.442-1.456 2.714-.253c2.272 1.203 3.219 1.456 5.365.19 2.145-1.267 5.048-2.977 7.383-6.903 2.209-3.673.19-6.079.19-6.079s.189 1.013-.568 2.723c-.694 1.646-4.292 2.976-5.364 3.483-1.073.443-1.641.443.126-1.71 1.704-2.09 5.364-4.749 5.364-4.749s.063-2.66-1.325-5.13c-1.452-2.47-4.355-2.786-4.355-2.786.884 2.913-5.238 11.145-6.374 12.032-1.136.886-1.388-.317-.252-3.356 1.136-3.04.126-8.55.694-11.209.568-2.66-.505-3.926-2.903-5.446-2.398-1.52-7.005-1.14-7.005-1.14s.505.253 1.767 2.343 2.082 7.346 2.082 10.322c0 2.976.127 7.409-.378 7.599-.505.19-1.388-3.419-1.452-7.536 0-4.179-1.893-11.462-2.84-12.475-.883-1.013-4.859-2.026-7.573-1.456-2.587.506-4.228 2.279-4.354 2.469.063-.063.379-.063 1.893 1.394 1.767 1.773 3.85 5.952 4.86 8.295 1.01 2.343 3.723 8.486 2.65 8.803-1.073.38-3.029-6.776-3.723-9.183-.758-2.723-3.976-8.612-6.437-9.309-2.462-.76-8.204 1.584-8.204 1.584 1.262.569 1.388 1.646 4.417 4.242 3.092 2.597 4.86 5.51 6.059 7.536 1.199 2.027 1.199 3.99 0 3.42-1.2-.57-4.292-6.903-6.311-9.499-2.083-2.596-4.86-3.99-5.428-4.116-.63-.19-1.514.443-2.903 1.71-1.388 1.266-1.577 2.533-1.577 2.533s.315-.634 1.199-1.014c.946-.38 4.354 2.28 5.743 3.737 1.451 1.456 2.713 4.686 1.01 4.559-1.641-.063-7.258-6.269-8.33-5.953-1.074.317-3.22 3.483-3.22 3.483s.253.317 3.535 2.47zm20.322-11.019c-1.957-2.469-3.282-3.166-2.651-3.546.82-.443 2.966 1.837 4.418 3.8 1.451 1.963 1.704 4.052.946 4.052-.694.064-.757-1.836-2.713-4.306zm14.451 19.251c.695.127.82 1.014-.504 2.723-.38.507-.442.38-.632.127-.189-.316.442-2.976 1.136-2.85zm-4.859-.19c.379-.633.694-1.076 1.2-.379.567.949.251 3.229-.695 2.913-.947-.254-.884-1.837-.505-2.534z" fill="#63990E"/><path d="M68.725 174.97c-2.525 1.837-8.646 6.713-11.865 5.32 0 0 1.515 2.913 4.102 4.432 2.588 1.52 5.112 1.964 6.626 1.077 1.515-.887 3.913-3.23 5.933-6.586 2.082-3.356 3.912-6.776 4.228-6.522.379.189-1.136 5.952-2.84 8.232-1.704 2.216-4.607 5.636-6.374 5.509 0 0 3.408 1.773 5.743 1.583 2.398-.19 4.922-2.723 5.932-4.749 1.01-2.09.947-8.422 2.02-8.802 1.073-.317 1.704 3.293 1.136 5.699-.568 2.406-1.01 5.953-3.345 5.509 0 0 1.893 1.773 5.806-1.329 3.913-3.103 4.607-4.117 5.112-6.396.568-2.217.568-6.776-.568-7.916-1.136-1.14-4.102-1.963-5.364-1.9-1.326.063-2.462-.38-2.272-1.077 0 0-17.86-8.802-20.385-9.688-2.524-.95-8.33-2.217-11.99-4.117-3.66-1.899-4.86-3.039-4.86-3.039-.441 1.266.569 6.269-.063 7.662 0 0 1.641 2.28 4.923 1.837 3.345-.444 8.52-1.077 9.466-.064 1.01 1.014.694 1.71-.063 2.09-.757.38-12.18.57-13.442.19-1.262-.38-1.325-1.393-1.325-1.393s-.379 2.216 1.072 4.939c1.452 2.723 1.578 3.103 2.146 3.357.568.253 5.87.506 7.32.316 1.452-.19 5.744-.95 8.647-2.723 2.903-1.773 4.417-1.646 3.912-.633-.505 1.076-5.427 2.216-6.752 2.596-1.262.38-7.384 1.71-8.835 1.583-1.452-.126-3.093.19-4.166-.759 0 0 1.073 3.229 3.03 5.446 1.956 2.216 4.102 3.799 4.102 3.799s3.975 0 8.961-3.103c4.986-3.103 8.898-7.472 9.719-7.092.946.506-2.903 4.876-5.427 6.712zm10.917-7.472c.568-.38.758-.064.82.19.19.633-.567 1.456-.883 1.203-.315-.253-.505-1.013.063-1.393zm-8.709-.444c-.82.57-2.209 1.077-2.272.507-.063-.57.82-1.456 1.767-2.216.947-.76 1.515-.824 1.83-.57.505.443-.504 1.71-1.325 2.279z" fill="#63990E"/><path opacity=".15" d="M80.083 168.194c.315.507-.19 1.013-.505.76-.316-.253-.631-.887-.19-1.076.38-.19.632.126.695.316zM52.44 154.199c.126.127.316.19.442.317 1.578 1.076 3.534 1.899 4.922 1.899 2.777.127 4.166 1.71 5.428 2.534 1.262.823 1.83 2.913 4.354 3.546 2.462.696 2.84 1.33 2.588 2.343 0 .063-.19.57-.19.823.127-.127.316-.253.442-.38.947-.76 1.515-.823 1.83-.57.253.19.126.633-.126 1.077 1.325.316 2.903.696 3.534 1.71 1.262 1.836 3.282 3.989 5.364 3.419 1.767-.506 1.073-2.406.82-2.913-.062-.063-.062-.126-.062-.126.378-.254.694-.57.946-.887.884-1.077.884-2.28.316-3.166-.126-.19-.253-.38-.442-.507-.19-.19-.379-.38-.631-.507-.694-.443-1.2-.57-1.64-.506-.127.633-.443 1.14-.948 1.013-.504-.19-.694-.697-.757-1.267-.063 0-.126-.063-.19-.126-1.388-.823-2.713-3.356-5.553-2.85-2.903.507-4.354-2.28-6.247-2.09-1.894.19-2.967 1.014-4.292-.76-1.325-1.773-3.029-.316-5.238-2.026-2.209-1.71-6.184-5.383-6.69-3.356v.126c-.252 1.014.695 2.217 2.02 3.23zm28.02 13.489c.19.633-.568 1.456-.883 1.203-.316-.254-.505-1.013.063-1.393.568-.38.757-.064.82.19z" fill="#005625"/><path opacity=".15" d="M56.482 158.062c3.345-.697 4.607 1.14 5.932 1.9 1.326.823 1.452 3.483 4.292 3.673 2.84.19 3.092 1.013 2.524 2.469-.063.127-.063.254 0 .317.316-.38.757-.76 1.2-1.077.946-.759 1.514-.823 1.83-.57.441.38-.253 1.394-1.01 2.027 1.514.063 3.407.127 3.975 1.33 1.01 2.216 2.84 4.559 5.554 3.166 2.335-1.203 2.02-3.61 1.83-4.243 0-.126-.063-.19-.063-.19 3.471-3.166 3.534-6.079 1.767-7.092-1.767-1.014-2.65.57-4.039-.19-1.451-.76-2.335-3.863-5.995-2.28-3.66 1.583-4.67-1.9-7.068-1.077-2.398.824-3.597 1.584-4.733-.443-1.136-2.026-3.408.57-5.68-1.14-2.21-1.646-6.5-5.066-7.763-2.089 0 .063-.063.126-.063.19-1.199 3.166 4.165 5.952 7.51 5.319zm27.263 2.85c.694.126.82 1.013-.505 2.723-.378.506-.441.38-.63.126-.19-.316.44-2.976 1.135-2.849zm-4.86-.19c.38-.634.695-1.077 1.2-.38.568.95.252 3.229-.694 2.913-.947-.254-.884-1.837-.505-2.533zm1.578 6.965c.19.634-.567 1.457-.883 1.204-.316-.254-.505-1.014.063-1.393.568-.38.757-.064.82.189z" fill="#8DFCBA"/><path d="M83.052 166.864c.063-.127.063-.253-.063-.317-.694-.379-1.515-.696-3.219-1.393-1.83-.823-6.816-2.786-8.393-3.546-1.515-.697-5.743-2.533-7.068-3.23-1.389-.696-6.627-2.913-8.71-3.609-2.082-.697-4.922-1.773-5.68-2.153 0 0 4.734 2.153 7.195 3.103 2.462.95 5.428 2.216 8.268 3.609 2.776 1.393 5.932 2.977 8.077 3.927 2.146.949 6.438 3.356 7.889 3.672 1.451.254 1.325.38 1.451.254.064-.127.19-.254.253-.317z" fill="#39E583"/><path d="M84.124 146.727c.315 3.926-.631 9.309-1.01 11.209-.379 1.899-1.767 7.472-1.704 7.852 0 0-1.325-.317-.947-.38.38-.063.884-.76 1.515-3.926.694-3.167 1.641-6.839 1.957-9.816.315-2.849.189-4.939.189-4.939zM78.065 164.33c-.441-.316-.694-1.646-.568-4.622.127-2.977-.883-7.979-1.136-8.803 0 0 .253 2.027.505 3.737.19 1.709.316 5.192.253 6.965-.064 1.774-.19 2.153-.379 2.153-.19 0 .316.317.568.444.252.126.757.126.757.126zM70.997 161.355c-.63-.57-.505-3.357-1.514-6.396-1.01-3.04-3.471-6.649-3.471-6.649s2.145 3.419 3.155 6.585c1.01 3.103 1.01 6.206 1.01 6.206l.82.254zM63.236 157.745c-.315-.38-1.262-3.546-2.524-5.636-1.2-2.09-2.84-4.243-2.84-4.243s2.461 3.546 3.408 5.89a72.376 72.376 0 011.451 3.862l.505.127zM69.356 161.292c-1.01-.127-2.02 1.139-6.437 2.533-4.417 1.393-7.825 1.266-7.825 1.266s4.922-.253 7.762-1.456c2.84-1.204 4.86-2.597 5.932-2.66 1.073-.063.568.317.568.317zM75.541 164.205c-.694.063-1.767 1.646-2.903 2.849-1.136 1.267-4.67 4.116-9.087 5.636 0 0 3.786-1.71 5.932-3.229 2.146-1.52 5.427-5.383 5.364-5.7-.063-.253.694.444.694.444zM79.768 166.294c-.379 0-2.02 2.66-3.219 4.37-1.199 1.71-4.67 7.029-6.942 8.802 0 0 1.83-1.899 3.724-4.559 1.893-2.66 5.617-8.739 5.869-8.929.316-.127.568.316.568.316z" fill="#39E583"/><path d="M85.51 166.864c2.273 1.204 3.22 1.457 5.365.19 2.146-1.266 5.049-2.976 7.384-6.902 2.208-3.673.189-6.079.189-6.079s.19 1.013-.568 2.723c-.063.19-.19.316-.316.506.442.063.632.38.253 1.393-.947 2.47-5.87 8.106-9.845 7.409-3.723-.633-4.733-.253-4.986.634.442-.38 1.136-.634 2.525.126z" fill="#18C462"/><path opacity=".15" d="M83.05 166.738c.19-.887 1.262-1.267 4.985-.634 3.913.634 8.836-4.939 9.845-7.409.379-1.013.19-1.33-.252-1.393.126-.127.19-.316.315-.506.695-1.647.568-2.723.568-2.723s2.02 2.343-.189 6.079c-2.335 3.926-5.238 5.636-7.384 6.902-2.145 1.267-3.029 1.014-5.364-.19-1.451-.76-2.145-.506-2.524-.126zM85.259 158.189c.19.063.378 0 .694-.254 1.136-.886 7.257-9.119 6.374-12.032 2.461.824-.19 5.763-2.398 8.803-2.083 2.849-3.724 4.749-4.67 3.483zM80.02 156.985c.505-.19.379-4.623.379-7.599s-.82-8.232-2.083-10.322c-1.073-1.773-1.578-2.217-1.704-2.343 1.136.696 2.777 1.393 4.355 7.156 1.578 5.952 0 13.425-.947 13.108zM73.205 156.542c1.072-.38-1.641-6.459-2.651-8.802-1.01-2.343-3.092-6.586-4.86-8.296-.757-.697-1.198-1.077-1.45-1.267 2.713 1.014 3.912 3.167 6.689 8.106 2.84 5.066 3.723 10.069 2.272 10.259zM65.758 154.895c.694-.126.568-1.773-.442-3.546-1.2-2.027-2.966-4.94-6.059-7.536-3.092-2.596-3.155-3.736-4.417-4.243 2.966-.253 9.34 6.206 10.602 9.689 1.073 3.23 1.578 5.699.316 5.636zM57.429 152.679c1.136-.38 0-3.167-1.388-4.56-1.452-1.456-4.86-4.116-5.743-3.736-.82.317-1.136.887-1.2 1.013 1.515-3.229 4.229-2.026 7.069 1.52 2.713 3.42 3.029 5.446 1.262 5.763zM44.995 160.658c0 .127.19 1.014 1.326 1.33 1.262.38 12.369.317 13.126-.063.757-.38 1.01-1.077.063-2.027 3.156 2.66-5.238 4.623-9.592 4.37-4.355-.317-4.986-1.267-4.923-3.61zM48.405 169.334c1.073.95 2.65.696 4.165.76 1.515.063 7.574-1.267 8.836-1.584 1.262-.38 6.247-1.519 6.752-2.596-.694 1.52-3.092 2.596-8.709 3.99-5.616 1.393-10.034 1.013-11.044-.57zM56.86 180.353c3.156 1.393 9.277-3.483 11.865-5.319 2.02-1.457 4.86-4.497 5.49-5.89-.379 2.66-3.85 6.586-7.825 9.056-4.292 2.596-6.627 3.736-9.53 2.153zM68.6 186.559c1.767.126 4.67-3.293 6.374-5.51 1.325-1.71 2.524-5.636 2.776-7.346-.126 4.497-.82 6.523-2.46 8.549-1.768 2.153-4.545 4.56-6.69 4.307zM88.288 170.22c-3.471-2.659-6.122.887-5.49-3.166-.19.697.946 1.14 2.271 1.077 1.326-.064 4.229.759 5.365 1.899 1.136 1.14 1.136 5.636.567 7.916-.441 1.837-1.01 2.85-3.344 4.876 3.029-3.356 3.85-10.132.63-12.602z" fill="#005625"/><path d="M55.537 154.959c2.083.696 7.384 2.913 8.709 3.609 1.388.697 5.553 2.533 7.068 3.23 1.515.696 6.5 2.723 8.394 3.546 1.64.76 2.46 1.013 3.218 1.393.063.064.126.064.126.127.063-.127.063-.253-.063-.317-.694-.38-1.514-.696-3.218-1.393-1.83-.823-6.816-2.786-8.394-3.546-1.514-.697-5.743-2.533-7.068-3.23-1.388-.696-6.626-2.913-8.709-3.609a92.491 92.491 0 01-4.607-1.71c.82.38 2.083.95 3.345 1.456.442.19.82.317 1.199.444zM50.992 153.059c-.63-.317-1.072-.507-1.072-.507.252.127.63.317 1.072.507z" fill="#51F493"/><path opacity=".15" d="M73.584 137.481c2.713.697 1.956 5.573 2.84 9.942.883 4.37.378 7.473-1.137 5.953-1.514-1.456-1.199-6.459-1.767-8.296-1.577-5.192-6.121-6.902-5.048-7.535 1.01-.57 4.102-.317 5.112-.064zM68.85 152.11c-1.64-.127-3.407-6.903-6.12-9.626-2.714-2.723-2.525-4.749-.064-3.736 2.461 1.013 5.301 5.636 5.932 8.485.631 2.85 1.515 4.94.253 4.877zM83.052 139.001c3.66 1.836 2.335 3.419 2.083 6.016-.252 2.596.631 5.066.063 7.789-.568 2.723-.947 5.509-2.398 5.382-1.451-.126-1.199-1.329-.252-6.649.946-5.319-2.398-11.652-1.704-12.285.694-.633 1.325-.697 2.209-.253zM95.168 148.69c1.893.886 2.208 3.673.315 5.952-.883 1.077-4.796 4.37-4.922 6.46-.127 2.089 5.175-2.47 6.247-2.027 1.01.443-4.48 6.016-7.13 5.953-2.651-.127-3.977-1.457-3.282-3.926.757-2.407 3.092-2.977 5.49-6.966 2.335-4.053 1.956-6.08 3.282-5.446zM85.385 183.772c-1.326.824-1.641 0-1.136-3.673.505-3.673-.505-6.269-1.957-6.016-1.514.254-2.398 7.283-3.723 9.626-1.388 2.343-3.723 4.243-5.68 3.546-1.956-.696 2.083-2.153 3.787-5.446 1.64-3.293 2.335-9.435 5.743-10.955 3.786-1.71 6.563.76 7.005 3.546.378 2.786-.884 7.409-4.04 9.372zM76.173 173.197c-1.704 2.976-5.995 10.575-8.835 11.652-2.84 1.076-9.34-1.14-6.121-3.23 3.218-2.09 4.417-1.14 8.582-5.066 4.102-3.863 8.52-7.219 6.374-3.356zM68.725 169.207c.063 2.153-4.102 5.51-9.15 6.776-5.05 1.267-7.826-1.773-7.51-3.166.252-1.393 4.985-.127 8.33-1.583 3.723-1.647 8.204-4.37 8.33-2.027zM63.676 164.648c.063 1.266-4.607 2.913-8.961 3.419-4.355.443-5.554-.316-7.068-1.393-1.578-1.077 3.092-.887 6.184-1.71 3.156-.823 9.72-2.913 9.845-.316z" fill="#DCFFEA"/><path opacity=".15" d="M85.008 146.41c-.82.76-.695-2.28-2.462-4.559-1.767-2.217-3.534-2.913-2.398-3.737 1.136-.823 5.175.76 5.68 3.23.505 2.47-.252 4.496-.82 5.066zM76.615 144.953c-1.072-.126-2.334-3.736-3.85-5.002-1.514-1.267-4.227-1.584-4.985-2.597-.757-1.013 5.806-1.71 7.258.253 1.451 1.964 3.029 7.473 1.578 7.346zM68.6 147.993c-.694 1.013-3.724-4.813-5.617-5.889-1.893-1.077-4.544-1.14-4.922-2.153-.379-1.014 3.218-2.407 6.31-.38 1.705 1.14 5.302 6.776 4.229 8.422zM60.456 149.007c-1.262.443-3.786-3.863-5.743-4.877-1.956-1.013-3.092-.506-3.029-1.203 0-.633 1.01-1.773 2.525-.886 1.514.886 2.65 1.393 4.165 2.913 1.388 1.583 2.65 3.863 2.082 4.053zM51.307 150.146c-.63.887-2.713.697-3.155 2.407-.505 1.71 2.335 4.623 3.408 5.889 1.073 1.267-1.956 1.267-3.723.063-1.768-1.203-2.02-5.509-1.263-7.472 1.136-3.293 5.996-2.723 4.733-.887zM57.933 166.864c-.757 1.583-7.888 2.027-9.087 1.33-1.2-.76-3.092-3.103-2.398-3.546.63-.444 2.713 1.33 3.723 1.9 1.01.569 8.52-1.267 7.762.316zM65.695 173.767c-2.082 2.216-8.077 4.369-9.97 3.673-1.957-.697-6.248-4.37-5.175-5.636 1.072-1.267 4.606 2.216 6.626 2.596 1.956.38 11.549-3.926 8.52-.633zM72.953 179.086c-.947 1.9-4.67 6.142-6.564 6.396-1.893.316-6.247-1.203-6.626-2.85-.378-1.646 4.04 1.267 5.995.443 2.02-.886 4.607-4.559 6.185-5.636 1.578-1.013 1.64.38 1.01 1.647z" fill="#DCFFEA"/><path d="M189.921 64.81c-.723-22.55-18.137-20.374-18.137-20.374l-41.267.791-41.267-.791S71.836 42.26 71.113 64.81c-.722 22.55 1.446 78.665 1.446 78.665l1.446 42.992s-.723 13.847 15.968 14.572c6.44.264 22.867.659 40.544 1.055 17.677-.396 34.105-.791 40.544-1.055 16.691-.725 15.968-14.572 15.968-14.572l1.446-42.992s2.169-56.048 1.446-78.665z" fill="#FF7F00"/><path d="M119.655 225.314c45.101 0 81.662-3.43 81.662-7.662 0-4.232-36.561-7.663-81.662-7.663-45.101 0-81.663 3.431-81.663 7.663s36.562 7.662 81.663 7.662z" fill="#D4D4D4"/><path d="M163.197 220.375c7.424 0 13.442-1.162 13.442-2.596 0-1.434-6.018-2.596-13.442-2.596s-13.442 1.162-13.442 2.596c0 1.434 6.018 2.596 13.442 2.596zM100.782 220.186c6.726 0 12.179-1.049 12.179-2.343s-5.453-2.343-12.179-2.343c-6.727 0-12.18 1.049-12.18 2.343s5.453 2.343 12.18 2.343z" fill="#BCBCBC"/><path d="M162.881 219.489c4.81 0 8.709-3.913 8.709-8.739 0-4.826-3.899-8.739-8.709-8.739s-8.709 3.913-8.709 8.739c0 4.826 3.899 8.739 8.709 8.739z" fill="#3A3A3A"/><path d="M162.882 216.702c3.277 0 5.933-2.665 5.933-5.952 0-3.288-2.656-5.953-5.933-5.953-3.276 0-5.932 2.665-5.932 5.953 0 3.287 2.656 5.952 5.932 5.952z" fill="#686868"/><path opacity=".29" d="M138.28 68.907L97.02 83.73c-16.422 5.93-24.924 23.635-19.09 39.612l2.918 7.988 24.59 66.705c-6.502-17.541 6.168-44.964 36.426-55.835l20.672-7.411c16.421-5.93 24.923-23.635 19.088-39.612l-2.917-7.988c-5.918-16.059-24.006-24.211-40.427-18.282z" stroke="#fff" stroke-miterlimit="10"/><path d="M58.125 191.815l.063 6.903 53.264-.507-.063-6.902c0-1.457-1.199-2.597-2.651-2.597l-48.026.444c-1.388.063-2.587 1.203-2.587 2.659z" fill="#7F8E91"/><path d="M58.188 196.819l.189 20.834c0 1.456 1.199 2.66 2.713 2.66l47.9-.444c1.451 0 2.65-1.203 2.65-2.723l-.189-20.834-53.263.507z" fill="#7F8E91"/><path d="M111.499 196.334l-53.264.483.17 18.808 53.263-.483-.169-18.808z" fill="#43C9C2"/><path opacity=".3" d="M101.921 205.241v14.692l-27.326.253-.252-14.692 27.578-.253z" fill="#433E72"/><path d="M62.164 189.219h3.282c.252 0 .505-.253.505-.506v-.38c0-.254-.253-.507-.505-.507h-3.282c-.252 0-.505.253-.505.507v.38c0 .253.19.506.505.506z" fill="#232323"/><path d="M97.946 189.726l-1.641-7.093-16.724.127-1.515 7.156 19.88-.19z" fill="#7F8E91"/><path opacity=".3" d="M95.36 188.839l-1.2-3.103-12.369.127-1.136 3.103 14.705-.127zM98.556 190.464l-21.015.19.053 5.89 21.015-.191-.053-5.889z" fill="#433E72"/><path d="M105.646 186.686l-3.85.063c-.82 0-1.451.697-1.451 1.457v.57l6.815-.064v-.57c0-.823-.694-1.456-1.514-1.456zM75.101 188.966l-7.005.063a.432.432 0 01-.442-.443v-.95c0-.253.19-.443.442-.443l7.005-.064c.252 0 .442.19.442.444v.95c0 .19-.19.443-.442.443z" fill="#232323"/><path opacity=".3" d="M73.395 193.082a1.97 1.97 0 00-1.956-1.963 1.97 1.97 0 00-1.957 1.963 1.97 1.97 0 001.957 1.963 1.97 1.97 0 001.956-1.963z" fill="#433E72"/><path d="M72.45 193.082c0-.57-.442-1.013-1.01-.95-.568 0-1.01.444-.947 1.013.063.57.442 1.014 1.01.95.505 0 .947-.443.947-1.013zM100.659 195.299l-5.428 2.849 2.02 3.8 5.427-2.85c1.01-.57 1.452-1.836.884-2.913-.568-1.013-1.893-1.393-2.903-.886z" fill="#232323"/><path d="M102.617 196.755c-.315-.633-1.136-.886-1.767-.57-.631.317-.883 1.14-.568 1.773.316.634 1.136.887 1.767.57.631-.38.884-1.14.568-1.773z" fill="#6A9AA5"/><path d="M101.984 197.072c-.126-.254-.504-.38-.757-.254-.252.127-.378.507-.252.76s.505.379.757.253c.252-.127.378-.443.252-.759z" fill="#6A9AA5"/><path d="M89.112 219.2c7.613-.562 13.329-7.21 12.769-14.849-.56-7.639-7.185-13.375-14.798-12.813-7.612.562-13.329 7.21-12.769 14.849.56 7.639 7.186 13.375 14.798 12.813z" fill="#232323"/><path d="M99.713 206.551c.624-6.44-4.073-12.168-10.49-12.793-6.418-.626-12.126 4.087-12.75 10.527-.624 6.439 4.073 12.167 10.491 12.793 6.418.626 12.126-4.087 12.75-10.527z" stroke="#6A9AA5" stroke-width=".467" stroke-miterlimit="10"/><path d="M88.101 202.201c1.767 0 3.219 1.456 3.219 3.166 0 1.773-1.389 3.23-3.156 3.23h-.063c-1.767 0-3.219-1.457-3.219-3.167 0-.886.316-1.646.947-2.279.631-.634 1.389-.95 2.272-.95zm0-5.953h-.063c-5.049.063-9.088 4.18-9.025 9.182.063 5.003 4.102 9.056 9.088 9.056h.063c5.049-.063 9.088-4.18 9.025-9.182 0-5.003-4.102-9.056-9.088-9.056z" fill="#6A9AA5"/><path d="M88.102 201.377c-2.209 0-3.976 1.837-3.913 4.053 0 2.216 1.83 3.99 4.04 3.926 2.208 0 3.975-1.836 3.912-4.053-.063-2.153-1.83-3.926-4.04-3.926z" fill="#6A9AA5"/><path d="M88.1 203.088c-1.261 0-2.334 1.076-2.271 2.343 0 1.266 1.073 2.343 2.335 2.279 1.262 0 2.335-1.076 2.272-2.343 0-1.266-1.073-2.279-2.335-2.279z" fill="#6A9AA5"/><path d="M89.425 200.617c-1.136 0-2.082.95-2.082 2.09s.946 2.09 2.082 2.09 2.083-.95 2.083-2.09c0-1.203-.947-2.09-2.083-2.09z" fill="#fff"/><path d="M107.791 191.309l-5.996.064a.971.971 0 00-.946.95v.759c0 .507.441.95.946.95l5.996-.063a.972.972 0 00.946-.95v-.76c0-.57-.378-.95-.946-.95z" fill="#232323"/></svg>