<svg width="179" height="141" viewBox="0 0 179 141" fill="none" xmlns="http://www.w3.org/2000/svg">
<path d="M146.501 127.644C146.501 127.644 181.797 119.083 178.457 73.5382C176.082 41.1915 148.596 36.8018 128.846 40.3456C111.42 43.4665 112.5 8.65517 90.7176 2.9821C48.6897 -7.98486 4.49901 105.601 50.6076 127.658C96.7162 149.716 124.256 137.447 146.501 127.658C168.746 117.869 146.501 127.644 146.501 127.644Z" fill="#F2F2F2"/>
<g opacity="0.1">
<path opacity="0.1" d="M16.7051 103.366C25.931 103.366 33.4101 100.556 33.4101 97.0892C33.4101 93.6227 25.931 90.8125 16.7051 90.8125C7.47911 90.8125 0 93.6227 0 97.0892C0 100.556 7.47911 103.366 16.7051 103.366Z" fill="black"/>
<path opacity="0.1" d="M29.4034 96.8397C29.4034 99.0156 23.7237 100.773 16.7076 100.773C9.69144 100.773 4.01172 99.0156 4.01172 96.8397C4.01172 94.6637 9.69144 92.9062 16.7076 92.9062C23.7237 92.9062 29.4034 94.6637 29.4034 96.8397Z" fill="black"/>
<path opacity="0.1" d="M16.7076 93.7431C23.3061 93.7431 28.6517 95.2496 29.3199 97.2581C29.4034 97.0907 29.4034 97.0071 29.4034 96.8397C29.4034 94.6637 23.7237 92.9062 16.7076 92.9062C9.69144 92.9062 4.01172 94.6637 4.01172 96.8397C4.01172 97.0071 4.01172 97.0907 4.09524 97.2581C4.76345 95.2496 10.1091 93.7431 16.7076 93.7431Z" fill="black"/>
<path opacity="0.1" d="M0 102.366C0 105.797 7.51727 108.643 16.7051 108.643C25.8928 108.643 33.4101 105.797 33.4101 102.366V97.0938C33.4101 100.525 25.8928 103.37 16.7051 103.37C7.51727 103.37 0 100.525 0 97.0938V102.366Z" fill="black"/>
</g>
<path d="M16.7051 102.538C25.931 102.538 33.4101 99.7277 33.4101 96.2611C33.4101 92.7946 25.931 89.9844 16.7051 89.9844C7.47911 89.9844 0 92.7946 0 96.2611C0 99.7277 7.47911 102.538 16.7051 102.538Z" fill="#FFABA0"/>
<path d="M29.3995 96.0076C29.3995 98.1836 23.7198 99.9411 16.7037 99.9411C9.68753 99.9411 4.00781 98.1836 4.00781 96.0076C4.00781 93.8317 9.68753 92.0742 16.7037 92.0742C23.7198 92.0742 29.3995 93.8317 29.3995 96.0076Z" fill="#FFC8C3"/>
<path d="M16.7037 92.9111C23.3021 92.9111 28.6478 94.4175 29.316 96.4261C29.3995 96.2587 29.3995 96.175 29.3995 96.0076C29.3995 93.8317 23.7198 92.0742 16.7037 92.0742C9.68753 92.0742 4.00781 93.8317 4.00781 96.0076C4.00781 96.175 4.00781 96.2587 4.09134 96.4261C4.75954 94.4175 10.1052 92.9111 16.7037 92.9111Z" fill="#D75146"/>
<path d="M0 101.534C0 104.965 7.51727 107.811 16.7051 107.811C25.8928 107.811 33.4101 104.965 33.4101 101.534V96.2617C33.4101 99.693 25.8928 102.538 16.7051 102.538C7.51727 102.538 0 99.693 0 96.2617V101.534Z" fill="#FF796E"/>
<g opacity="0.1">
<path opacity="0.1" d="M21.1347 96.1238C30.3607 96.1238 37.8398 93.3136 37.8398 89.8471C37.8398 86.3805 30.3607 83.5703 21.1347 83.5703C11.9088 83.5703 4.42969 86.3805 4.42969 89.8471C4.42969 93.3136 11.9088 96.1238 21.1347 96.1238Z" fill="black"/>
<path opacity="0.1" d="M33.8292 89.5975C33.8292 91.7734 28.1495 93.5309 21.1333 93.5309C14.1172 93.5309 8.4375 91.7734 8.4375 89.5975C8.4375 87.4215 14.1172 85.6641 21.1333 85.6641C28.1495 85.6641 33.8292 87.4215 33.8292 89.5975Z" fill="black"/>
<path opacity="0.1" d="M21.1333 86.501C27.7318 86.501 33.0775 88.0074 33.7457 90.0159C33.8292 89.8485 33.8292 89.7648 33.8292 89.5975C33.8292 87.4215 28.1495 85.6641 21.1333 85.6641C14.1172 85.6641 8.4375 87.4215 8.4375 89.5975C8.4375 89.7648 8.4375 89.8485 8.52103 90.0159C9.18923 88.0074 14.5348 86.501 21.1333 86.501Z" fill="black"/>
<path opacity="0.1" d="M4.42969 95.124C4.42969 98.5553 11.947 101.401 21.1347 101.401C30.3225 101.401 37.8398 98.5553 37.8398 95.124V89.8516C37.8398 93.2828 30.3225 96.1283 21.1347 96.1283C11.947 96.1283 4.42969 93.2828 4.42969 89.8516V95.124Z" fill="black"/>
</g>
<path d="M21.1426 95.2878C30.3685 95.2878 37.8476 92.4777 37.8476 89.0111C37.8476 85.5446 30.3685 82.7344 21.1426 82.7344C11.9166 82.7344 4.4375 85.5446 4.4375 89.0111C4.4375 92.4777 11.9166 95.2878 21.1426 95.2878Z" fill="#FFABA0"/>
<path d="M33.837 88.7576C33.837 90.9336 28.1573 92.6911 21.1412 92.6911C14.125 92.6911 8.44531 90.9336 8.44531 88.7576C8.44531 86.5817 14.125 84.8242 21.1412 84.8242C28.1573 84.8242 33.837 86.5817 33.837 88.7576Z" fill="#FFC8C3"/>
<path d="M21.1412 85.6611C27.7396 85.6611 33.0853 87.1675 33.7535 89.1761C33.837 89.0087 33.837 88.925 33.837 88.7577C33.837 86.5817 28.1573 84.8242 21.1412 84.8242C14.125 84.8242 8.44531 86.5817 8.44531 88.7577C8.44531 88.925 8.44531 89.0087 8.52884 89.1761C9.19704 87.1675 14.5427 85.6611 21.1412 85.6611Z" fill="#D75146"/>
<path d="M4.4375 94.2842C4.4375 97.7155 11.9548 100.561 21.1426 100.561C30.3303 100.561 37.8476 97.7155 37.8476 94.2842V89.0117C37.8476 92.443 30.3303 95.2885 21.1426 95.2885C11.9548 95.2885 4.4375 92.443 4.4375 89.0117V94.2842Z" fill="#FF796E"/>
<g opacity="0.1">
<path opacity="0.1" d="M18.1191 88.9675C27.3451 88.9675 34.8242 86.1573 34.8242 82.6908C34.8242 79.2243 27.3451 76.4141 18.1191 76.4141C8.89317 76.4141 1.41406 79.2243 1.41406 82.6908C1.41406 86.1573 8.89317 88.9675 18.1191 88.9675Z" fill="black"/>
<path opacity="0.1" d="M30.8971 82.4412C30.8971 84.6172 25.2174 86.3747 18.2012 86.3747C11.1851 86.3747 5.42188 84.6172 5.42188 82.4412C5.42188 80.2653 11.1016 78.5078 18.1177 78.5078C25.1338 78.5078 30.8971 80.2653 30.8971 82.4412Z" fill="black"/>
<path opacity="0.1" d="M18.1177 79.3447C24.7162 79.3447 30.0618 80.8511 30.73 82.8597C30.8136 82.6923 30.8971 82.6086 30.8971 82.4412C30.8971 80.2653 25.2174 78.5078 18.2012 78.5078C11.1851 78.5078 5.42188 80.2653 5.42188 82.4412C5.42188 82.6086 5.42187 82.6923 5.5054 82.8597C6.1736 80.9348 11.6027 79.3447 18.1177 79.3447Z" fill="black"/>
<path opacity="0.1" d="M1.41406 87.9678C1.41406 91.3991 8.93134 94.2445 18.1191 94.2445C27.3069 94.2445 34.8242 91.3991 34.8242 87.9678V82.6953C34.8242 86.1266 27.3069 88.972 18.1191 88.972C8.93134 88.972 1.41406 86.1266 1.41406 82.6953V87.9678Z" fill="black"/>
<path opacity="0.1" d="M25.3836 83.2765C25.3836 83.1928 25.3836 83.1091 25.3836 83.0254C25.3001 82.4396 24.6319 82.0211 23.7966 81.6864C23.7966 81.4353 23.7966 81.0168 23.7966 80.8495C23.7966 80.7658 23.7966 80.7658 23.7966 80.6821C23.6296 79.6778 21.5415 79.1757 19.6204 79.1757H18.8687V78.9246C18.8687 78.7572 18.7016 78.5898 18.5346 78.5898H16.697C16.53 78.5898 16.3629 78.7572 16.3629 78.9246V79.1757H15.8617C13.7736 79.1757 11.5184 79.7615 11.3514 80.7658C11.3514 80.8495 11.3514 80.9332 11.3514 80.9332V81.8537C11.3514 82.0211 11.3514 82.2722 11.602 82.5233C11.6855 82.6906 11.8525 82.7743 12.1031 82.858H11.3514H11.2679H11.1843C11.1843 82.858 11.1843 82.858 11.1843 82.9417C11.1843 82.9417 11.1843 82.9417 11.1843 83.0254V83.1091C11.1843 83.1928 11.1843 83.2765 11.1843 83.2765V84.1971C11.1843 84.3644 11.1843 84.6155 11.4349 84.8666C11.9361 85.4524 13.356 85.8708 15.0265 85.8708H16.4464V86.4567C16.4464 86.6241 16.6135 86.7914 16.7805 86.7914H18.8687C19.0357 86.7914 19.2028 86.6241 19.2028 86.4567V85.8708H21.2074C23.212 85.8708 25.5507 85.3687 25.8013 84.1971V84.1134C25.3836 84.3644 25.3836 84.1134 25.3836 83.2765ZM14.7759 83.946H16.5299L16.6135 82.2722H15.6947C13.356 82.2722 11.5184 81.6027 11.6855 80.8495C11.8525 80.0963 13.6901 79.5104 15.8617 79.5104H16.697V78.9246H18.451V79.5104H19.5369C21.5415 79.5104 23.2955 80.0963 23.4625 80.7658H21.625C21.625 80.5984 21.4579 80.5147 21.2909 80.431C20.9568 80.2636 20.2886 80.0963 19.6204 80.0963H18.5346V81.6027H20.7062C22.8779 81.6027 24.8825 82.2722 25.0495 83.1091C25.2166 83.946 23.2955 84.6992 20.7897 84.6992H18.451V85.6198H16.3629V84.6992H14.6089C12.6043 84.6992 11.0173 84.1134 11.1008 83.3602H13.0219C13.1054 83.6949 13.8571 83.946 14.7759 83.946Z" fill="black"/>
<path opacity="0.1" d="M11.183 83.3574C11.0995 84.1106 12.6029 84.6965 14.6911 84.6965H16.4451V85.6171H18.5332V84.6965H20.8719C23.3777 84.6965 25.2988 83.9433 25.1317 83.1064C24.9647 82.2695 22.9601 81.6 20.7049 81.6H18.5332V80.0935H19.6191C20.2873 80.0935 20.9555 80.1772 21.2896 80.4283C21.5401 80.512 21.6237 80.6794 21.6237 80.7631H23.3777C23.2942 80.0935 21.5401 79.5077 19.452 79.5077H18.3662V78.9219H16.6957V79.5077H15.8604C13.6888 79.5077 11.7677 80.0935 11.6842 80.8467C11.5171 81.6 13.3547 82.2695 15.6934 82.2695H16.6121L16.5286 83.9433H14.7746C13.8558 83.9433 13.1041 83.6922 13.1876 83.3574H11.183ZM21.9578 82.4368C22.626 82.6042 23.0436 82.8553 23.1271 83.1064C23.2106 83.6085 22.1248 83.9433 20.7884 83.9433H18.5332V82.2695H20.7049C21.1225 82.2695 21.6237 82.2695 21.9578 82.4368ZM13.4382 80.8467C13.4382 80.6794 13.7723 80.4283 14.1899 80.3446C14.4405 80.2609 14.6075 80.2609 14.9416 80.1772C15.1922 80.1772 15.5263 80.0935 15.7769 80.0935H16.6121L16.5286 81.6H15.6098C14.4405 81.6 13.4382 81.2652 13.4382 80.8467Z" fill="black"/>
<path opacity="0.1" d="M16.6148 81.6002L16.6984 80.0938H15.8631C15.529 80.0938 15.2784 80.0937 15.0278 80.1774C14.7773 80.1774 14.5267 80.2611 14.2761 80.3448C13.8585 80.5122 13.6079 80.6796 13.5244 80.847C13.4409 81.2654 14.4432 81.6002 15.7796 81.6002H16.6148Z" fill="black"/>
<path opacity="0.1" d="M18.4531 83.9472H20.7083C22.0447 83.9472 23.1305 83.5288 23.047 83.1103C23.047 82.8593 22.5459 82.6082 21.8777 82.4408C21.6271 82.2734 21.1259 82.2734 20.6248 82.2734H18.4531V83.9472Z" fill="black"/>
</g>
<path d="M18.1191 88.1277C27.3451 88.1277 34.8242 85.3175 34.8242 81.851C34.8242 78.3844 27.3451 75.5742 18.1191 75.5742C8.89317 75.5742 1.41406 78.3844 1.41406 81.851C1.41406 85.3175 8.89317 88.1277 18.1191 88.1277Z" fill="#FFABA0"/>
<path d="M30.8971 81.5975C30.8971 83.7734 25.2174 85.5309 18.2012 85.5309C11.1851 85.5309 5.42188 83.7734 5.42188 81.5975C5.42188 79.4216 11.1016 77.6641 18.1177 77.6641C25.1338 77.6641 30.8971 79.4216 30.8971 81.5975Z" fill="#FFC8C3"/>
<path d="M18.1177 78.501C24.7162 78.501 30.0618 80.0074 30.73 82.0159C30.8136 81.8486 30.8971 81.7649 30.8971 81.5975C30.8971 79.4216 25.2174 77.6641 18.2012 77.6641C11.1851 77.6641 5.42188 79.4216 5.42188 81.5975C5.42188 81.7649 5.42187 81.8486 5.5054 82.0159C6.1736 80.0911 11.6027 78.501 18.1177 78.501Z" fill="#D75146"/>
<path d="M1.41406 87.124C1.41406 90.5553 8.93134 93.4008 18.1191 93.4008C27.3069 93.4008 34.8242 90.5553 34.8242 87.124V81.8516C34.8242 85.2828 27.3069 88.1283 18.1191 88.1283C8.93134 88.1283 1.41406 85.2828 1.41406 81.8516V87.124Z" fill="#FF796E"/>
<path d="M27.7746 46.9809C45.538 46.5825 94.3677 43.7145 98.4301 49.2912C94.288 54.7883 43.7856 52.1593 24.668 51.6813V50.1676C24.7476 48.4149 26.1018 47.0605 27.7746 46.9809Z" fill="#E2476C"/>
<path d="M27.771 45.1481C46.4106 44.7497 98.8248 41.563 98.8248 48.4145C98.8248 48.7331 98.7451 49.0518 98.5061 49.3705C94.4436 43.7937 45.5344 46.7414 27.8506 47.0601C26.1778 47.0601 24.8237 48.4941 24.8237 50.1672V48.2551C24.744 46.5821 26.0982 45.1481 27.771 45.1481Z" fill="#FFAFB6"/>
<path d="M19.9688 104.339C19.9688 106.968 22.0398 109.039 24.6685 109.119C45.1403 109.597 98.829 112.545 98.829 105.853V48.332C98.829 55.0242 45.5386 52.1561 24.9075 51.5984C22.1991 51.5188 19.9688 53.6698 19.9688 56.3785V104.339Z" fill="#FFCBCD"/>
<path d="M43.7349 75.5984L43.5325 75.6699L43.7349 75.5984ZM49.2784 63.9919L49.2069 63.7894L49.2784 63.9919ZM45.8364 81.543L45.8057 81.7554L46.1572 81.8063L46.0388 81.4714L45.8364 81.543ZM45.8361 81.5429L45.8669 81.3304L45.5153 81.2795L45.6337 81.6145L45.8361 81.5429ZM52.9967 101.798L52.7942 101.869L53.0462 102.582L53.2065 101.843L52.9967 101.798ZM65.7851 85.7961L65.7136 85.5936L65.7031 85.5973L65.6931 85.6021L65.7851 85.7961ZM75.3265 82.423L75.2549 82.2205L75.3265 82.423ZM80.87 70.8164L80.6676 70.888L80.87 70.8164ZM78.2472 63.3974L78.4496 63.3259L78.2472 63.3974ZM66.6407 57.8539L66.7123 58.0563L66.6407 57.8539ZM43.9373 75.5268C42.3026 70.9028 44.7259 65.829 49.35 64.1943L49.2069 63.7894C44.3592 65.5032 41.8187 70.8223 43.5325 75.6699L43.9373 75.5268ZM46.0388 81.4714L43.9373 75.5268L43.5325 75.6699L45.634 81.6145L46.0388 81.4714ZM45.8053 81.7554L45.8057 81.7554L45.8672 81.3305L45.8669 81.3304L45.8053 81.7554ZM53.1991 101.726L46.0385 81.4713L45.6337 81.6145L52.7942 101.869L53.1991 101.726ZM65.6931 85.6021C57.3856 89.5463 53.6272 97.8794 52.7868 101.752L53.2065 101.843C54.0292 98.0518 57.7289 89.8586 65.8772 85.99L65.6931 85.6021ZM75.2549 82.2205L65.7136 85.5936L65.8567 85.9985L75.398 82.6254L75.2549 82.2205ZM80.6676 70.888C82.3023 75.5121 79.879 80.5858 75.2549 82.2205L75.398 82.6254C80.2457 80.9116 82.7862 75.5925 81.0724 70.7449L80.6676 70.888ZM78.0448 63.469L80.6676 70.888L81.0724 70.7449L78.4496 63.3259L78.0448 63.469ZM66.7123 58.0563C71.3363 56.4216 76.4101 58.8449 78.0448 63.469L78.4496 63.3259C76.7359 58.4782 71.4168 55.9377 66.5691 57.6515L66.7123 58.0563ZM49.35 64.1943L66.7123 58.0563L66.5691 57.6515L49.2069 63.7894L49.35 64.1943Z" fill="#E2476C"/>
<path d="M56.8736 90.7786L45.6367 68.3606L49.3073 68.3606C51.2472 68.3606 53.0089 69.4923 53.8155 71.2565L61.1384 87.2737C61.3746 87.7903 62.1095 87.788 62.3423 87.2698L69.5979 71.1279C70.3979 69.348 72.1677 68.2031 74.1191 68.2031H77.8337L66.5766 90.7786C66.1593 91.6712 64.5873 93.4564 61.6381 93.4564C58.6889 93.4564 57.233 91.6712 56.8736 90.7786Z" fill="#E2476C"/>
<path d="M19.9681 73.0273C19.9681 73.9037 20.685 74.6207 21.5613 74.6207H37.2537C39.0061 74.6207 40.4399 76.0547 40.4399 77.8074V87.3676C40.4399 89.1203 39.0061 90.5544 37.2537 90.5544H19.9681C19.0919 90.5544 18.375 89.8374 18.375 88.961V74.6207C18.375 73.7444 19.0919 73.0273 19.9681 73.0273Z" fill="#F899A2"/>
<path opacity="0.8" d="M37.254 74.6207H21.5616C20.6854 74.6207 19.9684 73.9037 19.9684 73.0273C19.6498 73.0273 19.4108 73.107 19.1719 73.2663V73.824C19.1719 74.7004 19.8888 75.4174 20.765 75.4174H37.254C39.0064 75.4174 40.4402 76.8514 40.4402 78.6041V77.8074C40.4402 76.0547 39.0064 74.6207 37.254 74.6207Z" fill="url(#paint0_linear_4413_131785)"/>
<path d="M29.6875 82.8274C29.6875 84.5801 31.1213 86.0141 32.8738 86.0141C34.6262 86.0141 36.06 84.5801 36.06 82.8274C36.06 81.0747 34.6262 79.6406 32.8738 79.6406C31.0417 79.6406 29.6875 81.0747 29.6875 82.8274Z" fill="#A2003F"/>
<path d="M30.4844 82.8315C30.4844 84.1858 31.5199 85.2215 32.8741 85.2215C34.2282 85.2215 35.2638 84.1858 35.2638 82.8315C35.2638 81.4771 34.2282 80.4414 32.8741 80.4414C31.5199 80.4414 30.4844 81.5568 30.4844 82.8315Z" fill="#E2476C"/>
<g opacity="0.1">
<path opacity="0.1" d="M82.5097 131.507C91.7357 131.507 99.2148 128.696 99.2148 125.23C99.2148 121.763 91.7357 118.953 82.5097 118.953C73.2838 118.953 65.8047 121.763 65.8047 125.23C65.8047 128.696 73.2838 131.507 82.5097 131.507Z" fill="black"/>
<path opacity="0.1" d="M95.2042 124.98C95.2042 127.156 89.5245 128.914 82.5083 128.914C75.4922 128.914 69.8125 127.156 69.8125 124.98C69.8125 122.804 75.4922 121.047 82.5083 121.047C89.5245 121.047 95.2042 122.804 95.2042 124.98Z" fill="black"/>
<path opacity="0.1" d="M82.5083 121.884C89.1068 121.884 94.4525 123.39 95.1207 125.399C95.2042 125.231 95.2042 125.148 95.2042 124.98C95.2042 122.804 89.5245 121.047 82.5083 121.047C75.4922 121.047 69.8125 122.804 69.8125 124.98C69.8125 125.148 69.8125 125.231 69.896 125.399C70.5642 123.39 75.9098 121.884 82.5083 121.884Z" fill="black"/>
<path opacity="0.1" d="M65.8047 130.507C65.8047 133.938 73.322 136.784 82.5097 136.784C91.6975 136.784 99.2148 133.938 99.2148 130.507V125.234C99.2148 128.666 91.6975 131.511 82.5097 131.511C73.322 131.511 65.8047 128.666 65.8047 125.234V130.507Z" fill="black"/>
</g>
<path d="M82.5097 130.678C91.7357 130.678 99.2148 127.868 99.2148 124.402C99.2148 120.935 91.7357 118.125 82.5097 118.125C73.2838 118.125 65.8047 120.935 65.8047 124.402C65.8047 127.868 73.2838 130.678 82.5097 130.678Z" fill="#FFABA0"/>
<path d="M95.2042 124.148C95.2042 126.324 89.5245 128.082 82.5083 128.082C75.4922 128.082 69.8125 126.324 69.8125 124.148C69.8125 121.972 75.4922 120.215 82.5083 120.215C89.5245 120.215 95.2042 121.972 95.2042 124.148Z" fill="#FFC8C3"/>
<path d="M82.5083 121.052C89.1068 121.052 94.4525 122.558 95.1207 124.567C95.2042 124.399 95.2042 124.316 95.2042 124.148C95.2042 121.972 89.5245 120.215 82.5083 120.215C75.4922 120.215 69.8125 121.972 69.8125 124.148C69.8125 124.316 69.8125 124.399 69.896 124.567C70.5642 122.558 75.9098 121.052 82.5083 121.052Z" fill="#D75146"/>
<path d="M65.8047 129.675C65.8047 133.106 73.322 135.952 82.5097 135.952C91.6975 135.952 99.2148 133.106 99.2148 129.675V124.402C99.2148 127.834 91.6975 130.679 82.5097 130.679C73.322 130.679 65.8047 127.834 65.8047 124.402V129.675Z" fill="#FF796E"/>
<g opacity="0.1">
<path opacity="0.1" d="M83.9238 125.643C93.1497 125.643 100.629 122.833 100.629 119.367C100.629 115.9 93.1497 113.09 83.9238 113.09C74.6979 113.09 67.2188 115.9 67.2188 119.367C67.2188 122.833 74.6979 125.643 83.9238 125.643Z" fill="black"/>
<path opacity="0.1" d="M96.6182 119.117C96.6182 121.293 90.9385 123.05 83.9224 123.05C76.9063 123.05 71.2266 121.293 71.2266 119.117C71.2266 116.941 76.9063 115.184 83.9224 115.184C90.9385 115.184 96.6182 116.941 96.6182 119.117Z" fill="black"/>
<path opacity="0.1" d="M83.9224 116.02C90.5209 116.02 95.8665 117.527 96.5347 119.535C96.6182 119.368 96.6182 119.284 96.6182 119.117C96.6182 116.941 90.9385 115.184 83.9224 115.184C76.9063 115.184 71.2266 116.941 71.2266 119.117C71.2266 119.284 71.2266 119.368 71.3101 119.535C71.9783 117.527 77.3239 116.02 83.9224 116.02Z" fill="black"/>
<path opacity="0.1" d="M67.2188 124.644C67.2188 128.075 74.736 130.92 83.9238 130.92C93.1116 130.92 100.629 128.075 100.629 124.644V119.371C100.629 122.802 93.1116 125.648 83.9238 125.648C74.736 125.648 67.2188 122.802 67.2188 119.371V124.644Z" fill="black"/>
</g>
<path d="M83.916 124.811C93.1419 124.811 100.621 122.001 100.621 118.535C100.621 115.068 93.1419 112.258 83.916 112.258C74.69 112.258 67.2109 115.068 67.2109 118.535C67.2109 122.001 74.69 124.811 83.916 124.811Z" fill="#FFABA0"/>
<path d="M96.6104 118.281C96.6104 120.457 90.9307 122.215 83.9146 122.215C76.8985 122.215 71.2188 120.457 71.2188 118.281C71.2188 116.105 76.8985 114.348 83.9146 114.348C90.9307 114.348 96.6104 116.105 96.6104 118.281Z" fill="#FFC8C3"/>
<path d="M83.9146 115.185C90.5131 115.185 95.8587 116.691 96.5269 118.7C96.6104 118.532 96.6104 118.448 96.6104 118.281C96.6104 116.105 90.9307 114.348 83.9146 114.348C76.8985 114.348 71.2188 116.105 71.2188 118.281C71.2188 118.448 71.2187 118.532 71.3023 118.7C71.9705 116.691 77.3161 115.185 83.9146 115.185Z" fill="#D75146"/>
<path d="M67.2109 123.808C67.2109 127.239 74.7282 130.084 83.916 130.084C93.1038 130.084 100.621 127.239 100.621 123.808V118.535C100.621 121.966 93.1038 124.812 83.916 124.812C74.7282 124.812 67.2109 121.966 67.2109 118.535V123.808Z" fill="#FF796E"/>
<g opacity="0.1">
<path opacity="0.1" d="M81.0293 119.292C90.2552 119.292 97.7343 116.482 97.7343 113.015C97.7343 109.548 90.2552 106.738 81.0293 106.738C71.8033 106.738 64.3242 109.548 64.3242 113.015C64.3242 116.482 71.8033 119.292 81.0293 119.292Z" fill="black"/>
<path opacity="0.1" d="M93.7237 112.765C93.7237 114.941 88.044 116.699 81.0279 116.699C74.0117 116.699 68.332 114.941 68.332 112.765C68.332 110.59 74.0117 108.832 81.0279 108.832C88.044 108.832 93.7237 110.59 93.7237 112.765Z" fill="black"/>
<path opacity="0.1" d="M81.0279 109.669C87.6264 109.669 92.972 111.175 93.6402 113.184C93.7237 113.017 93.7237 112.933 93.7237 112.765C93.7237 110.59 88.044 108.832 81.0279 108.832C74.0117 108.832 68.332 110.59 68.332 112.765C68.332 112.933 68.332 113.017 68.4156 113.184C69.0838 111.175 74.4294 109.669 81.0279 109.669Z" fill="black"/>
<path opacity="0.1" d="M64.3242 118.292C64.3242 121.723 71.8415 124.569 81.0293 124.569C90.217 124.569 97.7343 121.723 97.7343 118.292V113.02C97.7343 116.451 90.217 119.296 81.0293 119.296C71.8415 119.296 64.3242 116.451 64.3242 113.02V118.292Z" fill="black"/>
</g>
<path d="M81.0293 118.46C90.2552 118.46 97.7343 115.65 97.7343 112.183C97.7343 108.716 90.2552 105.906 81.0293 105.906C71.8033 105.906 64.3242 108.716 64.3242 112.183C64.3242 115.65 71.8033 118.46 81.0293 118.46Z" fill="#FFABA0"/>
<path d="M93.7237 111.93C93.7237 114.105 88.044 115.863 81.0279 115.863C74.0117 115.863 68.332 114.105 68.332 111.93C68.332 109.754 74.0117 107.996 81.0279 107.996C88.044 107.996 93.7237 109.754 93.7237 111.93Z" fill="#FFC8C3"/>
<path d="M81.0279 108.833C87.6264 108.833 92.972 110.339 93.6402 112.348C93.7237 112.181 93.7237 112.097 93.7237 111.929C93.7237 109.754 88.044 107.996 81.0279 107.996C74.0117 107.996 68.332 109.754 68.332 111.929C68.332 112.097 68.332 112.181 68.4156 112.348C69.0838 110.339 74.4294 108.833 81.0279 108.833Z" fill="#D75146"/>
<path d="M64.3242 117.456C64.3242 120.887 71.8415 123.733 81.0293 123.733C90.217 123.733 97.7343 120.887 97.7343 117.456V112.184C97.7343 115.615 90.217 118.46 81.0293 118.46C71.8415 118.46 64.3242 115.615 64.3242 112.184V117.456Z" fill="#FF796E"/>
<g opacity="0.1">
<path opacity="0.1" d="M75.3535 112.057C84.5794 112.057 92.0585 109.247 92.0585 105.781C92.0585 102.314 84.5794 99.5039 75.3535 99.5039C66.1275 99.5039 58.6484 102.314 58.6484 105.781C58.6484 109.247 66.1275 112.057 75.3535 112.057Z" fill="black"/>
<path opacity="0.1" d="M88.0518 105.531C88.0518 107.707 82.3721 109.464 75.356 109.464C68.3399 109.464 62.6602 107.707 62.6602 105.531C62.6602 103.355 68.3399 101.598 75.356 101.598C82.3721 101.598 88.0518 103.355 88.0518 105.531Z" fill="black"/>
<path opacity="0.1" d="M75.356 102.435C81.9545 102.435 87.3001 103.941 87.9683 105.95C88.0518 105.782 88.0518 105.698 88.0518 105.531C88.0518 103.355 82.3721 101.598 75.356 101.598C68.3399 101.598 62.6602 103.355 62.6602 105.531C62.6602 105.698 62.6602 105.782 62.7437 105.95C63.4119 103.941 68.7575 102.435 75.356 102.435Z" fill="black"/>
<path opacity="0.1" d="M58.6484 111.058C58.6484 114.489 66.1657 117.334 75.3535 117.334C84.5413 117.334 92.0585 114.489 92.0585 111.058V105.785C92.0585 109.216 84.5413 112.062 75.3535 112.062C66.1657 112.062 58.6484 109.216 58.6484 105.785V111.058Z" fill="black"/>
</g>
<path d="M75.3496 111.233C84.5755 111.233 92.0546 108.423 92.0546 104.956C92.0546 101.49 84.5755 98.6797 75.3496 98.6797C66.1236 98.6797 58.6445 101.49 58.6445 104.956C58.6445 108.423 66.1236 111.233 75.3496 111.233Z" fill="#FFABA0"/>
<path d="M88.0479 104.699C88.0479 106.875 82.3682 108.632 75.3521 108.632C68.336 108.632 62.6562 106.875 62.6562 104.699C62.6562 102.523 68.336 100.766 75.3521 100.766C82.3682 100.766 88.0479 102.523 88.0479 104.699Z" fill="#FFC8C3"/>
<path d="M75.3521 101.603C81.9506 101.603 87.2962 103.109 87.9644 105.117C88.0479 104.95 88.0479 104.866 88.0479 104.699C88.0479 102.523 82.3682 100.766 75.3521 100.766C68.336 100.766 62.6562 102.523 62.6562 104.699C62.6562 104.866 62.6562 104.95 62.7398 105.117C63.408 103.109 68.7536 101.603 75.3521 101.603Z" fill="#D75146"/>
<path d="M58.6445 110.226C58.6445 113.657 66.1618 116.502 75.3496 116.502C84.5374 116.502 92.0546 113.657 92.0546 110.226V104.953C92.0546 108.384 84.5374 111.23 75.3496 111.23C66.1618 111.23 58.6445 108.384 58.6445 104.953V110.226Z" fill="#FF796E"/>
<g opacity="0.1">
<path opacity="0.1" d="M82.5137 104.901C91.7396 104.901 99.2187 102.091 99.2187 98.6244C99.2187 95.1578 91.7396 92.3477 82.5137 92.3477C73.2877 92.3477 65.8086 95.1578 65.8086 98.6244C65.8086 102.091 73.2877 104.901 82.5137 104.901Z" fill="black"/>
<path opacity="0.1" d="M95.2916 98.3748C95.2916 100.551 89.6119 102.308 82.5958 102.308C75.5797 102.308 69.8164 100.551 69.8164 98.3748C69.8164 96.1989 75.4961 94.4414 82.5123 94.4414C89.5284 94.4414 95.2916 96.1989 95.2916 98.3748Z" fill="black"/>
<path opacity="0.1" d="M82.5123 95.2783C89.1107 95.2783 94.4564 96.7847 95.1246 98.7933C95.2081 98.6259 95.2916 98.5422 95.2916 98.3748C95.2916 96.1989 89.6119 94.4414 82.5958 94.4414C75.5797 94.4414 69.8164 96.1989 69.8164 98.3748C69.8164 98.5422 69.8164 98.6259 69.8999 98.7933C70.5681 96.8684 75.9973 95.2783 82.5123 95.2783Z" fill="black"/>
<path opacity="0.1" d="M65.8086 103.901C65.8086 107.333 73.3259 110.178 82.5137 110.178C91.7014 110.178 99.2187 107.333 99.2187 103.901V98.6289C99.2187 102.06 91.7014 104.906 82.5137 104.906C73.3259 104.906 65.8086 102.06 65.8086 98.6289V103.901Z" fill="black"/>
<path opacity="0.1" d="M89.7781 99.2101C89.7781 99.1264 89.7781 99.0427 89.7781 98.959C89.6946 98.3732 89.0264 97.9547 88.1912 97.62C88.1912 97.3689 88.1912 96.9504 88.1912 96.7831C88.1912 96.6994 88.1912 96.6994 88.1912 96.6157C88.0241 95.6114 85.936 95.1093 84.0149 95.1093H83.2632V94.8582C83.2632 94.6908 83.0961 94.5234 82.9291 94.5234H81.0915C80.9245 94.5234 80.7574 94.6908 80.7574 94.8582V95.1093H80.2563C78.1681 95.1093 75.913 95.6951 75.7459 96.6994C75.7459 96.7831 75.7459 96.8668 75.7459 96.8668V97.7873C75.7459 97.9547 75.7459 98.2058 75.9965 98.4569C76.08 98.6242 76.2471 98.7079 76.4976 98.7916H75.7459H75.6624H75.5789C75.5789 98.7916 75.5789 98.7916 75.5789 98.8753C75.5789 98.8753 75.5789 98.8753 75.5789 98.959V99.0427C75.5789 99.1264 75.5789 99.2101 75.5789 99.2101V100.131C75.5789 100.298 75.5789 100.549 75.8294 100.8C76.3306 101.386 77.7505 101.804 79.421 101.804H80.841V102.39C80.841 102.558 81.008 102.725 81.1751 102.725H83.2632C83.4302 102.725 83.5973 102.558 83.5973 102.39V101.804H85.6019C87.6065 101.804 89.9452 101.302 90.1958 100.131V100.047C89.7781 100.298 89.7781 100.047 89.7781 99.2101ZM79.1704 99.8796H80.9245L81.008 98.2058H80.0892C77.7505 98.2058 75.913 97.5363 76.08 96.7831C76.2471 96.0299 78.0846 95.444 80.2563 95.444H81.0915V94.8582H82.8456V95.444H83.9314C85.936 95.444 87.69 96.0299 87.8571 96.6994H86.0195C86.0195 96.532 85.8525 96.4483 85.6854 96.3646C85.3513 96.1972 84.6831 96.0299 84.0149 96.0299H82.9291V97.5363H85.1007C87.2724 97.5363 89.277 98.2058 89.444 99.0427C89.6111 99.8796 87.69 100.633 85.1843 100.633H82.8456V101.553H80.7574V100.633H79.0034C76.9988 100.633 75.4118 100.047 75.4953 99.2938H77.4164C77.4999 99.6285 78.2517 99.8796 79.1704 99.8796Z" fill="black"/>
<path opacity="0.1" d="M75.5814 99.291C75.4979 100.044 77.0014 100.63 79.0895 100.63H80.8435V101.551H82.9317V100.63H85.2704C87.7761 100.63 89.6972 99.8769 89.5302 99.04C89.3631 98.2031 87.3585 97.5335 85.1033 97.5335H82.9317V96.0271H84.0175C84.6857 96.0271 85.3539 96.1108 85.688 96.3619C85.9386 96.4456 86.0221 96.613 86.0221 96.6966H87.7761C87.6926 96.0271 85.9386 95.4413 83.8504 95.4413H82.7646V94.8555H81.0941V95.4413H80.2589C78.0872 95.4413 76.1661 96.0271 76.0826 96.7803C75.9155 97.5335 77.7531 98.2031 80.0918 98.2031H81.0106L80.9271 99.8769H79.173C78.2543 99.8769 77.5025 99.6258 77.586 99.291H75.5814ZM86.3562 98.3704C87.0244 98.5378 87.442 98.7889 87.5256 99.04C87.6091 99.5421 86.5233 99.8769 85.1868 99.8769H82.9317V98.2031H85.1033C85.5209 98.2031 86.0221 98.2031 86.3562 98.3704ZM77.8366 96.7803C77.8366 96.613 78.1707 96.3619 78.5884 96.2782C78.8389 96.1945 79.006 96.1945 79.3401 96.1108C79.5907 96.1108 79.9248 96.0271 80.1753 96.0271H81.0106L80.9271 97.5335H80.0083C78.8389 97.5335 77.8366 97.1988 77.8366 96.7803Z" fill="black"/>
<path opacity="0.1" d="M81.0094 97.5338L81.0929 96.0273H80.2576C79.9235 96.0273 79.673 96.0273 79.4224 96.111C79.1718 96.111 78.9212 96.1947 78.6707 96.2784C78.253 96.4458 78.0025 96.6132 77.9189 96.7805C77.8354 97.199 78.8377 97.5338 80.1741 97.5338H81.0094Z" fill="black"/>
<path opacity="0.1" d="M82.8438 99.8808H85.0989C86.4353 99.8808 87.5212 99.4624 87.4376 99.0439C87.4376 98.7929 86.9365 98.5418 86.2683 98.3744C86.0177 98.207 85.5166 98.207 85.0154 98.207H82.8438V99.8808Z" fill="black"/>
</g>
<path d="M82.5137 104.046C91.7396 104.046 99.2187 101.235 99.2187 97.7689C99.2187 94.3024 91.7396 91.4922 82.5137 91.4922C73.2877 91.4922 65.8086 94.3024 65.8086 97.7689C65.8086 101.235 73.2877 104.046 82.5137 104.046Z" fill="#FFABA0"/>
<path d="M95.2916 97.5155C95.2916 99.6914 89.6119 101.449 82.5958 101.449C75.5797 101.449 69.8164 99.6914 69.8164 97.5155C69.8164 95.3395 75.4961 93.582 82.5123 93.582C89.5284 93.582 95.2916 95.3395 95.2916 97.5155Z" fill="#FFC8C3"/>
<path d="M82.5123 94.4189C89.1108 94.4189 94.4564 95.9254 95.1246 97.9339C95.2081 97.7665 95.2916 97.6828 95.2916 97.5155C95.2916 95.3395 89.6119 93.582 82.5958 93.582C75.5797 93.582 69.8164 95.3395 69.8164 97.5155C69.8164 97.6828 69.8164 97.7665 69.8999 97.9339C70.5681 96.009 75.9973 94.4189 82.5123 94.4189Z" fill="#D75146"/>
<path d="M65.8086 103.042C65.8086 106.473 73.3259 109.319 82.5137 109.319C91.7014 109.319 99.2187 106.473 99.2187 103.042V97.7695C99.2187 101.201 91.7014 104.046 82.5137 104.046C73.3259 104.046 65.8086 101.201 65.8086 97.7695V103.042Z" fill="#FF796E"/>
<path d="M120.886 35.7183H174.983C174.812 35.8553 174.633 36.0024 174.446 36.1599C172.864 37.493 170.75 39.5722 168.584 42.577C164.246 48.5932 159.721 58.2887 158.81 73.069C157.911 87.6645 155.812 102.775 152.499 115.119C150.842 121.292 148.887 126.75 146.64 131.098C144.438 135.358 141.992 138.48 139.338 140.2H85.1269C87.4178 138.2 89.5175 135.331 91.4252 131.847C93.8793 127.364 96.0552 121.789 97.9238 115.549C101.661 103.068 104.194 87.8412 105.24 73.1751L105.24 73.1744C106.283 58.3375 110.297 48.9208 114.007 43.2343C115.863 40.3888 117.648 38.4697 118.957 37.2686C119.612 36.6679 120.148 36.2465 120.515 35.9784C120.67 35.8649 120.795 35.7788 120.886 35.7183Z" fill="#FFFDFD" stroke="#E1E1E1" stroke-width="1.60076"/>
<path d="M160.175 44.9387H121.219C120.438 44.9387 119.816 44.3174 119.816 43.5358C119.816 42.7541 120.438 42.1328 121.219 42.1328H160.155C160.937 42.1328 161.558 42.7541 161.558 43.5358C161.558 44.3174 160.937 44.9387 160.175 44.9387Z" fill="#C8C8C8"/>
<path d="M155.565 53.2767H139.894C139.553 53.2767 139.293 53.0162 139.293 52.6755C139.293 52.3348 139.553 52.0742 139.894 52.0742H155.565C155.905 52.0742 156.166 52.3348 156.166 52.6755C156.166 53.0162 155.885 53.2767 155.565 53.2767Z" fill="#C8C8C8"/>
<path d="M135.121 53.2728H116.605C116.264 53.2728 116.004 53.0123 116.004 52.6716C116.004 52.3309 116.264 52.0703 116.605 52.0703H135.121C135.462 52.0703 135.722 52.3309 135.722 52.6716C135.722 53.0123 135.462 53.2728 135.121 53.2728Z" fill="#C8C8C8"/>
<path d="M153.217 62.4369H114.281C113.94 62.4369 113.68 62.1764 113.68 61.8356C113.68 61.4949 113.94 61.2344 114.281 61.2344H153.217C153.558 61.2344 153.818 61.4949 153.818 61.8356C153.818 62.1764 153.538 62.4369 153.217 62.4369Z" fill="#C8C8C8"/>
<path d="M121.136 71.5931H112.218C111.878 71.5931 111.617 71.3326 111.617 70.9919C111.617 70.6512 111.878 70.3906 112.218 70.3906H121.136C121.476 70.3906 121.737 70.6512 121.737 70.9919C121.737 71.3326 121.456 71.5931 121.136 71.5931Z" fill="#C8C8C8"/>
<path d="M150.947 71.5931H124.656C124.315 71.5931 124.055 71.3326 124.055 70.9919C124.055 70.6512 124.315 70.3906 124.656 70.3906H150.947C151.288 70.3906 151.548 70.6512 151.548 70.9919C151.548 71.3326 151.288 71.5931 150.947 71.5931Z" fill="#C8C8C8"/>
<path d="M150.151 80.7416H111.195C110.854 80.7416 110.594 80.481 110.594 80.1403C110.594 79.7996 110.854 79.5391 111.195 79.5391H150.131C150.472 79.5391 150.732 79.7996 150.732 80.1403C150.732 80.481 150.472 80.7416 150.151 80.7416Z" fill="#C8C8C8"/>
<path d="M126.964 89.89H110.492C110.151 89.89 109.891 89.6295 109.891 89.2888C109.891 88.948 110.151 88.6875 110.492 88.6875H126.964C127.305 88.6875 127.565 88.948 127.565 89.2888C127.565 89.6295 127.285 89.89 126.964 89.89Z" fill="#C8C8C8"/>
<path d="M124.785 99.0541H109.054C108.714 99.0541 108.453 98.7936 108.453 98.4528C108.453 98.1121 108.714 97.8516 109.054 97.8516H124.785C125.126 97.8516 125.386 98.1121 125.386 98.4528C125.386 98.7936 125.106 99.0541 124.785 99.0541Z" fill="#C8C8C8"/>
<path d="M123.299 108.195H107.488C107.147 108.195 106.887 107.934 106.887 107.593C106.887 107.253 107.147 106.992 107.488 106.992H123.299C123.64 106.992 123.9 107.253 123.9 107.593C123.9 107.934 123.64 108.195 123.299 108.195Z" fill="#C8C8C8"/>
<path d="M144.241 117.351H105.304C104.964 117.351 104.703 117.09 104.703 116.75C104.703 116.409 104.964 116.148 105.304 116.148H144.241C144.581 116.148 144.842 116.409 144.842 116.75C144.842 117.09 144.581 117.351 144.241 117.351Z" fill="#C8C8C8"/>
<path d="M140.547 127.314H126.079C125.297 127.314 124.676 126.692 124.676 125.911C124.676 125.129 125.297 124.508 126.079 124.508H140.547C141.328 124.508 141.95 125.129 141.95 125.911C141.95 126.692 141.328 127.314 140.547 127.314Z" fill="#C8C8C8"/>
<path d="M141.017 112.566L150.008 121.558L172.19 99.3723C173.421 98.1411 173.421 96.1451 172.19 94.9139L167.657 90.3803C166.426 89.1493 164.43 89.1493 163.199 90.3803L141.017 112.566Z" fill="#7CA0DB"/>
<path d="M161.806 113.325C160.821 112.34 160.821 110.743 161.806 109.757L172.191 99.3711L173.003 100.183C174.525 101.705 174.525 104.173 173.003 105.696L165.374 113.325C164.389 114.311 162.792 114.311 161.806 113.325Z" fill="#92001F"/>
<path d="M141.017 112.566L150.008 121.558L172.19 99.3723C173.421 98.1411 173.421 96.1451 172.19 94.9139L167.657 90.3803C166.426 89.1493 164.43 89.1493 163.199 90.3803L141.017 112.566Z" fill="#EE0033"/>
<path d="M174.85 85.5738L176.995 87.7114C177.684 88.3982 177.684 89.5118 176.995 90.1986L172.244 94.9339L167.604 90.3091L172.355 85.5738C173.044 84.8869 174.161 84.8869 174.85 85.5738Z" fill="#92001F"/>
<path d="M141.017 112.566C137.945 115.639 136.612 119.516 135.924 123.378C135.581 125.303 137.273 126.995 139.198 126.652C143.06 125.964 146.936 124.631 150.008 121.558L141.017 112.566Z" fill="#92001F"/>
<defs>
<linearGradient id="paint0_linear_4413_131785" x1="29.8023" y1="77.2808" x2="29.8023" y2="72.1727" gradientUnits="userSpaceOnUse">
<stop stop-color="#F9FBFC" stop-opacity="0"/>
<stop offset="1" stop-color="#9E97FF"/>
</linearGradient>
</defs>
</svg>
