<svg width="187" height="137" viewBox="0 0 187 137" fill="none" xmlns="http://www.w3.org/2000/svg">
<g clip-path="url(#clip0)">
<path d="M148.156 114.174C162.756 110.247 165.075 96.3524 165.075 96.3524C160.559 98.9545 156.481 96.5978 148.083 100.624C146.227 101.508 144.469 102.98 142.785 104.723C144.494 101.998 145.885 99.5436 147.033 97.2361C148.62 97.187 157.165 96.696 161.975 90.2398C167.346 83.0472 165.637 73.547 165.637 73.547C165.637 73.547 163.391 75.6581 158.508 78.0393C155.309 79.6104 152.966 81.7952 151.281 84.1519C151.403 83.3663 151.501 82.6053 151.598 81.8443C152.868 80.3714 156.823 74.9953 155.895 65.937C154.821 55.1848 149.401 51.9199 149.401 51.9199C149.401 51.9199 147.155 57.2469 146.398 62.3039C145.153 70.8958 147.546 75.339 150.158 80.2732C149.767 82.2616 149.279 84.3973 148.571 86.4839C148.229 87.515 147.863 88.546 147.472 89.577C148.473 79.9295 145.739 77.9657 141.222 70.3803C141.222 70.3803 140.026 75.339 138.927 78.6285C135.436 89.0861 140.661 95.665 143.761 97.678C141.124 102.686 137.975 107.399 134.63 111.769C135.167 110.787 135.704 109.707 136.144 108.577C141.857 94.5112 132.237 84.25 132.237 84.25C131.578 89.4543 128.6 90.7308 125.67 99.1754C123.888 104.306 126.622 112.726 128.404 119.207C125.035 122.963 121.641 126.35 118.492 129.223C119.078 129.664 119.664 130.155 120.25 130.597C121.08 129.861 121.861 129.149 122.642 128.462C124.889 129.345 129.064 130.646 133.922 130.72C149.035 130.867 154.968 118.127 154.968 118.127C149.914 119.428 147.643 117.12 138.732 117.488C136.412 117.587 133.849 118.691 131.236 120.238C132.994 118.397 134.532 116.654 135.875 114.935C138.024 115.23 142.882 115.574 148.156 114.174Z" fill="#B9E7F0"/>
<path d="M142.15 79.8057H29.085V94.3137H142.15V79.8057Z" fill="#00557F"/>
<path d="M142.15 81.6709H29.085V92.4476H142.15V81.6709Z" fill="white"/>
<path opacity="0.56" d="M142.15 81.6709H29.085V84.5431H142.15V81.6709Z" fill="#C5E7F9"/>
<path d="M116.49 106.638H22.2247C21.3946 106.638 20.7354 105.975 20.7354 105.14V95.8363C20.7354 95.0017 21.3946 94.3389 22.2247 94.3389H116.49C117.32 94.3389 117.979 95.0017 117.979 95.8363V105.14C118.004 105.95 117.32 106.638 116.49 106.638Z" fill="#72BACE"/>
<path d="M38.6071 94.3389H34.0415V106.638H38.6071V94.3389Z" fill="#B9E7F0"/>
<path d="M109.044 94.3389H106.529V106.638H109.044V94.3389Z" fill="#B9E7F0"/>
<path d="M111.632 94.3389H110.362V106.638H111.632V94.3389Z" fill="#B9E7F0"/>
<path d="M44.0269 103.937H43.7096C42.2691 103.937 41.1216 102.759 41.1216 101.335V99.5924C41.1216 98.144 42.2935 96.9902 43.7096 96.9902H44.0269C45.4674 96.9902 46.6149 98.1686 46.6149 99.5924V101.335C46.6149 102.784 45.4674 103.937 44.0269 103.937Z" fill="#B9E7F0"/>
<path d="M126.671 68.4404H20.7354V79.8063H126.671V68.4404Z" fill="#8BCBE3"/>
<path d="M126.671 69.9131H20.7354V78.3822H126.671V69.9131Z" fill="white"/>
<path d="M126.671 69.9131H20.7354V72.147H126.671V69.9131Z" fill="#AAD8F3"/>
<path d="M143.859 122.84H45.7603C44.3443 122.84 43.1724 121.686 43.1724 120.238V109.191C43.1724 107.767 44.3199 106.589 45.7603 106.589H143.835V122.84H143.859Z" fill="#E8F7FA"/>
<path d="M143.859 121.097H80.3072C78.1832 121.097 76.4497 119.354 76.4497 117.218V112.259C76.4497 110.124 78.1832 108.381 80.3072 108.381H143.859V121.097Z" fill="white"/>
<path d="M143.81 112.505H76.4741C76.4497 112.505 76.4497 112.48 76.4497 112.48V111.818C76.4497 109.927 77.9878 108.381 79.8678 108.381H143.835C143.859 108.381 143.859 108.405 143.859 108.405V112.456C143.859 112.48 143.835 112.505 143.81 112.505Z" fill="#C5E7F9"/>
<path d="M138.415 68.441H41.3902C39.9742 68.441 38.8022 67.2872 38.8022 65.8389V58.6217C38.8022 57.1979 39.9497 56.0195 41.3902 56.0195H138.415V68.441Z" fill="#58DBDB"/>
<path d="M138.415 67.1158H74.1304C72.7876 67.1158 71.689 66.0111 71.689 64.661V59.8249C71.689 58.4748 72.7876 57.3701 74.1304 57.3701H138.415V67.1158Z" fill="white"/>
<path d="M138.415 60.5358H71.7134V59.8975C71.7134 58.5228 72.8365 57.3936 74.2037 57.3936H138.415V60.5358Z" fill="#C5E7F9"/>
<path d="M25.4475 133.296H127.672C128.185 133.296 128.576 132.879 128.576 132.388V123.747C128.576 123.232 128.161 122.839 127.672 122.839H25.4475C24.9348 122.839 24.5442 123.256 24.5442 123.747V132.388C24.5442 132.879 24.9348 133.296 25.4475 133.296Z" fill="#BCF7E2"/>
<path d="M116.418 133.289H119.909V122.831H116.418V133.289Z" fill="#58DBDB"/>
<path d="M111.686 133.289H113.444V122.831H111.686V133.289Z" fill="#58DBDB"/>
<path d="M46.505 133.289H50.8997V122.831H46.505V133.289Z" fill="#58DBDB"/>
<path d="M41.3034 133.289H42.9636V122.831H41.3034V133.289Z" fill="#58DBDB"/>
<path d="M34.474 133.289H37.77V122.831H34.474V133.289Z" fill="#58DBDB"/>
<path d="M71.5909 41.905C71.3467 40.6285 70.2725 40.8004 68.832 40.7267C67.416 40.6776 64.9501 40.4076 63.6317 40.9231C62.9725 41.1686 61.9226 42.9115 61.8982 42.9606L61.4587 43.9671C61.4587 43.9671 61.8982 44.2862 62.0203 44.0407C62.4842 43.1079 63.1922 42.666 63.1922 42.666L61.6052 44.3844C61.6052 44.3844 61.8494 44.6544 62.2644 44.6299C62.6062 44.6053 62.948 44.2126 63.1678 44.0407C63.5584 43.6971 64.3153 42.9606 64.3153 42.9606L63.1434 45.3418C63.0945 45.4154 63.1678 45.5136 63.241 45.5136C63.4363 45.5136 63.7049 45.4645 63.8514 45.3663C64.0223 45.2436 64.9501 44.2862 65.1698 43.7216C65.243 43.5743 65.9999 43.2306 66.3173 43.2061C66.5858 43.1815 67.2695 43.7216 66.2685 43.8198C65.9755 43.8443 65.4872 43.7462 65.1942 44.0162C65.1454 44.0653 64.9745 44.2862 65.121 44.3844C65.2675 44.4826 65.6825 44.679 66.0243 44.7035C66.5614 44.7526 67.0253 44.7281 67.2206 44.7526C68.5879 44.8999 69.0273 44.3353 69.5156 44.1389C71.2491 43.3534 71.7374 42.5924 71.5909 41.905Z" fill="url(#paint0_linear)"/>
<path d="M81.1132 22.7077C80.4052 24.8925 78.8915 34.6628 78.8915 34.6628C78.8915 34.6628 78.745 36.0866 71.3473 38.0504C70.9323 38.1732 70.7858 38.836 70.6149 39.2778C70.5905 39.3515 69.7604 39.6952 69.5651 39.8916C69.15 40.2843 70.8346 43.942 70.8346 43.942L71.7868 43.6965C71.7868 43.6965 72.1286 44.0402 72.5925 44.1139C75.7908 44.6539 82.9199 39.7443 85.044 38.4678C85.4102 38.2468 85.044 38.0504 85.2394 37.2403C86.5089 31.8888 85.1661 26.39 86.045 21.1121C86.1671 20.302 84.6778 18.9273 84.1163 19.0255C82.5537 19.2955 81.8945 20.2775 81.1132 22.7077Z" fill="url(#paint1_linear)"/>
<path d="M83.3591 0.835487C85.3367 2.08745 86.6306 4.93505 85.5808 6.97256C84.6775 8.71549 79.1353 10.2129 78.7202 10.3357C74.9359 11.2931 74.4721 6.87437 74.9359 4.83686C75.7172 1.4001 79.6968 -1.47205 83.3591 0.835487Z" fill="#003651"/>
<path d="M89.6335 20.498C87.9245 21.3081 84.2867 20.5716 83.2124 19.8597C83.2124 19.8597 83.8472 16.7666 84.2378 16.4229C86.777 14.2627 86.7281 14.6064 90.8054 14.4836C91.2937 14.4591 92.0994 16.4229 92.0994 16.4229C92.0994 16.5948 91.1228 19.7861 89.6335 20.498Z" fill="white"/>
<path d="M85.019 8.07785L82.6019 12.8157C82.5043 12.8402 82.4554 12.963 82.4799 13.0612L84.4086 17.3571C84.7993 18.5109 85.3364 18.339 86.4839 17.9463C87.6314 17.5535 88.5103 16.1788 88.1197 15.025L85.2631 8.17605C85.2387 8.07785 85.1167 8.02876 85.019 8.07785Z" fill="url(#paint2_linear)"/>
<path d="M85.3611 8.42048L85.7517 5.81836C85.7517 5.81836 87.5828 8.39593 88.6083 10.3843C90.2685 13.6247 90.5614 16.3741 89.0965 19.099C87.7537 21.6029 88.6571 22.7076 88.6083 22.7076C88.6083 22.7076 86.5818 20.4246 86.7283 18.8044C87.0945 14.5576 86.948 13.8948 86.826 12.5446C86.6795 10.6544 85.3611 8.42048 85.3611 8.42048Z" fill="#003651"/>
<path d="M84.9214 13.379C85.9957 11.6606 85.5318 8.83757 85.5318 8.83757L85.2633 8.19931C85.2388 8.10112 85.1168 8.05202 85.0191 8.07657L84.9214 8.2975C85.4586 10.8505 84.6773 12.8389 82.9683 14.14L83.1392 14.5328C83.6275 14.41 84.6041 13.8945 84.9214 13.379Z" fill="#C39492"/>
<path d="M85.9714 7.31632C86.069 7.88093 85.6784 8.39644 85.1413 8.47009C84.6041 8.56828 84.0914 8.17551 83.9938 7.6109C83.8961 7.04629 84.2867 6.53077 84.8239 6.45713C85.3854 6.38348 85.8981 6.77625 85.9714 7.31632Z" fill="url(#paint3_linear)"/>
<path d="M76.6938 10.4579C77.646 13.7965 80.649 15.4167 81.8941 14.7784C84.4821 13.4774 85.7273 10.998 84.7751 7.65941C83.8229 4.32084 81.3326 2.57791 79.062 3.24071C76.7914 3.87897 75.7172 7.11935 76.6938 10.4579Z" fill="#FFD0CE"/>
<path d="M81.1616 1.59609C84.2379 2.03796 84.8727 6.28482 84.8238 6.45666C84.7506 6.75124 84.36 7.04582 84.1891 7.04582C81.0396 6.84943 76.9135 5.47472 76.9135 5.47472C76.9135 5.47472 74.8382 8.56781 78.6713 15.515C78.6713 15.515 76.4007 13.1829 75.3265 9.427C73.9837 4.66463 76.7181 0.957835 81.1616 1.59609Z" fill="#003651"/>
<path d="M64.0957 73.916L64.2422 86.2147L66.293 87.2457L68.0997 86.6075C68.0997 86.6075 68.1241 83.5389 68.3927 81.5014C68.6857 79.3903 69.4425 74.3579 69.4425 74.3579L64.0957 73.916Z" fill="url(#paint4_linear)"/>
<path d="M73.3979 75.3896L74.106 90.5851L77.5973 91.6406C77.5973 91.6406 78.4518 84.9635 78.6471 82.9014C78.7692 81.6004 79.0622 75.3896 79.0622 75.3896H73.3979Z" fill="url(#paint5_linear)"/>
<path d="M84.1404 35.5713L99.0091 36.9705C99.0091 36.9705 100.205 44.6542 100.45 49.0483C100.596 51.8714 97.6418 55.2836 85.0682 58.4258C83.2859 58.8676 81.8699 60.1196 81.8943 61.0524C81.9919 71.3873 79.7214 82.2867 79.7214 82.2867L74.9849 83.2441L73.1294 82.2867C73.1294 82.2867 72.9341 68.9079 72.1528 64.5874C71.1029 58.8676 71.6157 62.1326 71.2738 65.3238C70.9076 68.6379 70.224 77.1561 70.224 77.1561L64.9992 77.4753L63.8029 76.8861C63.8029 76.8861 62.9484 61.1015 62.8263 55.6027C62.6554 48.6555 81.9675 41.9538 81.9675 41.9538C82.9929 38.5907 84.1404 35.5713 84.1404 35.5713Z" fill="#00649F"/>
<path d="M82.2605 20.769C82.4803 19.787 83.701 17.2586 83.701 17.2586L84.409 17.7986L88.999 14.2637C88.999 14.2637 93.6378 15.1965 95.0051 16.1048C98.3987 18.3387 98.3743 22.0946 98.8626 24.9913C99.0579 26.1451 100.035 30.6619 99.7659 35.2525C99.6927 36.529 99.8392 39.0084 98.8138 39.4993C95.4445 41.1441 84.4579 39.9412 83.3836 37.6091C82.8221 36.3817 84.3846 31.7666 83.6766 29.9746C83.3104 29.0418 82.3826 27.5689 81.9431 26.6851C81.0642 24.7949 82.0164 21.8245 82.2605 20.769Z" fill="url(#paint6_linear)"/>
<path d="M69.4429 96.1566L72.983 96.3775C73.4469 96.402 73.9352 96.2548 74.3014 95.9356L76.4011 94.1682L77.8904 93.579V93.088C78.0613 92.2288 77.8416 90.7068 77.8416 90.7068C77.8416 90.7068 76.9382 91.4187 75.7419 90.4614C75.0583 89.9458 74.3991 90.0686 73.6666 90.5105L73.1051 91.566L69.7358 94.7819C69.5649 94.9537 69.4673 95.1746 69.4673 95.4201V96.1566H69.4429Z" fill="#003977"/>
<path d="M82.8464 18.3623L83.8474 16.5703L84.4822 17.7241L83.3836 19.8598L82.8464 18.3623Z" fill="#C17C56"/>
<path d="M84.4087 17.7989L85.5318 20.131C87.3141 18.9527 92.0749 14.534 92.0749 14.534L89.3161 13.6748L84.4087 17.7989Z" fill="#C17C56"/>
<path d="M68.515 87.2455L68.222 86.0181L67.3919 86.3372C66.6595 86.6072 65.8294 86.4845 65.219 85.969L64.0959 85.0361L61.1173 87.8837C60.9464 88.0556 60.7267 88.1783 60.507 88.2765L58.3341 89.2093C57.8702 89.4057 57.5284 89.8231 57.3819 90.2895C57.3575 90.3877 57.4307 90.5104 57.5528 90.5104H62.1672C62.3625 90.5104 62.5334 90.4613 62.7043 90.4122L65.219 89.3321L65.3411 89.8967H68.1976C68.1976 89.8967 68.2953 89.553 68.3441 89.283C68.3685 89.1357 68.5883 88.6693 68.5883 88.6693C68.6371 88.1783 68.6127 87.7119 68.515 87.2455Z" fill="#003977"/>
<path d="M87.5338 8.76565C91.7087 14.3381 90.0485 22.1199 90.0485 22.1199L85.6294 22.4145C85.6294 22.4145 87.7779 17.5539 86.5816 11.0241C86.2398 9.18297 86.2154 6.97363 87.5338 8.76565Z" fill="#003651"/>
<path d="M70.9076 54.0062L65.0236 40.8237L51.8396 37.8779L58.3339 49.8575L70.9076 54.0062Z" fill="#00557F"/>
<path d="M70.9073 54.0062L82.4555 47.5009L68.9786 43.4014L66.7812 44.727L70.9073 54.0062Z" fill="#00557F"/>
<path d="M70.7855 53.7365L81.2595 47.9186L81.235 47.5504L69.0277 43.6963L66.8792 44.9728L70.7855 53.7365Z" fill="#DCFAFB"/>
<path d="M76.1324 44.5068C76.1568 44.4577 76.8404 43.2057 77.4508 42.862C78.6959 42.1992 81.5036 41.831 82.9197 41.7082C84.3601 41.5855 86.7772 40.5545 87.1678 41.7819C87.3876 42.4447 85.3123 44.7522 84.7752 45.0468C84.0183 45.4396 82.407 45.5132 81.6501 45.906C81.2106 46.1269 80.5514 46.5688 80.2096 46.937C80.0876 47.0598 79.8434 47.3298 79.6969 47.3544C79.6237 47.3789 79.4283 47.2807 79.4283 47.2807C79.4283 47.2807 79.1354 47.8453 78.9645 47.9681C78.7936 48.0908 78.2076 48.1399 78.2076 48.1399L78.9156 44.9977L77.9391 46.3233C77.9391 46.3233 77.5728 47.3544 77.3287 47.5753C77.0357 47.8453 76.6939 47.6735 76.6939 47.6735L77.4263 44.2613C77.4263 44.2613 76.3033 45.8078 75.7661 45.9797C75.522 46.0533 75.1069 45.9551 75.1069 45.9551L76.1324 44.5068Z" fill="url(#paint7_linear)"/>
<path d="M92.1726 21.9464C91.8552 25.2113 93.7108 33.4105 93.7108 33.4105C93.7108 33.4105 91.1472 36.5035 85.0191 39.0811C84.604 39.253 84.482 39.6948 84.3111 40.1367C84.2867 40.2103 83.3833 40.6768 83.3101 40.9959C83.0903 42.0269 84.8238 44.8991 85.8492 45.0464C86.0201 45.0709 86.6061 44.6781 86.6061 44.6781C86.6061 44.6781 87.2164 44.8745 87.6315 44.7027C93.3445 42.1742 98.4961 39.7194 100.376 36.1599C100.498 35.9389 100.474 35.448 100.474 35.2025C100.303 31.7903 99.5459 25.7759 98.9111 21.9955C98.667 20.5962 97.5195 16.5703 95.5175 16.5703C93.1736 16.5949 92.4168 19.3934 92.1726 21.9464Z" fill="url(#paint8_linear)"/>
<path d="M87.8027 37.8794L87.6807 37.6584C91.2941 35.5718 93.3693 33.5834 93.6867 33.2397C93.5158 32.4542 91.8312 24.9915 92.0265 21.8984C92.1974 19.2717 92.7589 17.3815 94.9563 16.5469L95.0295 16.7678C92.9543 17.5534 92.4171 19.3945 92.2462 21.8984C92.0265 25.1142 93.882 33.1415 93.9064 33.2397L93.9309 33.3134L93.882 33.3625C93.9064 33.4116 91.7579 35.5964 87.8027 37.8794Z" fill="white"/>
<g opacity="0.7">
<path opacity="0.7" d="M120.397 40.8971C120.226 40.8971 120.079 40.8725 119.908 40.848C118.736 40.578 118.004 39.3996 118.273 38.2213C118.395 37.6567 118.736 37.1657 119.249 36.8712C119.737 36.552 120.323 36.4538 120.885 36.6011C122.057 36.8712 122.789 38.0495 122.521 39.2278C122.277 40.2343 121.373 40.8971 120.397 40.8971ZM120.397 37.5094C120.177 37.5094 119.957 37.5831 119.762 37.6813C119.493 37.8531 119.298 38.1231 119.225 38.4423C119.078 39.0805 119.469 39.7433 120.128 39.8906C120.763 40.0379 121.422 39.6451 121.569 38.9823C121.715 38.3441 121.324 37.6813 120.665 37.534C120.568 37.534 120.494 37.5094 120.397 37.5094Z" fill="#DCFAFB"/>
</g>
</g>
<rect y="133.297" width="186.616" height="3.7027" fill="#E8F7FA"/>
<defs>
<linearGradient id="paint0_linear" x1="72.0183" y1="45.0807" x2="71.5368" y2="40.3989" gradientUnits="userSpaceOnUse">
<stop stop-color="#FFD0CE"/>
<stop offset="1" stop-color="#F4AAA7"/>
</linearGradient>
<linearGradient id="paint1_linear" x1="55.0457" y1="27.1768" x2="81.1621" y2="40.705" gradientUnits="userSpaceOnUse">
<stop stop-color="#FCB31E"/>
<stop offset="1" stop-color="#F0974C"/>
</linearGradient>
<linearGradient id="paint2_linear" x1="88.4416" y1="17.3429" x2="85.1895" y2="8.74196" gradientUnits="userSpaceOnUse">
<stop stop-color="#FFD0CE"/>
<stop offset="1" stop-color="#F4AAA7"/>
</linearGradient>
<linearGradient id="paint3_linear" x1="86.066" y1="8.30522" x2="85.6599" y2="6.42681" gradientUnits="userSpaceOnUse">
<stop stop-color="#FFD0CE"/>
<stop offset="1" stop-color="#F4AAA7"/>
</linearGradient>
<linearGradient id="paint4_linear" x1="69.6547" y1="86.0682" x2="64.3232" y2="76.0337" gradientUnits="userSpaceOnUse">
<stop stop-color="#FFD0CE"/>
<stop offset="1" stop-color="#F4AAA7"/>
</linearGradient>
<linearGradient id="paint5_linear" x1="79.2869" y1="90.2051" x2="72.3052" y2="78.7869" gradientUnits="userSpaceOnUse">
<stop stop-color="#FFD0CE"/>
<stop offset="1" stop-color="#F4AAA7"/>
</linearGradient>
<linearGradient id="paint6_linear" x1="81.397" y1="21.7686" x2="98.4381" y2="33.715" gradientUnits="userSpaceOnUse">
<stop stop-color="#FCB31E"/>
<stop offset="1" stop-color="#F0974C"/>
</linearGradient>
<linearGradient id="paint7_linear" x1="87.6632" y1="47.5257" x2="86.8518" y2="40.9131" gradientUnits="userSpaceOnUse">
<stop stop-color="#FFD0CE"/>
<stop offset="1" stop-color="#F4AAA7"/>
</linearGradient>
<linearGradient id="paint8_linear" x1="68.2858" y1="25.8113" x2="96.3512" y2="39.1324" gradientUnits="userSpaceOnUse">
<stop stop-color="#FCB31E"/>
<stop offset="1" stop-color="#F0974C"/>
</linearGradient>
<clipPath id="clip0">
<rect width="145.146" height="133.297" fill="white" transform="translate(20.7354)"/>
</clipPath>
</defs>
</svg>
