<svg width="72" height="58" viewBox="0 0 72 58" fill="none" xmlns="http://www.w3.org/2000/svg">
<g clip-path="url(#clip0)">
<path d="M59.1833 23.0202V48.46C59.1833 52.746 55.9621 56.2717 52.046 56.2717H8.71647C4.80039 56.2717 1.5791 52.746 1.5791 48.46V23.0202C1.5791 22.398 1.64226 21.845 1.76859 21.2919C2.46338 17.8354 5.30569 15.2085 8.71647 15.2085H52.046C55.4568 15.2085 58.2991 17.8354 58.9939 21.2919C59.1202 21.845 59.1833 22.398 59.1833 23.0202Z" stroke="#EE0033" stroke-width="4.5" stroke-linecap="round" stroke-linejoin="round"/>
<path d="M59 27.1442V35.9995H2V27.1442C2 26.3832 2.0625 25.6913 2.1875 24.9995H58.8125C58.9375 25.6913 59 26.3832 59 27.1442Z" stroke="#EE0033" stroke-width="4.5" stroke-linecap="round" stroke-linejoin="round"/>
<path d="M49.7536 49.9995H40.2464C38.4493 49.9995 37 48.9469 37 47.6416V44.3574C37 43.0521 38.4493 41.9995 40.2464 41.9995H49.7536C51.5507 41.9995 53 43.0521 53 44.3574V47.6416C52.942 48.989 51.4928 49.9995 49.7536 49.9995Z" stroke="#FE9A00" stroke-width="4.5" stroke-linecap="round" stroke-linejoin="round"/>
<path d="M69.9209 9.53995V34.9798C69.9209 39.2658 66.6996 42.7914 62.7835 42.7914H59.1832V23.0203C59.1832 22.3981 59.1201 21.8451 58.9938 21.292C58.8674 20.8081 58.7411 20.3242 58.5516 19.8403C57.4147 17.0751 54.9514 15.2086 52.0459 15.2086H12.3167V9.53995C12.3167 8.91778 12.3798 8.36474 12.5061 7.8117C13.2009 4.35521 16.0432 1.72827 19.454 1.72827H62.7835C66.1943 1.72827 69.0366 4.35521 69.7314 7.8117C69.8577 8.36474 69.9209 8.91778 69.9209 9.53995Z" stroke="#EE0033" stroke-width="4.5" stroke-linecap="round" stroke-linejoin="round"/>
</g>
<defs>
<clipPath id="clip0">
<rect width="71.5" height="58" fill="white"/>
</clipPath>
</defs>
</svg>
