<svg width="195" height="195" viewBox="0 0 195 195" fill="none" xmlns="http://www.w3.org/2000/svg">
<path d="M97.5994 194.4C151.281 194.4 194.799 150.882 194.799 97.2C194.799 43.5179 151.281 0 97.5994 0C43.9173 0 0.399414 43.5179 0.399414 97.2C0.399414 150.882 43.9173 194.4 97.5994 194.4Z" fill="#EE0033"/>
<path d="M97.6988 122.3C93.0988 122.3 89.2988 126 89.2988 130.7C89.2988 135.3 92.9988 139.1 97.6988 139.1C102.299 139.1 106.099 135.4 106.099 130.7C106.099 126.1 102.299 122.3 97.6988 122.3Z" fill="#EE8FA3"/>
<path d="M145.199 71.4002L138.599 80.5002C127.699 71.9002 113.399 66.8002 99.199 66.5002H97.699C82.999 66.4002 67.999 71.5002 56.699 80.5002L49.999 71.4002L52.299 69.7001C65.099 60.4001 81.499 55.1001 97.699 55.2001C112.999 55.4001 129.999 60.4002 145.199 71.4002Z" fill="#EDF5FF"/>
<path d="M132.099 89.5002L125.499 98.7002C118.099 92.5002 107.799 88.9003 97.6992 88.9003H97.4992C87.5992 89.0003 77.1992 92.5002 69.8992 98.7002L63.1992 89.5002L65.3992 87.9003C74.6992 81.1003 86.7992 77.7002 97.6992 77.7002C108.599 77.7002 120.599 81.1003 129.899 87.9003L132.099 89.5002Z" fill="#EDF5FF"/>
<path d="M118.999 107.5L112.299 116.7C108.699 113.3 103.299 111.5 98.9988 111.2C98.5988 111.2 98.1988 111.2 97.6988 111.2C92.9988 111.2 86.8988 112.9 82.9988 116.7L76.2988 107.5L78.4988 105.8C83.8988 101.9 91.0988 99.8001 97.6988 99.9001C104.199 100.1 112.099 102.5 118.999 107.5Z" fill="#EE8FA3"/>
</svg>
