<svg width="175" height="101" fill="none" xmlns="http://www.w3.org/2000/svg"><path d="M113.25 97.05v2.445H72.254V97.05c2.908-1.47 4.52-4.492 4.52-4.492v-7.126h31.966v7.126c-.01 0 1.602 3.021 4.51 4.492Z" fill="#E2E2E2"/><path opacity=".5" d="M113.249 97.05v2.445h-6.953c-2.858-2.524-4.905-7.345-4.905-7.345v-6.708h7.338v7.126c0-.01 1.612 3.011 4.52 4.482Z" fill="#A3A6A8"/><path d="M115.297 97.935v.258c0 .716-.574 1.292-1.286 1.292H71.503a1.286 1.286 0 0 1-1.286-1.292v-.258c0-.05 0-.11.01-.16a1.294 1.294 0 0 1 1.275-1.132h42.509c.712 0 1.286.586 1.286 1.292Z" fill="#F2F2F2"/><path opacity=".5" d="M108.739 85.432H76.773v4.591h31.966v-4.591Z" fill="#A3A6A8"/><path d="M153.77 10.384v68.07c0 5.159-4.51 9.502-9.851 9.502H41.584c-5.34 0-9.85-4.353-9.85-9.501v-68.07c0-5.775 4.331-10.287 9.85-10.287H143.91c5.529 0 9.861 4.512 9.861 10.286Z" fill="#BBBDBF"/><path opacity=".5" d="M143.919.098h-8.673c2.719 1.908 4.48 5.148 4.48 8.905v70.873c0 3.3-1.78 6.281-4.431 8.09h8.624c5.341 0 9.851-4.353 9.851-9.511v-68.07c0-5.775-4.332-10.287-9.851-10.287Z" fill="#A3A6A8"/><path d="M152.603 10.384v68.07c0 4.424-3.897 8.34-8.684 8.34H41.585c-4.787 0-8.684-3.916-8.684-8.34v-68.07c0-5.198 3.897-9.123 8.684-9.123H143.91c4.796.01 8.693 3.925 8.693 9.123Z" fill="#231F20"/><path d="M148.717 9.997v56.89H36.788V9.996a4.815 4.815 0 0 1 4.807-4.82H143.92c2.65 0 4.797 2.156 4.797 4.82Z" fill="#DEE6EE"/><path opacity=".5" d="M148.716 9.997v56.89h-8.99V9.002c0-1.352-.227-2.644-.653-3.826h4.846c2.651 0 4.797 2.156 4.797 4.82Z" fill="#C1D4EE"/><path d="M153.77 71.18v7.284c0 5.159-4.51 9.502-9.851 9.502H41.584c-5.34 0-9.85-4.353-9.85-9.501v-7.286H153.77Z" fill="#F2F2F2"/><path opacity=".5" d="M139.726 71.17v8.706c0 3.3-1.78 6.281-4.431 8.09h8.624c5.341 0 9.851-4.353 9.851-9.511V71.17h-14.044Z" fill="#E2E2E2"/><path opacity=".5" d="M115.297 97.945v.258c0 .715-.574 1.292-1.286 1.292h-9.89c1.137-1.401-.01-2.644-.208-2.843h10.098c.712-.01 1.286.577 1.286 1.293Z" fill="#EAEAEA"/><path d="M172.923 98.336h-17.047l.632-3.518.814-4.525.947-5.25.814-4.525.947-5.25.814-4.526.482-2.616c.05-.318.266-.53.515-.53h5.067c.25 0 .449.23.515.53l.482 2.616.814 4.526.947 5.25.814 4.525.947 5.25.815 4.525.681 3.518Z" fill="#FFCBCD"/><path d="M168.737 75.268h-8.673l.814-4.526h7.045l.814 4.526ZM170.515 85.043h-12.228l.83-4.525h10.584l.814 4.525ZM172.292 94.818h-15.784l.831-4.525h14.139l.814 4.525Z" fill="#201F20"/><path opacity=".7" d="m164.865 70.177.864 4.737.996 5.498.864 4.737.997 5.497.864 4.738.532 2.97h2.941l-.632-3.518-.814-4.525-.947-5.25-.814-4.526-.947-5.25-.814-4.525-.482-2.616c-.05-.318-.266-.53-.515-.53h-2.542l.449 2.563Z" fill="#E2476C"/><path d="m156.907 95.207.847-4.666.981-5.427.847-4.667.98-5.427.847-4.666.499-2.705c0-.017.017-.035.017-.07h-.05c-.25 0-.449.23-.515.53l-.482 2.616-.814 4.525-.947 5.25-.814 4.525-.947 5.25-.814 4.526-.632 3.517h.449l.548-3.11Z" fill="#F37029"/><path d="M175 98.513v.618c-.017.23-.15.407-.316.407h-20.552c-.166 0-.299-.177-.316-.407v-.618c0-.23.133-.425.316-.425h20.552c.166 0 .316.195.316.425Z" fill="#FFCBCD"/><path opacity=".5" d="M175 99.149c-.017.23-.15.406-.316.406h-20.552c-.166 0-.299-.176-.316-.406H175Z" fill="#E2476C"/><path opacity=".5" d="M175 98.513v.6c0 .23-.133.425-.316.425h-3.987l-.033-.16-.233-1.29h4.253c.167 0 .316.195.316.425Z" fill="#E2476C"/><path d="m32.32 22.37 13.324.486-.147 2.76-13.176 2.175V22.37Z" fill="#F1BAB3"/><path d="M41.778 47.127s4.953 24.157 4.025 27.786c-.93 3.628-17.858 16.813-17.858 16.813l-3.299-3.128c6.4-7.827 7.095-11.016 14.036-14.93-5.537-7.76-11.864-15.221-11.249-25.298l14.345-1.243Z" fill="#201F20"/><path d="M27.432 48.37c-.255 7.707 1.22 16.594 2.58 25.402-1.785 7.606-.325 15.44.826 22.796h4.54l.62-22.693c3.01-8.028 5.284-17.624 5.78-26.75-2.922 3.165-7.83 3.393-14.346 1.245Z" fill="#4C3939"/><path d="M35.379 96.568s4.237 1.387 4.237 2.709h-9.037c-.071-1.196-.035-1.8.259-2.709h4.54Z" fill="#201F20"/><path d="m28.051 21.491 2.632-6.142 4.18 2.022s-1.239 3.032-1.239 5.677c0 2.642-5.573-1.557-5.573-1.557Z" fill="#ECACA2"/><path d="M28.362 20.714c-3.46 1.2-3.819 8.554-3.302 11.586.516 3.033 3.715 10.576 3.715 11.612 0 1.037-1.341 4.459-1.341 4.459 1.148 4.024 12.36 7.082 15.739 3.52 1.056-7.44-5.049-34.56-14.81-31.177Z" fill="#92001F"/><path d="M27.878 47.36s9.25 3.331 15.496 1.457l-.098 2.97s-4.912 2.253-15.767-1.399c0 .002-.745-1.968.369-3.028Z" fill="#F7B17D"/><path d="m38.888 50.27-6.719-.93-.892 6.448 6.719.93.892-6.448Z" fill="#E86100"/><path d="m38.703 51.862-6.719-.93-.672 4.858 6.719.93.672-4.858Z" fill="#F7B17D"/><path d="m37.97 52.536-4.27-.59-.113.817 4.27.59.113-.817Z" fill="#E86100"/><path opacity=".5" d="M37.581 40.124c-.464-3.13-.203-6.444-1.613-9.352-.638-1.316-1.49-2.602-2.6-3.564-1.048-.907-2.563-1.965-3.906-2.287a.194.194 0 0 1-.081-.041c-1.906 2.29-2.207 5.307-1.994 8.176.254 3.42.736 6.982 2.052 10.167.561 1.358 1.082 3.296 2.59 3.845 1.545.563 3.465.389 5.025.025 2.042-.477 3.943-1.359 5.838-2.25a64.64 64.64 0 0 0-1.045-5.637c-1.355.294-2.65.933-4.044 1.078-.102.011-.205-.051-.221-.16Z" fill="#D9012F"/><path d="M31.748 17.78s.73 2.504 3.634 2.69l1.128-1.737 1.097-.312-.367-3.633s-.87-2.774-3.735-3.201c-2.863-.427-4.946 4.263-1.757 6.192Z" fill="#F1BAB3"/><path d="M29.094 16.053c.035-.235.048-.624.11-.91-.416-.264-.412-.46-.588-.962a2.274 2.274 0 0 1 1.383-2.896 2.24 2.24 0 0 1 1.274-.066c.072-2.983 6.29-3.466 7.448.519.437.19.006.656.176 1.143.324.927.631 1.839-.292 2.165-.3.106-.607.123-.899.07a4.627 4.627 0 0 1-1.378-.328l-.048-.021c-.722-.243-1.419-.759-1.381-.736 0 0 1 1.23-1.642 2.97-2.642 1.742-4.403.647-4.163-.948Z" fill="#201F20"/><path d="M32.091 18.46s-1.51-2.498-.31-3.09c1.2-.592 1.545 2.114 1.545 2.114l-1.235.975Z" fill="#F1BAB3"/><path d="M48.115 34.795a.19.19 0 0 1-.19-.19v-2.91a.19.19 0 0 1 .19-.19.19.19 0 0 1 .188.19v2.91a.19.19 0 0 1-.188.19ZM50.258 34.795a.19.19 0 0 1-.19-.19v-2.91a.19.19 0 0 1 .19-.19.19.19 0 0 1 .188.19v2.91a.19.19 0 0 1-.188.19Z" fill="#B0C0D8"/><path d="M47.06 33.88v1.373c0 .93.758 1.689 1.682 1.689h.944a1.69 1.69 0 0 0 1.681-1.69V33.88a.386.386 0 0 0-.385-.387h-3.537a.387.387 0 0 0-.385.387Z" fill="#fff"/><path d="M27.414 28.14c1.255-8.265 7.264-3.73 8.516-.9 1.315 2.973.037 12.366.037 12.366l9.362-1.952.627 3.834s-10.516 6.19-13.49 4.131c-2.973-2.06-5.476-14.68-5.052-17.478Z" fill="#F1BAB3"/><path d="M36.142 38.12c.298-2.77.778-8.643-.213-10.88-1.25-2.83-7.26-7.366-8.516.9-.248 1.638.506 6.638 1.77 10.918 2.324-.29 4.642-.614 6.96-.938Z" fill="#E03"/><path d="M45.329 37.653s2.926-2.255 4.971-1.215c2.045 1.038 2.447 2.828 1.148 3.44-1.297.613-3.079 1.016-3.68.978-.6-.038-1.812.633-1.812.633l-.627-3.836Z" fill="#F1BAB3"/><path d="M48.27 36.291s3.453-.843 3.923.427c.242.657-1.921.173-1.921.173l-2.002-.6Z" fill="#F1BAB3"/><path d="m46.658 29.442-.29-1.342a1.694 1.694 0 0 1 1.286-2.01l.921-.202a1.686 1.686 0 0 1 2.001 1.292l.29 1.342a.387.387 0 0 1-.294.46l-3.457.756a.385.385 0 0 1-.457-.296Z" fill="#fff"/><path d="M50.233 25.806a1.97 1.97 0 0 0 .05-.355c.119-1.171-.19-2.522-.622-2.688a.918.918 0 0 0-.105-.033l-.032-.007a1.186 1.186 0 0 0-.102-.02l-.028-.006a2.453 2.453 0 0 0-.175-.02 4.788 4.788 0 0 0-.358-.022h-.002a5.525 5.525 0 0 0-.197-.003h-.249c-1.214.015-2.769.206-2.769.206l-.146 2.76s1.592 1.521 3.46 1.604l.03-.002c1.752.241 3.068-.183 1.245-1.414Z" fill="#F1BAB3"/><path d="M28.498 11.916c1.054-3.076 4.204-4.842 7.089-3.937 2.886.906 4.443 4.634 3.566 7.765l-10.655-3.828Z" fill="#E03"/><path d="M39.633 16.166 28.305 12.61c-.193-.06-.298-.281-.233-.49.065-.21.276-.332.47-.271 0 0 11.627 3.837 11.562 4.047-.065.21-.276.331-.47.27Z" fill="#92001F"/><path d="M27.945 91.726s1.502 2.757.872 4.842l-6.16-5.728 1.99-2.242 3.299 3.128Z" fill="#201F20"/><path d="M70.592 46.415h-1.058v3.092h1.058v-3.092Z" fill="#808184"/><path d="M72.236 48.87v50.206H67.89V48.869c0-.278.228-.507.504-.507h3.338c.276 0 .504.229.504.507Z" fill="#A6A8AB"/><path opacity=".5" d="M72.236 48.87v50.206h-1.53V48.362h1.026c.276 0 .504.229.504.507Z" fill="#A6A8AB"/><path opacity=".5" d="M72.236 63.315H67.89v1.848h4.346v-1.848ZM72.236 80.753H67.89v1.85h4.346v-1.85Z" fill="#A6A8AB"/><path d="M74.793 98.52V99.092a.388.388 0 0 1-.375.36h-8.726a.388.388 0 0 1-.374-.36V98.52a.37.37 0 0 1 .374-.377h8.726a.37.37 0 0 1 .375.377Z" fill="#BBBDBF"/><path opacity=".5" d="M74.793 99.092a.388.388 0 0 1-.375.36h-8.726a.388.388 0 0 1-.374-.36h9.475Z" fill="#BBBDBF"/><path d="M70.055 47.806a3.1 3.1 0 0 0 3.093-3.109 3.1 3.1 0 0 0-3.093-3.108 3.1 3.1 0 0 0-3.094 3.108 3.1 3.1 0 0 0 3.094 3.109Z" fill="#A6A8AB"/><path opacity=".5" d="M70.055 47.086a2.383 2.383 0 0 0 2.377-2.389 2.383 2.383 0 0 0-2.377-2.388 2.383 2.383 0 0 0-2.376 2.388 2.383 2.383 0 0 0 2.376 2.389Z" fill="#A6A8AB"/><path d="M72.09 44.697a2.04 2.04 0 0 1-2.035 2.045 2.04 2.04 0 0 1-2.035-2.045 2.04 2.04 0 0 1 2.035-2.044 2.04 2.04 0 0 1 2.035 2.044Z" fill="#FFCBCD"/><path opacity=".2" d="M70.74 42.767c.292.36.471.818.471 1.309a2.04 2.04 0 0 1-2.035 2.045 2.3 2.3 0 0 1-.683-.115c.374.442.928.736 1.563.736a2.04 2.04 0 0 0 2.034-2.045c0-.9-.57-1.652-1.35-1.93Z" fill="#8E3F0A"/><path opacity=".5" d="M74.792 98.52V99.092a.388.388 0 0 1-.374.36H71.47v-1.309h2.947a.37.37 0 0 1 .374.377Z" fill="#BBBDBF"/><path d="M69.957 43.29c.163.213.016.59-.325.868-.342.261-.75.327-.912.114-.163-.213-.016-.589.325-.867.342-.262.75-.31.912-.114Z" fill="#fff"/><path d="M116.989 46.415h-1.058v3.092h1.058v-3.092Z" fill="#808184"/><path d="M118.633 48.869v50.207h-4.347V48.869c0-.278.228-.507.505-.507h3.337c.277 0 .505.229.505.507ZM116.775 34.75H69.41a2.508 2.508 0 0 1 0-5.015h47.365c.276 0 .504.262.504.582v3.85c0 .32-.228.583-.504.583Z" fill="#A6A8AB"/><path d="M109.812 34.75H69.187a2.508 2.508 0 1 1 0-5.015h40.625c.239 0 .436.262.436.582v3.85c0 .32-.197.583-.436.583Z" fill="#fff"/><path opacity=".5" d="M118.633 48.87v50.206h-1.53V48.362h1.026c.276 0 .504.229.504.507Z" fill="#A6A8AB"/><path opacity=".5" d="M118.65 63.315h-4.347v1.848h4.347v-1.848ZM118.65 80.753h-4.347v1.849h4.347v-1.849Z" fill="#A6A8AB"/><path d="M121.205 98.52V99.092a.388.388 0 0 1-.374.36h-8.726a.39.39 0 0 1-.375-.36V98.52a.37.37 0 0 1 .375-.377h8.726a.37.37 0 0 1 .374.377Z" fill="#BBBDBF"/><path opacity=".5" d="M121.205 99.092a.388.388 0 0 1-.374.36h-8.726a.39.39 0 0 1-.375-.36h9.475Z" fill="#BBBDBF"/><path d="M116.468 47.805a3.1 3.1 0 0 0 3.093-3.108 3.1 3.1 0 0 0-3.093-3.108 3.1 3.1 0 0 0-3.093 3.108 3.1 3.1 0 0 0 3.093 3.108Z" fill="#A6A8AB"/><path opacity=".5" d="M116.469 47.086a2.382 2.382 0 0 0 2.376-2.389 2.382 2.382 0 0 0-2.376-2.388 2.383 2.383 0 0 0-2.377 2.388 2.383 2.383 0 0 0 2.377 2.389Z" fill="#A6A8AB"/><path d="M118.503 44.697a2.04 2.04 0 0 1-2.035 2.045 2.04 2.04 0 0 1-2.035-2.045 2.04 2.04 0 0 1 2.035-2.045c1.123 0 2.035.916 2.035 2.045Z" fill="#FFCBCD"/><path opacity=".2" d="M117.136 42.767c.293.36.472.818.472 1.309a2.04 2.04 0 0 1-2.035 2.044c-.244 0-.472-.048-.684-.114.375.442.928.736 1.563.736a2.04 2.04 0 0 0 2.035-2.045 2.001 2.001 0 0 0-1.351-1.93Z" fill="#8E3F0A"/><path opacity=".5" d="M121.205 98.52V99.092a.388.388 0 0 1-.375.36h-2.946v-1.309h2.946a.37.37 0 0 1 .375.377Z" fill="#BBBDBF"/><path d="M116.354 43.29c.162.213.016.59-.326.867-.342.262-.749.328-.912.115-.162-.213-.016-.589.326-.867.342-.262.749-.31.912-.115Z" fill="#fff"/><path d="M125.674 51.912v11.435c0 .344-.261.638-.586.638h-64.63c-.326 0-.586-.278-.586-.638V51.912c0-.344.26-.638.586-.638h64.63c.325 0 .586.278.586.638Z" fill="#FFCBCD"/><path d="M75.5 63.969h-8.433l-7.18-7.755v-4.302c0-.344.26-.638.586-.638h3.289l11.737 12.695ZM93.75 63.969h-8.434L73.562 51.274h8.433L93.75 63.969ZM111.999 63.969h-8.433L91.812 51.274h8.433l11.754 12.695ZM125.673 59.045v4.302c0 .344-.261.638-.586.638h-3.289L110.044 51.29h8.433l7.196 7.755Z" fill="#201F20"/><path d="M125.674 69.286V80.72c0 .343-.261.638-.586.638h-64.63c-.326 0-.586-.278-.586-.638V69.286c0-.344.26-.638.586-.638h64.63c.325 0 .586.278.586.638Z" fill="#FFCBCD"/><path d="M75.5 81.343h-8.433l-7.18-7.755v-4.302c0-.344.26-.638.586-.638h3.289l11.737 12.695ZM93.75 81.343h-8.434L73.562 68.648h8.433L93.75 81.343ZM111.999 81.343h-8.433L91.812 68.648h8.433l11.754 12.695ZM125.673 76.418v4.303c0 .343-.261.638-.586.638h-3.289l-11.754-12.695h8.433l7.196 7.754Z" fill="#201F20"/><path opacity=".5" d="M125.088 61.073h-64.63c-.326 0-.586-.278-.586-.638v2.912c0 .344.26.638.586.638h64.63c.325 0 .586-.278.586-.638v-2.912c0 .344-.261.638-.586.638ZM125.088 78.447h-64.63c-.326 0-.586-.278-.586-.638v2.912c0 .343.26.638.586.638h64.63c.325 0 .586-.278.586-.638v-2.912c0 .343-.261.638-.586.638Z" fill="#E2476C"/><path opacity=".5" d="M79.667 76.353c-.879 0-1.595-.72-1.595-1.603V59.06c0-.883.716-1.602 1.595-1.602h26.227c.879 0 1.595.72 1.595 1.603v15.688c0 .884-.716 1.604-1.595 1.604H79.667Z" fill="#E2476C"/><path d="M79.667 75.306c-.879 0-1.595-.72-1.595-1.603V58.014c0-.883.716-1.603 1.595-1.603h26.227c.879 0 1.595.72 1.595 1.603v15.689c0 .883-.716 1.603-1.595 1.603H79.667Z" fill="#231F20"/><path d="M105.894 74.243H79.668a.55.55 0 0 1-.554-.557V57.998a.55.55 0 0 1 .554-.557h26.226a.55.55 0 0 1 .554.557v15.688a.55.55 0 0 1-.554.556Z" fill="#FFCBCD"/><path d="M79.992 58.701a.36.36 0 0 0 .359-.36.359.359 0 1 0-.716 0c0 .199.16.36.357.36ZM105.926 58.341c0 .197-.163.36-.358.36a.362.362 0 0 1-.358-.36c0-.196.163-.36.358-.36.195 0 .358.164.358.36ZM79.993 73.719a.359.359 0 0 0 .358-.36c0-.199-.16-.36-.358-.36a.359.359 0 0 0-.358.36c0 .199.16.36.358.36ZM105.927 73.359c0 .196-.163.36-.358.36a.363.363 0 0 1-.359-.36c0-.196.163-.36.359-.36.195 0 .358.164.358.36Z" fill="#E6E7E8"/><path d="M19.106 99.248H2.06l.631-3.518.814-4.525.948-5.25.814-4.525.947-5.25.814-4.526.482-2.616c.05-.318.265-.53.515-.53h5.067c.25 0 .448.23.515.53l.482 2.617.814 4.525.947 5.25.814 4.525.947 5.25.814 4.525.681 3.518Z" fill="#FFCBCD"/><path d="M14.92 76.18H6.248l.814-4.526h7.044l.814 4.526ZM16.698 85.955H4.47l.814-4.525h10.6l.814 4.525ZM18.476 95.73H2.691l.83-4.525h14.123l.83 4.525Z" fill="#201F20"/><path opacity=".7" d="m11.048 71.089.864 4.737.997 5.498.864 4.737.997 5.497.864 4.738.531 2.97h2.941l-.631-3.518-.814-4.526-.947-5.25-.814-4.525-.947-5.25-.814-4.525-.482-2.616c-.05-.318-.266-.53-.515-.53H10.6l.448 2.563Z" fill="#E2476C"/><path d="m3.073 96.119.847-4.667.98-5.426.848-4.667.98-5.427.848-4.666.498-2.705c0-.018.017-.035.017-.07h-.05c-.25 0-.449.23-.515.53l-.482 2.616-.814 4.525-.947 5.25-.814 4.525-.947 5.25-.814 4.526-.632 3.517h.449l.548-3.111Z" fill="#F37029"/><path d="M21.183 99.424v.619c0 .23-.15.407-.316.407H.317c-.166 0-.3-.177-.316-.407v-.619c0-.23.133-.424.316-.424h20.552c.166 0 .315.195.315.424Z" fill="#FFCBCD"/><path opacity=".5" d="M21.183 100.061c0 .23-.15.407-.316.407H.317c-.166 0-.3-.177-.316-.407h21.183Z" fill="#E2476C"/><path opacity=".5" d="M21.183 99.424v.602c0 .229-.133.424-.316.424H16.88l-.033-.159-.233-1.29h4.253c.167 0 .316.194.316.423Z" fill="#E2476C"/></svg>