<svg width="23" height="23" viewBox="0 0 23 23" fill="none" xmlns="http://www.w3.org/2000/svg">
<path d="M22.44 13.4C23.09 10.84 21.54 8.22998 18.98 7.57998C18.91 7.55998 18.83 7.53998 18.76 7.52998C18.8 7.46998 18.84 7.40998 18.88 7.33998C20.29 5.09998 19.62 2.14998 17.39 0.739984C15.16 -0.670016 12.2 -1.62125e-05 10.79 2.22998C10.75 2.28998 10.71 2.35998 10.67 2.41998C10.62 2.35998 10.58 2.29998 10.53 2.23998C8.84002 0.209984 5.82002 -0.0700164 3.79002 1.61998C1.76002 3.30998 1.48002 6.32998 3.17002 8.35998C3.22002 8.41998 3.27002 8.46998 3.32002 8.52998C3.25002 8.54998 3.18002 8.57998 3.11002 8.60998C0.650024 9.58998 -0.539974 12.37 0.440026 14.83C1.42003 17.29 4.20003 18.48 6.66003 17.5C6.73003 17.47 6.80003 17.44 6.87003 17.41C6.87003 17.48 6.87002 17.56 6.88002 17.64C7.05002 20.28 9.33002 22.28 11.97 22.1C14.61 21.93 16.61 19.65 16.43 17.01C16.42 16.93 16.42 16.86 16.41 16.79C16.48 16.81 16.55 16.83 16.63 16.85C19.19 17.51 21.79 15.96 22.44 13.4ZM15.38 14.09C15.12 13.93 15 13.62 15.06 13.34L11.85 11.32L13.61 14.67C13.9 14.64 14.19 14.78 14.33 15.05C14.51 15.4 14.38 15.84 14.03 16.02C13.68 16.2 13.24 16.07 13.06 15.72C12.92 15.45 12.97 15.13 13.16 14.91L11.4 11.56L11.25 15.35C11.52 15.46 11.7 15.73 11.68 16.04C11.66 16.44 11.33 16.75 10.93 16.73C10.53 16.71 10.22 16.38 10.24 15.98C10.25 15.67 10.45 15.42 10.73 15.33L10.88 11.54L8.86002 14.75C9.03002 14.98 9.06002 15.3 8.89002 15.56C8.68002 15.9 8.23003 16 7.90003 15.78C7.56003 15.57 7.46002 15.12 7.68002 14.79C7.84002 14.53 8.14002 14.41 8.43002 14.47L10.45 11.26L7.09002 13.03C7.12002 13.32 6.98002 13.61 6.71002 13.75C6.36002 13.93 5.92002 13.8 5.74002 13.45C5.56002 13.1 5.69002 12.66 6.04002 12.48C6.31002 12.34 6.63002 12.39 6.85002 12.58L10.2 10.82L6.41003 10.67C6.30003 10.94 6.03003 11.12 5.72003 11.1C5.32002 11.08 5.01002 10.75 5.03002 10.35C5.05002 9.94998 5.38002 9.63998 5.78002 9.65998C6.09002 9.66998 6.34002 9.86998 6.43002 10.15L10.22 10.3L7.01003 8.27998C6.78003 8.44998 6.46002 8.47998 6.20002 8.30998C5.86002 8.09998 5.76003 7.64998 5.98003 7.31998C6.19003 6.97998 6.64003 6.87998 6.97003 7.09998C7.23003 7.25998 7.35002 7.55998 7.29002 7.84998L10.5 9.86998L8.74002 6.49998C8.45002 6.52998 8.16002 6.38998 8.02002 6.11998C7.84002 5.76998 7.97002 5.32998 8.32002 5.14998C8.67002 4.96998 9.11002 5.09998 9.29002 5.44998C9.43003 5.71998 9.38003 6.03998 9.19003 6.25998L10.95 9.60998L11.1 5.81998C10.83 5.70998 10.65 5.43998 10.67 5.12998C10.69 4.72998 11.02 4.41998 11.42 4.43998C11.82 4.45998 12.13 4.78998 12.11 5.18998C12.1 5.49998 11.9 5.75998 11.62 5.84998L11.47 9.63998L13.49 6.42998C13.32 6.19998 13.29 5.87998 13.46 5.61998C13.67 5.27998 14.12 5.17998 14.45 5.39998C14.79 5.60998 14.89 6.05998 14.67 6.38998C14.51 6.64998 14.21 6.76998 13.92 6.70998L11.9 9.91998L15.25 8.15998C15.22 7.86998 15.36 7.57998 15.63 7.43998C15.98 7.25998 16.42 7.38998 16.6 7.73998C16.78 8.08998 16.65 8.52998 16.3 8.70998C16.03 8.84998 15.71 8.79998 15.49 8.60998L12.14 10.37L15.93 10.52C16.04 10.25 16.31 10.07 16.62 10.09C17.02 10.11 17.33 10.44 17.31 10.84C17.29 11.24 16.96 11.55 16.56 11.53C16.25 11.52 16 11.32 15.91 11.04L12.12 10.89L15.33 12.91C15.56 12.74 15.88 12.71 16.14 12.88C16.48 13.09 16.58 13.54 16.36 13.87C16.14 14.2 15.72 14.3 15.38 14.09Z" fill="#EA546D"/>
</svg>
