<svg width="136" height="110" fill="none" xmlns="http://www.w3.org/2000/svg"><path d="M81.568 107.149v2.446H40.546v-2.446c2.91-1.472 4.523-4.495 4.523-4.495v-7.13h31.986v7.13c-.01 0 1.603 3.023 4.513 4.495Z" fill="#E2E2E2"/><path opacity=".5" d="M81.567 107.149v2.446H74.61c-2.86-2.526-4.909-7.349-4.909-7.349v-6.713h7.343v7.131c0-.01 1.614 3.013 4.523 4.485Z" fill="#A3A6A8"/><path d="M83.616 108.034v.259c0 .716-.574 1.292-1.286 1.292H39.794a1.286 1.286 0 0 1-1.286-1.292v-.259c0-.05 0-.109.01-.159a1.294 1.294 0 0 1 1.276-1.134H82.33c.712 0 1.286.587 1.286 1.293Z" fill="#F2F2F2"/><path opacity=".5" d="M77.055 95.523H45.069v4.595h31.986v-4.595Z" fill="#A3A6A8"/><path d="M122.114 20.428v68.114c0 5.161-4.513 9.507-9.857 9.507H9.857C4.513 98.05 0 93.693 0 88.542V20.428c0-5.778 4.335-10.293 9.857-10.293h102.39c5.532 0 9.867 4.515 9.867 10.293Z" fill="#BBBDBF"/><path opacity=".5" d="M112.257 10.135h-8.679c2.722 1.91 4.483 5.151 4.483 8.91v70.919c0 3.302-1.781 6.285-4.433 8.095h8.629c5.345 0 9.857-4.356 9.857-9.517V20.428c0-5.778-4.334-10.293-9.857-10.293Z" fill="#A3A6A8"/><path d="M120.947 20.428v68.114c0 4.425-3.9 8.343-8.69 8.343H9.857c-4.79 0-8.689-3.918-8.689-8.343V20.428c0-5.201 3.9-9.13 8.69-9.13h102.39c4.799.01 8.699 3.929 8.699 9.13Z" fill="#231F20"/><path d="M117.058 20.04v56.926h-112V20.04a4.818 4.818 0 0 1 4.81-4.823h102.39c2.652 0 4.8 2.158 4.8 4.823Z" fill="#DEE6EE"/><path opacity=".5" d="M117.057 20.04v56.926h-8.996v-57.92c0-1.353-.228-2.646-.653-3.83h4.849c2.652 0 4.8 2.159 4.8 4.824Z" fill="#C1D4EE"/><path d="M122.114 81.262v7.29c0 5.16-4.513 9.507-9.857 9.507H9.857C4.513 98.059 0 93.703 0 88.55v-7.29h122.114Z" fill="#F2F2F2"/><path opacity=".5" d="M108.061 81.252v8.712c0 3.302-1.781 6.285-4.434 8.095h8.63c5.344 0 9.857-4.356 9.857-9.517v-7.29h-14.053Z" fill="#E2E2E2"/><path opacity=".5" d="M83.617 108.044v.258c0 .716-.575 1.293-1.287 1.293h-9.897c1.138-1.402-.01-2.645-.207-2.844H82.33c.713-.01 1.287.577 1.287 1.293Z" fill="#EAEAEA"/><path d="m126.262 78.575-70.835 6.002c-5.379.456-9.27-5.059-7.069-10.015l30.01-67.546c2.277-5.124 9.275-5.717 12.372-1.048l40.825 61.544c2.995 4.515.075 10.607-5.303 11.063Z" fill="#FFEDED"/><path d="m126.488 81.27-70.835 6.002c-3.483.295-6.772-1.24-8.795-4.107a9.794 9.794 0 0 1-.954-9.706l30.01-67.546C77.388 2.593 80.419.43 84.022.125c3.602-.305 6.95 1.318 8.956 4.342l40.825 61.545a9.795 9.795 0 0 1 .674 9.729c-1.52 3.166-4.505 5.234-7.989 5.529ZM84.472 5.514a4.346 4.346 0 0 0-3.649 2.605l-30.01 67.546a4.408 4.408 0 0 0 .43 4.368 4.353 4.353 0 0 0 3.959 1.85l70.835-6.003a4.363 4.363 0 0 0 3.595-2.488 4.408 4.408 0 0 0-.304-4.38L88.503 7.47a4.335 4.335 0 0 0-4.03-1.955Z" fill="#DB0000"/><path d="M82.813 68.241a6.549 6.549 0 0 1 .276-2.587c.26-.806.664-1.52 1.212-2.14a6.369 6.369 0 0 1 2.035-1.518c.809-.39 1.738-.631 2.787-.72 1.048-.089 2.012-.009 2.888.238.877.248 1.638.633 2.28 1.152a5.97 5.97 0 0 1 1.551 1.907c.391.752.625 1.586.702 2.505.077.917-.016 1.773-.277 2.566a6.022 6.022 0 0 1-1.214 2.12c-.547.621-1.233 1.128-2.056 1.52-.823.391-1.76.632-2.808.721-1.05.089-2.005.008-2.867-.24a6.34 6.34 0 0 1-2.26-1.154 5.996 5.996 0 0 1-1.549-1.886c-.39-.738-.624-1.566-.7-2.484Zm10.95-12.888-10.203.865-4.382-34.94 13.094-1.11 1.492 35.185Z" fill="#B00"/><path d="M44.266 31.52s-.283-2.823 1.184-2.725c1.468.096 1.857.773 1.693 1.316-.164.542-1.592 2.337-1.592 2.337l-1.285-.928Z" fill="#FFB27D"/><path d="M21.4 37.176s1.623 1.92 5.117 4.135c.33.21.677.422 1.041.635a38.693 38.693 0 0 0 4.786 2.369c.203.083.44.176.708.273 2.094.76 5.945 1.838 8.332 1.935.207.01.405.01.588.002 3.633-.148 4.076-14.33 4.076-14.33s-.404-1.418-2.27-1.06c0 0-2.836 8.01-3.851 8.662-.902.58-6.089-7.326-10.553-7.88-3.005-.376-7.975 5.259-7.975 5.259Z" fill="#E03"/><path d="M31.16 106.335s-.268 3.122.389 3.447l8.397-.018s0-.975-1.349-1.191c-1.349-.216-3.718-1.011-4.119-2.78-.4-1.769-3.318.542-3.318.542Z" fill="#1C3154"/><path d="M37.326 68.549c-.041 2.041-.14 4.148-.33 6.04-.907 8.98-1.226 19.83-1.357 21.922-.226 3.631-.94 9.432-.94 9.432s-1.414 1.351-4.171.707c0 0-2.285-8.355-2.795-17.153l-.023-.435c-.06-1.163-.12-2.492-.185-3.926-.42-9.606-.877-23.875-.877-23.875l10.539-2.49s.242 4.69.14 9.778Z" fill="#201F20"/><path d="M37.326 68.549c-2.67 4.634-7.76 13.172-9.8 16.584-.42-9.605-.878-23.875-.878-23.875l10.539-2.489c0 .002.242 4.691.14 9.78Z" fill="#000"/><path d="M33.053 44.587c2.094.76 5.945 1.838 8.332 1.935-.366-.068-3.024-.599-4.006-1.791-1.055-1.284-2.833-4.768-4.247-3.346-.666.669-.47 1.991-.08 3.202Z" fill="#92001F"/><path d="M15.345 67.04s-.655 2.579-.547 3.153c.107.573.746 2.514 1.145 2.996.398.482.414-2.093.68-2.499.264-.404.121.962.333 1.074.213.111.567-1.034.724-1.441.157-.407-.565-1.822-.633-2.837-.068-1.014-1.702-.447-1.702-.447Z" fill="#FFB27D"/><path d="M10.241 102.786s-1.495 1.372-1.203 2.346c.291.976 1.64 1.625 1.822 2.816.183 1.192.911 1.841 1.568 1.841h3.128s.484-.839-.683-1.091c-1.167-.253-1.607-1.653-1.534-2.953.073-1.3-.11-3.032-.11-3.032l-2.478-.577-.51.65Z" fill="#1C3154"/><path d="M35.525 61.475s-9.864 21.227-15.114 30.541-6.89 11.914-6.89 11.914-3.008-1.192-3.282-2.004c0 0 2.008-17.982 5.524-22.364 1.986-2.477 4.32-9.91 4.43-12.509.109-2.599 2.414-8.803 2.414-8.803l12.918 3.225Z" fill="#4C3939"/><path d="M37.365 60.371s-3.212 3.477-8.67 4.527c-2.396.461-7.259.907-8.465-.809-.282-.403-.285-.999-.222-1.93.162-2.42.768-7.098-1.965-16.498a16.027 16.027 0 0 1-.525-2.513c-.596-4.81-.531-8.44 3.617-10.379 6.217-2.905 8.768-.515 8.768-.515s3.306 1.554 4.818 6.082c3.02 9.058 2.644 22.035 2.644 22.035Z" fill="#E03"/><path d="M24.866 31.972c1.046.748 2.887 1.189 4.642.306.136-.069.119-1.002.085-1.92-.034-.899-.119-1.783-.119-1.783l-2.212-1.46-2.11-1.393c.255 4.79-.759 5.91-.286 6.25Z" fill="#FFB27D"/><path d="M25.525 27.7s1.436 2.166 4.07 2.659a37.94 37.94 0 0 0-.13-1.892l-2.201-1.351-1.739.583Z" fill="#ED985F"/><path d="M31.457 28.013s-5.352 2.008-6.542-1.308c-1.191-3.316-2.684-5.29.683-6.712 3.367-1.423 4.488-.397 5.158.612.67 1.01 2.063 6.799.7 7.408Z" fill="#FFB27D"/><path d="M21.58 20.364c-.061-.048-.185-.072-.447-.034 0 0 .181-.17.455-.232-.016-.372.049-1.048.634-1.324 0 0-.296.243-.265.635.57-.88 1.995-1.72 6.299-2.226 5.673-.666 4.538 3.296 3.9 3.869-.64.572-2.69-.242-4.017.133-1.326.376-1.198 2.384-1.602 2.743-.404.36-.317-.151-.99-.31-.674-.157-.53.885-.22 1.52.31.633-.366 1.687-.366 1.687l-1.041-.76c-1.042-.759-2.625-4.537-2.4-5.454.021-.081.04-.163.06-.247Z" fill="#2C3A64"/><path d="M20.007 62.16c.162-2.42.767-7.097-1.965-16.498a16.016 16.016 0 0 1-.525-2.513c2.03-.673 5.728.824 5.728.824s.87 12.426-3.238 18.187Z" fill="#92001F"/><path d="M20.015 33.398s-2.497.914-4.091 7.565c-1.053 4.394-2.991 10.854-3.21 12.884-.218 2.03 2.216 13.914 2.216 13.914s.343.251 1.185.082c.805-.162 1.18-.71 1.18-.71s.581-7.92.432-11.66c-.063-1.554 7.151-11.379 11.045-12.645 1.53-.498-8.757-9.43-8.757-9.43Z" fill="#E03"/><path d="M54.953 24.788s-7.22-.206-15.55 1.336l-.871-2.206-.955-2.416s8.364-3.621 13.391-8.665l3.985 11.95Z" fill="#AEC0FF"/><path d="M50.855 12.72 55 25.027a1.11 1.11 0 0 0 .726-1.434l-3.648-10.34a.91.91 0 0 0-1.223-.531Z" fill="#6286A7"/><path d="M46.898 33.948a1.5 1.5 0 0 1-1.759-1.179l-1.427-7.182a1.508 1.508 0 0 1 1.172-1.769 1.5 1.5 0 0 1 1.759 1.179l1.427 7.182a1.507 1.507 0 0 1-1.172 1.769Z" fill="#375C7E"/><path d="M54.953 24.788s-7.22-.205-15.55 1.337l-.871-2.206c7.828-1.608 16.42.87 16.42.87Z" fill="#93AAFF"/><path d="m41.706 25.682-2.256.399c.034.001-2.095.417-2.794-1.482a1.548 1.548 0 0 1-.134-.41c-.543-2.366.748-2.801.748-2.801l2.903-1.139.923 3.284v.011l.61 2.138Z" fill="#6286A7"/><path d="m41.706 25.682-2.256.399c.034.001-2.095.417-2.794-1.482 1.276-.934 4.44-1.068 4.44-1.068v.012l.61 2.139Z" fill="#375C7E"/><path d="M46.706 26.993s-1.104.442-.9.931c.201.489 1.605 1.161 1.826.776.22-.386-.233-2.119-.926-1.707ZM44.245 31.075s-.209-1.136-.221-1.657c-.013-.522-.074-.948.047-.963.122-.015.212.08.26.249.05.168.242 1.207.242 1.207l-.097 1.005-.231.16Z" fill="#FFB27D"/></svg>