<svg width="122" height="40" viewBox="0 0 122 40" fill="none" xmlns="http://www.w3.org/2000/svg">
<g clip-path="url(#clip0)">
<path d="M112.285 0.00013H9.7208C9.34695 0.00013 8.97757 0.00013 8.6047 0.00213C8.29258 0.00413 7.98294 0.00994 7.66782 0.01483C6.98322 0.0227318 6.30024 0.0818063 5.6248 0.19154C4.95031 0.303663 4.29695 0.515046 3.68681 0.81854C3.07742 1.1246 2.52061 1.5223 2.03656 1.9972C1.54998 2.47077 1.14437 3.01815 0.835344 3.61829C0.525461 4.21724 0.310587 4.85907 0.198144 5.52161C0.0846314 6.18331 0.0235493 6.85265 0.0154457 7.52361C0.00598459 7.83021 0.00498546 8.13783 0 8.44447V31.5587C0.00498546 31.8692 0.00598459 32.17 0.0154457 32.4806C0.0235518 33.1516 0.0846339 33.8209 0.198144 34.4825C0.310277 35.1455 0.525163 35.7877 0.835344 36.3868C1.14423 36.985 1.5499 37.5302 2.03656 38.0011C2.51877 38.4781 3.07595 38.8761 3.68681 39.1798C4.29694 39.4841 4.95023 39.6968 5.6248 39.8106C6.30035 39.9195 6.98327 39.9786 7.66782 39.9874C7.98294 39.9942 8.29258 39.9981 8.6047 39.9981C8.97756 40.0001 9.34697 40.0001 9.7208 40.0001H112.285C112.651 40.0001 113.023 40.0001 113.39 39.9981C113.7 39.9981 114.019 39.9942 114.33 39.9874C115.013 39.979 115.695 39.9199 116.369 39.8106C117.046 39.696 117.701 39.4834 118.314 39.1798C118.925 38.8759 119.481 38.478 119.963 38.0011C120.448 37.5283 120.855 36.9836 121.168 36.3868C121.476 35.7872 121.688 35.1451 121.799 34.4825C121.913 33.8208 121.976 33.1516 121.988 32.4806C121.992 32.17 121.992 31.8692 121.992 31.5587C122 31.1954 122 30.8341 122 30.4649V9.53626C122 9.17005 122 8.80677 121.992 8.44447C121.992 8.13783 121.992 7.83021 121.988 7.52357C121.976 6.85255 121.913 6.18337 121.799 5.52157C121.688 4.85941 121.475 4.21763 121.168 3.61825C120.538 2.41533 119.54 1.43616 118.314 0.81845C117.701 0.515697 117.045 0.30437 116.369 0.19145C115.695 0.0812328 115.013 0.0221378 114.33 0.01469C114.019 0.00981 113.7 0.00395 113.39 0.002C113.023 0 112.651 0 112.285 0V0.00013Z" fill="black"/>
<path d="M8.58571 39.125C8.27595 39.125 7.97368 39.1211 7.66635 39.1143C7.0297 39.1061 6.39453 39.0516 5.76606 38.9512C5.18004 38.8519 4.61235 38.6673 4.08171 38.4033C3.55593 38.1415 3.07638 37.7983 2.66142 37.3867C2.24046 36.98 1.88999 36.5082 1.6239 35.9902C1.35488 35.4688 1.1687 34.9099 1.07185 34.333C0.967264 33.7131 0.910676 33.0863 0.902579 32.458C0.896134 32.2471 0.887695 31.5449 0.887695 31.5449V8.44434C0.887695 8.44434 0.896683 7.75293 0.90263 7.5498C0.910383 6.92248 0.966642 6.29665 1.07092 5.67773C1.16795 5.09925 1.35427 4.53875 1.62344 4.01563C1.88855 3.49794 2.23707 3.02586 2.6555 2.61768C3.07345 2.20562 3.55454 1.8606 4.08121 1.59521C4.61063 1.33209 5.17725 1.14873 5.76208 1.05127C6.39262 0.949836 7.02999 0.894996 7.66885 0.88721L8.58621 0.875H113.068L113.996 0.8877C114.629 0.895099 115.261 0.94945 115.885 1.05029C116.476 1.14898 117.049 1.33362 117.584 1.59814C118.639 2.13299 119.498 2.97916 120.039 4.01807C120.304 4.53758 120.488 5.09351 120.583 5.66699C120.689 6.29099 120.748 6.92174 120.76 7.5542C120.763 7.8374 120.763 8.1416 120.763 8.44434C120.771 8.81934 120.771 9.17627 120.771 9.53613V30.4648C120.771 30.8281 120.771 31.1826 120.763 31.54C120.763 31.8652 120.763 32.1631 120.759 32.4697C120.747 33.0909 120.689 33.7104 120.585 34.3232C120.49 34.9043 120.305 35.4675 120.036 35.9932C119.768 36.5056 119.42 36.9733 119.004 37.3789C118.588 37.7927 118.108 38.1379 117.581 38.4014C117.047 38.6674 116.475 38.8527 115.885 38.9512C115.257 39.0522 114.622 39.1067 113.985 39.1143C113.687 39.1211 113.375 39.125 113.073 39.125L111.97 39.127L8.58571 39.125Z" fill="white"/>
<path d="M25.4132 19.8907C25.4245 19.0227 25.6589 18.1717 26.0945 17.4168C26.5301 16.6618 27.1528 16.0276 27.9046 15.573C27.427 14.9021 26.7969 14.3499 26.0645 13.9604C25.332 13.5709 24.5173 13.3548 23.685 13.3292C21.9097 13.1459 20.1886 14.3741 19.2839 14.3741C18.3617 14.3741 16.9688 13.3474 15.4689 13.3777C14.4987 13.4086 13.5531 13.6861 12.7244 14.1832C11.8957 14.6803 11.212 15.3801 10.74 16.2144C8.69534 19.6964 10.2205 24.8138 12.1791 27.6284C13.159 29.0067 14.3043 30.5462 15.8029 30.4916C17.2693 30.4318 17.817 29.5718 19.5871 29.5718C21.3408 29.5718 21.8546 30.4916 23.3836 30.4569C24.9572 30.4318 25.9486 29.0725 26.8941 27.6813C27.5982 26.6992 28.14 25.6139 28.4995 24.4654C27.5853 24.085 26.8051 23.4484 26.2563 22.6349C25.7075 21.8214 25.4142 20.867 25.4132 19.8907Z" fill="black"/>
<path d="M22.5251 11.4775C23.3831 10.4645 23.8058 9.16233 23.7034 7.84766C22.3926 7.98307 21.1818 8.59927 20.3123 9.57348C19.8871 10.0494 19.5615 10.6031 19.354 11.2029C19.1466 11.8026 19.0613 12.4368 19.1031 13.069C19.7587 13.0756 20.4074 12.9358 21.0001 12.6602C21.5928 12.3845 22.1143 11.9802 22.5251 11.4775Z" fill="black"/>
<path d="M43.0067 27.1397H38.1944L37.0388 30.4961H35.0005L39.5586 18.0781H41.6763L46.2345 30.4961H44.1614L43.0067 27.1397ZM38.6929 25.5908H42.5074L40.6269 20.1436H40.5743L38.6929 25.5908Z" fill="black"/>
<path d="M56.0787 25.9695C56.0787 28.7829 54.5477 30.5905 52.2374 30.5905C51.6521 30.6207 51.0701 30.4881 50.5579 30.2079C50.0457 29.9278 49.6241 29.5114 49.3413 29.0065H49.2976V33.4909H47.4082V21.4421H49.237V22.948H49.2718C49.5676 22.4455 49.9963 22.0313 50.5124 21.7495C51.0285 21.4676 51.6126 21.3287 52.2026 21.3474C54.5388 21.3474 56.0787 23.1638 56.0787 25.9695ZM54.1367 25.9695C54.1367 24.1365 53.1736 22.9314 51.7042 22.9314C50.2607 22.9314 49.2897 24.1618 49.2897 25.9695C49.2897 27.7937 50.2607 29.0154 51.7042 29.0154C53.1736 29.0154 54.1367 27.8191 54.1367 25.9695H54.1367Z" fill="black"/>
<path d="M66.21 25.9695C66.21 28.7829 64.6786 30.5905 62.3683 30.5905C61.783 30.6207 61.201 30.4881 60.6888 30.2079C60.1766 29.9278 59.755 29.5114 59.4722 29.0065H59.4284V33.4909H57.5391V21.4421H59.3679V22.948H59.4026C59.6984 22.4455 60.1272 22.0313 60.6433 21.7495C61.1594 21.4676 61.7435 21.3287 62.3335 21.3474C64.6697 21.3474 66.21 23.1638 66.21 25.9695ZM64.2676 25.9695C64.2676 24.1365 63.3045 22.9314 61.8351 22.9314C60.3915 22.9314 59.4205 24.1618 59.4205 25.9695C59.4205 27.7937 60.3915 29.0154 61.8351 29.0154C63.3045 29.0154 64.2676 27.8191 64.2676 25.9695Z" fill="black"/>
<path d="M72.9048 27.0362C73.0448 28.2676 74.261 29.0762 75.923 29.0762C77.5155 29.0762 78.6613 28.2676 78.6613 27.1572C78.6613 26.1934 77.9703 25.6162 76.3341 25.2207L74.6979 24.833C72.3796 24.2822 71.3034 23.2158 71.3034 21.4854C71.3034 19.3428 73.2017 17.8711 75.8962 17.8711C78.565 17.8711 80.3938 19.3428 80.4554 21.4854H78.5481C78.4339 20.2461 77.3924 19.4981 75.8704 19.4981C74.3484 19.4981 73.3069 20.2549 73.3069 21.3565C73.3069 22.2344 73.9721 22.751 75.5994 23.1465L76.9903 23.4824C79.5806 24.0849 80.6559 25.1084 80.6559 26.9248C80.6559 29.248 78.7754 30.7031 75.783 30.7031C72.9832 30.7031 71.0928 29.2822 70.9707 27.0361L72.9048 27.0362Z" fill="black"/>
<path d="M84.7352 19.3008V21.4434H86.4856V22.915H84.7352V27.9062C84.7352 28.6816 85.0857 29.043 85.8551 29.043C86.0629 29.0394 86.2704 29.0251 86.4766 29V30.4629C86.1307 30.5264 85.7791 30.5552 85.4272 30.5488C83.5636 30.5488 82.8369 29.8603 82.8369 28.1045V22.915H81.4985V21.4434H82.8369V19.3008H84.7352Z" fill="black"/>
<path d="M87.4985 25.9707C87.4985 23.1221 89.2042 21.332 91.864 21.332C94.5328 21.332 96.2305 23.122 96.2305 25.9707C96.2305 28.8271 94.5417 30.6094 91.864 30.6094C89.1873 30.6094 87.4985 28.8271 87.4985 25.9707ZM94.3054 25.9707C94.3054 24.0166 93.395 22.8633 91.864 22.8633C90.3331 22.8633 89.4226 24.0254 89.4226 25.9707C89.4226 27.9326 90.3331 29.0771 91.864 29.0771C93.395 29.0771 94.3054 27.9326 94.3054 25.9707H94.3054Z" fill="black"/>
<path d="M97.7881 21.442H99.5901V22.983H99.6338C99.7557 22.5017 100.042 22.0764 100.446 21.7785C100.849 21.4806 101.344 21.3284 101.848 21.3473C102.066 21.3465 102.283 21.3698 102.495 21.4166V23.1549C102.22 23.0723 101.934 23.0343 101.646 23.0426C101.372 23.0316 101.098 23.0792 100.844 23.1821C100.59 23.285 100.362 23.4408 100.175 23.6386C99.9877 23.8365 99.8464 24.0719 99.7606 24.3286C99.6747 24.5852 99.6464 24.8571 99.6775 25.1256V30.4957H97.7881L97.7881 21.442Z" fill="black"/>
<path d="M111.206 27.8379C110.952 29.4814 109.325 30.6094 107.243 30.6094C104.565 30.6094 102.903 28.8447 102.903 26.0137C102.903 23.1738 104.574 21.332 107.164 21.332C109.71 21.332 111.312 23.0527 111.312 25.7979V26.4346H104.811V26.5469C104.781 26.8801 104.823 27.2157 104.935 27.5316C105.047 27.8474 105.226 28.1362 105.46 28.3788C105.694 28.6213 105.978 28.8121 106.293 28.9384C106.608 29.0647 106.947 29.1236 107.287 29.1113C107.733 29.1525 108.181 29.0508 108.564 28.8213C108.947 28.5919 109.245 28.247 109.412 27.8379L111.206 27.8379ZM104.819 25.1357H109.421C109.438 24.8361 109.392 24.5363 109.286 24.2551C109.179 23.9739 109.015 23.7174 108.803 23.5016C108.591 23.2858 108.336 23.1155 108.054 23.0013C107.772 22.8871 107.469 22.8314 107.164 22.8379C106.856 22.8361 106.551 22.8942 106.266 23.009C105.982 23.1237 105.723 23.2928 105.505 23.5064C105.287 23.72 105.114 23.974 104.996 24.2537C104.879 24.5333 104.819 24.8331 104.819 25.1358V25.1357Z" fill="black"/>
<path d="M37.8043 14.6992V9.57564H35.896V8.73242H40.6508V9.57568H38.7465V14.6992L37.8043 14.6992Z" fill="black"/>
<path d="M40.9419 13.4259C40.9419 12.6153 41.5555 12.148 42.6446 12.0816L43.8847 12.0113V11.6227C43.8847 11.1471 43.565 10.8785 42.9474 10.8785C42.4431 10.8785 42.0936 11.0606 41.9933 11.379H41.1186C41.211 10.6056 41.9506 10.1095 42.9891 10.1095C44.1368 10.1095 44.7842 10.6715 44.7842 11.6227V14.6993H43.9145V14.0665H43.8429C43.6978 14.2935 43.4941 14.4785 43.2525 14.6028C43.0109 14.727 42.7401 14.7859 42.4678 14.7735C42.2757 14.7932 42.0814 14.773 41.8977 14.7143C41.7139 14.6556 41.5447 14.5597 41.4009 14.4327C41.2571 14.3057 41.142 14.1505 41.0629 13.9771C40.9839 13.8037 40.9427 13.6159 40.9419 13.4259ZM43.8847 13.0411V12.6646L42.7667 12.735C42.1363 12.7765 41.8503 12.9874 41.8503 13.3844C41.8503 13.7896 42.2078 14.0255 42.6993 14.0255C42.8433 14.0398 42.9887 14.0255 43.127 13.9834C43.2653 13.9413 43.3935 13.8723 43.5041 13.7805C43.6147 13.6886 43.7054 13.5758 43.7708 13.4488C43.8362 13.3218 43.8749 13.1831 43.8847 13.0411ZM42.3378 8.01669C42.5298 7.95202 42.7316 7.91999 42.9345 7.92196C43.5362 7.92196 43.9264 8.23596 43.9264 8.73251C43.9091 8.95409 43.8228 9.16504 43.6793 9.33665C43.5357 9.50825 43.3419 9.63216 43.1241 9.69151L42.7786 9.25351C43.0527 9.1666 43.2453 8.98886 43.2453 8.81064C43.2453 8.629 43.0646 8.49664 42.8084 8.49664C42.6471 8.49228 42.4866 8.52191 42.3378 8.58355L42.3378 8.01669Z" fill="black"/>
<path d="M46.0806 8.86385C46.0737 8.74875 46.102 8.63424 46.1619 8.53516C46.2219 8.43608 46.3107 8.35699 46.4169 8.30814C46.5231 8.25928 46.6417 8.24292 46.7575 8.26116C46.8732 8.27939 46.9808 8.3314 47.0661 8.41044C47.1515 8.48947 47.2107 8.5919 47.2362 8.70444C47.2617 8.81699 47.2523 8.93447 47.2091 9.04167C47.1659 9.14886 47.091 9.24084 46.9941 9.30568C46.8971 9.37053 46.7826 9.40525 46.6654 9.40535C46.5905 9.4091 46.5156 9.39792 46.4451 9.37247C46.3747 9.34702 46.3103 9.30782 46.2556 9.25724C46.201 9.20666 46.1573 9.14573 46.1273 9.07813C46.0972 9.01052 46.0813 8.93764 46.0806 8.86385ZM46.2147 10.1954H47.1152V14.6983H46.2147V10.1954Z" fill="black"/>
<path d="M53.2837 14.6982H52.3127L50.6606 10.1953H51.6267L52.7665 13.7471H52.8379L53.9727 10.1953H54.9318L53.2837 14.6982Z" fill="black"/>
<path d="M59.6717 13.4829C59.5489 13.8944 59.283 14.2504 58.9203 14.4886C58.5577 14.7267 58.1215 14.8319 57.688 14.7856C57.3864 14.7935 57.0866 14.7367 56.8096 14.6191C56.5326 14.5016 56.2848 14.3262 56.0836 14.105C55.8824 13.8839 55.7325 13.6223 55.6444 13.3385C55.5563 13.0547 55.532 12.7554 55.5732 12.4614C55.5331 12.1665 55.5578 11.8666 55.6457 11.5819C55.7336 11.2973 55.8827 11.0345 56.0829 10.8114C56.283 10.5883 56.5296 10.4102 56.8058 10.289C57.0821 10.1678 57.3815 10.1063 57.684 10.1089C58.9578 10.1089 59.7263 10.9649 59.7263 12.3789V12.689H56.4936V12.7388C56.4795 12.904 56.5006 13.0704 56.5556 13.2271C56.6106 13.3839 56.6983 13.5276 56.8131 13.649C56.9279 13.7705 57.0672 13.867 57.2222 13.9324C57.3771 13.9978 57.5442 14.0306 57.7128 14.0288C57.9289 14.0543 58.1479 14.016 58.3418 13.9188C58.5358 13.8216 58.6959 13.6699 58.802 13.4829L59.6717 13.4829ZM59.353 9.57959H58.4108L57.7168 8.73584H57.6503L56.9563 9.57959H56.015L57.1916 8.21098H58.1755L59.353 9.57959ZM56.4936 12.0317H58.8059C58.8173 11.8806 58.7964 11.7288 58.7446 11.5861C58.6928 11.4434 58.6112 11.3129 58.5051 11.203C58.399 11.0932 58.2707 11.0064 58.1284 10.9482C57.9861 10.89 57.8331 10.8618 57.679 10.8652C57.5228 10.8633 57.3677 10.8922 57.223 10.9501C57.0782 11.008 56.9467 11.0939 56.8362 11.2026C56.7258 11.3113 56.6385 11.4407 56.5797 11.5831C56.5208 11.7255 56.4916 11.878 56.4936 12.0317ZM58.802 8.09912L57.8647 6.80078H58.8059L59.6091 8.09912H58.802Z" fill="black"/>
<path d="M64.6459 9.07422V10.2158H65.6377V10.9644H64.6459V13.2798C64.6459 13.7515 64.8435 13.958 65.2932 13.958C65.4084 13.9576 65.5234 13.9508 65.6377 13.9375V14.6777C65.4755 14.7063 65.3111 14.7215 65.1463 14.7231C64.1415 14.7231 63.7414 14.3755 63.7414 13.5073V10.9643H63.0146V10.2158H63.7414V9.07422H64.6459Z" fill="black"/>
<path d="M66.8306 10.1966H67.7003V10.887H67.7678C67.8652 10.6474 68.0373 10.4442 68.2593 10.3067C68.4814 10.1693 68.7421 10.1046 69.0039 10.1219C69.1392 10.1201 69.2743 10.1326 69.407 10.159V11.036C69.2412 11.0012 69.0722 10.9832 68.9026 10.9823C68.7536 10.9691 68.6034 10.9868 68.4618 11.0341C68.3201 11.0814 68.1901 11.1574 68.08 11.2571C67.97 11.3568 67.8823 11.478 67.8228 11.613C67.7632 11.748 67.733 11.8937 67.7341 12.0409V14.6996H66.8306L66.8306 10.1966Z" fill="black"/>
<path d="M74.1585 13.4824C74.0357 13.894 73.7698 14.2499 73.4072 14.4881C73.0445 14.7262 72.6083 14.8314 72.1748 14.7851C71.8732 14.793 71.5735 14.7362 71.2964 14.6186C71.0194 14.5011 70.7717 14.3257 70.5704 14.1045C70.3692 13.8834 70.2194 13.6218 70.1312 13.338C70.0431 13.0542 70.0188 12.7549 70.0601 12.4609C70.0199 12.166 70.0446 11.8661 70.1325 11.5814C70.2205 11.2968 70.3696 11.034 70.5697 10.8109C70.7699 10.5879 71.0164 10.4097 71.2926 10.2885C71.5689 10.1673 71.8684 10.1058 72.1708 10.1084C73.4446 10.1084 74.2131 10.9644 74.2131 12.3784V12.6885H70.9804V12.7383C70.9663 12.9035 70.9874 13.0699 71.0424 13.2266C71.0974 13.3834 71.1852 13.5271 71.2999 13.6485C71.4147 13.77 71.5541 13.8665 71.709 13.9319C71.8639 13.9973 72.031 14.0301 72.1996 14.0283C72.4157 14.0538 72.6347 14.0155 72.8286 13.9183C73.0226 13.8211 73.1827 13.6694 73.2888 13.4824L74.1585 13.4824ZM73.8348 9.5791H72.9065L72.2036 8.67334H72.137L71.4351 9.5791H70.5018L71.6783 8.14844H72.6622L73.8348 9.5791ZM70.9804 12.0312H73.2927C73.3041 11.8801 73.2832 11.7283 73.2314 11.5856C73.1796 11.4429 73.098 11.3124 72.9919 11.2025C72.8858 11.0927 72.7575 11.0059 72.6152 10.9477C72.4729 10.8895 72.3199 10.8613 72.1659 10.8647C72.0096 10.8628 71.8545 10.8917 71.7098 10.9496C71.565 11.0076 71.4335 11.0934 71.3231 11.2021C71.2126 11.3108 71.1254 11.4402 71.0665 11.5826C71.0077 11.725 70.9784 11.8775 70.9804 12.0312Z" fill="black"/>
<path d="M75.4263 10.1949H76.296V10.9102H76.3635C76.478 10.6533 76.6712 10.4379 76.9161 10.2941C77.161 10.1503 77.4454 10.0852 77.7297 10.1079C77.9524 10.0915 78.1761 10.1245 78.3841 10.2046C78.5921 10.2847 78.7791 10.4098 78.9313 10.5707C79.0835 10.7315 79.1969 10.924 79.2632 11.1338C79.3295 11.3436 79.3469 11.5654 79.3142 11.7827V14.6977H78.4107V12.0059C78.4107 11.2823 78.0911 10.9224 77.4229 10.9224C77.2716 10.9155 77.1207 10.9408 76.9803 10.9966C76.8399 11.0525 76.7135 11.1375 76.6097 11.2459C76.5059 11.3542 76.4271 11.4834 76.3788 11.6246C76.3305 11.7657 76.3137 11.9154 76.3297 12.0635V14.6978H75.4263V10.1949Z" fill="black"/>
</g>
<defs>
<clipPath id="clip0">
<rect width="122" height="40" fill="white"/>
</clipPath>
</defs>
</svg>
