<svg width="67" height="58" viewBox="0 0 67 58" fill="none" xmlns="http://www.w3.org/2000/svg">
<path d="M38.3642 14.9591C37.314 14.9591 36.4626 14.1077 36.4626 13.0575V6.45842C36.4626 4.9943 35.2714 3.8031 33.8072 3.8031H23.398C21.9339 3.8031 20.7427 4.9943 20.7427 6.45842V13.0575C20.7427 14.1077 19.8912 14.9591 18.8411 14.9591C17.7909 14.9591 16.9395 14.1077 16.9395 13.0575V6.45842C16.9395 2.89723 19.8367 0 23.3979 0H33.8071C37.3683 0 40.2655 2.89723 40.2655 6.45842V13.0575C40.2658 14.1077 39.4144 14.9591 38.3642 14.9591Z" fill="#DCDCDC"/>
<path d="M51.0262 50.9077H6.18155C3.04367 50.9077 0.5 48.364 0.5 45.2262V17.1864C0.5 14.0486 3.04367 11.5049 6.18155 11.5049H51.0262C54.164 11.5049 56.7077 14.0486 56.7077 17.1864V45.226C56.7077 48.3639 54.164 50.9077 51.0262 50.9077Z" fill="#DCDCDC"/>
<path d="M51.0262 11.5049H6.18155C3.04367 11.5049 0.5 14.0486 0.5 17.1864V24.2551C0.5 27.393 3.04367 29.9367 6.18155 29.9367H51.0262C54.164 29.9367 56.7077 27.393 56.7077 24.2551V17.1864C56.7077 14.0487 54.164 11.5049 51.0262 11.5049Z" fill="#B57E73"/>
<path d="M51.0276 11.5049H45.8789C49.0168 11.5049 51.5605 14.0486 51.5605 17.1864V45.226C51.5605 48.3639 49.0168 50.9076 45.8789 50.9076H51.0276C54.1655 50.9076 56.7092 48.3639 56.7092 45.226V17.1864C56.7092 14.0487 54.1655 11.5049 51.0276 11.5049Z" fill="#DCDCDC"/>
<path d="M51.0262 11.5049H6.18155C3.04367 11.5049 0.5 14.0486 0.5 17.1864V24.2551C0.5 27.393 3.04367 29.9367 6.18155 29.9367H51.0262C54.164 29.9367 56.7077 27.393 56.7077 24.2551V17.1864C56.7077 14.0487 54.164 11.5049 51.0262 11.5049Z" fill="#B57E73"/>
<path d="M51.0262 11.5049H6.18155C3.04367 11.5049 0.5 14.0486 0.5 17.1864V24.2551C0.5 27.393 3.04367 29.9367 6.18155 29.9367H51.0262C54.164 29.9367 56.7077 27.393 56.7077 24.2551V17.1864C56.7077 14.0487 54.164 11.5049 51.0262 11.5049Z" fill="#C4C4C4"/>
<path d="M51.0245 11.5049H43.2402C46.3781 11.5049 48.9218 14.0486 48.9218 17.1864V29.9366H51.0245C54.1624 29.9366 56.7061 27.3929 56.7061 24.255V17.1863C56.7061 14.0487 54.1624 11.5049 51.0245 11.5049Z" fill="#C4C4C4"/>
<path d="M11.7107 35.3471C9.77571 35.3471 8.20703 33.7784 8.20703 31.8433V25.1923C8.20703 24.497 8.7706 23.9336 9.4657 23.9336H13.9557C14.6509 23.9336 15.2143 24.4972 15.2143 25.1923V31.8433C15.2145 33.7784 13.6458 35.3471 11.7107 35.3471Z" fill="#92001F"/>
<path d="M8.20703 27.5869V31.8429C8.20703 33.778 9.77571 35.3467 11.7107 35.3467C13.6458 35.3467 15.2145 33.778 15.2145 31.8429V27.5869H8.20703Z" fill="#EE0033"/>
<path d="M32.2137 40.3518C32.2932 40.2721 32.2932 40.2721 32.3727 40.1925C33.0088 39.5551 33.4063 38.6788 33.3268 37.8024C33.3268 37.1651 33.7243 36.6074 34.3603 36.448L37.2225 35.6514C37.8585 35.492 38.4946 35.8107 38.8126 36.3684L38.8921 36.5277C39.2896 37.2447 39.9257 37.7227 40.7207 37.8821C40.9592 37.9617 41.1182 37.9617 41.3567 38.0414C42.1518 38.2804 42.9468 38.2008 43.6624 37.7227C43.7419 37.7227 43.7419 37.6431 43.7419 37.6431C44.3779 37.2447 45.0935 37.3244 45.5705 37.8024L47.6376 39.8738C48.1146 40.3518 48.1941 41.0688 47.7966 41.6265L47.7171 41.7858C47.2401 42.5028 47.1606 43.2995 47.3991 44.0962C47.4786 44.3352 47.4786 44.4945 47.5581 44.7335C47.7171 45.5302 48.1941 46.1676 48.9097 46.5659C48.9892 46.5659 48.9892 46.6456 48.9892 46.6456C49.6252 46.9643 49.9432 47.6016 49.7842 48.2389L48.9892 51.107C48.8302 51.7443 48.2736 52.1427 47.6376 52.1427C46.7631 52.063 45.8885 52.4614 45.2525 53.0987C45.173 53.1784 45.173 53.1784 45.0935 53.258C45.014 53.3377 45.014 53.3377 44.9345 53.4174C44.2984 54.0547 43.9009 54.9311 43.9804 55.8074C43.9804 56.4448 43.5829 57.0024 42.9468 57.1618L40.0847 57.9585C39.4486 58.1178 38.8126 57.7991 38.4946 57.2415L38.4151 57.0821C38.0176 56.3651 37.3815 55.8871 36.5865 55.7278C36.348 55.6481 36.1889 55.6481 35.9504 55.5684C35.1554 55.3294 34.3603 55.4091 33.6448 55.8871C33.0883 56.2854 32.3727 56.2058 31.8957 55.7278L29.8286 53.6564C29.3515 53.1784 29.272 52.4614 29.6696 51.9037L29.7491 51.7443C30.2261 51.0273 30.3056 50.2307 30.0671 49.434C29.9876 49.195 29.9876 49.0356 29.9081 48.7966C29.7491 47.9999 29.272 47.3626 28.5565 46.9643H28.318C27.682 46.6456 27.3639 46.0082 27.5229 45.3709L28.318 42.5028C28.477 41.8655 29.0335 41.4671 29.6696 41.4671C30.5441 41.5468 31.4187 41.1485 32.0547 40.5111C32.1342 40.4315 32.2137 40.4315 32.2137 40.3518Z" fill="#92001F"/>
<path d="M39.089 34.6959C39.089 34.6162 39.089 34.4569 39.089 34.3772C39.089 33.1025 38.612 31.9075 37.7374 31.1108C37.1014 30.4735 36.9424 29.5174 37.3399 28.7208L39.407 25.1357C39.884 24.339 40.7586 24.0203 41.6331 24.2593L41.8717 24.4187C42.9052 24.7373 44.0978 24.578 45.0518 23.9407C45.2904 23.7813 45.5289 23.622 45.8469 23.5423C46.8009 22.9846 47.596 22.1083 47.8345 20.9929C47.8345 20.9133 47.8345 20.8336 47.8345 20.8336C47.9935 19.8776 48.7091 19.2402 49.6631 19.2402H53.7973C54.5924 19.2402 55.3874 19.8776 55.5465 20.7539L55.626 20.9929C55.8645 22.1083 56.58 22.9846 57.6136 23.5423C57.8521 23.7017 58.0906 23.861 58.4086 23.9407C59.3627 24.4983 60.4757 24.7373 61.5888 24.4187C61.6683 24.4187 61.6683 24.4187 61.6683 24.4187C62.6224 24.1 63.5764 24.4983 64.0535 25.2154L66.1206 28.8004C66.5976 29.5971 66.4386 30.5531 65.723 31.1905C64.769 31.9872 64.292 33.1822 64.3715 34.4569C64.3715 34.5365 64.3715 34.6959 64.3715 34.7755C64.3715 34.8552 64.3715 35.0145 64.3715 35.0942C64.3715 36.3689 64.8485 37.5639 65.723 38.3606C66.3591 38.998 66.5181 39.954 66.1206 40.7507L64.0535 44.3357C63.5764 45.1324 62.7019 45.4511 61.8273 45.2121L61.5888 45.1324C60.5552 44.8137 59.3627 44.9731 58.4086 45.6104C58.1701 45.7698 57.9316 45.9291 57.6931 46.0088C56.6595 46.5664 55.944 47.4428 55.7055 48.5581L55.626 48.7971C55.3874 49.5142 54.5924 50.0718 53.7178 50.0718H49.5836C48.7091 50.0718 47.914 49.4345 47.755 48.5581L47.6755 48.3191C47.437 47.2038 46.7214 46.3274 45.6879 45.7698C45.4494 45.6104 45.2108 45.4511 44.8928 45.3714C43.9388 44.8137 42.8257 44.5747 41.7126 44.8934H41.6331C40.6791 45.2121 39.725 44.8137 39.248 44.0967L37.1809 40.5117C36.7039 39.715 36.8629 38.759 37.5784 38.1216C38.5325 37.3249 39.0095 36.1299 38.93 34.8552C39.089 34.8552 39.089 34.7755 39.089 34.6959Z" fill="#EE0033"/>
<path d="M38.6542 50.0719C40.4545 50.0719 41.9139 48.6094 41.9139 46.8055C41.9139 45.0015 40.4545 43.5391 38.6542 43.5391C36.8539 43.5391 35.3945 45.0015 35.3945 46.8055C35.3945 48.6094 36.8539 50.0719 38.6542 50.0719Z" fill="white"/>
<path d="M51.9831 41.1832C55.5292 41.1832 58.4038 38.3026 58.4038 34.7493C58.4038 31.196 55.5292 28.3154 51.9831 28.3154C48.4371 28.3154 45.5625 31.196 45.5625 34.7493C45.5625 38.3026 48.4371 41.1832 51.9831 41.1832Z" fill="white"/>
</svg>
