<svg width="152" height="107" fill="none" xmlns="http://www.w3.org/2000/svg"><path d="M108.507 102.956v2.594H65.011v-2.594c3.085-1.561 4.796-4.767 4.796-4.767v-7.56h33.915v7.56c-.01 0 1.7 3.206 4.785 4.767Z" fill="#E2E2E2"/><path opacity=".5" d="M108.507 102.956v2.594h-7.377c-3.032-2.679-5.205-7.793-5.205-7.793v-7.118h7.787v7.56c0-.01 1.71 3.196 4.795 4.757Z" fill="#A3A6A8"/><path d="M110.68 103.894v.274c0 .759-.609 1.371-1.364 1.371H64.214a1.365 1.365 0 0 1-1.364-1.371v-.274c0-.053 0-.116.01-.169a1.372 1.372 0 0 1 1.354-1.202h45.102c.755 0 1.364.622 1.364 1.371Z" fill="#F2F2F2"/><path opacity=".5" d="M103.722 90.628H69.806V95.5h33.916v-4.872Z" fill="#A3A6A8"/><path d="M151.499 11.002v72.224c0 5.473-4.785 10.08-10.451 10.08H32.47c-5.667 0-10.452-4.618-10.452-10.08V11.002C22.018 4.876 26.614.088 32.47.088h108.567c5.866 0 10.462 4.788 10.462 10.915Z" fill="#BBBDBF"/><path opacity=".5" d="M141.049.088h-9.203c2.885 2.025 4.753 5.463 4.753 9.449v75.197c0 3.5-1.889 6.664-4.701 8.583h9.151c5.666 0 10.451-4.618 10.451-10.091V11.002c0-6.126-4.596-10.914-10.451-10.914Z" fill="#A3A6A8"/><path d="M150.262 11.002v72.224c0 4.692-4.134 8.847-9.213 8.847H32.471c-5.08 0-9.214-4.155-9.214-8.847V11.002c0-5.515 4.135-9.68 9.214-9.68h108.567c5.09.01 9.224 4.165 9.224 9.68Z" fill="#231F20"/><path d="M146.138 10.591v60.36H27.381v-60.36c0-2.826 2.288-5.114 5.1-5.114H141.05c2.812 0 5.089 2.288 5.089 5.114Z" fill="#DEE6EE"/><path opacity=".5" d="M146.138 10.591v60.36h-9.539V9.537c0-1.434-.241-2.805-.692-4.06h5.142c2.812 0 5.089 2.288 5.089 5.114Z" fill="#C1D4EE"/><path d="M151.499 75.507v7.73c0 5.472-4.785 10.08-10.451 10.08H32.47c-5.667 0-10.452-4.618-10.452-10.08v-7.73H151.5Z" fill="#F2F2F2"/><path opacity=".5" d="M136.599 75.496v9.238c0 3.5-1.889 6.664-4.701 8.583h9.15c5.667 0 10.452-4.618 10.452-10.091v-7.73h-14.901Z" fill="#E2E2E2"/><path opacity=".5" d="M110.679 103.905v.274c0 .759-.608 1.371-1.364 1.371H98.821c1.207-1.487-.01-2.805-.22-3.016h10.714c.756-.011 1.364.611 1.364 1.371Z" fill="#EAEAEA"/><path d="M9.145 103.272h53.779c.997 0 1.736-.812 1.648-1.816l-6.746-77.561c-.088-1.004-.965-1.816-1.963-1.816H2.081c-.998 0-1.736.812-1.649 1.816l6.747 77.561c.087 1.004.968 1.816 1.966 1.816Z" fill="#263238"/><path d="M9.92 103.272h53.779c.997 0 1.735-.812 1.648-1.816L58.6 23.895c-.088-1.004-.965-1.816-1.963-1.816H2.858c-.997 0-1.735.812-1.647 1.816l6.746 77.561c.088 1.004.965 1.816 1.962 1.816Z" fill="#263238"/><path opacity=".5" d="M9.92 103.272h53.779c.997 0 1.735-.812 1.648-1.816L58.6 23.895c-.088-1.004-.965-1.816-1.963-1.816H2.858c-.997 0-1.735.812-1.647 1.816l6.746 77.561c.088 1.004.965 1.816 1.962 1.816Z" fill="#fff"/><path opacity=".2" d="m53.597 26.563 6.45 73.897H11.575l-6.45-73.897h48.472Z" fill="#000"/><path d="m53.894 26.563 1.86 23.832a233.398 233.398 0 0 0 2.181 18.452l4.751 29.94H14.213L9.455 68.77A232.826 232.826 0 0 1 7.281 50.34L5.424 26.56h48.47v.003Z" fill="#fff"/><path d="M21.723 36.038h18.174c.603 0 1.03-.492.957-1.095l-.146-1.187c-.073-.606-.621-1.095-1.224-1.095H21.31c-.603 0-1.03.492-.957 1.095l.146 1.187c.073.603.621 1.096 1.224 1.096ZM14.049 60.606h39.019c.603 0 1.03-.493.957-1.095l-.146-1.188c-.073-.606-.621-1.095-1.224-1.095H13.636c-.603 0-1.03.493-.957 1.095l.146 1.188c.073.602.621 1.095 1.224 1.095Z" fill="#D7002E"/><path opacity=".5" d="M14.049 60.606h39.019c.603 0 1.03-.493.957-1.095l-.146-1.188c-.073-.606-.621-1.095-1.224-1.095H13.636c-.603 0-1.03.493-.957 1.095l.146 1.188c.073.602.621 1.095 1.224 1.095Z" fill="#fff"/><path d="M38.095 41.096H19.922c-.373 0-.428-.584-.052-.584h18.174c.377 0 .428.584.051.584ZM12.178 42.72h26.14c.373 0 .427.585.051.585h-26.14c-.377 0-.428-.584-.051-.584ZM42.104 43.404h8.87c.603 0 1.03-.492.957-1.095l-.146-1.187c-.073-.607-.621-1.096-1.224-1.096h-8.87c-.603 0-1.03.493-.957 1.096l.146 1.187c.073.603.621 1.095 1.224 1.095Z" fill="#263238"/><path opacity=".7" d="M42.104 43.404h8.87c.603 0 1.03-.492.957-1.095l-.146-1.187c-.073-.607-.621-1.096-1.224-1.096h-8.87c-.603 0-1.03.493-.957 1.096l.146 1.187c.073.603.621 1.095 1.224 1.095Z" fill="#fff"/><path d="M47.104 50.204H51.8c.603 0 1.03-.492.957-1.095l-.077-.621c-.073-.607-.621-1.096-1.224-1.096H46.76c-.603 0-1.03.493-.957 1.096l.076.62c.073.607.622 1.096 1.225 1.096ZM32.742 50.204h10.901c.603 0 1.03-.492.957-1.095l-.076-.621c-.073-.607-.621-1.096-1.224-1.096H32.398c-.603 0-1.03.493-.957 1.096l.076.62c.077.607.622 1.096 1.225 1.096ZM21.095 50.204h8.186c.603 0 1.03-.492.957-1.095l-.076-.621c-.074-.607-.622-1.096-1.225-1.096h-8.186c-.603 0-1.03.493-.957 1.096l.076.62c.077.607.625 1.096 1.225 1.096ZM13.325 50.204h4.309c.603 0 1.03-.492.957-1.095l-.076-.621c-.073-.607-.622-1.096-1.225-1.096h-4.308c-.603 0-1.03.493-.958 1.096l.077.62c.077.607.625 1.096 1.224 1.096ZM44.114 54.32H52.3c.603 0 1.03-.492.957-1.095l-.076-.62c-.074-.607-.622-1.096-1.225-1.096H43.77c-.603 0-1.03.493-.957 1.095l.077.621c.073.603.62 1.096 1.224 1.096ZM30.918 54.32h9.739c.603 0 1.03-.492.957-1.095l-.077-.62c-.073-.607-.62-1.096-1.224-1.096h-9.739c-.603 0-1.03.493-.958 1.095l.077.621c.073.603.621 1.096 1.224 1.096ZM22.76 54.32h4.697c.603 0 1.03-.492.957-1.095l-.077-.62c-.073-.607-.62-1.096-1.224-1.096h-4.696c-.603 0-1.03.493-.957 1.095l.076.621c.074.603.622 1.096 1.225 1.096ZM13.826 54.32h5.475c.603 0 1.03-.492.957-1.095l-.077-.62c-.073-.607-.62-1.096-1.224-1.096h-5.474c-.603 0-1.03.493-.958 1.095l.077.621c.077.603.625 1.096 1.224 1.096Z" fill="#263238"/><g opacity=".7" fill="#fff"><path opacity=".7" d="M47.104 50.204H51.8c.603 0 1.03-.492.957-1.095l-.077-.621c-.073-.607-.621-1.096-1.224-1.096H46.76c-.603 0-1.03.493-.957 1.096l.076.62c.073.607.622 1.096 1.225 1.096ZM32.742 50.204h10.901c.603 0 1.03-.492.957-1.095l-.076-.621c-.073-.607-.621-1.096-1.224-1.096H32.398c-.603 0-1.03.493-.957 1.096l.076.62c.077.607.622 1.096 1.225 1.096ZM21.095 50.204h8.186c.603 0 1.03-.492.957-1.095l-.076-.621c-.074-.607-.622-1.096-1.225-1.096h-8.186c-.603 0-1.03.493-.957 1.096l.076.62c.077.607.625 1.096 1.225 1.096ZM13.325 50.204h4.309c.603 0 1.03-.492.957-1.095l-.076-.621c-.073-.607-.622-1.096-1.225-1.096h-4.308c-.603 0-1.03.493-.958 1.096l.077.62c.077.607.625 1.096 1.224 1.096ZM44.114 54.32H52.3c.603 0 1.03-.492.957-1.095l-.076-.62c-.074-.607-.622-1.096-1.225-1.096H43.77c-.603 0-1.03.493-.957 1.095l.077.621c.073.603.62 1.096 1.224 1.096ZM30.918 54.32h9.739c.603 0 1.03-.492.957-1.095l-.077-.62c-.073-.607-.62-1.096-1.224-1.096h-9.739c-.603 0-1.03.493-.958 1.095l.077.621c.073.603.621 1.096 1.224 1.096ZM22.76 54.32h4.697c.603 0 1.03-.492.957-1.095l-.077-.62c-.073-.607-.62-1.096-1.224-1.096h-4.696c-.603 0-1.03.493-.957 1.095l.076.621c.074.603.622 1.096 1.225 1.096ZM13.826 54.32h5.475c.603 0 1.03-.492.957-1.095l-.077-.62c-.073-.607-.62-1.096-1.224-1.096h-5.474c-.603 0-1.03.493-.958 1.095l.077.621c.077.603.625 1.096 1.224 1.096Z"/></g><path d="M29.383 95.796H16.757c-.373 0-.424-.585-.051-.585h12.626c.377 0 .428.585.051.585ZM58.429 95.796H45.803c-.373 0-.424-.585-.052-.585h12.627c.376 0 .427.585.05.585ZM56.24 77.796H40.123c-.372 0-.424-.584-.05-.584h16.115c.373 0 .424.584.052.584ZM40.346 79.462h16.117c.372 0 .423.584.05.584H40.399c-.377 0-.428-.585-.052-.585ZM40.62 81.71h16.117c.373 0 .424.585.051.585H40.672c-.376 0-.428-.584-.051-.584ZM40.894 83.96h16.117c.372 0 .423.585.05.585H40.946c-.376 0-.427-.585-.05-.585ZM41.168 86.21h16.116c.373 0 .424.584.052.584H41.219c-.376 0-.427-.584-.05-.584ZM32.142 77.796H19.516c-.373 0-.428-.584-.051-.584H32.09c.376 0 .428.584.051.584ZM19.739 79.462h12.626c.373 0 .424.584.051.584H19.79c-.373 0-.428-.585-.051-.585ZM20.013 81.71h12.626c.373 0 .424.585.051.585H20.064c-.376 0-.427-.584-.051-.584ZM20.287 83.96h12.626c.373 0 .424.585.051.585H20.338c-.376 0-.428-.585-.051-.585ZM20.561 86.21h12.626c.373 0 .424.584.052.584H20.612c-.376 0-.427-.584-.05-.584Z" fill="#263238"/><path d="m13.493 66.211.333 2.731.332 2.731.333 2.731H55.984l-.37-3.021-.332-2.731-.332-2.731-.333-2.731H13.121l.372 3.021Zm7.404-1.51.15 1.22h-7.294l-.296-2.437h7.294l.146 1.217Zm.622 2.727-.15-1.22H34.09l.15 1.22.15 1.22H21.668l-.15-1.22Zm12.867-1.217h12.721l.15 1.22.15 1.22H34.686l-.15-1.22-.15-1.22Zm13.35 5.168H35.015l-.15-1.22-.15-1.22h12.721l.15 1.22.15 1.22Zm-13.014 0H22.001l-.15-1.22-.15-1.22h12.721l.15 1.22.15 1.22Zm-.811-6.678.15 1.22H21.34l-.15-1.22-.15-1.22H33.76l.15 1.22Zm13.013 0 .15 1.22h-12.72l-.15-1.22-.15-1.22h12.72l.15 1.22Zm7.733 1.216h-7.294l-.15-1.22-.15-1.22h7.295l.3 2.44Zm.333 2.731h-7.294l-.15-1.22-.15-1.22h7.294l.3 2.44Zm.332 2.731h-7.294l-.15-1.22-.15-1.22h7.295l.3 2.44Zm-7.111 1.51-.15-1.22h7.294l.296 2.437h-7.294l-.146-1.216Zm-13.014 0-.15-1.22H47.77l.15 1.22.15 1.22H35.346l-.15-1.22Zm-13.013 0-.15-1.22h12.721l.15 1.22.15 1.22H22.334l-.15-1.22Zm-7.733-1.22h7.294l.15 1.22.15 1.22h-7.298l-.296-2.44Zm-.333-2.727h7.295l.15 1.22.15 1.22h-7.295l-.3-2.44Zm-.332-2.73h7.294l.15 1.22.15 1.22h-7.295l-.3-2.44Z" fill="#D7002E"/><path opacity=".5" d="m13.493 66.211.333 2.731.332 2.731.333 2.731H55.984l-.37-3.021-.332-2.731-.332-2.731-.333-2.731H13.121l.372 3.021Zm7.404-1.51.15 1.22h-7.294l-.296-2.437h7.294l.146 1.217Zm.622 2.727-.15-1.22H34.09l.15 1.22.15 1.22H21.668l-.15-1.22Zm12.867-1.217h12.721l.15 1.22.15 1.22H34.686l-.15-1.22-.15-1.22Zm13.35 5.168H35.015l-.15-1.22-.15-1.22h12.721l.15 1.22.15 1.22Zm-13.014 0H22.001l-.15-1.22-.15-1.22h12.721l.15 1.22.15 1.22Zm-.811-6.678.15 1.22H21.34l-.15-1.22-.15-1.22H33.76l.15 1.22Zm13.013 0 .15 1.22h-12.72l-.15-1.22-.15-1.22h12.72l.15 1.22Zm7.733 1.216h-7.294l-.15-1.22-.15-1.22h7.295l.3 2.44Zm.333 2.731h-7.294l-.15-1.22-.15-1.22h7.294l.3 2.44Zm.332 2.731h-7.294l-.15-1.22-.15-1.22h7.295l.3 2.44Zm-7.111 1.51-.15-1.22h7.294l.296 2.437h-7.294l-.146-1.216Zm-13.014 0-.15-1.22H47.77l.15 1.22.15 1.22H35.346l-.15-1.22Zm-13.013 0-.15-1.22h12.721l.15 1.22.15 1.22H22.334l-.15-1.22Zm-7.733-1.22h7.294l.15 1.22.15 1.22h-7.298l-.296-2.44Zm-.333-2.727h7.295l.15 1.22.15 1.22h-7.295l-.3-2.44Zm-.332-2.73h7.294l.15 1.22.15 1.22h-7.295l-.3-2.44Z" fill="#fff"/><path d="M15.96 79.642h1.203a.352.352 0 0 0 .354-.408l-.146-1.21a.471.471 0 0 0-.453-.408h-1.203a.352.352 0 0 0-.354.408l.146 1.21c.026.224.23.408.453.408ZM16.227 81.85h1.203a.352.352 0 0 0 .354-.407l-.146-1.21a.471.471 0 0 0-.453-.408h-1.203a.352.352 0 0 0-.354.408l.146 1.21c.03.224.23.408.453.408ZM16.497 84.06H17.7a.352.352 0 0 0 .354-.408l-.146-1.21a.47.47 0 0 0-.453-.408h-1.202a.352.352 0 0 0-.355.408l.146 1.21c.026.227.23.408.453.408ZM16.768 86.269h1.202a.352.352 0 0 0 .355-.408l-.147-1.21a.471.471 0 0 0-.453-.408h-1.202a.352.352 0 0 0-.354.408l.146 1.21a.465.465 0 0 0 .453.408Z" fill="#D7002E"/><path opacity=".5" d="M16.227 81.85h1.203a.352.352 0 0 0 .354-.407l-.146-1.21a.471.471 0 0 0-.453-.408h-1.203a.352.352 0 0 0-.354.408l.146 1.21c.03.224.23.408.453.408ZM16.768 86.269h1.202a.352.352 0 0 0 .355-.408l-.147-1.21a.471.471 0 0 0-.453-.408h-1.202a.352.352 0 0 0-.354.408l.146 1.21a.465.465 0 0 0 .453.408Z" fill="#fff"/><path d="M22.048 20.748h4.748l-.753-1.797c-.238-.566.263-1.114 1.008-1.114h4.653c.749 0 1.34.552 1.202 1.114l-.439 1.797h4.748c1.432 0 2.696 1.169 2.82 2.61l.366 4.194c.073.83-.537 1.503-1.367 1.503H21.672c-.826 0-1.553-.673-1.626-1.503l-.366-4.194c-.128-1.441.936-2.61 2.368-2.61Z" fill="#D7002E"/><path opacity=".2" d="M32.467 20.748h-5.675l-.442-1.055h6.377l-.26 1.055Z" fill="#000"/><path d="M36.29 26.548c.04.449.431.813.877.813a.733.733 0 0 0 .738-.813.901.901 0 0 0-.877-.812.731.731 0 0 0-.738.812ZM22.363 26.548c.04.449.43.813.877.813a.733.733 0 0 0 .738-.813.901.901 0 0 0-.877-.812.733.733 0 0 0-.738.812Z" fill="#263238"/><path d="M121.951 13.15c-1.895-.632-3.205.167-3.205.167-5.454.225-5.656 5.848-5.017 7.94.899 2.94-2.283 5.256 1.246 6.445 4.095 1.38 7.531-.257 7.297.454 12.947 1.026 3.988-13.566-.321-15.005Z" fill="#363636"/><path d="M116.294 40.497s-.518 1.032-1.458 2.217c-1.133 1.428-7.08-1.96-6.567-2.217.512-.258 3.5-8.916 4.212-10.004.712-1.087 3.136-1.653 3.136-1.653l.677 11.657Z" fill="#F99746"/><path d="M136.361 98.89s1.642 1.507 1.321 2.578c-.32 1.07-1.801 1.784-2.001 3.092-.2 1.308-1 2.021-1.722 2.021h-3.436s-.53-.921.751-1.198c1.281-.277 1.764-1.814 1.684-3.242-.08-1.427.12-3.329.12-3.329l2.722-.634.561.713Z" fill="#1F447F"/><path d="M122.47 99.53s.59 6.381-.13 6.738l-9.221-.019s0-1.071 1.481-1.308c1.481-.238 4.083-1.111 4.523-3.052.441-1.942 3.347-2.36 3.347-2.36Z" fill="#1C3154"/><path d="M129.564 36.192s.137 1.948 0 4.287c-.091 1.55-1.65 3.625-1.872 4.14-.555 1.288-1.181 1.497-1.181 1.497l-4.841 1.193-1.703.419-5.369-1.614s-2.446-6.863-1.463-10.727c.981-3.864 2.481-6.548 2.481-6.548s3.649-.825 10.085-.366l3.863 7.719Z" fill="#F99746"/><path d="M130.025 40.533c-.091 1.55-2.111 3.571-2.333 4.085-.554 1.289-1.181 1.498-1.181 1.498l-4.841 1.193-.874-2.52s7.074-1.87 5.937-8.455l3.292 4.199Z" fill="#ED7D2B"/><path d="M114.94 47.158s-2.659 8.322-2.83 11.157c-.171 2.833 5.082 40.253 5.293 41.559.199 1.23 1.719 2.015 1.719 2.015s.7.415 1.697.131c1.383-.393 1.821-.863 1.821-.863s2.069-26.688.79-36.221c-1.282-9.533-1.296-17.778-1.296-17.778h-7.194Z" fill="#201F20"/><path d="M126.205 46.91s4.056 5.471 4.434 9.172c.378 3.699.593 16.693 1.399 20.3.806 3.606 3.765 10.547 3.765 21.795 0 0-.308.644-1.257.988-.303.11-.711.216-1.105.308a1.737 1.737 0 0 1-1.945-.928c-2.001-4.05-8.374-17.118-8.702-19.83-.23-1.92-2.243-14.624-6.633-22.078-1.055-1.79.647-8.907.647-8.907l9.397-.82Z" fill="#4C3939"/><path d="M114.515 45.873s1.067.85 3.188.892c2.532.052 8.807-.65 8.807-.65s.28.784.268 1.611c0 0-7.665 1.944-12.105.284 0 .001-.573-1.083-.158-2.137Z" fill="#233862"/><path d="M117.096 48.96c-.637 0-1.156-.59-1.156-1.315s.519-1.315 1.156-1.315c.636 0 1.155.59 1.155 1.315s-.519 1.316-1.155 1.316Zm0-2.245c-.427 0-.773.417-.773.93 0 .513.347.93.773.93.425 0 .772-.417.772-.93 0-.513-.347-.93-.772-.93Z" fill="#fff"/><path d="m122.633 51.353-11.52.108-5.669-13.398 11.52-.108 5.669 13.398Z" fill="#B5453C"/><path d="m121.126 45.299-.845-1.044s-.571-.513-.986-.599c-.415-.088-1.29-.595-1.375-.452-.084.143.673 1.163.673 1.163l.038.005c-.87.659-3.065.078-3.336.346-.328.324.452 1.028.871 1.423.419.396 1.617 1.053 2.551.762.683-.214 1.757-.432 1.757-.432l.652-1.172ZM106.309 40.42s.724-.827 1.186-.43c.461.397-.121 2.35-.56 2.152-.44-.198-.877-1.48-.626-1.721Z" fill="#FFB27D"/><path d="M125.702 28.476s3.298.365 5.664 4.69c1.867 3.41 5.057 9.696 3.852 11.472-.527.78-5.594 3.553-15.365 1.969 0 0 .153-1.241.941-1.817 0 0 8.224-2.656 8.21-3.184-.027-.998-1.111-1.862-5.705-6.483-1.248-1.257 2.403-6.647 2.403-6.647Z" fill="#F99746"/><path d="M123.165 28.65c.112-.153-.032-.64-.214-1.547-.164-.822-.442-2.094-.437-3.524l-.244.042-4.086.692s.093 1.099.096 2.134v.026c.005.9-.241 2.259.06 2.435 1.549.913 4.388.33 4.825-.257Z" fill="#FFB27D"/><path d="M118.184 24.311s.08 1.55.084 2.585c2.287-.056 3.508-2.288 4.004-3.277l-4.088.692Z" fill="#E8945B"/><path d="M117.938 26.16s5.357-.768 4.831-4.116c-.527-3.35-.19-5.703-3.634-5.354-3.443.348-3.905 1.732-3.999 2.892-.095 1.16 1.394 6.691 2.802 6.578Z" fill="#FFB27D"/><path d="M116.688 16.998s2.086 3.693 4.423 3.914c2.338.22 3.216-.54 3.216-.54s-1.941-1.1-2.679-3.445c.001 0-4.151-1.975-4.96.07Z" fill="#363636"/><path d="M117.102 17.258s-1.02.583-1.341 1.45c-.314.848-.523 1.939-.236 3.189 0 0-1.526-2.493-.525-4.202 1.059-1.812 2.102-.437 2.102-.437Z" fill="#163560"/></svg>