<svg width="30" height="31" viewBox="0 0 30 31" fill="none" xmlns="http://www.w3.org/2000/svg">
<circle cx="15" cy="15.8" r="10.5" fill="#EE0033"/>
<path d="M4.5 15.8C4.5 21.599 9.20101 26.3 15 26.3V5.29999C9.20101 5.29999 4.5 10.001 4.5 15.8Z" fill="#92001F"/>
<path d="M10.6464 20.1464C10.4512 20.3417 10.4512 20.6583 10.6464 20.8536C10.8417 21.0488 11.1583 21.0488 11.3536 20.8536L10.6464 20.1464ZM20.3536 11.8536C20.5488 11.6583 20.5488 11.3417 20.3536 11.1464C20.1583 10.9512 19.8417 10.9512 19.6464 11.1464L20.3536 11.8536ZM11.3536 20.8536L20.3536 11.8536L19.6464 11.1464L10.6464 20.1464L11.3536 20.8536Z" fill="white"/>
<circle cx="12.5" cy="11.5" r="1.65" fill="white" stroke="white" stroke-width="0.3"/>
<circle cx="18.5" cy="20.5" r="1.65" fill="white" stroke="white" stroke-width="0.3"/>
</svg>
