<svg width="202" height="225" fill="none" xmlns="http://www.w3.org/2000/svg"><path d="M168.07 197.015h-9.338v7.47h9.338v-7.47z" fill="#686868"/><path d="M108.727 15.974l-.505 67.054h6.44v-70.21h-5.998l.063 3.156zM154.06 15.09l.505 67.117h-6.44v-70.21h5.935v3.094z" fill="#7F7F7F"/><path d="M157.341 3.03c-1.137-1.957-.063-3.03-6.188-3.03h-19.825-19.826c-6.124 0-5.114 1.073-6.188 3.03-1.136 1.958 1.074 3.789 1.895 8.398.82 4.61 1.894 4.735 4.293 4.862 2.399.126 4.293-6.125 7.072-6.82 2.778-.694 12.754 1.2 12.754 1.2s9.975-1.894 12.754-1.2c2.778.695 4.672 6.946 7.071 6.82 2.399-.127 3.473-.253 4.294-4.862.82-4.609 2.967-6.44 1.894-8.397z" fill="#262626"/><path d="M56.448 114.597c-3.41-2.589-11.807-7.387-20.078-10.607-8.272-3.157-23.488-6.63-23.488-6.63s9.218 7.514 24.245 12.691c15.027 5.177 19.32 4.546 19.32 4.546z" fill="#7ABE1A"/><path d="M51.838 111.566c1.01 1.011 1.326 2.147 1.2 2.779 2.462.378 3.409.252 3.409.252-1.073-.821-2.652-1.894-4.61-3.031zM81.58 142.883c2.651-3.094 3.282-12.628 3.282-12.628s-3.22 4.356-3.599 6.693c-.378 2.336.316 5.935.316 5.935z" fill="#7ABE1A"/><path d="M81.263 136.948c-.38 2.336.315 5.998.315 5.998.947-1.137 1.642-3.094 2.147-5.114v-.316c-1.39 2.02-2.21.505-2.273-1.137-.126.19-.126.379-.19.569zM81.955 143.325s-3.22 3.789-9.913 8.271c-6.692 4.483-18.752 7.577-18.752 7.577s2.526-1.326 4.546-3.031c2.02-1.704 5.177-5.43 11.176-8.776 5.998-3.283 12.943-4.041 12.943-4.041z" fill="#7ABE1A"/><path d="M76.904 147.997c3.41-2.715 5.051-4.672 5.051-4.672s-5.493.568-10.923 3.031c2.02-.379 3.536-.569 4.736-.127.947.442 1.136 1.2 1.136 1.768zM79.367 139.474c-7.703-.189-15.848-.568-22.225 1.137-5.745 1.515-18.5 9.029-18.5 9.029s10.608-1.958 17.553-2.336c12.565-.758 23.172-7.83 23.172-7.83z" fill="#7ABE1A"/><path d="M66.361 139.347c2.589.884 5.493 2.083 5.051 4.167 4.799-2.02 7.893-4.104 7.893-4.104-4.294-.063-8.713-.253-12.944-.063zM76.273 135.18c-5.682-1.705-12.564-3.662-17.616-3.41-5.05.253-11.428 1.895-16.479 3.599-5.303 1.768-5.682 4.167-5.682 4.167s-.569-1.641 15.469-1.325c14.269.378 24.308-3.031 24.308-3.031z" fill="#7ABE1A"/><path d="M68.066 137.011c5.177-.884 8.208-1.831 8.208-1.831-2.968-.884-6.188-1.831-9.408-2.526 1.831 1.642 2.463 2.968 1.2 4.357zM70.781 128.865c-5.62-2.841-14.08-5.619-19.825-6.819-5.746-1.199-10.67-.505-15.596-.694-7.387-.253-7.134.189-7.134.189s5.177 2.842 15.153 5.178c9.976 2.399 26.581 3.409 27.781 3.093 1.2-.252-.379-.947-.379-.947z" fill="#7ABE1A"/><path d="M71.602 129.623c-.316-.316-.82-.695-1.452-1.073-1.578-.758-3.346-1.516-5.177-2.273 1.136 1.262 1.389 2.651.252 3.409 3.22.19 5.493.253 5.935.19a.892.892 0 00.442-.253zM65.414 122.868c-.379-.821-11.365-6.882-18.5-8.335-20.015-4.23-25.129-4.988-25.129-4.988s5.367 4.925 20.457 9.598c14.017 4.23 23.172 3.725 23.172 3.725z" fill="#7ABE1A"/><path d="M60.427 119.837c.947.947 1.389 2.147 1.2 2.968 2.462.126 3.977.126 3.977.126s-.063-.126-.063-.189c-.379-.379-2.273-1.705-5.114-2.905zM43.694 105.315c-5.62-5.367-12.123-11.239-16.417-13.764-4.293-2.526-19.13-9.029-19.13-9.029s9.975 10.544 16.605 14.332c6.25 3.599 18.942 8.461 18.942 8.461z" fill="#7ABE1A"/><path d="M39.464 101.337c.758 1.011 1.2 2.084 1.2 2.779 1.2.505 2.146.883 2.651 1.073v-.126c-.063-.064-.126-.19-.252-.316l-3.6-3.41zM47.987 108.535c-1.01-3.788-2.21-10.481-4.735-17.363-1.958-5.367-6.63-14.206-6.63-14.206s1.957 9.534 4.42 16.984c2.462 7.513 6.945 14.585 6.945 14.585z" fill="#7ABE1A"/><path d="M47.48 106.451c-.443-2.02-1.011-4.483-1.706-7.198.253 1.705.505 4.294.127 5.62.757 1.389 1.389 2.399 1.704 3.03 0-.252-.063-.884-.126-1.452zM44.008 105.505c-2.588-5.746-4.483-9.66-8.27-14.649-3.79-4.988-12.25-16.163-12.25-16.163s5.051 12.186 9.913 19.068c3.725 5.303 5.177 7.008 7.83 9.407.82.695 2.777 2.337 2.777 2.337z" fill="#7ABE1A"/><path d="M37.19 98.875c1.389 1.768 2.525 2.905 4.104 4.294.82.757 2.778 2.336 2.778 2.336-.506-1.074-1.01-2.273-1.453-3.157-1.325-.442-3.914-2.273-5.43-3.473zM52.28 111.377s-.569-10.86-1.958-14.333c-1.389-3.472-1.515-10.355-1.515-10.355s-.947 8.966-.631 12.628c.379 3.662 3.283 10.923 3.283 10.923l.82 1.137z" fill="#7ABE1A"/><path d="M49.441 104.431c.947 2.968 2.084 5.746 2.084 5.746l.758 1.136s-.064-1.768-.316-4.041c-.568.064-1.642-1.262-2.526-2.841zM58.405 115.986c.884-3.22.569-7.009-.315-11.365-.884-4.357-3.031-10.355-3.031-10.355s-.82 7.198-.19 11.491c.695 4.357 3.536 10.229 3.536 10.229z" fill="#7ABE1A"/><path d="M56.009 110.051a61.602 61.602 0 002.4 5.935c.378-1.452.504-2.967.504-4.672-.631 0-1.957-.126-2.904-1.263zM64.656 122.363s.947-4.735.758-8.902c-.126-4.168-3.473-13.26-3.473-13.26s-.252 8.714-.063 12.628c.126 3.915 2.778 9.534 2.778 9.534z" fill="#7ABE1A"/><path d="M62.256 115.544c.758 3.347 2.4 6.819 2.4 6.819s.63-3.283.757-6.755c-.758.82-2.147.82-3.157-.064zM71.413 129.434c.379-3.283 1.073-11.428-.253-15.595s-4.167-9.408-4.167-9.408.632 7.577.758 13.133c.063 5.62 3.662 11.87 3.662 11.87z" fill="#7ABE1A"/><path d="M67.749 118.385c.442 5.367 3.662 11.049 3.662 11.049.253-2.336.695-7.198.442-11.239-.758.947-2.525 1.831-4.104.19zM74.568 132.655c1.326-2.21 1.515-15.785 1.515-15.785s-3.283 6.124-3.22 8.524c0 2.399 1.705 7.261 1.705 7.261z" fill="#7ABE1A"/><path d="M72.863 125.709c.19 2.526 1.705 6.946 1.705 6.946.505-.821.82-3.283 1.073-5.998-.947 1.01-2.02.505-2.778-.948zM79.242 138.842c2.273-4.483.126-16.29.126-16.29s-2.526 6.125-2.273 9.092c.252 2.968 2.147 7.198 2.147 7.198z" fill="#7ABE1A"/><path d="M77.098 131.644c.252 2.968 2.146 7.198 2.146 7.198.821-1.641 1.074-4.167 1.01-6.819-.063-.189-.063-.379-.063-.379-1.073 2.842-2.462 1.2-3.093-.757v.757z" fill="#7ABE1A"/><path d="M40.096 102.159c9.408 6.882 18.563 13.511 26.96 21.846 7.956 7.892 15.406 16.858 18.879 27.655.82 2.588 2.147 9.912 2.336 12.501.126 2.147.19 4.988-1.01 6.63-.442.631-1.515.568-1.452-.505 0-.758.757-1.516.883-2.273.695-5.936-.441-9.724-.883-12.249-2.147-11.492-9.724-21.404-17.805-29.802-4.483-4.609-9.282-8.902-14.207-12.943a222.347 222.347 0 00-7.64-5.872c-1.389-1.011-2.778-2.021-4.167-3.094-.631-.442-1.073-.884-1.641-1.389.19.126-.758-.568-.758-.695-.063-.189.316 0 .505.19z" fill="#6FA212"/><path opacity=".25" d="M82.462 138.021c-.884-1.073-.19-2.967.568-4.104.758-1.136 1.2-2.083 1.263-1.831.063.253-.632 3.157-1.01 4.357-.442 1.199-.505 1.957-.821 1.578zM68.192 142.504c-2.968-3.409-9.66-1.578-13.954.632-4.293 2.21-7.83 3.409-6.945 3.662.884.252 10.733-1.137 15.09-2.147 4.357-.947 6.882-.947 5.809-2.147zM75.072 147.808c-3.03-2.21-7.576.947-10.291 3.788-2.715 2.841-5.051 4.735-4.294 4.735.695 0 7.83-3.472 10.797-5.303 2.968-1.831 4.862-2.399 3.788-3.22zM67.498 135.559c-2.21-3.662-9.092-3.157-13.702-1.894-4.609 1.262-8.27 1.767-7.45 2.146.82.379 10.734.884 15.09.758 4.357-.126 6.882.316 6.062-1.01zM64.025 128.424c-1.326-3.725-7.956-4.041-12.755-4.546-11.049-1.136-13.196-2.715-12.312-.505.884 2.147 14.775 3.915 19.068 4.672 4.23.758 6.504 1.705 5.999.379zM59.606 121.037c-1.578-3.914-9.85-5.303-14.648-5.935-8.587-1.199-19.194-4.609-18.373-3.914.82.631 9.47 5.493 26.013 9.218 4.483.947 7.45 1.768 7.008.631zM50.387 112.513c-2.905-4.23-9.345-5.683-15.28-7.451-4.293-1.325-12.69-4.104-11.996-3.472 4.293 3.851 17.931 9.092 21.972 10.355 3.978 1.262 6.188 1.894 5.304.568zM36.813 101.211c-.884-4.293-6.882-7.071-11.176-8.208-4.293-1.136-7.513-2.4-6.945-1.641.568.757 8.903 5.871 12.691 7.829 3.788 1.894 5.746 3.535 5.43 2.02zM44.39 100.075c1.39-1.894-.188-5.556-1.64-7.892-1.453-2.274-2.4-4.23-2.463-3.663-.063.505 1.578 6.062 2.462 8.398.884 2.4 1.137 3.851 1.642 3.157zM39.716 99.254c-3.03-.442-5.051-4.167-5.809-6.82-.82-2.65-1.704-4.671-1.2-4.293.506.38 4.168 5.43 5.557 7.766 1.389 2.273 2.525 3.473 1.452 3.347zM50.957 105.126c-1.768-.695-2.147-3.22-2.02-4.988.126-1.768 0-3.157.252-2.842.252.316 1.326 3.915 1.641 5.557.38 1.578.758 2.525.127 2.273zM57.774 110.24c-2.02-.694-2.336-3.788-2.083-5.935.252-2.147.19-3.788.442-3.473.252.316 1.326 4.673 1.641 6.63.316 1.957.695 3.031 0 2.778zM64.466 115.417c-1.894-.884-2.273-3.788-2.02-5.809.19-2.02.126-3.599.379-3.22.252.316 1.326 4.546 1.578 6.44.316 1.831.758 2.905.063 2.589zM70.716 117.943c-2.146-1.2-2.778-4.42-2.778-6.63 0-2.147-.252-3.851.064-3.472.315.378 1.894 5.114 2.399 7.197.505 2.147 1.073 3.347.316 2.905zM74.126 126.404c-1.136-1.263-.505-3.347.253-4.61.757-1.262 1.136-2.336 1.263-2.02.063.316-.38 3.473-.758 4.862-.379 1.389-.379 2.273-.758 1.768zM78.863 132.591c-1.452-1.073-1.136-3.535-.568-5.114.568-1.578.82-2.904.947-2.525.126.315.19 3.977.126 5.556-.19 1.515 0 2.462-.505 2.083z" fill="#B6FF29"/><path d="M86.818 170.727c1.137-1.641 1.137-4.482 1.01-6.629-.189-2.589-1.515-9.913-2.336-12.502-3.472-10.796-10.923-19.762-18.878-27.654-8.398-8.335-17.553-14.964-26.96-21.846-.064-.064-.127-.127-.127-.19 0-.189.316 0 .569.19 9.407 6.882 18.562 13.511 26.96 21.846 7.955 7.892 15.406 16.858 18.878 27.654.821 2.589 2.147 9.913 2.337 12.502.126 2.147.189 4.988-1.01 6.629-.253.379-.695.505-1.074.316.316 0 .505-.126.631-.316z" fill="#16610E"/><path d="M84.038 174.136c-2.463 1.2-7.83 7.387-11.24 11.996-3.409 4.609-2.398 9.534-6.566 14.27 0 0 5.81-4.104 10.355-11.492 4.546-7.387 7.45-14.774 7.45-14.774zM77.787 173c-6.44 2.904-11.87 8.208-15.153 11.491-3.283 3.283-13.133 15.217-13.133 15.217s9.787-4.673 17.931-13.259C75.577 177.862 77.787 173 77.787 173zM68.95 171.611c-3.284 1.263-13.007 6.819-17.553 11.428C38.769 195.856 37 196.74 37 196.74s9.66-4.419 14.585-7.766c4.925-3.346 11.554-10.418 13.954-13.133 2.399-2.778 3.41-4.23 3.41-4.23zM59.224 170.791c-6.503 3.03-15.532 7.702-20.33 10.733-4.8 3.031-15.786 11.744-15.786 11.744s11.744-3.662 20.9-9.976c9.154-6.314 15.216-12.501 15.216-12.501zM51.585 170.222c-3.726.379-11.492 2.841-18.058 5.556-6.567 2.715-18.69 8.524-18.69 8.524s10.482-.505 21.847-5.809c11.428-5.304 14.9-8.271 14.9-8.271zM43.756 169.022c-5.24.821-16.353 1.2-20.457 2.147-4.104.947-17.553 4.798-17.553 4.798s13.701-.126 19.952-1.641c5.872-1.452 18.058-5.304 18.058-5.304zM35.295 168.327c-4.104-.126-9.976-.568-17.426-.378-5.115.126-15.974 1.452-15.974 1.452s10.102.821 18.183.631c8.082-.189 15.217-1.705 15.217-1.705z" fill="#1F7F11"/><path d="M35.168 168.202c-6.503-3.22-9.786-3.852-16.037-4.988C12.881 162.077 0 161.383 0 161.383s11.428 4.23 19.826 5.367c8.397 1.136 11.933 2.146 12.88 1.957 1.01-.126 2.462-.505 2.462-.505zM84.101 174.641c-1.957-1.389-7.83-7.071-10.797-11.365-2.967-4.293-5.303-10.039-8.65-15.784 0 0 7.956 7.071 12.06 13.89a269.606 269.606 0 017.387 13.259zM76.841 172.81c-6.819-4.23-14.27-10.544-17.553-14.774-10.67-13.827-15.28-14.901-15.28-14.901s10.797 3.473 19.953 13.828c9.155 10.354 12.88 15.847 12.88 15.847zM69.958 171.927c-3.41-1.768-13.638-7.956-19.32-12.439-5.683-4.483-17.174-15.342-17.174-15.342s11.491 6.187 16.984 10.102c5.493 3.914 12.06 10.796 14.9 13.638 2.842 2.715 4.61 4.041 4.61 4.041zM60.109 171.043c-7.261-3.915-17.49-9.85-23.046-13.449-5.556-3.662-18.689-13.954-18.689-13.954s12.69 5.178 23.424 12.754c10.671 7.514 18.31 14.649 18.31 14.649zM52.595 170.222c-3.788-1.136-12.754-5.43-19.636-9.534-6.882-4.167-22.414-14.901-22.414-14.901s13.449 4.736 25.255 12.754c12.88 8.714 16.795 11.681 16.795 11.681zM45.144 169.274c-4.61-2.967-11.491-7.008-16.606-9.281-5.114-2.273-22.225-7.64-22.225-7.64s15.406 8.335 20.394 10.418c4.988 2.084 18.437 6.503 18.437 6.503z" fill="#1F7F11"/><path d="M81.953 178.871c1.325-2.841 2.083-4.735 2.083-4.735-.884.442-2.21 1.578-3.662 3.031.631.189 1.579.631 1.579 1.704zM77.787 173a32.202 32.202 0 00-3.283 1.705c.568.379.82 1.894.316 3.03 2.21-3.093 2.967-4.735 2.967-4.735zM65.728 173.253c.315.379.694 1.199-.19 2.588 2.4-2.778 3.41-4.23 3.41-4.23-.758.253-1.895.821-3.22 1.642zM59.225 170.791c-1.074.505-2.273 1.073-3.473 1.641.19.316.316.884-.126 1.768 2.273-2.084 3.599-3.409 3.599-3.409zM51.647 170.159c-.947.063-2.147.316-3.536.631.253.127.632.505.127 1.642 2.462-1.452 3.41-2.273 3.41-2.273zM42.999 169.275s-.064-.063-.127-.063h-.063c-1.073.126-2.336.252-3.662.379.19.252.253.568-.252.947 1.83-.569 3.283-1.011 4.104-1.263zM30.432 169.148c2.967-.442 4.862-.821 4.862-.821-2.084-.063-4.61-.189-7.577-.315.631.189 1.578.568 2.715 1.136z" fill="#1F7F11"/><path d="M83.912 174.326c-.316-.632-1.263-2.399-2.526-4.672-.315.378-1.073.883-2.273.505 1.831 1.894 3.6 3.472 4.61 4.23.126 0 .189 0 .189-.063zM70.84 168.643c1.769 1.39 3.6 2.652 5.368 3.789h.315c-.505-.695-1.768-2.463-3.914-5.178-.063.506-.442 1.768-1.768 1.389zM65.032 167.507c-.19.316-.631.758-1.641.568 2.778 1.705 5.24 3.094 6.566 3.788 0 0-1.768-1.325-4.61-4.104-.125-.063-.252-.126-.315-.252zM53.29 167.317c2.147 1.2 4.167 2.336 6.061 3.347h.063c.064 0 .127-.063.19-.063-.695-.632-2.147-1.958-4.23-3.663-.442.253-1.074.506-2.084.379zM45.081 167.128c3.094 1.453 5.809 2.589 7.514 3.094 0 0-1.2-.884-4.357-3.157-.505.253-1.515.505-3.157.063zM38.703 167.128l6.44 2.147c-1.326-.821-2.778-1.768-4.356-2.715-.38.252-1.01.568-2.084.568zM32.705 168.77c1.01-.19 2.463-.569 2.463-.569-1.705-.82-3.22-1.515-4.61-2.083-.441.568-1.388.884-3.283 1.768 3.157.631 4.799.947 5.43.884z" fill="#1F7F11"/><path opacity=".25" d="M69.642 195.856c.631-.316 4.42-4.356 6.945-8.524 3.347-5.429 3.725-6.882 2.589-7.197-1.2-.316-3.978 4.04-6.25 8.081-2.148 4.041-4.42 8.208-3.284 7.64zM60.108 191.247c.694-.253 5.303-3.725 8.65-7.387 4.42-4.862 5.05-6.188 3.914-6.63-1.136-.442-4.798 3.473-7.766 7.072-3.03 3.599-6.061 7.387-4.799 6.945zM49.248 188.911c.758-.19 5.556-3.283 9.155-6.693 4.799-4.483 5.493-5.809 4.42-6.314-1.074-.505-5.051 3.031-8.335 6.44-3.22 3.41-6.566 6.882-5.24 6.567zM36.81 185.88c.759-.127 6.252-2.715 10.608-5.683 5.683-3.914 6.693-5.114 5.62-5.682-1.01-.568-5.746 2.525-9.66 5.493-3.978 3.031-7.956 6.061-6.567 5.872zM28.411 180.64c.758-.063 6.756-2.021 11.744-4.294 6.503-3.03 7.83-3.978 7.009-4.546-.821-.568-6.188 1.831-10.797 4.231-4.61 2.273-9.345 4.735-7.956 4.609zM17.302 174.895c.758 0 7.261-1.011 12.944-2.337 7.45-1.704 9.028-2.336 8.523-2.715-.568-.442-6.63.948-11.996 2.273-5.367 1.39-10.86 2.779-9.47 2.779zM9.029 169.338c.695.126 7.45.694 12.754.252 6.945-.568 7.45-.315 7.008-.82-.442-.506-6.187-.948-11.175-.442-4.988.505-9.787.82-8.587 1.01zM18.816 157.531c.505.442 6.25 4.167 11.554 5.998 6.883 2.462 7.198 2.904 7.198 2.147.063-.758-4.861-3.915-9.912-5.556-5.052-1.579-9.787-3.347-8.84-2.589zM24.69 154.248c.567.568 6.629 5.429 12.374 8.334 7.514 3.851 7.766 4.356 7.893 3.599.126-.758-5.051-4.925-10.608-7.577-5.493-2.589-10.607-5.367-9.66-4.356zM32.96 152.795c.504.569 6.25 5.683 11.68 8.903 7.198 4.293 7.387 4.799 7.576 4.104.19-.694-4.735-5.051-10.039-8.019-5.24-2.967-10.102-5.998-9.218-4.988zM42.618 151.027c.442.632 6.062 6.63 12.06 10.797 7.83 5.493 7.956 5.998 8.397 5.367.442-.632-4.356-5.683-10.165-9.597-5.809-3.852-11.112-7.703-10.291-6.567zM53.29 149.891c.441.695 5.429 7.261 10.733 11.87 6.945 6.061 7.008 6.63 7.45 5.935.379-.694-3.915-6.251-9.092-10.544-5.177-4.293-9.85-8.524-9.092-7.261zM68.884 153.743c.19.568 2.968 6.187 6.314 10.355 4.356 5.429 4.356 5.935 4.798 5.429.442-.505-1.957-5.24-5.24-9.155-3.347-3.914-6.25-7.703-5.872-6.629zM7.766 162.582c.695-.127 6.44 0 11.997 1.515 7.387 2.02 8.902 1.452 8.65 2.273-.253.821-5.62.505-11.428-.695-5.304-1.136-10.418-2.841-9.219-3.093z" fill="#F6FFE6"/><path d="M34.346 168.263c2.842.19 5.81.695 8.65 1.074 5.557.757 11.113 1.515 16.606 1.768 10.48.568 21.846 2.209 31.759 6.945 3.157 1.515 6.187 3.283 8.776 5.493 2.02 1.705 4.293 4.041 4.988 6.377.126.884 1.263.442 1.073-.316-.315-1.01-1.136-2.083-1.894-2.967a30.563 30.563 0 00-6.314-5.746c-4.798-3.283-10.544-5.935-16.163-7.324a171.229 171.229 0 00-11.05-2.273c-5.935-.947-11.806-.821-17.742-1.389-3.346-.316-6.692-.695-10.102-1.073-1.705-.19-3.346-.379-5.05-.569-.443.063-3.663-.252-3.537 0z" fill="#1F7F11"/><path d="M105.379 189.416c-.695-2.336-2.968-4.672-4.988-6.377-2.59-2.21-5.62-3.978-8.777-5.493-9.913-4.735-21.278-6.377-31.759-6.945-3.914-.19-7.892-.632-11.87-1.137-1.641-.189-3.346-.379-4.988-.568-1.704-.189-3.346-.379-5.05-.568-.569-.063-3.726-.379-3.6-.127 2.842.19 5.81.695 8.65 1.074 5.557.758 11.113 1.515 16.606 1.768 10.481.568 21.846 2.21 31.759 6.945 3.157 1.515 6.187 3.283 8.776 5.493 2.02 1.705 4.293 4.041 4.988 6.377.126.821 1.137.505 1.073-.189-.252.379-.757.315-.82-.253zM73.555 120.152c-3.472-.126-9.534-4.546-9.534-4.546s4.483.379 6.125 1.389c1.642.947 3.41 3.157 3.41 3.157z" fill="#1F7F11"/><path d="M70.145 116.995c1.642.947 3.41 3.157 3.41 3.157-1.263-.064-2.842-.632-4.357-1.39a.78.78 0 01-.19-.126c2.021.253 1.58-.947.695-1.831.19 0 .316.126.442.19zM73.62 120.594s4.167.127 10.86-1.325c6.693-1.453 14.08-5.936 14.08-5.936s-.758.127-2.904.379c-2.21.253-6.314.127-11.87 1.768-5.557 1.642-10.166 5.114-10.166 5.114z" fill="#1F7F11"/><path d="M79.429 120.153c-3.662.505-5.809.442-5.809.442s3.599-2.715 8.271-4.483c-1.452.947-2.462 1.641-2.904 2.525-.253.695.063 1.2.442 1.516zM72.798 117.185c4.42-4.293 9.029-9.029 13.827-11.744 4.294-2.399 13.386-4.23 13.386-4.23s-4.483 3.473-8.777 7.072c-7.892 6.629-18.436 8.902-18.436 8.902z" fill="#1F7F11"/><path d="M80.436 109.987c-1.01 1.831-2.02 4.041-.505 4.925-4.041 1.641-7.135 2.336-7.135 2.336 2.525-2.526 5.051-5.051 7.64-7.261zM72.042 113.333c2.336-3.978 5.177-8.776 8.397-11.428 3.157-2.652 4.925-3.725 8.966-5.62 4.23-2.02 6.82-2.588 6.82-2.588s1.388-1.263-7.893 7.766c-8.334 8.082-16.29 11.87-16.29 11.87z" fill="#1F7F11"/><path d="M78.04 109.735c-3.537 2.399-5.999 3.598-5.999 3.598 1.2-2.083 2.589-4.356 4.04-6.44-.062 1.831.38 2.842 1.958 2.842zM71.536 107.146c1.642-4.546 4.925-10.608 7.64-14.333 2.715-3.725 5.998-6.124 8.84-8.966 3.409-3.409 3.409-2.904 3.535-2.904 0 0-.757 3.662-5.05 10.04-4.42 6.692-13.639 16.352-14.586 16.857-.884.505-.379-.694-.379-.694z" fill="#1F7F11"/><path d="M71.474 107.966c0-.315.063-.821.252-1.326.442-1.262 1.073-2.588 1.705-3.977.126 1.262.758 2.083 1.894 1.894-1.768 1.894-3.094 3.157-3.41 3.346-.189.063-.315.063-.441.063zM71.095 101.148c-.253-.632 2.588-9.724 5.872-14.396 9.281-13.196 10.607-15.658 10.607-15.658s1.01 4.735-5.114 15.343c-5.62 9.912-11.365 14.711-11.365 14.711z" fill="#1F7F11"/><path d="M72.167 96.918c0 1.01.442 1.831 1.073 2.147a60.312 60.312 0 01-2.273 2.273l-.063-.126c.063-.442.38-2.147 1.263-4.294zM71.408 92.056c.442-3.157 2.526-10.229 5.493-16.416 2.968-6.188 8.019-14.017 8.019-14.017s.947 6.63-4.862 17.49-8.65 12.943-8.65 12.943z" fill="#1F7F11"/><path d="M72.294 88.015c0 1.073.505 1.83.947 2.084-1.263 1.578-1.894 2.02-1.894 2.02.19-1.073.505-2.463.947-4.104zM73.364 80.375c.126-5.809.758-12.691 2.21-16.227 1.642-4.04 5.051-8.84 5.051-8.84s.505 4.8-1.136 10.356c-1.516 5.24-6.125 14.71-6.125 14.71z" fill="#1F7F11"/><path d="M73.49 76.019c.189.884.568 1.705.947 2.02-.442.947-.758 1.642-.947 2.02l-.064-.063c0-.063-.063-.189-.063-.315.063-1.2.063-2.4.127-3.662zM72.8 84.353c-1.705-2.463-4.988-6.504-7.64-11.365-2.084-3.789-4.61-10.797-4.61-10.797s4.547 5.872 7.577 10.986c3.031 5.177 4.673 11.176 4.673 11.176z" fill="#1F7F11"/><path d="M71.85 83.027a192.912 192.912 0 01-3.283-4.546c.884.947 2.273 2.399 3.284 2.904.378 1.073.631 1.957.82 2.462-.252-.126-.568-.505-.82-.82zM73.305 80.627c-1.894-4.293-3.157-7.324-3.915-11.933s-2.462-14.837-2.462-14.837 4.293 8.902 5.556 15.027c.947 4.672 1.137 6.377 1.01 9.092 0 .82-.19 2.651-.19 2.651z" fill="#1F7F11"/><path d="M73.369 73.555c.252 1.642.252 2.842.19 4.42-.064.82-.253 2.715-.253 2.715-.38-.82-.758-1.705-1.074-2.4.505-.946.948-3.282 1.137-4.735zM71.915 88.14s-6.187-5.745-7.45-8.27c-1.263-2.463-5.304-6.062-5.304-6.062s5.998 3.978 7.956 5.998c1.957 2.02 4.609 7.261 4.609 7.261l.19 1.074z" fill="#1F7F11"/><path d="M69.451 83.09c1.263 2.02 2.273 4.04 2.273 4.04l.253 1.01s-1.01-.947-2.273-2.21c.315-.252.126-1.578-.253-2.84zM71.093 93.823c-2.462-1.136-4.546-3.22-6.63-5.871-2.083-2.652-4.42-6.883-4.42-6.883s4.8 3.157 7.01 5.683c2.21 2.589 4.04 7.071 4.04 7.071z" fill="#1F7F11"/><path d="M68.947 89.53a38.538 38.538 0 012.147 4.293A12.118 12.118 0 0168 91.74c.316-.316 1.073-1.137.947-2.21zM71.22 100.453s-3.409-1.83-5.808-4.04c-2.4-2.147-5.872-8.588-5.872-8.588s5.367 4.23 7.64 6.314c2.21 2.084 4.04 6.314 4.04 6.314z" fill="#1F7F11"/><path d="M68.567 95.781c1.579 2.147 2.652 4.735 2.652 4.735s-2.336-1.262-4.483-2.967c.884-.063 1.768-.82 1.831-1.768zM71.473 107.777c-2.21-1.452-7.514-5.177-9.218-7.955-1.705-2.841-3.157-7.008-3.157-7.008s4.167 4.167 7.45 7.008c3.283 2.841 4.925 7.955 4.925 7.955z" fill="#1F7F11"/><path d="M66.99 100.201c2.968 2.905 4.483 7.577 4.483 7.577-1.578-1.01-4.735-3.22-7.008-5.43 1.01.063 2.588-.442 2.525-2.147zM71.534 111.124c-2.146-.379-10.354-7.135-10.354-7.135s5.619 1.263 7.008 2.462c1.39 1.2 3.346 4.673 3.346 4.673z" fill="#1F7F11"/><path d="M68.378 106.704c1.39 1.326 3.157 4.483 3.157 4.483-.82-.126-2.462-1.2-4.23-2.399 1.2-.063 1.515-.947 1.073-2.084zM72.483 116.806c-4.04-1.01-9.85-8.082-9.85-8.082s5.178 1.642 6.82 3.284c1.641 1.641 3.03 4.798 3.03 4.798z" fill="#1F7F11"/><path d="M69.453 112.008c1.641 1.641 3.03 4.798 3.03 4.798-1.452-.378-3.157-1.515-4.735-2.841a760.1 760.1 0 01-.19-.189c2.337.821 2.21-.758 1.39-2.084.252.063.379.19.505.316z" fill="#1F7F11"/><path d="M73.558 76.84c-1.453 8.65-2.842 16.984-2.779 25.886.064 8.335 1.01 16.985 5.43 24.309 1.074 1.768 4.673 6.187 6.125 7.576 1.2 1.137 2.904 2.589 4.546 2.779.631.063 1.263-.506.568-1.074-.442-.379-1.389-.316-1.831-.631-3.978-2.589-5.62-5.114-6.819-6.693-5.62-6.945-7.135-16.1-7.387-24.813-.127-4.799.126-9.598.631-14.333.253-2.4.632-4.799 1.01-7.198.19-1.263.442-2.588.632-3.851.063-.569.126-1.01.126-1.579 0 .19.126-.694 0-.757-.126-.127-.19.126-.252.378z" fill="#124F0A"/><path opacity=".25" d="M70.08 118.132c-.126-1.073-1.642-1.579-2.778-1.768-1.137-.189-1.957-.379-1.831-.253.126.19 2.273 1.263 3.22 1.642.947.442 1.452.758 1.389.379zM81.258 112.576c-.316-3.346 4.736-6.125 8.65-7.387 3.915-1.263 6.693-2.589 6.314-1.958-.379.632-7.008 5.367-10.165 7.261-3.22 1.831-4.736 3.284-4.799 2.084zM80.373 119.016c.442-2.778 5.05-3.725 8.397-3.788 3.347-.063 5.81-.379 5.43 0-.442.379-6.693 2.588-9.597 3.283-2.904.758-4.356 1.515-4.23.505zM77.47 108.661c-.885-3.094 3.472-6.63 6.945-8.524 3.472-1.894 5.935-3.662 5.682-3.03-.252.63-5.809 6.376-8.46 8.713-2.716 2.336-3.852 3.977-4.168 2.841zM75.258 103.231c-1.452-2.588 2.273-6.44 4.799-9.344 5.872-6.63 6.188-8.65 6.945-7.072.758 1.579-6.44 10.102-8.46 12.817-2.02 2.778-2.778 4.546-3.284 3.599zM73.43 97.044c-1.453-2.841 2.651-8.082 5.05-11.05 4.357-5.303 8.587-12.88 8.524-12.122-.126.757-2.273 7.955-9.85 19.005-2.02 2.904-3.283 4.988-3.725 4.167zM73.743 87.636c-.82-3.725 2.147-8.018 4.546-12.186 1.768-3.03 5.051-9.029 4.988-8.334-.253 4.293-5.114 14.459-6.756 17.3-1.578 2.904-2.525 4.42-2.778 3.22zM74.945 74.503c-.884-4.167-.19-7.387 1.704-10.292 1.831-2.904 3.03-5.366 3.094-4.672.063.695-1.705 7.83-2.778 10.923-1.073 3.094-1.768 5.177-2.02 4.041zM69.828 78.102c-1.957-.19-3.22-2.905-3.788-4.862-.505-1.957-1.073-3.473-.758-3.22.316.253 2.715 3.915 3.6 5.62.883 1.704 1.64 2.525.946 2.462zM72.1 75.134c1.516-1.894.505-4.861-.631-6.63-1.137-1.767-1.768-3.282-1.894-2.84-.063.441.757 5.05 1.389 6.945.505 1.957.568 3.22 1.136 2.525zM68.944 84.29c.631-1.327-.695-2.842-1.831-3.663-1.136-.82-1.894-1.578-1.831-1.326.063.253 1.579 2.715 2.336 3.725.82 1.074 1.074 1.705 1.326 1.263zM68.06 90.604c.757-1.452-.884-3.157-2.336-4.104-1.39-.947-2.4-1.768-2.336-1.516.063.316 2.02 3.094 3.03 4.23.947 1.137 1.326 1.895 1.642 1.39zM67.178 96.917c.632-1.515-.947-3.157-2.273-4.04-1.326-.885-2.21-1.706-2.21-1.39.063.316 1.958 3.03 2.905 4.104 1.01 1.074 1.326 1.831 1.578 1.326zM65.03 101.59c.568-1.768-1.01-3.788-2.336-4.862-1.326-1.073-2.21-2.084-2.147-1.705.063.38 1.957 3.6 2.905 4.925.947 1.389 1.325 2.273 1.578 1.642zM68.06 107.777c-.063-1.262-1.704-1.957-2.904-2.209-1.2-.253-2.084-.505-1.958-.316.127.189 2.337 1.515 3.347 2.02 1.073.505 1.578.947 1.515.505zM69.009 113.46c.19-1.326-1.453-2.399-2.778-2.904-1.263-.505-2.21-1.01-2.084-.758.126.253 2.273 2.084 3.283 2.841 1.01.758 1.516 1.326 1.579.821z" fill="#F6FFE6"/><path d="M87.195 137.01c-1.704-.189-3.346-1.641-4.545-2.778-1.453-1.389-5.052-5.808-6.125-7.576-4.42-7.324-5.43-15.911-5.43-24.309-.063-8.84 1.326-17.173 2.778-25.824 0-.063 0-.126-.063-.126-.126-.126-.19.19-.252.379-1.453 8.65-2.842 16.984-2.779 25.887.064 8.334 1.01 16.984 5.43 24.308 1.074 1.768 4.673 6.188 6.125 7.577 1.2 1.137 2.904 2.589 4.546 2.778.379.063.694-.126.82-.379-.126.063-.315.063-.505.063z" fill="#16610E"/><path d="M48.997 152.227c3.283 2.147 13.448 4.672 13.448 4.672l11.239 5.494 9.155 4.167s.442-1.453 2.715-.253c2.273 1.2 3.22 1.452 5.367.19 2.147-1.263 5.051-2.968 7.387-6.883 2.21-3.662.19-6.061.19-6.061s.189 1.01-.569 2.715c-.694 1.642-4.293 2.968-5.367 3.473-1.073.442-1.641.442.127-1.705 1.705-2.084 5.367-4.735 5.367-4.735s.063-2.652-1.326-5.115c-1.453-2.462-4.357-2.778-4.357-2.778.884 2.905-5.24 11.113-6.377 11.997-1.136.883-1.389-.316-.252-3.347 1.136-3.03.126-8.524.694-11.175.568-2.652-.505-3.915-2.904-5.43-2.4-1.516-7.009-1.137-7.009-1.137s.505.253 1.768 2.336c1.263 2.084 2.084 7.324 2.084 10.292 0 2.967.126 7.387-.38 7.577-.504.189-1.388-3.41-1.451-7.514 0-4.167-1.895-11.428-2.842-12.438-.883-1.01-4.861-2.021-7.576-1.452-2.589.505-4.23 2.273-4.357 2.462.063-.063.379-.063 1.894 1.389 1.768 1.768 3.852 5.935 4.862 8.271 1.01 2.336 3.725 8.461 2.652 8.777-1.073.378-3.03-6.756-3.725-9.156-.758-2.715-3.978-8.587-6.44-9.281-2.463-.758-8.209 1.578-8.209 1.578 1.263.569 1.39 1.642 4.42 4.231 3.094 2.588 4.862 5.493 6.062 7.513 1.2 2.021 1.2 3.978 0 3.41-1.2-.569-4.294-6.882-6.314-9.471-2.084-2.589-4.862-3.978-5.43-4.104-.632-.19-1.516.442-2.905 1.705-1.389 1.262-1.578 2.525-1.578 2.525s.316-.631 1.2-1.01c.947-.379 4.356 2.273 5.745 3.725 1.452 1.452 2.715 4.672 1.01 4.546-1.641-.063-7.26-6.251-8.334-5.935-1.073.316-3.22 3.473-3.22 3.473s.253.315 3.536 2.462zm20.33-10.986c-1.957-2.462-3.283-3.157-2.651-3.536.82-.442 2.967 1.831 4.42 3.789 1.451 1.957 1.704 4.04.946 4.04-.694.064-.757-1.831-2.715-4.293zm14.46 19.194c.694.126.82 1.01-.506 2.715-.379.505-.442.379-.631.126-.19-.315.442-2.967 1.136-2.841zm-4.863-.189c.38-.632.695-1.074 1.2-.379.568.947.253 3.22-.694 2.904-.948-.252-.884-1.831-.506-2.525z" fill="#63990E"/><path d="M68.76 174.452c-2.526 1.831-8.65 6.693-11.87 5.304 0 0 1.515 2.904 4.103 4.42 2.589 1.515 5.114 1.957 6.63 1.073 1.515-.884 3.914-3.22 5.935-6.567 2.083-3.346 3.914-6.755 4.23-6.503.379.19-1.136 5.935-2.841 8.208-1.705 2.21-4.61 5.62-6.377 5.493 0 0 3.41 1.768 5.746 1.579 2.399-.19 4.924-2.715 5.935-4.736 1.01-2.083.947-8.397 2.02-8.776 1.073-.316 1.705 3.283 1.136 5.683-.568 2.399-1.01 5.935-3.346 5.493 0 0 1.894 1.768 5.809-1.326 3.914-3.094 4.61-4.104 5.114-6.377.568-2.21.568-6.756-.568-7.893-1.137-1.136-4.104-1.957-5.367-1.894-1.326.063-2.462-.379-2.273-1.073 0 0-17.868-8.776-20.394-9.66-2.525-.948-8.334-2.21-11.996-4.104-3.662-1.895-4.862-3.031-4.862-3.031-.442 1.263.569 6.251-.063 7.64 0 0 1.642 2.273 4.925 1.831 3.346-.442 8.524-1.074 9.47-.063 1.011 1.01.695 1.704-.062 2.083-.758.379-12.186.568-13.449.19-1.263-.379-1.326-1.389-1.326-1.389s-.379 2.209 1.074 4.924c1.452 2.715 1.578 3.094 2.146 3.347.569.252 5.872.505 7.324.315 1.453-.189 5.746-.947 8.65-2.715 2.905-1.767 4.42-1.641 3.915-.631-.505 1.073-5.43 2.21-6.756 2.589-1.263.379-7.387 1.704-8.84 1.578-1.451-.126-3.093.19-4.166-.757 0 0 1.073 3.22 3.03 5.429a29.74 29.74 0 004.104 3.789s3.978 0 8.966-3.094c4.988-3.094 8.903-7.45 9.723-7.072.947.506-2.904 4.862-5.43 6.693zm10.922-7.45c.569-.379.758-.063.821.189.19.632-.568 1.452-.884 1.2-.316-.253-.505-1.01.063-1.389zm-8.713-.442c-.82.568-2.21 1.073-2.273.505-.063-.568.821-1.452 1.768-2.21.947-.758 1.515-.821 1.831-.568.505.442-.505 1.705-1.326 2.273z" fill="#63990E"/><path opacity=".15" d="M80.123 167.696c.316.506-.19 1.011-.505.758-.316-.252-.631-.884-.19-1.073.38-.19.632.126.695.315zM52.47 153.743c.126.126.315.189.441.315 1.579 1.074 3.536 1.895 4.925 1.895 2.779.126 4.167 1.704 5.43 2.525s1.831 2.905 4.357 3.536c2.462.695 2.841 1.326 2.589 2.336 0 .063-.19.568-.19.821.126-.126.316-.253.442-.379.947-.758 1.515-.821 1.831-.568.253.189.126.631-.126 1.073 1.326.316 2.904.695 3.536 1.705 1.262 1.831 3.283 3.978 5.366 3.409 1.768-.505 1.074-2.399.821-2.904-.063-.063-.063-.126-.063-.126.379-.253.695-.568.947-.884.884-1.074.884-2.273.316-3.157-.126-.19-.253-.379-.442-.505-.19-.19-.379-.379-.632-.505-.694-.442-1.2-.569-1.641-.505-.126.631-.442 1.136-.947 1.01-.505-.19-.695-.695-.758-1.263-.063 0-.126-.063-.19-.126-1.388-.821-2.714-3.347-5.555-2.842-2.905.506-4.357-2.273-6.251-2.083-1.894.189-2.968 1.01-4.294-.758-1.326-1.768-3.03-.315-5.24-2.02-2.21-1.705-6.188-5.367-6.693-3.347v.127c-.252 1.01.695 2.21 2.02 3.22zm28.033 13.448c.19.632-.568 1.453-.884 1.2-.316-.253-.505-1.01.063-1.389.569-.379.758-.063.821.189z" fill="#005625"/><path opacity=".15" d="M56.51 157.594c3.347-.695 4.61 1.136 5.935 1.894 1.326.821 1.453 3.473 4.294 3.662 2.841.19 3.094 1.01 2.525 2.463-.063.126-.063.252 0 .315.316-.379.758-.757 1.2-1.073.947-.758 1.515-.821 1.831-.568.442.378-.253 1.389-1.01 2.02 1.515.063 3.41.126 3.978 1.326 1.01 2.21 2.84 4.546 5.556 3.157 2.336-1.2 2.02-3.599 1.83-4.23 0-.127-.062-.19-.062-.19 3.472-3.157 3.535-6.061 1.767-7.071-1.767-1.011-2.651.568-4.04-.19-1.453-.757-2.336-3.851-5.999-2.273-3.662 1.579-4.672-1.894-7.071-1.073-2.4.821-3.599 1.578-4.736-.442-1.136-2.021-3.409.568-5.682-1.137-2.21-1.641-6.503-5.051-7.766-2.083 0 .063-.063.126-.063.189-1.2 3.157 4.167 5.935 7.513 5.304zm27.276 2.841c.695.126.821 1.01-.505 2.715-.379.505-.442.379-.631.126-.19-.315.442-2.967 1.136-2.841zm-4.861-.189c.378-.632.694-1.074 1.2-.379.567.947.252 3.22-.695 2.904-.947-.252-.884-1.831-.505-2.525zm1.578 6.945c.19.631-.568 1.452-.884 1.2-.316-.253-.505-1.011.063-1.389.569-.379.758-.064.821.189z" fill="#8DFCBA"/><path d="M83.093 166.37c.063-.126.063-.252-.063-.315-.695-.379-1.515-.695-3.22-1.389-1.831-.821-6.819-2.779-8.398-3.536-1.515-.695-5.745-2.526-7.071-3.22-1.39-.695-6.63-2.905-8.713-3.599-2.084-.695-4.925-1.768-5.683-2.147 0 0 4.736 2.147 7.198 3.094 2.462.947 5.43 2.21 8.271 3.599 2.778 1.389 5.935 2.967 8.082 3.914 2.147.947 6.44 3.347 7.892 3.662 1.453.253 1.326.379 1.453.253.063-.126.19-.253.252-.316z" fill="#39E583"/><path d="M84.166 146.292c.315 3.915-.632 9.282-1.01 11.176-.38 1.894-1.768 7.45-1.705 7.829 0 0-1.326-.315-.947-.379.378-.063.884-.757 1.515-3.914.694-3.157 1.642-6.819 1.957-9.787.316-2.841.19-4.925.19-4.925zM78.104 163.844c-.442-.315-.694-1.641-.568-4.609.126-2.967-.884-7.955-1.137-8.776 0 0 .253 2.02.505 3.725.19 1.705.316 5.178.253 6.945-.063 1.768-.19 2.147-.379 2.147-.19 0 .316.316.569.442.252.126.757.126.757.126zM71.033 160.877c-.632-.568-.505-3.346-1.515-6.377-1.01-3.03-3.473-6.629-3.473-6.629s2.147 3.409 3.157 6.566c1.01 3.094 1.01 6.188 1.01 6.188l.82.252zM63.266 157.278c-.316-.378-1.263-3.535-2.525-5.619-1.2-2.084-2.842-4.23-2.842-4.23s2.463 3.535 3.41 5.872a71.95 71.95 0 011.452 3.851l.505.126zM69.391 160.814c-1.01-.126-2.02 1.137-6.44 2.526-4.42 1.389-7.829 1.263-7.829 1.263s4.925-.253 7.766-1.453c2.841-1.199 4.862-2.588 5.935-2.651 1.074-.064.568.315.568.315zM75.578 163.718c-.694.064-1.767 1.642-2.904 2.842-1.137 1.262-4.672 4.104-9.092 5.619 0 0 3.788-1.705 5.935-3.22 2.147-1.515 5.43-5.367 5.367-5.683-.063-.252.694.442.694.442zM79.809 165.802c-.379 0-2.02 2.652-3.22 4.357-1.2 1.705-4.672 7.008-6.945 8.776 0 0 1.83-1.894 3.725-4.546 1.894-2.652 5.62-8.713 5.872-8.902.315-.127.568.315.568.315z" fill="#39E583"/><path d="M85.553 166.37c2.273 1.2 3.22 1.453 5.367.19 2.146-1.263 5.05-2.968 7.387-6.882 2.21-3.662.19-6.062.19-6.062s.189 1.011-.569 2.715c-.063.19-.19.316-.316.506.442.063.632.378.253 1.389-.947 2.462-5.872 8.081-9.85 7.387-3.725-.632-4.735-.253-4.988.631.442-.379 1.137-.631 2.526.126z" fill="#18C462"/><path opacity=".15" d="M83.092 166.244c.19-.884 1.263-1.263 4.988-.631 3.914.631 8.84-4.925 9.85-7.387.378-1.011.189-1.326-.253-1.389.126-.127.19-.316.316-.506.694-1.641.568-2.715.568-2.715s2.02 2.337-.19 6.062c-2.336 3.914-5.24 5.619-7.387 6.882-2.147 1.263-3.03 1.01-5.367-.19-1.452-.757-2.146-.505-2.525-.126zM85.302 157.72c.19.063.379 0 .694-.252 1.137-.884 7.261-9.092 6.377-11.997 2.463.821-.19 5.746-2.399 8.777-2.084 2.841-3.725 4.735-4.672 3.472zM80.06 156.52c.506-.189.38-4.609.38-7.576 0-2.968-.821-8.208-2.084-10.292-1.073-1.768-1.578-2.21-1.705-2.336 1.137.694 2.779 1.389 4.357 7.135 1.578 5.935 0 13.385-.947 13.069zM73.242 156.079c1.073-.379-1.642-6.44-2.652-8.776-1.01-2.336-3.094-6.567-4.861-8.271-.758-.695-1.2-1.074-1.453-1.263 2.715 1.01 3.915 3.157 6.693 8.082 2.841 5.051 3.725 10.039 2.273 10.228zM65.791 154.437c.695-.127.568-1.768-.442-3.536-1.2-2.021-2.967-4.925-6.061-7.514-3.094-2.588-3.157-3.725-4.42-4.23 2.968-.252 9.345 6.188 10.607 9.66 1.074 3.22 1.579 5.683.316 5.62zM57.46 152.227c1.136-.379 0-3.157-1.39-4.546-1.452-1.452-4.861-4.104-5.745-3.725-.821.315-1.137.884-1.2 1.01 1.515-3.22 4.23-2.021 7.072 1.515 2.714 3.41 3.03 5.43 1.262 5.746zM45.019 160.183c0 .126.19 1.01 1.326 1.326 1.262.379 12.375.316 13.133-.063.757-.379 1.01-1.074.063-2.021 3.157 2.652-5.24 4.609-9.597 4.357-4.357-.316-4.988-1.263-4.925-3.599zM48.43 168.832c1.073.947 2.651.695 4.167.758 1.515.063 7.576-1.263 8.84-1.578 1.262-.379 6.25-1.516 6.755-2.589-.694 1.515-3.094 2.589-8.713 3.978-5.62 1.389-10.04 1.01-11.05-.569zM56.89 179.819c3.157 1.389 9.281-3.473 11.87-5.304 2.02-1.452 4.861-4.482 5.493-5.871-.379 2.651-3.852 6.566-7.83 9.028-4.293 2.589-6.629 3.726-9.533 2.147zM68.634 186.006c1.768.127 4.672-3.283 6.377-5.493 1.326-1.704 2.525-5.619 2.778-7.324-.126 4.483-.82 6.504-2.463 8.524-1.767 2.147-4.545 4.546-6.692 4.293zM88.333 169.717c-3.473-2.652-6.125.883-5.493-3.157-.19.694.947 1.136 2.272 1.073 1.326-.063 4.23.758 5.367 1.894 1.137 1.137 1.137 5.619.569 7.892-.442 1.831-1.01 2.842-3.347 4.862 3.03-3.346 3.852-10.102.632-12.564z" fill="#005625"/><path d="M55.565 154.5c2.083.695 7.387 2.904 8.713 3.599 1.389.695 5.556 2.526 7.071 3.22 1.516.695 6.504 2.715 8.398 3.536 1.641.758 2.462 1.01 3.22 1.389.063.063.126.063.126.126.063-.126.063-.252-.063-.315-.695-.379-1.515-.695-3.22-1.39-1.831-.82-6.82-2.778-8.398-3.535-1.515-.695-5.745-2.526-7.071-3.22-1.39-.695-6.63-2.905-8.713-3.599a91.755 91.755 0 01-4.61-1.705c.821.379 2.084.947 3.347 1.452.442.19.82.316 1.2.442zM51.018 152.606a21.905 21.905 0 00-1.073-.505c.253.126.631.315 1.073.505z" fill="#51F493"/><path opacity=".15" d="M73.62 137.074c2.715.695 1.957 5.557 2.841 9.913.884 4.357.38 7.451-1.136 5.935-1.515-1.452-1.2-6.44-1.768-8.271-1.578-5.177-6.124-6.882-5.051-7.513 1.01-.569 4.104-.316 5.114-.064zM68.885 151.659c-1.642-.126-3.41-6.882-6.125-9.597s-2.525-4.735-.063-3.725c2.463 1.01 5.304 5.619 5.935 8.461.632 2.841 1.516 4.925.253 4.861zM83.093 138.589c3.662 1.831 2.336 3.41 2.083 5.999-.252 2.588.632 5.051.063 7.766-.568 2.715-.947 5.493-2.399 5.366-1.452-.126-1.2-1.325-.252-6.629.947-5.304-2.4-11.618-1.705-12.249.694-.631 1.326-.695 2.21-.253zM95.215 148.25c1.894.884 2.21 3.662.316 5.935-.884 1.073-4.799 4.356-4.925 6.44-.126 2.083 5.177-2.463 6.25-2.021 1.01.442-4.482 5.999-7.134 5.935-2.652-.126-3.978-1.452-3.283-3.914.757-2.399 3.093-2.968 5.493-6.945 2.336-4.041 1.957-6.062 3.283-5.43zM85.427 183.229c-1.326.82-1.642 0-1.136-3.663.505-3.662-.505-6.25-1.958-5.998-1.515.253-2.399 7.261-3.725 9.597-1.389 2.337-3.725 4.231-5.682 3.536-1.958-.694 2.083-2.147 3.788-5.43 1.642-3.283 2.336-9.407 5.746-10.923 3.788-1.705 6.566.758 7.008 3.536.379 2.778-.884 7.387-4.04 9.345zM76.211 172.684c-1.705 2.968-5.998 10.544-8.84 11.618-2.84 1.073-9.344-1.137-6.124-3.22 3.22-2.084 4.42-1.137 8.587-5.051 4.104-3.852 8.524-7.198 6.377-3.347zM68.76 168.706c.063 2.147-4.104 5.493-9.155 6.756-5.05 1.263-7.829-1.768-7.513-3.157.252-1.389 4.988-.126 8.334-1.578 3.725-1.642 8.208-4.357 8.334-2.021zM63.709 164.16c.063 1.263-4.61 2.905-8.966 3.41-4.357.442-5.556-.316-7.072-1.389-1.578-1.074 3.094-.884 6.188-1.705 3.157-.821 9.723-2.905 9.85-.316z" fill="#DCFFEA"/><path opacity=".15" d="M85.05 145.977c-.82.757-.694-2.273-2.462-4.546-1.768-2.21-3.536-2.905-2.4-3.726 1.137-.82 5.178.758 5.683 3.221.505 2.462-.253 4.482-.82 5.051zM76.653 144.524c-1.073-.126-2.336-3.725-3.852-4.988-1.515-1.262-4.23-1.578-4.987-2.588-.758-1.011 5.808-1.705 7.26.252 1.453 1.958 3.031 7.451 1.579 7.324zM68.634 147.555c-.694 1.01-3.725-4.799-5.62-5.872-1.893-1.073-4.545-1.137-4.924-2.147-.379-1.01 3.22-2.399 6.314-.379 1.705 1.137 5.304 6.756 4.23 8.398zM60.487 148.565c-1.263.442-3.788-3.851-5.746-4.861-1.957-1.011-3.094-.505-3.03-1.2 0-.631 1.01-1.768 2.525-.884s2.652 1.389 4.167 2.904c1.39 1.579 2.652 3.852 2.084 4.041zM51.334 149.702c-.631.884-2.715.694-3.157 2.399-.505 1.705 2.337 4.609 3.41 5.872s-1.957 1.263-3.725.063c-1.768-1.199-2.02-5.493-1.263-7.45 1.137-3.283 5.998-2.715 4.735-.884zM57.962 166.37c-.757 1.579-7.892 2.021-9.092 1.326-1.2-.758-3.093-3.094-2.399-3.536.632-.442 2.715 1.326 3.725 1.894 1.01.569 8.524-1.262 7.766.316zM65.728 173.252c-2.083 2.21-8.081 4.357-9.976 3.662-1.957-.694-6.25-4.356-5.177-5.619 1.073-1.263 4.61 2.21 6.63 2.589 1.957.379 11.554-3.915 8.523-.632zM72.99 178.556c-.948 1.894-4.673 6.124-6.567 6.377-1.894.316-6.25-1.2-6.63-2.841-.378-1.642 4.041 1.262 5.999.442 2.02-.884 4.609-4.546 6.187-5.62 1.579-1.01 1.642.379 1.01 1.642z" fill="#DCFFEA"/><path d="M190.823 64.62c-.723-22.485-18.145-20.316-18.145-20.316l-41.287.79-41.287-.79S72.682 42.134 71.96 64.62c-.723 22.484 1.447 78.432 1.447 78.432l1.446 42.865s-.723 13.806 15.975 14.529c6.443.263 22.879.658 40.564 1.052 17.685-.394 34.121-.789 40.564-1.052 16.699-.723 15.976-14.529 15.976-14.529l1.446-42.865s2.17-55.882 1.446-78.432z" fill="#0B87CD"/><path d="M119.712 224.648c45.123 0 81.702-3.421 81.702-7.64 0-4.219-36.579-7.64-81.702-7.64-45.122 0-81.701 3.421-81.701 7.64 0 4.219 36.579 7.64 81.701 7.64z" fill="#D4D4D4"/><path d="M163.277 219.723c7.427 0 13.448-1.159 13.448-2.588 0-1.43-6.021-2.589-13.448-2.589-7.428 0-13.449 1.159-13.449 2.589 0 1.429 6.021 2.588 13.449 2.588zM100.831 219.534c6.73 0 12.186-1.046 12.186-2.336 0-1.29-5.456-2.336-12.186-2.336-6.73 0-12.186 1.046-12.186 2.336 0 1.29 5.456 2.336 12.186 2.336z" fill="#BCBCBC"/><path d="M162.959 218.84a8.713 8.713 0 008.713-8.714 8.713 8.713 0 00-17.426 0 8.713 8.713 0 008.713 8.714z" fill="#3A3A3A"/><path d="M162.96 216.061a5.935 5.935 0 100-11.87 5.935 5.935 0 000 11.87z" fill="#686868"/><path opacity=".29" d="M140.416 73.002l-38.551 14.062c-15.342 5.624-23.286 22.42-17.834 37.575l2.726 7.578 22.974 63.278c-6.074-16.64 5.764-42.654 34.034-52.966l19.314-7.031c15.343-5.624 23.287-22.42 17.835-37.576l-2.726-7.578c-5.529-15.233-22.429-22.967-37.772-17.342z" stroke="#fff" stroke-width=".796" stroke-miterlimit="10"/><path d="M58.151 191.248l.063 6.882 53.29-.505-.063-6.882c0-1.452-1.2-2.589-2.652-2.589l-48.049.442c-1.389.063-2.589 1.2-2.589 2.652z" fill="#7F8E91"/><path d="M58.215 196.236l.19 20.773c0 1.452 1.199 2.652 2.714 2.652l47.923-.442c1.452 0 2.651-1.2 2.651-2.715l-.189-20.773-53.29.505z" fill="#7F8E91"/><path d="M111.551 195.753l-53.29.482.17 18.752 53.289-.482-.169-18.752z" fill="#43C9C2"/><path opacity=".3" d="M101.97 204.634v14.648l-27.34.252-.252-14.648 27.592-.252z" fill="#433E72"/><path d="M62.193 188.659h3.283c.252 0 .505-.252.505-.505v-.379c0-.252-.253-.505-.505-.505h-3.283c-.253 0-.505.253-.505.505v.379c0 .253.189.505.505.505z" fill="#232323"/><path d="M97.992 189.164l-1.641-7.071-16.732.126-1.516 7.135 19.89-.19z" fill="#7F8E91"/><path opacity=".3" d="M95.404 188.28l-1.2-3.094-12.375.127-1.137 3.093 14.712-.126zM98.601 189.9l-21.025.19.053 5.872 21.025-.19-.053-5.872z" fill="#433E72"/><path d="M105.695 186.134l-3.851.063c-.821 0-1.452.694-1.452 1.452v.568l6.819-.063v-.568c0-.821-.695-1.452-1.516-1.452zM75.135 188.407l-7.009.063a.432.432 0 01-.441-.442v-.947c0-.253.189-.442.441-.442l7.009-.063c.252 0 .442.189.442.442v.947c0 .189-.19.442-.442.442z" fill="#232323"/><path opacity=".3" d="M73.43 192.51a1.967 1.967 0 00-1.957-1.957 1.967 1.967 0 00-1.957 1.957c0 1.074.884 1.958 1.957 1.958a1.967 1.967 0 001.957-1.958z" fill="#433E72"/><path d="M72.483 192.511c0-.569-.442-1.011-1.01-.947-.569 0-1.01.442-.948 1.01.064.568.442 1.01 1.01.947.506 0 .948-.442.948-1.01zM100.706 194.721l-5.43 2.841 2.02 3.788 5.431-2.841c1.01-.568 1.452-1.831.884-2.904-.569-1.011-1.894-1.39-2.905-.884z" fill="#232323"/><path d="M102.664 196.173c-.315-.631-1.136-.884-1.767-.568-.632.315-.884 1.136-.569 1.768.316.631 1.137.883 1.768.568.632-.379.884-1.137.568-1.768z" fill="#6A9AA5"/><path d="M102.031 196.488c-.127-.252-.505-.378-.757-.252-.253.126-.379.505-.253.757s.505.379.757.252c.253-.126.379-.441.253-.757z" fill="#6A9AA5"/><path d="M89.154 218.551c7.616-.56 13.336-7.189 12.775-14.805-.561-7.616-7.189-13.335-14.805-12.775-7.616.561-13.336 7.189-12.775 14.805.56 7.616 7.189 13.336 14.805 12.775z" fill="#232323"/><path d="M99.76 205.94c.624-6.421-4.075-12.132-10.496-12.756-6.42-.624-12.131 4.075-12.755 10.496-.624 6.421 4.075 12.132 10.496 12.756 6.42.624 12.131-4.076 12.755-10.496z" stroke="#6A9AA5" stroke-width=".524" stroke-miterlimit="10"/><path d="M88.141 201.603c1.768 0 3.22 1.452 3.22 3.156 0 1.768-1.388 3.221-3.156 3.221h-.064c-1.767 0-3.22-1.453-3.22-3.157a3.1 3.1 0 01.947-2.273 3.098 3.098 0 012.273-.947zm0-5.936h-.063c-5.05.064-9.092 4.168-9.028 9.156.063 4.988 4.104 9.028 9.091 9.028h.064c5.05-.063 9.092-4.167 9.029-9.155 0-4.988-4.105-9.029-9.093-9.029z" fill="#6A9AA5"/><path d="M88.144 200.781a3.923 3.923 0 00-3.915 4.041 3.923 3.923 0 004.041 3.915 3.923 3.923 0 003.915-4.041 4.045 4.045 0 00-4.041-3.915z" fill="#6A9AA5"/><path d="M88.14 202.487c-1.262 0-2.335 1.073-2.272 2.336 0 1.262 1.073 2.336 2.336 2.273 1.263 0 2.336-1.074 2.273-2.336 0-1.263-1.073-2.273-2.336-2.273z" fill="#6A9AA5"/><path d="M89.468 200.024a2.102 2.102 0 00-2.083 2.084c0 1.136.947 2.083 2.083 2.083a2.102 2.102 0 002.084-2.083c0-1.2-.947-2.084-2.084-2.084z" fill="#fff"/><path d="M107.841 190.743l-5.998.063a.97.97 0 00-.947.947v.758a.97.97 0 00.947.947l5.998-.063a.971.971 0 00.947-.947v-.758c0-.568-.379-.947-.947-.947z" fill="#232323"/></svg>