<svg width="43" height="42" viewBox="0 0 43 42" fill="none" xmlns="http://www.w3.org/2000/svg">
<path fill-rule="evenodd" clip-rule="evenodd" d="M16.7398 28.3042C17.4642 28.3042 18.0515 28.9174 18.0515 29.6737V30.6324C18.0515 33.9207 16.0775 36.9286 13.1075 37.9524L2.71885 41.9163C2.03843 42.1759 1.28525 41.8105 1.03659 41.1C0.787932 40.3896 1.13795 39.6032 1.81837 39.3436L12.2275 35.372C12.2418 35.3665 12.2562 35.3613 12.2708 35.3564C14.1118 34.7291 15.4281 32.8138 15.4281 30.6324V29.6737C15.4281 28.9174 16.0153 28.3042 16.7398 28.3042ZM25.6256 28.4411C26.35 28.4411 26.9373 29.0543 26.9373 29.8107V30.6324C26.9373 32.8138 28.2536 34.7291 30.0946 35.3564L30.1148 35.3635L41.1586 39.3351C41.8436 39.5814 42.2076 40.3608 41.9716 41.076C41.7357 41.7911 40.9892 42.1711 40.3042 41.9248L29.27 37.9566C26.2933 36.9369 24.3139 33.9252 24.3139 30.6324V29.8107C24.3139 29.0543 24.9011 28.4411 25.6256 28.4411Z" fill="#FE9A00"/>
<path fill-rule="evenodd" clip-rule="evenodd" d="M0.956543 40.6303C0.956543 39.8739 1.54383 39.2607 2.26828 39.2607H40.7318C41.4562 39.2607 42.0435 39.8739 42.0435 40.6303C42.0435 41.3867 41.4562 41.9999 40.7318 41.9999H2.26828C1.54383 41.9999 0.956543 41.3867 0.956543 40.6303Z" fill="#FE9A00"/>
<path fill-rule="evenodd" clip-rule="evenodd" d="M21.0435 7.21193C16.0331 7.21193 11.8307 11.4743 11.8307 16.7393C11.8307 19.4081 12.9132 22.622 14.6929 25.1621C16.4924 27.7304 18.778 29.3102 21.0435 29.3102C23.3091 29.3102 25.5946 27.7304 27.3941 25.1621C29.1738 22.622 30.2564 19.4081 30.2564 16.7393C30.2564 11.4743 26.054 7.21193 21.0435 7.21193ZM9.17395 16.7393C9.17395 10.0951 14.4844 4.56543 21.0435 4.56543C27.6027 4.56543 32.9131 10.0951 32.9131 16.7393C32.9131 20.0252 31.6174 23.7584 29.5727 26.6767C27.5478 29.5668 24.5628 31.9567 21.0435 31.9567C17.5243 31.9567 14.5392 29.5668 12.5143 26.6767C10.4696 23.7584 9.17395 20.0252 9.17395 16.7393Z" fill="#EE0033"/>
<path fill-rule="evenodd" clip-rule="evenodd" d="M30.174 13.259C30.174 12.4917 30.7474 11.8696 31.4547 11.8696H33.0659C36.4061 11.8696 39.3044 14.6167 39.3044 18.2609C39.3044 21.9052 36.4061 24.6522 33.0659 24.6522H31.4547C30.7474 24.6522 30.174 24.0302 30.174 23.2628V13.259ZM32.7354 14.6485V21.8734H33.0659C35.1793 21.8734 36.7429 20.1743 36.7429 18.2609C36.7429 16.3475 35.1793 14.6485 33.0659 14.6485H32.7354Z" fill="#EE0033"/>
<path fill-rule="evenodd" clip-rule="evenodd" d="M9.02104 14.6485C6.90772 14.6485 5.34407 16.3475 5.34407 18.2609C5.34407 20.1743 6.90772 21.8734 9.02104 21.8734H9.35155V14.6485H9.02104ZM2.78259 18.2609C2.78259 14.6167 5.68088 11.8696 9.02104 11.8696H10.6323C11.3396 11.8696 11.913 12.4917 11.913 13.259V23.2628C11.913 24.0302 11.3396 24.6522 10.6323 24.6522H9.02104C5.68088 24.6522 2.78259 21.9052 2.78259 18.2609Z" fill="#EE0033"/>
<path fill-rule="evenodd" clip-rule="evenodd" d="M16.2808 2.65613C12.7016 2.65613 9.97272 5.35804 9.97272 8.3668V13.2806C9.97272 14.0141 9.38514 14.6087 8.66031 14.6087C7.93549 14.6087 7.3479 14.0141 7.3479 13.2806V8.3668C7.3479 3.67279 11.4775 0 16.2808 0H25.8063C30.6096 0 34.7392 3.67279 34.7392 8.3668V13.1478C34.7392 13.8813 34.1516 14.4759 33.4268 14.4759C32.702 14.4759 32.1144 13.8813 32.1144 13.1478V8.3668C32.1144 5.35804 29.3856 2.65613 25.8063 2.65613H16.2808Z" fill="#FE9A00"/>
<path fill-rule="evenodd" clip-rule="evenodd" d="M8.67987 21.9131C9.4155 21.9131 10.0118 22.4655 10.0118 23.1469V25.3678C10.0118 27.1925 11.5187 28.5758 13.3203 28.5758C14.0559 28.5758 14.6522 29.1282 14.6522 29.8097C14.6522 30.4911 14.0559 31.0435 13.3203 31.0435C9.96582 31.0435 7.3479 28.4785 7.3479 25.3678V23.1469C7.3479 22.4655 7.94424 21.9131 8.67987 21.9131Z" fill="#EE0033"/>
</svg>
