<svg width="33" height="32" viewBox="0 0 33 32" fill="none" xmlns="http://www.w3.org/2000/svg">
<g clip-path="url(#clip0)">
<path d="M24.8672 4.72583C24.8672 5.235 24.4535 5.64868 23.9443 5.64868H16.5H9.05566C8.5465 5.64868 8.13281 5.235 8.13281 4.72583L7.20996 6.57153V25.0286L8.13281 26.8743C8.13281 26.3651 8.5465 25.9514 9.05566 25.9514H16.5H23.9443C24.4535 25.9514 24.8672 26.3651 24.8672 26.8743L25.79 25.0286V6.57153L24.8672 4.72583Z" fill="#EE0033"/>
<path d="M24.8672 26.8743L25.79 25.0286V6.57153L24.8672 4.72583C24.8672 5.235 24.4535 5.64868 23.9443 5.64868H16.5V25.9514H23.9443C24.4535 25.9514 24.8672 26.3651 24.8672 26.8743Z" fill="#EE0033"/>
<path d="M31.3271 1.95728C30.8171 1.95728 30.4043 2.37004 30.4043 2.88013V3.80298H26.7129V2.88013C26.7129 2.37004 26.3001 1.95728 25.79 1.95728C25.2799 1.95728 24.8672 2.37004 24.8672 2.88013V28.72C24.8672 29.2301 25.2799 29.6428 25.79 29.6428C26.3001 29.6428 26.7129 29.2301 26.7129 28.72V27.7971H30.4043V28.72C30.4043 29.2301 30.8171 29.6428 31.3271 29.6428C31.8372 29.6428 32.25 29.2301 32.25 28.72V2.88013C32.25 2.37004 31.8372 1.95728 31.3271 1.95728ZM26.7129 11.1858H30.4043V14.8772H26.7129V11.1858ZM26.7129 16.7229H30.4043V20.4143H26.7129V16.7229ZM30.4043 5.64868V9.34009H26.7129V5.64868H30.4043ZM26.7129 25.9514V22.26H30.4043V25.9514H26.7129Z" fill="#828282"/>
<path d="M7.20996 1.95728C6.69987 1.95728 6.28711 2.37004 6.28711 2.88013V3.80298H2.5957V2.88013C2.5957 2.37004 2.18294 1.95728 1.67285 1.95728C1.16276 1.95728 0.75 2.37004 0.75 2.88013V28.72C0.75 29.2301 1.16276 29.6428 1.67285 29.6428C2.18294 29.6428 2.5957 29.2301 2.5957 28.72V27.7971H6.28711V28.72C6.28711 29.2301 6.69987 29.6428 7.20996 29.6428C7.72005 29.6428 8.13281 29.2301 8.13281 28.72V2.88013C8.13281 2.37004 7.72005 1.95728 7.20996 1.95728ZM2.5957 11.1858H6.28711V14.8772H2.5957V11.1858ZM2.5957 16.7229H6.28711V20.4143H2.5957V16.7229ZM6.28711 5.64868V9.34009H2.5957V5.64868H6.28711ZM2.5957 25.9514V22.26H6.28711V25.9514H2.5957Z" fill="#828282"/>
<path d="M20.7033 15.0322L16.5 12.2299L15.1662 11.3407C14.8841 11.1533 14.5173 11.1335 14.219 11.2948C13.9189 11.4552 13.7314 11.7679 13.7314 12.1086V19.4914C13.7314 19.8321 13.9189 20.1448 14.219 20.3052C14.5149 20.464 14.8801 20.45 15.1662 20.2593L16.5 19.3701L20.7033 16.5679C20.9601 16.3967 21.1143 16.1082 21.1143 15.8001C21.1143 15.4919 20.9601 15.2034 20.7033 15.0322Z" fill="#92001F"/>
<path d="M21.1143 15.8001C21.1143 15.4918 20.9601 15.2035 20.7033 15.0323L16.5 12.23V19.3701L20.7033 16.5679C20.9601 16.3967 21.1143 16.1083 21.1143 15.8001Z" fill="#92001F"/>
</g>
<defs>
<clipPath id="clip0">
<rect width="31.5" height="31.5" fill="white" transform="translate(0.75 0.0500488)"/>
</clipPath>
</defs>
</svg>
