<svg width="122" height="40" viewBox="0 0 122 40" fill="none" xmlns="http://www.w3.org/2000/svg">
<path d="M0.5 5.33333C0.5 2.67172 2.69593 0.5 5.42222 0.5H116.578C119.304 0.5 121.5 2.67171 121.5 5.33333V34.6667C121.5 37.3284 119.304 39.5 116.578 39.5H5.42222C2.69592 39.5 0.5 37.3284 0.5 34.6667V5.33333Z" fill="white" stroke="black"/>
<path d="M42.2666 9.88013H40.7565V13.9998H40.1402V9.88013H38.6333V9.37866H42.2666V9.88013Z" fill="black"/>
<path d="M45.2997 12.7937H43.3314L42.8894 13.9998H42.2505L44.0445 9.37866H44.5866L46.3839 13.9998H45.7482L45.2997 12.7937ZM43.5186 12.2922H45.1158L44.3156 10.1309L43.5186 12.2922ZM44.1284 9.02637L44.1252 8.54077C44.2865 8.53019 44.4048 8.50903 44.4801 8.4773C44.5554 8.44556 44.5931 8.38843 44.5931 8.30591C44.5931 8.22339 44.5436 8.16203 44.4446 8.12183C44.3478 8.07951 44.2188 8.05835 44.0574 8.05835L44.08 7.72192C44.4005 7.72192 44.6436 7.77694 44.8093 7.88696C44.9749 7.99487 45.0577 8.13875 45.0577 8.3186C45.0577 8.44767 45.0158 8.55452 44.9319 8.63916C44.848 8.7238 44.7232 8.77775 44.5576 8.80103L44.5543 9.02637H44.1284Z" fill="black"/>
<path d="M47.681 13.9998H47.0615V9.37866H47.681V13.9998Z" fill="black"/>
<path d="M52.0113 13.1904L53.3536 9.37866H54.0312L52.2888 13.9998H51.7403L50.0011 9.37866H50.6754L52.0113 13.1904Z" fill="black"/>
<path d="M57.3193 11.8638H55.2832V13.5015H57.6484V13.9998H54.6637V9.37866H57.6161V9.88013H55.2832V11.3655H57.3193V11.8638ZM57.2935 9.04858H56.6578L56.1092 8.54712L55.5607 9.04858H54.9283L55.864 8.21704H56.3545L57.2935 9.04858ZM55.1638 8.48682H54.7121L54.0667 7.66797H54.7088L55.1638 8.48682Z" fill="black"/>
<path d="M63.1758 9.88013H61.6657V13.9998H61.0494V9.88013H59.5425V9.37866H63.1758V9.88013Z" fill="black"/>
<path d="M65.5958 12.1304H64.4923V13.9998H63.8695V9.37866H65.4248C65.954 9.37866 66.3606 9.49715 66.6445 9.73413C66.9306 9.97111 67.0737 10.316 67.0737 10.7688C67.0737 11.0566 66.9941 11.3073 66.8349 11.521C66.6779 11.7347 66.4584 11.8945 66.1766 12.0002L67.2802 13.9617V13.9998H66.6155L65.5958 12.1304ZM64.4923 11.6321H65.4442C65.7518 11.6321 65.9959 11.5538 66.1766 11.3972C66.3595 11.2406 66.4509 11.0312 66.4509 10.7688C66.4509 10.4832 66.3638 10.2642 66.1895 10.1118C66.0174 9.95947 65.7679 9.88224 65.4409 9.88013H64.4923V11.6321Z" fill="black"/>
<path d="M70.6005 11.8638H68.5644V13.5015H70.9296V13.9998H67.9449V9.37866H70.8973V9.88013H68.5644V11.3655H70.6005V11.8638ZM70.3746 8.97241V9.00415H69.8809L69.3969 8.4646L68.9161 9.00415H68.4224V8.96606L69.2162 8.10278H69.5776L70.3746 8.97241Z" fill="black"/>
<path d="M75.3115 13.9998H74.6887L72.3235 10.4387V13.9998H71.7008V9.37866H72.3235L74.6952 12.9556V9.37866H75.3115V13.9998Z" fill="black"/>
<path d="M38.4321 24.9136C38.4321 24.0523 38.6339 23.2796 39.0374 22.5956C39.4495 21.9116 40.0032 21.3796 40.6986 20.9996C41.4026 20.6112 42.171 20.4169 43.0037 20.4169C43.9567 20.4169 44.8023 20.6492 45.5407 21.1136C46.2876 21.5696 46.8284 22.2198 47.1633 23.0643H45.399C45.1672 22.6252 44.8453 22.2958 44.4332 22.0763C44.0211 21.8483 43.5446 21.7343 43.0037 21.7343C42.4114 21.7343 41.8834 21.8652 41.4198 22.1269C40.9562 22.3887 40.5913 22.7603 40.3252 23.2416C40.0676 23.7229 39.9388 24.2803 39.9388 24.9136C39.9388 25.5469 40.0676 26.1085 40.3252 26.5983C40.5913 27.0796 40.9562 27.4512 41.4198 27.7129C41.8834 27.9747 42.4114 28.1056 43.0037 28.1056C43.8022 28.1056 44.4504 27.886 44.9483 27.4469C45.4548 26.9994 45.7596 26.3956 45.8626 25.6356H42.5015V24.5083H47.4337V25.6356C47.3392 26.3196 47.0903 26.9487 46.6868 27.5229C46.2919 28.0972 45.7725 28.5574 45.1286 28.9036C44.4933 29.2414 43.785 29.4103 43.0037 29.4103C42.1624 29.4103 41.394 29.2203 40.6986 28.8403C40.0032 28.4518 39.4495 27.9156 39.0374 27.2316C38.6339 26.5476 38.4321 25.7749 38.4321 24.9136ZM51.7019 29.4483C51.0322 29.4483 50.427 29.3005 49.8861 29.0049C49.3452 28.7009 48.9203 28.2787 48.6112 27.7383C48.3021 27.1894 48.1476 26.556 48.1476 25.8383C48.1476 25.1289 48.3064 24.4998 48.6241 23.9509C48.9418 23.402 49.3753 22.9798 49.9247 22.6843C50.4742 22.3887 51.088 22.2409 51.7663 22.2409C52.4445 22.2409 53.0583 22.3887 53.6078 22.6843C54.1573 22.9798 54.5908 23.402 54.9084 23.9509C55.2261 24.4998 55.3849 25.1289 55.3849 25.8383C55.3849 26.5476 55.2218 27.1767 54.8956 27.7256C54.5693 28.2745 54.1229 28.7009 53.5563 29.0049C52.9983 29.3005 52.3801 29.4483 51.7019 29.4483ZM51.7019 28.2323C52.0796 28.2323 52.4316 28.1394 52.7578 27.9536C53.0927 27.7678 53.3631 27.4976 53.5691 27.1429C53.7752 26.7798 53.8782 26.3449 53.8782 25.8383C53.8782 25.3316 53.7795 24.9009 53.582 24.5463C53.3846 24.1832 53.1227 23.9129 52.7965 23.7356C52.4703 23.5498 52.1183 23.4569 51.7405 23.4569C51.3628 23.4569 51.0151 23.5498 50.6974 23.7356C50.3798 23.9129 50.1222 24.1832 49.9247 24.5463C49.7359 24.9009 49.6414 25.3316 49.6414 25.8383C49.6414 26.3449 49.7316 26.7798 49.9119 27.1429C50.1008 27.506 50.3497 27.7805 50.6588 27.9663C50.9764 28.1436 51.3241 28.2323 51.7019 28.2323ZM59.6564 29.4483C58.9868 29.4483 58.3815 29.3005 57.8406 29.0049C57.2998 28.7009 56.8748 28.2787 56.5657 27.7383C56.2567 27.1894 56.1021 26.556 56.1021 25.8383C56.1021 25.1289 56.261 24.4998 56.5786 23.9509C56.8963 23.402 57.3298 22.9798 57.8793 22.6843C58.4287 22.3887 59.0426 22.2409 59.7208 22.2409C60.399 22.2409 61.0129 22.3887 61.5623 22.6843C62.1118 22.9798 62.5453 23.402 62.863 23.9509C63.1806 24.4998 63.3395 25.1289 63.3395 25.8383C63.3395 26.5476 63.1763 27.1767 62.8501 27.7256C62.5239 28.2745 62.0774 28.7009 61.5108 29.0049C60.9528 29.3005 60.3347 29.4483 59.6564 29.4483ZM59.6564 28.2323C60.0342 28.2323 60.3862 28.1394 60.7124 27.9536C61.0472 27.7678 61.3176 27.4976 61.5237 27.1429C61.7297 26.7798 61.8328 26.3449 61.8328 25.8383C61.8328 25.3316 61.734 24.9009 61.5366 24.5463C61.3391 24.1832 61.0773 23.9129 60.751 23.7356C60.4248 23.5498 60.0728 23.4569 59.695 23.4569C59.3173 23.4569 58.9696 23.5498 58.6519 23.7356C58.3343 23.9129 58.0767 24.1832 57.8793 24.5463C57.6904 24.9009 57.596 25.3316 57.596 25.8383C57.596 26.3449 57.6861 26.7798 57.8664 27.1429C58.0553 27.506 58.3042 27.7805 58.6133 27.9663C58.931 28.1436 59.2787 28.2323 59.6564 28.2323ZM67.3921 22.2409C67.9415 22.2409 68.4265 22.3507 68.8472 22.5703C69.2765 22.7814 69.6113 23.0474 69.8517 23.3683V22.3549H71.3327V29.4483C71.3327 30.09 71.1953 30.66 70.9206 31.1583C70.6458 31.6649 70.2466 32.0618 69.7229 32.3489C69.2078 32.636 68.5897 32.7796 67.8685 32.7796C66.907 32.7796 66.1085 32.5558 65.4733 32.1083C64.838 31.6692 64.4774 31.0696 64.3915 30.3096H65.8467C65.9583 30.6727 66.1944 30.964 66.555 31.1836C66.9242 31.4116 67.362 31.5256 67.8685 31.5256C68.4609 31.5256 68.9374 31.3483 69.298 30.9936C69.6671 30.6389 69.8517 30.1238 69.8517 29.4483V28.2829C69.6027 28.6123 69.2636 28.8909 68.8344 29.1189C68.4137 29.3385 67.9329 29.4483 67.3921 29.4483C66.7739 29.4483 66.2073 29.2963 65.6922 28.9923C65.1856 28.6798 64.7821 28.2492 64.4817 27.7003C64.1898 27.1429 64.0438 26.5138 64.0438 25.8129C64.0438 25.112 64.1898 24.4914 64.4817 23.9509C64.7821 23.4105 65.1856 22.9925 65.6922 22.6969C66.2073 22.3929 66.7739 22.2409 67.3921 22.2409ZM69.8517 25.8383C69.8517 25.3569 69.7487 24.9389 69.5426 24.5843C69.3452 24.2296 69.0833 23.9594 68.7571 23.7736C68.4309 23.5878 68.0788 23.4949 67.7011 23.4949C67.3234 23.4949 66.9714 23.5878 66.6451 23.7736C66.3189 23.9509 66.0528 24.2169 65.8467 24.5716C65.6493 24.9178 65.5505 25.3316 65.5505 25.8129C65.5505 26.2943 65.6493 26.7165 65.8467 27.0796C66.0528 27.4427 66.3189 27.7214 66.6451 27.9156C66.98 28.1014 67.3319 28.1943 67.7011 28.1943C68.0788 28.1943 68.4309 28.1014 68.7571 27.9156C69.0833 27.7298 69.3452 27.4596 69.5426 27.1049C69.7487 26.7418 69.8517 26.3196 69.8517 25.8383ZM74.4713 19.9609V29.3343H73.0032V19.9609H74.4713ZM82.6446 25.6483C82.6446 25.8932 82.6273 26.1212 82.5931 26.3323H77.1587C77.2017 26.9149 77.4118 27.3794 77.7897 27.7256C78.1675 28.0634 78.6352 28.2323 79.1934 28.2323C79.9833 28.2323 80.5411 27.9072 80.8675 27.2569H82.4514C82.2369 27.8987 81.8462 28.4265 81.2796 28.8403C80.7214 29.2456 80.026 29.4483 79.1934 29.4483C78.5152 29.4483 77.9056 29.3005 77.3647 29.0049C76.8323 28.7009 76.4118 28.2787 76.1027 27.7383C75.8021 27.1894 75.652 26.556 75.652 25.8383C75.652 25.1205 75.798 24.4914 76.0898 23.9509C76.3904 23.402 76.8066 22.9798 77.339 22.6843C77.8798 22.3887 78.498 22.2409 79.1934 22.2409C79.863 22.2409 80.4598 22.3845 80.9834 22.6716C81.507 22.9587 81.915 23.3598 82.2068 23.8749C82.4985 24.39 82.6446 24.9812 82.6446 25.6483ZM81.1121 25.2936C81.1037 24.7278 80.9105 24.2803 80.5326 23.9509C80.1636 23.6216 79.6956 23.4569 79.129 23.4569C78.6139 23.4569 78.1716 23.6216 77.8026 23.9509C77.442 24.2803 77.2315 24.7278 77.1715 25.2936H81.1121ZM93.6937 23.1529C93.6937 23.6005 93.5863 24.0227 93.3718 24.4196C93.1569 24.8165 92.8136 25.1416 92.3416 25.3949C91.8692 25.6398 91.2639 25.7623 90.5258 25.7623H88.9032V29.3343H87.4351V20.5309H90.5258C91.2124 20.5309 91.7919 20.6492 92.2643 20.8856C92.7448 21.1136 93.1014 21.426 93.3332 21.8229C93.5734 22.2198 93.6937 22.6632 93.6937 23.1529ZM90.5258 24.6349C91.0836 24.6349 91.5001 24.504 91.7749 24.2423C92.0494 23.9805 92.187 23.6174 92.187 23.1529C92.187 22.68 92.0494 22.3127 91.7749 22.0509C91.5001 21.7892 91.0836 21.6583 90.5258 21.6583H88.9032V24.6349H90.5258ZM96.3042 19.9609V29.3343H94.8361V19.9609H96.3042ZM97.4849 25.8129C97.4849 25.112 97.6306 24.4914 97.9227 23.9509C98.223 23.4105 98.6266 22.9925 99.1332 22.6969C99.6484 22.3929 100.215 22.2409 100.833 22.2409C101.391 22.2409 101.876 22.3507 102.288 22.5703C102.709 22.7814 103.044 23.0474 103.293 23.3683V22.3549H104.774V29.3343H103.293V28.2956C103.044 28.6249 102.704 28.8994 102.275 29.1189C101.846 29.3385 101.357 29.4483 100.807 29.4483C100.198 29.4483 99.6395 29.2963 99.1332 28.9923C98.6266 28.6798 98.223 28.2492 97.9227 27.7003C97.6306 27.1429 97.4849 26.5138 97.4849 25.8129ZM103.293 25.8383C103.293 25.3569 103.19 24.9389 102.984 24.5843C102.786 24.2296 102.524 23.9594 102.198 23.7736C101.872 23.5878 101.52 23.4949 101.142 23.4949C100.764 23.4949 100.412 23.5878 100.086 23.7736C99.7598 23.9509 99.4938 24.2169 99.2878 24.5716C99.0902 24.9178 98.9916 25.3316 98.9916 25.8129C98.9916 26.2943 99.0902 26.7165 99.2878 27.0796C99.4938 27.4427 99.7598 27.7214 100.086 27.9156C100.421 28.1014 100.773 28.1943 101.142 28.1943C101.52 28.1943 101.872 28.1014 102.198 27.9156C102.524 27.7298 102.786 27.4596 102.984 27.1049C103.19 26.7418 103.293 26.3196 103.293 25.8383ZM107.243 22.3549L109.239 27.6749L111.312 22.3549H112.832L108.479 32.6149H106.96L108.402 29.2203L105.607 22.3549H107.243Z" fill="black"/>
<mask id="mask0" mask-type="alpha" maskUnits="userSpaceOnUse" x="8" y="8" width="21" height="24">
<path d="M8.81104 9.9603C8.81104 8.93733 9.93387 8.29541 10.8376 8.80175L27.8474 18.3325C28.7393 18.8323 28.7648 20.0879 27.8939 20.6223L10.8841 31.0607C9.98122 31.6148 8.81104 30.9763 8.81104 29.9295V9.9603Z" fill="#C4C4C4"/>
</mask>
<g mask="url(#mask0)">
<path d="M8.81104 9.96225C8.81104 8.93928 9.93387 8.29737 10.8376 8.80371L27.8474 18.3345C28.7393 18.8342 28.7648 20.0898 27.8939 20.6242L10.8841 31.0627C9.98122 31.6168 8.81104 30.9783 8.81104 29.9315V9.96225Z" fill="#00F076"/>
<path d="M27.789 27.334L7.11681 6.83398L5.42236 31.334L9.99736 34.834L27.789 27.334Z" fill="#00C9FF"/>
<path d="M5.93066 33.1673L25.5862 14.334L33.3807 17.5007L19.3168 33.834L5.93066 33.1673Z" fill="#F53349"/>
<path fill-rule="evenodd" clip-rule="evenodd" d="M26.2379 25.7959L33.3807 17.5007L25.5862 14.334L20.0392 19.6489L26.2379 25.7959ZM23.2752 29.2368L13.1036 33.5246L19.3168 33.834L23.2752 29.2368ZM7.9501 33.2679L6.76895 32.3642L5.93066 33.1673L7.9501 33.2679Z" fill="#FFCC00"/>
</g>
</svg>
