<svg width="24" height="24" viewBox="0 0 24 24" fill="none" xmlns="http://www.w3.org/2000/svg">
<path d="M23.5522 11.1201C23.2322 10.1201 22.3722 9.45012 21.4022 9.30012C22.0922 8.61012 22.3922 7.56012 22.0722 6.56012C21.6122 5.14012 20.0922 4.37012 18.6722 4.83012C17.9022 5.08012 17.1922 5.46012 16.5622 5.91012C16.7922 5.17012 16.9422 4.39012 16.9422 3.57012C16.9422 2.08012 15.7322 0.870117 14.2422 0.870117C13.1922 0.870117 12.2922 1.48012 11.8422 2.35012C11.3922 1.47012 10.4922 0.870117 9.44217 0.870117C7.95217 0.870117 6.74217 2.08012 6.74217 3.57012C6.74217 4.38012 6.89217 5.16012 7.12217 5.91012C6.48217 5.46012 5.78217 5.08012 5.01217 4.83012C3.59217 4.37012 2.07217 5.15012 1.61217 6.56012C1.29217 7.56012 1.58217 8.60012 2.28217 9.30012C1.31217 9.45012 0.45217 10.1201 0.13217 11.1201C-0.32783 12.5401 0.45217 14.0601 1.86217 14.5201C2.63217 14.7701 3.42217 14.8701 4.20217 14.8801C3.58217 15.3501 3.00217 15.9001 2.52217 16.5601C1.64217 17.7701 1.91217 19.4501 3.12217 20.3301C3.97217 20.9501 5.05217 20.9901 5.93217 20.5401C5.77217 21.5201 6.14217 22.5401 6.99217 23.1501C8.20217 24.0301 9.88217 23.7601 10.7622 22.5501C11.2422 21.9001 11.5822 21.1801 11.8322 20.4501C12.0822 21.1801 12.4322 21.9001 12.9022 22.5501C13.7822 23.7601 15.4622 24.0201 16.6722 23.1501C17.5222 22.5301 17.8922 21.5101 17.7422 20.5401C18.6222 20.9901 19.7022 20.9501 20.5522 20.3301C21.7622 19.4501 22.0222 17.7701 21.1522 16.5601C20.6722 15.9001 20.1022 15.3501 19.4722 14.8801C20.2522 14.8701 21.0422 14.7701 21.8122 14.5201C23.2422 14.0601 24.0122 12.5401 23.5522 11.1201ZM18.5522 6.80012C18.7622 6.64012 19.0622 6.69012 19.2222 6.91012C19.3822 7.12012 19.3322 7.42012 19.1122 7.58012L12.8922 11.5101L18.5522 6.80012ZM18.5222 10.5001L12.8222 11.9501L18.2822 9.77011C18.4822 9.70012 18.7022 9.81011 18.7622 10.0201C18.8322 10.2201 18.7222 10.4301 18.5222 10.5001ZM15.5222 7.24012C15.6622 7.34012 15.6922 7.53012 15.5922 7.67012L12.5522 11.3201L15.0922 7.30012C15.1922 7.18012 15.3922 7.14012 15.5222 7.24012ZM12.6922 12.2701C12.6922 12.7401 12.3122 13.1201 11.8422 13.1201C11.3722 13.1201 10.9922 12.7401 10.9922 12.2701C10.9922 11.8001 11.3722 11.4201 11.8422 11.4201C12.3122 11.4201 12.6922 11.8001 12.6922 12.2701ZM14.0522 3.90012C14.1322 3.65012 14.4022 3.51012 14.6522 3.59012C14.9022 3.67012 15.0422 3.94012 14.9622 4.19012L12.2322 11.0301L14.0522 3.90012ZM11.8422 4.98012C12.0522 4.98012 12.2222 5.15012 12.2222 5.36012L11.8422 11.2301L11.4622 5.36012C11.4522 5.15012 11.6322 4.98012 11.8422 4.98012ZM9.02217 3.59012C9.27217 3.51012 9.54217 3.65012 9.62217 3.90012L11.4322 11.0401L8.70217 4.20012C8.63217 3.95012 8.77217 3.68012 9.02217 3.59012ZM8.15217 7.24012C8.29217 7.14012 8.48217 7.17012 8.58217 7.31012L11.1222 11.3301L8.08217 7.68011C7.98217 7.54011 8.01217 7.35012 8.15217 7.24012ZM4.46217 6.91012C4.62217 6.70012 4.92217 6.65012 5.13217 6.80012L10.7922 11.5101L4.56217 7.58012C4.35217 7.42012 4.30217 7.12012 4.46217 6.91012ZM10.8522 11.9501L5.15217 10.5001C4.95217 10.4301 4.84217 10.2201 4.90217 10.0201C4.97217 9.82012 5.18217 9.71011 5.38217 9.77011L10.8522 11.9501ZM3.19217 12.7501C2.93217 12.7501 2.71217 12.5401 2.71217 12.2701C2.71217 12.0001 2.92217 11.7901 3.19217 11.7901L10.5422 12.2701L3.19217 12.7501ZM10.6922 12.7001L6.28217 14.4601C6.12217 14.5101 5.94217 14.4201 5.89217 14.2601C5.84217 14.1001 5.93217 13.9201 6.09217 13.8701L10.6922 12.7001ZM5.13217 17.7401C4.92217 17.9001 4.62217 17.8501 4.46217 17.6301C4.30217 17.4201 4.35217 17.1201 4.57217 16.9601L10.8022 13.0301L5.13217 17.7401ZM8.09217 18.0801C7.97217 18.2501 7.73217 18.2901 7.56217 18.1601C7.39217 18.0401 7.35217 17.8001 7.48217 17.6301L11.2422 13.1101L8.09217 18.0801ZM9.62217 20.6401C9.54217 20.8901 9.27217 21.0301 9.02217 20.9501C8.77217 20.8701 8.63217 20.6001 8.71217 20.3501L11.4422 13.5101L9.62217 20.6401ZM11.8422 18.5701C11.6722 18.5701 11.5322 18.4301 11.5322 18.2601L11.8422 13.5201L12.1522 18.2601C12.1522 18.4301 12.0122 18.5701 11.8422 18.5701ZM14.6622 20.9401C14.4122 21.0201 14.1422 20.8801 14.0622 20.6301L12.2522 13.4901L14.9822 20.3301C15.0522 20.5901 14.9122 20.8601 14.6622 20.9401ZM16.1222 18.1601C15.9522 18.2801 15.7122 18.2501 15.5922 18.0801L12.4522 13.1101L16.2122 17.6301C16.3322 17.8001 16.2922 18.0401 16.1222 18.1601ZM19.2222 17.6301C19.0622 17.8401 18.7622 17.8901 18.5522 17.7401L12.8922 13.0301L19.1222 16.9601C19.3322 17.1201 19.3722 17.4201 19.2222 17.6301ZM12.9922 12.7001L17.5922 13.8701C17.7522 13.9201 17.8422 14.1001 17.7922 14.2601C17.7422 14.4201 17.5622 14.5101 17.4022 14.4601L12.9922 12.7001ZM20.4822 12.7501L13.1322 12.2701L20.4822 11.7901C20.7422 11.7901 20.9622 12.0001 20.9622 12.2701C20.9622 12.5401 20.7422 12.7501 20.4822 12.7501Z" fill="#EA546D"/>
</svg>
