<svg width="104" height="83" viewBox="0 0 104 83" fill="none" xmlns="http://www.w3.org/2000/svg">
<path d="M90.9525 53.2468C90.3343 52.6301 89.496 52.2837 88.6218 52.2837C87.7477 52.2837 86.9093 52.6301 86.2912 53.2468C85.6731 53.8635 85.3258 54.6999 85.3258 55.572C85.3258 56.4442 85.6731 57.2806 86.2912 57.8973L92.7725 64.3553H82.89C81.033 64.3625 79.1929 64.0033 77.4757 63.2982C75.7584 62.5932 74.1979 61.5563 72.8839 60.2471L58.6613 46L54 50.6422L68.2638 64.8729C70.1844 66.7994 72.4689 68.3266 74.9852 69.366C77.5015 70.4055 80.1995 70.9365 82.9229 70.9284H92.8054L86.3241 77.3864C85.706 78.0031 85.3588 78.8395 85.3588 79.7116C85.3588 80.5838 85.706 81.4202 86.3241 82.0369C86.9423 82.6535 87.7806 83 88.6548 83C89.5289 83 90.3673 82.6535 90.9854 82.0369L103.034 69.9671C103.34 69.6618 103.583 69.2994 103.749 68.9004C103.915 68.5014 104 68.0737 104 67.6418C104 67.2099 103.915 66.7823 103.749 66.3833C103.583 65.9843 103.34 65.6218 103.034 65.3166L90.9525 53.2468Z" fill="#EE0033"/>
<path d="M82.9362 18.5847H92.8125L86.3353 25.0219C85.7176 25.6366 85.3705 26.4703 85.3705 27.3396C85.3705 28.209 85.7176 29.0427 86.3353 29.6574C86.953 30.2721 87.7909 30.6174 88.6645 30.6174C89.5381 30.6174 90.3759 30.2721 90.9936 29.6574L103.034 17.6264C103.341 17.3222 103.583 16.9609 103.749 16.5632C103.915 16.1655 104 15.7392 104 15.3087C104 14.8782 103.915 14.4519 103.749 14.0542C103.583 13.6565 103.341 13.2952 103.034 12.991L90.9607 0.960038C90.343 0.345336 89.5051 -1.71364e-08 88.6315 0C87.7579 1.71364e-08 86.9201 0.345336 86.3024 0.960038C85.6846 1.57474 85.3376 2.40845 85.3376 3.27777C85.3376 4.14709 85.6846 4.98081 86.3024 5.59551L92.7796 12.0328H82.9033C80.1816 12.0247 77.4853 12.554 74.9706 13.5901C72.4559 14.6262 70.1728 16.1484 68.2534 18.0687L49.3239 36.9054L44.7232 41.5163L25.7936 60.3531C24.4813 61.6591 22.9219 62.6934 21.2055 63.3962C19.4891 64.0991 17.6498 64.4566 15.7938 64.448H3.2921C2.41898 64.448 1.58162 64.7931 0.964233 65.4075C0.346845 66.0219 0 66.8551 0 67.724C0 68.5928 0.346845 69.426 0.964233 70.0404C1.58162 70.6548 2.41898 70.9999 3.2921 70.9999H15.7938C18.5156 71.008 21.2118 70.4787 23.7265 69.4426C26.2412 68.4065 28.5243 66.8842 30.4437 64.964L49.3733 46.1272L54.0316 41.5163L72.9612 22.6796C74.2714 21.3776 75.8269 20.3457 77.5386 19.643C79.2503 18.9403 81.0846 18.5807 82.9362 18.5847Z" fill="#EE0033"/>
<path d="M3.31248 18.5921H15.8916C17.7577 18.5846 19.6068 18.9448 21.3323 19.6519C23.0578 20.359 24.6255 21.3991 25.945 22.7121L40.3128 37L45 32.3445L30.6653 18.073C28.7301 16.1371 26.4275 14.6032 23.8912 13.5607C21.355 12.5181 18.6357 11.9877 15.8916 12.0002H3.31248C2.43395 12.0002 1.59141 12.3475 0.970202 12.9656C0.348992 13.5837 0 14.422 0 15.2962C0 16.1703 0.348992 17.0086 0.970202 17.6268C1.59141 18.2449 2.43395 18.5921 3.31248 18.5921Z" fill="#EE0033"/>
</svg>
