<svg width="80" height="80" viewBox="0 0 80 80" fill="none" xmlns="http://www.w3.org/2000/svg">
<path d="M19.9429 29.1327L29.0924 9.91748H22.289C21.3506 9.91748 20.6468 10.3643 20.1775 11.0346L8.21282 27.7921C7.50902 28.6858 7.27441 29.5796 7.27441 30.4733V34.2717C7.27441 35.8357 8.44743 36.9529 10.0896 36.9529H19.4737V30.6967C19.4737 30.2499 19.7083 29.5796 19.9429 29.1327Z" fill="#EE0033"/>
<path d="M71.79 27.7921L59.8253 11.0346C59.3561 10.3643 58.4177 9.91748 57.4793 9.91748H50.6758L59.8253 29.1327C60.0599 29.5796 60.0599 30.0264 60.0599 30.6967V36.9529H69.444C71.0862 36.9529 72.2592 35.8357 72.2592 34.2717V30.4733C72.7284 29.5796 72.4938 28.6858 71.79 27.7921Z" fill="#EE0033"/>
<path d="M67.5664 32.4839H12.2002V63.5411H67.5664V32.4839Z" fill="#EE0033"/>
<path d="M19.942 29.1328H7.50804C7.27344 29.5797 7.27344 30.0265 7.27344 30.4734V34.2718C7.27344 35.8358 8.44645 36.953 10.0887 36.953H19.4728V30.6968C19.4728 30.25 19.7074 29.5797 19.942 29.1328Z" fill="#92001F"/>
<path d="M72.4925 29.1328H60.0586C60.2932 29.5797 60.2932 30.0265 60.2932 30.6968V36.953H69.6773C71.3195 36.953 72.4925 35.8358 72.4925 34.2718V30.4734C72.7271 30.0265 72.4925 29.5797 72.4925 29.1328Z" fill="#92001F"/>
<path d="M50.9094 9.91748H29.0914L19.9419 29.1327C19.7073 29.5796 19.4727 30.2499 19.4727 30.6967V36.9529H60.2935V30.6967C60.2935 30.2499 60.0589 29.5796 60.0589 29.1327L50.9094 9.91748Z" fill="#C4C4C4"/>
<path d="M19.9419 29.1328C19.7073 29.5797 19.4727 30.25 19.4727 30.6968V36.953H60.2935V30.6968C60.2935 30.25 60.0589 29.5797 60.0589 29.1328H19.9419Z" fill="#DCDCDC"/>
<path d="M43.4016 9.91748H36.3635L33.0791 29.5796C33.0791 29.803 33.0791 30.0264 33.0791 30.0264V36.7294H46.686V30.0264C46.686 29.803 46.686 29.5796 46.686 29.5796L43.4016 9.91748Z" fill="#EE0033"/>
<path d="M46.686 29.1328H33.3137V29.5797C33.0791 29.8031 33.0791 30.0265 33.0791 30.0265V36.7295H46.686V30.0265C46.686 29.8031 46.686 29.5797 46.686 29.5797V29.1328Z" fill="#92001F"/>
<path d="M46.686 63.7651H33.0791V49.4654C33.0791 45.8905 36.1289 42.9858 39.8826 42.9858C43.6362 42.9858 46.686 45.8905 46.686 49.4654V63.7651Z" fill="#92001F"/>
<path d="M72.7275 63.5415H7.27344V66.4461H72.7275V63.5415Z" fill="#C4C4C4"/>
</svg>
