<svg width="60" height="60" viewBox="0 0 60 60" fill="none" xmlns="http://www.w3.org/2000/svg">
<path d="M14.9545 21.8499L21.8166 7.43848H16.714C16.0102 7.43848 15.4824 7.77363 15.1305 8.27635L6.15693 20.8445C5.62908 21.5147 5.45312 22.185 5.45312 22.8553V25.7041C5.45312 26.8771 6.33288 27.715 7.56455 27.715H14.6026V23.0229C14.6026 22.6878 14.7786 22.185 14.9545 21.8499Z" fill="#EE0033"/>
<path d="M53.8396 20.8445L44.866 8.27635C44.5141 7.77363 43.8103 7.43848 43.1065 7.43848H38.0039L44.866 21.8499C45.042 22.185 45.042 22.5202 45.042 23.0229V27.715H52.0801C53.3117 27.715 54.1915 26.8771 54.1915 25.7041V22.8553C54.5434 22.185 54.3674 21.5147 53.8396 20.8445Z" fill="#EE0033"/>
<path d="M50.6731 24.3633H9.14844V47.6562H50.6731V24.3633Z" fill="#EE0033"/>
<path d="M14.9545 21.8496H5.62908C5.45312 22.1848 5.45312 22.5199 5.45312 22.8551V25.7038C5.45312 26.8768 6.33288 27.7147 7.56455 27.7147H14.6026V23.0226C14.6026 22.6875 14.7786 22.1848 14.9545 21.8496Z" fill="#92001F"/>
<path d="M54.3684 21.8496H45.043C45.2189 22.1848 45.2189 22.5199 45.2189 23.0226V27.7147H52.257C53.4887 27.7147 54.3684 26.8768 54.3684 25.7038V22.8551C54.5444 22.5199 54.3684 22.1848 54.3684 21.8496Z" fill="#92001F"/>
<path d="M38.1791 7.43848H21.8156L14.9535 21.8499C14.7775 22.185 14.6016 22.6878 14.6016 23.0229V27.715H45.2172V23.0229C45.2172 22.6878 45.0412 22.185 45.0412 21.8499L38.1791 7.43848Z" fill="#C4C4C4"/>
<path d="M14.9535 21.8496C14.7775 22.1848 14.6016 22.6875 14.6016 23.0226V27.7147H45.2172V23.0226C45.2172 22.6875 45.0412 22.1848 45.0412 21.8496H14.9535Z" fill="#DCDCDC"/>
<path d="M32.5505 7.43848H27.2719L24.8086 22.185C24.8086 22.3526 24.8086 22.5202 24.8086 22.5202V27.5474H35.0138V22.5202C35.0138 22.3526 35.0138 22.185 35.0138 22.185L32.5505 7.43848Z" fill="#EE0033"/>
<path d="M35.0138 21.8496H24.9845V22.1848C24.8086 22.3523 24.8086 22.5199 24.8086 22.5199V27.5471H35.0138V22.5199C35.0138 22.3523 35.0138 22.1848 35.0138 22.1848V21.8496Z" fill="#92001F"/>
<path d="M35.0138 47.8237H24.8086V37.0989C24.8086 34.4177 27.096 32.2393 29.9112 32.2393C32.7264 32.2393 35.0138 34.4177 35.0138 37.0989V47.8237Z" fill="#92001F"/>
<path d="M54.5437 47.6562H5.45312V49.8347H54.5437V47.6562Z" fill="#C4C4C4"/>
</svg>
