<svg width="32" height="32" viewBox="0 0 32 32" fill="none" xmlns="http://www.w3.org/2000/svg">
<path d="M30 27H2C0.898 27 0 26.104 0 25L0 7C0 5.898 0.898 5 2 5L30 5C31.104 5 32 5.898 32 7V25C32 26.104 31.104 27 30 27ZM30 25V26V25Z" fill="#FFB54A"/>
<path d="M32 15H0L0 17H32V15Z" fill="white"/>
<path d="M20 5H18V27H20V5Z" fill="white"/>
<path d="M19 17C18.912 17 18.824 16.988 18.738 16.964C16.164 16.264 11.722 14.964 10.878 14.12C9.70799 12.95 9.70799 11.048 10.878 9.87799C12.048 8.70799 13.95 8.70799 15.12 9.87799C15.912 10.67 19.38 14.886 19.772 15.364C20.048 15.7 20.074 16.176 19.838 16.542C19.652 16.834 19.334 17 19 17ZM13 11C12.744 11 12.488 11.098 12.292 11.292C11.902 11.682 11.902 12.316 12.292 12.706C12.626 12.968 14.246 13.54 16.152 14.13C15.108 12.88 14.052 11.638 13.708 11.292C13.512 11.098 13.256 11 13 11Z" fill="white"/>
<path d="M19 17C18.666 17 18.348 16.834 18.16 16.542C17.924 16.176 17.952 15.702 18.226 15.364C18.618 14.886 22.086 10.67 22.878 9.87799C24.046 8.70799 25.952 8.70799 27.12 9.87799C28.29 11.048 28.29 12.95 27.12 14.12C26.276 14.964 21.834 16.264 19.26 16.964C19.176 16.988 19.088 17 19 17ZM25 11C24.744 11 24.488 11.096 24.292 11.292C23.948 11.636 22.892 12.88 21.848 14.128C23.754 13.538 25.38 12.96 25.728 12.684C26.096 12.316 26.096 11.682 25.704 11.292C25.512 11.098 25.256 11 25 11Z" fill="white"/>
<path d="M14 22C13.744 22 13.488 21.902 13.292 21.708C12.902 21.318 12.902 20.684 13.292 20.294L18.292 15.294C18.682 14.904 19.316 14.904 19.706 15.294C20.096 15.684 20.096 16.318 19.706 16.708L14.706 21.708C14.512 21.902 14.256 22 14 22Z" fill="white"/>
<path d="M24 22C23.744 22 23.488 21.902 23.292 21.708L18.292 16.708C17.902 16.318 17.902 15.684 18.292 15.294C18.682 14.904 19.316 14.904 19.706 15.294L24.706 20.294C25.096 20.684 25.096 21.318 24.706 21.708C24.512 21.902 24.256 22 24 22Z" fill="white"/>
<path d="M11 23H5C4.448 23 4 22.552 4 22C4 21.448 4.448 21 5 21H11C11.552 21 12 21.448 12 22C12 22.552 11.552 23 11 23Z" fill="white"/>
</svg>
