<svg width="421" height="246" viewBox="0 0 421 246" fill="none" xmlns="http://www.w3.org/2000/svg">
<path d="M42.6055 76.188H44.5391V72.9731H47.7188V71.3989H44.5391V69.7583H48.0664V68.188H42.6055V76.188ZM49.04 76.188H50.9736V73.4497H51.9658L53.4268 76.188H55.5361L53.876 73.1411C54.7549 72.7427 55.2627 71.9575 55.2627 70.8521C55.2627 69.2075 54.1416 68.188 52.3447 68.188H49.04V76.188ZM50.9736 71.9263V69.7466H51.9268C52.7939 69.7466 53.2588 70.1099 53.2588 70.8521C53.2588 71.5942 52.7939 71.9263 51.9268 71.9263H50.9736ZM56.3232 76.188H61.9014V74.6177H58.2568V72.9731H61.6162V71.3989H58.2568V69.7583H61.9014V68.188H56.3232V76.188ZM63.1123 76.188H68.6904V74.6177H65.0459V72.9731H68.4053V71.3989H65.0459V69.7583H68.6904V68.188H63.1123V76.188Z" fill="white"/>
<path opacity="0.6" d="M23.3044 210.301C23.3044 210.301 -23.3855 160.242 15.4085 106.044C49.8285 57.9569 89.9593 61.2428 119.401 80.7575C131.942 89.0695 168.096 81.7817 198.869 32.8509C240.834 -33.8776 386.299 6.59298 359.776 109.257C346.941 158.939 398.84 160.744 372.396 210.406L23.3044 210.301Z" fill="#EBF3FA"/>
<path d="M342.983 179.46C342.983 179.46 375.329 146.866 384.899 153.925C394.47 160.983 342.983 179.46 342.983 179.46Z" fill="#BCF7E2"/>
<path d="M340.762 185.608C340.762 185.608 401.891 156.07 417 170.25C432.109 184.43 400.385 183.585 388.606 182.304C376.829 181.024 340.762 185.608 340.762 185.608Z" fill="#BCF7E2"/>
<path d="M337.952 178.916C337.952 178.916 338.195 177.353 338.523 175.063C339.163 170.598 340.121 163.375 340.214 159.627C340.355 153.956 344.799 149.798 349.989 155.41C355.179 161.022 339.833 177.304 339.833 177.304L337.952 178.916Z" fill="#BCF7E2"/>
<path d="M150.354 144.891C150.354 144.891 166.819 116.931 174.612 120.105C182.406 123.279 150.354 144.891 150.354 144.891Z" fill="#B6DFEC"/>
<path d="M149.906 149.491C149.906 149.491 186.629 118.62 199.464 125.712C212.299 132.803 190.41 137.74 182.116 138.91C173.822 140.08 149.906 149.491 149.906 149.491Z" fill="#B6DFEC"/>
<path d="M146.81 145.393C146.81 145.393 146.704 144.28 146.528 142.654C146.185 139.483 145.58 134.366 144.987 131.782C144.091 127.872 146.41 124.249 150.947 127.193C155.484 130.136 147.816 143.961 147.816 143.961L146.81 145.393Z" fill="#B6DFEC"/>
<path d="M84.1214 191.854C84.8158 181.426 102.049 181.174 102.049 181.174C102.049 181.174 116.784 196.213 120.147 195.965C123.513 195.716 110.049 180.637 110.049 180.637C116.285 178.739 134.053 183.308 134.053 183.308C134.053 183.308 137.054 203.709 140.254 202.636C143.454 201.563 136.679 184.707 136.679 184.707C143.203 185.323 150.386 191.381 150.386 191.381C159.908 201.682 146.248 213.432 146.248 213.432C146.248 213.432 147.44 220.48 153.351 227.65C153.351 227.65 154.619 228.939 156.11 231.262L154.432 231.6C154.205 231.176 153.967 230.77 153.716 230.384C153.716 230.381 153.715 230.378 153.712 230.377C153.709 230.371 153.704 230.365 153.7 230.361C153.533 230.123 153.294 229.785 152.998 229.376L152.997 229.375C152.997 229.373 152.995 229.373 152.995 229.373C152.282 228.469 151.788 227.793 151.462 227.299C151.46 227.298 151.46 227.296 151.459 227.295C149.291 224.44 146.257 220.763 144.608 220.195C144.608 220.195 144.741 219.895 144.812 219.35C144.747 219.619 144.679 219.9 144.608 220.195C142.968 226.955 128.815 230.875 120.485 230.837C112.156 230.797 115.192 227.829 118.766 223.284C122.34 218.738 131.559 217.891 133.939 215.913C136.318 213.933 132.132 213.275 126.881 214.761C121.629 216.246 120.03 222.14 111.579 224.699C103.128 227.257 93.3164 212.299 93.3164 212.299C99.6349 212.958 109.645 207.513 109.645 205.37C109.645 203.226 93.8891 206.61 91.304 206.488C88.7203 206.361 83.4269 202.283 84.1214 191.854Z" fill="#B6DFEC"/>
<path d="M63.5047 46.2232C71.5992 34.8478 91.2179 46.8617 91.2179 46.8617C91.2179 46.8617 97.2987 74.4987 101.267 76.6167C105.235 78.7348 100.622 51.9582 100.622 51.9582C108.988 54.2498 125.83 72.1318 125.83 72.1318C125.83 72.1318 114.913 97.4983 119.275 98.5612C123.638 99.624 127.812 75.6021 127.812 75.6021C134.739 80.9608 138.597 92.9805 138.597 92.9805C142.118 111.503 118.47 115.129 118.47 115.129C118.47 115.129 114.875 124.003 116.516 136.383C116.516 136.383 117.043 138.754 117.096 142.464L114.967 141.649C115.008 141.005 115.024 140.372 115.012 139.753C115.014 139.749 115.014 139.746 115.012 139.742C115.012 139.732 115.012 139.724 115.012 139.715C114.991 139.325 114.957 138.771 114.911 138.092V138.09C114.911 138.089 114.911 138.089 114.911 138.087C114.74 136.547 114.656 135.426 114.633 134.632C114.633 134.63 114.633 134.626 114.633 134.624C114.19 129.827 113.345 123.474 111.883 121.653C111.883 121.653 112.243 121.406 112.707 120.837C112.445 121.098 112.171 121.37 111.883 121.653C105.294 128.179 86.5778 122.537 77.2081 116.549C67.8384 110.56 73.3445 109.348 80.5635 106.725C87.7825 104.101 98.7775 109.719 102.85 109.163C106.922 108.607 102.662 104.871 95.6962 102.815C88.7303 100.756 82.7941 106.325 71.466 103.206C60.1379 100.085 59.5555 76.0554 59.5555 76.0554C66.2245 81.3139 81.3324 82.2629 82.8341 79.8227C84.3357 77.3825 64.188 69.9906 61.3579 68.0056C58.5258 66.0207 55.4121 57.5986 63.5047 46.2232Z" fill="#BCF7E2"/>
<path d="M190.974 221.371C188.199 212.892 201.869 207.182 201.869 207.182C201.869 207.182 218.426 214.381 221.03 213.109C223.636 211.837 208.081 204.198 208.081 204.198C212.451 200.702 228.086 198.64 228.086 198.64C228.086 198.64 236.993 213.837 239.204 211.963C241.414 210.091 230.627 198.909 230.627 198.909C236.03 197.312 243.694 199.812 243.694 199.812C254.58 204.926 247.432 218.598 247.432 218.598C247.432 218.598 250.632 223.797 257.637 227.586C257.637 227.586 259.06 228.201 260.991 229.564L259.761 230.368C259.445 230.105 259.124 229.859 258.801 229.633C258.8 229.632 258.798 229.63 258.795 229.63C258.789 229.627 258.784 229.623 258.781 229.62C258.571 229.485 258.274 229.295 257.907 229.064C257.907 229.064 257.906 229.064 257.906 229.062C257.906 229.062 257.904 229.062 257.904 229.061C257.046 228.572 256.435 228.196 256.018 227.91C256.016 227.91 256.015 227.908 256.015 227.906C253.375 226.338 249.779 224.397 248.283 224.473C248.283 224.473 248.294 224.193 248.177 223.738C248.211 223.972 248.246 224.217 248.283 224.473C249.133 230.349 239.09 237.98 232.432 240.611C225.774 243.243 227.248 239.922 228.649 235.18C230.049 230.437 237.135 226.82 238.403 224.491C239.67 222.163 236.12 222.98 232.403 225.836C228.687 228.692 229.294 233.869 223.368 238.598C217.441 243.326 204.838 234.617 204.838 234.617C210.09 233.118 216.339 225.607 215.653 223.91C214.969 222.214 203.479 229.93 201.377 230.659C199.275 231.389 193.749 229.851 190.974 221.371Z" fill="#CDE0FB"/>
<path opacity="0.6" d="M274.293 151.185C283.374 144.444 296.02 158.144 296.02 158.144C296.02 158.144 294.283 180.538 296.914 183.072C299.548 185.608 302.238 164.209 302.238 164.209C308.3 167.902 317.366 185.408 317.366 185.408C317.366 185.408 302.747 202.107 305.94 203.933C309.132 205.759 318.109 188.504 318.109 188.504C322.312 194.189 322.512 204.212 322.512 204.212C320.91 219.092 301.383 216.319 301.383 216.319C301.383 216.319 296.445 222.213 294.812 231.992C294.812 231.992 294.668 233.915 293.832 236.743L292.343 235.628C292.527 235.147 292.69 234.671 292.827 234.2C292.83 234.197 292.83 234.194 292.83 234.191C292.831 234.184 292.834 234.177 292.836 234.171C292.91 233.871 293.016 233.442 293.14 232.917V232.916C293.14 232.915 293.14 232.915 293.14 232.913C293.369 231.705 293.567 230.835 293.737 230.226C293.737 230.224 293.739 230.221 293.739 230.22C294.524 226.477 295.359 221.458 294.636 219.734C294.636 219.734 294.979 219.632 295.479 219.307C295.21 219.443 294.93 219.585 294.636 219.734C287.89 223.146 274.449 214.493 268.468 207.758C262.487 201.025 267.122 201.39 273.441 201.086C279.761 200.781 287.112 207.612 290.458 208.142C293.804 208.672 291.325 204.841 286.311 201.652C281.299 198.463 275.295 201.302 267.09 196.289C258.884 191.274 264.11 172.902 264.11 172.902C268.131 178.451 279.835 182.7 281.597 181.198C283.359 179.696 269.204 169.38 267.439 167.212C265.678 165.045 265.211 157.927 274.293 151.185Z" fill="#B6DFEC"/>
<path d="M68.6197 216.989H146.246V245.313H178.939V216.989H198.997V189.688H178.939V84.182H136.138L68.6197 190.16V216.989ZM146.878 189.688H103.05V188.43L145.614 121.318H146.878V189.688Z" fill="url(#paint0_linear)"/>
<g opacity="0.4">
<path d="M245.253 56.7688C245.352 56.597 245.663 56.6233 245.908 56.764C246.153 56.9048 246.217 57.1704 246.118 57.3421C246.085 57.3994 242.729 61.7187 239.554 69.4955C236.627 76.6529 233.255 88.3555 233.765 103.128C234.017 109.293 235.106 114.948 236.786 119.953L233.522 118.076C232.362 113.676 231.532 108.703 231.328 103.022C230.802 88.0882 235.045 75.4385 238.005 68.2239C241.213 60.3899 245.253 56.7688 245.253 56.7688Z" fill="#58DBDB"/>
<path d="M236.927 74.236C239.266 70.551 239.5 61.8448 234.943 55.7959C230.972 50.6171 229.648 46.5025 229.648 46.5025C229.648 46.5025 227.214 49.2189 226.083 53.4463C225.319 56.2836 226.787 61.0909 229.884 64.0144C235.198 69.1265 236.927 74.236 236.927 74.236Z" fill="#58DBDB"/>
<path d="M242.921 61.3755C247.78 57.8436 252.481 56.6598 253.683 51.1779C254.551 47.0286 257.449 42.7507 257.449 42.7507C257.449 42.7507 252.131 42.7416 248.083 44.3007C244.444 45.7144 242.435 48.8266 242.568 52.18C242.64 54.5075 242.921 61.3755 242.921 61.3755Z" fill="#58DBDB"/>
<path d="M232.808 96.8617C233.278 90.1968 234.549 79.877 231.266 74.6362C227.478 68.5723 224.184 65.9923 222.616 61.3568C222.616 61.3568 220.952 64.0581 219.163 69.0505C217.605 73.6421 217.578 80.1043 222.697 84.7997C229.12 90.626 232.808 96.8617 232.808 96.8617Z" fill="#58DBDB"/>
<path d="M259.427 59.5079C252.308 63.5694 238.218 63.6998 235.493 77.2984C235.493 77.2984 241.524 75.1262 245.745 75.3428C251.864 75.6596 255.74 72.3248 257.591 67.9783C258.946 64.8707 259.427 59.5079 259.427 59.5079Z" fill="#58DBDB"/>
<path d="M220.748 89.695C229.012 93.8359 230.424 100.44 231.878 104.706C233.464 109.124 234.615 115.426 235.238 119.061L233.361 117.982C231.376 115.012 228.055 110.968 223.207 107.877C207.784 97.8668 209.818 93.0148 203.579 82.3398C203.579 82.3398 214.313 86.5293 220.748 89.695Z" fill="#58DBDB"/>
<path d="M241.198 122.488L235.403 119.156C234.277 114.698 233.32 108.814 235.052 105.618C237.576 100.668 241.642 98.8902 248.907 99.1037C256.908 99.3594 257.371 98.1778 257.371 98.1778C257.371 98.1778 257.67 104.827 253.816 110.766C251.674 114.107 247.27 118.358 241.198 122.488Z" fill="#58DBDB"/>
<path d="M232.779 100.504C239.98 96.4889 247.911 97.9995 251.621 91.3683C254.573 86.054 260.86 85.3244 260.86 85.3244C260.86 85.3244 252.627 81.887 245.771 81.5279C239.571 81.1641 237.745 83.3914 234.914 87.1749C230.981 92.3063 232.779 100.504 232.779 100.504Z" fill="#58DBDB"/>
</g>
<path d="M343.154 221.782C341.254 224.039 338.663 226.458 335.379 229.039C332.094 231.626 327.97 234.027 323.008 236.244C318.043 238.463 312.188 240.321 305.437 241.811C298.685 243.299 290.931 244.048 282.172 244.048C271.876 244.048 262.481 242.355 253.978 238.974C245.475 235.588 238.192 230.621 232.134 224.072C226.076 217.523 221.388 209.481 218.066 199.951C214.743 190.419 213.083 179.504 213.083 167.204V157.818C213.083 145.519 214.669 134.585 217.847 125.017C221.02 115.449 225.51 107.387 231.312 100.838C237.113 94.2891 244.14 89.3044 252.386 85.8858C260.633 82.4671 269.796 80.7535 279.868 80.7535C290.231 80.7535 299.191 82.0469 306.748 84.6302C314.301 87.2134 320.613 90.8327 325.687 95.4881C330.761 100.147 334.718 105.715 337.565 112.19C340.411 118.665 342.274 125.762 343.15 133.474H311.18C310.522 129.474 309.502 125.853 308.114 122.616C306.725 119.377 304.829 116.611 302.42 114.321C300.012 112.031 297.037 110.264 293.496 109.027C289.955 107.79 285.742 107.169 280.854 107.169C269.612 107.169 261.073 111.408 255.234 119.885C249.393 128.362 246.475 140.934 246.475 157.6V167.206C246.475 183.872 249.647 196.459 255.998 204.973C262.348 213.486 271.656 217.742 283.918 217.742C287.86 217.742 291.289 217.49 294.21 216.979C297.128 216.468 299.628 215.833 301.708 215.068C303.787 214.305 305.519 213.469 306.906 212.558C308.294 211.648 309.426 210.756 310.302 209.883V182.487H280.415V158.361H343.148V221.782H343.154Z" fill="url(#paint1_linear)"/>
<path d="M293.924 47.0013C293.924 47.0013 295.98 50.0357 297.155 56.416C298.182 62.0028 299.083 64.0666 300.567 65.2123C302.051 66.358 310.318 69.741 310.318 69.741L309.699 71.1849C309.699 71.1849 297.581 69.5388 296.22 67.5205C294.86 65.5021 289.67 53.572 290.073 50.8241C290.477 48.0762 293.924 47.0013 293.924 47.0013Z" fill="#F4A269"/>
<path d="M323.599 113.648C323.489 114.826 325.135 115.112 327.041 115.208C328.947 115.303 328.371 115.692 330.982 116.164C333.593 116.635 334.64 115.923 334.83 115.571C334.999 115.259 333.784 114.77 332.489 114.219C332.327 114.15 332.163 114.08 332.001 114.009C330.544 113.37 329.728 112.068 328.592 110.862C327.517 109.718 326.495 106.057 326.495 106.057L322.946 105.302C322.946 105.302 323.943 108.597 324.288 110.004C324.491 110.831 324.192 111.756 323.925 112.461C323.781 112.841 323.636 113.234 323.599 113.648Z" fill="#FFB27D"/>
<path d="M327.039 115.209C328.945 115.303 328.369 115.692 330.98 116.164C333.591 116.636 334.639 115.923 334.828 115.571C334.997 115.259 333.782 114.771 332.488 114.22L332.467 114.241C332.467 114.241 330.63 114.863 328.511 114.289C326.784 113.82 325.113 112.791 323.923 112.459C323.779 112.841 323.634 113.234 323.597 113.648C323.489 114.828 325.135 115.114 327.039 115.209Z" fill="#C65447"/>
<path d="M288.258 71.6938C288.258 71.6938 311.84 69.9247 316.279 72.7181C320.719 75.5115 327.84 108.05 327.84 108.05C327.84 108.05 327.401 108.4 326.419 108.507C325.506 108.604 323.495 108.07 323.495 108.07C323.495 108.07 313.263 93.5119 312.541 89.8441C311.82 86.1763 311.997 82.9044 310.355 82.8168C308.714 82.7292 288.254 85.2968 285.158 79.8617C282.064 74.4265 284.623 69.0453 284.623 69.0453L288.258 71.6938Z" fill="#EF7E29"/>
<path d="M314.575 117.426C314.465 118.603 316.111 118.89 318.017 118.986C319.923 119.08 319.347 119.469 321.958 119.941C324.569 120.413 325.616 119.7 325.806 119.348C325.975 119.036 324.76 118.548 323.465 117.997C323.303 117.928 323.139 117.857 322.977 117.786C321.52 117.148 320.704 115.845 319.568 114.639C318.493 113.495 317.471 109.834 317.471 109.834L313.922 109.079C313.922 109.079 314.919 112.375 315.264 113.781C315.467 114.609 315.168 115.534 314.901 116.238C314.757 116.619 314.612 117.01 314.575 117.426Z" fill="#FFB27D"/>
<path d="M318.017 118.984C319.923 119.079 319.347 119.468 321.958 119.94C324.569 120.411 325.617 119.699 325.806 119.346C325.975 119.035 324.76 118.546 323.465 117.995L323.445 118.017C323.445 118.017 321.608 118.639 319.489 118.064C317.762 117.596 316.091 116.568 314.901 116.235C314.757 116.617 314.612 117.01 314.575 117.426C314.465 118.603 316.111 118.89 318.017 118.984Z" fill="#C65447"/>
<path d="M283.639 73.1494C283.639 73.1494 304.589 74.1384 308.915 77.1019C313.243 80.0655 319.087 112.855 319.087 112.855C319.087 112.855 318.634 113.189 317.649 113.256C316.733 113.318 314.745 112.707 314.745 112.707C314.745 112.707 305.089 97.7626 304.511 94.0695C303.935 90.3764 304.238 87.113 302.602 86.9614C300.964 86.8097 280.42 88.5821 277.541 83.0307C274.661 77.4793 283.639 73.1494 283.639 73.1494Z" fill="#F99746"/>
<path d="M291.104 27.1898C290.174 26.5782 289.02 26.4418 288.207 26.435C288.43 26.2345 288.846 26.184 288.846 26.184C288.349 26.0762 287.195 26.4991 287.195 26.4991C280.388 23.3502 278.605 33.5331 278.592 35.9255C278.578 38.3179 278.412 41.0607 274.783 42.9662C267.639 46.7149 272.939 54.4397 272.939 54.4397C272.991 54.4751 277.699 60.6903 277.699 60.6903C277.652 58.7528 285.317 48.4856 290.169 45.7512C291.411 44.1658 292.011 41.2579 292.057 41.0287C291.705 43.3419 291.218 44.6207 290.813 45.3317C294.99 41.9806 293.569 28.8106 291.104 27.1898Z" fill="#B5453C"/>
<path d="M282.759 43.5069C282.759 43.5069 284.71 43.3216 286.661 43.5069C287.986 43.6333 289.299 44.0427 290.047 44.3544C291.894 45.1243 291.7 48.3827 287.825 47.7796C283.95 47.1747 282.487 44.4723 282.759 43.5069Z" fill="#FFB27D"/>
<path d="M289.884 45.8827C289.906 45.8945 290.436 48.6862 287.9 48.575C286.235 48.5026 282.642 46.4926 282.96 45.0706C283.11 44.395 284.369 42.6412 284.623 38.6398L284.925 38.7206L290.022 40.0836C290.022 40.0836 289.796 41.696 289.691 43.2224C289.601 44.5062 289.598 45.726 289.884 45.8827Z" fill="#FFB27D"/>
<path d="M290.022 40.0853C290.022 40.0853 289.796 41.6976 289.691 43.2241C286.806 42.9511 285.454 40.2201 284.925 38.7223L290.022 40.0853Z" fill="#F4A269"/>
<path d="M284.428 38.1259C284.428 38.1259 283.073 35.6391 282.847 33.5752C282.684 32.101 283.79 26.7518 289.18 27.8907C289.18 27.8907 290.75 28.1519 292.17 29.2504C293.299 30.1248 294.889 31.9561 292.667 36.5405L292.065 38.0989L284.428 38.1259Z" fill="#B5453C"/>
<path d="M290.891 41.5949C290.891 41.5949 284.045 41.2529 284.324 37.0056C284.603 32.7582 283.908 29.8536 288.29 29.8924C292.674 29.9311 293.415 31.6075 293.667 33.048C293.921 34.4885 292.679 41.5747 290.891 41.5949Z" fill="#FFB27D"/>
<path d="M291.411 29.995C291.411 29.995 289.206 34.8523 286.282 35.3982C283.359 35.9441 282.164 35.0932 282.164 35.0932C282.164 35.0932 284.484 33.4944 285.147 30.4769C285.147 30.4786 290.157 27.5302 291.411 29.995Z" fill="#B5453C"/>
<path d="M290.921 30.3691C290.921 30.3691 292.244 31.5737 292.513 32.6789C292.782 33.7825 292.787 36.0199 293.442 35.9879C293.442 35.9879 295.08 32.6958 293.621 30.674C292.077 28.5293 290.921 30.3691 290.921 30.3691Z" fill="#B5453C"/>
<path d="M297.74 72.0475C297.185 72.7079 295.457 72.9101 293.606 73.2134C292.151 73.4526 290.624 73.7525 289.537 74.3894C287.07 75.8332 279.005 80.7158 276.643 80.4934C275.727 80.4075 275.898 78.6637 276.454 76.3505C277.327 72.6961 279.156 67.6215 279.156 65.4161C279.156 64.2115 279.558 61.3625 280.094 58.1041C280.138 57.8413 280.182 57.5768 280.227 57.3089C281.289 50.9741 282.759 43.5054 282.759 43.5054C282.759 43.5054 284.398 47.0721 287.594 47.0721C290.787 47.0721 290.046 44.3511 290.046 44.3511C290.046 44.3511 292.961 44.6932 293.65 45.4328C294.34 46.1724 296.085 49.3701 296.433 50.2412C296.433 50.2412 296.504 51.3515 293.748 51.8788C293.748 51.8788 294.419 54.8912 294.498 56.8978C294.558 58.3804 293.483 63.022 293.175 65.9098C293.065 66.9325 293.052 67.7344 293.218 68.0983C293.43 68.565 294.12 69.03 294.904 69.4849C296.462 70.393 298.397 71.2624 297.74 72.0475Z" fill="#1C468A"/>
<path d="M294.904 69.4883C296.673 72.4939 290.108 73.3987 289.022 74.0338C286.554 75.4777 279.007 80.7157 276.643 80.4933C275.727 80.4074 275.898 78.6636 276.454 76.3504C277.327 72.6961 279.156 67.6215 279.156 65.4161C279.156 64.2115 279.558 61.3625 280.094 58.1041L282.938 55.3815C282.938 55.3815 285.986 63.236 288.891 64.5232C290.414 65.1971 292.004 65.6419 293.174 65.9131C293.064 66.9358 293.05 67.7378 293.216 68.1017C293.43 68.5684 294.12 69.0334 294.904 69.4883Z" fill="#163560"/>
<path d="M281.885 45.8573C281.885 45.8573 279.453 44.3848 277.101 47.1782C274.749 49.9716 278.772 69.9398 282.257 70.9658C286.127 72.1048 297.309 70.7839 297.309 70.7839L297.094 69.0418C297.094 69.0418 285.192 66.7673 284.697 66.1322C284.2 65.4987 283.121 46.1791 281.885 45.8573Z" fill="#FFB27D"/>
<path d="M282.759 43.507C282.759 43.507 277.763 43.9568 276.313 45.5944C274.864 47.232 274.439 51.6715 274.439 51.6715C274.439 51.6715 278.838 55.2112 284.138 53.8381L282.759 43.507Z" fill="#1C468A"/>
<path d="M305.072 71.7173H298.475V72.494H305.072V71.7173Z" fill="#9E332E"/>
<path d="M303.671 72.3878C303.736 72.13 309.736 62.7373 309.736 62.7373H323.088L316.391 72.1368L303.671 72.3878Z" fill="#9E332E"/>
<path d="M304.234 72.4957C304.298 72.2379 310.317 62.739 310.317 62.739H323.088L316.717 72.4957H304.234Z" fill="#B5453C"/>
<path d="M315.49 67.6486C315.358 68.0293 314.943 68.3376 314.561 68.3376C314.179 68.3376 313.976 68.0293 314.108 67.6486C314.24 67.2678 314.655 66.9595 315.037 66.9595C315.419 66.9578 315.622 67.2678 315.49 67.6486Z" fill="#9E332E"/>
<path d="M296.121 68.9391C296.121 68.9391 299.996 68.191 300.433 68.378C300.871 68.565 303.31 70.7469 303.06 71.1832C302.809 71.6196 301.809 71.9313 300.684 71.5572C299.558 71.1832 297.121 70.9962 296.684 70.4352C296.246 69.8741 296.121 68.9391 296.121 68.9391Z" fill="#FFB27D"/>
<path d="M83.6833 142.042C83.1324 143.521 82.176 145.236 81.1722 145.664C80.0349 146.147 79.56 146.831 79.56 146.831L78.6407 146.299L77.5439 145.664C77.5439 145.664 77.5693 145.543 77.6234 145.344C77.6758 145.147 77.7586 144.872 77.8701 144.569C77.8701 144.569 78.2064 144.138 78.0002 143.595C77.7941 143.054 77.8346 142.217 78.1878 141.706C78.5393 141.198 78.879 139.941 79.0919 139.978C79.6056 140.065 78.8401 141.792 79.0598 142.112C79.2575 142.402 79.5059 142.303 79.5532 142.281C79.5566 142.279 79.5583 142.278 79.5617 142.276C81.0015 141.644 82.7471 138.244 83.5194 138.702C83.8067 138.876 83.9182 141.412 83.6833 142.042Z" fill="#FFB27D"/>
<path d="M78.7049 144.1L80.508 145.364C80.6347 145.453 80.8122 145.423 80.9017 145.295L85.5202 138.743C85.6098 138.616 85.5794 138.439 85.4509 138.35L83.6478 137.087C83.5211 136.997 83.3436 137.028 83.2541 137.156L78.6356 143.708C78.546 143.834 78.5764 144.011 78.7049 144.1Z" fill="#EE0033"/>
<path d="M80.3559 145.258L81.4121 145.999C81.5084 146.067 81.6436 146.043 81.7129 145.947L86.4091 139.284C86.4767 139.188 86.453 139.053 86.3567 138.984L85.3005 138.242C85.2042 138.175 85.069 138.199 84.9997 138.295L80.3035 144.958C80.2342 145.054 80.2579 145.189 80.3559 145.258Z" fill="#0B989C"/>
<path d="M52.8375 134.698C52.8375 134.698 62.0119 150.653 65.341 153.588L77.5454 144.517C77.5454 144.517 79.3164 145.057 80.0921 146.83C80.0921 146.83 72.6802 161.883 65.3832 162.522C58.0863 163.161 47.8438 144.478 47.8438 144.478L52.8375 134.698Z" fill="#1F6F88"/>
<path d="M32.0754 243.212H26.7742C26.1067 242.849 25.5119 242.024 25.3243 240.791C25.0658 239.087 23.1511 238.159 22.7371 236.767C22.3231 235.376 24.4456 233.415 24.4456 233.415L24.8004 232.958L25.1688 232.485L28.6872 233.31C28.6872 233.31 28.7751 234.146 28.8275 235.211C28.8663 235.979 28.8866 236.865 28.8427 237.643C28.7396 239.5 29.3632 241.5 31.0193 241.862C32.2411 242.128 32.187 242.851 32.0754 243.212Z" fill="#233862"/>
<path d="M62.8398 243.212H50.7165C50.1335 242.502 50.3481 239.884 50.436 239.03C50.4546 238.858 50.4664 238.757 50.4664 238.757C50.4664 238.757 54.6066 235.457 55.1745 237.984C55.1914 238.063 55.2133 238.141 55.2353 238.216C55.9518 240.58 59.1643 241.655 61.0215 241.955C62.2298 242.15 62.6742 242.775 62.8398 243.212Z" fill="#233862"/>
<path d="M60.53 175.744C60.53 175.744 59.9014 183.563 59.1629 192.963C58.1591 205.73 56.9508 221.414 56.8309 224.384C56.6247 229.543 55.7949 237.795 55.7949 237.795C55.7949 237.795 53.8296 239.756 49.8972 238.929C49.8972 238.929 46.3924 227.149 45.392 214.683C45.3767 214.479 45.3615 214.274 45.3446 214.067C44.4135 201.378 42.9653 174.657 42.9653 174.657L60.53 175.744Z" fill="#F99746"/>
<path d="M60.53 175.744C60.53 175.744 59.9014 183.563 59.1629 192.963L45.392 214.686C45.3767 214.483 45.3615 214.277 45.3446 214.07C44.4135 201.382 42.9653 174.661 42.9653 174.661L60.53 175.744Z" fill="#ED7D2B"/>
<path d="M57.6589 176.674C57.6589 176.674 46.3281 204.992 38.8774 218.3C31.4266 231.609 29.0996 235.322 29.0996 235.322C29.0996 235.322 24.831 233.62 24.444 232.459C24.444 232.459 27.2931 206.768 32.2817 200.504C35.1005 196.966 38.4127 186.345 38.5681 182.632C38.7236 178.918 39.577 171.568 39.577 171.568L57.6589 176.674Z" fill="#F99746"/>
<path d="M54.8382 135.392C50.4106 136.785 42.7487 133.026 42.7487 133.026C42.7487 133.026 46.8314 129.972 46.6168 123.62L50.0406 126.371L52.3658 128.24C52.3658 128.24 52.3557 129.342 52.1022 131.271C52.0346 131.778 51.9518 132.344 51.8454 132.962C53.7482 134.002 54.8382 135.392 54.8382 135.392Z" fill="#FFB27D"/>
<path d="M52.3675 128.238C52.3675 128.238 52.3574 129.34 52.1039 131.269C49.5268 130.828 46.605 126.676 46.605 126.676C47.9163 126.299 49.0655 126.232 50.0422 126.37L52.3675 128.238Z" fill="#ED975D"/>
<path d="M53.7213 128.134C53.7213 128.134 46.4074 129.345 45.7213 124.793C45.0353 120.24 43.6293 117.331 48.2697 116.365C52.9102 115.4 54.0813 117 54.6812 118.465C55.2811 119.927 55.6072 127.701 53.7213 128.134Z" fill="#FFB27D"/>
<path d="M61.0181 176.396C60.8846 176.507 60.7308 176.573 60.5534 176.573C58.8905 176.551 54.0422 177.471 49.9392 177.052C46.4799 176.721 43.4195 175.699 40.1327 174.23C39.6967 174.034 38.6912 173.5 38.7132 173.013C38.7284 172.481 38.7808 171.708 38.8484 170.735C39.0816 167.352 39.4872 161.533 39.0917 154.821C39.0207 153.571 38.9836 152.331 38.9785 151.111C38.9447 142.013 40.7546 134.01 44.3895 131.303C44.7005 131.08 46.6067 132.01 48.3591 132.871C49.978 133.667 51.597 133.756 53.1263 133.448L54.6557 134.795C56.5179 136.519 58.5576 138.862 59.4448 142.421C60.1985 145.448 60.6413 150.909 60.8863 156.568C60.9962 159.132 61.0857 161.718 61.1094 164.173V164.261C61.1313 164.503 61.1313 164.77 61.1313 165.012C61.2192 171.312 61.1297 176.307 61.0181 176.396Z" fill="#257E99"/>
<path d="M38.8485 170.735C39.0817 167.352 39.4873 161.533 39.0919 154.821C39.0209 153.571 38.9837 152.331 38.9786 151.111C40.4928 147.448 41.7315 144.791 41.7315 144.791H45.549C45.549 144.791 48.3474 163.851 38.8485 170.735Z" fill="#1F6F88"/>
<path d="M31.6733 171.391C31.6733 171.391 30.8183 172.526 30.7845 172.979C30.5546 176.054 31.964 176.48 28.3155 178.189C28.3155 178.189 26.7574 178.782 26.7304 177.576C26.7034 176.369 27.8119 176.349 27.6092 174.663C27.3759 172.715 27.3996 172.696 28.6805 171.68L29.5289 170.282L31.6733 171.391Z" fill="#FFB27D"/>
<path d="M29.4984 172.26C30.8739 172.526 32.3627 172.419 32.3627 172.419C32.3627 172.419 36.4438 159.848 36.9694 158.699C37.4949 157.55 49.0927 143.961 49.0927 143.961L44.2613 131.906C44.2613 131.906 31.7172 152.797 30.443 155.732C28.3374 160.583 27.6074 171.458 27.6074 171.458C27.6074 171.458 28.4185 172.051 29.4984 172.26Z" fill="#257E99"/>
<path d="M45.7162 124.355C45.7162 124.355 46.4665 124.23 46.3465 123.199C46.2249 122.168 46.2266 120.822 47.0681 121.073C47.908 121.324 47.9503 121.994 48.295 121.603C48.6397 121.211 48.6465 119.561 51.1475 119.447C53.6486 119.332 54.6642 120.2 55.8269 119.689C56.9895 119.179 57.052 117.425 57.052 117.425C57.052 117.425 56.7208 118.052 56.2223 118.251C56.2223 118.251 58.1623 115.605 55.9164 113.791C53.6706 111.976 51.3791 113.164 50.0795 113.243C47.2152 113.417 45.3647 113.587 44.4302 115.464C43.4923 117.339 43.8776 122.549 45.7162 124.355Z" fill="#465579"/>
<path d="M30.3247 172.742C30.3247 172.742 31.1476 173.598 31.2 173.953C31.3673 175.095 31.7492 175.589 31.5583 175.714C31.1595 175.972 30.6322 175.126 30.3787 174.366C30.1269 173.609 30.3247 172.742 30.3247 172.742Z" fill="#FFB27D"/>
<path d="M192.623 154.279C192.623 154.205 193.708 151.969 193.363 151.796C193.019 151.622 192.4 151.649 192.327 152.042C192.257 152.434 192.623 154.279 192.623 154.279Z" fill="#FFB27D"/>
<path d="M208.821 126.478C208.821 126.478 215.183 118.856 218.551 123.734C218.551 123.734 221.064 124.773 221.973 129.038C222.901 133.388 219.998 136.695 218.499 135.878C217.535 135.354 216.807 137.032 216.807 137.032L208.821 126.478Z" fill="#233862"/>
<path d="M200.929 167.04C195.871 165.182 190.999 156.552 190.999 156.552L192.594 155.438C193.923 157.376 199.9 161.096 199.9 161.096C200.037 159.463 200.234 157.981 200.479 156.64C202.139 147.52 205.934 144.818 206.954 144.245C207.117 144.152 207.21 144.115 207.21 144.115C207.21 144.115 207.207 144.182 207.199 144.309C207.183 144.583 207.151 145.136 207.099 145.894C206.705 151.542 205.155 168.593 200.929 167.04Z" fill="#FFB27D"/>
<path d="M217.855 122.961C217.855 122.961 218.71 119.549 223.736 120.615C223.736 120.615 221.329 120.314 220.67 121.237C220.67 121.237 222.576 120.366 223.771 121.095C224.966 121.823 225.162 124.276 224.983 125.023C224.805 125.769 223.486 127.99 222.612 127.99C221.738 127.99 220.706 127.226 220.706 127.226L217.855 122.961Z" fill="#233862"/>
<path d="M225.377 176.352C222.877 170.765 221.683 169.185 221.64 167.427C221.607 166.037 222.294 164.538 223.631 160.86C223.945 159.994 224.162 159.103 224.297 158.201C225.353 151.11 221.24 143.446 218.685 142.924C217.973 142.737 216.768 140.176 216.784 136.048L216.464 136.11L211.082 137.173C211.082 137.173 211.204 138.862 211.209 140.454C211.212 141.78 211.133 143.037 210.83 143.195C210.443 143.23 210.213 143.252 210.213 143.252C210.213 143.252 205.725 149.466 205.348 155.245C204.971 161.023 208.942 163.534 205.318 175.083C201.615 186.877 226.756 179.438 225.377 176.352Z" fill="#FFB27D"/>
<path d="M211.078 137.173C211.078 137.173 211.2 138.862 211.205 140.454C214.217 140.37 215.808 137.63 216.461 136.112L211.078 137.173Z" fill="#E8945B"/>
<path d="M217.017 135.526C217.017 135.526 218.595 133.039 218.974 130.913C219.244 129.395 218.468 123.769 212.797 124.58C212.797 124.58 211.149 124.741 209.601 125.784C208.369 126.613 206.593 128.402 208.581 133.314L209.096 134.971L217.017 135.526Z" fill="#233862"/>
<path d="M210.071 138.68C210.071 138.68 217.198 138.798 217.203 134.372C217.208 129.946 218.131 126.981 213.581 126.719C209.032 126.458 208.147 128.145 207.783 129.622C207.422 131.098 208.219 138.535 210.071 138.68Z" fill="#FFB27D"/>
<path d="M210.336 126.61C210.336 126.61 212.288 131.802 215.281 132.569C218.276 133.337 219.573 132.537 219.573 132.537C219.573 132.537 217.277 130.717 216.8 127.543C216.8 127.543 211.808 124.138 210.336 126.61Z" fill="#233862"/>
<path d="M210.82 127.031C210.82 127.031 209.363 128.19 209.008 129.317C208.653 130.444 208.493 132.764 207.815 132.685C207.815 132.685 206.345 129.155 207.998 127.161C209.747 125.043 210.82 127.031 210.82 127.031Z" fill="#233862"/>
<path d="M219.067 229.965C217.274 237.075 214.575 242.527 214.575 242.527L212.224 242.365C212.224 242.365 213.377 236.9 213.311 229.515C213.263 224.353 212.623 218.251 210.578 212.425C203.547 192.404 204.684 177.833 204.684 177.833L217.907 179.374L218.522 179.447C218.578 185.5 218.734 193.72 218.872 200.149C218.994 205.93 219.1 210.26 219.1 210.26C221.64 215.717 220.716 223.421 219.067 229.965Z" fill="#025384"/>
<path d="M234.644 182.285L232.505 182.926C232.505 182.926 225.448 171.252 224.805 168.214C224.596 167.225 224.082 165.245 223.484 163.028C222.245 158.437 220.645 152.818 220.645 152.818L220.118 150.544L218.321 142.787C218.321 142.787 221.76 143.138 223.773 143.977C224.439 144.255 224.947 144.585 225.125 144.972C226.603 148.212 228.079 156.39 229.116 162.223C229.694 165.475 230.135 167.998 230.365 168.532C231.007 170.027 232.968 178.235 234.644 182.285Z" fill="#FFB27D"/>
<path d="M226.652 228.83C225.892 236.918 222.544 242.15 222.544 242.15L221.422 242.963C221.422 242.963 220.359 237.264 219.607 230.484C218.891 224.04 217.909 217.22 216.799 215.137C212.39 206.882 211.062 175.717 211.062 175.717L224.467 175.054C225.816 177.314 226.404 181.02 226.543 185.236C226.896 195.872 224.388 209.741 224.013 211.746C224.013 211.748 224.013 211.748 224.011 211.751C223.982 211.906 224.026 212.059 224.099 212.199C226.767 217.464 227.153 223.486 226.652 228.83Z" fill="#00649F"/>
<path d="M210.548 127.206C210.548 127.206 211.939 132.643 215.716 134.385C215.716 134.385 211.937 131.044 211.616 127.455C211.297 123.867 210.548 127.206 210.548 127.206Z" fill="#233862"/>
<path d="M227.056 180.385C227.08 180.835 227.054 181.195 226.973 181.453C226.688 182.348 225.708 182.756 223.34 182.511C221.894 182.361 221.248 179.942 220.959 177.88C220.089 180.831 218.872 182.488 217.299 182.836C215.002 183.345 203.421 184.749 202.663 179.261C201.829 173.225 204.325 162.535 204.462 156.771C204.123 154.727 204.006 152.953 204.042 151.43C204.138 147.324 205.346 145.023 206.276 144.096C206.539 143.894 206.803 143.769 207.859 143.589C208.4 143.498 209.147 143.392 210.208 143.252C210.208 143.252 210.641 143.203 210.63 143.22C210.434 143.569 207.812 147.53 208.016 148.547C208.231 149.614 217.534 148.654 218.176 148.067C218.818 147.481 219.832 142.991 219.832 142.991C219.832 142.991 223.125 143.35 224.738 144.519C224.738 144.519 224.731 144.526 224.721 144.539C224.915 144.679 225.06 144.826 225.145 144.984C226.864 148.248 228.58 156.483 229.789 162.358C226.862 163.965 224.305 163.486 223.512 163.274C224.55 170.039 226.902 177.302 227.056 180.385Z" fill="#F99746"/>
<path d="M192.594 155.438C192.594 155.219 192.779 152.045 192.212 151.378C191.646 150.711 190.489 149.764 190.125 149.793C189.762 149.821 188.339 151.706 188.767 153.152C189.194 154.596 191.001 156.552 191.001 156.552L192.594 155.438Z" fill="#FFB27D"/>
<path d="M195.193 151.557L191.895 152.542C191.785 152.574 191.67 152.514 191.638 152.404L189.752 146.133C189.72 146.024 189.781 145.909 189.89 145.877L193.189 144.892C193.299 144.86 193.414 144.92 193.446 145.03L195.332 151.301C195.364 151.408 195.302 151.523 195.193 151.557Z" fill="#F1A34F"/>
<path d="M194.335 151.812L191.342 152.707C191.148 152.764 190.943 152.655 190.886 152.461L189.093 146.495C189.035 146.301 189.145 146.097 189.34 146.04L192.332 145.146C192.527 145.088 192.731 145.198 192.789 145.392L194.582 151.357C194.639 151.549 194.529 151.753 194.335 151.812Z" fill="#D86713"/>
<path d="M226.652 228.83C225.892 236.918 222.544 242.15 222.544 242.15L221.402 243.188C221.402 243.188 220.359 237.264 219.607 230.484C220.4 230.541 223.891 230.668 226.652 228.83Z" fill="#FFB27D"/>
<path d="M219.067 229.965C217.274 237.075 214.575 242.527 214.575 242.527L212.224 242.365C212.224 242.365 213.377 236.9 213.311 229.516C214.109 229.915 215.754 230.321 219.067 229.965Z" fill="#D9935C"/>
<path d="M215.928 244.491H214.428C213.926 244.412 213.554 244.267 213.039 244.2C212.256 244.097 211.896 244.417 211.824 244.491C211.813 244.502 211.81 244.507 211.81 244.507H205.437C205.277 244.279 205.431 243.75 205.581 243.361C205.682 243.096 205.904 242.896 206.178 242.817C206.854 242.621 208.185 242.448 209.405 241.346C210.091 240.728 212.721 239.071 212.721 239.071L212.734 239.068C212.792 239.07 213.067 239.154 214.262 240.16C214.881 240.679 215.933 239.427 215.933 239.427C215.933 239.427 216.131 239.59 216.278 239.894C216.396 240.133 216.483 240.463 216.415 240.869C216.32 241.442 216.626 242.505 216.871 243.225C217.02 243.661 217.145 243.969 217.145 243.969C217.145 243.969 217.218 244.33 215.928 244.491Z" fill="#233862"/>
<path d="M216.28 239.894C215.922 240.145 215.166 240.642 214.664 240.706C213.987 240.795 212.721 239.071 212.721 239.071L212.735 239.068C212.792 239.07 213.067 239.154 214.262 240.16C214.881 240.679 215.933 239.427 215.933 239.427C215.933 239.427 216.131 239.59 216.28 239.894Z" fill="#466AA5"/>
<path d="M215.928 244.491H214.428C213.926 244.412 213.554 244.267 213.039 244.2C212.256 244.097 211.896 244.417 211.824 244.491C211.813 244.502 211.81 244.507 211.81 244.507H205.437C205.277 244.279 205.431 243.75 205.581 243.361C205.775 243.189 205.83 244.106 205.936 244.252C206.042 244.399 211.134 244.306 211.428 244.092C211.722 243.878 212.604 243.506 213.835 243.799C214.904 244.053 216.483 243.4 216.873 243.226C217.022 243.663 217.147 243.971 217.147 243.971C217.147 243.971 217.218 244.33 215.928 244.491Z" fill="#466AA5"/>
<path d="M223.933 244.491H222.433C221.931 244.412 221.559 244.267 221.044 244.2C220.261 244.097 219.901 244.417 219.829 244.491C219.818 244.502 219.815 244.507 219.815 244.507H213.442C213.282 244.279 213.436 243.75 213.586 243.361C213.687 243.096 213.909 242.896 214.183 242.817C214.859 242.621 216.19 242.448 217.41 241.346C218.096 240.728 220.726 239.071 220.726 239.071L220.739 239.068C220.797 239.07 221.072 239.154 222.267 240.16C222.886 240.679 223.938 239.427 223.938 239.427C223.938 239.427 224.136 239.59 224.283 239.894C224.402 240.133 224.488 240.463 224.42 240.869C224.325 241.442 224.631 242.505 224.876 243.225C225.025 243.661 225.15 243.969 225.15 243.969C225.15 243.969 225.224 244.33 223.933 244.491Z" fill="#233862"/>
<path d="M224.285 239.894C223.927 240.145 223.171 240.642 222.669 240.706C221.992 240.795 220.726 239.071 220.726 239.071L220.739 239.068C220.797 239.07 221.072 239.154 222.267 240.16C222.886 240.679 223.938 239.427 223.938 239.427C223.938 239.427 224.138 239.59 224.285 239.894Z" fill="#466AA5"/>
<path d="M223.933 244.491H222.433C221.931 244.412 221.559 244.267 221.044 244.2C220.261 244.097 219.901 244.417 219.829 244.491C219.818 244.502 219.815 244.507 219.815 244.507H213.442C213.282 244.279 213.436 243.75 213.586 243.361C213.78 243.189 213.835 244.106 213.941 244.252C214.047 244.399 219.139 244.306 219.433 244.092C219.727 243.878 220.609 243.506 221.84 243.799C222.909 244.053 224.488 243.4 224.878 243.226C225.027 243.663 225.152 243.971 225.152 243.971C225.152 243.971 225.224 244.33 223.933 244.491Z" fill="#466AA5"/>
<path d="M227.056 180.385C225.466 179.856 223.425 178.446 220.973 175.289C214.482 166.925 220.422 157.098 221.218 156.914C222.014 156.731 223.513 163.273 223.513 163.273C224.55 170.039 226.903 177.302 227.056 180.385Z" fill="#EF7E29"/>
<path d="M206.676 143.908C206.676 143.908 202.232 146.137 200.751 155.135C200.751 155.135 202.206 157.125 204.258 157.711C204.55 157.795 204.856 157.851 205.17 157.866C207.687 158.001 206.676 143.908 206.676 143.908Z" fill="#F99746"/>
<path d="M189.784 150.037C189.784 150.037 191.158 147.929 191.493 148.047C191.972 148.214 190.247 150.888 190.247 150.888C190.247 150.888 191.525 148.89 191.724 149.04C192.179 149.382 191.455 150.637 190.737 151.6C190.737 151.6 192.021 150.428 192.064 150.638C192.211 151.378 190.653 153.172 190.653 153.172L189.782 151.191V150.037H189.784Z" fill="#FFB27D"/>
<path d="M188.755 151.993C188.821 151.735 189.157 146.703 189.301 147.181C189.445 147.658 189.786 150.296 189.786 150.296L188.755 151.993Z" fill="#FFB27D"/>
<path d="M211.464 136.052C211.464 136.052 211.34 136.574 210.039 136.493C210.039 136.493 208.946 136.426 208.98 135.853C208.981 135.853 210.041 135.445 211.464 136.052Z" fill="white"/>
<path d="M234.644 182.286C234.644 182.286 237.224 183.996 237.62 184.717C238.014 185.438 238.935 188.093 238.935 188.093C238.935 188.093 238.277 188.191 237.62 187.044C236.963 185.896 234.793 185.996 234.069 185.372C233.346 184.749 232.505 182.924 232.505 182.924L234.644 182.286Z" fill="#FFB27D"/>
<path d="M232.785 183.49C232.785 183.49 233.214 185.505 233.74 186.095C234.265 186.685 234.989 187.668 235.284 187.406C235.58 187.143 234.955 184.947 234.955 184.947L232.785 183.49Z" fill="#FFB27D"/>
<path d="M237.256 184.948C237.322 185.045 239.59 187.449 239.59 187.449C239.59 187.449 238.769 187.82 238.539 187.449C238.309 187.077 237.256 184.948 237.256 184.948Z" fill="#FFB27D"/>
<path d="M365.4 196.631V240.417C365.4 242.167 363.974 243.599 362.231 243.599H327.396C325.653 243.599 324.228 242.167 324.228 240.417V181.643C324.228 179.893 325.654 178.461 327.396 178.461H349.645C351.591 178.461 353.437 179.324 354.69 180.82L363.458 191.287C364.712 192.783 365.4 194.676 365.4 196.631Z" fill="white"/>
<path d="M359.802 209.803V235.092C359.802 236.842 358.376 238.274 356.633 238.274H332.994C331.251 238.274 329.826 236.842 329.826 235.092V209.803C329.826 208.053 331.252 206.622 332.994 206.622H356.633C358.376 206.622 359.802 208.054 359.802 209.803Z" fill="#FEDC00"/>
<path d="M360.091 209.803V235.092C360.091 237.007 358.54 238.565 356.633 238.565H332.994C331.087 238.565 329.536 237.007 329.536 235.092V209.803C329.536 207.889 331.087 206.331 332.994 206.331H356.633C358.54 206.331 360.091 207.889 360.091 209.803ZM330.115 235.092C330.115 236.686 331.406 237.983 332.994 237.983H356.633C358.22 237.983 359.512 236.686 359.512 235.092V209.803C359.512 208.209 358.221 206.912 356.633 206.912H332.994C331.407 206.912 330.115 208.209 330.115 209.803V235.092Z" fill="#5E6060"/>
<path d="M345.103 206.622H344.524V238.274H345.103V206.622Z" fill="#5E5F5F"/>
<path d="M352.285 206.622V214.353C352.285 216.095 350.874 217.513 349.14 217.513H340.487C338.753 217.513 337.342 216.095 337.342 214.353V206.622H337.921V214.353C337.921 215.775 339.072 216.931 340.487 216.931H349.14C350.555 216.931 351.706 215.775 351.706 214.353V206.622H352.285Z" fill="#5E5F5F"/>
<path d="M352.285 230.542V238.274H351.706V230.542C351.706 229.121 350.555 227.964 349.14 227.964H340.487C339.072 227.964 337.921 229.121 337.921 230.542V238.274H337.342V230.542C337.342 228.8 338.753 227.383 340.487 227.383H349.14C350.874 227.383 352.285 228.8 352.285 230.542Z" fill="#5E5F5F"/>
<path d="M337.631 231.627H329.825V232.209H337.631V231.627Z" fill="#5E5F5F"/>
<path d="M359.801 231.627H351.996V232.209H359.801V231.627Z" fill="#5E5F5F"/>
<path d="M337.631 212.661H329.825V213.242H337.631V212.661Z" fill="#5E5F5F"/>
<path d="M359.801 212.661H351.996V213.242H359.801V212.661Z" fill="#5E5F5F"/>
<path d="M377.782 197.819C377.782 197.819 390.639 203.404 392.973 203.302C395.306 203.201 409.686 198.935 409.686 198.935L409.319 201.401C409.319 201.401 398.221 207.765 394.341 208.125C390.522 208.481 377.461 204.707 376.2 203.912C374.94 203.115 374.117 198.625 377.782 197.819Z" fill="#ED985F"/>
<path d="M375.851 177.275C375.851 177.275 371.107 176.377 368.746 178.097C364.467 181.212 364.238 191.953 362.634 193.552C361.03 195.15 357.164 194.468 356.821 202.747C356.476 211.026 358.36 211.717 356.116 215.414C353.872 219.11 357.066 222.808 357.066 222.808C357.066 222.808 355.758 220.768 356.319 219.295C356.319 219.295 356.863 222.545 358.933 223.307C361.003 224.068 361.311 224.628 361.64 225.745C361.64 225.745 379.306 216.719 379.325 210.319C379.344 203.918 382.801 197.577 381.104 194.803C381.104 194.803 381.86 195.99 381.953 197.31C381.953 197.31 382.972 195.364 381.206 193.553C379.44 191.742 383.278 187.993 382.708 183.652C382.318 180.67 380.221 177.405 375.851 177.275Z" fill="#233862"/>
<path d="M379.343 203.918C378.215 204.7 376.798 205.344 375.021 205.753C368.359 207.288 365.806 201.674 364.846 197.821C365.755 197.302 366.608 197.189 367.104 197.13C367.585 197.073 368.092 197.036 368.511 197.016C369.26 196.444 370.373 194.106 370.62 190.477L370.933 190.561L376.183 191.993C376.183 191.993 375.943 193.658 375.825 195.23C375.734 196.461 375.72 197.637 375.954 197.925C376.362 198.015 376.609 198.072 376.609 198.072C376.609 198.072 376.609 198.074 376.613 198.077C376.684 198.188 378.208 200.685 379.343 203.918Z" fill="#FFB27D"/>
<path d="M376.185 191.99C376.185 191.99 375.944 193.653 375.827 195.226C372.853 194.93 371.472 192.106 370.935 190.558L376.185 191.99Z" fill="#ED985F"/>
<path d="M377.074 193.552C377.074 193.552 370.014 193.163 370.323 188.784C370.634 184.403 369.931 181.404 374.451 181.467C378.972 181.529 379.729 183.263 379.982 184.75C380.238 186.236 378.919 193.54 377.074 193.552Z" fill="#FFB27D"/>
<path d="M379.949 182.299C378.953 180.904 378.108 181.133 377.618 181.497C373.916 179.108 371.207 182.055 371.207 182.055C370.509 185.163 368.106 186.801 368.106 186.801C368.106 186.801 369.334 187.683 372.352 187.136C373.275 186.969 374.129 186.384 374.872 185.657C373.529 187.576 371.793 188.902 371.793 188.902C375.45 187.523 377.224 182.717 377.404 182.208C377.806 182.624 378.595 183.522 378.794 184.361C379.066 185.502 380.236 187.284 380.913 187.254C380.913 187.256 381.442 184.391 379.949 182.299Z" fill="#233862"/>
<path d="M362.837 218.23C362.199 214.981 360.119 201.997 362.199 197.819C362.946 196.318 365.877 196.183 369.091 196.315C370.091 196.958 373.902 199.391 375.468 199.088C375.485 199.084 375.516 199.078 375.556 199.068C376.293 198.884 376.572 198.367 375.957 197.922C375.955 197.92 377.549 197.769 379.526 198.139C380.643 198.348 383.654 199.903 383.654 199.903C383.654 199.903 382.137 202.634 379.901 203.578C380.281 206.969 379.715 208.465 376.187 216.3C373.204 222.923 376.589 228.883 376.589 228.883C376.589 228.883 359.033 242.957 358.935 235.791C358.86 230.398 363.651 222.384 362.837 218.23Z" fill="#F99746"/>
<path d="M377.458 244.188C378.413 244.081 379.273 243.56 379.807 242.763C379.891 242.637 379.982 242.5 380.079 242.355C382.078 239.339 382.855 230.102 387.35 220.261C388.445 217.865 392.376 217.434 393.448 214.726C393.448 214.726 396.085 205.949 388.398 205.689C380.711 205.43 367.812 230.114 367.609 232.701C367.411 235.21 362.526 245.868 377.458 244.188Z" fill="#19647B"/>
<path d="M408.009 243.986H397.069C397.069 243.986 396.66 242.246 397.378 241.063C398.014 240.015 397.77 239.419 397.299 238.553C397.794 238.755 398.436 238.938 399.141 238.898C399.687 238.866 400.263 238.62 400.768 238.327C401.24 238.863 403.256 241.14 403.886 241.592C404.601 242.104 407.788 241.92 408.009 243.986Z" fill="#9E332E"/>
<path d="M363.989 201.223C363.989 201.223 362.566 214.138 371.8 216.844C381.033 219.55 383.656 204.961 376.2 203.911C368.744 202.862 363.989 201.223 363.989 201.223Z" fill="#F08A36"/>
<path d="M393.696 208.226C394.355 213.151 396.927 228.691 401.464 236.273C402.928 238.717 397.779 240.087 397.75 240.08C397.059 239.9 395.908 238.803 395.379 238.327C391.695 235.016 384.216 225.643 384.216 218.128C384.216 214.463 384.151 207.465 386.823 205.687C388.471 204.592 393.434 206.272 393.696 208.226Z" fill="#1E657B"/>
<path d="M370.935 243.986C370.935 243.986 371.34 243.423 372.047 242.355C372.888 241.085 373.819 238.584 374.948 235.38C376.135 232.015 377.542 227.876 379.301 223.57C379.844 222.24 380.42 220.894 381.034 219.551C382.129 217.156 385.14 217.488 386.213 214.778C386.213 214.778 390.394 205.389 382.708 205.131C375.023 204.873 360.415 230.246 359.577 232.705C358.658 235.392 354.176 246.564 370.935 243.986Z" fill="#257E99"/>
<path d="M399.977 243.986H389.037C389.037 243.986 388.628 242.246 389.346 241.063C389.982 240.015 389.738 239.419 389.267 238.553C389.762 238.755 390.404 238.938 391.109 238.898C391.655 238.866 392.231 238.62 392.736 238.327C393.208 238.863 395.224 241.14 395.854 241.592C396.569 242.104 399.758 241.92 399.977 243.986Z" fill="#B5453C"/>
<path d="M374.948 235.378C376.134 232.014 377.542 227.874 379.301 223.568C378.842 220.305 377.851 217.451 376.183 216.3C376.185 216.3 372.143 228.788 374.948 235.378Z" fill="#21728B"/>
<path d="M387.31 207.877C387.969 212.8 388.896 228.691 393.434 236.273C394.897 238.718 389.748 240.087 389.719 240.081C389.028 239.9 387.879 238.803 387.348 238.327C383.665 235.016 376.185 225.644 376.185 218.128C376.185 214.463 380.498 207.76 383.171 205.98C384.817 204.885 387.048 205.921 387.31 207.877Z" fill="#257E99"/>
<path d="M410.992 192.59L399.788 191.404C399.462 191.368 399.153 191.559 399.036 191.863L395.028 202.365C394.852 202.825 395.181 203.322 395.675 203.342L406.793 203.788C407.095 203.8 407.372 203.625 407.489 203.347L411.583 193.585C411.769 193.139 411.474 192.64 410.992 192.59Z" fill="#06AC95"/>
<path d="M411.965 192.691L400.761 191.505C400.435 191.469 400.126 191.66 400.009 191.965L396.001 202.466C395.825 202.926 396.155 203.423 396.648 203.443L407.766 203.89C408.069 203.901 408.346 203.726 408.462 203.448L412.557 193.687C412.743 193.242 412.447 192.741 411.965 192.691Z" fill="#01CDB1"/>
<path d="M405.755 197.594C405.892 197.219 405.697 196.915 405.322 196.915C404.945 196.915 404.53 197.218 404.393 197.594C404.256 197.969 404.45 198.272 404.825 198.272C405.201 198.272 405.618 197.969 405.755 197.594Z" fill="white"/>
<path d="M411.629 193.683C411.697 193.499 411.6 193.349 411.416 193.349C411.232 193.349 411.028 193.499 410.96 193.683C410.892 193.867 410.989 194.017 411.173 194.017C411.359 194.017 411.563 193.867 411.629 193.683Z" fill="white"/>
<path d="M364.848 197.819C364.848 197.819 380.376 203.521 382.708 203.404C384.216 203.329 396.751 198.936 396.751 198.936L397.877 201.059C397.877 201.059 385.676 208.877 382.323 208.838C375.7 208.762 364.528 204.708 363.266 203.913C362.005 203.115 361.184 198.625 364.848 197.819Z" fill="#FFB27D"/>
<path d="M396.751 198.935C396.751 198.935 397.877 197.208 398.997 197.157C400.118 197.107 402.052 197.919 402.715 198.045C403.377 198.171 405.262 198.781 404.701 199.694C404.14 200.608 401.542 200.811 400.422 200.608C399.301 200.404 397.875 201.054 397.875 201.054L396.751 198.935Z" fill="#FFB27D"/>
<path d="M398.693 197.211C398.693 197.211 400.474 196.396 400.984 196.244C401.495 196.092 401.392 196.246 401.239 196.727C401.087 197.209 400.17 197.668 400.17 197.819C400.168 197.969 398.693 197.211 398.693 197.211Z" fill="#FFB27D"/>
<path d="M410.811 198.021C410.811 198.021 409.687 196.249 409.319 196.177C408.198 195.956 408.198 197.427 408.435 198.377C408.69 199.394 409.554 200.356 409.792 200.272C410.032 200.186 411.075 198.956 410.811 198.021Z" fill="#FFB27D"/>
<path d="M410.853 198.375C410.853 198.375 411.211 200.363 409.319 201.399L410.853 198.375Z" fill="#FFB27D"/>
<path d="M378.396 191.033C378.396 191.033 377.728 190.77 375.849 190.922C375.849 190.922 375.949 191.653 377.334 191.724C378.12 191.766 378.396 191.033 378.396 191.033Z" fill="white"/>
<path d="M372.848 200.63C372.848 200.63 371.459 205.013 366.69 206.011C366.69 206.011 358.813 203.591 362.735 198.242C362.735 198.242 366.612 195.37 372.848 200.63Z" fill="#F99746"/>
<defs>
<linearGradient id="paint0_linear" x1="191.593" y1="246.511" x2="114.125" y2="81.6104" gradientUnits="userSpaceOnUse">
<stop offset="8.3e-07" stop-color="#00BEC5"/>
<stop offset="1" stop-color="#00D89E"/>
</linearGradient>
<linearGradient id="paint1_linear" x1="335.767" y1="245.262" x2="256.475" y2="79.1051" gradientUnits="userSpaceOnUse">
<stop offset="8.3e-07" stop-color="#00BEC5"/>
<stop offset="1" stop-color="#00D89E"/>
</linearGradient>
</defs>
</svg>
