<svg width="31" height="30" viewBox="0 0 31 30" fill="none" xmlns="http://www.w3.org/2000/svg">
<circle cx="15.5" cy="15" r="15" fill="#EEEEEE"/>
<path d="M24.143 19.601H17.3334L15.5 16.5703H22.9083L24.4423 19.1146C24.5546 19.3017 24.4049 19.601 24.143 19.601Z" fill="#92001F"/>
<path d="M15.5001 16.5703H8.0918V23.9786H15.5001V16.5703Z" fill="#DCDCDC"/>
<path d="M22.9083 16.5703H15.5V23.9786H22.9083V16.5703Z" fill="#EE0033"/>
<path d="M6.85656 19.6007H13.5165C13.6288 19.6007 13.741 19.5258 13.7784 19.451L15.4996 16.6074H8.09128L6.55724 19.1143C6.44499 19.3013 6.59465 19.6007 6.85656 19.6007Z" fill="#C4C4C4"/>
<path d="M18.2308 8.50461C17.4077 7.7563 16.1356 7.90596 15.3872 8.65427L15.2002 8.84135L15.0131 8.65427C14.2274 7.86855 12.9552 7.7563 12.1695 8.50461C11.3089 9.29034 11.2715 10.5999 12.0947 11.423L14.9008 14.2292C14.9757 14.304 15.0879 14.3414 15.2002 14.3414C15.3124 14.3414 15.4247 14.304 15.4995 14.2292L18.3057 11.423C19.1288 10.6373 19.0914 9.29034 18.2308 8.50461Z" fill="white"/>
</svg>
