<svg width="30" height="30" viewBox="0 0 30 30" fill="none" xmlns="http://www.w3.org/2000/svg">
<rect x="4.29297" y="9" width="21" height="12" rx="1" fill="#DCDCDC"/>
<path d="M14.793 9H24.293C24.8453 9 25.293 9.44772 25.293 10V20C25.293 20.5523 24.8453 21 24.293 21H14.793V9Z" fill="#C4C4C4"/>
<path d="M11.0712 13.3699V12.8192C11.0712 12.3889 10.8475 11.9759 10.4688 11.7694C10.0902 11.5456 9.62553 11.5456 9.2469 11.7694C8.86827 11.9931 8.64453 12.3889 8.64453 12.8192V13.3699C8.64453 13.7486 8.85106 14.11 9.17805 14.2993C9.60832 14.5402 10.1246 14.5402 10.5377 14.2993C10.8647 14.11 11.0712 13.7486 11.0712 13.3699Z" fill="#EE0033"/>
<path d="M9.85744 14.7188C8.44618 14.7188 7.31029 15.9184 7.20703 17.4609C8.03313 17.5942 8.92808 17.6703 9.85744 17.6703C10.7868 17.6703 11.6817 17.5942 12.5078 17.4609C12.4046 15.9184 11.2687 14.7188 9.85744 14.7188Z" fill="#EE0033"/>
<mask id="mask0" mask-type="alpha" maskUnits="userSpaceOnUse" x="8" y="11" width="4" height="4">
<path d="M11.0712 13.3699V12.8192C11.0712 12.3889 10.8475 11.9759 10.4688 11.7694C10.0902 11.5456 9.62553 11.5456 9.2469 11.7694C8.86827 11.9931 8.64453 12.3889 8.64453 12.8192V13.3699C8.64453 13.7486 8.85106 14.11 9.17805 14.2993C9.60832 14.5402 10.1246 14.5402 10.5377 14.2993C10.8647 14.11 11.0712 13.7486 11.0712 13.3699Z" fill="#EE0033"/>
</mask>
<g mask="url(#mask0)">
<rect x="9.85938" y="10.1484" width="3.50368" height="7.96875" fill="#92001F"/>
</g>
<mask id="mask1" mask-type="alpha" maskUnits="userSpaceOnUse" x="7" y="14" width="6" height="4">
<path d="M9.85744 14.7188C8.44618 14.7188 7.31029 15.9184 7.20703 17.4609C8.03313 17.5942 8.92808 17.6703 9.85744 17.6703C10.7868 17.6703 11.6817 17.5942 12.5078 17.4609C12.4046 15.9184 11.2687 14.7188 9.85744 14.7188Z" fill="#EE0033"/>
</mask>
<g mask="url(#mask1)">
<rect x="9.85547" y="10.1484" width="3.50368" height="7.96875" fill="#92001F"/>
</g>
<rect x="7.20703" y="18.8906" width="5.30082" height="0.585938" rx="0.292969" fill="#EE0033"/>
<rect x="17.8945" y="11.9062" width="5.30082" height="0.585938" rx="0.292969" fill="#92001F"/>
<rect x="17.8945" y="13.5117" width="5.30082" height="0.585938" rx="0.292969" fill="#92001F"/>
<path d="M9.87109 18.8906H12.2166C12.3784 18.8906 12.5096 19.0218 12.5096 19.1836C12.5096 19.3454 12.3784 19.4766 12.2166 19.4766H9.87109V18.8906Z" fill="#92001F"/>
<rect x="17.8945" y="16.207" width="5.30082" height="2.97656" rx="0.3" fill="#EE0033"/>
<path d="M20.2539 16.207H22.8971C23.0627 16.207 23.1971 16.3413 23.1971 16.507V18.8836C23.1971 19.0493 23.0627 19.1836 22.8971 19.1836H20.2539V16.207Z" fill="#92001F"/>
</svg>
