<svg width="253" height="343" viewBox="0 0 253 343" fill="none" xmlns="http://www.w3.org/2000/svg">
<circle cx="126.342" cy="125.869" r="125.869" fill="#DEE6EE"/>
<path d="M70.2115 111.126C78.0398 111.126 84.386 104.78 84.386 96.9518C84.386 89.1234 78.0398 82.7773 70.2115 82.7773C62.3832 82.7773 56.0371 89.1234 56.0371 96.9518C56.0371 104.78 62.3832 111.126 70.2115 111.126Z" fill="white"/>
<path d="M184.172 111.126C191.687 111.126 197.779 104.78 197.779 96.9518C197.779 89.1234 191.687 82.7773 184.172 82.7773C176.657 82.7773 170.564 89.1234 170.564 96.9518C170.564 104.78 176.657 111.126 184.172 111.126Z" fill="white"/>
<path d="M69.6465 167.826C69.6465 167.826 118.947 124.452 184.176 167.826H69.6465Z" fill="white"/>
<path fill-rule="evenodd" clip-rule="evenodd" d="M148.802 306.4L139.149 305.624L138.06 333.932H145.889L148.802 306.4ZM175.22 334.007H182.959L183.24 307.283H173.683L175.22 334.007Z" fill="#F7B17D"/>
<path fill-rule="evenodd" clip-rule="evenodd" d="M132.135 339.369L132.154 339.37C131.997 339.628 131.912 339.924 131.91 340.226V341.473H147.535V340.226C147.534 340.077 147.513 339.928 147.471 339.784L146.544 330.642C146.412 329.718 145.946 329.621 145.277 329.749C145.377 329.366 145.41 328.968 145.375 328.574C145.308 327.906 139.326 327.637 139.191 328.389C139.141 328.777 139.115 329.168 139.113 329.56C138.603 329.392 137.931 329.366 137.426 330.255L132.135 339.369ZM175.25 330.438C175.167 330.246 175.088 330.062 175.004 329.899C174.504 328.935 173.922 328.932 173.714 329.576C173.691 329.647 173.65 329.759 173.596 329.907C173.159 331.103 171.869 334.628 172.424 337.486C172.424 337.486 180.442 337.833 185.226 338.916C185.226 338.916 198.217 339.252 200.963 339.252C200.963 339.252 200.755 336.924 199.84 336.161C198.924 335.399 196.761 335.118 196.761 335.118C196.761 335.118 185.446 329.618 184.53 329.578C183.615 329.538 182.533 330.22 181.701 330.983C181.591 331.084 181.481 331.192 181.368 331.303C180.626 332.03 179.756 332.883 177.916 332.709C176.154 332.542 175.654 331.38 175.25 330.438Z" fill="#6A6A6A"/>
<g style="mix-blend-mode:overlay" opacity="0.6">
<path d="M145.297 338.071C145.297 338.071 144.55 336.886 140.367 336.838C135.881 336.786 134.897 338.001 134.897 338.001L145.297 338.071Z" fill="white"/>
</g>
<g style="mix-blend-mode:overlay" opacity="0.6">
<path d="M139.113 329.56C139.115 329.168 139.141 328.777 139.192 328.389C139.326 327.637 145.309 327.906 145.376 328.574C145.39 328.973 145.355 329.373 145.271 329.763C145.271 329.763 145.319 335.617 144.366 336.188C143.843 336.501 136.421 336.425 136.375 336.245C136.252 335.766 138.955 329.56 139.113 329.56Z" fill="white"/>
</g>
<g style="mix-blend-mode:overlay" opacity="0.6">
<path d="M147.215 337.552L145.546 336.269C145.521 336.25 145.509 336.218 145.515 336.188L145.679 335.322C145.684 335.295 145.704 335.271 145.73 335.261C145.756 335.25 145.786 335.254 145.809 335.271L147.07 336.188L147.215 337.552Z" fill="white"/>
</g>
<g style="mix-blend-mode:overlay" opacity="0.6">
<path d="M147.021 335.769L145.829 334.855C145.773 334.811 145.745 334.741 145.755 334.67L145.885 333.762C145.888 333.738 145.911 333.673 145.964 333.717C146.024 333.765 146.868 334.4 146.868 334.4L147.021 335.769Z" fill="white"/>
</g>
<g style="mix-blend-mode:overlay" opacity="0.6">
<path d="M146.834 334.04L146.061 333.459C146.005 333.415 145.977 333.344 145.987 333.274L146.117 332.365C146.12 332.341 146.143 332.277 146.196 332.32C146.255 332.369 146.671 332.614 146.671 332.614L146.834 334.04Z" fill="white"/>
</g>
<g style="mix-blend-mode:overlay" opacity="0.6">
<path d="M133.991 336.161L136.091 335.619C136.122 335.611 136.145 335.587 136.152 335.556L136.349 334.69C136.356 334.662 136.348 334.633 136.328 334.612C136.308 334.592 136.279 334.584 136.251 334.59L134.698 334.947L133.991 336.161Z" fill="white"/>
</g>
<g style="mix-blend-mode:overlay" opacity="0.6">
<path d="M134.92 334.568L136.399 334.197C136.468 334.178 136.523 334.124 136.542 334.055L136.787 333.161C136.794 333.138 136.799 333.069 136.733 333.088C136.659 333.11 135.619 333.367 135.619 333.367L134.92 334.568Z" fill="white"/>
</g>
<g style="mix-blend-mode:overlay" opacity="0.6">
<path d="M135.793 333.052L136.749 332.811C136.818 332.793 136.872 332.739 136.891 332.669L137.137 331.776C137.144 331.752 137.149 331.683 137.082 331.703C137.008 331.724 136.517 331.819 136.517 331.819L135.793 333.052Z" fill="white"/>
</g>
<g style="mix-blend-mode:overlay" opacity="0.6">
<path d="M196.762 335.118L196.635 335.199C195.54 335.908 194.17 336.038 192.961 335.548L181.702 330.983C181.702 330.983 183.463 329.217 184.531 329.578C184.531 329.578 186.829 330.263 196.762 335.118Z" fill="white"/>
</g>
<g style="mix-blend-mode:overlay" opacity="0.6">
<path d="M177.916 332.709C177.916 332.709 177.694 334.672 176.811 334.093C175.361 333.197 173.477 333.484 172.357 334.77C172.357 334.77 172.708 331.643 173.714 329.576C173.714 329.576 174.232 328.322 175.004 329.899C175.776 331.475 175.968 332.368 177.916 332.709Z" fill="white"/>
</g>
<g style="mix-blend-mode:overlay" opacity="0.6">
<path d="M197.992 335.362C197.992 335.362 196.68 335.536 196.417 336.804C196.26 337.588 196.254 338.394 196.399 339.181L200.963 339.252C200.963 339.252 200.732 336.856 199.84 336.161C199.282 335.776 198.654 335.504 197.992 335.362V335.362Z" fill="white"/>
</g>
<g style="mix-blend-mode:overlay" opacity="0.6">
<path d="M189.23 339.016L190.821 336.075C190.853 336.015 190.858 335.945 190.835 335.882C190.812 335.818 190.763 335.768 190.701 335.743L189.626 335.317C189.517 335.274 189.393 335.318 189.335 335.421L187.333 338.969L189.23 339.016Z" fill="white"/>
</g>
<g style="mix-blend-mode:overlay" opacity="0.6">
<path d="M186.548 338.95L188.597 335.213C188.629 335.154 188.634 335.084 188.611 335.021C188.588 334.957 188.539 334.907 188.476 334.882L187.402 334.456C187.293 334.413 187.168 334.457 187.11 334.559L184.713 338.805L185.226 338.916L186.548 338.95Z" fill="white"/>
</g>
<g style="mix-blend-mode:overlay" opacity="0.6">
<path d="M183.95 338.657L186.296 334.36C186.328 334.301 186.333 334.23 186.31 334.167C186.287 334.104 186.238 334.053 186.175 334.028L185.101 333.602C184.992 333.559 184.867 333.603 184.81 333.706L182.187 338.37L182.732 338.437L183.95 338.657Z" fill="white"/>
</g>
<path fill-rule="evenodd" clip-rule="evenodd" d="M144.615 330.448L144.615 330.448C144.588 330.44 142.568 329.817 139.181 330.453C139.172 330.454 139.164 330.455 139.156 330.455C139.082 330.452 139.022 330.396 139.013 330.323C138.998 330.24 139.05 330.159 139.132 330.139C142.598 329.49 144.612 330.116 144.697 330.144C144.776 330.173 144.819 330.259 144.795 330.341C144.786 330.379 144.762 330.413 144.728 330.433C144.694 330.454 144.653 330.459 144.615 330.448ZM185.628 332.113C185.764 332.221 185.962 332.199 186.072 332.063L187.284 330.532C187.391 330.394 187.367 330.196 187.231 330.087C187.094 329.979 186.896 330.001 186.787 330.137L185.575 331.669C185.468 331.806 185.492 332.005 185.628 332.113ZM172.302 335.453H172.302L172.302 335.457L172.302 335.453ZM172.424 337.486C172.424 337.486 180.442 337.833 185.226 338.917C185.226 338.917 198.217 339.253 200.963 339.253V340.374C200.963 340.652 200.853 340.919 200.657 341.115C200.461 341.312 200.195 341.422 199.917 341.422H173.333C173.056 341.422 172.79 341.312 172.594 341.115C172.398 340.919 172.288 340.652 172.288 340.374L172.299 336.396C172.314 336.762 172.356 337.126 172.424 337.486ZM188.267 332.883C188.158 333.018 187.96 333.04 187.824 332.932C187.687 332.824 187.664 332.626 187.77 332.488L188.983 330.957C189.092 330.821 189.29 330.799 189.426 330.907C189.563 331.015 189.586 331.214 189.479 331.351L188.267 332.883ZM189.541 333.852C189.678 333.96 189.876 333.938 189.985 333.802L191.197 332.27C191.304 332.133 191.28 331.935 191.144 331.826C191.008 331.718 190.81 331.74 190.7 331.876L189.488 333.407C189.381 333.545 189.405 333.743 189.541 333.852ZM192.102 334.862C191.993 334.998 191.795 335.02 191.659 334.912C191.522 334.803 191.499 334.605 191.606 334.468L192.818 332.936C192.927 332.801 193.125 332.778 193.261 332.887C193.398 332.995 193.422 333.193 193.315 333.331L192.102 334.862ZM193.804 335.689C193.941 335.797 194.139 335.775 194.248 335.64L195.46 334.108C195.567 333.97 195.543 333.772 195.407 333.664C195.27 333.555 195.072 333.578 194.963 333.713L193.751 335.245C193.644 335.383 193.668 335.581 193.804 335.689ZM135.18 337.961H144.264C146.071 337.961 147.535 338.976 147.535 340.227V341.473H131.91V340.227C131.91 338.976 133.374 337.961 135.18 337.961ZM144.321 335.366C144.298 335.328 144.261 335.302 144.219 335.293C144.117 335.266 141.69 334.639 137.514 335.289C137.471 335.293 137.431 335.315 137.404 335.35C137.377 335.384 137.365 335.428 137.371 335.472C137.39 335.551 137.462 335.607 137.543 335.604C137.553 335.604 137.563 335.603 137.573 335.602C141.655 334.966 144.088 335.589 144.12 335.598L144.12 335.598C144.209 335.623 144.304 335.577 144.337 335.49C144.349 335.448 144.343 335.403 144.321 335.366ZM144.508 334.017C144.55 334.027 144.586 334.053 144.608 334.091C144.629 334.128 144.635 334.172 144.623 334.214C144.592 334.299 144.5 334.347 144.413 334.321L144.413 334.321C144.382 334.313 142.031 333.69 138.088 334.326C138.079 334.327 138.069 334.328 138.06 334.328C137.98 334.329 137.91 334.274 137.894 334.196C137.887 334.153 137.898 334.109 137.924 334.075C137.95 334.04 137.989 334.018 138.032 334.012C142.066 333.363 144.41 333.989 144.508 334.017ZM144.687 332.762C144.666 332.725 144.631 332.698 144.59 332.687C144.494 332.66 142.205 332.034 138.265 332.683C138.223 332.689 138.185 332.712 138.159 332.746C138.134 332.781 138.124 332.824 138.13 332.866C138.145 332.944 138.214 333 138.293 332.999C138.302 332.999 138.311 332.998 138.321 332.996C142.17 332.36 144.466 332.984 144.497 332.992L144.497 332.992C144.583 333.017 144.673 332.969 144.701 332.884C144.713 332.843 144.708 332.799 144.687 332.762ZM144.601 331.827L144.601 331.827C144.655 331.843 144.714 331.829 144.755 331.79C144.796 331.751 144.813 331.693 144.799 331.638C144.786 331.582 144.744 331.539 144.69 331.523C144.598 331.495 142.397 330.869 138.611 331.518C138.555 331.528 138.508 331.567 138.488 331.62C138.469 331.673 138.479 331.733 138.515 331.776C138.551 331.82 138.608 331.841 138.664 331.832C142.365 331.196 144.571 331.819 144.601 331.827Z" fill="#727272"/>
<path d="M136.66 295.504C138.61 280.832 136.845 271.033 138.742 265.329C138.742 265.329 136.013 235.295 136.857 215.438H181.302C181.302 215.438 185.024 262.866 184.813 270.682C184.602 278.498 185.143 302.934 185.543 315.256C185.609 317.298 183.962 318.593 183.643 318.737C183.693 320.688 183.845 323.598 183.804 324.498C183.716 326.438 181.006 326.573 178.462 326.54C174.405 326.487 174.095 325.98 173.948 324.634C173.899 324.184 173.497 320.948 173.428 319.046C173.321 318.996 171.541 318.741 170.628 317.051C168.518 313.149 169.319 297.37 167.844 288.497C166.368 279.625 167.899 269.694 167.948 267.091C162.564 259.697 160.359 248.289 160.359 248.289L148.979 316.869C148.979 316.869 148.857 318.132 147.917 318.805C147.805 320.768 147.545 324.283 147.105 324.674C146.49 325.22 143.117 325.114 141.237 324.938C139.357 324.762 138.005 324.199 137.794 323.107C137.645 322.335 137.706 319.285 137.755 317.564C136.993 317.188 136.491 316.431 136.437 315.582C136.437 315.582 135.079 307.404 136.66 295.504Z" fill="#727272"/>
<g style="mix-blend-mode:overlay" opacity="0.6">
<path d="M181.842 324.445C181.884 324.445 181.924 324.429 181.954 324.399C181.983 324.369 182 324.329 182 324.287V319.797C182 319.71 181.929 319.639 181.842 319.639C181.754 319.639 181.683 319.71 181.683 319.797V324.287C181.683 324.329 181.7 324.369 181.729 324.399C181.759 324.429 181.799 324.445 181.842 324.445Z" fill="white"/>
</g>
<g style="mix-blend-mode:overlay" opacity="0.6">
<path d="M179.488 324.656C179.53 324.656 179.57 324.64 179.6 324.61C179.63 324.58 179.647 324.54 179.646 324.497V320.008C179.646 319.921 179.576 319.85 179.488 319.85C179.4 319.85 179.33 319.921 179.33 320.008V324.497C179.329 324.54 179.346 324.58 179.376 324.61C179.406 324.64 179.446 324.656 179.488 324.656Z" fill="white"/>
</g>
<g style="mix-blend-mode:overlay" opacity="0.6">
<path d="M177.595 324.797H177.598C177.686 324.796 177.755 324.723 177.754 324.636L177.671 320.147C177.669 320.061 177.599 319.991 177.513 319.991H177.51C177.422 319.993 177.353 320.065 177.354 320.153L177.437 324.641C177.438 324.728 177.509 324.797 177.595 324.797Z" fill="white"/>
</g>
<g style="mix-blend-mode:overlay" opacity="0.6">
<path d="M175.763 324.793C175.767 324.793 175.77 324.793 175.773 324.793C175.861 324.787 175.927 324.712 175.922 324.624L175.638 320.144C175.637 320.102 175.618 320.062 175.586 320.034C175.554 320.006 175.512 319.992 175.47 319.996C175.383 320.001 175.317 320.077 175.322 320.164L175.605 324.644C175.61 324.728 175.68 324.793 175.763 324.793Z" fill="white"/>
</g>
<g style="mix-blend-mode:overlay" opacity="0.6">
<path d="M145.274 323.96C145.355 323.96 145.423 323.898 145.431 323.818L145.896 319.352C145.902 319.296 145.877 319.241 145.831 319.207C145.785 319.174 145.725 319.167 145.673 319.191C145.622 319.214 145.586 319.263 145.58 319.32L145.116 323.785C145.112 323.827 145.124 323.869 145.151 323.901C145.177 323.934 145.216 323.955 145.257 323.959C145.263 323.96 145.268 323.96 145.274 323.96Z" fill="white"/>
</g>
<g style="mix-blend-mode:overlay" opacity="0.6">
<path d="M142.911 323.925C142.992 323.925 143.06 323.864 143.068 323.783L143.532 319.318C143.538 319.262 143.514 319.206 143.468 319.173C143.422 319.139 143.362 319.133 143.31 319.156C143.258 319.18 143.223 319.229 143.217 319.285L142.753 323.75C142.749 323.792 142.761 323.834 142.788 323.867C142.814 323.899 142.852 323.92 142.894 323.925C142.9 323.925 142.905 323.925 142.911 323.925Z" fill="white"/>
</g>
<g style="mix-blend-mode:overlay" opacity="0.6">
<path d="M141.015 323.868C141.097 323.868 141.165 323.805 141.172 323.723L141.554 319.25C141.558 319.208 141.545 319.167 141.517 319.134C141.49 319.102 141.452 319.082 141.41 319.079C141.323 319.072 141.247 319.136 141.238 319.223L140.857 323.696C140.853 323.738 140.866 323.78 140.893 323.812C140.92 323.844 140.959 323.864 141.001 323.868C141.005 323.868 141.01 323.868 141.015 323.868Z" fill="white"/>
</g>
<g style="mix-blend-mode:overlay" opacity="0.6">
<path d="M139.193 323.674C139.278 323.674 139.348 323.607 139.351 323.522L139.533 319.037C139.537 318.949 139.469 318.875 139.381 318.871C139.339 318.869 139.298 318.884 139.267 318.913C139.236 318.941 139.218 318.981 139.216 319.024L139.035 323.509C139.031 323.597 139.099 323.671 139.187 323.674H139.193Z" fill="white"/>
</g>
<g style="mix-blend-mode:overlay" opacity="0.6">
<path d="M136.661 228.593C136.67 228.593 136.68 228.592 136.689 228.591C146.494 226.842 144.884 215.951 144.866 215.841C144.852 215.755 144.771 215.696 144.685 215.71C144.599 215.724 144.54 215.805 144.553 215.891C144.57 215.998 146.13 226.585 136.633 228.278C136.552 228.292 136.496 228.366 136.503 228.448C136.51 228.53 136.579 228.593 136.661 228.593Z" fill="#B5B4B4"/>
</g>
<g style="mix-blend-mode:overlay" opacity="0.6">
<path d="M182.224 226.373C182.297 226.373 182.361 226.323 182.378 226.252C182.396 226.181 182.362 226.107 182.298 226.073C182.229 226.037 175.444 222.404 175.803 215.875C175.805 215.833 175.791 215.791 175.763 215.76C175.735 215.729 175.696 215.71 175.654 215.707C175.611 215.704 175.57 215.719 175.538 215.747C175.507 215.775 175.488 215.815 175.487 215.857C175.116 222.592 182.081 226.318 182.151 226.355C182.174 226.366 182.199 226.373 182.224 226.373Z" fill="#B5B4B4"/>
</g>
<g style="mix-blend-mode:overlay" opacity="0.6">
<path d="M181.303 215.438L181.568 218.897C163.946 225.897 136.769 221.038 136.769 221.038L136.858 215.438H181.303Z" fill="#B5B4B4"/>
</g>
<g style="mix-blend-mode:overlay" opacity="0.6">
<path d="M160.358 248.289L164.578 232.551C164.578 232.551 166.788 241.074 165.84 250.296C164.891 259.518 165.201 262.496 165.201 262.496C165.201 262.496 161.67 255.419 160.358 248.289Z" fill="#B5B4B4"/>
</g>
<g style="mix-blend-mode:overlay" opacity="0.6">
<path d="M182.172 227.217C182.172 227.217 180.283 226.424 179.546 229.382C178.808 232.339 179.682 246.916 180.526 255.154C181.369 263.393 182.384 275.963 182.544 282.511C182.705 289.06 184.912 292.071 184.912 292.071C184.912 292.071 184.754 270.312 184.71 266.873C184.649 262.041 183.278 243.008 182.172 227.217Z" fill="white"/>
</g>
<g style="mix-blend-mode:overlay" opacity="0.6">
<path d="M159.129 255.9C159.129 255.9 153.129 262.895 151.737 272.281C150.345 281.667 149.186 300.292 148.483 305.08C147.78 309.869 146.107 314.789 149.179 315.203L159.129 255.9Z" fill="white"/>
</g>
<g style="mix-blend-mode:overlay" opacity="0.6">
<path d="M167.898 269.853C167.903 269.853 167.909 269.853 167.914 269.852C167.956 269.848 167.994 269.827 168.021 269.795C168.048 269.762 168.06 269.721 168.056 269.679C168.051 269.627 167.573 264.48 169.63 261.046C169.659 260.997 169.66 260.936 169.632 260.886C169.605 260.837 169.553 260.806 169.496 260.805C169.44 260.804 169.387 260.833 169.358 260.882C167.247 264.407 167.735 269.657 167.741 269.71C167.749 269.791 167.817 269.853 167.898 269.853Z" fill="#B5B4B4"/>
</g>
<path d="M149.569 128.322C149.569 123.252 155.156 124.868 156.107 125.186C157.058 125.504 159.277 118.198 159.277 118.198C159.277 118.198 170.688 117.245 172.907 119.469C172.907 119.469 173.541 128.998 173.224 135.033C172.907 141.068 170.972 143.603 168.753 143.603C168.051 143.563 167.362 143.402 166.715 143.126V154.236L153.293 147.264L154.946 134.141C154.878 134.101 154.839 134.08 154.839 134.08C154.839 134.08 149.569 133.111 149.569 128.322Z" fill="#F7B17D"/>
<path d="M173.269 127.729C173.269 127.729 172.65 122.513 172.572 121.069C172.458 118.992 170.528 118.556 169.392 120.013C167.76 122.177 164.989 123.144 162.368 122.465C160.069 121.929 159.101 121.312 158.89 123.638C158.679 125.963 157.889 129.825 157.151 128.792C156.413 127.759 155.587 125.488 154.125 125.224C151.892 124.82 150.51 127.493 151.037 129.087C151.564 130.681 152.309 131.675 155.067 133.183L154.207 140.01C147.374 130.932 144.801 118.464 154.068 115.577C157.53 114.498 161.126 107.508 167.825 109.098C172.572 110.225 172.572 113.869 172.909 117.038C179.286 117.302 173.269 127.729 173.269 127.729Z" fill="#352316"/>
<path d="M153.065 127.238C154.587 126.722 155.997 130.037 156.056 130.179C156.09 130.26 156.052 130.353 155.971 130.387C155.952 130.395 155.931 130.399 155.91 130.399C155.846 130.399 155.788 130.361 155.764 130.302C155.518 129.73 155.216 129.183 154.864 128.669C154.544 128.613 154.215 128.674 153.936 128.839C153.659 129.047 153.481 129.362 153.448 129.707C153.436 129.784 153.37 129.84 153.292 129.84C153.284 129.84 153.275 129.839 153.266 129.838C153.225 129.831 153.188 129.808 153.163 129.774C153.139 129.74 153.129 129.697 153.136 129.655C153.191 128.888 153.844 128.302 154.612 128.334C154.161 127.775 153.646 127.377 153.168 127.539C153.114 127.557 153.055 127.546 153.012 127.508C152.969 127.471 152.95 127.413 152.961 127.358C152.972 127.302 153.012 127.256 153.065 127.238H153.065Z" fill="#0B122D"/>
<path d="M166.715 143.285C166.79 143.285 166.854 143.232 166.87 143.159C166.885 143.085 166.847 143.011 166.779 142.981C166.726 142.957 161.519 140.623 159.321 137.8C159.267 137.731 159.167 137.719 159.098 137.773C159.029 137.827 159.017 137.927 159.071 137.996C161.318 140.881 166.434 143.175 166.651 143.271C166.671 143.28 166.693 143.285 166.715 143.285Z" fill="#0B122D"/>
<path d="M159.287 120.884C159.322 120.884 159.357 120.872 159.384 120.85C161.776 118.989 160.886 115.381 160.847 115.229C160.833 115.173 160.791 115.13 160.736 115.114C160.682 115.099 160.623 115.114 160.582 115.154C160.542 115.194 160.526 115.252 160.54 115.307C160.549 115.343 161.416 118.867 159.19 120.6C159.136 120.641 159.115 120.712 159.137 120.777C159.159 120.841 159.219 120.884 159.287 120.884V120.884Z" fill="white"/>
<g style="mix-blend-mode:overlay" opacity="0.6">
<path d="M166.704 143.199C166.704 143.199 162.137 141.07 160.661 139.521C160.661 139.521 161.002 143.697 164.018 146.633C167.035 149.568 166.704 147.196 166.704 147.196L166.704 143.199Z" fill="#030F1C"/>
</g>
<path d="M165.61 126.22C165.565 126.757 165.793 127.215 166.12 127.243C166.446 127.27 166.747 126.856 166.791 126.318C166.836 125.78 166.608 125.322 166.282 125.295C165.955 125.268 165.654 125.682 165.609 126.22" fill="#161B36"/>
<path d="M171.422 127.112C171.378 127.65 171.605 128.108 171.932 128.135C172.258 128.162 172.559 127.749 172.604 127.211C172.649 126.673 172.42 126.215 172.094 126.188C171.767 126.16 171.467 126.574 171.422 127.112" fill="#161B36"/>
<path d="M167.607 123.053C167.337 122.886 167.007 122.792 166.188 123.091C165.37 123.39 164.34 124.551 164.678 124.671C165.016 124.79 165.646 123.858 166.371 123.891C167.095 123.923 167.528 123.997 167.712 123.807C167.943 123.569 167.737 123.134 167.607 123.053Z" fill="#161B36"/>
<path d="M171.721 123.481C172.029 123.406 172.372 123.42 173.057 123.96C173.741 124.5 174.359 125.925 174 125.933C173.642 125.941 173.333 124.858 172.634 124.662C171.936 124.466 171.502 124.402 171.387 124.165C171.241 123.865 171.572 123.517 171.721 123.481" fill="#161B36"/>
<g style="mix-blend-mode:overlay" opacity="0.6">
<path d="M169.55 133.155C169.788 133.162 170.024 133.114 170.241 133.015C170.425 132.931 170.562 132.769 170.614 132.573C170.714 132.165 170.346 131.491 169.892 130.717C169.775 130.532 169.671 130.34 169.578 130.141C169.492 129.907 169.693 127.86 169.937 126.016L169.622 125.975C169.538 126.614 169.124 129.825 169.281 130.251C169.379 130.468 169.491 130.678 169.619 130.878C169.905 131.366 170.384 132.182 170.307 132.497C170.277 132.603 170.2 132.69 170.098 132.732C169.628 132.89 169.116 132.863 168.665 132.657L168.543 132.95C168.863 133.083 169.205 133.152 169.55 133.155Z" fill="#030F1C"/>
</g>
<path d="M164.476 136.651C164.476 137.646 165.532 138.449 166.831 138.449C167.223 138.451 167.611 138.374 167.972 138.224C168.698 137.919 169.189 137.328 169.189 136.651C169.189 135.657 168.134 134.854 166.831 134.854C165.687 134.854 164.73 135.479 164.52 136.308C164.491 136.42 164.476 136.536 164.476 136.651Z" fill="#161B36"/>
<path d="M164.476 136.651C164.476 137.645 165.532 138.449 166.832 138.449C167.223 138.451 167.611 138.374 167.973 138.223C167.618 137.718 166.378 136.165 164.521 136.308C164.492 136.42 164.477 136.535 164.476 136.651Z" fill="#E55151"/>
<path d="M101.875 154.084L121.029 176.102C121.246 176.349 121.575 176.465 121.898 176.411C122.222 176.356 122.495 176.137 122.619 175.833C124.199 171.965 126.001 168.192 128.016 164.533C131.934 157.49 136.903 150.37 142.817 149.383C146.458 148.398 152.209 147.179 152.209 147.179L153.634 141.757C155.294 145.617 158.633 148.499 162.689 149.573C165.389 148.339 166.608 145.278 166.608 145.278L168.937 148.024C168.937 148.024 177.205 151.585 180.318 153.972C183.952 156.339 185.473 162.001 188.702 167.806C191.192 172.285 193.637 176.827 195.763 179.265C196.09 179.633 196.559 179.843 197.051 179.842C197.543 179.841 198.011 179.628 198.336 179.257C198.336 179.257 212.297 163.492 217.822 157.253C219.034 159.682 221.353 162.323 224.357 162.429C215.372 177.835 203.9 196.064 200.578 197.259C197.752 198.275 194.306 197.338 191.67 194.698C187.024 190.046 183.285 185.765 180.257 182.142C179.987 185.641 179.787 188.659 179.778 190.556C179.755 195.503 180.276 201.227 180.439 207.667C180.516 210.717 183.424 216.71 181.078 218.652C173.504 224.919 136.315 218.652 136.315 218.652C136.36 214.997 136.818 211.36 137.68 207.808C139.445 200.987 139.187 197.527 138.961 193.513C138.868 191.865 138.605 185.679 138.316 178.805C134.811 183.28 131.371 187.269 127.978 190.453C121.759 196.291 118.27 195.733 108.523 180.514C107.13 178.34 95.7032 162.052 94.0748 159.26C100.926 159.26 101.875 154.084 101.875 154.084Z" fill="#D1D1D1"/>
<g style="mix-blend-mode:overlay" opacity="0.6">
<path d="M186.594 169.997C187.295 171.76 188.35 174.082 190.67 177.884C192.987 181.686 195.977 184.767 199.733 181.601C202.766 179.04 206.621 173.59 207.774 172.04C208.928 170.493 207.774 168.641 207.774 168.641C202.706 174.359 198.335 179.256 198.335 179.256C198.01 179.626 197.542 179.839 197.05 179.841C196.558 179.843 196.089 179.634 195.761 179.266C193.637 176.827 191.19 172.284 188.702 167.806C188.452 167.352 188.204 166.901 187.97 166.446H187.967C187.967 166.446 185.89 168.238 186.594 169.997Z" fill="#DCE4EF"/>
</g>
<g style="mix-blend-mode:overlay" opacity="0.6">
<path d="M181.339 168.324C184.228 172.326 183.105 181.011 185.574 184.047C188.096 187.147 192.815 189.528 191.67 194.698C187.078 189.858 183.216 185.75 180.254 182.175C180.585 177.891 181.021 172.884 181.339 168.324Z" fill="#030F1C"/>
</g>
<path d="M198.695 185.577C198.759 185.577 198.816 185.538 198.841 185.48C198.866 185.421 198.853 185.353 198.809 185.307C196.944 183.38 197.225 180.73 197.228 180.704C197.233 180.662 197.221 180.62 197.195 180.587C197.169 180.554 197.131 180.532 197.089 180.528C197.047 180.522 197.005 180.534 196.972 180.56C196.939 180.586 196.918 180.625 196.913 180.667C196.9 180.781 196.609 183.49 198.581 185.528C198.611 185.559 198.652 185.577 198.695 185.577Z" fill="#0B122D"/>
<path d="M164.891 221.557C164.973 221.557 165.042 221.493 165.048 221.411C165.249 218.945 164.962 211.868 164.684 205.024C164.401 198.046 164.109 190.831 164.332 188.529C164.773 183.992 162.872 151.511 162.853 151.184C162.85 151.127 162.817 151.076 162.766 151.05C162.716 151.025 162.656 151.028 162.608 151.059C162.561 151.09 162.533 151.144 162.537 151.201C162.556 151.528 164.455 183.985 164.017 188.497C163.791 190.82 164.084 198.047 164.368 205.036C164.645 211.87 164.931 218.938 164.733 221.384C164.725 221.472 164.79 221.549 164.878 221.556C164.882 221.557 164.887 221.557 164.891 221.557Z" fill="#0B122D"/>
<g style="mix-blend-mode:overlay" opacity="0.6">
<path d="M166.608 145.277C166.608 145.277 165.389 148.339 162.689 149.573L166.359 153.727L168.938 148.024L166.608 145.277Z" fill="white"/>
</g>
<g style="mix-blend-mode:overlay" opacity="0.6">
<path d="M153.633 141.757C155.293 145.617 158.632 148.499 162.688 149.573C161.077 151.122 160.665 153.728 160.665 153.728L152.208 147.179L153.633 141.757Z" fill="white"/>
</g>
<g style="mix-blend-mode:overlay" opacity="0.6">
<path d="M138.351 178.758C140.487 176.03 142.646 173.121 144.834 170.099C145.006 172.482 145.405 180.673 143.52 188.708C140.675 200.836 145.221 208.9 149.717 213.652C153.535 217.688 161.401 218.652 167.057 221.437C156.249 222.032 136.314 218.652 136.314 218.652C136.314 218.652 136.237 213.514 138.17 205.767C139.858 198.999 138.677 182.755 138.351 178.758Z" fill="#030F1C"/>
</g>
<path d="M180.855 174.854C180.934 174.854 181 174.796 181.011 174.719C182.042 167.687 181.522 162.599 181.516 162.549C181.506 162.462 181.429 162.399 181.342 162.407C181.3 162.411 181.262 162.432 181.235 162.465C181.209 162.498 181.196 162.539 181.201 162.581C181.206 162.631 181.722 167.682 180.698 174.671C180.685 174.758 180.745 174.839 180.832 174.852C180.839 174.853 180.847 174.854 180.855 174.854Z" fill="#0B122D"/>
<path d="M176.77 212.896C176.798 212.896 176.825 212.889 176.849 212.875C179.608 211.276 180.553 207.854 180.592 207.709C180.615 207.624 180.565 207.537 180.481 207.514C180.396 207.491 180.309 207.541 180.286 207.625C180.277 207.66 179.334 211.067 176.689 212.6C176.627 212.636 176.597 212.709 176.616 212.779C176.635 212.848 176.698 212.896 176.77 212.896Z" fill="#0B122D"/>
<g style="mix-blend-mode:overlay" opacity="0.6">
<path d="M160.666 153.728L147.04 148.339L152.209 147.179L160.666 153.728Z" fill="#030F1C"/>
</g>
<g style="mix-blend-mode:overlay" opacity="0.6">
<ellipse rx="0.493336" ry="0.491488" transform="matrix(-0.707039 -0.707174 -0.70571 0.708501 164.08 164.431)" fill="#030F1C"/>
</g>
<g style="mix-blend-mode:overlay" opacity="0.6">
<ellipse rx="0.493335" ry="0.491487" transform="matrix(-0.707037 -0.707176 -0.705708 0.708503 163.769 174.202)" fill="#030F1C"/>
</g>
<g style="mix-blend-mode:overlay" opacity="0.6">
<ellipse rx="0.493337" ry="0.491489" transform="matrix(-0.707037 -0.707176 -0.705708 0.708503 162.996 184.938)" fill="#030F1C"/>
</g>
<g style="mix-blend-mode:overlay" opacity="0.6">
<ellipse rx="0.493336" ry="0.491488" transform="matrix(-0.707039 -0.707174 -0.70571 0.708501 162.859 194.965)" fill="#030F1C"/>
</g>
<g style="mix-blend-mode:overlay" opacity="0.6">
<ellipse rx="0.493336" ry="0.491488" transform="matrix(-0.707039 -0.707174 -0.70571 0.708501 163.402 209.082)" fill="#030F1C"/>
</g>
<path d="M162.257 154.274L161.029 152.356C161.029 152.356 161.696 150.401 162.688 149.573L165.534 152.795L165.013 154.274L170.525 201.682L166.234 206.611L161.048 201.442L162.257 154.274Z" fill="#E37171"/>
<g style="mix-blend-mode:overlay" opacity="0.6">
<path d="M149.579 176.613L153.221 178.303L156.852 176.613L156.82 168.337H149.548L149.579 176.613Z" fill="white"/>
</g>
<g style="mix-blend-mode:overlay" opacity="0.6">
<path d="M169.532 169.219H177.438L177.433 168.042H169.527L169.532 169.219Z" fill="white"/>
</g>
<path d="M120.428 182.151C120.471 182.151 120.512 182.134 120.542 182.103C122.514 180.065 122.223 177.356 122.21 177.242C122.2 177.155 122.121 177.093 122.034 177.103C121.947 177.113 121.885 177.191 121.895 177.278C121.898 177.305 122.179 179.955 120.314 181.882C120.27 181.928 120.258 181.996 120.282 182.054C120.307 182.113 120.365 182.151 120.428 182.151Z" fill="#0B122D"/>
<path d="M142.531 172.943C142.564 172.943 142.595 172.933 142.622 172.915C147.154 169.761 147.168 162.897 147.168 162.828C147.169 162.785 147.152 162.744 147.122 162.715C147.092 162.685 147.051 162.669 147.009 162.67C146.921 162.671 146.851 162.742 146.851 162.83C146.851 162.897 146.835 169.596 142.441 172.653C142.384 172.693 142.359 172.765 142.38 172.831C142.401 172.898 142.462 172.943 142.531 172.943Z" fill="#0B122D"/>
<g style="mix-blend-mode:overlay" opacity="0.60001">
<path d="M184.096 158.577C182.738 157.094 180.187 154.105 176.445 153.207C174.004 152.594 171.623 151.763 169.33 150.725L170.353 148.675C170.353 148.675 173.117 149.862 177.784 152.345C183.037 155.14 183.617 158.027 184.096 158.577Z" fill="white"/>
</g>
<path fill-rule="evenodd" clip-rule="evenodd" d="M83.952 139.848C83.6619 139.464 82.5097 139.349 82.5097 139.349C82.5097 139.349 83.3834 142.481 83.1702 145.221C83.0221 147.124 83.6599 148.251 84.2543 149.302C84.5156 149.763 84.7685 150.21 84.9426 150.702C85.5128 152.312 86.8299 154.201 90.4317 154.713C92.0984 154.949 94.1257 156.747 96.1146 159.085C98.7982 158.603 100.261 157.202 101.039 156.003L98.7559 153.381C98.7559 153.381 98.5161 152.032 96.7996 150.43C95.4717 149.191 92.4238 148.905 91.1115 148.838C90.693 148.818 90.2864 148.693 89.9283 148.475L87.9463 147.266C87.6717 147.098 87.496 146.807 87.4753 146.485C87.3785 145.352 87.4056 144.211 87.5562 143.083C87.8337 141.665 86.4179 141.387 86.4179 141.387L85.6644 147.215C85.6644 147.215 85.29 142.744 85.3266 141.246C85.3678 140.867 85.237 140.491 84.9704 140.22C84.7039 139.949 84.3299 139.813 83.952 139.848ZM228.68 151.321C227.367 151.388 224.319 151.674 222.991 152.913C221.275 154.515 221.035 155.864 221.035 155.864L218.624 158.633C219.705 160.247 221.248 161.718 223.122 162.233C225.285 159.577 227.537 157.454 229.359 157.196C232.961 156.684 234.278 154.795 234.848 153.185C235.022 152.693 235.275 152.246 235.537 151.785C236.131 150.734 236.769 149.607 236.621 147.704C236.408 144.964 237.281 141.832 237.281 141.832C237.281 141.832 236.129 141.947 235.839 142.331C235.461 142.296 235.087 142.432 234.821 142.703C234.554 142.974 234.423 143.35 234.464 143.729C234.501 145.227 234.127 149.698 234.127 149.698L233.373 143.869C233.373 143.869 231.957 144.148 232.235 145.566C232.385 146.694 232.413 147.835 232.316 148.968C232.295 149.29 232.119 149.581 231.845 149.749L229.863 150.958C229.505 151.176 229.098 151.301 228.68 151.321Z" fill="#F7B17D"/>
<path d="M83.7526 140.22C83.7532 140.177 83.7716 140.137 83.8033 140.108C83.835 140.08 83.8771 140.066 83.9194 140.07C83.9614 140.072 84.0007 140.091 84.0288 140.123C84.0568 140.154 84.0713 140.195 84.0689 140.237C84.0665 140.287 83.8049 145.235 84.1476 146.377C84.1597 146.417 84.1553 146.461 84.1354 146.498C84.1155 146.535 84.0816 146.563 84.0414 146.575C84.0266 146.579 84.0113 146.581 83.9959 146.581C83.9259 146.581 83.8642 146.535 83.8442 146.468C83.4854 145.273 83.7414 140.426 83.7526 140.22Z" fill="#0B122D"/>
<path d="M85.7242 148.281C85.8067 148.253 85.8971 148.296 85.9266 148.378C85.9322 148.395 86.5098 150.014 87.0998 150.466C87.1694 150.519 87.1827 150.619 87.1295 150.689C87.0764 150.758 86.9769 150.772 86.9073 150.718C86.2427 150.209 85.6524 148.554 85.6276 148.484C85.5986 148.402 85.6417 148.311 85.7242 148.281Z" fill="#0B122D"/>
<path d="M87.8845 147.55C87.9117 147.583 90.6205 150.774 94.1311 150.953C94.2168 150.958 94.2834 151.03 94.2812 151.116C94.279 151.202 94.2089 151.27 94.123 151.271L94.115 151.27C90.4639 151.084 87.7551 147.89 87.6415 147.755C87.5856 147.687 87.5946 147.587 87.6615 147.531C87.7284 147.475 87.8281 147.484 87.8845 147.55L87.8845 147.55Z" fill="#0B122D"/>
<path d="M235.721 142.72C235.719 142.678 235.733 142.637 235.762 142.606C235.79 142.574 235.829 142.556 235.871 142.553C235.913 142.55 235.955 142.564 235.987 142.592C236.018 142.62 236.037 142.661 236.038 142.703C236.049 142.909 236.305 147.757 235.946 148.952C235.93 149.007 235.886 149.049 235.831 149.062C235.775 149.075 235.717 149.057 235.678 149.016C235.639 148.974 235.626 148.914 235.643 148.86C235.986 147.718 235.724 142.77 235.721 142.72Z" fill="#0B122D"/>
<path d="M233.862 150.861C233.891 150.778 233.982 150.735 234.064 150.764C234.147 150.793 234.19 150.884 234.161 150.967C234.136 151.037 233.546 152.691 232.881 153.201C232.836 153.236 232.776 153.244 232.724 153.222C232.671 153.2 232.634 153.152 232.627 153.095C232.62 153.039 232.643 152.983 232.689 152.948C233.279 152.496 233.856 150.877 233.862 150.861Z" fill="#0B122D"/>
<path d="M225.657 153.437C229.168 153.257 231.877 150.066 231.904 150.034C231.96 149.967 232.06 149.958 232.127 150.015C232.194 150.071 232.203 150.171 232.147 150.238C232.033 150.374 229.325 153.568 225.673 153.754L225.665 153.754C225.58 153.754 225.509 153.685 225.507 153.599C225.505 153.513 225.572 153.441 225.657 153.437L225.657 153.437Z" fill="#0B122D"/>
<path fill-rule="evenodd" clip-rule="evenodd" d="M78.0052 233.409C78.6136 231.439 90.481 226.202 92.358 237.484C93.1608 242.309 89.8239 260.296 88.279 268.623C87.8143 271.127 87.5118 272.758 87.5328 272.894C88.817 281.192 86.984 291.827 85.2947 301.628C84.5812 305.768 83.8933 309.759 83.4768 313.362C83.197 315.782 82.8472 321.701 82.8746 322.586C82.885 322.923 83.0807 323.523 83.3154 324.243C83.904 326.049 84.7383 328.608 83.5144 329.665C80.8485 330.545 78.8024 332.959 76.8564 335.254C73.7198 338.954 70.8436 342.347 66.0522 338.514C66.0522 338.055 65.9036 337.721 65.7801 337.444C65.5726 336.978 65.4359 336.672 66.1944 336.195C71.6394 332.776 72.638 329.588 73.2658 327.584C73.3957 327.169 73.5097 326.805 73.644 326.5C74.86 323.738 75.641 317.175 75.6377 314.246C75.6245 302.405 73.7705 267.73 73.7705 267.73C73.7705 267.73 76.0851 239.627 78.0052 233.409ZM115.032 324.704C115.032 324.704 118.524 335.77 118.611 336.061C118.669 336.247 118.655 336.448 118.573 336.626C118.507 336.65 118.443 336.675 118.381 336.701C118.313 336.73 118.246 336.762 118.18 336.798C115.478 337.431 110.064 337.107 108.537 336.784C108.431 336.756 108.326 336.721 108.224 336.68C108.186 336.665 108.149 336.65 108.112 336.633C108.057 336.609 108.005 336.582 107.953 336.555C107.844 336.498 107.739 336.434 107.639 336.363L107.639 336.363C107.616 336.237 107.603 336.111 107.598 335.983C107.588 335.611 108.791 325.029 108.791 325.029C108.791 325.029 108.316 317.421 106.833 307.619C106.741 307.015 106.435 305.175 105.995 302.525C104.699 294.731 102.238 279.923 100.635 268.901C100.558 268.375 100.489 267.516 100.404 266.463C100.178 263.656 99.8414 259.473 98.9622 256.588C97.5067 251.812 96.672 246.096 96.2411 242.35C96.2949 240.998 96.3545 239.541 96.4181 238.045C99.1089 236.69 110.811 231.262 114.966 237.144C114.967 238.162 114.929 239.701 114.884 241.543C114.771 246.143 114.611 252.63 114.895 257.589C114.972 258.946 115.141 260.419 115.324 262.014C115.639 264.773 115.997 267.895 115.997 271.412C115.997 282.061 115.541 289.409 115.176 295.286C114.967 298.648 114.788 301.529 114.742 304.271C114.456 321.137 115.032 324.704 115.032 324.704Z" fill="#F7B17D"/>
<path fill-rule="evenodd" clip-rule="evenodd" d="M76.1901 333.274C76.4025 333.003 76.6252 332.718 76.8609 332.421C79.4224 329.193 85.7319 327.576 85.7517 327.571L85.7517 327.571C85.5748 328.183 84.6459 341.816 84.6459 341.816H83.0978V333.295C83.0978 330.586 81.7708 331.329 81.7708 331.329C76.482 333.662 75.1453 338.416 74.8076 340.631C74.7066 341.31 74.1172 341.814 73.4221 341.816H66.9125C66.326 341.816 65.8023 341.453 65.6022 340.908L64.2988 337.359H70.1376C72.9895 337.359 74.0905 335.954 76.1901 333.274ZM106.981 338.485V336.367L119.264 336.367L119.25 338.485C119.25 340.281 118.594 341.737 117.786 341.737H108.444C107.636 341.737 106.981 340.281 106.981 338.485Z" fill="#727272"/>
<path fill-rule="evenodd" clip-rule="evenodd" d="M80.6208 324.95C80.8862 323.726 82.744 322.153 82.744 322.153L83.6287 323.115C81.0189 325.605 81.3489 329.197 81.3489 329.197L78.94 330.543L79.4265 326.479L72.8876 325.301C72.3367 328.479 70.2726 333.503 70.2726 333.503L70.2649 333.499C71.5375 334.229 72.7698 335.026 73.9567 335.885C71.9813 338.736 64.2989 337.359 64.2989 337.359C63.6797 334.388 69.6511 333.208 69.6511 333.208C71.5973 330.848 72.3936 324.294 72.3936 324.294H73.0128C73.0123 324.303 73.0115 324.312 73.0107 324.321C73.01 324.328 73.0093 324.336 73.0088 324.343L80.6208 324.95ZM113.124 326.594L113.298 331.624C116.636 332.022 119.265 336.368 119.265 336.368C119.265 336.368 117.721 338.198 113.124 338.198C107.696 338.198 106.982 336.368 106.982 336.368C107.296 334.729 109.535 332.316 111.808 331.73C111.741 329.991 111.629 327.563 111.489 326.594C111.489 326.594 109.445 326.397 108.702 325.832C108.702 325.832 108.058 324.843 108.732 324.167C108.732 324.167 111.888 325.945 114.966 324.097C115.806 324.476 115.352 325.712 115.352 325.712C115.352 325.712 114.713 326.221 113.124 326.594Z" fill="#727272"/>
<path d="M116.614 243.543C117.548 238.595 118.839 230.564 117.701 223.134C116.255 213.692 113.579 211.4 111.925 202.427C101.929 198.157 88.6295 197.876 78.2099 203.18C74.5471 230.845 73.947 236.849 73.8437 240.716C73.7668 243.595 70.5335 297.343 68.2311 309.287C67.6367 312.37 85.7186 311.594 87.2698 309.568C89.2937 306.924 91.1665 277.25 92.4678 265.025C93.779 259.229 95.2499 243.485 95.2499 243.485C95.2499 243.485 95.7019 248.814 97.6833 260.848C100.523 278.096 103.748 310.299 103.748 310.299C104.242 310.57 115.348 311.137 117.149 309.357C119.822 306.716 115.141 251.341 116.614 243.543Z" fill="#727272"/>
<path d="M113.362 304.036C113.278 304.036 113.209 303.973 113.202 303.891C113.167 303.473 109.709 262.038 110.288 252.651C110.866 243.281 110.294 217.644 110.288 217.387C110.286 217.299 110.356 217.227 110.445 217.225H110.448C110.535 217.225 110.607 217.293 110.609 217.38C110.614 217.637 111.187 243.287 110.608 252.67C110.03 262.035 113.487 303.448 113.522 303.865C113.525 303.907 113.512 303.948 113.484 303.98C113.457 304.012 113.417 304.032 113.375 304.036C113.37 304.036 113.366 304.036 113.362 304.036Z" fill="#0B122D"/>
<path d="M103.221 305.366C103.136 305.366 103.066 305.301 103.061 305.217C103.056 305.133 103.118 305.06 103.202 305.05C103.34 305.034 117.002 303.433 117.93 303.297C117.987 303.288 118.044 303.31 118.08 303.355C118.115 303.399 118.124 303.459 118.103 303.512C118.082 303.564 118.034 303.602 117.977 303.61C117.045 303.747 103.378 305.349 103.24 305.365C103.234 305.366 103.227 305.366 103.221 305.366Z" fill="#0B122D"/>
<path d="M88.3848 304.036H69.1565C69.0679 304.036 68.9961 303.965 68.9961 303.877C68.9961 303.79 69.0679 303.719 69.1565 303.719H88.3848C88.4734 303.719 88.5452 303.79 88.5452 303.877C88.5452 303.965 88.4734 304.036 88.3848 304.036Z" fill="#0B122D"/>
<path d="M81.9848 303.612C81.9796 303.612 81.9743 303.612 81.9688 303.611C81.8807 303.603 81.8163 303.525 81.825 303.438C81.8674 303.013 86.0948 260.78 88.3922 246.67C88.3983 246.628 88.4214 246.59 88.456 246.566C88.4907 246.541 88.534 246.531 88.5761 246.539C88.6181 246.545 88.6557 246.568 88.6806 246.602C88.7055 246.636 88.7157 246.678 88.7089 246.72C86.4131 260.821 82.1867 303.044 82.1442 303.469C82.1362 303.55 82.0672 303.612 81.9848 303.612Z" fill="#0B122D"/>
<path d="M114.704 218.14C103.473 218.14 101.93 206.746 101.915 206.625C101.905 206.539 101.967 206.46 102.055 206.449C102.143 206.439 102.222 206.5 102.233 206.587C102.249 206.71 103.909 218.928 116.381 217.741C116.469 217.733 116.547 217.797 116.556 217.884C116.564 217.971 116.5 218.048 116.412 218.057C115.819 218.113 115.25 218.141 114.704 218.14Z" fill="#0B122D"/>
<path d="M115.144 213.618C112.625 213.618 110.628 212.852 109.209 211.341C106.54 208.499 106.843 204.079 106.857 203.892C106.86 203.85 106.879 203.811 106.912 203.783C106.944 203.756 106.986 203.742 107.029 203.746C107.117 203.752 107.183 203.828 107.177 203.915C107.174 203.96 106.872 208.388 109.445 211.127C110.801 212.57 112.719 213.302 115.144 213.302C115.233 213.302 115.305 213.373 115.305 213.46C115.305 213.548 115.233 213.618 115.144 213.618Z" fill="#0B122D"/>
<path d="M76.6292 214.315C76.5554 214.315 76.491 214.266 76.4734 214.195C76.4558 214.124 76.4894 214.05 76.5548 214.017C76.612 213.987 82.2794 210.994 81.9798 205.622C81.9758 205.535 82.0434 205.461 82.1312 205.456C82.2191 205.452 82.2944 205.518 82.3 205.604C82.6111 211.183 76.7623 214.267 76.7033 214.297C76.6804 214.309 76.655 214.315 76.6292 214.315Z" fill="#0B122D"/>
<g style="mix-blend-mode:overlay" opacity="0.6">
<path d="M73.8435 240.717C73.8435 240.717 76.8656 241.981 77.0078 246.197C77.1501 250.412 76.1195 274.581 75.4257 284.557C74.7319 294.534 69.6328 298.747 69.6328 298.747C72.233 271.415 73.8435 240.717 73.8435 240.717Z" fill="white"/>
</g>
<g style="mix-blend-mode:overlay" opacity="0.6">
<path d="M96.8145 255.367C96.8145 255.367 99.9113 257.437 100.907 262.355C101.903 267.273 106.691 293.269 105.364 297.484C104.036 301.699 102.834 301.551 102.834 301.551C100.822 279.548 96.8145 255.367 96.8145 255.367Z" fill="white"/>
</g>
<g style="mix-blend-mode:overlay" opacity="0.6">
<path d="M95.2486 243.485L90.602 224.108C90.602 224.108 86.7211 232.798 87.1412 239.541C87.5613 246.284 90.7689 251.712 93.145 261.306L95.2486 243.485Z" fill="#030F1C"/>
</g>
<g style="mix-blend-mode:overlay" opacity="0.6">
<path d="M78.2107 203.18L77.582 208.005C77.582 208.005 90.4467 215.263 114.325 211.523C114.325 211.523 112.254 205.407 111.926 202.428L78.2107 203.18Z" fill="#030F1C"/>
</g>
<path d="M104.039 131.068C103.289 127.28 102.089 124.459 97.2153 127.844C97.2153 127.844 97.1723 124.092 95.4478 122.61C93.7232 121.129 82.8277 114.528 82.4108 125.377C82.4108 125.377 82.2109 134.092 82.2109 136.268C82.2109 138.444 85.3682 145.815 87.9925 145.815C88.8093 145.796 89.617 145.639 90.3822 145.354C90.0201 148.437 89.0613 151.421 87.559 154.14L103.68 151.001C103.68 151.001 100.788 146.511 100.282 137.691C102.547 135.663 104.55 133.653 104.039 131.068Z" fill="#F7B17D"/>
<path d="M108.624 127.466C107.113 121.064 104.961 111.877 91.9487 112.772C86.2596 113.163 82.9652 115.613 81.3601 118.378L81.3584 118.375C81.3584 118.375 78.5158 121.439 80.1272 132.719C81.2036 140.254 80.0072 142.427 76.9688 148.399C79.4786 151.388 84.5051 152.15 88.507 152.234C89.4632 150.044 90.0947 147.726 90.3816 145.354C89.6165 145.64 88.8087 145.796 87.9919 145.816C85.3676 145.816 82.2103 138.444 82.2103 136.268C82.2103 134.255 82.3814 126.647 82.407 125.521C83.1962 124.525 84.3095 123.023 84.7728 121.94C84.7728 121.94 85.7927 126.271 91.9487 127.877C95.2228 128.731 95.619 131.752 96.6887 131.483C97.1179 131.375 97.2081 128.321 99.9072 127.877C102.606 127.433 105.182 131.411 103.453 133.84C102.523 135.187 101.446 136.427 100.242 137.537C100.242 137.537 100.786 145.652 103.267 150.255C103.267 150.255 112.662 150.255 118.999 141.305C113.26 138.788 109.556 131.417 108.624 127.466Z" fill="#352316"/>
<g style="mix-blend-mode:overlay" opacity="0.6">
<path d="M90.3825 145.354C90.3825 145.354 94.0545 143.752 96.6611 141.301C96.7462 143.922 95.8413 146.479 94.1257 148.465C92.7752 149.983 90.6613 150.424 89.1777 150.524C89.777 148.852 90.1813 147.118 90.3825 145.354Z" fill="#030F1C"/>
</g>
<path d="M111.27 143.91C111.249 143.91 111.229 143.906 111.209 143.898C109.534 143.205 108.209 141.423 107.379 138.744C106.996 137.488 106.743 136.197 106.623 134.89C106.618 134.803 106.684 134.727 106.771 134.721C106.859 134.715 106.935 134.781 106.941 134.868C106.946 134.939 107.482 142.013 111.331 143.605C111.401 143.634 111.441 143.708 111.426 143.782C111.412 143.857 111.346 143.91 111.27 143.91Z" fill="white"/>
<path d="M95.4478 122.769C95.3812 122.769 95.3217 122.728 95.2985 122.666C94.1379 119.539 89.7368 118.092 89.6925 118.078C89.6383 118.06 89.5976 118.015 89.5856 117.96C89.5736 117.904 89.5922 117.847 89.6344 117.809C89.6766 117.771 89.7359 117.758 89.7901 117.775C89.9769 117.835 94.3823 119.283 95.597 122.555C95.6151 122.604 95.6082 122.658 95.5784 122.701C95.5487 122.744 95.4999 122.769 95.4478 122.769Z" fill="white"/>
<path d="M88.4867 126.657C88.7026 126.414 88.9994 126.226 89.89 126.28C90.7805 126.334 92.1298 127.168 91.833 127.384C91.5361 127.599 90.6456 126.872 89.944 127.114C89.2423 127.357 88.8395 127.556 88.6036 127.424C88.3068 127.258 88.3829 126.773 88.4867 126.657Z" fill="#161B36"/>
<path d="M84.6265 126.409C84.3438 126.25 84.0018 126.167 83.1764 126.505C82.351 126.843 81.3441 128.067 81.6947 128.175C82.0454 128.284 82.653 127.309 83.3955 127.312C84.1379 127.315 84.5837 127.374 84.7642 127.173C84.9914 126.921 84.7625 126.486 84.6265 126.409Z" fill="#161B36"/>
<g style="mix-blend-mode:overlay" opacity="0.6">
<path d="M86.1646 137.318C85.8052 137.324 85.4508 137.233 85.1385 137.056C84.9145 136.937 84.7553 136.725 84.704 136.477C84.6294 136.009 85.0494 135.094 85.4862 134.197C85.5569 134.051 85.6146 133.933 85.6482 133.856C86.2128 132.562 85.956 130.101 85.9533 130.076C85.9473 130.02 85.9719 129.964 86.0178 129.931C86.0637 129.897 86.124 129.891 86.176 129.914C86.228 129.937 86.2638 129.986 86.2698 130.042C86.281 130.146 86.538 132.613 85.9401 133.983C85.9053 134.062 85.8458 134.185 85.7725 134.335C85.5066 134.882 84.9532 136.019 85.0183 136.427C85.0587 136.581 85.1629 136.712 85.3051 136.785C85.7277 137.013 86.2239 137.063 86.6837 136.925C86.7378 136.907 86.7971 136.92 86.8392 136.958C86.8814 136.996 86.8999 137.054 86.8879 137.109C86.8759 137.165 86.8351 137.21 86.781 137.227C86.5814 137.289 86.3735 137.32 86.1646 137.318Z" fill="#030F1C"/>
</g>
<path d="M85.5516 140.442C85.5241 140.346 85.536 140.244 85.5846 140.157C85.6333 140.07 85.7146 140.006 85.8106 139.979C86.2882 139.841 87.1685 139.582 87.8391 139.354C88.5382 139.078 89.2181 138.755 89.8742 138.388C89.9886 138.326 90.1269 138.328 90.2402 138.392C90.3535 138.456 90.4258 138.573 90.4314 138.703C90.4769 139.7 90.3567 141.646 88.7857 142.043C86.8749 142.526 85.8746 141.494 85.5516 140.442Z" fill="#161B36"/>
<path d="M86.3828 141.684C86.3828 141.684 88.027 139.393 90.3755 139.917C90.3755 139.917 90.3792 141.706 88.8651 142.109C87.2348 142.543 86.3828 141.684 86.3828 141.684Z" fill="#E55151"/>
<path d="M90.6692 129.757C90.3639 129.689 90.0527 129.652 89.74 129.646C89.4047 129.646 89.1328 130.091 89.1328 130.642C89.1328 131.192 89.4047 131.638 89.74 131.638C90.0753 131.638 90.3472 131.192 90.3472 130.642C90.3516 130.4 90.2925 130.162 90.1758 129.95C90.4196 129.958 90.6617 129.995 90.8969 130.059C91.1245 130.125 91.1402 129.867 90.6692 129.757Z" fill="#161B36"/>
<path d="M84.6012 130.171C84.3192 130.109 84.032 130.072 83.7432 130.061C83.7394 130.061 83.736 130.06 83.7322 130.06C83.7296 130.06 83.7271 130.061 83.7245 130.061C83.6935 130.06 83.672 130.06 83.672 130.06L83.6692 130.07C83.3638 130.122 83.125 130.541 83.125 131.056C83.125 131.606 83.3968 132.052 83.7322 132.052C84.0675 132.052 84.3394 131.606 84.3394 131.056C84.3437 130.815 84.2851 130.578 84.1694 130.367C84.3924 130.378 84.6135 130.414 84.8288 130.474C85.0565 130.539 85.0722 130.281 84.6012 130.171Z" fill="#161B36"/>
<path d="M101.842 130.231C101.075 129.972 100.334 130.667 99.7729 131.453L99.7713 131.455C99.385 132.012 99.0543 132.606 98.7839 133.227C98.7619 133.28 98.7695 133.34 98.8039 133.385C98.8382 133.43 98.8942 133.454 98.9506 133.446C99.007 133.439 99.0554 133.403 99.0774 133.35C99.3295 132.766 99.6381 132.208 99.9988 131.683C100.328 131.626 100.666 131.688 100.953 131.858C101.238 132.069 101.42 132.392 101.454 132.745C101.467 132.821 101.533 132.877 101.611 132.877C101.62 132.877 101.629 132.877 101.637 132.875C101.679 132.868 101.716 132.845 101.741 132.811C101.765 132.777 101.775 132.734 101.768 132.693C101.722 132.252 101.489 131.851 101.128 131.592C100.866 131.427 100.562 131.342 100.252 131.348C100.716 130.774 101.246 130.364 101.74 130.532C101.794 130.55 101.854 130.539 101.897 130.501C101.94 130.464 101.959 130.406 101.948 130.35C101.937 130.295 101.897 130.249 101.842 130.231L101.842 130.231Z" fill="#0B122D"/>
<path d="M90.1202 145.604C90.045 145.604 89.98 145.551 89.9644 145.478C89.9488 145.404 89.9868 145.33 90.0556 145.3C90.1092 145.276 95.4431 142.895 97.6947 140.018C97.7296 139.973 97.7859 139.95 97.8423 139.958C97.8988 139.965 97.9467 140.003 97.968 140.055C97.9893 140.108 97.9808 140.168 97.9456 140.213C95.6447 143.154 90.4064 145.492 90.1846 145.59C90.1643 145.599 90.1424 145.604 90.1202 145.604Z" fill="#0B122D"/>
<path fill-rule="evenodd" clip-rule="evenodd" d="M86.4033 167.429C86.4726 166.713 86.5331 166.089 86.5794 165.596C87.1759 160.235 87.8267 155.545 88.1768 153.127C88.5026 156.584 94.2666 158.145 102.915 150.317C102.894 150.45 102.871 150.583 102.849 150.717C102.843 150.755 102.837 150.793 102.83 150.831C102.73 151.421 102.54 152.502 102.253 153.948C100.82 161.038 98.5906 168.478 98.3376 169.314C97.9275 170.611 97.4892 171.926 97.0185 173.245C95.933 176.288 93.8044 182.511 90.4321 192.632C88.4414 187.311 87.0119 185.026 86.188 183.71C85.6919 182.917 85.4154 182.475 85.3682 181.933C85.1931 179.917 85.9704 171.896 86.4033 167.429ZM111.242 152.51C109.964 152.037 106.855 151.258 104.819 150.768L104.819 150.768C106.856 151.259 109.965 152.037 111.243 152.509C111.279 152.526 111.31 152.551 111.333 152.583C111.309 152.551 111.278 152.526 111.242 152.51ZM77.2389 183.957L77.239 183.957C77.2407 183.962 77.2424 183.967 77.2441 183.971L77.2125 183.892L77.232 183.938C77.2343 183.943 77.2366 183.95 77.2389 183.957ZM75.5163 175.858L75.5183 175.836L75.5172 175.846L75.516 175.857C75.5141 175.878 75.5128 175.899 75.5116 175.919C75.5105 175.937 75.5094 175.955 75.5078 175.973C75.5094 175.955 75.5105 175.938 75.5117 175.92L75.5117 175.92C75.513 175.9 75.5143 175.88 75.5163 175.858Z" fill="white"/>
<g style="mix-blend-mode:overlay" opacity="0.6">
<path d="M85.0332 184.762C85.0332 184.762 91.2402 185.474 97.2683 174.673C97.2683 174.673 97.0563 176.151 95.7976 179.578C94.539 183.004 92.0647 188.503 90.4661 192.812C90.4661 192.812 85.8908 188.613 85.0332 184.762Z" fill="#030F1C"/>
</g>
<path fill-rule="evenodd" clip-rule="evenodd" d="M121.155 166.813C122.416 170.218 123.998 174.488 126.158 179.874C128.356 185.354 127.818 189.844 121.182 191.176L121.068 191.198C119.094 191.594 114.947 192.425 110.521 193.152C110.619 193.715 110.716 194.257 110.808 194.779C111.599 199.241 112.128 202.226 111.837 204.042C107.467 209.189 80.8785 209.56 77.2556 205.278C76.8971 204.317 77.0284 203.438 77.236 202.046C77.3943 200.986 77.597 199.628 77.6611 197.709C77.8995 190.576 77.6496 184.929 77.2331 183.937C77.1087 183.641 76.9875 183.359 76.8706 183.087C75.8891 180.805 75.2093 179.224 75.5167 175.858C75.8012 171.933 76.3214 168.029 77.0747 164.166C76.535 164.092 75.9873 164.014 75.4226 163.929C69.9039 163.108 64.4494 161.903 59.0992 160.322C57.2686 159.775 55.4202 159.168 53.573 158.491C52.8656 158.244 52.188 157.919 51.5528 157.522C47.5201 154.911 49.7316 150.223 57.848 139.894C58.609 138.926 61.4941 135.374 63.2768 133.179C63.8463 132.478 64.3032 131.916 64.5425 131.62C68.4344 131.985 70.9815 135.642 70.9815 135.642L62.7276 150.152C62.5973 150.381 62.5947 150.661 62.7208 150.893C62.8469 151.124 63.0838 151.274 63.3474 151.29C64.7742 151.371 85.45 151.388 87.3263 151.389C87.6292 150.985 88.1341 150.474 88.7545 150.474L88.4357 151.386C88.4357 151.386 87.4501 157.778 86.5804 165.595C86.5341 166.089 86.4736 166.713 86.4043 167.428C85.9714 171.895 85.1941 179.916 85.3692 181.932C85.4164 182.475 85.6929 182.916 86.189 183.709C87.0128 185.026 88.4424 187.31 90.4331 192.631C93.8054 182.511 95.934 176.287 97.0195 173.244C97.4902 171.925 97.9285 170.61 98.3386 169.313C98.5916 168.477 100.821 161.037 102.254 153.947C102.541 152.501 102.731 151.421 102.831 150.83C102.837 150.792 102.844 150.754 102.85 150.717C102.872 150.583 102.895 150.449 102.916 150.317L102.641 149.754C102.644 149.76 102.684 149.76 102.751 149.76C103.116 149.761 104.288 149.764 104.82 150.767C106.857 151.258 109.965 152.036 111.243 152.509C111.318 152.551 111.377 152.617 111.41 152.696C116.466 154.148 117.361 156.567 121.155 166.813ZM110.171 184.888C112.056 184.21 114.438 183.327 115.691 182.861C115.914 182.778 116.093 182.606 116.185 182.387C116.277 182.168 116.274 181.921 116.176 181.704C115.463 180.119 113.841 176.519 112.245 173.032C112.083 175.091 111.771 177.136 111.313 179.151C110.801 181.035 110.419 182.951 110.171 184.888Z" fill="#EDA1A1"/>
<g style="mix-blend-mode:overlay" opacity="0.6">
<path d="M78.334 158.589C76.305 159.271 73.3411 160.212 71.5086 160.545C68.5106 161.088 66.1365 158.82 62.36 158.847C60.4038 158.86 59.0996 160.322 59.0996 160.322C64.4499 161.902 69.9043 163.108 75.423 163.929C75.9877 164.014 76.5354 164.092 77.0751 164.166C77.4099 162.465 77.822 160.605 78.334 158.589Z" fill="#030F1C"/>
</g>
<path d="M60.0551 151.781C59.36 151.785 58.6729 151.635 58.0434 151.341C57.98 151.311 57.953 151.235 57.9829 151.172C58.0128 151.108 58.0884 151.081 58.152 151.111C60.1018 152.026 62.0417 151.125 62.0614 151.116C62.1025 151.096 62.151 151.1 62.1886 151.126C62.2261 151.151 62.2471 151.195 62.2436 151.241C62.24 151.286 62.2125 151.326 62.1714 151.346C61.5034 151.634 60.783 151.783 60.0551 151.781Z" fill="#0B122D"/>
<g style="mix-blend-mode:overlay" opacity="0.6">
<path d="M58.4398 142.913C57.7094 144.371 51.1814 152.422 52.063 155.128C52.7342 157.188 55.2365 156.977 55.0126 159.005C53.8042 158.65 52.6427 158.152 51.5528 157.522C47.5201 154.911 49.7316 150.223 57.848 139.895C58.2 140.164 58.9499 141.896 58.4398 142.913Z" fill="white"/>
</g>
<g style="mix-blend-mode:overlay" opacity="0.6">
<path d="M76.3438 182.104C76.3438 182.104 79.0445 184.588 81.8244 184.64C83.723 184.675 84.1271 185.702 82.1692 186.122C81.2604 186.317 79.5723 186.16 77.7764 186.111C77.4144 184.737 76.9351 183.396 76.3438 182.104L76.3438 182.104Z" fill="#030F1C"/>
</g>
<path d="M81.8169 199.288C81.8108 199.288 81.8047 199.288 81.7987 199.287C78.8176 198.947 77.2358 196.279 77.1699 196.165C77.1258 196.089 77.1518 195.992 77.2278 195.948C77.3039 195.904 77.4013 195.93 77.4454 196.006C77.4608 196.032 79.0156 198.65 81.8347 198.972C81.9185 198.981 81.9803 199.054 81.9756 199.138C81.9708 199.222 81.9012 199.288 81.8169 199.288Z" fill="#0B122D"/>
<g style="mix-blend-mode:overlay" opacity="0.6">
<path d="M103.895 184.815C104.757 184.794 105.528 185.337 106.179 186.216C106.792 186.033 107.448 185.83 108.126 185.604C108.63 185.437 109.371 185.176 110.205 184.876C110.575 182.01 111.752 178.386 112.35 173.258C111.442 171.272 110.538 169.31 109.807 167.759C110.011 169.919 110.217 174.122 109.205 177.432C108.234 180.608 104.437 182.228 101.871 182.667C97.9497 183.338 98.4562 184.944 103.895 184.815Z" fill="#030F1C"/>
</g>
<g style="mix-blend-mode:overlay" opacity="0.6">
<path d="M108.406 193.488C108.502 194.645 108.411 195.81 108.135 196.937C106.783 201.693 101.843 205.021 98.9809 205.701C96.1185 206.382 93.457 208.222 93.457 208.222C93.457 208.222 108.175 208.112 111.838 204.042C112.098 200.393 111.078 197.064 110.462 193.162C109.781 193.274 109.093 193.383 108.406 193.488Z" fill="#030F1C"/>
</g>
<g style="mix-blend-mode:overlay" opacity="0.6">
<path d="M76.3691 181.932C76.3691 181.932 78.4392 183.084 81.9864 183.327C85.5335 183.569 82.221 184.671 80.5012 184.757C78.7814 184.842 78.1331 184.849 77.5309 184.742C77.1732 183.767 76.3691 181.932 76.3691 181.932Z" fill="#030F1C"/>
</g>
<g style="mix-blend-mode:overlay" opacity="0.6">
<path d="M102.64 149.754C102.659 149.795 104.196 149.577 104.824 150.774C105.453 151.971 108.631 160.914 108.232 162.92C107.832 164.927 99.4102 165.595 99.4102 165.595C99.4102 165.595 101.373 158.923 102.915 150.317L102.64 149.754Z" fill="#030F1C"/>
</g>
<g style="mix-blend-mode:overlay" opacity="0.6">
<path d="M88.7555 150.474L88.4367 151.386C88.4367 151.386 87.4511 157.778 86.5814 165.595C86.5814 165.595 80.6816 165.825 80.8046 162.788C80.8874 160.744 87.0152 151.876 87.0152 151.876C87.0152 151.876 87.7292 150.474 88.7555 150.474Z" fill="#030F1C"/>
</g>
<g style="mix-blend-mode:overlay" opacity="0.6">
<path d="M90.4336 192.632L91.0041 205.961C91.0041 205.961 91.6524 196.246 91.6628 194.395C91.6732 192.544 91.7116 188.805 91.7116 188.805L90.4336 192.632Z" fill="#030F1C"/>
</g>
<path d="M106.491 193.929C106.422 193.931 106.364 193.88 106.358 193.812C106.352 193.744 106.399 193.683 106.467 193.673L114.911 192.362C114.982 192.351 115.048 192.399 115.059 192.47C115.069 192.54 115.022 192.606 114.951 192.617L106.507 193.928C106.501 193.929 106.496 193.929 106.491 193.929Z" fill="#0B122D"/>
<g style="mix-blend-mode:overlay" opacity="0.6">
<path d="M118.536 184.1C115.534 185.297 106.837 189.117 105.408 186.423C109.934 185.156 115.692 182.861 115.692 182.861C115.911 182.79 116.088 182.63 116.181 182.42C116.273 182.21 116.27 181.97 116.174 181.762C115.505 180.394 114.381 177.578 112.369 173.353C113.05 173.082 114.465 173.351 114.91 174.171C115.426 175.127 118.019 180.223 119.118 182.278C119.365 182.739 119.33 183.783 118.536 184.1Z" fill="white"/>
</g>
<path d="M119.034 184.786C118.971 184.786 118.917 184.741 118.907 184.678C118.893 184.594 118.533 182.603 116.169 182.535C116.123 182.534 116.08 182.508 116.059 182.467C116.037 182.427 116.038 182.378 116.062 182.338C116.086 182.299 116.13 182.276 116.176 182.277C117.61 182.246 118.864 183.237 119.162 184.637C119.174 184.707 119.126 184.773 119.055 184.785C119.048 184.786 119.041 184.786 119.034 184.786Z" fill="#0B122D"/>
<path d="M112.058 171.314C112.032 171.315 112.006 171.306 111.984 171.291C108.285 168.729 108.273 163.151 108.273 163.095C108.274 163.024 108.332 162.967 108.403 162.967H108.404C108.438 162.967 108.471 162.981 108.495 163.005C108.519 163.029 108.532 163.062 108.532 163.097C108.532 163.151 108.545 168.595 112.132 171.079C112.178 171.112 112.198 171.17 112.181 171.224C112.164 171.278 112.114 171.315 112.058 171.314L112.058 171.314Z" fill="#0B122D"/>
<path d="M98.3815 199.437L87.5401 181.082L84.5752 176.061C84.3397 175.662 83.9097 175.417 83.4451 175.417H65.8759C65.3559 175.477 64.894 175.776 64.6278 176.225C64.5699 176.307 64.5171 176.392 64.4695 176.479C64.3954 176.611 64.3351 176.75 64.2894 176.894C64.2894 176.897 64.2863 176.897 64.2863 176.901C64.1445 177.241 64.1558 177.625 64.3174 177.957L64.2987 177.92C64.3067 177.942 64.3161 177.964 64.3267 177.985L64.336 177.997C64.3391 178 64.3391 178.003 64.3422 178.006C64.3503 178.026 64.3596 178.044 64.3702 178.062L74.0287 194.416L75.7797 197.377L78.1765 201.437C78.412 201.837 78.842 202.082 79.3066 202.082H96.8758C96.9402 202.081 97.0046 202.076 97.0683 202.066C98.0835 202.063 98.8969 200.31 98.3815 199.437Z" fill="#B5B4B4"/>
<g style="mix-blend-mode:overlay" opacity="0.6">
<path d="M64.229 177.725C64.2177 177.68 64.2089 177.635 64.2026 177.589C64.2086 177.635 64.2174 177.68 64.229 177.725Z" fill="#030F1C"/>
<path d="M64.299 177.919C64.3093 177.94 64.3163 177.963 64.3283 177.983L64.3436 178.008C64.3279 177.978 64.3122 177.949 64.299 177.919Z" fill="#030F1C"/>
<path d="M64.284 177.887C64.2625 177.835 64.2443 177.782 64.2297 177.727C64.2431 177.782 64.2613 177.836 64.284 177.887Z" fill="#030F1C"/>
<path d="M97.0679 202.066C97.4994 202.003 97.871 201.729 98.059 201.336C98.2471 200.944 98.227 200.484 98.0055 200.109L86.953 181.398L84.1991 176.733C83.9636 176.334 83.5336 176.089 83.069 176.089H65.4999C64.9695 176.086 64.4905 176.405 64.2891 176.894C64.3347 176.75 64.3951 176.611 64.4691 176.479C64.516 176.391 64.5689 176.306 64.6275 176.225C64.8936 175.776 65.3556 175.477 65.8755 175.417H83.4447C83.9093 175.417 84.3393 175.662 84.5748 176.061L87.5397 181.082L98.3811 199.437C98.8965 200.31 98.0831 202.063 97.0679 202.066Z" fill="#030F1C"/>
</g>
<g style="mix-blend-mode:overlay" opacity="0.6">
<path d="M65.3405 177.293H66.5564C66.6357 177.293 66.7091 177.335 66.7491 177.403L67.0463 177.911C67.0866 177.979 67.087 178.065 67.0472 178.134C67.0074 178.203 66.9335 178.246 66.8535 178.246H65.6376C65.5582 178.246 65.4849 178.204 65.4448 178.135L65.1477 177.628C65.1073 177.559 65.107 177.474 65.1468 177.405C65.1866 177.336 65.2605 177.293 65.3405 177.293V177.293Z" fill="#030F1C"/>
</g>
<g style="mix-blend-mode:overlay" opacity="0.6">
<path d="M77.3268 185.631H78.9216C79.3912 185.65 79.8302 185.868 80.1276 186.231C80.8127 187.039 80.4953 188.054 79.5576 188.054H77.9628C77.4932 188.035 77.0542 187.817 76.7568 187.454C76.0717 186.646 76.3891 185.631 77.3268 185.631Z" fill="#030F1C"/>
</g>
<path fill-rule="evenodd" clip-rule="evenodd" d="M82.5798 125.146C82.8273 124.519 82.749 123.811 82.3706 123.254C82.3706 123.254 82.49 123.144 82.669 122.982C83.1013 122.591 84.4586 120.962 83.8622 120.186C83.3315 119.496 82.7456 119.896 82.2799 120.257C82.4476 120.07 83.0012 119.19 82.1177 118.149C81.4982 117.415 80.2528 118.5 80.2528 118.5C80.2528 118.5 80.3681 117.123 79.5599 116.75C78.6752 116.345 77.7351 117.29 77.6739 117.358C77.6833 117.28 77.8302 115.981 76.6475 115.885C76.1769 115.848 75.1371 116.704 74.0273 118.047C73.8903 118.214 73.7525 118.388 73.6138 118.568C73.5831 118.609 73.5531 118.648 73.5206 118.69L73.5204 118.692C73.2707 119.022 73.0216 119.374 72.7776 119.743L72.7786 119.745C72.6238 119.979 72.4728 120.203 72.3268 120.421C71.3478 121.876 70.5888 123.004 70.3708 124.604H70.3723C70.2278 125.33 69.71 126.135 69.3511 126.694C69.3072 126.762 69.2658 126.826 69.2276 126.887L69.2276 126.886L65.1035 131.699C67.7634 132.174 69.7196 134.125 70.5461 135.093L73.7636 129.566C74.1757 129.18 74.6748 128.898 75.2189 128.744C76.7413 128.325 78.2285 127.788 79.6671 127.138C79.6671 127.138 82.1425 126.152 82.5798 125.146ZM102.916 150.317L88.436 151.386C88.2113 152.112 88.1 152.868 88.1061 153.627C88.1313 153.451 88.1555 153.284 88.1782 153.126C88.504 156.583 94.268 158.145 102.916 150.317ZM95.8205 189.318C95.9045 189.308 98.3954 188.678 101.285 187.942C101.152 189.047 101.118 191.514 103.011 193.353L97.6765 194.374C97.6746 194.377 97.6729 194.381 97.6712 194.385C97.6694 194.39 97.6675 194.394 97.6654 194.398C96.6851 194.608 95.5689 194.922 94.8835 195.354C93.7762 196.051 91.0077 196.318 90.0098 196.12C88.363 196.34 86.0814 196.617 85.6552 196.522C84.9747 196.371 85.1454 195.726 85.5045 195.486C85.659 195.383 84.967 195.256 84.399 195.151C84.2123 195.117 84.039 195.085 83.9136 195.057C83.1527 194.889 83.3434 194.167 83.7447 193.899C84.0042 193.726 83.0657 193.513 82.4768 193.383C81.7158 193.214 81.9065 192.492 82.3078 192.225C82.3973 192.165 82.5732 192.085 82.7636 191.997C83.2239 191.787 83.7684 191.537 83.378 191.451C82.6174 191.283 82.8084 190.561 83.2095 190.293C83.5224 190.084 86.7422 189.712 88.1412 189.558C88.2432 189.544 88.3493 189.53 88.4565 189.516C89.0785 189.435 89.7389 189.349 89.8705 189.158C89.9938 188.979 89.6605 188.528 89.228 187.944C89.0295 187.676 88.8101 187.379 88.6044 187.068C87.9498 186.078 88.8446 184.689 89.1504 184.783C89.2897 184.825 89.8426 185.522 90.4705 186.313C91.221 187.259 92.0786 188.34 92.4652 188.6C92.9746 188.944 93.6367 189.098 94.1583 189.221C94.3634 189.268 94.5468 189.311 94.6906 189.359C95.0675 189.406 95.4493 189.4 95.8244 189.34L95.8205 189.318Z" fill="#F7B17D"/>
<path d="M76.1157 119.348C76.1536 119.348 76.1896 119.331 76.2138 119.302L77.4541 117.814C77.4987 117.76 77.4912 117.68 77.4372 117.635C77.3833 117.59 77.3032 117.597 77.258 117.651L76.0178 119.139C75.9862 119.177 75.9794 119.23 76.0003 119.274C76.0213 119.319 76.0662 119.347 76.1157 119.348Z" fill="#030F1C"/>
<path d="M78.6907 123.012C78.2462 123.116 77.9513 123.08 77.8131 122.907C77.5512 122.577 77.853 121.78 77.9914 121.501C78.0162 121.451 78.0053 121.39 77.9644 121.352C77.9234 121.313 77.8622 121.306 77.8135 121.334C77.1866 121.693 76.7133 121.771 76.4069 121.566C75.7856 121.15 75.9708 119.708 75.9728 119.693C75.979 119.648 75.9598 119.602 75.9226 119.574C75.8854 119.547 75.8361 119.542 75.7939 119.561C75.2988 119.784 74.9179 119.813 74.6621 119.645C74.2725 119.391 74.2765 118.75 74.2766 118.743C74.2776 118.673 74.2213 118.615 74.151 118.614C74.1169 118.613 74.0836 118.625 74.0591 118.649C74.0346 118.673 74.021 118.705 74.0215 118.739C74.0211 118.771 74.0144 119.525 74.5212 119.858C74.8879 120.054 75.3276 120.061 75.6998 119.875C75.6696 120.331 75.6706 121.379 76.2644 121.777C76.5983 122.001 77.0538 121.981 77.622 121.72C77.4822 122.101 77.331 122.709 77.6133 123.065C77.7754 123.248 78.0147 123.344 78.2588 123.323C78.424 123.321 78.5884 123.299 78.7488 123.26C78.7935 123.25 78.8294 123.217 78.8429 123.173C78.8563 123.129 78.8451 123.082 78.8137 123.048C78.7822 123.015 78.7353 123.001 78.6907 123.012L78.6907 123.012Z" fill="#030F1C"/>
<path d="M82.3728 123.018C82.3007 122.901 80.7803 120.447 79.4035 119.996L80.1789 118.998C80.2221 118.943 80.2119 118.863 80.1563 118.82C80.1006 118.777 80.0205 118.787 79.9774 118.842L79.1294 119.933C79.0464 119.922 78.9624 119.921 78.879 119.929C78.6691 119.944 78.4818 120.066 78.3841 120.252C77.8844 121.194 79.3252 123.949 79.4911 124.26C79.5132 124.301 79.5566 124.327 79.6038 124.327C79.6485 124.327 79.69 124.304 79.713 124.265C79.736 124.227 79.7373 124.179 79.7163 124.14C79.2831 123.328 78.2399 121.068 78.6095 120.371C78.667 120.259 78.7806 120.187 78.9066 120.182C80.2242 120.038 82.1362 123.12 82.1554 123.151C82.1925 123.21 82.2705 123.229 82.3301 123.192C82.3897 123.156 82.4088 123.078 82.3728 123.018L82.3728 123.018Z" fill="#030F1C"/>
<path d="M88.3879 191.118C88.3851 191.088 88.3702 191.059 88.3464 191.04C88.3227 191.02 88.2922 191.011 88.2616 191.014L83.1905 191.503C83.1283 191.509 83.082 191.563 83.0862 191.626C83.0904 191.688 83.1435 191.736 83.206 191.733L83.2128 191.733L88.2838 191.244C88.3144 191.241 88.3425 191.226 88.362 191.203C88.3815 191.179 88.3908 191.149 88.3879 191.118Z" fill="#0B122D"/>
<path d="M88.7021 193.246C88.6936 193.183 88.6361 193.139 88.5728 193.146L83.4215 193.797C83.3601 193.805 83.3157 193.859 83.3207 193.921C83.3258 193.983 83.3785 194.029 83.4403 194.027L83.4505 194.026L88.6018 193.375C88.6322 193.372 88.6599 193.356 88.6787 193.332C88.6975 193.307 88.7059 193.277 88.7021 193.246Z" fill="#0B122D"/>
<path d="M89.5119 194.935L85.1839 195.383C85.1218 195.389 85.076 195.444 85.0804 195.506C85.0848 195.568 85.1378 195.615 85.2001 195.613L85.2077 195.613L89.5357 195.165C89.5993 195.158 89.6455 195.101 89.6389 195.038C89.6316 194.975 89.5753 194.929 89.5119 194.935Z" fill="#0B122D"/>
</svg>
