<svg width="43" height="56" viewBox="0 0 43 56" fill="none" xmlns="http://www.w3.org/2000/svg">
<path d="M5.56251 3.30735e-06L29.9513 1.94398e-05C31.7156 2.06068e-05 33.3493 0.929853 34.2502 2.44678L41.6683 14.9368C42.1272 15.7094 42.3694 16.5915 42.3694 17.4901V50.8952C42.3694 53.6566 40.1308 55.8952 37.3694 55.8952H5.5625C2.80108 55.8952 0.5625 53.6566 0.5625 50.8952V5C0.5625 2.23858 2.80108 0 5.56251 3.30735e-06Z" fill="#C4C4C4"/>
<path d="M6.60156 28.9063C6.60156 26.6971 8.39242 24.9062 10.6016 24.9062H31.384C33.5931 24.9062 35.384 26.6971 35.384 28.9062V51.9997C35.384 54.2088 33.5931 55.9997 31.384 55.9997H10.6016C8.39242 55.9997 6.60156 54.2088 6.60156 51.9997V28.9063Z" fill="#EE0033"/>
<path d="M16.777 44.7436V43.2051H12V41.1867C12.8277 39.6439 14.0556 37.6671 15.6839 35.2564H19.1183V41.3248H20.3327V43.2051H19.1183V44.7436H16.777ZM14.1388 41.2919V41.4103H16.8377V36.979H16.7163C15.9246 38.1668 15.0655 39.6044 14.1388 41.2919Z" fill="white"/>
<path d="M31 40.7922C31 42.0984 30.6064 43.1262 29.8192 43.8757C29.0366 44.6252 27.957 45 26.5806 45C25.0827 45 23.9087 44.5551 23.0586 43.6654C22.2085 42.7756 21.7834 41.5505 21.7834 39.9901C21.7834 38.4473 22.2062 37.231 23.0518 36.3412C23.8975 35.4471 25.0513 35 26.5131 35C27.7006 35 28.697 35.309 29.5021 35.927C30.3118 36.5407 30.7773 37.3493 30.8988 38.3531H28.4563C28.3349 37.9367 28.101 37.6101 27.7546 37.3734C27.4128 37.1324 26.9989 37.0118 26.5131 37.0118C25.8204 37.0118 25.2784 37.2726 24.8871 37.7942C24.5002 38.3158 24.3068 39.039 24.3068 39.9638C24.3068 40.8974 24.516 41.636 24.9343 42.1795C25.3571 42.7186 25.9239 42.9882 26.6346 42.9882C27.1969 42.9882 27.6579 42.8413 28.0178 42.5477C28.3776 42.254 28.5733 41.8661 28.6048 41.384L28.6115 41.2262H26.8303V39.5694H31V40.7922Z" fill="white"/>
</svg>
