<svg width="55" height="56" viewBox="0 0 55 56" fill="none" xmlns="http://www.w3.org/2000/svg">
<path d="M27.37 55.29C12.25 55.29 0 43.03 0 27.92C0 12.8 12.25 0.549973 27.37 0.549973C42.49 0.549973 54.74 12.8 54.74 27.92C54.74 43.03 42.49 55.29 27.37 55.29Z" fill="url(#paint0_linear)"/>
<path d="M42.0399 27.1C42.4999 35.46 35.9199 42.42 27.7099 42.61V41.29C35.1599 41.1 41.1199 34.79 40.7199 27.2C40.3599 20.44 34.7999 14.89 28.0299 14.55C20.3499 14.17 13.9799 20.31 13.9799 27.91C13.9799 31.66 15.5799 35.27 18.3799 37.82L18.6199 38.04L21.0199 35.64L22.1399 42.2L15.5799 41.08L17.6999 38.96L17.4299 38.72C14.3999 35.95 12.6699 32.02 12.6699 27.91C12.6699 19.58 19.6299 12.84 28.0399 13.23C35.4899 13.58 41.6299 19.66 42.0399 27.1Z" fill="#EDEFEF"/>
<path d="M32.57 28.58L25.14 32.9C24.86 33.06 24.5 32.86 24.5 32.53V23.88C24.5 23.55 24.86 23.35 25.14 23.51L32.57 27.84C32.85 28.01 32.85 28.42 32.57 28.58Z" fill="#EDEFEF"/>
<defs>
<linearGradient id="paint0_linear" x1="0" y1="27.9178" x2="54.744" y2="27.9178" gradientUnits="userSpaceOnUse">
<stop stop-color="#F0843F"/>
<stop offset="1" stop-color="#E81E36"/>
</linearGradient>
</defs>
</svg>
