<svg width="205" height="205" viewBox="0 0 205 205" fill="none" xmlns="http://www.w3.org/2000/svg">
<path d="M102.4 204.4C158.844 204.4 204.6 158.643 204.6 102.2C204.6 45.7565 158.844 0 102.4 0C45.9566 0 0.200195 45.7565 0.200195 102.2C0.200195 158.643 45.9566 204.4 102.4 204.4Z" fill="#EE0033"/>
<path d="M147.4 57.2H57.5V147.1H147.4V57.2Z" fill="white" stroke="#EE8FA3" stroke-width="14" stroke-linecap="round" stroke-linejoin="round"/>
<path d="M83.2001 120.6L82.1001 88.6998C82.1001 87.6998 81.3 86.8999 80.3 86.8999C79.3 86.8999 78.5 87.6998 78.5 88.6998L77.5 120.6L80.4 121.8L83.2001 120.6Z" fill="#454D58"/>
<path d="M127.4 120.6L126.4 88.6998C126.4 87.6998 125.6 86.8999 124.6 86.8999C123.6 86.8999 122.8 87.6998 122.8 88.6998L121.7 120.6L124.6 121.8L127.4 120.6Z" fill="#454D58"/>
<path d="M77.4004 123L80.3004 124.2L83.2004 123L83.1005 120.6H77.4004V123Z" fill="#3C434C"/>
<path d="M121.601 123L124.5 124.2L127.401 123L127.301 120.6H121.601V123Z" fill="#3C434C"/>
<path d="M72.3002 135.3H132.5C135.1 135.3 135.1 132.9 135.1 131.5V125.6C135.1 124.2 133.9 123 132.5 123H72.3002C70.8002 123 69.7002 124.2 69.7002 125.6V131.5C69.7002 132.9 69.7002 135.3 72.3002 135.3Z" fill="#EE0033"/>
<path d="M132.5 134.1H72.3002C70.8002 134.1 69.7002 132.9 69.7002 131.5V133.9C69.7002 135.4 70.9002 136.5 72.3002 136.5H132.5C134 136.5 135.1 135.3 135.1 133.9V131.5C135.1 132.9 134 134.1 132.5 134.1Z" fill="#EE8FA3"/>
<path d="M76.2998 130.9C75.6998 130.9 75.2998 131.3 75.2998 131.9C75.2998 132.5 75.6998 132.9 76.2998 132.9H79.4998C79.9998 132.9 80.4998 132.5 80.4998 131.9C80.4998 131.4 79.9998 130.9 79.4998 130.9H76.2998Z" fill="white"/>
<path d="M86.9998 130.9H83.7998C83.1998 130.9 82.7998 131.3 82.7998 131.9C82.7998 132.5 83.1998 132.9 83.7998 132.9H86.9998C87.4998 132.9 87.9998 132.5 87.9998 131.9C87.8998 131.3 87.4998 130.9 86.9998 130.9Z" fill="white"/>
<path d="M91.2998 130.9C90.7998 130.9 90.2998 131.3 90.2998 131.9C90.2998 132.5 90.6998 132.9 91.2998 132.9H94.4998C94.9998 132.9 95.4998 132.5 95.4998 131.9C95.4998 131.4 95.0998 130.9 94.4998 130.9H91.2998Z" fill="white"/>
<path d="M98.7002 130.9C98.2002 130.9 97.7002 131.3 97.7002 131.9C97.7002 132.5 98.2002 132.9 98.7002 132.9H101.9C102.5 132.9 102.9 132.5 102.9 131.9C102.9 131.4 102.5 130.9 101.9 130.9H98.7002Z" fill="white"/>
<path d="M121.2 132.9C121.8 132.9 122.2 132.5 122.2 131.9C122.2 131.4 121.8 130.9 121.2 130.9H118C117.5 130.9 117 131.3 117 131.9C117 132.5 117.4 132.9 118 132.9H121.2Z" fill="white"/>
<path d="M128.5 132.9C129.1 132.9 129.5 132.5 129.5 131.9C129.5 131.4 129.1 130.9 128.5 130.9H125.3C124.8 130.9 124.3 131.3 124.3 131.9C124.3 132.5 124.8 132.9 125.3 132.9H128.5Z" fill="white"/>
<path d="M90.2996 102.2C96.9996 95.4998 107.9 95.4998 114.6 102.2C114.8 102.4 115 102.5 115.3 102.5C115.6 102.5 115.8 102.4 116 102.2C116.4 101.8 116.4 101.2 116 100.8C108.5 93.2998 96.3996 93.2998 88.8996 100.8C88.4996 101.2 88.4996 101.8 88.8996 102.2C89.1996 102.6 89.8996 102.6 90.2996 102.2Z" fill="#EE0033"/>
<path d="M112.2 106C112.6 105.6 112.6 105 112.2 104.6C106.8 99.1998 98 99.1998 92.6 104.6C92.3 104.9 92.1999 105.4 92.3999 105.8C92.5999 106.1 92.9 106.3 93.3 106.3C93.5 106.3 93.6 106.3 93.7 106.2C93.8 106.1 93.8999 106.1 93.9999 106C98.5999 101.4 106.1 101.4 110.8 106C111.2 106.4 111.8 106.4 112.2 106Z" fill="#EE0033"/>
<path d="M107.8 110C108 110 108.3 109.9 108.5 109.7C108.9 109.3 108.9 108.7 108.5 108.3C106.9 106.7 104.7 105.8 102.4 105.8C100.1 105.8 97.9 106.7 96.3 108.3C95.9 108.7 95.9 109.3 96.3 109.7C96.7 110.1 97.3 110.1 97.7 109.7C98.9 108.5 100.6 107.8 102.4 107.8C104.2 107.8 105.8 108.5 107.1 109.7C107.3 109.9 107.5 110 107.8 110Z" fill="#EE0033"/>
<path d="M99.5001 111.5C99.3001 111.7 99.2002 111.9 99.2002 112.2C99.2002 113.1 100.3 113.5 100.9 112.9C101.3 112.5 101.8 112.3 102.3 112.3C102.8 112.3 103.4 112.5 103.8 112.9C104.8 113.8 106.1 112.5 105.2 111.5C103.7 109.9 101.1 109.9 99.5001 111.5Z" fill="#EE0033"/>
</svg>
