<svg width="65" height="60" viewBox="0 0 65 60" fill="none" xmlns="http://www.w3.org/2000/svg">
<g clip-path="url(#clip0)">
<path d="M44.3256 3.93425C45.7916 3.93425 47.1717 4.61518 48.1089 5.80183C48.6495 6.48674 49.4876 7.93487 49.0223 9.93385C48.598 11.7536 47.2087 13.1487 45.3964 13.5748L37.7717 15.3654L39.5549 7.70922C39.9792 5.88943 41.3686 4.49439 43.1809 4.06831C43.5629 3.97938 43.9476 3.93425 44.3256 3.93425ZM44.3256 0C43.6607 0 42.9786 0.076986 42.2886 0.238922C39.0381 1.00215 36.5014 3.55065 35.7399 6.81459L32.5185 20.6402L46.2886 17.4055C49.5392 16.6423 52.0759 14.0938 52.8373 10.8298C54.1578 5.15674 49.7811 0 44.3256 0Z" fill="#00649F"/>
<path d="M20.7113 3.93425C21.0881 3.93425 21.4741 3.97938 21.8561 4.06964C23.6684 4.49572 25.0577 5.89076 25.482 7.71055L27.2653 15.3667L19.6406 13.5761C17.8283 13.15 16.439 11.755 16.0147 9.93518C15.5494 7.93487 16.3861 6.48807 16.9281 5.80315C17.8653 4.61518 19.2454 3.93425 20.7113 3.93425ZM20.7113 0C15.2559 0 10.8791 5.15674 12.201 10.8298C12.9611 14.0938 15.4991 16.6409 18.7496 17.4055L32.5185 20.6402L29.297 6.81459C28.5369 3.55065 25.9989 1.00347 22.7484 0.238922C22.0597 0.076986 21.3776 0 20.7113 0Z" fill="#00649F"/>
<path d="M32.6084 20.2554L32.5185 20.6403L32.6084 20.2554Z" fill="#FFAC8C"/>
<path d="M44.3256 0C43.6607 0 42.9786 0.076986 42.2886 0.238922C39.0381 1.00215 36.5013 3.55065 35.7399 6.81459L34.8133 10.7926C34.8926 10.8006 34.9706 10.8112 35.0486 10.8232L35.7399 8.14194C36.5 4.878 39.0381 2.33082 42.2886 1.56627C42.9773 1.40433 43.6594 1.32735 44.3256 1.32735C48.8941 1.32735 52.7064 4.94303 53.0488 9.4507C53.4348 4.34706 49.3356 0 44.3256 0Z" fill="#3296D1"/>
<path d="M32.4286 20.2554L32.5172 20.6403L32.4286 20.2554Z" fill="#FFAC8C"/>
<path d="M20.7114 0C21.3763 0 22.0584 0.076986 22.7484 0.238922C25.9989 1.00215 28.5356 3.55065 29.2971 6.81459L30.2237 10.7926C30.1444 10.8006 30.0664 10.8112 29.9884 10.8232L29.2971 8.14194C28.537 4.878 25.9989 2.33082 22.7484 1.56627C22.0597 1.40433 21.3776 1.32735 20.7114 1.32735C16.1429 1.32735 12.3306 4.94303 11.9882 9.4507C11.6022 4.34706 15.7014 0 20.7114 0Z" fill="#3296D1"/>
<path d="M37.7721 18.0422L43.1323 16.5993L42.4555 14.0654C42.059 12.5788 40.5375 11.6974 39.0569 12.0957C37.5764 12.4939 36.6987 14.0216 37.0953 15.5083L37.7721 18.0422Z" fill="#58DBDB"/>
<g filter="url(#filter0_d)">
<path d="M46.1921 51.6867C45.8181 50.2865 46.6483 48.8478 48.0478 48.4711L48.3429 48.3917C49.7409 48.0154 51.1788 48.8452 51.5523 50.2439C51.9489 51.7305 51.0698 53.2583 49.5906 53.6565C48.1101 54.0547 46.5886 53.172 46.1921 51.6867Z" fill="white"/>
</g>
<path d="M61.7455 41.1852L57.5498 35.3302L54.5253 23.9947C52.7513 17.3447 45.9449 13.3998 39.3222 15.1811C32.7009 16.9624 28.7709 23.7969 30.5449 30.4469L33.5694 41.7825L32.8516 48.9594L61.7455 41.1852Z" fill="#58DBDB"/>
<path d="M33.0604 48.9021L61.5366 41.2406C63.0039 40.8464 64.5122 41.7198 64.9061 43.1945C65.2987 44.6678 64.4289 46.1823 62.9603 46.5779L34.4841 54.2393C33.0168 54.6335 31.5085 53.7601 31.1146 52.2855C30.722 50.8121 31.5931 49.2976 33.0604 48.9021Z" fill="#58DBDB"/>
<path d="M64.9062 43.1944C64.848 42.9754 64.7621 42.7723 64.659 42.5825C64.31 43.2196 63.7151 43.7201 62.9617 43.9231L34.4855 51.5846C33.235 51.9204 31.958 51.335 31.3632 50.244C31.034 50.8466 30.9243 51.5713 31.116 52.2867C31.5086 53.7601 33.0182 54.6348 34.4855 54.2406L62.9617 46.5792C64.429 46.1823 65.2988 44.6678 64.9062 43.1944Z" fill="#3ABDBD"/>
<path d="M20.5414 53.4412L14.8904 51.9214L14.1779 54.5933C13.7601 56.1596 14.6855 57.771 16.2466 58.1904C17.8064 58.6099 19.4112 57.6807 19.8289 56.1131L20.5414 53.4412Z" fill="#6DADC5"/>
<path d="M29.1596 22.2407L23.5085 20.7209L24.221 18.049C24.6388 16.4827 26.2435 15.5523 27.8034 15.9717C29.3632 16.3911 30.2898 18.0025 29.8721 19.5688L29.1596 22.2407Z" fill="#A1F1FC"/>
<path d="M26.6367 18.451C19.6558 16.5728 12.4806 20.7327 10.6101 27.7411L7.42172 39.6912L3 45.8633L33.4577 54.0583L32.7016 46.4925L35.89 34.5424C37.7604 27.5327 33.6176 20.3278 26.6367 18.451Z" fill="#8BCBE3"/>
<path d="M33.6691 53.177L3.65164 45.1001C2.10502 44.6833 0.51479 45.6058 0.0997164 47.1588C-0.315357 48.7118 0.603357 50.3086 2.14997 50.7254L32.1675 58.8023C33.7141 59.2191 35.3043 58.2966 35.7194 56.7436C36.1344 55.1893 35.2171 53.5925 33.6691 53.177Z" fill="#8BCBE3"/>
<path d="M32.1688 56.1477L2.15131 48.0708C1.32645 47.8491 0.681369 47.2916 0.320493 46.5854C0.229283 46.7646 0.153935 46.9571 0.101059 47.1589C-0.314014 48.7119 0.604699 50.3087 2.15131 50.7254L32.1688 58.8023C33.7154 59.2191 35.3056 58.2966 35.7207 56.7436C35.915 56.0176 35.8172 55.2822 35.5013 54.6624C34.8906 55.8596 33.5132 56.5087 32.1688 56.1477Z" fill="#6DADC5"/>
<path d="M47.9278 28.8336C45.6039 28.3199 43.4082 27.8341 41.5245 27.1093C38.7592 26.0461 36.9402 23.5812 35.9012 21.7004C34.9164 19.9178 34.4352 18.3435 34.307 17.8843C33.4095 18.6833 32.6348 19.6058 32.0056 20.6186C32.003 20.6213 32.0016 20.6252 31.999 20.6279C31.9104 20.7713 31.8245 20.9159 31.7412 21.0633C30.8397 22.6574 30.2858 24.4507 30.151 26.3182C31.1504 25.113 31.9276 23.8321 32.5185 22.6667C33.9118 25.4196 36.3454 28.8136 40.2952 30.3335C42.4168 31.1498 44.8425 31.686 47.1875 32.205C51.5379 33.1673 56.023 34.1615 58.6893 36.9211L57.5498 35.3309L56.487 31.3502C53.7838 30.1304 50.7513 29.4574 47.9278 28.8336Z" fill="#3ABDBD"/>
<path d="M31.7412 21.0634C31.613 20.9625 31.4835 20.8656 31.3513 20.7701C31.3367 20.7594 31.3209 20.7475 31.3063 20.7369C30.8913 20.4382 30.4577 20.1635 30.0043 19.9126C29.7743 20.4542 29.4874 21.0634 29.1358 21.7005C28.0968 23.5814 26.2779 26.0463 23.5125 27.1095C21.6301 27.8329 19.4344 28.3187 17.1092 28.8337C14.8964 29.3235 12.5566 29.8412 10.3451 30.6283L9.21887 34.8479C11.7199 33.5604 14.8171 32.8741 17.8482 32.2038C20.1932 31.6848 22.6189 31.1486 24.7405 30.3323C28.6903 28.8138 31.1252 25.4198 32.5172 22.6655C33.3526 24.3181 34.5648 26.2002 36.2528 27.7705C35.4928 25.1317 33.9171 22.7717 31.7412 21.0634Z" fill="#77B7CF"/>
<path d="M62.0813 32.9379C58.7805 28.5802 53.0158 27.3046 47.9278 26.179C45.6039 25.6654 43.4082 25.1795 41.5246 24.4548C38.7592 23.3916 36.9402 20.9267 35.9012 19.0459C34.734 16.9327 34.2753 15.1143 34.2713 15.0957L32.5185 15.5337L30.7657 15.0957C30.7617 15.1143 30.303 16.9327 29.1358 19.0459C28.0968 20.9267 26.2779 23.3916 23.5125 24.4548C21.6301 25.1782 19.4344 25.664 17.1092 26.179C12.0226 27.3046 6.25651 28.5802 2.95575 32.9379L5.82822 32.4242L5.69074 35.0258C8.22745 31.6769 13.1184 30.5951 17.8482 29.5478C20.1932 29.0289 22.6189 28.4926 24.7405 27.6763C28.6903 26.1578 31.1252 22.7638 32.5172 20.0095C33.9105 22.7625 36.3441 26.1565 40.2939 27.6763C42.4155 28.4926 44.8412 29.0289 47.1862 29.5478C51.9159 30.5938 56.8069 31.6756 59.3436 35.0258L59.2062 32.4242L62.0813 32.9379Z" fill="#00649F"/>
<path d="M34.3599 12.7373H30.6771C29.1847 12.7373 27.9752 13.9518 27.9752 15.4504V15.5752C27.9752 17.0737 29.1847 18.2883 30.6771 18.2883H34.3599C35.8523 18.2883 37.0618 17.0737 37.0618 15.5752V15.4504C37.0618 13.9518 35.8523 12.7373 34.3599 12.7373Z" fill="#00649F"/>
<path d="M34.3847 13H30.7019C29.2095 13 28 14.2145 28 15.7131V15.8379C28 16.0449 28.0251 16.2454 28.0687 16.4391C28.341 15.2299 29.4157 14.3273 30.7019 14.3273H34.3847C35.6709 14.3273 36.7456 15.2313 37.0179 16.4391C37.0616 16.2454 37.0867 16.0449 37.0867 15.8379V15.7131C37.0867 14.2145 35.8771 13 34.3847 13Z" fill="#3296D1"/>
</g>
<defs>
<filter id="filter0_d" x="6.10242" y="18.3013" width="85.5451" height="85.451" filterUnits="userSpaceOnUse" color-interpolation-filters="sRGB">
<feFlood flood-opacity="0" result="BackgroundImageFix"/>
<feColorMatrix in="SourceAlpha" type="matrix" values="0 0 0 0 0 0 0 0 0 0 0 0 0 0 0 0 0 0 127 0"/>
<feOffset dy="10"/>
<feGaussianBlur stdDeviation="20"/>
<feColorMatrix type="matrix" values="0 0 0 0 0.152941 0 0 0 0 0.203922 0 0 0 0 0.490196 0 0 0 0.12 0"/>
<feBlend mode="normal" in2="BackgroundImageFix" result="effect1_dropShadow"/>
<feBlend mode="normal" in="SourceGraphic" in2="effect1_dropShadow" result="shape"/>
</filter>
<clipPath id="clip0">
<rect width="65" height="60" fill="white"/>
</clipPath>
</defs>
</svg>
