<svg width="62" height="62" viewBox="0 0 62 62" fill="none" xmlns="http://www.w3.org/2000/svg">
<rect width="62" height="62" rx="31" fill="#EEEEEE"/>
<path fill-rule="evenodd" clip-rule="evenodd" d="M30.6285 14.202C31.826 14.202 32.7968 13.2344 32.7968 12.0408C32.7968 12.0218 32.7965 12.0028 32.7961 11.9839H34.7354C35.8771 11.9839 36.7741 12.878 36.7741 14.016V43.5218C36.7741 47.6672 40.1176 50.9998 44.2766 50.9998H19.4859C15.3269 50.9998 11.9834 47.6672 11.9834 43.603V14.016C11.9834 12.878 12.8804 11.9839 14.0221 11.9839H15.4506C15.4502 12.0028 15.4499 12.0218 15.4499 12.0408C15.4499 13.2344 16.4207 14.202 17.6182 14.202C18.8157 14.202 19.7865 13.2344 19.7865 12.0408C19.7865 12.0218 19.7863 12.0028 19.7858 11.9839H21.956C21.9555 12.0028 21.9552 12.0218 21.9552 12.0408C21.9552 13.2344 22.926 14.202 24.1235 14.202C25.3211 14.202 26.2918 13.2344 26.2918 12.0408C26.2918 12.0218 26.2916 12.0028 26.2911 11.9839H28.4609C28.4604 12.0028 28.4602 12.0218 28.4602 12.0408C28.4602 13.2344 29.431 14.202 30.6285 14.202Z" fill="#DCDCDC"/>
<path fill-rule="evenodd" clip-rule="evenodd" d="M25.541 17.2206C25.9606 17.3078 26.3469 17.4424 26.6117 17.6004C26.7433 17.6788 26.7896 17.8549 26.7153 17.9937C26.6409 18.1325 26.4741 18.1814 26.3425 18.103C26.147 17.9863 25.8227 17.8675 25.4353 17.7871C25.0512 17.7073 24.6248 17.6693 24.2312 17.7012C23.8334 17.7335 23.4954 17.8351 23.2639 18.0094C23.0466 18.1731 22.9075 18.4107 22.9075 18.7811C22.9075 19.2227 23.0858 19.5059 23.3766 19.7292C23.6857 19.9665 24.1096 20.1259 24.582 20.2921C24.6133 20.3031 24.6449 20.3141 24.6767 20.3252C25.103 20.4746 25.565 20.6364 25.923 20.8787C26.3265 21.1519 26.6306 21.5498 26.6306 22.1607C26.6306 22.7152 26.4564 23.1511 26.1436 23.4639C25.8381 23.7695 25.4257 23.9324 24.9876 24.0037C24.1155 24.1458 23.0461 23.9412 22.1816 23.6154C22.0393 23.5618 21.9652 23.3966 22.016 23.2464C22.0668 23.0963 22.2234 23.018 22.3657 23.0717C23.1826 23.3795 24.1549 23.5552 24.9041 23.4331C25.2767 23.3725 25.5699 23.2423 25.7673 23.0449C25.9574 22.8547 26.0835 22.5777 26.0835 22.1607C26.0835 21.7999 25.9222 21.5641 25.6276 21.3647C25.33 21.1632 24.9309 21.0231 24.4812 20.8652C24.4573 20.8568 24.4332 20.8483 24.409 20.8398C23.9506 20.6786 23.4437 20.4947 23.0547 20.196C22.6474 19.8833 22.3604 19.4378 22.3604 18.7811C22.3604 18.222 22.5866 17.8102 22.946 17.5395C23.2913 17.2795 23.7414 17.1619 24.1893 17.1256C24.6414 17.0889 25.1182 17.1327 25.541 17.2206Z" fill="#EE0033" stroke="#EE0033" stroke-width="0.5" stroke-linecap="round" stroke-linejoin="round"/>
<path fill-rule="evenodd" clip-rule="evenodd" d="M24.6359 16C24.787 16 24.9094 16.1292 24.9094 16.2887V24.9489C24.9094 25.1083 24.787 25.2376 24.6359 25.2376C24.4848 25.2376 24.3623 25.1083 24.3623 24.9489V16.2887C24.3623 16.1292 24.4848 16 24.6359 16Z" fill="#EE0033" stroke="#EE0033" stroke-width="0.5" stroke-linecap="round" stroke-linejoin="round"/>
<path d="M27.9727 45.9604C27.4834 45.9604 26.9941 46.2856 26.831 46.692C25.6078 49.2931 23.0798 51 20.0625 51H44.8532C47.2181 51 49.4199 49.862 50.7247 48.1551C51.3771 47.261 50.8063 46.0417 49.6646 46.0417H27.9727V45.9604Z" fill="#EE0033"/>
<path d="M31.9624 27.2332H17.3652V28.7775H31.9624V27.2332Z" fill="#828282"/>
<path d="M31.9624 31.7036H17.3652V33.248H31.9624V31.7036Z" fill="#828282"/>
<path d="M31.9624 36.1741H17.3652V37.7185H31.9624V36.1741Z" fill="#828282"/>
<path d="M26.4987 40.5632H17.3652V42.1076H26.4987V40.5632Z" fill="#828282"/>
</svg>
