<svg width="58" height="56" viewBox="0 0 58 56" fill="none" xmlns="http://www.w3.org/2000/svg">
<path fill-rule="evenodd" clip-rule="evenodd" d="M5.41602 2.33333C5.41602 1.04467 6.47242 0 7.77557 0H50.2475C51.5506 0 52.607 1.04467 52.607 2.33333V51.3333C52.607 52.1939 52.1281 52.9845 51.3609 53.3906C50.5936 53.7966 49.6627 53.7521 48.9386 53.2748L43.1688 49.471L37.399 53.2748C36.6064 53.7973 35.5739 53.7973 34.7813 53.2748L29.0115 49.471L23.2417 53.2748C22.4491 53.7973 21.4166 53.7973 20.624 53.2748L14.8542 49.471L9.08441 53.2748C8.36037 53.7521 7.42942 53.7966 6.66219 53.3906C5.89497 52.9845 5.41602 52.1939 5.41602 51.3333V2.33333ZM10.1351 4.66667V46.9735L13.5454 44.7252C14.3379 44.2027 15.3705 44.2027 16.1631 44.7252L21.9329 48.529L27.7027 44.7252C28.4953 44.2027 29.5278 44.2027 30.3204 44.7252L36.0902 48.529L41.86 44.7252C42.6526 44.2027 43.6851 44.2027 44.4777 44.7252L47.8879 46.9735V4.66667H10.1351Z" fill="#EE0033"/>
<path fill-rule="evenodd" clip-rule="evenodd" d="M14.854 16.3333C14.854 15.0447 15.9104 14 17.2136 14H29.0113C30.3145 14 31.3709 15.0447 31.3709 16.3333C31.3709 17.622 30.3145 18.6667 29.0113 18.6667H17.2136C15.9104 18.6667 14.854 17.622 14.854 16.3333Z" fill="#FE9A00"/>
<path fill-rule="evenodd" clip-rule="evenodd" d="M36.0903 16.3333C36.0903 15.0447 37.1467 14 38.4499 14H40.8094C42.1126 14 43.169 15.0447 43.169 16.3333C43.169 17.622 42.1126 18.6667 40.8094 18.6667H38.4499C37.1467 18.6667 36.0903 17.622 36.0903 16.3333Z" fill="#FE9A00"/>
<path fill-rule="evenodd" clip-rule="evenodd" d="M14.854 25.6666C14.854 24.3779 15.9104 23.3333 17.2136 23.3333H29.0113C30.3145 23.3333 31.3709 24.3779 31.3709 25.6666C31.3709 26.9553 30.3145 27.9999 29.0113 27.9999H17.2136C15.9104 27.9999 14.854 26.9553 14.854 25.6666Z" fill="#FE9A00"/>
<path fill-rule="evenodd" clip-rule="evenodd" d="M36.0903 25.6666C36.0903 24.3779 37.1467 23.3333 38.4499 23.3333H40.8094C42.1126 23.3333 43.169 24.3779 43.169 25.6666C43.169 26.9553 42.1126 27.9999 40.8094 27.9999H38.4499C37.1467 27.9999 36.0903 26.9553 36.0903 25.6666Z" fill="#FE9A00"/>
<path fill-rule="evenodd" clip-rule="evenodd" d="M14.854 35.0001C14.854 33.7114 15.9104 32.6667 17.2136 32.6667H29.0113C30.3145 32.6667 31.3709 33.7114 31.3709 35.0001C31.3709 36.2887 30.3145 37.3334 29.0113 37.3334H17.2136C15.9104 37.3334 14.854 36.2887 14.854 35.0001Z" fill="#FE9A00"/>
<path fill-rule="evenodd" clip-rule="evenodd" d="M36.0903 35.0001C36.0903 33.7114 37.1467 32.6667 38.4499 32.6667H40.8094C42.1126 32.6667 43.169 33.7114 43.169 35.0001C43.169 36.2887 42.1126 37.3334 40.8094 37.3334H38.4499C37.1467 37.3334 36.0903 36.2887 36.0903 35.0001Z" fill="#FE9A00"/>
</svg>
