<svg width="85" height="85" viewBox="0 0 85 85" fill="none" xmlns="http://www.w3.org/2000/svg">
<path fill-rule="evenodd" clip-rule="evenodd" d="M19.1067 0H65.8915C76.427 0 84.9982 8.57125 84.9982 19.1067V65.8915C84.9982 76.427 76.427 85 65.8915 85H19.1067C8.57125 85 0 76.427 0 65.8915V19.1067C0 8.57125 8.57125 0 19.1067 0Z" fill="#14A0F1"/>
<path fill-rule="evenodd" clip-rule="evenodd" d="M83.2074 41.2935V63.6945C83.2074 64.1018 83.1897 64.5091 83.172 64.9164C82.5345 74.7976 74.3001 82.6424 64.2595 82.6424H33.4293C41.8054 79.8268 48.446 73.2216 51.2793 64.8455C51.3147 64.7393 51.3502 64.6153 51.4033 64.5091C53.3158 58.7893 58.4335 54.4862 64.6845 53.5476C72.4054 52.1487 79.0283 47.6153 83.2074 41.2935Z" fill="white"/>
<path d="M83.2074 41.2935V63.6945C83.2074 64.1018 83.1897 64.5091 83.172 64.9164C82.5345 74.7976 74.3001 82.6424 64.2595 82.6424H33.4293C41.8054 79.8268 48.446 73.2216 51.2793 64.8455C51.3147 64.7393 51.3502 64.6153 51.4033 64.5091C53.3158 58.7893 58.4335 54.4862 64.6845 53.5476C72.4054 52.1487 79.0283 47.6153 83.2074 41.2935" stroke="#14A0F1"/>
<path d="M65.8303 64.0088C65.7483 64.3825 65.6138 64.7174 65.427 65.0137C65.2447 65.3053 64.994 65.5856 64.675 65.8545C64.356 66.1188 63.9413 66.4036 63.4309 66.709L61.8928 67.6182C61.314 67.96 60.8469 68.2812 60.4914 68.582C60.1405 68.8828 59.8762 69.1904 59.6985 69.5049C59.5207 69.8193 59.3886 70.1839 59.302 70.5986L59.2405 70.8926H63.9573C64.1441 70.8926 64.2193 70.9723 64.1828 71.1318L64.053 71.7471C64.0347 71.8291 63.9937 71.8929 63.9299 71.9385C63.8661 71.9795 63.7955 72 63.718 72H58.1604C58.0875 72 58.0282 71.9749 57.9826 71.9248C57.9371 71.8701 57.9211 71.8063 57.9348 71.7334L58.1809 70.5986C58.2811 70.111 58.452 69.6507 58.6936 69.2178C58.9351 68.7803 59.2541 68.3724 59.6506 67.9941C60.0517 67.6113 60.537 67.2536 61.1067 66.9209L62.7268 65.9639C63.3922 65.5719 63.8433 65.2529 64.0803 65.0068C64.3218 64.7562 64.4882 64.4235 64.5793 64.0088C64.6477 63.6715 64.6386 63.3981 64.552 63.1885C64.47 62.9743 64.3082 62.8171 64.0666 62.7168C63.8297 62.6165 63.5129 62.5664 63.1164 62.5664C62.802 62.5664 62.4784 62.596 62.1457 62.6553C61.813 62.71 61.4781 62.7829 61.1408 62.874C60.8082 62.9606 60.5302 63.0335 60.3069 63.0928C60.2157 63.1201 60.1474 63.1156 60.1018 63.0791C60.0608 63.0426 60.0494 62.9834 60.0676 62.9014L60.1701 62.4229C60.1884 62.3363 60.2157 62.2747 60.2522 62.2383C60.2932 62.1973 60.357 62.1608 60.4436 62.1289C60.7079 62.0241 60.9882 61.9261 61.2844 61.835C61.5806 61.7438 61.9224 61.6663 62.3098 61.6025C62.6972 61.5342 63.0595 61.5 63.3967 61.5C63.8707 61.5 64.2831 61.5547 64.634 61.6641C64.9895 61.7734 65.2675 61.9284 65.468 62.1289C65.6685 62.3294 65.8007 62.5869 65.8645 62.9014C65.9283 63.2158 65.9169 63.585 65.8303 64.0088ZM73.4913 67.7412C73.1723 69.2451 72.6414 70.348 71.8985 71.0498C71.1557 71.7471 70.2351 72.0957 69.1368 72.0957C68.0385 72.0957 67.2638 71.7448 66.8126 71.043C66.3614 70.3411 66.2953 69.2406 66.6144 67.7412L67.0177 65.8545C67.3367 64.3551 67.8699 63.2546 68.6173 62.5527C69.3647 61.8509 70.2875 61.5 71.3858 61.5C72.4841 61.5 73.2566 61.8509 73.7032 62.5527C74.1498 63.25 74.2136 64.3506 73.8946 65.8545L73.4913 67.7412ZM72.213 67.7412L72.6163 65.8545C72.8578 64.7061 72.8465 63.8743 72.5821 63.3594C72.3178 62.8398 71.8416 62.5801 71.1534 62.5801C70.8116 62.5801 70.4972 62.6416 70.2101 62.7646C69.9275 62.8831 69.6655 63.0723 69.4239 63.332C69.1824 63.5918 68.9659 63.9359 68.7745 64.3643C68.5831 64.7881 68.4282 65.2848 68.3097 65.8545L67.9064 67.7412C67.7423 68.5023 67.6944 69.1289 67.7628 69.6211C67.8312 70.1087 68.0021 70.4642 68.2755 70.6875C68.5535 70.9108 68.9158 71.0225 69.3624 71.0225C70.0506 71.0225 70.6362 70.7627 71.1192 70.2432C71.6069 69.7191 71.9715 68.8851 72.213 67.7412Z" fill="#14A0F1"/>
<path d="M22.0386 30.1867L24.9099 29.9588L24.4168 27.9772L25.9062 27.859L25.3329 25.5553L23.8434 25.6735L22.0172 18.3353L17.8053 18.6696C16.839 21.1612 15.9405 23.7215 15.1316 26.4388L15.6869 28.6701L21.5454 28.2051L22.0386 30.1867ZM17.7266 26.1179C18.2598 24.2931 18.9321 22.3833 19.5966 20.6795L19.7455 20.6677L21.0726 26.0002L17.7627 26.2629L17.7266 26.1179ZM38.277 23.9612L37.9041 22.463L32.7903 22.8688L33.2955 24.8987L35.48 24.7253L35.5199 24.9193C35.7381 26.1012 34.9747 26.9668 33.5928 27.0765C31.8551 27.2144 30.3892 25.9015 29.8158 23.5977C29.2525 21.3343 29.9252 19.9009 31.6216 19.7663C32.8131 19.6717 33.8612 20.221 34.4137 21.2204L37.4091 20.9826C36.4998 18.5495 33.9208 17.0702 31.0081 17.3014C27.4251 17.5858 25.7889 20.0977 26.7291 23.8756C27.6813 27.7017 30.466 29.8382 34.14 29.5466C37.5161 29.2787 39.0728 27.1591 38.277 23.9612ZM54.8563 27.5821L51.9635 15.9586L48.3806 16.243L47.2668 23.6009L47.1096 23.6134L42.4393 16.7145L38.8563 16.9989L41.7491 28.6224L44.5542 28.3997L42.728 21.0616L42.8769 21.0497L47.1511 27.3065L49.0295 27.1574L50.0759 20.4784L50.2249 20.4666L52.0512 27.8047L54.8563 27.5821ZM65.2908 26.754L68.6007 26.4913L61.6946 15.1863L57.9793 15.4812L56.8671 27.4225L59.8791 27.1835L60.0132 24.569L63.9106 24.2596L65.2908 26.754ZM60.294 17.9671L60.4513 17.9546L62.8104 22.1784L60.0631 22.3964L60.294 17.9671ZM29.8063 49.3615L33.0335 49.1054L34.4011 45.243L34.5584 45.2305L37.7418 48.7317L41.1593 48.4605L35.9263 42.9287L38.2996 36.8344L34.9235 37.1023L33.722 41.1241L33.5648 41.1365L30.4634 37.4563L26.9218 37.7374L32.0126 43.2065L29.8063 49.3615ZM40.6661 40.3758L43.4464 40.1552C43.1958 39.1483 43.6671 38.3634 44.7759 38.2754C45.8185 38.1926 46.5641 38.8152 46.7646 39.6207C46.935 40.3054 46.8111 40.8245 45.6649 42.2544L42.3313 46.355L42.8225 48.3285L51.8999 47.6081L51.3266 45.3043L46.3038 45.7029L46.2657 45.5499L48.1005 43.2932C49.5867 41.4667 49.9891 40.5066 49.6463 39.1292C49.1511 37.1396 47.1416 35.8123 44.3778 36.0316C41.5892 36.253 40.0787 38.0157 40.6661 40.3758ZM59.0696 47.3594C62.1643 47.1138 63.5087 44.6496 62.5545 40.8154C61.5922 36.949 59.0904 34.864 56.0204 35.1076C52.9422 35.3519 51.5652 37.753 52.5235 41.6033C53.4817 45.4536 55.9665 47.6057 59.0696 47.3594ZM58.5042 45.0879C57.3458 45.1798 56.2615 43.9762 55.61 41.3583C54.9624 38.7566 55.4273 37.4711 56.5857 37.3792C57.7442 37.2872 58.8267 38.4499 59.4743 41.0517C60.1258 43.6696 59.6627 44.9959 58.5042 45.0879Z" fill="white"/>
</svg>
