<svg width="89" height="111" viewBox="0 0 89 111" fill="none" xmlns="http://www.w3.org/2000/svg">
<g clip-path="url(#clip0)">
<path d="M18.1374 46.8752C14.3875 46.8752 11.3379 49.9235 11.3379 53.6717V93.5041C11.3379 97.2523 14.3875 100.301 18.1374 100.301H70.8438C74.5937 100.301 77.6433 97.2523 77.6433 93.5041V53.6717C77.6433 49.9235 74.5937 46.8752 70.8438 46.8752H18.1374ZM14.5821 53.6717C14.5821 51.7123 16.1771 50.1179 18.1374 50.1179H42.8696V63.8231H36.8589C35.6075 63.8231 34.4361 64.171 33.4354 64.7715C33.4246 61.0773 30.416 58.0766 26.7201 58.0766H14.5821V53.6717ZM52.1244 67.0658C54.0113 67.0658 55.548 68.5997 55.548 70.4878V76.6901C55.548 78.5761 54.0134 80.1121 52.1244 80.1121H36.8589C34.9721 80.1121 33.4354 78.5783 33.4354 76.6901V70.4878C33.4354 68.6018 34.9699 67.0658 36.8589 67.0658H52.1244ZM14.5821 75.2103H18.5957C19.4926 75.2103 20.2188 74.4844 20.2188 73.5879C20.2188 72.6914 19.4926 71.9655 18.5957 71.9655H14.5821V61.3171H26.7201C28.6351 61.3171 30.1912 62.8748 30.1912 64.7867V71.9633H26.1776C25.2807 71.9633 24.5545 72.6892 24.5545 73.5857C24.5545 74.4823 25.2807 75.2082 26.1776 75.2082H30.1912V82.3848C30.1912 84.2989 28.6329 85.8543 26.7201 85.8543H14.5821V75.2103ZM42.8696 97.06H18.1374C16.1771 97.06 14.5821 95.4657 14.5821 93.5063V89.1013H26.7201C30.4182 89.1013 33.4246 86.1006 33.4354 82.4064C34.4361 83.007 35.6075 83.3548 36.8589 83.3548H42.8696V97.06ZM74.4013 93.5041C74.4013 95.4635 72.8063 97.0579 70.8459 97.0579H46.1138V83.3526H52.1244C53.3759 83.3526 54.5473 83.0048 55.548 82.4043C55.5588 86.0984 58.5674 89.0992 62.2633 89.0992H74.4013V93.5041ZM74.4013 85.8565H62.2633C60.3483 85.8565 58.7922 84.2989 58.7922 82.387C58.7922 78.0468 58.7922 77.9648 58.7922 75.2103H74.4013V85.8565ZM74.4013 71.9676H58.7922C58.7922 69.1873 58.7922 69.1181 58.7922 64.791C58.7922 62.8769 60.3505 61.3215 62.2633 61.3215H74.4013V71.9676ZM74.4013 53.6717V58.0766H62.2633C58.5652 58.0766 55.5588 61.0773 55.548 64.7715C54.5473 64.171 53.3759 63.8231 52.1244 63.8231H46.1138V50.1179H70.8459C72.8063 50.1179 74.4013 51.7123 74.4013 53.6717Z" fill="#EE0033"/>
<path d="M86.7733 37.7931C87.668 37.7931 88.3964 37.0672 88.3964 36.1706V30.2837C88.3964 27.6913 87.3871 25.2523 85.5521 23.4203L64.9654 2.84301C63.1304 1.00888 60.6924 0 58.0988 0H10.2988C4.94514 0 0.587891 4.35525 0.587891 9.70643V100.903C0.587891 106.257 4.94514 110.61 10.2988 110.61H78.6855C84.0392 110.61 88.3964 106.254 88.3964 100.903V43.7513C88.3964 42.8548 87.6702 42.1289 86.7733 42.1289C85.8763 42.1289 85.1501 42.8548 85.1501 43.7513V100.903C85.1501 104.468 82.2496 107.367 78.6834 107.367H10.2988C6.73256 107.367 3.83205 104.468 3.83205 100.903V9.70643C3.83205 6.14186 6.73256 3.24268 10.2988 3.24268H58.0988C59.8257 3.24268 61.4511 3.91454 62.6722 5.13514L83.2589 25.7124C84.4801 26.933 85.1523 28.5554 85.1523 30.2837V36.1706C85.1523 37.0672 85.8785 37.7931 86.7733 37.7931Z" fill="#EE0033"/>
<path d="M20.5077 27.8878C20.4687 27.931 20.3909 27.9526 20.2721 27.9526H17.1943V37.2356C17.1943 37.3869 17.1706 37.4819 17.1208 37.5186C17.0733 37.5575 16.9717 37.5748 16.8204 37.5748H15.556C15.4264 37.5748 15.3313 37.5532 15.2729 37.51C15.2124 37.4668 15.1843 37.3739 15.1843 37.2335V27.9505H12.1692C12.0504 27.9505 11.9747 27.9289 11.9423 27.8857C11.9099 27.8425 11.8926 27.7668 11.8926 27.6588V26.5398C11.8926 26.4209 11.9099 26.341 11.9423 26.2956C11.9747 26.2524 12.0504 26.2308 12.1692 26.2308H20.2742C20.3931 26.2308 20.4709 26.2524 20.5098 26.2956C20.5466 26.3389 20.566 26.4209 20.566 26.5398V27.6588C20.566 27.769 20.5466 27.8446 20.5077 27.8878Z" fill="#EE0033"/>
<path d="M30.8106 37.2378C30.8323 37.3135 30.8279 37.3891 30.7955 37.4647C30.7631 37.5403 30.6983 37.577 30.601 37.577H29.1572C29.0708 37.577 28.9843 37.5641 28.8979 37.536C28.8114 37.5101 28.7466 37.4366 28.7033 37.3178L27.9253 34.3192C27.7632 33.7467 27.5297 33.3579 27.2271 33.1526C26.9246 32.9474 26.4858 32.8459 25.9131 32.8459H24.0003V37.2357C24.0003 37.3869 23.9765 37.482 23.9268 37.5187C23.8771 37.5576 23.7777 37.5749 23.6264 37.5749H22.362C22.2431 37.5749 22.1502 37.5533 22.0875 37.5101C22.0227 37.4668 21.9902 37.374 21.9902 37.2335V27.1231C21.9902 26.8099 22.0551 26.5787 22.1848 26.4253C22.3144 26.2741 22.5522 26.1985 22.898 26.1985H26.7236C27.2639 26.1985 27.7545 26.2763 28.1997 26.434C28.6428 26.5917 29.0211 26.8142 29.3344 27.1058C29.6478 27.3975 29.8878 27.7431 30.0563 28.1428C30.2228 28.5425 30.307 28.9853 30.307 29.4714C30.307 30.1087 30.1536 30.6618 29.8445 31.1327C29.5376 31.6015 29.1334 31.9407 28.6363 32.1459V32.2107C29.0146 32.3728 29.2955 32.5953 29.4793 32.8761C29.663 33.157 29.8078 33.4918 29.9158 33.8807L30.8106 37.2378ZM28.297 29.5729C28.297 29.4109 28.2732 29.2381 28.2235 29.0545C28.1738 28.8708 28.0852 28.698 27.9555 28.536C27.8258 28.374 27.6464 28.2422 27.4195 28.1385C27.1926 28.0369 26.8943 27.9851 26.5269 27.9851H24.0132V31.1932H26.4123C27.0715 31.1932 27.5492 31.0377 27.8475 30.7222C28.1479 30.4112 28.297 30.0266 28.297 29.5729Z" fill="#EE0033"/>
<path d="M38.4946 35.0991H34.3773L33.664 37.3026C33.6316 37.3999 33.5862 37.4712 33.5257 37.5144C33.4652 37.5576 33.3723 37.5792 33.2426 37.5792H31.7513C31.6324 37.5792 31.5567 37.5446 31.5243 37.4733C31.4919 37.4042 31.4919 37.3242 31.5243 37.2378L35.0257 26.9827C35.0797 26.8207 35.1337 26.691 35.1878 26.5938C35.2418 26.4966 35.3088 26.421 35.3909 26.367C35.4731 26.313 35.566 26.2719 35.6741 26.246C35.7821 26.2201 35.9118 26.205 36.0631 26.205H36.7591C37.0941 26.205 37.3318 26.2568 37.4723 26.3583C37.6128 26.462 37.736 26.6694 37.8462 26.9827L41.3627 37.2378C41.3951 37.3242 41.3973 37.402 41.3713 37.4733C41.3432 37.5446 41.2719 37.5792 41.153 37.5792H39.6617C39.5429 37.5792 39.4478 37.5662 39.3786 37.5381C39.3073 37.5122 39.2511 37.4387 39.2078 37.3199L38.4946 35.0991ZM34.8636 33.414H37.9759L37.133 30.692L36.4522 28.3912H36.37L35.7043 30.6423L34.8636 33.414ZM36.6467 22.1694C37.1005 22.1694 37.4615 22.2861 37.7317 22.5172C38.0018 22.7506 38.138 23.066 38.138 23.4656C38.138 23.7357 38.0667 23.9647 37.9283 24.1548C37.7879 24.3449 37.6258 24.5091 37.442 24.6495C37.3772 24.7251 37.2951 24.8202 37.1978 24.9325C37.1005 25.0449 37.04 25.1291 37.0184 25.1831C36.9968 25.3019 36.9428 25.4056 36.8563 25.4899C36.7699 25.5763 36.6661 25.6195 36.5494 25.6195H36.3873C36.2468 25.6195 36.1323 25.5763 36.0458 25.4899C35.9594 25.4035 35.9161 25.2911 35.9161 25.1507C35.9161 24.8267 35.9918 24.5761 36.1431 24.3967C36.2944 24.2196 36.4608 24.0533 36.6445 23.902C36.839 23.7292 36.9449 23.5888 36.9601 23.4808C36.9774 23.3727 36.9449 23.2993 36.8628 23.2626C36.7807 23.2258 36.6704 23.2172 36.53 23.2388C36.3895 23.2604 36.249 23.3101 36.1085 23.3835C35.9464 23.4808 35.8016 23.5348 35.6719 23.5456C35.5422 23.5564 35.4342 23.47 35.3477 23.2863C35.2721 23.1351 35.244 22.9968 35.2656 22.8737C35.2872 22.7506 35.3412 22.649 35.4277 22.5734C35.6114 22.433 35.8146 22.3293 36.035 22.2666C36.2598 22.2018 36.463 22.1694 36.6467 22.1694Z" fill="#EE0033"/>
<path d="M47.1648 29.1366C47.1648 28.6829 47.2404 28.2681 47.3917 27.8901C47.543 27.512 47.77 27.1858 48.0726 26.9093C48.3751 26.6349 48.7555 26.421 49.2159 26.2698C49.6741 26.1186 50.2123 26.043 50.8283 26.043C51.12 26.043 51.4226 26.0581 51.736 26.0927C52.0494 26.1251 52.3628 26.1683 52.6762 26.2223C52.9896 26.2763 53.2922 26.3476 53.584 26.434C53.8757 26.5204 54.1459 26.6176 54.3945 26.7256C54.4809 26.7796 54.535 26.8293 54.5566 26.8704C54.5782 26.9136 54.5674 26.9892 54.5241 27.0972L54.1351 28.199C54.0919 28.3178 54.0508 28.3826 54.0141 28.3934C53.9752 28.4042 53.9147 28.3999 53.8282 28.3761C53.2879 28.1925 52.7583 28.0542 52.2396 27.9635C51.7209 27.8728 51.2389 27.8253 50.798 27.8253C50.2361 27.8253 49.8276 27.9419 49.5747 28.1731C49.3218 28.4064 49.1943 28.6786 49.1943 28.9918C49.1943 29.1863 49.2397 29.3613 49.3326 29.519C49.4234 29.6767 49.5725 29.8257 49.7779 29.9726C49.9832 30.1174 50.2404 30.2643 50.5473 30.409C50.8564 30.5538 51.2303 30.7136 51.6733 30.8865C52.138 31.0809 52.5811 31.2775 53.0026 31.4784C53.424 31.6793 53.7958 31.9126 54.12 32.1827C54.4442 32.4527 54.7014 32.7681 54.8894 33.1311C55.0775 33.494 55.1726 33.9325 55.1726 34.451C55.1726 35.0127 55.0666 35.501 54.857 35.9179C54.6473 36.3349 54.3599 36.6762 53.9989 36.9462C53.6358 37.2163 53.2079 37.4193 52.7108 37.5533C52.2137 37.6872 51.6777 37.7564 51.1071 37.7564C50.4263 37.7564 49.713 37.6915 48.9673 37.5619C48.2217 37.4323 47.5301 37.1947 46.8925 36.849C46.7412 36.7842 46.7088 36.6546 46.7952 36.4602L47.2815 35.3584C47.3572 35.1963 47.476 35.1467 47.6381 35.2115C48.1568 35.4275 48.695 35.609 49.2505 35.7537C49.8059 35.8985 50.3441 35.9719 50.8628 35.9719C51.6841 35.9719 52.2655 35.8315 52.6049 35.5506C52.9464 35.2698 53.115 34.9198 53.115 34.4964C53.115 34.2696 53.0717 34.0708 52.9853 33.898C52.8988 33.7252 52.7627 33.5653 52.5789 33.4205C52.3952 33.2736 52.1618 33.1354 51.8808 32.9993C51.5999 32.8653 51.2648 32.7206 50.8758 32.5694C50.2922 32.3425 49.767 32.1157 49.3024 31.8889C48.8377 31.662 48.4486 31.4157 48.1352 31.1522C47.8218 30.8886 47.5819 30.5905 47.4133 30.26C47.2491 29.9338 47.1648 29.5578 47.1648 29.1366Z" fill="#EE0033"/>
<path d="M62.8891 35.0991H58.7718L58.0586 37.3026C58.0261 37.3999 57.9808 37.4712 57.9202 37.5144C57.8597 37.5576 57.7668 37.5792 57.6371 37.5792H56.1458C56.0269 37.5792 55.9513 37.5446 55.9188 37.4733C55.8864 37.4042 55.8864 37.3243 55.9188 37.2378L59.4202 26.9827C59.4742 26.8207 59.5283 26.691 59.5823 26.5938C59.6363 26.4966 59.7033 26.421 59.7855 26.367C59.8676 26.313 59.9605 26.2719 60.0686 26.246C60.1767 26.2201 60.3064 26.205 60.4576 26.205H61.1536C61.4886 26.205 61.7263 26.2568 61.8668 26.3583C62.0073 26.462 62.1305 26.6694 62.2407 26.9827L65.7572 37.2378C65.7896 37.3243 65.7918 37.402 65.7659 37.4733C65.7378 37.5446 65.6665 37.5792 65.5476 37.5792H64.0563C63.9374 37.5792 63.8423 37.5662 63.7731 37.5381C63.7018 37.5122 63.6456 37.4388 63.6024 37.3199L62.8891 35.0991ZM59.2581 33.414H62.3704L61.5275 30.692L60.8467 28.3912H60.7645L60.0989 30.6423L59.2581 33.414Z" fill="#EE0033"/>
<path d="M76.1003 36.0064C76.1003 36.4169 76.0074 36.7582 75.8236 37.0282C75.6399 37.2983 75.3049 37.4819 74.8186 37.5791C74.6133 37.6223 74.395 37.6547 74.1616 37.6763C73.9282 37.6979 73.6991 37.7174 73.4721 37.7325C73.2452 37.7498 73.029 37.7584 72.8237 37.7649C72.6184 37.7692 72.4347 37.7735 72.2726 37.7735C71.3648 37.7735 70.5889 37.6893 69.947 37.5229C69.3029 37.3566 68.782 37.0779 68.3822 36.6891C67.9823 36.3002 67.6905 35.7817 67.5068 35.1336C67.3231 34.4855 67.2302 33.6819 67.2302 32.7205L67.2129 26.5808C67.2129 26.4404 67.2453 26.3496 67.3102 26.3043C67.375 26.2611 67.4658 26.2395 67.5868 26.2395H68.8512C69.0025 26.2395 69.1019 26.2589 69.1516 26.2956C69.1992 26.3345 69.2251 26.4274 69.2251 26.5786V32.7507C69.2251 33.3016 69.2662 33.7834 69.3461 34.1939C69.4283 34.6043 69.5796 34.9457 69.8 35.2135C70.0205 35.4836 70.3295 35.6867 70.7229 35.8206C71.1184 35.9567 71.6328 36.0237 72.2704 36.0237C72.4325 36.0237 72.6897 36.015 73.0398 35.9999C73.39 35.9826 73.7552 35.9373 74.1335 35.8616V26.5786C74.1335 26.4382 74.1637 26.3475 74.2221 26.3021C74.2805 26.2589 74.3756 26.2373 74.5052 26.2373H75.7696C75.9209 26.2373 76.0138 26.2567 76.0441 26.2935C76.0765 26.3324 76.0938 26.4253 76.0938 26.5765V36.0064H76.1003Z" fill="#EE0033"/>
</g>
<defs>
<clipPath id="clip0">
<rect width="87.8085" height="110.61" fill="white" transform="translate(0.587891)"/>
</clipPath>
</defs>
</svg>
