<svg width="300" height="71" viewBox="0 0 300 71" fill="none" xmlns="http://www.w3.org/2000/svg">
<path d="M41.9155 45.2226C41.9155 48.1204 41.2102 50.7321 39.7994 53.058C38.4268 55.3838 36.5013 57.1949 34.023 58.4913C31.5446 59.8258 28.7803 60.493 25.7301 60.493C22.5654 60.493 19.763 59.8258 17.3228 58.4913C14.8825 57.1949 12.9761 55.3266 11.6035 52.8864C10.2309 50.4462 9.54458 47.6056 9.54458 44.3647C9.54458 41.0475 10.1165 37.8638 11.2604 34.8136C12.4042 31.7633 14.2725 28.3317 16.8652 24.5189L25.1009 12.2797H34.5949L24.4718 26.1775C22.9086 28.3508 21.7456 30.2191 20.9831 31.7824C22.9276 30.6004 25.0628 30.0094 27.3886 30.0094C30.2101 30.0094 32.7075 30.6576 34.8809 31.9539C37.0923 33.2503 38.8081 35.0614 40.0282 37.3872C41.2864 39.6749 41.9155 42.2867 41.9155 45.2226ZM33.6798 45.2226C33.6798 42.668 32.9554 40.6663 31.5065 39.2174C30.0958 37.7304 28.1703 36.9869 25.7301 36.9869C23.2898 36.9869 21.3453 37.7304 19.8964 39.2174C18.4857 40.6663 17.7803 42.668 17.7803 45.2226C17.7803 47.7391 18.5047 49.7599 19.9536 51.285C21.4406 52.772 23.3661 53.5155 25.7301 53.5155C28.094 53.5155 30.0004 52.772 31.4493 51.285C32.9363 49.7599 33.6798 47.7391 33.6798 45.2226ZM64.7416 60.493C59.0986 60.493 54.8282 58.415 51.9305 54.259C49.0327 50.0649 47.5839 43.9834 47.5839 36.0146C47.5839 28.0077 49.0327 21.9262 51.9305 17.7702C54.8282 13.6142 59.0986 11.5362 64.7416 11.5362C70.3846 11.5362 74.655 13.6142 77.5527 17.7702C80.4505 21.9262 81.8994 28.0077 81.8994 36.0146C81.8994 43.9834 80.4505 50.0649 77.5527 54.259C74.655 58.415 70.3846 60.493 64.7416 60.493ZM64.7416 53.5155C67.7919 53.5155 69.9843 52.1238 71.3187 49.3405C72.6914 46.519 73.3777 42.077 73.3777 36.0146C73.3777 29.9522 72.6914 25.5293 71.3187 22.7459C69.9843 19.9244 67.7919 18.5137 64.7416 18.5137C61.6913 18.5137 59.4799 19.9244 58.1073 22.7459C56.7728 25.5293 56.1055 29.9522 56.1055 36.0146C56.1055 42.077 56.7728 46.519 58.1073 49.3405C59.4799 52.1238 61.6913 53.5155 64.7416 53.5155ZM103.753 60.493C98.1102 60.493 93.8398 58.415 90.942 54.259C88.0443 50.0649 86.5954 43.9834 86.5954 36.0146C86.5954 28.0077 88.0443 21.9262 90.942 17.7702C93.8398 13.6142 98.1102 11.5362 103.753 11.5362C109.396 11.5362 113.667 13.6142 116.564 17.7702C119.462 21.9262 120.911 28.0077 120.911 36.0146C120.911 43.9834 119.462 50.0649 116.564 54.259C113.667 58.415 109.396 60.493 103.753 60.493ZM103.753 53.5155C106.803 53.5155 108.996 52.1238 110.33 49.3405C111.703 46.519 112.389 42.077 112.389 36.0146C112.389 29.9522 111.703 25.5293 110.33 22.7459C108.996 19.9244 106.803 18.5137 103.753 18.5137C100.703 18.5137 98.4914 19.9244 97.1188 22.7459C95.7843 25.5293 95.1171 29.9522 95.1171 36.0146C95.1171 42.077 95.7843 46.519 97.1188 49.3405C98.4914 52.1238 100.703 53.5155 103.753 53.5155ZM132.07 50.1983C133.557 50.1983 134.739 50.6559 135.616 51.571C136.531 52.4479 136.988 53.6299 136.988 55.1169C136.988 56.6039 136.531 57.7859 135.616 58.6628C134.739 59.5779 133.557 60.0355 132.07 60.0355C130.583 60.0355 129.382 59.5779 128.467 58.6628C127.59 57.7859 127.151 56.6039 127.151 55.1169C127.151 53.6299 127.59 52.4479 128.467 51.571C129.382 50.6559 130.583 50.1983 132.07 50.1983ZM160.385 60.493C154.742 60.493 150.472 58.415 147.574 54.259C144.676 50.0649 143.227 43.9834 143.227 36.0146C143.227 28.0077 144.676 21.9262 147.574 17.7702C150.472 13.6142 154.742 11.5362 160.385 11.5362C166.028 11.5362 170.298 13.6142 173.196 17.7702C176.094 21.9262 177.543 28.0077 177.543 36.0146C177.543 43.9834 176.094 50.0649 173.196 54.259C170.298 58.415 166.028 60.493 160.385 60.493ZM160.385 53.5155C163.435 53.5155 165.628 52.1238 166.962 49.3405C168.335 46.519 169.021 42.077 169.021 36.0146C169.021 29.9522 168.335 25.5293 166.962 22.7459C165.628 19.9244 163.435 18.5137 160.385 18.5137C157.335 18.5137 155.123 19.9244 153.751 22.7459C152.416 25.5293 151.749 29.9522 151.749 36.0146C151.749 42.077 152.416 46.519 153.751 49.3405C155.123 52.1238 157.335 53.5155 160.385 53.5155ZM199.396 60.493C193.753 60.493 189.483 58.415 186.585 54.259C183.688 50.0649 182.239 43.9834 182.239 36.0146C182.239 28.0077 183.688 21.9262 186.585 17.7702C189.483 13.6142 193.753 11.5362 199.396 11.5362C205.039 11.5362 209.31 13.6142 212.208 17.7702C215.105 21.9262 216.554 28.0077 216.554 36.0146C216.554 43.9834 215.105 50.0649 212.208 54.259C209.31 58.415 205.039 60.493 199.396 60.493ZM199.396 53.5155C202.447 53.5155 204.639 52.1238 205.974 49.3405C207.346 46.519 208.033 42.077 208.033 36.0146C208.033 29.9522 207.346 25.5293 205.974 22.7459C204.639 19.9244 202.447 18.5137 199.396 18.5137C196.346 18.5137 194.135 19.9244 192.762 22.7459C191.428 25.5293 190.76 29.9522 190.76 36.0146C190.76 42.077 191.428 46.519 192.762 49.3405C194.135 52.1238 196.346 53.5155 199.396 53.5155ZM238.408 60.493C232.765 60.493 228.495 58.415 225.597 54.259C222.699 50.0649 221.25 43.9834 221.25 36.0146C221.25 28.0077 222.699 21.9262 225.597 17.7702C228.495 13.6142 232.765 11.5362 238.408 11.5362C244.051 11.5362 248.321 13.6142 251.219 17.7702C254.117 21.9262 255.566 28.0077 255.566 36.0146C255.566 43.9834 254.117 50.0649 251.219 54.259C248.321 58.415 244.051 60.493 238.408 60.493ZM238.408 53.5155C241.458 53.5155 243.651 52.1238 244.985 49.3405C246.358 46.519 247.044 42.077 247.044 36.0146C247.044 29.9522 246.358 25.5293 244.985 22.7459C243.651 19.9244 241.458 18.5137 238.408 18.5137C235.358 18.5137 233.146 19.9244 231.774 22.7459C230.439 25.5293 229.772 29.9522 229.772 36.0146C229.772 42.077 230.439 46.519 231.774 49.3405C233.146 52.1238 235.358 53.5155 238.408 53.5155ZM294.92 20.687V51.6282C294.92 54.9072 295.016 57.5952 295.206 59.6923H287.771C287.581 58.6247 287.466 56.9089 287.428 54.545C286.17 56.4514 284.55 57.9193 282.567 58.9488C280.622 59.9783 278.411 60.493 275.933 60.493C273.187 60.493 270.671 59.7114 268.383 58.1481C266.095 56.623 264.284 54.4687 262.95 51.6854C261.615 48.902 260.948 45.7183 260.948 42.1342C260.948 38.5501 261.615 35.3664 262.95 32.5831C264.284 29.7616 266.095 27.5882 268.383 26.0631C270.671 24.4998 273.187 23.7182 275.933 23.7182C278.182 23.7182 280.203 24.1376 281.995 24.9765C283.825 25.8153 285.369 27.0354 286.628 28.6368V20.687H279.993V14.1099H286.628V10.278H294.92V14.1099H299.038V20.687H294.92ZM286.628 42.1342C286.628 38.5501 285.827 35.6905 284.225 33.5553C282.624 31.382 280.527 30.2954 277.934 30.2954C276.219 30.2954 274.693 30.791 273.359 31.7824C272.063 32.7356 271.052 34.1082 270.328 35.9002C269.603 37.6923 269.241 39.7702 269.241 42.1342C269.241 44.46 269.603 46.519 270.328 48.311C271.052 50.103 272.063 51.4947 273.359 52.486C274.693 53.4393 276.219 53.9159 277.934 53.9159C280.527 53.9159 282.624 52.8483 284.225 50.7131C285.827 48.5398 286.628 45.6801 286.628 42.1342Z" fill="#464848"/>
<path d="M39.7261 45.0852C39.7261 47.983 39.0207 50.5948 37.61 52.9206C36.2373 55.2464 34.3119 57.0575 31.8335 58.3539C29.3552 59.6884 26.5909 60.3556 23.5406 60.3556C20.376 60.3556 17.5735 59.6884 15.1333 58.3539C12.6931 57.0575 10.7867 55.1892 9.41406 52.749C8.04143 50.3088 7.35512 47.4682 7.35512 44.2273C7.35512 40.9102 7.92705 37.7264 9.0709 34.6762C10.2148 31.6259 12.083 28.1944 14.6758 24.3815L22.9115 12.1423H32.4054L22.2824 26.0401C20.7191 28.2134 19.5562 30.0817 18.7936 31.645C20.7382 30.463 22.8734 29.872 25.1992 29.872C28.0207 29.872 30.5181 30.5202 32.6914 31.8165C34.9029 33.1129 36.6186 34.924 37.8387 37.2498C39.097 39.5375 39.7261 42.1493 39.7261 45.0852ZM31.4904 45.0852C31.4904 42.5306 30.7659 40.5289 29.3171 39.08C27.9063 37.593 25.9808 36.8495 23.5406 36.8495C21.1004 36.8495 19.1558 37.593 17.707 39.08C16.2962 40.5289 15.5908 42.5306 15.5908 45.0852C15.5908 47.6017 16.3153 49.6225 17.7642 51.1476C19.2512 52.6346 21.1766 53.3781 23.5406 53.3781C25.9046 53.3781 27.811 52.6346 29.2599 51.1476C30.7469 49.6225 31.4904 47.6017 31.4904 45.0852ZM62.5522 60.3556C56.9092 60.3556 52.6388 58.2776 49.741 54.1216C46.8433 49.9275 45.3944 43.846 45.3944 35.8772C45.3944 27.8703 46.8433 21.7888 49.741 17.6328C52.6388 13.4768 56.9092 11.3988 62.5522 11.3988C68.1952 11.3988 72.4655 13.4768 75.3633 17.6328C78.261 21.7888 79.7099 27.8703 79.7099 35.8772C79.7099 43.846 78.261 49.9275 75.3633 54.1216C72.4655 58.2776 68.1952 60.3556 62.5522 60.3556ZM62.5522 53.3781C65.6024 53.3781 67.7948 51.9864 69.1293 49.2031C70.5019 46.3816 71.1882 41.9396 71.1882 35.8772C71.1882 29.8148 70.5019 25.3919 69.1293 22.6086C67.7948 19.7871 65.6024 18.3763 62.5522 18.3763C59.5019 18.3763 57.2904 19.7871 55.9178 22.6086C54.5833 25.3919 53.9161 29.8148 53.9161 35.8772C53.9161 41.9396 54.5833 46.3816 55.9178 49.2031C57.2904 51.9864 59.5019 53.3781 62.5522 53.3781ZM101.564 60.3556C95.9207 60.3556 91.6503 58.2776 88.7526 54.1216C85.8548 49.9275 84.406 43.846 84.406 35.8772C84.406 27.8703 85.8548 21.7888 88.7526 17.6328C91.6503 13.4768 95.9207 11.3988 101.564 11.3988C107.207 11.3988 111.477 13.4768 114.375 17.6328C117.273 21.7888 118.721 27.8703 118.721 35.8772C118.721 43.846 117.273 49.9275 114.375 54.1216C111.477 58.2776 107.207 60.3556 101.564 60.3556ZM101.564 53.3781C104.614 53.3781 106.806 51.9864 108.141 49.2031C109.513 46.3816 110.2 41.9396 110.2 35.8772C110.2 29.8148 109.513 25.3919 108.141 22.6086C106.806 19.7871 104.614 18.3763 101.564 18.3763C98.5134 18.3763 96.302 19.7871 94.9294 22.6086C93.5949 25.3919 92.9276 29.8148 92.9276 35.8772C92.9276 41.9396 93.5949 46.3816 94.9294 49.2031C96.302 51.9864 98.5134 53.3781 101.564 53.3781ZM129.88 50.061C131.367 50.061 132.549 50.5185 133.426 51.4336C134.341 52.3105 134.799 53.4925 134.799 54.9795C134.799 56.4665 134.341 57.6485 133.426 58.5255C132.549 59.4405 131.367 59.8981 129.88 59.8981C128.393 59.8981 127.192 59.4405 126.277 58.5255C125.4 57.6485 124.962 56.4665 124.962 54.9795C124.962 53.4925 125.4 52.3105 126.277 51.4336C127.192 50.5185 128.393 50.061 129.88 50.061ZM158.195 60.3556C152.552 60.3556 148.282 58.2776 145.384 54.1216C142.487 49.9275 141.038 43.846 141.038 35.8772C141.038 27.8703 142.487 21.7888 145.384 17.6328C148.282 13.4768 152.552 11.3988 158.195 11.3988C163.838 11.3988 168.109 13.4768 171.007 17.6328C173.904 21.7888 175.353 27.8703 175.353 35.8772C175.353 43.846 173.904 49.9275 171.007 54.1216C168.109 58.2776 163.838 60.3556 158.195 60.3556ZM158.195 53.3781C161.246 53.3781 163.438 51.9864 164.773 49.2031C166.145 46.3816 166.832 41.9396 166.832 35.8772C166.832 29.8148 166.145 25.3919 164.773 22.6086C163.438 19.7871 161.246 18.3763 158.195 18.3763C155.145 18.3763 152.934 19.7871 151.561 22.6086C150.227 25.3919 149.559 29.8148 149.559 35.8772C149.559 41.9396 150.227 46.3816 151.561 49.2031C152.934 51.9864 155.145 53.3781 158.195 53.3781ZM197.207 60.3556C191.564 60.3556 187.294 58.2776 184.396 54.1216C181.498 49.9275 180.049 43.846 180.049 35.8772C180.049 27.8703 181.498 21.7888 184.396 17.6328C187.294 13.4768 191.564 11.3988 197.207 11.3988C202.85 11.3988 207.12 13.4768 210.018 17.6328C212.916 21.7888 214.365 27.8703 214.365 35.8772C214.365 43.846 212.916 49.9275 210.018 54.1216C207.12 58.2776 202.85 60.3556 197.207 60.3556ZM197.207 53.3781C200.257 53.3781 202.45 51.9864 203.784 49.2031C205.157 46.3816 205.843 41.9396 205.843 35.8772C205.843 29.8148 205.157 25.3919 203.784 22.6086C202.45 19.7871 200.257 18.3763 197.207 18.3763C194.157 18.3763 191.945 19.7871 190.573 22.6086C189.238 25.3919 188.571 29.8148 188.571 35.8772C188.571 41.9396 189.238 46.3816 190.573 49.2031C191.945 51.9864 194.157 53.3781 197.207 53.3781ZM236.219 60.3556C230.576 60.3556 226.305 58.2776 223.407 54.1216C220.51 49.9275 219.061 43.846 219.061 35.8772C219.061 27.8703 220.51 21.7888 223.407 17.6328C226.305 13.4768 230.576 11.3988 236.219 11.3988C241.862 11.3988 246.132 13.4768 249.03 17.6328C251.927 21.7888 253.376 27.8703 253.376 35.8772C253.376 43.846 251.927 49.9275 249.03 54.1216C246.132 58.2776 241.862 60.3556 236.219 60.3556ZM236.219 53.3781C239.269 53.3781 241.461 51.9864 242.796 49.2031C244.168 46.3816 244.855 41.9396 244.855 35.8772C244.855 29.8148 244.168 25.3919 242.796 22.6086C241.461 19.7871 239.269 18.3763 236.219 18.3763C233.168 18.3763 230.957 19.7871 229.584 22.6086C228.25 25.3919 227.582 29.8148 227.582 35.8772C227.582 41.9396 228.25 46.3816 229.584 49.2031C230.957 51.9864 233.168 53.3781 236.219 53.3781ZM292.731 20.5496V51.4908C292.731 54.7698 292.826 57.4579 293.017 59.5549H285.582C285.391 58.4873 285.277 56.7715 285.239 54.4076C283.981 56.314 282.36 57.7819 280.377 58.8114C278.433 59.8409 276.221 60.3556 273.743 60.3556C270.998 60.3556 268.481 59.574 266.194 58.0107C263.906 56.4856 262.095 54.3313 260.76 51.548C259.426 48.7646 258.759 45.5809 258.759 41.9968C258.759 38.4127 259.426 35.229 260.76 32.4457C262.095 29.6242 263.906 27.4509 266.194 25.9257C268.481 24.3625 270.998 23.5808 273.743 23.5808C275.993 23.5808 278.013 24.0002 279.806 24.8391C281.636 25.6779 283.18 26.898 284.438 28.4994V20.5496H277.804V13.9725H284.438V10.1406H292.731V13.9725H296.849V20.5496H292.731ZM284.438 41.9968C284.438 38.4127 283.637 35.5531 282.036 33.4179C280.435 31.2446 278.338 30.158 275.745 30.158C274.029 30.158 272.504 30.6536 271.169 31.645C269.873 32.5982 268.863 33.9708 268.138 35.7628C267.414 37.5549 267.052 39.6329 267.052 41.9968C267.052 44.3226 267.414 46.3816 268.138 48.1736C268.863 49.9656 269.873 51.3573 271.169 52.3487C272.504 53.3019 274.029 53.7785 275.745 53.7785C278.338 53.7785 280.435 52.7109 282.036 50.5757C283.637 48.4024 284.438 45.5428 284.438 41.9968Z" fill="#076F72"/>
<path d="M36.4712 45.048C36.4712 47.9458 35.7658 50.5576 34.3551 52.8834C32.9825 55.2092 31.057 57.0203 28.5786 58.3167C26.1003 59.6512 23.336 60.3184 20.2857 60.3184C17.1211 60.3184 14.3186 59.6512 11.8784 58.3167C9.43821 57.0203 7.53179 55.152 6.15917 52.7118C4.78655 50.2716 4.10024 47.431 4.10024 44.1901C4.10024 40.873 4.67217 37.6893 5.81602 34.639C6.95987 31.5887 8.82816 28.1572 11.4209 24.3443L19.6566 12.1051H29.1506L19.0275 26.0029C17.4642 28.1762 16.3013 30.0445 15.5387 31.6078C17.4833 30.4258 19.6185 29.8348 21.9443 29.8348C24.7658 29.8348 27.2632 30.483 29.4365 31.7794C31.648 33.0757 33.3637 34.8868 34.5839 37.2127C35.8421 39.5004 36.4712 42.1121 36.4712 45.048ZM28.2355 45.048C28.2355 42.4934 27.511 40.4917 26.0622 39.0428C24.6514 37.5558 22.7259 36.8123 20.2857 36.8123C17.8455 36.8123 15.901 37.5558 14.4521 39.0428C13.0413 40.4917 12.336 42.4934 12.336 45.048C12.336 47.5645 13.0604 49.5853 14.5093 51.1104C15.9963 52.5974 17.9218 53.3409 20.2857 53.3409C22.6497 53.3409 24.5561 52.5974 26.005 51.1104C27.492 49.5853 28.2355 47.5645 28.2355 45.048ZM59.2973 60.3184C53.6543 60.3184 49.3839 58.2404 46.4862 54.0844C43.5884 49.8903 42.1395 43.8089 42.1395 35.84C42.1395 27.8331 43.5884 21.7516 46.4862 17.5956C49.3839 13.4396 53.6543 11.3616 59.2973 11.3616C64.9403 11.3616 69.2106 13.4396 72.1084 17.5956C75.0062 21.7516 76.455 27.8331 76.455 35.84C76.455 43.8089 75.0062 49.8903 72.1084 54.0844C69.2106 58.2404 64.9403 60.3184 59.2973 60.3184ZM59.2973 53.3409C62.3475 53.3409 64.5399 51.9493 65.8744 49.1659C67.247 46.3444 67.9333 41.9024 67.9333 35.84C67.9333 29.7776 67.247 25.3547 65.8744 22.5714C64.5399 19.7499 62.3475 18.3391 59.2973 18.3391C56.247 18.3391 54.0356 19.7499 52.6629 22.5714C51.3285 25.3547 50.6612 29.7776 50.6612 35.84C50.6612 41.9024 51.3285 46.3444 52.6629 49.1659C54.0356 51.9493 56.247 53.3409 59.2973 53.3409ZM98.3088 60.3184C92.6658 60.3184 88.3955 58.2404 85.4977 54.0844C82.5999 49.8903 81.1511 43.8089 81.1511 35.84C81.1511 27.8331 82.5999 21.7516 85.4977 17.5956C88.3955 13.4396 92.6658 11.3616 98.3088 11.3616C103.952 11.3616 108.222 13.4396 111.12 17.5956C114.018 21.7516 115.467 27.8331 115.467 35.84C115.467 43.8089 114.018 49.8903 111.12 54.0844C108.222 58.2404 103.952 60.3184 98.3088 60.3184ZM98.3088 53.3409C101.359 53.3409 103.551 51.9493 104.886 49.1659C106.259 46.3444 106.945 41.9024 106.945 35.84C106.945 29.7776 106.259 25.3547 104.886 22.5714C103.551 19.7499 101.359 18.3391 98.3088 18.3391C95.2586 18.3391 93.0471 19.7499 91.6745 22.5714C90.34 25.3547 89.6728 29.7776 89.6728 35.84C89.6728 41.9024 90.34 46.3444 91.6745 49.1659C93.0471 51.9493 95.2586 53.3409 98.3088 53.3409ZM126.625 50.0238C128.112 50.0238 129.294 50.4813 130.171 51.3964C131.086 52.2733 131.544 53.4553 131.544 54.9423C131.544 56.4293 131.086 57.6113 130.171 58.4883C129.294 59.4033 128.112 59.8609 126.625 59.8609C125.138 59.8609 123.937 59.4033 123.022 58.4883C122.145 57.6113 121.707 56.4293 121.707 54.9423C121.707 53.4553 122.145 52.2733 123.022 51.3964C123.937 50.4813 125.138 50.0238 126.625 50.0238ZM154.941 60.3184C149.298 60.3184 145.027 58.2404 142.129 54.0844C139.232 49.8903 137.783 43.8089 137.783 35.84C137.783 27.8331 139.232 21.7516 142.129 17.5956C145.027 13.4396 149.298 11.3616 154.941 11.3616C160.584 11.3616 164.854 13.4396 167.752 17.5956C170.649 21.7516 172.098 27.8331 172.098 35.84C172.098 43.8089 170.649 49.8903 167.752 54.0844C164.854 58.2404 160.584 60.3184 154.941 60.3184ZM154.941 53.3409C157.991 53.3409 160.183 51.9493 161.518 49.1659C162.89 46.3444 163.577 41.9024 163.577 35.84C163.577 29.7776 162.89 25.3547 161.518 22.5714C160.183 19.7499 157.991 18.3391 154.941 18.3391C151.89 18.3391 149.679 19.7499 148.306 22.5714C146.972 25.3547 146.305 29.7776 146.305 35.84C146.305 41.9024 146.972 46.3444 148.306 49.1659C149.679 51.9493 151.89 53.3409 154.941 53.3409ZM193.952 60.3184C188.309 60.3184 184.039 58.2404 181.141 54.0844C178.243 49.8903 176.794 43.8089 176.794 35.84C176.794 27.8331 178.243 21.7516 181.141 17.5956C184.039 13.4396 188.309 11.3616 193.952 11.3616C199.595 11.3616 203.866 13.4396 206.763 17.5956C209.661 21.7516 211.11 27.8331 211.11 35.84C211.11 43.8089 209.661 49.8903 206.763 54.0844C203.866 58.2404 199.595 60.3184 193.952 60.3184ZM193.952 53.3409C197.002 53.3409 199.195 51.9493 200.529 49.1659C201.902 46.3444 202.588 41.9024 202.588 35.84C202.588 29.7776 201.902 25.3547 200.529 22.5714C199.195 19.7499 197.002 18.3391 193.952 18.3391C190.902 18.3391 188.69 19.7499 187.318 22.5714C185.983 25.3547 185.316 29.7776 185.316 35.84C185.316 41.9024 185.983 46.3444 187.318 49.1659C188.69 51.9493 190.902 53.3409 193.952 53.3409ZM232.964 60.3184C227.321 60.3184 223.05 58.2404 220.153 54.0844C217.255 49.8903 215.806 43.8089 215.806 35.84C215.806 27.8331 217.255 21.7516 220.153 17.5956C223.05 13.4396 227.321 11.3616 232.964 11.3616C238.607 11.3616 242.877 13.4396 245.775 17.5956C248.673 21.7516 250.121 27.8331 250.121 35.84C250.121 43.8089 248.673 49.8903 245.775 54.0844C242.877 58.2404 238.607 60.3184 232.964 60.3184ZM232.964 53.3409C236.014 53.3409 238.206 51.9493 239.541 49.1659C240.913 46.3444 241.6 41.9024 241.6 35.84C241.6 29.7776 240.913 25.3547 239.541 22.5714C238.206 19.7499 236.014 18.3391 232.964 18.3391C229.913 18.3391 227.702 19.7499 226.329 22.5714C224.995 25.3547 224.328 29.7776 224.328 35.84C224.328 41.9024 224.995 46.3444 226.329 49.1659C227.702 51.9493 229.913 53.3409 232.964 53.3409ZM289.476 20.5124V51.4536C289.476 54.7326 289.571 57.4207 289.762 59.5177H282.327C282.136 58.4501 282.022 56.7344 281.984 54.3704C280.726 56.2768 279.105 57.7448 277.123 58.7742C275.178 59.8037 272.967 60.3184 270.488 60.3184C267.743 60.3184 265.227 59.5368 262.939 57.9735C260.651 56.4484 258.84 54.2941 257.506 51.5108C256.171 48.7274 255.504 45.5437 255.504 41.9596C255.504 38.3756 256.171 35.1918 257.506 32.4085C258.84 29.587 260.651 27.4137 262.939 25.8885C265.227 24.3253 267.743 23.5436 270.488 23.5436C272.738 23.5436 274.759 23.9631 276.551 24.8019C278.381 25.6407 279.925 26.8608 281.183 28.4622V20.5124H274.549V13.9353H281.183V10.1034H289.476V13.9353H293.594V20.5124H289.476ZM281.183 41.9596C281.183 38.3756 280.383 35.5159 278.781 33.3808C277.18 31.2074 275.083 30.1208 272.49 30.1208C270.774 30.1208 269.249 30.6164 267.915 31.6078C266.618 32.561 265.608 33.9336 264.883 35.7256C264.159 37.5177 263.797 39.5957 263.797 41.9596C263.797 44.2855 264.159 46.3444 264.883 48.1364C265.608 49.9285 266.618 51.3201 267.915 52.3115C269.249 53.2647 270.774 53.7413 272.49 53.7413C275.083 53.7413 277.18 52.6737 278.781 50.5385C280.383 48.3652 281.183 45.5056 281.183 41.9596Z" fill="#D1FFF3"/>
</svg>
