<svg width="360" height="360" viewBox="0 0 360 360" fill="none" xmlns="http://www.w3.org/2000/svg">
<path d="M169.35 325.683C258.323 325.683 330.45 316.38 330.45 304.904C330.45 293.429 258.323 284.126 169.35 284.126C80.3769 284.126 8.25 293.429 8.25 304.904C8.25 316.38 80.3769 325.683 169.35 325.683Z" fill="#FFDDDD"/>
<g opacity="0.38">
<path d="M206.5 314.843C182.795 323.053 157.861 326.677 133.514 325.448C120.382 324.79 107.39 322.724 95.0565 318.78C69.4183 310.602 39.6792 294.903 24.1209 273.052C5.24437 246.553 -2.19824 214.537 12.3583 182.982C15.1052 177.026 25.2635 165.412 30.4052 161.343C41.667 152.437 45.8774 154.033 53.6565 150.347C62.2652 146.262 69.9113 139.813 75.4992 131.917C82.12 122.564 85.7357 111.53 91.2061 101.481C98.7583 87.6052 109.957 75.6157 123.207 67.2183C139.016 57.2009 159.457 52.5835 174.757 61.1452C191.693 70.6304 197.774 93.1383 214.232 103.39C235.613 116.71 265.25 104.705 290.13 110.324C316.504 116.288 334.535 144.673 329.643 172.518C328.125 181.174 324.713 189.501 321.082 197.632C315.306 210.561 303.833 225.164 295.021 236.309C270.024 267.934 226.77 312.096 206.5 314.843Z" fill="#FDF1F1"/>
</g>
<path opacity="0.45" d="M326.428 249.073C326.529 248.823 326.631 248.572 326.733 248.33C326.936 247.852 327.132 247.383 327.343 246.929C327.437 246.717 327.531 246.498 327.633 246.287C327.899 245.708 328.173 245.144 328.447 244.604C328.478 244.542 328.509 244.471 328.541 244.409C328.854 243.806 329.167 243.227 329.48 242.664C329.574 242.491 329.675 242.335 329.769 242.163C329.996 241.771 330.223 241.388 330.45 241.02C330.56 240.84 330.677 240.66 330.787 240.48C331.006 240.128 331.233 239.791 331.46 239.463C331.569 239.306 331.671 239.15 331.781 238.993C332.054 238.594 332.336 238.211 332.61 237.843C332.657 237.78 332.712 237.71 332.759 237.639C333.088 237.201 333.424 236.794 333.753 236.395C333.839 236.293 333.925 236.199 334.003 236.097C334.254 235.808 334.496 235.518 334.747 235.244C334.848 235.127 334.958 235.018 335.06 234.908C335.294 234.658 335.529 234.407 335.756 234.172C335.85 234.078 335.944 233.977 336.038 233.883C336.32 233.601 336.601 233.335 336.875 233.077C336.914 233.045 336.946 233.006 336.985 232.975C337.314 232.677 337.634 232.396 337.948 232.13C337.987 232.091 338.034 232.059 338.073 232.028C338.339 231.809 338.605 231.59 338.863 231.394C338.934 231.339 339.004 231.284 339.074 231.237C339.317 231.057 339.552 230.885 339.779 230.721C339.834 230.682 339.896 230.635 339.951 230.596C340.233 230.4 340.499 230.22 340.765 230.048C341.79 229.391 342.69 228.913 343.434 228.569C344.49 228.436 345.367 228.06 345.993 227.403C349.616 223.654 344.122 212.463 333.714 202.391C323.313 192.326 311.941 187.2 308.318 190.941C308.208 191.058 308.107 191.176 308.013 191.301C308.013 191.301 308.013 191.301 308.013 191.309L308.005 191.317C295.624 206.507 304.796 274.187 290.6 274.821C283.282 275.15 277.945 250.811 274.501 227.137C275.527 227.473 276.646 226.957 277.037 225.947C277.444 224.898 276.928 223.709 275.879 223.302C275.229 223.051 274.525 223.153 273.985 223.513C273.868 222.684 273.758 221.862 273.648 221.04C273.672 221.048 273.688 221.064 273.703 221.071C274.752 221.478 275.941 220.962 276.348 219.913C276.755 218.864 276.239 217.675 275.19 217.268C274.494 216.994 273.742 217.135 273.194 217.565C273.085 216.681 272.968 215.797 272.866 214.928C272.975 214.991 273.085 215.053 273.202 215.1C274.251 215.507 275.441 214.991 275.848 213.942C276.254 212.893 275.738 211.704 274.689 211.297C273.899 210.991 273.038 211.203 272.482 211.774C272.263 209.943 272.06 208.151 271.872 206.421C271.958 206.476 272.052 206.523 272.146 206.562C273.194 206.969 274.384 206.452 274.791 205.404C275.198 204.355 274.681 203.165 273.633 202.758C272.881 202.469 272.068 202.649 271.512 203.158C271.371 201.851 271.246 200.583 271.121 199.37C271.269 199.479 271.426 199.581 271.606 199.651C272.654 200.058 273.844 199.542 274.251 198.493C274.658 197.444 274.141 196.255 273.093 195.848C272.279 195.527 271.379 195.777 270.831 196.396C270.737 195.425 270.651 194.494 270.565 193.61C270.659 193.664 270.753 193.719 270.854 193.758C271.903 194.165 273.093 193.649 273.5 192.6C273.907 191.551 273.39 190.362 272.341 189.955C271.614 189.673 270.823 189.838 270.268 190.323C269.876 185.901 269.681 183.232 269.681 183.232C269.681 183.232 269.532 181.855 269.25 179.538C269.313 179.57 269.368 179.609 269.43 179.632C270.479 180.039 271.668 179.523 272.075 178.474C272.482 177.425 271.966 176.236 270.917 175.829C270.181 175.539 269.391 175.719 268.835 176.204C268.734 175.422 268.624 174.584 268.507 173.7C268.585 173.739 268.655 173.786 268.741 173.818C269.79 174.224 270.98 173.708 271.387 172.659C271.794 171.611 271.277 170.421 270.228 170.014C269.461 169.717 268.624 169.912 268.068 170.452C266.315 157.774 263.279 139.226 259.773 131.909C269.861 134.656 278.289 136.448 284.174 137.544C286.945 138.06 288.667 134.648 286.624 132.699L271.848 118.667C271.348 118.19 271.034 117.54 270.98 116.844L270.964 116.609L270.205 107.327L268.428 85.6566C268.334 84.514 267.575 83.5749 266.488 83.2227C250.796 78.0888 231.27 64.5888 225.534 60.488C224.524 59.768 223.194 59.7993 222.208 60.5427L202.666 75.2558L194.182 81.6419C193.728 81.9862 193.173 82.1819 192.601 82.2053L191.741 82.2445L167.401 83.2932C164.748 83.4106 163.668 86.8227 165.821 88.3879C178.953 97.9201 192.695 105.738 206.094 112.124L208.911 169.568C207.009 171.446 204.223 172.941 200.075 176.643C200.06 176.658 200.036 176.674 200.021 176.69C199.434 177.214 198.815 177.785 198.174 178.411C198.127 178.458 198.08 178.505 198.033 178.544C197.743 178.826 197.438 179.124 197.141 179.429C197.109 179.46 197.086 179.484 197.054 179.515C196.726 179.844 196.389 180.188 196.053 180.548C195.99 180.611 195.935 180.673 195.873 180.744C195.591 181.041 195.294 181.354 195.004 181.675C194.926 181.753 194.855 181.839 194.777 181.917C194.425 182.301 194.073 182.692 193.713 183.107C193.658 183.17 193.603 183.232 193.548 183.295C193.235 183.647 192.922 184.015 192.594 184.398C192.492 184.516 192.39 184.633 192.296 184.751C191.921 185.197 191.537 185.658 191.146 186.136C190.825 186.527 190.52 186.934 190.222 187.349C190.152 187.451 190.081 187.544 190.011 187.646C189.729 188.053 189.448 188.468 189.189 188.891C189.166 188.93 189.142 188.969 189.119 189.008C188.876 189.399 188.649 189.798 188.43 190.205C188.375 190.307 188.321 190.417 188.258 190.518C188.031 190.949 187.812 191.387 187.608 191.825C187.577 191.888 187.546 191.958 187.522 192.021C187.342 192.42 187.17 192.819 187.006 193.218C186.967 193.32 186.92 193.422 186.881 193.531C186.701 193.985 186.528 194.431 186.372 194.893C186.348 194.971 186.317 195.05 186.294 195.128C186.153 195.543 186.02 195.95 185.894 196.364C185.871 196.451 185.84 196.537 185.816 196.623C185.675 197.092 185.542 197.562 185.425 198.031C185.409 198.102 185.386 198.172 185.37 198.243C185.261 198.689 185.151 199.135 185.057 199.573C185.049 199.62 185.034 199.675 185.026 199.722C184.916 200.215 184.822 200.708 184.728 201.193C184.721 201.24 184.713 201.287 184.705 201.334C183.68 207.008 183.703 212.424 183.703 216.008C183.695 218.035 184.736 219.952 186.521 220.907C188.657 222.057 191.506 224.491 192.993 229.531C193.008 229.586 193.024 229.641 193.032 229.688C193.134 230.048 193.228 230.424 193.321 230.807C193.345 230.924 193.376 231.034 193.4 231.151C193.494 231.582 193.572 232.028 193.65 232.49C193.666 232.591 193.681 232.693 193.689 232.795C193.752 233.225 193.807 233.664 193.846 234.117C193.854 234.211 193.869 234.305 193.877 234.399C193.924 234.916 193.955 235.464 193.971 236.019C193.979 236.144 193.979 236.277 193.979 236.403C193.994 236.99 193.994 237.584 193.979 238.218C193.877 242.225 193.141 245.238 192.077 247.508C191.005 244.088 189.604 240.731 187.976 237.451C187.976 237.444 187.968 237.436 187.968 237.428C188.039 237.389 188.109 237.357 188.18 237.311L192.586 234.266C193.423 233.687 193.634 232.537 193.055 231.699L192.374 230.713C191.795 229.876 190.645 229.664 189.808 230.244L185.84 232.991C185.261 231.926 184.642 230.901 183.993 229.891L188.148 227.019C188.986 226.44 189.197 225.29 188.618 224.452L187.937 223.466C187.358 222.629 186.208 222.417 185.37 222.997L181.214 225.869C180.51 224.804 179.79 223.748 179.07 222.707L182.388 220.414C183.226 219.835 183.437 218.684 182.858 217.847L182.177 216.861C181.598 216.024 180.448 215.812 179.61 216.391L176.229 218.731C168.63 208.252 160.358 198.266 152.086 188.304L144.299 178.92C144.017 178.576 143.618 178.388 143.203 178.357C142.898 178.333 142.585 178.396 142.303 178.56C142.209 178.615 142.123 178.677 142.037 178.748L141.599 179.131L141.45 179.264C140.707 179.922 140.621 181.041 141.247 181.808C146.772 188.554 152.305 195.308 157.83 202.054C160.076 204.801 162.33 207.548 164.396 210.436C165.249 211.633 166.079 212.854 166.877 214.091C154.528 207.477 139.447 206.609 126.088 213.073C103.674 223.92 94.4545 251.374 105.544 274.273C106.452 276.144 107.477 277.92 108.588 279.618C103.65 276.918 98.8136 274.007 94.8223 270.071C86.5971 261.963 83.0128 249.198 83.6388 238.242C83.631 238.195 83.631 238.148 83.6154 238.101C83.811 235.143 82.958 233.46 82.6214 232.92C82.598 232.881 82.5745 232.842 82.5432 232.803C82.5041 232.748 82.4884 232.724 82.4884 232.724C82.4884 232.732 82.4884 232.74 82.4962 232.748C82.3319 232.568 82.1127 232.435 81.8545 232.411C76.3293 231.926 66.7345 245.88 59.6832 266.165C52.3188 287.358 51.3719 308.035 55.1988 308.841C55.2536 308.849 55.3241 308.841 55.4023 308.81L55.3945 308.817C55.3945 308.817 57.3197 308.199 59.2293 305.577C59.2371 305.57 59.2371 305.577 59.2449 305.57C63.831 299.387 69.1136 295.161 74.3101 292.531C74.8345 292.265 75.3588 292.015 75.8832 291.78C75.9145 291.764 75.9458 291.749 75.9849 291.733C76.4858 291.514 76.9788 291.311 77.4719 291.115C77.5423 291.091 77.6049 291.06 77.6754 291.037C78.1371 290.857 78.5988 290.7 79.0606 290.544C79.1623 290.512 79.2719 290.473 79.3736 290.442C79.7962 290.309 80.2188 290.184 80.6414 290.066C80.7901 290.027 80.9388 289.988 81.0875 289.949C81.4632 289.855 81.8388 289.761 82.2067 289.683C82.4101 289.636 82.6136 289.604 82.8171 289.565C83.1301 289.503 83.451 289.44 83.7641 289.393C84.0458 289.346 84.3275 289.315 84.6093 289.284C84.8362 289.252 85.071 289.221 85.298 289.197C85.8145 289.151 86.3154 289.111 86.8162 289.088C96.7006 288.72 106.374 291.757 115.694 295.067C125.015 298.377 134.368 302.024 144.221 302.948C155.741 304.028 167.707 301.14 177.082 294.355C178.28 293.494 179.422 292.563 180.518 291.577C186.779 314.812 208.661 317.794 219.234 317.833C219.257 317.833 219.281 317.833 219.304 317.833C219.68 317.833 220.04 317.833 220.392 317.825C220.431 317.825 220.47 317.825 220.517 317.825C220.854 317.817 221.182 317.81 221.488 317.802C222.223 317.778 222.849 317.739 223.381 317.7L229.611 317.215V317.199C233.939 316.98 264.445 314.452 268.765 286.576C268.788 286.631 268.804 286.693 268.828 286.748C268.929 287.022 269.031 287.304 269.133 287.577C269.281 287.969 269.43 288.344 269.587 288.728C269.696 288.994 269.798 289.268 269.908 289.526C270.064 289.902 270.221 290.262 270.377 290.622C270.487 290.88 270.596 291.138 270.714 291.389C270.87 291.749 271.034 292.085 271.199 292.438C271.316 292.68 271.426 292.931 271.543 293.173C271.708 293.51 271.88 293.831 272.052 294.159C272.177 294.394 272.294 294.637 272.42 294.864C272.592 295.177 272.764 295.482 272.936 295.787C273.061 296.014 273.194 296.249 273.32 296.468C273.492 296.765 273.672 297.047 273.852 297.329C273.985 297.548 274.118 297.767 274.259 297.978C274.439 298.252 274.627 298.511 274.807 298.777C274.948 298.98 275.088 299.191 275.229 299.387C275.417 299.645 275.605 299.88 275.801 300.123C275.949 300.311 276.09 300.506 276.239 300.686C276.434 300.921 276.63 301.14 276.834 301.367C276.982 301.539 277.131 301.719 277.288 301.884C277.491 302.095 277.694 302.298 277.898 302.502C278.054 302.658 278.211 302.823 278.375 302.971C278.587 303.167 278.798 303.339 279.009 303.527C279.174 303.668 279.33 303.817 279.494 303.95C279.721 304.13 279.948 304.286 280.183 304.458C280.34 304.576 280.496 304.701 280.661 304.811C280.911 304.983 281.169 305.131 281.428 305.28C281.568 305.366 281.709 305.46 281.858 305.546C282.218 305.742 282.578 305.914 282.946 306.078C283.001 306.102 283.048 306.133 283.094 306.157C301.087 313.944 310.541 298.745 316.621 281.598C316.817 281.043 317.013 280.487 317.201 279.931C317.428 279.251 317.654 278.577 317.881 277.897C318.093 277.247 318.296 276.597 318.5 275.94C318.562 275.737 318.625 275.533 318.688 275.33C318.891 274.672 319.087 274.015 319.282 273.357C319.337 273.162 319.4 272.966 319.454 272.771C319.681 272.011 319.901 271.26 320.112 270.517C320.354 269.671 320.589 268.834 320.816 268.004C321.043 267.175 321.27 266.353 321.497 265.547C321.638 265.031 321.779 264.522 321.912 264.021C322.319 262.542 322.702 261.11 323.086 259.74C323.219 259.271 323.344 258.809 323.477 258.355C323.954 256.68 324.408 255.107 324.87 253.683C325.128 252.877 325.395 252.102 325.668 251.343C325.754 251.108 325.841 250.873 325.927 250.638C326.036 250.075 326.232 249.566 326.428 249.073ZM128.13 241.607C128.999 243.031 129.922 244.424 130.83 245.81C134.469 251.374 138.437 256.672 142.632 261.837C146.686 266.831 150.849 271.886 153.479 277.811C153.815 278.577 154.128 279.352 154.402 280.135C144.197 279.204 134.704 273.107 129.922 263.223C126.534 256.226 126.103 248.541 128.13 241.607ZM154.778 275.001C151.773 269.084 147.421 263.99 143.281 258.856C139.094 253.667 135.174 248.283 131.613 242.648C130.791 241.357 129.93 240.034 129.155 238.672C131.339 233.311 135.056 228.553 140.057 225.141C140.229 225.235 140.394 225.329 140.558 225.431C142.968 226.902 145.011 228.866 146.952 230.893C149.034 233.077 151.029 235.346 152.97 237.655L149.527 240.214C148.838 240.731 148.697 241.701 149.206 242.39C149.722 243.078 150.693 243.219 151.381 242.711L154.95 240.057C156.061 241.427 157.165 242.804 158.253 244.19L154.16 247.234C153.471 247.751 153.33 248.721 153.839 249.41C154.355 250.098 155.326 250.239 156.014 249.731L160.162 246.647C161.203 247.985 162.236 249.331 163.269 250.677L159.395 253.557C158.707 254.074 158.566 255.044 159.074 255.733C159.591 256.422 160.561 256.563 161.25 256.054L165.163 253.143C165.374 253.417 165.586 253.691 165.797 253.964C167.746 256.484 169.71 259.012 171.894 261.344C173.952 263.544 176.229 265.696 178.835 267.237C179.008 267.339 179.188 267.433 179.368 267.527C179.234 268.646 179.109 269.757 179.023 270.83C176.581 273.412 173.647 275.611 170.258 277.247C165.977 279.321 161.438 280.284 156.977 280.26C156.398 278.444 155.631 276.668 154.778 275.001ZM127.089 234.063C126.393 231.691 126.205 228.874 127.543 226.691C128.803 224.632 131.026 223.662 133.413 223.458C134.508 223.364 135.604 223.49 136.668 223.764C132.716 226.831 129.594 230.697 127.41 235.017C127.293 234.697 127.183 234.384 127.089 234.063ZM173.733 226.096C173.772 226.064 173.803 226.033 173.834 226.002C174.703 227.551 175.564 229.117 176.401 230.697L160.162 242.773C159.074 241.388 157.979 240.003 156.868 238.633L173.733 226.096ZM177.849 233.499C178.624 235.049 179.368 236.614 180.064 238.195L165.179 249.261C164.428 248.283 163.676 247.297 162.925 246.318C162.643 245.951 162.361 245.591 162.08 245.231L177.849 233.499ZM181.301 241.153C182.944 245.332 184.165 249.613 184.658 253.988C184.486 254.043 184.321 254.105 184.157 254.176C184.079 254.207 184.008 254.254 183.93 254.293C183.789 254.364 183.656 254.434 183.523 254.52C183.437 254.575 183.351 254.637 183.265 254.7C183.155 254.778 183.054 254.857 182.952 254.935C182.858 255.005 182.772 255.084 182.686 255.162C182.6 255.24 182.521 255.318 182.443 255.404C182.357 255.498 182.263 255.592 182.185 255.694C182.122 255.764 182.068 255.843 182.013 255.921C181.919 256.038 181.833 256.156 181.754 256.281C181.739 256.304 181.731 256.328 181.715 256.351C181.496 256.704 181.308 257.079 181.16 257.478C181.058 257.76 180.964 258.05 180.909 258.347C180.432 260.656 180.048 262.871 179.728 265.007C177.967 263.927 176.386 262.487 174.961 261.071C172.747 258.879 170.782 256.461 168.865 254.011C168.27 253.252 167.691 252.493 167.096 251.734L181.301 241.153ZM154.872 236.238C153.416 234.501 151.937 232.779 150.403 231.112C148.001 228.491 145.379 225.712 142.334 223.732C142.859 223.435 143.391 223.153 143.939 222.887C153.111 218.45 163.449 219.091 171.753 223.685L154.872 236.238ZM157.885 284.118C157.854 283.868 157.799 283.617 157.76 283.367C162.424 283.281 167.151 282.217 171.62 280.057C174.257 278.781 176.644 277.2 178.765 275.384C178.734 276.535 178.726 277.654 178.749 278.75C178.569 279.047 178.389 279.352 178.201 279.65C176.988 281.591 175.65 283.469 174.085 285.144C168.849 290.731 161.422 293.588 153.714 294.269C154.418 293.776 155.06 293.22 155.608 292.563C157.541 290.215 158.3 287.069 157.885 284.118ZM217.668 126.258L216.878 116.977C224.336 120.178 231.607 122.94 238.501 125.319C230.683 125.296 222.552 126.078 217.7 126.642L217.668 126.258ZM127.371 215.836C141.137 209.176 156.86 210.89 168.935 218.951C160.663 215.804 151.162 215.93 142.585 220.077C141.364 220.664 140.206 221.33 139.094 222.042C138.218 221.697 137.318 221.424 136.371 221.244C133.867 220.774 131.088 221.087 128.834 222.316C126.361 223.662 124.812 225.978 124.327 228.733C123.81 231.66 124.593 234.673 125.814 237.326C125.908 237.53 126.009 237.725 126.103 237.921C122.84 246.264 122.918 255.89 127.121 264.569C132.583 275.854 143.61 282.663 155.326 283.304C155.537 284.267 155.686 285.245 155.639 286.231C155.576 287.531 155.114 288.814 154.488 289.949C153.854 291.084 152.954 291.944 151.914 292.571C150.442 293.455 148.83 294.018 147.155 294.308C145.715 294.214 144.275 294.05 142.867 293.815C133.068 292.195 124.014 287.812 115.201 283.156C112.486 280.151 110.138 276.707 108.275 272.872C97.9293 251.531 106.499 225.939 127.371 215.836ZM258.724 248.118C255.101 247.641 249.325 245.074 247.29 234.008C245.263 222.95 249.137 217.886 251.954 215.742C253.567 214.513 254.294 212.455 253.974 210.459C252.886 203.643 250.867 190.072 241.953 182.113C241.452 181.667 240.959 181.237 240.481 180.822C240.286 180.65 240.098 180.501 239.91 180.337C239.636 180.102 239.354 179.867 239.088 179.64C238.846 179.437 238.611 179.249 238.368 179.053C238.165 178.889 237.961 178.717 237.766 178.56C237.492 178.341 237.234 178.138 236.968 177.934C236.819 177.817 236.662 177.691 236.514 177.574C236.224 177.347 235.942 177.136 235.661 176.924C235.551 176.846 235.441 176.76 235.34 176.682C235.027 176.455 234.729 176.236 234.432 176.017C234.361 175.97 234.299 175.915 234.228 175.868C233.9 175.633 233.587 175.414 233.274 175.203C233.242 175.179 233.211 175.156 233.18 175.14C227.388 171.172 223.937 170.147 221.527 168.3L218.021 130.062C227.271 129.647 247.932 129.178 253.504 132.903C255.437 134.194 256.541 141.59 257.159 148.657C257.738 155.231 257.894 161.828 257.714 168.418C257.707 168.684 257.699 168.965 257.691 169.247C257.691 169.263 257.691 169.278 257.691 169.294C257.683 169.646 257.675 170.006 257.668 170.382C257.668 170.476 257.66 170.562 257.66 170.656C257.652 171.008 257.644 171.368 257.636 171.744C257.636 171.861 257.628 171.978 257.628 172.104C257.621 172.448 257.613 172.808 257.605 173.168C257.605 173.34 257.597 173.504 257.597 173.684C257.589 174.013 257.581 174.357 257.581 174.702C257.581 174.913 257.574 175.124 257.574 175.336C257.566 175.664 257.566 175.993 257.558 176.33C257.558 176.572 257.55 176.823 257.55 177.073C257.542 177.41 257.542 177.746 257.534 178.091C257.534 178.349 257.527 178.615 257.527 178.881C257.519 179.225 257.519 179.57 257.519 179.922C257.519 180.211 257.511 180.501 257.511 180.791C257.511 181.135 257.503 181.479 257.503 181.824C257.503 182.137 257.495 182.45 257.495 182.771C257.495 183.115 257.495 183.459 257.488 183.811C257.488 184.156 257.488 184.508 257.48 184.86C257.48 185.181 257.48 185.502 257.48 185.831C257.48 186.222 257.48 186.613 257.48 187.004C257.48 187.325 257.48 187.654 257.48 187.983C257.48 188.39 257.48 188.797 257.48 189.204C257.48 189.524 257.48 189.845 257.48 190.166C257.48 190.604 257.488 191.043 257.488 191.489C257.488 191.802 257.495 192.115 257.495 192.428C257.495 192.89 257.503 193.344 257.511 193.813C257.511 194.126 257.519 194.447 257.519 194.76C257.527 195.238 257.527 195.715 257.534 196.192C257.542 196.513 257.542 196.834 257.55 197.155C257.558 197.64 257.566 198.133 257.574 198.626C257.581 198.947 257.581 199.276 257.589 199.604C257.597 200.113 257.605 200.622 257.621 201.131C257.628 201.444 257.636 201.764 257.644 202.077C257.652 202.602 257.668 203.126 257.683 203.651C257.691 203.979 257.699 204.308 257.707 204.637C257.722 205.169 257.738 205.693 257.746 206.233C257.754 206.554 257.761 206.875 257.777 207.196C257.793 207.744 257.808 208.299 257.832 208.855C257.84 209.176 257.855 209.497 257.863 209.818C257.879 210.381 257.902 210.937 257.926 211.5C257.934 211.821 257.949 212.142 257.965 212.463C257.988 213.026 258.012 213.598 258.035 214.169C258.051 214.49 258.059 214.818 258.074 215.139C258.098 215.718 258.129 216.298 258.153 216.884C258.168 217.205 258.184 217.526 258.2 217.847C258.231 218.434 258.254 219.013 258.286 219.6C258.301 219.929 258.317 220.257 258.333 220.586C258.364 221.173 258.395 221.76 258.427 222.355C258.442 222.684 258.466 223.012 258.481 223.333C258.513 223.928 258.552 224.523 258.591 225.117C258.615 225.446 258.63 225.783 258.654 226.111C258.693 226.698 258.732 227.293 258.771 227.888C258.794 228.224 258.818 228.561 258.841 228.898C258.881 229.492 258.928 230.087 258.967 230.682C258.99 231.011 259.014 231.339 259.037 231.668C259.084 232.271 259.131 232.873 259.178 233.476C259.201 233.804 259.233 234.133 259.256 234.462C259.303 235.057 259.358 235.651 259.405 236.254C259.436 236.591 259.46 236.919 259.491 237.256C259.546 237.858 259.601 238.453 259.655 239.056C259.687 239.384 259.718 239.713 259.749 240.042C259.804 240.644 259.867 241.247 259.929 241.85C259.961 242.171 259.992 242.499 260.031 242.82C260.094 243.415 260.156 244.017 260.219 244.612C260.258 244.941 260.289 245.27 260.328 245.598C260.391 246.193 260.461 246.788 260.532 247.375C260.571 247.704 260.61 248.024 260.649 248.353C260.665 248.494 260.681 248.627 260.696 248.768C260.062 248.447 259.413 248.204 258.724 248.118Z" fill="#D9C7AC"/>
<path d="M233.172 240.003C239.48 226.487 243.737 211.688 252.894 199.542C262.05 187.396 273.226 176.369 286.46 168.23C292.697 164.395 299.6 161.147 306.815 160.662C310.415 160.419 314.281 160.998 316.645 163.385C320.135 166.907 319.047 172.808 316.895 177.519C312.771 186.55 305.61 194.283 297.541 200.692C289.473 207.102 280.457 212.306 271.551 217.573C259.483 224.71 244.23 231.472 233.172 240.003Z" fill="#C1D4EE"/>
<g opacity="0.48">
<path opacity="0.48" d="M239.659 232.49C241.193 230.909 242.735 229.336 244.284 227.77C248.197 223.81 252.15 219.89 256.125 216C261.392 210.85 266.714 205.756 272.122 200.747C277.937 195.363 283.83 190.057 289.918 184.985C294.943 180.798 300.1 176.635 305.696 173.215C306.22 172.894 306.752 172.581 307.284 172.283C307.754 172.017 307.347 171.282 306.877 171.548C304.428 172.925 302.096 174.514 299.818 176.157C297.009 178.192 294.277 180.329 291.585 182.52C285.465 187.513 279.564 192.757 273.75 198.102C268.232 203.165 262.809 208.33 257.44 213.55C253.214 217.667 249.019 221.815 244.864 226.002C242.954 227.927 241.013 229.829 239.158 231.809C239.135 231.832 239.104 231.863 239.08 231.887C238.697 232.27 239.284 232.881 239.659 232.49Z" fill="white"/>
<path opacity="0.48" d="M268.084 204.496C268.999 204.12 269.907 203.737 270.823 203.353C273.085 202.398 275.331 201.436 277.577 200.45C280.472 199.182 283.36 197.89 286.232 196.56C289.066 195.245 291.891 193.891 294.669 192.451C296.751 191.371 298.856 190.26 300.758 188.883C300.946 188.75 301.126 188.609 301.306 188.468C301.486 188.327 301.47 188.022 301.321 187.873C301.149 187.693 300.906 187.717 300.726 187.857C300.648 187.92 300.57 187.983 300.492 188.037C300.468 188.053 300.335 188.147 300.429 188.084C300.382 188.116 300.335 188.155 300.288 188.186C300.1 188.319 299.905 188.452 299.709 188.585C299.279 188.875 298.833 189.149 298.394 189.415C297.314 190.064 296.211 190.675 295.099 191.27C292.384 192.717 289.606 194.056 286.819 195.363C283.932 196.717 281.028 198.023 278.109 199.307C275.761 200.34 273.406 201.35 271.05 202.351C270.299 202.672 269.547 202.985 268.796 203.298C268.444 203.447 268.076 203.572 267.739 203.737C267.724 203.744 267.708 203.752 267.692 203.752C267.481 203.838 267.426 204.143 267.528 204.323C267.63 204.55 267.872 204.582 268.084 204.496Z" fill="white"/>
<path opacity="0.48" d="M290.819 172.589C289.88 173.755 289.019 175.007 288.197 176.251C286.28 179.147 284.558 182.176 283.134 185.345C282.179 187.458 281.357 189.626 280.739 191.864C280.59 192.389 281.404 192.623 281.553 192.099C282.609 188.303 284.229 184.68 286.147 181.244C287.493 178.826 288.987 176.478 290.623 174.248C290.921 173.841 291.226 173.426 291.547 173.035C291.687 172.855 291.586 172.565 291.406 172.456C291.187 172.323 290.96 172.409 290.819 172.589Z" fill="white"/>
<g opacity="0.48">
<path opacity="0.48" d="M264.6 197.022C263.661 198.196 262.8 199.44 261.978 200.684C260.061 203.58 258.339 206.609 256.915 209.778C255.96 211.891 255.138 214.059 254.52 216.297C254.371 216.822 255.185 217.056 255.334 216.532C256.39 212.737 258.01 209.113 259.928 205.677C261.274 203.259 262.769 200.911 264.404 198.681C264.702 198.274 265.007 197.859 265.328 197.468C265.469 197.288 265.367 196.998 265.187 196.889C264.96 196.756 264.741 196.85 264.6 197.022Z" fill="white"/>
</g>
</g>
<path d="M257.182 272.927C263.122 267.66 270.048 255.029 273.35 247.813C276.653 240.597 281.638 233.178 289.355 231.323C291.264 230.862 293.416 230.815 295.068 231.879C297.439 233.413 297.979 236.598 298.292 239.408C304.561 229.915 314.007 222.558 324.744 218.81C330.504 216.798 336.953 215.836 342.666 217.972C348.387 220.109 352.965 226.057 351.948 232.083C351.298 235.925 348.614 239.095 345.703 241.677C341.962 244.988 337.673 247.672 333.063 249.59C336.843 250.803 340.115 253.745 341.343 257.517C342.572 261.29 341.547 265.805 338.542 268.396C336.992 269.734 335.036 270.524 333.056 271.08C323.625 273.725 313.6 271.526 304.06 269.319C305.782 271.565 307.543 274.719 305.852 276.989C305.077 278.03 303.77 278.515 302.526 278.883C294.817 281.176 286.576 281.207 278.609 280.064C270.658 278.906 264.898 275.197 257.182 272.927Z" fill="#C1D4EE"/>
<g opacity="0.44">
<g opacity="0.44">
<path d="M263.991 270.031C265.815 269.296 267.638 268.552 269.454 267.793C274.048 265.891 278.626 263.95 283.196 261.97C289.238 259.349 295.249 256.664 301.22 253.886C307.637 250.897 314.016 247.805 320.276 244.479C325.442 241.732 330.622 238.876 335.342 235.401C335.78 235.072 336.218 234.744 336.649 234.399C337.032 234.094 337.502 234.681 337.118 234.986C335.146 236.551 333.049 237.944 330.92 239.275C328.29 240.918 325.598 242.452 322.875 243.939C316.676 247.32 310.345 250.427 303.959 253.44C297.909 256.289 291.805 259.036 285.677 261.72C280.849 263.833 275.996 265.899 271.129 267.918C268.89 268.85 266.66 269.812 264.398 270.681C264.367 270.689 264.336 270.704 264.304 270.72C263.85 270.9 263.537 270.211 263.991 270.031Z" fill="white"/>
</g>
<g opacity="0.44">
<path opacity="0.44" d="M296.751 255.96C297.369 255.334 297.995 254.708 298.621 254.082C300.171 252.532 301.728 250.998 303.301 249.472C305.328 247.5 307.371 245.551 309.445 243.626C311.495 241.724 313.561 239.846 315.698 238.038C317.295 236.684 318.922 235.315 320.707 234.204C320.879 234.094 321.059 233.992 321.231 233.883C321.411 233.781 321.654 233.898 321.732 234.07C321.826 234.274 321.716 234.47 321.544 234.571C321.466 234.618 321.388 234.657 321.317 234.704C321.294 234.72 321.168 234.79 321.254 234.744C321.208 234.775 321.168 234.798 321.121 234.83C320.941 234.939 320.769 235.057 320.597 235.174C320.214 235.432 319.838 235.706 319.462 235.98C318.562 236.653 317.686 237.357 316.817 238.085C314.704 239.846 312.661 241.685 310.642 243.556C308.553 245.489 306.487 247.453 304.444 249.433C302.801 251.03 301.165 252.634 299.537 254.246C299.021 254.763 298.504 255.279 297.988 255.796C297.745 256.038 297.518 256.297 297.268 256.523C297.26 256.531 297.244 256.547 297.236 256.555C297.095 256.703 296.821 256.641 296.704 256.5C296.555 256.32 296.602 256.109 296.751 255.96Z" fill="white"/>
</g>
<path opacity="0.44" d="M330.826 247.923C329.542 248.306 328.22 248.596 326.905 248.854C323.86 249.464 320.777 249.863 317.67 249.973C315.604 250.043 313.522 249.997 311.464 249.754C310.987 249.699 311.065 248.948 311.542 249.003C315.04 249.41 318.586 249.292 322.076 248.87C324.533 248.572 326.975 248.126 329.378 247.531C329.816 247.422 330.262 247.312 330.693 247.179C330.888 247.124 331.092 247.304 331.123 247.492C331.17 247.711 331.021 247.868 330.826 247.923Z" fill="white"/>
<g opacity="0.44">
<path opacity="0.44" d="M301.76 261.368C300.477 261.751 299.154 262.041 297.84 262.299C294.795 262.91 291.712 263.309 288.605 263.418C286.539 263.489 284.457 263.442 282.399 263.199C281.913 263.144 282 262.393 282.477 262.448C285.975 262.855 289.52 262.737 293.011 262.315C295.468 262.017 297.91 261.571 300.313 260.977C300.751 260.867 301.197 260.757 301.627 260.624C301.823 260.57 302.034 260.75 302.058 260.937C302.105 261.157 301.956 261.313 301.76 261.368Z" fill="white"/>
</g>
</g>
<path d="M118.292 280.62C105.019 287.429 92.5759 296.499 77.902 300.483C63.228 304.466 47.6385 306.313 32.182 304.623C24.9037 303.824 17.4611 302.157 11.4585 298.111C8.46109 296.092 5.76892 293.259 5.36196 289.925C4.76718 285.003 9.2437 281.011 13.8298 278.609C22.6263 274.007 33.0272 272.293 43.3263 272.176C53.6254 272.066 63.9402 273.483 74.208 274.79C88.1307 276.566 104.331 280.581 118.292 280.62Z" fill="#C1D4EE"/>
<g opacity="0.48">
<path opacity="0.48" d="M108.565 282.577C106.381 282.89 104.198 283.179 102.014 283.461C96.497 284.189 90.9718 284.862 85.4387 285.496C78.1213 286.333 70.7883 287.092 63.4474 287.734C55.5509 288.423 47.6387 288.994 39.7187 289.268C33.1761 289.495 26.5552 289.62 20.0439 288.884C19.4335 288.814 18.8231 288.736 18.2205 288.65C17.6805 288.571 17.5552 289.401 18.0874 289.479C20.8657 289.894 23.6831 290.074 26.4926 290.168C29.9596 290.285 33.4265 290.27 36.8935 290.191C44.79 290.004 52.6709 289.479 60.5361 288.83C67.9944 288.211 75.4448 287.46 82.8874 286.63C88.7492 285.973 94.6109 285.269 100.457 284.51C103.149 284.157 105.849 283.852 108.526 283.422C108.565 283.414 108.596 283.414 108.635 283.406C109.183 283.344 109.105 282.506 108.565 282.577Z" fill="white"/>
</g>
<g opacity="0.48">
<path opacity="0.48" d="M68.9502 287.249C67.9954 286.983 67.0406 286.732 66.0858 286.474C63.7223 285.84 61.351 285.222 58.9719 284.619C55.9041 283.844 52.8363 283.093 49.7528 282.381C46.7084 281.684 43.6484 281.019 40.5728 280.456C38.2641 280.033 35.9241 279.618 33.5763 279.54C33.3493 279.532 33.1145 279.524 32.8876 279.524C32.6606 279.524 32.4884 279.775 32.5119 279.986C32.5354 280.229 32.7467 280.362 32.9736 280.362C33.0754 280.362 33.1693 280.362 33.271 280.362C33.3023 280.362 33.4589 280.37 33.3493 280.362C33.4119 280.362 33.4667 280.362 33.5293 280.37C33.7641 280.377 33.9989 280.393 34.2336 280.409C34.7502 280.448 35.2667 280.503 35.7832 280.557C37.0354 280.706 38.2797 280.902 39.5241 281.113C42.5528 281.637 45.5658 282.279 48.571 282.96C51.678 283.664 54.7771 284.416 57.8684 285.19C60.3571 285.817 62.838 286.458 65.311 287.116C66.1015 287.327 66.8919 287.538 67.6745 287.75C68.0423 287.851 68.4102 287.977 68.778 288.055C68.7936 288.055 68.8093 288.063 68.825 288.07C69.0441 288.133 69.271 287.93 69.3102 287.718C69.3336 287.491 69.1693 287.311 68.9502 287.249Z" fill="white"/>
</g>
<g opacity="0.48">
<path opacity="0.48" d="M31.4158 298.503C32.8793 298.158 34.3193 297.697 35.7358 297.219C39.0228 296.108 42.2393 294.77 45.3071 293.142C47.3575 292.054 49.3375 290.849 51.2001 289.464C51.6384 289.143 51.1375 288.454 50.7071 288.783C47.5454 291.138 44.0393 292.993 40.4236 294.535C37.8723 295.623 35.2584 296.554 32.5975 297.321C32.1123 297.462 31.6193 297.595 31.1262 297.712C30.9071 297.767 30.8054 298.064 30.8836 298.252C30.9619 298.495 31.1967 298.557 31.4158 298.503Z" fill="white"/>
</g>
<g opacity="0.48">
<path opacity="0.48" d="M67.1092 295.294C68.5726 294.95 70.0126 294.488 71.4292 294.01C74.7161 292.899 77.9326 291.561 81.0005 289.933C83.0509 288.845 85.0309 287.64 86.8935 286.255C87.3318 285.934 86.8309 285.245 86.4005 285.574C83.2387 287.93 79.7326 289.784 76.117 291.326C73.5657 292.414 70.9518 293.345 68.2909 294.112C67.8057 294.253 67.3126 294.386 66.8196 294.504C66.6005 294.558 66.4987 294.856 66.577 295.044C66.6552 295.278 66.89 295.349 67.1092 295.294Z" fill="white"/>
</g>
<path d="M113.331 277.458C105.787 274.985 91.3865 275.392 83.4822 276.183C75.5857 276.973 66.6639 276.417 61.17 270.697C59.8083 269.28 58.6813 267.449 58.7674 265.484C58.8926 262.659 61.3735 260.593 63.6352 258.903C52.2717 258.292 41.1587 253.847 32.4952 246.467C27.8465 242.507 23.7691 237.436 22.7283 231.417C21.6874 225.399 24.5126 218.442 30.2178 216.282C33.857 214.904 37.9578 215.617 41.6596 216.83C46.4022 218.387 50.8865 220.735 54.87 223.748C54.0091 219.874 54.9013 215.562 57.5309 212.596C60.1683 209.63 64.5822 208.237 68.3309 209.52C70.2717 210.185 71.9387 211.477 73.4178 212.901C80.4613 219.702 83.6231 229.469 86.5344 238.821C87.5987 236.199 89.4378 233.084 92.2552 233.405C93.5465 233.546 94.6187 234.431 95.5657 235.323C101.435 240.817 105.622 247.923 108.659 255.373C111.695 262.8 111.398 269.648 113.331 277.458Z" fill="#C1D4EE"/>
<g opacity="0.44">
<path opacity="0.44" d="M107.391 273.044C105.834 271.839 104.269 270.642 102.703 269.452C98.7434 266.447 94.7521 263.473 90.7452 260.53C85.4313 256.641 80.0782 252.806 74.6704 249.05C68.8478 245.019 62.9626 241.075 56.9365 237.35C51.9591 234.274 46.88 231.245 41.4956 228.929C40.9947 228.71 40.486 228.506 39.9695 228.303C39.5156 228.13 39.7817 227.426 40.2356 227.598C42.5756 228.506 44.8452 229.617 47.0678 230.784C49.8147 232.224 52.4991 233.773 55.1521 235.377C61.1939 239.017 67.0869 242.922 72.9017 246.905C78.4191 250.693 83.8739 254.567 89.2739 258.511C93.5313 261.618 97.7652 264.757 101.976 267.942C103.909 269.405 105.865 270.845 107.759 272.356C107.783 272.379 107.814 272.395 107.837 272.418C108.213 272.731 107.775 273.342 107.391 273.044Z" fill="white"/>
<path opacity="0.44" d="M78.7174 251.867C77.8643 251.648 77.0035 251.429 76.1504 251.202C74.0295 250.646 71.9165 250.075 69.8113 249.488C67.0878 248.737 64.3721 247.954 61.6643 247.14C58.9878 246.334 56.3191 245.497 53.6817 244.565C51.7017 243.869 49.6982 243.157 47.8434 242.178C47.6634 242.084 47.4834 241.983 47.3034 241.881C47.1234 241.779 47.1078 241.513 47.2174 241.357C47.3426 241.177 47.5695 241.169 47.7417 241.27C47.82 241.317 47.8982 241.357 47.9765 241.404C48 241.419 48.1252 241.482 48.0391 241.435C48.0861 241.458 48.133 241.482 48.18 241.505C48.3678 241.599 48.5556 241.693 48.7434 241.787C49.1661 241.99 49.5887 242.178 50.0113 242.358C51.0443 242.797 52.1008 243.196 53.1574 243.579C55.74 244.51 58.3695 245.348 60.9991 246.154C63.7226 246.984 66.4617 247.774 69.2008 248.541C71.4078 249.159 73.6148 249.754 75.8295 250.341C76.5339 250.529 77.2382 250.709 77.9504 250.897C78.2791 250.983 78.6156 251.045 78.9443 251.155C78.96 251.163 78.9756 251.163 78.9913 251.163C79.1869 251.21 79.273 251.476 79.2104 251.648C79.1243 251.859 78.913 251.922 78.7174 251.867Z" fill="white"/>
<path opacity="0.44" d="M54.5738 226.51C55.552 227.426 56.4677 228.42 57.3599 229.422C59.4181 231.738 61.3277 234.204 62.9868 236.825C64.0981 238.578 65.0998 240.394 65.9294 242.288C66.1251 242.734 65.4364 243.039 65.2407 242.593C63.832 239.369 61.9303 236.371 59.8094 233.57C58.3146 231.597 56.6946 229.711 54.9651 227.943C54.6442 227.614 54.3312 227.293 53.9946 226.98C53.8459 226.839 53.9007 226.565 54.0416 226.448C54.2138 226.323 54.4251 226.37 54.5738 226.51Z" fill="white"/>
<path opacity="0.44" d="M80.8531 244.816C81.8313 245.731 82.747 246.725 83.6391 247.727C85.6974 250.043 87.607 252.509 89.2661 255.13C90.3774 256.883 91.3791 258.699 92.2087 260.593C92.4044 261.039 91.7157 261.344 91.52 260.898C90.1113 257.674 88.2096 254.677 86.0887 251.875C84.5939 249.903 82.9739 248.017 81.2444 246.248C80.9235 245.927 80.6105 245.598 80.2739 245.285C80.1252 245.144 80.18 244.87 80.3209 244.753C80.4931 244.628 80.7044 244.675 80.8531 244.816Z" fill="white"/>
</g>
<path d="M120.327 255.717C112.321 239.181 119.263 219.224 135.799 211.218C152.336 203.212 172.292 210.154 180.298 226.69C188.304 243.227 181.363 263.183 164.826 271.19C148.29 279.196 128.333 272.246 120.327 255.717ZM123.129 254.356C130.384 269.343 148.477 275.635 163.472 268.38C178.459 261.125 184.751 243.031 177.497 228.037C170.242 213.05 152.148 206.757 137.161 214.012C122.166 221.275 115.874 239.369 123.129 254.356Z" fill="#C4584E"/>
<path d="M52.906 295.756L50.566 298.385C50.1356 298.667 48.766 300.037 48.3199 299.943C44.493 299.129 45.4399 278.452 52.8043 257.267C59.8556 236.982 69.4504 223.028 74.9756 223.513C75.3826 223.552 75.7191 223.834 75.8443 224.217L76.2434 225.493L76.5486 238.797C74.3886 245.168 71.2425 253.182 68.0965 262.229C64.0347 273.905 59.5582 284.619 55.966 291.569L52.906 295.756Z" fill="#F7B17D"/>
<path d="M184.227 254.348C184.173 256.876 182.247 258.965 179.923 259.748C177.223 260.656 174.413 259.771 172.05 258.37C169.444 256.829 167.167 254.676 165.108 252.477C162.925 250.145 160.968 247.625 159.012 245.097C154.95 239.846 150.967 234.532 146.725 229.43C144.612 226.894 142.444 224.413 140.159 222.026C138.218 219.999 136.167 218.035 133.765 216.563C131.613 215.249 129.116 214.372 126.627 214.591C124.24 214.795 122.018 215.765 120.758 217.823C119.42 220.007 119.607 222.824 120.304 225.196C121.22 228.287 123.113 231.089 124.827 233.789C128.396 239.423 132.317 244.816 136.496 249.997C140.644 255.13 144.987 260.225 147.993 266.142C149.433 268.975 150.661 272.09 151.1 275.259C151.514 278.21 150.747 281.363 148.822 283.688C147.077 285.793 144.314 287.022 141.7 287.624C139.071 288.235 136.308 288.196 133.679 287.64C132.395 287.366 131.143 286.983 129.938 286.45C129.351 286.192 128.983 285.574 129.202 284.932C129.398 284.361 130.126 283.938 130.72 284.197C135.283 286.216 140.824 286.31 145.12 283.719C146.161 283.093 147.061 282.232 147.695 281.097C148.329 279.97 148.783 278.679 148.846 277.38C148.908 276.003 148.603 274.625 148.251 273.303C147.852 271.808 147.32 270.36 146.686 268.943C144.056 263.019 139.893 257.963 135.839 252.97C131.652 247.813 127.676 242.507 124.037 236.943C122.253 234.211 120.382 231.449 119.02 228.475C117.8 225.822 117.025 222.809 117.533 219.882C118.019 217.127 119.568 214.81 122.041 213.464C124.295 212.236 127.073 211.923 129.578 212.392C135.4 213.472 139.775 218.074 143.61 222.253C148.055 227.097 152.117 232.263 156.124 237.467C158.096 240.026 160.053 242.601 162.048 245.152C163.966 247.602 165.938 250.02 168.145 252.211C170.078 254.121 172.277 256.093 174.82 257.134C175.376 257.361 175.971 257.564 176.55 257.658C176.847 257.705 177.145 257.737 177.442 257.752C177.591 257.76 177.74 257.76 177.896 257.76C177.951 257.76 178.006 257.752 178.178 257.736C179.211 257.603 180.08 257.197 180.815 256.5C181.457 255.897 181.825 255.123 181.848 254.176C181.864 253.534 182.513 253.033 183.132 253.08C183.805 253.119 184.243 253.706 184.227 254.348Z" fill="#F7B17D"/>
<path d="M98.6808 265.375C87.599 242.476 96.8103 215.022 119.224 204.175C141.638 193.328 168.889 203.126 179.97 226.025C191.052 248.924 181.833 276.378 159.427 287.225C137.013 298.072 109.763 288.266 98.6808 265.375ZM101.483 264.013C111.821 285.363 137.209 294.519 158.073 284.416C178.945 274.312 187.507 248.721 177.176 227.371C166.838 206.022 141.45 196.865 120.586 206.969C99.7138 217.072 91.1443 242.663 101.483 264.013Z" fill="#F7B17D"/>
<path d="M171.127 214.56L175.533 211.516C176.371 210.937 176.582 209.786 176.003 208.949L175.322 207.963C174.743 207.125 173.593 206.914 172.755 207.493L168.349 210.537C167.512 211.117 167.3 212.267 167.88 213.104L168.56 214.09C169.132 214.928 170.282 215.139 171.127 214.56Z" fill="#C4584E"/>
<path d="M176.887 221.173L181.293 218.129C182.131 217.55 182.342 216.399 181.763 215.562L181.082 214.576C180.503 213.738 179.352 213.527 178.515 214.106L174.109 217.15C173.271 217.73 173.06 218.88 173.639 219.717L174.32 220.703C174.899 221.541 176.05 221.752 176.887 221.173Z" fill="#C4584E"/>
<path d="M181.332 228.42L185.739 225.376C186.576 224.797 186.787 223.646 186.208 222.809L185.527 221.823C184.948 220.985 183.798 220.774 182.96 221.353L178.554 224.397C177.717 224.977 177.506 226.127 178.085 226.964L178.765 227.95C179.345 228.788 180.495 228.999 181.332 228.42Z" fill="#C4584E"/>
<path d="M144.588 233.851L166.947 217.229C167.636 216.712 167.777 215.742 167.268 215.053C166.752 214.364 165.781 214.223 165.093 214.732L142.733 231.355C142.045 231.871 141.904 232.842 142.413 233.53C142.921 234.219 143.9 234.368 144.588 233.851Z" fill="#C4584E"/>
<path d="M149.229 240.871L171.588 224.249C172.277 223.732 172.418 222.762 171.909 222.073C171.392 221.384 170.422 221.244 169.733 221.752L147.374 238.375C146.685 238.891 146.545 239.862 147.053 240.55C147.562 241.239 148.54 241.38 149.229 240.871Z" fill="#C4584E"/>
<path d="M154.465 247.195L176.824 230.572C177.513 230.056 177.654 229.085 177.145 228.397C176.629 227.708 175.658 227.567 174.97 228.076L152.61 244.69C151.922 245.207 151.781 246.177 152.29 246.866C152.798 247.563 153.777 247.703 154.465 247.195Z" fill="#C4584E"/>
<path d="M57.4217 285.777C61.1391 277.936 65.3808 268.576 67.173 263.097C69.5756 255.772 73.4965 240.057 75.7504 230.823C76.0713 227.794 76.0947 225.274 75.6252 223.818C75.6252 223.818 77.0026 225.524 76.76 229.195C76.7678 229.242 76.7678 229.289 76.7834 229.336C76.1573 240.284 79.7417 253.049 87.9669 261.164C92.8113 265.938 98.8999 269.217 104.903 272.426C114.826 277.732 124.976 283.124 136.082 284.956C147.187 286.787 159.615 284.47 167.308 276.253C168.873 274.578 170.211 272.708 171.424 270.759C175.009 265.007 177.552 258.504 178.037 251.742C178.945 239.009 172.622 227.004 166.369 215.883C163.614 210.984 160.82 206.092 157.556 201.522C155.49 198.634 153.244 195.887 150.99 193.14C145.465 186.394 139.932 179.64 134.407 172.894C133.781 172.127 133.875 171.008 134.61 170.35L135.197 169.834C135.863 169.247 136.888 169.325 137.451 170.006L145.238 179.39C154.191 190.182 163.16 200.99 171.268 212.431C180.495 225.462 188.892 240.55 187.319 256.437C186.184 267.95 179.603 278.679 170.227 285.457C160.851 292.234 148.885 295.122 137.365 294.05C127.52 293.126 118.168 289.479 108.839 286.169C99.5182 282.858 89.8452 279.822 79.9608 280.19C71.6026 280.503 60.826 285.284 52.3817 296.671C52.3739 296.679 52.3739 296.671 52.3582 296.679C50.4487 299.309 48.5234 299.919 48.5234 299.919C51.0591 298.135 54.886 290.958 57.4217 285.777Z" fill="#F7B17D"/>
<path opacity="0.47" d="M88.6716 279.016C98.016 279.759 107.133 282.428 116.212 284.627C123.146 286.31 129.946 289.291 137.131 289.714C143.47 290.09 149.95 289.291 156.007 287.421C169.077 283.39 178.319 274.79 181.16 261.227C184.526 245.176 177.858 228.318 169.664 214.646C165.313 207.391 160.116 200.677 154.919 194.017C149.3 186.801 142.499 180.423 137.71 172.589C136.943 171.337 135.886 170.585 134.744 170.233L135.182 169.85C135.847 169.263 136.873 169.341 137.436 170.022L145.223 179.405C154.176 190.197 163.145 201.005 171.253 212.447C180.479 225.477 188.877 240.566 187.304 256.453C186.169 267.965 179.587 278.695 170.212 285.472C160.836 292.25 148.87 295.137 137.35 294.065C127.505 293.142 118.153 289.495 108.824 286.184C99.5029 282.874 89.8299 279.837 79.9456 280.205C76.1264 280.346 71.8064 281.434 67.4316 283.649C73.1838 279.258 82.0038 278.483 88.6716 279.016Z" fill="#F7B17D"/>
<path opacity="0.5" d="M66.7897 263.943C70.601 252.297 71.9393 242.28 69.7793 241.576C67.6193 240.871 62.7828 249.738 58.9715 261.383C55.1602 273.029 53.8219 283.046 55.9819 283.75C58.1419 284.463 62.9784 275.596 66.7897 263.943Z" fill="#92001F"/>
<path d="M206.469 118.346C206.469 118.346 246.194 112.414 252.15 121.5C258.097 130.586 262.895 174.334 262.895 174.334C262.895 174.334 269.61 266.604 283.822 265.962C298.026 265.32 288.846 197.601 301.243 182.442C301.243 182.442 335.654 218.716 338.745 218.911C338.745 218.911 325.245 222.112 317.998 244.769C311.808 264.123 304.757 309.592 276.215 297.243C249.199 285.543 250.217 185.228 250.921 159.582C251.101 152.984 250.944 146.395 250.365 139.821C249.747 132.754 248.644 125.358 246.71 124.067C239.471 119.215 206.696 121.469 206.696 121.469L206.469 118.346Z" fill="url(#paint0_linear)"/>
<g opacity="0.47">
<path d="M333.82 221.289C333.851 221.269 333.827 221.22 333.791 221.228C324.188 222.879 317.575 234.548 313.278 242.116C307.863 251.656 304.513 262.198 299.066 271.62C295.365 278.03 289.401 283.805 281.426 282.217C274.398 280.816 270.071 274.438 267.003 268.474C258.746 252.454 258.238 233.351 256.508 215.805C255.786 208.47 251.305 208.735 251.755 216.091C253.921 251.552 260.052 290.247 276.214 297.243C304.756 309.6 311.807 264.123 317.998 244.769C322.436 230.867 329.234 224.291 333.82 221.289Z" fill="url(#paint1_linear)"/>
<path opacity="0.47" d="M227.443 117.211C233.046 117.751 238.83 116.985 244.222 119.043C248.37 120.624 252.001 123.472 254.529 127.018C253.77 124.67 252.971 122.745 252.157 121.5C248.831 116.421 234.932 116.038 223.334 116.687C224.688 116.891 226.057 117.078 227.443 117.211Z" fill="#E89D07"/>
</g>
<path d="M266.183 253.722C265.275 256.046 262.653 257.197 260.321 256.289C257.997 255.381 256.846 252.759 257.754 250.427C258.662 248.103 261.283 246.952 263.616 247.86C265.948 248.768 267.09 251.39 266.183 253.722Z" fill="#D95B5B"/>
<path d="M262.526 231.253C261.798 233.116 259.701 234.039 257.831 233.311C255.968 232.584 255.044 230.486 255.772 228.616C256.5 226.753 258.597 225.83 260.468 226.557C262.338 227.285 263.254 229.391 262.526 231.253Z" fill="#D95B5B"/>
<path d="M304.601 243.783C303.693 246.107 301.071 247.258 298.739 246.35C296.414 245.442 295.264 242.82 296.172 240.488C297.08 238.156 299.701 237.013 302.034 237.921C304.358 238.837 305.508 241.458 304.601 243.783Z" fill="#D95B5B"/>
<path d="M300.187 258.433C299.279 260.757 296.657 261.908 294.325 261C292 260.092 290.85 257.471 291.758 255.138C292.666 252.814 295.287 251.664 297.62 252.571C299.944 253.487 301.094 256.109 300.187 258.433Z" fill="#D95B5B"/>
<path d="M302.977 243.955L298.997 257.173C298.878 257.568 299.102 257.985 299.497 258.104C299.892 258.223 300.309 257.999 300.428 257.604L304.408 244.386C304.527 243.99 304.303 243.574 303.908 243.455C303.513 243.336 303.096 243.559 302.977 243.955Z" fill="#D95B5B"/>
<path d="M339.237 218.529C342.862 214.783 337.367 203.586 326.964 193.52C316.56 183.454 305.188 178.331 301.563 182.077C297.939 185.823 303.434 197.02 313.837 207.086C324.24 217.152 335.612 222.276 339.237 218.529Z" fill="url(#paint2_linear)"/>
<path d="M326.422 212.912C328.231 211.042 325.483 205.448 320.283 200.416C315.082 195.385 309.4 192.822 307.591 194.692C305.781 196.562 308.53 202.157 313.73 207.188C318.93 212.22 324.612 214.783 326.422 212.912Z" fill="#D95B5B"/>
<path d="M270.25 217.088C269.843 218.137 268.654 218.661 267.605 218.246C266.556 217.831 266.032 216.65 266.447 215.601C266.854 214.552 268.043 214.028 269.092 214.443C270.141 214.85 270.665 216.039 270.25 217.088Z" fill="#D95B5B"/>
<path d="M269.571 211.046C269.164 212.095 267.974 212.619 266.925 212.204C265.877 211.797 265.352 210.608 265.767 209.559C266.182 208.511 267.364 207.986 268.412 208.401C269.461 208.808 269.978 209.99 269.571 211.046Z" fill="#D95B5B"/>
<path d="M269.069 205.075C268.662 206.124 267.472 206.648 266.424 206.233C265.375 205.818 264.85 204.637 265.265 203.588C265.672 202.539 266.862 202.015 267.91 202.43C268.959 202.837 269.476 204.018 269.069 205.075Z" fill="#D95B5B"/>
<path d="M267.473 189.611C267.066 190.659 265.877 191.184 264.828 190.769C263.779 190.362 263.255 189.172 263.67 188.124C264.077 187.075 265.266 186.551 266.315 186.965C267.364 187.372 267.88 188.562 267.473 189.611Z" fill="#D95B5B"/>
<path d="M268.012 196.529C267.605 197.577 266.416 198.102 265.367 197.687C264.318 197.28 263.794 196.091 264.209 195.042C264.616 193.993 265.805 193.469 266.854 193.884C267.903 194.291 268.419 195.48 268.012 196.529Z" fill="#D95B5B"/>
<path d="M266.713 183.71C266.306 184.758 265.117 185.283 264.068 184.868C263.019 184.461 262.495 183.271 262.91 182.223C263.325 181.174 264.506 180.65 265.555 181.064C266.604 181.471 267.128 182.653 266.713 183.71Z" fill="#D95B5B"/>
<path d="M264.6 163.753C264.193 164.802 263.003 165.326 261.955 164.911C260.906 164.504 260.382 163.315 260.797 162.266C261.211 161.217 262.393 160.693 263.442 161.108C264.49 161.523 265.015 162.704 264.6 163.753Z" fill="#D95B5B"/>
<path d="M265.289 169.576C264.882 170.624 263.693 171.149 262.644 170.734C261.596 170.327 261.071 169.138 261.486 168.089C261.893 167.04 263.082 166.516 264.131 166.931C265.18 167.338 265.704 168.527 265.289 169.576Z" fill="#D95B5B"/>
<path d="M258.478 162.676L256.99 162.82L262.333 218.044L263.821 217.9L258.478 162.676Z" fill="#D95B5B"/>
<path d="M267.934 216.058L262.996 216.459L263.116 217.941L268.054 217.54L267.934 216.058Z" fill="#D95B5B"/>
<path d="M267.215 209.899L262.277 210.299L262.398 211.781L267.335 211.381L267.215 209.899Z" fill="#D95B5B"/>
<path d="M266.807 203.733L261.869 204.134L261.989 205.616L266.927 205.215L266.807 203.733Z" fill="#D95B5B"/>
<path d="M266.148 195.296L261.217 195.688L261.335 197.178L266.266 196.786L266.148 195.296Z" fill="#D95B5B"/>
<path d="M265.893 188.267L260.955 188.668L261.075 190.15L266.013 189.749L265.893 188.267Z" fill="#D95B5B"/>
<path d="M264.921 182.305L259.99 182.696L260.108 184.186L265.039 183.795L264.921 182.305Z" fill="#D95B5B"/>
<path d="M263.488 168.141L258.559 168.541L258.679 170.023L263.609 169.623L263.488 168.141Z" fill="#D95B5B"/>
<path d="M262.807 162.325L257.869 162.725L257.989 164.208L262.927 163.807L262.807 162.325Z" fill="#D95B5B"/>
<path d="M256.517 243.008C255.774 241.028 254.029 239.525 251.931 239.251C248.308 238.774 242.532 236.207 240.497 225.141C238.47 214.083 242.344 209.019 245.162 206.875C246.774 205.646 247.502 203.588 247.181 201.592C246.093 194.776 244.074 181.205 235.16 173.246C218.6 158.455 214.405 163.08 211.04 153.939C210.852 153.423 210.069 153.603 210.109 154.15L210.516 159.331L206.485 159.644L206.078 154.464C206.031 153.908 205.233 153.853 205.131 154.401C203.237 163.949 198.369 160.044 184.322 177.23C176.754 186.488 176.879 200.199 176.871 207.102C176.863 209.129 177.904 211.046 179.689 212.001C182.803 213.684 187.421 218.074 187.147 229.312C186.865 240.566 181.567 243.994 178.061 245.035C176.034 245.637 174.547 247.39 174.116 249.464C162.299 306.509 202.22 309.35 214.624 308.888C216.847 308.81 218.193 308.622 218.193 308.622V308.606L222.223 308.293V308.301C222.216 308.324 280.778 307.276 256.517 243.008Z" fill="#DD0130"/>
<path opacity="0.47" d="M219.789 213.488C219.601 203.979 223.139 192.123 219.155 183.209C216.017 176.181 209.036 170.945 204.16 165.131C202.814 163.526 202.313 161.875 202.415 160.333C199.441 163.518 194.112 165.248 184.313 177.237C178.522 184.328 177.239 194.024 176.949 201.279C179.532 198.603 183.758 197.523 187.428 200.606C201.812 212.69 217.543 232.364 204.364 251.382C197.414 261.415 184.188 265.492 172.112 264.037C171.987 266.126 171.948 268.13 171.987 270.031C179.594 282.569 189.619 291.037 205.569 288.775C221.675 286.49 230.033 275.971 229.72 259.904C229.407 243.642 220.118 229.899 219.789 213.488Z" fill="#AF1E1E"/>
<path opacity="0.47" d="M191.326 242.859C196.953 235.252 192.211 227.129 186.145 220.641C186.826 222.95 187.225 225.798 187.132 229.328C186.85 240.582 181.552 244.01 178.045 245.05C176.308 245.567 174.97 246.929 174.352 248.611C180.636 249.331 187.734 247.711 191.326 242.859Z" fill="#AF1E1E"/>
<path d="M256.518 243.008C255.775 241.028 254.029 239.525 251.932 239.251C248.309 238.774 242.533 236.207 240.498 225.141C238.471 214.083 242.345 209.019 245.162 206.875C246.775 205.646 247.502 203.588 247.182 201.592C246.094 194.776 244.075 181.205 235.161 173.246C231.271 169.771 228.07 167.384 225.394 165.616C229.925 170.781 233.885 176.197 235.466 183.491C238.009 195.175 234.355 207.282 235.771 219.138C236.976 229.226 242.314 238.085 244.161 248.079C245.804 256.977 245.89 266.572 243.48 275.345C238.283 294.277 221.301 303.48 202.589 304.764C198.049 305.077 193.808 304.654 189.816 303.684C198.981 308.661 209.303 309.084 214.602 308.888C216.824 308.81 218.17 308.622 218.17 308.622V308.606L222.201 308.293V308.301C222.216 308.324 280.779 307.276 256.518 243.008Z" fill="#92001F"/>
<path d="M225.713 219.084C225.924 220.07 226.949 220.265 227.396 220.265C227.842 220.265 228.429 219.569 227.904 218.872C227.372 218.176 227.983 218.066 227.983 218.066C229.955 218.129 231.309 222.277 231.058 227.95C230.847 232.857 234.635 245.418 234.635 245.418C235.206 247.547 236.873 249.214 238.509 249.104C240.136 248.995 240.457 248.009 240.457 248.009C240.457 248.009 240.872 247.39 240.528 246.357C240.246 245.528 238.861 245.176 238.289 245.622C237.718 246.068 237.757 246.467 237.757 246.467C237.116 246.318 236.693 245.41 236.411 244.362V244.338C236.004 242.828 235.887 241.036 235.832 240.785C235.801 240.629 235.073 234.689 235.073 234.689C234.682 232.004 234.087 228.037 233.774 226.409C233.281 223.834 231.794 218.692 229.063 217.362C226.331 216.039 225.502 218.097 225.713 219.084Z" fill="black"/>
<path d="M189.603 252.509C189.658 251.507 190.636 251.147 191.083 251.077C191.529 251.006 192.21 251.601 191.803 252.376C191.388 253.143 192.006 253.158 192.006 253.158C193.947 252.79 194.628 248.478 193.501 242.914C192.523 238.093 194.307 225.102 194.307 225.102C194.542 222.91 195.927 221.001 197.555 220.852C199.183 220.704 199.652 221.635 199.652 221.635C199.652 221.635 200.161 222.183 199.981 223.255C199.832 224.124 198.517 224.679 197.883 224.327C197.25 223.975 197.226 223.576 197.226 223.576C196.616 223.826 196.342 224.789 196.224 225.861V225.884C196.06 227.442 196.224 229.226 196.209 229.484C196.201 229.649 196.412 235.628 196.412 235.628C196.443 238.344 196.475 242.35 196.428 244.01C196.342 246.631 195.676 251.945 193.188 253.675C190.683 255.42 189.549 253.51 189.603 252.509Z" fill="black"/>
<path d="M225.173 235.354L225.306 237.029C225.346 237.49 224.993 237.897 224.532 237.937L204.52 239.51C204.059 239.549 203.652 239.197 203.613 238.735L203.48 237.06C203.44 236.598 203.793 236.191 204.254 236.152L224.266 234.579C224.727 234.548 225.134 234.892 225.173 235.354Z" fill="black"/>
<path d="M206.572 212.032L217.544 211.171C218.6 211.085 219.383 210.162 219.281 209.105L207.832 84.1148C207.738 83.0818 206.83 82.3148 205.797 82.3931L200.123 82.8392C199.098 82.9174 198.323 83.8018 198.378 84.827L204.537 210.232C204.584 211.304 205.507 212.118 206.572 212.032Z" fill="black"/>
<g opacity="0.41">
<g opacity="0.41">
<path opacity="0.41" d="M209.709 263.395L207.119 237.827L199.535 95.4626L200.701 95.4L208.293 237.741L210.875 263.277L209.709 263.395Z" fill="white"/>
</g>
<g opacity="0.41">
<path opacity="0.41" d="M203.183 95.1901L202.012 95.2728L214.468 271.513L215.639 271.43L203.183 95.1901Z" fill="white"/>
</g>
<g opacity="0.41">
<path opacity="0.41" d="M206.474 94.926L205.303 95.0089L217.776 271.249L218.947 271.166L206.474 94.926Z" fill="white"/>
</g>
<g opacity="0.41">
<path opacity="0.41" d="M221.807 270.07L220.641 270.094L219.851 236.778L207.893 96.0887L209.059 95.9948L221.025 236.716L221.807 270.07Z" fill="white"/>
</g>
</g>
<path d="M209.945 272.27L214.148 284.799C214.562 286.028 214.821 287.304 214.922 288.595L214.938 288.751L216.511 308.802L222.741 308.317L221.136 288C221.042 286.787 221.105 285.558 221.324 284.361L223.688 271.557C223.962 270.063 224.04 268.544 223.922 267.034L223.703 264.201C223.609 263.043 222.6 262.174 221.442 262.268L219.133 262.448L212.903 262.933L210.54 263.121C209.562 263.199 208.834 264.052 208.912 265.03L209.194 268.568C209.288 269.828 209.546 271.072 209.945 272.27Z" fill="black"/>
<path d="M279.822 123.793L265.046 109.761C264.546 109.284 264.233 108.634 264.178 107.938L264.162 107.703C255.538 106.521 220.086 100.151 184.931 73.3384L160.592 74.3871C157.939 74.5045 156.859 77.9166 159.011 79.4819C204.206 112.304 256.641 124.764 277.388 128.638C280.151 129.154 281.873 125.734 279.822 123.793Z" fill="#201F20"/>
<path d="M263.402 98.4288L261.626 76.7583C261.532 75.6157 260.773 74.6766 259.685 74.3244C243.994 69.1905 224.468 55.6905 218.731 51.5896C217.722 50.8696 216.391 50.9009 215.405 51.6444L195.863 66.3575C206.053 73.0566 235.612 91.5027 263.402 98.4288Z" fill="#201F20"/>
<path d="M264.163 107.71L263.404 98.4287C235.621 91.5105 206.054 73.0644 195.865 66.3574L187.381 72.7435C186.927 73.0879 186.372 73.2835 185.8 73.307L184.939 73.3461C220.086 100.158 255.539 106.529 264.163 107.71Z" fill="#F7B17D"/>
<path d="M153.148 60.5583C153.219 61.5444 152.202 62.4131 150.879 62.507C149.556 62.6009 148.429 61.8731 148.367 60.887C148.296 59.9009 149.314 59.0322 150.636 58.9383C151.951 58.8444 153.078 59.5722 153.148 60.5583Z" fill="#201F20"/>
<path d="M153.14 60.5192C153.187 60.1435 153.234 59.7678 153.281 59.3922C153.39 58.5 153.5 57.6 153.609 56.7078C153.742 55.6278 153.875 54.5478 154.008 53.4678C154.126 52.5287 154.243 51.5896 154.353 50.6505C154.392 50.3452 154.431 50.0322 154.47 49.727C154.486 49.5783 154.509 49.4374 154.525 49.2887C154.525 49.2809 154.525 49.2731 154.525 49.2731C154.486 49.3357 154.447 49.3905 154.407 49.4531C154.423 49.4452 154.431 49.4374 154.447 49.4296C154.478 49.4061 154.368 49.4687 154.407 49.4531C154.415 49.4531 154.423 49.4452 154.431 49.4452C154.454 49.4374 154.47 49.4218 154.494 49.4139C154.627 49.3592 154.76 49.3122 154.893 49.2809C154.908 49.2731 154.94 49.2652 154.963 49.2652C154.963 49.2652 154.901 49.2809 154.932 49.2731C154.947 49.2731 154.955 49.2652 154.971 49.2652C155.018 49.2574 155.073 49.2496 155.127 49.2418C155.237 49.2261 155.347 49.2183 155.456 49.2183C155.487 49.2183 155.519 49.2183 155.55 49.2183C155.558 49.2183 155.574 49.2183 155.581 49.2183C155.589 49.2183 155.644 49.2183 155.605 49.2183C155.574 49.2183 155.652 49.2261 155.667 49.2261C155.707 49.2261 155.746 49.2339 155.777 49.2418C155.918 49.2574 156.051 49.2887 156.184 49.3278C156.223 49.3357 156.254 49.3513 156.294 49.3592C156.294 49.3592 156.341 49.3748 156.317 49.367C156.286 49.3592 156.348 49.3748 156.356 49.3826C156.434 49.4139 156.513 49.4452 156.583 49.4765C156.74 49.547 156.896 49.6409 157.045 49.727C157.334 49.8992 157.632 50.0478 157.937 50.1731C158.438 50.3765 158.962 50.5331 159.502 50.627C159.768 50.6739 160.042 50.7131 160.316 50.7131C160.465 50.7131 160.598 50.5565 160.582 50.4078C160.567 50.2435 160.441 50.1418 160.277 50.1418C160.261 50.1418 160.246 50.1418 160.23 50.1418C160.214 50.1418 160.199 50.1418 160.183 50.1418C160.128 50.1418 160.261 50.1496 160.214 50.1418C160.199 50.1418 160.183 50.1418 160.167 50.1418C160.019 50.1261 159.862 50.1105 159.714 50.087C159.487 50.0478 159.26 50.0009 159.041 49.9461C158.907 49.9148 158.774 49.8757 158.649 49.8287C158.618 49.8209 158.587 49.8052 158.555 49.7974C158.501 49.7818 158.532 49.7896 158.547 49.7974C158.532 49.7896 158.508 49.7818 158.493 49.7818C158.422 49.7583 158.344 49.727 158.274 49.6957C157.968 49.5705 157.671 49.4296 157.381 49.2652C157.225 49.1713 157.068 49.0774 156.904 48.9992C156.747 48.9209 156.583 48.8583 156.419 48.8035C155.934 48.647 155.401 48.6 154.901 48.6939C154.627 48.7487 154.337 48.8192 154.102 48.9678C153.985 49.0383 153.969 49.1322 153.961 49.2418C153.922 49.547 153.891 49.8444 153.852 50.1496C153.781 50.6974 153.719 51.2452 153.648 51.7852C153.562 52.4739 153.476 53.1626 153.39 53.8513C153.296 54.587 153.21 55.3148 153.116 56.0505C153.03 56.7235 152.952 57.3887 152.866 58.0618C152.803 58.5783 152.741 59.0948 152.678 59.6035C152.647 59.8618 152.615 60.1122 152.584 60.3705C152.584 60.3783 152.584 60.3939 152.576 60.4018C152.561 60.5505 152.639 60.7148 152.795 60.7383C152.944 60.7618 153.124 60.6757 153.14 60.5192Z" fill="#201F20"/>
<path d="M154.119 51.7695C154.126 51.7617 154.134 51.7539 154.142 51.7539C154.15 51.7461 154.166 51.7382 154.173 51.7382C154.181 51.7382 154.189 51.7304 154.197 51.7304C154.244 51.6991 154.142 51.7539 154.166 51.7461C154.267 51.6991 154.369 51.66 154.479 51.6287C154.494 51.6208 154.51 51.6208 154.526 51.613C154.541 51.613 154.604 51.5974 154.549 51.6052C154.494 51.613 154.565 51.6052 154.573 51.5974C154.596 51.5974 154.62 51.5895 154.635 51.5895C154.729 51.5739 154.823 51.5739 154.917 51.5661C154.964 51.5661 155.011 51.5661 155.058 51.5661C155.073 51.5661 155.113 51.5739 155.05 51.5661C155.058 51.5661 155.073 51.5661 155.081 51.5661C155.113 51.5661 155.152 51.5739 155.183 51.5739C155.3 51.5895 155.418 51.613 155.535 51.6443C155.598 51.66 155.668 51.6834 155.731 51.6991C155.692 51.6834 155.762 51.7069 155.77 51.7148C155.809 51.7304 155.856 51.7461 155.895 51.7617C156.044 51.8243 156.185 51.8948 156.326 51.973C156.607 52.1295 156.889 52.2782 157.186 52.4034C157.601 52.5834 158.032 52.7321 158.47 52.8261C158.666 52.8652 158.869 52.8965 159.065 52.8965C159.213 52.8965 159.346 52.74 159.331 52.5913C159.315 52.4269 159.19 52.3252 159.026 52.3252C159.018 52.3252 159.01 52.3252 158.994 52.3252C158.986 52.3252 158.971 52.3252 158.963 52.3252C158.924 52.3252 159.049 52.333 159.01 52.3252C159.002 52.3252 158.994 52.3252 158.979 52.3252C158.869 52.3174 158.76 52.3017 158.65 52.2782C158.478 52.2469 158.306 52.2 158.133 52.153C158.079 52.1374 158.032 52.1217 157.977 52.1061C157.961 52.0982 157.891 52.0747 157.946 52.0982C157.914 52.0904 157.883 52.0747 157.852 52.0669C157.726 52.02 157.601 51.973 157.484 51.9182C156.889 51.6678 156.357 51.2921 155.731 51.1121C155.285 50.9791 154.823 50.9556 154.369 51.0495C154.166 51.0965 153.946 51.1669 153.782 51.2843C153.657 51.3704 153.61 51.5582 153.704 51.6834C153.813 51.8165 153.986 51.8634 154.119 51.7695Z" fill="#201F20"/>
<path d="M74.9278 64.0722C74.9982 65.0583 73.9808 65.927 72.6582 66.0209C71.3356 66.1148 70.2086 65.387 70.146 64.4009C70.0756 63.4148 71.093 62.5461 72.4156 62.4522C73.7382 62.3661 74.8573 63.0861 74.9278 64.0722Z" fill="#201F20"/>
<path d="M74.9189 64.0409C74.9659 63.6652 75.0128 63.2896 75.0598 62.9139C75.1694 62.0217 75.2789 61.1217 75.3885 60.2296C75.5215 59.1496 75.6546 58.0696 75.7876 56.9896C75.905 56.0504 76.0224 55.1113 76.132 54.1722C76.1711 53.867 76.2102 53.5539 76.2494 53.2487C76.265 53.1 76.2885 52.9591 76.3041 52.8104C76.3041 52.8026 76.3041 52.7948 76.3041 52.7948C76.265 52.8574 76.2259 52.9122 76.1868 52.9748C76.2024 52.967 76.2102 52.9591 76.2259 52.9513C76.2572 52.9278 76.1476 52.9904 76.1868 52.9748C76.1946 52.9748 76.2024 52.967 76.2102 52.967C76.2337 52.9591 76.2494 52.9435 76.2728 52.9357C76.4059 52.8809 76.5389 52.8339 76.672 52.8026C76.6876 52.7948 76.7189 52.787 76.7424 52.787C76.7424 52.787 76.6798 52.8026 76.7111 52.7948C76.7268 52.7948 76.7346 52.787 76.7502 52.787C76.7972 52.7791 76.852 52.7713 76.9068 52.7635C77.0163 52.7478 77.1259 52.74 77.2355 52.74C77.2668 52.74 77.2981 52.74 77.3294 52.74C77.3372 52.74 77.3528 52.74 77.3685 52.74C77.3763 52.74 77.4311 52.74 77.392 52.74C77.3607 52.74 77.4389 52.7478 77.4546 52.7478C77.4937 52.7478 77.5328 52.7557 77.5641 52.7635C77.705 52.7791 77.8381 52.8104 77.9711 52.8496C78.0102 52.8574 78.0415 52.8731 78.0807 52.8809C78.0807 52.8809 78.1276 52.8965 78.1042 52.8887C78.0728 52.8809 78.1355 52.8965 78.1433 52.9044C78.2215 52.9357 78.2998 52.967 78.3702 52.9983C78.5268 53.0687 78.6833 53.1626 78.832 53.2487C79.1215 53.4209 79.4189 53.5696 79.7242 53.6948C80.225 53.8983 80.7572 54.0548 81.2894 54.1487C81.5555 54.1957 81.8294 54.2348 82.1033 54.2348C82.252 54.2348 82.385 54.0783 82.3694 53.9296C82.3537 53.7652 82.2285 53.6635 82.0641 53.6635C82.0485 53.6635 82.0328 53.6635 82.0172 53.6635C82.0015 53.6635 81.9859 53.6635 81.9702 53.6635C81.9155 53.6635 82.0485 53.6713 82.0015 53.6635C81.9859 53.6635 81.9702 53.6635 81.9546 53.6635C81.8059 53.6478 81.6494 53.6322 81.5007 53.6087C81.2737 53.5696 81.0468 53.5226 80.8276 53.4678C80.6946 53.4365 80.5615 53.3974 80.4363 53.3504C80.405 53.3426 80.3737 53.327 80.3424 53.3191C80.2876 53.3035 80.3189 53.3113 80.3346 53.3191C80.3189 53.3113 80.2955 53.3035 80.2798 53.3035C80.2094 53.28 80.1311 53.2487 80.0607 53.2174C79.7555 53.0922 79.4581 52.9513 79.1685 52.787C79.012 52.6931 78.8555 52.5991 78.6911 52.5209C78.5346 52.4426 78.3702 52.38 78.2059 52.3252C77.7207 52.1687 77.1885 52.1218 76.6876 52.2157C76.4137 52.2704 76.1242 52.3409 75.8894 52.4896C75.772 52.56 75.7563 52.6539 75.7485 52.7635C75.7094 53.0687 75.6781 53.3661 75.6389 53.6713C75.5685 54.2191 75.5059 54.767 75.4355 55.307C75.3494 55.9957 75.2633 56.6844 75.1772 57.3731C75.0911 58.1087 74.9972 58.8365 74.9111 59.5722C74.825 60.2452 74.7468 60.9104 74.6607 61.5835C74.5981 62.1 74.5355 62.6165 74.4728 63.1252C74.4415 63.3835 74.4102 63.6339 74.3789 63.8922C74.3789 63.9 74.3789 63.9157 74.3711 63.9235C74.3555 64.0722 74.4337 64.2365 74.5902 64.26C74.7233 64.2835 74.9033 64.1974 74.9189 64.0409Z" fill="#201F20"/>
<path d="M75.8979 55.2913C75.9058 55.2834 75.9136 55.2756 75.9214 55.2756C75.9292 55.2678 75.9449 55.26 75.9527 55.26C75.9605 55.26 75.9684 55.2521 75.9762 55.2521C76.0231 55.2208 75.9214 55.2756 75.9449 55.2678C76.0466 55.2208 76.1484 55.1817 76.2579 55.1504C76.2736 55.1426 76.2892 55.1426 76.3049 55.1347C76.3205 55.1347 76.3831 55.1191 76.3284 55.1269C76.2736 55.1347 76.344 55.1269 76.3518 55.1191C76.3753 55.1191 76.3988 55.1113 76.4223 55.1113C76.5162 55.0956 76.6101 55.0956 76.704 55.0878C76.751 55.0878 76.7979 55.0878 76.8527 55.0878C76.8684 55.0878 76.9075 55.0956 76.8449 55.0878C76.8527 55.0878 76.8684 55.0878 76.8762 55.0878C76.9075 55.0878 76.9466 55.0956 76.9779 55.0956C77.0953 55.1113 77.2127 55.1347 77.3301 55.166C77.3927 55.1817 77.4631 55.2052 77.5257 55.2208C77.4866 55.2052 77.5571 55.2287 77.5649 55.2365C77.604 55.2521 77.651 55.2678 77.6901 55.2834C77.8388 55.346 77.9797 55.4165 78.1205 55.4947C78.4023 55.6513 78.684 55.8 78.9814 55.9252C79.3962 56.1052 79.8266 56.2539 80.2649 56.3478C80.4605 56.3869 80.664 56.4182 80.8597 56.4182C81.0084 56.4182 81.1414 56.2617 81.1258 56.113C81.1101 55.9487 80.9849 55.8469 80.8205 55.8469C80.8127 55.8469 80.8049 55.8469 80.7892 55.8469C80.7814 55.8469 80.7657 55.8469 80.7579 55.8469C80.7188 55.8469 80.844 55.8547 80.8049 55.8469C80.7971 55.8469 80.7892 55.8469 80.7736 55.8469C80.664 55.8391 80.5544 55.8234 80.4449 55.8C80.2727 55.7687 80.1005 55.7217 79.9284 55.6747C79.8736 55.6591 79.8266 55.6434 79.7718 55.6278C79.7562 55.62 79.6857 55.5965 79.7405 55.62C79.7092 55.6121 79.6779 55.5965 79.6466 55.5887C79.5214 55.5417 79.3962 55.4947 79.2788 55.44C78.684 55.1895 78.144 54.8139 77.5257 54.6339C77.0797 54.5008 76.6179 54.4773 76.164 54.5713C75.9605 54.6182 75.7414 54.6887 75.5771 54.806C75.4518 54.8921 75.4049 55.08 75.4988 55.2052C75.5927 55.3382 75.7649 55.3852 75.8979 55.2913Z" fill="#201F20"/>
<path d="M108.173 54.5791C107.617 52.8965 105.872 51.8713 104.135 51.5113C101.983 51.0652 99.6112 51.4722 97.8895 52.8417C96.1677 54.2113 95.2208 56.5748 95.7686 58.7035C96.1599 60.2139 97.2634 61.4974 98.6408 62.2252C100.018 62.953 101.654 63.1487 103.188 62.8904C104.096 62.7417 104.98 62.4287 105.763 61.9435C107.915 60.5896 109.042 57.7878 108.423 55.3226" fill="#201F20"/>
<path d="M123.427 66.6078C122.871 64.9252 121.126 63.9 119.389 63.54C117.236 63.0939 114.865 63.5009 113.143 64.8704C111.422 66.24 110.475 68.6035 111.023 70.7322C111.414 72.2426 112.517 73.5261 113.895 74.2539C115.272 74.9817 116.908 75.1774 118.442 74.9191C119.349 74.7704 120.234 74.4574 121.016 73.9722C123.169 72.6182 124.296 69.8165 123.677 67.3513" fill="#201F20"/>
<path d="M108.26 58.3435C109.974 54.4696 111.695 50.5957 113.409 46.7218C115.115 42.8713 116.829 39.0287 118.527 35.1783C119.341 33.3235 120.14 31.4687 120.875 29.5748C121.243 28.6278 121.595 27.6731 121.924 26.7026C122.002 26.4678 122.08 26.2331 122.159 25.9983C122.174 25.9513 122.19 25.9044 122.206 25.8652C122.253 25.7322 122.08 26.0765 122.167 25.967C122.19 25.9357 122.214 25.8965 122.229 25.8652C122.331 25.6931 122.221 25.9044 122.159 25.9435C122.198 25.92 122.276 25.7791 122.331 25.787C122.347 25.787 122.049 25.9591 122.221 25.8652C122.253 25.8496 122.284 25.8261 122.323 25.8105C122.354 25.7948 122.401 25.7791 122.425 25.7635C122.409 25.7791 122.135 25.8418 122.307 25.8105C122.362 25.8026 122.652 25.7478 122.44 25.7713C122.221 25.7948 122.503 25.787 122.55 25.787C122.683 25.7791 122.3 25.7244 122.425 25.7635C122.464 25.7713 122.503 25.7791 122.534 25.7948C122.574 25.8026 122.605 25.8261 122.644 25.8339C122.777 25.8731 122.425 25.6931 122.527 25.787C122.55 25.8026 122.581 25.8183 122.605 25.8339C122.746 25.92 122.683 25.9591 122.558 25.7791C122.62 25.8652 122.714 25.9435 122.785 26.0296C122.84 26.1078 122.902 26.1861 122.957 26.2644C123.239 26.6478 123.52 27.0391 123.81 27.4226C124.843 28.8391 125.884 30.2557 126.917 31.6644C128.146 33.3391 129.374 35.0218 130.603 36.6965C131.511 37.9331 132.411 39.1696 133.319 40.4061C133.491 40.6409 133.671 40.8835 133.843 41.1183C133.843 41.1261 133.851 41.1261 133.851 41.1339C133.882 41.1731 133.921 41.22 133.945 41.267C133.796 40.9852 133.914 41.22 133.945 41.2826C133.968 41.3218 134.062 41.5565 134.094 41.5644C134.062 41.5565 134.031 41.2983 134.07 41.5096C134.078 41.5409 134.094 41.6583 134.101 41.6661C134.078 41.6348 134.109 41.4 134.086 41.5878C134.078 41.6191 134.07 41.7052 134.078 41.7287C134.07 41.6974 134.148 41.4704 134.086 41.6504C134.07 41.7052 134.054 41.7678 134.031 41.8226C134.015 41.8696 133.992 41.9165 133.976 41.9635C133.929 42.1044 134.078 41.76 134.007 41.8931C133.968 41.9713 133.929 42.0496 133.89 42.1278C133.765 42.3548 133.64 42.5818 133.514 42.8087C133.264 43.2548 133.021 43.7009 132.779 44.1391C130.83 47.6922 128.991 51.2922 127.246 54.947C125.469 58.68 123.787 62.46 122.221 66.2791C121.846 67.187 121.478 68.1026 121.118 69.0183C120.891 69.5817 121.321 70.3174 121.893 70.4661C122.542 70.6304 123.098 70.3017 123.34 69.6913C124.1 67.7739 124.882 65.8644 125.688 63.9704C126.103 63.0078 126.518 62.0452 126.94 61.0904C127.042 60.8635 127.144 60.6444 127.246 60.4174C127.293 60.3078 127.347 60.1904 127.394 60.0809C127.418 60.0339 127.488 59.8774 127.387 60.1044C127.418 60.0339 127.449 59.9635 127.48 59.8931C127.692 59.4313 127.903 58.9696 128.114 58.5078C129.852 54.7513 131.699 51.0418 133.647 47.387C134.133 46.4791 134.626 45.5713 135.127 44.6713C135.627 43.7635 136.285 42.84 136.394 41.7913C136.488 40.8209 135.894 40.0539 135.361 39.3183C134.594 38.2696 133.827 37.2287 133.068 36.18C131.847 34.5052 130.619 32.8383 129.398 31.1635C128.263 29.6139 127.128 28.0644 125.994 26.5226C125.485 25.8261 124.984 25.1218 124.467 24.4331C123.88 23.6661 122.863 23.3531 121.94 23.5174C121.478 23.6035 121.016 23.8383 120.672 24.1591C120.257 24.5426 120.046 25.0278 119.874 25.5522C119.224 27.5165 118.473 29.4418 117.674 31.3513C116.047 35.2565 114.278 39.0991 112.564 42.9652C110.819 46.8939 109.074 50.8304 107.336 54.7591C106.906 55.7296 106.475 56.6922 106.045 57.6626C105.935 57.9131 106.006 58.3044 106.123 58.5313C106.256 58.7896 106.53 59.0322 106.82 59.1104C107.101 59.1809 107.43 59.1809 107.688 59.0322C107.97 58.8678 108.127 58.6487 108.26 58.3435Z" fill="#201F20"/>
<path d="M118.803 31.2593L117.627 32.1564L130.538 49.0816L131.714 48.1845L118.803 31.2593Z" fill="#201F20"/>
<path d="M78.8878 123.691C78.3322 122.009 76.5869 120.983 74.8496 120.623C72.6974 120.177 70.3261 120.584 68.6043 121.954C66.8826 123.323 65.9356 125.687 66.4835 127.816C66.8748 129.326 67.9782 130.61 69.3556 131.337C70.733 132.065 72.3687 132.261 73.9026 132.003C74.8104 131.854 75.6948 131.541 76.4774 131.056C78.6296 129.702 79.7565 126.9 79.1383 124.435" fill="#201F20"/>
<path d="M94.1417 135.72C93.5861 134.038 91.8408 133.012 90.1035 132.652C87.9513 132.206 85.58 132.613 83.8582 133.983C82.1365 135.352 81.1895 137.716 81.7374 139.844C82.1287 141.355 83.2321 142.638 84.6095 143.366C85.9869 144.094 87.6226 144.29 89.1565 144.031C90.0643 143.883 90.9487 143.57 91.7313 143.084C93.8835 141.731 95.0104 138.929 94.3922 136.464" fill="#201F20"/>
<path d="M78.9745 127.456C80.6884 123.582 82.4101 119.708 84.124 115.834C85.8301 111.984 87.544 108.141 89.2423 104.29C90.0562 102.436 90.8545 100.581 91.5901 98.687C91.9579 97.74 92.3101 96.7853 92.6388 95.8148C92.7171 95.58 92.7953 95.3453 92.8736 95.1105C92.8892 95.0635 92.9049 95.0166 92.9205 94.9774C92.9675 94.8444 92.7953 95.1887 92.8814 95.0792C92.9049 95.0479 92.9284 95.0087 92.944 94.9774C93.0458 94.8053 92.9362 95.0166 92.8736 95.0557C92.9127 95.0322 92.991 94.8913 93.0458 94.8992C93.0614 94.8992 92.764 95.0713 92.9362 94.9774C92.9675 94.9618 92.9988 94.9383 93.0379 94.9227C93.0692 94.907 93.1162 94.8913 93.1397 94.8757C93.124 94.8913 92.8501 94.954 93.0223 94.9227C93.0771 94.9148 93.3666 94.86 93.1553 94.8835C92.9362 94.907 93.2179 94.8992 93.2649 94.8992C93.3979 94.8913 93.0145 94.8366 93.1397 94.8757C93.1788 94.8835 93.2179 94.8913 93.2492 94.907C93.2884 94.9148 93.3197 94.9383 93.3588 94.9461C93.4919 94.9853 93.1397 94.8053 93.2414 94.8992C93.2649 94.9148 93.2962 94.9305 93.3197 94.9461C93.4605 95.0322 93.3979 95.0713 93.2727 94.8913C93.3353 94.9774 93.4292 95.0557 93.4997 95.1418C93.5545 95.22 93.6171 95.2983 93.6719 95.3766C93.9536 95.76 94.2353 96.1513 94.5249 96.5348C95.5579 97.9513 96.5988 99.3679 97.6319 100.777C98.8605 102.451 100.089 104.134 101.318 105.809C102.226 107.045 103.126 108.282 104.034 109.518C104.206 109.753 104.386 109.996 104.558 110.23C104.558 110.238 104.566 110.238 104.566 110.246C104.597 110.285 104.636 110.332 104.66 110.379C104.511 110.097 104.628 110.332 104.66 110.395C104.683 110.434 104.777 110.669 104.808 110.677C104.777 110.669 104.746 110.41 104.785 110.622C104.793 110.653 104.808 110.77 104.816 110.778C104.793 110.747 104.824 110.512 104.801 110.7C104.793 110.731 104.785 110.817 104.793 110.841C104.785 110.81 104.863 110.583 104.801 110.763C104.785 110.817 104.769 110.88 104.746 110.935C104.73 110.982 104.707 111.029 104.691 111.076C104.644 111.217 104.793 110.872 104.722 111.005C104.683 111.084 104.644 111.162 104.605 111.24C104.48 111.467 104.354 111.694 104.229 111.921C103.979 112.367 103.736 112.813 103.494 113.251C101.545 116.804 99.7058 120.404 97.9605 124.059C96.184 127.792 94.5014 131.572 92.9362 135.391C92.5605 136.299 92.1927 137.215 91.8327 138.13C91.6058 138.694 92.0362 139.43 92.6075 139.578C93.2571 139.743 93.8127 139.414 94.0553 138.804C94.8145 136.886 95.5971 134.977 96.4032 133.083C96.8179 132.12 97.2327 131.157 97.6553 130.203C97.7571 129.976 97.8588 129.757 97.9605 129.53C98.0075 129.42 98.0623 129.303 98.1092 129.193C98.1327 129.146 98.2032 128.99 98.1014 129.217C98.1327 129.146 98.164 129.076 98.1953 129.005C98.4066 128.544 98.6179 128.082 98.8292 127.62C100.567 123.864 102.414 120.154 104.362 116.499C104.848 115.591 105.341 114.684 105.841 113.784C106.342 112.876 107 111.952 107.109 110.904C107.203 109.933 106.608 109.166 106.076 108.43C105.309 107.382 104.542 106.341 103.783 105.292C102.562 103.617 101.334 101.95 100.113 100.276C98.9779 98.7261 97.8432 97.1766 96.7084 95.627C96.1997 94.9305 95.6988 94.2261 95.1823 93.5374C94.5953 92.7705 93.5779 92.4574 92.6545 92.6218C92.1927 92.7079 91.731 92.9426 91.3866 93.2635C90.9718 93.647 90.7605 94.1322 90.5884 94.6566C89.9388 96.6209 89.1875 98.5461 88.3892 100.456C86.7614 104.361 84.9927 108.204 83.2788 112.07C81.5336 115.998 79.7884 119.935 78.051 123.864C77.6205 124.834 77.1901 125.797 76.7597 126.767C76.6501 127.017 76.7205 127.409 76.8379 127.636C76.971 127.894 77.2449 128.137 77.5345 128.215C77.8162 128.285 78.1449 128.285 78.4032 128.137C78.6927 127.98 78.8414 127.761 78.9745 127.456Z" fill="#201F20"/>
<path d="M89.5179 100.375L88.3418 101.272L101.252 118.198L102.428 117.3L89.5179 100.375Z" fill="#201F20"/>
<path d="M42.4017 79.8104C41.6738 79.6852 40.946 80.1235 40.4686 80.6948C39.8738 81.3991 39.5608 82.3539 39.7251 83.2617C39.8895 84.1696 40.5782 84.9913 41.4703 85.2026C42.1043 85.3591 42.8008 85.2026 43.3408 84.8426C43.8808 84.4748 44.2799 83.9113 44.4912 83.2931C44.6164 82.9252 44.679 82.5417 44.6556 82.1504C44.5851 81.0861 43.7712 80.1157 42.7382 79.8574" fill="#201F20"/>
<path d="M49.8684 76.5705C49.1406 76.4452 48.4128 76.8835 47.9354 77.4548C47.3406 78.1592 47.0276 79.1139 47.1919 80.0218C47.3563 80.9296 48.045 81.7513 48.9371 81.9626C49.5711 82.1192 50.2676 81.9626 50.8076 81.6026C51.3476 81.2348 51.7467 80.6713 51.958 80.0531C52.0832 79.6852 52.1458 79.3018 52.1224 78.9105C52.0519 77.8461 51.238 76.8757 50.205 76.6174" fill="#201F20"/>
<path d="M43.8109 80.5304C42.7231 79.1295 41.6352 77.7287 40.5396 76.3278C39.4596 74.9348 38.3796 73.5417 37.2918 72.1487C36.7674 71.4835 36.2431 70.8182 35.6874 70.1687C35.4135 69.8478 35.1239 69.5269 34.8344 69.2139C34.7639 69.1356 34.6935 69.0652 34.6231 68.9869C34.6074 68.9713 34.5996 68.9556 34.5839 68.94C34.5448 68.893 34.6387 69.0261 34.6152 68.9791C34.6074 68.9635 34.5996 68.9478 34.5918 68.9322C34.5448 68.8617 34.6074 68.9478 34.6074 68.9713C34.6074 68.9556 34.5683 68.893 34.5839 68.8774C34.5839 68.8695 34.5918 69.0182 34.5918 68.9322C34.5918 68.9165 34.5918 68.9008 34.5918 68.8852C34.5918 68.8695 34.5996 68.8461 34.5918 68.8382C34.5918 68.8461 34.5605 68.9635 34.5839 68.893C34.5918 68.8695 34.6309 68.7522 34.5996 68.8382C34.5683 68.9243 34.6152 68.8226 34.6231 68.7991C34.6465 68.7443 34.5526 68.8774 34.5918 68.8382C34.5996 68.8304 34.6152 68.8148 34.6231 68.7991C34.6309 68.7913 34.6465 68.7756 34.6622 68.7678C34.7013 68.7287 34.5683 68.8226 34.6231 68.7991C34.6309 68.7913 34.6465 68.7835 34.6544 68.7756C34.717 68.7443 34.717 68.7756 34.6231 68.7835C34.67 68.7756 34.717 68.76 34.7639 68.7522C34.8031 68.7443 34.8422 68.7443 34.8813 68.7365C35.077 68.7052 35.2805 68.6817 35.4761 68.6504C36.2039 68.5487 36.9318 68.4469 37.6596 68.3452C38.5205 68.2278 39.3891 68.1026 40.25 67.9852C40.8839 67.8991 41.5257 67.8052 42.1596 67.7191C42.2848 67.7035 42.4022 67.6878 42.5274 67.6643H42.5352C42.5587 67.6643 42.5822 67.6565 42.6057 67.6565C42.4726 67.6565 42.5822 67.6643 42.6135 67.6565C42.6292 67.6565 42.7387 67.6643 42.7465 67.6565C42.7387 67.6643 42.637 67.6252 42.7231 67.6565C42.7309 67.6565 42.7778 67.68 42.7857 67.6722C42.77 67.68 42.6918 67.6174 42.7544 67.6643C42.7622 67.6722 42.7935 67.6956 42.8013 67.6956C42.7857 67.6956 42.7152 67.6174 42.77 67.68C42.7857 67.6956 42.8092 67.7113 42.8248 67.7348C42.8405 67.7504 42.8483 67.7661 42.8639 67.7817C42.9109 67.8287 42.8092 67.7035 42.8405 67.7582C42.8639 67.7895 42.8796 67.8208 42.9031 67.8443C42.9657 67.9382 43.0205 68.0243 43.0752 68.1182C43.1926 68.2982 43.3022 68.4782 43.4196 68.6582C44.3431 70.0826 45.3135 71.4756 46.3152 72.8452C47.3405 74.2382 48.4048 75.6078 49.5005 76.9461C49.7665 77.2669 50.0248 77.58 50.2909 77.893C50.4552 78.0887 50.8074 78.073 50.9796 77.893C51.1674 77.6895 51.1596 77.4156 50.9796 77.2043C50.4239 76.5469 49.8683 75.8739 49.3361 75.2008C49.0622 74.8565 48.7883 74.5122 48.5222 74.1678C48.4596 74.0895 48.397 74.0035 48.3344 73.9252C48.3031 73.8861 48.2718 73.8469 48.2405 73.8C48.2248 73.7843 48.1857 73.7295 48.2483 73.8078C48.2248 73.7843 48.2092 73.753 48.1857 73.7295C48.0526 73.5574 47.9274 73.393 47.8022 73.2209C46.7613 71.8356 45.7518 70.4191 44.797 68.9713C44.5544 68.6113 44.3196 68.2513 44.0848 67.8835C43.85 67.5156 43.6387 67.093 43.2709 66.8426C42.9344 66.6156 42.5274 66.6782 42.1518 66.733C41.6118 66.8113 41.0796 66.8817 40.5396 66.96C39.6787 67.0774 38.8178 67.2026 37.957 67.32C37.1587 67.4295 36.3605 67.5391 35.57 67.6565C35.21 67.7035 34.85 67.7504 34.4978 67.8052C34.0987 67.8678 33.7778 68.1808 33.6605 68.5565C33.5978 68.7443 33.5978 68.9635 33.6448 69.1513C33.7074 69.3782 33.8405 69.5504 33.997 69.7226C34.5918 70.3487 35.1552 71.0139 35.7031 71.6869C36.8222 73.0643 37.8944 74.473 38.9822 75.8739C40.0857 77.2982 41.197 78.7226 42.3005 80.1469C42.5744 80.4991 42.8483 80.8513 43.1144 81.1956C43.1848 81.2817 43.3413 81.3365 43.4509 81.3365C43.5683 81.3365 43.717 81.2817 43.8031 81.1956C43.8892 81.1017 43.9518 80.9843 43.9439 80.8591C43.9518 80.7417 43.897 80.64 43.8109 80.5304Z" fill="#201F20"/>
<path d="M44.7156 69.8559L35.9062 71.2673L36.0041 71.8778L44.8134 70.4664L44.7156 69.8559Z" fill="#201F20"/>
<defs>
<linearGradient id="paint0_linear" x1="226.175" y1="116.609" x2="378.783" y2="380.348" gradientUnits="userSpaceOnUse">
<stop stop-color="#F69F9F"/>
<stop offset="1" stop-color="#FF7D7D"/>
</linearGradient>
<linearGradient id="paint1_linear" x1="256.746" y1="128.8" x2="256.746" y2="299.34" gradientUnits="userSpaceOnUse">
<stop stop-color="#F69F9F"/>
<stop offset="1" stop-color="#FF7D7D"/>
</linearGradient>
<linearGradient id="paint2_linear" x1="314.61" y1="191.739" x2="338.088" y2="212.087" gradientUnits="userSpaceOnUse">
<stop stop-color="#F69F9F"/>
<stop offset="1" stop-color="#FF7D7D"/>
</linearGradient>
</defs>
</svg>
