<svg width="80" height="80" viewBox="0 0 80 80" fill="none" xmlns="http://www.w3.org/2000/svg">
<path opacity="0.8" d="M67.9999 15.4463V24.7478C67.9999 25.4381 67.4859 25.9998 66.854 25.9998L58.4789 25.9964C57.847 25.9964 57.333 25.4347 57.333 24.7444V13.252C57.333 12.5617 57.847 12 58.4789 12L64.4946 12C64.5716 12 64.6439 12.0338 64.6973 12.0914L67.9166 15.2246C67.9684 15.2839 67.9999 15.3634 67.9999 15.4463Z" fill="white"/>
<rect x="60.001" y="19.8745" width="5.33344" height="6.12491" fill="#EE0033"/>
<path opacity="0.8" d="M67.9999 36.4453V45.7469C67.9999 46.4371 67.4859 46.9988 66.854 46.9988L58.4789 46.9954C57.847 46.9954 57.333 46.4337 57.333 45.7435V34.251C57.333 33.5607 57.847 32.999 58.4789 32.999H64.4946C64.5716 32.999 64.6439 33.0329 64.6973 33.0904L67.9166 36.2237C67.9684 36.2829 67.9999 36.3624 67.9999 36.4453Z" fill="white"/>
<rect x="60.001" y="40.873" width="5.33344" height="6.1249" fill="#EE0033"/>
<path opacity="0.8" d="M67.9999 57.4463V66.7478C67.9999 67.4381 67.4859 67.9998 66.854 67.9998L58.4789 67.9964C57.847 67.9964 57.333 67.4347 57.333 66.7445V55.252C57.333 54.5617 57.847 54 58.4789 54H64.4946C64.5716 54 64.6439 54.0338 64.6973 54.0914L67.9166 57.2246C67.9684 57.2839 67.9999 57.3634 67.9999 57.4463Z" fill="white"/>
<rect x="60.001" y="61.8745" width="5.33344" height="6.12489" fill="#EE0033"/>
<path d="M42.0795 67.9992H18.8802C15.3829 67.9992 12.585 65.1992 12.585 61.6993V18.2999C12.585 14.8 15.3829 12 18.8802 12H42.0795C45.5768 12 48.3747 14.8 48.3747 18.2999V61.6993C48.2582 65.1992 45.4603 67.9992 42.0795 67.9992Z" fill="#DCDCDC"/>
<path d="M42.0795 12H18.8802C15.3829 12 12.585 14.8 12.585 18.2999V61.6993C12.585 65.1992 15.3829 67.9992 18.8802 67.9992H42.0795C45.5768 67.9992 48.3747 65.1992 48.3747 61.6993V18.2999C48.2582 14.8 45.4603 12 42.0795 12ZM45.9266 61.6993C45.9266 63.9159 44.1779 65.6659 41.9629 65.6659H18.8802C16.6652 65.6659 14.9165 63.9159 14.9165 61.6993V18.2999C14.9165 16.0833 16.6652 14.3333 18.8802 14.3333H21.7947C22.3776 14.3333 23.0771 14.5666 23.4268 15.15C23.7766 15.6166 24.476 15.9666 25.0589 15.9666H35.7842C36.3671 15.9666 37.0666 15.7333 37.4163 15.15C37.8826 14.5666 38.4655 14.3333 39.0484 14.3333H41.9629C44.1779 14.3333 45.9266 16.0833 45.9266 18.2999V61.6993Z" fill="#EE0033"/>
<path d="M12.5848 31.3659H12.4683C12.2351 31.3659 12.002 31.1326 12.002 30.8992V27.3993C12.002 27.1659 12.2351 26.9326 12.4683 26.9326H12.5848V31.3659Z" fill="#92001F"/>
<path d="M12.5829 36.4992H12.4663C12.2332 36.4992 12 36.3826 12 36.1492V32.6493C12 32.4159 12.2332 32.1826 12.4663 32.1826H12.5829V36.4992Z" fill="#92001F"/>
<path d="M48.2549 27.0493H48.3715C48.6046 27.0493 48.8378 27.2826 48.8378 27.516V31.0159C48.8378 31.2493 48.6046 31.4826 48.3715 31.4826H48.2549V27.0493Z" fill="#92001F"/>
<path d="M39.8628 48.9844H24.2412V50.3844H39.8628V48.9844Z" fill="white"/>
<path d="M39.8628 52.3667H24.2412V53.7667H39.8628V52.3667Z" fill="white"/>
<path d="M32.052 55.751H24.2412V57.151H32.052V55.751Z" fill="white"/>
<path d="M22.6093 48.9844H21.0938V50.3844H22.6093V48.9844Z" fill="white"/>
<path d="M22.6093 52.3667H21.0938V53.7667H22.6093V52.3667Z" fill="white"/>
<path d="M22.6093 55.751H21.0938V57.151H22.6093V55.751Z" fill="white"/>
<path d="M57.3328 17.2497L57.3328 19.7769L53.6706 19.7769L53.6706 61.0968L57.3328 61.0968L57.3328 63.624L52.4261 63.624C51.6794 63.624 51.1816 63.1186 51.1816 62.3604L51.1816 18.5133C51.1816 17.7551 51.6794 17.2497 52.4261 17.2497L57.3328 17.2497Z" fill="#92001F"/>
<path d="M48.4434 39.1246L48.4434 41.7495L57.3324 41.7495L57.3324 39.1246L48.4434 39.1246Z" fill="#92001F"/>
<rect x="20" y="24" width="20" height="20" fill="#C4C4C4"/>
</svg>
