<svg width="62" height="62" viewBox="0 0 62 62" fill="none" xmlns="http://www.w3.org/2000/svg">
<g clip-path="url(#clip0)">
<rect width="79" height="62" fill="white"/>
<path fill-rule="evenodd" clip-rule="evenodd" d="M38.7315 42.4522C30.045 45.5231 25.4927 55.0542 28.5636 63.7406L31.842 73.0141L31.8381 73.0136L44.17 107.896C45.6004 101.305 52.0087 87.1005 66.1429 80.3628L81.6712 74.8732C90.3576 71.8024 94.9099 62.2712 91.839 53.5848L88.0009 42.7281C84.93 34.0417 75.3989 29.4894 66.7125 32.5602L38.7315 42.4522Z" fill="#049DBF"/>
<path d="M28.6508 31.734C28.6508 32 28.7488 32 28.9588 32H30.8068C31.0448 32 31.1288 32 31.1288 31.734V23.208C31.1288 22.34 30.7368 22.2 30.1348 22.2H29.2668C28.5528 22.2 28.3428 22.438 28.1048 22.928L26.9848 25.238L25.8928 27.506H25.8368L24.7448 25.21L23.6248 22.886C23.3868 22.396 23.2048 22.2 22.6028 22.2H21.5248C20.8108 22.2 20.5168 22.424 20.5168 23.306V31.734C20.5168 32 20.6288 32 20.8388 32H22.7848C23.0088 32 23.0928 32 23.0928 31.734V27.254H23.1768L23.9888 28.976L24.6188 30.236C24.8428 30.698 24.9408 30.852 25.4028 30.852H26.3408C26.7468 30.852 26.9148 30.698 27.1248 30.236L27.8528 28.682L28.5668 27.086H28.6508V31.734ZM35.8776 28.668H37.2496C40.8056 28.668 41.1136 26.246 41.1136 25.35C41.1136 23.558 39.8956 22.2 37.6976 22.2H34.1416C33.3716 22.2 33.2316 22.62 33.2316 23.124V31.72C33.2316 31.902 33.3436 32 33.5536 32H35.5416C35.8636 32 35.8776 31.944 35.8776 31.72V28.668ZM38.3836 25.532C38.3836 26.078 38.0476 26.596 37.3896 26.596H35.8776V24.482H37.3896C38.2156 24.482 38.3836 25.14 38.3836 25.532Z" fill="#049DBF"/>
<path d="M37.1777 50.28C37.0477 50.28 37.0277 50.32 37.0277 50.44V50.89C37.0277 51.02 37.0477 51.06 37.1777 51.06H40.7977L37.7677 56.79C37.6977 56.91 37.7577 57 37.8677 57H38.4777C38.6277 57 38.6777 56.95 38.7477 56.82L41.6177 51.4C41.7277 51.2 41.7777 51.06 41.7777 50.87V50.64C41.7777 50.36 41.5577 50.28 41.3277 50.28H37.1777ZM48.0661 53.63C48.0661 51.52 47.3261 50.17 45.4461 50.17C43.6561 50.17 42.8061 51.55 42.8061 53.65C42.8061 55.76 43.6561 57.11 45.4261 57.11C47.2561 57.11 48.0661 55.72 48.0661 53.63ZM47.1861 53.65C47.1861 54.95 46.8061 56.38 45.4461 56.38C44.0461 56.38 43.6961 54.95 43.6961 53.63C43.6961 52.31 44.0761 50.91 45.4261 50.91C46.8161 50.91 47.1861 52.32 47.1861 53.65ZM51.7145 53.37L53.7045 50.13C53.7445 50.06 53.7245 49.99 53.6345 49.99H52.9745C52.8245 49.99 52.7745 50.02 52.7045 50.13L51.2145 52.64L49.7045 50.13C49.6345 50.01 49.6045 49.99 49.4345 49.99H48.7445C48.6545 49.99 48.6345 50.07 48.6645 50.11L50.6645 53.39L48.5145 56.87C48.4745 56.94 48.4845 57 48.5945 57H49.2845C49.4345 57 49.4845 56.97 49.5545 56.86L51.1845 54.11L52.8145 56.86C52.8845 56.97 52.9245 57 53.0745 57H53.8045C53.8945 57 53.9145 56.92 53.8845 56.87L51.7145 53.37Z" fill="white"/>
</g>
<path d="M0 62H-1V63H0V62ZM10 1H52V-1H10V1ZM61 10V52H63V10H61ZM52 61H0V63H52V61ZM1 62V10H-1V62H1ZM61 52C61 56.9706 56.9706 61 52 61V63C58.0751 63 63 58.0751 63 52H61ZM52 1C56.9706 1 61 5.02944 61 10H63C63 3.92487 58.0751 -1 52 -1V1ZM10 -1C3.92487 -1 -1 3.92487 -1 10H1C1 5.02944 5.02944 1 10 1V-1Z" fill="#828282"/>
<defs>
<clipPath id="clip0">
<path d="M0 10C0 4.47715 4.47715 0 10 0H52C57.5228 0 62 4.47715 62 10V52C62 57.5228 57.5228 62 52 62H0V10Z" fill="white"/>
</clipPath>
</defs>
</svg>
