<svg width="62" height="62" viewBox="0 0 62 62" fill="none" xmlns="http://www.w3.org/2000/svg">
<g clip-path="url(#clip0)">
<path d="M31 25.5752C28.0163 25.5752 25.575 28.0164 25.575 31.0002C25.575 33.5228 27.311 35.6385 29.6437 36.2353C30.0776 36.3709 30.5389 36.4252 31 36.4252C31.461 36.4252 31.9223 36.3709 32.3562 36.2353C34.6889 35.6385 36.4249 33.5228 36.4249 31.0002C36.4249 28.0164 33.9836 25.5752 31 25.5752Z" fill="#EE0033"/>
<path d="M32.3563 31V36.2351C31.9224 36.3707 31.4611 36.425 31 36.425C30.539 36.425 30.0777 36.3707 29.6438 36.2351V31H32.3563Z" fill="#EE0033"/>
<path d="M32.3563 36.2344V49.9867H29.6438V36.2344C30.0777 36.37 30.539 36.4242 31 36.4242C31.4611 36.4242 31.9224 36.3699 32.3563 36.2344Z" fill="#828282"/>
<path d="M22.8625 50.9873C22.8625 50.435 23.3103 49.9873 23.8625 49.9873H38.1375C38.6898 49.9873 39.1376 50.435 39.1376 50.9873V51.6998C39.1376 52.2521 38.6898 52.6998 38.1376 52.6998H23.8625C23.3103 52.6998 22.8625 52.2521 22.8625 51.6998V50.9873Z" fill="#92001F"/>
<path d="M16.873 45.1268C17.2635 44.7363 17.2614 44.1049 16.8918 43.6945C13.86 40.3285 12.0125 35.8759 12.0125 30.9998C12.0125 20.5299 20.5301 12.0123 31 12.0123C41.47 12.0123 49.9875 20.5299 49.9875 30.9998C49.9875 35.8759 48.1401 40.3285 45.1083 43.6945C44.7387 44.1049 44.7366 44.7363 45.1271 45.1268L45.6299 45.6296C46.0204 46.0201 46.6554 46.0216 47.0277 45.6137C50.5495 41.7546 52.7001 36.6235 52.7001 30.9998C52.7001 19.0346 42.9652 9.2998 31 9.2998C19.0349 9.2998 9.30005 19.0346 9.30005 30.9998C9.30005 36.6235 11.4505 41.7546 14.9723 45.6138C15.3446 46.0217 15.9797 46.0202 16.3702 45.6297L16.873 45.1268Z" fill="#DCDCDC"/>
<path d="M24.5415 37.458C24.9321 37.0675 24.9265 36.4376 24.5863 36.0025C23.5067 34.6215 22.8626 32.8843 22.8626 30.9994C22.8626 26.5121 26.5129 22.8619 31.0001 22.8619C35.4874 22.8619 39.1376 26.5122 39.1376 30.9994C39.1376 32.8843 38.4936 34.6215 37.414 36.0025C37.0738 36.4376 37.0682 37.0675 37.4588 37.458L37.9615 37.9608C38.3521 38.3513 38.9892 38.354 39.3425 37.9295C40.9077 36.0485 41.8501 33.6319 41.8501 30.9994C41.8501 25.0168 36.9827 20.1494 31.0001 20.1494C25.0176 20.1494 20.1501 25.0168 20.1501 30.9994C20.1501 33.6319 21.0926 36.0485 22.6578 37.9295C23.0111 38.354 23.6482 38.3513 24.0388 37.9608L24.5415 37.458Z" fill="#DCDCDC"/>
<path d="M20.7075 41.2922C21.098 40.9017 21.0949 40.2708 20.734 39.8528C18.6808 37.4752 17.4376 34.3797 17.4376 30.9996C17.4376 23.5217 23.5222 17.4371 31.0001 17.4371C38.478 17.4371 44.5626 23.5217 44.5626 30.9996C44.5626 34.3797 43.3194 37.4752 41.2662 39.8528C40.9053 40.2708 40.9021 40.9017 41.2927 41.2922L41.796 41.7955C42.1865 42.186 42.8222 42.1879 43.1882 41.7744C45.7303 38.9022 47.2751 35.1281 47.2751 30.9996C47.2751 22.025 39.9747 14.7246 31.0001 14.7246C22.0255 14.7246 14.7251 22.025 14.7251 30.9996C14.7251 35.1281 16.2699 38.9022 18.812 41.7744C19.178 42.1879 19.8137 42.186 20.2042 41.7955L20.7075 41.2922Z" fill="#DCDCDC"/>
</g>
<defs>
<clipPath id="clip0">
<rect width="43.4" height="43.4" fill="white" transform="translate(9.30005 9.2998)"/>
</clipPath>
</defs>
</svg>
