<svg width="264" height="264" viewBox="0 0 264 264" fill="none" xmlns="http://www.w3.org/2000/svg">
<path d="M0 7.99999C0 3.58171 3.58172 0 8 0H256C260.418 0 264 3.58172 264 8V264H0V7.99999Z" fill="#FBFBFB"/>
<rect width="264" height="264" fill="#EE0033"/>
<g filter="url(#filter0_d)">
<path d="M38.52 114.48H38.84L40.8 106.64L43.84 95.64C43.92 95.3467 44.0667 95.16 44.28 95.08C44.4933 95 44.76 94.96 45.08 94.96H51.28C51.6 94.96 51.7733 95.0533 51.8 95.24C51.8533 95.4267 51.8533 95.5867 51.8 95.72L43.56 120.52C43.3467 121.133 43.12 121.613 42.88 121.96C42.6667 122.28 42.4133 122.52 42.12 122.68C41.8533 122.84 41.5333 122.933 41.16 122.96C40.8133 122.987 40.4133 123 39.96 123H37.08C36.6267 123 36.2267 122.973 35.88 122.92C35.5333 122.867 35.2267 122.747 34.96 122.56C34.6933 122.373 34.4533 122.12 34.24 121.8C34.0533 121.453 33.8667 121.013 33.68 120.48L25.48 95.72C25.4267 95.5067 25.4267 95.3333 25.48 95.2C25.56 95.04 25.7333 94.96 26 94.96H32.04C32.4933 94.96 32.7867 95.04 32.92 95.2C33.08 95.3333 33.2133 95.5467 33.32 95.84L36.44 106.56L38.52 114.48ZM63.5756 122.16C63.5756 122.48 63.5223 122.707 63.4156 122.84C63.3356 122.947 63.069 123 62.6156 123H56.9356C56.3223 123 56.0156 122.72 56.0156 122.16V95.84C56.0156 95.28 56.3223 95 56.9356 95H62.6156C63.069 95 63.3356 95.0667 63.4156 95.2C63.5223 95.3067 63.5756 95.52 63.5756 95.84V122.16ZM91.2112 122.08C91.2112 122.693 90.9579 123 90.4512 123H78.0913C76.4912 123 75.1846 122.773 74.1712 122.32C73.1846 121.867 72.3979 121.28 71.8112 120.56C71.2512 119.813 70.8646 118.987 70.6512 118.08C70.4379 117.173 70.3312 116.28 70.3312 115.4V102.6C70.3312 101.64 70.4646 100.707 70.7312 99.8C70.9979 98.8667 71.4246 98.0533 72.0112 97.36C72.6246 96.64 73.4246 96.0667 74.4112 95.64C75.3979 95.2133 76.5979 95 78.0113 95H89.8113C90.1312 95 90.3312 95.0533 90.4113 95.16C90.5179 95.24 90.5713 95.5067 90.5713 95.96V100.48C90.5713 100.827 90.5179 101.067 90.4113 101.2C90.3046 101.307 90.1046 101.36 89.8113 101.36H80.2912C79.7579 101.36 79.3313 101.44 79.0113 101.6C78.6912 101.733 78.4512 101.907 78.2912 102.12C78.1312 102.333 78.0246 102.573 77.9712 102.84C77.9179 103.107 77.8912 103.373 77.8912 103.64V105.32H88.6112C88.9313 105.32 89.1313 105.373 89.2113 105.48C89.3179 105.587 89.3712 105.867 89.3712 106.32V110.48C89.3712 111.093 89.1179 111.4 88.6112 111.4H77.8912V114.4C77.8912 114.907 77.9446 115.307 78.0512 115.6C78.1846 115.893 78.3579 116.12 78.5712 116.28C78.7846 116.413 79.0379 116.507 79.3312 116.56C79.6246 116.587 79.9446 116.6 80.2912 116.6H90.4512C90.7713 116.6 90.9713 116.653 91.0513 116.76C91.1579 116.84 91.2112 117.107 91.2112 117.56V122.08ZM115.915 100.44C115.915 101.053 115.635 101.36 115.075 101.36H108.235V122.16C108.235 122.48 108.181 122.707 108.075 122.84C107.995 122.947 107.728 123 107.275 123H101.595C100.981 123 100.675 122.72 100.675 122.16V101.36H93.9947C93.4347 101.36 93.1547 101.053 93.1547 100.44V95.96C93.1547 95.5067 93.208 95.24 93.3147 95.16C93.448 95.0533 93.6747 95 93.9947 95H115.075C115.395 95 115.608 95.0533 115.715 95.16C115.848 95.24 115.915 95.5067 115.915 95.96V100.44ZM139.619 100.44C139.619 101.053 139.339 101.36 138.779 101.36H131.939V122.16C131.939 122.48 131.886 122.707 131.779 122.84C131.699 122.947 131.433 123 130.979 123H125.299C124.686 123 124.379 122.72 124.379 122.16V101.36H117.699C117.139 101.36 116.859 101.053 116.859 100.44V95.96C116.859 95.5067 116.913 95.24 117.019 95.16C117.153 95.0533 117.379 95 117.699 95H138.779C139.099 95 139.313 95.0533 139.419 95.16C139.553 95.24 139.619 95.5067 139.619 95.96V100.44ZM164.044 122.08C164.044 122.693 163.791 123 163.284 123H150.924C149.324 123 148.017 122.773 147.004 122.32C146.017 121.867 145.231 121.28 144.644 120.56C144.084 119.813 143.697 118.987 143.484 118.08C143.271 117.173 143.164 116.28 143.164 115.4V102.6C143.164 101.64 143.297 100.707 143.564 99.8C143.831 98.8667 144.257 98.0533 144.844 97.36C145.457 96.64 146.257 96.0667 147.244 95.64C148.231 95.2133 149.431 95 150.844 95H162.644C162.964 95 163.164 95.0533 163.244 95.16C163.351 95.24 163.404 95.5067 163.404 95.96V100.48C163.404 100.827 163.351 101.067 163.244 101.2C163.137 101.307 162.937 101.36 162.644 101.36H153.124C152.591 101.36 152.164 101.44 151.844 101.6C151.524 101.733 151.284 101.907 151.124 102.12C150.964 102.333 150.857 102.573 150.804 102.84C150.751 103.107 150.724 103.373 150.724 103.64V105.32H161.444C161.764 105.32 161.964 105.373 162.044 105.48C162.151 105.587 162.204 105.867 162.204 106.32V110.48C162.204 111.093 161.951 111.4 161.444 111.4H150.724V114.4C150.724 114.907 150.777 115.307 150.884 115.6C151.017 115.893 151.191 116.12 151.404 116.28C151.617 116.413 151.871 116.507 152.164 116.56C152.457 116.587 152.777 116.6 153.124 116.6H163.284C163.604 116.6 163.804 116.653 163.884 116.76C163.991 116.84 164.044 117.107 164.044 117.56V122.08ZM176.387 123C174.787 123 173.481 122.773 172.467 122.32C171.481 121.867 170.694 121.28 170.107 120.56C169.547 119.813 169.161 118.987 168.947 118.08C168.734 117.173 168.627 116.28 168.627 115.4L168.587 95.8C168.587 95.24 168.894 94.96 169.507 94.96H175.227C175.681 94.96 175.947 95.0267 176.027 95.16C176.134 95.2667 176.187 95.48 176.187 95.8V114.4C176.187 114.907 176.241 115.307 176.347 115.6C176.481 115.893 176.654 116.12 176.867 116.28C177.081 116.413 177.334 116.507 177.627 116.56C177.921 116.587 178.241 116.6 178.587 116.6H188.067C188.387 116.6 188.601 116.653 188.707 116.76C188.841 116.84 188.907 117.107 188.907 117.56V122.08C188.907 122.693 188.627 123 188.067 123H176.387ZM209.796 100.44C209.796 101.053 209.516 101.36 208.956 101.36H202.116V122.16C202.116 122.48 202.063 122.707 201.956 122.84C201.876 122.947 201.609 123 201.156 123H195.476C194.863 123 194.556 122.72 194.556 122.16V101.36H187.876C187.316 101.36 187.036 101.053 187.036 100.44V95.96C187.036 95.5067 187.089 95.24 187.196 95.16C187.329 95.0533 187.556 95 187.876 95H208.956C209.276 95 209.489 95.0533 209.596 95.16C209.729 95.24 209.796 95.5067 209.796 95.96V100.44ZM223.861 114.48H224.181L226.141 106.64L229.181 95.64C229.261 95.3467 229.407 95.16 229.621 95.08C229.834 95 230.101 94.96 230.421 94.96H236.621C236.941 94.96 237.114 95.0533 237.141 95.24C237.194 95.4267 237.194 95.5867 237.141 95.72L228.901 120.52C228.687 121.133 228.461 121.613 228.221 121.96C228.007 122.28 227.754 122.52 227.461 122.68C227.194 122.84 226.874 122.933 226.501 122.96C226.154 122.987 225.754 123 225.301 123H222.421C221.967 123 221.567 122.973 221.221 122.92C220.874 122.867 220.567 122.747 220.301 122.56C220.034 122.373 219.794 122.12 219.581 121.8C219.394 121.453 219.207 121.013 219.021 120.48L210.821 95.72C210.767 95.5067 210.767 95.3333 210.821 95.2C210.901 95.04 211.074 94.96 211.341 94.96H217.381C217.834 94.96 218.127 95.04 218.261 95.2C218.421 95.3333 218.554 95.5467 218.661 95.84L221.781 106.56L223.861 114.48ZM32.925 158.375C33.1083 158.625 33.075 158.833 32.825 159L31.5 159.95C31.3333 160.083 31.2 160.125 31.1 160.075C31.0167 160.042 30.9 159.942 30.75 159.775C30.1333 159.125 29.55 158.45 29 157.75C28.45 157.05 27.9667 156.3 27.55 155.5C27.1333 154.7 26.8 153.85 26.55 152.95C26.3167 152.033 26.2 151.05 26.2 150C26.2 148.933 26.3167 147.933 26.55 147C26.8 146.05 27.125 145.158 27.525 144.325C27.9417 143.475 28.425 142.692 28.975 141.975C29.525 141.242 30.1083 140.55 30.725 139.9C30.8917 139.717 31.0167 139.633 31.1 139.65C31.2 139.65 31.3333 139.717 31.5 139.85L32.825 140.75C32.9583 140.85 33.0333 140.933 33.05 141C33.0667 141.05 33.025 141.142 32.925 141.275C31.925 142.575 31.1667 143.908 30.65 145.275C30.1333 146.642 29.875 148.167 29.875 149.85C29.875 150.733 29.9417 151.558 30.075 152.325C30.2083 153.075 30.4 153.792 30.65 154.475C30.9167 155.158 31.2333 155.825 31.6 156.475C31.9833 157.108 32.425 157.742 32.925 158.375ZM43.5658 154.825C44.3658 154.825 45.0742 154.733 45.6908 154.55C46.3075 154.35 46.8825 154.15 47.4158 153.95C47.6492 153.85 47.8158 153.833 47.9158 153.9C48.0158 153.95 48.1075 154.067 48.1908 154.25L49.0408 156.05C49.1575 156.283 49.1992 156.458 49.1658 156.575C49.1325 156.692 49.0408 156.792 48.8908 156.875C47.9908 157.425 47.0408 157.8 46.0408 158C45.0575 158.183 44.0825 158.275 43.1158 158.275C41.7492 158.275 40.5658 158.075 39.5658 157.675C38.5825 157.258 37.7658 156.667 37.1158 155.9C36.4825 155.133 36.0075 154.2 35.6908 153.1C35.3908 151.983 35.2408 150.733 35.2408 149.35C35.2408 147.983 35.4325 146.742 35.8158 145.625C36.2158 144.508 36.7658 143.55 37.4658 142.75C38.1658 141.95 39.0075 141.333 39.9908 140.9C40.9908 140.467 42.0908 140.25 43.2908 140.25C44.1408 140.25 44.9742 140.325 45.7908 140.475C46.6075 140.608 47.4075 140.892 48.1908 141.325C48.3742 141.425 48.4825 141.525 48.5158 141.625C48.5492 141.725 48.5075 141.917 48.3908 142.2L47.6158 143.925C47.5325 144.158 47.4408 144.3 47.3408 144.35C47.2575 144.4 47.0992 144.383 46.8658 144.3C46.2658 144.083 45.7075 143.925 45.1908 143.825C44.6742 143.708 44.0992 143.65 43.4658 143.65C42.7825 143.65 42.1742 143.8 41.6408 144.1C41.1242 144.383 40.6825 144.783 40.3158 145.3C39.9658 145.8 39.6992 146.4 39.5158 147.1C39.3325 147.783 39.2408 148.533 39.2408 149.35C39.2408 150.167 39.3075 150.908 39.4408 151.575C39.5908 152.242 39.8325 152.817 40.1658 153.3C40.5158 153.783 40.9658 154.158 41.5158 154.425C42.0658 154.692 42.7492 154.825 43.5658 154.825ZM66.9553 149.2C66.9553 150.633 66.7969 151.908 66.4803 153.025C66.1803 154.142 65.7053 155.092 65.0553 155.875C64.4053 156.658 63.5886 157.258 62.6053 157.675C61.6219 158.075 60.4553 158.275 59.1053 158.275C56.5219 158.275 54.5969 157.492 53.3303 155.925C52.0803 154.358 51.4553 152.142 51.4553 149.275C51.4553 147.875 51.6303 146.617 51.9803 145.5C52.3469 144.367 52.8636 143.417 53.5303 142.65C54.1969 141.867 55.0053 141.267 55.9553 140.85C56.9053 140.433 57.9803 140.225 59.1803 140.225C60.4803 140.225 61.6136 140.433 62.5803 140.85C63.5636 141.267 64.3719 141.867 65.0053 142.65C65.6553 143.417 66.1386 144.358 66.4553 145.475C66.7886 146.575 66.9553 147.817 66.9553 149.2ZM62.9803 149.275C62.9803 148.525 62.9219 147.808 62.8053 147.125C62.7053 146.442 62.5136 145.842 62.2303 145.325C61.9469 144.808 61.5636 144.4 61.0803 144.1C60.5969 143.783 59.9719 143.625 59.2053 143.625C58.5719 143.625 58.0136 143.775 57.5303 144.075C57.0636 144.358 56.6719 144.75 56.3553 145.25C56.0386 145.75 55.8053 146.333 55.6553 147C55.5053 147.667 55.4303 148.375 55.4303 149.125C55.4303 150.008 55.4886 150.8 55.6053 151.5C55.7386 152.2 55.9469 152.8 56.2303 153.3C56.5303 153.8 56.9219 154.183 57.4053 154.45C57.8886 154.717 58.4969 154.85 59.2303 154.85C59.9469 154.85 60.5469 154.7 61.0303 154.4C61.5136 154.083 61.8969 153.675 62.1803 153.175C62.4636 152.658 62.6636 152.067 62.7803 151.4C62.9136 150.717 62.9803 150.008 62.9803 149.275ZM61.7803 134.45C61.8803 134.367 61.9719 134.308 62.0553 134.275C62.1386 134.242 62.2469 134.292 62.3803 134.425L64.1053 136.4C64.2053 136.5 64.2469 136.6 64.2303 136.7C64.2136 136.783 64.1553 136.842 64.0553 136.875L59.2303 139.35C59.0636 139.433 58.9386 139.467 58.8553 139.45C58.7886 139.417 58.7136 139.358 58.6303 139.275L57.6803 138.125C57.5969 138.025 57.5469 137.942 57.5303 137.875C57.5303 137.808 57.5969 137.717 57.7303 137.6L61.7803 134.45ZM77.3697 145.275C77.3697 144.575 77.4864 143.917 77.7197 143.3C77.9697 142.683 78.3364 142.15 78.8197 141.7C79.3031 141.233 79.9197 140.867 80.6697 140.6C81.4197 140.333 82.3031 140.2 83.3197 140.2C83.7864 140.2 84.2697 140.225 84.7697 140.275C85.2864 140.325 85.7864 140.4 86.2697 140.5C86.7697 140.6 87.2447 140.725 87.6947 140.875C88.1447 141.008 88.5531 141.167 88.9197 141.35C89.1197 141.45 89.2281 141.55 89.2447 141.65C89.2781 141.733 89.2531 141.9 89.1697 142.15L88.5197 144.025C88.4364 144.258 88.3531 144.392 88.2697 144.425C88.1864 144.458 88.0447 144.45 87.8447 144.4C87.0614 144.167 86.2781 143.975 85.4947 143.825C84.7281 143.675 84.0031 143.6 83.3197 143.6C82.5864 143.6 82.0697 143.733 81.7697 144C81.4697 144.267 81.3197 144.592 81.3197 144.975C81.3197 145.192 81.3697 145.392 81.4697 145.575C81.5697 145.758 81.7281 145.942 81.9447 146.125C82.1781 146.292 82.4781 146.467 82.8447 146.65C83.2281 146.833 83.6947 147.033 84.2447 147.25C85.0947 147.583 85.8781 147.925 86.5947 148.275C87.3114 148.608 87.9197 148.992 88.4197 149.425C88.9364 149.858 89.3364 150.367 89.6197 150.95C89.9197 151.533 90.0697 152.233 90.0697 153.05C90.0697 153.933 89.9114 154.7 89.5947 155.35C89.2781 156 88.8364 156.542 88.2697 156.975C87.7031 157.408 87.0114 157.733 86.1947 157.95C85.3947 158.167 84.5114 158.275 83.5447 158.275C83.0114 158.275 82.4531 158.242 81.8697 158.175C81.2864 158.125 80.7031 158.042 80.1197 157.925C79.5531 157.792 78.9947 157.625 78.4447 157.425C77.8947 157.225 77.3864 156.983 76.9197 156.7C76.7864 156.617 76.7031 156.525 76.6697 156.425C76.6531 156.325 76.6864 156.167 76.7697 155.95L77.6197 153.95C77.7031 153.75 77.7947 153.633 77.8947 153.6C77.9947 153.567 78.1364 153.592 78.3197 153.675C78.6531 153.808 79.0197 153.95 79.4197 154.1C79.8197 154.233 80.2281 154.358 80.6447 154.475C81.0781 154.575 81.5114 154.667 81.9447 154.75C82.3947 154.817 82.8364 154.85 83.2697 154.85C83.7864 154.85 84.2197 154.8 84.5697 154.7C84.9197 154.6 85.2031 154.475 85.4197 154.325C85.6364 154.158 85.7864 153.975 85.8697 153.775C85.9531 153.558 85.9947 153.333 85.9947 153.1C85.9947 152.85 85.9447 152.625 85.8447 152.425C85.7614 152.225 85.6114 152.033 85.3947 151.85C85.1947 151.65 84.9114 151.467 84.5447 151.3C84.1947 151.117 83.7531 150.925 83.2197 150.725C82.3364 150.392 81.5364 150.05 80.8197 149.7C80.1031 149.35 79.4864 148.967 78.9697 148.55C78.4531 148.117 78.0531 147.642 77.7697 147.125C77.5031 146.592 77.3697 145.975 77.3697 145.275ZM105.035 143.25C105.035 143.583 104.868 143.75 104.535 143.75H100.01V157.475C100.01 157.692 99.9683 157.833 99.885 157.9C99.8183 157.967 99.66 158 99.41 158H96.735C96.535 158 96.385 157.967 96.285 157.9C96.2016 157.817 96.16 157.675 96.16 157.475V143.75H91.735C91.4183 143.75 91.26 143.583 91.26 143.25V141.025C91.26 140.808 91.2933 140.667 91.36 140.6C91.4266 140.533 91.5516 140.5 91.735 140.5H104.535C104.735 140.5 104.868 140.533 104.935 140.6C105.002 140.667 105.035 140.808 105.035 141.025V143.25ZM118.415 148.425C118.882 148.608 119.282 148.858 119.615 149.175C119.965 149.475 120.249 149.817 120.465 150.2C120.682 150.567 120.84 150.967 120.94 151.4C121.04 151.833 121.09 152.258 121.09 152.675C121.09 153.475 120.932 154.2 120.615 154.85C120.315 155.5 119.89 156.058 119.34 156.525C118.807 156.992 118.174 157.358 117.44 157.625C116.724 157.875 115.949 158 115.115 158H108.84C108.24 158 107.84 157.883 107.64 157.65C107.44 157.4 107.34 157.008 107.34 156.475V142.025C107.34 141.492 107.44 141.1 107.64 140.85C107.84 140.6 108.24 140.475 108.84 140.475H114.965C115.715 140.475 116.415 140.558 117.065 140.725C117.732 140.892 118.307 141.158 118.79 141.525C119.274 141.875 119.649 142.333 119.915 142.9C120.199 143.45 120.34 144.117 120.34 144.9C120.34 145.6 120.157 146.258 119.79 146.875C119.44 147.475 118.982 147.933 118.415 148.25V148.425ZM117.165 152.425C117.165 151.758 116.957 151.217 116.54 150.8C116.14 150.383 115.54 150.175 114.74 150.175H111.14V154.65H114.74C115.207 154.65 115.599 154.583 115.915 154.45C116.232 154.3 116.482 154.117 116.665 153.9C116.849 153.683 116.974 153.442 117.04 153.175C117.124 152.908 117.165 152.658 117.165 152.425ZM111.14 147.125H114.54C114.74 147.125 114.949 147.1 115.165 147.05C115.399 147 115.607 146.917 115.79 146.8C115.974 146.667 116.124 146.492 116.24 146.275C116.357 146.042 116.415 145.75 116.415 145.4C116.415 144.9 116.257 144.508 115.94 144.225C115.624 143.942 115.199 143.8 114.665 143.8H111.14V147.125ZM123.933 158.4C124.433 157.75 124.874 157.1 125.258 156.45C125.641 155.8 125.958 155.133 126.208 154.45C126.474 153.767 126.666 153.058 126.783 152.325C126.916 151.575 126.983 150.775 126.983 149.925C126.983 149.042 126.916 148.217 126.783 147.45C126.649 146.683 126.449 145.95 126.183 145.25C125.933 144.55 125.616 143.875 125.233 143.225C124.866 142.575 124.433 141.925 123.933 141.275C123.833 141.142 123.791 141.05 123.808 141C123.824 140.933 123.899 140.858 124.033 140.775L125.358 139.85C125.541 139.717 125.674 139.65 125.758 139.65C125.858 139.633 125.983 139.708 126.133 139.875C126.749 140.525 127.324 141.217 127.858 141.95C128.408 142.683 128.891 143.467 129.308 144.3C129.724 145.133 130.049 146.017 130.283 146.95C130.533 147.883 130.658 148.875 130.658 149.925C130.658 150.992 130.533 151.983 130.283 152.9C130.049 153.817 129.724 154.675 129.308 155.475C128.908 156.275 128.433 157.033 127.883 157.75C127.333 158.45 126.749 159.117 126.133 159.75C125.983 159.933 125.858 160.042 125.758 160.075C125.674 160.108 125.541 160.067 125.358 159.95L124.033 159.025C123.783 158.825 123.749 158.617 123.933 158.4Z" fill="white"/>
</g>
<path d="M148 143.054C148 139.74 150.686 137.054 154 137.054H232C235.314 137.054 238 139.74 238 143.054V151.86C238 155.173 235.314 157.86 232 157.86H148V143.054Z" fill="white"/>
<path d="M161.744 146.429H164.212V148.213H161.744V151.002H159.864V148.213H157.39V146.429H159.864V143.756H161.744V146.429ZM170.118 152H168.143V144.385L165.784 145.116V143.51L169.906 142.033H170.118V152ZM173.652 147.105L174.227 142.047H179.805V143.694H175.847L175.601 145.834C176.07 145.583 176.569 145.458 177.098 145.458C178.046 145.458 178.788 145.752 179.326 146.34C179.864 146.928 180.133 147.75 180.133 148.808C180.133 149.45 179.996 150.027 179.723 150.537C179.454 151.043 179.066 151.437 178.561 151.72C178.055 151.998 177.458 152.137 176.77 152.137C176.168 152.137 175.61 152.016 175.095 151.774C174.58 151.528 174.172 151.184 173.871 150.742C173.575 150.3 173.418 149.797 173.399 149.231H175.354C175.396 149.646 175.539 149.97 175.785 150.202C176.036 150.43 176.362 150.544 176.763 150.544C177.209 150.544 177.553 150.384 177.795 150.065C178.036 149.742 178.157 149.286 178.157 148.698C178.157 148.133 178.018 147.7 177.74 147.399C177.462 147.099 177.068 146.948 176.558 146.948C176.088 146.948 175.708 147.071 175.416 147.317L175.225 147.495L173.652 147.105ZM188.097 147.885C188.097 149.261 187.812 150.314 187.242 151.043C186.673 151.772 185.839 152.137 184.74 152.137C183.656 152.137 182.826 151.779 182.252 151.063C181.678 150.348 181.384 149.323 181.37 147.987V146.155C181.37 144.765 181.657 143.71 182.231 142.99C182.81 142.27 183.642 141.91 184.727 141.91C185.811 141.91 186.641 142.268 187.215 142.983C187.789 143.694 188.083 144.717 188.097 146.053V147.885ZM186.121 145.875C186.121 145.05 186.007 144.451 185.779 144.077C185.556 143.699 185.205 143.51 184.727 143.51C184.262 143.51 183.918 143.69 183.694 144.05C183.476 144.405 183.359 144.964 183.346 145.725V148.145C183.346 148.956 183.455 149.56 183.674 149.956C183.897 150.348 184.253 150.544 184.74 150.544C185.223 150.544 185.572 150.355 185.786 149.977C186 149.598 186.112 149.02 186.121 148.24V145.875ZM195.691 149.033L194.98 149.744V152H193.005V141.5H194.98V147.317L195.363 146.825L197.257 144.604H199.629L196.956 147.687L199.861 152H197.592L195.691 149.033ZM203.751 152.137C202.666 152.137 201.782 151.804 201.099 151.139C200.42 150.473 200.08 149.587 200.08 148.479V148.288C200.08 147.545 200.224 146.882 200.511 146.299C200.798 145.711 201.203 145.26 201.728 144.945C202.256 144.626 202.858 144.467 203.532 144.467C204.544 144.467 205.339 144.786 205.918 145.424C206.501 146.062 206.793 146.966 206.793 148.138V148.944H202.083C202.147 149.427 202.338 149.815 202.657 150.106C202.981 150.398 203.389 150.544 203.881 150.544C204.642 150.544 205.237 150.268 205.665 149.717L206.636 150.804C206.34 151.223 205.938 151.551 205.433 151.788C204.927 152.021 204.366 152.137 203.751 152.137ZM203.525 146.066C203.133 146.066 202.814 146.199 202.568 146.463C202.327 146.727 202.172 147.105 202.104 147.598H204.852V147.44C204.842 147.003 204.724 146.666 204.496 146.429C204.268 146.187 203.945 146.066 203.525 146.066ZM205.932 143.414V143.496H204.359L203.307 142.505L202.254 143.496H200.709V143.387L202.732 141.5H203.881L205.932 143.414ZM209.739 144.604L209.801 145.458C210.329 144.797 211.038 144.467 211.927 144.467C212.711 144.467 213.294 144.697 213.677 145.157C214.06 145.618 214.256 146.306 214.265 147.222V152H212.289V147.27C212.289 146.85 212.198 146.547 212.016 146.36C211.833 146.169 211.53 146.073 211.106 146.073C210.55 146.073 210.133 146.31 209.855 146.784V152H207.88V144.604H209.739ZM217.696 145.41C218.22 144.781 218.879 144.467 219.672 144.467C221.276 144.467 222.09 145.399 222.112 147.263V152H220.137V147.317C220.137 146.894 220.046 146.581 219.863 146.381C219.681 146.176 219.378 146.073 218.954 146.073C218.375 146.073 217.956 146.297 217.696 146.743V152H215.721V141.5H217.696V145.41Z" fill="#44494D"/>
<defs>
<filter id="filter0_d" x="24.4395" y="93.96" width="217.741" height="71.1355" filterUnits="userSpaceOnUse" color-interpolation-filters="sRGB">
<feFlood flood-opacity="0" result="BackgroundImageFix"/>
<feColorMatrix in="SourceAlpha" type="matrix" values="0 0 0 0 0 0 0 0 0 0 0 0 0 0 0 0 0 0 127 0" result="hardAlpha"/>
<feOffset dx="2" dy="2"/>
<feGaussianBlur stdDeviation="1.5"/>
<feColorMatrix type="matrix" values="0 0 0 0 0 0 0 0 0 0 0 0 0 0 0 0 0 0 0.25 0"/>
<feBlend mode="normal" in2="BackgroundImageFix" result="effect1_dropShadow"/>
<feBlend mode="normal" in="SourceGraphic" in2="effect1_dropShadow" result="shape"/>
</filter>
</defs>
</svg>
