<svg width="247" height="47" viewBox="0 0 247 47" fill="none" xmlns="http://www.w3.org/2000/svg">
<g clip-path="url(#clip0)">
<path d="M57.1608 10.167H53.0363C51.4098 10.167 50.0737 11.5032 50.0737 13.1299V43.6305C50.0737 45.2572 51.4098 46.5934 53.0363 46.5934H57.1608C58.7873 46.5934 60.1234 45.2572 60.1234 43.6305V13.1299C60.1234 11.5032 58.7873 10.167 57.1608 10.167Z" fill="white"/>
<path d="M42.3478 10.167C39.7338 10.167 37.5844 11.7356 36.5388 13.9433L25.6178 37.1818C25.3855 37.7047 24.8627 38.6342 24.3979 38.6342C23.9332 38.6342 23.4685 37.7628 23.178 37.1818L12.199 14.0014C11.1533 11.7937 8.94591 10.2251 6.38993 10.2251H0L17.369 43.8048C19.1117 47.1163 22.5971 47.0582 24.3979 47.0582C26.8958 47.0582 29.8003 46.942 31.3688 43.8048L48.7378 10.2251H42.3478V10.167Z" fill="white"/>
<path d="M234.046 4.58938C234.046 2.96268 232.71 1.62646 231.083 1.62646H226.959C225.332 1.62646 223.996 2.96268 223.996 4.58938V34.6833C223.996 39.2729 225.623 41.9454 228.527 43.8626C231.374 45.7216 234.627 46.535 240.726 46.535H244.037C245.664 46.535 247 45.1988 247 43.5721V40.3768H244.502C242.701 40.3768 238.925 40.3187 236.66 38.8082C233.755 36.891 233.988 33.4633 233.988 30.9652V4.58938H234.046Z" fill="white"/>
<path d="M169.682 40.4349C167.881 40.4349 164.105 40.3768 161.839 38.8663C158.935 36.9491 159.167 33.5214 159.167 31.0233V16.383H168.926C170.553 16.383 171.889 15.0467 171.889 13.42V10.2247H159.167V4.58938C159.167 2.96268 157.831 1.62646 156.205 1.62646H152.08C150.454 1.62646 149.118 2.96268 149.118 4.58938V10.1666H128.147V4.58938C128.147 2.96268 126.811 1.62646 125.185 1.62646H121.06C119.434 1.62646 118.097 2.96268 118.097 4.58938V10.1666H111.824V13.3619C111.824 14.9886 113.16 16.3249 114.786 16.3249H118.097V34.6833C118.097 39.2729 119.724 41.9454 122.629 43.8626C125.475 45.7216 128.728 46.535 134.827 46.535H138.139C139.765 46.535 141.101 45.1988 141.101 43.5721V40.3768H138.603C136.803 40.3768 133.027 40.3187 130.761 38.8082C127.857 36.891 128.089 33.4633 128.089 30.9652V16.383H149.06V34.7414C149.06 39.331 150.686 42.0035 153.591 43.9207C156.437 45.7797 159.69 46.5931 165.79 46.5931H169.101C170.727 46.5931 172.063 45.2569 172.063 43.6302V40.4349H169.682Z" fill="white"/>
<path d="M108.222 43.6305V40.4352H85.9735C82.2557 40.4352 78.0732 40.0285 76.7952 36.078C76.4467 34.9741 76.2143 32.6503 76.2143 31.0817H102.645C104.446 31.0817 106.189 30.7912 107.525 29.6874C109.442 28.1769 109.674 26.0273 109.674 24.1682C109.674 19.5786 108.571 15.0471 103.226 12.3746C99.0438 10.2251 93.5252 10.0508 88.1809 10.0508C83.8822 10.0508 76.1562 10.0508 71.1605 13.4785C66.1647 16.9062 65.7581 21.9024 65.7581 28.7578C65.7581 33.5798 65.9904 38.5761 69.0111 42.0038C72.787 46.2448 78.3056 46.5934 82.8947 46.5934H105.201C106.886 46.5934 108.222 45.2572 108.222 43.6305ZM99.2762 22.7739C99.2762 23.7615 99.0438 24.9235 97.0687 24.9235H82.7785C79.1188 24.9235 76.2143 26.6083 76.2143 28.6416V24.9235C76.2724 22.5415 76.2143 20.5081 78.2475 18.649C80.9777 16.1509 85.1021 16.2671 87.7743 16.2671C90.6207 16.2671 93.8738 16.3833 96.3716 17.8938C97.8239 18.7652 99.2762 20.5081 99.2762 22.7739Z" fill="white"/>
<path d="M216.851 43.6305V40.4352H194.602C190.885 40.4352 186.702 40.0285 185.424 36.078C185.076 34.9741 184.843 32.6503 184.843 31.0817H211.274C213.075 31.0817 214.818 30.7912 216.154 29.6874C218.071 28.1769 218.303 26.0273 218.303 24.1682C218.303 19.5786 217.2 15.0471 211.855 12.3746C207.673 10.2251 202.154 10.0508 196.81 10.0508C192.511 10.0508 184.785 10.0508 179.789 13.4785C174.794 16.9062 174.387 21.9024 174.387 28.7578C174.387 33.5798 174.619 38.5761 177.64 42.0038C181.416 46.2448 186.934 46.5934 191.582 46.5934H213.888C215.515 46.5934 216.851 45.2572 216.851 43.6305ZM207.905 22.7739C207.905 23.7615 207.673 24.9235 205.698 24.9235H191.407C187.748 24.9235 184.843 26.6083 184.843 28.6416V24.9235C184.901 22.5415 184.843 20.5081 186.876 18.649C189.607 16.1509 193.731 16.2671 196.403 16.2671C199.25 16.2671 202.503 16.3833 205.001 17.8938C206.453 18.7652 207.905 20.5081 207.905 22.7739Z" fill="white"/>
<path d="M57.1608 0H53.0363C51.4098 0 50.0737 1.33622 50.0737 2.96292V3.77627V10.1669H50.1318C50.4223 8.48208 52.3393 6.73918 55.1276 6.73918H57.1608C58.7873 6.73918 60.1234 5.40297 60.1234 3.77627V2.96292C60.1234 1.33622 58.7873 0 57.1608 0Z" fill="white"/>
</g>
<defs>
<clipPath id="clip0">
<rect width="247" height="47" fill="white"/>
</clipPath>
</defs>
</svg>
