<svg width="200" height="200" viewBox="0 0 200 200" fill="none" xmlns="http://www.w3.org/2000/svg">
<path d="M199.3 100C199.3 155.2 154.7 200 99.7998 200C44.7998 200 0.299805 155.2 0.299805 100C0.299805 44.8 44.8998 0 99.7998 0C154.7 0 199.3 44.8 199.3 100Z" fill="#EE0033"/>
<path d="M145.8 60.2998H99.7998H53.7998L47.2998 66.4999V150C47.2998 151.7 48.6998 153.1 50.3998 153.1H99.7998H149.2C150.9 153.1 152.3 151.8 152.3 150V66.4999L145.8 60.2998Z" fill="#EDF5FF"/>
<path d="M149.2 48H99.8002H50.3002C48.6002 48 47.2002 49.3 47.2002 51.1V66.5H99.7002H152.2V51.1C152.2 49.4 150.9 48 149.2 48Z" fill="#EE8FA3"/>
<path d="M112.1 60.3C113.8 60.3 115.2 58.9001 115.2 57.2001C115.2 55.5001 113.8 54.1001 112.1 54.1001C110.4 54.1001 109 55.5001 109 57.2001C109 59.0001 110.4 60.3 112.1 60.3Z" fill="#D0E4E7"/>
<path d="M124.4 60.3C126.1 60.3 127.5 58.9001 127.5 57.2001C127.5 55.5001 126.1 54.1001 124.4 54.1001C122.7 54.1001 121.3 55.5001 121.3 57.2001C121.3 59.0001 122.7 60.3 124.4 60.3Z" fill="#D0E4E7"/>
<path d="M136.7 60.3C138.4 60.3 139.8 58.9001 139.8 57.2001C139.8 55.5001 138.4 54.1001 136.7 54.1001C135 54.1001 133.6 55.5001 133.6 57.2001C133.6 59.0001 135 60.3 136.7 60.3Z" fill="#D0E4E7"/>
<path d="M136.7 79H99.7998H62.8998C61.1998 79 59.7998 80.4 59.7998 82.1V137.5C59.7998 139.2 61.1998 140.6 62.8998 140.6H99.7998H136.7C138.4 140.6 139.8 139.2 139.8 137.5V82.1C139.7 80.4 138.4 79 136.7 79Z" fill="#EE8FA3"/>
<path d="M99.7002 91.2998C89.5002 91.2998 81.2002 99.5998 81.2002 109.8C81.2002 120 89.5002 128.3 99.7002 128.3C109.9 128.3 118.2 120 118.2 109.8C118.2 99.5998 109.9 91.2998 99.7002 91.2998ZM87.4001 109.8C87.4001 103 92.9002 97.4999 99.7002 97.4999C102 97.4999 104.1 98.1998 105.9 99.2998L99.7002 105.5L89.1002 116.1C88.1002 114.1 87.4001 112 87.4001 109.8ZM99.7002 122.1C97.4002 122.1 95.3002 121.4 93.5002 120.4L99.7002 114.2L110.3 103.6C111.4 105.4 112 107.5 112 109.8C112.1 116.5 106.5 122.1 99.7002 122.1Z" fill="#EDF5FF"/>
</svg>
