<svg width="56" height="56" viewBox="0 0 56 56" fill="none" xmlns="http://www.w3.org/2000/svg">
<path d="M28.1503 55.49C12.8703 55.49 0.490234 43.1 0.490234 27.83C0.490234 12.55 12.8803 0.170029 28.1503 0.170029C43.4303 0.170029 55.8102 12.56 55.8102 27.83C55.8102 43.11 43.4303 55.49 28.1503 55.49Z" fill="url(#paint0_linear)"/>
<path d="M42.8205 27.86L42.5405 27.76V26.11C42.5405 18.18 36.0905 11.72 28.1505 11.72C20.2205 11.72 13.7605 18.18 13.7605 26.11V27.76L13.4805 27.86C12.2905 28.28 11.4805 29.42 11.4805 30.67V35.23C11.4805 36.89 12.8305 38.23 14.4805 38.23C16.1305 38.23 17.4805 36.88 17.4805 35.23V30.67C17.4705 29.41 16.6705 28.28 15.4805 27.86L15.2005 27.76V26.11C15.2005 18.97 21.0005 13.17 28.1405 13.17C35.2805 13.17 41.0905 18.97 41.0905 26.11V27.76L40.8105 27.86C39.6105 28.28 38.8105 29.42 38.8105 30.67V35.23C38.8105 36.5 39.6105 37.63 40.8105 38.05L41.0905 38.14V39.79C41.0905 40.65 40.3905 41.35 39.5305 41.35H31.1405V40.25L27.4605 40.21L27.4205 43.9L31.1105 43.93L31.1405 42.8H39.5305C41.1805 42.8 42.5205 41.45 42.5205 39.8V38.15L42.8005 38.06C44.0005 37.64 44.8005 36.5 44.8005 35.24V30.68C44.8205 29.42 44.0205 28.29 42.8205 27.86ZM16.0405 30.68V35.24C16.0405 36.1 15.3405 36.8 14.4805 36.8C13.6205 36.8 12.9205 36.1 12.9205 35.24V30.68C12.9205 29.82 13.6205 29.12 14.4805 29.12C15.3405 29.12 16.0405 29.82 16.0405 30.68ZM43.3705 35.23C43.3705 36.09 42.6805 36.79 41.8205 36.79C40.9505 36.79 40.2605 36.09 40.2605 35.23V30.67C40.2605 29.81 40.9505 29.11 41.8205 29.11C42.6805 29.11 43.3705 29.81 43.3705 30.67V35.23Z" fill="#EDEFEF"/>
<defs>
<linearGradient id="paint0_linear" x1="0.487734" y1="27.8302" x2="55.8141" y2="27.8302" gradientUnits="userSpaceOnUse">
<stop stop-color="#F0843F"/>
<stop offset="1" stop-color="#E81E36"/>
</linearGradient>
</defs>
</svg>
