<svg width="58" height="62" viewBox="0 0 58 62" fill="none" xmlns="http://www.w3.org/2000/svg">
<path d="M40.3202 35.0816C46.5677 28.8485 46.5677 18.6565 40.3202 12.4233" stroke="#EE0033" stroke-width="3" stroke-linecap="round" stroke-linejoin="round"/>
<path d="M17.6942 35.0816C11.4467 28.8485 11.4467 18.6565 17.6942 12.4233" stroke="#EE0033" stroke-width="3" stroke-linecap="round" stroke-linejoin="round"/>
<path d="M29.0072 54.1181V28.0063" stroke="#EE0033" stroke-width="3" stroke-linecap="round" stroke-linejoin="round"/>
<path d="M20.5646 54.1177H37.4497" stroke="#EE0033" stroke-width="3" stroke-linecap="round" stroke-linejoin="round"/>
<path d="M44.5415 39.2931C53.1529 30.7015 53.1529 16.8875 44.5415 8.2959" stroke="#EE0033" stroke-width="3" stroke-linecap="round" stroke-linejoin="round"/>
<path d="M13.4729 39.2931C4.94589 30.7015 4.94589 16.8875 13.4729 8.2959" stroke="#EE0033" stroke-width="3" stroke-linecap="round" stroke-linejoin="round"/>
<path d="M21.831 16.6348C17.863 20.5936 17.863 26.9952 21.831 30.9541" stroke="#EE0033" stroke-width="3" stroke-linecap="round" stroke-linejoin="round"/>
<path d="M36.1833 16.6348C40.1514 20.5936 40.1514 26.9952 36.1833 30.9541" stroke="#EE0033" stroke-width="3" stroke-linecap="round" stroke-linejoin="round"/>
<path d="M29.0072 28.0062C31.3385 28.0062 33.2284 26.1206 33.2284 23.7946C33.2284 21.4686 31.3385 19.583 29.0072 19.583C26.6758 19.583 24.7859 21.4686 24.7859 23.7946C24.7859 26.1206 26.6758 28.0062 29.0072 28.0062Z" stroke="#FE9A00" stroke-width="3" stroke-linecap="round" stroke-linejoin="round"/>
</svg>
