<svg width="113" height="93" viewBox="0 0 113 93" fill="none" xmlns="http://www.w3.org/2000/svg">
<path d="M6.49484 92.9972H65.1111C78.0715 92.9972 88.6754 82.8277 88.6754 70.3984V39.6077C88.6754 36.5004 86.0245 33.958 82.7844 33.958H6.49484C3.25475 33.958 0.60376 36.5004 0.60376 39.6077V87.63C0.60376 90.4548 3.25475 92.9972 6.49484 92.9972Z" fill="white"/>
<path d="M6.49484 92.9972H65.1111C78.0715 92.9972 88.6754 82.8277 88.6754 70.3984V39.6077C88.6754 36.5004 86.0245 33.958 82.7844 33.958H6.49484C3.25475 33.958 0.60376 36.5004 0.60376 39.6077V87.63C0.60376 90.4548 3.25475 92.9972 6.49484 92.9972Z" fill="#D11313" fill-opacity="0.2"/>
<path d="M95.5264 76.3445V52.5484C95.5264 52.4221 95.5741 52.3005 95.6601 52.208L111.53 35.1315C111.839 34.7987 112.396 35.0175 112.396 35.4718V91.8124C112.396 92.2547 111.864 92.4792 111.547 92.1704L95.6774 76.7025C95.5808 76.6084 95.5264 76.4793 95.5264 76.3445Z" fill="white"/>
<path d="M95.5264 76.3445V52.5484C95.5264 52.4221 95.5741 52.3005 95.6601 52.208L111.53 35.1315C111.839 34.7987 112.396 35.0175 112.396 35.4718V91.8124C112.396 92.2547 111.864 92.4792 111.547 92.1704L95.6774 76.7025C95.5808 76.6084 95.5264 76.4793 95.5264 76.3445Z" fill="#D11313" fill-opacity="0.2"/>
<path d="M87.5427 34.1075C87.5427 15.8227 72.6579 1 54.2966 1C35.9353 1 21.0505 15.8227 21.0505 34.1075" stroke="white"/>
<path d="M87.5427 34.1075C87.5427 15.8227 72.6579 1 54.2966 1C35.9353 1 21.0505 15.8227 21.0505 34.1075" stroke="#D11313" stroke-opacity="0.2"/>
<path d="M23.6363 66.4426C11.1128 65.9204 1.10376 55.4261 1.10376 42.5406C1.10376 29.6551 11.1128 19.1608 23.6363 18.6386C23.8911 18.6279 24.1164 18.837 24.1164 19.1182V65.963C24.1164 66.2442 23.8911 66.4533 23.6363 66.4426Z" fill="white"/>
<path d="M23.6363 66.4426C11.1128 65.9204 1.10376 55.4261 1.10376 42.5406C1.10376 29.6551 11.1128 19.1608 23.6363 18.6386C23.8911 18.6279 24.1164 18.837 24.1164 19.1182V65.963C24.1164 66.2442 23.8911 66.4533 23.6363 66.4426Z" fill="#D11313" fill-opacity="0.6"/>
<path d="M23.6363 66.4426C11.1128 65.9204 1.10376 55.4261 1.10376 42.5406C1.10376 29.6551 11.1128 19.1608 23.6363 18.6386C23.8911 18.6279 24.1164 18.837 24.1164 19.1182V65.963C24.1164 66.2442 23.8911 66.4533 23.6363 66.4426Z" stroke="white"/>
<path d="M23.6363 66.4426C11.1128 65.9204 1.10376 55.4261 1.10376 42.5406C1.10376 29.6551 11.1128 19.1608 23.6363 18.6386C23.8911 18.6279 24.1164 18.837 24.1164 19.1182V65.963C24.1164 66.2442 23.8911 66.4533 23.6363 66.4426Z" stroke="#D11313" stroke-opacity="0.6"/>
<path d="M84.5004 18.6395C97.0239 19.1617 107.033 29.656 107.033 42.5415C107.033 55.4271 97.0239 65.9214 84.5004 66.4436C84.2456 66.4542 84.0203 66.2451 84.0203 65.964L84.0203 19.1191C84.0203 18.838 84.2456 18.6289 84.5004 18.6395Z" fill="white"/>
<path d="M84.5004 18.6395C97.0239 19.1617 107.033 29.656 107.033 42.5415C107.033 55.4271 97.0239 65.9214 84.5004 66.4436C84.2456 66.4542 84.0203 66.2451 84.0203 65.964L84.0203 19.1191C84.0203 18.838 84.2456 18.6289 84.5004 18.6395Z" fill="#D11313" fill-opacity="0.6"/>
<path d="M84.5004 18.6395C97.0239 19.1617 107.033 29.656 107.033 42.5415C107.033 55.4271 97.0239 65.9214 84.5004 66.4436C84.2456 66.4542 84.0203 66.2451 84.0203 65.964L84.0203 19.1191C84.0203 18.838 84.2456 18.6289 84.5004 18.6395Z" stroke="white"/>
<path d="M84.5004 18.6395C97.0239 19.1617 107.033 29.656 107.033 42.5415C107.033 55.4271 97.0239 65.9214 84.5004 66.4436C84.2456 66.4542 84.0203 66.2451 84.0203 65.964L84.0203 19.1191C84.0203 18.838 84.2456 18.6289 84.5004 18.6395Z" stroke="#D11313" stroke-opacity="0.6"/>
<path d="M20.626 61.1935V84.3103C20.626 85.9672 21.9691 87.3103 23.626 87.3103L43.7096 87.3105" stroke="white"/>
<path d="M20.626 61.1935V84.3103C20.626 85.9672 21.9691 87.3103 23.626 87.3103L43.7096 87.3105" stroke="#D11313" stroke-opacity="0.6"/>
<ellipse cx="45.0262" cy="87.3102" rx="5.71269" ry="5.68888" fill="white"/>
<ellipse cx="45.0262" cy="87.3102" rx="5.71269" ry="5.68888" fill="#D11313" fill-opacity="0.6"/>
</svg>
