<svg width="80" height="80" viewBox="0 0 80 80" fill="none" xmlns="http://www.w3.org/2000/svg">
<rect x="8" y="8" width="64" height="64" rx="16" fill="#EE0033"/>
<path d="M17.5113 35.2098L17.0399 35.3765L17.5113 35.2098ZM24.8254 19.8963L24.6587 19.4249L24.8254 19.8963ZM20.198 42.8096L20.1269 43.3045L20.9448 43.4219L20.6694 42.6429L20.198 42.8096ZM20.1947 42.8091L20.2657 42.3142L19.4479 42.1968L19.7233 42.9758L20.1947 42.8091ZM29.5238 69.1979L29.0524 69.3646L29.6391 71.0242L30.0124 69.304L29.5238 69.1979ZM46.1441 48.3699L45.9775 47.8985L45.9527 47.9072L45.9289 47.9185L46.1441 48.3699ZM58.4782 44.0095L58.3116 43.5381L58.4782 44.0095ZM65.7923 28.6959L65.3209 28.8626L65.7923 28.6959ZM62.4755 19.3139L62.9469 19.1472L62.4755 19.3139ZM47.162 11.9997L47.3287 12.4711L47.162 11.9997ZM17.9827 35.0431C15.8657 29.0551 19.0039 22.4846 24.992 20.3677L24.6587 19.4249C18.1499 21.7259 14.7388 28.8677 17.0399 35.3765L17.9827 35.0431ZM20.6694 42.6429L17.9827 35.0431L17.0399 35.3765L19.7266 42.9763L20.6694 42.6429ZM20.1236 43.3041L20.1269 43.3045L20.269 42.3147L20.2657 42.3142L20.1236 43.3041ZM29.9952 69.0313L20.6661 42.6425L19.7233 42.9758L29.0524 69.3646L29.9952 69.0313ZM45.9289 47.9185C35.0532 53.104 30.1377 64.011 29.0351 69.0919L30.0124 69.304C31.0739 64.4124 35.853 53.8306 46.3593 48.8212L45.9289 47.9185ZM58.3116 43.5381L45.9775 47.8985L46.3108 48.8413L58.6449 44.4809L58.3116 43.5381ZM65.3209 28.8626C67.4379 34.8507 64.2997 41.4211 58.3116 43.5381L58.6449 44.4809C65.1537 42.1799 68.5648 35.0381 66.2637 28.5293L65.3209 28.8626ZM62.0041 19.4805L65.3209 28.8626L66.2637 28.5293L62.9469 19.1472L62.0041 19.4805ZM47.3287 12.4711C53.3168 10.3542 59.8872 13.4924 62.0041 19.4805L62.9469 19.1472C60.6459 12.6384 53.5042 9.22731 46.9954 11.5283L47.3287 12.4711ZM24.992 20.3677L47.3287 12.4711L46.9954 11.5283L24.6587 19.4249L24.992 20.3677Z" fill="white"/>
<path d="M34.5726 54.8499L19.9326 25.6427L27.8262 25.6427C28.4581 25.6427 29.0319 26.0113 29.2946 26.5859L40.7213 51.5791C40.7982 51.7474 41.0376 51.7466 41.1134 51.5778L52.4348 26.3901C52.6954 25.8104 53.2719 25.4375 53.9075 25.4375H61.8804L47.214 54.8499C46.6703 56.0128 44.6223 58.3386 40.78 58.3386C36.9376 58.3386 35.0407 56.0128 34.5726 54.8499Z" fill="white"/>
</svg>
