<svg width="46" height="46" viewBox="0 0 46 46" fill="none" xmlns="http://www.w3.org/2000/svg">
<path d="M40.26 31.9737H26.3031L22.5455 25.7621H37.7294L40.8735 30.9768C41.1036 31.3602 40.7968 31.9737 40.26 31.9737Z" fill="#92001F"/>
<path d="M22.5454 25.7621H7.36151V40.946H22.5454V25.7621Z" fill="#828282"/>
<path d="M37.7294 25.7621H22.5455V40.946H37.7294V25.7621Z" fill="#EE0033"/>
<path d="M4.83082 31.9739H18.481C18.7111 31.9739 18.9411 31.8205 19.0178 31.6671L22.5454 25.839H7.36147L4.21733 30.977C3.98727 31.3604 4.29401 31.9739 4.83082 31.9739Z" fill="#DCDCDC"/>
<path d="M13.2542 12.246L12.1622 8.494C12.0922 8.284 12.0362 8.186 11.7142 8.186H9.60016C9.41816 8.186 9.37616 8.298 9.41816 8.452L12.2882 17.118C12.5542 17.874 12.8342 18 13.4782 18H14.4862C15.1302 18 15.4522 17.986 15.7462 17.132L18.6302 8.452C18.6722 8.354 18.6722 8.186 18.4482 8.186H16.2782C16.0542 8.186 15.9002 8.214 15.8442 8.424L14.7802 12.274L14.0942 15.018H13.9822L13.2542 12.246ZM24.0673 17.762C24.1233 17.972 24.2773 18 24.5013 18H26.6153C26.8393 18 26.8393 17.832 26.7973 17.734L24.0393 9.054C23.7733 8.228 23.4373 8.186 22.7793 8.186H21.6453C21.0153 8.186 20.6933 8.326 20.4553 9.068L17.6973 17.734C17.6553 17.888 17.6973 18 17.8793 18H19.9373C20.2593 18 20.3153 17.902 20.3853 17.692L20.8473 16.082H23.6053L24.0673 17.762ZM21.7293 12.96L22.2053 10.902H22.3173L22.7653 12.918L23.0313 14.01H21.4353L21.7293 12.96ZM27.0049 11.084C27.0049 12.764 28.5029 13.506 30.4489 14.22C31.4709 14.598 31.5409 14.822 31.5409 15.144C31.5409 15.382 31.4009 15.76 30.5189 15.76C29.4829 15.76 28.2509 15.424 27.6769 15.2C27.3969 15.088 27.2989 15.088 27.1729 15.41L26.6269 16.74C26.5149 17.02 26.5429 17.132 26.7249 17.244C27.8449 17.93 29.3289 18.154 30.6029 18.154C33.0249 18.154 34.4109 17.146 34.4109 15.13C34.4109 13.268 33.0389 12.54 30.7989 11.686C29.8749 11.35 29.7629 11.084 29.7629 10.86C29.7629 10.594 29.9169 10.384 30.5749 10.384C31.3029 10.384 32.1989 10.51 32.9969 10.734C33.3189 10.832 33.3889 10.804 33.5149 10.454L33.8929 9.292C34.0469 8.9 34.0609 8.844 33.7389 8.69C32.9409 8.256 31.6669 8.046 30.5329 8.046C28.0549 8.046 27.0049 9.46 27.0049 11.084Z" fill="#92001F"/>
</svg>
