<svg width="51" height="49" viewBox="0 0 51 49" fill="none" xmlns="http://www.w3.org/2000/svg">
<path d="M50.2521 21.87C49.5621 19.74 47.7421 18.31 45.6721 17.99C47.1521 16.51 47.7921 14.28 47.1021 12.15C46.1221 9.13 42.8721 7.47 39.8521 8.45C38.2021 8.99 36.7021 9.79 35.3421 10.75C35.8321 9.16 36.1521 7.5 36.1521 5.76C36.1521 2.58 33.5721 0 30.3921 0C28.1521 0 26.2321 1.29 25.2821 3.16C24.3221 1.3 22.4021 0.01 20.1621 0.01C16.9821 0.01 14.4021 2.59 14.4021 5.77C14.4021 7.5 14.7121 9.17 15.2121 10.76C13.8521 9.8 12.3521 9 10.7021 8.46C7.68208 7.48 4.43209 9.13 3.45208 12.16C2.76208 14.29 3.39208 16.52 4.88208 18C2.81208 18.33 0.992083 19.75 0.302083 21.88C-0.677917 24.9 0.972088 28.15 4.00209 29.13C5.65209 29.67 7.33209 29.88 8.99209 29.9C7.66209 30.89 6.43208 32.07 5.41208 33.48C3.54208 36.05 4.11209 39.65 6.68209 41.52C8.49209 42.84 10.8021 42.92 12.6721 41.97C12.3421 44.04 13.1421 46.21 14.9521 47.53C17.5221 49.4 21.1221 48.83 22.9921 46.26C24.0021 44.86 24.7421 43.34 25.2821 41.78C25.8121 43.34 26.5521 44.86 27.5721 46.26C29.4421 48.83 33.0421 49.4 35.6121 47.53C37.4221 46.21 38.2221 44.04 37.8921 41.97C39.7621 42.92 42.0721 42.84 43.8821 41.52C46.4521 39.65 47.0221 36.05 45.1521 33.48C44.1321 32.08 42.9021 30.9 41.5721 29.9C43.2321 29.88 44.9121 29.66 46.5621 29.13C49.5821 28.15 51.2421 24.9 50.2521 21.87ZM39.5821 12.66C40.0421 12.33 40.6821 12.43 41.0121 12.89C41.3421 13.35 41.2421 13.99 40.7821 14.32L27.5021 22.7L39.5821 12.66ZM39.5321 20.55L27.3721 23.64L39.0221 19C39.4521 18.86 39.9121 19.1 40.0521 19.52C40.1921 19.95 39.9521 20.41 39.5321 20.55ZM33.1321 13.6C33.4221 13.81 33.4921 14.23 33.2821 14.52L26.8021 22.31L32.2121 13.74C32.4221 13.46 32.8421 13.39 33.1321 13.6ZM27.0921 24.32C27.0921 25.33 26.2721 26.14 25.2721 26.14C24.2621 26.14 23.4521 25.32 23.4521 24.32C23.4521 23.31 24.2721 22.5 25.2721 22.5C26.2821 22.5 27.0921 23.31 27.0921 24.32ZM29.9921 6.47C30.1621 5.93 30.7421 5.64 31.2821 5.81C31.8221 5.98 32.1121 6.56 31.9421 7.1L26.1321 21.69L29.9921 6.47ZM25.2721 8.78C25.7221 8.78 26.0921 9.15 26.0921 9.6L25.2721 22.12L24.4521 9.6C24.4521 9.15 24.8221 8.78 25.2721 8.78ZM19.2621 5.82C19.8021 5.65 20.3721 5.94 20.5521 6.48L24.4221 21.7L18.6021 7.11C18.4321 6.57 18.7221 5.99 19.2621 5.82ZM17.4121 13.6C17.7021 13.39 18.1221 13.45 18.3321 13.75L23.7421 22.32L17.2621 14.53C17.0521 14.23 17.1221 13.82 17.4121 13.6ZM9.53209 12.89C9.86209 12.43 10.5021 12.33 10.9621 12.66L23.0421 22.7L9.76208 14.31C9.30208 13.98 9.20209 13.34 9.53209 12.89ZM23.1721 23.64L11.0121 20.55C10.5821 20.41 10.3521 19.95 10.4921 19.52C10.6321 19.09 11.0921 18.86 11.5221 19L23.1721 23.64ZM6.84208 25.34C6.28208 25.34 5.82209 24.88 5.82209 24.32C5.82209 23.76 6.28208 23.3 6.84208 23.3L22.5121 24.32L6.84208 25.34ZM22.8221 25.23L13.4121 28.98C13.0621 29.09 12.6921 28.9 12.5821 28.56C12.4721 28.21 12.6621 27.84 13.0021 27.73L22.8221 25.23ZM10.9621 35.98C10.5021 36.31 9.86209 36.21 9.53209 35.75C9.20209 35.29 9.30208 34.65 9.76208 34.32L23.0421 25.94L10.9621 35.98ZM17.2821 36.71C17.0121 37.07 16.5021 37.16 16.1421 36.89C15.7821 36.62 15.6921 36.11 15.9621 35.75L23.9821 26.1L17.2821 36.71ZM20.5521 42.16C20.3821 42.7 19.8021 42.99 19.2621 42.82C18.7221 42.65 18.4321 42.07 18.6021 41.53L24.4121 26.94L20.5521 42.16ZM25.2721 37.76C24.9121 37.76 24.6121 37.47 24.6121 37.1L25.2721 26.99L25.9321 37.1C25.9321 37.46 25.6321 37.76 25.2721 37.76ZM31.2821 42.82C30.7421 42.99 30.1721 42.7 29.9921 42.16L26.1221 26.94L31.9321 41.53C32.1121 42.07 31.8221 42.65 31.2821 42.82ZM34.4021 36.89C34.0421 37.15 33.5321 37.07 33.2621 36.71L26.5621 26.1L34.5821 35.75C34.8521 36.12 34.7721 36.63 34.4021 36.89ZM41.0121 35.75C40.6821 36.21 40.0421 36.31 39.5821 35.98L27.5021 25.94L40.7821 34.32C41.2421 34.66 41.3421 35.3 41.0121 35.75ZM27.7321 25.23L37.5521 27.73C37.9021 27.84 38.0921 28.21 37.9721 28.56C37.8621 28.91 37.4921 29.1 37.1421 28.98L27.7321 25.23ZM43.7021 25.34L28.0321 24.32L43.7021 23.3C44.2621 23.3 44.7221 23.76 44.7221 24.32C44.7221 24.88 44.2721 25.34 43.7021 25.34Z" fill="#EA546D"/>
</svg>
