<svg width="112" height="118" viewBox="0 0 112 118" fill="none" xmlns="http://www.w3.org/2000/svg">
<g clip-path="url(#clip0)">
<path d="M70.9645 80.2859C68.8008 80.2859 67.041 82.051 67.041 84.2212V107.286C67.041 109.456 68.8008 111.221 70.9645 111.221H101.378C103.542 111.221 105.302 109.456 105.302 107.286V84.2212C105.302 82.051 103.542 80.2859 101.378 80.2859H70.9645ZM68.9132 84.2224C68.9132 83.0879 69.8335 82.1637 70.9657 82.1637H85.2358V90.1001H81.7678C81.0454 90.1001 80.3698 90.3009 79.7926 90.6497C79.7868 88.5112 78.0504 86.7731 75.9171 86.7731H68.9132V84.2224ZM90.576 91.9779C91.6649 91.9779 92.5512 92.8669 92.5512 93.959V97.5503C92.5512 98.6424 91.6649 99.5314 90.576 99.5314H81.7678C80.6789 99.5314 79.7926 98.6424 79.7926 97.5503V93.959C79.7926 92.8669 80.6789 91.9779 81.7678 91.9779H90.576ZM68.9132 96.693H71.2291C71.7466 96.693 72.1646 96.2725 72.1646 95.7547C72.1646 95.2368 71.7454 94.8163 71.2291 94.8163H68.9132V88.6509H75.9171C77.0224 88.6509 77.9204 89.5528 77.9204 90.6602V94.8163H75.6045C75.087 94.8163 74.669 95.2368 74.669 95.7547C74.669 96.2725 75.0882 96.693 75.6045 96.693H77.9204V100.849C77.9204 101.958 77.0212 102.858 75.9171 102.858H68.9132V96.693ZM85.2358 109.344H70.9645C69.8335 109.344 68.912 108.421 68.912 107.286V104.735H75.916C78.0492 104.735 79.7856 102.997 79.7914 100.858C80.3687 101.207 81.0454 101.408 81.7666 101.408H85.2347L85.2358 109.344ZM103.431 107.286C103.431 108.42 102.51 109.344 101.378 109.344H87.108V101.408H90.576C91.2984 101.408 91.974 101.207 92.5512 100.858C92.5571 102.997 94.2934 104.735 96.4267 104.735H103.431V107.286ZM103.431 102.858H96.4267C95.3214 102.858 94.4234 101.956 94.4234 100.849C94.4234 98.3359 94.4234 98.2889 94.4234 96.693H103.431V102.858ZM103.431 94.8152H94.4234C94.4234 93.2051 94.4234 93.1652 94.4234 90.6591C94.4234 89.5505 95.3226 88.6497 96.4267 88.6497H103.431V94.8152ZM103.431 84.2224V86.7731H96.4267C94.2934 86.7731 92.5571 88.5112 92.5512 90.6497C91.974 90.3009 91.2973 90.1001 90.576 90.1001H87.108V82.1637H101.378C102.509 82.1637 103.431 83.0868 103.431 84.2224Z" fill="#EE0033"/>
<path d="M110.569 75.0272C111.087 75.0272 111.505 74.6068 111.505 74.0889V70.6797C111.505 69.1789 110.922 67.7673 109.863 66.7056L97.9851 54.7905C96.9266 53.7289 95.5193 53.144 94.023 53.144H66.4415C63.3517 53.144 60.8379 55.6654 60.8379 58.7646V111.57C60.8379 114.669 63.3517 117.19 66.4415 117.19H105.902C108.992 117.19 111.506 114.669 111.506 111.57V78.4763C111.506 77.9572 111.087 77.538 110.57 77.538C110.054 77.538 109.635 77.9584 109.635 78.4763V111.57C109.635 113.633 107.961 115.313 105.903 115.313H66.4415C64.3844 115.313 62.7101 113.633 62.7101 111.57V58.7646C62.7101 56.7012 64.3844 55.0219 66.4415 55.0219H94.023C95.0193 55.0219 95.9572 55.4106 96.662 56.1187L108.541 68.0338C109.246 68.7408 109.635 69.6803 109.635 70.6809V74.09C109.634 74.6068 110.053 75.0272 110.569 75.0272Z" fill="#EE0033"/>
<path d="M72.3319 69.2927C72.3097 69.3173 72.2652 69.3303 72.1961 69.3303H70.4188V74.7065C70.4188 74.7946 70.4047 74.8486 70.3766 74.8709C70.3485 74.8932 70.2912 74.9038 70.2034 74.9038H69.4739C69.399 74.9038 69.344 74.8909 69.31 74.8662C69.276 74.8416 69.2585 74.7875 69.2585 74.7065V69.3303H67.5186C67.4495 69.3303 67.4062 69.3173 67.3875 69.2927C67.3687 69.268 67.3594 69.2234 67.3594 69.1612V68.5141C67.3594 68.4448 67.3687 68.399 67.3875 68.3732C67.4062 68.3485 67.4495 68.3356 67.5186 68.3356H72.195C72.264 68.3356 72.3085 68.3485 72.3308 68.3732C72.353 68.3978 72.3636 68.4448 72.3636 68.5141V69.1612C72.3647 69.2234 72.3542 69.268 72.3319 69.2927Z" fill="#EE0033"/>
<path d="M78.2771 74.7064C78.29 74.7498 78.2865 74.7945 78.2678 74.8379C78.249 74.8814 78.2116 74.9037 78.1554 74.9037H77.3229C77.2726 74.9037 77.2234 74.8954 77.173 74.8802C77.1227 74.8649 77.0852 74.8226 77.0606 74.7534L76.6122 73.0176C76.5185 72.6865 76.3839 72.461 76.2094 72.3424C76.035 72.2238 75.7821 72.1639 75.4519 72.1639H74.3478V74.7064C74.3478 74.7945 74.3338 74.8485 74.3057 74.8708C74.2776 74.8931 74.2202 74.9037 74.1324 74.9037H73.4029C73.3339 74.9037 73.2812 74.8908 73.2437 74.8661C73.2062 74.8414 73.1875 74.7874 73.1875 74.7064V68.8522C73.1875 68.6713 73.225 68.5363 73.2999 68.4482C73.3748 68.3601 73.5118 68.3167 73.712 68.3167H75.9191C76.2305 68.3167 76.515 68.3624 76.7703 68.4529C77.0255 68.5433 77.2445 68.6737 77.4248 68.8428C77.6051 69.0119 77.7444 69.2115 77.8404 69.4429C77.9364 69.6742 77.9856 69.9302 77.9856 70.2121C77.9856 70.5808 77.8966 70.9014 77.7187 71.1739C77.5407 71.4463 77.3089 71.6413 77.022 71.7599V71.7975C77.2398 71.8914 77.4025 72.0194 77.5079 72.1827C77.6144 72.3459 77.6976 72.5397 77.7608 72.764L78.2771 74.7064ZM76.8276 70.2684C76.8276 70.1745 76.8136 70.0747 76.7855 69.9678C76.7574 69.8621 76.7059 69.7611 76.6309 69.6672C76.556 69.5732 76.453 69.4969 76.3218 69.437C76.1907 69.3771 76.0198 69.3477 75.8078 69.3477H74.3583V71.2056H75.7423C76.1228 71.2056 76.3979 71.1152 76.5701 70.9331C76.741 70.7535 76.8276 70.5303 76.8276 70.2684Z" fill="#EE0033"/>
<path d="M82.7097 73.4676H80.3341L79.9231 74.7441C79.9044 74.8005 79.8774 74.8416 79.8435 74.8662C79.8095 74.8909 79.7545 74.9038 79.6796 74.9038H78.819C78.7499 74.9038 78.7066 74.8838 78.6879 74.8427C78.6691 74.8016 78.6691 74.757 78.6879 74.7065L80.7087 68.7677C80.7403 68.6738 80.7708 68.5986 80.8024 68.5423C80.834 68.4859 80.8726 68.4424 80.9195 68.4107C80.9663 68.379 81.0202 68.3555 81.0834 68.3403C81.1454 68.325 81.2204 68.3168 81.3082 68.3168H81.7098C81.903 68.3168 82.04 68.3461 82.1219 68.406C82.2027 68.4659 82.2741 68.5857 82.3374 68.7677L84.3676 74.7065C84.3863 74.757 84.3875 74.8016 84.3723 74.8427C84.357 74.8838 84.3149 74.9038 84.2458 74.9038H83.3852C83.3162 74.9038 83.2623 74.8956 83.2213 74.8803C83.1803 74.865 83.1476 74.8228 83.123 74.7535L82.7097 73.4676ZM80.6139 72.4917H82.4099L81.924 70.9156L81.5306 69.5839H81.4838L81.0998 70.8875L80.6139 72.4917ZM81.643 65.981C81.9053 65.981 82.1137 66.0479 82.2694 66.1829C82.4252 66.318 82.5036 66.5 82.5036 66.7314C82.5036 66.8876 82.4626 67.0203 82.3818 67.1307C82.3011 67.2399 82.2074 67.3362 82.1008 67.4172C82.0634 67.4607 82.0165 67.5159 81.9603 67.5816C81.9041 67.6474 81.8702 67.6955 81.8573 67.7272C81.8444 67.7965 81.814 67.8552 81.7636 67.9057C81.7133 67.9562 81.6548 67.9809 81.5857 67.9809H81.492C81.4112 67.9809 81.3457 67.9562 81.2953 67.9057C81.245 67.8552 81.2204 67.7907 81.2204 67.7084C81.2204 67.5205 81.2637 67.3749 81.3515 67.2716C81.4382 67.1682 81.5353 67.0731 81.6419 66.985C81.7543 66.8852 81.8152 66.8042 81.8245 66.7408C81.8339 66.6785 81.8152 66.6363 81.7683 66.6139C81.7215 66.5916 81.6571 66.5869 81.5763 66.5998C81.4955 66.6128 81.4136 66.641 81.3328 66.6844C81.2391 66.7408 81.1548 66.7725 81.0799 66.7784C81.0049 66.7842 80.9429 66.7349 80.8925 66.628C80.8492 66.54 80.8328 66.4613 80.8457 66.3885C80.8586 66.3168 80.889 66.2593 80.9394 66.2147C81.0448 66.1336 81.1618 66.0737 81.2906 66.0361C81.4194 65.9997 81.5365 65.981 81.643 65.981Z" fill="#EE0033"/>
<path d="M87.7144 70.015C87.7144 69.7519 87.7578 69.5112 87.8456 69.2928C87.9322 69.0743 88.0633 68.8852 88.2378 68.7255C88.4123 68.5658 88.6324 68.4425 88.897 68.3544C89.1616 68.2664 89.4719 68.2229 89.8278 68.2229C89.9964 68.2229 90.1709 68.2323 90.3512 68.2511C90.5315 68.2699 90.713 68.2945 90.8933 68.3262C91.0736 68.358 91.2492 68.3979 91.4166 68.4484C91.5852 68.4989 91.7409 68.5553 91.8838 68.6175C91.9341 68.6492 91.9646 68.6774 91.9775 68.702C91.9903 68.7267 91.9833 68.7713 91.9587 68.8336L91.7339 69.4713C91.7093 69.5405 91.6859 69.5781 91.6637 69.584C91.6414 69.5899 91.6063 69.5875 91.556 69.5746C91.2445 69.4689 90.9389 69.3891 90.6392 69.335C90.3394 69.2822 90.062 69.2552 89.8067 69.2552C89.4824 69.2552 89.2471 69.3221 89.1007 69.4572C88.9544 69.5922 88.8806 69.7496 88.8806 69.9304C88.8806 70.0432 88.9075 70.1453 88.9602 70.2358C89.0129 70.3262 89.0984 70.4143 89.2178 70.4988C89.336 70.5834 89.4847 70.6679 89.6615 70.7525C89.8395 70.837 90.0561 70.9298 90.3114 71.0296C90.5795 71.1424 90.8347 71.2563 91.0782 71.3726C91.3218 71.4888 91.536 71.6239 91.7234 71.7801C91.9107 71.9363 92.0582 72.1195 92.1671 72.3285C92.276 72.5375 92.331 72.7924 92.331 73.093C92.331 73.4183 92.2702 73.7013 92.1484 73.9421C92.0266 74.1828 91.8615 74.3813 91.6531 74.5375C91.4447 74.6937 91.1965 74.8111 90.9096 74.8898C90.6228 74.9685 90.3137 75.0072 89.9835 75.0072C89.5901 75.0072 89.1792 74.9696 88.7483 74.8945C88.3186 74.8193 87.9193 74.6819 87.5505 74.4823C87.4627 74.4447 87.444 74.3695 87.4943 74.2568L87.7753 73.6191C87.8186 73.5252 87.8877 73.497 87.9814 73.5346C88.2811 73.6602 88.5914 73.7647 88.9122 73.8493C89.233 73.9338 89.5433 73.9761 89.843 73.9761C90.3172 73.9761 90.6521 73.8951 90.8488 73.7319C91.0455 73.5698 91.1438 73.3655 91.1438 73.1224C91.1438 72.9908 91.1192 72.8757 91.0689 72.7747C91.0185 72.6749 90.9413 72.5822 90.8347 72.4976C90.7282 72.413 90.5947 72.332 90.432 72.2533C90.2692 72.1746 90.076 72.0924 89.8524 72.0044C89.5152 71.8728 89.2131 71.7413 88.945 71.6098C88.6769 71.4782 88.4521 71.3361 88.2718 71.1835C88.0903 71.0308 87.9521 70.8582 87.8549 70.6679C87.7624 70.4765 87.7144 70.2593 87.7144 70.015Z" fill="#EE0033"/>
<path d="M96.7871 73.4674H94.4114L93.9993 74.744C93.9806 74.8003 93.9536 74.8414 93.9197 74.8661C93.8857 74.8908 93.8307 74.9037 93.7558 74.9037H92.8952C92.8261 74.9037 92.7828 74.8837 92.7641 74.8426C92.7453 74.8015 92.7453 74.7569 92.7641 74.7064L94.7849 68.7676C94.8165 68.6737 94.847 68.5985 94.8786 68.5421C94.9102 68.4858 94.9488 68.4423 94.9957 68.4106C95.0425 68.3789 95.0964 68.3554 95.1596 68.3401C95.2217 68.3249 95.2966 68.3167 95.3844 68.3167H95.786C95.9792 68.3167 96.1162 68.346 96.197 68.4059C96.2777 68.4658 96.3492 68.5856 96.4124 68.7676L98.4426 74.7064C98.4614 74.7569 98.4625 74.8015 98.4473 74.8426C98.4321 74.8837 98.3899 74.9037 98.3209 74.9037H97.4603C97.3912 74.9037 97.3374 74.8954 97.2964 74.8802C97.2554 74.8649 97.2226 74.8226 97.198 74.7534L96.7871 73.4674ZM94.6913 72.4915H96.4873L96.0014 70.9155L95.608 69.5838H95.5612L95.1772 70.8873L94.6913 72.4915Z" fill="#EE0033"/>
<path d="M104.41 73.9925C104.41 74.2297 104.358 74.427 104.251 74.5832C104.145 74.7394 103.951 74.8463 103.672 74.9026C103.553 74.9273 103.427 74.9461 103.292 74.959C103.158 74.9719 103.025 74.9825 102.894 74.9919C102.763 75.0013 102.639 75.0071 102.519 75.0107C102.401 75.0142 102.295 75.0154 102.201 75.0154C101.678 75.0154 101.229 74.9672 100.859 74.8697C100.488 74.7734 100.187 74.6114 99.9564 74.3871C99.7258 74.1616 99.5572 73.8621 99.4518 73.4863C99.3453 73.1105 99.2926 72.6455 99.2926 72.0888L99.2832 68.5329C99.2832 68.4518 99.3019 68.399 99.3394 68.3732C99.3769 68.3485 99.4296 68.3356 99.4986 68.3356H100.228C100.315 68.3356 100.373 68.3461 100.401 68.3685C100.429 68.3908 100.444 68.4448 100.444 68.5329V72.1076C100.444 72.4271 100.467 72.7054 100.514 72.9426C100.561 73.1798 100.648 73.3771 100.776 73.5333C100.904 73.6895 101.082 73.8069 101.309 73.8856C101.536 73.9643 101.834 74.0031 102.202 74.0031C102.296 74.0031 102.443 73.9984 102.646 73.989C102.848 73.9796 103.059 73.9526 103.277 73.9091V68.5329C103.277 68.4518 103.294 68.399 103.328 68.3732C103.362 68.3485 103.417 68.3356 103.492 68.3356H104.222C104.308 68.3356 104.362 68.3461 104.381 68.3685C104.4 68.3908 104.409 68.4448 104.409 68.5329V73.9925H104.41Z" fill="#EE0033"/>
<path d="M10.6247 27.9514C8.46094 27.9514 6.70117 29.7165 6.70117 31.8867V54.9513C6.70117 57.1215 8.46094 58.8866 10.6247 58.8866H41.0383C43.2021 58.8866 44.9618 57.1215 44.9618 54.9513V31.8867C44.9618 29.7165 43.2021 27.9514 41.0383 27.9514H10.6247ZM8.57217 31.8867C8.57217 30.7523 9.49245 29.8281 10.6247 29.8281H24.8948V37.7644H21.4268C20.7044 37.7644 20.0288 37.9652 19.4516 38.314C19.4457 36.1755 17.7094 34.4374 15.5761 34.4374H8.57217V31.8867ZM30.235 39.6422C31.3239 39.6422 32.2102 40.5312 32.2102 41.6234V45.2146C32.2102 46.3068 31.3239 47.1958 30.235 47.1958H21.4268C20.3379 47.1958 19.4516 46.3068 19.4516 45.2146V41.6234C19.4516 40.5312 20.3379 39.6422 21.4268 39.6422H30.235ZM8.57217 44.3585H10.8881C11.4056 44.3585 11.8236 43.9381 11.8236 43.4202C11.8236 42.9011 11.4044 42.4819 10.8881 42.4819H8.57217V36.3164H15.5761C16.6814 36.3164 17.5794 37.2183 17.5794 38.3258V42.4819H15.2635C14.746 42.4819 14.328 42.9023 14.328 43.4202C14.328 43.9392 14.7472 44.3585 15.2635 44.3585H17.5794V48.5146C17.5794 49.6232 16.6802 50.5239 15.5761 50.5239H8.57217V44.3585ZM24.8948 57.01H10.6247C9.49362 57.01 8.57217 56.0869 8.57217 54.9513V52.4006H15.5761C17.7094 52.4006 19.4457 50.6625 19.4516 48.524C20.0288 48.8728 20.7056 49.0736 21.4268 49.0736H24.8948V57.01ZM43.0897 54.9513C43.0897 56.0857 42.1694 57.01 41.0372 57.01H26.767V49.0736H30.235C30.9574 49.0736 31.633 48.8728 32.2102 48.524C32.2161 50.6625 33.9524 52.4006 36.0857 52.4006H43.0897V54.9513ZM43.0897 50.5228H36.0857C34.9804 50.5228 34.0824 49.6208 34.0824 48.5134C34.0824 46.0003 34.0824 45.9533 34.0824 44.3573H43.0897V50.5228ZM43.0897 42.4807H34.0824C34.0824 40.8706 34.0824 40.8307 34.0824 38.3246C34.0824 37.216 34.9816 36.3153 36.0857 36.3153H43.0897V42.4807ZM43.0897 31.8867V34.4374H36.0857C33.9524 34.4374 32.2161 36.1755 32.2102 38.314C31.633 37.9652 30.9563 37.7644 30.235 37.7644H26.767V29.8281H41.0372C42.1694 29.8292 43.0897 30.7523 43.0897 31.8867Z" fill="#EE0033"/>
<path d="M50.2275 22.6927C50.745 22.6927 51.1629 22.2723 51.1629 21.7544V18.3452C51.1629 16.8444 50.5799 15.4328 49.5214 14.3712L37.6433 2.45603C36.5848 1.39441 35.1787 0.80957 33.6812 0.80957H6.09973C3.00988 0.80957 0.496094 3.33094 0.496094 6.43009V59.2355C0.496094 62.3347 3.00988 64.856 6.09973 64.856H45.5605C48.6503 64.856 51.1641 62.3347 51.1641 59.2355V26.1418C51.1641 25.6228 50.745 25.2035 50.2286 25.2035C49.7111 25.2035 49.2931 25.6239 49.2931 26.1418V59.2355C49.2931 61.2989 47.6188 62.9782 45.5617 62.9782H6.09973C4.04256 62.9782 2.36826 61.2989 2.36826 59.2355V6.43009C2.36826 4.36673 4.04256 2.68738 6.09973 2.68738H33.6812C34.6775 2.68738 35.6154 3.0761 36.3202 3.78424L48.1996 15.6994C48.9044 16.4063 49.2931 17.3458 49.2931 18.3464V21.7556C49.292 22.2723 49.7111 22.6927 50.2275 22.6927Z" fill="#EE0033"/>
<path d="M10.6165 18.3357C10.6002 18.3545 10.565 18.3651 10.5123 18.3651H9.14831V22.4918C9.14831 22.5587 9.13777 22.601 9.11553 22.6174C9.09445 22.6339 9.04996 22.6421 8.98322 22.6421H8.42239C8.36502 22.6421 8.32287 22.6327 8.29711 22.6127C8.27018 22.5939 8.2573 22.5528 8.2573 22.4906V18.3639H6.92255C6.86986 18.3639 6.83591 18.3545 6.82186 18.3345C6.80781 18.3157 6.80078 18.2817 6.80078 18.2335V17.7368C6.80078 17.6839 6.80781 17.6475 6.82186 17.6287C6.83591 17.6099 6.86986 17.5994 6.92255 17.5994H10.5135C10.5662 17.5994 10.6013 17.6088 10.6177 17.6287C10.6341 17.6475 10.6423 17.6839 10.6423 17.7368V18.2335C10.6423 18.2828 10.6329 18.3169 10.6165 18.3357Z" fill="#EE0033"/>
<path d="M15.1434 22.4919C15.1528 22.526 15.1504 22.5588 15.1364 22.5929C15.1223 22.627 15.0931 22.6434 15.0497 22.6434H14.4105C14.3718 22.6434 14.3344 22.6375 14.2957 22.6258C14.2571 22.614 14.229 22.5812 14.2091 22.5283L13.8649 21.1954C13.7934 20.9406 13.6904 20.7679 13.5558 20.6763C13.4211 20.5847 13.2279 20.5389 12.9739 20.5389H12.1262V22.4907C12.1262 22.5577 12.1156 22.6 12.0934 22.6164C12.0723 22.6328 12.0278 22.6411 11.9611 22.6411H11.4014C11.3487 22.6411 11.3077 22.6317 11.2796 22.6117C11.2504 22.5929 11.2363 22.5518 11.2363 22.4896V17.9953C11.2363 17.8555 11.2656 17.7533 11.323 17.6852C11.3803 17.6183 11.4857 17.5842 11.6391 17.5842H13.3333C13.5722 17.5842 13.7899 17.6195 13.9866 17.6887C14.1833 17.758 14.3508 17.8579 14.4889 17.9882C14.6282 18.1174 14.7336 18.2712 14.8086 18.4497C14.8823 18.6271 14.9198 18.8244 14.9198 19.0404C14.9198 19.3235 14.8519 19.5701 14.7149 19.7791C14.5779 19.9882 14.3999 20.1385 14.1798 20.2289V20.2583C14.3472 20.3299 14.4714 20.4285 14.5533 20.553C14.6341 20.6775 14.6997 20.8267 14.7477 20.9993L15.1434 22.4919ZM14.0299 19.0851C14.0299 19.0134 14.0194 18.9359 13.9972 18.8549C13.9761 18.7739 13.9363 18.6964 13.8789 18.6247C13.8215 18.5531 13.7419 18.4944 13.6424 18.4486C13.5417 18.4028 13.4106 18.3804 13.2478 18.3804H12.1344V19.8061H13.1975C13.489 19.8061 13.7009 19.7368 13.8332 19.5971C13.9644 19.4573 14.0299 19.2871 14.0299 19.0851Z" fill="#EE0033"/>
<path d="M18.5121 21.5407H16.6879L16.3718 22.5201C16.3578 22.5636 16.3367 22.5941 16.3109 22.6141C16.284 22.6328 16.243 22.6434 16.1856 22.6434H15.5253C15.4726 22.6434 15.4387 22.6281 15.4246 22.5964C15.4105 22.5647 15.4105 22.5307 15.4246 22.4919L16.976 17.933C16.9994 17.8614 17.024 17.8039 17.0474 17.7604C17.0708 17.7169 17.1012 17.6841 17.1375 17.6594C17.1738 17.6359 17.2148 17.6171 17.2628 17.6054C17.3108 17.5936 17.3682 17.5878 17.4349 17.5878H17.744C17.8927 17.5878 17.9981 17.6101 18.0602 17.6559C18.1222 17.7017 18.1772 17.7945 18.2252 17.933L19.7836 22.4919C19.7977 22.5307 19.7989 22.5647 19.7871 22.5964C19.7754 22.6281 19.7427 22.6434 19.69 22.6434H19.0296C18.9769 22.6434 18.9348 22.6375 18.9043 22.6258C18.8727 22.6141 18.8481 22.5812 18.8294 22.5283L18.5121 21.5407ZM16.9034 20.7926H18.2826L17.9091 19.583L17.607 18.5601H17.5707L17.2769 19.5619L16.9034 20.7926ZM17.6925 15.7933C17.8939 15.7933 18.0543 15.845 18.1737 15.9484C18.2932 16.0517 18.3529 16.1926 18.3529 16.3699C18.3529 16.4897 18.3213 16.5919 18.2592 16.6765C18.1971 16.761 18.1246 16.8338 18.0438 16.8961C18.0145 16.9301 17.9794 16.9712 17.9361 17.0217C17.8927 17.0722 17.867 17.1098 17.8576 17.1333C17.8482 17.1861 17.8236 17.2319 17.7862 17.2707C17.7475 17.3094 17.7019 17.3282 17.6492 17.3282H17.5778C17.5157 17.3282 17.4654 17.3094 17.4267 17.2707C17.3881 17.2319 17.3694 17.1814 17.3694 17.1192C17.3694 16.9747 17.4033 16.8632 17.4701 16.7845C17.5368 16.7058 17.6117 16.6318 17.6925 16.5649C17.7792 16.4886 17.8248 16.4251 17.833 16.3782C17.84 16.33 17.826 16.2983 17.7897 16.2807C17.7534 16.2643 17.7042 16.2607 17.6422 16.2701C17.5801 16.2795 17.5181 16.3018 17.456 16.3347C17.3846 16.3782 17.319 16.4017 17.2616 16.4064C17.2043 16.4111 17.1563 16.3723 17.1176 16.2913C17.0837 16.2243 17.072 16.1633 17.0813 16.1081C17.0907 16.0529 17.1153 16.0082 17.1528 15.9754C17.2335 15.9131 17.3237 15.8673 17.4221 15.838C17.5216 15.8074 17.6117 15.7933 17.6925 15.7933Z" fill="#EE0033"/>
<path d="M25.7552 18.3357C25.7388 18.3545 25.7037 18.3651 25.651 18.3651H24.287V22.4918C24.287 22.5587 24.2764 22.601 24.2542 22.6174C24.2331 22.6339 24.1886 22.6421 24.1219 22.6421H23.5622C23.5049 22.6421 23.4627 22.6327 23.437 22.6127C23.41 22.5939 23.3971 22.5528 23.3971 22.4906V18.3639H22.0612C22.0085 18.3639 21.9746 18.3545 21.9605 18.3345C21.9465 18.3157 21.9395 18.2817 21.9395 18.2335V17.7368C21.9395 17.6839 21.9465 17.6475 21.9605 17.6287C21.9746 17.6099 22.0085 17.5994 22.0612 17.5994H25.6522C25.7049 17.5994 25.74 17.6088 25.7564 17.6287C25.7728 17.6475 25.781 17.6839 25.781 17.7368V18.2335C25.781 18.2828 25.7716 18.3169 25.7552 18.3357Z" fill="#EE0033"/>
<path d="M30.2821 22.4919C30.2914 22.526 30.2891 22.5588 30.2751 22.5929C30.261 22.627 30.2317 22.6434 30.1884 22.6434H29.5491C29.5105 22.6434 29.473 22.6375 29.4344 22.6258C29.3958 22.614 29.3677 22.5812 29.3478 22.5283L29.0035 21.1954C28.9321 20.9406 28.8291 20.7679 28.6944 20.6763C28.5598 20.5847 28.3666 20.5389 28.1125 20.5389H27.2648V22.4907C27.2648 22.5577 27.2543 22.6 27.2321 22.6164C27.211 22.6328 27.1665 22.6411 27.0997 22.6411H26.5401C26.4874 22.6411 26.4464 22.6317 26.4183 22.6117C26.389 22.5929 26.375 22.5518 26.375 22.4896V17.9953C26.375 17.8555 26.4043 17.7533 26.4616 17.6852C26.519 17.6183 26.6244 17.5842 26.7778 17.5842H28.472C28.7108 17.5842 28.9286 17.6195 29.1253 17.6887C29.322 17.758 29.4894 17.8579 29.6276 17.9882C29.7669 18.1174 29.8723 18.2712 29.9472 18.4497C30.021 18.6271 30.0584 18.8244 30.0584 19.0404C30.0584 19.3235 29.9905 19.5701 29.8536 19.7791C29.7166 19.9882 29.5386 20.1385 29.3185 20.2289V20.2583C29.4859 20.3299 29.61 20.4285 29.692 20.553C29.7728 20.6775 29.8383 20.8267 29.8863 20.9993L30.2821 22.4919ZM29.1686 19.0851C29.1686 19.0134 29.1581 18.9359 29.1358 18.8549C29.1148 18.7739 29.0749 18.6964 29.0176 18.6247C28.9602 18.5531 28.8806 18.4944 28.7811 18.4486C28.6804 18.4028 28.5492 18.3804 28.3865 18.3804H27.273V19.8061H28.3361C28.6277 19.8061 28.8396 19.7368 28.9719 19.5971C29.103 19.4573 29.1686 19.2871 29.1686 19.0851Z" fill="#EE0033"/>
<path d="M34.9145 21.9447C34.9145 22.1267 34.8735 22.2782 34.7927 22.398C34.7108 22.5178 34.5632 22.6 34.3478 22.6434C34.2565 22.6622 34.1593 22.6775 34.0574 22.6869C33.9544 22.6963 33.8525 22.7045 33.7518 22.7116C33.6512 22.7186 33.5551 22.7233 33.465 22.7257C33.3737 22.728 33.2929 22.7292 33.2203 22.7292C32.8187 22.7292 32.4745 22.6916 32.1899 22.6176C31.9054 22.5436 31.6736 22.4191 31.4968 22.2465C31.32 22.0739 31.19 21.8437 31.1093 21.5548C31.0273 21.2671 30.9875 20.9089 30.9875 20.4814L30.9805 17.751C30.9805 17.6888 30.9945 17.6477 31.0238 17.6289C31.0531 17.6101 31.0929 17.5995 31.1456 17.5995H31.7052C31.772 17.5995 31.8164 17.6078 31.8375 17.6242C31.8586 17.6406 31.8703 17.6829 31.8703 17.7499V20.4944C31.8703 20.7398 31.8879 20.9535 31.9242 21.1356C31.9605 21.3176 32.0272 21.4691 32.1256 21.5889C32.2239 21.7087 32.3597 21.7991 32.5353 21.859C32.7098 21.9189 32.9381 21.9494 33.2215 21.9494C33.2929 21.9494 33.4064 21.9459 33.5622 21.9388C33.7179 21.9318 33.8795 21.9118 34.0469 21.8778V17.751C34.0469 17.6888 34.0598 17.6477 34.0867 17.6289C34.1125 17.6101 34.1546 17.5995 34.212 17.5995H34.3841C34.4801 17.5561 34.5574 17.5162 34.6171 17.4774C34.6768 17.4387 34.7248 17.3964 34.7611 17.3482C34.7974 17.3001 34.822 17.2437 34.836 17.1791C34.8501 17.1145 34.8571 17.0335 34.8571 16.9384C34.8571 16.828 34.8735 16.747 34.9075 16.6976C34.9414 16.6471 35.0011 16.6248 35.0866 16.6295H35.2154C35.2821 16.6295 35.336 16.6542 35.377 16.7012C35.4179 16.7493 35.4402 16.8186 35.4449 16.9102C35.4449 17.0687 35.4285 17.205 35.3945 17.3212C35.3606 17.4363 35.3161 17.5373 35.2622 17.6242C35.2072 17.7111 35.144 17.7851 35.0714 17.8473C35.0187 17.8955 34.966 17.9389 34.9133 17.9765V21.9447H34.9145Z" fill="#EE0033"/>
<path d="M40.1856 20.1009C40.1856 20.9359 40.0029 21.5818 39.6365 22.0386C39.27 22.4943 38.7162 22.7233 37.9739 22.7233C37.2515 22.7233 36.7105 22.5036 36.3511 22.0644C35.9916 21.6252 35.8125 20.9805 35.8125 20.1303C35.8125 19.7169 35.8664 19.3505 35.9741 19.0287C36.0818 18.7069 36.2328 18.4345 36.426 18.2113C36.6204 17.9882 36.8499 17.8179 37.1156 17.7005C37.3814 17.5831 37.6741 17.5243 37.9949 17.5243C38.3544 17.5243 38.6705 17.5842 38.9433 17.704C39.0674 17.7569 39.1822 17.8214 39.2875 17.899C39.3215 17.8802 39.3496 17.8602 39.3742 17.8414C39.4362 17.8027 39.4854 17.7604 39.5217 17.7122C39.558 17.6641 39.5826 17.6077 39.5966 17.5431C39.6107 17.4785 39.6177 17.3975 39.6177 17.3024C39.6177 17.192 39.6341 17.111 39.6681 17.0616C39.702 17.0111 39.7617 16.9888 39.8472 16.9935H39.976C40.0427 16.9935 40.0966 17.0182 40.1376 17.0652C40.1786 17.1133 40.2008 17.1826 40.2055 17.2742C40.2055 17.4327 40.1891 17.569 40.1551 17.6852C40.1212 17.8003 40.0767 17.9013 40.0228 17.9882C39.9678 18.0751 39.9046 18.1491 39.832 18.2113C39.7887 18.2501 39.7453 18.2853 39.7032 18.3194C39.8519 18.5214 39.9643 18.7586 40.0404 19.0322C40.1376 19.3446 40.1856 19.7016 40.1856 20.1009ZM39.2805 20.1291C39.2805 19.8895 39.263 19.6593 39.2267 19.4409C39.1904 19.2225 39.126 19.0287 39.0323 18.8608C38.9386 18.6928 38.8098 18.5589 38.6448 18.4615C38.4797 18.3628 38.2677 18.3135 38.009 18.3135C37.7889 18.3135 37.5969 18.3605 37.4341 18.4544C37.2714 18.5484 37.1355 18.6764 37.0278 18.8396C36.9201 19.0029 36.8393 19.1919 36.7878 19.4045C36.7351 19.6182 36.7094 19.8472 36.7094 20.0927C36.7094 20.371 36.7293 20.6235 36.7702 20.849C36.8112 21.0744 36.8815 21.2682 36.9822 21.4291C37.0829 21.59 37.2152 21.7133 37.3803 21.8002C37.5453 21.8871 37.7502 21.9294 37.9938 21.9294C38.2385 21.9294 38.4422 21.8789 38.6073 21.7779C38.7724 21.6769 38.9059 21.5442 39.0054 21.3786C39.1061 21.213 39.1763 21.0216 39.2173 20.8055C39.2606 20.5906 39.2805 20.3651 39.2805 20.1291ZM37.6285 17.0029C37.6039 16.9736 37.5922 16.9512 37.5922 16.9348C37.5922 16.9184 37.6109 16.8925 37.6495 16.8596L38.7267 16.0317C38.7607 16.0082 38.7888 15.9941 38.8134 15.9918C38.8368 15.9894 38.8637 16.0071 38.8918 16.0458L39.2864 16.5426C39.3344 16.6001 39.3297 16.6436 39.2723 16.6717L37.9657 17.3059C37.9364 17.32 37.913 17.327 37.8942 17.327C37.8755 17.327 37.8533 17.3129 37.8299 17.2836L37.6285 17.0029Z" fill="#EE0033"/>
<path d="M43.2722 21.9082C43.4876 21.9082 43.6866 21.8835 43.8681 21.833C44.0496 21.7825 44.2205 21.7262 44.3774 21.6639C44.4442 21.6346 44.491 21.6299 44.5179 21.6498C44.5437 21.6686 44.5648 21.698 44.5788 21.7367L44.765 22.1478C44.7989 22.2147 44.8106 22.2617 44.8013 22.2887C44.7919 22.3157 44.7673 22.3404 44.7298 22.3638C44.4851 22.5083 44.2252 22.6046 43.9466 22.6516C43.6691 22.6997 43.4009 22.7232 43.1422 22.7232C42.4139 22.7232 41.8648 22.5118 41.4936 22.089C41.1225 21.6663 40.9375 21.0298 40.9375 20.1807C40.9375 19.7826 40.9925 19.4197 41.1026 19.0932C41.2126 18.7668 41.366 18.4884 41.5627 18.2583C41.7594 18.0281 41.9959 17.8484 42.2734 17.7216C42.5509 17.5947 42.86 17.5302 43.1996 17.5302C43.415 17.5302 43.6363 17.5489 43.8634 17.5877C44.0906 17.6264 44.3224 17.7075 44.5566 17.8331C44.5952 17.8519 44.6198 17.8754 44.6315 17.9013C44.6432 17.9283 44.635 17.9741 44.6069 18.0422L44.4055 18.4603C44.3868 18.5084 44.3669 18.5389 44.3482 18.5542C44.3294 18.5683 44.2931 18.5636 44.2404 18.5401C44.0824 18.4779 43.9208 18.4285 43.7557 18.3921C43.5906 18.3557 43.4173 18.3381 43.2347 18.3381C42.9958 18.3381 42.7886 18.3886 42.613 18.4896C42.4385 18.5906 42.2945 18.7257 42.1821 18.8971C42.0697 19.0674 41.9854 19.2647 41.9304 19.4878C41.8753 19.711 41.8472 19.9423 41.8472 20.183C41.8472 20.4226 41.8695 20.6481 41.9152 20.856C41.9608 21.065 42.0369 21.247 42.1446 21.4032C42.2524 21.5594 42.3987 21.6827 42.5825 21.7743C42.771 21.8624 42.9994 21.9082 43.2722 21.9082Z" fill="#EE0033"/>
<path d="M48.2552 106.448H7.38736C5.55848 106.448 4.07617 105.002 4.07617 103.217V72.9537C4.07617 71.7272 5.05297 70.6827 6.30902 70.6396C7.62797 70.5944 8.71184 71.6228 8.71184 72.8999V100.848C8.71184 101.443 9.20631 101.925 9.81557 101.925H48.3104C49.6183 101.925 50.6734 102.982 50.6271 104.269C50.5818 105.495 49.5112 106.448 48.2552 106.448Z" fill="#EE0033"/>
<path d="M45.2578 98.991V109.428C45.2578 109.949 45.8172 110.221 46.166 109.872L51.3467 104.674C51.5834 104.437 51.5834 104.027 51.3485 103.789L46.1678 98.5491C45.8199 98.197 45.2578 98.4693 45.2578 98.991Z" fill="#EE0033"/>
</g>
<defs>
<clipPath id="clip0">
<rect width="111.01" height="116.381" fill="white" transform="translate(0.496094 0.80957)"/>
</clipPath>
</defs>
</svg>
