<svg width="264" height="264" viewBox="0 0 264 264" fill="none" xmlns="http://www.w3.org/2000/svg">
<g clip-path="url(#clip0)">
<path d="M0 7.99999C0 3.58171 3.58172 0 8 0H256C260.418 0 264 3.58172 264 8V264H0V7.99999Z" fill="#FBFBFB"/>
<rect width="264" height="264" fill="url(#paint0_linear)"/>
<path d="M155.338 53.6665L47.8455 89.4182C18.8388 99.1364 3.80655 128.906 14.2574 155.909L19.4317 169.245L28.0472 191.495L64.421 285.343C64.421 285.343 75.0022 231.03 135.911 210.648L207.031 187.073C236.038 177.355 251.07 147.586 240.619 120.583L226.83 84.9965C216.353 57.9936 184.345 43.972 155.338 53.6665Z" fill="#EE0033"/>
<path d="M176.081 16.0719L35.4334 63.478C-2.51998 76.3642 -22.1882 115.838 -8.51338 151.643L-1.74272 169.327L9.53066 198.83L57.1256 323.271C57.1256 323.271 70.9694 251.253 150.665 224.226L243.721 192.967C281.674 180.081 301.342 140.607 287.668 104.802L269.624 57.6149C255.916 21.8095 214.034 3.21705 176.081 16.0719Z" stroke="#EE0033" stroke-width="2"/>
<path d="M162.158 38.5136L40.7932 79.4203C8.04321 90.5398 -8.92851 124.602 2.8715 155.498L8.7139 170.757L18.4417 196.216L59.5113 303.596C59.5113 303.596 71.4572 241.451 140.226 218.13L220.524 191.156C253.274 180.037 270.246 145.975 258.446 115.078L242.876 74.3611C231.047 43.4646 194.908 27.4212 162.158 38.5136Z" stroke="#EE0033" stroke-width="2"/>
<g filter="url(#filter0_d)">
<path d="M57.14 107.61H57.38L58.85 101.73L61.13 93.48C61.19 93.26 61.3 93.12 61.46 93.06C61.62 93 61.82 92.97 62.06 92.97H66.71C66.95 92.97 67.08 93.04 67.1 93.18C67.14 93.32 67.14 93.44 67.1 93.54L60.92 112.14C60.76 112.6 60.59 112.96 60.41 113.22C60.25 113.46 60.06 113.64 59.84 113.76C59.64 113.88 59.4 113.95 59.12 113.97C58.86 113.99 58.56 114 58.22 114H56.06C55.72 114 55.42 113.98 55.16 113.94C54.9 113.9 54.67 113.81 54.47 113.67C54.27 113.53 54.09 113.34 53.93 113.1C53.79 112.84 53.65 112.51 53.51 112.11L47.36 93.54C47.32 93.38 47.32 93.25 47.36 93.15C47.42 93.03 47.55 92.97 47.75 92.97H52.28C52.62 92.97 52.84 93.03 52.94 93.15C53.06 93.25 53.16 93.41 53.24 93.63L55.58 101.67L57.14 107.61ZM75.9692 113.37C75.9692 113.61 75.9292 113.78 75.8492 113.88C75.7892 113.96 75.5892 114 75.2492 114H70.9892C70.5292 114 70.2992 113.79 70.2992 113.37V93.63C70.2992 93.21 70.5292 93 70.9892 93H75.2492C75.5892 93 75.7892 93.05 75.8492 93.15C75.9292 93.23 75.9692 93.39 75.9692 93.63V113.37ZM96.7334 113.31C96.7334 113.77 96.5434 114 96.1634 114H86.8934C85.6934 114 84.7134 113.83 83.9534 113.49C83.2134 113.15 82.6234 112.71 82.1834 112.17C81.7634 111.61 81.4734 110.99 81.3134 110.31C81.1534 109.63 81.0734 108.96 81.0734 108.3V98.7C81.0734 97.98 81.1734 97.28 81.3734 96.6C81.5734 95.9 81.8934 95.29 82.3334 94.77C82.7934 94.23 83.3934 93.8 84.1334 93.48C84.8734 93.16 85.7734 93 86.8334 93H95.6834C95.9234 93 96.0734 93.04 96.1334 93.12C96.2134 93.18 96.2534 93.38 96.2534 93.72V97.11C96.2534 97.37 96.2134 97.55 96.1334 97.65C96.0534 97.73 95.9034 97.77 95.6834 97.77H88.5434C88.1434 97.77 87.8234 97.83 87.5834 97.95C87.3434 98.05 87.1634 98.18 87.0434 98.34C86.9234 98.5 86.8434 98.68 86.8034 98.88C86.7634 99.08 86.7434 99.28 86.7434 99.48V100.74H94.7834C95.0234 100.74 95.1734 100.78 95.2334 100.86C95.3134 100.94 95.3534 101.15 95.3534 101.49V104.61C95.3534 105.07 95.1634 105.3 94.7834 105.3H86.7434V107.55C86.7434 107.93 86.7834 108.23 86.8634 108.45C86.9634 108.67 87.0934 108.84 87.2534 108.96C87.4134 109.06 87.6034 109.13 87.8234 109.17C88.0434 109.19 88.2834 109.2 88.5434 109.2H96.1634C96.4034 109.2 96.5534 109.24 96.6134 109.32C96.6934 109.38 96.7334 109.58 96.7334 109.92V113.31ZM115.299 97.08C115.299 97.54 115.089 97.77 114.669 97.77H109.539V113.37C109.539 113.61 109.499 113.78 109.419 113.88C109.359 113.96 109.159 114 108.819 114H104.559C104.099 114 103.869 113.79 103.869 113.37V97.77H98.8585C98.4385 97.77 98.2285 97.54 98.2285 97.08V93.72C98.2285 93.38 98.2685 93.18 98.3485 93.12C98.4485 93.04 98.6185 93 98.8585 93H114.669C114.909 93 115.069 93.04 115.149 93.12C115.249 93.18 115.299 93.38 115.299 93.72V97.08ZM133.115 97.08C133.115 97.54 132.905 97.77 132.485 97.77H127.355V113.37C127.355 113.61 127.315 113.78 127.235 113.88C127.175 113.96 126.975 114 126.635 114H122.375C121.915 114 121.685 113.79 121.685 113.37V97.77H116.675C116.255 97.77 116.045 97.54 116.045 97.08V93.72C116.045 93.38 116.085 93.18 116.165 93.12C116.265 93.04 116.435 93 116.675 93H132.485C132.725 93 132.885 93.04 132.965 93.12C133.065 93.18 133.115 93.38 133.115 93.72V97.08ZM151.471 113.31C151.471 113.77 151.281 114 150.901 114H141.631C140.431 114 139.451 113.83 138.691 113.49C137.951 113.15 137.361 112.71 136.921 112.17C136.501 111.61 136.211 110.99 136.051 110.31C135.891 109.63 135.811 108.96 135.811 108.3V98.7C135.811 97.98 135.911 97.28 136.111 96.6C136.311 95.9 136.631 95.29 137.071 94.77C137.531 94.23 138.131 93.8 138.871 93.48C139.611 93.16 140.511 93 141.571 93H150.421C150.661 93 150.811 93.04 150.871 93.12C150.951 93.18 150.991 93.38 150.991 93.72V97.11C150.991 97.37 150.951 97.55 150.871 97.65C150.791 97.73 150.641 97.77 150.421 97.77H143.281C142.881 97.77 142.561 97.83 142.321 97.95C142.081 98.05 141.901 98.18 141.781 98.34C141.661 98.5 141.581 98.68 141.541 98.88C141.501 99.08 141.481 99.28 141.481 99.48V100.74H149.521C149.761 100.74 149.911 100.78 149.971 100.86C150.051 100.94 150.091 101.15 150.091 101.49V104.61C150.091 105.07 149.901 105.3 149.521 105.3H141.481V107.55C141.481 107.93 141.521 108.23 141.601 108.45C141.701 108.67 141.831 108.84 141.991 108.96C142.151 109.06 142.341 109.13 142.561 109.17C142.781 109.19 143.021 109.2 143.281 109.2H150.901C151.141 109.2 151.291 109.24 151.351 109.32C151.431 109.38 151.471 109.58 151.471 109.92V113.31ZM160.766 114C159.566 114 158.586 113.83 157.826 113.49C157.086 113.15 156.496 112.71 156.056 112.17C155.636 111.61 155.346 110.99 155.186 110.31C155.026 109.63 154.946 108.96 154.946 108.3L154.916 93.6C154.916 93.18 155.146 92.97 155.606 92.97H159.896C160.236 92.97 160.436 93.02 160.496 93.12C160.576 93.2 160.616 93.36 160.616 93.6V107.55C160.616 107.93 160.656 108.23 160.736 108.45C160.836 108.67 160.966 108.84 161.126 108.96C161.286 109.06 161.476 109.13 161.696 109.17C161.916 109.19 162.156 109.2 162.416 109.2H169.526C169.766 109.2 169.926 109.24 170.006 109.32C170.106 109.38 170.156 109.58 170.156 109.92V113.31C170.156 113.77 169.946 114 169.526 114H160.766ZM185.859 97.08C185.859 97.54 185.649 97.77 185.229 97.77H180.099V113.37C180.099 113.61 180.059 113.78 179.979 113.88C179.919 113.96 179.719 114 179.379 114H175.119C174.659 114 174.429 113.79 174.429 113.37V97.77H169.419C168.999 97.77 168.789 97.54 168.789 97.08V93.72C168.789 93.38 168.829 93.18 168.909 93.12C169.009 93.04 169.179 93 169.419 93H185.229C185.469 93 185.629 93.04 185.709 93.12C185.809 93.18 185.859 93.38 185.859 93.72V97.08ZM196.445 107.61H196.685L198.155 101.73L200.435 93.48C200.495 93.26 200.605 93.12 200.765 93.06C200.925 93 201.125 92.97 201.365 92.97H206.015C206.255 92.97 206.385 93.04 206.405 93.18C206.445 93.32 206.445 93.44 206.405 93.54L200.225 112.14C200.065 112.6 199.895 112.96 199.715 113.22C199.555 113.46 199.365 113.64 199.145 113.76C198.945 113.88 198.705 113.95 198.425 113.97C198.165 113.99 197.865 114 197.525 114H195.365C195.025 114 194.725 113.98 194.465 113.94C194.205 113.9 193.975 113.81 193.775 113.67C193.575 113.53 193.395 113.34 193.235 113.1C193.095 112.84 192.955 112.51 192.815 112.11L186.665 93.54C186.625 93.38 186.625 93.25 186.665 93.15C186.725 93.03 186.855 92.97 187.055 92.97H191.585C191.925 92.97 192.145 93.03 192.245 93.15C192.365 93.25 192.465 93.41 192.545 93.63L194.885 101.67L196.445 107.61ZM216.398 106.44C216.398 106.9 216.198 107.13 215.798 107.13H207.698C207.298 107.13 207.098 106.9 207.098 106.44V103.47C207.098 103.13 207.138 102.93 207.218 102.87C207.298 102.79 207.458 102.75 207.698 102.75H215.798C216.038 102.75 216.198 102.79 216.278 102.87C216.358 102.93 216.398 103.13 216.398 103.47V106.44ZM54.92 147.63V158.37C54.92 158.61 54.88 158.78 54.8 158.88C54.74 158.96 54.54 159 54.2 159H49.94C49.48 159 49.25 158.79 49.25 158.37V140.37C49.25 139.43 49.4 138.8 49.7 138.48C50.02 138.16 50.6 138 51.44 138H53C53.3 138 53.56 138.02 53.78 138.06C54 138.08 54.2 138.14 54.38 138.24C54.58 138.32 54.77 138.45 54.95 138.63C55.13 138.81 55.33 139.05 55.55 139.35L59.84 145.77L62.18 149.43H62.39V138.63C62.39 138.39 62.42 138.23 62.48 138.15C62.56 138.05 62.77 138 63.11 138H67.37C67.83 138 68.06 138.21 68.06 138.63V156.63C68.06 157.31 67.92 157.88 67.64 158.34C67.36 158.78 66.77 159 65.87 159H64.31C64.03 159 63.77 158.99 63.53 158.97C63.31 158.93 63.1 158.87 62.9 158.79C62.72 158.69 62.53 158.55 62.33 158.37C62.15 158.19 61.96 157.95 61.76 157.65L57.53 151.35L55.13 147.63H54.92ZM88.3803 158.31C88.3803 158.77 88.1903 159 87.8103 159H78.5403C77.3403 159 76.3603 158.83 75.6003 158.49C74.8603 158.15 74.2703 157.71 73.8303 157.17C73.4103 156.61 73.1203 155.99 72.9603 155.31C72.8003 154.63 72.7203 153.96 72.7203 153.3V143.7C72.7203 142.98 72.8203 142.28 73.0203 141.6C73.2203 140.9 73.5403 140.29 73.9803 139.77C74.4403 139.23 75.0403 138.8 75.7803 138.48C76.5203 138.16 77.4203 138 78.4803 138H87.3303C87.5703 138 87.7203 138.04 87.7803 138.12C87.8603 138.18 87.9003 138.38 87.9003 138.72V142.11C87.9003 142.37 87.8603 142.55 87.7803 142.65C87.7003 142.73 87.5503 142.77 87.3303 142.77H80.1903C79.7903 142.77 79.4703 142.83 79.2303 142.95C78.9903 143.05 78.8103 143.18 78.6903 143.34C78.5703 143.5 78.4903 143.68 78.4503 143.88C78.4103 144.08 78.3903 144.28 78.3903 144.48V145.74H86.4303C86.6703 145.74 86.8203 145.78 86.8803 145.86C86.9603 145.94 87.0003 146.15 87.0003 146.49V149.61C87.0003 150.07 86.8103 150.3 86.4303 150.3H78.3903V152.55C78.3903 152.93 78.4303 153.23 78.5103 153.45C78.6103 153.67 78.7403 153.84 78.9003 153.96C79.0603 154.06 79.2503 154.13 79.4703 154.17C79.6903 154.19 79.9303 154.2 80.1903 154.2H87.8103C88.0503 154.2 88.2003 154.24 88.2603 154.32C88.3403 154.38 88.3803 154.58 88.3803 154.92V158.31ZM106.945 142.08C106.945 142.54 106.735 142.77 106.315 142.77H101.185V158.37C101.185 158.61 101.145 158.78 101.065 158.88C101.005 158.96 100.805 159 100.465 159H96.2054C95.7454 159 95.5154 158.79 95.5154 158.37V142.77H90.5054C90.0854 142.77 89.8754 142.54 89.8754 142.08V138.72C89.8754 138.38 89.9154 138.18 89.9954 138.12C90.0954 138.04 90.2654 138 90.5054 138H106.315C106.555 138 106.715 138.04 106.795 138.12C106.895 138.18 106.945 138.38 106.945 138.72V142.08ZM125.751 158.37C125.751 158.63 125.701 158.8 125.601 158.88C125.521 158.96 125.371 159 125.151 159H112.821C112.381 159 111.981 158.97 111.621 158.91C111.261 158.83 110.941 158.68 110.661 158.46C110.401 158.22 110.191 157.9 110.031 157.5C109.891 157.08 109.821 156.53 109.821 155.85C109.821 155.01 110.111 154.17 110.691 153.33C111.291 152.49 112.031 151.68 112.911 150.9C113.731 150.16 114.581 149.48 115.461 148.86C116.361 148.22 117.181 147.66 117.921 147.18C118.441 146.84 118.851 146.55 119.151 146.31C119.471 146.05 119.711 145.82 119.871 145.62C120.031 145.4 120.131 145.2 120.171 145.02C120.231 144.82 120.261 144.62 120.261 144.42C120.261 144.34 120.241 144.22 120.201 144.06C120.181 143.9 120.101 143.75 119.961 143.61C119.821 143.47 119.611 143.35 119.331 143.25C119.051 143.13 118.661 143.07 118.161 143.07C117.381 143.07 116.611 143.19 115.851 143.43C115.091 143.65 114.261 144.04 113.361 144.6C113.161 144.72 112.981 144.78 112.821 144.78C112.681 144.78 112.541 144.68 112.401 144.48L110.811 141.84C110.711 141.68 110.661 141.52 110.661 141.36C110.661 141.2 110.741 141.07 110.901 140.97C112.101 140.11 113.331 139.48 114.591 139.08C115.871 138.66 117.211 138.45 118.611 138.45C119.691 138.45 120.681 138.57 121.581 138.81C122.481 139.05 123.251 139.41 123.891 139.89C124.531 140.37 125.031 140.97 125.391 141.69C125.751 142.41 125.931 143.26 125.931 144.24C125.931 144.98 125.801 145.66 125.541 146.28C125.301 146.88 124.961 147.44 124.521 147.96C124.081 148.46 123.571 148.93 122.991 149.37C122.411 149.81 121.781 150.22 121.101 150.6C120.681 150.84 120.231 151.13 119.751 151.47C119.271 151.79 118.801 152.13 118.341 152.49C117.901 152.85 117.491 153.22 117.111 153.6C116.751 153.98 116.471 154.35 116.271 154.71H125.151C125.391 154.71 125.551 154.74 125.631 154.8C125.711 154.84 125.751 155.03 125.751 155.37V158.37ZM136.379 158.4C136.379 158.64 136.339 158.8 136.259 158.88C136.199 158.96 135.999 159 135.659 159H131.399C130.939 159 130.709 158.8 130.709 158.4V139.98C130.709 139.44 130.829 138.98 131.069 138.6C131.309 138.2 131.839 138 132.659 138H140.279C141.459 138 142.499 138.17 143.399 138.51C144.319 138.85 145.089 139.33 145.709 139.95C146.329 140.55 146.799 141.26 147.119 142.08C147.439 142.9 147.599 143.79 147.599 144.75C147.599 145.07 147.569 145.47 147.509 145.95C147.449 146.43 147.319 146.93 147.119 147.45C146.939 147.97 146.669 148.5 146.309 149.04C145.949 149.56 145.459 150.03 144.839 150.45C144.239 150.87 143.479 151.21 142.559 151.47C141.659 151.73 140.579 151.86 139.319 151.86H136.379V158.4ZM141.749 145.14C141.749 144.94 141.719 144.71 141.659 144.45C141.599 144.17 141.489 143.92 141.329 143.7C141.189 143.48 140.979 143.29 140.699 143.13C140.419 142.97 140.059 142.89 139.619 142.89H136.379V147.42H139.619C140.319 147.42 140.849 147.19 141.209 146.73C141.569 146.25 141.749 145.72 141.749 145.14ZM156.748 159C155.548 159 154.568 158.83 153.808 158.49C153.068 158.15 152.478 157.71 152.038 157.17C151.618 156.61 151.328 155.99 151.168 155.31C151.008 154.63 150.928 153.96 150.928 153.3L150.898 138.6C150.898 138.18 151.128 137.97 151.588 137.97H155.878C156.218 137.97 156.418 138.02 156.478 138.12C156.558 138.2 156.598 138.36 156.598 138.6V152.55C156.598 152.93 156.638 153.23 156.718 153.45C156.818 153.67 156.948 153.84 157.108 153.96C157.268 154.06 157.458 154.13 157.678 154.17C157.898 154.19 158.138 154.2 158.398 154.2H165.508C165.748 154.2 165.908 154.24 165.988 154.32C166.088 154.38 166.138 154.58 166.138 154.92V158.31C166.138 158.77 165.928 159 165.508 159H156.748ZM186.562 156.09C186.562 156.73 186.422 157.31 186.142 157.83C185.882 158.33 185.362 158.69 184.582 158.91C184.182 159.03 183.702 159.12 183.142 159.18C182.582 159.24 182.032 159.28 181.492 159.3C180.952 159.34 180.442 159.36 179.962 159.36C179.502 159.38 179.162 159.39 178.942 159.39C177.162 159.39 175.632 159.26 174.352 159C173.092 158.72 172.052 158.24 171.232 157.56C170.412 156.88 169.802 155.98 169.402 154.86C169.022 153.72 168.832 152.29 168.832 150.57V138.63C168.832 138.21 169.062 138 169.522 138H173.782C174.122 138 174.322 138.05 174.382 138.15C174.462 138.23 174.502 138.39 174.502 138.63V151.11C174.502 152.29 174.782 153.14 175.342 153.66C175.902 154.18 176.872 154.44 178.252 154.44C178.352 154.44 178.522 154.44 178.762 154.44C179.002 154.44 179.252 154.43 179.512 154.41C179.792 154.39 180.062 154.38 180.322 154.38C180.582 154.36 180.792 154.33 180.952 154.29V138.63C180.952 138.21 181.182 138 181.642 138H185.872C186.212 138 186.412 138.05 186.472 138.15C186.552 138.23 186.592 138.39 186.592 138.63L186.562 156.09ZM190.887 144.18C190.887 143.32 191.027 142.5 191.307 141.72C191.607 140.92 192.057 140.22 192.657 139.62C193.277 139.02 194.067 138.55 195.027 138.21C195.987 137.85 197.127 137.67 198.447 137.67C199.667 137.67 200.897 137.79 202.137 138.03C203.397 138.25 204.457 138.59 205.317 139.05C205.657 139.21 205.837 139.36 205.857 139.5C205.877 139.64 205.807 139.92 205.647 140.34L204.837 142.83C204.697 143.21 204.557 143.43 204.417 143.49C204.297 143.55 204.067 143.53 203.727 143.43C202.867 143.19 201.977 143.01 201.057 142.89C200.157 142.75 199.317 142.68 198.537 142.68C197.837 142.68 197.367 142.78 197.127 142.98C196.907 143.18 196.797 143.42 196.797 143.7C196.797 143.82 196.817 143.95 196.857 144.09C196.917 144.21 197.017 144.35 197.157 144.51C197.317 144.65 197.537 144.8 197.817 144.96C198.117 145.12 198.517 145.29 199.017 145.47C200.217 145.93 201.297 146.39 202.257 146.85C203.217 147.29 204.027 147.79 204.687 148.35C205.347 148.91 205.857 149.56 206.217 150.3C206.577 151.02 206.757 151.87 206.757 152.85C206.757 155.01 206.047 156.63 204.627 157.71C203.207 158.79 201.197 159.33 198.597 159.33C197.237 159.33 195.807 159.19 194.307 158.91C192.827 158.63 191.487 158.12 190.287 157.38C190.087 157.26 189.967 157.13 189.927 156.99C189.907 156.83 189.957 156.6 190.077 156.3L191.247 153.45C191.387 153.11 191.527 152.92 191.667 152.88C191.807 152.84 192.027 152.88 192.327 153C192.627 153.12 193.007 153.25 193.467 153.39C193.947 153.53 194.457 153.66 194.997 153.78C195.537 153.9 196.097 154 196.677 154.08C197.277 154.16 197.857 154.2 198.417 154.2C198.897 154.2 199.277 154.16 199.557 154.08C199.837 153.98 200.057 153.87 200.217 153.75C200.377 153.61 200.477 153.46 200.517 153.3C200.577 153.14 200.607 153 200.607 152.88C200.607 152.72 200.587 152.56 200.547 152.4C200.507 152.24 200.407 152.09 200.247 151.95C200.107 151.79 199.877 151.63 199.557 151.47C199.237 151.29 198.807 151.1 198.267 150.9C197.227 150.52 196.257 150.13 195.357 149.73C194.457 149.31 193.677 148.84 193.017 148.32C192.357 147.8 191.837 147.21 191.457 146.55C191.077 145.87 190.887 145.08 190.887 144.18Z" fill="white"/>
</g>
<path d="M104 185C104 181.686 106.686 179 110 179H171C174.314 179 177 181.686 177 185V194C177 197.314 174.314 200 171 200H104V185Z" fill="white"/>
<path d="M117.71 194.246C119.986 194.246 121.545 193.07 121.545 191.354C121.545 190.083 120.697 189.085 119.412 188.846V188.729C120.472 188.463 121.142 187.622 121.142 186.556C121.142 185.004 119.72 183.89 117.717 183.89C115.714 183.89 114.285 185.004 114.285 186.556C114.285 187.615 114.969 188.47 116.021 188.729V188.846C114.729 189.112 113.889 190.11 113.889 191.361C113.889 193.07 115.447 194.246 117.71 194.246ZM117.717 188.21C116.712 188.21 116.021 187.608 116.021 186.72C116.021 185.831 116.705 185.216 117.717 185.216C118.722 185.216 119.405 185.831 119.405 186.72C119.405 187.602 118.715 188.21 117.717 188.21ZM117.717 192.899C116.527 192.899 115.707 192.209 115.707 191.218C115.707 190.22 116.527 189.529 117.717 189.529C118.899 189.529 119.72 190.22 119.72 191.218C119.72 192.209 118.906 192.899 117.717 192.899ZM127.048 194.246C129.406 194.246 130.808 192.339 130.808 189.071C130.808 185.797 129.386 183.89 127.048 183.89C124.703 183.89 123.281 185.797 123.281 189.058C123.281 192.332 124.683 194.246 127.048 194.246ZM127.048 192.817C125.797 192.817 125.065 191.519 125.065 189.058C125.065 186.617 125.811 185.325 127.048 185.325C128.285 185.325 129.023 186.61 129.023 189.058C129.023 191.525 128.299 192.817 127.048 192.817ZM143.105 194V184.136H141.041L138.074 191.457H137.951L134.984 184.136H132.92V194H134.561V187.007H134.656L137.384 193.692H138.642L141.369 187.007H141.465V194H143.105ZM149.518 194.123C151.404 194.123 152.587 192.64 152.587 190.268C152.587 187.882 151.411 186.405 149.518 186.405C148.492 186.405 147.631 186.904 147.241 187.718H147.125V183.637H145.43V194H147.063V192.817H147.18C147.604 193.638 148.472 194.123 149.518 194.123ZM148.984 187.82C150.14 187.82 150.844 188.743 150.844 190.268C150.844 191.792 150.146 192.715 148.984 192.715C147.822 192.715 147.098 191.778 147.098 190.268C147.098 188.757 147.829 187.82 148.984 187.82ZM154.118 188.661C154.118 189.782 154.795 190.438 156.23 190.767L157.557 191.074C158.268 191.238 158.589 191.512 158.589 191.936C158.589 192.503 157.994 192.893 157.14 192.893C156.292 192.893 155.766 192.551 155.602 191.997H153.927C154.057 193.344 155.232 194.15 157.099 194.15C158.965 194.15 160.284 193.2 160.284 191.771C160.284 190.671 159.621 190.062 158.192 189.734L156.873 189.44C156.121 189.263 155.766 188.996 155.766 188.572C155.766 188.019 156.347 187.643 157.119 187.643C157.912 187.643 158.411 187.984 158.534 188.511H160.127C160.004 187.164 158.89 186.385 157.112 186.385C155.349 186.385 154.118 187.321 154.118 188.661Z" fill="#44494D"/>
</g>
<defs>
<filter id="filter0_d" x="46.3301" y="91.9697" width="175.068" height="72.42" filterUnits="userSpaceOnUse" color-interpolation-filters="sRGB">
<feFlood flood-opacity="0" result="BackgroundImageFix"/>
<feColorMatrix in="SourceAlpha" type="matrix" values="0 0 0 0 0 0 0 0 0 0 0 0 0 0 0 0 0 0 127 0" result="hardAlpha"/>
<feOffset dx="2" dy="2"/>
<feGaussianBlur stdDeviation="1.5"/>
<feColorMatrix type="matrix" values="0 0 0 0 0 0 0 0 0 0 0 0 0 0 0 0 0 0 0.25 0"/>
<feBlend mode="normal" in2="BackgroundImageFix" result="effect1_dropShadow"/>
<feBlend mode="normal" in="SourceGraphic" in2="effect1_dropShadow" result="shape"/>
</filter>
<linearGradient id="paint0_linear" x1="56.32" y1="-2.04737e-06" x2="144.251" y2="176.701" gradientUnits="userSpaceOnUse">
<stop stop-color="#EF0134"/>
<stop offset="1" stop-color="#D7002E"/>
</linearGradient>
<clipPath id="clip0">
<rect width="264" height="264" fill="white"/>
</clipPath>
</defs>
</svg>
