<svg width="152" height="147" viewBox="0 0 152 147" fill="none" xmlns="http://www.w3.org/2000/svg">
<g clip-path="url(#clip0)">
<path opacity="0.3" d="M3.39631 109.367C-0.333655 115.177 32.8066 117.221 26.3869 120.329C10.2129 128.158 6.35756 130.951 32.8066 132.451C43.3252 133.048 41.773 147 67.5965 147C88.6852 147 85.9601 132.432 94.2802 131.576C102.602 130.719 127.708 130.362 124.408 124.935C121.107 119.508 113.787 121.035 118.234 118.75C122.681 116.464 135.239 114.652 129.356 112.081C123.474 109.511 83.8782 99.0127 68.0244 98.8703C52.1706 98.7278 6.52576 104.49 3.39631 109.367Z" fill="#9AF7F0"/>
<path d="M32.8066 78.5879C32.8066 78.5879 31.0848 93.156 17.456 96.8692C3.82714 100.583 4.41732 111.151 4.41732 111.151C4.41732 111.151 8.68583 106.991 10.84 106.991C10.84 106.991 10.0875 111.223 11.7902 113.721C11.7902 113.721 16.0823 103.271 23.4832 102.332C31.4994 101.314 36.5381 86.718 36.5381 86.718L32.8066 78.5879Z" fill="url(#paint0_linear)"/>
<path d="M110.295 51.3853C110.295 51.3853 119.328 62.973 132.925 59.1437C146.523 55.3144 151.501 64.6666 151.501 64.6666C151.501 64.6666 145.688 63.3006 143.844 64.4081C143.844 64.4081 146.684 67.644 146.522 70.6596C146.522 70.6596 137.424 63.919 130.6 66.9199C123.208 70.1704 111.32 60.2645 111.32 60.2645L110.295 51.3853Z" fill="url(#paint1_linear)"/>
<path opacity="0.3" d="M23.231 109.342L67.7131 136.502L110.67 113.896V110.041L68.2221 89.9424L23.231 105.486V109.342Z" fill="#9AF7F0"/>
<path d="M23.231 105.486L67.7131 132.646L110.67 110.041L68.2221 86.085L23.231 105.486Z" fill="#FBA319"/>
<path d="M29.9369 105.225L67.5965 128.219L103.965 109.08V102.44L68.0274 88.7998L29.9369 98.5824V105.225Z" fill="#FFCF50"/>
<path d="M103.965 102.439L99.8397 104.609L67.5965 121.577L34.2556 101.22L29.9369 98.582L68.0274 82.1572L103.965 102.439Z" fill="#F9BB41"/>
<path d="M27.4257 33.7411L15.5187 84.515L20.0381 88.7996L63.508 69.0303L81.0099 27.1709L76.4906 22.8862L27.4257 33.7411Z" fill="#288CC7"/>
<path d="M31.945 38.0257L20.0381 88.7996L68.0274 73.315L81.01 27.1709L31.945 38.0257Z" fill="#00508B"/>
<path d="M72.2487 65.2994L68.0259 66.8755L64.7224 65.2436C67.0654 63.0653 69.0499 61.31 69.3878 61.5906C69.6725 61.8271 70.8101 63.3591 72.2487 65.2994Z" stroke="#E30613" stroke-width="0.25" stroke-miterlimit="10"/>
<path d="M27.4257 33.7412L31.945 38.0259L20.0381 88.7997L15.5187 84.5151L27.4257 33.7412Z" fill="#00649F"/>
<path d="M110.206 51.1294L80.433 62.2442C80.2958 59.3947 80.1482 57.1884 80.1482 57.1884L68.0259 66.8755L56.5837 61.2175L24.9867 45.5962L68.8875 35.3833L110.206 51.1294Z" fill="#00326D"/>
<path d="M99.8398 104.609L67.5965 121.577L34.2556 101.22L68.0274 86.6567L99.8398 104.609Z" fill="#FBA319"/>
<path d="M68.0273 66.8755L67.5965 110.295L37.7435 93.0152C37.742 93.0137 37.7391 93.0137 37.7391 93.0137L32.8052 90.1583L24.9867 45.5977L56.5837 61.2189L64.7223 65.245L68.0273 66.8755Z" fill="#8BCBE3"/>
<path d="M110.206 51.1294L101.097 92.156L86.391 100.119C86.3408 100.145 86.3157 100.16 86.3157 100.16L67.598 110.295L68.0289 66.8755L97.5823 55.8429L110.206 51.1294Z" fill="#8BCBE3"/>
<path d="M68.0273 66.8755L68.8875 35.3833L110.206 51.1294L68.0273 66.8755Z" fill="#00326D"/>
<path d="M34.2555 101.22L32.8066 90.1567L67.5965 110.295L101.095 92.1559L99.8397 104.609L67.5965 121.577L34.2555 101.22Z" fill="url(#paint2_linear)"/>
<path d="M68.0273 66.8756L67.5965 110.295L37.7435 93.0153C37.9516 93.0814 47.0493 95.9882 56.6486 93.9406C66.363 91.8696 64.7223 65.2437 64.7223 65.2437L68.0273 66.8756Z" fill="#72BACE"/>
<path d="M110.206 51.1294L101.097 92.156L86.3909 100.119C87.3617 99.5781 97.383 93.8775 96.2189 88.7982C94.9972 83.4633 90.8394 73.0888 92.4255 70.5344C94.0116 67.9801 97.5822 55.8429 97.5822 55.8429L110.206 51.1294Z" fill="#72BACE"/>
<path d="M30.9338 112.05C32.3502 111.237 32.4211 108.983 30.5059 107.928C29.2754 107.249 29.8626 103.259 28.5863 103.347C27.1463 103.445 28.9714 106.743 26.3304 107.764C25.06 108.256 24.8461 110.729 26.1799 112.163C28.337 114.482 22.5886 115.687 25.4318 118.602L30.5841 119.272C30.5841 119.272 31.6464 117.888 30.3923 116.048C29.1382 114.206 29.5159 112.862 30.9338 112.05Z" fill="#E8F7FA"/>
<path d="M25.0372 121.175L26.5864 118.774C26.5864 118.774 24.7126 116.162 22.8373 115.818C22.8373 115.818 23.0497 118.721 25.0372 121.175Z" fill="#B9E7F0"/>
<path d="M27.2265 125.205L26.9092 125.185C27.1911 121.966 23.9229 116.936 23.9229 116.936C23.9288 116.946 25.4884 119.171 26.1007 120.553C26.9269 122.419 27.3047 123.983 27.2265 125.205Z" fill="#2A425B"/>
<path d="M29.9857 118.388C29.9857 118.388 29.9296 120.012 31.0628 121.539C31.0628 121.539 31.4774 121.295 32.0395 120.891C32.013 120.82 31.9982 120.742 31.9982 120.662C31.9982 120.327 32.2476 120.055 32.5545 120.055C32.6961 120.055 32.8259 120.114 32.9233 120.209C33.7702 119.501 34.654 118.588 34.9698 117.656C34.9727 117.655 31.498 117.301 29.9857 118.388Z" fill="#8BCBE3"/>
<path d="M27.0111 126.269L26.6938 126.242L29.1092 106.745L27.0111 126.269Z" fill="#2A425B"/>
<path d="M27.7163 125.415C27.6942 122.341 28.9394 120.556 29.987 119.6C31.1246 118.562 33.1002 118.131 33.1475 118.118C33.1475 118.118 31.0907 118.847 30.0092 119.837C29.0147 120.749 28.0129 122.462 28.0335 125.412L27.7163 125.415Z" fill="#2A425B"/>
<path d="M26.591 127.722C26.591 127.722 25.0181 122.962 25.6806 122.433C26.3431 121.904 26.5821 124.755 26.9525 124.358C27.3228 123.962 26.8462 121.086 27.9336 121.165C29.0211 121.245 27.3774 127.721 27.3774 127.721C27.3774 127.721 27.0498 128.076 26.591 127.722Z" fill="#B9E7F0"/>
<path d="M26.4113 127.873C26.4113 127.873 27.0737 122.163 28.2925 122.057C29.5112 121.952 27.5238 125.023 28.1597 124.966C28.7956 124.907 28.5049 123.993 29.3253 124.516C30.1471 125.039 27.6831 127.874 27.6831 127.874C27.6831 127.874 27.4456 128.331 26.4113 127.873Z" fill="#8BCBE3"/>
<path d="M127.431 96.0135C128.847 95.2012 128.918 92.9465 127.003 91.8919C125.772 91.2133 126.36 87.2224 125.083 87.3105C123.643 87.4089 125.469 90.7065 122.827 91.7274C121.557 92.2194 121.343 94.693 122.677 96.1266C124.834 98.4459 119.086 99.6504 121.929 102.566L127.081 103.236C127.081 103.236 128.144 101.852 126.889 100.012C125.637 98.1698 126.014 96.8258 127.431 96.0135Z" fill="#E8F7FA"/>
<path d="M121.534 105.139L123.083 102.737C123.083 102.737 121.21 100.125 119.334 99.7817C119.334 99.7817 119.547 102.684 121.534 105.139Z" fill="#B9E7F0"/>
<path d="M123.316 108.857L122.999 108.836C123.28 105.618 120.012 100.587 120.012 100.587C120.018 100.598 121.578 102.823 122.19 104.205C123.015 106.071 123.394 107.636 123.316 108.857Z" fill="#2A425B"/>
<path d="M126.02 101.752C126.02 101.752 125.964 103.377 127.097 104.903C127.097 104.903 127.512 104.659 128.074 104.255C128.048 104.184 128.033 104.107 128.033 104.026C128.033 103.691 128.282 103.419 128.589 103.419C128.731 103.419 128.861 103.478 128.958 103.573C129.805 102.865 130.689 101.952 131.004 101.02C131.007 101.02 127.531 100.667 126.02 101.752Z" fill="#8BCBE3"/>
<path d="M123.1 109.921L122.783 109.895L125.197 90.3975L123.1 109.921Z" fill="#2A425B"/>
<path d="M123.804 109.067C123.782 105.992 125.027 104.208 126.075 103.252C127.213 102.213 129.188 101.783 129.235 101.77C129.235 101.77 127.179 102.498 126.097 103.488C125.103 104.4 124.101 106.113 124.121 109.064L123.804 109.067Z" fill="#2A425B"/>
<path d="M122.195 111.686C122.195 111.686 120.622 106.925 121.284 106.397C121.947 105.869 122.186 108.719 122.556 108.322C122.926 107.927 122.45 105.05 123.537 105.129C124.625 105.208 122.981 111.685 122.981 111.685C122.981 111.685 122.655 112.041 122.195 111.686Z" fill="#B9E7F0"/>
<path d="M122.786 111.654C122.786 111.654 123.449 105.944 124.667 105.839C125.886 105.733 123.899 108.804 124.534 108.747C125.17 108.688 124.88 107.775 125.7 108.297C126.52 108.82 124.058 111.655 124.058 111.655C124.058 111.655 123.819 112.114 122.786 111.654Z" fill="#8BCBE3"/>
<path d="M80.433 62.2441L72.2486 65.2993C70.8086 63.359 69.6725 61.8269 69.3892 61.5905C69.0513 61.3099 67.0668 63.0637 64.7238 65.2435L56.5851 61.2174C57.013 57.7979 57.4453 54.9248 57.4453 54.9248L80.1482 57.1868C80.1482 57.1883 80.2958 59.3945 80.433 62.2441Z" fill="#FBA319"/>
<path d="M92.7752 37.312C92.7752 37.9245 92.7487 38.5312 92.7 39.1305C91.7719 50.4274 82.267 59.3066 70.6817 59.3066C58.4797 59.3066 48.5897 49.458 48.5897 37.3105C48.5897 25.1631 58.4797 15.3145 70.6817 15.3145C81.5381 15.3145 90.5665 23.1111 92.4256 33.3858C92.6543 34.6593 92.7752 35.9724 92.7752 37.312Z" fill="url(#paint3_linear)"/>
<path d="M88.9006 37.3117C88.9006 47.2221 80.9169 55.2773 71.0033 55.4462C70.8956 55.4506 70.7879 55.4506 70.6802 55.4506C60.6176 55.4506 52.4612 47.3293 52.4612 37.3117C52.4612 27.2941 60.6176 19.1729 70.6802 19.1729C70.7879 19.1729 70.8956 19.1729 71.0033 19.1773C80.9169 19.3462 88.9006 27.4014 88.9006 37.3117Z" fill="#FFCF50"/>
<path d="M88.9007 37.3117C88.9007 47.2221 80.917 55.2773 71.0034 55.4462C61.0898 55.2773 53.1075 47.2221 53.1075 37.3117C53.1075 27.4014 61.0898 19.3462 71.0034 19.1772C80.917 19.3462 88.9007 27.4014 88.9007 37.3117Z" fill="#FBA319"/>
<path d="M71.4813 22.0076L75.7749 30.6665C75.8516 30.8222 76.0021 30.9309 76.1748 30.9559L85.7741 32.344C86.2108 32.4071 86.3849 32.9403 86.0692 33.2473L79.1227 39.9879C78.9973 40.1098 78.9398 40.2846 78.9693 40.4564L80.6085 49.9746C80.6823 50.4065 80.2279 50.737 79.8369 50.5328L71.2512 46.0396C71.0962 45.9588 70.9118 45.9588 70.7569 46.0396L62.1712 50.5328C61.7817 50.737 61.3257 50.4079 61.3995 49.9746L63.0388 40.4564C63.0683 40.2846 63.0107 40.1098 62.8853 39.9879L55.9388 33.2473C55.6231 32.9418 55.7972 32.4071 56.2339 32.344L65.8333 30.9559C66.0059 30.9309 66.1564 30.8222 66.2331 30.6665L70.5267 22.0076C70.7229 21.614 71.2851 21.614 71.4813 22.0076Z" fill="#FFCF50"/>
<path d="M71.3456 26.2247L74.4234 32.4335C74.4795 32.5452 74.5857 32.623 74.7112 32.6407L81.5942 33.6365C81.907 33.6821 82.0324 34.064 81.8052 34.2843L76.824 39.1168C76.734 39.2035 76.6927 39.3298 76.7148 39.4532L77.8908 46.2775C77.9439 46.5874 77.6178 46.8239 77.3375 46.677L71.1804 43.4544C71.0697 43.3956 70.9369 43.3956 70.8263 43.4544L64.6692 46.677C64.3888 46.8239 64.0628 46.5874 64.1159 46.2775L65.2918 39.4532C65.3125 39.3298 65.2726 39.205 65.1826 39.1168L60.2015 34.2843C59.9757 34.0654 60.0997 33.6821 60.4125 33.6365L67.2955 32.6407C67.4194 32.623 67.5271 32.5452 67.5832 32.4335L70.661 26.2247C70.8027 25.9427 71.2055 25.9427 71.3456 26.2247Z" fill="#137F7F"/>
<path d="M115.962 86.6563C114.51 90.797 110.904 90.1566 110.904 90.1566C110.904 90.1566 106.761 77.3202 106.493 73.8391C106.224 70.3579 106.062 64.3591 106.062 64.3591L108.591 52.7375L113.702 50.8779C114.673 52.5539 114.724 57.8785 114.257 58.3617C113.792 58.8435 113.163 71.5902 113.002 72.8505C112.842 74.1108 115.962 86.6563 115.962 86.6563Z" fill="#00508B"/>
<path d="M115.962 86.6568C115.806 87.1019 115.624 87.4926 115.424 87.8334C114.518 89.3933 113.24 89.9412 112.273 90.1175C111.486 90.2614 110.904 90.1586 110.904 90.1586C110.904 90.1586 111.089 89.2714 111.729 88.3842C112.235 87.6792 113.026 86.977 114.24 86.72C114.74 86.6113 115.31 86.5819 115.962 86.6568Z" fill="#0F635F"/>
<path d="M112.842 97.8581C111.791 97.8478 112.161 96.8034 112.512 95.4609C112.512 95.4594 112.514 95.4594 112.514 95.4565C112.692 94.7661 112.87 93.9979 112.842 93.2517C112.805 92.272 112.546 91.1072 112.273 90.1157C112.076 89.4019 111.866 88.7791 111.729 88.3825C112.235 87.6774 113.026 86.9753 114.24 86.7183C114.55 87.0076 114.972 87.4057 115.424 87.8317C116.54 88.8834 117.827 90.104 118.006 90.3081C119.431 91.9224 113.783 97.8698 112.842 97.8581Z" fill="#2A425B"/>
<path d="M112.842 97.858C111.791 97.8477 112.161 96.8034 112.512 95.4608C112.512 95.4594 112.514 95.4593 112.514 95.4564C112.942 94.3768 114.128 94.2931 114.428 93.9097C115.128 93.0122 114.675 92.9858 115.478 91.1908C116.281 89.3959 117.858 90.1597 118.007 90.3081C119.431 91.9223 113.783 97.8697 112.842 97.858Z" fill="#1D3449"/>
<path d="M101.562 55.6285C101.562 55.6285 101.526 58.9187 100.952 60.1129C100.378 61.3056 94.3525 70.5902 94.2817 72.7318C94.2094 74.8749 103.965 94.0846 103.965 94.0846C103.965 94.0846 107.409 95.8692 109.058 92.5849C109.058 92.5849 100.952 74.161 101.669 73.0183C102.386 71.8755 109.56 62.1634 111.013 59.5929C112.465 57.0224 110.583 51.1309 110.583 51.1309L101.562 55.6285Z" fill="#00649F"/>
<path d="M103.821 36.5625C103.821 36.5625 97.6531 40.5959 96.3252 40.7399C95.493 40.8295 93.8243 39.863 92.6985 39.1315C92.7487 38.5322 92.7738 37.9256 92.7738 37.3131C92.7738 35.9735 92.6528 34.6603 92.4226 33.3883C93.6517 34.1212 95.853 35.3286 96.8254 35.2067C98.2153 35.0305 101.129 31.5625 101.129 31.5625L103.821 36.5625Z" fill="#8AC8DB"/>
<path d="M105.309 28.224L102.171 30.2055C102.171 30.2055 102.081 30.0513 101.947 29.8412C101.725 29.4916 101.389 28.9907 101.166 28.7807C100.806 28.4443 100.194 28.7807 100.194 28.7807L100.706 26.9946L100.932 26.2087L104.161 25.4053L105.309 28.224Z" fill="#F7BCB7"/>
<path d="M102.754 29.2935C102.754 29.2935 102.326 29.6005 101.95 29.8414C101.728 29.4918 101.392 28.9909 101.169 28.7809C100.809 28.4445 100.197 28.7809 100.197 28.7809L100.709 26.9948C100.808 26.961 100.868 26.9419 100.868 26.9419C100.868 26.9419 100.946 28.4313 101.348 28.6898C101.75 28.9483 102.754 29.2935 102.754 29.2935Z" fill="#DB9795"/>
<path d="M102.315 31.1704C102.315 31.1704 101.491 29.9204 102.029 29.4739C102.568 29.0274 104.737 27.5453 105.311 27.4204C105.885 27.2956 106.476 29.045 106.476 29.045L102.315 31.1704Z" fill="#FFCF50"/>
<path d="M114.258 50.6314L103.289 55.511L101.097 56.4863C101.097 56.4863 99.3749 53.7013 99.4103 50.1658C99.4325 47.9919 99.6036 41.8403 99.8751 37.2986C100.045 34.4579 100.254 32.2443 100.486 32.0269C101.097 31.457 107.086 27.8495 108.341 28.2064C109.598 28.5648 112.073 34.5269 112.968 37.9537C113.864 41.3821 114.258 50.6314 114.258 50.6314Z" fill="#9EDCEF"/>
<path d="M105.579 94.3254C105.579 94.3254 105.876 96.9502 104.746 98.9317C103.615 100.913 102.606 102.119 102.922 102.36C103.239 102.601 111.443 98.3162 111.227 98.0225C111.012 97.7272 108.269 93.0151 108.269 93.0151L105.579 94.3254Z" fill="#2A425B"/>
<path d="M103.289 55.5108L101.097 56.4861C101.097 56.4861 99.3749 53.7012 99.4103 50.1657C99.4325 47.9917 99.6036 41.8402 99.8751 37.2985C101.466 35.5785 102.737 34.2021 102.737 34.2021C102.737 34.2021 104.713 37.2588 102.084 42.6128C99.7733 47.3146 102.572 53.9597 103.289 55.5108Z" fill="#8AC8DB"/>
<path d="M85.0498 41.8183C85.0498 41.8183 84.2929 41.6244 84.2206 41.0751C84.1483 40.5257 83.9698 38.1344 83.5743 38.1021C83.1789 38.0698 83.5212 39.7825 83.1612 39.8148C82.8012 39.8471 81.8156 39.4916 81.3493 38.9746C80.8831 38.4576 80.0406 36.761 79.6821 36.8903C79.3235 37.0196 79.747 38.6177 79.6821 39.2816C79.6172 39.9455 78.5165 41.3174 78.8396 42.0284C79.1627 42.7393 80.2206 43.9672 80.7223 44.1773C81.2239 44.3873 83.8606 44.4358 83.8606 44.4358C83.8606 44.4358 85.1973 42.8039 85.0498 41.8183Z" fill="#F7BCB7"/>
<path d="M84.5791 45.5418C84.5791 45.5418 83.0372 46.0956 82.8218 44.4343C82.8218 44.4343 82.8026 41.9035 84.4891 41.2234C84.4891 41.2234 85.5116 40.7563 86.2286 42.0959L84.5791 45.5418Z" fill="#FFCF50"/>
<path d="M84.5791 45.5418C84.5791 45.5418 83.8974 43.9702 86.2287 42.0959C86.2287 42.0959 92.2721 42.0151 93.814 41.1456C95.3558 40.276 98.8881 33.3019 100.485 32.0269C102.081 30.7519 103.57 34.5974 102.6 38.6323C101.632 42.6673 96.1437 46.2733 95.3912 46.6655C94.6402 47.0592 87.5285 47.1135 84.5791 45.5418Z" fill="#9EDCEF"/>
<path d="M103.103 25.8679L100.88 26.6905C100.88 26.6905 100.806 27.8494 100.806 27.9758C100.806 28.1006 100.449 28.7425 99.9459 28.9041C99.4443 29.0642 99.1728 27.046 99.1728 27.046C98.7375 27.0988 98.6003 26.7081 98.9766 26.5304C99.2451 26.4011 99.1772 24.8515 99.1138 23.9834C99.0902 23.6412 99.0666 23.4047 99.0666 23.4047C99.0577 22.4808 100.063 22.2472 100.943 22.2193C101.629 22.1958 102.24 22.2986 102.24 22.2986L103.103 25.8679Z" fill="#F7BCB7"/>
<path d="M100.808 25.2984C100.808 25.2984 100.592 24.1542 100.001 24.1204C99.7852 24.1072 99.4517 24.0675 99.1168 23.9838C99.0932 23.6416 99.0696 23.4051 99.0696 23.4051C99.0607 22.4812 100.066 22.2476 100.946 22.2197C100.976 22.7235 100.808 25.2984 100.808 25.2984Z" fill="#DB9795"/>
<path d="M100.809 25.2967C100.809 25.2967 100.774 24.5476 101.383 24.4756C101.992 24.4036 101.832 26.1897 101.203 26.3499C101.203 26.3499 102.1 27.7071 102.404 27.5631C102.709 27.4206 103.592 26.062 104.611 26.5085C104.611 26.5085 105.147 26.5276 105.004 26.1163C104.861 25.705 106.205 23.2065 105.793 21.4395C105.38 19.6724 103.605 19.5285 102.279 19.7253C100.952 19.9221 99.9577 20.8328 98.7597 20.2614C97.5616 19.6901 96.7958 19.0129 95.6302 19.8751C94.0279 21.059 96.275 24.2964 99.3026 23.6721C100.037 23.5208 100.611 23.7265 100.809 25.2967Z" fill="#2A425B"/>
<path d="M101.358 24.7739C101.358 24.7739 100.932 25.1 101.066 25.5642C101.066 25.5642 101.182 25.0736 101.358 24.7739Z" fill="#DB9795"/>
<path d="M52.5321 4.68989C52.5321 4.68989 51.0729 12.2956 57.8482 12.2956C58.3661 12.0283 60.4863 10.8503 60.4863 10.8503C60.4863 10.8503 53.7095 9.76184 56.1411 3.99512L52.5321 4.68989Z" fill="#BCF7E2"/>
<path d="M27.1925 30.9062C27.1925 30.9062 22.8753 33.9218 26.173 37.1078C26.5522 37.2209 28.1427 37.6439 28.1427 37.6439C28.1427 37.6439 25.3615 33.9277 29.2789 32.2649L27.1925 30.9062Z" fill="#79CCCA"/>
<path d="M70.3866 8.94679C70.3866 8.94679 77.6872 3.94534 74.481 0.314335C74.003 0.240892 71.9757 0 71.9757 0C71.9757 0 74.2361 4.45944 68.0731 7.54257L70.3866 8.94679Z" fill="#F9BB41"/>
<path d="M89.389 7.90375C89.389 7.90375 90.9073 15.5095 83.859 15.5095C83.3205 15.2421 81.1147 14.0641 81.1147 14.0641C81.1147 14.0641 88.1629 12.9757 85.634 7.20898L89.389 7.90375Z" fill="#FFCF50"/>
<path d="M8.32436 70.9762C8.32436 70.9762 6.58922 78.0017 1.82791 76.0276C1.56233 75.6442 0.5 74.0035 0.5 74.0035C0.5 74.0035 5.65526 75.0332 6.04183 69.3208L8.32436 70.9762Z" fill="#FFCF50"/>
<path d="M35.3208 52.7729C35.3208 52.7729 39.3296 59.421 32.6959 61.7902C32.0984 61.7197 29.6226 61.3511 29.6226 61.3511C29.6226 61.3511 35.8874 57.9565 31.551 53.3796L35.3208 52.7729Z" fill="#FBA319"/>
<path d="M37.5902 15.1176C37.5902 15.1176 35.678 17.1666 37.5902 18.4034C39.5024 19.6416 37.0929 23.8661 37.0929 23.8661L34.7263 22.5588C34.7263 22.5588 36.8333 19.4712 34.9609 17.7615C33.0885 16.0518 35.7562 13.9072 35.7562 13.9072L37.5902 15.1176Z" fill="#F9BB41"/>
<path d="M81.8952 28.0538C81.8952 28.0538 81.4408 25.2938 79.2866 26.04C77.1325 26.7861 75.2557 22.3017 75.2557 22.3017L77.7448 21.2412C77.7448 21.2412 78.903 24.79 81.4083 24.3655C83.9136 23.941 83.98 27.3546 83.98 27.3546L81.8952 28.0538Z" fill="#0C6D6A"/>
<path d="M110.913 44.2169C110.913 44.2169 113.696 43.8364 113.004 41.6743C112.312 39.5106 116.864 37.7598 116.864 37.7598L117.864 40.2642C117.864 40.2642 114.27 41.3247 114.631 43.8291C114.993 46.3335 111.562 46.31 111.562 46.31L110.913 44.2169Z" fill="#0C6D6A"/>
<path d="M104.021 68.6045C104.021 68.6045 104.476 65.8446 106.63 66.5907C108.784 67.3369 110.661 62.8525 110.661 62.8525L108.172 61.792C108.172 61.792 107.013 65.3407 104.508 64.9162C102.003 64.4918 101.936 67.9054 101.936 67.9054L104.021 68.6045Z" fill="#F9BB41"/>
<path d="M67.2705 80.3522C67.2705 80.3522 64.4612 80.3522 64.8522 78.1151C65.2432 75.8781 60.4951 74.7588 60.4951 74.7588L59.8459 77.3748C59.8459 77.3748 63.5508 77.9403 63.5346 80.4697C63.5184 82.999 66.9134 82.5143 66.9134 82.5143L67.2705 80.3522Z" fill="#BCF7E2"/>
</g>
<defs>
<linearGradient id="paint0_linear" x1="21.9331" y1="124.573" x2="8.62343" y2="89.9756" gradientUnits="userSpaceOnUse">
<stop offset="8.3e-07" stop-color="#00BEC5"/>
<stop offset="1" stop-color="#00D89E"/>
</linearGradient>
<linearGradient id="paint1_linear" x1="132.767" y1="76.6127" x2="129.277" y2="55.3979" gradientUnits="userSpaceOnUse">
<stop offset="8.3e-07" stop-color="#00BEC5"/>
<stop offset="1" stop-color="#00D89E"/>
</linearGradient>
<linearGradient id="paint2_linear" x1="66.9509" y1="90.1562" x2="66.9509" y2="121.576" gradientUnits="userSpaceOnUse">
<stop stop-color="#FFCF50"/>
<stop offset="0.0533" stop-color="#FFCF50" stop-opacity="0.9467"/>
<stop offset="1" stop-color="#FFCF50" stop-opacity="0"/>
</linearGradient>
<linearGradient id="paint3_linear" x1="48.533" y1="37.3165" x2="94.9344" y2="78.0072" gradientUnits="userSpaceOnUse">
<stop stop-color="#FAD930"/>
<stop offset="1" stop-color="#F0974C"/>
</linearGradient>
<clipPath id="clip0">
<rect width="151" height="147" fill="white" transform="translate(0.5)"/>
</clipPath>
</defs>
</svg>
