<svg width="222" height="302" viewBox="0 0 222 302" fill="none" xmlns="http://www.w3.org/2000/svg">
<ellipse cx="111" cy="110.78" rx="111" ry="110.78" fill="#DEE6EE"/>
<path d="M61.5 97.806C68.4036 97.806 74 92.2206 74 85.3307C74 78.4408 68.4036 72.8555 61.5 72.8555C54.5964 72.8555 49 78.4408 49 85.3307C49 92.2206 54.5964 97.806 61.5 97.806Z" fill="white"/>
<path d="M161.996 97.806C168.624 97.806 173.996 92.2206 173.996 85.3307C173.996 78.4408 168.624 72.8555 161.996 72.8555C155.369 72.8555 149.996 78.4408 149.996 85.3307C149.996 92.2206 155.369 97.806 161.996 97.806Z" fill="white"/>
<path d="M61.0039 147.705C61.0039 147.705 104.481 109.53 162.004 147.705H61.0039Z" fill="white"/>
<path fill-rule="evenodd" clip-rule="evenodd" d="M130.809 269.648L122.296 268.965L121.336 293.879H128.24L130.809 269.648ZM154.107 293.95H160.932L161.18 270.43H152.752L154.107 293.95Z" fill="#F7B17D"/>
<path fill-rule="evenodd" clip-rule="evenodd" d="M116.11 298.664L116.127 298.665C115.988 298.893 115.914 299.153 115.912 299.419V300.516H129.691V299.419C129.691 299.287 129.672 299.156 129.635 299.03L128.817 290.984C128.701 290.17 128.29 290.085 127.7 290.197C127.788 289.86 127.817 289.51 127.786 289.163C127.728 288.576 122.452 288.338 122.333 289.001C122.289 289.342 122.266 289.687 122.264 290.031C121.814 289.884 121.222 289.86 120.776 290.643L116.11 298.664ZM154.133 290.809C154.06 290.64 153.991 290.478 153.916 290.334C153.476 289.486 152.962 289.483 152.779 290.05C152.758 290.113 152.722 290.211 152.674 290.342C152.289 291.394 151.152 294.497 151.641 297.012C151.641 297.012 158.712 297.317 162.931 298.271C162.931 298.271 174.387 298.567 176.809 298.567C176.809 298.567 176.625 296.517 175.818 295.846C175.011 295.175 173.103 294.927 173.103 294.927C173.103 294.927 163.124 290.087 162.317 290.052C161.51 290.016 160.556 290.617 159.822 291.288C159.725 291.377 159.628 291.472 159.528 291.57C158.874 292.21 158.107 292.961 156.484 292.808C154.931 292.661 154.49 291.638 154.133 290.809Z" fill="#6A6A6A"/>
<g style="mix-blend-mode:overlay" opacity="0.6">
<path d="M127.719 297.526C127.719 297.526 127.06 296.481 123.371 296.439C119.415 296.393 118.547 297.464 118.547 297.464L127.719 297.526Z" fill="white"/>
</g>
<g style="mix-blend-mode:overlay" opacity="0.6">
<path d="M122.268 290.031C122.269 289.687 122.292 289.342 122.337 289.001C122.456 288.338 127.731 288.576 127.79 289.163C127.803 289.515 127.772 289.866 127.698 290.21C127.698 290.21 127.74 295.362 126.9 295.864C126.438 296.14 119.893 296.073 119.852 295.915C119.744 295.493 122.128 290.031 122.268 290.031Z" fill="white"/>
</g>
<g style="mix-blend-mode:overlay" opacity="0.6">
<path d="M129.41 297.073L127.938 295.943C127.917 295.926 127.906 295.899 127.911 295.872L128.056 295.11C128.061 295.086 128.077 295.065 128.101 295.056C128.124 295.047 128.15 295.05 128.17 295.065L129.282 295.872L129.41 297.073Z" fill="white"/>
</g>
<g style="mix-blend-mode:overlay" opacity="0.6">
<path d="M129.238 295.499L128.187 294.695C128.137 294.656 128.112 294.594 128.121 294.532L128.236 293.732C128.239 293.711 128.259 293.654 128.306 293.693C128.358 293.735 129.103 294.294 129.103 294.294L129.238 295.499Z" fill="white"/>
</g>
<g style="mix-blend-mode:overlay" opacity="0.6">
<path d="M129.074 293.981L128.393 293.469C128.343 293.43 128.318 293.368 128.327 293.306L128.442 292.506C128.445 292.484 128.465 292.428 128.512 292.466C128.564 292.509 128.931 292.725 128.931 292.725L129.074 293.981Z" fill="white"/>
</g>
<g style="mix-blend-mode:overlay" opacity="0.6">
<path d="M117.742 295.843L119.595 295.366C119.622 295.359 119.642 295.337 119.648 295.31L119.822 294.547C119.828 294.522 119.821 294.496 119.803 294.479C119.786 294.461 119.76 294.453 119.736 294.459L118.366 294.773L117.742 295.843Z" fill="white"/>
</g>
<g style="mix-blend-mode:overlay" opacity="0.6">
<path d="M118.565 294.439L119.869 294.112C119.93 294.096 119.978 294.049 119.995 293.987L120.212 293.2C120.217 293.179 120.222 293.119 120.163 293.136C120.098 293.154 119.181 293.381 119.181 293.381L118.565 294.439Z" fill="white"/>
</g>
<g style="mix-blend-mode:overlay" opacity="0.6">
<path d="M119.335 293.105L120.178 292.894C120.239 292.877 120.287 292.83 120.304 292.769L120.52 291.981C120.526 291.961 120.53 291.9 120.472 291.917C120.407 291.936 119.974 292.02 119.974 292.02L119.335 293.105Z" fill="white"/>
</g>
<g style="mix-blend-mode:overlay" opacity="0.6">
<path d="M173.102 294.918L172.99 294.99C172.025 295.614 170.816 295.729 169.75 295.298L159.821 291.279C159.821 291.279 161.374 289.725 162.316 290.043C162.316 290.043 164.342 290.645 173.102 294.918Z" fill="white"/>
</g>
<g style="mix-blend-mode:overlay" opacity="0.6">
<path d="M156.48 292.802C156.48 292.802 156.285 294.53 155.506 294.02C154.227 293.232 152.566 293.484 151.578 294.617C151.578 294.617 151.888 291.864 152.775 290.045C152.775 290.045 153.232 288.941 153.912 290.329C154.593 291.716 154.763 292.502 156.48 292.802Z" fill="white"/>
</g>
<g style="mix-blend-mode:overlay" opacity="0.6">
<path d="M174.189 295.137C174.189 295.137 173.032 295.29 172.799 296.405C172.661 297.095 172.656 297.805 172.784 298.497L176.809 298.56C176.809 298.56 176.605 296.452 175.818 295.84C175.326 295.501 174.773 295.262 174.189 295.137V295.137Z" fill="white"/>
</g>
<g style="mix-blend-mode:overlay" opacity="0.6">
<path d="M166.463 298.352L167.866 295.763C167.894 295.711 167.898 295.649 167.878 295.593C167.858 295.538 167.815 295.493 167.759 295.471L166.812 295.097C166.716 295.059 166.606 295.097 166.555 295.187L164.79 298.311L166.463 298.352Z" fill="white"/>
</g>
<g style="mix-blend-mode:overlay" opacity="0.6">
<path d="M164.094 298.294L165.901 295.005C165.929 294.953 165.934 294.891 165.913 294.836C165.893 294.78 165.85 294.735 165.795 294.714L164.847 294.339C164.751 294.301 164.641 294.339 164.59 294.43L162.476 298.167L162.928 298.264L164.094 298.294Z" fill="white"/>
</g>
<g style="mix-blend-mode:overlay" opacity="0.6">
<path d="M161.804 298.033L163.873 294.251C163.902 294.199 163.906 294.137 163.886 294.082C163.866 294.026 163.822 293.981 163.767 293.96L162.82 293.585C162.723 293.547 162.614 293.586 162.563 293.676L160.25 297.781L160.73 297.84L161.804 298.033Z" fill="white"/>
</g>
<path fill-rule="evenodd" clip-rule="evenodd" d="M127.117 290.824L127.117 290.824C127.092 290.817 125.311 290.267 122.324 290.828C122.317 290.83 122.31 290.83 122.303 290.83C122.238 290.828 122.184 290.778 122.177 290.714C122.163 290.64 122.209 290.569 122.281 290.552C125.338 289.979 127.114 290.532 127.189 290.556C127.259 290.582 127.297 290.658 127.275 290.729C127.268 290.764 127.246 290.793 127.216 290.811C127.186 290.829 127.15 290.834 127.117 290.824ZM163.285 292.285C163.405 292.38 163.58 292.361 163.676 292.241L164.745 290.893C164.84 290.772 164.819 290.597 164.698 290.502C164.578 290.407 164.403 290.426 164.307 290.546L163.238 291.894C163.144 292.015 163.165 292.189 163.285 292.285ZM151.532 295.227H151.532L151.532 295.231L151.532 295.227ZM151.641 297.019C151.641 297.019 158.712 297.323 162.931 298.277C162.931 298.277 174.387 298.573 176.809 298.573V299.56C176.809 299.805 176.711 300.039 176.539 300.212C176.366 300.385 176.131 300.482 175.887 300.482H152.443C152.198 300.482 151.964 300.385 151.791 300.212C151.618 300.039 151.521 299.805 151.521 299.56L151.531 296.059C151.544 296.381 151.581 296.702 151.641 297.019ZM165.61 292.971C165.514 293.091 165.339 293.11 165.219 293.015C165.099 292.919 165.078 292.745 165.172 292.624L166.241 291.276C166.337 291.156 166.512 291.137 166.632 291.232C166.753 291.328 166.774 291.502 166.679 291.623L165.61 292.971ZM166.735 293.82C166.855 293.915 167.03 293.895 167.126 293.776L168.195 292.428C168.289 292.307 168.268 292.132 168.148 292.037C168.028 291.942 167.853 291.961 167.757 292.081L166.688 293.429C166.594 293.55 166.614 293.724 166.735 293.82ZM168.997 294.71C168.901 294.829 168.726 294.849 168.606 294.753C168.486 294.658 168.465 294.484 168.559 294.363L169.628 293.015C169.724 292.895 169.899 292.876 170.019 292.971C170.139 293.066 170.16 293.241 170.066 293.362L168.997 294.71ZM170.496 295.441C170.617 295.536 170.791 295.517 170.888 295.397L171.957 294.049C172.051 293.928 172.03 293.753 171.91 293.658C171.789 293.563 171.615 293.582 171.518 293.702L170.45 295.05C170.355 295.171 170.376 295.345 170.496 295.441ZM118.792 297.434H126.804C128.396 297.434 129.688 298.326 129.688 299.427V300.524H115.908V299.427C115.908 298.326 117.2 297.434 118.792 297.434ZM126.855 295.155C126.835 295.122 126.803 295.099 126.765 295.091C126.676 295.067 124.536 294.514 120.853 295.087C120.814 295.091 120.779 295.111 120.755 295.141C120.732 295.172 120.721 295.21 120.727 295.249C120.743 295.319 120.806 295.368 120.878 295.365C120.887 295.365 120.896 295.365 120.905 295.363C124.504 294.802 126.65 295.352 126.678 295.36L126.678 295.36C126.757 295.382 126.84 295.341 126.87 295.265C126.88 295.228 126.875 295.188 126.855 295.155ZM127.023 293.967C127.06 293.975 127.092 293.999 127.111 294.032C127.13 294.065 127.134 294.104 127.124 294.14C127.097 294.216 127.016 294.258 126.939 294.235L126.939 294.235C126.912 294.228 124.839 293.678 121.362 294.239C121.353 294.24 121.345 294.241 121.336 294.241C121.266 294.242 121.204 294.194 121.19 294.124C121.184 294.087 121.194 294.048 121.217 294.018C121.24 293.987 121.274 293.968 121.312 293.963C124.869 293.39 126.937 293.943 127.023 293.967ZM127.181 292.86C127.163 292.827 127.132 292.803 127.095 292.794C127.011 292.77 124.992 292.217 121.518 292.79C121.48 292.796 121.447 292.816 121.424 292.846C121.402 292.877 121.393 292.915 121.399 292.952C121.412 293.02 121.472 293.069 121.542 293.068C121.55 293.068 121.558 293.068 121.567 293.066C124.962 292.506 126.986 293.055 127.013 293.063L127.013 293.063C127.089 293.085 127.169 293.043 127.194 292.968C127.204 292.932 127.2 292.893 127.181 292.86ZM127.102 292.039L127.102 292.039C127.15 292.053 127.202 292.041 127.238 292.006C127.274 291.972 127.289 291.921 127.277 291.872C127.266 291.823 127.229 291.785 127.181 291.771C127.1 291.747 125.159 291.194 121.82 291.767C121.77 291.775 121.729 291.809 121.712 291.856C121.695 291.903 121.704 291.956 121.735 291.994C121.767 292.033 121.817 292.052 121.867 292.043C125.13 291.482 127.076 292.032 127.102 292.039Z" fill="#727272"/>
<path d="M120.101 260.066C121.82 247.153 120.264 238.529 121.937 233.509C121.937 233.509 119.531 207.075 120.274 189.598H159.47C159.47 189.598 162.751 231.34 162.565 238.22C162.38 245.099 162.857 266.605 163.209 277.45C163.268 279.248 161.815 280.388 161.533 280.514C161.578 282.231 161.711 284.792 161.675 285.585C161.598 287.292 159.208 287.411 156.965 287.382C153.387 287.335 153.114 286.889 152.984 285.705C152.941 285.308 152.586 282.46 152.525 280.786C152.431 280.742 150.862 280.518 150.056 279.031C148.196 275.596 148.902 261.708 147.601 253.899C146.299 246.091 147.649 237.35 147.693 235.059C142.945 228.551 141 218.511 141 218.511L130.964 278.87C130.964 278.87 130.857 279.981 130.028 280.574C129.929 282.302 129.7 285.395 129.312 285.739C128.769 286.22 125.795 286.127 124.137 285.972C122.479 285.817 121.287 285.321 121.101 284.361C120.969 283.681 121.024 280.997 121.067 279.482C120.395 279.15 119.951 278.485 119.904 277.737C119.904 277.737 118.706 270.54 120.101 260.066Z" fill="#727272"/>
<g style="mix-blend-mode:overlay" opacity="0.6">
<path d="M159.942 285.543C159.979 285.543 160.015 285.528 160.041 285.502C160.067 285.476 160.082 285.44 160.082 285.403V281.452C160.082 281.375 160.019 281.312 159.942 281.312C159.865 281.312 159.802 281.375 159.802 281.452V285.403C159.802 285.44 159.817 285.476 159.843 285.502C159.87 285.528 159.905 285.543 159.942 285.543Z" fill="white"/>
</g>
<g style="mix-blend-mode:overlay" opacity="0.6">
<path d="M157.868 285.727C157.905 285.727 157.941 285.712 157.967 285.686C157.993 285.659 158.008 285.624 158.008 285.587V281.636C158.008 281.559 157.945 281.496 157.868 281.496C157.791 281.496 157.728 281.559 157.728 281.636V285.587C157.728 285.624 157.743 285.659 157.769 285.686C157.795 285.712 157.831 285.727 157.868 285.727Z" fill="white"/>
</g>
<g style="mix-blend-mode:overlay" opacity="0.6">
<path d="M156.2 285.859H156.203C156.28 285.857 156.341 285.794 156.34 285.717L156.267 281.766C156.265 281.69 156.203 281.629 156.127 281.629H156.124C156.047 281.63 155.986 281.694 155.987 281.771L156.06 285.721C156.062 285.798 156.124 285.859 156.2 285.859Z" fill="white"/>
</g>
<g style="mix-blend-mode:overlay" opacity="0.6">
<path d="M154.583 285.852C154.586 285.852 154.589 285.852 154.592 285.851C154.669 285.847 154.727 285.78 154.722 285.703L154.473 281.76C154.471 281.723 154.455 281.688 154.427 281.663C154.399 281.638 154.362 281.626 154.324 281.629C154.247 281.634 154.189 281.701 154.194 281.778L154.443 285.721C154.448 285.794 154.509 285.852 154.583 285.852Z" fill="white"/>
</g>
<g style="mix-blend-mode:overlay" opacity="0.6">
<path d="M127.697 285.112C127.769 285.112 127.829 285.058 127.836 284.987L128.245 281.057C128.251 281.007 128.229 280.958 128.189 280.929C128.148 280.9 128.095 280.894 128.049 280.915C128.004 280.935 127.972 280.978 127.967 281.028L127.558 284.958C127.554 284.995 127.565 285.032 127.588 285.06C127.612 285.089 127.646 285.108 127.683 285.111C127.687 285.112 127.692 285.112 127.697 285.112Z" fill="white"/>
</g>
<g style="mix-blend-mode:overlay" opacity="0.6">
<path d="M125.611 285.088C125.683 285.088 125.743 285.034 125.75 284.963L126.159 281.034C126.165 280.984 126.143 280.935 126.103 280.906C126.062 280.876 126.009 280.871 125.963 280.891C125.918 280.912 125.886 280.955 125.881 281.005L125.472 284.934C125.468 284.971 125.479 285.008 125.503 285.037C125.526 285.066 125.56 285.084 125.597 285.088C125.601 285.088 125.606 285.088 125.611 285.088Z" fill="white"/>
</g>
<g style="mix-blend-mode:overlay" opacity="0.6">
<path d="M123.942 285.029C124.014 285.029 124.075 284.973 124.081 284.901L124.417 280.964C124.421 280.927 124.409 280.89 124.385 280.862C124.361 280.834 124.327 280.816 124.29 280.813C124.214 280.807 124.147 280.864 124.139 280.94L123.802 284.877C123.799 284.914 123.811 284.95 123.835 284.979C123.859 285.007 123.893 285.025 123.93 285.028C123.934 285.028 123.938 285.029 123.942 285.029Z" fill="white"/>
</g>
<g style="mix-blend-mode:overlay" opacity="0.6">
<path d="M122.333 284.856C122.408 284.856 122.469 284.797 122.472 284.722L122.633 280.775C122.636 280.697 122.576 280.632 122.499 280.629C122.462 280.627 122.425 280.64 122.398 280.666C122.371 280.691 122.355 280.726 122.353 280.763L122.193 284.711C122.19 284.788 122.25 284.853 122.327 284.856H122.333Z" fill="white"/>
</g>
<g style="mix-blend-mode:overlay" opacity="0.6">
<path d="M120.098 201.18C120.106 201.18 120.115 201.179 120.123 201.178C128.769 199.639 127.349 190.054 127.334 189.957C127.322 189.881 127.25 189.83 127.174 189.842C127.098 189.854 127.046 189.925 127.058 190.001C127.073 190.095 128.449 199.413 120.074 200.903C120.002 200.916 119.953 200.981 119.959 201.053C119.965 201.125 120.026 201.18 120.098 201.18Z" fill="#B5B4B4"/>
</g>
<g style="mix-blend-mode:overlay" opacity="0.6">
<path d="M160.282 199.223C160.346 199.223 160.402 199.179 160.418 199.116C160.433 199.054 160.404 198.989 160.347 198.959C160.286 198.928 154.303 195.73 154.619 189.983C154.621 189.946 154.609 189.91 154.584 189.883C154.559 189.855 154.525 189.838 154.488 189.836C154.45 189.834 154.414 189.846 154.386 189.871C154.358 189.896 154.342 189.931 154.34 189.968C154.014 195.896 160.155 199.175 160.217 199.207C160.237 199.217 160.26 199.223 160.282 199.223Z" fill="#B5B4B4"/>
</g>
<g style="mix-blend-mode:overlay" opacity="0.6">
<path d="M159.469 189.598L159.703 192.643C144.163 198.803 120.196 194.527 120.196 194.527L120.274 189.598H159.469Z" fill="#B5B4B4"/>
</g>
<g style="mix-blend-mode:overlay" opacity="0.6">
<path d="M140.997 218.512L144.718 204.66C144.718 204.66 146.667 212.162 145.83 220.278C144.994 228.394 145.267 231.015 145.267 231.015C145.267 231.015 142.153 224.787 140.997 218.512Z" fill="#B5B4B4"/>
</g>
<g style="mix-blend-mode:overlay" opacity="0.6">
<path d="M160.236 199.96C160.236 199.96 158.57 199.263 157.92 201.866C157.269 204.469 158.04 217.298 158.784 224.549C159.528 231.8 160.423 242.863 160.564 248.626C160.706 254.39 162.652 257.039 162.652 257.039C162.652 257.039 162.513 237.889 162.475 234.863C162.421 230.609 161.212 213.858 160.236 199.96Z" fill="white"/>
</g>
<g style="mix-blend-mode:overlay" opacity="0.6">
<path d="M139.914 225.211C139.914 225.211 134.623 231.367 133.395 239.628C132.168 247.888 131.145 264.281 130.526 268.495C129.906 272.71 128.431 277.04 131.14 277.404L139.914 225.211Z" fill="white"/>
</g>
<g style="mix-blend-mode:overlay" opacity="0.6">
<path d="M147.648 237.487C147.653 237.487 147.658 237.487 147.662 237.486C147.699 237.483 147.733 237.465 147.757 237.436C147.78 237.407 147.791 237.37 147.788 237.334C147.783 237.288 147.362 232.758 149.175 229.735C149.201 229.693 149.202 229.639 149.178 229.595C149.154 229.552 149.108 229.524 149.058 229.523C149.008 229.523 148.961 229.549 148.936 229.592C147.074 232.694 147.505 237.315 147.509 237.361C147.516 237.432 147.577 237.487 147.648 237.487Z" fill="#B5B4B4"/>
</g>
<path d="M131.483 112.937C131.483 108.475 136.41 109.897 137.249 110.177C138.088 110.456 140.044 104.026 140.044 104.026C140.044 104.026 150.107 103.188 152.064 105.145C152.064 105.145 152.623 113.531 152.344 118.843C152.064 124.154 150.358 126.386 148.401 126.386C147.782 126.351 147.174 126.209 146.604 125.966V135.744L134.767 129.608L136.225 118.058C136.165 118.023 136.131 118.004 136.131 118.004C136.131 118.004 131.483 117.151 131.483 112.937Z" fill="#F7B17D"/>
<path d="M152.385 112.412C152.385 112.412 151.84 107.821 151.77 106.551C151.67 104.722 149.968 104.339 148.967 105.621C147.527 107.525 145.083 108.376 142.772 107.779C140.745 107.307 139.891 106.765 139.705 108.811C139.519 110.858 138.822 114.257 138.171 113.347C137.52 112.438 136.792 110.44 135.503 110.207C133.533 109.852 132.315 112.204 132.78 113.607C133.244 115.01 133.902 115.885 136.333 117.212L135.575 123.221C129.55 115.231 127.28 104.257 135.452 101.716C138.505 100.767 141.677 94.6152 147.584 96.0147C151.77 97.0063 151.77 100.214 152.068 103.002C157.692 103.235 152.385 112.412 152.385 112.412Z" fill="#352316"/>
<path d="M134.571 111.982C135.912 111.527 137.156 114.445 137.208 114.57C137.238 114.641 137.204 114.723 137.133 114.753C137.116 114.76 137.098 114.764 137.079 114.764C137.023 114.764 136.972 114.73 136.95 114.678C136.733 114.174 136.467 113.693 136.157 113.241C135.875 113.192 135.585 113.245 135.338 113.391C135.094 113.573 134.937 113.851 134.908 114.154C134.897 114.222 134.839 114.271 134.771 114.272C134.763 114.272 134.755 114.271 134.748 114.27C134.711 114.264 134.678 114.243 134.657 114.213C134.635 114.183 134.626 114.146 134.633 114.109C134.681 113.433 135.258 112.918 135.934 112.946C135.536 112.454 135.083 112.104 134.661 112.246C134.613 112.263 134.561 112.252 134.523 112.219C134.486 112.186 134.469 112.136 134.478 112.087C134.488 112.038 134.523 111.998 134.571 111.982H134.571Z" fill="#0B122D"/>
<path d="M146.606 126.103C146.672 126.103 146.729 126.057 146.743 125.992C146.757 125.928 146.723 125.862 146.663 125.836C146.617 125.815 142.024 123.76 140.086 121.277C140.039 121.216 139.951 121.205 139.89 121.252C139.829 121.3 139.818 121.388 139.866 121.449C141.847 123.988 146.359 126.007 146.55 126.091C146.568 126.099 146.587 126.103 146.606 126.103Z" fill="#0B122D"/>
<path d="M140.055 106.388C140.086 106.388 140.116 106.377 140.14 106.358C142.25 104.72 141.465 101.545 141.431 101.41C141.418 101.362 141.381 101.323 141.333 101.31C141.285 101.296 141.233 101.31 141.197 101.345C141.161 101.38 141.147 101.431 141.16 101.48C141.168 101.511 141.933 104.613 139.969 106.138C139.922 106.174 139.903 106.237 139.923 106.293C139.942 106.35 139.995 106.388 140.055 106.388V106.388Z" fill="white"/>
<g style="mix-blend-mode:overlay" opacity="0.6">
<path d="M146.596 126.03C146.596 126.03 142.568 124.156 141.267 122.793C141.267 122.793 141.567 126.469 144.227 129.053C146.888 131.636 146.596 129.548 146.596 129.548L146.596 126.03Z" fill="#030F1C"/>
</g>
<path d="M145.629 111.076C145.589 111.55 145.79 111.953 146.078 111.977C146.366 112.001 146.631 111.637 146.671 111.163C146.71 110.69 146.509 110.287 146.221 110.263C145.933 110.239 145.668 110.603 145.629 111.076" fill="#161B36"/>
<path d="M150.754 111.862C150.714 112.335 150.915 112.738 151.204 112.762C151.491 112.786 151.756 112.422 151.796 111.948C151.835 111.475 151.634 111.072 151.347 111.048C151.058 111.024 150.793 111.388 150.754 111.862" fill="#161B36"/>
<path d="M147.39 108.29C147.152 108.143 146.86 108.06 146.139 108.323C145.417 108.586 144.509 109.609 144.807 109.714C145.105 109.819 145.661 108.999 146.3 109.027C146.938 109.055 147.32 109.121 147.482 108.954C147.686 108.744 147.504 108.361 147.39 108.29Z" fill="#161B36"/>
<path d="M151.018 108.665C151.29 108.6 151.593 108.612 152.196 109.087C152.8 109.562 153.344 110.816 153.028 110.823C152.712 110.83 152.44 109.878 151.824 109.705C151.208 109.533 150.825 109.476 150.723 109.267C150.595 109.004 150.887 108.697 151.018 108.665" fill="#161B36"/>
<g style="mix-blend-mode:overlay" opacity="0.6">
<path d="M149.106 117.182C149.315 117.189 149.524 117.147 149.715 117.06C149.877 116.986 149.998 116.843 150.044 116.67C150.132 116.312 149.807 115.719 149.407 115.037C149.304 114.874 149.212 114.705 149.13 114.531C149.054 114.325 149.231 112.523 149.446 110.9L149.169 110.863C149.094 111.426 148.73 114.252 148.868 114.627C148.954 114.818 149.054 115.002 149.166 115.179C149.418 115.608 149.841 116.326 149.773 116.604C149.746 116.697 149.678 116.773 149.589 116.81C149.174 116.949 148.723 116.926 148.325 116.744L148.218 117.003C148.499 117.119 148.801 117.18 149.106 117.182Z" fill="#030F1C"/>
</g>
<path d="M144.629 120.254C144.629 121.129 145.559 121.836 146.705 121.836C147.051 121.838 147.393 121.77 147.712 121.638C148.352 121.37 148.785 120.85 148.785 120.254C148.785 119.379 147.854 118.672 146.705 118.672C145.696 118.672 144.852 119.223 144.668 119.952C144.642 120.051 144.629 120.152 144.629 120.254Z" fill="#161B36"/>
<path d="M144.632 120.255C144.632 121.13 145.562 121.838 146.709 121.838C147.054 121.839 147.396 121.772 147.715 121.639C147.402 121.195 146.309 119.828 144.671 119.953C144.645 120.052 144.632 120.154 144.632 120.255Z" fill="#E55151"/>
<path d="M89.4199 135.604L106.311 154.982C106.502 155.199 106.793 155.302 107.078 155.253C107.364 155.205 107.604 155.013 107.714 154.745C109.107 151.341 110.696 148.02 112.473 144.8C115.928 138.601 120.31 132.335 125.525 131.465C128.737 130.599 133.808 129.526 133.808 129.526L135.065 124.754C136.529 128.152 139.473 130.688 143.05 131.633C145.431 130.547 146.506 127.853 146.506 127.853L148.56 130.27C148.56 130.27 155.851 133.404 158.596 135.505C161.801 137.588 163.142 142.571 165.99 147.681C168.186 151.623 170.342 155.62 172.217 157.765C172.505 158.09 172.919 158.275 173.353 158.274C173.787 158.272 174.2 158.085 174.486 157.759C174.486 157.759 186.798 143.884 191.67 138.392C192.739 140.531 194.784 142.855 197.434 142.948C189.51 156.507 179.393 172.551 176.463 173.602C173.971 174.497 170.932 173.672 168.608 171.349C164.51 167.254 161.213 163.487 158.543 160.298C158.305 163.377 158.128 166.033 158.12 167.703C158.1 172.057 158.56 177.095 158.703 182.763C158.771 185.447 161.336 190.722 159.266 192.431C152.587 197.947 119.792 192.431 119.792 192.431C119.832 189.215 120.235 186.013 120.995 182.887C122.552 176.883 122.324 173.839 122.125 170.306C122.043 168.855 121.811 163.411 121.556 157.361C118.465 161.299 115.431 164.81 112.439 167.613C106.955 172.75 103.878 172.26 95.2823 158.865C94.0543 156.952 83.9773 142.616 82.5412 140.159C88.5833 140.159 89.4199 135.604 89.4199 135.604Z" fill="#D1D1D1"/>
<g style="mix-blend-mode:overlay" opacity="0.6">
<path d="M164.131 149.606C164.749 151.157 165.68 153.201 167.726 156.547C169.769 159.894 172.405 162.605 175.718 159.818C178.393 157.565 181.792 152.768 182.81 151.403C183.827 150.042 182.81 148.412 182.81 148.412C178.34 153.444 174.485 157.755 174.485 157.755C174.198 158.081 173.786 158.268 173.352 158.27C172.918 158.271 172.504 158.087 172.215 157.763C170.342 155.616 168.185 151.619 165.99 147.677C165.769 147.277 165.551 146.88 165.344 146.48H165.342C165.342 146.48 163.511 148.057 164.131 149.606Z" fill="#DCE4EF"/>
</g>
<g style="mix-blend-mode:overlay" opacity="0.6">
<path d="M159.5 148.137C162.047 151.659 161.057 159.302 163.235 161.974C165.459 164.703 169.62 166.799 168.61 171.349C164.561 167.09 161.155 163.474 158.544 160.327C158.835 156.557 159.219 152.15 159.5 148.137Z" fill="#030F1C"/>
</g>
<path d="M174.806 163.324C174.862 163.324 174.912 163.29 174.934 163.239C174.956 163.187 174.945 163.127 174.906 163.087C173.262 161.391 173.509 159.058 173.512 159.035C173.516 158.998 173.506 158.961 173.483 158.932C173.46 158.903 173.426 158.884 173.389 158.88C173.352 158.875 173.315 158.886 173.286 158.909C173.257 158.932 173.238 158.966 173.234 159.003C173.223 159.103 172.966 161.488 174.705 163.281C174.731 163.308 174.768 163.324 174.806 163.324Z" fill="#0B122D"/>
<path d="M144.99 194.987C145.062 194.987 145.123 194.932 145.129 194.86C145.305 192.689 145.052 186.46 144.807 180.437C144.558 174.295 144.3 167.945 144.497 165.919C144.886 161.926 143.21 133.339 143.192 133.05C143.19 133 143.161 132.956 143.116 132.933C143.072 132.91 143.018 132.913 142.977 132.941C142.935 132.968 142.911 133.016 142.914 133.066C142.93 133.354 144.605 161.919 144.219 165.891C144.02 167.936 144.278 174.296 144.528 180.447C144.772 186.462 145.025 192.682 144.85 194.836C144.844 194.913 144.901 194.98 144.978 194.987C144.982 194.987 144.986 194.987 144.99 194.987Z" fill="#0B122D"/>
<g style="mix-blend-mode:overlay" opacity="0.6">
<path d="M146.505 127.852C146.505 127.852 145.429 130.546 143.048 131.632L146.285 135.289L148.559 130.269L146.505 127.852Z" fill="white"/>
</g>
<g style="mix-blend-mode:overlay" opacity="0.6">
<path d="M135.066 124.754C136.53 128.152 139.474 130.688 143.051 131.633C141.631 132.997 141.267 135.29 141.267 135.29L133.809 129.526L135.066 124.754Z" fill="white"/>
</g>
<g style="mix-blend-mode:overlay" opacity="0.6">
<path d="M121.588 157.321C123.471 154.919 125.376 152.359 127.305 149.699C127.457 151.797 127.808 159.006 126.146 166.078C123.637 176.752 127.646 183.849 131.611 188.032C134.978 191.584 141.915 192.432 146.902 194.884C137.371 195.407 119.792 192.432 119.792 192.432C119.792 192.432 119.724 187.91 121.428 181.092C122.916 175.135 121.875 160.838 121.588 157.321Z" fill="#030F1C"/>
</g>
<path d="M159.071 153.885C159.14 153.885 159.198 153.835 159.208 153.766C160.117 147.577 159.658 143.1 159.653 143.055C159.645 142.979 159.576 142.923 159.5 142.93C159.463 142.934 159.429 142.952 159.406 142.981C159.382 143.01 159.371 143.047 159.375 143.084C159.38 143.128 159.835 147.573 158.932 153.725C158.92 153.801 158.973 153.872 159.05 153.884C159.057 153.885 159.064 153.885 159.071 153.885Z" fill="#0B122D"/>
<path d="M155.468 187.362C155.493 187.363 155.517 187.356 155.538 187.344C157.971 185.937 158.805 182.925 158.839 182.797C158.859 182.723 158.815 182.646 158.741 182.626C158.666 182.606 158.59 182.649 158.569 182.724C158.561 182.754 157.729 185.753 155.397 187.102C155.342 187.134 155.316 187.198 155.333 187.259C155.349 187.32 155.405 187.363 155.468 187.362Z" fill="#0B122D"/>
<g style="mix-blend-mode:overlay" opacity="0.6">
<path d="M141.266 135.291L129.249 130.549L133.807 129.527L141.266 135.291Z" fill="#030F1C"/>
</g>
<g style="mix-blend-mode:overlay" opacity="0.6">
<ellipse rx="0.435059" ry="0.433429" transform="matrix(-0.70774 -0.706473 -0.706412 0.707801 144.277 144.71)" fill="#030F1C"/>
</g>
<g style="mix-blend-mode:overlay" opacity="0.6">
<ellipse rx="0.435057" ry="0.433427" transform="matrix(-0.707738 -0.706475 -0.706411 0.707802 144.003 153.312)" fill="#030F1C"/>
</g>
<g style="mix-blend-mode:overlay" opacity="0.6">
<ellipse rx="0.43506" ry="0.43343" transform="matrix(-0.707734 -0.706479 -0.706406 0.707807 143.32 162.761)" fill="#030F1C"/>
</g>
<g style="mix-blend-mode:overlay" opacity="0.6">
<ellipse rx="0.435059" ry="0.43343" transform="matrix(-0.707743 -0.70647 -0.706415 0.707798 143.198 171.581)" fill="#030F1C"/>
</g>
<g style="mix-blend-mode:overlay" opacity="0.6">
<ellipse rx="0.435059" ry="0.433429" transform="matrix(-0.707742 -0.706471 -0.706414 0.707799 143.679 184.007)" fill="#030F1C"/>
</g>
<path d="M142.67 135.77L141.586 134.082C141.586 134.082 142.175 132.361 143.049 131.633L145.559 134.468L145.1 135.77L149.961 177.495L146.176 181.833L141.603 177.284L142.67 135.77Z" fill="#E37171"/>
<g style="mix-blend-mode:overlay" opacity="0.6">
<path d="M131.489 155.429L134.701 156.916L137.902 155.429L137.875 148.145H131.461L131.489 155.429Z" fill="white"/>
</g>
<g style="mix-blend-mode:overlay" opacity="0.6">
<path d="M149.083 148.921H156.055L156.051 147.883H149.079L149.083 148.921Z" fill="white"/>
</g>
<path d="M105.784 160.304C105.822 160.304 105.858 160.288 105.884 160.261C107.623 158.468 107.367 156.083 107.355 155.983C107.346 155.906 107.277 155.851 107.2 155.86C107.124 155.869 107.069 155.938 107.077 156.015C107.08 156.038 107.328 158.371 105.684 160.067C105.645 160.107 105.633 160.167 105.655 160.218C105.677 160.27 105.728 160.304 105.784 160.304Z" fill="#0B122D"/>
<path d="M125.274 152.205C125.303 152.205 125.331 152.197 125.354 152.181C129.351 149.405 129.364 143.364 129.363 143.303C129.364 143.266 129.35 143.23 129.323 143.203C129.296 143.177 129.26 143.163 129.223 143.164C129.146 143.165 129.083 143.228 129.084 143.305C129.084 143.364 129.07 149.26 125.195 151.951C125.144 151.986 125.123 152.049 125.141 152.107C125.159 152.166 125.213 152.206 125.274 152.205Z" fill="#0B122D"/>
<g style="mix-blend-mode:overlay" opacity="0.60001">
<path d="M161.93 139.563C160.733 138.258 158.482 135.627 155.183 134.836C153.03 134.297 150.93 133.566 148.908 132.652L149.811 130.848C149.811 130.848 152.248 131.893 156.364 134.078C160.996 136.538 161.507 139.079 161.93 139.563Z" fill="white"/>
</g>
<path fill-rule="evenodd" clip-rule="evenodd" d="M73.6149 123.073C73.3592 122.734 72.3431 122.633 72.3431 122.633C72.3431 122.633 73.1135 125.39 72.9255 127.801C72.795 129.476 73.3574 130.468 73.8815 131.393C74.112 131.799 74.3351 132.193 74.4886 132.625C74.9914 134.042 76.1529 135.705 79.3293 136.155C80.7991 136.363 82.5869 137.945 84.3408 140.003C86.7074 139.579 87.9978 138.346 88.6836 137.291L86.6701 134.983C86.6701 134.983 86.4586 133.796 84.9449 132.386C83.7739 131.296 81.086 131.043 79.9287 130.985C79.5597 130.967 79.2011 130.857 78.8853 130.665L77.1374 129.601C76.8953 129.453 76.7403 129.197 76.7221 128.914C76.6367 127.916 76.6606 126.912 76.7934 125.92C77.0382 124.671 75.7896 124.426 75.7896 124.426L75.1251 129.556C75.1251 129.556 74.7949 125.621 74.8272 124.302C74.8635 123.97 74.7482 123.638 74.5131 123.4C74.2781 123.161 73.9482 123.041 73.6149 123.073ZM201.246 133.169C200.089 133.228 197.401 133.48 196.23 134.571C194.716 135.98 194.505 137.168 194.505 137.168L192.379 139.605C193.332 141.025 194.693 142.32 196.346 142.773C198.253 140.436 200.239 138.567 201.846 138.34C205.022 137.89 206.184 136.227 206.687 134.81C206.84 134.377 207.063 133.984 207.294 133.577C207.818 132.653 208.38 131.661 208.25 129.986C208.062 127.574 208.832 124.817 208.832 124.817C208.832 124.817 207.816 124.919 207.56 125.257C207.227 125.226 206.897 125.346 206.662 125.584C206.427 125.822 206.312 126.154 206.348 126.487C206.38 127.806 206.05 131.74 206.05 131.74L205.386 126.611C205.386 126.611 204.137 126.856 204.382 128.104C204.515 129.097 204.538 130.101 204.453 131.098C204.435 131.381 204.28 131.638 204.038 131.785L202.29 132.849C201.974 133.041 201.615 133.151 201.246 133.169Z" fill="#F7B17D"/>
<path d="M73.4387 123.406C73.4393 123.368 73.4555 123.333 73.4834 123.308C73.5114 123.283 73.5485 123.27 73.5858 123.274C73.6228 123.276 73.6575 123.293 73.6823 123.32C73.707 123.348 73.7197 123.384 73.7177 123.421C73.7155 123.465 73.4848 127.82 73.787 128.825C73.7977 128.86 73.7939 128.899 73.7763 128.931C73.7587 128.964 73.7289 128.988 73.6934 128.999C73.6804 129.003 73.6669 129.005 73.6532 129.005C73.5915 129.005 73.5371 128.964 73.5195 128.905C73.2031 127.854 73.4289 123.587 73.4387 123.406Z" fill="#0B122D"/>
<path d="M75.1811 130.504C75.2539 130.479 75.3337 130.517 75.3597 130.589C75.3646 130.604 75.874 132.028 76.3943 132.426C76.4556 132.473 76.4674 132.561 76.4205 132.623C76.3736 132.684 76.2858 132.696 76.2245 132.649C75.6384 132.2 75.1178 130.744 75.096 130.683C75.0704 130.61 75.1084 130.53 75.1811 130.504Z" fill="#0B122D"/>
<path d="M77.0854 129.858C77.1095 129.887 79.4983 132.695 82.5941 132.853C82.6697 132.857 82.7284 132.92 82.7265 132.996C82.7246 133.072 82.6627 133.132 82.587 133.132L82.5799 133.132C79.3602 132.968 76.9713 130.157 76.8711 130.038C76.8219 129.979 76.8298 129.891 76.8888 129.841C76.9478 129.792 77.0357 129.799 77.0854 129.858L77.0854 129.858Z" fill="#0B122D"/>
<path d="M207.458 125.605C207.456 125.568 207.469 125.531 207.493 125.504C207.518 125.476 207.553 125.46 207.59 125.458C207.627 125.454 207.664 125.467 207.692 125.492C207.72 125.517 207.736 125.552 207.737 125.589C207.747 125.771 207.973 130.037 207.656 131.089C207.642 131.137 207.603 131.174 207.554 131.186C207.505 131.197 207.454 131.182 207.42 131.145C207.386 131.108 207.374 131.056 207.389 131.008C207.691 130.003 207.46 125.648 207.458 125.605Z" fill="#0B122D"/>
<path d="M205.818 132.773C205.844 132.7 205.924 132.662 205.997 132.688C206.069 132.714 206.108 132.793 206.082 132.866C206.06 132.928 205.539 134.384 204.953 134.832C204.914 134.863 204.861 134.87 204.814 134.851C204.768 134.832 204.736 134.789 204.729 134.739C204.723 134.69 204.744 134.641 204.784 134.61C205.304 134.212 205.813 132.787 205.818 132.773Z" fill="#0B122D"/>
<path d="M198.585 135.037C201.68 134.879 204.069 132.07 204.093 132.042C204.143 131.983 204.231 131.975 204.29 132.025C204.349 132.074 204.357 132.162 204.308 132.221C204.207 132.341 201.819 135.152 198.599 135.316L198.592 135.316C198.516 135.316 198.454 135.255 198.452 135.18C198.45 135.104 198.509 135.041 198.585 135.037L198.585 135.037Z" fill="#0B122D"/>
<path fill-rule="evenodd" clip-rule="evenodd" d="M68.3699 205.417C68.9065 203.683 79.372 199.074 81.0272 209.003C81.7352 213.25 78.7925 229.08 77.4301 236.409C77.0203 238.614 76.7535 240.049 76.772 240.168C77.9045 247.472 76.288 256.832 74.7983 265.458C74.1691 269.102 73.5625 272.614 73.1951 275.785C72.9484 277.915 72.64 283.125 72.6641 283.904C72.6733 284.2 72.8458 284.729 73.0528 285.362C73.5719 286.951 74.3076 289.204 73.2283 290.134C70.8774 290.909 69.0729 293.033 67.3568 295.053C64.5908 298.31 62.0543 301.296 57.8289 297.922C57.8289 297.518 57.6979 297.225 57.589 296.981C57.406 296.571 57.2855 296.301 57.9544 295.882C62.7561 292.872 63.6367 290.066 64.1904 288.302C64.305 287.937 64.4055 287.617 64.5239 287.349C65.5963 284.917 66.285 279.141 66.2821 276.563C66.2705 266.142 64.6355 235.623 64.6355 235.623C64.6355 235.623 66.6766 210.889 68.3699 205.417ZM101.023 285.769C101.023 285.769 104.102 295.508 104.179 295.764C104.231 295.928 104.219 296.105 104.146 296.261C104.088 296.283 104.031 296.304 103.977 296.328C103.916 296.353 103.857 296.381 103.8 296.413C101.416 296.97 96.6423 296.685 95.2957 296.4C95.2018 296.376 95.1096 296.345 95.0196 296.309C94.9861 296.296 94.9532 296.282 94.9209 296.268C94.8723 296.246 94.8263 296.223 94.7806 296.199C94.6846 296.149 94.5922 296.093 94.5039 296.03L94.5036 296.03C94.4836 295.92 94.4716 295.808 94.4678 295.696C94.4583 295.368 95.5197 286.054 95.5197 286.054C95.5197 286.054 95.1005 279.359 93.7924 270.732C93.7118 270.2 93.4421 268.581 93.0536 266.248C91.911 259.388 89.7403 246.356 88.3266 236.655C88.2592 236.192 88.1982 235.436 88.1234 234.509C87.9241 232.038 87.6271 228.357 86.8518 225.818C85.5682 221.614 84.8321 216.584 84.4521 213.287C84.4996 212.097 84.5521 210.814 84.6082 209.498C86.9811 208.305 97.3005 203.528 100.965 208.705C100.966 209.601 100.932 210.955 100.892 212.577C100.793 216.625 100.652 222.334 100.902 226.699C100.971 227.894 101.119 229.19 101.28 230.594C101.559 233.021 101.874 235.77 101.874 238.865C101.874 248.238 101.472 254.705 101.15 259.877C100.966 262.836 100.808 265.372 100.767 267.785C100.515 282.629 101.023 285.769 101.023 285.769Z" fill="#F7B17D"/>
<path fill-rule="evenodd" clip-rule="evenodd" d="M66.7678 293.312C66.9551 293.073 67.1515 292.823 67.3594 292.562C69.6183 289.72 75.1825 288.297 75.1999 288.293L75.1999 288.293C75.0439 288.831 74.2247 300.83 74.2247 300.83H72.8595V293.331C72.8595 290.946 71.6892 291.6 71.6892 291.6C67.0252 293.653 65.8464 297.838 65.5486 299.787C65.4595 300.385 64.9398 300.829 64.3268 300.83H58.5862C58.069 300.83 57.6071 300.511 57.4307 300.031L56.2812 296.907H61.4303C63.9453 296.907 64.9163 295.67 66.7678 293.312ZM93.9228 297.899V296.036L104.755 296.036L104.742 297.899C104.742 299.48 104.164 300.761 103.452 300.761H95.2135C94.5007 300.761 93.9228 299.48 93.9228 297.899Z" fill="#727272"/>
<path fill-rule="evenodd" clip-rule="evenodd" d="M70.6796 285.989C70.9137 284.912 72.552 283.527 72.552 283.527L73.3321 284.373C71.0307 286.565 71.3217 289.727 71.3217 289.727L69.1973 290.911L69.6264 287.335L63.8599 286.298C63.3741 289.095 61.5538 293.517 61.5538 293.517L61.547 293.513C62.6692 294.156 63.756 294.856 64.8027 295.613C63.0607 298.122 56.2858 296.91 56.2858 296.91C55.7397 294.295 61.0057 293.257 61.0057 293.257C62.7221 291.18 63.4242 285.412 63.4242 285.412H63.9703C63.9699 285.419 63.9692 285.427 63.9684 285.435C63.9678 285.442 63.9672 285.448 63.9668 285.455L70.6796 285.989ZM99.3417 287.44L99.4954 291.866C102.439 292.217 104.758 296.042 104.758 296.042C104.758 296.042 103.396 297.652 99.3417 297.652C94.5556 297.652 93.9258 296.042 93.9258 296.042C94.2027 294.6 96.177 292.476 98.1814 291.96C98.1229 290.43 98.0237 288.292 97.9002 287.44C97.9002 287.44 96.0976 287.266 95.4422 286.769C95.4422 286.769 94.8749 285.899 95.4685 285.303C95.4685 285.303 98.2521 286.868 100.967 285.242C101.707 285.576 101.306 286.664 101.306 286.664C101.306 286.664 100.743 287.111 99.3417 287.44Z" fill="#727272"/>
<path d="M102.422 214.338C103.246 209.984 104.384 202.915 103.381 196.375C102.105 188.065 99.7455 186.048 98.2874 178.151C89.4724 174.392 77.7435 174.145 68.5548 178.814C65.3247 203.163 64.7955 208.446 64.7044 211.85C64.6366 214.384 61.7853 261.689 59.7548 272.201C59.2306 274.915 75.1765 274.232 76.5445 272.448C78.3293 270.121 79.9808 244.004 81.1284 233.245C82.2848 228.143 83.5819 214.287 83.5819 214.287C83.5819 214.287 83.9805 218.977 85.7278 229.569C88.2319 244.749 91.0764 273.092 91.0764 273.092C91.512 273.33 101.306 273.829 102.894 272.263C105.251 269.938 101.123 221.202 102.422 214.338Z" fill="#727272"/>
<path d="M99.5532 267.569C99.4796 267.569 99.4184 267.513 99.4123 267.441C99.3815 267.074 96.3319 230.606 96.8429 222.343C97.3528 214.097 96.8478 191.534 96.8426 191.307C96.8409 191.23 96.9028 191.166 96.9809 191.164H96.984C97.0609 191.164 97.1237 191.225 97.1255 191.3C97.1306 191.527 97.6358 214.102 97.1252 222.36C96.6155 230.603 99.6635 267.051 99.6944 267.418C99.6975 267.455 99.6856 267.492 99.6613 267.52C99.6371 267.548 99.6025 267.566 99.5651 267.569C99.5611 267.569 99.5571 267.569 99.5532 267.569Z" fill="#0B122D"/>
<path d="M90.614 268.745C90.5392 268.745 90.4773 268.687 90.4729 268.613C90.4685 268.54 90.5231 268.475 90.5974 268.467C90.7191 268.452 102.767 267.043 103.586 266.923C103.636 266.916 103.686 266.935 103.718 266.975C103.749 267.014 103.757 267.066 103.738 267.113C103.72 267.159 103.677 267.192 103.627 267.199C102.805 267.319 90.7524 268.729 90.6309 268.744C90.6253 268.744 90.6196 268.745 90.614 268.745Z" fill="#0B122D"/>
<path d="M77.528 267.572H60.5711C60.493 267.572 60.4297 267.51 60.4297 267.433C60.4297 267.356 60.493 267.293 60.5711 267.293H77.528C77.6061 267.293 77.6694 267.356 77.6694 267.433C77.6694 267.51 77.6061 267.572 77.528 267.572Z" fill="#0B122D"/>
<path d="M71.8838 267.199C71.8792 267.199 71.8745 267.199 71.8697 267.198C71.792 267.191 71.7352 267.122 71.7429 267.046C71.7803 266.672 75.5083 229.501 77.5343 217.082C77.5397 217.046 77.56 217.013 77.5906 216.991C77.6211 216.969 77.6593 216.96 77.6964 216.967C77.7335 216.973 77.7666 216.993 77.7886 217.023C77.8106 217.053 77.8196 217.09 77.8136 217.127C75.789 229.537 72.0618 266.699 72.0244 267.073C72.0173 267.144 71.9565 267.199 71.8838 267.199Z" fill="#0B122D"/>
<path d="M100.74 191.974C90.8359 191.974 89.4751 181.946 89.4619 181.839C89.4528 181.763 89.5079 181.694 89.5852 181.685C89.6625 181.675 89.7329 181.729 89.7426 181.806C89.7562 181.914 91.2198 192.667 102.219 191.623C102.297 191.616 102.366 191.672 102.373 191.748C102.381 191.825 102.324 191.893 102.246 191.901C101.724 191.95 101.222 191.975 100.74 191.974Z" fill="#0B122D"/>
<path d="M101.128 187.998C98.9064 187.998 97.1452 187.324 95.8936 185.994C93.54 183.493 93.8072 179.602 93.8198 179.438C93.8222 179.401 93.8397 179.366 93.8682 179.342C93.8967 179.318 93.9338 179.306 93.9713 179.309C94.0492 179.315 94.1076 179.382 94.1019 179.458C94.099 179.498 93.8326 183.395 96.102 185.805C97.298 187.075 98.989 187.719 101.128 187.719C101.206 187.719 101.27 187.782 101.27 187.859C101.27 187.936 101.206 187.998 101.128 187.998Z" fill="#0B122D"/>
<path d="M67.161 188.606C67.0959 188.606 67.0392 188.562 67.0236 188.5C67.0081 188.437 67.0377 188.373 67.0954 188.343C67.1458 188.317 72.1437 185.683 71.8796 180.954C71.8761 180.878 71.9356 180.813 72.0131 180.809C72.0906 180.805 72.157 180.863 72.162 180.939C72.4363 185.849 67.2784 188.563 67.2264 188.59C67.2062 188.6 67.1838 188.606 67.161 188.606Z" fill="#0B122D"/>
<g style="mix-blend-mode:overlay" opacity="0.6">
<path d="M64.7055 211.84C64.7055 211.84 67.3706 212.953 67.496 216.663C67.6215 220.373 66.7126 241.644 66.1008 250.425C65.4889 259.205 60.9922 262.913 60.9922 262.913C63.2852 238.858 64.7055 211.84 64.7055 211.84Z" fill="white"/>
</g>
<g style="mix-blend-mode:overlay" opacity="0.6">
<path d="M84.9609 224.738C84.9609 224.738 87.6919 226.56 88.57 230.889C89.4481 235.217 93.6705 258.096 92.5001 261.806C91.3297 265.516 90.2698 265.386 90.2698 265.386C88.4954 246.02 84.9609 224.738 84.9609 224.738Z" fill="white"/>
</g>
<g style="mix-blend-mode:overlay" opacity="0.6">
<path d="M83.584 214.277L79.4863 197.223C79.4863 197.223 76.0638 204.871 76.4343 210.805C76.8048 216.74 79.6335 221.517 81.7289 229.962L83.584 214.277Z" fill="#030F1C"/>
</g>
<g style="mix-blend-mode:overlay" opacity="0.6">
<path d="M68.5544 178.807L68 183.053C68 183.053 79.345 189.441 100.402 186.149C100.402 186.149 98.5766 180.766 98.2869 178.145L68.5544 178.807Z" fill="#030F1C"/>
</g>
<path d="M91.3351 115.343C90.6739 112.01 89.6159 109.527 85.3178 112.506C85.3178 112.506 85.28 109.204 83.7591 107.9C82.2383 106.596 72.6298 100.786 72.2622 110.335C72.2622 110.335 72.0859 118.005 72.0859 119.92C72.0859 121.835 74.8702 128.323 77.1846 128.323C77.9049 128.306 78.6172 128.168 79.2919 127.917C78.9726 130.631 78.1271 133.257 76.8022 135.65L91.019 132.887C91.019 132.887 88.4685 128.936 88.0219 121.173C90.0196 119.388 91.7865 117.619 91.3351 115.343Z" fill="#F7B17D"/>
<path d="M95.3767 112.178C94.0443 106.543 92.1466 98.4575 80.6713 99.2448C75.6543 99.5891 72.7491 101.746 71.3336 104.179L71.332 104.177C71.332 104.177 68.8252 106.873 70.2463 116.801C71.1955 123.433 70.1405 125.345 67.4609 130.601C69.6743 133.232 74.1071 133.903 77.6361 133.977C78.4794 132.049 79.0363 130.009 79.2893 127.921C78.6146 128.173 77.9023 128.31 77.182 128.328C74.8676 128.328 72.0833 121.84 72.0833 119.925C72.0833 118.153 72.2342 111.457 72.2567 110.466C72.9527 109.589 73.9346 108.268 74.3431 107.314C74.3431 107.314 75.2425 111.126 80.6713 112.539C83.5586 113.291 83.908 115.95 84.8513 115.713C85.2299 115.618 85.3094 112.93 87.6897 112.539C90.0699 112.148 92.3418 115.65 90.8168 117.788C89.9966 118.973 89.0468 120.064 87.9848 121.041C87.9848 121.041 88.465 128.184 90.6524 132.235C90.6524 132.235 98.9379 132.235 104.526 124.358C99.4655 122.142 96.199 115.655 95.3767 112.178Z" fill="#352316"/>
<g style="mix-blend-mode:overlay" opacity="0.6">
<path d="M79.289 127.919C79.289 127.919 82.5272 126.509 84.8259 124.352C84.901 126.658 84.103 128.909 82.59 130.657C81.3991 131.993 79.5349 132.381 78.2266 132.469C78.7551 130.998 79.1116 129.471 79.289 127.919Z" fill="#030F1C"/>
</g>
<path d="M97.7115 126.65C97.693 126.65 97.6748 126.647 97.6577 126.64C96.1802 126.03 95.0122 124.461 94.2799 122.104C93.9423 120.998 93.719 119.862 93.6136 118.712C93.6085 118.635 93.6668 118.568 93.744 118.563C93.8212 118.558 93.8882 118.615 93.8938 118.692C93.8981 118.755 94.3703 124.981 97.7652 126.381C97.8271 126.407 97.8622 126.472 97.8491 126.538C97.8361 126.603 97.7784 126.65 97.7115 126.65Z" fill="white"/>
<path d="M83.7549 108.043C83.6962 108.043 83.6437 108.006 83.6233 107.951C82.5998 105.2 78.7185 103.926 78.6794 103.914C78.6317 103.898 78.5957 103.859 78.5852 103.81C78.5746 103.761 78.591 103.71 78.6282 103.677C78.6654 103.643 78.7178 103.632 78.7655 103.647C78.9303 103.7 82.8153 104.974 83.8865 107.854C83.9024 107.897 83.8963 107.945 83.8701 107.983C83.8438 108.02 83.8008 108.043 83.7549 108.043Z" fill="white"/>
<path d="M77.6164 111.461C77.8068 111.248 78.0686 111.082 78.854 111.129C79.6393 111.177 80.8292 111.912 80.5674 112.102C80.3057 112.291 79.5203 111.651 78.9015 111.865C78.2828 112.078 77.9275 112.254 77.7196 112.137C77.4578 111.991 77.5249 111.564 77.6164 111.461Z" fill="#161B36"/>
<path d="M74.2151 111.243C73.9657 111.103 73.6642 111.03 72.9363 111.327C72.2084 111.625 71.3204 112.702 71.6296 112.798C71.9388 112.893 72.4747 112.035 73.1294 112.038C73.7842 112.041 74.1773 112.093 74.3365 111.916C74.5369 111.693 74.335 111.311 74.2151 111.243Z" fill="#161B36"/>
<g style="mix-blend-mode:overlay" opacity="0.6">
<path d="M75.5692 120.841C75.2522 120.846 74.9397 120.767 74.6642 120.61C74.4668 120.506 74.3263 120.319 74.2811 120.101C74.2153 119.689 74.5857 118.884 74.9709 118.094C75.0333 117.966 75.0841 117.862 75.1137 117.794C75.6117 116.655 75.3852 114.489 75.3829 114.467C75.3775 114.417 75.3992 114.369 75.4397 114.339C75.4802 114.31 75.5334 114.304 75.5792 114.324C75.6251 114.345 75.6566 114.388 75.662 114.437C75.6718 114.529 75.8984 116.7 75.3712 117.905C75.3405 117.975 75.288 118.083 75.2234 118.216C74.9889 118.697 74.5008 119.698 74.5583 120.057C74.5939 120.193 74.6858 120.307 74.8112 120.372C75.1839 120.572 75.6214 120.617 76.0269 120.495C76.0746 120.479 76.127 120.491 76.1641 120.524C76.2013 120.558 76.2176 120.609 76.207 120.657C76.1964 120.706 76.1605 120.746 76.1127 120.761C75.9368 120.815 75.7534 120.842 75.5692 120.841Z" fill="#030F1C"/>
</g>
<path d="M75.0323 123.593C75.0081 123.509 75.0186 123.419 75.0614 123.343C75.1043 123.266 75.1761 123.21 75.2607 123.186C75.6819 123.065 76.4582 122.837 77.0496 122.636C77.6661 122.393 78.2656 122.109 78.8443 121.786C78.9452 121.732 79.0671 121.733 79.1671 121.789C79.267 121.845 79.3307 121.949 79.3357 122.063C79.3758 122.94 79.2698 124.654 77.8843 125.003C76.1993 125.428 75.3171 124.52 75.0323 123.593Z" fill="#161B36"/>
<path d="M75.7656 124.687C75.7656 124.687 77.2156 122.67 79.2867 123.131C79.2867 123.131 79.2899 124.706 77.9547 125.061C76.517 125.443 75.7656 124.687 75.7656 124.687Z" fill="#E55151"/>
<path d="M79.5424 114.188C79.2732 114.129 78.9987 114.096 78.723 114.09C78.4272 114.09 78.1875 114.482 78.1875 114.967C78.1875 115.451 78.4272 115.843 78.723 115.843C79.0187 115.843 79.2584 115.451 79.2584 114.967C79.2623 114.754 79.2102 114.544 79.1073 114.358C79.3223 114.365 79.5357 114.397 79.7432 114.454C79.9439 114.512 79.9578 114.285 79.5424 114.188Z" fill="#161B36"/>
<path d="M74.1924 114.555C73.9437 114.5 73.6905 114.468 73.4358 114.459C73.4325 114.459 73.4294 114.457 73.4261 114.457C73.4238 114.457 73.4216 114.458 73.4193 114.458C73.3919 114.457 73.373 114.457 73.373 114.457L73.3705 114.466C73.1013 114.512 72.8906 114.881 72.8906 115.334C72.8906 115.818 73.1304 116.21 73.4261 116.21C73.7218 116.21 73.9616 115.818 73.9616 115.334C73.9653 115.122 73.9137 114.913 73.8116 114.727C74.0083 114.738 74.2033 114.769 74.3932 114.821C74.5939 114.879 74.6078 114.652 74.1924 114.555Z" fill="#161B36"/>
<path d="M89.3996 114.611C88.723 114.383 88.0693 114.995 87.5745 115.687L87.5731 115.689C87.2325 116.179 86.9408 116.701 86.7024 117.248C86.6829 117.294 86.6896 117.347 86.72 117.387C86.7503 117.427 86.7996 117.447 86.8494 117.441C86.8991 117.435 86.9418 117.403 86.9612 117.357C87.1835 116.842 87.4556 116.351 87.7738 115.889C88.0637 115.839 88.3622 115.894 88.6155 116.043C88.8668 116.229 89.0273 116.513 89.0573 116.823C89.0685 116.891 89.127 116.94 89.1956 116.94C89.2033 116.94 89.211 116.94 89.2186 116.938C89.2554 116.932 89.2882 116.912 89.3099 116.882C89.3315 116.852 89.3403 116.814 89.3342 116.778C89.2933 116.389 89.0878 116.037 88.7694 115.809C88.5387 115.664 88.2701 115.589 87.997 115.594C88.4065 115.089 88.8738 114.728 89.3094 114.876C89.357 114.892 89.4096 114.882 89.4475 114.849C89.4853 114.816 89.5025 114.765 89.4927 114.716C89.4828 114.667 89.4473 114.627 89.3996 114.611L89.3996 114.611Z" fill="#0B122D"/>
<path d="M79.0584 128.142C78.9921 128.143 78.9348 128.096 78.921 128.032C78.9073 127.967 78.9408 127.902 79.0014 127.875C79.0487 127.854 83.7525 125.759 85.7381 123.226C85.7689 123.186 85.8186 123.166 85.8683 123.173C85.9181 123.18 85.9604 123.213 85.9792 123.259C85.998 123.306 85.9904 123.359 85.9594 123.398C83.9303 125.986 79.3108 128.044 79.1152 128.13C79.0973 128.138 79.078 128.142 79.0584 128.142Z" fill="#0B122D"/>
<path fill-rule="evenodd" clip-rule="evenodd" d="M75.7837 147.357C75.8448 146.727 75.8982 146.178 75.939 145.744C76.465 141.025 77.0389 136.898 77.3477 134.769C77.635 137.812 82.7181 139.186 90.3444 132.297C90.3259 132.413 90.3063 132.531 90.2867 132.649C90.2812 132.682 90.2756 132.715 90.2701 132.749C90.182 133.269 90.0139 134.219 89.761 135.492C88.497 141.733 86.5313 148.28 86.3082 149.016C85.9465 150.157 85.56 151.315 85.1449 152.476C84.1876 155.154 82.3105 160.632 79.3366 169.539C77.581 164.856 76.3203 162.845 75.5938 161.686C75.1563 160.989 74.9125 160.6 74.8709 160.122C74.7165 158.348 75.4019 151.289 75.7837 147.357ZM97.6848 134.225C96.5577 133.808 93.8165 133.123 92.0205 132.691L92.0205 132.691C93.8168 133.123 96.5587 133.808 97.6861 134.224C97.7177 134.239 97.7449 134.261 97.765 134.289C97.744 134.261 97.7165 134.239 97.6848 134.225ZM67.7015 161.904L67.7061 161.917L67.6782 161.847L67.6953 161.888C67.6974 161.893 67.6994 161.899 67.7015 161.904ZM66.1793 154.783L66.1811 154.763L66.1791 154.782C66.1774 154.8 66.1763 154.818 66.1752 154.836C66.1742 154.852 66.1732 154.868 66.1719 154.884C66.1733 154.868 66.1743 154.852 66.1753 154.837L66.1753 154.837C66.1765 154.819 66.1776 154.801 66.1793 154.783Z" fill="white"/>
<g style="mix-blend-mode:overlay" opacity="0.6">
<path d="M74.5703 162.611C74.5703 162.611 80.0441 163.237 85.3601 153.73C85.3601 153.73 85.1731 155.032 84.0632 158.047C82.9532 161.063 80.7712 165.902 79.3614 169.695C79.3614 169.695 75.3266 166 74.5703 162.611Z" fill="#030F1C"/>
</g>
<path fill-rule="evenodd" clip-rule="evenodd" d="M106.426 146.818C107.538 149.815 108.932 153.573 110.837 158.313C112.776 163.137 112.302 167.088 106.449 168.26L106.349 168.28C104.608 168.628 100.951 169.36 97.0473 170C97.1344 170.495 97.2192 170.972 97.3007 171.431C97.9983 175.359 98.4648 177.986 98.208 179.584C94.3545 184.114 70.9068 184.44 67.7118 180.672C67.3957 179.826 67.5114 179.052 67.6946 177.828C67.8342 176.894 68.0129 175.699 68.0694 174.011C68.2796 167.732 68.0593 162.762 67.692 161.889C67.5823 161.629 67.4754 161.381 67.3723 161.141C66.5068 159.132 65.9073 157.741 66.1784 154.778C66.4292 151.324 66.888 147.888 67.5523 144.488C67.0764 144.423 66.5933 144.355 66.0953 144.28C61.2286 143.557 56.4185 142.496 51.7002 141.105C50.0859 140.623 48.4558 140.089 46.8268 139.494C46.203 139.276 45.6055 138.99 45.0453 138.64C41.489 136.342 43.4392 132.217 50.5969 123.126C51.2679 122.274 53.8121 119.148 55.3842 117.216C55.8864 116.599 56.2895 116.104 56.5005 115.844C59.9327 116.164 62.1789 119.383 62.1789 119.383L54.9 132.154C54.7851 132.356 54.7829 132.602 54.8941 132.806C55.0053 133.01 55.2142 133.142 55.4466 133.155C56.7048 133.227 74.9382 133.242 76.5929 133.243C76.86 132.887 77.3052 132.437 77.8524 132.437L77.5712 133.24C77.5712 133.24 76.7021 138.866 75.9351 145.746C75.8943 146.18 75.8409 146.73 75.7798 147.359C75.3981 151.291 74.7126 158.35 74.867 160.124C74.9086 160.602 75.1524 160.991 75.5899 161.689C76.3165 162.847 77.5771 164.858 79.3327 169.541C82.3066 160.634 84.1837 155.156 85.141 152.478C85.5561 151.317 85.9427 150.16 86.3043 149.018C86.5274 148.282 88.4931 141.735 89.7571 135.494C90.0101 134.221 90.1781 133.271 90.2662 132.751C90.2718 132.717 90.2773 132.684 90.2829 132.65C90.3025 132.533 90.3221 132.415 90.3405 132.299L90.0981 131.804C90.1009 131.809 90.1361 131.809 90.1956 131.809C90.5174 131.81 91.5508 131.813 92.0202 132.695C93.8162 133.127 96.5574 133.812 97.6846 134.229C97.7505 134.266 97.8022 134.323 97.8313 134.393C102.29 135.671 103.08 137.8 106.426 146.818ZM96.7382 162.727C98.401 162.131 100.501 161.354 101.607 160.943C101.803 160.87 101.961 160.72 102.042 160.527C102.123 160.334 102.12 160.116 102.034 159.926C101.405 158.53 99.9746 155.362 98.5679 152.293C98.4247 154.105 98.1498 155.905 97.7452 157.678C97.2939 159.336 96.9575 161.023 96.7382 162.727Z" fill="#EDA1A1"/>
<g style="mix-blend-mode:overlay" opacity="0.6">
<path d="M68.6614 139.578C66.8721 140.178 64.2584 141.007 62.6423 141.299C59.9985 141.778 57.9049 139.781 54.5744 139.805C52.8493 139.817 51.6992 141.104 51.6992 141.104C56.4174 142.494 61.2275 143.555 66.0943 144.278C66.5923 144.353 67.0753 144.421 67.5513 144.487C67.8465 142.989 68.2099 141.353 68.6614 139.578Z" fill="#030F1C"/>
</g>
<path d="M52.5413 133.594C51.9283 133.598 51.3224 133.465 50.7672 133.206C50.7113 133.179 50.6875 133.112 50.7139 133.057C50.7402 133.001 50.8069 132.977 50.863 133.003C52.5824 133.81 54.2932 133.015 54.3106 133.007C54.3468 132.99 54.3896 132.993 54.4227 133.016C54.4559 133.039 54.4744 133.077 54.4712 133.117C54.4681 133.157 54.4438 133.193 54.4076 133.21C53.8185 133.464 53.1832 133.595 52.5413 133.594Z" fill="#0B122D"/>
<g style="mix-blend-mode:overlay" opacity="0.6">
<path d="M51.1187 125.782C50.4746 127.065 44.7178 134.151 45.4952 136.532C46.0871 138.346 48.2938 138.159 48.0964 139.944C47.0308 139.632 46.0064 139.194 45.0453 138.639C41.489 136.341 43.4392 132.216 50.5969 123.125C50.9073 123.362 51.5686 124.886 51.1187 125.782Z" fill="white"/>
</g>
<g style="mix-blend-mode:overlay" opacity="0.6">
<path d="M66.9062 160.273C66.9062 160.273 69.288 162.46 71.7395 162.506C73.4138 162.537 73.7702 163.44 72.0436 163.81C71.2421 163.982 69.7534 163.843 68.1697 163.801C67.8505 162.591 67.4278 161.411 66.9063 160.273L66.9062 160.273Z" fill="#030F1C"/>
</g>
<path d="M71.7341 175.404C71.7288 175.404 71.7234 175.404 71.7181 175.403C69.0891 175.103 67.6943 172.755 67.6361 172.655C67.5973 172.588 67.6201 172.503 67.6872 172.464C67.7543 172.425 67.8402 172.448 67.8791 172.515C67.8926 172.538 69.2638 174.842 71.7499 175.125C71.8238 175.134 71.8783 175.198 71.8741 175.272C71.8699 175.346 71.8085 175.404 71.7341 175.404Z" fill="#0B122D"/>
<g style="mix-blend-mode:overlay" opacity="0.6">
<path d="M91.2046 162.66C91.9652 162.642 92.6447 163.12 93.2192 163.893C93.76 163.732 94.3379 163.553 94.9358 163.355C95.3808 163.207 96.0338 162.977 96.7697 162.713C97.0958 160.192 98.1336 157.001 98.6609 152.489C97.8602 150.741 97.0626 149.014 96.418 147.648C96.5984 149.55 96.78 153.249 95.8877 156.162C95.0316 158.957 91.6826 160.383 89.4196 160.77C85.9618 161.36 86.4084 162.773 91.2046 162.66Z" fill="#030F1C"/>
</g>
<g style="mix-blend-mode:overlay" opacity="0.6">
<path d="M95.1826 170.295C95.2678 171.313 95.1873 172.338 94.9442 173.33C93.7516 177.516 89.3955 180.445 86.8713 181.044C84.3471 181.643 82 183.262 82 183.262C82 183.262 94.9793 183.166 98.2098 179.583C98.4387 176.372 97.5397 173.442 96.9964 170.008C96.3953 170.106 95.789 170.202 95.1826 170.295Z" fill="#030F1C"/>
</g>
<g style="mix-blend-mode:overlay" opacity="0.6">
<path d="M66.9297 160.125C66.9297 160.125 68.7552 161.139 71.8834 161.353C75.0115 161.566 72.0902 162.536 70.5736 162.611C69.057 162.687 68.4853 162.693 67.9542 162.599C67.6387 161.74 66.9297 160.125 66.9297 160.125Z" fill="#030F1C"/>
</g>
<g style="mix-blend-mode:overlay" opacity="0.6">
<path d="M90.0946 131.801C90.1116 131.837 91.4663 131.645 92.0205 132.699C92.5747 133.752 95.3777 141.623 95.0254 143.389C94.6731 145.155 87.2461 145.743 87.2461 145.743C87.2461 145.743 88.9768 139.871 90.337 132.296L90.0946 131.801Z" fill="#030F1C"/>
</g>
<g style="mix-blend-mode:overlay" opacity="0.6">
<path d="M77.8531 132.441L77.572 133.244C77.572 133.244 76.7028 138.87 75.9359 145.75C75.9359 145.75 70.7331 145.952 70.8415 143.28C70.9145 141.481 76.3185 133.676 76.3185 133.676C76.3185 133.676 76.9481 132.441 77.8531 132.441Z" fill="#030F1C"/>
</g>
<g style="mix-blend-mode:overlay" opacity="0.6">
<path d="M79.332 169.54L79.8351 181.271C79.8351 181.271 80.4068 172.722 80.416 171.092C80.4252 169.463 80.459 166.172 80.459 166.172L79.332 169.54Z" fill="#030F1C"/>
</g>
<path d="M93.4925 170.687C93.4323 170.689 93.3811 170.644 93.3755 170.584C93.3699 170.524 93.412 170.47 93.4715 170.461L100.918 169.306C100.981 169.297 101.039 169.339 101.048 169.401C101.058 169.463 101.016 169.521 100.954 169.531L93.5066 170.686C93.502 170.686 93.4973 170.687 93.4925 170.687Z" fill="#0B122D"/>
<g style="mix-blend-mode:overlay" opacity="0.6">
<path d="M104.116 162.033C101.469 163.087 93.7995 166.448 92.5391 164.078C96.5304 162.962 101.608 160.942 101.608 160.942C101.801 160.88 101.958 160.739 102.039 160.554C102.12 160.369 102.118 160.159 102.033 159.975C101.443 158.772 100.452 156.292 98.6777 152.574C99.2778 152.335 100.526 152.572 100.918 153.294C101.373 154.135 103.66 158.62 104.63 160.429C104.847 160.835 104.816 161.754 104.116 162.033Z" fill="white"/>
</g>
<path d="M104.552 162.639C104.496 162.639 104.449 162.599 104.44 162.544C104.427 162.469 104.11 160.717 102.025 160.657C101.984 160.656 101.947 160.634 101.928 160.598C101.908 160.562 101.91 160.519 101.931 160.484C101.952 160.45 101.991 160.429 102.031 160.43C103.296 160.403 104.402 161.275 104.665 162.507C104.675 162.569 104.633 162.627 104.571 162.637C104.564 162.638 104.558 162.639 104.552 162.639Z" fill="#0B122D"/>
<path d="M98.4038 150.781C98.3805 150.781 98.3579 150.774 98.3388 150.76C95.0764 148.505 95.0662 143.596 95.0664 143.547C95.0668 143.484 95.1177 143.434 95.1805 143.434H95.1812C95.2114 143.434 95.2404 143.446 95.2616 143.467C95.2829 143.489 95.2948 143.518 95.2946 143.548C95.2944 143.596 95.3062 148.387 98.4689 150.574C98.5099 150.602 98.5276 150.654 98.5127 150.701C98.4978 150.748 98.4537 150.781 98.4038 150.781L98.4038 150.781Z" fill="#0B122D"/>
<path d="M86.3422 175.527L76.7815 159.373L74.1668 154.954C73.9591 154.602 73.5799 154.386 73.1702 154.387H57.6764C57.2179 154.439 56.8105 154.703 56.5758 155.098C56.5248 155.17 56.4781 155.244 56.4362 155.322C56.3709 155.438 56.3176 155.56 56.2774 155.687C56.2774 155.69 56.2746 155.69 56.2746 155.692C56.1496 155.992 56.1595 156.33 56.302 156.622L56.2856 156.589C56.2927 156.609 56.3009 156.628 56.3102 156.647L56.3185 156.657C56.3212 156.66 56.3212 156.663 56.3239 156.666C56.331 156.683 56.3393 156.699 56.3486 156.715L64.8662 171.108L66.4103 173.714L68.524 177.288C68.7317 177.64 69.1109 177.855 69.5206 177.855H85.0143C85.0712 177.855 85.1279 177.85 85.1841 177.841C86.0793 177.839 86.7967 176.296 86.3422 175.527Z" fill="#B5B4B4"/>
<g style="mix-blend-mode:overlay" opacity="0.6">
<path d="M56.2223 156.419C56.2124 156.379 56.2046 156.339 56.1991 156.299C56.2043 156.339 56.2121 156.379 56.2223 156.419Z" fill="#030F1C"/>
<path d="M56.2848 156.593C56.2939 156.612 56.3 156.632 56.3106 156.65L56.3241 156.671C56.3103 156.645 56.2964 156.619 56.2848 156.593Z" fill="#030F1C"/>
<path d="M56.2698 156.562C56.2508 156.516 56.2348 156.469 56.2219 156.421C56.2337 156.469 56.2498 156.517 56.2698 156.562Z" fill="#030F1C"/>
<path d="M85.184 177.841C85.5646 177.785 85.8922 177.545 86.0581 177.199C86.2239 176.853 86.2062 176.448 86.0108 176.118L76.264 159.651L73.8354 155.545C73.6278 155.194 73.2485 154.978 72.8389 154.978H57.3451C56.8774 154.976 56.455 155.256 56.2773 155.687C56.3176 155.56 56.3708 155.438 56.4361 155.322C56.4775 155.244 56.5241 155.169 56.5758 155.098C56.8105 154.703 57.2179 154.439 57.6764 154.387H73.1701C73.5798 154.386 73.9591 154.602 74.1667 154.954L76.7814 159.373L86.3421 175.527C86.7966 176.296 86.0793 177.839 85.184 177.841Z" fill="#030F1C"/>
</g>
<g style="mix-blend-mode:overlay" opacity="0.6">
<path d="M57.2047 156.039H58.277C58.347 156.039 58.4117 156.076 58.447 156.136L58.709 156.584C58.7446 156.644 58.7449 156.719 58.7098 156.781C58.6747 156.842 58.6096 156.879 58.539 156.879H57.4667C57.3968 156.879 57.3321 156.842 57.2967 156.782L57.0347 156.335C56.9991 156.274 56.9988 156.199 57.0339 156.138C57.069 156.077 57.1342 156.039 57.2047 156.039V156.039Z" fill="#030F1C"/>
</g>
<g style="mix-blend-mode:overlay" opacity="0.6">
<path d="M67.7726 163.371H69.179C69.5931 163.388 69.9803 163.58 70.2425 163.899C70.8468 164.61 70.5668 165.504 69.7399 165.504H68.3335C67.9194 165.487 67.5322 165.295 67.27 164.975C66.6658 164.265 66.9457 163.371 67.7726 163.371Z" fill="#030F1C"/>
</g>
<path fill-rule="evenodd" clip-rule="evenodd" d="M72.4079 110.14C72.6262 109.589 72.5571 108.966 72.2235 108.475C72.2235 108.475 72.3287 108.378 72.4865 108.236C72.8678 107.892 74.0648 106.458 73.5388 105.775C73.0708 105.168 72.5541 105.519 72.1435 105.837C72.2913 105.673 72.7795 104.898 72.0004 103.982C71.4541 103.336 70.3558 104.291 70.3558 104.291C70.3558 104.291 70.4575 103.079 69.7448 102.751C68.9645 102.394 68.1355 103.226 68.0815 103.286C68.0898 103.218 68.2194 102.074 67.1764 101.989C66.7614 101.957 65.8444 102.71 64.8658 103.893C64.7449 104.039 64.6234 104.192 64.5011 104.351C64.474 104.387 64.4475 104.421 64.4189 104.458L64.4187 104.46C64.1985 104.75 63.9788 105.06 63.7636 105.385L63.7645 105.386C63.628 105.593 63.4949 105.79 63.3661 105.981L63.3661 105.981C62.5027 107.262 61.8334 108.255 61.6411 109.663H61.6424C61.5151 110.302 61.0584 111.011 60.7419 111.502C60.7032 111.562 60.6667 111.619 60.633 111.672L60.633 111.672L56.9961 115.908C59.3417 116.325 61.0669 118.042 61.7958 118.895L64.6331 114.031C64.9965 113.69 65.4367 113.442 65.9166 113.307C67.2591 112.938 68.5706 112.466 69.8393 111.894C69.8393 111.894 72.0223 111.026 72.4079 110.14ZM90.3379 132.293L77.5685 133.234C77.3704 133.873 77.2722 134.538 77.2775 135.206C77.2998 135.051 77.3211 134.904 77.3412 134.765C77.6285 137.808 82.7115 139.182 90.3379 132.293ZM84.0818 166.617C84.1559 166.608 86.3526 166.053 88.9009 165.406C88.7838 166.378 88.7533 168.549 90.4231 170.168L85.7186 171.066C85.7169 171.07 85.7154 171.073 85.7139 171.077C85.7122 171.08 85.7106 171.084 85.7088 171.088C84.8443 171.273 83.8599 171.549 83.2555 171.929C82.279 172.542 79.8376 172.778 78.9575 172.604C77.5052 172.797 75.4931 173.04 75.1173 172.957C74.5172 172.825 74.6677 172.256 74.9844 172.045C75.1207 171.955 74.5103 171.843 74.0095 171.751C73.8449 171.72 73.6921 171.692 73.5815 171.668C72.9104 171.52 73.0786 170.884 73.4325 170.649C73.6613 170.497 72.8337 170.309 72.3144 170.194C71.6433 170.046 71.8115 169.411 72.1654 169.175C72.2442 169.123 72.3994 169.052 72.5673 168.975C72.9732 168.79 73.4534 168.57 73.1091 168.494C72.4384 168.346 72.6068 167.711 72.9605 167.475C73.2365 167.291 76.0759 166.964 77.3096 166.828C77.3996 166.816 77.4932 166.804 77.5877 166.792C78.1362 166.72 78.7186 166.644 78.8347 166.476C78.9434 166.318 78.6495 165.922 78.2681 165.407C78.093 165.171 77.8996 164.91 77.7181 164.636C77.1409 163.765 77.93 162.543 78.1996 162.625C78.3225 162.662 78.81 163.276 79.3638 163.972C80.0256 164.805 80.7819 165.756 81.1229 165.985C81.5721 166.287 82.156 166.424 82.616 166.531C82.7968 166.573 82.9585 166.611 83.0853 166.653C83.4177 166.695 83.7544 166.689 84.0852 166.636L84.0818 166.617Z" fill="#F7B17D"/>
<path d="M66.7022 105.039C66.7356 105.039 66.7674 105.024 66.7887 104.998L67.8825 103.687C67.9219 103.64 67.9152 103.569 67.8676 103.53C67.8201 103.49 67.7494 103.497 67.7096 103.544L66.6159 104.855C66.588 104.888 66.582 104.935 66.6005 104.974C66.6189 105.014 66.6586 105.039 66.7022 105.039Z" fill="#030F1C"/>
<path d="M68.9731 108.265C68.5811 108.356 68.321 108.325 68.1992 108.172C67.9683 107.882 68.2344 107.181 68.3564 106.935C68.3783 106.891 68.3686 106.838 68.3326 106.804C68.2965 106.77 68.2425 106.764 68.1996 106.788C67.6467 107.104 67.2293 107.173 66.9591 106.992C66.4112 106.626 66.5745 105.357 66.5763 105.344C66.5817 105.304 66.5648 105.264 66.532 105.24C66.4992 105.215 66.4557 105.211 66.4185 105.227C65.9819 105.424 65.646 105.449 65.4204 105.302C65.0768 105.078 65.0804 104.514 65.0805 104.508C65.0813 104.446 65.0317 104.396 64.9696 104.395C64.9396 104.393 64.9103 104.404 64.8886 104.425C64.867 104.446 64.855 104.475 64.8555 104.505C64.8551 104.533 64.8493 105.196 65.2962 105.489C65.6195 105.662 66.0073 105.668 66.3356 105.504C66.3089 105.905 66.3098 106.828 66.8334 107.178C67.1279 107.375 67.5296 107.358 68.0306 107.128C67.9074 107.463 67.7741 107.999 68.023 108.311C68.1659 108.473 68.377 108.557 68.5922 108.539C68.7379 108.537 68.8829 108.518 69.0243 108.483C69.0638 108.474 69.0955 108.445 69.1073 108.407C69.1191 108.368 69.1093 108.326 69.0816 108.297C69.0538 108.268 69.0124 108.256 68.9731 108.265L68.9731 108.265Z" fill="#030F1C"/>
<path d="M72.2233 108.27C72.1597 108.166 70.8189 106.006 69.6046 105.609L70.2885 104.731C70.3266 104.682 70.3176 104.612 70.2685 104.574C70.2195 104.536 70.1488 104.545 70.1108 104.594L69.3629 105.554C69.2897 105.545 69.2157 105.544 69.1422 105.551C68.957 105.564 68.7918 105.671 68.7057 105.835C68.265 106.664 69.5356 109.088 69.6819 109.362C69.7014 109.399 69.7397 109.421 69.7813 109.421C69.8208 109.421 69.8573 109.401 69.8776 109.367C69.8979 109.333 69.899 109.292 69.8805 109.257C69.4985 108.542 68.5785 106.553 68.9045 105.94C68.9552 105.841 69.0553 105.778 69.1664 105.773C70.3284 105.646 72.0146 108.359 72.0315 108.387C72.0642 108.439 72.133 108.455 72.1855 108.423C72.2381 108.391 72.255 108.322 72.2232 108.27L72.2233 108.27Z" fill="#030F1C"/>
<path d="M77.5233 168.201C77.5208 168.174 77.5076 168.15 77.4867 168.132C77.4658 168.115 77.4389 168.107 77.4119 168.11L72.9399 168.541C72.885 168.546 72.8442 168.594 72.8479 168.649C72.8516 168.704 72.8984 168.746 72.9535 168.744L72.9595 168.744L77.4315 168.312C77.4585 168.31 77.4833 168.297 77.5005 168.276C77.5177 168.255 77.5259 168.228 77.5233 168.201Z" fill="#0B122D"/>
<path d="M77.8007 170.073C77.7932 170.018 77.7425 169.979 77.6867 169.985L73.1439 170.559C73.0897 170.566 73.0506 170.614 73.055 170.668C73.0595 170.723 73.106 170.764 73.1605 170.762L73.1695 170.761L77.7123 170.187C77.7391 170.184 77.7635 170.17 77.7801 170.148C77.7967 170.127 77.8041 170.1 77.8007 170.073Z" fill="#0B122D"/>
<path d="M78.5177 171.563L74.7009 171.958C74.6462 171.964 74.6058 172.011 74.6096 172.066C74.6135 172.121 74.6602 172.163 74.7153 172.161L74.7219 172.16L78.5387 171.765C78.5947 171.76 78.6355 171.71 78.6297 171.654C78.6233 171.598 78.5735 171.558 78.5177 171.563Z" fill="#0B122D"/>
</svg>
