<svg width="80" height="80" viewBox="0 0 80 80" fill="none" xmlns="http://www.w3.org/2000/svg">
<path d="M72.0454 72.7273H7.95452C7.54543 72.7273 7.27271 72.4545 7.27271 72.0455V43.6818C7.27271 41.6364 8.90907 40 10.9545 40H69.0454C71.0909 40 72.7272 41.6364 72.7272 43.6818V72.0455C72.7272 72.4545 72.4545 72.7273 72.0454 72.7273Z" fill="#EE0033"/>
<path d="M38.3636 19.8183L21.0454 29.7728C20.0909 30.3183 19.4091 31.4092 19.4091 32.5001V54.3183H60.3181V32.5001C60.3181 31.4092 59.7727 30.3183 58.6818 29.7728L41.6363 19.8183C40.5454 19.2728 39.4545 19.2728 38.3636 19.8183Z" fill="#EE0033"/>
<path d="M48.5909 72.7274H31.4091V58.9547C31.4091 54.182 35.2272 50.3638 40 50.3638C44.7727 50.3638 48.5909 54.182 48.5909 58.9547V72.7274Z" fill="#92001F"/>
<path d="M41.7728 23.6366H38.3637V9.04568C38.2273 8.09113 39.0455 7.27295 40 7.27295C40.9546 7.27295 41.7728 8.09113 41.7728 9.04568V23.6366Z" fill="#EE0033"/>
<path d="M51.8636 17.6367H41.7727V9.18213H51.8636C52.8182 9.18213 53.6363 10.0003 53.6363 10.9549V16.0003C53.6363 16.8185 52.8182 17.6367 51.8636 17.6367Z" fill="#828282"/>
<path d="M35.7786 32.7784C35.7786 30.5223 37.6075 28.6934 39.8636 28.6934C42.1197 28.6934 43.9487 30.5223 43.9487 32.7784V36.8635H35.7786V32.7784Z" fill="white"/>
<rect x="14.5455" y="50.9092" width="3.63636" height="3.63637" fill="white"/>
<rect x="54.5455" y="50.9092" width="3.63636" height="3.63637" fill="white"/>
<rect x="14.5455" y="58.1816" width="3.63636" height="3.63636" fill="white"/>
<rect x="54.5455" y="58.1816" width="3.63636" height="3.63636" fill="white"/>
<rect x="21.8182" y="50.9092" width="3.63636" height="3.63637" fill="white"/>
<rect x="61.8182" y="50.9092" width="3.63636" height="3.63637" fill="white"/>
<rect x="21.8182" y="58.1816" width="3.63636" height="3.63636" fill="white"/>
<rect x="61.8182" y="58.1816" width="3.63636" height="3.63636" fill="white"/>
</svg>
