<svg width="167" height="167" viewBox="0 0 167 167" fill="none" xmlns="http://www.w3.org/2000/svg">
<path d="M83.3998 152.5C121.563 152.5 152.5 121.563 152.5 83.4C152.5 45.2372 121.563 14.3 83.3998 14.3C45.2369 14.3 14.2998 45.2372 14.2998 83.4C14.2998 121.563 45.2369 152.5 83.3998 152.5Z" fill="url(#paint0_linear)"/>
<path d="M83.4 166.7C37.4 166.7 0 129.3 0 83.3C0 37.4 37.4 0 83.4 0C129.4 0 166.8 37.4 166.8 83.4C166.7 129.3 129.3 166.7 83.4 166.7ZM83.4 1C38 1 1 38 1 83.4C1 128.8 38 165.8 83.4 165.8C128.8 165.8 165.8 128.8 165.8 83.4C165.7 38 128.8 1 83.4 1Z" fill="url(#paint1_linear)"/>
<path d="M86.7004 94V97.4C86.7004 98 87.2004 98.4 87.7004 98.4C88.3004 98.4 88.7004 97.9 88.7004 97.4V94H91.1004C92.6004 94 93.9004 92.7 93.9004 91.2V88.7H97.3004C97.9004 88.7 98.3004 88.2 98.3004 87.7C98.3004 87.1 97.8004 86.7 97.3004 86.7H93.9004V84.4H97.3004C97.9004 84.4 98.3004 83.9 98.3004 83.4C98.3004 82.9 97.8004 82.4 97.3004 82.4H93.9004V80.1H97.3004C97.9004 80.1 98.3004 79.6 98.3004 79.1C98.3004 78.5 97.8004 78.1 97.3004 78.1H93.9004V75.8C93.9004 74.2 92.7004 73 91.1004 73H88.7004V69.6C88.7004 69 88.2004 68.6 87.7004 68.6C87.1004 68.6 86.7004 69.1 86.7004 69.6V73H84.4004V69.6C84.4004 69 83.9004 68.6 83.4004 68.6C82.9004 68.6 82.4004 69.1 82.4004 69.6V73H80.0004V69.6C80.0004 69 79.5004 68.6 79.0004 68.6C78.5004 68.6 78.0004 69.1 78.0004 69.6V73H75.6004C74.1004 73 72.8004 74.3 72.8004 75.8V78.7H69.4004C68.8004 78.7 68.4004 79.2 68.4004 79.7C68.4004 80.3 68.9004 80.7 69.4004 80.7H72.8004V83H69.4004C68.8004 83 68.4004 83.5 68.4004 84C68.4004 84.6 68.9004 85 69.4004 85H72.8004V87.3H69.4004C68.8004 87.3 68.4004 87.8 68.4004 88.3C68.4004 88.9 68.9004 89.3 69.4004 89.3H72.8004V91.2C72.8004 92.8 74.0004 94 75.6004 94H78.0004V97.4C78.0004 98 78.5004 98.4 79.0004 98.4C79.5004 98.4 80.0004 97.9 80.0004 97.4V94H82.3004V97.4C82.3004 98 82.8004 98.4 83.3004 98.4C83.8004 98.4 84.3004 97.9 84.3004 97.4V94H86.7004ZM74.9004 91.2V75.5C74.9004 75.1 75.2004 74.8 75.6004 74.8H91.1004C91.5004 74.8 91.8004 75.1 91.8004 75.5V91.2C91.8004 91.6 91.5004 91.9 91.1004 91.9H75.6004C75.2004 92 74.9004 91.6 74.9004 91.2Z" fill="white"/>
<path d="M120 82.6C120 78.5 117.6 75.1 114.2 73.6C113.7 73.4 113.1 73.2 112.5 73C114 71.2 114.9 68.9 114.9 66.4C114.9 60.9 110.7 56.4 105.4 56.4C104.8 56.4 104.3 56.5 103.7 56.6C103.4 51.6 99.4 47.6 94.5 47.6C94.5 47.6 94.5 47.6 94.4 47.6C94.3 47.6 94.2 47.6 94.1 47.6C89.1 47.6 84.6 52.6 84.6 58.2V64.4C84.6 65 85.1 65.5 85.7 65.5C86.3 65.5 86.8 65 86.8 64.4V58.2C86.8 53.7 90.2 49.8 94.1 49.8C98.1 49.8 101.4 53.3 101.4 57.5C101.4 57.6 101.4 57.7 101.4 57.9V58C101.4 58.1 101.4 58.3 101.5 58.4C101 61.9 98.1 64.7 94.6 64.7C94 64.7 93.5 65.2 93.5 65.8C93.5 66.4 94 66.9 94.6 66.9C99.1 66.9 102.9 63.4 103.7 58.9C104.3 58.7 104.9 58.6 105.5 58.6C109.5 58.6 112.8 62.1 112.8 66.3C112.8 69 111.5 71.5 109.2 72.9C109.2 72.9 109.2 72.9 109.1 73C104.8 73.8 101.6 77.8 101.6 82.5C101.6 83.1 102.1 83.6 102.7 83.6C103.3 83.6 103.8 83.1 103.8 82.5C103.8 78.4 106.9 75.1 110.8 75.1C111.7 75.1 112.6 75.3 113.4 75.6C116 76.8 117.8 79.5 117.8 82.7C117.8 87 114.5 90.4 110.5 90.4C110.3 90.4 110.1 90.4 109.9 90.4C109.4 90.4 108.9 90.7 108.8 91.2C108.6 91.7 108.8 92.2 109.2 92.5C111.3 93.9 112.6 96.3 112.6 98.9C112.6 99 112.5 99.1 112.5 99.2C112.5 103.3 109.4 106.6 105.5 106.6C101.6 106.6 98.5 103.3 98.5 99.2C98.5 98.6 98 98.1 97.4 98.1C96.8 98.1 96.3 98.6 96.3 99.2C96.3 102.8 98.2 106 101 107.6C101.1 107.8 101.1 107.9 101.1 108.1C101.2 108.5 101.3 108.6 101.3 109.1C101.3 113.4 98 116.8 94 116.8C90 116.8 86.7 113.3 86.7 109.1C86.7 109 86.7 109 86.7 108.9C86.7 108.8 86.7 108.8 86.7 108.7V102.8C86.7 102.2 86.2 101.7 85.6 101.7C85 101.7 84.5 102.2 84.5 102.8V108.7C84.5 108.8 84.5 108.8 84.5 108.9C84.5 109 84.5 109 84.5 109.1C84.5 114.6 88.7 119.1 94 119.1C99.2 119.1 103.5 114.6 103.5 109.1C103.5 109 103.5 109 103.5 108.9C104.1 109 104.7 109.1 105.3 109.1C110.5 109.1 114.8 104.6 114.8 99.2C114.8 96.7 113.9 94.4 112.4 92.6C116.6 91.6 119.8 87.6 119.8 82.9C120 82.8 120 82.7 120 82.6C120 82.7 120 82.7 120 82.6Z" fill="white"/>
<path d="M80.9 101.8C80.3 101.8 79.8 102.3 79.8 102.9V108.8C79.8 108.9 79.8 108.9 79.8 109C79.8 109.1 79.8 109.1 79.8 109.2C79.8 113.5 76.5 116.9 72.5 116.9C68.5 116.9 65.2 113.4 65.2 109.2C65.2 108.7 65.2 108.6 65.4 108.2C65.4 108.1 65.5 107.9 65.5 107.7C68.3 106 70.2 102.9 70.2 99.2999C70.2 98.6999 69.7 98.1999 69.1 98.1999C68.5 98.1999 68 98.6999 68 99.2999C68 103.4 64.9 106.7 61 106.7C57.1 106.7 54 103.4 54 99.2999C54 99.1999 54 99.0999 53.9 98.9999C54 96.3999 55.2 93.9999 57.3 92.5999C57.7 92.2999 57.9 91.7999 57.7 91.2999C57.5 90.7999 57.1 90.4999 56.6 90.4999C56.4 90.4999 56.2 90.4999 56 90.4999C52 90.4999 48.7 86.9999 48.7 82.7999C48.7 79.5999 50.5 76.8999 53.1 75.6999C53.9 75.3999 54.8 75.1999 55.7 75.1999C59.6 75.1999 62.7 78.4999 62.7 82.5999C62.7 83.1999 63.2 83.6999 63.8 83.6999C64.4 83.6999 64.9 83.1999 64.9 82.5999C64.9 77.8999 61.7 73.8999 57.4 73.0999C57.4 73.0999 57.4 73.0999 57.3 72.9999C55.1 71.5999 53.7 69.0999 53.7 66.3999C53.7 62.0999 57 58.6999 61 58.6999C61.6 58.6999 62.2 58.7999 62.8 58.9999C63.6 63.4999 67.3 66.9999 71.9 66.9999C72.5 66.9999 73 66.4999 73 65.8999C73 65.2999 72.5 64.7999 71.9 64.7999C68.4 64.7999 65.5 61.9999 65 58.4999C65 58.3999 65.1 58.1999 65.1 58.0999C65.1 57.9999 65.1 57.7999 65.1 57.6999C65.1 53.3999 68.4 49.9999 72.4 49.9999C76.3 49.9999 79.7 53.8999 79.7 58.3999V64.5999C79.7 65.1999 80.2 65.6999 80.8 65.6999C81.4 65.6999 81.9 65.1999 81.9 64.5999V58.3999C81.9 52.7999 77.5 47.7999 72.4 47.7999C72.3 47.7999 72.2 47.7999 72.1 47.7999C72.1 47.7999 72.1 47.7999 72 47.7999C67.1 47.7999 63.2 51.7999 62.8 56.7999C62.2 56.6999 61.7 56.5999 61.1 56.5999C55.9 56.5999 51.6 61.0999 51.6 66.5999C51.6 69.0999 52.5 71.3999 54 73.1999C53.4 73.2999 52.8 73.4999 52.3 73.7999C48.9 75.1999 46.5 78.6999 46.5 82.7999C46.5 82.8999 46.5 82.8999 46.5 82.9999C46.5 87.7999 49.7 91.6999 53.9 92.6999C52.4 94.4999 51.5 96.7999 51.5 99.2999C51.5 104.8 55.7 109.2 61 109.2C61.6 109.2 62.2 109.1 62.8 109C62.8 109.1 62.8 109.1 62.8 109.2C62.8 114.7 67 119.2 72.3 119.2C77.5 119.2 81.8 114.7 81.8 109.2C81.8 109.1 81.8 109.1 81.8 109C81.8 108.9 81.8 108.9 81.8 108.8V102.9C82 102.3 81.5 101.8 80.9 101.8Z" fill="white"/>
<defs>
<linearGradient id="paint0_linear" x1="14.3116" y1="83.372" x2="152.431" y2="83.372" gradientUnits="userSpaceOnUse">
<stop stop-color="#F0843F"/>
<stop offset="1" stop-color="#E81E36"/>
</linearGradient>
<linearGradient id="paint1_linear" x1="0" y1="83.372" x2="166.744" y2="83.372" gradientUnits="userSpaceOnUse">
<stop stop-color="#F0843F"/>
<stop offset="1" stop-color="#E81E36"/>
</linearGradient>
</defs>
</svg>
