<svg width="56" height="56" viewBox="0 0 56 56" fill="none" xmlns="http://www.w3.org/2000/svg">
<path d="M28.2105 55.98C12.9005 55.98 0.480469 43.57 0.480469 28.25C0.480469 12.94 12.8905 0.519989 28.2105 0.519989C43.5205 0.519989 55.9405 12.93 55.9405 28.25C55.9405 43.57 43.5305 55.98 28.2105 55.98Z" fill="url(#paint0_linear)"/>
<path d="M28.2103 12.28C19.4003 12.28 12.2402 19.45 12.2402 28.26C12.2402 37.07 19.4003 44.23 28.2103 44.23C37.0103 44.23 44.1802 37.07 44.1802 28.26C44.1902 19.45 37.0203 12.28 28.2103 12.28ZM28.2103 42.59C20.3103 42.59 13.8702 36.16 13.8702 28.26C13.8702 20.36 20.3103 13.92 28.2103 13.92C36.1103 13.92 42.5402 20.36 42.5402 28.26C42.5502 36.16 36.1203 42.59 28.2103 42.59Z" fill="#EDEFEF"/>
<path d="M29.2904 21.93V30.65C29.2904 31.23 28.8204 31.7 28.2404 31.7C27.6604 31.7 27.1904 31.23 27.1904 30.65V21.93C27.1904 21.36 27.6504 20.88 28.2404 20.88C28.8104 20.88 29.2904 21.36 29.2904 21.93Z" fill="#EDEFEF"/>
<path d="M29.2709 34.56C29.2709 35.15 28.7909 35.63 28.2009 35.63C27.6109 35.63 27.1309 35.15 27.1309 34.56C27.1309 33.97 27.6109 33.49 28.2009 33.49C28.7909 33.49 29.2709 33.97 29.2709 34.56Z" fill="#EDEFEF"/>
<defs>
<linearGradient id="paint0_linear" x1="0.487969" y1="28.2559" x2="55.9407" y2="28.2559" gradientUnits="userSpaceOnUse">
<stop stop-color="#F0843F"/>
<stop offset="1" stop-color="#E81E36"/>
</linearGradient>
</defs>
</svg>
