<svg width="40" height="40" viewBox="0 0 40 40" fill="none" xmlns="http://www.w3.org/2000/svg">
<path d="M24.4659 29.8667V5.66667C24.4659 4.73333 23.7437 4 22.8245 4H6.14776C5.22857 4 4.50635 4.73333 4.50635 5.66667V29.9333C4.50635 33.2667 7.19827 36 10.5468 36H30.5063C27.1579 36 24.4659 33.2667 24.4659 29.8667Z" fill="#DCDCDC"/>
<path d="M16.797 32.125C16.4209 32.125 16.0448 32.375 15.9194 32.6875C14.9791 34.6875 13.0358 36 10.7163 36H29.7734C31.5914 36 33.284 35.125 34.287 33.8125C34.7885 33.125 34.3496 32.1875 33.472 32.1875H16.797V32.125Z" fill="#EE0033"/>
<path d="M20.7349 12.3239H11.5307C11.1877 12.3239 10.959 11.8909 10.959 11.4579C10.959 10.9382 11.2448 10.5918 11.5307 10.5918H20.7349C21.078 10.5918 21.3066 11.0248 21.3066 11.4579C21.3638 11.8909 21.078 12.3239 20.7349 12.3239Z" fill="#828282"/>
<path d="M20.7349 17.3474H11.5307C11.1877 17.3474 10.959 16.9143 10.959 16.4813C10.959 15.9617 11.2448 15.6152 11.5307 15.6152H20.7349C21.078 15.6152 21.3066 16.0483 21.3066 16.4813C21.3638 17.0009 21.078 17.3474 20.7349 17.3474Z" fill="#828282"/>
<path d="M20.7349 22.4567H11.5307C11.1877 22.4567 10.959 22.0237 10.959 21.5907C10.959 21.071 11.2448 20.7246 11.5307 20.7246H20.7349C21.078 20.7246 21.3066 21.1576 21.3066 21.5907C21.3638 22.0237 21.078 22.4567 20.7349 22.4567Z" fill="#828282"/>
<path d="M18.4151 27.4802H11.6829C11.2485 27.4802 10.959 27.0471 10.959 26.6141C10.959 26.0945 11.3209 25.748 11.6829 25.748H18.4151C18.8495 25.748 19.139 26.1811 19.139 26.6141C19.2114 27.0471 18.8495 27.4802 18.4151 27.4802Z" fill="#828282"/>
<path d="M7.71018 12.8437C8.44624 12.8437 9.04293 12.2233 9.04293 11.458C9.04293 10.6927 8.44624 10.0723 7.71018 10.0723C6.97413 10.0723 6.37744 10.6927 6.37744 11.458C6.37744 12.2233 6.97413 12.8437 7.71018 12.8437Z" fill="#EE0033"/>
<path d="M7.71018 17.8671C8.44624 17.8671 9.04293 17.2467 9.04293 16.4814C9.04293 15.7161 8.44624 15.0957 7.71018 15.0957C6.97413 15.0957 6.37744 15.7161 6.37744 16.4814C6.37744 17.2467 6.97413 17.8671 7.71018 17.8671Z" fill="#EE0033"/>
<path d="M7.71018 22.8896C8.44624 22.8896 9.04293 22.2692 9.04293 21.5039C9.04293 20.7386 8.44624 20.1182 7.71018 20.1182C6.97413 20.1182 6.37744 20.7386 6.37744 21.5039C6.37744 22.2692 6.97413 22.8896 7.71018 22.8896Z" fill="#EE0033"/>
<path d="M7.71018 27.9999C8.44624 27.9999 9.04293 27.3795 9.04293 26.6142C9.04293 25.8489 8.44624 25.2285 7.71018 25.2285C6.97413 25.2285 6.37744 25.8489 6.37744 26.6142C6.37744 27.3795 6.97413 27.9999 7.71018 27.9999Z" fill="#EE0033"/>
<path fill-rule="evenodd" clip-rule="evenodd" d="M34.5469 12.0295C33.5728 11.3861 32.2595 11.6527 31.6135 12.6252L22.5816 26.2214L22.58 26.2238L22.5813 26.2247L22.1733 30.3555L26.1202 28.5582L26.1094 28.5511L35.141 14.9553C35.7869 13.9828 35.521 12.6729 34.5469 12.0295Z" fill="#EE0033"/>
</svg>
