<svg width="47" height="63" viewBox="0 0 47 63" fill="none" xmlns="http://www.w3.org/2000/svg">
<rect x="0.0249023" y="0.865234" width="28.567" height="49.7882" rx="2.98266" fill="#7187A4"/>
<rect x="1.65674" y="2.4978" width="25.3022" height="41.6262" rx="1.49133" fill="#94ACCB"/>
<circle cx="14.3081" cy="46.9807" r="2.0405" fill="#94ACCB"/>
<path d="M10.2248 30.2212C12.3045 30.2212 13.5628 28.5725 13.5628 25.7938C13.5628 23.0034 12.287 21.3839 10.2248 21.3839C8.15673 21.3839 6.88677 23.0034 6.88677 25.7879C6.88677 28.5784 8.14508 30.2212 10.2248 30.2212ZM10.2248 28.7881C9.26358 28.7881 8.66938 27.7803 8.66938 25.7879C8.66938 23.8131 9.2694 22.8228 10.2248 22.8228C11.186 22.8228 11.7802 23.8073 11.7802 25.7879C11.7802 27.7803 11.1918 28.7881 10.2248 28.7881ZM18.2349 30.2212C20.4252 30.2212 21.7418 28.5318 21.7418 25.7355C21.7418 23.0034 20.3961 21.3839 18.264 21.3839C16.3823 21.3839 15.0483 22.6247 15.0483 24.3724C15.0483 25.9744 16.2192 27.1453 17.8154 27.1453C18.7941 27.1453 19.5747 26.7026 19.9592 25.9161H20.0641C20.0699 27.6987 19.4 28.7764 18.2582 28.7764C17.594 28.7764 17.0523 28.4211 16.9008 27.8677H15.159C15.392 29.2716 16.6387 30.2212 18.2349 30.2212ZM18.2756 25.7996C17.3785 25.7996 16.7552 25.1879 16.7552 24.3141C16.7552 23.4752 17.4018 22.8228 18.2815 22.8228C19.1611 22.8228 19.8019 23.4869 19.8019 24.3432C19.8019 25.1821 19.1728 25.7996 18.2756 25.7996Z" fill="#7187A4"/>
<rect x="17.9204" y="11.3047" width="28.3353" height="51.4509" fill="#58DBDB"/>
<rect x="19.6138" y="13.1084" width="25.3022" height="41.6262" rx="1.49133" fill="#F3F8FF"/>
<circle cx="32.2646" cy="58.8305" r="2.0405" fill="#F3F8FF"/>
<path d="M28.1808 47.3613C30.2605 47.3613 31.5189 45.7127 31.5189 42.9339C31.5189 40.1435 30.2431 38.524 28.1808 38.524C26.1128 38.524 24.8428 40.1435 24.8428 42.9281C24.8428 45.7185 26.1011 47.3613 28.1808 47.3613ZM28.1808 45.9282C27.2196 45.9282 26.6254 44.9204 26.6254 42.9281C26.6254 40.9532 27.2255 39.9629 28.1808 39.9629C29.142 39.9629 29.7362 40.9474 29.7362 42.9281C29.7362 44.9204 29.1479 45.9282 28.1808 45.9282ZM36.1909 47.3613C38.3813 47.3613 39.6979 45.6719 39.6979 42.8757C39.6979 40.1435 38.3522 38.524 36.22 38.524C34.3384 38.524 33.0044 39.7648 33.0044 41.5125C33.0044 43.1145 34.1753 44.2854 35.7715 44.2854C36.7502 44.2854 37.5308 43.8427 37.9153 43.0562H38.0201C38.0259 44.8389 37.356 45.9166 36.2142 45.9166C35.5501 45.9166 35.0083 45.5612 34.8569 45.0078H33.115C33.3481 46.4117 34.5947 47.3613 36.1909 47.3613ZM36.2317 42.9397C35.3346 42.9397 34.7112 42.3281 34.7112 41.4542C34.7112 40.6154 35.3579 39.9629 36.2375 39.9629C37.1172 39.9629 37.758 40.627 37.758 41.4834C37.758 42.3222 37.1288 42.9397 36.2317 42.9397Z" fill="#EE0033"/>
<path d="M30.1104 31.8519L24.9967 22.743C24.8265 22.4653 25.021 22.0867 25.337 22.0867H27.2451C28.1688 22.0867 29.0195 22.5663 29.53 23.3615L32.1987 28.1164" fill="#EE0033"/>
<path d="M30.2505 31.9693H34.1242C34.1734 31.9693 34.2103 31.9441 34.2349 31.9062L39.5106 22.7428C39.695 22.4651 39.4983 22.0864 39.1662 22.0864H37.2355C36.3009 22.0864 35.4401 22.5661 34.9236 23.3612L30.1275 31.7674C30.0783 31.8557 30.1398 31.9693 30.2505 31.9693Z" fill="#FE9A00"/>
<path d="M37.1938 9.0271L37.1938 5.07158C37.1938 3.20684 35.6681 1.68113 33.8034 1.68113L32.6732 1.68113" stroke="#EE0033" stroke-width="1.04393" stroke-miterlimit="10" stroke-linecap="round" stroke-linejoin="round"/>
<path d="M40.0186 6.20173L37.1931 9.0271L34.3677 6.20173" stroke="#EE0033" stroke-width="1.04393" stroke-miterlimit="10" stroke-linecap="round" stroke-linejoin="round"/>
<path d="M13.084 58.439L9.12846 58.439C7.26372 58.439 5.73802 56.9132 5.73802 55.0485L5.73802 53.9183" stroke="white" stroke-width="1.04393" stroke-miterlimit="10" stroke-linecap="round" stroke-linejoin="round"/>
<path d="M10.2576 61.2642L13.083 58.4387L10.2576 55.6133" stroke="white" stroke-width="1.04393" stroke-miterlimit="10" stroke-linecap="round" stroke-linejoin="round"/>
</svg>
