<svg width="262" height="195" fill="none" xmlns="http://www.w3.org/2000/svg"><path fill="#E03" d="M-1-2.265h264v198.306H-1z"/><path d="M156.712-5.84L21.487 42.59c-36.49 13.166-55.438 53.493-42.337 90.072l6.486 18.066 10.8 30.141L42.033 308s13.388-73.575 90.011-101.186l89.469-31.935c36.49-13.165 55.438-53.492 42.337-90.071L246.564 36.6C233.431.021 193.202-18.973 156.712-5.84z" fill="url(#paint0_linear)"/><path d="M128.958 29.074l-99.687 35.79C2.37 74.593-11.6 104.394-1.941 131.426l4.782 13.351 7.962 22.274L44.417 261s9.87-54.372 66.356-74.776l65.956-23.6c26.901-9.728 40.87-39.53 31.212-66.562l-12.744-35.624c-9.681-27.032-39.338-41.069-66.239-31.364z" fill="url(#paint1_linear)"/><defs><linearGradient id="paint0_linear" x1="37.507" y1="-10" x2="148.54" y2="195.585" gradientUnits="userSpaceOnUse"><stop stop-color="#AF0026"/><stop offset="1" stop-color="#BD0029"/></linearGradient><linearGradient id="paint1_linear" x1="41.08" y1="26" x2="123.242" y2="177.759" gradientUnits="userSpaceOnUse"><stop stop-color="#91001F"/><stop offset="1" stop-color="#A70024"/></linearGradient></defs></svg>