<svg width="20" height="25" viewBox="0 0 20 25" fill="none" xmlns="http://www.w3.org/2000/svg">
<path d="M19.3508 5.29032L14.6635 0.645161C14.2439 0.225806 13.6896 0 13.0958 0H2.20903C0.989707 0 0 0.983871 0 2.19355V22.8065C0 24.0161 0.989707 25 2.20903 25H17.791C19.0103 25 20 24.0161 20 22.8065V6.84677C20 6.25806 19.7704 5.70968 19.3508 5.29032Z" fill="white"/>
<path d="M3.99913 10.5967C3.14402 10.5967 2.44727 11.2822 2.44727 12.1289V21.1289C2.44727 21.9757 3.14402 22.6612 3.99913 22.6612H16.0023C16.8574 22.6612 17.5542 21.9757 17.5542 21.1289V12.1289C17.5542 11.2822 16.8574 10.5967 16.0023 10.5967H3.99913ZM3.19153 12.1289C3.19153 11.6854 3.55574 11.3225 3.99913 11.3225H9.62858V14.4193H8.25883C7.97379 14.4193 7.70459 14.4999 7.48289 14.637C7.48289 13.7983 6.79406 13.1209 5.95479 13.1209H3.19153V12.1289ZM11.7347 15.1612C12.1622 15.1612 12.5106 15.508 12.5106 15.9354V17.3386C12.5106 17.766 12.1622 18.1128 11.7347 18.1128H8.25883C7.83127 18.1128 7.48289 17.766 7.48289 17.3386V15.9354C7.48289 15.508 7.83127 15.1612 8.25883 15.1612H11.7347ZM3.19153 16.9999H4.10206C4.30791 16.9999 4.47419 16.8386 4.47419 16.637C4.47419 16.4354 4.30791 16.2741 4.10206 16.2741H3.19153V13.8709H5.95479C6.39026 13.8709 6.74655 14.2257 6.74655 14.6531V16.2741H5.82811C5.62225 16.2741 5.45598 16.4354 5.45598 16.637C5.45598 16.8386 5.62225 16.9999 5.82811 16.9999H6.73864V18.6209C6.73864 19.0564 6.38234 19.4031 5.94687 19.4031H3.19153V16.9999ZM9.62858 21.9354H3.99913C3.55574 21.9354 3.19153 21.5725 3.19153 21.1289V20.137H5.95479C6.79406 20.137 7.48289 19.4596 7.48289 18.6209C7.71251 18.758 7.97379 18.8386 8.25883 18.8386H9.62858V21.9354ZM16.8099 21.137C16.8099 21.5806 16.4457 21.9435 16.0023 21.9435H10.3728V18.8467H11.7426C12.0276 18.8467 12.2968 18.766 12.5185 18.6289C12.5185 19.4676 13.2074 20.1451 14.0466 20.1451H16.8099V21.137ZM16.8099 19.4031H14.0466C13.6112 19.4031 13.2549 19.0483 13.2549 18.6209C13.2549 17.637 13.2549 17.6209 13.2549 16.9999H16.8099V19.4031ZM16.8099 16.266H13.2549C13.2549 15.637 13.2549 15.6209 13.2549 14.6451C13.2549 14.2096 13.6112 13.8628 14.0466 13.8628H16.8099V16.266ZM16.8099 12.1289V13.1209H14.0466C13.2074 13.1209 12.5185 13.7983 12.5185 14.637C12.2889 14.4999 12.0276 14.4193 11.7426 14.4193H10.3728V11.3225H16.0023C16.4457 11.3306 16.8099 11.6854 16.8099 12.1289Z" fill="#C1132B"/>
<path d="M4.53682 6.30652C4.5289 6.31459 4.51307 6.31459 4.4814 6.31459H3.78464V8.41136C3.78464 8.44362 3.77673 8.46781 3.76881 8.47588C3.76089 8.48394 3.73714 8.49201 3.69755 8.49201H3.41251C3.38084 8.49201 3.36501 8.48394 3.34917 8.47588C3.33334 8.46781 3.32542 8.44362 3.32542 8.41943V6.32265H2.63658C2.61283 6.32265 2.58908 6.31459 2.58116 6.30652C2.58116 6.29039 2.57324 6.27426 2.57324 6.25007V6.00007C2.57324 5.97588 2.57324 5.95168 2.58116 5.94362C2.597 5.93555 2.61283 5.92749 2.63658 5.92749H4.4814C4.50515 5.92749 4.5289 5.93555 4.53682 5.94362C4.54474 5.95168 4.55266 5.96781 4.55266 6.00007V6.25007C4.55266 6.27426 4.54474 6.29039 4.53682 6.30652Z" fill="#C1132B"/>
<path d="M6.8812 8.41943C6.88912 8.43556 6.8812 8.45169 6.8812 8.46782C6.87328 8.48395 6.85745 8.49201 6.8337 8.49201H6.50907C6.49324 8.49201 6.46948 8.49201 6.45365 8.48395C6.43781 8.47589 6.42198 8.45976 6.40614 8.43556L6.22404 7.75814C6.18445 7.62911 6.13694 7.5404 6.06568 7.49201C6.00234 7.44363 5.89941 7.4275 5.76481 7.4275H5.32934V8.41943C5.32934 8.45169 5.32142 8.47589 5.31351 8.48395C5.30559 8.49201 5.28184 8.50008 5.24225 8.50008H4.95721C4.93346 8.50008 4.90971 8.49201 4.89387 8.48395C4.87803 8.47589 4.87012 8.45169 4.87012 8.41943V6.12911C4.87012 6.05653 4.88595 6.00814 4.91762 5.96782C4.94929 5.93556 5.00472 5.91943 5.08389 5.91943H5.95484C6.08152 5.91943 6.19237 5.93556 6.28738 5.97588C6.39031 6.00814 6.4774 6.06459 6.54866 6.12911C6.61992 6.19363 6.67534 6.27427 6.71493 6.36298C6.7466 6.45169 6.77035 6.54847 6.77035 6.66137C6.77035 6.80653 6.73868 6.9275 6.66743 7.0404C6.59617 7.14524 6.50907 7.22589 6.39031 7.26621V7.28234C6.4774 7.32266 6.54074 7.37105 6.58033 7.43556C6.61992 7.49201 6.65951 7.57266 6.68326 7.66137L6.8812 8.41943ZM6.31113 6.68556C6.31113 6.64524 6.30321 6.61298 6.2953 6.5646C6.28738 6.52427 6.26362 6.48395 6.23195 6.45169C6.20028 6.41137 6.1607 6.38718 6.11319 6.36298C6.05777 6.33879 5.99442 6.32266 5.90733 6.32266H5.33726V7.04847H5.88358C6.03401 7.04847 6.14486 7.01621 6.2082 6.94363C6.27946 6.87105 6.31113 6.7904 6.31113 6.68556Z" fill="#C1132B"/>
<path d="M8.63059 7.93548H7.69631L7.53004 8.43548C7.52212 8.45967 7.5142 8.4758 7.49837 8.48386C7.48253 8.49193 7.46669 8.49999 7.43502 8.49999H7.09456C7.07081 8.49999 7.04706 8.49193 7.03914 8.4758C7.03122 8.45967 7.03122 8.44354 7.03914 8.41935L7.83882 6.10483C7.85466 6.06451 7.86258 6.04031 7.87841 6.01612C7.89425 5.99193 7.90217 5.9758 7.92592 5.96773C7.94175 5.95161 7.96551 5.94354 7.98926 5.94354C8.01301 5.93548 8.04468 5.93548 8.07635 5.93548H8.23471C8.31388 5.93548 8.36139 5.94354 8.40098 5.96773C8.43265 5.99193 8.46432 6.04031 8.48807 6.10483L9.28776 8.41935C9.29567 8.43548 9.29567 8.45967 9.28776 8.4758C9.27984 8.49193 9.264 8.49999 9.24025 8.49999H8.89979C8.87604 8.49999 8.85228 8.49999 8.83645 8.49193C8.82061 8.48386 8.80478 8.46773 8.79686 8.44354L8.63059 7.93548ZM7.80715 7.54838H8.51974L8.3218 6.93548L8.16345 6.41935H8.14761L7.99718 6.92741L7.80715 7.54838ZM8.21095 5.00806C8.31388 5.00806 8.39306 5.03225 8.4564 5.0887C8.51974 5.14515 8.55141 5.20967 8.55141 5.30644C8.55141 5.37096 8.53558 5.41935 8.50391 5.45967C8.47224 5.49999 8.43265 5.54031 8.39306 5.57257C8.37723 5.5887 8.36139 5.6129 8.33764 5.63709C8.31388 5.66128 8.29805 5.68548 8.29805 5.69354C8.29013 5.71773 8.28221 5.74193 8.25846 5.76612C8.24262 5.78225 8.21887 5.79838 8.1872 5.79838H8.15553C8.12386 5.79838 8.10011 5.79031 8.07635 5.76612C8.06052 5.74999 8.04468 5.71773 8.04468 5.68548C8.04468 5.6129 8.06052 5.55644 8.10011 5.51612C8.13178 5.4758 8.17137 5.43548 8.21095 5.40322C8.25846 5.3629 8.28221 5.33064 8.28221 5.30644C8.29013 5.28225 8.28221 5.26612 8.25846 5.25806C8.24262 5.24999 8.21095 5.24999 8.17928 5.24999C8.14761 5.25806 8.11594 5.26612 8.08427 5.28225C8.04468 5.30644 8.01301 5.31451 7.98134 5.32257C7.94967 5.33064 7.93384 5.30644 7.918 5.26612C7.90217 5.2258 7.89425 5.2016 7.90217 5.16935C7.90217 5.14515 7.918 5.12096 7.93384 5.10483C7.97342 5.07257 8.02093 5.04838 8.06844 5.03225C8.12386 5.01612 8.17137 5.00806 8.21095 5.00806Z" fill="#C1132B"/>
<path d="M10.6088 6.58881C10.6088 6.48397 10.6246 6.39526 10.6642 6.30655C10.6959 6.21784 10.7513 6.14526 10.8226 6.08881C10.8938 6.0243 10.9809 5.97591 11.0838 5.94365C11.1868 5.91139 11.3135 5.89526 11.4481 5.89526C11.5114 5.89526 11.5827 5.89526 11.6539 5.90333C11.7252 5.91139 11.7964 5.91946 11.8677 5.93559C11.939 5.95172 12.0102 5.96784 12.0736 5.98397C12.1369 6.0001 12.2002 6.0243 12.2557 6.04849C12.2715 6.06462 12.2873 6.07268 12.2952 6.08075C12.3032 6.08881 12.2953 6.10494 12.2873 6.12913L12.1923 6.37107C12.1844 6.39526 12.1765 6.41139 12.1686 6.41139C12.1606 6.41139 12.1448 6.41139 12.129 6.41139C12.0023 6.37107 11.8835 6.33881 11.7648 6.31462C11.646 6.29042 11.5352 6.28236 11.4401 6.28236C11.3135 6.28236 11.2184 6.30655 11.163 6.36301C11.1076 6.41946 11.0759 6.47591 11.0759 6.54849C11.0759 6.58881 11.0838 6.62914 11.1076 6.66946C11.1314 6.70172 11.163 6.74204 11.2105 6.7743C11.258 6.80655 11.3135 6.83881 11.3847 6.87107C11.456 6.90333 11.5431 6.94365 11.6381 6.97591C11.741 7.01623 11.8439 7.06462 11.939 7.11301C12.034 7.16139 12.1211 7.20978 12.1923 7.2743C12.2636 7.33881 12.3269 7.40333 12.3665 7.49204C12.4061 7.58075 12.4298 7.66946 12.4298 7.79042C12.4298 7.91946 12.4061 8.0243 12.3586 8.12107C12.3111 8.21784 12.2477 8.29042 12.1606 8.35494C12.0815 8.41946 11.9785 8.45978 11.8677 8.49204C11.7568 8.5243 11.6302 8.54043 11.5035 8.54043C11.3451 8.54043 11.1868 8.5243 11.0126 8.5001C10.8463 8.46784 10.688 8.41946 10.5375 8.33881C10.5059 8.32268 10.4979 8.29849 10.5138 8.2501L10.6246 8.0001C10.6405 7.95978 10.6721 7.95172 10.7038 7.96784C10.8226 8.01623 10.9413 8.05655 11.068 8.08881C11.1947 8.12107 11.3135 8.1372 11.4322 8.1372C11.6222 8.1372 11.7489 8.10494 11.8281 8.04043C11.9073 7.97591 11.9469 7.89526 11.9469 7.79849C11.9469 7.7501 11.939 7.70172 11.9152 7.66139C11.8994 7.62107 11.8677 7.58881 11.8202 7.55655C11.7806 7.5243 11.7252 7.49204 11.6618 7.45978C11.5985 7.42752 11.5193 7.39526 11.4322 7.36301C11.3214 7.30655 11.2026 7.25817 11.0918 7.20978C10.9888 7.16139 10.8938 7.10494 10.8226 7.04042C10.7513 6.98397 10.6959 6.91139 10.6563 6.83881C10.6246 6.76623 10.6088 6.67752 10.6088 6.58881Z" fill="#C1132B"/>
<path d="M14.1882 7.93555H13.2539L13.0877 8.43555C13.0797 8.45974 13.0718 8.47587 13.056 8.48393C13.0401 8.492 13.0243 8.50006 12.9926 8.50006H12.6522C12.6284 8.50006 12.6047 8.492 12.5968 8.47587C12.5888 8.45974 12.5888 8.44361 12.5968 8.41942L13.3964 6.1049C13.4123 6.06458 13.4202 6.04039 13.436 6.01619C13.4519 5.992 13.4598 5.97587 13.4835 5.9678C13.4994 5.95168 13.5231 5.94361 13.5469 5.94361C13.5706 5.93555 13.6023 5.93555 13.634 5.93555H13.7923C13.8715 5.93555 13.919 5.94361 13.9586 5.9678C13.9903 5.992 14.0219 6.04039 14.0457 6.1049L14.8454 8.41942C14.8533 8.43555 14.8533 8.45974 14.8454 8.47587C14.8375 8.492 14.8216 8.50006 14.7979 8.50006H14.4574C14.4337 8.50006 14.4099 8.50006 14.3941 8.492C14.3782 8.48393 14.3624 8.46781 14.3545 8.44361L14.1882 7.93555ZM13.3648 7.54845H14.0774L13.8794 6.93555L13.7211 6.41942H13.7052L13.5548 6.92748L13.3648 7.54845Z" fill="#C1132B"/>
<path d="M17.1968 8.13717C17.1968 8.23394 17.1731 8.30652 17.1335 8.37104C17.0939 8.43555 17.0147 8.47588 16.9039 8.49201C16.8564 8.50007 16.8089 8.50814 16.7535 8.5162C16.698 8.52426 16.6505 8.52426 16.5951 8.53233C16.5397 8.53233 16.4922 8.54039 16.4447 8.54039C16.3972 8.54039 16.3576 8.54039 16.318 8.54039C16.1121 8.54039 15.9379 8.52426 15.7875 8.48394C15.6371 8.44362 15.5183 8.38717 15.4312 8.29846C15.3441 8.20975 15.2729 8.09685 15.2333 7.94362C15.1937 7.79846 15.1699 7.61297 15.1699 7.39523V6.00814C15.1699 5.97588 15.1778 5.95975 15.1937 5.94362C15.2095 5.93555 15.2253 5.92749 15.257 5.92749H15.5421C15.5737 5.92749 15.5975 5.93555 15.6133 5.94362C15.6212 5.95168 15.6291 5.97588 15.6291 6.00814V7.4033C15.6291 7.52426 15.6371 7.63717 15.6529 7.72588C15.6687 7.82265 15.7083 7.89523 15.7558 7.95975C15.8033 8.02426 15.8746 8.06459 15.9696 8.09685C16.0567 8.1291 16.1755 8.14523 16.3259 8.14523C16.3655 8.14523 16.4209 8.14523 16.5001 8.13717C16.5793 8.13717 16.6664 8.12104 16.7455 8.10491V6.00814C16.7455 5.97588 16.7535 5.95975 16.7693 5.94362C16.7851 5.93555 16.801 5.92749 16.8326 5.92749H17.1177C17.1493 5.92749 17.1731 5.93555 17.181 5.94362C17.1889 5.95168 17.1889 5.97588 17.1889 6.00814L17.1968 8.13717Z" fill="#C1132B"/>
</svg>
