<svg width="42" height="64" viewBox="0 0 42 64" fill="none" xmlns="http://www.w3.org/2000/svg">
<g clip-path="url(#clip0)">
<path d="M33.9741 63.5383H8.15471C4.26234 63.5383 1.14844 60.3845 1.14844 56.4422V7.55801C1.14844 3.61573 4.26234 0.461914 8.15471 0.461914H33.9741C37.8665 0.461914 40.9804 3.61573 40.9804 7.55801V56.4422C40.8507 60.3845 37.7368 63.5383 33.9741 63.5383Z" fill="#DCDCDC"/>
<mask id="mask0" style="mask-type:alpha" maskUnits="userSpaceOnUse" x="1" y="0" width="41" height="64">
<path d="M34.4937 63.5383H8.67424C4.78187 63.5383 1.66797 60.3845 1.66797 56.4422V7.55801C1.66797 3.61573 4.78187 0.461914 8.67424 0.461914H34.4937C38.386 0.461914 41.4999 3.61573 41.4999 7.55801V56.4422C41.3702 60.3845 38.2563 63.5383 34.4937 63.5383Z" fill="#DCDCDC"/>
</mask>
<g mask="url(#mask0)">
<rect x="21.5" y="-8" width="22.269" height="75.0383" fill="#C4C4C4"/>
</g>
<path d="M33.9741 0.461914H8.15471C4.26234 0.461914 1.14844 3.61574 1.14844 7.55801V56.4422C1.14844 60.3845 4.26234 63.5383 8.15471 63.5383H33.9741C37.8665 63.5383 40.9804 60.3845 40.9804 56.4422V7.55801C40.8507 3.61574 37.7368 0.461914 33.9741 0.461914ZM38.2557 56.4422C38.2557 58.939 36.3096 60.9101 33.8444 60.9101H8.15471C5.68954 60.9101 3.74335 58.939 3.74335 56.4422V7.55801C3.74335 5.06124 5.68954 3.0901 8.15471 3.0901H11.3984C12.0471 3.0901 12.8256 3.35292 13.2148 4.00996C13.604 4.5356 14.3825 4.92983 15.0312 4.92983H26.9679C27.6166 4.92983 28.3951 4.66701 28.7843 4.00996C29.3033 3.35292 29.952 3.0901 30.6007 3.0901H33.8444C36.3096 3.0901 38.2557 5.06124 38.2557 7.55801V56.4422Z" fill="#EE0033"/>
<path d="M1.14873 22.2758H1.01898C0.759492 22.2758 0.5 22.013 0.5 21.7501V17.8079C0.5 17.545 0.759492 17.2822 1.01898 17.2822H1.14873V22.2758Z" fill="#92001F"/>
<path d="M1.14873 28.0584H1.01898C0.759492 28.0584 0.5 27.927 0.5 27.6642V23.7219C0.5 23.4591 0.759492 23.1963 1.01898 23.1963H1.14873V28.0584Z" fill="#92001F"/>
<path d="M40.8516 17.4131H40.9813C41.2408 17.4131 41.5003 17.6759 41.5003 17.9387V21.881C41.5003 22.1438 41.2408 22.4066 40.9813 22.4066H40.8516V17.4131Z" fill="#92001F"/>
<mask id="mask1" style="mask-type:alpha" maskUnits="userSpaceOnUse" x="1" y="0" width="41" height="64">
<path d="M34.1694 0.461914H8.35002C4.45765 0.461914 1.34375 3.61574 1.34375 7.55801V56.4422C1.34375 60.3845 4.45765 63.5383 8.35002 63.5383H34.1694C38.0618 63.5383 41.1757 60.3845 41.1757 56.4422V7.55801C41.046 3.61574 37.9321 0.461914 34.1694 0.461914ZM38.4511 56.4422C38.4511 58.939 36.5049 60.9101 34.0397 60.9101H8.35002C5.88485 60.9101 3.93867 58.939 3.93867 56.4422V7.55801C3.93867 5.06124 5.88485 3.0901 8.35002 3.0901H11.5937C12.2424 3.0901 13.0209 3.35292 13.4101 4.00996C13.7993 4.5356 14.5778 4.92983 15.2266 4.92983H27.1632C27.8119 4.92983 28.5904 4.66701 28.9796 4.00996C29.4986 3.35292 30.1473 3.0901 30.7961 3.0901H34.0397C36.5049 3.0901 38.4511 5.06124 38.4511 7.55801V56.4422Z" fill="#EE0033"/>
</mask>
<g mask="url(#mask1)">
<rect x="21.3438" y="-7.53809" width="24" height="76" fill="#92001F"/>
</g>
</g>
<defs>
<clipPath id="clip0">
<rect width="41" height="64" fill="white" transform="translate(0.5)"/>
</clipPath>
</defs>
</svg>
