<svg width="64" height="63" viewBox="0 0 64 63" fill="none" xmlns="http://www.w3.org/2000/svg">
<g clip-path="url(#clip0)">
<path d="M31.6885 17.0279L8.90184 10.7492C8.47139 10.63 8.02587 10.8835 7.9079 11.3139L2.24668 31.8567C0.744473 37.3096 3.94593 42.9482 9.40007 44.4517L9.67617 44.5282L5.90746 58.2L1.2678 58.6305C0.694274 58.6832 0.62274 59.4926 1.17744 59.6457L13.2755 62.979C13.8314 63.1321 14.1841 62.4004 13.7185 62.0603L9.95352 59.3144L13.721 45.6427L13.9971 45.718C19.45 47.2202 25.0886 44.0187 26.592 38.5646L32.2533 18.0218C32.3725 17.5926 32.119 17.1471 31.6885 17.0279Z" fill="#FFEFE4"/>
<path d="M31.6885 17.0279L8.90184 10.7492C8.47139 10.63 8.02587 10.8835 7.9079 11.3139L2.24668 31.8567C0.744473 37.3096 3.94593 42.9482 9.40007 44.4517L9.67617 44.5282L5.90746 58.2L1.2678 58.6305C0.694274 58.6832 0.62274 59.4926 1.17744 59.6457L13.2755 62.979C13.8314 63.1321 14.1841 62.4004 13.7185 62.0603L9.95352 59.3144L13.721 45.6427L13.9971 45.718C19.45 47.2202 25.0886 44.0187 26.592 38.5646L32.2533 18.0218C32.3725 17.5926 32.119 17.1471 31.6885 17.0279Z" fill="#FFEFE4"/>
<path d="M1.88379 58.9488C1.68801 58.8949 1.57255 58.7593 1.52612 58.605L1.26634 58.6288C0.692809 58.6815 0.621275 59.491 1.17598 59.6441L13.274 62.9773C13.7383 63.1053 14.0583 62.6159 13.8814 62.2532L1.88379 58.9488Z" fill="#EDD4C2"/>
<path d="M8.92182 44.3074C5.5522 41.8752 3.87304 37.5217 5.04268 33.2798L11.1494 11.3691L8.90174 10.7492C8.47128 10.63 8.02576 10.8835 7.9078 11.3139L2.24658 31.8567C0.788294 37.1489 3.76134 42.6144 8.92182 44.3074Z" fill="#FFE4D1"/>
<path d="M13.721 45.6452L9.67383 44.5298L9.09496 46.6302L13.1422 47.7456L13.721 45.6452Z" fill="#EDD4C2"/>
<path d="M22.4104 28.099C20.6497 28.0864 18.7158 27.4715 16.8333 26.8227C14.7425 26.1036 12.7157 25.3455 11.0642 25.3342C7.92294 25.3117 5.11304 26.7398 5.11304 26.7398L3.59953 32.2304C2.30565 36.9303 5.07413 41.8059 9.77278 43.101L14.371 44.3685C15.1215 44.5756 15.8933 44.6823 16.6639 44.6873C20.6522 44.7162 24.18 42.0456 25.2417 38.1953L28.3515 26.9055C28.3503 26.903 26.1239 28.1241 22.4104 28.099Z" fill="#8BCBE3"/>
<path d="M32.2533 18.0231C32.3725 17.5926 32.119 17.1471 31.6885 17.0291L8.90185 10.7492C8.4714 10.63 8.02588 10.8835 7.90791 11.3139L7.58789 12.4748C7.77739 12.1962 8.12879 12.0544 8.4714 12.1485L31.2581 18.4272C31.6885 18.5464 31.9772 18.9982 31.8592 19.4286L32.2533 18.0231Z" fill="#FFF7F2"/>
<path d="M32.9055 17.0279L55.6921 10.7492C56.1226 10.63 56.5681 10.8835 56.6861 11.3139L62.3473 31.8567C63.8495 37.3096 60.6481 42.9482 55.1939 44.4517L54.9178 44.5282L58.6853 58.2L63.3249 58.6305C63.8985 58.6832 63.97 59.4926 63.4153 59.6457L51.3173 62.979C50.7613 63.1321 50.4087 62.4004 50.8743 62.0603L54.6392 59.3144L50.8718 45.6427L50.5957 45.718C45.1428 47.2202 39.5042 44.0187 38.0007 38.5646L32.3395 18.0218C32.2215 17.5926 32.475 17.1471 32.9055 17.0279Z" fill="#FFEFE4"/>
<path d="M32.9055 17.0279L55.6921 10.7492C56.1226 10.63 56.5681 10.8835 56.6861 11.3139L62.3473 31.8567C63.8495 37.3096 60.6481 42.9482 55.1939 44.4517L54.9178 44.5282L58.6853 58.2L63.3249 58.6305C63.8985 58.6832 63.97 59.4926 63.4153 59.6457L51.3173 62.979C50.7613 63.1321 50.4087 62.4004 50.8743 62.0603L54.6392 59.3144L50.8718 45.6427L50.5957 45.718C45.1428 47.2202 39.5042 44.0187 38.0007 38.5646L32.3395 18.0218C32.2215 17.5926 32.475 17.1471 32.9055 17.0279Z" fill="#FFEFE4"/>
<path d="M32.341 18.0228L38.0022 38.5656C39.468 43.8842 44.8682 47.0593 50.1931 45.8193L50.188 45.7428C46.0052 45.3839 42.4398 42.4246 41.3166 38.3786L35.2801 16.375L32.907 17.0288C32.4753 17.1468 32.2218 17.5923 32.341 18.0228Z" fill="#FFE4D1"/>
<path d="M62.7102 58.9488C62.9047 58.8949 63.0214 58.7593 63.0678 58.605L63.3276 58.6288C63.9011 58.6815 63.9727 59.491 63.418 59.6441L51.32 62.9773C50.8556 63.1053 50.5356 62.6159 50.7125 62.2532L62.7102 58.9488Z" fill="#EDD4C2"/>
<path d="M51.4474 47.7428L55.4946 46.6274L54.9158 44.527L50.8685 45.6424L51.4474 47.7428Z" fill="#EDD4C2"/>
<path d="M42.1838 28.099C43.9445 28.0864 45.8784 27.4715 47.7609 26.8227C49.8517 26.1036 51.8785 25.3455 53.53 25.3342C56.6712 25.3117 59.4811 26.7398 59.4811 26.7398L60.9947 32.2304C62.2885 36.9303 59.5201 41.8059 54.8214 43.101L50.2232 44.3685C49.4727 44.5756 48.7009 44.6823 47.9303 44.6873C43.942 44.7162 40.4142 42.0456 39.3525 38.1953L36.2427 26.9055C36.2439 26.903 38.4703 28.1241 42.1838 28.099Z" fill="#58DBDB"/>
<path d="M32.341 18.0228C32.2218 17.5923 32.4753 17.1468 32.9057 17.0288L55.6924 10.7502C56.1229 10.6309 56.5684 10.8844 56.6863 11.3149L57.0064 12.4758C56.8169 12.1972 56.4655 12.0553 56.1229 12.1495L33.3362 18.4281C32.9057 18.5474 32.6171 18.9992 32.735 19.4296L32.341 18.0228Z" fill="#FFF7F2"/>
<path d="M33.1029 9.38728C32.3812 9.38226 31.8002 8.79242 31.8052 8.07081L31.8529 1.29643C31.8579 0.576068 32.4478 -0.00498764 33.1694 3.22831e-05C33.891 0.0050522 34.472 0.594893 34.467 1.31651L34.4193 8.09089C34.4143 8.81125 33.8245 9.3923 33.1029 9.38728Z" fill="#3296D1"/>
<path d="M26.2328 12.1759C25.7183 12.6829 24.8912 12.6766 24.3842 12.1634L19.6278 7.33921C19.1208 6.82467 19.1271 5.99764 19.6404 5.49063C20.1549 4.98362 20.982 4.98989 21.489 5.50318L26.2453 10.3273C26.7524 10.8419 26.7473 11.6689 26.2328 12.1759Z" fill="#3296D1"/>
<path d="M39.932 12.2738C39.425 11.7593 39.4313 10.9322 39.9446 10.4252L44.7687 5.66885C45.2833 5.16184 46.1103 5.16811 46.6173 5.6814C47.1243 6.19594 47.1181 7.02297 46.6048 7.52999L41.7806 12.2864C41.2661 12.7934 40.439 12.7871 39.932 12.2738Z" fill="#3296D1"/>
</g>
<defs>
<clipPath id="clip0">
<rect width="63" height="63" fill="white" transform="translate(0.796875)"/>
</clipPath>
</defs>
</svg>
