<svg width="40" height="40" viewBox="0 0 40 40" fill="none" xmlns="http://www.w3.org/2000/svg">
<path d="M37.2409 30.5254H33.0126C31.6414 30.5254 30.5259 31.641 30.5259 33.0121V37.2403C30.5259 38.6115 31.6415 39.727 33.0126 39.727H37.2409C38.6121 39.727 39.7276 38.6115 39.7276 37.2403V33.0121C39.7276 31.6409 38.612 30.5254 37.2409 30.5254Z" fill="#C4C4C4"/>
<path d="M25.4909 30.5254H21.2626C19.8914 30.5254 18.7759 31.641 18.7759 33.0121V37.2403C18.7759 38.6115 19.8915 39.727 21.2626 39.727H25.4909C26.8621 39.727 27.9776 38.6115 27.9776 37.2403V33.0121C27.9776 31.6409 26.862 30.5254 25.4909 30.5254Z" fill="#C4C4C4"/>
<path d="M37.2409 18.7754H33.0126C31.6414 18.7754 30.5259 19.891 30.5259 21.2621V25.4903C30.5259 26.8615 31.6415 27.977 33.0126 27.977H37.2409C38.6121 27.977 39.7276 26.8615 39.7276 25.4903V21.2621C39.7276 19.891 38.612 18.7754 37.2409 18.7754Z" fill="#C4C4C4"/>
<path d="M12.4965 0.306641H4.04004C1.98171 0.306641 0.307129 1.98122 0.307129 4.03955V12.496C0.307129 14.5544 1.98171 16.2289 4.04004 16.2289H12.4965C14.5548 16.2289 16.2294 14.5544 16.2294 12.496V4.03955C16.2293 1.98122 14.5548 0.306641 12.4965 0.306641ZM10.2153 8.85284C10.2153 9.60499 9.60555 10.2147 8.8534 10.2147H7.68315C6.931 10.2147 6.3213 9.60499 6.3213 8.85284V7.68266C6.3213 6.93051 6.931 6.32081 7.68315 6.32081H8.85332C9.60547 6.32081 10.2152 6.93051 10.2152 7.68266V8.85284H10.2153Z" fill="#C4C4C4"/>
<path d="M12.4946 23.8047H4.03808C1.97975 23.8047 0.305176 25.4793 0.305176 27.5376V35.9941C0.305176 38.0524 1.97975 39.727 4.03808 39.727H12.4946C14.5529 39.727 16.2275 38.0524 16.2275 35.9941V27.5375C16.2274 25.4792 14.5529 23.8047 12.4946 23.8047ZM10.2133 32.3509C10.2133 33.103 9.6036 33.7127 8.85145 33.7127H7.6812C6.92905 33.7127 6.31934 33.103 6.31934 32.3509V31.1807C6.31934 30.4286 6.92905 29.8189 7.6812 29.8189H8.85137C9.60352 29.8189 10.2132 30.4286 10.2132 31.1807L10.2133 32.3509Z" fill="#C4C4C4"/>
<path d="M35.9945 0.304688H27.5381C25.4798 0.304688 23.8052 1.97927 23.8052 4.0376V12.4941C23.8052 14.5524 25.4798 16.227 27.5381 16.227H35.9946C38.0529 16.227 39.7275 14.5524 39.7275 12.4941V4.0376C39.7274 1.97927 38.0528 0.304688 35.9945 0.304688ZM33.7132 8.85088C33.7132 9.60303 33.1035 10.2127 32.3514 10.2127H31.1812C30.4291 10.2127 29.8193 9.60303 29.8193 8.85088V7.68071C29.8193 6.92856 30.4291 6.31885 31.1812 6.31885H32.3514C33.1035 6.31885 33.7132 6.92856 33.7132 7.68071V8.85088Z" fill="#C4C4C4"/>
<path d="M12.4623 0.272461H4.00586C1.94753 0.272461 0.272949 1.94704 0.272949 4.00537V12.4618C0.272949 14.5202 1.94753 16.1948 4.00586 16.1948H12.4623C14.5207 16.1948 16.1952 14.5202 16.1952 12.4618V4.00537C16.1952 1.94704 14.5206 0.272461 12.4623 0.272461ZM13.7139 12.4618C13.7139 13.1519 13.1524 13.7134 12.4623 13.7134H4.00586C3.31574 13.7134 2.75427 13.152 2.75427 12.4618V4.00537C2.75427 3.31518 3.31574 2.75378 4.00586 2.75378H12.4623C13.1525 2.75378 13.7139 3.31518 13.7139 4.00537L13.7139 12.4618Z" fill="#EE0033"/>
<path d="M12.4623 23.7725H4.00586C1.94753 23.7725 0.272949 25.447 0.272949 27.5053V35.9618C0.272949 38.0201 1.94753 39.6947 4.00586 39.6947H12.4623C14.5207 39.6947 16.1952 38.0201 16.1952 35.9618V27.5053C16.1952 25.447 14.5206 23.7725 12.4623 23.7725ZM13.7139 35.9618C13.7139 36.6519 13.1524 37.2133 12.4623 37.2133H4.00586C3.31574 37.2133 2.75427 36.6519 2.75427 35.9618V27.5053C2.75427 26.8152 3.31574 26.2537 4.00586 26.2537H12.4623C13.1525 26.2537 13.7139 26.8151 13.7139 27.5053L13.7139 35.9618Z" fill="#EE0033"/>
<path d="M37.2409 30.5254H33.0126C31.6414 30.5254 30.5259 31.641 30.5259 33.0121V37.2403C30.5259 38.6115 31.6415 39.727 33.0126 39.727H37.2409C38.6121 39.727 39.7276 38.6115 39.7276 37.2403V33.0121C39.7276 31.6409 38.612 30.5254 37.2409 30.5254ZM37.2433 37.2456C37.2355 37.2473 36.9031 37.2453 33.0072 37.2404L33.0126 33.0067L37.2463 33.0121L37.2433 37.2456Z" fill="#EE0033"/>
<path d="M25.4909 30.5254H21.2626C19.8914 30.5254 18.7759 31.641 18.7759 33.0121V37.2403C18.7759 38.6115 19.8915 39.727 21.2626 39.727H25.4909C26.8621 39.727 27.9776 38.6115 27.9776 37.2403V33.0121C27.9776 31.6409 26.862 30.5254 25.4909 30.5254ZM25.4933 37.2456C25.4855 37.2473 25.1531 37.2453 21.2572 37.2404L21.2626 33.0067L25.4963 33.0121L25.4933 37.2456Z" fill="#EE0033"/>
<path d="M37.2409 18.7754H33.0126C31.6414 18.7754 30.5259 19.891 30.5259 21.2621V25.4903C30.5259 26.8615 31.6415 27.977 33.0126 27.977H37.2409C38.6121 27.977 39.7276 26.8615 39.7276 25.4903V21.2621C39.7276 19.891 38.612 18.7754 37.2409 18.7754ZM37.2433 25.4956C37.0583 25.4956 33.2623 25.4907 33.0071 25.4904L33.0125 21.2567L37.2462 21.2621L37.2433 25.4956Z" fill="#EE0033"/>
<path d="M27.5059 16.1947H35.9623C38.0207 16.1947 39.6952 14.5201 39.6952 12.4618V4.00537C39.6952 1.94704 38.0207 0.272461 35.9623 0.272461H27.5059C25.4475 0.272461 23.7729 1.94704 23.7729 4.00537V12.4619C23.773 14.5201 25.4476 16.1947 27.5059 16.1947ZM26.2543 4.00537C26.2543 3.31525 26.8158 2.75378 27.5059 2.75378H35.9624C36.6525 2.75378 37.214 3.31518 37.214 4.00537V12.4619C37.214 13.152 36.6525 13.7134 35.9624 13.7134H27.5059C26.8157 13.7134 26.2543 13.152 26.2543 12.4619V4.00537H26.2543Z" fill="#EE0033"/>
<path d="M8.85144 6.31836H7.68119C6.92904 6.31836 6.31934 6.92807 6.31934 7.68021V8.85039C6.31934 9.60254 6.92904 10.2122 7.68119 10.2122H8.85137C9.60352 10.2122 10.2132 9.60254 10.2132 8.85039V7.68021C10.2133 6.92807 9.60352 6.31836 8.85144 6.31836Z" fill="#EE0033"/>
<path d="M8.85144 29.8184H7.68119C6.92904 29.8184 6.31934 30.4281 6.31934 31.1802V32.3504C6.31934 33.1025 6.92904 33.7122 7.68119 33.7122H8.85137C9.60352 33.7122 10.2132 33.1025 10.2132 32.3504V31.1802C10.2133 30.4281 9.60352 29.8184 8.85144 29.8184Z" fill="#EE0033"/>
<path d="M31.1812 10.2123H32.3514C33.1035 10.2123 33.7132 9.60262 33.7132 8.85047V7.68022C33.7132 6.92807 33.1035 6.31836 32.3514 6.31836H31.1812C30.429 6.31836 29.8193 6.92807 29.8193 7.68022V8.85039C29.8193 9.60254 30.429 10.2123 31.1812 10.2123Z" fill="#EE0033"/>
<path d="M20.0165 9.50642C20.7017 9.50642 21.2572 8.95099 21.2572 8.26576V1.54535C21.2572 0.860115 20.7017 0.304688 20.0165 0.304688C19.3314 0.304688 18.7759 0.860115 18.7759 1.54535V8.26576C18.7759 8.95099 19.3313 9.50642 20.0165 9.50642Z" fill="#EE0033"/>
<path d="M20.0165 19.2022H21.3784V21.666C21.3784 22.3512 21.9339 22.9067 22.6191 22.9067C23.3042 22.9067 23.8597 22.3512 23.8597 21.666V17.9616C23.8597 17.2763 23.3042 16.7209 22.6191 16.7209H21.2572V13.8676C21.2572 13.1824 20.7017 12.627 20.0165 12.627C19.3314 12.627 18.7759 13.1824 18.7759 13.8676V17.9616C18.7759 18.6468 19.3313 19.2022 20.0165 19.2022Z" fill="#EE0033"/>
<path d="M6.31927 21.2567C7.00442 21.2567 7.55993 20.7013 7.55993 20.016C7.55993 19.3308 7.00442 18.7754 6.31927 18.7754H1.54583C0.860681 18.7754 0.305176 19.3308 0.305176 20.016C0.305176 20.7013 0.860681 21.2567 1.54583 21.2567H6.31927Z" fill="#EE0033"/>
<path d="M14.5481 21.2567C15.2333 21.2567 15.7888 20.7013 15.7888 20.016C15.7888 19.3308 15.2333 18.7754 14.5481 18.7754H10.873C10.1878 18.7754 9.63232 19.3308 9.63232 20.016C9.63232 20.7013 10.1878 21.2567 10.873 21.2567H14.5481Z" fill="#EE0033"/>
<path d="M26.737 22.5996C26.0518 22.5996 25.4963 23.155 25.4963 23.8403V25.4951H20.0165C19.3314 25.4951 18.7759 26.0505 18.7759 26.7357C18.7759 27.421 19.3314 27.9764 20.0165 27.9764H26.737C27.4221 27.9764 27.9776 27.421 27.9776 26.7357V23.8403C27.9776 23.155 27.4222 22.5996 26.737 22.5996Z" fill="#EE0033"/>
</svg>
