<svg width="253" height="343" viewBox="0 0 253 343" fill="none" xmlns="http://www.w3.org/2000/svg">
<circle cx="126.342" cy="125.869" r="125.869" fill="#DEE6EE"/>
<path d="M70.212 111.126C78.0403 111.126 84.3864 104.78 84.3864 96.9513C84.3864 89.123 78.0403 82.7769 70.212 82.7769C62.3837 82.7769 56.0376 89.123 56.0376 96.9513C56.0376 104.78 62.3837 111.126 70.212 111.126Z" fill="white"/>
<path d="M184.172 111.126C191.688 111.126 197.78 104.78 197.78 96.9513C197.78 89.123 191.688 82.7769 184.172 82.7769C176.657 82.7769 170.565 89.123 170.565 96.9513C170.565 104.78 176.657 111.126 184.172 111.126Z" fill="white"/>
<path d="M69.6458 167.826C69.6458 167.826 118.946 124.453 184.175 167.826H69.6458Z" fill="white"/>
<path fill-rule="evenodd" clip-rule="evenodd" d="M148.802 306.4L139.15 305.623L138.061 333.931H145.889L148.802 306.4ZM175.22 334.006H182.959L183.24 307.283H173.684L175.22 334.006Z" fill="#F7B17D"/>
<path fill-rule="evenodd" clip-rule="evenodd" d="M132.136 339.368L132.155 339.369C131.997 339.628 131.913 339.924 131.911 340.226V341.472H147.536V340.226C147.535 340.076 147.514 339.927 147.472 339.784L146.545 330.642C146.413 329.717 145.947 329.621 145.278 329.748C145.378 329.365 145.411 328.968 145.376 328.573C145.309 327.906 139.327 327.636 139.192 328.388C139.142 328.777 139.116 329.168 139.114 329.559C138.604 329.392 137.932 329.365 137.427 330.254L132.136 339.368ZM175.251 330.438C175.168 330.245 175.089 330.062 175.005 329.898C174.505 328.935 173.923 328.931 173.715 329.575C173.692 329.646 173.651 329.759 173.597 329.906C173.16 331.102 171.87 334.628 172.425 337.486C172.425 337.486 180.443 337.832 185.227 338.916C185.227 338.916 198.218 339.252 200.964 339.252C200.964 339.252 200.756 336.923 199.841 336.161C198.925 335.398 196.762 335.117 196.762 335.117C196.762 335.117 185.447 329.617 184.531 329.577C183.616 329.537 182.534 330.219 181.702 330.982C181.592 331.083 181.482 331.191 181.369 331.302C180.627 332.029 179.757 332.883 177.917 332.708C176.155 332.542 175.655 331.379 175.251 330.438Z" fill="#6A6A6A"/>
<g style="mix-blend-mode:overlay" opacity="0.6">
<path d="M145.297 338.07C145.297 338.07 144.551 336.885 140.367 336.837C135.881 336.785 134.897 338 134.897 338L145.297 338.07Z" fill="white"/>
</g>
<g style="mix-blend-mode:overlay" opacity="0.6">
<path d="M139.114 329.559C139.116 329.168 139.142 328.776 139.193 328.388C139.327 327.636 145.31 327.906 145.376 328.573C145.391 328.972 145.356 329.372 145.272 329.763C145.272 329.763 145.32 335.616 144.367 336.187C143.843 336.501 136.421 336.424 136.375 336.245C136.252 335.765 138.956 329.559 139.114 329.559Z" fill="white"/>
</g>
<g style="mix-blend-mode:overlay" opacity="0.6">
<path d="M147.216 337.551L145.547 336.268C145.523 336.249 145.511 336.217 145.517 336.187L145.681 335.322C145.686 335.294 145.705 335.271 145.731 335.26C145.758 335.249 145.787 335.253 145.81 335.27L147.071 336.187L147.216 337.551Z" fill="white"/>
</g>
<g style="mix-blend-mode:overlay" opacity="0.6">
<path d="M147.023 335.769L145.83 334.855C145.774 334.811 145.746 334.741 145.756 334.67L145.886 333.762C145.89 333.738 145.912 333.673 145.966 333.717C146.025 333.765 146.869 334.4 146.869 334.4L147.023 335.769Z" fill="white"/>
</g>
<g style="mix-blend-mode:overlay" opacity="0.6">
<path d="M146.834 334.039L146.061 333.458C146.005 333.414 145.977 333.344 145.987 333.273L146.117 332.365C146.121 332.341 146.144 332.276 146.197 332.32C146.256 332.368 146.672 332.613 146.672 332.613L146.834 334.039Z" fill="white"/>
</g>
<g style="mix-blend-mode:overlay" opacity="0.6">
<path d="M133.99 336.16L136.091 335.619C136.121 335.611 136.144 335.586 136.151 335.556L136.349 334.689C136.355 334.661 136.347 334.632 136.327 334.612C136.307 334.591 136.278 334.583 136.25 334.589L134.698 334.946L133.99 336.16Z" fill="white"/>
</g>
<g style="mix-blend-mode:overlay" opacity="0.6">
<path d="M134.919 334.568L136.398 334.197C136.468 334.178 136.522 334.124 136.541 334.055L136.787 333.161C136.793 333.138 136.798 333.069 136.732 333.088C136.658 333.11 135.618 333.367 135.618 333.367L134.919 334.568Z" fill="white"/>
</g>
<g style="mix-blend-mode:overlay" opacity="0.6">
<path d="M135.793 333.051L136.749 332.811C136.818 332.792 136.872 332.738 136.891 332.669L137.137 331.775C137.144 331.752 137.149 331.683 137.082 331.702C137.008 331.723 136.517 331.819 136.517 331.819L135.793 333.051Z" fill="white"/>
</g>
<g style="mix-blend-mode:overlay" opacity="0.6">
<path d="M196.762 335.117L196.636 335.198C195.541 335.907 194.17 336.037 192.962 335.547L181.703 330.982C181.703 330.982 183.464 329.216 184.532 329.577C184.532 329.577 186.83 330.262 196.762 335.117Z" fill="white"/>
</g>
<g style="mix-blend-mode:overlay" opacity="0.6">
<path d="M177.917 332.708C177.917 332.708 177.695 334.671 176.812 334.092C175.362 333.196 173.478 333.483 172.358 334.77C172.358 334.77 172.709 331.642 173.715 329.575C173.715 329.575 174.233 328.322 175.005 329.898C175.776 331.474 175.969 332.367 177.917 332.708Z" fill="white"/>
</g>
<g style="mix-blend-mode:overlay" opacity="0.6">
<path d="M197.993 335.362C197.993 335.362 196.681 335.536 196.418 336.803C196.261 337.587 196.255 338.394 196.4 339.18L200.964 339.252C200.964 339.252 200.733 336.856 199.841 336.161C199.283 335.775 198.655 335.504 197.993 335.362V335.362Z" fill="white"/>
</g>
<g style="mix-blend-mode:overlay" opacity="0.6">
<path d="M189.232 339.016L190.823 336.074C190.855 336.015 190.86 335.945 190.837 335.881C190.814 335.818 190.765 335.767 190.703 335.743L189.628 335.317C189.519 335.273 189.395 335.318 189.337 335.42L187.335 338.969L189.232 339.016Z" fill="white"/>
</g>
<g style="mix-blend-mode:overlay" opacity="0.6">
<path d="M186.549 338.949L188.598 335.213C188.63 335.153 188.635 335.083 188.612 335.02C188.589 334.956 188.54 334.906 188.477 334.881L187.403 334.455C187.294 334.412 187.169 334.456 187.111 334.558L184.714 338.805L185.227 338.915L186.549 338.949Z" fill="white"/>
</g>
<g style="mix-blend-mode:overlay" opacity="0.6">
<path d="M183.95 338.656L186.296 334.359C186.328 334.3 186.333 334.23 186.31 334.166C186.287 334.103 186.238 334.052 186.175 334.028L185.101 333.602C184.992 333.558 184.867 333.602 184.81 333.705L182.187 338.369L182.732 338.437L183.95 338.656Z" fill="white"/>
</g>
<path fill-rule="evenodd" clip-rule="evenodd" d="M144.616 330.447L144.616 330.447C144.589 330.439 142.569 329.816 139.182 330.452C139.173 330.453 139.165 330.454 139.157 330.454C139.083 330.451 139.023 330.395 139.014 330.322C138.999 330.239 139.051 330.158 139.133 330.138C142.599 329.489 144.613 330.115 144.698 330.143C144.777 330.172 144.82 330.258 144.796 330.34C144.787 330.379 144.763 330.412 144.729 330.432C144.695 330.453 144.654 330.458 144.616 330.447ZM185.629 332.112C185.765 332.22 185.963 332.198 186.073 332.062L187.285 330.531C187.392 330.393 187.368 330.195 187.232 330.086C187.095 329.978 186.897 330 186.788 330.136L185.576 331.668C185.469 331.805 185.493 332.004 185.629 332.112ZM172.303 335.452H172.303L172.303 335.456L172.303 335.452ZM172.425 337.485C172.425 337.485 180.443 337.832 185.227 338.916C185.227 338.916 198.218 339.252 200.964 339.252V340.373C200.964 340.651 200.854 340.918 200.658 341.114C200.462 341.311 200.196 341.421 199.918 341.421H173.334C173.057 341.421 172.791 341.311 172.595 341.114C172.399 340.918 172.289 340.651 172.289 340.373L172.3 336.395C172.315 336.761 172.357 337.125 172.425 337.485ZM188.268 332.882C188.159 333.017 187.961 333.039 187.825 332.931C187.688 332.823 187.664 332.625 187.771 332.487L188.984 330.956C189.093 330.82 189.291 330.798 189.427 330.906C189.564 331.014 189.587 331.213 189.48 331.35L188.268 332.882ZM189.542 333.851C189.679 333.959 189.877 333.937 189.986 333.801L191.198 332.269C191.305 332.132 191.281 331.934 191.145 331.825C191.009 331.717 190.811 331.739 190.701 331.875L189.489 333.407C189.382 333.544 189.406 333.742 189.542 333.851ZM192.103 334.861C191.994 334.997 191.796 335.019 191.66 334.911C191.523 334.803 191.5 334.604 191.607 334.467L192.819 332.935C192.928 332.8 193.126 332.777 193.262 332.886C193.399 332.994 193.423 333.192 193.316 333.33L192.103 334.861ZM193.805 335.688C193.942 335.796 194.14 335.774 194.249 335.639L195.461 334.107C195.568 333.969 195.544 333.771 195.408 333.663C195.271 333.554 195.073 333.577 194.964 333.712L193.752 335.244C193.645 335.382 193.669 335.58 193.805 335.688ZM135.181 337.961H144.265C146.072 337.961 147.536 338.975 147.536 340.226V341.472H131.911V340.226C131.911 338.975 133.375 337.961 135.181 337.961ZM144.322 335.365C144.299 335.327 144.262 335.301 144.22 335.292C144.118 335.265 141.691 334.638 137.515 335.288C137.472 335.292 137.432 335.314 137.405 335.349C137.378 335.383 137.366 335.428 137.372 335.471C137.391 335.55 137.463 335.606 137.544 335.603C137.554 335.603 137.564 335.602 137.574 335.601C141.656 334.965 144.089 335.588 144.121 335.597L144.121 335.597C144.21 335.623 144.305 335.576 144.338 335.489C144.35 335.447 144.344 335.402 144.322 335.365ZM144.509 334.016C144.551 334.026 144.587 334.052 144.609 334.09C144.63 334.127 144.636 334.171 144.624 334.213C144.593 334.299 144.501 334.346 144.414 334.32L144.414 334.32C144.383 334.312 142.032 333.689 138.089 334.325C138.08 334.326 138.07 334.327 138.061 334.327C137.981 334.329 137.911 334.273 137.895 334.195C137.888 334.152 137.899 334.108 137.925 334.074C137.951 334.039 137.99 334.017 138.033 334.011C142.067 333.362 144.411 333.988 144.509 334.016ZM144.688 332.761C144.667 332.724 144.632 332.697 144.591 332.687C144.495 332.659 142.206 332.033 138.266 332.682C138.224 332.688 138.186 332.711 138.16 332.746C138.135 332.78 138.125 332.823 138.131 332.865C138.146 332.943 138.215 332.999 138.294 332.998C138.303 332.998 138.312 332.997 138.322 332.995C142.171 332.359 144.467 332.983 144.498 332.991L144.498 332.991C144.584 333.016 144.674 332.969 144.702 332.883C144.714 332.842 144.709 332.798 144.688 332.761ZM144.602 331.826L144.602 331.826C144.656 331.842 144.715 331.828 144.756 331.789C144.797 331.75 144.814 331.692 144.8 331.637C144.787 331.582 144.745 331.538 144.691 331.522C144.599 331.495 142.398 330.868 138.612 331.517C138.556 331.527 138.509 331.566 138.489 331.619C138.47 331.672 138.48 331.732 138.516 331.776C138.552 331.819 138.609 331.84 138.665 331.831C142.366 331.195 144.572 331.818 144.602 331.826Z" fill="#727272"/>
<path d="M136.661 295.504C138.61 280.832 136.846 271.033 138.743 265.329C138.743 265.329 136.014 235.295 136.857 215.437H181.303C181.303 215.437 185.024 262.865 184.814 270.682C184.603 278.498 185.144 302.933 185.544 315.256C185.61 317.298 183.963 318.593 183.643 318.737C183.694 320.687 183.845 323.598 183.804 324.498C183.717 326.438 181.006 326.573 178.463 326.54C174.406 326.487 174.096 325.98 173.949 324.634C173.9 324.183 173.498 320.947 173.428 319.046C173.322 318.995 171.542 318.741 170.629 317.051C168.519 313.148 169.32 297.37 167.844 288.497C166.369 279.625 167.899 269.694 167.949 267.09C162.565 259.697 160.359 248.289 160.359 248.289L148.979 316.868C148.979 316.868 148.858 318.131 147.918 318.804C147.806 320.768 147.546 324.283 147.105 324.674C146.491 325.22 143.118 325.114 141.238 324.938C139.358 324.762 138.005 324.198 137.795 323.107C137.645 322.335 137.707 319.285 137.756 317.564C136.994 317.187 136.491 316.431 136.438 315.581C136.438 315.581 135.08 307.404 136.661 295.504Z" fill="#727272"/>
<g style="mix-blend-mode:overlay" opacity="0.6">
<path d="M181.842 324.445C181.884 324.445 181.924 324.428 181.954 324.399C181.984 324.369 182 324.328 182 324.286V319.797C182 319.71 181.929 319.638 181.842 319.638C181.754 319.638 181.683 319.71 181.683 319.797V324.286C181.683 324.328 181.7 324.369 181.73 324.399C181.759 324.428 181.8 324.445 181.842 324.445Z" fill="white"/>
</g>
<g style="mix-blend-mode:overlay" opacity="0.6">
<path d="M179.488 324.656C179.53 324.656 179.57 324.64 179.6 324.61C179.63 324.58 179.646 324.54 179.646 324.498V320.009C179.646 319.921 179.575 319.85 179.488 319.85C179.4 319.85 179.329 319.921 179.329 320.009V324.498C179.329 324.54 179.346 324.58 179.376 324.61C179.405 324.64 179.446 324.656 179.488 324.656Z" fill="white"/>
</g>
<g style="mix-blend-mode:overlay" opacity="0.6">
<path d="M177.596 324.797H177.599C177.687 324.795 177.756 324.723 177.755 324.635L177.672 320.147C177.67 320.06 177.6 319.991 177.514 319.991H177.511C177.423 319.993 177.354 320.065 177.355 320.152L177.438 324.641C177.439 324.727 177.51 324.797 177.596 324.797Z" fill="white"/>
</g>
<g style="mix-blend-mode:overlay" opacity="0.6">
<path d="M175.764 324.793C175.767 324.793 175.771 324.793 175.774 324.793C175.861 324.787 175.928 324.712 175.922 324.624L175.639 320.144C175.638 320.102 175.619 320.062 175.587 320.034C175.555 320.006 175.513 319.992 175.471 319.996C175.384 320.001 175.317 320.077 175.323 320.164L175.606 324.644C175.611 324.728 175.68 324.793 175.764 324.793Z" fill="white"/>
</g>
<g style="mix-blend-mode:overlay" opacity="0.6">
<path d="M145.274 323.959C145.355 323.959 145.423 323.898 145.432 323.817L145.896 319.352C145.902 319.295 145.877 319.24 145.831 319.207C145.786 319.173 145.725 319.167 145.674 319.19C145.622 319.213 145.586 319.262 145.581 319.319L145.117 323.784C145.112 323.826 145.125 323.868 145.151 323.901C145.178 323.933 145.216 323.954 145.258 323.958C145.263 323.959 145.269 323.959 145.274 323.959Z" fill="white"/>
</g>
<g style="mix-blend-mode:overlay" opacity="0.6">
<path d="M142.911 323.925C142.992 323.925 143.06 323.863 143.068 323.782L143.532 319.318C143.538 319.261 143.514 319.206 143.468 319.172C143.422 319.139 143.362 319.133 143.31 319.156C143.258 319.179 143.223 319.228 143.217 319.285L142.753 323.75C142.749 323.791 142.761 323.833 142.788 323.866C142.814 323.899 142.852 323.92 142.894 323.924C142.9 323.925 142.905 323.925 142.911 323.925Z" fill="white"/>
</g>
<g style="mix-blend-mode:overlay" opacity="0.6">
<path d="M141.015 323.869C141.097 323.869 141.166 323.806 141.173 323.723L141.555 319.251C141.558 319.209 141.545 319.167 141.518 319.135C141.491 319.102 141.452 319.082 141.41 319.079C141.323 319.073 141.248 319.137 141.239 319.223L140.857 323.696C140.853 323.738 140.867 323.78 140.894 323.812C140.921 323.844 140.96 323.864 141.001 323.868C141.006 323.868 141.011 323.869 141.015 323.869Z" fill="white"/>
</g>
<g style="mix-blend-mode:overlay" opacity="0.6">
<path d="M139.193 323.674C139.278 323.674 139.348 323.607 139.351 323.522L139.533 319.036C139.536 318.949 139.468 318.875 139.381 318.871C139.339 318.869 139.298 318.884 139.267 318.912C139.236 318.941 139.217 318.981 139.216 319.023L139.034 323.509C139.031 323.596 139.099 323.67 139.186 323.674H139.193Z" fill="white"/>
</g>
<g style="mix-blend-mode:overlay" opacity="0.6">
<path d="M136.661 228.592C136.67 228.592 136.679 228.591 136.688 228.59C146.493 226.842 144.883 215.951 144.866 215.841C144.852 215.754 144.771 215.696 144.685 215.709C144.598 215.723 144.54 215.804 144.553 215.891C144.57 215.997 146.13 226.584 136.633 228.277C136.552 228.292 136.496 228.365 136.503 228.447C136.51 228.529 136.579 228.592 136.661 228.592Z" fill="#B5B4B4"/>
</g>
<g style="mix-blend-mode:overlay" opacity="0.6">
<path d="M182.225 226.372C182.298 226.372 182.361 226.322 182.379 226.251C182.396 226.18 182.363 226.106 182.298 226.073C182.23 226.037 175.445 222.403 175.804 215.874C175.806 215.832 175.791 215.791 175.763 215.76C175.735 215.728 175.696 215.709 175.654 215.707C175.612 215.704 175.57 215.718 175.539 215.747C175.508 215.775 175.489 215.815 175.487 215.857C175.117 222.592 182.081 226.317 182.152 226.354C182.174 226.366 182.199 226.372 182.225 226.372Z" fill="#B5B4B4"/>
</g>
<g style="mix-blend-mode:overlay" opacity="0.6">
<path d="M181.303 215.437L181.568 218.897C163.946 225.896 136.769 221.038 136.769 221.038L136.857 215.437H181.303Z" fill="#B5B4B4"/>
</g>
<g style="mix-blend-mode:overlay" opacity="0.6">
<path d="M160.359 248.289L164.578 232.551C164.578 232.551 166.788 241.074 165.84 250.296C164.891 259.517 165.201 262.495 165.201 262.495C165.201 262.495 161.67 255.419 160.359 248.289Z" fill="#B5B4B4"/>
</g>
<g style="mix-blend-mode:overlay" opacity="0.6">
<path d="M182.172 227.217C182.172 227.217 180.284 226.425 179.546 229.382C178.808 232.34 179.683 246.916 180.526 255.155C181.369 263.393 182.384 275.963 182.545 282.512C182.705 289.06 184.912 292.071 184.912 292.071C184.912 292.071 184.754 270.312 184.711 266.873C184.65 262.041 183.279 243.008 182.172 227.217Z" fill="white"/>
</g>
<g style="mix-blend-mode:overlay" opacity="0.6">
<path d="M159.129 255.901C159.129 255.901 153.129 262.895 151.737 272.281C150.345 281.667 149.186 300.292 148.483 305.08C147.78 309.869 146.108 314.789 149.18 315.203L159.129 255.901Z" fill="white"/>
</g>
<g style="mix-blend-mode:overlay" opacity="0.6">
<path d="M167.898 269.853C167.903 269.853 167.908 269.853 167.914 269.852C167.955 269.848 167.994 269.828 168.021 269.795C168.047 269.763 168.06 269.721 168.056 269.679C168.051 269.627 167.573 264.48 169.629 261.046C169.659 260.997 169.66 260.936 169.632 260.887C169.605 260.837 169.553 260.806 169.496 260.805C169.439 260.804 169.386 260.834 169.357 260.883C167.247 264.407 167.735 269.657 167.74 269.71C167.748 269.791 167.817 269.853 167.898 269.853Z" fill="#B5B4B4"/>
</g>
<path d="M149.569 128.322C149.569 123.252 155.156 124.868 156.107 125.186C157.058 125.503 159.277 118.198 159.277 118.198C159.277 118.198 170.688 117.245 172.907 119.469C172.907 119.469 173.54 128.997 173.224 135.032C172.907 141.067 170.971 143.603 168.753 143.603C168.051 143.563 167.361 143.402 166.715 143.126V154.236L153.293 147.264L154.946 134.141C154.878 134.101 154.839 134.08 154.839 134.08C154.839 134.08 149.569 133.11 149.569 128.322Z" fill="#F7B17D"/>
<path d="M173.269 127.729C173.269 127.729 172.65 122.513 172.572 121.069C172.458 118.992 170.528 118.556 169.392 120.013C167.76 122.176 164.989 123.144 162.368 122.465C160.069 121.928 159.101 121.312 158.89 123.638C158.679 125.963 157.889 129.825 157.151 128.792C156.413 127.759 155.587 125.488 154.125 125.224C151.892 124.82 150.51 127.493 151.037 129.087C151.564 130.681 152.309 131.675 155.067 133.182L154.207 140.01C147.374 130.931 144.801 118.464 154.068 115.577C157.53 114.498 161.126 107.508 167.825 109.098C172.572 110.225 172.572 113.869 172.909 117.038C179.286 117.302 173.269 127.729 173.269 127.729Z" fill="#352316"/>
<path d="M153.067 127.239C154.589 126.722 155.998 130.038 156.057 130.179C156.091 130.26 156.053 130.353 155.973 130.387C155.953 130.395 155.932 130.4 155.911 130.4C155.848 130.4 155.79 130.361 155.765 130.303C155.519 129.73 155.218 129.183 154.866 128.669C154.546 128.614 154.217 128.674 153.938 128.84C153.66 129.047 153.483 129.362 153.45 129.707C153.437 129.784 153.371 129.84 153.294 129.84C153.285 129.84 153.276 129.84 153.268 129.838C153.226 129.831 153.189 129.808 153.165 129.774C153.14 129.74 153.13 129.697 153.137 129.656C153.192 128.888 153.846 128.303 154.613 128.334C154.162 127.776 153.648 127.378 153.169 127.539C153.115 127.558 153.056 127.546 153.013 127.509C152.971 127.471 152.951 127.414 152.962 127.358C152.973 127.302 153.013 127.257 153.067 127.239H153.067Z" fill="#0B122D"/>
<path d="M166.716 143.285C166.79 143.285 166.855 143.233 166.871 143.159C166.886 143.086 166.848 143.012 166.78 142.981C166.727 142.958 161.52 140.623 159.322 137.801C159.268 137.732 159.168 137.719 159.099 137.773C159.03 137.827 159.018 137.927 159.072 137.996C161.319 140.882 166.435 143.175 166.652 143.271C166.672 143.281 166.694 143.285 166.716 143.285Z" fill="#0B122D"/>
<path d="M159.288 120.884C159.323 120.884 159.358 120.872 159.385 120.851C161.778 118.989 160.887 115.381 160.848 115.229C160.835 115.174 160.792 115.13 160.738 115.115C160.683 115.099 160.624 115.114 160.584 115.154C160.543 115.194 160.527 115.253 160.541 115.308C160.55 115.343 161.418 118.867 159.191 120.6C159.138 120.642 159.117 120.713 159.138 120.777C159.16 120.841 159.221 120.884 159.288 120.884V120.884Z" fill="white"/>
<g style="mix-blend-mode:overlay" opacity="0.6">
<path d="M166.705 143.199C166.705 143.199 162.137 141.07 160.662 139.521C160.662 139.521 161.002 143.697 164.019 146.633C167.035 149.568 166.705 147.196 166.705 147.196L166.705 143.199Z" fill="#030F1C"/>
</g>
<path d="M165.61 126.22C165.565 126.757 165.793 127.215 166.12 127.243C166.446 127.27 166.747 126.856 166.792 126.318C166.836 125.78 166.608 125.323 166.282 125.295C165.955 125.268 165.655 125.682 165.61 126.22" fill="#161B36"/>
<path d="M171.422 127.112C171.378 127.65 171.605 128.108 171.932 128.136C172.258 128.163 172.559 127.749 172.604 127.211C172.649 126.673 172.42 126.215 172.094 126.188C171.767 126.161 171.467 126.575 171.422 127.112" fill="#161B36"/>
<path d="M167.608 123.053C167.338 122.886 167.008 122.792 166.189 123.091C165.371 123.39 164.341 124.551 164.679 124.671C165.017 124.79 165.647 123.858 166.372 123.891C167.096 123.922 167.529 123.997 167.713 123.807C167.944 123.569 167.737 123.134 167.608 123.053Z" fill="#161B36"/>
<path d="M171.722 123.481C172.03 123.407 172.373 123.42 173.058 123.96C173.742 124.5 174.359 125.925 174.001 125.933C173.643 125.941 173.334 124.859 172.635 124.662C171.937 124.466 171.503 124.402 171.387 124.165C171.242 123.865 171.573 123.517 171.722 123.481" fill="#161B36"/>
<g style="mix-blend-mode:overlay" opacity="0.6">
<path d="M169.551 133.154C169.789 133.161 170.025 133.113 170.242 133.015C170.426 132.931 170.563 132.768 170.615 132.572C170.715 132.165 170.347 131.491 169.892 130.717C169.776 130.531 169.671 130.339 169.579 130.141C169.493 129.907 169.693 127.86 169.937 126.016L169.623 125.974C169.538 126.613 169.125 129.825 169.282 130.251C169.379 130.467 169.492 130.677 169.619 130.878C169.905 131.365 170.385 132.181 170.307 132.496C170.277 132.602 170.201 132.689 170.099 132.731C169.629 132.889 169.117 132.862 168.666 132.656L168.544 132.949C168.863 133.082 169.205 133.151 169.551 133.154Z" fill="#030F1C"/>
</g>
<path d="M164.477 136.651C164.477 137.645 165.533 138.449 166.832 138.449C167.224 138.45 167.612 138.374 167.973 138.223C168.699 137.918 169.19 137.327 169.19 136.651C169.19 135.657 168.135 134.853 166.832 134.853C165.688 134.853 164.731 135.479 164.521 136.308C164.492 136.42 164.477 136.535 164.477 136.651Z" fill="#161B36"/>
<path d="M164.477 136.651C164.477 137.645 165.532 138.448 166.832 138.448C167.224 138.45 167.612 138.373 167.973 138.223C167.618 137.718 166.379 136.165 164.521 136.308C164.492 136.42 164.477 136.535 164.477 136.651Z" fill="#E55151"/>
<path d="M101.874 154.084L121.028 176.102C121.245 176.348 121.574 176.465 121.898 176.41C122.222 176.355 122.494 176.137 122.619 175.832C124.199 171.965 126.001 168.192 128.016 164.533C131.933 157.489 136.902 150.37 142.816 149.382C146.458 148.398 152.209 147.179 152.209 147.179L153.634 141.756C155.294 145.617 158.632 148.499 162.688 149.573C165.388 148.339 166.607 145.277 166.607 145.277L168.937 148.024C168.937 148.024 177.205 151.585 180.317 153.971C183.952 156.338 185.472 162 188.701 167.806C191.191 172.285 193.636 176.827 195.763 179.264C196.09 179.633 196.559 179.843 197.051 179.842C197.543 179.84 198.011 179.627 198.336 179.257C198.336 179.257 212.297 163.492 217.822 157.253C219.034 159.682 221.353 162.323 224.357 162.428C215.372 177.835 203.899 196.063 200.577 197.258C197.752 198.275 194.306 197.337 191.67 194.698C187.023 190.046 183.285 185.765 180.257 182.142C179.986 185.64 179.786 188.658 179.777 190.555C179.754 195.503 180.276 201.227 180.439 207.667C180.516 210.716 183.424 216.71 181.077 218.652C173.503 224.919 136.314 218.652 136.314 218.652C136.36 214.997 136.818 211.359 137.679 207.807C139.445 200.986 139.187 197.527 138.961 193.513C138.868 191.864 138.604 185.678 138.315 178.805C134.811 183.279 131.37 187.268 127.977 190.453C121.758 196.29 118.269 195.732 108.522 180.514C107.13 178.34 95.7027 162.052 94.0743 159.259C100.926 159.259 101.874 154.084 101.874 154.084Z" fill="#D1D1D1"/>
<g style="mix-blend-mode:overlay" opacity="0.6">
<path d="M186.595 169.997C187.295 171.76 188.351 174.082 190.671 177.884C192.988 181.686 195.977 184.767 199.733 181.6C202.767 179.04 206.621 173.589 207.775 172.039C208.929 170.492 207.775 168.641 207.775 168.641C202.706 174.358 198.335 179.256 198.335 179.256C198.01 179.626 197.543 179.839 197.051 179.841C196.559 179.843 196.089 179.633 195.762 179.265C193.638 176.826 191.191 172.284 188.703 167.805C188.452 167.351 188.205 166.9 187.97 166.446H187.967C187.967 166.446 185.891 168.237 186.595 169.997Z" fill="#DCE4EF"/>
</g>
<g style="mix-blend-mode:overlay" opacity="0.6">
<path d="M181.339 168.324C184.228 172.326 183.106 181.01 185.575 184.046C188.097 187.146 192.816 189.528 191.67 194.698C187.079 189.858 183.216 185.75 180.255 182.174C180.586 177.891 181.021 172.883 181.339 168.324Z" fill="#030F1C"/>
</g>
<path d="M198.696 185.576C198.76 185.576 198.817 185.538 198.842 185.479C198.867 185.421 198.854 185.353 198.81 185.307C196.945 183.38 197.227 180.73 197.23 180.703C197.234 180.661 197.222 180.619 197.196 180.586C197.17 180.553 197.132 180.532 197.09 180.527C197.048 180.522 197.006 180.534 196.973 180.56C196.94 180.586 196.919 180.625 196.914 180.667C196.901 180.781 196.611 183.49 198.582 185.528C198.612 185.559 198.653 185.576 198.696 185.576Z" fill="#0B122D"/>
<path d="M164.891 221.557C164.973 221.557 165.042 221.493 165.048 221.411C165.248 218.945 164.961 211.868 164.684 205.024C164.401 198.046 164.109 190.831 164.332 188.529C164.773 183.992 162.872 151.511 162.853 151.184C162.85 151.127 162.817 151.076 162.766 151.05C162.716 151.025 162.655 151.028 162.608 151.059C162.56 151.09 162.533 151.144 162.536 151.201C162.556 151.528 164.455 183.985 164.017 188.497C163.791 190.82 164.084 198.047 164.367 205.036C164.644 211.87 164.931 218.938 164.732 221.384C164.725 221.472 164.79 221.549 164.877 221.556C164.882 221.557 164.886 221.557 164.891 221.557Z" fill="#0B122D"/>
<g style="mix-blend-mode:overlay" opacity="0.6">
<path d="M166.608 145.277C166.608 145.277 165.389 148.339 162.689 149.573L166.359 153.727L168.937 148.023L166.608 145.277Z" fill="white"/>
</g>
<g style="mix-blend-mode:overlay" opacity="0.6">
<path d="M153.634 141.756C155.294 145.617 158.633 148.499 162.688 149.573C161.078 151.122 160.666 153.727 160.666 153.727L152.209 147.179L153.634 141.756Z" fill="white"/>
</g>
<g style="mix-blend-mode:overlay" opacity="0.6">
<path d="M138.352 178.758C140.488 176.029 142.647 173.121 144.835 170.098C145.007 172.482 145.405 180.672 143.52 188.708C140.675 200.836 145.222 208.899 149.718 213.652C153.536 217.688 161.402 218.652 167.057 221.437C156.25 222.032 136.315 218.652 136.315 218.652C136.315 218.652 136.238 213.514 138.17 205.767C139.858 198.998 138.678 182.755 138.352 178.758Z" fill="#030F1C"/>
</g>
<path d="M180.856 174.854C180.934 174.853 181 174.796 181.012 174.718C182.042 167.686 181.522 162.599 181.516 162.548C181.506 162.461 181.429 162.398 181.342 162.407C181.3 162.411 181.262 162.432 181.235 162.464C181.209 162.497 181.197 162.539 181.201 162.581C181.207 162.631 181.722 167.681 180.698 174.671C180.685 174.758 180.745 174.839 180.832 174.852C180.84 174.853 180.848 174.854 180.856 174.854Z" fill="#0B122D"/>
<path d="M176.77 212.896C176.798 212.896 176.825 212.888 176.849 212.874C179.608 211.276 180.553 207.853 180.592 207.708C180.615 207.624 180.565 207.537 180.481 207.514C180.396 207.491 180.309 207.54 180.286 207.625C180.277 207.659 179.334 211.067 176.689 212.599C176.627 212.635 176.597 212.709 176.616 212.778C176.635 212.848 176.698 212.896 176.77 212.896Z" fill="#0B122D"/>
<g style="mix-blend-mode:overlay" opacity="0.6">
<path d="M160.666 153.727L147.04 148.339L152.209 147.178L160.666 153.727Z" fill="#030F1C"/>
</g>
<g style="mix-blend-mode:overlay" opacity="0.6">
<ellipse rx="0.493336" ry="0.491488" transform="matrix(-0.707039 -0.707174 -0.70571 0.708501 164.08 164.431)" fill="#030F1C"/>
</g>
<g style="mix-blend-mode:overlay" opacity="0.6">
<ellipse rx="0.493335" ry="0.491487" transform="matrix(-0.707037 -0.707176 -0.705708 0.708503 163.771 174.202)" fill="#030F1C"/>
</g>
<g style="mix-blend-mode:overlay" opacity="0.6">
<ellipse rx="0.493337" ry="0.491489" transform="matrix(-0.707037 -0.707176 -0.705708 0.708503 162.997 184.938)" fill="#030F1C"/>
</g>
<g style="mix-blend-mode:overlay" opacity="0.6">
<ellipse rx="0.493336" ry="0.491488" transform="matrix(-0.707039 -0.707174 -0.70571 0.708501 162.859 194.965)" fill="#030F1C"/>
</g>
<g style="mix-blend-mode:overlay" opacity="0.6">
<ellipse rx="0.493336" ry="0.491488" transform="matrix(-0.707039 -0.707174 -0.70571 0.708501 163.403 209.082)" fill="#030F1C"/>
</g>
<path d="M162.259 154.273L161.03 152.355C161.03 152.355 161.697 150.4 162.689 149.573L165.535 152.795L165.015 154.273L170.527 201.681L166.235 206.61L161.049 201.441L162.259 154.273Z" fill="#E37171"/>
<g style="mix-blend-mode:overlay" opacity="0.6">
<path d="M149.579 176.613L153.222 178.303L156.852 176.613L156.821 168.336H149.548L149.579 176.613Z" fill="white"/>
</g>
<g style="mix-blend-mode:overlay" opacity="0.6">
<path d="M169.533 169.218H177.438L177.434 168.041H169.528L169.533 169.218Z" fill="white"/>
</g>
<path d="M120.43 182.151C120.473 182.151 120.514 182.133 120.544 182.103C122.515 180.065 122.225 177.356 122.211 177.242C122.201 177.155 122.123 177.092 122.036 177.102C121.949 177.113 121.887 177.191 121.896 177.278C121.899 177.305 122.181 179.955 120.316 181.882C120.272 181.927 120.259 181.995 120.284 182.054C120.309 182.113 120.366 182.151 120.43 182.151Z" fill="#0B122D"/>
<path d="M142.532 172.942C142.564 172.942 142.596 172.932 142.622 172.914C147.154 169.76 147.169 162.896 147.168 162.827C147.169 162.785 147.153 162.744 147.123 162.714C147.093 162.684 147.051 162.668 147.009 162.67C146.922 162.67 146.851 162.742 146.851 162.829C146.852 162.897 146.835 169.596 142.441 172.653C142.384 172.693 142.36 172.765 142.38 172.831C142.401 172.897 142.462 172.942 142.532 172.942Z" fill="#0B122D"/>
<g style="mix-blend-mode:overlay" opacity="0.60001">
<path d="M184.096 158.577C182.739 157.094 180.187 154.105 176.446 153.207C174.005 152.594 171.624 151.763 169.33 150.725L170.354 148.675C170.354 148.675 173.118 149.862 177.785 152.345C183.038 155.14 183.618 158.027 184.096 158.577Z" fill="white"/>
</g>
<path fill-rule="evenodd" clip-rule="evenodd" d="M83.9517 139.848C83.6617 139.463 82.5095 139.348 82.5095 139.348C82.5095 139.348 83.3831 142.481 83.17 145.221C83.0219 147.124 83.6596 148.251 84.254 149.301C84.5154 149.763 84.7683 150.21 84.9424 150.702C85.5125 152.311 86.8296 154.201 90.4315 154.712C92.0981 154.949 94.1254 156.746 96.1144 159.084C98.798 158.602 100.261 157.201 101.039 156.003L98.7557 153.381C98.7557 153.381 98.5159 152.031 96.7994 150.43C95.4715 149.191 92.4235 148.904 91.1112 148.838C90.6928 148.817 90.2861 148.692 89.9281 148.474L87.946 147.265C87.6715 147.097 87.4957 146.806 87.4751 146.485C87.3782 145.351 87.4054 144.21 87.556 143.083C87.8335 141.664 86.4177 141.386 86.4177 141.386L85.6642 147.214C85.6642 147.214 85.2897 142.743 85.3264 141.245C85.3676 140.867 85.2367 140.49 84.9702 140.219C84.7037 139.948 84.3297 139.812 83.9517 139.848ZM228.679 151.321C227.367 151.387 224.319 151.674 222.991 152.913C221.275 154.514 221.035 155.864 221.035 155.864L218.624 158.632C219.705 160.246 221.247 161.718 223.122 162.233C225.285 159.577 227.537 157.454 229.359 157.195C232.961 156.684 234.278 154.794 234.848 153.185C235.022 152.693 235.275 152.246 235.536 151.784C236.131 150.734 236.769 149.607 236.621 147.704C236.407 144.964 237.281 141.831 237.281 141.831C237.281 141.831 236.129 141.946 235.839 142.331C235.461 142.295 235.087 142.431 234.82 142.702C234.554 142.973 234.423 143.35 234.464 143.728C234.501 145.226 234.126 149.697 234.126 149.697L233.373 143.869C233.373 143.869 231.957 144.147 232.235 145.566C232.385 146.693 232.412 147.834 232.315 148.968C232.295 149.289 232.119 149.58 231.844 149.748L229.862 150.957C229.504 151.175 229.098 151.3 228.679 151.321Z" fill="#F7B17D"/>
<path d="M83.7521 140.22C83.7527 140.177 83.7711 140.137 83.8028 140.108C83.8345 140.08 83.8766 140.066 83.9189 140.07C83.9609 140.072 84.0002 140.091 84.0283 140.122C84.0563 140.154 84.0708 140.195 84.0685 140.237C84.066 140.287 83.8044 145.235 84.1471 146.377C84.1592 146.417 84.1548 146.461 84.1349 146.498C84.115 146.535 84.0812 146.563 84.0409 146.575C84.0261 146.579 84.0108 146.581 83.9954 146.581C83.9254 146.581 83.8637 146.535 83.8437 146.468C83.485 145.273 83.741 140.426 83.7521 140.22Z" fill="#0B122D"/>
<path d="M85.7247 148.281C85.8072 148.252 85.8976 148.296 85.9271 148.378C85.9327 148.394 86.5103 150.013 87.1003 150.466C87.1699 150.519 87.1832 150.619 87.13 150.688C87.0769 150.758 86.9773 150.771 86.9078 150.718C86.2432 150.208 85.6529 148.554 85.6281 148.484C85.5991 148.401 85.6422 148.311 85.7247 148.281Z" fill="#0B122D"/>
<path d="M87.8852 147.551C87.9124 147.583 90.6213 150.774 94.1318 150.953C94.2175 150.958 94.2841 151.03 94.2819 151.116C94.2797 151.202 94.2096 151.271 94.1238 151.271L94.1157 151.27C90.4646 151.084 87.7558 147.891 87.6422 147.755C87.5864 147.688 87.5953 147.588 87.6623 147.532C87.7292 147.475 87.8288 147.484 87.8852 147.551L87.8852 147.551Z" fill="#0B122D"/>
<path d="M235.722 142.72C235.72 142.678 235.734 142.637 235.762 142.606C235.79 142.574 235.829 142.555 235.871 142.553C235.914 142.549 235.955 142.563 235.987 142.592C236.019 142.62 236.037 142.66 236.038 142.703C236.049 142.909 236.306 147.756 235.947 148.952C235.931 149.006 235.887 149.048 235.831 149.061C235.776 149.075 235.718 149.057 235.679 149.015C235.64 148.974 235.626 148.914 235.643 148.86C235.986 147.718 235.724 142.77 235.722 142.72Z" fill="#0B122D"/>
<path d="M233.863 150.861C233.892 150.778 233.983 150.735 234.066 150.764C234.148 150.793 234.191 150.884 234.162 150.967C234.137 151.037 233.547 152.691 232.883 153.201C232.838 153.236 232.778 153.244 232.725 153.222C232.673 153.2 232.636 153.152 232.629 153.095C232.621 153.039 232.645 152.983 232.69 152.949C233.28 152.496 233.858 150.877 233.863 150.861Z" fill="#0B122D"/>
<path d="M225.659 153.436C229.169 153.257 231.878 150.066 231.905 150.034C231.962 149.967 232.061 149.958 232.128 150.014C232.195 150.071 232.204 150.171 232.148 150.238C232.035 150.374 229.326 153.567 225.675 153.753L225.667 153.754C225.581 153.754 225.511 153.685 225.508 153.599C225.506 153.513 225.573 153.441 225.659 153.436L225.659 153.436Z" fill="#0B122D"/>
<path fill-rule="evenodd" clip-rule="evenodd" d="M78.005 233.41C78.6134 231.44 90.4807 226.203 92.3577 237.485C93.1605 242.311 89.8236 260.297 88.2788 268.624C87.8141 271.128 87.5115 272.759 87.5326 272.895C88.8168 281.193 86.9837 291.828 85.2944 301.629C84.5809 305.769 83.8931 309.76 83.4765 313.363C83.1968 315.783 82.847 321.702 82.8744 322.587C82.8848 322.924 83.0804 323.525 83.3152 324.245C83.9037 326.05 84.738 328.609 83.5142 329.667C80.8483 330.546 78.8021 332.96 76.8561 335.255C73.7196 338.955 70.8433 342.348 66.052 338.515C66.052 338.056 65.9033 337.723 65.7799 337.445C65.5723 336.98 65.4357 336.673 66.1942 336.197C71.6392 332.777 72.6377 329.589 73.2656 327.585C73.3955 327.17 73.5095 326.806 73.6437 326.501C74.8598 323.739 75.6407 317.176 75.6375 314.247C75.6243 302.407 73.7703 267.731 73.7703 267.731C73.7703 267.731 76.0848 239.628 78.005 233.41ZM115.032 324.705C115.032 324.705 118.523 335.771 118.611 336.062C118.669 336.248 118.655 336.45 118.572 336.627C118.507 336.651 118.443 336.676 118.381 336.702C118.312 336.731 118.245 336.763 118.18 336.799C115.477 337.432 110.064 337.109 108.537 336.785C108.431 336.757 108.326 336.722 108.224 336.682C108.186 336.667 108.149 336.651 108.112 336.634C108.057 336.61 108.005 336.583 107.953 336.556C107.844 336.499 107.739 336.435 107.639 336.364L107.639 336.364C107.616 336.239 107.603 336.112 107.598 335.984C107.587 335.612 108.791 325.03 108.791 325.03C108.791 325.03 108.316 317.423 106.832 307.62C106.741 307.016 106.435 305.177 105.995 302.526C104.699 294.732 102.237 279.924 100.634 268.902C100.558 268.377 100.489 267.517 100.404 266.464C100.178 263.657 99.8411 259.474 98.9619 256.589C97.5064 251.813 96.6718 246.097 96.2409 242.351C96.2947 241 96.3543 239.542 96.4178 238.046C99.1087 236.691 110.81 231.263 114.966 237.146C114.967 238.163 114.929 239.702 114.883 241.544C114.77 246.144 114.611 252.631 114.894 257.591C114.972 258.948 115.141 260.421 115.323 262.015C115.639 264.774 115.997 267.897 115.997 271.414C115.997 282.063 115.54 289.411 115.175 295.288C114.967 298.65 114.788 301.53 114.741 304.272C114.456 321.138 115.032 324.705 115.032 324.705Z" fill="#F7B17D"/>
<path fill-rule="evenodd" clip-rule="evenodd" d="M76.1891 333.275C76.4016 333.004 76.6242 332.72 76.86 332.423C79.4214 329.195 85.731 327.578 85.7507 327.573L85.7508 327.573C85.5738 328.185 84.6449 341.817 84.6449 341.817H83.0968V333.297C83.0968 330.588 81.7698 331.331 81.7698 331.331C76.481 333.663 75.1443 338.418 74.8066 340.633C74.7056 341.312 74.1162 341.816 73.4211 341.817H66.9116C66.325 341.817 65.8013 341.454 65.6013 340.91L64.2979 337.36H70.1366C72.9885 337.36 74.0896 335.955 76.1891 333.275ZM106.98 338.487V336.369L119.263 336.369L119.249 338.487C119.249 340.282 118.593 341.738 117.785 341.738H108.443C107.635 341.738 106.98 340.282 106.98 338.487Z" fill="#727272"/>
<path fill-rule="evenodd" clip-rule="evenodd" d="M80.6208 324.951C80.8862 323.728 82.744 322.155 82.744 322.155L83.6287 323.116C81.0189 325.607 81.3489 329.199 81.3489 329.199L78.94 330.544L79.4265 326.481L72.8876 325.303C72.3367 328.481 70.2726 333.505 70.2726 333.505L70.2649 333.501C71.5375 334.231 72.7698 335.027 73.9567 335.886C71.9813 338.738 64.2989 337.361 64.2989 337.361C63.6797 334.389 69.6511 333.21 69.6511 333.21C71.5973 330.85 72.3936 324.296 72.3936 324.296H73.0128C73.0123 324.304 73.0115 324.313 73.0107 324.322C73.01 324.33 73.0093 324.338 73.0088 324.345L80.6208 324.951ZM113.124 326.596L113.298 331.625C116.636 332.023 119.265 336.369 119.265 336.369C119.265 336.369 117.721 338.199 113.124 338.199C107.696 338.199 106.982 336.369 106.982 336.369C107.296 334.731 109.535 332.318 111.808 331.732C111.741 329.993 111.629 327.564 111.489 326.596C111.489 326.596 109.445 326.398 108.702 325.833C108.702 325.833 108.058 324.845 108.732 324.168C108.732 324.168 111.888 325.946 114.966 324.099C115.806 324.478 115.352 325.714 115.352 325.714C115.352 325.714 114.713 326.222 113.124 326.596Z" fill="#727272"/>
<path d="M116.613 243.544C117.548 238.597 118.839 230.565 117.7 223.135C116.254 213.693 113.578 211.401 111.925 202.429C101.929 198.158 88.629 197.877 78.2094 203.181C74.5466 230.847 73.9465 236.85 73.8432 240.717C73.7663 243.596 70.5331 297.344 68.2306 309.288C67.6362 312.372 85.7181 311.595 87.2693 309.569C89.2933 306.925 91.166 277.251 92.4673 265.026C93.7785 259.23 95.2494 243.486 95.2494 243.486C95.2494 243.486 95.7014 248.815 97.6828 260.849C100.522 278.097 103.748 310.3 103.748 310.3C104.242 310.571 115.347 311.138 117.149 309.358C119.822 306.717 115.14 251.343 116.613 243.544Z" fill="#727272"/>
<path d="M113.361 304.037C113.278 304.037 113.208 303.973 113.201 303.891C113.167 303.474 109.708 262.039 110.288 252.651C110.866 243.281 110.293 217.645 110.288 217.387C110.286 217.3 110.356 217.227 110.444 217.225H110.448C110.535 217.225 110.606 217.294 110.608 217.38C110.614 217.638 111.187 243.288 110.608 252.67C110.03 262.035 113.486 303.448 113.521 303.865C113.525 303.907 113.511 303.949 113.484 303.981C113.456 304.013 113.417 304.033 113.375 304.036C113.37 304.036 113.366 304.037 113.361 304.037Z" fill="#0B122D"/>
<path d="M103.221 305.367C103.136 305.367 103.066 305.301 103.061 305.218C103.056 305.134 103.118 305.061 103.202 305.051C103.34 305.035 117.002 303.433 117.93 303.298C117.987 303.289 118.044 303.311 118.08 303.356C118.115 303.4 118.124 303.46 118.103 303.512C118.082 303.565 118.034 303.603 117.977 303.611C117.045 303.748 103.378 305.349 103.24 305.366C103.234 305.366 103.227 305.367 103.221 305.367Z" fill="#0B122D"/>
<path d="M88.384 304.037H69.1558C69.0672 304.037 68.9954 303.966 68.9954 303.878C68.9954 303.791 69.0672 303.72 69.1558 303.72H88.384C88.4726 303.72 88.5444 303.791 88.5444 303.878C88.5444 303.966 88.4726 304.037 88.384 304.037Z" fill="#0B122D"/>
<path d="M81.9843 303.613C81.9791 303.613 81.9738 303.613 81.9683 303.612C81.8802 303.604 81.8159 303.526 81.8245 303.439C81.867 303.014 86.0943 260.781 88.3917 246.671C88.3978 246.629 88.4209 246.591 88.4555 246.566C88.4902 246.542 88.5335 246.532 88.5756 246.539C88.6176 246.546 88.6552 246.569 88.6801 246.603C88.705 246.637 88.7152 246.679 88.7084 246.721C86.4126 260.822 82.1862 303.045 82.1438 303.47C82.1357 303.551 82.0668 303.613 81.9843 303.613Z" fill="#0B122D"/>
<path d="M114.704 218.141C103.473 218.141 101.93 206.747 101.915 206.626C101.905 206.539 101.967 206.461 102.055 206.45C102.143 206.44 102.222 206.501 102.233 206.588C102.249 206.711 103.909 218.929 116.381 217.742C116.469 217.734 116.547 217.798 116.556 217.885C116.564 217.972 116.5 218.049 116.412 218.058C115.819 218.114 115.25 218.142 114.704 218.141Z" fill="#0B122D"/>
<path d="M115.144 213.619C112.624 213.619 110.627 212.853 109.208 211.342C106.539 208.5 106.842 204.079 106.856 203.892C106.859 203.85 106.879 203.811 106.911 203.784C106.944 203.756 106.986 203.743 107.028 203.746C107.117 203.753 107.183 203.829 107.176 203.916C107.173 203.961 106.871 208.389 109.444 211.128C110.801 212.57 112.718 213.302 115.144 213.302C115.232 213.302 115.304 213.373 115.304 213.461C115.304 213.548 115.232 213.619 115.144 213.619Z" fill="#0B122D"/>
<path d="M76.6275 214.316C76.5537 214.316 76.4893 214.266 76.4717 214.195C76.4541 214.125 76.4877 214.051 76.5531 214.017C76.6103 213.988 82.2776 210.995 81.9781 205.622C81.9741 205.536 82.0417 205.462 82.1295 205.457C82.2174 205.452 82.2927 205.518 82.2983 205.605C82.6094 211.183 76.7606 214.268 76.7016 214.298C76.6787 214.31 76.6533 214.316 76.6275 214.316Z" fill="#0B122D"/>
<g style="mix-blend-mode:overlay" opacity="0.6">
<path d="M73.8428 240.717C73.8428 240.717 76.8649 241.982 77.0071 246.197C77.1494 250.413 76.1187 274.581 75.425 284.558C74.7312 294.534 69.6321 298.747 69.6321 298.747C72.2323 271.415 73.8428 240.717 73.8428 240.717Z" fill="white"/>
</g>
<g style="mix-blend-mode:overlay" opacity="0.6">
<path d="M96.8127 255.368C96.8127 255.368 99.9095 257.438 100.905 262.356C101.901 267.274 106.689 293.27 105.362 297.485C104.035 301.7 102.833 301.552 102.833 301.552C100.821 279.548 96.8127 255.368 96.8127 255.368Z" fill="white"/>
</g>
<g style="mix-blend-mode:overlay" opacity="0.6">
<path d="M95.2489 243.486L90.6022 224.109C90.6022 224.109 86.7213 232.798 87.1414 239.541C87.5615 246.284 90.7692 251.712 93.1453 261.307L95.2489 243.486Z" fill="#030F1C"/>
</g>
<g style="mix-blend-mode:overlay" opacity="0.6">
<path d="M78.2102 203.181L77.5815 208.006C77.5815 208.006 90.4463 215.264 114.324 211.523C114.324 211.523 112.254 205.408 111.926 202.428L78.2102 203.181Z" fill="#030F1C"/>
</g>
<path d="M104.038 131.068C103.289 127.28 102.089 124.459 97.215 127.844C97.215 127.844 97.1721 124.092 95.4475 122.611C93.723 121.129 82.8275 114.528 82.4106 125.377C82.4106 125.377 82.2107 134.092 82.2107 136.268C82.2107 138.444 85.3679 145.816 87.9923 145.816C88.8091 145.796 89.6168 145.64 90.3819 145.354C90.0199 148.437 89.0611 151.421 87.5587 154.14L103.68 151.001C103.68 151.001 100.788 146.512 100.281 137.692C102.547 135.664 104.55 133.654 104.038 131.068Z" fill="#F7B17D"/>
<path d="M108.624 127.466C107.114 121.064 104.962 111.877 91.9492 112.772C86.2601 113.163 82.9657 115.613 81.3606 118.378L81.3589 118.375C81.3589 118.375 78.5163 121.439 80.1277 132.719C81.204 140.254 80.0077 142.427 76.9692 148.399C79.4791 151.388 84.5056 152.151 88.5075 152.234C89.4637 150.044 90.0952 147.726 90.3821 145.354C89.6169 145.64 88.8092 145.796 87.9924 145.816C85.3681 145.816 82.2108 138.444 82.2108 136.268C82.2108 134.255 82.3819 126.647 82.4074 125.522C83.1967 124.525 84.31 123.023 84.7733 121.94C84.7733 121.94 85.7932 126.271 91.9492 127.877C95.2233 128.731 95.6194 131.753 96.6891 131.483C97.1184 131.375 97.2086 128.321 99.9077 127.877C102.607 127.433 105.183 131.411 103.454 133.84C102.524 135.187 101.447 136.427 100.242 137.537C100.242 137.537 100.787 145.652 103.267 150.256C103.267 150.256 112.663 150.256 119 141.305C113.261 138.788 109.557 131.418 108.624 127.466Z" fill="#352316"/>
<g style="mix-blend-mode:overlay" opacity="0.6">
<path d="M90.3823 145.354C90.3823 145.354 94.0543 143.752 96.6608 141.301C96.746 143.922 95.8411 146.479 94.1254 148.466C92.775 149.983 90.6611 150.424 89.1775 150.524C89.7768 148.853 90.1811 147.118 90.3823 145.354Z" fill="#030F1C"/>
</g>
<path d="M111.271 143.911C111.25 143.911 111.23 143.907 111.21 143.899C109.535 143.206 108.21 141.424 107.38 138.745C106.997 137.489 106.744 136.198 106.624 134.891C106.619 134.803 106.685 134.728 106.772 134.722C106.86 134.716 106.936 134.781 106.942 134.869C106.947 134.94 107.482 142.014 111.332 143.605C111.402 143.634 111.442 143.709 111.427 143.783C111.412 143.857 111.347 143.911 111.271 143.911Z" fill="white"/>
<path d="M95.4473 122.77C95.3807 122.77 95.3212 122.728 95.2981 122.666C94.1375 119.539 89.7363 118.092 89.692 118.078C89.6378 118.061 89.5971 118.016 89.5851 117.96C89.5731 117.905 89.5917 117.847 89.6339 117.809C89.6761 117.771 89.7354 117.758 89.7896 117.776C89.9764 117.836 94.3818 119.283 95.5965 122.556C95.6146 122.604 95.6077 122.659 95.5779 122.701C95.5482 122.744 95.4994 122.77 95.4473 122.77Z" fill="white"/>
<path d="M88.4869 126.657C88.7028 126.415 88.9997 126.226 89.8902 126.28C90.7808 126.334 92.1301 127.168 91.8332 127.384C91.5364 127.599 90.6458 126.872 89.9442 127.115C89.2426 127.357 88.8397 127.556 88.6039 127.424C88.307 127.258 88.3832 126.773 88.4869 126.657Z" fill="#161B36"/>
<path d="M84.627 126.41C84.3443 126.25 84.0023 126.167 83.1769 126.505C82.3515 126.843 81.3446 128.067 81.6952 128.176C82.0459 128.284 82.6535 127.309 83.3959 127.312C84.1384 127.316 84.5842 127.374 84.7647 127.174C84.9919 126.921 84.763 126.487 84.627 126.41Z" fill="#161B36"/>
<g style="mix-blend-mode:overlay" opacity="0.6">
<path d="M86.1644 137.319C85.8049 137.324 85.4506 137.234 85.1382 137.056C84.9143 136.937 84.755 136.725 84.7037 136.477C84.6291 136.01 85.0492 135.094 85.486 134.197C85.5567 134.052 85.6144 133.933 85.6479 133.856C86.2125 132.563 85.9557 130.101 85.9531 130.076C85.947 130.02 85.9716 129.965 86.0175 129.931C86.0635 129.898 86.1238 129.891 86.1758 129.914C86.2278 129.937 86.2635 129.986 86.2696 130.042C86.2808 130.147 86.5377 132.613 85.9399 133.983C85.9051 134.062 85.8455 134.185 85.7723 134.335C85.5063 134.882 84.9529 136.019 85.018 136.427C85.0584 136.582 85.1627 136.712 85.3049 136.786C85.7275 137.013 86.2236 137.063 86.6834 136.925C86.7376 136.907 86.7969 136.92 86.839 136.958C86.8811 136.996 86.8997 137.054 86.8877 137.11C86.8756 137.165 86.8349 137.21 86.7807 137.227C86.5812 137.289 86.3733 137.32 86.1644 137.319Z" fill="#030F1C"/>
</g>
<path d="M85.5514 140.442C85.5239 140.346 85.5358 140.244 85.5844 140.157C85.633 140.07 85.7144 140.006 85.8104 139.979C86.2879 139.841 87.1683 139.582 87.8388 139.354C88.5379 139.078 89.2178 138.755 89.874 138.388C89.9883 138.326 90.1267 138.328 90.24 138.392C90.3533 138.456 90.4255 138.573 90.4312 138.703C90.4767 139.7 90.3565 141.646 88.7854 142.043C86.8746 142.526 85.8743 141.494 85.5514 140.442Z" fill="#161B36"/>
<path d="M86.3826 141.684C86.3826 141.684 88.0267 139.393 90.3753 139.917C90.3753 139.917 90.3789 141.706 88.8648 142.109C87.2346 142.543 86.3826 141.684 86.3826 141.684Z" fill="#E55151"/>
<path d="M90.6704 129.757C90.3651 129.689 90.0539 129.652 89.7412 129.645C89.4059 129.645 89.134 130.091 89.134 130.641C89.134 131.192 89.4059 131.638 89.7412 131.638C90.0765 131.638 90.3484 131.192 90.3484 130.641C90.3528 130.4 90.2937 130.162 90.177 129.95C90.4209 129.958 90.6629 129.995 90.8981 130.059C91.1257 130.125 91.1414 129.867 90.6704 129.757Z" fill="#161B36"/>
<path d="M84.6021 130.171C84.3201 130.108 84.0329 130.072 83.7442 130.061C83.7404 130.061 83.7369 130.059 83.7332 130.059C83.7305 130.059 83.7281 130.061 83.7255 130.061C83.6944 130.06 83.673 130.059 83.673 130.059L83.6701 130.07C83.3648 130.122 83.126 130.541 83.126 131.056C83.126 131.606 83.3978 132.052 83.7332 132.052C84.0685 132.052 84.3404 131.606 84.3404 131.056C84.3447 130.815 84.2861 130.578 84.1703 130.367C84.3934 130.378 84.6145 130.414 84.8298 130.473C85.0574 130.539 85.0731 130.281 84.6021 130.171Z" fill="#161B36"/>
<path d="M101.843 130.231C101.076 129.972 100.335 130.667 99.7738 131.454L99.7723 131.456C99.386 132.013 99.0553 132.606 98.7849 133.228C98.7629 133.28 98.7705 133.34 98.8048 133.385C98.8392 133.43 98.8952 133.454 98.9516 133.447C99.008 133.44 99.0564 133.403 99.0784 133.351C99.3305 132.767 99.6391 132.208 99.9998 131.684C100.329 131.627 100.667 131.689 100.954 131.858C101.239 132.07 101.421 132.392 101.455 132.745C101.468 132.821 101.534 132.878 101.612 132.878C101.621 132.878 101.63 132.877 101.638 132.876C101.68 132.869 101.717 132.846 101.742 132.811C101.766 132.777 101.776 132.735 101.769 132.693C101.723 132.252 101.49 131.852 101.129 131.593C100.867 131.427 100.563 131.342 100.253 131.349C100.717 130.774 101.247 130.364 101.741 130.532C101.795 130.551 101.855 130.539 101.898 130.501C101.941 130.464 101.96 130.406 101.949 130.351C101.938 130.295 101.898 130.249 101.843 130.231L101.843 130.231Z" fill="#0B122D"/>
<path d="M90.121 145.604C90.0457 145.604 89.9808 145.552 89.9652 145.479C89.9495 145.405 89.9875 145.331 90.0563 145.3C90.1099 145.277 95.4438 142.896 97.6954 140.018C97.7303 139.973 97.7866 139.95 97.8431 139.958C97.8995 139.966 97.9474 140.003 97.9688 140.056C97.9901 140.109 97.9815 140.169 97.9463 140.214C95.6455 143.155 90.4071 145.493 90.1853 145.591C90.1651 145.6 90.1431 145.604 90.121 145.604Z" fill="#0B122D"/>
<path fill-rule="evenodd" clip-rule="evenodd" d="M86.4043 167.428C86.4736 166.713 86.5341 166.089 86.5804 165.595C87.1768 160.234 87.8277 155.545 88.1778 153.126C88.5036 156.583 94.2676 158.144 102.916 150.317C102.895 150.449 102.872 150.583 102.85 150.717C102.844 150.755 102.837 150.792 102.831 150.83C102.731 151.421 102.541 152.501 102.254 153.948C100.821 161.038 98.5916 168.477 98.3386 169.314C97.9285 170.61 97.4902 171.925 97.0195 173.244C95.934 176.287 93.8054 182.511 90.4331 192.632C88.4423 187.31 87.0128 185.026 86.189 183.71C85.6929 182.917 85.4164 182.475 85.3692 181.932C85.1941 179.917 85.9714 171.895 86.4043 167.428ZM111.243 152.51C109.965 152.036 106.856 151.258 104.82 150.767L104.82 150.767C106.857 151.258 109.966 152.036 111.244 152.509C111.28 152.525 111.311 152.551 111.334 152.583C111.31 152.551 111.279 152.526 111.243 152.51ZM77.2399 183.957L77.24 183.957C77.2417 183.962 77.2434 183.967 77.2451 183.971L77.2135 183.892L77.2329 183.938C77.2353 183.943 77.2376 183.95 77.2399 183.957ZM75.5173 175.858L75.5192 175.836L75.5182 175.846L75.517 175.857C75.5151 175.878 75.5138 175.898 75.5125 175.919C75.5114 175.937 75.5103 175.954 75.5088 175.973C75.5104 175.955 75.5115 175.937 75.5127 175.92L75.5127 175.92C75.514 175.899 75.5153 175.879 75.5173 175.858Z" fill="white"/>
<g style="mix-blend-mode:overlay" opacity="0.6">
<path d="M85.0342 184.762C85.0342 184.762 91.2412 185.474 97.2693 174.672C97.2693 174.672 97.0573 176.151 95.7986 179.577C94.54 183.004 92.0657 188.502 90.4671 192.811C90.4671 192.811 85.8917 188.613 85.0342 184.762Z" fill="#030F1C"/>
</g>
<path fill-rule="evenodd" clip-rule="evenodd" d="M121.156 166.813C122.417 170.218 123.998 174.488 126.158 179.875C128.356 185.355 127.819 189.844 121.182 191.176L121.068 191.199C119.094 191.594 114.947 192.425 110.521 193.153C110.62 193.715 110.716 194.257 110.808 194.779C111.599 199.242 112.128 202.226 111.837 204.042C107.467 209.19 80.8788 209.56 77.2558 205.279C76.8974 204.318 77.0286 203.438 77.2363 202.047C77.3946 200.986 77.5973 199.628 77.6614 197.71C77.8997 190.576 77.6499 184.929 77.2333 183.938C77.109 183.641 76.9878 183.36 76.8708 183.088C75.8893 180.805 75.2096 179.224 75.517 175.858C75.8014 171.933 76.3217 168.029 77.0749 164.167C76.5353 164.092 75.9875 164.015 75.4228 163.929C69.9041 163.108 64.4497 161.903 59.0994 160.323C57.2689 159.775 55.4204 159.168 53.5732 158.491C52.8658 158.244 52.1882 157.919 51.5531 157.522C47.5203 154.911 49.7318 150.224 57.8483 139.895C58.6092 138.926 61.4944 135.374 63.2771 133.18C63.8465 132.479 64.3035 131.916 64.5428 131.62C68.4347 131.985 70.9817 135.642 70.9817 135.642L62.7278 150.152C62.5975 150.381 62.595 150.661 62.7211 150.893C62.8472 151.124 63.0841 151.274 63.3476 151.29C64.7744 151.371 85.4502 151.388 87.3266 151.389C87.6295 150.985 88.1343 150.474 88.7548 150.474L88.4359 151.386C88.4359 151.386 87.4504 157.778 86.5807 165.595C86.5343 166.089 86.4739 166.713 86.4046 167.428C85.9717 171.895 85.1944 179.917 85.3695 181.932C85.4166 182.475 85.6931 182.917 86.1892 183.709C87.0131 185.026 88.4426 187.31 90.4334 192.632C93.8056 182.511 95.9342 176.287 97.0197 173.244C97.4904 171.925 97.9287 170.61 98.3388 169.314C98.5918 168.477 100.821 161.038 102.254 153.947C102.541 152.501 102.732 151.421 102.831 150.83C102.838 150.792 102.844 150.755 102.85 150.717C102.873 150.583 102.895 150.449 102.916 150.317L102.641 149.754C102.644 149.76 102.684 149.761 102.751 149.761C103.116 149.762 104.288 149.765 104.82 150.767C106.857 151.258 109.965 152.036 111.244 152.509C111.318 152.551 111.377 152.617 111.41 152.696C116.466 154.149 117.362 156.567 121.156 166.813ZM110.171 184.888C112.056 184.21 114.438 183.327 115.691 182.861C115.915 182.778 116.093 182.607 116.185 182.388C116.277 182.168 116.274 181.921 116.176 181.704C115.463 180.119 113.841 176.52 112.246 173.032C112.083 175.092 111.772 177.137 111.313 179.151C110.801 181.035 110.42 182.952 110.171 184.888Z" fill="#EDA1A1"/>
<g style="mix-blend-mode:overlay" opacity="0.6">
<path d="M78.334 158.589C76.305 159.271 73.3411 160.213 71.5086 160.545C68.5106 161.089 66.1365 158.82 62.36 158.847C60.4038 158.861 59.0996 160.323 59.0996 160.323C64.4499 161.903 69.9043 163.108 75.423 163.929C75.9877 164.014 76.5354 164.092 77.0751 164.166C77.4099 162.465 77.822 160.606 78.334 158.589Z" fill="#030F1C"/>
</g>
<path d="M60.0553 151.781C59.3603 151.785 58.6731 151.635 58.0436 151.341C57.9803 151.311 57.9532 151.235 57.9831 151.172C58.013 151.108 58.0886 151.081 58.1522 151.111C60.102 152.026 62.042 151.125 62.0616 151.116C62.1028 151.096 62.1512 151.1 62.1888 151.126C62.2264 151.151 62.2473 151.195 62.2438 151.241C62.2403 151.286 62.2127 151.326 62.1716 151.346C61.5036 151.634 60.7833 151.783 60.0553 151.781Z" fill="#0B122D"/>
<g style="mix-blend-mode:overlay" opacity="0.6">
<path d="M58.44 142.914C57.7096 144.371 51.1817 152.422 52.0632 155.128C52.7345 157.188 55.2367 156.977 55.0129 159.005C53.8045 158.65 52.6429 158.152 51.5531 157.522C47.5203 154.911 49.7318 150.224 57.8483 139.895C58.2003 140.164 58.9502 141.896 58.44 142.914Z" fill="white"/>
</g>
<g style="mix-blend-mode:overlay" opacity="0.6">
<path d="M76.3433 182.103C76.3433 182.103 79.044 184.588 81.8239 184.64C83.7225 184.675 84.1266 185.702 82.1687 186.122C81.26 186.316 79.5718 186.159 77.776 186.111C77.414 184.737 76.9346 183.396 76.3433 182.103L76.3433 182.103Z" fill="#030F1C"/>
</g>
<path d="M81.8164 199.289C81.8103 199.289 81.8042 199.288 81.7982 199.288C78.8171 198.947 77.2354 196.279 77.1694 196.166C77.1253 196.09 77.1513 195.992 77.2273 195.948C77.3034 195.905 77.4008 195.93 77.4449 196.006C77.4603 196.033 79.0151 198.65 81.8343 198.972C81.9181 198.982 81.9798 199.055 81.9751 199.139C81.9703 199.223 81.9007 199.289 81.8164 199.289Z" fill="#0B122D"/>
<g style="mix-blend-mode:overlay" opacity="0.6">
<path d="M103.895 184.815C104.757 184.794 105.528 185.337 106.179 186.216C106.792 186.033 107.448 185.83 108.126 185.604C108.63 185.437 109.371 185.176 110.205 184.876C110.575 182.01 111.752 178.386 112.35 173.258C111.442 171.272 110.538 169.31 109.807 167.759C110.011 169.919 110.217 174.122 109.205 177.432C108.234 180.608 104.437 182.228 101.871 182.667C97.9497 183.338 98.4562 184.944 103.895 184.815Z" fill="#030F1C"/>
</g>
<g style="mix-blend-mode:overlay" opacity="0.6">
<path d="M108.405 193.488C108.502 194.645 108.41 195.81 108.135 196.937C106.782 201.693 101.843 205.021 98.9804 205.702C96.118 206.382 93.4565 208.222 93.4565 208.222C93.4565 208.222 108.174 208.113 111.838 204.042C112.097 200.394 111.078 197.064 110.462 193.162C109.78 193.274 109.093 193.383 108.405 193.488Z" fill="#030F1C"/>
</g>
<g style="mix-blend-mode:overlay" opacity="0.6">
<path d="M76.3701 181.932C76.3701 181.932 78.4402 183.085 81.9874 183.327C85.5345 183.57 82.2219 184.671 80.5021 184.757C78.7824 184.843 78.1341 184.85 77.5319 184.743C77.1741 183.767 76.3701 181.932 76.3701 181.932Z" fill="#030F1C"/>
</g>
<g style="mix-blend-mode:overlay" opacity="0.6">
<path d="M102.641 149.754C102.66 149.795 104.196 149.577 104.825 150.774C105.453 151.971 108.632 160.914 108.232 162.92C107.833 164.927 99.4106 165.595 99.4106 165.595C99.4106 165.595 101.373 158.923 102.916 150.317L102.641 149.754Z" fill="#030F1C"/>
</g>
<g style="mix-blend-mode:overlay" opacity="0.6">
<path d="M88.7553 150.474L88.4364 151.386C88.4364 151.386 87.4508 157.778 86.5812 165.595C86.5812 165.595 80.6814 165.825 80.8044 162.788C80.8872 160.744 87.015 151.877 87.015 151.877C87.015 151.877 87.7289 150.474 88.7553 150.474Z" fill="#030F1C"/>
</g>
<g style="mix-blend-mode:overlay" opacity="0.6">
<path d="M90.4331 192.632L91.0036 205.96C91.0036 205.96 91.6519 196.246 91.6623 194.395C91.6727 192.544 91.7111 188.805 91.7111 188.805L90.4331 192.632Z" fill="#030F1C"/>
</g>
<path d="M106.49 193.929C106.422 193.931 106.364 193.88 106.358 193.812C106.351 193.744 106.399 193.683 106.467 193.673L114.911 192.362C114.982 192.351 115.047 192.399 115.058 192.47C115.069 192.54 115.021 192.606 114.951 192.617L106.506 193.928C106.501 193.929 106.496 193.929 106.49 193.929Z" fill="#0B122D"/>
<g style="mix-blend-mode:overlay" opacity="0.6">
<path d="M118.536 184.099C115.534 185.297 106.837 189.116 105.408 186.423C109.934 185.156 115.692 182.861 115.692 182.861C115.911 182.79 116.088 182.63 116.181 182.42C116.273 182.21 116.27 181.97 116.174 181.762C115.505 180.394 114.381 177.577 112.369 173.353C113.05 173.082 114.465 173.35 114.91 174.171C115.426 175.126 118.019 180.222 119.118 182.278C119.365 182.739 119.33 183.783 118.536 184.099Z" fill="white"/>
</g>
<path d="M119.035 184.786C118.972 184.786 118.918 184.741 118.908 184.679C118.894 184.594 118.534 182.603 116.17 182.535C116.123 182.534 116.081 182.508 116.059 182.468C116.038 182.427 116.039 182.378 116.063 182.339C116.087 182.299 116.131 182.276 116.177 182.277C117.611 182.246 118.865 183.237 119.163 184.637C119.174 184.707 119.127 184.773 119.056 184.785C119.049 184.786 119.042 184.787 119.035 184.786Z" fill="#0B122D"/>
<path d="M112.059 171.315C112.032 171.315 112.007 171.307 111.985 171.292C108.286 168.729 108.274 163.151 108.274 163.095C108.275 163.024 108.333 162.967 108.404 162.967H108.405C108.439 162.967 108.472 162.981 108.496 163.005C108.52 163.03 108.533 163.063 108.533 163.097C108.533 163.151 108.546 168.595 112.133 171.08C112.179 171.112 112.199 171.17 112.182 171.224C112.165 171.278 112.115 171.315 112.059 171.315L112.059 171.315Z" fill="#0B122D"/>
<path d="M98.3815 199.436L87.5401 181.081L84.5752 176.061C84.3397 175.661 83.9097 175.416 83.4451 175.417H65.8759C65.3559 175.476 64.894 175.775 64.6278 176.225C64.5699 176.306 64.5171 176.391 64.4695 176.479C64.3954 176.611 64.3351 176.75 64.2894 176.894C64.2894 176.897 64.2863 176.897 64.2863 176.9C64.1445 177.24 64.1558 177.625 64.3174 177.956L64.2987 177.919C64.3067 177.941 64.3161 177.963 64.3267 177.984L64.336 177.997C64.3391 178 64.3391 178.003 64.3422 178.006C64.3503 178.025 64.3596 178.044 64.3702 178.062L74.0287 194.415L75.7797 197.376L78.1765 201.437C78.412 201.836 78.842 202.082 79.3066 202.081H96.8758C96.9402 202.081 97.0046 202.076 97.0683 202.066C98.0835 202.063 98.8969 200.31 98.3815 199.436Z" fill="#B5B4B4"/>
<g style="mix-blend-mode:overlay" opacity="0.6">
<path d="M64.2283 177.725C64.217 177.68 64.2082 177.634 64.2019 177.589C64.2078 177.635 64.2166 177.68 64.2283 177.725Z" fill="#030F1C"/>
<path d="M64.2973 177.919C64.3076 177.94 64.3146 177.963 64.3266 177.983L64.3419 178.007C64.3262 177.978 64.3105 177.948 64.2973 177.919Z" fill="#030F1C"/>
<path d="M64.2835 177.886C64.262 177.834 64.2438 177.781 64.2292 177.726C64.2426 177.781 64.2608 177.835 64.2835 177.886Z" fill="#030F1C"/>
<path d="M97.0681 202.066C97.4997 202.002 97.8712 201.729 98.0593 201.336C98.2474 200.943 98.2273 200.483 98.0057 200.108L86.9532 181.397L84.1994 176.733C83.9639 176.333 83.5339 176.088 83.0693 176.089H65.5001C64.9698 176.086 64.4908 176.404 64.2893 176.894C64.335 176.75 64.3953 176.611 64.4694 176.479C64.5162 176.391 64.5691 176.306 64.6277 176.225C64.8939 175.775 65.3558 175.476 65.8758 175.417H83.445C83.9095 175.416 84.3396 175.661 84.575 176.061L87.54 181.081L98.3814 199.436C98.8968 200.31 98.0833 202.063 97.0681 202.066Z" fill="#030F1C"/>
</g>
<g style="mix-blend-mode:overlay" opacity="0.6">
<path d="M65.3397 177.293H66.5556C66.635 177.293 66.7084 177.335 66.7484 177.403L67.0455 177.91C67.0859 177.979 67.0862 178.064 67.0464 178.133C67.0066 178.203 66.9328 178.245 66.8528 178.245H65.6369C65.5575 178.245 65.4841 178.203 65.4441 178.135L65.147 177.628C65.1066 177.559 65.1063 177.474 65.1461 177.404C65.1859 177.335 65.2597 177.293 65.3397 177.293V177.293Z" fill="#030F1C"/>
</g>
<g style="mix-blend-mode:overlay" opacity="0.6">
<path d="M77.3258 185.63H78.9206C79.3902 185.649 79.8292 185.867 80.1266 186.23C80.8118 187.038 80.4943 188.053 79.5567 188.053H77.9618C77.4923 188.034 77.0532 187.816 76.7558 187.453C76.0707 186.645 76.3881 185.63 77.3258 185.63Z" fill="#030F1C"/>
</g>
<path fill-rule="evenodd" clip-rule="evenodd" d="M82.5798 125.146C82.8273 124.519 82.749 123.811 82.3706 123.254C82.3706 123.254 82.49 123.144 82.669 122.982C83.1013 122.591 84.4586 120.962 83.8622 120.186C83.3315 119.496 82.7456 119.896 82.2799 120.257C82.4476 120.07 83.0012 119.19 82.1177 118.148C81.4982 117.414 80.2528 118.5 80.2528 118.5C80.2528 118.5 80.3681 117.123 79.5599 116.75C78.6752 116.345 77.7351 117.289 77.6739 117.358C77.6833 117.28 77.8302 115.981 76.6475 115.885C76.1769 115.848 75.1371 116.704 74.0273 118.047C73.8903 118.214 73.7525 118.388 73.6138 118.568C73.5831 118.609 73.5531 118.648 73.5206 118.69L73.5204 118.692C73.2707 119.022 73.0216 119.374 72.7776 119.743L72.7786 119.745C72.6238 119.979 72.4728 120.203 72.3268 120.42C71.3478 121.876 70.5888 123.004 70.3708 124.604H70.3723C70.2278 125.33 69.71 126.135 69.3511 126.694C69.3072 126.762 69.2658 126.826 69.2276 126.886L69.2276 126.886L65.1035 131.699C67.7634 132.173 69.7196 134.124 70.5461 135.093L73.7636 129.566C74.1757 129.18 74.6748 128.898 75.2189 128.744C76.7413 128.325 78.2285 127.788 79.6671 127.138C79.6671 127.138 82.1425 126.152 82.5798 125.146ZM102.916 150.317L88.436 151.386C88.2113 152.112 88.1 152.868 88.1061 153.627C88.1313 153.451 88.1555 153.283 88.1782 153.126C88.504 156.583 94.268 158.144 102.916 150.317ZM95.8205 189.318C95.9045 189.308 98.3954 188.677 101.285 187.942C101.152 189.046 101.118 191.514 103.011 193.353L97.6765 194.373C97.6746 194.377 97.6729 194.381 97.6712 194.385C97.6694 194.389 97.6675 194.394 97.6654 194.398C96.6851 194.608 95.5689 194.922 94.8835 195.354C93.7762 196.05 91.0077 196.318 90.0098 196.12C88.363 196.34 86.0814 196.616 85.6552 196.522C84.9747 196.371 85.1454 195.726 85.5045 195.486C85.659 195.383 84.967 195.255 84.399 195.151C84.2123 195.117 84.039 195.085 83.9136 195.057C83.1527 194.889 83.3434 194.167 83.7447 193.899C84.0042 193.726 83.0657 193.513 82.4768 193.382C81.7158 193.214 81.9065 192.492 82.3078 192.225C82.3973 192.165 82.5732 192.085 82.7636 191.997C83.2239 191.787 83.7684 191.537 83.378 191.451C82.6174 191.283 82.8084 190.561 83.2095 190.293C83.5224 190.084 86.7422 189.712 88.1412 189.558C88.2432 189.544 88.3493 189.53 88.4565 189.516C89.0785 189.435 89.7389 189.349 89.8705 189.158C89.9938 188.979 89.6605 188.528 89.228 187.944C89.0295 187.675 88.8101 187.379 88.6044 187.068C87.9498 186.077 88.8446 184.689 89.1504 184.782C89.2897 184.825 89.8426 185.522 90.4705 186.313C91.221 187.259 92.0786 188.34 92.4652 188.6C92.9746 188.943 93.6367 189.098 94.1583 189.22C94.3634 189.268 94.5468 189.311 94.6906 189.359C95.0675 189.406 95.4493 189.4 95.8244 189.34L95.8205 189.318Z" fill="#F7B17D"/>
<path d="M76.1157 119.347C76.1536 119.347 76.1896 119.331 76.2138 119.301L77.4541 117.813C77.4987 117.759 77.4912 117.679 77.4372 117.635C77.3833 117.59 77.3032 117.597 77.258 117.651L76.0178 119.139C75.9862 119.177 75.9794 119.229 76.0003 119.274C76.0213 119.319 76.0662 119.347 76.1157 119.347Z" fill="#030F1C"/>
<path d="M78.6902 123.012C78.2457 123.115 77.9508 123.08 77.8127 122.906C77.5507 122.577 77.8525 121.78 77.9909 121.5C78.0157 121.45 78.0048 121.39 77.9639 121.351C77.923 121.313 77.8617 121.306 77.813 121.334C77.1861 121.693 76.7128 121.77 76.4064 121.566C75.7851 121.15 75.9704 119.708 75.9724 119.693C75.9785 119.647 75.9593 119.602 75.9221 119.574C75.8849 119.547 75.8356 119.541 75.7934 119.56C75.2983 119.784 74.9174 119.812 74.6616 119.645C74.272 119.391 74.276 118.75 74.2761 118.743C74.2771 118.673 74.2208 118.615 74.1505 118.614C74.1164 118.612 74.0831 118.625 74.0586 118.649C74.0341 118.672 74.0205 118.705 74.0211 118.739C74.0206 118.771 74.014 119.525 74.5208 119.857C74.8874 120.054 75.3271 120.06 75.6993 119.874C75.6691 120.33 75.6701 121.379 76.2639 121.777C76.5978 122.001 77.0533 121.981 77.6215 121.72C77.4818 122.101 77.3306 122.709 77.6128 123.064C77.7749 123.247 78.0142 123.343 78.2583 123.323C78.4235 123.32 78.5879 123.299 78.7483 123.259C78.793 123.249 78.8289 123.216 78.8424 123.173C78.8558 123.129 78.8447 123.081 78.8132 123.048C78.7817 123.015 78.7348 123.001 78.6902 123.012L78.6902 123.012Z" fill="#030F1C"/>
<path d="M82.3726 123.018C82.3005 122.9 80.7801 120.446 79.4032 119.995L80.1787 118.998C80.2218 118.942 80.2117 118.862 80.156 118.819C80.1004 118.776 80.0203 118.786 79.9772 118.842L79.1291 119.933C79.0461 119.922 78.9621 119.921 78.8788 119.929C78.6688 119.943 78.4815 120.066 78.3838 120.252C77.8841 121.193 79.3249 123.948 79.4908 124.259C79.513 124.301 79.5563 124.327 79.6035 124.327C79.6483 124.326 79.6897 124.303 79.7128 124.265C79.7358 124.226 79.737 124.179 79.716 124.14C79.2828 123.327 78.2396 121.067 78.6093 120.371C78.6668 120.259 78.7803 120.186 78.9063 120.182C80.2239 120.037 82.136 123.12 82.1551 123.151C82.1923 123.21 82.2702 123.228 82.3298 123.192C82.3895 123.155 82.4085 123.078 82.3726 123.018L82.3726 123.018Z" fill="#030F1C"/>
<path d="M88.3864 191.118C88.3836 191.088 88.3687 191.06 88.345 191.04C88.3213 191.021 88.2907 191.011 88.2602 191.015L83.1891 191.503C83.1268 191.509 83.0806 191.564 83.0847 191.626C83.0889 191.688 83.142 191.736 83.2045 191.734L83.2113 191.733L88.2824 191.244C88.3129 191.241 88.341 191.226 88.3606 191.203C88.3801 191.179 88.3894 191.149 88.3864 191.118Z" fill="#0B122D"/>
<path d="M88.7023 193.246C88.6939 193.183 88.6363 193.138 88.5731 193.146L83.4217 193.797C83.3603 193.804 83.3159 193.859 83.3209 193.92C83.326 193.982 83.3787 194.029 83.4406 194.026L83.4507 194.026L88.602 193.375C88.6325 193.371 88.6602 193.355 88.679 193.331C88.6978 193.307 88.7062 193.276 88.7023 193.246Z" fill="#0B122D"/>
<path d="M89.5122 194.935L85.1841 195.383C85.122 195.389 85.0762 195.444 85.0806 195.506C85.085 195.568 85.138 195.615 85.2004 195.613L85.2079 195.613L89.536 195.165C89.5995 195.158 89.6457 195.101 89.6392 195.038C89.6319 194.975 89.5755 194.929 89.5122 194.935Z" fill="#0B122D"/>
</svg>
