<svg width="75" height="75" viewBox="0 0 75 75" fill="none" xmlns="http://www.w3.org/2000/svg">
<path d="M40.625 53.625C40.9011 53.625 41.125 53.4011 41.125 53.125C41.125 52.8489 40.9011 52.625 40.625 52.625V53.625ZM34.375 52.625C34.0989 52.625 33.875 52.8489 33.875 53.125C33.875 53.4011 34.0989 53.625 34.375 53.625V52.625ZM58.875 18.75V56.25H59.875V18.75H58.875ZM53.125 62H21.875V63H53.125V62ZM16.125 56.25V18.75H15.125V56.25H16.125ZM53.125 12H21.875V13H53.125V12ZM21.875 62C18.6994 62 16.125 59.4256 16.125 56.25H15.125C15.125 59.9779 18.1471 63 21.875 63V62ZM58.875 56.25C58.875 59.4256 56.3006 62 53.125 62V63C56.8529 63 59.875 59.9779 59.875 56.25H58.875ZM59.875 18.75C59.875 15.0221 56.8529 12 53.125 12V13C56.3006 13 58.875 15.5744 58.875 18.75H59.875ZM16.125 18.75C16.125 15.5744 18.6994 13 21.875 13V12C18.1471 12 15.125 15.0221 15.125 18.75H16.125ZM40.625 52.625H34.375V53.625H40.625V52.625Z" fill="white"/>
</svg>
