<svg width="24" height="24" viewBox="0 0 24 24" fill="none" xmlns="http://www.w3.org/2000/svg">
<path d="M5.98415 8.74015L8.729 2.97559H6.68796C6.40644 2.97559 6.1953 3.10965 6.05453 3.31074L2.46512 8.33798C2.25397 8.60609 2.18359 8.87421 2.18359 9.14233V10.2818C2.18359 10.7511 2.5355 11.0862 3.02816 11.0862H5.84339V9.20936C5.84339 9.0753 5.91377 8.87421 5.98415 8.74015Z" fill="#EE0033"/>
<path d="M21.5374 8.33798L17.948 3.31074C17.8072 3.10965 17.5257 2.97559 17.2442 2.97559H15.2031L17.948 8.74015C18.0184 8.87421 18.0184 9.00827 18.0184 9.20936V11.0862H20.8336C21.3263 11.0862 21.6782 10.7511 21.6782 10.2818V9.14233C21.8189 8.87421 21.7485 8.60609 21.5374 8.33798Z" fill="#EE0033"/>
<path d="M20.27 9.74512H3.66016V19.0623H20.27V9.74512Z" fill="#EE0033"/>
<path d="M5.98415 8.74023H2.25397C2.18359 8.87429 2.18359 9.00835 2.18359 9.14241V10.2819C2.18359 10.7511 2.5355 11.0863 3.02816 11.0863H5.84339V9.20944C5.84339 9.07538 5.91377 8.87429 5.98415 8.74023Z" fill="#92001F"/>
<path d="M21.7497 8.74023H18.0195C18.0899 8.87429 18.0899 9.00835 18.0899 9.20944V11.0863H20.9051C21.3978 11.0863 21.7497 10.7511 21.7497 10.2819V9.14241C21.8201 9.00835 21.7497 8.87429 21.7497 8.74023Z" fill="#92001F"/>
<path d="M15.2748 2.97559H8.72936L5.98451 8.74015C5.91413 8.87421 5.84375 9.0753 5.84375 9.20936V11.0862H18.09V9.20936C18.09 9.0753 18.0196 8.87421 18.0196 8.74015L15.2748 2.97559Z" fill="#C4C4C4"/>
<path d="M5.98451 8.74023C5.91413 8.87429 5.84375 9.07538 5.84375 9.20944V11.0863H18.09V9.20944C18.09 9.07538 18.0196 8.87429 18.0196 8.74023H5.98451Z" fill="#DCDCDC"/>
<path d="M13.0225 2.97559H10.9111L9.92578 8.87422C9.92578 8.94125 9.92578 9.00827 9.92578 9.00827V11.0192H14.0079V9.00827C14.0079 8.94125 14.0079 8.87422 14.0079 8.87422L13.0225 2.97559Z" fill="#EE0033"/>
<path d="M14.0079 8.74023H9.99616V8.87429C9.92578 8.94132 9.92578 9.00835 9.92578 9.00835V11.0192H14.0079V9.00835C14.0079 8.94132 14.0079 8.87429 14.0079 8.87429V8.74023Z" fill="#92001F"/>
<path d="M14.0079 19.1303H9.92578V14.8404C9.92578 13.7679 10.8407 12.8965 11.9668 12.8965C13.0929 12.8965 14.0079 13.7679 14.0079 14.8404V19.1303Z" fill="#92001F"/>
<path d="M21.8198 19.0625H2.18359V19.9339H21.8198V19.0625Z" fill="#C4C4C4"/>
</svg>
