<svg width="64" height="63" viewBox="0 0 64 63" fill="none" xmlns="http://www.w3.org/2000/svg">
<path d="M63.34 23.2801C61.05 16.2501 53.5 12.4001 46.47 14.6801C46.27 14.7501 46.07 14.8201 45.87 14.8901C45.88 14.6801 45.88 14.4701 45.88 14.2601C45.88 6.87012 39.89 0.870117 32.49 0.870117C25.1 0.870117 19.1 6.86012 19.1 14.2601C19.1 14.4701 19.11 14.6801 19.11 14.8901C18.91 14.8201 18.72 14.7501 18.51 14.6801C11.48 12.3901 3.91999 16.2401 1.63999 23.2801C-0.650007 30.3101 3.19999 37.8701 10.24 40.1501C10.44 40.2201 10.64 40.2801 10.85 40.3301C10.72 40.4901 10.59 40.6601 10.47 40.8301C6.11999 46.8101 7.44999 55.1901 13.43 59.5301C19.41 63.8801 27.79 62.5501 32.13 56.5701C32.25 56.4001 32.37 56.2301 32.49 56.0501C32.61 56.2301 32.72 56.4001 32.85 56.5701C37.2 62.5501 45.57 63.8801 51.55 59.5301C57.53 55.1801 58.86 46.8101 54.51 40.8301C54.39 40.6601 54.26 40.4901 54.13 40.3301C54.33 40.2701 54.53 40.2101 54.73 40.1501C61.78 37.8701 65.63 30.3101 63.34 23.2801ZM47.66 35.4501C46.8 35.4501 46.07 34.9101 45.78 34.1601H35.18L44.36 39.4601C44.99 38.9501 45.89 38.8501 46.63 39.2801C47.59 39.8401 47.92 41.0701 47.37 42.0301C46.81 42.9901 45.59 43.3201 44.62 42.7701C43.88 42.3401 43.51 41.5101 43.64 40.7101L34.46 35.4101L39.76 44.5901C40.56 44.4601 41.39 44.8301 41.82 45.5701C42.38 46.5301 42.05 47.7601 41.08 48.3201C40.12 48.8801 38.89 48.5501 38.33 47.5801C37.9 46.8401 38 45.9401 38.51 45.3101L33.21 36.1301V46.7401C33.96 47.0301 34.5 47.7601 34.5 48.6201C34.5 49.7301 33.6 50.6301 32.49 50.6301C31.38 50.6301 30.48 49.7301 30.48 48.6201C30.48 47.7601 31.02 47.0301 31.77 46.7401V36.1301L26.47 45.3101C26.98 45.9401 27.08 46.8401 26.65 47.5801C26.09 48.5401 24.87 48.8701 23.9 48.3201C22.94 47.7601 22.61 46.5401 23.16 45.5701C23.59 44.8301 24.42 44.4601 25.22 44.5901L30.52 35.4101L21.34 40.7101C21.47 41.5101 21.1 42.3401 20.36 42.7701C19.4 43.3301 18.17 43.0001 17.61 42.0301C17.05 41.0701 17.38 39.8401 18.35 39.2801C19.09 38.8501 19.99 38.9501 20.62 39.4601L29.8 34.1601H19.2C18.91 34.9201 18.18 35.4501 17.32 35.4501C16.21 35.4501 15.31 34.5501 15.31 33.4401C15.31 32.3301 16.21 31.4301 17.32 31.4301C18.18 31.4301 18.91 31.9701 19.2 32.7201H29.8L20.62 27.4201C19.99 27.9301 19.09 28.0301 18.35 27.6001C17.39 27.0401 17.06 25.8101 17.61 24.8501C18.17 23.8901 19.39 23.5601 20.36 24.1101C21.1 24.5401 21.47 25.3701 21.34 26.1701L30.52 31.4701L25.22 22.2901C24.42 22.4201 23.59 22.0501 23.16 21.3101C22.6 20.3501 22.93 19.1201 23.9 18.5601C24.86 18.0001 26.09 18.3301 26.65 19.3001C27.08 20.0401 26.98 20.9401 26.47 21.5701L31.77 30.7501V20.1501C31.02 19.8601 30.48 19.1301 30.48 18.2701C30.48 17.1601 31.38 16.2601 32.49 16.2601C33.6 16.2601 34.5 17.1601 34.5 18.2701C34.5 19.1301 33.96 19.8601 33.21 20.1501V30.7501L38.51 21.5701C38 20.9401 37.9 20.0401 38.33 19.3001C38.89 18.3401 40.11 18.0101 41.08 18.5601C42.04 19.1201 42.37 20.3401 41.82 21.3101C41.39 22.0501 40.56 22.4201 39.76 22.2901L34.46 31.4701L43.64 26.1701C43.51 25.3701 43.88 24.5401 44.62 24.1101C45.58 23.5501 46.81 23.8801 47.37 24.8501C47.93 25.8101 47.6 27.0401 46.63 27.6001C45.89 28.0301 44.99 27.9301 44.36 27.4201L35.18 32.7201H45.78C46.07 31.9701 46.8 31.4301 47.66 31.4301C48.77 31.4301 49.67 32.3301 49.67 33.4401C49.67 34.5501 48.77 35.4501 47.66 35.4501Z" fill="#EA546D"/>
</svg>
