<svg width="264" height="264" viewBox="0 0 264 264" fill="none" xmlns="http://www.w3.org/2000/svg">
<g clip-path="url(#clip0)">
<path d="M0 7.99999C0 3.58171 3.58172 0 8 0H256C260.418 0 264 3.58172 264 8V264H0V7.99999Z" fill="#FBFBFB"/>
<rect width="264" height="264" fill="#EE0033"/>
<circle cx="56" cy="35" r="35" fill="url(#paint0_linear)"/>
<circle cx="239" cy="159" r="52" fill="url(#paint1_linear)"/>
<circle cx="66.5" cy="264.5" r="72.5" fill="url(#paint2_linear)"/>
<circle cx="74" cy="135" r="17" fill="url(#paint3_linear)"/>
<g filter="url(#filter0_d)">
<path d="M56.84 116.26V137.74C56.84 138.22 56.76 138.56 56.6 138.76C56.48 138.92 56.08 139 55.4 139H46.88C45.96 139 45.5 138.58 45.5 137.74V101.74C45.5 99.86 45.8 98.6 46.4 97.96C47.04 97.32 48.2 97 49.88 97H53C53.6 97 54.12 97.04 54.56 97.12C55 97.16 55.4 97.28 55.76 97.48C56.16 97.64 56.54 97.9 56.9 98.26C57.26 98.62 57.66 99.1 58.1 99.7L66.68 112.54L71.36 119.86H71.78V98.26C71.78 97.78 71.84 97.46 71.96 97.3C72.12 97.1 72.54 97 73.22 97H81.74C82.66 97 83.12 97.42 83.12 98.26V134.26C83.12 135.62 82.84 136.76 82.28 137.68C81.72 138.56 80.54 139 78.74 139H75.62C75.06 139 74.54 138.98 74.06 138.94C73.62 138.86 73.2 138.74 72.8 138.58C72.44 138.38 72.06 138.1 71.66 137.74C71.3 137.38 70.92 136.9 70.52 136.3L62.06 123.7L57.26 116.26H56.84ZM123.611 137.62C123.611 138.54 123.231 139 122.471 139H103.931C101.531 139 99.5706 138.66 98.0506 137.98C96.5706 137.3 95.3906 136.42 94.5106 135.34C93.6706 134.22 93.0906 132.98 92.7706 131.62C92.4506 130.26 92.2906 128.92 92.2906 127.6V108.4C92.2906 106.96 92.4906 105.56 92.8906 104.2C93.2906 102.8 93.9306 101.58 94.8106 100.54C95.7306 99.46 96.9306 98.6 98.4106 97.96C99.8906 97.32 101.691 97 103.811 97H121.511C121.991 97 122.291 97.08 122.411 97.24C122.571 97.36 122.651 97.76 122.651 98.44V105.22C122.651 105.74 122.571 106.1 122.411 106.3C122.251 106.46 121.951 106.54 121.511 106.54H107.231C106.431 106.54 105.791 106.66 105.311 106.9C104.831 107.1 104.471 107.36 104.231 107.68C103.991 108 103.831 108.36 103.751 108.76C103.671 109.16 103.631 109.56 103.631 109.96V112.48H119.711C120.191 112.48 120.491 112.56 120.611 112.72C120.771 112.88 120.851 113.3 120.851 113.98V120.22C120.851 121.14 120.471 121.6 119.711 121.6H103.631V126.1C103.631 126.86 103.711 127.46 103.871 127.9C104.071 128.34 104.331 128.68 104.651 128.92C104.971 129.12 105.351 129.26 105.791 129.34C106.231 129.38 106.711 129.4 107.231 129.4H122.471C122.951 129.4 123.251 129.48 123.371 129.64C123.531 129.76 123.611 130.16 123.611 130.84V137.62ZM160.591 105.16C160.591 106.08 160.171 106.54 159.331 106.54H149.071V137.74C149.071 138.22 148.991 138.56 148.831 138.76C148.711 138.92 148.311 139 147.631 139H139.111C138.191 139 137.731 138.58 137.731 137.74V106.54H127.711C126.871 106.54 126.451 106.08 126.451 105.16V98.44C126.451 97.76 126.531 97.36 126.691 97.24C126.891 97.08 127.231 97 127.711 97H159.331C159.811 97 160.131 97.08 160.291 97.24C160.491 97.36 160.591 97.76 160.591 98.44V105.16ZM215.957 137.74C215.957 138.26 215.857 138.6 215.657 138.76C215.497 138.92 215.197 139 214.757 139H190.097C189.217 139 188.417 138.94 187.697 138.82C186.977 138.66 186.337 138.36 185.777 137.92C185.257 137.44 184.837 136.8 184.517 136C184.237 135.16 184.097 134.06 184.097 132.7C184.097 131.02 184.677 129.34 185.837 127.66C187.037 125.98 188.517 124.36 190.277 122.8C191.917 121.32 193.617 119.96 195.377 118.72C197.177 117.44 198.817 116.32 200.297 115.36C201.337 114.68 202.157 114.1 202.757 113.62C203.397 113.1 203.877 112.64 204.197 112.24C204.517 111.8 204.717 111.4 204.797 111.04C204.917 110.64 204.977 110.24 204.977 109.84C204.977 109.68 204.937 109.44 204.857 109.12C204.817 108.8 204.657 108.5 204.377 108.22C204.097 107.94 203.677 107.7 203.117 107.5C202.557 107.26 201.777 107.14 200.777 107.14C199.217 107.14 197.677 107.38 196.157 107.86C194.637 108.3 192.977 109.08 191.177 110.2C190.777 110.44 190.417 110.56 190.097 110.56C189.817 110.56 189.537 110.36 189.257 109.96L186.077 104.68C185.877 104.36 185.777 104.04 185.777 103.72C185.777 103.4 185.937 103.14 186.257 102.94C188.657 101.22 191.117 99.96 193.637 99.16C196.197 98.32 198.877 97.9 201.677 97.9C203.837 97.9 205.817 98.14 207.617 98.62C209.417 99.1 210.957 99.82 212.237 100.78C213.517 101.74 214.517 102.94 215.237 104.38C215.957 105.82 216.317 107.52 216.317 109.48C216.317 110.96 216.057 112.32 215.537 113.56C215.057 114.76 214.377 115.88 213.497 116.92C212.617 117.92 211.597 118.86 210.437 119.74C209.277 120.62 208.017 121.44 206.657 122.2C205.817 122.68 204.917 123.26 203.957 123.94C202.997 124.58 202.057 125.26 201.137 125.98C200.257 126.7 199.437 127.44 198.677 128.2C197.957 128.96 197.397 129.7 196.997 130.42H214.757C215.237 130.42 215.557 130.48 215.717 130.6C215.877 130.68 215.957 131.06 215.957 131.74V137.74ZM47.81 180.37C47.81 180.65 47.76 180.83 47.66 180.91C47.58 180.97 47.39 181 47.09 181H43.94C43.7 181 43.52 180.96 43.4 180.88C43.3 180.78 43.25 180.61 43.25 180.37V161.8C43.25 161.24 43.37 160.8 43.61 160.48C43.85 160.14 44.33 159.97 45.05 159.97H52.4C53.48 159.97 54.45 160.14 55.31 160.48C56.19 160.8 56.93 161.25 57.53 161.83C58.15 162.41 58.62 163.1 58.94 163.9C59.26 164.7 59.42 165.58 59.42 166.54C59.42 167.06 59.34 167.71 59.18 168.49C59.02 169.25 58.67 170 58.13 170.74C57.61 171.46 56.84 172.08 55.82 172.6C54.82 173.12 53.48 173.38 51.8 173.38H47.81V180.37ZM54.71 166.84C54.71 166.56 54.67 166.26 54.59 165.94C54.51 165.6 54.35 165.29 54.11 165.01C53.89 164.71 53.58 164.47 53.18 164.29C52.8 164.09 52.31 163.99 51.71 163.99H47.81V169.69H51.74C52.76 169.69 53.51 169.42 53.99 168.88C54.47 168.32 54.71 167.64 54.71 166.84ZM68.2566 181C67.1366 181 66.2166 180.84 65.4966 180.52C64.7966 180.2 64.2366 179.78 63.8166 179.26C63.3966 178.74 63.1066 178.15 62.9466 177.49C62.7866 176.83 62.7066 176.16 62.7066 175.48V160.6C62.7066 160.36 62.7566 160.2 62.8566 160.12C62.9766 160.02 63.1566 159.97 63.3966 159.97H66.5766C66.8766 159.97 67.0666 160.01 67.1466 160.09C67.2466 160.17 67.2966 160.34 67.2966 160.6V175.15C67.2966 175.91 67.4766 176.42 67.8366 176.68C68.2166 176.94 68.7066 177.07 69.3066 177.07H76.9266C77.1466 177.07 77.2966 177.11 77.3766 177.19C77.4566 177.25 77.4966 177.42 77.4966 177.7V180.37C77.4966 180.79 77.3066 181 76.9266 181H68.2566ZM97.2104 178.09C97.2104 178.79 97.0504 179.39 96.7304 179.89C96.4304 180.39 95.8604 180.75 95.0204 180.97C94.6204 181.07 94.1804 181.14 93.7004 181.18C93.2204 181.24 92.7404 181.28 92.2604 181.3C91.7804 181.32 91.3304 181.33 90.9104 181.33C90.4904 181.35 90.1504 181.36 89.8904 181.36C88.1704 181.36 86.6904 181.22 85.4504 180.94C84.2304 180.64 83.2304 180.14 82.4504 179.44C81.6704 178.74 81.1004 177.81 80.7404 176.65C80.3804 175.49 80.2004 174.03 80.2004 172.27L80.1704 160.63C80.1704 160.39 80.2304 160.23 80.3504 160.15C80.4704 160.05 80.6404 160 80.8604 160H84.0704C84.3704 160 84.5604 160.04 84.6404 160.12C84.7404 160.2 84.7904 160.37 84.7904 160.63V172.54C84.7904 173.36 84.8604 174.08 85.0004 174.7C85.1404 175.3 85.3904 175.8 85.7504 176.2C86.1104 176.6 86.5904 176.9 87.1904 177.1C87.8104 177.28 88.6004 177.37 89.5604 177.37C89.7004 177.37 89.8904 177.37 90.1304 177.37C90.3704 177.35 90.6304 177.34 90.9104 177.34C91.2104 177.32 91.5104 177.3 91.8104 177.28C92.1304 177.24 92.4204 177.19 92.6804 177.13V160.63C92.6804 160.39 92.7304 160.23 92.8304 160.15C92.9504 160.05 93.1304 160 93.3704 160H96.5504C96.8504 160 97.0304 160.04 97.0904 160.12C97.1704 160.2 97.2104 160.37 97.2104 160.63V178.09ZM101.464 165.73C101.464 164.89 101.604 164.1 101.884 163.36C102.184 162.62 102.624 161.98 103.204 161.44C103.784 160.88 104.524 160.44 105.424 160.12C106.324 159.8 107.384 159.64 108.604 159.64C109.164 159.64 109.744 159.67 110.344 159.73C110.964 159.79 111.564 159.88 112.144 160C112.744 160.12 113.314 160.27 113.854 160.45C114.394 160.61 114.884 160.8 115.324 161.02C115.564 161.14 115.694 161.26 115.714 161.38C115.754 161.48 115.724 161.68 115.624 161.98L114.844 164.23C114.744 164.51 114.644 164.67 114.544 164.71C114.444 164.75 114.274 164.74 114.034 164.68C113.094 164.4 112.154 164.17 111.214 163.99C110.294 163.81 109.424 163.72 108.604 163.72C107.724 163.72 107.104 163.88 106.744 164.2C106.384 164.52 106.204 164.91 106.204 165.37C106.204 165.63 106.264 165.87 106.384 166.09C106.504 166.31 106.694 166.53 106.954 166.75C107.234 166.95 107.594 167.16 108.034 167.38C108.494 167.6 109.054 167.84 109.714 168.1C110.734 168.5 111.674 168.91 112.534 169.33C113.394 169.73 114.124 170.19 114.724 170.71C115.344 171.23 115.824 171.84 116.164 172.54C116.524 173.24 116.704 174.08 116.704 175.06C116.704 176.12 116.514 177.04 116.134 177.82C115.754 178.6 115.224 179.25 114.544 179.77C113.864 180.29 113.034 180.68 112.054 180.94C111.094 181.2 110.034 181.33 108.874 181.33C108.234 181.33 107.564 181.29 106.864 181.21C106.164 181.15 105.464 181.05 104.764 180.91C104.084 180.75 103.414 180.55 102.754 180.31C102.094 180.07 101.484 179.78 100.924 179.44C100.764 179.34 100.664 179.23 100.624 179.11C100.604 178.99 100.644 178.8 100.744 178.54L101.764 176.14C101.864 175.9 101.974 175.76 102.094 175.72C102.214 175.68 102.384 175.71 102.604 175.81C103.004 175.97 103.444 176.14 103.924 176.32C104.404 176.48 104.894 176.63 105.394 176.77C105.914 176.89 106.434 177 106.954 177.1C107.494 177.18 108.024 177.22 108.544 177.22C109.164 177.22 109.684 177.16 110.104 177.04C110.524 176.92 110.864 176.77 111.124 176.59C111.384 176.39 111.564 176.17 111.664 175.93C111.764 175.67 111.814 175.4 111.814 175.12C111.814 174.82 111.754 174.55 111.634 174.31C111.534 174.07 111.354 173.84 111.094 173.62C110.854 173.38 110.514 173.16 110.074 172.96C109.654 172.74 109.124 172.51 108.484 172.27C107.424 171.87 106.464 171.46 105.604 171.04C104.744 170.62 104.004 170.16 103.384 169.66C102.764 169.14 102.284 168.57 101.944 167.95C101.624 167.31 101.464 166.57 101.464 165.73Z" fill="white"/>
</g>
<path d="M132 165C132 161.686 134.686 159 138 159H216C219.314 159 222 161.686 222 165V175C222 178.314 219.314 181 216 181H132V165Z" fill="white"/>
<path d="M154.521 171.254H155.649V172.847H154.521V175H152.546V172.847H148.465L148.376 171.603L152.525 165.047H154.521V171.254ZM150.345 171.254H152.546V167.74L152.416 167.966L150.345 171.254ZM163.415 170.885C163.415 172.261 163.13 173.314 162.561 174.043C161.991 174.772 161.157 175.137 160.059 175.137C158.974 175.137 158.145 174.779 157.57 174.063C156.996 173.348 156.702 172.323 156.688 170.987V169.155C156.688 167.765 156.976 166.71 157.55 165.99C158.129 165.27 158.96 164.91 160.045 164.91C161.13 164.91 161.959 165.268 162.533 165.983C163.107 166.694 163.401 167.717 163.415 169.053V170.885ZM161.439 168.875C161.439 168.05 161.326 167.451 161.098 167.077C160.874 166.699 160.523 166.51 160.045 166.51C159.58 166.51 159.236 166.69 159.013 167.05C158.794 167.405 158.678 167.964 158.664 168.725V171.145C158.664 171.956 158.773 172.56 158.992 172.956C159.215 173.348 159.571 173.544 160.059 173.544C160.542 173.544 160.89 173.355 161.104 172.977C161.319 172.598 161.43 172.02 161.439 171.24V168.875ZM167.646 165.047L170.203 172.266L172.746 165.047H175.439V175H173.382V172.279L173.587 167.583L170.9 175H169.492L166.812 167.59L167.018 172.279V175H164.967V165.047H167.646ZM183.766 171.37C183.766 172.555 183.513 173.48 183.007 174.146C182.501 174.806 181.795 175.137 180.888 175.137C180.086 175.137 179.445 174.829 178.967 174.214L178.878 175H177.101V164.5H179.076V168.267C179.532 167.733 180.131 167.467 180.874 167.467C181.776 167.467 182.483 167.799 182.993 168.465C183.508 169.126 183.766 170.058 183.766 171.261V171.37ZM181.79 171.227C181.79 170.479 181.672 169.935 181.435 169.593C181.198 169.246 180.844 169.073 180.375 169.073C179.746 169.073 179.313 169.331 179.076 169.846V172.765C179.318 173.284 179.755 173.544 180.389 173.544C181.027 173.544 181.446 173.229 181.646 172.601C181.742 172.3 181.79 171.842 181.79 171.227ZM191.647 171.37C191.647 172.509 191.388 173.423 190.868 174.111C190.353 174.795 189.656 175.137 188.776 175.137C188.029 175.137 187.425 174.877 186.965 174.357V177.844H184.989V167.604H186.821L186.89 168.328C187.368 167.754 187.993 167.467 188.763 167.467C189.674 167.467 190.383 167.804 190.889 168.479C191.395 169.153 191.647 170.083 191.647 171.268V171.37ZM189.672 171.227C189.672 170.538 189.549 170.007 189.303 169.634C189.061 169.26 188.708 169.073 188.243 169.073C187.623 169.073 187.197 169.31 186.965 169.784V172.812C187.206 173.3 187.637 173.544 188.257 173.544C189.2 173.544 189.672 172.771 189.672 171.227ZM196.884 172.956C196.884 172.715 196.763 172.525 196.521 172.389C196.285 172.247 195.902 172.122 195.373 172.013C193.614 171.644 192.734 170.896 192.734 169.771C192.734 169.114 193.006 168.567 193.548 168.13C194.095 167.688 194.808 167.467 195.688 167.467C196.626 167.467 197.376 167.688 197.937 168.13C198.502 168.572 198.784 169.146 198.784 169.853H196.809C196.809 169.57 196.717 169.338 196.535 169.155C196.353 168.968 196.068 168.875 195.681 168.875C195.348 168.875 195.09 168.95 194.908 169.101C194.726 169.251 194.635 169.442 194.635 169.675C194.635 169.894 194.737 170.071 194.942 170.208C195.152 170.34 195.503 170.456 195.995 170.557C196.487 170.652 196.902 170.762 197.239 170.885C198.283 171.268 198.805 171.931 198.805 172.874C198.805 173.549 198.515 174.095 197.937 174.515C197.358 174.929 196.61 175.137 195.694 175.137C195.075 175.137 194.523 175.027 194.04 174.809C193.562 174.585 193.186 174.282 192.912 173.899C192.639 173.512 192.502 173.095 192.502 172.648H194.375C194.393 172.999 194.523 173.268 194.765 173.455C195.006 173.642 195.33 173.735 195.735 173.735C196.114 173.735 196.398 173.665 196.59 173.523C196.786 173.378 196.884 173.188 196.884 172.956Z" fill="#44494D"/>
</g>
<defs>
<filter id="filter0_d" x="43.25" y="97" width="177.067" height="89.36" filterUnits="userSpaceOnUse" color-interpolation-filters="sRGB">
<feFlood flood-opacity="0" result="BackgroundImageFix"/>
<feColorMatrix in="SourceAlpha" type="matrix" values="0 0 0 0 0 0 0 0 0 0 0 0 0 0 0 0 0 0 127 0" result="hardAlpha"/>
<feOffset dx="2" dy="3"/>
<feGaussianBlur stdDeviation="1"/>
<feColorMatrix type="matrix" values="0 0 0 0 0 0 0 0 0 0 0 0 0 0 0 0 0 0 0.25 0"/>
<feBlend mode="normal" in2="BackgroundImageFix" result="effect1_dropShadow"/>
<feBlend mode="normal" in="SourceGraphic" in2="effect1_dropShadow" result="shape"/>
</filter>
<linearGradient id="paint0_linear" x1="35.9333" y1="-5.42863e-07" x2="59.2483" y2="46.8527" gradientUnits="userSpaceOnUse">
<stop stop-color="#EF0134"/>
<stop offset="1" stop-color="#BB0229"/>
</linearGradient>
<linearGradient id="paint1_linear" x1="209.187" y1="107" x2="253.893" y2="157.926" gradientUnits="userSpaceOnUse">
<stop stop-color="#EF0134"/>
<stop offset="0.817708" stop-color="#C60730"/>
</linearGradient>
<linearGradient id="paint2_linear" x1="24.9333" y1="192" x2="87.2641" y2="263.003" gradientUnits="userSpaceOnUse">
<stop stop-color="#EF0134"/>
<stop offset="0.817708" stop-color="#C60730"/>
</linearGradient>
<linearGradient id="paint3_linear" x1="64.2533" y1="118" x2="78.8688" y2="134.649" gradientUnits="userSpaceOnUse">
<stop stop-color="#EF0134"/>
<stop offset="0.817708" stop-color="#C60730"/>
</linearGradient>
<clipPath id="clip0">
<path d="M0 7.99999C0 3.58171 3.58172 0 8 0H256C260.418 0 264 3.58172 264 8V264H0V7.99999Z" fill="white"/>
</clipPath>
</defs>
</svg>
