<svg width="196" height="180" viewBox="0 0 196 180" fill="none" xmlns="http://www.w3.org/2000/svg">
<g clip-path="url(#clip0)">
<path d="M172.065 154.177C191.78 148.873 194.912 130.11 194.912 130.11C188.813 133.624 183.307 130.442 171.966 135.878C169.46 137.072 167.087 139.061 164.812 141.414C167.12 137.735 168.999 134.42 170.548 131.304C172.691 131.237 184.231 130.574 190.725 121.856C197.979 112.144 195.671 99.3148 195.671 99.3148C195.671 99.3148 192.638 102.166 186.044 105.381C181.725 107.503 178.56 110.453 176.285 113.635C176.45 112.574 176.582 111.547 176.714 110.519C178.428 108.53 183.769 101.271 182.516 89.0385C181.066 74.5192 173.746 70.1104 173.746 70.1104C173.746 70.1104 170.713 77.3037 169.691 84.1325C168.01 95.7347 171.241 101.735 174.768 108.398C174.241 111.083 173.582 113.967 172.625 116.784C172.164 118.177 171.669 119.569 171.142 120.961C172.494 107.934 168.801 105.282 162.702 95.0385C162.702 95.0385 161.086 101.735 159.603 106.177C154.888 120.298 161.944 129.182 166.131 131.9C162.57 138.663 158.317 145.028 153.8 150.928C154.526 149.602 155.251 148.144 155.844 146.619C163.559 127.624 150.569 113.768 150.569 113.768C149.679 120.795 145.657 122.519 141.701 133.923C139.294 140.851 142.986 152.221 145.393 160.972C140.843 166.044 136.261 170.619 132.008 174.497C132.799 175.094 133.59 175.757 134.382 176.353C135.503 175.359 136.558 174.398 137.613 173.469C140.646 174.663 146.283 176.42 152.844 176.519C173.252 176.718 181.263 159.514 181.263 159.514C174.439 161.271 171.373 158.155 159.339 158.652C156.207 158.784 152.745 160.276 149.218 162.365C151.591 159.878 153.668 157.525 155.482 155.204C158.383 155.602 164.944 156.066 172.065 154.177Z" fill="#B9E7F0"/>
<path d="M163.954 107.767H11.2754V127.358H163.954V107.767Z" fill="#00557F"/>
<path d="M163.954 110.285H11.2754V124.838H163.954V110.285Z" fill="white"/>
<path opacity="0.56" d="M163.954 110.285H11.2754V114.164H163.954V110.285Z" fill="#C5E7F9"/>
<path d="M129.304 143.999H2.0111C0.89016 143.999 0 143.104 0 141.977V129.414C0 128.287 0.89016 127.392 2.0111 127.392H129.304C130.425 127.392 131.315 128.287 131.315 129.414V141.977C131.348 143.071 130.425 143.999 129.304 143.999Z" fill="#72BACE"/>
<path d="M24.1339 127.392H17.9688V143.999H24.1339V127.392Z" fill="#B9E7F0"/>
<path d="M119.247 127.392H115.852V143.999H119.247V127.392Z" fill="#B9E7F0"/>
<path d="M122.744 127.392H121.029V143.999H122.744V127.392Z" fill="#B9E7F0"/>
<path d="M31.4526 140.353H31.024C29.0788 140.353 27.5293 138.762 27.5293 136.839V134.485C27.5293 132.53 29.1118 130.972 31.024 130.972H31.4526C33.3978 130.972 34.9473 132.563 34.9473 134.485V136.839C34.9473 138.795 33.3978 140.353 31.4526 140.353Z" fill="#B9E7F0"/>
<path d="M143.052 92.4199H0V107.768H143.052V92.4199Z" fill="#8BCBE3"/>
<path d="M143.052 94.4092H0V105.846H143.052V94.4092Z" fill="white"/>
<path d="M143.052 94.4092H0V97.4258H143.052V94.4092Z" fill="#AAD8F3"/>
<path d="M166.262 165.878H33.7935C31.8813 165.878 30.2988 164.32 30.2988 162.365V147.447C30.2988 145.525 31.8484 143.934 33.7935 143.934H166.23V165.878H166.262Z" fill="#E8F7FA"/>
<path d="M166.263 163.525H80.4454C77.5771 163.525 75.2363 161.171 75.2363 158.287V151.591C75.2363 148.707 77.5771 146.354 80.4454 146.354H166.263V163.525Z" fill="white"/>
<path d="M166.197 151.923H75.2693C75.2363 151.923 75.2363 151.889 75.2363 151.889V150.994C75.2363 148.442 77.3134 146.354 79.852 146.354H166.23C166.263 146.354 166.263 146.387 166.263 146.387V151.856C166.263 151.889 166.23 151.923 166.197 151.923Z" fill="#C5E7F9"/>
<path d="M158.91 92.42H27.8912C25.979 92.42 24.3965 90.862 24.3965 88.9062V79.1603C24.3965 77.2376 25.946 75.6465 27.8912 75.6465H158.91V92.42Z" fill="#58DBDB"/>
<path d="M158.909 90.6299H72.1016C70.2883 90.6299 68.8047 89.1382 68.8047 87.315V80.7846C68.8047 78.9614 70.2883 77.4697 72.1016 77.4697H158.909V90.6299Z" fill="white"/>
<path d="M158.909 81.7451H68.8379V80.8832C68.8379 79.0268 70.3545 77.502 72.2007 77.502H158.909V81.7451Z" fill="#C5E7F9"/>
<path d="M6.36243 179.998H144.403C145.096 179.998 145.623 179.434 145.623 178.771V167.103C145.623 166.406 145.063 165.876 144.403 165.876H6.36243C5.67008 165.876 5.14258 166.44 5.14258 167.103V178.771C5.14258 179.434 5.67008 179.998 6.36243 179.998Z" fill="#BCF7E2"/>
<path d="M129.205 179.989H133.92V165.868H129.205V179.989Z" fill="#58DBDB"/>
<path d="M122.816 179.989H125.189V165.868H122.816V179.989Z" fill="#58DBDB"/>
<path d="M34.798 179.988H40.7324V165.867H34.798V179.988Z" fill="#58DBDB"/>
<path d="M27.7737 179.988H30.0156V165.867H27.7737V179.988Z" fill="#58DBDB"/>
<path d="M18.5512 179.988H23.002V165.867H18.5512V179.988Z" fill="#58DBDB"/>
<path d="M68.6743 56.5865C68.3446 54.8627 66.894 55.0948 64.9488 54.9953C63.0366 54.929 59.7067 54.5644 57.9264 55.2605C57.0363 55.592 55.6186 57.9456 55.5856 58.0119L54.9922 59.371C54.9922 59.371 55.5856 59.8019 55.7505 59.4704C56.3769 58.2108 57.333 57.6141 57.333 57.6141L55.19 59.9345C55.19 59.9345 55.5197 60.2992 56.0802 60.266C56.5417 60.2329 57.0033 59.7025 57.3 59.4704C57.8275 59.0064 58.8496 58.0119 58.8496 58.0119L57.267 61.2274C57.2011 61.3268 57.3 61.4594 57.3989 61.4594C57.6627 61.4594 58.0253 61.3931 58.2231 61.2605C58.4539 61.0948 59.7067 59.8019 60.0035 59.0395C60.1024 58.8406 61.1244 58.3765 61.553 58.3434C61.9157 58.3102 62.8388 59.0395 61.4871 59.1721C61.0914 59.2053 60.4321 59.0727 60.0364 59.4373C59.9705 59.5036 59.7397 59.8019 59.9375 59.9345C60.1353 60.0671 60.6958 60.3323 61.1574 60.3655C61.8827 60.4318 62.5091 60.3986 62.7729 60.4318C64.6191 60.6307 65.2126 59.8682 65.8719 59.603C68.2127 58.5423 68.8721 57.5146 68.6743 56.5865Z" fill="url(#paint0_linear)"/>
<path d="M81.5327 30.6627C80.5766 33.613 78.5326 46.8064 78.5326 46.8064C78.5326 46.8064 78.3347 48.729 68.3452 51.3809C67.7847 51.5467 67.5869 52.4417 67.3561 53.0384C67.3231 53.1379 66.2022 53.6019 65.9384 53.8671C65.378 54.3975 67.6528 59.3368 67.6528 59.3368L68.9386 59.0053C68.9386 59.0053 69.4002 59.4693 70.0266 59.5688C74.3455 60.2981 83.9724 53.6682 86.8407 51.9445C87.3352 51.6461 86.8407 51.3809 87.1045 50.287C88.8188 43.0605 87.0056 35.6351 88.1924 28.508C88.3573 27.4141 86.3462 25.5577 85.5879 25.6903C83.4779 26.055 82.5877 27.3809 81.5327 30.6627Z" fill="url(#paint1_linear)"/>
<path d="M84.5642 1.12782C87.2347 2.81843 88.982 6.66373 87.5643 9.41511C86.3445 11.7687 78.8606 13.7908 78.3001 13.9566C73.1899 15.2494 72.5635 9.28252 73.1899 6.53114C74.2449 1.89025 79.6188 -1.9882 84.5642 1.12782Z" fill="#003651"/>
<path d="M93.038 27.6795C90.7302 28.7734 85.8178 27.7789 84.3672 26.8176C84.3672 26.8176 85.2244 22.6408 85.7519 22.1767C89.1806 19.2596 89.1147 19.7237 94.6205 19.5579C95.2799 19.5248 96.3679 22.1767 96.3679 22.1767C96.3679 22.4088 95.0491 26.7181 93.038 27.6795Z" fill="white"/>
<path d="M86.8063 10.9069L83.5424 17.3047C83.4105 17.3378 83.3446 17.5036 83.3775 17.6361L85.9821 23.4373C86.5096 24.9953 87.2349 24.7632 88.7844 24.2328C90.334 23.7024 91.5209 21.8461 90.9934 20.2881L87.136 11.0395C87.103 10.9069 86.9382 10.8406 86.8063 10.9069Z" fill="url(#paint2_linear)"/>
<path d="M87.2676 11.3712L87.7951 7.85742C87.7951 7.85742 90.2677 11.3381 91.6524 14.0232C93.8943 18.3989 94.29 22.1116 92.3118 25.7911C90.4985 29.1723 91.7184 30.6641 91.6524 30.6641C91.6524 30.6641 88.916 27.5812 89.1138 25.3933C89.6084 19.6585 89.4106 18.7635 89.2457 16.9403C89.0479 14.3878 87.2676 11.3712 87.2676 11.3712Z" fill="#003651"/>
<path d="M86.6746 18.0661C88.1253 15.7457 87.4989 11.9335 87.4989 11.9335L87.1362 11.0717C87.1032 10.9391 86.9384 10.8728 86.8065 10.9059L86.6746 11.2043C87.3999 14.6518 86.3449 17.3368 84.0371 19.0938L84.2679 19.6241C84.9273 19.4584 86.246 18.7623 86.6746 18.0661Z" fill="#C39492"/>
<path d="M88.0912 9.88023C88.223 10.6427 87.6955 11.3388 86.9702 11.4382C86.2449 11.5708 85.5525 11.0404 85.4207 10.278C85.2888 9.51559 85.8163 8.81945 86.5416 8.72001C87.2999 8.62056 87.9923 9.15094 88.0912 9.88023Z" fill="url(#paint3_linear)"/>
<path d="M75.564 14.1222C76.8498 18.6305 80.905 20.8184 82.5864 19.9565C86.0811 18.1996 87.7625 14.8515 86.4767 10.3432C85.1909 5.83495 81.8281 3.48135 78.762 4.37638C75.6959 5.23826 74.2453 9.61395 75.564 14.1222Z" fill="#FFD0CE"/>
<path d="M81.5968 2.15538C85.7509 2.75207 86.608 8.48688 86.5421 8.71892C86.4432 9.11671 85.9157 9.5145 85.6849 9.5145C81.4319 9.24931 75.8602 7.39295 75.8602 7.39295C75.8602 7.39295 73.0578 11.5697 78.234 20.951C78.234 20.951 75.1678 17.8018 73.7172 12.73C71.9039 6.29903 75.5964 1.29351 81.5968 2.15538Z" fill="#003651"/>
<path d="M58.5527 99.8135L58.7505 116.421L61.5199 117.813L63.9596 116.952C63.9596 116.952 63.9926 112.808 64.3553 110.057C64.7509 107.206 65.7729 100.41 65.7729 100.41L58.5527 99.8135Z" fill="url(#paint4_linear)"/>
<path d="M71.1133 101.803L72.0694 122.322L76.7839 123.747C76.7839 123.747 77.9378 114.731 78.2016 111.946C78.3664 110.189 78.7621 101.803 78.7621 101.803H71.1133Z" fill="url(#paint5_linear)"/>
<path d="M85.6193 48.0342L105.697 49.9237C105.697 49.9237 107.313 60.2994 107.643 66.2331C107.84 70.0452 103.851 74.653 86.8721 78.8961C84.4654 79.4927 82.5532 81.1834 82.5862 82.443C82.718 96.3988 79.6519 111.117 79.6519 111.117L73.256 112.41L70.7503 111.117C70.7503 111.117 70.4866 93.0508 69.4316 87.2165C68.0139 79.4928 68.7063 83.9016 68.2447 88.211C67.7502 92.6861 66.827 104.189 66.827 104.189L59.7717 104.62L58.1562 103.824C58.1562 103.824 57.0023 82.5093 56.8375 75.0839C56.6067 65.7027 82.6851 56.653 82.6851 56.653C84.0698 52.1115 85.6193 48.0342 85.6193 48.0342Z" fill="#00649F"/>
<path d="M83.082 28.0462C83.3787 26.7203 85.0271 23.3059 85.0271 23.3059L85.9832 24.0352L92.1814 19.2617C92.1814 19.2617 98.4455 20.5214 100.292 21.7479C104.874 24.7645 104.841 29.8363 105.501 33.7479C105.765 35.3059 107.083 41.4054 106.721 47.6043C106.622 49.328 106.82 52.6761 105.435 53.3391C100.885 55.5601 86.0492 53.9357 84.5985 50.7866C83.8403 49.1291 85.9503 42.8971 84.9942 40.4772C84.4996 39.2175 83.2468 37.2286 82.6534 36.0352C81.4665 33.4827 82.7523 29.4717 83.082 28.0462Z" fill="url(#paint6_linear)"/>
<path d="M65.7734 129.846L70.5539 130.145C71.1803 130.178 71.8397 129.979 72.3342 129.548L75.1696 127.161L77.1807 126.366V125.703C77.4115 124.542 77.1147 122.487 77.1147 122.487C77.1147 122.487 75.8949 123.449 74.2794 122.156C73.3563 121.46 72.4661 121.625 71.4771 122.222L70.7188 123.647L66.1691 127.99C65.9383 128.222 65.8064 128.52 65.8064 128.852V129.846H65.7734Z" fill="#003977"/>
<path d="M83.873 24.7959L85.2248 22.376L86.082 23.934L84.5984 26.818L83.873 24.7959Z" fill="#C17C56"/>
<path d="M85.9824 24.0339L87.499 27.1831C89.9057 25.5919 96.3347 19.6251 96.3347 19.6251L92.6092 18.4648L85.9824 24.0339Z" fill="#C17C56"/>
<path d="M64.5206 117.814L64.125 116.156L63.004 116.587C62.015 116.952 60.894 116.786 60.0698 116.09L58.5532 114.83L54.531 118.675C54.3002 118.907 54.0035 119.073 53.7068 119.206L50.7726 120.465C50.1462 120.731 49.6846 121.294 49.4868 121.924C49.4538 122.057 49.5527 122.222 49.7176 122.222H55.9487C56.2124 122.222 56.4432 122.156 56.674 122.09L60.0698 120.631L60.2346 121.394H64.092C64.092 121.394 64.2239 120.93 64.2898 120.565C64.3228 120.366 64.6195 119.736 64.6195 119.736C64.6854 119.073 64.6525 118.443 64.5206 117.814Z" fill="#003977"/>
<path d="M90.2025 11.8359C95.8402 19.3607 93.5983 29.869 93.5983 29.869L87.6309 30.2668C87.6309 30.2668 90.5321 23.7033 88.9167 14.8856C88.4551 12.3994 88.4221 9.41599 90.2025 11.8359Z" fill="#003651"/>
<path d="M67.7507 72.9284L59.8051 55.1273L42.002 51.1494L50.7717 67.3262L67.7507 72.9284Z" fill="#00557F"/>
<path d="M67.7514 72.9279L83.3457 64.1433L65.1469 58.6074L62.1797 60.3975L67.7514 72.9279Z" fill="#00557F"/>
<path d="M67.5856 72.5639L81.7292 64.7075L81.6962 64.2103L65.2118 59.0059L62.3105 60.7296L67.5856 72.5639Z" fill="#DCFAFB"/>
<path d="M74.8066 60.1007C74.8395 60.0344 75.7627 58.3438 76.5869 57.8797C78.2683 56.9847 82.0597 56.4874 83.9719 56.3217C85.9171 56.156 89.181 54.7637 89.7085 56.4211C90.0052 57.3162 87.2029 60.4322 86.4776 60.83C85.4555 61.3604 83.2796 61.4598 82.2575 61.9902C81.6641 62.2886 80.7739 62.8852 80.3124 63.3825C80.1475 63.5482 79.8178 63.9129 79.62 63.946C79.5211 63.9792 79.2574 63.8466 79.2574 63.8466C79.2574 63.8466 78.8617 64.609 78.631 64.7747C78.4002 64.9405 77.6089 65.0068 77.6089 65.0068L78.565 60.7637L77.2463 62.5537C77.2463 62.5537 76.7517 63.946 76.422 64.2444C76.0264 64.609 75.5649 64.3769 75.5649 64.3769L76.5539 59.7692C76.5539 59.7692 75.0373 61.8576 74.312 62.0897C73.9823 62.1891 73.4219 62.0565 73.4219 62.0565L74.8066 60.1007Z" fill="url(#paint7_linear)"/>
<path d="M96.4661 29.6356C96.0375 34.0445 98.5431 45.1163 98.5431 45.1163C98.5431 45.1163 95.0814 49.2931 86.8062 52.7738C86.2457 53.0058 86.0809 53.6025 85.8501 54.1992C85.8171 54.2986 84.5973 54.9285 84.4984 55.3594C84.2017 56.7517 86.5424 60.6301 87.9271 60.829C88.1579 60.8622 88.9492 60.3318 88.9492 60.3318C88.9492 60.3318 89.7734 60.597 90.3339 60.3649C98.0486 56.9506 105.005 53.6357 107.544 48.829C107.708 48.5307 107.675 47.8677 107.675 47.5362C107.445 42.9285 106.423 34.8069 105.565 29.7019C105.236 27.8124 103.686 22.376 100.983 22.376C97.8178 22.4091 96.7958 26.1881 96.4661 29.6356Z" fill="url(#paint8_linear)"/>
<path d="M90.5652 51.1504L90.4004 50.852C95.2798 48.0344 98.0821 45.3493 98.5107 44.8852C98.28 43.8244 96.0051 33.7471 96.2689 29.5703C96.4996 26.0233 97.2579 23.4708 100.225 22.3438L100.324 22.6421C97.5217 23.7029 96.7964 26.1891 96.5656 29.5703C96.2689 33.9128 98.7745 44.7526 98.8075 44.8852L98.8404 44.9846L98.7745 45.0509C98.8075 45.1172 95.9062 48.0675 90.5652 51.1504Z" fill="white"/>
<g opacity="0.7">
<path opacity="0.7" d="M134.58 55.2265C134.349 55.2265 134.151 55.1933 133.921 55.1602C132.338 54.7955 131.349 53.2044 131.712 51.6132C131.876 50.8508 132.338 50.1878 133.03 49.79C133.69 49.3591 134.481 49.2265 135.239 49.4254C136.822 49.79 137.811 51.3812 137.448 52.9723C137.119 54.3314 135.899 55.2265 134.58 55.2265ZM134.58 50.6519C134.283 50.6519 133.986 50.7513 133.723 50.8839C133.36 51.116 133.096 51.4806 132.997 51.9116C132.8 52.7734 133.327 53.6685 134.217 53.8674C135.074 54.0663 135.965 53.5359 136.162 52.6408C136.36 51.779 135.833 50.8839 134.943 50.685C134.811 50.685 134.712 50.6519 134.58 50.6519Z" fill="#DCFAFB"/>
</g>
</g>
<defs>
<linearGradient id="paint0_linear" x1="69.2515" y1="60.8747" x2="68.6013" y2="54.5527" gradientUnits="userSpaceOnUse">
<stop stop-color="#FFD0CE"/>
<stop offset="1" stop-color="#F4AAA7"/>
</linearGradient>
<linearGradient id="paint1_linear" x1="46.332" y1="36.6976" x2="81.5987" y2="54.9655" gradientUnits="userSpaceOnUse">
<stop stop-color="#FCB31E"/>
<stop offset="1" stop-color="#F0974C"/>
</linearGradient>
<linearGradient id="paint2_linear" x1="91.4281" y1="23.4181" x2="87.0366" y2="11.8037" gradientUnits="userSpaceOnUse">
<stop stop-color="#FFD0CE"/>
<stop offset="1" stop-color="#F4AAA7"/>
</linearGradient>
<linearGradient id="paint3_linear" x1="88.219" y1="11.2156" x2="87.6705" y2="8.67906" gradientUnits="userSpaceOnUse">
<stop stop-color="#FFD0CE"/>
<stop offset="1" stop-color="#F4AAA7"/>
</linearGradient>
<linearGradient id="paint4_linear" x1="66.0594" y1="116.223" x2="58.86" y2="102.673" gradientUnits="userSpaceOnUse">
<stop stop-color="#FFD0CE"/>
<stop offset="1" stop-color="#F4AAA7"/>
</linearGradient>
<linearGradient id="paint5_linear" x1="79.0655" y1="121.809" x2="69.6378" y2="106.39" gradientUnits="userSpaceOnUse">
<stop stop-color="#FFD0CE"/>
<stop offset="1" stop-color="#F4AAA7"/>
</linearGradient>
<linearGradient id="paint6_linear" x1="81.9159" y1="29.3962" x2="104.928" y2="45.5281" gradientUnits="userSpaceOnUse">
<stop stop-color="#FCB31E"/>
<stop offset="1" stop-color="#F0974C"/>
</linearGradient>
<linearGradient id="paint7_linear" x1="90.3775" y1="64.1773" x2="89.2818" y2="55.248" gradientUnits="userSpaceOnUse">
<stop stop-color="#FFD0CE"/>
<stop offset="1" stop-color="#F4AAA7"/>
</linearGradient>
<linearGradient id="paint8_linear" x1="64.2101" y1="34.8547" x2="102.109" y2="52.843" gradientUnits="userSpaceOnUse">
<stop stop-color="#FCB31E"/>
<stop offset="1" stop-color="#F0974C"/>
</linearGradient>
<clipPath id="clip0">
<rect width="196" height="180" fill="white"/>
</clipPath>
</defs>
</svg>
