<svg width="80" height="80" viewBox="0 0 80 80" fill="none" xmlns="http://www.w3.org/2000/svg">
<path d="M53.4741 71.5383H27.6547C23.7623 71.5383 20.6484 68.3845 20.6484 64.4422V15.558C20.6484 11.6157 23.7623 8.46191 27.6547 8.46191H53.4741C57.3665 8.46191 60.4804 11.6157 60.4804 15.558V64.4422C60.3507 68.3845 57.2368 71.5383 53.4741 71.5383Z" fill="#DCDCDC"/>
<mask id="mask0" mask-type="alpha" maskUnits="userSpaceOnUse" x="21" y="8" width="40" height="64">
<path d="M53.9927 71.5383H28.1733C24.2809 71.5383 21.167 68.3845 21.167 64.4422V15.558C21.167 11.6157 24.2809 8.46191 28.1733 8.46191H53.9927C57.8851 8.46191 60.999 11.6157 60.999 15.558V64.4422C60.8692 68.3845 57.7553 71.5383 53.9927 71.5383Z" fill="#DCDCDC"/>
</mask>
<g mask="url(#mask0)">
<rect x="40.999" width="22.269" height="75.0383" fill="#C4C4C4"/>
</g>
<path d="M53.4751 8.46191H27.6557C23.7633 8.46191 20.6494 11.6157 20.6494 15.558V64.4422C20.6494 68.3845 23.7633 71.5383 27.6557 71.5383H53.4751C57.3675 71.5383 60.4814 68.3845 60.4814 64.4422V15.558C60.3516 11.6157 57.2377 8.46191 53.4751 8.46191ZM57.7567 64.4422C57.7567 66.939 55.8105 68.9101 53.3454 68.9101H27.6557C25.1905 68.9101 23.2443 66.939 23.2443 64.4422V15.558C23.2443 13.0612 25.1905 11.0901 27.6557 11.0901H30.8993C31.5481 11.0901 32.3265 11.3529 32.7158 12.01C33.105 12.5356 33.8835 12.9298 34.5322 12.9298H46.4688C47.1176 12.9298 47.896 12.667 48.2853 12.01C48.8043 11.3529 49.453 11.0901 50.1017 11.0901H53.3454C55.8105 11.0901 57.7567 13.0612 57.7567 15.558V64.4422Z" fill="#EE0033"/>
<path d="M20.6487 30.2758H20.519C20.2595 30.2758 20 30.013 20 29.7501V25.8079C20 25.545 20.2595 25.2822 20.519 25.2822H20.6487V30.2758Z" fill="#92001F"/>
<path d="M20.6487 36.0579H20.519C20.2595 36.0579 20 35.9265 20 35.6637V31.7214C20 31.4586 20.2595 31.1958 20.519 31.1958H20.6487V36.0579Z" fill="#92001F"/>
<path d="M60.3516 25.4126H60.4813C60.7408 25.4126 61.0003 25.6754 61.0003 25.9382V29.8805C61.0003 30.1433 60.7408 30.4061 60.4813 30.4061H60.3516V25.4126Z" fill="#92001F"/>
<mask id="mask1" mask-type="alpha" maskUnits="userSpaceOnUse" x="20" y="8" width="41" height="64">
<path d="M53.6694 8.46191H27.85C23.9576 8.46191 20.8438 11.6157 20.8438 15.558V64.4422C20.8438 68.3845 23.9576 71.5383 27.85 71.5383H53.6694C57.5618 71.5383 60.6757 68.3845 60.6757 64.4422V15.558C60.546 11.6157 57.4321 8.46191 53.6694 8.46191ZM57.9511 64.4422C57.9511 66.939 56.0049 68.9101 53.5397 68.9101H27.85C25.3849 68.9101 23.4387 66.939 23.4387 64.4422V15.558C23.4387 13.0612 25.3849 11.0901 27.85 11.0901H31.0937C31.7424 11.0901 32.5209 11.3529 32.9101 12.01C33.2993 12.5356 34.0778 12.9298 34.7266 12.9298H46.6632C47.3119 12.9298 48.0904 12.667 48.4796 12.01C48.9986 11.3529 49.6473 11.0901 50.2961 11.0901H53.5397C56.0049 11.0901 57.9511 13.0612 57.9511 15.558V64.4422Z" fill="#EE0033"/>
</mask>
<g mask="url(#mask1)">
<rect x="40.8438" y="0.461914" width="24" height="76" fill="#92001F"/>
</g>
</svg>
