<svg width="54" height="38" viewBox="0 0 54 38" fill="none" xmlns="http://www.w3.org/2000/svg">
<path d="M43.8608 37.551H10.1393C4.53958 37.551 0 33.0114 0 27.4117C0 21.812 4.53958 17.2725 10.1393 17.2725H43.8608C49.4604 17.2725 54 21.812 54 27.4117C54 33.0114 49.4604 37.551 43.8608 37.551Z" fill="#EE0033"/>
<path d="M32.6418 31.9178C39.8742 28.8016 43.2111 20.4125 40.095 13.18C36.9788 5.9476 28.5896 2.6107 21.3572 5.72685C14.1248 8.843 10.7879 17.2322 13.904 24.4646C17.0202 31.697 25.4093 35.0339 32.6418 31.9178Z" fill="#EE0033"/>
<path opacity="0.35" d="M43.8608 37.551H10.1393C4.53958 37.551 0 33.0114 0 27.4117C0 21.812 4.53958 17.2725 10.1393 17.2725H43.8608C49.4604 17.2725 54 21.812 54 27.4117C54 33.0114 49.4604 37.551 43.8608 37.551Z" fill="#EE0033"/>
<path opacity="0.35" d="M32.6418 31.9178C39.8742 28.8016 43.2111 20.4125 40.095 13.18C36.9788 5.9476 28.5896 2.6107 21.3572 5.72685C14.1248 8.843 10.7879 17.2322 13.904 24.4646C17.0202 31.697 25.4093 35.0339 32.6418 31.9178Z" fill="#EE0033"/>
<path d="M23.167 20.619C22.9709 20.619 22.7779 20.5436 22.6301 20.3928C22.3376 20.0972 22.3436 19.6176 22.6392 19.3251L27.0366 15L31.3647 19.3281C31.6603 19.6237 31.6603 20.1002 31.3647 20.3958C31.0691 20.6914 30.5926 20.6914 30.297 20.3958L27.0246 17.1233L23.6918 20.3988C23.55 20.5466 23.36 20.619 23.167 20.619Z" fill="white"/>
<path d="M27.0001 26.6179C26.5839 26.6179 26.2461 26.2801 26.2461 25.8638V16.0646C26.2461 15.6483 26.5839 15.3105 27.0001 15.3105C27.4163 15.3105 27.7541 15.6483 27.7541 16.0646V25.8608C27.7541 26.2801 27.4163 26.6179 27.0001 26.6179Z" fill="white"/>
<path d="M34.1271 31.2686H19.7615C18.733 31.2686 17.8945 30.4301 17.8945 29.4016V24.1808C17.8945 23.7646 18.2323 23.4268 18.6486 23.4268C19.0648 23.4268 19.4026 23.7646 19.4026 24.1808V29.4016C19.4026 29.6007 19.5654 29.7605 19.7615 29.7605H34.1271C34.3865 29.7605 34.6007 29.5494 34.6007 29.287V24.1808C34.6007 23.7646 34.9385 23.4268 35.3547 23.4268C35.7709 23.4268 36.1087 23.7646 36.1087 24.1808V29.287C36.1087 30.3788 35.219 31.2686 34.1271 31.2686Z" fill="white"/>
</svg>
