<svg width="87" height="17" viewBox="0 0 87 17" fill="none" xmlns="http://www.w3.org/2000/svg">
<path d="M10.8125 13.5278L10.7955 6.30839L7.29884 12.2558H6.05974L2.58006 6.46309V13.5278H0V1.49545H2.27452L6.72173 8.9727L11.101 1.49545H13.3586L13.3925 13.5278H10.8125Z" fill="#333333"/>
<path d="M25.089 4.28008L20.9643 14.095C20.5456 15.1608 20.0251 15.9114 19.4027 16.3468C18.7916 16.7823 18.0504 17 17.1791 17C16.7038 17 16.2342 16.9255 15.7702 16.7765C15.3063 16.6276 14.9272 16.4213 14.633 16.1577L15.6005 14.2497C15.8042 14.4331 16.0362 14.5763 16.2964 14.6795C16.568 14.7826 16.8339 14.8342 17.0942 14.8342C17.4563 14.8342 17.7505 14.7425 17.9769 14.5592C18.2032 14.3873 18.4069 14.095 18.5879 13.6825L18.6219 13.5966L14.6669 4.28008H17.3997L19.9628 10.5541L22.5429 4.28008H25.089Z" fill="#333333"/>
<path d="M42.5868 1.49545L37.4437 13.5278H34.7279L29.6017 1.49545H32.5722L36.1876 10.09L39.854 1.49545H42.5868Z" fill="#333333"/>
<path d="M43.5579 4.28008H46.2059V13.5278H43.5579V4.28008ZM44.8819 2.9909C44.3953 2.9909 43.9993 2.84766 43.6937 2.56117C43.3882 2.27469 43.2354 1.91945 43.2354 1.49545C43.2354 1.07145 43.3882 0.716212 43.6937 0.429728C43.9993 0.143243 44.3953 0 44.8819 0C45.3685 0 45.7646 0.137513 46.0701 0.412539C46.3756 0.687564 46.5284 1.03135 46.5284 1.44388C46.5284 1.8908 46.3756 2.26323 46.0701 2.56117C45.7646 2.84766 45.3685 2.9909 44.8819 2.9909Z" fill="#333333"/>
<path d="M57.6088 8.93832C57.6088 8.9727 57.5918 9.21335 57.5578 9.66026H50.6494C50.7739 10.2332 51.0681 10.6859 51.532 11.0182C51.996 11.3505 52.5731 11.5167 53.2634 11.5167C53.7387 11.5167 54.1574 11.4479 54.5195 11.3104C54.8929 11.1614 55.238 10.9323 55.5549 10.6229L56.9637 12.1699C56.1037 13.1668 54.8476 13.6653 53.1955 13.6653C52.1657 13.6653 51.2548 13.4648 50.4627 13.0637C49.6706 12.6512 49.0595 12.0839 48.6295 11.362C48.1995 10.64 47.9845 9.82069 47.9845 8.90394C47.9845 7.99865 48.1938 7.18504 48.6125 6.46309C49.0425 5.72969 49.6253 5.16245 50.3608 4.76137C51.1077 4.34884 51.9394 4.14257 52.856 4.14257C53.75 4.14257 54.5591 4.33738 55.2833 4.727C56.0075 5.11662 56.5733 5.67813 56.9807 6.41153C57.3994 7.13347 57.6088 7.97573 57.6088 8.93832ZM52.873 6.17088C52.2732 6.17088 51.7697 6.34277 51.3623 6.68655C50.9549 7.03033 50.706 7.50017 50.6154 8.09606H55.1136C55.023 7.51163 54.7741 7.04752 54.3667 6.70374C53.9593 6.3485 53.4614 6.17088 52.873 6.17088Z" fill="#333333"/>
<path d="M65.2617 13.0809C65.0014 13.2757 64.6789 13.4247 64.2942 13.5278C63.9207 13.6195 63.5247 13.6653 63.106 13.6653C62.0196 13.6653 61.1766 13.3846 60.5768 12.8231C59.9884 12.2615 59.6942 11.4365 59.6942 10.3478V6.54904H58.2853V4.48635H59.6942V2.23458H62.3421V4.48635H64.6167V6.54904H62.3421V10.3134C62.3421 10.7031 62.4383 11.0067 62.6307 11.2245C62.8344 11.4307 63.1173 11.5339 63.4794 11.5339C63.8981 11.5339 64.2545 11.4193 64.5488 11.1901L65.2617 13.0809Z" fill="#333333"/>
<path d="M72.4392 13.0809C72.1789 13.2757 71.8564 13.4247 71.4717 13.5278C71.0982 13.6195 70.7022 13.6653 70.2835 13.6653C69.1971 13.6653 68.3541 13.3846 67.7543 12.8231C67.1659 12.2615 66.8717 11.4365 66.8717 10.3478V6.54904H65.4628V4.48635H66.8717V2.23458H69.5196V4.48635H71.7942V6.54904H69.5196V10.3134C69.5196 10.7031 69.6158 11.0067 69.8082 11.2245C70.0119 11.4307 70.2948 11.5339 70.6569 11.5339C71.0756 11.5339 71.432 11.4193 71.7263 11.1901L72.4392 13.0809Z" fill="#333333"/>
<path d="M82.5891 8.93832C82.5891 8.9727 82.5722 9.21335 82.5382 9.66026H75.6298C75.7542 10.2332 76.0485 10.6859 76.5124 11.0182C76.9764 11.3505 77.5535 11.5167 78.2438 11.5167C78.719 11.5167 79.1377 11.4479 79.4999 11.3104C79.8733 11.1614 80.2184 10.9323 80.5353 10.6229L81.9441 12.1699C81.0841 13.1668 79.828 13.6653 78.1759 13.6653C77.1461 13.6653 76.2352 13.4648 75.4431 13.0637C74.6509 12.6512 74.0399 12.0839 73.6099 11.362C73.1798 10.64 72.9648 9.82069 72.9648 8.90394C72.9648 7.99865 73.1742 7.18504 73.5929 6.46309C74.0229 5.72969 74.6057 5.16245 75.3412 4.76137C76.0881 4.34884 76.9198 4.14257 77.8364 4.14257C78.7304 4.14257 79.5395 4.33738 80.2637 4.727C80.9879 5.11662 81.5537 5.67813 81.9611 6.41153C82.3798 7.13347 82.5891 7.97573 82.5891 8.93832ZM77.8534 6.17088C77.2536 6.17088 76.7501 6.34277 76.3427 6.68655C75.9353 7.03033 75.6863 7.50017 75.5958 8.09606H80.0939C80.0034 7.51163 79.7545 7.04752 79.3471 6.70374C78.9397 6.3485 78.4418 6.17088 77.8534 6.17088Z" fill="#333333"/>
<path d="M84.3521 0.773509H87V13.5278H84.3521V0.773509Z" fill="#333333"/>
</svg>
