<svg width="62" height="62" viewBox="0 0 62 62" fill="none" xmlns="http://www.w3.org/2000/svg">
<rect width="62" height="62" rx="31" fill="#EEEEEE"/>
<path d="M35.559 41.3599V15.9499C35.559 14.97 34.7862 14.2 33.8026 14.2H15.9567C14.973 14.2 14.2002 14.97 14.2002 15.9499V41.4299C14.2002 44.9299 17.0808 47.7999 20.6641 47.7999H42.0229C38.4397 47.7999 35.559 44.9299 35.559 41.3599Z" fill="#DCDCDC"/>
<path d="M25.0332 29.9392C24.6428 29.9392 24.35 29.5965 24.35 29.1396C24.35 28.6828 24.6428 28.3401 25.0332 28.3401C25.4236 28.3401 25.7164 28.6828 25.7164 29.1396H28.6445C28.6445 27.4263 27.7661 25.9414 26.4973 25.2561L26.4973 24.4565H23.5692L23.5692 25.2561C22.3003 25.9414 21.4219 27.4263 21.4219 29.1396C21.4219 31.4241 23.0811 33.3658 25.0332 33.3658C25.4236 33.3658 25.7164 33.7085 25.7164 34.1654C25.7164 34.6223 25.4236 34.965 25.0332 34.965C24.6428 34.965 24.35 34.6223 24.35 34.1654H21.4219C21.4219 35.8787 22.3003 37.3636 23.5692 38.0489L23.5692 38.8485H26.4973L26.4973 38.0489C27.7661 37.3636 28.6445 35.8787 28.6445 34.1654C28.6445 31.881 26.9853 29.9392 25.0332 29.9392Z" fill="white"/>
<path d="M27.9607 43.46C27.5391 43.46 27.1176 43.74 26.977 44.09C25.9231 46.3299 23.7451 47.7999 21.1455 47.7999H42.5044C44.5419 47.7999 46.4389 46.8199 47.563 45.35C48.1251 44.58 47.6333 43.53 46.6497 43.53H27.9607V43.46Z" fill="#828282"/>
<g clip-path="url(#clip0_23226_43333)">
<path d="M38.132 33.0111C43.3097 33.0111 47.5071 28.8292 47.5071 23.6706C47.5071 18.512 43.3097 14.3301 38.132 14.3301C32.9542 14.3301 28.7568 18.512 28.7568 23.6706C28.7568 28.8292 32.9542 33.0111 38.132 33.0111Z" fill="#EE0033"/>
<path d="M37.3112 25.7351C36.9184 25.7351 36.5693 25.3873 36.5693 24.996V20.5179C36.5693 20.1266 36.9184 19.7788 37.3112 19.7788C37.7039 19.7788 38.053 20.1266 38.053 20.5179V24.996C38.053 25.3873 37.7039 25.7351 37.3112 25.7351Z" fill="#C4C4C4"/>
<path d="M36.5693 24.9959C36.5693 24.6047 36.9184 24.2568 37.3112 24.2568H40.3658C40.7586 24.2568 41.1077 24.6047 41.1077 24.9959C41.1077 25.3872 40.7586 25.7351 40.3658 25.7351H37.3112C36.9184 25.7351 36.5693 25.3872 36.5693 24.9959Z" fill="white"/>
<path d="M38.053 24.9959V24.2568H37.3112C36.9184 24.2568 36.5693 24.6047 36.5693 24.9959C36.5693 25.3872 36.9184 25.7351 37.3112 25.7351C37.7039 25.7351 38.053 25.3872 38.053 24.9959Z" fill="white"/>
<path d="M40.8897 25.5175L41.4134 24.9958L40.8897 24.4741C40.5842 24.1698 40.1478 24.1698 39.8424 24.4741C39.5369 24.7784 39.5369 25.2132 39.8424 25.5175C40.1478 25.8219 40.5842 25.8219 40.8897 25.5175Z" fill="white"/>
</g>
<defs>
<clipPath id="clip0_23226_43333">
<rect width="18.7503" height="18.681" fill="white" transform="translate(28.7568 14.3301)"/>
</clipPath>
</defs>
</svg>
