<svg width="62" height="62" viewBox="0 0 62 62" fill="none" xmlns="http://www.w3.org/2000/svg">
<rect width="62" height="62" rx="31" fill="#EEEEEE"/>
<path d="M43.9494 24.625C43.9494 23.725 43.6494 22.975 43.1994 22.3C42.9744 22 42.8244 21.55 42.8994 21.175C42.9744 20.35 42.8244 19.525 42.4494 18.775C41.9994 18.025 41.3994 17.5 40.6494 17.2C40.1994 17.05 39.8994 16.75 39.7494 16.375C39.4494 15.625 38.9244 14.95 38.1744 14.575C37.4244 14.125 36.5994 13.975 35.7744 14.125C35.3994 14.125 34.9494 14.05 34.6494 13.75C34.0494 13.3 33.2244 13 32.3244 13C31.4244 13 30.6744 13.3 29.9994 13.75C29.6994 13.975 29.2494 14.125 28.8744 14.05C28.0494 13.975 27.2244 14.125 26.4744 14.5C25.7244 14.95 25.1994 15.55 24.8994 16.3C24.7494 16.75 24.4494 17.05 24.0744 17.2C23.3244 17.5 22.6494 18.025 22.2744 18.775C21.8244 19.525 21.6744 20.35 21.8244 21.175C21.8994 21.55 21.7494 22 21.5244 22.3C21.0744 22.9 20.7744 23.725 20.7744 24.625C20.7744 25.525 21.0744 26.275 21.5244 26.95C21.7494 27.25 21.8994 27.7 21.8244 28.075C21.7494 28.9 21.8994 29.725 22.2744 30.475C22.7244 31.225 23.3244 31.75 24.0744 32.05C24.4494 32.2 24.7494 32.5 24.8994 32.875C25.1994 33.625 25.7244 34.3 26.4744 34.675C27.2244 35.125 28.0494 35.275 28.8744 35.125C29.2494 35.05 29.6994 35.2 29.9994 35.425C30.5994 35.875 31.4244 36.175 32.3244 36.175C33.2244 36.175 33.9744 35.875 34.6494 35.425C34.9494 35.2 35.3994 35.05 35.7744 35.125C36.5994 35.2 37.4244 35.05 38.1744 34.675C38.9244 34.225 39.4494 33.625 39.7494 32.875C39.8994 32.5 40.1994 32.2 40.5744 32.05C41.3244 31.75 41.9994 31.225 42.3744 30.475C42.8244 29.725 42.9744 28.9 42.8244 28.075C42.7494 27.7 42.8994 27.25 43.1244 26.95C43.6494 26.275 43.9494 25.525 43.9494 24.625Z" fill="#C4C4C4"/>
<path d="M13 37.75L16.6 37C17.875 36.775 19.15 36.325 20.35 35.875C22.225 35.05 24.4 34.975 26.35 35.575L33.175 37.75C34 37.975 34.375 38.875 34.075 39.7C34 40 33.7 40.15 33.4 40.15L28.975 40.075L33.25 41.05C35.875 41.65 38.65 41.725 41.35 41.2L43.225 40.825C44.05 40.675 44.725 41.275 44.725 42.1C44.725 42.325 44.575 42.625 44.35 42.7L42.1 43.6C38.95 44.875 35.5 45.325 32.125 44.875L25.675 44.05C23.65 43.675 21.55 44.725 19.75 45.625L13 49V37.75Z" fill="#C4C4C4"/>
<path d="M14.8 37.375L13 37.75V49L14.8 48.1V37.375Z" fill="#92001F"/>
<path d="M49.0002 24.625C49.0002 23.725 48.7002 22.975 48.2502 22.3C48.0252 22 47.8752 21.55 47.9502 21.175C48.0252 20.35 47.8752 19.525 47.5002 18.775C47.0502 18.025 46.4502 17.5 45.7002 17.2C45.2502 17.05 44.9502 16.75 44.8002 16.375C44.5002 15.625 43.9752 14.95 43.2252 14.575C42.4752 14.125 41.6502 13.975 40.8252 14.125C40.4502 14.125 40.0002 14.05 39.7002 13.75C39.1002 13.3 38.2752 13 37.3752 13C36.4752 13 35.7252 13.3 35.0502 13.75C34.7502 13.975 34.3002 14.125 33.9252 14.05C33.1002 13.975 32.2752 14.125 31.5252 14.5C30.7752 14.95 30.2502 15.55 29.9502 16.3C29.8002 16.75 29.5002 17.05 29.1252 17.2C28.3752 17.5 27.7002 18.025 27.3252 18.775C26.8752 19.525 26.7252 20.35 26.8752 21.175C26.9502 21.55 26.8002 22 26.5752 22.3C26.1252 22.9 25.8252 23.725 25.8252 24.625C25.8252 25.525 26.1252 26.275 26.5752 26.95C26.8002 27.25 26.9502 27.7 26.8752 28.075C26.8002 28.9 26.9502 29.725 27.3252 30.475C27.7752 31.225 28.3752 31.75 29.1252 32.05C29.5002 32.2 29.8002 32.5 29.9502 32.875C30.2502 33.625 30.7752 34.3 31.5252 34.675C32.2752 35.125 33.1002 35.275 33.9252 35.125C34.3002 35.05 34.7502 35.2 35.0502 35.425C35.6502 35.875 36.4752 36.175 37.3752 36.175C38.2752 36.175 39.0252 35.875 39.7002 35.425C40.0002 35.2 40.4502 35.05 40.8252 35.125C41.6502 35.2 42.4752 35.05 43.2252 34.675C43.9752 34.225 44.5002 33.625 44.8002 32.875C44.9502 32.5 45.2502 32.2 45.6252 32.05C46.3752 31.75 47.0502 31.225 47.4252 30.475C47.8752 29.725 48.0252 28.9 47.8752 28.075C47.8002 27.7 47.9502 27.25 48.1752 26.95C48.7002 26.275 49.0002 25.525 49.0002 24.625Z" fill="#EE0033"/>
<path fill-rule="evenodd" clip-rule="evenodd" d="M39.337 18.9774C40.0297 19.1213 40.6674 19.3436 41.1046 19.6044C41.3217 19.7339 41.3983 20.0246 41.2755 20.2538C41.1528 20.4829 40.8773 20.5637 40.6602 20.4342C40.3373 20.2416 39.8019 20.0455 39.1625 19.9126C38.5284 19.7809 37.8245 19.7181 37.1747 19.7709C36.5178 19.8242 35.9599 19.9919 35.5777 20.2797C35.219 20.5498 34.9894 20.9422 34.9894 21.5536C34.9894 22.2827 35.2838 22.7502 35.7638 23.1188C36.2741 23.5106 36.9738 23.7737 37.7538 24.048C37.8055 24.0662 37.8576 24.0845 37.91 24.1028C38.6139 24.3493 39.3766 24.6164 39.9676 25.0165C40.6337 25.4675 41.1357 26.1244 41.1357 27.1329C41.1357 28.0484 40.8482 28.768 40.3318 29.2844C39.8274 29.7889 39.1465 30.0578 38.4233 30.1755C36.9836 30.41 35.2182 30.0723 33.7911 29.5344C33.5562 29.4459 33.4338 29.1732 33.5176 28.9253C33.6015 28.6774 33.86 28.5483 34.0949 28.6368C35.4435 29.1451 37.0486 29.435 38.2856 29.2336C38.9007 29.1334 39.3847 28.9184 39.7105 28.5926C40.0244 28.2787 40.2325 27.8214 40.2325 27.1329C40.2325 26.5372 39.9662 26.1481 39.4799 25.8188C38.9886 25.4862 38.3298 25.2548 37.5874 24.9942C37.5479 24.9803 37.5081 24.9663 37.4681 24.9523C36.7115 24.6861 35.8746 24.3826 35.2324 23.8895C34.56 23.3733 34.0861 22.6377 34.0861 21.5536C34.0861 20.6306 34.4596 19.9508 35.053 19.5039C35.6229 19.0747 36.3661 18.8806 37.1054 18.8205C37.8518 18.76 38.639 18.8324 39.337 18.9774Z" fill="#FBFBFB" stroke="#FBFBFB" stroke-width="0.5" stroke-linecap="round" stroke-linejoin="round"/>
<path fill-rule="evenodd" clip-rule="evenodd" d="M37.8422 16.9624C38.0917 16.9624 38.2939 17.1758 38.2939 17.439V31.7359C38.2939 31.9991 38.0917 32.2124 37.8422 32.2124C37.5928 32.2124 37.3906 31.9991 37.3906 31.7359V17.439C37.3906 17.1758 37.5928 16.9624 37.8422 16.9624Z" fill="#FBFBFB" stroke="#FBFBFB" stroke-width="0.5" stroke-linecap="round" stroke-linejoin="round"/>
</svg>
