<svg width="41" height="41" viewBox="0 0 41 41" fill="none" xmlns="http://www.w3.org/2000/svg">
<path d="M25.9014 16.1816H36.2651L39.7196 26.5453V34.3181H35.315" stroke="#EE0033" stroke-width="1.72728" stroke-miterlimit="10"/>
<path d="M26.8502 34.3184H15.5166" stroke="#EE0033" stroke-width="1.72728" stroke-miterlimit="10"/>
<path d="M18.9922 10.1367H25.9013V27.4095" stroke="#EE0033" stroke-width="1.72728" stroke-miterlimit="10"/>
<path d="M6.03695 34.3182H1.71875V20.5" stroke="#EE0033" stroke-width="1.72728" stroke-miterlimit="10"/>
<path d="M10.7862 39.5C13.4095 39.5 15.5362 37.3734 15.5362 34.75C15.5362 32.1267 13.4095 30 10.7862 30C8.16279 30 6.03613 32.1267 6.03613 34.75C6.03613 37.3734 8.16279 39.5 10.7862 39.5Z" stroke="#EE0033" stroke-width="1.72728" stroke-miterlimit="10" stroke-linecap="square"/>
<path d="M31.0819 39.5007C33.4668 39.5007 35.4001 37.5673 35.4001 35.1825C35.4001 32.7976 33.4668 30.8643 31.0819 30.8643C28.697 30.8643 26.7637 32.7976 26.7637 35.1825C26.7637 37.5673 28.697 39.5007 31.0819 39.5007Z" stroke="#EE0033" stroke-width="1.72728" stroke-miterlimit="10" stroke-linecap="square"/>
<path d="M10.3552 18.7728C15.1249 18.7728 18.9916 14.9062 18.9916 10.1364C18.9916 5.36665 15.1249 1.5 10.3552 1.5C5.5854 1.5 1.71875 5.36665 1.71875 10.1364C1.71875 14.9062 5.5854 18.7728 10.3552 18.7728Z" stroke="#FE9A00" stroke-width="1.72728" stroke-miterlimit="10" stroke-linecap="square"/>
<path d="M10.3555 6.68164V10.1362H13.81" stroke="#FE9A00" stroke-width="1.72728" stroke-miterlimit="10" stroke-linecap="square"/>
</svg>
