<svg width="48" height="48" viewBox="0 0 48 48" fill="none" xmlns="http://www.w3.org/2000/svg">
<path fill-rule="evenodd" clip-rule="evenodd" d="M10.7897 0H37.2093C43.1588 0 47.999 4.84023 47.999 10.7897V37.2093C47.999 43.1588 43.1588 48 37.2093 48H10.7897C4.84023 48 0 43.1588 0 37.2093V10.7897C0 4.84023 4.84023 0 10.7897 0Z" fill="#EE0033"/>
<path fill-rule="evenodd" clip-rule="evenodd" d="M46.9877 23.3184V35.9684C46.9877 36.1984 46.9777 36.4284 46.9677 36.6584C46.6077 42.2384 41.9577 46.6684 36.2877 46.6684H18.8777C23.6077 45.0784 27.3577 41.3484 28.9577 36.6184C28.9777 36.5584 28.9977 36.4884 29.0277 36.4284C30.1077 33.1984 32.9977 30.7684 36.5277 30.2384C40.8877 29.4484 44.6277 26.8884 46.9877 23.3184Z" fill="white"/>
<path d="M46.9877 23.3184V35.9684C46.9877 36.1984 46.9777 36.4284 46.9677 36.6584C46.6077 42.2384 41.9577 46.6684 36.2877 46.6684H18.8777C23.6077 45.0784 27.3577 41.3484 28.9577 36.6184C28.9777 36.5584 28.9977 36.4884 29.0277 36.4284C30.1077 33.1984 32.9977 30.7684 36.5277 30.2384C40.8877 29.4484 44.6277 26.8884 46.9877 23.3184" stroke="#EE0033"/>
<path d="M37.4289 35.5586C37.4002 35.6914 37.3351 35.8307 37.2336 35.9766L33.8937 40.8789C33.8338 40.9596 33.7661 41 33.6906 41H33.2101C33.1294 41 33.0982 40.9596 33.1164 40.8789C33.1216 40.8529 33.1346 40.8242 33.1555 40.793L36.6437 35.7695C36.6489 35.7643 36.6542 35.7526 36.6594 35.7344C36.6672 35.6979 36.6516 35.6797 36.6125 35.6797H33.8859C33.7792 35.6797 33.7349 35.6341 33.7531 35.543L33.8234 35.207C33.8312 35.168 33.8547 35.1328 33.8937 35.1016C33.9328 35.0703 33.9745 35.0547 34.0187 35.0547H36.9367C37.1476 35.0547 37.2896 35.1016 37.3625 35.1953C37.438 35.2891 37.4601 35.4102 37.4289 35.5586ZM41.5469 38.5664C41.3646 39.4258 41.0613 40.056 40.6368 40.457C40.2123 40.8555 39.6863 41.0547 39.0587 41.0547C38.431 41.0547 37.9883 40.8542 37.7305 40.4531C37.4727 40.0521 37.435 39.4232 37.6172 38.5664L37.8477 37.4883C38.03 36.6315 38.3347 36.0026 38.7618 35.6016C39.1889 35.2005 39.7162 35 40.3438 35C40.9714 35 41.4128 35.2005 41.668 35.6016C41.9232 36 41.9597 36.6289 41.7774 37.4883L41.5469 38.5664ZM40.8165 38.5664L41.0469 37.4883C41.185 36.832 41.1784 36.3568 41.0274 36.0625C40.8764 35.7656 40.6042 35.6172 40.211 35.6172C40.0157 35.6172 39.836 35.6523 39.6719 35.7227C39.5105 35.7904 39.3607 35.8984 39.2227 36.0469C39.0847 36.1953 38.961 36.3919 38.8516 36.6367C38.7422 36.8789 38.6537 37.1628 38.586 37.4883L38.3555 38.5664C38.2618 39.0013 38.2344 39.3594 38.2735 39.6406C38.3126 39.9193 38.4102 40.1224 38.5665 40.25C38.7253 40.3776 38.9324 40.4414 39.1876 40.4414C39.5808 40.4414 39.9154 40.293 40.1915 39.9961C40.4701 39.6966 40.6784 39.2201 40.8165 38.5664Z" fill="#EE0033"/>
<path d="M13.5444 19.7335L13.1129 27.5698L10.7709 27.899L10.9579 24.3292L9.20387 27.4194L8.07101 27.5786L6.50878 24.9989L6.30476 28.5266L3.96277 28.8558L4.41615 21.0164L6.5076 20.7225L8.73283 24.5419L11.355 20.0412L13.5444 19.7335ZM14.8091 19.5558L17.3799 19.1945L16.9265 27.0339L14.3558 27.3951L14.8091 19.5558ZM27.7457 17.7376L27.3141 25.574L24.9721 25.9031L25.1591 22.3333L23.4051 25.4235L22.2723 25.5827L20.71 23.0031L20.506 26.5308L18.164 26.8599L18.6174 19.0205L20.7089 18.7266L22.9341 22.5461L25.5562 18.0454L27.7457 17.7376ZM33.9256 23.2896L31.0172 23.6983L30.4415 25.1344L27.7291 25.5156L31.5158 17.2078L34.0429 16.8526L36.9228 24.2236L34.363 24.5833L33.9256 23.2896ZM33.3059 21.4883L32.6615 19.5905L31.8136 21.698L33.3059 21.4883ZM42.0503 19.6373L44.6309 23.1402L41.8532 23.5306L40.63 21.7031L39.2498 23.8965L36.178 24.3282L39.2185 19.8798L36.773 16.4689L39.518 16.0832L40.7227 17.8578L42.0887 15.7219L44.9863 15.3146L42.0503 19.6373Z" fill="white"/>
</svg>
