<svg width="40" height="40" viewBox="0 0 40 40" fill="none" xmlns="http://www.w3.org/2000/svg">
<path d="M32.0279 36.0284H9.25342V22.201L20.6406 13.2539L32.0279 21.3876V36.0284Z" fill="#DCDCDC"/>
<mask id="mask0" mask-type="alpha" maskUnits="userSpaceOnUse" x="9" y="13" width="24" height="24">
<path d="M32.0279 36.0284H9.25342V22.201L20.6406 13.2539L32.0279 21.3876V36.0284Z" fill="#DCDCDC"/>
</mask>
<g mask="url(#mask0)">
<rect x="21.0474" y="11.627" width="14.234" height="27.6547" fill="#C4C4C4"/>
</g>
<path d="M34.1251 36.0283H7.62695V34.4016H34.1251V36.0283Z" fill="#727272"/>
<path d="M24.2536 34.4011H17.7466V27.6842C17.7466 26.005 19.205 24.6406 21.0001 24.6406C22.7951 24.6406 24.2536 26.005 24.2536 27.6842V34.4011Z" fill="#EE0033"/>
<mask id="mask1" mask-type="alpha" maskUnits="userSpaceOnUse" x="17" y="24" width="8" height="11">
<path d="M24.2536 34.4011H17.7466V27.6842C17.7466 26.005 19.205 24.6406 21.0001 24.6406C22.7951 24.6406 24.2536 26.005 24.2536 27.6842V34.4011Z" fill="#C4C4C4"/>
</mask>
<g mask="url(#mask1)">
<rect x="21" y="21.3867" width="4.88024" height="14.6407" fill="#92001F"/>
</g>
<path fill-rule="evenodd" clip-rule="evenodd" d="M21 10L35.183 20.0116C35.6342 20.33 35.7418 20.954 35.4233 21.4052L34.208 23.127C33.8988 23.565 33.2991 23.6812 32.8487 23.3905L21 15.7425L9.15133 23.3905C8.70086 23.6812 8.10124 23.565 7.79205 23.127L6.57668 21.4052C6.25819 20.954 6.36577 20.33 6.81697 20.0116L21 10Z" fill="#EE0033"/>
<mask id="mask2" mask-type="alpha" maskUnits="userSpaceOnUse" x="6" y="10" width="30" height="14">
<path fill-rule="evenodd" clip-rule="evenodd" d="M21 10L35.183 20.0116C35.6342 20.33 35.7418 20.954 35.4233 21.4052L34.208 23.127C33.8988 23.565 33.2991 23.6812 32.8487 23.3905L21 15.7425L9.15133 23.3905C8.70086 23.6812 8.10124 23.565 7.79205 23.127L6.57668 21.4052C6.25819 20.954 6.36577 20.33 6.81697 20.0116L21 10Z" fill="#EE0033"/>
</mask>
<g mask="url(#mask2)">
<rect x="21.0474" y="8.37305" width="15.8608" height="16.2675" fill="#92001F"/>
</g>
<path d="M15.6078 8.79316C15.6078 10.1344 15.1734 11.5321 14.1659 12.9016C13.624 13.6383 12.6053 14.7674 11.8454 15.4704C11.3301 15.947 10.8724 16.0792 10.4118 15.8238C10.0907 15.6457 9.79895 15.3903 9.52267 15.1485C8.8851 14.5906 7.85321 13.4607 7.44187 12.9016C6.43441 11.5321 6 10.1344 6 8.79316C6 6.14597 8.15077 4 10.8039 4C13.457 4 15.6078 6.14597 15.6078 8.79316Z" fill="#EE0033"/>
<path d="M13.2057 8.78533C13.2057 10.1068 12.1304 11.1781 10.8038 11.1781C9.47724 11.1781 8.40186 10.1068 8.40186 8.78533C8.40186 7.46385 9.47724 6.39258 10.8038 6.39258C12.1304 6.39258 13.2057 7.46385 13.2057 8.78533Z" fill="#92001F"/>
</svg>
