<svg width="363" height="86" viewBox="0 0 363 86" fill="none" xmlns="http://www.w3.org/2000/svg">
<mask id="mask0_6310_2032" style="mask-type:alpha" maskUnits="userSpaceOnUse" x="0" y="0" width="363" height="86">
<path d="M20.2539 0C9.20821 0 0.253906 8.95431 0.253906 20V86C0.253906 74.9551 9.20703 66 20.2539 66H362.254V20C362.254 8.95431 353.3 0 342.254 0H20.2539Z" fill="#BE0129"/>
</mask>
<g mask="url(#mask0_6310_2032)">
<path d="M20.2539 0C9.20821 0 0.253906 8.95431 0.253906 20V86C0.253906 74.9551 9.20703 66 20.2539 66H362.254V20C362.254 8.95431 353.3 0 342.254 0H20.2539Z" fill="#BE0129"/>
<path d="M83.4396 -5.12228C88.1742 -5.12228 92.7279 -3.68063 96.6331 -0.964258C100.629 1.81281 103.614 5.71285 105.258 10.3261L111.048 26.5181C113.144 32.3909 112.842 38.719 110.204 44.3642C107.565 50.0094 102.906 54.2737 97.0704 56.383L61.4706 69.2668C55.59 71.3913 50.3277 74.5175 45.8495 78.5541C42.2608 81.7712 39.1698 85.5802 36.6366 89.8748C33.3647 95.4441 31.9021 100.391 31.3894 102.47L16.4921 60.7231L12.8733 50.6012L10.702 44.5312C8.60612 38.6583 8.90769 32.3302 11.5464 26.6851C14.1851 21.0399 18.8443 16.7756 24.6796 14.6663L75.5838 -3.7565C78.1321 -4.65184 80.7708 -5.12228 83.4396 -5.12228ZM83.4396 -5.42578C80.8009 -5.42578 78.117 -4.97052 75.4934 -4.02966L24.5891 14.3931C12.3757 18.8091 6.04282 32.3454 10.4306 44.6374L12.6019 50.7075L16.2207 60.8294L31.4648 103.517C31.4648 103.517 35.943 78.7969 61.5761 69.5248L97.1759 56.641C109.389 52.225 115.722 38.6887 111.334 26.3967L105.544 10.2047C102.091 0.583619 93.0596 -5.42578 83.4396 -5.42578Z" fill="#DADADA"/>
<path d="M91.9281 -19.8156C98.3396 -19.8156 104.506 -17.8633 109.795 -14.1848C115.206 -10.4241 119.249 -5.14276 121.474 1.10448L129.315 23.0315C132.153 30.9844 131.745 39.5538 128.172 47.1985C124.598 54.8431 118.289 60.6177 110.387 63.4742L62.1779 80.9212C54.2146 83.7983 47.0884 88.0316 41.024 93.4979C36.1643 97.8546 31.9785 103.013 28.5481 108.828C24.1172 116.37 22.1366 123.07 21.4423 125.885L1.26855 69.3515L-3.63197 55.6446L-6.57228 47.4245C-9.4105 39.4716 -9.00212 30.9022 -5.42883 23.2575C-1.85553 15.6129 4.45388 9.83829 12.356 6.98182L81.2899 -17.966C84.7407 -19.1785 88.314 -19.8156 91.9281 -19.8156ZM91.9281 -20.2266C88.3548 -20.2266 84.7203 -19.6101 81.1674 -18.336L12.2335 6.61193C-4.30579 12.592 -12.8817 30.9227 -6.93982 47.5684L-3.99951 55.7884L0.901008 69.4954L21.5444 127.303C21.5444 127.303 27.6088 93.8267 62.3208 81.2706L110.53 63.8235C127.069 57.8434 135.645 39.5127 129.703 22.8671L121.862 0.940084C117.186 -12.0887 104.955 -20.2266 91.9281 -20.2266Z" fill="#DADADA"/>
<path d="M99.2939 -34.4899C107.251 -34.4899 114.904 -32.067 121.467 -27.5018C128.183 -22.8346 133.2 -16.28 135.962 -8.52682L145.693 18.686C149.216 28.556 148.709 39.1912 144.274 48.6787C139.84 58.1662 132.009 65.3328 122.202 68.8779L62.372 90.5308C52.489 94.1014 43.645 99.3552 36.1187 106.139C30.0875 111.546 24.8926 117.948 20.6353 125.165C15.1363 134.525 12.6782 142.84 11.8166 146.334L-13.2203 76.1721L-19.3022 59.1609L-22.9513 48.9593C-26.4737 39.0892 -25.9669 28.454 -21.5322 18.9665C-17.0975 9.47902 -9.26713 2.31239 0.539856 -1.23267L86.0912 -32.1946C90.3739 -33.6993 94.8085 -34.4899 99.2939 -34.4899ZM99.2939 -35C94.8592 -35 90.3485 -34.2349 85.9392 -32.6536L0.387808 -1.69174C-20.1384 5.72993 -30.7817 28.4795 -23.4074 49.1378L-19.7583 59.3394L-13.6765 76.3506L11.9433 148.093C11.9433 148.093 19.4696 106.547 62.5494 90.9644L122.38 69.3115C142.906 61.8898 153.549 39.1402 146.175 18.4819L136.444 -8.73085C130.641 -24.9004 115.462 -35 99.2939 -35Z" fill="#DADADA"/>
<path d="M107.375 -54.3787C117.055 -54.3787 126.365 -51.4278 134.35 -45.8675C142.52 -40.183 148.624 -32.1999 151.985 -22.7568L163.823 10.3872C168.108 22.4085 167.492 35.3617 162.097 46.9171C156.701 58.4725 147.175 67.2011 135.244 71.5189L62.4562 97.8912C50.4328 102.24 39.6734 108.639 30.5171 116.902C23.1797 123.487 16.8597 131.284 11.6804 140.075C4.99043 151.475 1.99999 161.601 0.951794 165.857L-29.5076 80.4028L-36.9066 59.6839L-41.346 47.2588C-45.6313 35.2375 -45.0147 22.2843 -39.6196 10.7289C-34.2244 -0.826439 -24.6982 -9.5551 -12.7672 -13.8728L91.3125 -51.5831C96.5226 -53.4158 101.918 -54.3787 107.375 -54.3787ZM107.375 -55C101.979 -55 96.4918 -54.0681 91.1275 -52.1422L-12.9522 -14.432C-37.924 -5.39267 -50.8723 22.3154 -41.9009 47.4762L-37.4615 59.9014L-30.0625 80.6203L1.10594 168C1.10594 168 10.2622 117.399 62.672 98.4193L135.46 72.0469C160.432 63.0076 173.38 35.2996 164.409 10.1387L152.57 -23.0053C145.51 -42.6991 127.044 -55 107.375 -55Z" fill="#DADADA"/>
</g>
</svg>
