<svg width="264" height="362" fill="none" xmlns="http://www.w3.org/2000/svg"><g clip-path="url(#clip0)"><path d="M0 10C0 4.477 4.477 0 10 0h244c5.523 0 10 4.477 10 10v241H0V10z" fill="#E03"/><circle cx="56" cy="15" r="35" fill="url(#paint0_linear)"/><circle cx="252.5" cy="112.5" r="58.5" fill="url(#paint1_linear)"/><circle cx="106" cy="152" r="39" fill="url(#paint2_linear)"/><circle cx="201.5" cy="23.5" r="12.5" fill="url(#paint3_linear)"/></g><defs><linearGradient id="paint0_linear" x1="35.933" y1="-20" x2="59.248" y2="26.853" gradientUnits="userSpaceOnUse"><stop stop-color="#EF0134"/><stop offset="1" stop-color="#BB0229"/></linearGradient><linearGradient id="paint1_linear" x1="218.96" y1="54" x2="257.929" y2="132.311" gradientUnits="userSpaceOnUse"><stop stop-color="#EF0134"/><stop offset="1" stop-color="#BB0229"/></linearGradient><linearGradient id="paint2_linear" x1="83.64" y1="113" x2="109.62" y2="165.207" gradientUnits="userSpaceOnUse"><stop stop-color="#EF0134"/><stop offset="1" stop-color="#BB0229"/></linearGradient><linearGradient id="paint3_linear" x1="194.333" y1="11" x2="202.66" y2="27.733" gradientUnits="userSpaceOnUse"><stop stop-color="#EF0134"/><stop offset="1" stop-color="#BB0229"/></linearGradient><clipPath id="clip0"><path d="M0 8a8 8 0 018-8h248a8 8 0 018 8v346a8 8 0 01-8 8H0V8z" fill="#fff"/></clipPath></defs></svg>