<svg width="167" height="167" viewBox="0 0 167 167" fill="none" xmlns="http://www.w3.org/2000/svg">
<path d="M83.4998 152.7C121.718 152.7 152.7 121.718 152.7 83.5C152.7 45.2819 121.718 14.3 83.4998 14.3C45.2817 14.3 14.2998 45.2819 14.2998 83.5C14.2998 121.718 45.2817 152.7 83.4998 152.7Z" fill="url(#paint0_linear)"/>
<path d="M83.5 167C37.5 167 0 129.6 0 83.5C0 37.5 37.5 0 83.5 0C129.5 0 167 37.5 167 83.5C167 129.6 129.6 167 83.5 167ZM83.5 1C38 1 1 38 1 83.5C1 129 38 166 83.5 166C129 166 166 129 166 83.5C166 38 129 1 83.5 1Z" fill="url(#paint1_linear)"/>
<path d="M115 74V110.1C115 110.9 114.3 111.6 113.5 111.6H54.4004C53.6004 111.6 52.9004 110.9 52.9004 110.1V74C52.9004 73.2 53.6004 72.5 54.4004 72.5C55.2004 72.5 55.9004 73.2 55.9004 74V108.7H112.1V74C112.1 73.2 112.8 72.5 113.6 72.5C114.4 72.5 115 73.2 115 74Z" fill="white"/>
<path d="M123.7 69.4C123.3 70.1 122.4 70.4 121.7 70L84.7003 49.4C84.0003 49 83.3003 49 82.6003 49.4L45.6003 70C45.3003 70.2 44.9003 70.2 44.5003 70.1C44.1003 70 43.8003 69.7 43.6003 69.4C43.4003 69.1 43.4003 68.7 43.5003 68.3C43.6003 67.9 43.8003 67.6 44.2003 67.4L83.0003 45.8C83.2003 45.7 83.5003 45.6 83.7003 45.6C83.9003 45.6 84.2003 45.7 84.4003 45.8L123.2 67.4C123.9 67.8 124.1 68.7 123.7 69.4Z" fill="white"/>
<path d="M91.6006 73.2H70.1006C69.3006 73.2 68.6006 73.9 68.6006 74.7V85.2C68.6006 86 69.3006 86.7 70.1006 86.7H80.2006V91.8H68.6006V94.7H83.1006V86.7H91.6006C92.4006 86.7 93.1006 86 93.1006 85.2V74.6C93.1006 73.8 92.4006 73.2 91.6006 73.2ZM90.1006 83.6H71.5006V76H90.1006V83.6Z" fill="white"/>
<path d="M98.8004 75.7H95.9004V84H98.8004V75.7Z" fill="white"/>
<path d="M98.8004 84H95.9004V75.7H98.8004V84Z" fill="white"/>
<defs>
<linearGradient id="paint0_linear" x1="14.3349" y1="83.5129" x2="152.69" y2="83.5129" gradientUnits="userSpaceOnUse">
<stop stop-color="#F0843F"/>
<stop offset="1" stop-color="#E81E36"/>
</linearGradient>
<linearGradient id="paint1_linear" x1="0" y1="83.5129" x2="167.025" y2="83.5129" gradientUnits="userSpaceOnUse">
<stop stop-color="#F0843F"/>
<stop offset="1" stop-color="#E81E36"/>
</linearGradient>
</defs>
</svg>
