<svg width="47" height="46" viewBox="0 0 47 46" fill="none" xmlns="http://www.w3.org/2000/svg">
<path d="M26.8818 8.43713H7.43628C6.12967 8.43713 5.05363 9.58382 5.05363 10.9598V15.8524C5.05363 16.9226 5.74537 17.9164 6.66769 18.2986C8.43546 18.9866 9.74207 20.8213 9.74207 23.0382C9.74207 25.2552 8.43546 27.0134 6.66769 27.7779C5.74537 28.0837 5.05363 29.0774 5.05363 30.1477V35.0402C5.05363 36.4162 6.12967 37.5629 7.43628 37.5629H26.8818V8.43713Z" fill="#C4C4C4"/>
<path d="M39.41 8.43713H29.4182V37.5629H39.41C40.7934 37.5629 41.9463 36.4162 41.9463 35.0402V30.1477C41.9463 29.0774 41.2546 28.0837 40.1786 27.7014C38.2571 27.0134 36.8736 25.1787 36.8736 22.9618C36.8736 20.7449 38.2571 18.9866 40.1786 18.2222C41.1777 17.8399 41.9463 16.9226 41.9463 15.7759V10.9598C41.9463 9.58382 40.7934 8.43713 39.41 8.43713Z" fill="#EE0033"/>
<path d="M39.41 8.43713C40.7934 8.43713 41.9463 9.58382 41.9463 11.495V10.9598C41.9463 9.58382 40.7934 8.43713 39.41 8.43713Z" fill="#EE0033"/>
<path d="M28.4191 8.43713H26.6513V37.5629H28.4191V8.43713Z" fill="#C4C4C4"/>
<path d="M8.58924 19.3689L8.43552 19.216C8.43552 19.2924 8.51238 19.3689 8.58924 19.3689Z" fill="#C4C4C4"/>
<path d="M30.4174 8.43713H28.419V37.5629H30.4174V8.43713Z" fill="#92001F"/>
<path d="M19.0729 18.1425C20.6442 18.1425 21.8057 18.5456 22.5572 19.3517C23.3224 20.1579 23.705 21.2647 23.705 22.6721C23.705 23.0273 23.664 23.3211 23.582 23.5534C23.5 23.7857 23.3839 23.9701 23.2336 24.1068C23.0832 24.2434 22.9056 24.3391 22.7007 24.3937C22.5094 24.4484 22.2976 24.4757 22.0653 24.4757H16.6134C16.6271 25.0086 16.709 25.4595 16.8593 25.8284C17.0096 26.1837 17.2146 26.4775 17.4742 26.7098C17.7338 26.9284 18.0344 27.0855 18.376 27.1812C18.7176 27.2768 19.0866 27.3246 19.4828 27.3246C19.9201 27.3246 20.3505 27.27 20.774 27.1607C21.1976 27.0514 21.5666 26.9216 21.8808 26.7712C22.0994 26.6756 22.2498 26.7166 22.3317 26.8942L22.8851 28.0625C22.9808 28.2811 22.9329 28.4382 22.7417 28.5339C22.2224 28.8482 21.6554 29.0668 21.0405 29.1898C20.4256 29.3127 19.8381 29.3742 19.2778 29.3742C17.6245 29.3742 16.3606 28.9301 15.4861 28.042C14.6116 27.1538 14.1744 25.7465 14.1744 23.8198C14.1744 22.918 14.2974 22.1187 14.5433 21.4218C14.7893 20.7113 15.124 20.1169 15.5476 19.6387C15.9848 19.1468 16.5041 18.7779 17.1053 18.5319C17.7065 18.2723 18.3624 18.1425 19.0729 18.1425ZM19.1139 20.1306C18.745 20.1306 18.417 20.2057 18.1301 20.356C17.8431 20.4927 17.5972 20.684 17.3922 20.9299C17.1873 21.1759 17.0233 21.456 16.9003 21.7703C16.7774 22.0845 16.709 22.4125 16.6954 22.7541H21.4094C21.4094 22.3851 21.3753 22.0435 21.3069 21.7293C21.2386 21.415 21.1156 21.1417 20.938 20.9094C20.774 20.6635 20.5418 20.4722 20.2412 20.3355C19.9542 20.1989 19.5785 20.1306 19.1139 20.1306Z" fill="white"/>
</svg>
