<svg width="64" height="64" viewBox="0 0 64 64" fill="none" xmlns="http://www.w3.org/2000/svg">
<path fill-rule="evenodd" clip-rule="evenodd" d="M13.2203 43.8506C13.2171 43.8503 13.2142 43.8485 13.2124 43.8459C13.2091 43.8408 13.2023 43.8395 13.1973 43.8428L13.1947 43.8445C13.1919 43.8464 13.1886 43.8472 13.1854 43.8468L9.46597 43.4387C9.05487 43.3936 8.76986 43.8386 8.9828 44.1932L10.0383 45.9504C10.0455 45.9625 10.0566 45.9717 10.0697 45.9767C10.0818 45.9814 10.0922 45.9897 10.0994 46.0004C12.7354 49.9348 16.3938 53.0773 20.682 55.0895C24.9942 57.1131 29.7784 57.9164 34.5151 57.4123C39.2518 56.9082 43.7597 55.1159 47.5495 52.23C51.2065 49.4452 54.0597 45.7449 55.8236 41.5065C55.9297 41.2516 55.803 40.961 55.5461 40.8598L52.9544 39.8391C52.6975 39.7379 52.4077 39.8645 52.3007 40.1191C50.7909 43.7139 48.3628 46.8527 45.2561 49.2184C42.0167 51.6852 38.1633 53.2172 34.1145 53.6482C30.0656 54.0791 25.9761 53.3924 22.2901 51.6627C20.2815 50.7201 18.4346 49.4875 16.8045 48.0124C16.5807 47.8098 16.5953 47.4565 16.8301 47.2668L19.1863 45.3627C19.532 45.0832 19.3684 44.5253 18.9265 44.4768L13.2203 43.8506Z" fill="#828282"/>
<path fill-rule="evenodd" clip-rule="evenodd" d="M50.7576 21.1454C50.7606 21.1459 50.7633 21.1477 50.7649 21.1504C50.7678 21.1553 50.7742 21.157 50.7792 21.154L50.7817 21.1525C50.7844 21.1509 50.7876 21.1503 50.7907 21.1508L54.4812 21.753C54.8894 21.8195 55.1974 21.3901 55.0033 21.0249L54.0402 19.2124C54.0344 19.2015 54.0251 19.1928 54.0138 19.1878C54.0033 19.1832 53.9946 19.1754 53.9887 19.1656C51.5624 15.0966 48.0729 11.7652 43.8947 9.53018C39.6945 7.28335 34.959 6.23032 30.2024 6.48545C25.4458 6.74057 20.8501 8.29411 16.9143 10.9773C13.1163 13.5666 10.073 17.1123 8.0894 21.2523C7.97008 21.5014 8.08138 21.7982 8.33265 21.9127L10.8672 23.0679C11.1185 23.1824 11.4145 23.0712 11.5347 22.8226C13.2309 19.3118 15.8202 16.3047 19.0466 14.105C22.4109 11.8115 26.3393 10.4835 30.4051 10.2654C34.471 10.0473 38.5189 10.9475 42.1092 12.868C44.065 13.9143 45.8443 15.2415 47.3944 16.7994C47.6074 17.0134 47.5742 17.3655 47.3298 17.5427L44.8752 19.3221C44.5152 19.583 44.6493 20.1488 45.0881 20.2204L50.7576 21.1454Z" fill="#828282"/>
<path d="M39.0347 42.0958C44.2925 42.0958 48.5714 37.8169 48.5714 32.5592C48.5714 27.3014 44.2925 23.0225 39.0347 23.0225C33.777 23.0225 29.498 27.3014 29.498 32.5592C29.498 37.8169 33.7728 42.0958 39.0347 42.0958Z" fill="#C4C4C4"/>
<path d="M26.3179 42.0958C31.5757 42.0958 35.8546 37.8169 35.8546 32.5592C35.8546 27.3014 31.5757 23.0225 26.3179 23.0225C21.0602 23.0225 16.7812 27.3014 16.7812 32.5592C16.7812 37.8169 21.056 42.0958 26.3179 42.0958Z" fill="#EE0033"/>
</svg>
