<svg width="75" height="75" viewBox="0 0 75 75" fill="none" xmlns="http://www.w3.org/2000/svg">
<path d="M37.5 53.625C37.7761 53.625 38 53.4011 38 53.125C38 52.8489 37.7761 52.625 37.5 52.625V53.625ZM34.375 52.625C34.0989 52.625 33.875 52.8489 33.875 53.125C33.875 53.4011 34.0989 53.625 34.375 53.625V52.625ZM49.5 18.75V56.25H50.5V18.75H49.5ZM43.75 62H28.125V63H43.75V62ZM22.375 56.25V18.75H21.375V56.25H22.375ZM43.75 12H28.125V13H43.75V12ZM28.125 62C24.9494 62 22.375 59.4256 22.375 56.25H21.375C21.375 59.9779 24.3971 63 28.125 63V62ZM49.5 56.25C49.5 59.4256 46.9256 62 43.75 62V63C47.4779 63 50.5 59.9779 50.5 56.25H49.5ZM50.5 18.75C50.5 15.0221 47.4779 12 43.75 12V13C46.9256 13 49.5 15.5744 49.5 18.75H50.5ZM22.375 18.75C22.375 15.5744 24.9494 13 28.125 13V12C24.3971 12 21.375 15.0221 21.375 18.75H22.375ZM37.5 52.625H34.375V53.625H37.5V52.625Z" fill="white"/>
</svg>
