<svg width="44" height="44" viewBox="0 0 44 44" fill="none" xmlns="http://www.w3.org/2000/svg">
<path d="M11.05 25.2693C11.05 24.4993 11.1867 23.758 11.4362 23.0743H8.98208C6.45595 23.0743 4.40002 25.1302 4.40002 27.6563V32.7158C4.40002 34.2319 5.6331 35.465 7.14926 35.465H11.2083C11.1076 35.1771 11.05 34.8701 11.05 34.5486V25.2693Z" fill="#828282"/>
<path d="M14.5616 32.9177V34.8608C14.5616 35.0671 14.5832 35.2711 14.6264 35.4654H13.7987C13.2926 35.4654 12.8823 35.0551 12.8823 34.549V25.2697C12.8823 22.7412 14.9383 20.6852 17.4668 20.6852H21.2452C17.2269 23.2761 14.5616 27.791 14.5616 32.9177Z" fill="#C4C4C4"/>
<path d="M20.2732 8.53448C17.2337 8.53448 14.7604 11.0078 14.7604 14.0473C14.7604 16.1081 15.8975 17.9097 17.5792 18.8549C18.3756 19.3035 19.2945 19.5602 20.2732 19.5602C21.252 19.5602 22.1708 19.3035 22.9673 18.8549C24.6466 17.9097 25.7861 16.1081 25.7861 14.0473C25.7837 11.0078 23.3127 8.53448 20.2732 8.53448Z" fill="#C4C4C4"/>
<path d="M10.5939 13.6732C8.32203 13.6732 6.47241 15.5228 6.47241 17.7946C6.47241 20.0664 8.32203 21.9161 10.5939 21.9161C11.1696 21.9161 11.719 21.7961 12.218 21.5826C13.0792 21.2108 13.7917 20.5534 14.2307 19.7306C14.5402 19.1524 14.7153 18.4927 14.7153 17.7946C14.7177 15.5204 12.8681 13.6732 10.5939 13.6732Z" fill="#828282"/>
<circle cx="27" cy="31" r="10" fill="#EE0033"/>
<path fill-rule="evenodd" clip-rule="evenodd" d="M32.7043 26.3454C33.0986 26.8059 33.0986 27.5526 32.7043 28.0131L26.1613 35.6546C25.972 35.8758 25.7152 36 25.4474 36C25.1796 36 24.9228 35.8758 24.7334 35.6546L21.2957 31.6397C20.9014 31.1792 20.9014 30.4325 21.2957 29.972C21.69 29.5115 22.3293 29.5115 22.7237 29.972L25.4474 33.1531L31.2763 26.3454C31.6707 25.8849 32.31 25.8849 32.7043 26.3454Z" fill="white"/>
</svg>
