<svg width="216" height="75" fill="none" xmlns="http://www.w3.org/2000/svg"><path d="M50.193 8.925H46.6a2.591 2.591 0 00-2.591 2.59v26.602a2.577 2.577 0 002.59 2.59h3.594a2.58 2.58 0 002.58-2.59V11.516a2.58 2.58 0 00-2.58-2.591zM37.282 8.925a5.631 5.631 0 00-5.078 3.305l-9.546 20.267c-.22.472-.68 1.255-1.048 1.255-.369 0-.83-.783-1.048-1.255L10.958 12.23a5.631 5.631 0 00-5.09-3.305H.318l15.085 29.33c1.497 2.879 4.606 2.821 6.15 2.821 2.176 0 4.72-.126 6.068-2.82L42.764 8.924h-5.482zM204.592 4.053a2.59 2.59 0 00-2.591-2.59h-3.593a2.591 2.591 0 00-2.591 2.59v26.279c0 4.019 1.428 6.356 3.973 8.06 2.545 1.705 5.32 2.304 10.652 2.304h2.879a2.591 2.591 0 002.591-2.591v-2.81h-2.176c-1.578 0-4.871-.057-6.818-1.37-2.556-1.681-2.303-4.675-2.303-6.84l-.023-23.032zM148.444 35.307c-1.578 0-4.883-.058-6.829-1.37-2.545-1.682-2.303-4.676-2.303-6.841v-12.77h8.521a2.592 2.592 0 002.591-2.592v-2.81h-11.101v-4.87a2.594 2.594 0 00-2.591-2.592h-3.592a2.577 2.577 0 00-2.58 2.591v4.871h-18.333v-4.87a2.59 2.59 0 00-2.591-2.592h-3.593a2.591 2.591 0 00-2.591 2.591v4.871h-5.47v2.81a2.59 2.59 0 002.591 2.591h2.879v16.007c0 4.019 1.428 6.356 3.985 8.06 2.556 1.705 5.32 2.304 10.64 2.304h2.879a2.578 2.578 0 002.591-2.591v-2.81h-2.199c-1.567 0-4.872-.057-6.818-1.37-2.545-1.681-2.303-4.675-2.303-6.84V14.314h18.333v16.007c0 4.018 1.416 6.356 3.973 8.06 2.556 1.705 5.32 2.304 10.64 2.304h2.891a2.585 2.585 0 001.828-.76 2.575 2.575 0 00.751-1.831v-2.81l-2.199.023zM94.756 38.117v-2.81H75.341c-3.224 0-6.91-.358-8.061-3.778a18.608 18.608 0 01-.518-4.375h23.031a6.61 6.61 0 004.272-1.152 5.676 5.676 0 001.877-4.802c0-4.019-.978-7.969-5.63-10.306-3.674-1.866-8.465-2.05-13.117-2.05-3.743 0-10.49 0-14.844 3.005-4.353 3.006-4.721 7.382-4.721 13.313 0 4.203.23 8.579 2.844 11.515 3.305 3.72 8.061 4.019 12.15 4.019h19.45a2.59 2.59 0 002.59-2.591l.092.012zm-7.888-18.23c0 .84-.23 1.854-1.946 1.854h-12.38c-3.178 0-5.757 1.451-5.757 3.248V21.74c.069-2.096 0-3.834 1.796-5.458 2.395-2.153 6-2.096 8.326-2.096 2.326 0 5.32.127 7.497 1.44a5.137 5.137 0 012.545 4.26M189.599 38.117v-2.81h-19.415c-3.225 0-6.91-.358-8.061-3.778a18.54 18.54 0 01-.53-4.375h23.031a6.656 6.656 0 004.284-1.152 5.665 5.665 0 001.865-4.802c0-4.019-.967-7.969-5.619-10.306-3.674-1.866-8.476-2.05-13.116-2.05-3.754 0-10.503 0-14.844 3.005-4.341 3.006-4.721 7.382-4.721 13.313 0 4.203.218 8.579 2.844 11.515 3.293 3.72 8.061 4.019 12.149 4.019h19.519a2.59 2.59 0 002.591-2.591l.023.012zm-7.819-18.23c0 .84-.23 1.854-1.958 1.854h-12.414c-3.166 0-5.757 1.451-5.757 3.248V21.74c.08-2.096 0-3.834 1.808-5.458 2.395-2.153 5.999-2.096 8.314-2.096 2.314 0 5.331.127 7.496 1.44a5.105 5.105 0 012.557 4.26M50.193 0H46.6a2.591 2.591 0 00-2.591 2.591V9.27c0-1.566 1.739-3.374 4.376-3.374h1.808a2.579 2.579 0 002.58-2.59V2.59A2.58 2.58 0 0050.192 0zM60.234 71.109V60.446l-3.524-.012v-1.21l8.625.012v1.21h-3.443v11.1h-1.658v-.437zM66.163 59.225h1.647v3.017h3.581a4.33 4.33 0 012.683.725 2.937 2.937 0 01.945 2.464v6.207H73.36v-6a2.304 2.304 0 00-.495-1.623 2.14 2.14 0 00-1.681-.564H67.81v8.2h-1.647V59.224zM80.409 71.638a4.72 4.72 0 01-1.9-.334 2.729 2.729 0 01-1.152-.933 3.901 3.901 0 01-.564-1.473 12.254 12.254 0 01-.138-1.923 8.861 8.861 0 01.242-2.223 3.455 3.455 0 01.806-1.509c.406-.404.91-.697 1.462-.852.73-.19 1.48-.279 2.234-.264a9.918 9.918 0 011.912.172 4.099 4.099 0 011.485.587c.423.294.764.69.99 1.152.253.556.375 1.163.358 1.773.03.433-.088.864-.334 1.221a1.474 1.474 0 01-1.22.426h-6.23c0 .386.028.77.08 1.152.051.336.165.66.334.956.18.288.435.522.737.679.39.189.822.276 1.255.254h5.101v1.209l-5.458-.07zm3.524-5.412a.438.438 0 00.391-.161.635.635 0 00.08-.323v-.103a2.453 2.453 0 00-.218-1.152 1.728 1.728 0 00-.622-.725 2.684 2.684 0 00-.944-.392 5.681 5.681 0 00-1.152-.115c-.465-.01-.93.04-1.382.15-.349.082-.673.248-.944.483-.254.248-.44.557-.541.898-.129.442-.191.9-.184 1.36l5.516.08zM92.789 62.184c.813-.009 1.624.076 2.418.254.609.133 1.177.41 1.658.806.452.392.787.903.967 1.474.224.723.329 1.477.311 2.234a7.244 7.244 0 01-.31 2.303 3.316 3.316 0 01-.968 1.497 3.951 3.951 0 01-1.658.83 9.926 9.926 0 01-2.418.252 9.832 9.832 0 01-2.407-.253 3.882 3.882 0 01-1.659-.83 3.316 3.316 0 01-.967-1.496 6.91 6.91 0 01-.322-2.303c-.02-.758.089-1.513.322-2.234.18-.571.515-1.082.968-1.474a3.857 3.857 0 011.658-.806c.79-.178 1.597-.263 2.407-.254zm-3.616 4.768c-.01.57.055 1.14.195 1.692.105.431.319.828.622 1.152.32.31.718.524 1.152.622a7.415 7.415 0 003.385 0c.433-.1.831-.315 1.152-.622a2.81 2.81 0 00.622-1.152c.14-.553.206-1.122.195-1.692a6.264 6.264 0 00-.195-1.67 2.65 2.65 0 00-.622-1.152 2.546 2.546 0 00-1.152-.598 7.864 7.864 0 00-3.385 0 2.5 2.5 0 00-1.152.598c-.309.32-.524.718-.622 1.152a6.268 6.268 0 00-.195 1.67zM108.46 71.638a6.228 6.228 0 01-2.199-.334 3.217 3.217 0 01-1.348-.932 3.852 3.852 0 01-.691-1.486 9.238 9.238 0 01-.195-1.97 8.939 8.939 0 01.195-1.922 3.812 3.812 0 01.691-1.474 3.244 3.244 0 011.348-.945 5.977 5.977 0 012.199-.334h3.95v1.152h-3.65a3.962 3.962 0 00-1.578.254 1.949 1.949 0 00-.91.702 2.773 2.773 0 00-.426 1.082 9.007 9.007 0 00-.103 1.44c-.004.497.03.994.103 1.485.056.41.201.804.426 1.152.23.314.546.554.91.691.506.18 1.041.263 1.578.242h3.869v1.21l-4.169-.013zM119.873 62.242a2.728 2.728 0 012.061.69c.454.517.69 1.19.657 1.877v5.436a1.436 1.436 0 01-.357 1.082 1.81 1.81 0 01-1.279.346h-4.606a2.709 2.709 0 01-2.073-.703 3.915 3.915 0 010-4.306 2.637 2.637 0 012.073-.726h4.606v-1.152a1.334 1.334 0 00-.334-.967 1.47 1.47 0 00-1.151-.38h-5.033v-1.151l5.436-.046zm-3.248 4.87a1.154 1.154 0 00-1.036.45 2.306 2.306 0 00-.265 1.151c-.017.423.074.843.265 1.221a1.157 1.157 0 001.036.45h3.766a.563.563 0 00.415-.139.476.476 0 00.126-.345v-2.833l-4.307.046zm3.858-7.462l-2.787 2.05-.886-.99 2.786-2.073.887 1.013zM128.658 71.638a6.228 6.228 0 01-2.199-.334 3.073 3.073 0 01-1.347-.932 3.545 3.545 0 01-.691-1.486 9.175 9.175 0 01-.196-1.97 8.877 8.877 0 01.196-1.922 3.44 3.44 0 01.691-1.474c.355-.43.821-.757 1.347-.945a5.977 5.977 0 012.199-.334h3.95v1.152h-3.662a4.026 4.026 0 00-1.577.254 1.905 1.905 0 00-.898.702 2.608 2.608 0 00-.427 1.082 9.124 9.124 0 00-.103 1.44c-.004.497.03.994.103 1.485.051.412.197.807.427 1.152.225.313.537.554.898.691.506.179 1.041.26 1.577.242h3.916v1.21l-4.204-.013zM134.129 59.225h1.647v3.017h3.581a4.33 4.33 0 012.683.725 2.935 2.935 0 01.944 2.464v6.207h-1.658v-6a2.3 2.3 0 00-.495-1.623 2.14 2.14 0 00-1.681-.564h-3.374v8.2h-1.647V59.224zM153.591 71.638a6.228 6.228 0 01-2.199-.334 3.146 3.146 0 01-1.348-.932 3.684 3.684 0 01-.691-1.486 9.238 9.238 0 01-.195-1.97 8.876 8.876 0 01.195-1.922c.116-.537.353-1.041.691-1.474a3.166 3.166 0 011.348-.945 5.97 5.97 0 012.199-.334h3.95v1.152h-3.662a3.936 3.936 0 00-1.566.254c-.369.134-.687.379-.91.702a2.606 2.606 0 00-.426 1.082 9.125 9.125 0 00-.104 1.44c-.004.497.031.994.104 1.485.05.412.196.807.426 1.152.227.316.544.557.91.691a4.18 4.18 0 001.566.242h3.881v1.21l-4.169-.013zM168.077 70.096a1.36 1.36 0 01-.402 1.175 1.369 1.369 0 01-1.187.367h-3.858a4.213 4.213 0 01-2.625-.714 2.817 2.817 0 01-.899-2.303v-6.345h1.647v6.08c-.034.55.129 1.093.461 1.532a1.968 1.968 0 001.624.576h2.982c.16.01.318-.035.449-.127a.573.573 0 00.161-.472v-7.589h1.647v7.82zM163.552 60.158c.338-.108.51-.27.518-.484 0-.127-.092-.242-.276-.334a2.948 2.948 0 00-1.278-.196h-.899l-.103-.887c.458-.059.92-.078 1.382-.057a4.684 4.684 0 011.934.345c.541.242.829.576.841 1.014 0 .714-.553 1.151-1.751 1.266v.438h-1.117v-1.037a4.23 4.23 0 00.703-.103M176.218 62.242a2.726 2.726 0 012.061.69c.454.517.69 1.19.657 1.877v5.436a1.436 1.436 0 01-.357 1.082 1.809 1.809 0 01-1.279.346h-4.606a2.743 2.743 0 01-2.084-.703 3.973 3.973 0 010-4.306 2.661 2.661 0 012.084-.726h4.606v-1.151a1.39 1.39 0 00-.345-.968 1.47 1.47 0 00-1.152-.38h-5.078v-1.151l5.493-.046zm-3.247 4.87a1.156 1.156 0 00-1.037.45 2.306 2.306 0 00-.265 1.151c-.017.423.074.844.265 1.221a1.157 1.157 0 001.037.45h3.765a.531.531 0 00.517-.295.44.44 0 00.036-.19v-2.832l-4.318.046zM187.424 71.638a2.602 2.602 0 01-1.428-.322 1.312 1.312 0 01-.507-1.21V59.226h1.658v3.017h3.19a5.89 5.89 0 012.073.3c.51.187.963.504 1.313.92.338.427.571.928.679 1.463.146.642.215 1.3.207 1.958a8.62 8.62 0 01-.207 1.98 3.725 3.725 0 01-.679 1.497 3.17 3.17 0 01-1.313.944 5.574 5.574 0 01-2.073.334h-2.913zm-.277-1.853a.702.702 0 00.127.471c.08.115.265.174.541.174h2.223c.516.019 1.03-.071 1.508-.265.35-.163.646-.423.852-.75.208-.351.338-.744.38-1.15.123-.933.123-1.878 0-2.81a2.558 2.558 0 00-.38-1.083 1.84 1.84 0 00-.852-.702 3.672 3.672 0 00-1.508-.254h-2.891v6.369zM202.186 62.241a2.706 2.706 0 012.05.691c.454.517.69 1.19.656 1.877v5.436a1.459 1.459 0 01-.345 1.082c-.369.27-.824.393-1.278.346h-4.606a2.707 2.707 0 01-2.073-.703 3.916 3.916 0 010-4.306 2.632 2.632 0 012.073-.726h4.606v-1.152a1.345 1.345 0 00-.346-.967 1.461 1.461 0 00-1.151-.38h-5.079v-1.151l5.493-.047zm-3.247 4.871a1.15 1.15 0 00-1.037.45 2.305 2.305 0 00-.264 1.151c-.017.423.074.843.264 1.221a1.153 1.153 0 001.037.45h3.754a.563.563 0 00.415-.139.437.437 0 00.138-.345v-2.833l-4.307.046zM201.426 72.675h-1.969v1.773h1.969v-1.773zM207.057 63.773a1.632 1.632 0 01.357-1.152 1.608 1.608 0 011.232-.39h3.742a4.155 4.155 0 012.614.701 2.773 2.773 0 01.91 2.303v6.357h-1.658v-6.08a2.458 2.458 0 00-.449-1.543 1.981 1.981 0 00-1.635-.576h-2.856a.714.714 0 00-.449.127.582.582 0 00-.162.484v7.588h-1.646v-7.819z" fill="#fff"/></svg>