<svg width="169" height="32" viewBox="0 0 169 32" fill="none" xmlns="http://www.w3.org/2000/svg">
<g clip-path="url(#clip0)">
<path d="M38.9 6.8999H36.1C35 6.8999 34.1 7.7999 34.1 8.8999V29.6999C34.1 30.7999 35 31.6999 36.1 31.6999H38.9C40 31.6999 40.9 30.7999 40.9 29.6999V8.9999C40.9 7.7999 40 6.8999 38.9 6.8999Z" fill="white"/>
<path d="M28.8 6.8999C27 6.8999 25.6 7.9999 24.8 9.4999L17.4 25.2999C17.2 25.6999 16.9 26.2999 16.6 26.2999C16.3 26.2999 16 25.6999 15.8 25.2999L8.3 9.4999C7.6 7.9999 6.1 6.8999 4.3 6.8999H0L11.8 29.7999C13 31.9999 15.4 31.9999 16.6 31.9999C18.3 31.9999 20.3 31.8999 21.3 29.7999L33.2 6.8999H28.8Z" fill="white"/>
<path d="M159.4 3.1001C159.4 2.0001 158.5 1.1001 157.4 1.1001H154.6C153.5 1.1001 152.6 2.0001 152.6 3.1001V23.6001C152.6 26.7001 153.7 28.6001 155.7 29.9001C157.6 31.2001 159.9 31.7001 164 31.7001H166.2C167.3 31.7001 168.2 30.8001 168.2 29.7001V27.5001H166.5C165.3 27.5001 162.7 27.5001 161.2 26.4001C159.2 25.1001 159.4 22.8001 159.4 21.1001V3.1001Z" fill="white"/>
<path d="M115.6 27.5001C114.4 27.5001 111.8 27.5001 110.3 26.4001C108.3 25.1001 108.5 22.8001 108.5 21.1001V11.1001H115.1C116.2 11.1001 117.1 10.2001 117.1 9.1001V6.9001H108.4V3.1001C108.4 2.0001 107.5 1.1001 106.4 1.1001H103.6C102.5 1.1001 101.6 2.0001 101.6 3.1001V6.9001H87.3V3.1001C87.3 2.0001 86.4 1.1001 85.3 1.1001H82.5C81.4 1.1001 80.5 2.0001 80.5 3.1001V6.9001H76.2V9.1001C76.2 10.2001 77.1 11.1001 78.2 11.1001H80.4V23.6001C80.4 26.7001 81.5 28.6001 83.5 29.9001C85.4 31.2001 87.7 31.7001 91.8 31.7001H94.1C95.2 31.7001 96.1 30.8001 96.1 29.7001V27.5001H94.4C93.2 27.5001 90.6 27.5001 89.1 26.4001C87.1 25.1001 87.3 22.8001 87.3 21.1001V11.1001H101.6V23.6001C101.6 26.7001 102.7 28.6001 104.7 29.9001C106.6 31.2001 108.9 31.7001 113 31.7001H115.3C116.4 31.7001 117.3 30.8001 117.3 29.7001V27.5001H115.6Z" fill="white"/>
<path d="M73.7 29.7001V27.5H58.5C56 27.5 53.1 27.2 52.2001 24.6C52.0001 23.9 51.8 22.3 51.8 21.2H69.8001C71.0001 21.2 72.2 21 73.1 20.3C74.4 19.3 74.6 17.8 74.6 16.6C74.6 13.5 73.8 10.4 70.2 8.60005C67.4 7.00005 63.7 6.80005 60.1 6.80005C57.2 6.80005 51.9 6.80005 48.5 9.10005C45.1 11.4 44.8 14.9 44.8 19.5C44.8 22.8 45 26.2001 47 28.5C49.6 31.4 53.3 31.6 56.5 31.6H71.7C72.8 31.7 73.7 30.8001 73.7 29.7001ZM67.6 15.5C67.6 16.2 67.4 16.9 66.1 16.9H56.4001C53.9001 16.9 51.9001 18 51.9001 19.4V17C52.0001 15.4 51.9 14 53.3 12.7C55.2 11 58 11.1 59.8 11.1C61.7 11.1 64 11.2 65.6 12.2C66.6 12.8 67.6 14 67.6 15.5Z" fill="white"/>
<path d="M147.7 29.7V27.5H132.6C130.1 27.5 127.2 27.2 126.3 24.6C126.1 23.9 125.9 22.3 125.9 21.2H143.9C145.1 21.2 146.3 21 147.2 20.3C148.5 19.3 148.7 17.8 148.7 16.6C148.7 13.5 147.9 10.4 144.3 8.6C141.4 7.1 137.7 7 134.1 7C131.2 7 125.9 7 122.5 9.3C119.1 11.6 118.8 15.1 118.8 19.7C118.8 23 119 26.4 121 28.7C123.6 31.6 127.3 31.8 130.5 31.8H145.7C146.8 31.7 147.7 30.8 147.7 29.7ZM141.6 15.5C141.6 16.2 141.4 16.9 140.1 16.9H130.4C127.9 16.9 125.9 18 125.9 19.4V17C126 15.4 125.9 14 127.3 12.7C129.2 11 132 11.1 133.8 11.1C135.7 11.1 138 11.2 139.6 12.2C140.6 12.8 141.6 14 141.6 15.5Z" fill="white"/>
<path d="M38.9 0H36.1C35 0 34.1 0.9 34.1 2V2.6V7C34.3 5.9 35.6 4.7 37.5 4.7H38.9C40 4.7 40.9 3.8 40.9 2.7V2C40.9 0.9 40 0 38.9 0Z" fill="white"/>
</g>
<defs>
<clipPath id="clip0">
<rect width="168.2" height="32" fill="white"/>
</clipPath>
</defs>
</svg>
