<svg width="194" height="37" viewBox="0 0 194 37" fill="none" xmlns="http://www.w3.org/2000/svg">
<path d="M44.8664 7.97803H41.6369C40.3681 7.97803 39.3301 9.01865 39.3301 10.2905V34.3405C39.3301 35.6124 40.3681 36.653 41.6369 36.653H44.8664C46.1351 36.653 47.1731 35.6124 47.1731 34.3405V10.4062C47.1731 9.01865 46.1351 7.97803 44.8664 7.97803Z" fill="#EE0033"/>
<path d="M33.2176 7.97803C31.1415 7.97803 29.5268 9.2499 28.604 10.9843L20.069 29.253C19.8383 29.7155 19.4923 30.4093 19.1463 30.4093C18.8002 30.4093 18.4542 29.7155 18.2235 29.253L9.57313 10.9843C8.76576 9.2499 7.03567 7.97803 4.95957 7.97803H0L13.61 34.4562C14.9941 36.9999 17.7622 36.9999 19.1463 36.9999C21.107 36.9999 23.4138 36.8843 24.5672 34.4562L38.2925 7.97803H33.2176Z" fill="#EE0033"/>
<path d="M183.85 3.58447C183.85 2.3126 182.812 1.27197 181.543 1.27197H178.314C177.045 1.27197 176.007 2.3126 176.007 3.58447V27.2876C176.007 30.872 177.276 33.0688 179.582 34.572C181.774 36.0751 184.427 36.6532 189.155 36.6532H191.693C192.962 36.6532 194 35.6126 194 34.3407V31.797H192.039C190.655 31.797 187.656 31.797 185.926 30.5251C183.619 29.022 183.85 26.3626 183.85 24.397V3.58447Z" fill="#EE0033"/>
<path d="M133.332 31.797C131.948 31.797 128.949 31.797 127.219 30.5251C124.912 29.022 125.143 26.3626 125.143 24.397V12.8345H132.756C134.024 12.8345 135.062 11.7938 135.062 10.522V7.97822H125.028V3.58447C125.028 2.3126 123.99 1.27197 122.721 1.27197H119.492C118.223 1.27197 117.185 2.3126 117.185 3.58447V7.97822H100.691V3.58447C100.691 2.3126 99.6532 1.27197 98.3845 1.27197H95.155C93.8863 1.27197 92.8482 2.3126 92.8482 3.58447V7.97822H87.8887V10.522C87.8887 11.7938 88.9267 12.8345 90.1955 12.8345H92.7329V27.2876C92.7329 30.872 94.0016 33.0688 96.3084 34.572C98.4999 36.0751 101.153 36.6532 105.882 36.6532H108.534C109.803 36.6532 110.841 35.6126 110.841 34.3407V31.797H108.88C107.496 31.797 104.497 31.797 102.767 30.5251C100.461 29.022 100.691 26.3626 100.691 24.397V12.8345H117.185V27.2876C117.185 30.872 118.453 33.0688 120.76 34.572C122.952 36.0751 125.605 36.6532 130.333 36.6532H132.986C134.255 36.6532 135.293 35.6126 135.293 34.3407V31.797H133.332Z" fill="#EE0033"/>
<path d="M85.0048 34.3404V31.7967H67.4733C64.5898 31.7967 61.245 31.4498 60.207 28.4436C59.9763 27.6342 59.7456 25.7842 59.7456 24.5123H80.5066C81.8907 24.5123 83.2747 24.2811 84.3128 23.4717C85.8122 22.3154 86.0429 20.5811 86.0429 19.1936C86.0429 15.6092 85.1202 12.0248 80.968 9.94355C77.7385 8.09355 73.4709 7.8623 69.3187 7.8623C65.9739 7.8623 59.8609 7.8623 55.9394 10.5217C52.0179 13.1811 51.6719 17.2279 51.6719 22.5467C51.6719 26.3623 51.9026 30.2936 54.2093 32.9529C57.2081 36.3061 61.4757 36.5373 65.1665 36.5373H82.698C83.9668 36.6529 85.0048 35.6123 85.0048 34.3404ZM77.9691 17.9217C77.9691 18.7311 77.7385 19.5404 76.2391 19.5404H65.0512C62.1677 19.5404 59.8609 20.8123 59.8609 22.4311V19.6561C59.9763 17.8061 59.8609 16.1873 61.4757 14.6842C63.6671 12.7186 66.8966 12.8342 68.9727 12.8342C71.1641 12.8342 73.8169 12.9498 75.6624 14.1061C76.8158 14.7998 77.9691 16.1873 77.9691 17.9217Z" fill="#EE0033"/>
<path d="M170.355 34.3406V31.7969H152.939C150.056 31.7969 146.711 31.45 145.673 28.4437C145.442 27.6344 145.212 25.7844 145.212 24.5125H165.973C167.357 24.5125 168.741 24.2812 169.779 23.4719C171.278 22.3156 171.509 20.5812 171.509 19.1937C171.509 15.6094 170.586 12.025 166.434 9.94375C163.089 8.20938 158.822 8.09375 154.669 8.09375C151.324 8.09375 145.212 8.09375 141.29 10.7531C137.368 13.4125 137.022 17.4594 137.022 22.7781C137.022 26.5937 137.253 30.525 139.56 33.1844C142.559 36.5375 146.826 36.7687 150.517 36.7687H168.049C169.317 36.6531 170.355 35.6125 170.355 34.3406ZM163.32 17.9219C163.32 18.7312 163.089 19.5406 161.59 19.5406H150.402C147.518 19.5406 145.212 20.8125 145.212 22.4312V19.6562C145.327 17.8062 145.212 16.1875 146.826 14.6844C149.018 12.7187 152.247 12.8344 154.323 12.8344C156.515 12.8344 159.168 12.95 161.013 14.1062C162.166 14.8 163.32 16.1875 163.32 17.9219Z" fill="#EE0033"/>
<path d="M44.8664 0H41.6369C40.3681 0 39.3301 1.04062 39.3301 2.3125V3.00625V8.09375C39.5608 6.82188 41.0602 5.43437 43.2516 5.43437H44.8664C46.1351 5.43437 47.1731 4.39375 47.1731 3.12188V2.3125C47.1731 1.04062 46.1351 0 44.8664 0Z" fill="#EE0033"/>
</svg>
