<svg width="175" height="18" viewBox="0 0 175 18" fill="none" xmlns="http://www.w3.org/2000/svg">
<path fill-rule="evenodd" clip-rule="evenodd" d="M163.127 14.3134C161.299 14.3134 160.242 13.6687 160.242 11.896V5.45617C160.242 4.47569 158.459 3.57993 155.499 3.57993C152.546 3.57993 150.798 3.72268 150.798 5.45617V14.5989H135.248C133.651 14.5989 132.972 14.3903 132.972 13.082V11.7705H144.579C146.282 11.7705 147.71 11.8536 147.71 10.3696V8.88707H135.248C133.651 8.88707 132.972 8.66587 132.972 7.65715V6.64059H145.484C147.079 6.64059 148.842 6.1025 148.842 5.45617V3.57993H113.079C111.729 3.57993 111.729 2.16804 111.729 2.16804V1.85585C111.729 0.988324 110.063 0 107.323 0C104.603 0 102.277 0.71222 102.277 1.85585V2.23392L102.247 2.16804C102.247 2.16804 102.247 3.57993 100.894 3.57993H89.5756C88.2301 3.57993 88.2301 2.16804 88.2301 2.16804L88.1877 2.23392V1.85585C88.1877 0.988324 86.5243 0 83.7924 0C81.062 0 78.7357 0.71222 78.7357 1.85585V2.16804C78.7357 2.16804 78.7357 3.57993 77.3917 3.57993H43.9805C42.2717 3.57993 41.3787 4.19175 41.3787 5.45617V15.9889C41.3787 16.905 42.5003 17.8494 45.2307 17.8494H63.8834C65.3228 17.8494 67.1587 16.9333 67.1587 15.9497V14.5989H53.0087C51.7131 14.5989 50.8232 14.2852 50.8232 13.027V11.7705H62.3699C63.7427 11.7705 65.5619 11.7971 65.5619 10.3429V8.88707H53.0814C51.7858 8.88707 50.8232 8.79137 50.8232 7.94894V7.11436H74.3586C76.7485 7.11436 78.7357 7.88619 78.7357 10.3696V15.9889C78.7357 16.8564 80.9636 17.8494 83.579 17.8494C86.1974 17.8494 88.1877 16.8956 88.1877 15.9889V10.3696C88.1877 8.95296 89.3849 7.11436 92.0048 7.11436H98.4903C100.646 7.11436 102.277 8.13092 102.277 10.2488V15.9889C102.277 16.8564 103.95 17.8494 106.685 17.8494C109.415 17.8494 111.729 17.1325 111.729 15.9889V10.2488C111.729 8.8353 113.505 7.11436 115.101 7.11436H119.996C121.699 7.11436 123.526 8.25329 123.526 10.3696V15.9889C123.526 16.8564 124.313 17.8494 126.367 17.8494H171.203C173.256 17.8494 174.924 17.0164 174.924 15.9889V14.3134H163.127ZM33.95 3.58116H26.729C24.9021 3.58116 23.0935 4.23848 22.2943 5.45741C21.4967 6.67007 16.7608 13.8393 16.7608 13.8393C16.7608 13.8393 11.7556 6.37828 11.1366 5.45741C10.5206 4.53498 8.30021 3.58116 5.72569 3.58116H0C0 3.58116 9.53979 15.3689 10.0453 15.9901C10.5508 16.6129 13.033 17.8507 16.5187 17.8507C20.0028 17.8507 22.2943 17.2043 23.2599 15.9901C24.218 14.79 29.4896 8.14628 29.4896 8.14628V15.9901C29.4896 16.8796 30.9653 17.8507 33.95 17.8507C36.9302 17.8507 38.9295 16.9063 38.9295 15.9901V5.45741C38.9295 4.49105 37.1859 3.58116 33.95 3.58116Z" fill="white"/>
</svg>
