<svg width="290" height="101" viewBox="0 0 290 101" fill="none" xmlns="http://www.w3.org/2000/svg">
<path d="M67.27 12.1401H62.45C60.53 12.1401 58.98 13.6899 58.98 15.6099V51.3101C58.98 53.2301 60.54 54.7798 62.45 54.7798H67.27C69.19 54.7798 70.74 53.2301 70.74 51.3101V15.6099C70.74 13.6999 69.19 12.1401 67.27 12.1401Z" fill="#58595B"/>
<path d="M49.9298 12.1401C46.8898 12.1401 44.3398 13.9598 43.1098 16.5698L30.3098 43.7598C30.0098 44.3998 29.4098 45.4497 28.8998 45.4497C28.3998 45.4497 27.7898 44.3998 27.4898 43.7598L14.5999 16.5698C13.3599 13.9598 10.8098 12.1401 7.77985 12.1401H0.339844L20.6498 51.48C22.6598 55.34 26.7898 55.2598 28.8998 55.2598C31.8198 55.2598 35.2298 55.1 37.0498 51.48L57.3598 12.1401H49.9298Z" fill="#58595B"/>
<path d="M274.4 5.60986C274.4 3.68986 272.84 2.14014 270.93 2.14014H266.11C264.19 2.14014 262.64 3.68986 262.64 5.60986V40.8701C262.64 46.2601 264.55 49.3999 267.97 51.6499C271.29 53.8199 275.11 54.79 282.25 54.79H286.12C288.04 54.79 289.59 53.2298 289.59 51.3198V47.5498H286.67C284.56 47.5498 280.13 47.4697 277.52 45.6997C274.1 43.4497 274.4 39.4298 274.4 36.5298V5.60986Z" fill="#58595B"/>
<path d="M199.07 47.5498C196.96 47.5498 192.53 47.4697 189.92 45.6997C186.5 43.4497 186.8 39.4198 186.8 36.5298V19.3901H198.21C200.13 19.3901 201.68 17.8299 201.68 15.9199V12.1499H186.8V5.60986C186.8 3.68986 185.24 2.14014 183.33 2.14014H178.51C176.59 2.14014 175.04 3.69986 175.04 5.60986V12.1499H150.5V5.60986C150.5 3.68986 148.94 2.14014 147.03 2.14014H142.21C140.29 2.14014 138.74 3.69986 138.74 5.60986V12.1499H131.4V15.9199C131.4 17.8399 132.95 19.3901 134.87 19.3901H138.74V40.8701C138.74 46.2601 140.65 49.3999 144.07 51.6499C147.39 53.8199 151.21 54.79 158.35 54.79H162.22C164.14 54.79 165.69 53.2398 165.69 51.3198V47.5498H162.77C160.66 47.5498 156.23 47.4697 153.62 45.6997C150.2 43.4497 150.5 39.4198 150.5 36.5298V19.3901H175.04V40.8701C175.04 46.2601 176.95 49.3999 180.37 51.6499C183.69 53.8199 187.51 54.79 194.65 54.79H198.52C200.44 54.79 201.99 53.2398 201.99 51.3198V47.5498H199.07Z" fill="#58595B"/>
<path d="M127.06 51.3101V47.54H101.01C96.6899 47.54 91.7599 47.0597 90.2499 42.4697C89.8499 41.1797 89.5499 38.4501 89.5499 36.6001H120.52C122.63 36.6001 124.64 36.2797 126.25 34.9897C128.46 33.2197 128.77 30.7298 128.77 28.5498C128.77 23.1598 127.46 17.85 121.23 14.71C116.3 12.22 109.87 11.98 103.63 11.98C98.5999 11.98 89.5499 11.98 83.7199 16C77.8899 20.02 77.3799 25.8899 77.3799 33.8599C77.3799 39.4899 77.6799 45.3701 81.1999 49.3901C85.6199 54.3801 92.0599 54.7798 97.4899 54.7798H123.58C125.51 54.7898 127.06 53.2301 127.06 51.3101ZM116.6 26.8701C116.6 28.0001 116.3 29.3599 113.98 29.3599H97.2499C92.9999 29.3599 89.5499 31.31 89.5499 33.71V29.3599C89.6499 26.5399 89.5499 24.21 91.9599 22.04C95.1799 19.14 100.01 19.2197 103.12 19.2197C106.44 19.2197 110.26 19.3799 113.18 21.1499C114.89 22.1999 116.6 24.2101 116.6 26.8701Z" fill="#58595B"/>
<path d="M254.29 51.3101V47.54H228.24C223.92 47.54 218.99 47.0597 217.48 42.4697C217.08 41.1797 216.78 38.4501 216.78 36.6001H247.75C249.86 36.6001 251.87 36.2797 253.48 34.9897C255.69 33.2197 256 30.7298 256 28.5498C256 23.1598 254.69 17.85 248.46 14.71C243.53 12.22 237.1 11.98 230.86 11.98C225.83 11.98 216.78 11.98 210.95 16C205.12 20.02 204.61 25.8899 204.61 33.8599C204.61 39.4899 204.91 45.3701 208.43 49.3901C212.86 54.3801 219.29 54.7798 224.72 54.7798H250.81C252.73 54.7898 254.29 53.2301 254.29 51.3101ZM243.83 26.8701C243.83 28.0001 243.53 29.3599 241.21 29.3599H224.48C220.22 29.3599 216.78 31.31 216.78 33.71V29.3599C216.88 26.5399 216.78 24.21 219.19 22.04C222.41 19.14 227.24 19.2197 230.35 19.2197C233.67 19.2197 237.49 19.3799 240.41 21.1499C242.12 22.1999 243.83 24.2101 243.83 26.8701Z" fill="#58595B"/>
<path d="M67.27 0.209961H62.45C60.53 0.209961 58.98 1.76969 58.98 3.67969V4.64014V12.6401C58.98 10.5301 61.32 8.10986 64.86 8.10986H67.27C69.19 8.10986 70.74 6.56014 70.74 4.64014V3.67969C70.74 1.76969 69.19 0.209961 67.27 0.209961Z" fill="#58595B"/>
<path d="M80.75 95.5698V81.2598L76.02 81.2397V79.6201L87.6 79.6401V81.2598H82.97V96.1499H80.75V95.5698Z" fill="#58595B"/>
<path d="M88.6997 79.6201H90.9197V83.6602H95.7297C97.2797 83.6602 98.4797 83.9899 99.3197 84.6499C100.16 85.3099 100.59 86.4099 100.59 87.9399V96.27H98.3697V88.21C98.3697 87.26 98.1497 86.5298 97.6997 86.0298C97.2497 85.5298 96.4997 85.2798 95.4397 85.2798H90.9197V96.27H88.6997V79.6201Z" fill="#58595B"/>
<path d="M107.82 96.27C106.78 96.27 105.93 96.1201 105.27 95.8301C104.61 95.5401 104.1 95.1198 103.72 94.5698C103.35 94.0198 103.1 93.3598 102.97 92.5898C102.84 91.8198 102.77 90.9598 102.77 90.0098C102.77 88.8498 102.88 87.86 103.1 87.04C103.32 86.22 103.68 85.54 104.18 85.02C104.68 84.5 105.34 84.1199 106.15 83.8799C106.96 83.6399 107.95 83.52 109.13 83.52C110.06 83.52 110.92 83.59 111.69 83.75C112.46 83.9 113.13 84.1698 113.7 84.5498C114.26 84.9298 114.7 85.4301 115.02 86.0601C115.33 86.6901 115.5 87.4797 115.5 88.4297C115.5 89.1597 115.35 89.7101 115.05 90.0801C114.75 90.4501 114.2 90.6401 113.41 90.6401H105.07C105.07 91.1501 105.11 91.6399 105.18 92.1299C105.25 92.6099 105.4 93.0399 105.63 93.4199C105.86 93.7899 106.18 94.0898 106.61 94.3198C107.03 94.5498 107.6 94.6699 108.3 94.6699H115.14V96.29H107.82V96.27ZM112.54 89.0098C112.8 89.0098 112.98 88.9398 113.05 88.7998C113.13 88.6598 113.17 88.5201 113.17 88.3701V88.27C113.17 87.68 113.07 87.1898 112.88 86.7798C112.69 86.3798 112.41 86.0501 112.05 85.8101C111.69 85.5601 111.26 85.39 110.77 85.29C110.28 85.19 109.74 85.1401 109.16 85.1401C108.44 85.1401 107.82 85.2098 107.3 85.3398C106.78 85.4698 106.36 85.6897 106.03 85.9897C105.71 86.2897 105.46 86.6899 105.31 87.1899C105.15 87.6899 105.07 88.2898 105.07 89.0098H112.54Z" fill="#58595B"/>
<path d="M124.42 83.52C125.67 83.52 126.75 83.6301 127.65 83.8501C128.56 84.0701 129.3 84.4297 129.88 84.9297C130.46 85.4297 130.89 86.0899 131.17 86.8999C131.45 87.7199 131.59 88.7202 131.59 89.9102C131.59 91.1002 131.45 92.1099 131.17 92.9399C130.89 93.7699 130.46 94.4397 129.88 94.9497C129.3 95.4597 128.55 95.8298 127.65 96.0498C126.74 96.2798 125.67 96.3999 124.42 96.3999C123.17 96.3999 122.09 96.2898 121.18 96.0498C120.27 95.8198 119.53 95.4497 118.95 94.9497C118.37 94.4397 117.94 93.7699 117.66 92.9399C117.38 92.1099 117.24 91.1002 117.24 89.9102C117.24 88.7202 117.38 87.7199 117.66 86.8999C117.94 86.0799 118.37 85.4297 118.95 84.9297C119.53 84.4297 120.27 84.0701 121.18 83.8501C122.1 83.6301 123.17 83.52 124.42 83.52ZM119.56 89.9199C119.56 90.8099 119.65 91.5597 119.82 92.1797C120 92.7997 120.27 93.2999 120.65 93.6899C121.03 94.0799 121.52 94.3598 122.14 94.5298C122.76 94.6998 123.51 94.79 124.41 94.79C125.31 94.79 126.06 94.6998 126.68 94.5298C127.3 94.3598 127.79 94.0699 128.17 93.6899C128.55 93.2999 128.83 92.7997 129 92.1797C129.18 91.5597 129.27 90.8099 129.27 89.9199C129.27 89.0299 129.18 88.2799 129 87.6699C128.82 87.0599 128.55 86.5697 128.17 86.1997C127.79 85.8297 127.29 85.5601 126.68 85.3901C126.06 85.2201 125.31 85.1401 124.41 85.1401C123.51 85.1401 122.75 85.2201 122.14 85.3901C121.52 85.5601 121.03 85.8297 120.65 86.1997C120.27 86.5697 119.99 87.0599 119.82 87.6699C119.65 88.2799 119.56 89.0299 119.56 89.9199Z" fill="#58595B"/>
<path d="M145.44 96.27C144.24 96.27 143.26 96.1201 142.5 95.8301C141.73 95.5401 141.13 95.1198 140.69 94.5698C140.25 94.0198 139.94 93.3601 139.77 92.5801C139.59 91.8001 139.5 90.9199 139.5 89.9399C139.5 88.9899 139.59 88.1299 139.77 87.3599C139.95 86.5899 140.25 85.9299 140.69 85.3799C141.13 84.8299 141.73 84.4099 142.5 84.1099C143.27 83.8099 144.25 83.6602 145.44 83.6602H150.75V85.2798H145.84C144.96 85.2798 144.25 85.3899 143.73 85.6099C143.2 85.8299 142.8 86.1498 142.52 86.5498C142.24 86.9498 142.05 87.4398 141.95 88.0098C141.85 88.5798 141.81 89.2199 141.81 89.9399C141.81 90.6899 141.86 91.3497 141.95 91.9297C142.05 92.5097 142.24 93.0002 142.52 93.4102C142.8 93.8102 143.21 94.1198 143.73 94.3398C144.26 94.5498 144.96 94.6602 145.84 94.6602H151.04V96.2798H145.44V96.27Z" fill="#58595B"/>
<path d="M160.76 83.6602C162.01 83.6602 162.93 83.9701 163.52 84.6001C164.11 85.2301 164.4 86.0599 164.4 87.1099V94.3701C164.4 95.0201 164.24 95.5001 163.92 95.8101C163.6 96.1201 163.03 96.27 162.2 96.27H155.97C154.68 96.27 153.76 95.9601 153.18 95.3301C152.61 94.7001 152.32 93.7299 152.32 92.4199C152.32 91.1699 152.61 90.2198 153.18 89.5698C153.75 88.9198 154.68 88.6001 155.97 88.6001H162.17V87.1001C162.17 86.5601 162.02 86.12 161.71 85.79C161.4 85.46 160.89 85.29 160.19 85.29H153.38V83.6699H160.76V83.6602ZM156.4 90.1997C155.71 90.1997 155.25 90.4 155.01 90.79C154.77 91.19 154.65 91.7302 154.65 92.4102C154.65 93.0902 154.77 93.63 155.01 94.04C155.25 94.44 155.71 94.6499 156.4 94.6499H161.44C161.69 94.6499 161.87 94.5897 161.99 94.4697C162.11 94.3497 162.17 94.1998 162.17 94.0098V90.1997H156.4ZM161.57 80.1899L157.82 82.9497L156.63 81.6201L160.38 78.8398L161.57 80.1899Z" fill="#58595B"/>
<path d="M172.53 96.27C171.33 96.27 170.35 96.1201 169.59 95.8301C168.82 95.5401 168.22 95.1198 167.78 94.5698C167.34 94.0198 167.03 93.3601 166.85 92.5801C166.67 91.8001 166.59 90.9199 166.59 89.9399C166.59 88.9899 166.68 88.1299 166.85 87.3599C167.03 86.5899 167.33 85.9299 167.78 85.3799C168.22 84.8299 168.82 84.4099 169.59 84.1099C170.36 83.8099 171.34 83.6602 172.53 83.6602H177.84V85.2798H172.93C172.05 85.2798 171.34 85.3899 170.82 85.6099C170.29 85.8299 169.89 86.1498 169.61 86.5498C169.33 86.9498 169.14 87.4398 169.04 88.0098C168.94 88.5798 168.89 89.2199 168.89 89.9399C168.89 90.6899 168.94 91.3497 169.04 91.9297C169.14 92.5097 169.33 93.0002 169.61 93.4102C169.89 93.8102 170.3 94.1198 170.82 94.3398C171.35 94.5498 172.05 94.6602 172.93 94.6602H178.13V96.2798H172.53V96.27Z" fill="#58595B"/>
<path d="M179.87 79.6201H182.09V83.6602H186.9C188.45 83.6602 189.65 83.9899 190.49 84.6499C191.33 85.3099 191.76 86.4099 191.76 87.9399V96.27H189.54V88.21C189.54 87.26 189.32 86.5298 188.87 86.0298C188.42 85.5298 187.67 85.2798 186.61 85.2798H182.09V96.27H179.87V79.6201Z" fill="#58595B"/>
<path d="M206.04 96.27C204.84 96.27 203.86 96.1201 203.1 95.8301C202.33 95.5401 201.73 95.1198 201.29 94.5698C200.85 94.0198 200.54 93.3601 200.37 92.5801C200.19 91.8001 200.11 90.9199 200.11 89.9399C200.11 88.9899 200.2 88.1299 200.37 87.3599C200.55 86.5899 200.85 85.9299 201.29 85.3799C201.73 84.8299 202.33 84.4099 203.1 84.1099C203.87 83.8099 204.85 83.6602 206.04 83.6602H211.35V85.2798H206.44C205.56 85.2798 204.85 85.3899 204.33 85.6099C203.8 85.8299 203.4 86.1498 203.11 86.5498C202.83 86.9498 202.64 87.4398 202.54 88.0098C202.44 88.5798 202.39 89.2199 202.39 89.9399C202.39 90.6899 202.44 91.3497 202.54 91.9297C202.64 92.5097 202.83 93.0002 203.11 93.4102C203.39 93.8102 203.8 94.1198 204.33 94.3398C204.86 94.5498 205.56 94.6602 206.44 94.6602H211.64V96.2798H206.04V96.27Z" fill="#58595B"/>
<path d="M225.42 94.1997C225.42 94.8697 225.26 95.38 224.93 95.73C224.6 96.09 224.06 96.27 223.28 96.27H218.11C216.58 96.27 215.41 95.9498 214.6 95.3198C213.79 94.6898 213.39 93.6397 213.39 92.1797V83.6602H215.61V91.8198C215.61 92.6798 215.81 93.3599 216.22 93.8799C216.63 94.3999 217.36 94.6499 218.41 94.6499H222.4C222.66 94.6499 222.87 94.6 223.01 94.48C223.15 94.37 223.22 94.1598 223.22 93.8398V83.6602H225.44V94.1997H225.42Z" fill="#58595B"/>
<path d="M219.34 80.8798C219.8 80.7398 220.03 80.5199 220.04 80.2299C220.05 80.0499 219.93 79.8997 219.68 79.7797C219.32 79.5997 218.75 79.5097 217.97 79.5097C217.7 79.5097 217.3 79.53 216.76 79.56L216.62 78.3701C216.96 78.3101 217.57 78.28 218.48 78.29C219.54 78.3 220.4 78.4499 221.07 78.7499C221.81 79.0799 222.19 79.5298 222.2 80.1098C222.23 81.0698 221.45 81.6398 219.85 81.8198V82.3998H218.41V81.0097C218.89 80.9597 219.2 80.9198 219.34 80.8798Z" fill="#58595B"/>
<path d="M236.34 83.6602C237.59 83.6602 238.51 83.9701 239.1 84.6001C239.69 85.2301 239.98 86.0599 239.98 87.1099V94.3701C239.98 95.0201 239.82 95.5001 239.5 95.8101C239.18 96.1201 238.61 96.27 237.78 96.27H231.55C230.26 96.27 229.34 95.9601 228.76 95.3301C228.19 94.7001 227.9 93.7299 227.9 92.4199C227.9 91.1699 228.19 90.2198 228.76 89.5698C229.33 88.9198 230.26 88.5898 231.55 88.5898H237.75V87.0898C237.75 86.5498 237.6 86.1098 237.29 85.7798C236.98 85.4498 236.47 85.2798 235.77 85.2798H228.96V83.6602H236.34ZM231.98 90.1997C231.29 90.1997 230.83 90.4 230.59 90.79C230.35 91.19 230.23 91.7302 230.23 92.4102C230.23 93.0902 230.35 93.64 230.59 94.04C230.83 94.44 231.29 94.6499 231.98 94.6499H237.02C237.27 94.6499 237.45 94.5897 237.57 94.4697C237.69 94.3497 237.75 94.1998 237.75 94.0098V90.1997H231.98Z" fill="#58595B"/>
<path d="M251.36 96.27C250.53 96.27 249.9 96.1298 249.45 95.8398C249 95.5498 248.78 95.0197 248.78 94.2197V79.6099H251V83.6499H255.28C256.41 83.6499 257.34 83.7898 258.07 84.0698C258.8 84.3498 259.39 84.7598 259.82 85.2998C260.26 85.8398 260.57 86.4898 260.75 87.2598C260.93 88.0298 261.01 88.9101 261.01 89.8901C261.01 90.8701 260.92 91.76 260.75 92.54C260.57 93.33 260.26 93.9898 259.82 94.5498C259.38 95.1098 258.8 95.5298 258.07 95.8198C257.34 96.1098 256.41 96.2598 255.28 96.2598H251.36V96.27ZM250.99 93.7998C250.99 94.0698 251.05 94.2797 251.16 94.4297C251.27 94.5797 251.52 94.6602 251.89 94.6602H254.87C255.72 94.6602 256.39 94.5398 256.89 94.2998C257.39 94.0598 257.77 93.7298 258.04 93.2998C258.31 92.8698 258.48 92.37 258.55 91.79C258.63 91.21 258.67 90.5799 258.67 89.8999C258.67 89.2199 258.63 88.59 258.55 88.02C258.47 87.45 258.3 86.9601 258.04 86.5601C257.78 86.1601 257.39 85.8401 256.89 85.6201C256.39 85.4001 255.71 85.29 254.87 85.29H250.99V93.7998Z" fill="#58595B"/>
<path d="M271.17 83.6602C272.42 83.6602 273.34 83.9701 273.93 84.6001C274.52 85.2301 274.81 86.0599 274.81 87.1099V94.3701C274.81 95.0201 274.65 95.5001 274.33 95.8101C274.01 96.1201 273.44 96.27 272.61 96.27H266.38C265.09 96.27 264.17 95.9601 263.59 95.3301C263.02 94.7001 262.73 93.7299 262.73 92.4199C262.73 91.1699 263.02 90.2198 263.59 89.5698C264.16 88.9198 265.09 88.5898 266.38 88.5898H272.58V87.0898C272.58 86.5498 272.43 86.1098 272.12 85.7798C271.81 85.4498 271.3 85.2798 270.6 85.2798H263.79V83.6602H271.17ZM266.81 90.1997C266.12 90.1997 265.66 90.4 265.42 90.79C265.18 91.19 265.06 91.7302 265.06 92.4102C265.06 93.0902 265.18 93.64 265.42 94.04C265.66 94.44 266.12 94.6499 266.81 94.6499H271.85C272.1 94.6499 272.28 94.5897 272.4 94.4697C272.52 94.3497 272.58 94.1998 272.58 94.0098V90.1997H266.81Z" fill="#58595B"/>
<path d="M270.15 97.6602H267.51V100.04H270.15V97.6602Z" fill="#58595B"/>
<path d="M277.7 85.73C277.7 85.06 277.86 84.5497 278.19 84.1997C278.52 83.8397 279.07 83.6699 279.84 83.6699H284.86C286.39 83.6699 287.56 83.9901 288.37 84.6201C289.18 85.2501 289.58 86.2998 289.58 87.7598V96.2798H287.36V88.1201C287.36 87.2601 287.16 86.5801 286.75 86.0601C286.34 85.5401 285.61 85.29 284.56 85.29H280.73C280.47 85.29 280.26 85.35 280.12 85.46C279.98 85.57 279.91 85.7901 279.91 86.1001V96.2798H277.69V85.73H277.7Z" fill="#58595B"/>
</svg>
