<svg width="158" height="16" viewBox="0 0 158 16" fill="none" xmlns="http://www.w3.org/2000/svg">
<path fill-rule="evenodd" clip-rule="evenodd" d="M147.02 12.1634C145.372 12.1634 144.42 11.6155 144.42 10.1091V4.63661C144.42 3.8034 142.813 3.04219 140.145 3.04219C137.484 3.04219 135.908 3.1635 135.908 4.63661V12.4061H121.893C120.454 12.4061 119.842 12.2287 119.842 11.1169V10.0024H130.303C131.838 10.0024 133.125 10.0731 133.125 8.81195V7.55215H121.893C120.454 7.55215 119.842 7.36418 119.842 6.50698V5.64312H131.119C132.556 5.64312 134.146 5.18585 134.146 4.63661V3.04219H101.914C100.697 3.04219 100.697 1.84238 100.697 1.84238V1.57709C100.697 0.839868 99.195 0 96.726 0C94.2748 0 92.1782 0.605238 92.1782 1.57709V1.89837L92.1509 1.84238C92.1509 1.84238 92.1509 3.04219 90.9314 3.04219H80.7308C79.5181 3.04219 79.5181 1.84238 79.5181 1.84238L79.4799 1.89837V1.57709C79.4799 0.839868 77.9808 0 75.5186 0C73.0578 0 70.9612 0.605238 70.9612 1.57709V1.84238C70.9612 1.84238 70.9612 3.04219 69.7499 3.04219H39.6376C38.0976 3.04219 37.2928 3.56211 37.2928 4.63661V13.5872C37.2928 14.3657 38.3036 15.1683 40.7644 15.1683H57.5754C58.8726 15.1683 60.5273 14.3897 60.5273 13.5539V12.4061H47.7744C46.6068 12.4061 45.8047 12.1394 45.8047 11.0703V10.0024H56.2113C57.4485 10.0024 59.0882 10.0251 59.0882 8.78929V7.55215H47.8399C46.6722 7.55215 45.8047 7.47083 45.8047 6.75494V6.04572H67.0162C69.1701 6.04572 70.9612 6.70162 70.9612 8.81195V13.5872C70.9612 14.3244 72.9691 15.1683 75.3262 15.1683C77.6861 15.1683 79.4799 14.3577 79.4799 13.5872V8.81195C79.4799 7.60814 80.5589 6.04572 82.9201 6.04572H88.7652C90.7077 6.04572 92.1782 6.90958 92.1782 8.7093V13.5872C92.1782 14.3244 93.6855 15.1683 96.1504 15.1683C98.6112 15.1683 100.697 14.5591 100.697 13.5872V8.7093C100.697 7.50816 102.297 6.04572 103.736 6.04572H108.148C109.682 6.04572 111.329 7.01357 111.329 8.81195V13.5872C111.329 14.3244 112.038 15.1683 113.889 15.1683H154.299C156.148 15.1683 157.652 14.4604 157.652 13.5872V12.1634H147.02ZM30.5978 3.04227H24.0898C22.4433 3.04227 20.8132 3.60085 20.093 4.63668C19.3741 5.66719 15.1059 11.7596 15.1059 11.7596C15.1059 11.7596 10.5949 5.41923 10.0369 4.63668C9.48176 3.85281 7.48065 3.04227 5.16034 3.04227H0C0 3.04227 8.59784 13.0594 9.05344 13.5873C9.50905 14.1165 11.7461 15.1684 14.8876 15.1684C18.0278 15.1684 20.093 14.6191 20.9633 13.5873C21.8267 12.5674 26.5779 6.92166 26.5779 6.92166V13.5873C26.5779 14.3432 27.9078 15.1684 30.5978 15.1684C33.2837 15.1684 35.0857 14.3658 35.0857 13.5873V4.63668C35.0857 3.81548 33.5142 3.04227 30.5978 3.04227Z" fill="#EE0033"/>
</svg>
