<svg width="21" height="20" viewBox="0 0 21 20" fill="none" xmlns="http://www.w3.org/2000/svg">
<path fill-rule="evenodd" clip-rule="evenodd" d="M1.60695 1.52247C1.45726 1.74699 1.34473 2.09162 1.34473 2.5C1.34473 2.90838 1.45726 3.25301 1.60695 3.47753C1.76021 3.70742 1.90159 3.75 1.96973 3.75H18.2197C18.2879 3.75 18.4292 3.70742 18.5825 3.47753C18.7322 3.25301 18.8447 2.90838 18.8447 2.5C18.8447 2.09162 18.7322 1.74699 18.5825 1.52247C18.4292 1.29258 18.2879 1.25 18.2197 1.25H1.96973C1.90159 1.25 1.76021 1.29258 1.60695 1.52247ZM0.566883 0.829094C0.866746 0.379299 1.35037 0 1.96973 0L18.2197 0C18.8391 0 19.3227 0.379299 19.6226 0.829094C19.926 1.28426 20.0947 1.87713 20.0947 2.5C20.0947 3.12287 19.926 3.71574 19.6226 4.17091C19.3227 4.6207 18.8391 5 18.2197 5H1.96973C1.35037 5 0.866746 4.6207 0.566883 4.17091C0.263438 3.71574 0.0947266 3.12287 0.0947266 2.5C0.0947266 1.87713 0.263438 1.28426 0.566883 0.829094Z" fill="white"/>
<path fill-rule="evenodd" clip-rule="evenodd" d="M1.60695 9.02247C1.45726 9.24699 1.34473 9.59162 1.34473 10C1.34473 10.4084 1.45726 10.753 1.60695 10.9775C1.76021 11.2074 1.90159 11.25 1.96973 11.25H18.2197C18.2879 11.25 18.4292 11.2074 18.5825 10.9775C18.7322 10.753 18.8447 10.4084 18.8447 10C18.8447 9.59162 18.7322 9.24699 18.5825 9.02247C18.4292 8.79258 18.2879 8.75 18.2197 8.75H1.96973C1.90159 8.75 1.76021 8.79258 1.60695 9.02247ZM0.566883 8.32909C0.866746 7.8793 1.35037 7.5 1.96973 7.5H18.2197C18.8391 7.5 19.3227 7.8793 19.6226 8.32909C19.926 8.78426 20.0947 9.37713 20.0947 10C20.0947 10.6229 19.926 11.2157 19.6226 11.6709C19.3227 12.1207 18.8391 12.5 18.2197 12.5H1.96973C1.35037 12.5 0.866746 12.1207 0.566883 11.6709C0.263438 11.2157 0.0947266 10.6229 0.0947266 10C0.0947266 9.37713 0.263438 8.78426 0.566883 8.32909Z" fill="white"/>
<path fill-rule="evenodd" clip-rule="evenodd" d="M1.60695 16.5225C1.45726 16.747 1.34473 17.0916 1.34473 17.5C1.34473 17.9084 1.45726 18.253 1.60695 18.4775C1.76021 18.7074 1.90159 18.75 1.96973 18.75H18.2197C18.2879 18.75 18.4292 18.7074 18.5825 18.4775C18.7322 18.253 18.8447 17.9084 18.8447 17.5C18.8447 17.0916 18.7322 16.747 18.5825 16.5225C18.4292 16.2926 18.2879 16.25 18.2197 16.25H1.96973C1.90159 16.25 1.76021 16.2926 1.60695 16.5225ZM0.566883 15.8291C0.866746 15.3793 1.35037 15 1.96973 15H18.2197C18.8391 15 19.3227 15.3793 19.6226 15.8291C19.926 16.2843 20.0947 16.8771 20.0947 17.5C20.0947 18.1229 19.926 18.7157 19.6226 19.1709C19.3227 19.6207 18.8391 20 18.2197 20H1.96973C1.35037 20 0.866746 19.6207 0.566883 19.1709C0.263438 18.7157 0.0947266 18.1229 0.0947266 17.5C0.0947266 16.8771 0.263438 16.2843 0.566883 15.8291Z" fill="white"/>
</svg>
