<svg width="48" height="48" viewBox="0 0 48 48" fill="none" xmlns="http://www.w3.org/2000/svg">
<path fill-rule="evenodd" clip-rule="evenodd" d="M10.7897 0H37.2093C43.1588 0 47.999 4.84023 47.999 10.7897V37.2093C47.999 43.1588 43.1588 48 37.2093 48H10.7897C4.84023 48 0 43.1588 0 37.2093V10.7897C0 4.84023 4.84023 0 10.7897 0Z" fill="#EE0033"/>
<path fill-rule="evenodd" clip-rule="evenodd" d="M46.9874 23.3188V35.9688C46.9874 36.1988 46.9774 36.4288 46.9674 36.6588C46.6074 42.2388 41.9574 46.6688 36.2874 46.6688H18.8774C23.6074 45.0788 27.3574 41.3488 28.9574 36.6188C28.9774 36.5588 28.9974 36.4888 29.0274 36.4288C30.1074 33.1988 32.9974 30.7688 36.5274 30.2388C40.8874 29.4488 44.6274 26.8888 46.9874 23.3188Z" fill="white"/>
<path d="M46.9874 23.3188V35.9688C46.9874 36.1988 46.9774 36.4288 46.9674 36.6588C46.6074 42.2388 41.9574 46.6688 36.2874 46.6688H18.8774C23.6074 45.0788 27.3574 41.3488 28.9574 36.6188C28.9774 36.5588 28.9974 36.4888 29.0274 36.4288C30.1074 33.1988 32.9974 30.7688 36.5274 30.2388C40.8874 29.4488 44.6274 26.8888 46.9874 23.3188" stroke="#EE0033"/>
<path d="M37.4288 35.5586C37.4001 35.6914 37.335 35.8307 37.2335 35.9766L33.8936 40.8789C33.8337 40.9596 33.766 41 33.6905 41H33.21C33.1293 41 33.098 40.9596 33.1163 40.8789C33.1215 40.8529 33.1345 40.8242 33.1553 40.793L36.6436 35.7695C36.6488 35.7643 36.654 35.7526 36.6592 35.7344C36.6671 35.6979 36.6514 35.6797 36.6124 35.6797H33.8858C33.779 35.6797 33.7348 35.6341 33.753 35.543L33.8233 35.207C33.8311 35.168 33.8546 35.1328 33.8936 35.1016C33.9327 35.0703 33.9743 35.0547 34.0186 35.0547H36.9366C37.1475 35.0547 37.2895 35.1016 37.3624 35.1953C37.4379 35.2891 37.46 35.4102 37.4288 35.5586ZM41.5468 38.5664C41.3645 39.4258 41.0611 40.056 40.6367 40.457C40.2122 40.8555 39.6861 41.0547 39.0585 41.0547C38.4309 41.0547 37.9882 40.8542 37.7304 40.4531C37.4726 40.0521 37.4348 39.4232 37.6171 38.5664L37.8476 37.4883C38.0299 36.6315 38.3346 36.0026 38.7617 35.6016C39.1887 35.2005 39.7161 35 40.3437 35C40.9713 35 41.4127 35.2005 41.6679 35.6016C41.9231 36 41.9596 36.6289 41.7773 37.4883L41.5468 38.5664ZM40.8163 38.5664L41.0468 37.4883C41.1848 36.832 41.1783 36.3568 41.0273 36.0625C40.8762 35.7656 40.6041 35.6172 40.2109 35.6172C40.0156 35.6172 39.8359 35.6523 39.6718 35.7227C39.5104 35.7904 39.3606 35.8984 39.2226 36.0469C39.0846 36.1953 38.9609 36.3919 38.8515 36.6367C38.7421 36.8789 38.6536 37.1628 38.5859 37.4883L38.3554 38.5664C38.2617 39.0013 38.2343 39.3594 38.2734 39.6406C38.3124 39.9193 38.4101 40.1224 38.5663 40.25C38.7252 40.3776 38.9322 40.4414 39.1874 40.4414C39.5807 40.4414 39.9153 40.293 40.1913 39.9961C40.47 39.6966 40.6783 39.2201 40.8163 38.5664Z" fill="#EE0033"/>
<path d="M14.3546 19.6191L13.923 27.4555L11.581 27.7846L11.768 24.2148L10.014 27.305L8.88112 27.4642L7.3189 24.8845L7.11488 28.4123L4.77289 28.7414L5.22627 20.902L7.31772 20.6081L9.54294 24.4276L12.1651 19.9268L14.3546 19.6191ZM15.6193 19.4414L18.19 19.0801L17.7366 26.9195L15.1659 27.2808L15.6193 19.4414ZM28.5558 17.6233L28.1242 25.4596L25.7822 25.7887L25.9692 22.219L24.2152 25.3092L23.0824 25.4684L21.5202 22.8887L21.3161 26.4164L18.9741 26.7456L19.4275 18.9062L21.519 18.6122L23.7442 22.4317L26.3663 17.931L28.5558 17.6233ZM34.7358 23.1752L31.8273 23.584L31.2516 25.0201L28.5393 25.4013L32.3259 17.0934L34.853 16.7383L37.7329 24.1092L35.1731 24.4689L34.7358 23.1752ZM34.116 21.3739L33.4716 19.4762L32.6237 21.5837L34.116 21.3739ZM42.8604 19.5229L45.441 23.0259L42.6633 23.4163L41.4401 21.5887L40.0599 23.7821L36.9881 24.2139L40.0286 19.7654L37.5831 16.3546L40.3281 15.9688L41.5328 17.7434L42.8989 15.6075L45.7964 15.2003L42.8604 19.5229Z" fill="white"/>
</svg>
