<svg width="1253" height="458" fill="none" xmlns="http://www.w3.org/2000/svg"><path d="M674.03 7.75V6.04h512.84l.24.25 42.34 42.33v142.93h-1.71V49.33l-41.58-41.58H674.03zM22.67 191.4V48.62l.25-.24L64.95 6.35h539.86v1.7H65.66L24.38 49.33V191.4h-1.71zM1227.74 266.22v142.22l-41.58 41.58-424.24-.3H65.66l-41.28-41.28V266.37h-1.71v142.78l42.03 42.02.25.25h696.1v.01l425.82.3 42.33-42.33.25-.25V266.22h-1.71zM.11 236.83v-18.46l15.99-9.23.14.08 15.85 9.15v18.46l-15.99 9.23-.14-.08-15.85-9.15zm.54-18.15v17.83l15.44 8.92 15.44-8.92v-17.83l-15.44-8.92-15.44 8.92z" fill="#fff"/><path d="M7.05 219.06l9.04-5.23 9.05 5.23-.15.26-8.9-5.13-8.89 5.13-.15-.26zM7.05 236.6l.15-.27 8.89 5.13 8.9-5.13.15.27-9.05 5.22-9.04-5.22z" fill="#fff"/><path d="M20.8 230.32v-5.44l-4.71-2.72-4.7 2.72v5.44l4.7 2.71 4.71-2.71z" fill="#ACBEC8"/><path d="M0 251.5v-7.95l15.16 8.82v7.95L0 251.5zM0 262.53v-7.96l15.16 8.83v7.95L0 262.53zM0 273.56v-7.96l15.16 8.83v7.95L0 273.56zM0 284.58v-7.95l15.16 8.83v7.95L0 284.58z" fill="#fff"/><path opacity=".68" d="M0 295.61v-7.95l15.16 8.82v7.96L0 295.61zM0 306.64v-7.95l15.16 8.82v7.96L0 306.64zM0 317.67v-7.95l15.16 8.82v7.95L0 317.67zM0 328.11v-7.95l15.16 8.82v7.96L0 328.11z" fill="#E03"/><path d="M0 204.46v7.96l15.16-8.83v-7.95L0 204.46zM0 193.44v7.95l15.16-8.83v-7.95L0 193.44zM0 182.41v7.95l15.16-8.82v-7.96L0 182.41zM0 171.38v7.95l15.16-8.82v-7.96L0 171.38zM0 160.35v7.96l15.16-8.83v-7.95L0 160.35zM0 149.32v7.96l15.16-8.83v-7.95L0 149.32zM0 138.3v7.95l15.16-8.83v-7.95L0 138.3zM0 127.47v7.95l15.16-8.83v-7.95L0 127.47zM11.24 336.62l.3-.46 6.01 3.91v-88.13h.54v89.13l-6.85-4.45z" fill="#fff"/><path d="M19.5 251.94h-1.68v18.57h1.68v-18.57zM11.24 118.26l6.85-4.45v90.22h-.54v-89.22l-6.01 3.91-.3-.46z" fill="#fff"/><path d="M19.5 185.46h-1.68v18.57h1.68v-18.57zM1236.8 245.98l-.14.08-15.99-9.23v-18.46l15.85-9.15.14-.08 15.99 9.23v18.46l-15.85 9.15zm-.13-36.21l-15.44 8.92v17.83l15.44 8.92 15.44-8.92v-17.83l-15.44-8.92z" fill="#fff"/><path d="M1245.71 219.06l-9.04-5.23-9.05 5.23.15.26 8.9-5.13 8.89 5.13.15-.26zM1245.71 236.6l-.15-.27-8.89 5.13-8.9-5.13-.15.27 9.05 5.22 9.04-5.22z" fill="#fff"/><path d="M1231.96 230.32v-5.44l4.71-2.72 4.7 2.72v5.44l-4.7 2.71-4.71-2.71z" fill="#ACBEC8"/><path d="M1252.76 251.5v-7.95l-15.16 8.82v7.95l15.16-8.82zM1252.76 262.53v-7.96l-15.16 8.83v7.95l15.16-8.82zM1252.76 273.56v-7.96l-15.16 8.83v7.95l15.16-8.82zM1252.76 284.58v-7.95l-15.16 8.83v7.95l15.16-8.83z" fill="#fff"/><path opacity=".68" d="M1252.76 295.61v-7.95l-15.16 8.82v7.96l15.16-8.83zM1252.76 306.64v-7.95l-15.16 8.82v7.96l15.16-8.83zM1252.76 317.67v-7.95l-15.16 8.82v7.95l15.16-8.82zM1252.76 328.11v-7.95l-15.16 8.82v7.96l15.16-8.83z" fill="#E03"/><path d="M1252.76 204.46v7.96l-15.16-8.83v-7.95l15.16 8.82zM1252.76 193.44v7.95l-15.16-8.83v-7.95l15.16 8.83zM1252.76 182.41v7.95l-15.16-8.82v-7.96l15.16 8.83zM1252.76 171.38v7.95l-15.16-8.82v-7.96l15.16 8.83zM1252.76 160.35v7.96l-15.16-8.83v-7.95l15.16 8.82zM1252.76 149.32v7.96l-15.16-8.83v-7.95l15.16 8.82zM1252.76 138.3v7.95l-15.16-8.83v-7.95l15.16 8.83zM1252.76 127.47v7.95l-15.16-8.83v-7.95l15.16 8.83zM1241.52 336.62l-.3-.46-6.01 3.91v-88.13h-.54v89.13l6.85-4.45z" fill="#fff"/><path d="M1234.94 251.94h-1.68v18.57h1.68v-18.57zM1241.52 118.26l-6.85-4.45v90.22h.54v-89.22l6.01 3.91.3-.46z" fill="#fff"/><path d="M1234.94 185.46h-1.68v18.57h1.68v-18.57zM456.48 20.08l4.26-4.26h144.75L613.43.93h14.7v.55h-14.37l-7.94 14.89H460.96l-4.09 4.1-.39-.39z" fill="#fff"/><path d="M605.79 16.1h-49.22v1.63h49.22V16.1zM628.13 0h-6.56v1.5h6.56V0zM467.94 17.14h-6.72v.59h6.72v-.59zM475.94 17.14h-6.72v.59h6.72v-.59zM483.94 17.14h-6.72v.59h6.72v-.59zM491.94 17.14h-6.72v.59h6.72v-.59zM499.95 17.14h-6.72v.59h6.72v-.59zM652.33 1.48V.93h14.69l7.95 14.89h144.75l4.26 4.26-.39.39-4.1-4.1H674.64L666.7 1.48h-14.37z" fill="#fff"/><path d="M674.672 17.728h49.22v-1.63h-49.22v1.63zM652.333 1.498h6.56v-1.5h-6.56v1.5zM812.528 17.732h6.72v-.59h-6.72v.59zM804.522 17.732h6.72v-.59h-6.72v.59zM796.516 17.732h6.72v-.59h-6.72v.59zM788.51 17.732h6.72v-.59h-6.72v.59zM780.515 17.732h6.72v-.59h-6.72v.59zM37.85 61.23c-1.78 0-3.22-1.44-3.22-3.22 0-1.78 1.44-3.22 3.22-3.22 1.78 0 3.22 1.44 3.22 3.22 0 1.78-1.44 3.22-3.22 3.22zM38.23 93.819v-18.18h-1.28v18.18h1.28zM38.233 74.242v-3.7h-1.28v3.7h1.28zM38.23 69.188v-3.7h-1.28v3.7h1.28z" fill="#fff"/></svg>