<svg width="40" height="40" viewBox="0 0 40 40" fill="none" xmlns="http://www.w3.org/2000/svg">
<path d="M9.97098 14.5666L14.5457 4.95898H11.144C10.6748 4.95898 10.3229 5.18242 10.0883 5.51757L4.10592 13.8963C3.75402 14.3432 3.63672 14.79 3.63672 15.2369V17.1361C3.63672 17.9181 4.22322 18.4767 5.04433 18.4767H9.73638V15.3486C9.73638 15.1252 9.85368 14.79 9.97098 14.5666Z" fill="#EE0033"/>
<path d="M35.895 13.8963L29.9126 5.51757C29.678 5.18242 29.2088 4.95898 28.7396 4.95898H25.3379L29.9126 14.5666C30.0299 14.79 30.0299 15.0135 30.0299 15.3486V18.4767H34.722C35.5431 18.4767 36.1296 17.9181 36.1296 17.1361V15.2369C36.3642 14.79 36.2469 14.3432 35.895 13.8963Z" fill="#EE0033"/>
<path d="M33.7827 16.2422H6.09961V31.7708H33.7827V16.2422Z" fill="#EE0033"/>
<path d="M9.97099 14.5664H3.75402C3.63672 14.7898 3.63672 15.0133 3.63672 15.2367V17.1359C3.63672 17.9179 4.22322 18.4765 5.04433 18.4765H9.73638V15.3484C9.73638 15.125 9.85368 14.7898 9.97099 14.5664Z" fill="#92001F"/>
<path d="M36.2463 14.5664H30.0293C30.1466 14.7898 30.1466 15.0133 30.1466 15.3484V18.4765H34.8386C35.6598 18.4765 36.2463 17.9179 36.2463 17.1359V15.2367C36.3636 15.0133 36.2463 14.7898 36.2463 14.5664Z" fill="#92001F"/>
<path d="M25.4547 4.95898H14.5457L9.97093 14.5666C9.85363 14.79 9.73633 15.1252 9.73633 15.3486V18.4767H30.1467V15.3486C30.1467 15.1252 30.0294 14.79 30.0294 14.5666L25.4547 4.95898Z" fill="#C4C4C4"/>
<path d="M9.97093 14.5664C9.85363 14.7898 9.73633 15.125 9.73633 15.3484V18.4765H30.1467V15.3484C30.1467 15.125 30.0294 14.7898 30.0294 14.5664H9.97093Z" fill="#DCDCDC"/>
<path d="M21.7003 4.95898H18.1813L16.5391 14.79C16.5391 14.9017 16.5391 15.0135 16.5391 15.0135V18.365H23.3425V15.0135C23.3425 14.9017 23.3425 14.79 23.3425 14.79L21.7003 4.95898Z" fill="#EE0033"/>
<path d="M23.3425 14.5664H16.6564V14.7898C16.5391 14.9016 16.5391 15.0133 16.5391 15.0133V18.3648H23.3425V15.0133C23.3425 14.9016 23.3425 14.7898 23.3425 14.7898V14.5664Z" fill="#92001F"/>
<path d="M23.3425 31.8828H16.5391V24.7329C16.5391 22.9455 18.064 21.4932 19.9408 21.4932C21.8176 21.4932 23.3425 22.9455 23.3425 24.7329V31.8828Z" fill="#92001F"/>
<path d="M36.3638 31.7705H3.63672V33.2228H36.3638V31.7705Z" fill="#C4C4C4"/>
</svg>
