<svg width="74" height="74" viewBox="0 0 74 74" fill="none" xmlns="http://www.w3.org/2000/svg">
<path d="M37.0012 62.953C51.1272 62.953 62.5786 51.3332 62.5786 36.9994C62.5786 22.6657 51.1272 11.0459 37.0012 11.0459C22.8752 11.0459 11.4238 22.6657 11.4238 36.9994C11.4238 51.3332 22.8752 62.953 37.0012 62.953Z" fill="#C4C4C4"/>
<path d="M30.8061 44.2553C30.8061 46.1898 32.2359 47.6406 34.1423 47.6406H34.4601C36.3664 47.6406 37.7962 46.1898 37.7962 44.2553V29.7472C37.7962 27.1679 38.7494 24.9111 40.497 23.1379C42.2445 21.3646 43.1977 18.9466 43.1977 16.5286V12.1761C41.1324 11.6925 39.0672 11.3701 36.843 11.3701C25.5636 11.3701 15.8728 18.9466 12.5366 29.2635C12.06 30.7144 12.5366 32.3264 13.4898 33.2936L16.1905 36.034C16.826 36.6788 17.6203 37.0012 18.5735 37.0012C22.5451 37.0012 26.3579 38.6133 29.2175 41.5149L29.6941 41.9985C30.4884 42.4821 30.8061 43.2881 30.8061 44.2553Z" fill="#EE0033"/>
<path d="M47.1683 38.451H45.7385C44.3087 38.451 43.3555 37.3225 43.3555 36.0329V34.5821C43.3555 33.1313 44.4675 32.1641 45.7385 32.1641H47.1683C48.4392 32.1641 49.5512 33.2925 49.5512 34.5821V36.0329C49.5512 37.3225 48.4392 38.451 47.1683 38.451Z" fill="#EE0033"/>
<path d="M62.1015 41.1914H57.6532C56.2234 41.1914 54.7936 41.8362 53.6816 42.8034L52.7284 43.7706C52.0929 44.4154 51.7752 45.2215 51.7752 46.0275V46.8335C51.7752 48.6067 50.3454 49.8963 48.7567 49.8963C47.0092 49.8963 45.7383 51.3471 45.7383 52.9592V61.3417C54.317 58.2788 60.6717 50.5411 62.1015 41.1914Z" fill="#EE0033"/>
<path d="M44.4675 44.0928C43.8321 44.0928 43.3555 43.6092 43.3555 42.9643C43.3555 42.3195 43.8321 41.8359 44.4675 41.8359C45.103 41.8359 45.5796 42.3195 45.5796 42.9643C45.7385 43.6092 45.103 44.0928 44.4675 44.0928Z" fill="#EE0033"/>
<path d="M52.7273 28.6172C52.0918 28.6172 51.6152 28.1336 51.6152 27.4888C51.6152 26.844 52.0918 26.3604 52.7273 26.3604C53.3628 26.3604 53.8393 26.844 53.8393 27.4888C53.9982 27.9724 53.3628 28.6172 52.7273 28.6172Z" fill="#EE0033"/>
<path d="M30.4854 62.1485V60.0529C30.4854 56.0229 27.3081 52.7988 23.3364 52.7988H16.6641C20.1591 57.3125 24.9251 60.5365 30.4854 62.1485Z" fill="#EE0033"/>
<path d="M48.3774 15.5634C48.3774 8.96508 43.0222 3.72522 36.3282 3.91928C30.7818 4.11335 25.8091 9.15915 25.4266 14.7872C25.2353 18.8626 26.9566 22.3559 29.6342 24.6847C32.3118 26.8194 34.6069 29.5364 36.3282 32.6415L36.7107 33.2237C36.902 33.4178 37.0932 33.4178 37.2845 33.2237L37.4757 32.8356C39.197 29.7305 41.4921 26.8194 44.1697 24.6847C46.6561 22.5499 48.3774 19.2507 48.3774 15.5634Z" fill="#92001F"/>
<path d="M40.3829 20.4831C40.3829 20.1549 40.3311 20.1377 40.072 20.1377H38.0855V11.2762C38.0855 10.3953 37.3773 10.2053 36.5827 10.4471L33.7152 11.2244C33.4216 11.3108 33.4043 11.449 33.4043 11.6562V12.9172C33.4043 13.1763 33.4734 13.2454 33.7498 13.1936L35.5808 12.8827V20.1377H33.7498C33.4907 20.1377 33.4388 20.1549 33.4388 20.4831V21.8478C33.4388 22.1069 33.4907 22.1932 33.7498 22.1932H40.072C40.3311 22.1932 40.3829 22.1069 40.3829 21.8478V20.4831Z" fill="white"/>
</svg>
