<svg width="1063" height="44" fill="none" xmlns="http://www.w3.org/2000/svg"><path d="M70.84 7.91H16.42L8.13 22.27l8.29 14.35h54.42l8.29-14.35-8.29-14.36z" fill="url(#paint0_linear)"/><path d="M234.13 7.91H179.7l-8.28 14.36 8.28 14.35h54.43l8.28-14.35-8.28-14.36z" fill="url(#paint1_linear)"/><path d="M416.9 7.91h-54.43l-8.28 14.36 8.28 14.35h54.43l8.28-14.35-8.28-14.36z" fill="url(#paint2_linear)"/><path d="M616.63 7.91h-54.42l-8.29 14.36 8.29 14.35h54.42l8.29-14.35-8.29-14.36z" fill="url(#paint3_linear)"/><path d="M838.21 7.91h-54.42l-8.29 14.36 8.29 14.35h54.42l8.29-14.35-8.29-14.36z" fill="url(#paint4_linear)"/><path d="M1046.13 7.91H991.7l-8.28 14.36 8.28 14.35h54.43l8.28-14.35-8.28-14.36z" fill="url(#paint5_linear)"/><path d="M622.76 42.07h-66.69l-10.28-19.8 10.28-19.8h66.69l10.28 19.8-10.28 19.8zm-66.22-.78h65.75l9.88-19.03-9.88-19.03h-65.75l-9.88 19.03 9.88 19.03zM422.29 42.07H355.6l-10.28-19.8.09-.18L355.6 2.46h66.69l10.28 19.8-.09.18-10.19 19.63zm-66.22-.78h65.75l9.88-19.03-9.88-19.03h-65.75l-9.88 19.03 9.88 19.03zM241 42.07h-66.69l-10.28-19.8.09-.18 10.19-19.63H241l10.28 19.8-.09.18L241 42.07zm-66.22-.78h65.75l9.88-19.03-9.88-19.03h-65.75l-9.88 19.03 9.88 19.03zM76.97 42.07H10.28L0 22.27l.09-.18L10.28 2.46h66.69l10.28 19.8-.09.18-10.19 19.63zm-66.21-.78H76.5l9.88-19.03L76.5 3.24H10.76L.87 22.27l9.89 19.02zM843.87 42.07h-66.69l-10.28-19.8 10.28-19.8h66.69l10.28 19.8-10.28 19.8zm-66.21-.78h65.75l9.88-19.03-9.89-19.02h-65.75l-9.88 19.03 9.89 19.02z" fill="#fff"/><path d="M171.42 21.9H79.13v.73h92.29v-.73zM345.84 21.9H242.41v.73h103.43v-.73zM546.51 21.9h-115v.73h115v-.73zM776.34 21.9H632.01v.73h144.33v-.73zM1051.79 42.07H985.1l-10.28-19.8 10.28-19.8h66.69l10.28 19.8-10.28 19.8zm-66.22-.78h65.75l9.88-19.03-9.88-19.03h-65.75l-9.88 19.03 9.88 19.03z" fill="#fff"/><path d="M983.42 21.9h-129.7v.73h129.7v-.73zM51.45 0H32.66l-1.65 2.85 1.65 2.85h18.79l1.64-2.85L51.45 0zM522.59 20.03h-14.74l-1.29 2.24 1.29 2.23h14.74l1.29-2.23-1.29-2.24zM298.91 20.03h-14.74l-1.3 2.24 1.3 2.23h14.74l1.29-2.23-1.29-2.24zM732.28 20.03h-14.74l-1.29 2.24 1.29 2.23h14.74l1.29-2.23-1.29-2.24z" fill="#fff"/><path d="M954.95 20.03h-14.74l-1.29 2.24 1.29 2.23h14.74l1.29-2.23-1.29-2.24zM595.41.61h-14.74l-1.29 2.24 1.29 2.23h14.74l1.29-2.23-1.29-2.24zM1044.42.61h-14.74l-1.29 2.24 1.29 2.23h14.74l1.29-2.23-1.29-2.24zM795.2 39.45h-14.74l-1.29 2.23 1.29 2.24h14.74l1.29-2.24-1.29-2.23zM393.28 39.5h-7.19l-1.26 2.18 1.26 2.18h7.19l1.26-2.18-1.26-2.18zM1011.09 39.5h-7.19l-1.26 2.18 1.26 2.18h7.19l1.26-2.18-1.26-2.18zM235.73.67h-7.2l-1.26 2.18 1.26 2.18h7.2l1.26-2.18-1.26-2.18zM151.08 20.09h-7.19l-1.26 2.18 1.26 2.18h7.19l1.26-2.18-1.26-2.18zM671.11 20.09h-7.19l-1.26 2.18 1.26 2.18h7.19l1.26-2.18-1.26-2.18zM867.34 20.09h-7.19l-1.26 2.18 1.26 2.18h7.19l1.26-2.18-1.26-2.18z" fill="#fff"/><defs><linearGradient id="paint0_linear" x1="8.13" y1="22.266" x2="79.128" y2="22.266" gradientUnits="userSpaceOnUse"><stop stop-color="#E03"/><stop offset=".066" stop-color="#DF003C"/><stop offset=".529" stop-color="#760078"/><stop offset=".85" stop-color="#34009E"/><stop offset="1" stop-color="#1A00AD"/></linearGradient><linearGradient id="paint1_linear" x1="171.417" y1="22.266" x2="242.414" y2="22.266" gradientUnits="userSpaceOnUse"><stop stop-color="#E03"/><stop offset=".066" stop-color="#DF003C"/><stop offset=".529" stop-color="#760078"/><stop offset=".85" stop-color="#34009E"/><stop offset="1" stop-color="#1A00AD"/></linearGradient><linearGradient id="paint2_linear" x1="354.187" y1="22.266" x2="425.184" y2="22.266" gradientUnits="userSpaceOnUse"><stop stop-color="#E03"/><stop offset=".066" stop-color="#DF003C"/><stop offset=".529" stop-color="#760078"/><stop offset=".85" stop-color="#34009E"/><stop offset="1" stop-color="#1A00AD"/></linearGradient><linearGradient id="paint3_linear" x1="553.918" y1="22.266" x2="624.916" y2="22.266" gradientUnits="userSpaceOnUse"><stop stop-color="#E03"/><stop offset=".066" stop-color="#DF003C"/><stop offset=".529" stop-color="#760078"/><stop offset=".85" stop-color="#34009E"/><stop offset="1" stop-color="#1A00AD"/></linearGradient><linearGradient id="paint4_linear" x1="775.499" y1="22.266" x2="846.497" y2="22.266" gradientUnits="userSpaceOnUse"><stop stop-color="#E03"/><stop offset=".066" stop-color="#DF003C"/><stop offset=".529" stop-color="#760078"/><stop offset=".85" stop-color="#34009E"/><stop offset="1" stop-color="#1A00AD"/></linearGradient><linearGradient id="paint5_linear" x1="983.416" y1="22.266" x2="1054.41" y2="22.266" gradientUnits="userSpaceOnUse"><stop stop-color="#E03"/><stop offset=".066" stop-color="#DF003C"/><stop offset=".529" stop-color="#760078"/><stop offset=".85" stop-color="#34009E"/><stop offset="1" stop-color="#1A00AD"/></linearGradient></defs></svg>