<svg width="692" height="673" viewBox="0 0 692 673" fill="none" xmlns="http://www.w3.org/2000/svg">
<path opacity="0.5" fill-rule="evenodd" clip-rule="evenodd" d="M343.771 337.107C302.483 352.134 281.366 397.724 296.605 438.935L316.62 493.062L316.605 493.06L383.027 672.682C390.083 638.499 422.641 564.621 495.96 528.922L583.41 497.092C624.698 482.065 645.815 436.475 630.576 395.264L605.192 326.618C589.953 285.408 544.129 264.182 502.841 279.21L343.771 337.107Z" fill="#E4E4E4"/>
<path opacity="0.6" fill-rule="evenodd" clip-rule="evenodd" d="M37.2194 218.363C16.6675 225.843 6.15617 248.537 13.7416 269.05L23.7045 295.992L23.6962 295.991L56.7586 385.401C60.271 368.387 76.4756 331.616 112.967 313.845L156.504 297.999C177.056 290.519 187.567 267.825 179.982 247.312L167.346 213.142C159.761 192.629 136.951 182.064 116.399 189.544L37.2194 218.363Z" fill="#E4E4E4"/>
<path d="M69 53.9996C69 49.5814 72.5817 45.9996 77 45.9996H423C427.418 45.9996 431 49.5814 431 53.9996V126C431 130.418 427.418 134 423 134H69V53.9996Z" fill="white"/>
<path d="M91.912 81.7316C89.554 81.7316 88.87 80.1476 88.87 77.7716C88.87 75.4316 89.824 73.7216 91.93 73.7216C92.848 73.7216 93.604 73.8656 94.468 74.1716C94.81 74.2976 94.882 74.2436 95.008 73.9016L95.566 72.6236C95.764 72.2096 95.71 72.1376 95.44 71.9936C94.306 71.3636 93.064 71.2196 91.822 71.2196C88.06 71.2196 85.99 73.8116 85.99 77.7536C85.99 81.7676 87.718 84.1976 91.66 84.1976C92.488 84.1976 94.594 84.1076 96.016 83.2616C96.394 83.0276 96.448 82.7576 96.448 82.4156V78.6356C96.448 77.5556 96.322 76.8536 95.26 76.6196C94.846 76.5296 94.324 76.4936 93.694 76.4936C92.542 76.4936 91.336 76.7996 90.49 77.2136C90.22 77.3396 90.238 77.4656 90.31 77.6636L90.778 79.1216C90.904 79.3916 90.976 79.3556 91.318 79.2296C92.11 78.8876 92.956 78.7436 93.802 78.7976L93.784 81.4616C93.136 81.6956 92.362 81.7316 91.912 81.7316ZM107.363 79.2296C107.363 76.1516 105.833 74.3156 102.809 74.3156C100.001 74.3156 98.2729 76.1696 98.2729 79.2656C98.2729 82.3796 99.6589 84.1976 102.773 84.1976C105.869 84.1976 107.363 82.3976 107.363 79.2296ZM104.645 79.2836C104.645 80.7956 104.141 81.9836 102.791 81.9836C101.495 81.9836 100.973 81.0296 100.973 79.2296C100.973 77.5736 101.567 76.5296 102.845 76.5296C104.195 76.5296 104.645 77.6636 104.645 79.2836ZM104.015 85.9436C104.015 85.2956 103.475 84.7556 102.827 84.7556C102.161 84.7556 101.621 85.2956 101.621 85.9436C101.621 86.6096 102.161 87.1136 102.827 87.1136C103.475 87.1136 104.015 86.6096 104.015 85.9436ZM112.524 72.0836C112.524 71.2376 111.84 70.5896 111.012 70.5896C110.202 70.5896 109.518 71.2376 109.518 72.0836C109.518 72.9296 110.202 73.5596 111.012 73.5596C111.858 73.5596 112.524 72.9296 112.524 72.0836ZM112.29 74.8736C112.29 74.6036 112.236 74.5496 111.894 74.5496H110.058C109.788 74.5496 109.68 74.6036 109.68 74.8736V83.6756C109.68 83.9456 109.788 83.9996 110.058 83.9996H111.894C112.236 83.9996 112.29 83.9456 112.29 83.6756V74.8736ZM128.645 75.5936C128.645 75.3596 128.591 75.1976 128.285 75.0536C127.187 74.5496 125.783 74.3516 124.487 74.3516C121.121 74.3516 119.753 76.5476 119.753 79.4096C119.753 82.1636 120.959 84.1616 123.893 84.1616C124.613 84.1616 125.387 84.0716 126.017 83.8736V87.3656C126.017 87.5996 126.143 87.7076 126.395 87.7076H128.267C128.609 87.7076 128.645 87.6356 128.645 87.3656V75.5936ZM122.471 79.2656C122.471 77.3036 123.317 76.6016 124.631 76.5836C124.973 76.5836 125.531 76.6376 126.017 76.7816V81.6776C125.441 81.8756 124.757 81.9116 124.469 81.9116C123.227 81.9116 122.471 81.1196 122.471 79.2656ZM135.603 82.0556C133.911 82.0556 133.605 81.2816 133.605 79.6976V74.8736C133.605 74.6396 133.479 74.5316 133.227 74.5316H131.355C131.013 74.5316 130.977 74.6036 130.977 74.8736V79.5356C130.977 82.9376 132.255 84.2156 135.729 84.2156C136.449 84.2156 137.763 84.1256 138.321 84.0356C139.167 83.8376 139.437 83.3696 139.437 82.5596V74.8736C139.437 74.6396 139.311 74.5316 139.059 74.5316H137.205C136.863 74.5316 136.827 74.6036 136.827 74.8736V81.9656C136.323 82.0376 135.837 82.0556 135.603 82.0556ZM150.5 79.2296C150.5 76.1516 148.97 74.3156 145.946 74.3156C143.138 74.3156 141.41 76.1696 141.41 79.2656C141.41 82.3796 142.796 84.1976 145.91 84.1976C149.006 84.1976 150.5 82.3976 150.5 79.2296ZM147.782 79.2836C147.782 80.7956 147.278 81.9836 145.928 81.9836C144.632 81.9836 144.11 81.0296 144.11 79.2296C144.11 77.5736 144.704 76.5296 145.982 76.5296C147.332 76.5296 147.782 77.6636 147.782 79.2836ZM147.08 70.7336C146.702 70.4276 146.324 70.2656 145.982 70.2656C145.676 70.2656 145.28 70.4456 144.938 70.7336L142.544 72.8036C142.382 72.9656 142.4 73.0376 142.544 73.2356L143.012 73.7216C143.174 73.9196 143.3 73.8836 143.498 73.7576L145.982 72.4076L148.538 73.7936C148.736 73.9196 148.898 73.9736 149.042 73.8116L149.546 73.2536C149.708 73.0916 149.726 72.9836 149.51 72.7856L147.08 70.7336ZM148.232 70.1216C148.034 70.2836 148.07 70.3556 148.196 70.4996L148.88 71.3276C149.006 71.4536 149.078 71.5076 149.312 71.3816L152.786 69.5996C152.93 69.5456 152.966 69.4016 152.822 69.2576L151.58 67.8356C151.382 67.6376 151.292 67.7276 151.148 67.8536L148.232 70.1216ZM156.849 81.8576C155.265 81.8576 154.833 80.7956 154.833 79.3016C154.833 77.8796 155.373 76.6556 156.795 76.6556C157.353 76.6556 157.947 76.7816 158.577 76.9796C158.919 77.0696 159.009 77.0876 159.135 76.8176L159.639 75.4316C159.765 75.1436 159.747 75.0716 159.441 74.9276C158.631 74.5136 157.605 74.3156 156.597 74.3156C153.843 74.3156 152.115 76.2056 152.115 79.3016C152.115 82.5596 153.609 84.1976 156.435 84.1976C157.425 84.1976 158.703 84.0356 159.765 83.4596C160.035 83.3156 160.017 83.1896 159.891 82.9556L159.387 81.6056C159.297 81.3356 159.225 81.3176 158.919 81.4436C158.397 81.6416 157.623 81.8576 156.849 81.8576ZM172.812 82.0196C172.794 81.8576 172.704 81.8036 172.506 81.8396C172.182 81.8936 171.498 81.9656 171.156 81.9656C170.454 81.9656 170.112 81.7496 170.112 81.0476V76.4756H172.092C172.38 76.4756 172.38 76.3676 172.38 76.1336V74.8556C172.38 74.6576 172.362 74.5496 172.092 74.5496H170.112V72.1376C170.112 71.8496 169.968 71.7596 169.752 71.8136L168.096 72.3536C167.826 72.4256 167.7 72.5156 167.682 72.8036L167.556 74.4956L166.224 74.8016C165.954 74.8736 165.936 74.9276 165.936 75.1616V76.1336C165.936 76.3316 165.972 76.4756 166.242 76.4756H167.502V81.6056C167.502 83.3156 168.312 84.1976 170.382 84.1976C171.012 84.1976 171.966 84.1616 172.848 83.8916C173.118 83.8016 173.046 83.6936 173.028 83.5316L172.812 82.0196ZM178.516 74.3156C175.798 74.3156 174.052 76.1516 174.052 79.3196C174.052 82.7036 175.528 84.1976 178.678 84.1976C179.686 84.1976 180.982 83.9636 181.864 83.3876C182.062 83.2616 182.116 83.1716 182.026 82.9556L181.45 81.6596C181.36 81.4616 181.288 81.4436 181 81.5336C180.37 81.8036 179.632 81.9836 178.93 81.9836C177.724 81.9836 176.824 81.5336 176.77 80.0036H181.378C182.224 80.0036 182.728 79.6256 182.728 78.3836C182.728 75.7736 181.324 74.3156 178.516 74.3156ZM178.57 76.4756C179.83 76.4756 180.19 77.2676 180.19 78.3296H176.824C176.914 77.2496 177.58 76.4756 178.57 76.4756ZM179.632 70.7336C179.254 70.4276 178.876 70.2656 178.534 70.2656C178.228 70.2656 177.832 70.4456 177.49 70.7336L175.096 72.8036C174.934 72.9656 174.952 73.0376 175.096 73.2356L175.564 73.7216C175.726 73.9196 175.852 73.8836 176.05 73.7576L178.534 72.4076L181.09 73.7936C181.288 73.9196 181.45 73.9736 181.594 73.8116L182.098 73.2536C182.26 73.0916 182.278 72.9836 182.062 72.7856L179.632 70.7336ZM180.892 70.1216C180.694 70.2836 180.73 70.3556 180.856 70.4996L181.54 71.3276C181.666 71.4536 181.738 71.5076 181.972 71.3816L185.446 69.5996C185.59 69.5456 185.626 69.4016 185.482 69.2576L184.24 67.8356C184.042 67.6376 183.952 67.7276 183.808 67.8536L180.892 70.1216ZM198.343 75.5936C198.343 75.3236 198.289 75.1976 197.983 75.0356C196.885 74.5316 195.481 74.3516 194.185 74.3516C190.891 74.3516 189.451 76.5116 189.451 79.2656C189.451 82.0736 190.711 83.9816 193.591 83.9816C194.311 83.9816 195.067 83.9096 195.697 83.7116V83.8196C195.697 85.2236 194.293 85.6016 192.943 85.8356C192.745 85.8896 192.655 85.8896 192.709 86.1596L192.943 87.8876C192.997 88.1216 193.051 88.1756 193.321 88.1216C196.543 87.6896 198.343 86.4116 198.343 83.0276V75.5936ZM192.169 79.2116C192.169 77.2676 193.015 76.5656 194.329 76.5656C194.671 76.5656 195.229 76.6196 195.715 76.7636V81.5156C195.139 81.7136 194.455 81.7496 194.167 81.7496C192.925 81.7496 192.169 81.0656 192.169 79.2116ZM203.86 72.0836C203.86 71.2376 203.176 70.5896 202.348 70.5896C201.538 70.5896 200.854 71.2376 200.854 72.0836C200.854 72.9296 201.538 73.5596 202.348 73.5596C203.194 73.5596 203.86 72.9296 203.86 72.0836ZM203.626 74.8736C203.626 74.6036 203.572 74.5496 203.23 74.5496H201.394C201.124 74.5496 201.016 74.6036 201.016 74.8736V83.6756C201.016 83.9456 201.124 83.9996 201.394 83.9996H203.23C203.572 83.9996 203.626 83.9456 203.626 83.6756V74.8736ZM214.309 77.6096C214.309 75.4316 213.121 74.2976 210.511 74.2976C209.341 74.2976 208.117 74.4596 207.037 74.8376C206.839 74.9096 206.785 74.9816 206.857 75.2516L207.145 76.5116C207.199 76.7456 207.289 76.8176 207.595 76.7456C208.261 76.5476 209.395 76.4036 210.133 76.4036C211.483 76.4036 211.699 77.0156 211.699 77.6816V77.9696H209.719C207.145 77.9696 205.921 79.3376 205.921 81.1916C205.921 82.8656 206.875 84.1976 210.115 84.1976C211.321 84.1976 212.833 84.0536 213.931 83.5316C214.273 83.3336 214.309 83.1356 214.309 82.8296V77.6096ZM211.681 81.8936C211.195 82.0916 210.475 82.1276 210.187 82.1276C209.233 82.1276 208.621 81.8396 208.621 80.9936C208.621 79.8416 209.593 79.7156 210.259 79.7156H211.681V81.8936ZM208.567 72.4616C208.369 72.6236 208.405 72.6956 208.531 72.8396L209.215 73.6676C209.341 73.7936 209.413 73.8476 209.647 73.7216L213.121 71.9396C213.265 71.8856 213.301 71.7416 213.157 71.5976L211.915 70.1756C211.717 69.9776 211.627 70.0676 211.483 70.1936L208.567 72.4616ZM224.556 76.7276C224.79 76.6916 225.024 76.6736 225.276 76.6736C226.23 76.6916 226.986 77.0516 227.652 77.5556C227.922 77.7176 227.994 77.7716 228.138 77.5376L229.074 76.0436C229.146 75.8996 229.2 75.7736 229.002 75.6296C227.796 74.7476 226.176 74.3516 224.592 74.3516C224.106 74.3516 223.656 74.3876 223.224 74.4416C222.162 74.6036 221.946 75.0716 221.946 76.0076V83.6756C221.946 83.9456 222.054 83.9996 222.324 83.9996H224.16C224.502 83.9996 224.556 83.9636 224.556 83.6756V76.7276ZM234.327 74.3156C237.135 74.3156 238.539 75.7736 238.539 78.3836C238.539 79.6256 238.035 80.0036 237.189 80.0036H232.581C232.635 81.5336 233.535 81.9836 234.741 81.9836C235.443 81.9836 236.181 81.8036 236.811 81.5336C237.099 81.4436 237.171 81.4616 237.261 81.6596L237.837 82.9556C237.927 83.1716 237.873 83.2616 237.675 83.3876C236.793 83.9636 235.497 84.1976 234.489 84.1976C231.339 84.1976 229.863 82.7036 229.863 79.3196C229.863 76.1516 231.609 74.3156 234.327 74.3156ZM234.381 76.4756C233.391 76.4756 232.725 77.2496 232.635 78.3296H236.001C236.001 77.2676 235.641 76.4756 234.381 76.4756ZM234.345 69.8156C233.913 69.8156 233.373 69.9596 232.941 70.2836C232.707 70.4816 232.635 70.8056 232.815 71.1836C233.049 71.6696 233.391 71.5796 233.805 71.3276C234.147 71.1296 234.615 71.1116 234.615 71.3096C234.615 71.3996 234.543 71.7056 234.309 71.9036C233.877 72.2636 233.445 72.4796 233.445 73.2176C233.445 73.5776 233.697 73.8296 234.057 73.8296H234.237C234.543 73.8296 234.795 73.5776 234.849 73.2896C235.263 72.5876 236.091 72.2456 236.091 71.3456C236.091 70.4096 235.407 69.8156 234.345 69.8156Z" fill="#44494D"/>
<path d="M93.5039 108.694C93.1667 109.177 92.695 109.539 92.0889 109.781C91.4873 110.018 90.7855 110.136 89.9834 110.136C89.1722 110.136 88.4521 109.947 87.8232 109.569C87.1943 109.186 86.7067 108.644 86.3604 107.942C86.0186 107.24 85.8431 106.427 85.834 105.502V104.633C85.834 103.134 86.1826 101.972 86.8799 101.147C87.5817 100.322 88.5661 99.9098 89.833 99.9098C90.8721 99.9098 91.7083 100.176 92.3418 100.71C92.9753 101.238 93.3626 101.99 93.5039 102.965H92.1914C91.9453 101.648 91.1615 100.99 89.8398 100.99C88.9603 100.99 88.2926 101.3 87.8369 101.92C87.3857 102.535 87.1579 103.428 87.1533 104.599V105.413C87.1533 106.529 87.4085 107.418 87.9189 108.079C88.4294 108.735 89.1198 109.063 89.9902 109.063C90.4824 109.063 90.9131 109.008 91.2822 108.899C91.6514 108.79 91.9567 108.605 92.1982 108.345V106.11H89.8945V105.044H93.5039V108.694ZM96.874 110H95.6094V102.603H96.874V110ZM95.5068 100.641C95.5068 100.436 95.5684 100.263 95.6914 100.122C95.819 99.9804 96.0059 99.9098 96.252 99.9098C96.498 99.9098 96.6849 99.9804 96.8125 100.122C96.9401 100.263 97.0039 100.436 97.0039 100.641C97.0039 100.846 96.9401 101.017 96.8125 101.154C96.6849 101.291 96.498 101.359 96.252 101.359C96.0059 101.359 95.819 101.291 95.6914 101.154C95.5684 101.017 95.5068 100.846 95.5068 100.641ZM103.471 110C103.398 109.854 103.339 109.594 103.293 109.22C102.705 109.831 102.003 110.136 101.188 110.136C100.458 110.136 99.859 109.931 99.3896 109.521C98.9248 109.106 98.6924 108.582 98.6924 107.949C98.6924 107.179 98.984 106.582 99.5674 106.158C100.155 105.729 100.98 105.515 102.042 105.515H103.272V104.934C103.272 104.492 103.14 104.141 102.876 103.881C102.612 103.617 102.222 103.485 101.707 103.485C101.256 103.485 100.878 103.599 100.572 103.827C100.267 104.055 100.114 104.33 100.114 104.654H98.8428C98.8428 104.285 98.9727 103.929 99.2324 103.588C99.4967 103.241 99.8522 102.968 100.299 102.767C100.75 102.567 101.244 102.466 101.782 102.466C102.634 102.466 103.302 102.681 103.785 103.109C104.268 103.533 104.519 104.118 104.537 104.866V108.27C104.537 108.949 104.624 109.489 104.797 109.89V110H103.471ZM101.372 109.036C101.769 109.036 102.145 108.933 102.5 108.728C102.855 108.523 103.113 108.256 103.272 107.928V106.411H102.281C100.732 106.411 99.957 106.864 99.957 107.771C99.957 108.168 100.089 108.477 100.354 108.701C100.618 108.924 100.957 109.036 101.372 109.036ZM102.541 99.4996H104.072L102.24 101.509H101.222L102.541 99.4996ZM113.567 103.738C113.376 103.706 113.169 103.69 112.945 103.69C112.116 103.69 111.553 104.043 111.257 104.75V110H109.992V102.603H111.223L111.243 103.458C111.658 102.797 112.246 102.466 113.007 102.466C113.253 102.466 113.44 102.498 113.567 102.562V103.738ZM117.669 110.136C116.666 110.136 115.851 109.808 115.222 109.152C114.593 108.491 114.278 107.609 114.278 106.506V106.274C114.278 105.54 114.417 104.886 114.695 104.312C114.978 103.733 115.37 103.282 115.871 102.959C116.377 102.63 116.924 102.466 117.512 102.466C118.473 102.466 119.221 102.783 119.754 103.417C120.287 104.05 120.554 104.957 120.554 106.137V106.664H115.543C115.561 107.393 115.773 107.983 116.179 108.434C116.589 108.881 117.108 109.104 117.737 109.104C118.184 109.104 118.562 109.013 118.872 108.831C119.182 108.648 119.453 108.407 119.686 108.106L120.458 108.708C119.838 109.66 118.909 110.136 117.669 110.136ZM117.512 103.505C117.001 103.505 116.573 103.692 116.227 104.066C115.88 104.435 115.666 104.955 115.584 105.625H119.289V105.529C119.253 104.886 119.079 104.39 118.77 104.039C118.46 103.683 118.04 103.505 117.512 103.505ZM117.081 101.407L117.074 100.361C117.416 100.338 117.667 100.293 117.826 100.224C117.986 100.156 118.065 100.033 118.065 99.8551C118.065 99.6774 117.961 99.5452 117.751 99.4586C117.546 99.3675 117.272 99.3219 116.931 99.3219L116.979 98.5973C117.658 98.5973 118.173 98.7158 118.523 98.9528C118.874 99.1852 119.05 99.4951 119.05 99.8824C119.05 100.16 118.961 100.391 118.783 100.573C118.605 100.755 118.341 100.871 117.99 100.922L117.983 101.407H117.081ZM131.758 106.383C131.758 107.514 131.498 108.423 130.979 109.111C130.459 109.795 129.762 110.136 128.887 110.136C127.952 110.136 127.23 109.806 126.72 109.145L126.658 110H125.496V99.4996H126.761V103.417C127.271 102.783 127.975 102.466 128.873 102.466C129.771 102.466 130.475 102.806 130.985 103.485C131.5 104.164 131.758 105.094 131.758 106.274V106.383ZM130.493 106.24C130.493 105.379 130.327 104.713 129.994 104.244C129.661 103.774 129.183 103.54 128.559 103.54C127.725 103.54 127.125 103.927 126.761 104.702V107.901C127.148 108.676 127.752 109.063 128.572 109.063C129.178 109.063 129.65 108.828 129.987 108.359C130.325 107.89 130.493 107.183 130.493 106.24ZM137.924 110C137.851 109.854 137.792 109.594 137.746 109.22C137.158 109.831 136.456 110.136 135.641 110.136C134.911 110.136 134.312 109.931 133.843 109.521C133.378 109.106 133.146 108.582 133.146 107.949C133.146 107.179 133.437 106.582 134.021 106.158C134.608 105.729 135.433 105.515 136.495 105.515H137.726V104.934C137.726 104.492 137.593 104.141 137.329 103.881C137.065 103.617 136.675 103.485 136.16 103.485C135.709 103.485 135.331 103.599 135.025 103.827C134.72 104.055 134.567 104.33 134.567 104.654H133.296C133.296 104.285 133.426 103.929 133.686 103.588C133.95 103.241 134.305 102.968 134.752 102.767C135.203 102.567 135.698 102.466 136.235 102.466C137.088 102.466 137.755 102.681 138.238 103.109C138.721 103.533 138.972 104.118 138.99 104.866V108.27C138.99 108.949 139.077 109.489 139.25 109.89V110H137.924ZM135.825 109.036C136.222 109.036 136.598 108.933 136.953 108.728C137.309 108.523 137.566 108.256 137.726 107.928V106.411H136.734C135.185 106.411 134.41 106.864 134.41 107.771C134.41 108.168 134.542 108.477 134.807 108.701C135.071 108.924 135.41 109.036 135.825 109.036ZM138.409 100.101C138.409 100.534 138.218 100.88 137.835 101.14C137.452 101.4 136.953 101.53 136.338 101.53C135.718 101.53 135.217 101.4 134.834 101.14C134.451 100.88 134.26 100.534 134.26 100.101H135.299C135.299 100.352 135.388 100.548 135.565 100.689C135.748 100.826 136.005 100.894 136.338 100.894C136.661 100.894 136.912 100.824 137.09 100.682C137.272 100.536 137.363 100.343 137.363 100.101H138.409ZM134.998 98.611H136.051L136.816 99.9645H136.126L134.998 98.611ZM142.169 102.603L142.21 103.533C142.775 102.822 143.513 102.466 144.425 102.466C145.988 102.466 146.776 103.348 146.79 105.112V110H145.525V105.105C145.521 104.572 145.398 104.178 145.156 103.922C144.919 103.667 144.548 103.54 144.042 103.54C143.632 103.54 143.272 103.649 142.962 103.868C142.652 104.087 142.41 104.374 142.237 104.729V110H140.973V102.603H142.169ZM148.396 106.24C148.396 105.087 148.663 104.171 149.196 103.492C149.729 102.808 150.436 102.466 151.315 102.466C152.218 102.466 152.922 102.785 153.428 103.423L153.489 102.603H154.645V109.822C154.645 110.779 154.36 111.533 153.79 112.085C153.225 112.636 152.464 112.912 151.507 112.912C150.974 112.912 150.452 112.798 149.941 112.57C149.431 112.342 149.041 112.03 148.772 111.633L149.429 110.875C149.971 111.545 150.634 111.88 151.418 111.88C152.033 111.88 152.512 111.706 152.854 111.36C153.2 111.014 153.373 110.526 153.373 109.897V109.261C152.867 109.845 152.177 110.136 151.302 110.136C150.436 110.136 149.734 109.788 149.196 109.09C148.663 108.393 148.396 107.443 148.396 106.24ZM149.668 106.383C149.668 107.217 149.839 107.874 150.181 108.352C150.522 108.826 151.001 109.063 151.616 109.063C152.414 109.063 152.999 108.701 153.373 107.976V104.599C152.986 103.893 152.405 103.54 151.63 103.54C151.015 103.54 150.534 103.779 150.188 104.257C149.841 104.736 149.668 105.445 149.668 106.383ZM159.73 106.24C159.73 105.087 159.997 104.171 160.53 103.492C161.063 102.808 161.77 102.466 162.649 102.466C163.552 102.466 164.256 102.785 164.762 103.423L164.823 102.603H165.979V109.822C165.979 110.779 165.694 111.533 165.124 112.085C164.559 112.636 163.798 112.912 162.841 112.912C162.308 112.912 161.786 112.798 161.275 112.57C160.765 112.342 160.375 112.03 160.106 111.633L160.763 110.875C161.305 111.545 161.968 111.88 162.752 111.88C163.367 111.88 163.846 111.706 164.188 111.36C164.534 111.014 164.707 110.526 164.707 109.897V109.261C164.201 109.845 163.511 110.136 162.636 110.136C161.77 110.136 161.068 109.788 160.53 109.09C159.997 108.393 159.73 107.443 159.73 106.24ZM161.002 106.383C161.002 107.217 161.173 107.874 161.515 108.352C161.856 108.826 162.335 109.063 162.95 109.063C163.748 109.063 164.333 108.701 164.707 107.976V104.599C164.32 103.893 163.739 103.54 162.964 103.54C162.349 103.54 161.868 103.779 161.521 104.257C161.175 104.736 161.002 105.445 161.002 106.383ZM167.558 106.233C167.558 105.508 167.699 104.857 167.981 104.278C168.269 103.699 168.665 103.253 169.171 102.938C169.681 102.624 170.262 102.466 170.914 102.466C171.921 102.466 172.735 102.815 173.354 103.512C173.979 104.21 174.291 105.137 174.291 106.295V106.383C174.291 107.103 174.152 107.751 173.874 108.325C173.601 108.894 173.206 109.339 172.691 109.658C172.181 109.977 171.593 110.136 170.928 110.136C169.925 110.136 169.112 109.788 168.487 109.09C167.868 108.393 167.558 107.47 167.558 106.322V106.233ZM168.829 106.383C168.829 107.204 169.018 107.862 169.396 108.359C169.779 108.856 170.29 109.104 170.928 109.104C171.57 109.104 172.081 108.853 172.459 108.352C172.837 107.846 173.026 107.14 173.026 106.233C173.026 105.422 172.833 104.766 172.445 104.264C172.062 103.758 171.552 103.505 170.914 103.505C170.29 103.505 169.786 103.754 169.403 104.251C169.021 104.747 168.829 105.458 168.829 106.383ZM170.142 111.674C170.142 111.469 170.203 111.296 170.326 111.155C170.454 111.014 170.641 110.943 170.887 110.943C171.133 110.943 171.32 111.014 171.447 111.155C171.575 111.296 171.639 111.469 171.639 111.674C171.639 111.88 171.575 112.05 171.447 112.187C171.32 112.324 171.133 112.392 170.887 112.392C170.641 112.392 170.454 112.324 170.326 112.187C170.203 112.05 170.142 111.88 170.142 111.674ZM177.251 110H175.986V102.603H177.251V110ZM175.884 100.641C175.884 100.436 175.945 100.263 176.068 100.122C176.196 99.9804 176.383 99.9098 176.629 99.9098C176.875 99.9098 177.062 99.9804 177.189 100.122C177.317 100.263 177.381 100.436 177.381 100.641C177.381 100.846 177.317 101.017 177.189 101.154C177.062 101.291 176.875 101.359 176.629 101.359C176.383 101.359 176.196 101.291 176.068 101.154C175.945 101.017 175.884 100.846 175.884 100.641ZM184.47 100.812V102.603H185.851V103.581H184.47V108.168C184.47 108.464 184.531 108.687 184.654 108.838C184.777 108.983 184.987 109.056 185.283 109.056C185.429 109.056 185.63 109.029 185.885 108.974V110C185.552 110.091 185.229 110.136 184.914 110.136C184.349 110.136 183.923 109.965 183.636 109.624C183.349 109.282 183.205 108.797 183.205 108.168V103.581H181.858V102.603H183.205V100.812H184.47ZM190.909 103.738C190.718 103.706 190.51 103.69 190.287 103.69C189.458 103.69 188.895 104.043 188.599 104.75V110H187.334V102.603H188.564L188.585 103.458C189 102.797 189.588 102.466 190.349 102.466C190.595 102.466 190.782 102.498 190.909 102.562V103.738ZM191.606 106.233C191.606 105.508 191.748 104.857 192.03 104.278C192.317 103.699 192.714 103.253 193.22 102.938C193.73 102.624 194.311 102.466 194.963 102.466C195.97 102.466 196.784 102.815 197.403 103.512C198.028 104.21 198.34 105.137 198.34 106.295V106.383C198.34 107.103 198.201 107.751 197.923 108.325C197.649 108.894 197.255 109.339 196.74 109.658C196.23 109.977 195.642 110.136 194.977 110.136C193.974 110.136 193.16 109.788 192.536 109.09C191.916 108.393 191.606 107.47 191.606 106.322V106.233ZM192.878 106.383C192.878 107.204 193.067 107.862 193.445 108.359C193.828 108.856 194.339 109.104 194.977 109.104C195.619 109.104 196.13 108.853 196.508 108.352C196.886 107.846 197.075 107.14 197.075 106.233C197.075 105.422 196.882 104.766 196.494 104.264C196.111 103.758 195.601 103.505 194.963 103.505C194.339 103.505 193.835 103.754 193.452 104.251C193.069 104.747 192.878 105.458 192.878 106.383ZM201.122 102.603L201.163 103.533C201.728 102.822 202.466 102.466 203.378 102.466C204.941 102.466 205.729 103.348 205.743 105.112V110H204.479V105.105C204.474 104.572 204.351 104.178 204.109 103.922C203.872 103.667 203.501 103.54 202.995 103.54C202.585 103.54 202.225 103.649 201.915 103.868C201.605 104.087 201.364 104.374 201.19 104.729V110H199.926V102.603H201.122ZM207.35 106.24C207.35 105.087 207.616 104.171 208.149 103.492C208.683 102.808 209.389 102.466 210.269 102.466C211.171 102.466 211.875 102.785 212.381 103.423L212.442 102.603H213.598V109.822C213.598 110.779 213.313 111.533 212.743 112.085C212.178 112.636 211.417 112.912 210.46 112.912C209.927 112.912 209.405 112.798 208.895 112.57C208.384 112.342 207.994 112.03 207.726 111.633L208.382 110.875C208.924 111.545 209.587 111.88 210.371 111.88C210.986 111.88 211.465 111.706 211.807 111.36C212.153 111.014 212.326 110.526 212.326 109.897V109.261C211.82 109.845 211.13 110.136 210.255 110.136C209.389 110.136 208.687 109.788 208.149 109.09C207.616 108.393 207.35 107.443 207.35 106.24ZM208.621 106.383C208.621 107.217 208.792 107.874 209.134 108.352C209.476 108.826 209.954 109.063 210.569 109.063C211.367 109.063 211.952 108.701 212.326 107.976V104.599C211.939 103.893 211.358 103.54 210.583 103.54C209.968 103.54 209.487 103.779 209.141 104.257C208.794 104.736 208.621 105.445 208.621 106.383ZM220.181 102.603L220.222 103.533C220.787 102.822 221.525 102.466 222.437 102.466C224 102.466 224.788 103.348 224.802 105.112V110H223.537V105.105C223.533 104.572 223.41 104.178 223.168 103.922C222.931 103.667 222.56 103.54 222.054 103.54C221.644 103.54 221.284 103.649 220.974 103.868C220.664 104.087 220.422 104.374 220.249 104.729V110H218.984V102.603H220.181ZM234.604 102.015C234.604 102.836 234.436 103.414 234.099 103.752C233.766 104.084 233.235 104.26 232.506 104.278V110H231.303L231.275 109.268C230.783 109.847 230.061 110.136 229.108 110.136C228.32 110.136 227.718 109.908 227.304 109.453C226.894 108.992 226.686 108.313 226.682 107.416V102.603H227.946V107.381C227.946 108.503 228.402 109.063 229.313 109.063C230.28 109.063 230.922 108.703 231.241 107.983V102.603H232.506V103.499C232.816 103.49 233.048 103.446 233.203 103.369C233.358 103.287 233.467 103.164 233.531 103C233.6 102.836 233.634 102.507 233.634 102.015H234.604ZM235.042 106.233C235.042 105.508 235.181 104.859 235.459 104.285C235.742 103.706 236.138 103.259 236.648 102.945C237.163 102.626 237.747 102.466 238.398 102.466C239.342 102.466 240.123 102.781 240.743 103.41C241.067 103.373 241.301 103.241 241.447 103.013C241.593 102.785 241.666 102.38 241.666 101.797H242.691C242.691 103.123 242.22 103.902 241.276 104.134C241.609 104.763 241.775 105.463 241.775 106.233V106.383C241.775 107.103 241.634 107.753 241.352 108.332C241.069 108.91 240.673 109.357 240.162 109.672C239.652 109.981 239.068 110.136 238.412 110.136C237.4 110.136 236.585 109.788 235.965 109.09C235.35 108.389 235.042 107.466 235.042 106.322V106.233ZM236.307 106.383C236.307 107.204 236.496 107.862 236.874 108.359C237.257 108.856 237.77 109.104 238.412 109.104C239.046 109.104 239.551 108.856 239.93 108.359C240.312 107.858 240.504 107.186 240.504 106.342V106.233C240.504 105.408 240.31 104.747 239.923 104.251C239.54 103.754 239.032 103.505 238.398 103.505C237.77 103.505 237.264 103.754 236.881 104.251C236.498 104.747 236.307 105.458 236.307 106.383ZM239.021 99.4996H240.552L238.72 101.509H237.701L239.021 99.4996ZM246.342 109.104C246.793 109.104 247.187 108.967 247.524 108.694C247.862 108.421 248.049 108.079 248.085 107.669H249.281C249.258 108.092 249.113 108.496 248.844 108.879C248.575 109.261 248.215 109.567 247.764 109.795C247.317 110.022 246.843 110.136 246.342 110.136C245.335 110.136 244.533 109.801 243.936 109.131C243.343 108.457 243.047 107.536 243.047 106.37V106.158C243.047 105.438 243.179 104.797 243.443 104.237C243.708 103.676 244.086 103.241 244.578 102.931C245.075 102.621 245.66 102.466 246.335 102.466C247.164 102.466 247.853 102.715 248.399 103.212C248.951 103.708 249.245 104.353 249.281 105.146H248.085C248.049 104.668 247.866 104.276 247.538 103.97C247.215 103.66 246.813 103.505 246.335 103.505C245.692 103.505 245.193 103.738 244.838 104.203C244.487 104.663 244.312 105.331 244.312 106.206V106.445C244.312 107.297 244.487 107.953 244.838 108.414C245.189 108.874 245.69 109.104 246.342 109.104Z" fill="#44494D"/>
<path d="M69 290C69 285.581 72.5817 282 77 282H423C427.418 282 431 285.581 431 290V362C431 366.418 427.418 370 423 370H69V290Z" fill="white"/>
<path d="M90.994 320C95.242 320 96.556 316.94 96.556 313.628C96.556 310.244 95.026 307.382 90.796 307.382H87.43C86.566 307.382 86.35 307.724 86.35 308.498V318.902C86.35 319.676 86.566 320 87.43 320H90.994ZM93.73 313.628C93.73 315.932 93.064 317.588 90.544 317.588H89.086V309.776H90.49C93.046 309.776 93.73 311.432 93.73 313.628ZM106.749 313.61C106.749 311.432 105.561 310.298 102.951 310.298C101.781 310.298 100.557 310.46 99.4768 310.838C99.2788 310.91 99.2248 310.982 99.2968 311.252L99.5848 312.512C99.6388 312.746 99.7288 312.818 100.035 312.746C100.701 312.548 101.835 312.404 102.573 312.404C103.923 312.404 104.139 313.016 104.139 313.682V313.97H102.159C99.5848 313.97 98.3608 315.338 98.3608 317.192C98.3608 318.866 99.3148 320.198 102.555 320.198C103.761 320.198 105.273 320.054 106.371 319.532C106.713 319.334 106.749 319.136 106.749 318.83V313.61ZM104.121 317.894C103.635 318.092 102.915 318.128 102.627 318.128C101.673 318.128 101.061 317.84 101.061 316.994C101.061 315.842 102.033 315.716 102.699 315.716H104.121V317.894ZM115.068 318.02C115.05 317.858 114.96 317.804 114.762 317.84C114.438 317.894 113.754 317.966 113.412 317.966C112.71 317.966 112.368 317.75 112.368 317.048V312.476H114.348C114.636 312.476 114.636 312.368 114.636 312.134V310.856C114.636 310.658 114.618 310.55 114.348 310.55H112.368V308.138C112.368 307.85 112.224 307.76 112.008 307.814L110.352 308.354C110.082 308.426 109.956 308.516 109.938 308.804L109.812 310.496L108.48 310.802C108.21 310.874 108.192 310.928 108.192 311.162V312.134C108.192 312.332 108.228 312.476 108.498 312.476H109.758V317.606C109.758 319.316 110.568 320.198 112.638 320.198C113.268 320.198 114.222 320.162 115.104 319.892C115.374 319.802 115.302 319.694 115.284 319.532L115.068 318.02ZM124.696 313.61C124.696 311.432 123.508 310.298 120.898 310.298C119.728 310.298 118.504 310.46 117.424 310.838C117.226 310.91 117.172 310.982 117.244 311.252L117.532 312.512C117.586 312.746 117.676 312.818 117.982 312.746C118.648 312.548 119.782 312.404 120.52 312.404C121.87 312.404 122.086 313.016 122.086 313.682V313.97H120.106C117.532 313.97 116.308 315.338 116.308 317.192C116.308 318.866 117.262 320.198 120.502 320.198C121.708 320.198 123.22 320.054 124.318 319.532C124.66 319.334 124.696 319.136 124.696 318.83V313.61ZM122.068 317.894C121.582 318.092 120.862 318.128 120.574 318.128C119.62 318.128 119.008 317.84 119.008 316.994C119.008 315.842 119.98 315.716 120.646 315.716H122.068V317.894ZM142.755 319.64C142.755 319.982 142.881 320 143.151 320H144.933C145.239 320 145.347 319.982 145.347 319.64V308.552C145.347 307.634 144.969 307.382 144.195 307.382H143.313C142.539 307.382 142.287 307.616 141.999 308.264L140.163 312.368L138.939 315.176H138.867L137.751 312.62L135.789 308.228C135.501 307.598 135.249 307.382 134.583 307.382H133.539C132.693 307.382 132.387 307.724 132.387 308.642V319.64C132.387 319.982 132.531 320 132.801 320H134.637C134.943 320 135.051 319.982 135.051 319.64V312.962H135.159L136.275 315.392L137.391 317.732C137.679 318.362 137.805 318.524 138.399 318.524H139.389C139.947 318.524 140.145 318.362 140.415 317.732L141.909 314.42L142.647 312.746H142.755V319.64ZM151.055 308.084C151.055 307.238 150.371 306.59 149.543 306.59C148.733 306.59 148.049 307.238 148.049 308.084C148.049 308.93 148.733 309.56 149.543 309.56C150.389 309.56 151.055 308.93 151.055 308.084ZM150.821 310.874C150.821 310.604 150.767 310.55 150.425 310.55H148.589C148.319 310.55 148.211 310.604 148.211 310.874V319.676C148.211 319.946 148.319 320 148.589 320H150.425C150.767 320 150.821 319.946 150.821 319.676V310.874ZM156.087 312.566C156.429 312.494 156.969 312.476 157.239 312.476C158.913 312.476 159.309 313.34 159.309 314.816V319.676C159.309 319.946 159.417 320 159.687 320H161.541C161.883 320 161.937 319.946 161.937 319.676V314.924C161.937 314.132 161.865 313.448 161.649 312.854C162.027 312.656 162.819 312.53 163.269 312.53C164.835 312.53 165.303 313.412 165.303 315.05V319.676C165.303 319.946 165.411 320 165.681 320H167.517C167.859 320 167.913 319.946 167.913 319.676V314.744C167.913 312.134 166.671 310.298 163.557 310.298C162.405 310.298 161.181 310.64 160.389 311.162C159.579 310.568 158.517 310.316 157.023 310.316C156.339 310.316 155.007 310.406 154.593 310.496C153.639 310.712 153.477 311.18 153.477 311.99V319.676C153.477 319.946 153.585 320 153.855 320H155.709C156.051 320 156.087 319.946 156.087 319.676V312.566ZM178.274 313.61C178.274 311.432 177.086 310.298 174.476 310.298C173.306 310.298 172.082 310.46 171.002 310.838C170.804 310.91 170.75 310.982 170.822 311.252L171.11 312.512C171.164 312.746 171.254 312.818 171.56 312.746C172.226 312.548 173.36 312.404 174.098 312.404C175.448 312.404 175.664 313.016 175.664 313.682V313.97H173.684C171.11 313.97 169.886 315.338 169.886 317.192C169.886 318.866 170.84 320.198 174.08 320.198C175.286 320.198 176.798 320.054 177.896 319.532C178.238 319.334 178.274 319.136 178.274 318.83V313.61ZM175.646 317.894C175.16 318.092 174.44 318.128 174.152 318.128C173.198 318.128 172.586 317.84 172.586 316.994C172.586 315.842 173.558 315.716 174.224 315.716H175.646V317.894ZM185.711 319.604C185.855 319.874 185.945 320 186.359 320H188.465C188.753 320 188.789 319.82 188.663 319.622L185.603 314.978L188.375 310.856C188.429 310.73 188.447 310.55 188.177 310.55H186.053C185.711 310.55 185.585 310.622 185.441 310.892L184.163 313.214L182.903 310.892C182.777 310.622 182.633 310.55 182.291 310.55H180.131C179.897 310.55 179.879 310.748 179.969 310.874L182.687 315.014L179.645 319.604C179.501 319.838 179.573 320 179.843 320H181.895C182.255 320 182.399 319.874 182.543 319.604L184.145 316.832L185.711 319.604Z" fill="#44494D"/>
<path d="M93.8047 346H92.4854L87.4746 338.33V346H86.1553V336.047H87.4746L92.499 343.751V336.047H93.8047V346ZM97.2021 339.499C97.7627 338.811 98.4919 338.466 99.3896 338.466C100.953 338.466 101.741 339.348 101.755 341.112V346H100.49V341.105C100.486 340.572 100.363 340.178 100.121 339.922C99.8841 339.667 99.5127 339.54 99.0068 339.54C98.5967 339.54 98.2367 339.649 97.9268 339.868C97.6169 340.087 97.3753 340.374 97.2021 340.729V346H95.9375V335.5H97.2021V339.499ZM108.215 346C108.142 345.854 108.083 345.594 108.037 345.22C107.449 345.831 106.747 346.136 105.932 346.136C105.202 346.136 104.603 345.931 104.134 345.521C103.669 345.106 103.437 344.582 103.437 343.949C103.437 343.179 103.728 342.582 104.312 342.158C104.899 341.729 105.724 341.515 106.786 341.515H108.017V340.934C108.017 340.492 107.884 340.141 107.62 339.881C107.356 339.617 106.966 339.485 106.451 339.485C106 339.485 105.622 339.599 105.316 339.827C105.011 340.055 104.858 340.33 104.858 340.654H103.587C103.587 340.285 103.717 339.929 103.977 339.588C104.241 339.241 104.596 338.968 105.043 338.767C105.494 338.567 105.989 338.466 106.526 338.466C107.379 338.466 108.046 338.681 108.529 339.109C109.012 339.533 109.263 340.118 109.281 340.866V344.27C109.281 344.949 109.368 345.489 109.541 345.89V346H108.215ZM106.116 345.036C106.513 345.036 106.889 344.933 107.244 344.728C107.6 344.523 107.857 344.256 108.017 343.928V342.411H107.025C105.476 342.411 104.701 342.864 104.701 343.771C104.701 344.168 104.833 344.477 105.098 344.701C105.362 344.924 105.701 345.036 106.116 345.036ZM108.734 337.373V337.441H107.688L106.663 336.279L105.645 337.441H104.599V337.359L106.28 335.5H107.046L108.734 337.373ZM112.46 338.603L112.501 339.533C113.066 338.822 113.804 338.466 114.716 338.466C116.279 338.466 117.067 339.348 117.081 341.112V346H115.816V341.105C115.812 340.572 115.689 340.178 115.447 339.922C115.21 339.667 114.839 339.54 114.333 339.54C113.923 339.54 113.563 339.649 113.253 339.868C112.943 340.087 112.701 340.374 112.528 340.729V346H111.264V338.603H112.46ZM122.912 341.009L123.418 336.047H128.518V337.215H124.491L124.19 339.929C124.678 339.642 125.232 339.499 125.852 339.499C126.758 339.499 127.479 339.799 128.012 340.401C128.545 340.998 128.812 341.807 128.812 342.828C128.812 343.853 128.534 344.662 127.978 345.255C127.426 345.842 126.654 346.136 125.66 346.136C124.781 346.136 124.063 345.893 123.507 345.405C122.951 344.917 122.634 344.243 122.557 343.381H123.753C123.83 343.951 124.033 344.382 124.361 344.673C124.689 344.961 125.122 345.104 125.66 345.104C126.248 345.104 126.708 344.904 127.041 344.503C127.378 344.102 127.547 343.548 127.547 342.841C127.547 342.176 127.365 341.643 127 341.242C126.64 340.836 126.159 340.633 125.558 340.633C125.006 340.633 124.573 340.754 124.259 340.996L123.924 341.269L122.912 341.009ZM135.169 346H133.904V335.5H135.169V346ZM145.095 338.015C145.095 338.836 144.926 339.414 144.589 339.752C144.256 340.084 143.725 340.26 142.996 340.278V346H141.793L141.766 345.268C141.273 345.847 140.551 346.136 139.599 346.136C138.81 346.136 138.209 345.908 137.794 345.453C137.384 344.992 137.176 344.313 137.172 343.416V338.603H138.437V343.381C138.437 344.503 138.892 345.063 139.804 345.063C140.77 345.063 141.412 344.703 141.731 343.983V338.603H142.996V339.499C143.306 339.49 143.538 339.446 143.693 339.369C143.848 339.287 143.958 339.164 144.021 339C144.09 338.836 144.124 338.507 144.124 338.015H145.095ZM150.434 345.268C149.941 345.847 149.219 346.136 148.267 346.136C147.478 346.136 146.877 345.908 146.462 345.453C146.052 344.992 145.844 344.313 145.84 343.416V338.603H147.104V343.381C147.104 344.503 147.56 345.063 148.472 345.063C149.438 345.063 150.08 344.703 150.399 343.983V338.603H151.664V346H150.461L150.434 345.268ZM158.438 346H157.174V335.5H158.438V346ZM168.364 338.015C168.364 338.836 168.196 339.414 167.858 339.752C167.526 340.084 166.995 340.26 166.266 340.278V346H165.062L165.035 345.268C164.543 345.847 163.821 346.136 162.868 346.136C162.08 346.136 161.478 345.908 161.063 345.453C160.653 344.992 160.446 344.313 160.441 343.416V338.603H161.706V343.381C161.706 344.503 162.162 345.063 163.073 345.063C164.039 345.063 164.682 344.703 165.001 343.983V338.603H166.266V339.499C166.576 339.49 166.808 339.446 166.963 339.369C167.118 339.287 167.227 339.164 167.291 339C167.359 338.836 167.394 338.507 167.394 338.015H168.364ZM168.802 342.233C168.802 341.508 168.941 340.859 169.219 340.285C169.501 339.706 169.898 339.259 170.408 338.945C170.923 338.626 171.507 338.466 172.158 338.466C173.102 338.466 173.883 338.781 174.503 339.41C174.826 339.373 175.061 339.241 175.207 339.013C175.353 338.785 175.426 338.38 175.426 337.797H176.451C176.451 339.123 175.979 339.902 175.036 340.134C175.369 340.763 175.535 341.463 175.535 342.233V342.383C175.535 343.103 175.394 343.753 175.111 344.332C174.829 344.91 174.432 345.357 173.922 345.672C173.411 345.981 172.828 346.136 172.172 346.136C171.16 346.136 170.344 345.788 169.725 345.09C169.109 344.389 168.802 343.466 168.802 342.322V342.233ZM170.066 342.383C170.066 343.204 170.256 343.862 170.634 344.359C171.017 344.856 171.529 345.104 172.172 345.104C172.805 345.104 173.311 344.856 173.689 344.359C174.072 343.858 174.264 343.186 174.264 342.342V342.233C174.264 341.408 174.07 340.747 173.683 340.251C173.3 339.754 172.792 339.505 172.158 339.505C171.529 339.505 171.023 339.754 170.641 340.251C170.258 340.747 170.066 341.458 170.066 342.383ZM171.372 347.736C171.372 347.531 171.434 347.358 171.557 347.216C171.684 347.075 171.871 347.005 172.117 347.005C172.363 347.005 172.55 347.075 172.678 347.216C172.805 347.358 172.869 347.531 172.869 347.736C172.869 347.941 172.805 348.112 172.678 348.249C172.55 348.385 172.363 348.454 172.117 348.454C171.871 348.454 171.684 348.385 171.557 348.249C171.434 348.112 171.372 347.941 171.372 347.736ZM178.331 338.603L178.372 339.533C178.937 338.822 179.675 338.466 180.587 338.466C182.15 338.466 182.938 339.348 182.952 341.112V346H181.688V341.105C181.683 340.572 181.56 340.178 181.318 339.922C181.081 339.667 180.71 339.54 180.204 339.54C179.794 339.54 179.434 339.649 179.124 339.868C178.814 340.087 178.573 340.374 178.399 340.729V346H177.135V338.603H178.331ZM184.559 342.24C184.559 341.087 184.825 340.171 185.358 339.492C185.892 338.808 186.598 338.466 187.478 338.466C188.38 338.466 189.084 338.785 189.59 339.423L189.651 338.603H190.807V345.822C190.807 346.779 190.522 347.533 189.952 348.085C189.387 348.636 188.626 348.912 187.669 348.912C187.136 348.912 186.614 348.798 186.104 348.57C185.593 348.342 185.203 348.03 184.935 347.633L185.591 346.875C186.133 347.545 186.796 347.88 187.58 347.88C188.195 347.88 188.674 347.706 189.016 347.36C189.362 347.014 189.535 346.526 189.535 345.897V345.261C189.029 345.845 188.339 346.136 187.464 346.136C186.598 346.136 185.896 345.788 185.358 345.09C184.825 344.393 184.559 343.443 184.559 342.24ZM185.83 342.383C185.83 343.217 186.001 343.874 186.343 344.352C186.685 344.826 187.163 345.063 187.778 345.063C188.576 345.063 189.161 344.701 189.535 343.976V340.599C189.148 339.893 188.567 339.54 187.792 339.54C187.177 339.54 186.696 339.779 186.35 340.257C186.003 340.736 185.83 341.445 185.83 342.383ZM192.68 347.982L191.962 347.49C192.39 346.893 192.614 346.278 192.632 345.644V344.503H193.869V345.494C193.869 345.954 193.755 346.414 193.527 346.875C193.304 347.335 193.021 347.704 192.68 347.982ZM198.641 342.24C198.641 341.087 198.907 340.171 199.44 339.492C199.974 338.808 200.68 338.466 201.56 338.466C202.462 338.466 203.166 338.785 203.672 339.423L203.733 338.603H204.889V345.822C204.889 346.779 204.604 347.533 204.034 348.085C203.469 348.636 202.708 348.912 201.751 348.912C201.218 348.912 200.696 348.798 200.186 348.57C199.675 348.342 199.285 348.03 199.017 347.633L199.673 346.875C200.215 347.545 200.878 347.88 201.662 347.88C202.277 347.88 202.756 347.706 203.098 347.36C203.444 347.014 203.617 346.526 203.617 345.897V345.261C203.111 345.845 202.421 346.136 201.546 346.136C200.68 346.136 199.978 345.788 199.44 345.09C198.907 344.393 198.641 343.443 198.641 342.24ZM199.912 342.383C199.912 343.217 200.083 343.874 200.425 344.352C200.767 344.826 201.245 345.063 201.86 345.063C202.658 345.063 203.243 344.701 203.617 343.976V340.599C203.23 339.893 202.649 339.54 201.874 339.54C201.259 339.54 200.778 339.779 200.432 340.257C200.085 340.736 199.912 341.445 199.912 342.383ZM208.177 346H206.912V338.603H208.177V346ZM206.81 336.641C206.81 336.436 206.871 336.263 206.994 336.122C207.122 335.98 207.309 335.91 207.555 335.91C207.801 335.91 207.988 335.98 208.115 336.122C208.243 336.263 208.307 336.436 208.307 336.641C208.307 336.846 208.243 337.017 208.115 337.154C207.988 337.291 207.801 337.359 207.555 337.359C207.309 337.359 207.122 337.291 206.994 337.154C206.871 337.017 206.81 336.846 206.81 336.641ZM214.773 346C214.701 345.854 214.641 345.594 214.596 345.22C214.008 345.831 213.306 346.136 212.49 346.136C211.761 346.136 211.162 345.931 210.692 345.521C210.228 345.106 209.995 344.582 209.995 343.949C209.995 343.179 210.287 342.582 210.87 342.158C211.458 341.729 212.283 341.515 213.345 341.515H214.575V340.934C214.575 340.492 214.443 340.141 214.179 339.881C213.914 339.617 213.525 339.485 213.01 339.485C212.559 339.485 212.18 339.599 211.875 339.827C211.57 340.055 211.417 340.33 211.417 340.654H210.146C210.146 340.285 210.275 339.929 210.535 339.588C210.799 339.241 211.155 338.968 211.602 338.767C212.053 338.567 212.547 338.466 213.085 338.466C213.937 338.466 214.605 338.681 215.088 339.109C215.571 339.533 215.822 340.118 215.84 340.866V344.27C215.84 344.949 215.926 345.489 216.1 345.89V346H214.773ZM212.675 345.036C213.071 345.036 213.447 344.933 213.803 344.728C214.158 344.523 214.416 344.256 214.575 343.928V342.411H213.584C212.035 342.411 211.26 342.864 211.26 343.771C211.26 344.168 211.392 344.477 211.656 344.701C211.921 344.924 212.26 345.036 212.675 345.036ZM213.844 335.5H215.375L213.543 337.509H212.524L213.844 335.5ZM223.359 342.575L222.566 343.402V346H221.302V335.5H222.566V341.85L223.243 341.037L225.547 338.603H227.085L224.207 341.693L227.42 346H225.937L223.359 342.575ZM229.655 339.499C230.216 338.811 230.945 338.466 231.843 338.466C233.406 338.466 234.194 339.348 234.208 341.112V346H232.943V341.105C232.939 340.572 232.816 340.178 232.574 339.922C232.337 339.667 231.966 339.54 231.46 339.54C231.05 339.54 230.69 339.649 230.38 339.868C230.07 340.087 229.828 340.374 229.655 340.729V346H228.391V335.5H229.655V339.499ZM235.767 342.233C235.767 341.508 235.908 340.857 236.19 340.278C236.478 339.699 236.874 339.253 237.38 338.938C237.89 338.624 238.471 338.466 239.123 338.466C240.13 338.466 240.944 338.815 241.563 339.512C242.188 340.21 242.5 341.137 242.5 342.295V342.383C242.5 343.103 242.361 343.751 242.083 344.325C241.81 344.894 241.415 345.339 240.9 345.658C240.39 345.977 239.802 346.136 239.137 346.136C238.134 346.136 237.321 345.788 236.696 345.09C236.076 344.393 235.767 343.47 235.767 342.322V342.233ZM237.038 342.383C237.038 343.204 237.227 343.862 237.605 344.359C237.988 344.856 238.499 345.104 239.137 345.104C239.779 345.104 240.29 344.853 240.668 344.352C241.046 343.846 241.235 343.14 241.235 342.233C241.235 341.422 241.042 340.766 240.654 340.264C240.271 339.758 239.761 339.505 239.123 339.505C238.499 339.505 237.995 339.754 237.612 340.251C237.229 340.747 237.038 341.458 237.038 342.383ZM241.146 337.373V337.441H240.101L239.075 336.279L238.057 337.441H237.011V337.359L238.692 335.5H239.458L241.146 337.373ZM245.282 338.603L245.323 339.533C245.888 338.822 246.627 338.466 247.538 338.466C249.101 338.466 249.89 339.348 249.903 341.112V346H248.639V341.105C248.634 340.572 248.511 340.178 248.27 339.922C248.033 339.667 247.661 339.54 247.155 339.54C246.745 339.54 246.385 339.649 246.075 339.868C245.765 340.087 245.524 340.374 245.351 340.729V346H244.086V338.603H245.282ZM251.51 342.24C251.51 341.087 251.776 340.171 252.31 339.492C252.843 338.808 253.549 338.466 254.429 338.466C255.331 338.466 256.035 338.785 256.541 339.423L256.603 338.603H257.758V345.822C257.758 346.779 257.473 347.533 256.903 348.085C256.338 348.636 255.577 348.912 254.62 348.912C254.087 348.912 253.565 348.798 253.055 348.57C252.544 348.342 252.155 348.03 251.886 347.633L252.542 346.875C253.084 347.545 253.747 347.88 254.531 347.88C255.146 347.88 255.625 347.706 255.967 347.36C256.313 347.014 256.486 346.526 256.486 345.897V345.261C255.98 345.845 255.29 346.136 254.415 346.136C253.549 346.136 252.847 345.788 252.31 345.09C251.776 344.393 251.51 343.443 251.51 342.24ZM252.781 342.383C252.781 343.217 252.952 343.874 253.294 344.352C253.636 344.826 254.114 345.063 254.729 345.063C255.527 345.063 256.113 344.701 256.486 343.976V340.599C256.099 339.893 255.518 339.54 254.743 339.54C254.128 339.54 253.647 339.779 253.301 340.257C252.954 340.736 252.781 341.445 252.781 342.383ZM270.363 337.571H269.078V346H267.916L267.854 345.207C267.349 345.826 266.645 346.136 265.742 346.136C264.885 346.136 264.186 345.785 263.644 345.084C263.106 344.382 262.837 343.466 262.837 342.336V342.24C262.837 341.105 263.106 340.194 263.644 339.505C264.181 338.813 264.885 338.466 265.756 338.466C266.622 338.466 267.308 338.763 267.813 339.355V337.571H266.009V336.539H267.813V335.5H269.078V336.539H270.363V337.571ZM264.102 342.383C264.102 343.222 264.275 343.878 264.621 344.352C264.967 344.826 265.446 345.063 266.057 345.063C266.859 345.063 267.444 344.703 267.813 343.983V340.586C267.435 339.888 266.854 339.54 266.07 339.54C265.451 339.54 264.967 339.779 264.621 340.257C264.275 340.736 264.102 341.445 264.102 342.383ZM271.177 342.233C271.177 341.508 271.318 340.857 271.601 340.278C271.888 339.699 272.284 339.253 272.79 338.938C273.3 338.624 273.882 338.466 274.533 338.466C275.54 338.466 276.354 338.815 276.974 339.512C277.598 340.21 277.91 341.137 277.91 342.295V342.383C277.91 343.103 277.771 343.751 277.493 344.325C277.22 344.894 276.826 345.339 276.311 345.658C275.8 345.977 275.212 346.136 274.547 346.136C273.544 346.136 272.731 345.788 272.106 345.09C271.487 344.393 271.177 343.47 271.177 342.322V342.233ZM272.448 342.383C272.448 343.204 272.637 343.862 273.016 344.359C273.398 344.856 273.909 345.104 274.547 345.104C275.189 345.104 275.7 344.853 276.078 344.352C276.456 343.846 276.646 343.14 276.646 342.233C276.646 341.422 276.452 340.766 276.064 340.264C275.682 339.758 275.171 339.505 274.533 339.505C273.909 339.505 273.405 339.754 273.022 340.251C272.64 340.747 272.448 341.458 272.448 342.383ZM276.987 337.619H275.825L274.479 336.347L273.132 337.619H271.977L273.836 335.828H275.121L276.987 337.619ZM276.42 336.675L276.413 335.78C276.709 335.762 276.924 335.723 277.056 335.664C277.192 335.604 277.261 335.5 277.261 335.349C277.261 335.044 276.939 334.891 276.297 334.891L276.331 334.262C276.914 334.262 277.359 334.363 277.664 334.563C277.969 334.764 278.122 335.03 278.122 335.363C278.122 335.632 278.038 335.841 277.869 335.992C277.701 336.142 277.479 336.233 277.206 336.265L277.199 336.675H276.42ZM280.87 346H279.605V338.603H280.87V346ZM279.503 336.641C279.503 336.436 279.564 336.263 279.688 336.122C279.815 335.98 280.002 335.91 280.248 335.91C280.494 335.91 280.681 335.98 280.809 336.122C280.936 336.263 281 336.436 281 336.641C281 336.846 280.936 337.017 280.809 337.154C280.681 337.291 280.494 337.359 280.248 337.359C280.002 337.359 279.815 337.291 279.688 337.154C279.564 337.017 279.503 336.846 279.503 336.641Z" fill="#44494D"/>
<path d="M167 172C167 167.581 170.582 164 175 164H521C525.418 164 529 167.581 529 172V244C529 248.418 525.418 252 521 252H167V172Z" fill="white"/>
<path d="M193.134 189.778C193.134 189.472 193.062 189.4 192.774 189.4H183.558C183.288 189.4 183.216 189.472 183.216 189.778V191.38C183.216 191.614 183.324 191.74 183.558 191.74H186.744V201.622C186.744 201.91 186.87 202 187.158 202H189.084C189.444 202 189.516 201.928 189.516 201.622V191.74H192.774C193.008 191.74 193.134 191.614 193.134 191.38V189.778ZM196.697 194.728C196.931 194.692 197.165 194.674 197.417 194.674C198.371 194.692 199.127 195.052 199.793 195.556C200.063 195.718 200.135 195.772 200.279 195.538L201.215 194.044C201.287 193.9 201.341 193.774 201.143 193.63C199.937 192.748 198.317 192.352 196.733 192.352C196.247 192.352 195.797 192.388 195.365 192.442C194.303 192.604 194.087 193.072 194.087 194.008V201.676C194.087 201.946 194.195 202 194.465 202H196.301C196.643 202 196.697 201.964 196.697 201.676V194.728ZM210.391 200.83C210.391 201.136 210.355 201.334 210.013 201.532C208.915 202.054 207.403 202.198 206.197 202.198C202.957 202.198 202.003 200.866 202.003 199.192C202.003 197.338 203.227 195.97 205.801 195.97H207.781V195.682C207.781 195.016 207.565 194.404 206.215 194.404C205.477 194.404 204.343 194.548 203.677 194.746C203.371 194.818 203.281 194.746 203.227 194.512L202.939 193.252C202.867 192.982 202.921 192.91 203.119 192.838C204.199 192.46 205.423 192.298 206.593 192.298C209.203 192.298 210.391 193.432 210.391 195.61V200.83ZM207.763 197.716H206.341C205.675 197.716 204.703 197.842 204.703 198.994C204.703 199.84 205.315 200.128 206.269 200.128C206.557 200.128 207.277 200.092 207.763 199.894V197.716ZM206.557 187.816C206.125 187.816 205.585 187.96 205.153 188.284C204.919 188.482 204.847 188.806 205.027 189.184C205.261 189.67 205.603 189.58 206.017 189.328C206.359 189.13 206.827 189.112 206.827 189.31C206.827 189.4 206.755 189.706 206.521 189.904C206.089 190.264 205.657 190.48 205.657 191.218C205.657 191.578 205.909 191.83 206.269 191.83H206.449C206.755 191.83 207.007 191.578 207.061 191.29C207.475 190.588 208.303 190.246 208.303 189.346C208.303 188.41 207.619 187.816 206.557 187.816ZM225.03 199.3C225.03 197.464 223.608 196.834 221.88 196.168C220.782 195.754 220.386 195.52 220.386 195.034C220.386 194.728 220.656 194.35 221.304 194.35C222.096 194.35 222.798 194.494 223.68 194.764C223.95 194.854 224.04 194.854 224.13 194.584L224.58 193.432C224.67 193.144 224.688 193.054 224.418 192.928C223.5 192.514 222.33 192.316 221.25 192.316C218.874 192.316 217.74 193.576 217.74 195.142C217.74 196.618 218.802 197.338 220.71 198.058C221.916 198.508 222.348 198.778 222.348 199.264C222.348 199.714 222.042 200.056 221.178 200.056C220.422 200.056 219.144 199.732 218.388 199.408C218.118 199.282 218.028 199.336 217.902 199.606L217.38 200.848C217.254 201.082 217.29 201.19 217.488 201.316C218.55 201.946 220.044 202.198 221.286 202.198C223.518 202.198 225.03 201.244 225.03 199.3ZM234.878 195.61C234.878 193.432 233.69 192.298 231.08 192.298C229.91 192.298 228.686 192.46 227.606 192.838C227.408 192.91 227.354 192.982 227.426 193.252L227.714 194.512C227.768 194.746 227.858 194.818 228.164 194.746C228.83 194.548 229.964 194.404 230.702 194.404C232.052 194.404 232.268 195.016 232.268 195.682V195.97H230.288C227.714 195.97 226.49 197.338 226.49 199.192C226.49 200.866 227.444 202.198 230.684 202.198C231.89 202.198 233.402 202.054 234.5 201.532C234.842 201.334 234.878 201.136 234.878 200.83V195.61ZM232.25 199.894C231.764 200.092 231.044 200.128 230.756 200.128C229.802 200.128 229.19 199.84 229.19 198.994C229.19 197.842 230.162 197.716 230.828 197.716H232.25V199.894ZM241.847 200.056C240.155 200.056 239.849 199.282 239.849 197.698V192.874C239.849 192.64 239.723 192.532 239.471 192.532H237.599C237.257 192.532 237.221 192.604 237.221 192.874V197.536C237.221 200.938 238.499 202.216 241.973 202.216C242.693 202.216 244.007 202.126 244.565 202.036C245.411 201.838 245.681 201.37 245.681 200.56V192.874C245.681 192.64 245.555 192.532 245.303 192.532H243.449C243.107 192.532 243.071 192.604 243.071 192.874V199.966C242.567 200.038 242.081 200.056 241.847 200.056ZM261.714 193.594C261.714 193.324 261.66 193.198 261.354 193.036C260.256 192.532 258.852 192.352 257.556 192.352C254.262 192.352 252.822 194.512 252.822 197.266C252.822 200.074 254.082 201.982 256.962 201.982C257.682 201.982 258.438 201.91 259.068 201.712V201.82C259.068 203.224 257.664 203.602 256.314 203.836C256.116 203.89 256.026 203.89 256.08 204.16L256.314 205.888C256.368 206.122 256.422 206.176 256.692 206.122C259.914 205.69 261.714 204.412 261.714 201.028V193.594ZM255.54 197.212C255.54 195.268 256.386 194.566 257.7 194.566C258.042 194.566 258.6 194.62 259.086 194.764V199.516C258.51 199.714 257.826 199.75 257.538 199.75C256.296 199.75 255.54 199.066 255.54 197.212ZM272.775 197.23C272.775 194.152 271.245 192.316 268.221 192.316C265.413 192.316 263.685 194.17 263.685 197.266C263.685 200.38 265.071 202.198 268.185 202.198C271.281 202.198 272.775 200.398 272.775 197.23ZM270.057 197.284C270.057 198.796 269.553 199.984 268.203 199.984C266.907 199.984 266.385 199.03 266.385 197.23C266.385 195.574 266.979 194.53 268.257 194.53C269.607 194.53 270.057 195.664 270.057 197.284ZM269.427 203.944C269.427 203.296 268.887 202.756 268.239 202.756C267.573 202.756 267.033 203.296 267.033 203.944C267.033 204.61 267.573 205.114 268.239 205.114C268.887 205.114 269.427 204.61 269.427 203.944ZM277.936 190.084C277.936 189.238 277.252 188.59 276.424 188.59C275.614 188.59 274.93 189.238 274.93 190.084C274.93 190.93 275.614 191.56 276.424 191.56C277.27 191.56 277.936 190.93 277.936 190.084ZM277.702 192.874C277.702 192.604 277.648 192.55 277.306 192.55H275.47C275.2 192.55 275.092 192.604 275.092 192.874V201.676C275.092 201.946 275.2 202 275.47 202H277.306C277.648 202 277.702 201.946 277.702 201.676V192.874ZM288.261 194.728C288.495 194.692 288.729 194.674 288.981 194.674C289.935 194.692 290.691 195.052 291.357 195.556C291.627 195.718 291.699 195.772 291.843 195.538L292.779 194.044C292.851 193.9 292.905 193.774 292.707 193.63C291.501 192.748 289.881 192.352 288.297 192.352C287.811 192.352 287.361 192.388 286.929 192.442C285.867 192.604 285.651 193.072 285.651 194.008V201.676C285.651 201.946 285.759 202 286.029 202H287.865C288.207 202 288.261 201.964 288.261 201.676V194.728ZM298.032 192.316C300.84 192.316 302.244 193.774 302.244 196.384C302.244 197.626 301.74 198.004 300.894 198.004H296.286C296.34 199.534 297.24 199.984 298.446 199.984C299.148 199.984 299.886 199.804 300.516 199.534C300.804 199.444 300.876 199.462 300.966 199.66L301.542 200.956C301.632 201.172 301.578 201.262 301.38 201.388C300.498 201.964 299.202 202.198 298.194 202.198C295.044 202.198 293.568 200.704 293.568 197.32C293.568 194.152 295.314 192.316 298.032 192.316ZM298.086 194.476C297.096 194.476 296.43 195.25 296.34 196.33H299.706C299.706 195.268 299.346 194.476 298.086 194.476ZM298.05 187.816C297.618 187.816 297.078 187.96 296.646 188.284C296.412 188.482 296.34 188.806 296.52 189.184C296.754 189.67 297.096 189.58 297.51 189.328C297.852 189.13 298.32 189.112 298.32 189.31C298.32 189.4 298.248 189.706 298.014 189.904C297.582 190.264 297.15 190.48 297.15 191.218C297.15 191.578 297.402 191.83 297.762 191.83H297.942C298.248 191.83 298.5 191.578 298.554 191.29C298.968 190.588 299.796 190.246 299.796 189.346C299.796 188.41 299.112 187.816 298.05 187.816Z" fill="#44494D"/>
<path d="M191.477 224.841C191.354 225.894 190.964 226.708 190.308 227.282C189.656 227.852 188.788 228.136 187.703 228.136C186.527 228.136 185.584 227.715 184.873 226.872C184.167 226.029 183.813 224.901 183.813 223.488V222.531C183.813 221.606 183.978 220.792 184.306 220.09C184.638 219.389 185.108 218.851 185.714 218.477C186.32 218.099 187.022 217.91 187.819 217.91C188.877 217.91 189.724 218.206 190.362 218.798C191 219.386 191.372 220.202 191.477 221.246H190.157C190.043 220.453 189.795 219.879 189.412 219.523C189.034 219.168 188.503 218.99 187.819 218.99C186.981 218.99 186.322 219.3 185.844 219.92C185.37 220.539 185.133 221.421 185.133 222.565V223.529C185.133 224.609 185.358 225.468 185.81 226.106C186.261 226.744 186.892 227.063 187.703 227.063C188.432 227.063 188.991 226.899 189.378 226.571C189.77 226.238 190.03 225.662 190.157 224.841H191.477ZM194.341 221.499C194.901 220.811 195.631 220.466 196.528 220.466C198.091 220.466 198.88 221.348 198.894 223.112V228H197.629V223.105C197.624 222.572 197.501 222.178 197.26 221.922C197.023 221.667 196.651 221.54 196.146 221.54C195.735 221.54 195.375 221.649 195.065 221.868C194.756 222.087 194.514 222.374 194.341 222.729V228H193.076V217.5H194.341V221.499ZM202.161 228H200.89V220.603H202.161V228ZM201.129 219.421L201.122 218.375C201.464 218.352 201.715 218.306 201.874 218.238C202.034 218.17 202.113 218.047 202.113 217.869C202.113 217.691 202.008 217.559 201.799 217.472C201.594 217.381 201.32 217.336 200.979 217.336L201.026 216.611C201.705 216.611 202.22 216.729 202.571 216.966C202.922 217.199 203.098 217.509 203.098 217.896C203.098 218.174 203.009 218.404 202.831 218.587C202.653 218.769 202.389 218.885 202.038 218.935L202.031 219.421H201.129ZM211.745 228H210.474V219.571L207.924 220.507V219.359L211.547 217.999H211.745V228ZM221.691 223.755C221.691 225.236 221.438 226.336 220.933 227.056C220.427 227.776 219.636 228.136 218.561 228.136C217.499 228.136 216.713 227.785 216.202 227.084C215.692 226.377 215.427 225.325 215.409 223.925V222.237C215.409 220.774 215.662 219.687 216.168 218.976C216.674 218.265 217.467 217.91 218.547 217.91C219.618 217.91 220.406 218.254 220.912 218.942C221.418 219.626 221.678 220.683 221.691 222.114V223.755ZM220.427 222.025C220.427 220.954 220.276 220.175 219.976 219.687C219.675 219.195 219.199 218.949 218.547 218.949C217.9 218.949 217.428 219.193 217.132 219.68C216.836 220.168 216.683 220.918 216.674 221.929V223.953C216.674 225.028 216.829 225.824 217.139 226.339C217.453 226.849 217.927 227.104 218.561 227.104C219.185 227.104 219.647 226.863 219.948 226.38C220.254 225.896 220.413 225.135 220.427 224.096V222.025ZM229.553 223.755C229.553 225.236 229.3 226.336 228.794 227.056C228.288 227.776 227.497 228.136 226.422 228.136C225.36 228.136 224.574 227.785 224.063 227.084C223.553 226.377 223.289 225.325 223.271 223.925V222.237C223.271 220.774 223.523 219.687 224.029 218.976C224.535 218.265 225.328 217.91 226.408 217.91C227.479 217.91 228.268 218.254 228.773 218.942C229.279 219.626 229.539 220.683 229.553 222.114V223.755ZM228.288 222.025C228.288 220.954 228.138 220.175 227.837 219.687C227.536 219.195 227.06 218.949 226.408 218.949C225.761 218.949 225.289 219.193 224.993 219.68C224.697 220.168 224.544 220.918 224.535 221.929V223.953C224.535 225.028 224.69 225.824 225 226.339C225.314 226.849 225.788 227.104 226.422 227.104C227.046 227.104 227.509 226.863 227.81 226.38C228.115 225.896 228.274 225.135 228.288 224.096V222.025ZM238.521 219.571H237.236V228H236.074L236.013 227.207C235.507 227.826 234.803 228.136 233.9 228.136C233.044 228.136 232.344 227.785 231.802 227.084C231.264 226.382 230.995 225.466 230.995 224.336V224.24C230.995 223.105 231.264 222.194 231.802 221.505C232.34 220.813 233.044 220.466 233.914 220.466C234.78 220.466 235.466 220.763 235.972 221.355V219.571H234.167V218.539H235.972V217.5H237.236V218.539H238.521V219.571ZM232.26 224.383C232.26 225.222 232.433 225.878 232.779 226.352C233.126 226.826 233.604 227.063 234.215 227.063C235.017 227.063 235.603 226.703 235.972 225.983V222.586C235.593 221.888 235.012 221.54 234.229 221.54C233.609 221.54 233.126 221.779 232.779 222.257C232.433 222.736 232.26 223.445 232.26 224.383ZM239.923 228.854H238.836L242.992 218.047H244.072L239.923 228.854ZM251.688 224.383C251.688 225.509 251.43 226.416 250.915 227.104C250.4 227.792 249.703 228.136 248.823 228.136C247.925 228.136 247.219 227.852 246.704 227.282V230.843H245.439V220.603H246.595L246.656 221.423C247.171 220.785 247.887 220.466 248.803 220.466C249.691 220.466 250.393 220.801 250.908 221.471C251.428 222.141 251.688 223.073 251.688 224.267V224.383ZM250.423 224.24C250.423 223.406 250.245 222.747 249.89 222.264C249.534 221.781 249.047 221.54 248.427 221.54C247.661 221.54 247.087 221.879 246.704 222.558V226.092C247.082 226.767 247.661 227.104 248.44 227.104C249.047 227.104 249.527 226.865 249.883 226.386C250.243 225.903 250.423 225.188 250.423 224.24ZM254.565 221.499C255.126 220.811 255.855 220.466 256.753 220.466C258.316 220.466 259.104 221.348 259.118 223.112V228H257.854V223.105C257.849 222.572 257.726 222.178 257.484 221.922C257.247 221.667 256.876 221.54 256.37 221.54C255.96 221.54 255.6 221.649 255.29 221.868C254.98 222.087 254.739 222.374 254.565 222.729V228H253.301V217.5H254.565V221.499ZM265.578 227.268C265.086 227.847 264.364 228.136 263.411 228.136C262.623 228.136 262.021 227.908 261.606 227.453C261.196 226.992 260.989 226.313 260.984 225.416V220.603H262.249V225.381C262.249 226.503 262.705 227.063 263.616 227.063C264.582 227.063 265.225 226.703 265.544 225.983V220.603H266.809V228H265.605L265.578 227.268ZM264.553 217.5H266.084L264.252 219.509H263.233L264.553 217.5ZM270.452 218.812V220.603H271.833V221.581H270.452V226.168C270.452 226.464 270.514 226.687 270.637 226.838C270.76 226.983 270.969 227.056 271.266 227.056C271.411 227.056 271.612 227.029 271.867 226.974V228C271.535 228.091 271.211 228.136 270.896 228.136C270.331 228.136 269.905 227.965 269.618 227.624C269.331 227.282 269.188 226.797 269.188 226.168V221.581H267.841V220.603H269.188V218.812H270.452Z" fill="#44494D"/>
<path fill-rule="evenodd" clip-rule="evenodd" d="M327.176 21.8267C316.587 25.6808 311.172 37.3729 315.08 47.9419L320.212 61.8218L320.208 61.8213L337.243 107.888C339.052 99.1236 347.398 80.1852 366.19 71.0265L388.635 62.8572C399.224 59.0032 404.639 47.311 400.731 36.742L394.221 19.1368C390.313 8.56785 378.561 3.1243 367.972 6.97833L327.176 21.8267Z" fill="#E4E4E4"/>
</svg>
