<svg width="55" height="55" viewBox="0 0 55 55" fill="none" xmlns="http://www.w3.org/2000/svg">
<g clip-path="url(#clip0)">
<path d="M39.5436 49.1014H12.7556C10.4613 49.1014 8.59961 47.3194 8.59961 45.1234V14.7124C8.59961 12.5164 10.4613 10.7344 12.7556 10.7344H39.5436C41.8379 10.7344 43.6996 12.5164 43.6996 14.7124V45.1234C43.6996 47.3194 41.8379 49.1014 39.5436 49.1014Z" fill="#DCDCDC"/>
<path d="M33.3749 14.7833H18.6127C17.3246 14.7833 16.2715 13.7843 16.2715 12.5423V10.9043H35.7067V12.5513C35.7067 13.7843 34.663 14.7833 33.3749 14.7833Z" fill="#C4C4C4"/>
<path d="M33.3752 8.66339H30.9775C30.0091 8.66339 29.1628 8.12339 28.6927 7.32239C28.1944 6.47639 27.2447 5.90039 26.154 5.90039C25.0633 5.90039 24.1136 6.47639 23.6153 7.32239C23.1358 8.13239 22.2989 8.66339 21.3305 8.66339H18.9422C17.3249 8.66339 16.2812 9.66239 16.2812 10.8954V11.6604C16.2812 12.2904 16.8078 12.7944 17.466 12.7944H34.5317C35.1899 12.7944 35.7165 12.2904 35.7165 11.6604V10.9044C35.7071 9.66239 34.6634 8.66339 33.3752 8.66339Z" fill="#EE0033"/>
<path d="M28.6923 7.32239C28.194 6.47639 27.2443 5.90039 26.1536 5.90039C25.0629 5.90039 24.1133 6.47639 23.6149 7.32239C23.1354 8.13239 22.2985 8.66339 21.3301 8.66339H30.9772C30.0087 8.66339 29.1625 8.12339 28.6923 7.32239Z" fill="#92001F"/>
<path d="M29.5107 24.4755L27.4233 22.4775C26.9062 21.9825 26.7746 21.1815 27.2071 20.6055C27.7524 19.8765 28.8243 19.8135 29.4543 20.4255L30.1595 21.1005L33.1307 18.2565C33.6479 17.7615 34.4847 17.6355 35.0865 18.0495C35.8481 18.5715 35.9045 19.5975 35.2745 20.2005L30.8083 24.4755C30.451 24.8175 29.868 24.8175 29.5107 24.4755Z" fill="white"/>
<path d="M29.5107 34.1688L27.4233 32.1708C26.9062 31.6758 26.7746 30.8748 27.2071 30.2988C27.7524 29.5698 28.8243 29.5068 29.4543 30.1188L30.1595 30.7938L33.1307 27.9498C33.6479 27.4548 34.4847 27.3288 35.0865 27.7428C35.8481 28.2648 35.9045 29.2908 35.2745 29.8938L30.8083 34.1688C30.451 34.5108 29.868 34.5108 29.5107 34.1688Z" fill="white"/>
<path d="M29.5107 43.8544L27.4233 41.8564C26.9062 41.3614 26.7746 40.5604 27.2071 39.9844C27.7524 39.2554 28.8243 39.1924 29.4543 39.8044L30.1595 40.4794L33.1307 37.6354C33.6479 37.1404 34.4847 37.0144 35.0865 37.4284C35.8481 37.9504 35.9045 38.9764 35.2745 39.5794L30.8083 43.8544C30.451 44.1964 29.868 44.1964 29.5107 43.8544Z" fill="white"/>
</g>
<path d="M17.5088 33.126C18.3908 33.3623 19.2974 32.8389 19.5338 31.9568C19.7701 31.0748 19.2467 30.1682 18.3646 29.9318C17.4826 29.6955 16.576 30.2189 16.3396 31.101C16.1033 31.983 16.6267 32.8896 17.5088 33.126Z" fill="#EE0033"/>
<path d="M17.5088 22.2353C18.3908 22.4717 19.2974 21.9482 19.5338 21.0662C19.7701 20.1842 19.2467 19.2776 18.3646 19.0412C17.4826 18.8049 16.576 19.3283 16.3396 20.2103C16.1033 21.0924 16.6267 21.999 17.5088 22.2353Z" fill="#EE0033"/>
<path d="M17.5088 44.0186C18.3908 44.2549 19.2974 43.7315 19.5338 42.8494C19.7701 41.9674 19.2467 41.0608 18.3646 40.8244C17.4826 40.5881 16.576 41.1115 16.3396 41.9936C16.1033 42.8756 16.6267 43.7822 17.5088 44.0186Z" fill="#EE0033"/>
<defs>
<clipPath id="clip0">
<rect width="35.1" height="43.2" fill="white" transform="translate(8.59961 5.90039)"/>
</clipPath>
</defs>
</svg>
