<svg width="40" height="40" viewBox="0 0 40 40" fill="none" xmlns="http://www.w3.org/2000/svg">
<path d="M25.229 27.6565L24.2593 26.6868C22.926 25.3535 20.7442 25.3535 19.4109 26.6868C19.1685 26.9292 19.0473 27.2322 19.0473 27.5353C19.0473 28.1413 18.623 28.6262 18.0776 28.6868C16.1382 28.9292 14.1382 28.3231 12.6837 26.8686C11.2292 25.4141 10.6231 23.4141 10.8655 21.4747C10.9261 20.9293 11.4716 20.505 12.017 20.505C12.3201 20.505 12.6231 20.3838 12.8655 20.1414C14.1988 18.8081 14.1988 16.6263 12.8655 15.293L11.8958 14.3233C10.5019 12.9294 8.13829 13.1112 7.04739 14.7475C5.89589 16.4445 5.35044 18.5051 5.47165 20.5656C5.65347 23.8989 7.108 27.2322 9.65343 29.8383C12.1989 32.4443 15.5928 33.8382 18.9261 34.0807C20.9866 34.2019 23.0472 33.6564 24.7442 32.5049C26.4411 31.414 26.623 29.0504 25.229 27.6565Z" fill="#EE0033"/>
<path d="M20 5.4541C28.0332 5.4541 34.5455 11.9663 34.5455 19.9996M20 12.0657C24.3818 12.0657 27.9339 15.6178 27.9339 19.9996M20 17.3549C21.4606 17.3549 22.6446 18.539 22.6446 19.9996" stroke="#C4C4C4" stroke-linecap="round" stroke-linejoin="round"/>
</svg>
