<svg width="40" height="40" viewBox="0 0 40 40" fill="none" xmlns="http://www.w3.org/2000/svg">
<path d="M34.1029 34H5.89708C4.29625 34 3 32.7094 3 31.1155V7.88448C3 6.29061 4.29625 5 5.89708 5H34.1029C35.7038 5 37 6.29061 37 7.88448V31.1155C37 32.7094 35.7038 34 34.1029 34Z" fill="#C4C4C4"/>
<path d="M34.1029 5H5.89708C4.29625 5 3 6.29061 3 7.88448V9.23152H37V7.88448C37 6.29061 35.7038 5 34.1029 5Z" fill="#EE0033"/>
<path d="M7.17203 6.67871H6.30078V7.54617H7.17203V6.67871Z" fill="#92001F"/>
<path d="M8.965 6.67871H8.09375V7.54617H8.965V6.67871Z" fill="#92001F"/>
<path d="M10.7482 6.67871H9.87695V7.54617H10.7482V6.67871Z" fill="#92001F"/>
<path d="M37 9.23145H3V10.3951H37V9.23145Z" fill="#92001F"/>
<path d="M37 12.3632H4.97625C3.88542 12.3632 3 11.4816 3 10.3955H37V12.3632Z" fill="#C4C4C4"/>
<path d="M24.7273 25.6565L27.1874 31.7321C27.3521 32.1389 27.9584 32.1191 28.094 31.7025L28.7499 29.6866C28.8362 29.4216 29.042 29.2079 29.3104 29.1048L31.3913 28.3054C31.7919 28.1515 31.7947 27.6078 31.3958 27.45L25.3582 25.0624C24.9674 24.9078 24.5741 25.2781 24.7273 25.6565Z" fill="#EE0033"/>
<g clip-path="url(#clip0)">
<path d="M9.87695 18.2338V15.7739C9.87695 15.623 10.01 15.5 10.1732 15.5H12.8338C12.997 15.5 13.13 15.623 13.13 15.7739V18.2338C13.13 18.3847 12.997 18.5077 12.8338 18.5077H10.1732C10.01 18.5077 9.87695 18.3847 9.87695 18.2338Z" fill="#EE0033"/>
<path d="M11.1713 17.5575L11.0382 17.4345C10.9899 17.3897 10.9899 17.3171 11.0382 17.2667L11.921 16.4505C11.9694 16.4058 12.048 16.4058 12.1024 16.4505L12.2355 16.5735C12.2838 16.6182 12.2838 16.6909 12.2355 16.7412L11.3466 17.5575C11.2982 17.6022 11.2196 17.6022 11.1713 17.5575Z" fill="white"/>
<path d="M10.7713 17.0208L10.9043 16.8978C10.9527 16.8531 11.0313 16.8531 11.0857 16.8978L11.4908 17.2724C11.5392 17.3171 11.5392 17.3898 11.4908 17.4401L11.3518 17.5575C11.3034 17.6022 11.2248 17.6022 11.1704 17.5575L10.7713 17.1829C10.7169 17.1382 10.7169 17.0655 10.7713 17.0208Z" fill="white"/>
<path d="M30.8768 16.0928H14.4844V16.6239H30.8768V16.0928Z" fill="white"/>
<path d="M27.6358 17.373H14.4844V17.9041H27.6358V17.373Z" fill="white"/>
<path d="M9.87695 23.2259V20.7661C9.87695 20.6152 10.01 20.4922 10.1732 20.4922H12.8338C12.997 20.4922 13.13 20.6152 13.13 20.7661V23.2259C13.13 23.3769 12.997 23.4999 12.8338 23.4999H10.1732C10.01 23.4999 9.87695 23.3769 9.87695 23.2259Z" fill="white"/>
<path d="M30.8768 21.0908H14.4844V21.6219H30.8768V21.0908Z" fill="white"/>
<path d="M27.6358 22.3711H14.4844V22.9022H27.6358V22.3711Z" fill="white"/>
<path d="M11.5034 22.5048C11.8073 22.5048 12.0536 22.277 12.0536 21.996C12.0536 21.7151 11.8073 21.4873 11.5034 21.4873C11.1995 21.4873 10.9531 21.7151 10.9531 21.996C10.9531 22.277 11.1995 22.5048 11.5034 22.5048Z" fill="#C4C4C4"/>
</g>
<defs>
<clipPath id="clip0">
<rect width="21" height="8" fill="white" transform="translate(9.87695 15.5)"/>
</clipPath>
</defs>
</svg>
