<svg width="55" height="55" viewBox="0 0 55 55" fill="none" xmlns="http://www.w3.org/2000/svg">
<path d="M33.5294 40.8194V8.14941C33.5294 6.88941 32.5544 5.89941 31.3135 5.89941H8.79989C7.55898 5.89941 6.58398 6.88941 6.58398 8.14941V40.9094C6.58398 45.4094 10.2181 49.0994 14.7385 49.0994H41.684C37.1635 49.0994 33.5294 45.4094 33.5294 40.8194Z" fill="#DCDCDC"/>
<path d="M23.1758 43.8682C22.668 43.8682 22.1602 44.2057 21.991 44.6275C20.7215 47.3275 18.0981 49.0994 14.9668 49.0994H40.6939C43.1481 49.0994 45.4331 47.9182 46.7872 46.1463C47.4642 45.2182 46.8718 43.9525 45.687 43.9525H23.1758V43.8682Z" fill="#EE0033"/>
<path d="M28.4925 17.1362H16.0667C15.6036 17.1362 15.2949 16.5516 15.2949 15.967C15.2949 15.2655 15.6808 14.7979 16.0667 14.7979H28.4925C28.9555 14.7979 29.2642 15.3824 29.2642 15.967C29.3414 16.5516 28.9555 17.1362 28.4925 17.1362Z" fill="#828282"/>
<path d="M28.4925 23.9175H16.0667C15.6036 23.9175 15.2949 23.3329 15.2949 22.7483C15.2949 22.0468 15.6808 21.5791 16.0667 21.5791H28.4925C28.9555 21.5791 29.2642 22.1637 29.2642 22.7483C29.3414 23.4498 28.9555 23.9175 28.4925 23.9175Z" fill="#828282"/>
<path d="M28.4925 30.8159H16.0667C15.6036 30.8159 15.2949 30.2313 15.2949 29.6467C15.2949 28.9452 15.6808 28.4775 16.0667 28.4775H28.4925C28.9555 28.4775 29.2642 29.0621 29.2642 29.6467C29.3414 30.2313 28.9555 30.8159 28.4925 30.8159Z" fill="#828282"/>
<path d="M25.3607 37.5971H16.2722C15.6858 37.5971 15.2949 37.0126 15.2949 36.428C15.2949 35.7265 15.7836 35.2588 16.2722 35.2588H25.3607C25.9471 35.2588 26.338 35.8434 26.338 36.428C26.4357 37.0126 25.9471 37.5971 25.3607 37.5971Z" fill="#828282"/>
<path d="M10.9086 17.8381C11.9023 17.8381 12.7078 17.0005 12.7078 15.9674C12.7078 14.9342 11.9023 14.0967 10.9086 14.0967C9.91491 14.0967 9.10938 14.9342 9.10938 15.9674C9.10938 17.0005 9.91491 17.8381 10.9086 17.8381Z" fill="#EE0033"/>
<path d="M10.9086 24.6193C11.9023 24.6193 12.7078 23.7818 12.7078 22.7486C12.7078 21.7155 11.9023 20.8779 10.9086 20.8779C9.91491 20.8779 9.10938 21.7155 9.10938 22.7486C9.10938 23.7818 9.91491 24.6193 10.9086 24.6193Z" fill="#EE0033"/>
<path d="M10.9086 31.4006C11.9023 31.4006 12.7078 30.563 12.7078 29.5299C12.7078 28.4967 11.9023 27.6592 10.9086 27.6592C9.91491 27.6592 9.10938 28.4967 9.10938 29.5299C9.10938 30.563 9.91491 31.4006 10.9086 31.4006Z" fill="#EE0033"/>
<path d="M10.9086 38.299C11.9023 38.299 12.7078 37.4615 12.7078 36.4283C12.7078 35.3952 11.9023 34.5576 10.9086 34.5576C9.91491 34.5576 9.10938 35.3952 9.10938 36.4283C9.10938 37.4615 9.91491 38.299 10.9086 38.299Z" fill="#EE0033"/>
<path fill-rule="evenodd" clip-rule="evenodd" d="M47.1379 16.7392C45.8228 15.8705 44.0499 16.2306 43.1778 17.5433L30.9848 35.8983L30.9826 35.9016L30.9843 35.9027L30.4336 41.4792L35.7618 39.0529L35.7473 39.0433L47.9399 20.689C48.812 19.3762 48.4529 17.6078 47.1379 16.7392Z" fill="#EE0033"/>
</svg>
