<svg width="40" height="40" viewBox="0 0 40 40" fill="none" xmlns="http://www.w3.org/2000/svg">
<g clip-path="url(#clip0)">
<path d="M24.7976 28.1091C24.7976 28.1091 25.907 30.6873 21.3757 30.6873C20.8599 30.6873 20.9571 31.7375 20.9562 32.0781V33.0505C20.9562 33.5747 20.5313 33.9997 20.0071 33.9997H14.3121C13.7879 33.9997 13.363 33.5747 13.363 33.0505V32.576C13.363 31.7065 12.7503 30.9705 12.3151 30.2643C11.4884 28.9227 11.1168 28.86 11.0029 27.3324C10.9441 26.5474 11.1078 24.4071 11.1282 23.615C11.1396 23.177 11.1182 21.6792 11.1016 20.3029C11.097 19.6542 11.3504 19.0302 11.806 18.5684C12.2617 18.1066 12.8822 17.8448 13.531 17.8408C14.7981 17.838 15.1745 18.5598 16.2105 18.855C16.8704 19.0363 17.543 19.1677 18.2227 19.2479C18.6963 19.2992 19.0558 19.698 19.0579 20.1743V20.2583C19.0579 20.2583 19.0579 22.3431 16.2105 22.3431C15.9257 22.4139 13.8376 22.1059 13.363 21.1567" fill="#EE0033"/>
<path d="M25.0463 6.70241C22.7351 7.12003 14.15 9.92478 14.15 28.5424L14.0693 28.5946C13.9159 28.3604 13.8335 28.0868 13.832 27.8068V7.89834C13.832 7.11203 14.4695 6.47461 15.2558 6.47461H24.2727C24.547 6.4751 24.8155 6.55415 25.0463 6.70241Z" fill="#DCDCDC"/>
<path d="M25.6955 7.89808V27.8066C25.6955 28.5929 25.0581 29.2303 24.2718 29.2303H15.2548C14.7775 29.2316 14.3316 28.9926 14.0684 28.5944L14.149 28.5422C14.149 5.4953 22.7341 7.11978 25.0453 6.70215C25.1835 6.78986 25.3042 6.90251 25.4012 7.03435C25.5933 7.28118 25.6969 7.58534 25.6955 7.89808Z" fill="#DCDCDC"/>
<path d="M24.2727 29.7051H15.2557C14.2073 29.7051 13.3574 28.8552 13.3574 27.8068V7.8983C13.3574 6.8499 14.2073 6 15.2557 6H24.2727C25.3211 6 26.171 6.8499 26.171 7.8983V27.8068C26.171 28.8552 25.3211 29.7051 24.2727 29.7051ZM15.2557 6.94915C14.7315 6.94915 14.3066 7.3741 14.3066 7.8983V27.8068C14.3066 28.331 14.7315 28.7559 15.2557 28.7559H24.2727C24.7969 28.7559 25.2218 28.331 25.2218 27.8068V7.8983C25.2218 7.3741 24.7969 6.94915 24.2727 6.94915H15.2557Z" fill="#828282"/>
<path d="M23.2311 6.47461L22.6077 7.44855C22.4619 7.67665 22.1635 7.82075 21.8371 7.82076H18.1635C17.8371 7.82075 17.5388 7.67665 17.3929 7.44855L16.7695 6.47461H23.2311Z" fill="#828282"/>
<path d="M22.0266 15.5434V14.5591C22.0266 13.7901 21.6267 13.0518 20.95 12.6827C20.2733 12.2828 19.4428 12.2828 18.7661 12.6827C18.0893 13.0826 17.6895 13.7901 17.6895 14.5591V15.5434C17.6895 16.2201 18.0586 16.8661 18.643 17.2044C19.412 17.6351 20.3348 17.6351 21.0731 17.2044C21.6575 16.8661 22.0266 16.2201 22.0266 15.5434Z" fill="#828282"/>
<path d="M19.7624 17.918C17.2401 17.918 15.21 19.8558 15.0254 22.3474C16.5019 22.5627 18.1014 22.6858 19.7624 22.6858C21.4235 22.6858 23.023 22.5627 24.4995 22.3474C24.3149 19.8558 22.2848 17.918 19.7624 17.918Z" fill="#828282"/>
<path d="M13.1886 17.8525C14.4557 17.8497 15.0129 18.5644 16.0489 18.8582C16.7088 19.0395 17.3814 19.1709 18.0611 19.2511C18.5347 19.3023 18.8943 19.7011 18.8963 20.1775V20.2615C18.8963 20.2615 18.8963 22.3463 16.0489 22.3463C15.7641 22.417 13.676 22.109 13.2014 21.1599L12.2461 19.6094L13.1886 17.8525Z" fill="#EE0033"/>
</g>
<defs>
<clipPath id="clip0">
<rect width="28" height="28" fill="white" transform="translate(6 6)"/>
</clipPath>
</defs>
</svg>
