<svg width="55" height="55" viewBox="0 0 55 55" fill="none" xmlns="http://www.w3.org/2000/svg">
<path d="M11.5159 48.279C11.4223 48.279 11.3287 48.279 11.2351 48.0891V47.9941C10.7672 47.5193 10.3928 46.9494 10.0184 46.4746C9.83124 46.2847 9.92483 45.9998 10.112 45.8098C10.2992 45.6199 10.58 45.7149 10.7672 45.9048C11.1415 46.3796 11.5159 46.8545 11.8903 47.3293C12.0774 47.5193 12.0774 47.8991 11.8903 47.9941C11.7967 48.184 11.7031 48.279 11.5159 48.279ZM43.2435 48.184C43.1499 48.184 43.0563 48.184 42.9627 48.0891C42.7755 47.8991 42.7755 47.6142 42.9627 47.4243C43.3371 46.9494 43.7114 46.4746 44.0858 45.9998C44.273 45.8098 44.5537 45.7149 44.7409 45.9048C44.9281 46.0947 45.0217 46.3796 44.8345 46.5696C44.4602 47.1394 44.0858 47.6142 43.6178 48.0891C43.5242 48.0891 43.4306 48.184 43.2435 48.184ZM8.89532 44.2903C8.70814 44.2903 8.52096 44.1954 8.52096 44.0054C8.24018 43.4356 7.95941 42.8658 7.67863 42.201C7.58504 41.9161 7.67863 41.7262 7.95941 41.5363C8.24018 41.4413 8.42737 41.5363 8.61455 41.8212C8.89532 42.391 9.08251 42.9608 9.45687 43.5306C9.55047 43.7205 9.45687 44.0054 9.26969 44.1954C8.98892 44.2903 8.98892 44.2903 8.89532 44.2903ZM45.9576 44.2903C45.864 44.2903 45.7704 44.2903 45.7704 44.1954C45.5833 44.1004 45.4897 43.8155 45.5833 43.5306C45.864 42.9608 46.1448 42.391 46.4256 41.8212C46.5192 41.5363 46.7999 41.4413 47.0807 41.5363C47.3615 41.6312 47.4551 41.9161 47.3615 42.201C47.0807 42.7709 46.7999 43.4356 46.5192 44.0054C46.332 44.1954 46.1448 44.2903 45.9576 44.2903ZM7.11708 39.8268C6.9299 39.8268 6.74272 39.7319 6.64912 39.447C6.46194 38.7822 6.36835 38.2124 6.18117 37.5476C6.18117 37.2627 6.27476 37.0728 6.55553 36.9778C6.83631 36.9778 7.02349 37.0728 7.11708 37.3577C7.21067 37.9275 7.39786 38.5923 7.49145 39.1621C7.58504 39.447 7.39786 39.6369 7.11708 39.7319C7.21067 39.8268 7.11708 39.8268 7.11708 39.8268ZM47.7359 39.8268H47.6423C47.3615 39.7319 47.2679 39.5419 47.2679 39.257C47.4551 38.6872 47.5487 38.0225 47.6423 37.4526C47.6423 37.1677 47.923 36.9778 48.2038 37.0728C48.4846 37.0728 48.6718 37.3577 48.5782 37.6426C48.4846 38.3074 48.2974 38.9721 48.1102 39.5419C48.1102 39.7319 47.923 39.8268 47.7359 39.8268ZM6.36835 35.0784C6.08757 35.0784 5.90039 34.8885 5.90039 34.6036C5.90039 34.3187 5.90039 33.9388 5.90039 33.6539C5.90039 33.2741 5.90039 32.9891 5.90039 32.6093C5.90039 32.3244 6.08757 32.1344 6.36835 32.1344C6.64912 32.1344 6.83631 32.3244 6.83631 32.6093C6.83631 32.8942 6.83631 33.2741 6.83631 33.559C6.83631 33.8439 6.83631 34.1288 6.83631 34.5086C6.83631 34.8885 6.64912 35.0784 6.36835 35.0784ZM48.4846 35.0784C48.391 35.0784 48.391 35.0784 48.4846 35.0784C48.2038 35.0784 48.0166 34.8885 48.0166 34.6036C48.0166 34.3187 48.0166 34.0338 48.0166 33.6539C48.0166 33.369 48.0166 32.9891 48.0166 32.7042C48.0166 32.4193 48.2038 32.2294 48.4846 32.2294C48.7654 32.2294 48.9526 32.4193 48.9526 32.7042C48.9526 32.9891 48.9526 33.369 48.9526 33.6539C48.9526 33.9388 48.9526 34.3187 48.9526 34.6036C48.859 34.8885 48.6718 35.0784 48.4846 35.0784ZM6.74272 30.33C6.64912 30.33 6.64912 30.33 6.74272 30.33C6.36835 30.2351 6.27476 30.0451 6.27476 29.7602C6.36835 29.0955 6.55553 28.4307 6.74272 27.8609C6.83631 27.576 7.11708 27.481 7.30427 27.576C7.58504 27.6709 7.67863 27.8609 7.58504 28.1458C7.39786 28.7156 7.30427 29.3804 7.21067 29.9502C7.11708 30.1401 6.9299 30.33 6.74272 30.33ZM48.1102 30.33C47.923 30.33 47.7359 30.1401 47.6423 29.9502C47.5487 29.3804 47.3615 28.7156 47.2679 28.1458C47.1743 27.8609 47.3615 27.6709 47.5487 27.576C47.8295 27.481 48.0166 27.6709 48.1102 27.8609C48.2974 28.5257 48.391 29.0955 48.5782 29.7602C48.6718 30.0451 48.4846 30.2351 48.1102 30.33C48.2038 30.33 48.1102 30.33 48.1102 30.33ZM8.053 25.7716C7.95941 25.7716 7.95941 25.7716 7.86582 25.7716C7.58504 25.6766 7.49145 25.3917 7.58504 25.1068C7.86582 24.537 8.14659 23.8722 8.42737 23.3024C8.52096 23.1125 8.80173 23.0175 9.08251 23.1125C9.26969 23.2074 9.36328 23.4923 9.26969 23.7773C8.98892 24.3471 8.70814 24.9169 8.42737 25.4867C8.42737 25.6766 8.24018 25.7716 8.053 25.7716ZM46.7999 25.7716C46.6128 25.7716 46.4256 25.6766 46.332 25.4867C46.0512 24.9169 45.864 24.3471 45.4897 23.7773C45.3961 23.5873 45.4897 23.3024 45.6768 23.1125C45.864 23.0175 46.1448 23.1125 46.332 23.3024C46.6128 23.8722 46.8935 24.442 47.1743 25.1068C47.2679 25.3917 47.1743 25.5816 46.8935 25.7716H46.7999ZM10.3928 21.593C10.2992 21.593 10.2056 21.593 10.112 21.498C9.92483 21.3081 9.83124 21.0232 10.0184 20.8332C10.3928 20.2634 10.7672 19.7886 11.2351 19.3138C11.4223 19.1238 11.7031 19.1238 11.8903 19.3138C12.0774 19.5037 12.0774 19.7886 11.8903 19.9785C11.5159 20.4534 11.1415 20.9282 10.7672 21.4031C10.6736 21.498 10.4864 21.593 10.3928 21.593ZM44.4602 21.593C44.273 21.593 44.1794 21.498 44.0858 21.4031C43.7114 20.9282 43.3371 20.4534 42.9627 19.9785L43.6178 19.3138L43.2435 19.5987L43.6178 19.3138C43.9922 19.7886 44.4602 20.2634 44.8345 20.8332C45.0217 21.0232 44.9281 21.3081 44.7409 21.498C44.6473 21.593 44.5537 21.593 44.4602 21.593ZM41.278 18.0792C41.1844 18.0792 41.0909 18.0792 40.9973 17.9842C40.5293 17.6043 40.0613 17.2245 39.5934 16.8446C39.4062 16.6547 39.3126 16.3697 39.4998 16.1798C39.687 15.9899 39.9678 15.8949 40.1549 16.0848C40.7165 16.4647 41.1844 16.8446 41.6524 17.3194C41.8396 17.5094 41.8396 17.7943 41.6524 17.9842C41.5588 17.9842 41.3716 18.0792 41.278 18.0792ZM13.5749 18.0792C13.4813 18.0792 13.2941 17.9842 13.2005 17.8892C13.0134 17.6993 13.0134 17.4144 13.2005 17.2245C13.6685 16.8446 14.1365 16.3697 14.698 15.9899C14.8852 15.7999 15.166 15.8949 15.3531 16.0848C15.5403 16.2748 15.4467 16.5597 15.2596 16.7496C14.7916 17.1295 14.3236 17.5094 13.8557 17.8892C13.7621 17.9842 13.6685 18.0792 13.5749 18.0792ZM17.4122 15.3251C17.225 15.3251 17.0378 15.2301 17.0378 15.0402C16.9442 14.8503 17.0378 14.5654 17.225 14.3754C17.7865 14.0905 18.3481 13.8056 19.0032 13.5207C19.284 13.4257 19.4712 13.5207 19.6584 13.8056C19.752 14.0905 19.6584 14.2805 19.3776 14.4704C18.816 14.7553 18.2545 14.9452 17.6929 15.3251C17.5993 15.3251 17.5058 15.3251 17.4122 15.3251ZM37.3472 15.3251C37.2536 15.3251 37.16 15.3251 37.16 15.2301C36.5985 14.9452 36.0369 14.6603 35.4754 14.3754C35.1946 14.2805 35.101 13.9955 35.1946 13.7106C35.2882 13.4257 35.5689 13.3308 35.8497 13.4257C36.4113 13.7106 37.0664 13.9955 37.628 14.2805C37.8151 14.3754 37.9087 14.6603 37.8151 14.9452C37.7216 15.2301 37.5344 15.3251 37.3472 15.3251ZM33.042 13.6157H32.9484C32.3868 13.4257 31.7317 13.3308 31.1701 13.2358C30.8894 13.2358 30.7022 12.9509 30.7958 12.666C30.7958 12.3811 31.0765 12.1912 31.3573 12.2861C32.0125 12.3811 32.6676 12.571 33.2292 12.761C33.5099 12.8559 33.6035 13.0459 33.5099 13.3308C33.4163 13.4257 33.2292 13.6157 33.042 13.6157ZM21.811 13.6157C21.6238 13.6157 21.4366 13.5207 21.343 13.2358C21.2494 12.9509 21.4366 12.761 21.6238 12.666C22.2789 12.4761 22.8405 12.3811 23.4956 12.1912C23.7764 12.0962 23.9636 12.2861 24.0572 12.571C24.0572 12.8559 23.9636 13.0459 23.6828 13.1408C23.1213 13.2358 22.4661 13.4257 21.9046 13.5207L21.811 13.6157ZM28.3624 12.8559C27.7072 12.8559 27.1457 12.8559 26.4906 12.8559C26.2098 12.8559 26.0226 12.666 26.0226 12.3811C26.0226 12.0962 26.2098 11.9062 26.4906 11.9062C27.1457 11.9062 27.8008 11.9062 28.456 11.9062C28.7368 11.9062 28.9239 12.0962 28.9239 12.3811C28.8303 12.666 28.6432 12.8559 28.3624 12.8559Z" fill="#828282"/>
<path d="M27.4276 48.943C35.7496 48.943 42.4959 42.0975 42.4959 33.6531C42.4959 25.2088 35.7496 18.3633 27.4276 18.3633C19.1057 18.3633 12.3594 25.2088 12.3594 33.6531C12.3594 42.0975 19.1057 48.943 27.4276 48.943Z" fill="#C4C4C4"/>
<path d="M23.7775 37.9262C23.7775 39.0658 24.6198 39.9205 25.7429 39.9205H25.9301C27.0532 39.9205 27.8955 39.0658 27.8955 37.9262V29.3791C27.8955 27.8596 28.4571 26.53 29.4866 25.4854C30.5161 24.4408 31.0776 23.0162 31.0776 21.5917V19.0276C29.8609 18.7427 28.6443 18.5527 27.334 18.5527C20.689 18.5527 14.9799 23.0162 13.0144 29.0942C12.7337 29.9489 13.0144 30.8986 13.576 31.4684L15.1671 33.0828C15.5414 33.4627 16.0094 33.6526 16.5709 33.6526C18.9107 33.6526 21.1569 34.6023 22.8416 36.3118L23.1223 36.5967C23.5903 36.8816 23.7775 37.3564 23.7775 37.9262Z" fill="#EE0033"/>
<path d="M33.4181 34.5084H32.5757C31.7334 34.5084 31.1719 33.8437 31.1719 33.0839V32.2292C31.1719 31.3745 31.827 30.8047 32.5757 30.8047H33.4181C34.1668 30.8047 34.8219 31.4695 34.8219 32.2292V33.0839C34.8219 33.8437 34.1668 34.5084 33.4181 34.5084Z" fill="#EE0033"/>
<path d="M42.2142 36.123H39.5936C38.7513 36.123 37.9089 36.5029 37.2538 37.0727L36.6923 37.6425C36.3179 38.0224 36.1307 38.4972 36.1307 38.9721V39.4469C36.1307 40.4916 35.2884 41.2513 34.3525 41.2513C33.323 41.2513 32.5742 42.106 32.5742 43.0557V47.994C37.6282 46.1897 41.3718 41.6312 42.2142 36.123Z" fill="#EE0033"/>
<path d="M31.827 37.8315C31.4527 37.8315 31.1719 37.5466 31.1719 37.1667C31.1719 36.7869 31.4527 36.502 31.827 36.502C32.2014 36.502 32.4822 36.7869 32.4822 37.1667C32.5758 37.5466 32.2014 37.8315 31.827 37.8315Z" fill="#EE0033"/>
<path d="M36.6923 28.7143C36.3179 28.7143 36.0371 28.4294 36.0371 28.0495C36.0371 27.6697 36.3179 27.3848 36.6923 27.3848C37.0666 27.3848 37.3474 27.6697 37.3474 28.0495C37.441 28.3344 37.0666 28.7143 36.6923 28.7143Z" fill="#EE0033"/>
<path d="M23.5897 48.4691V47.2345C23.5897 44.8603 21.7179 42.9609 19.3781 42.9609H15.4473C17.5063 45.62 20.314 47.5194 23.5897 48.4691Z" fill="#EE0033"/>
<path d="M33.0428 9.05806C33.0428 5.82915 30.4222 3.26501 27.1465 3.35998C24.4323 3.45495 21.9989 5.92411 21.8118 8.67819C21.7182 10.6725 22.5605 12.3819 23.8708 13.5216C25.1811 14.5662 26.3042 15.8958 27.1465 17.4152L27.3337 17.7001C27.4273 17.7951 27.5209 17.7951 27.6144 17.7001L27.708 17.5102C28.5504 15.9907 29.6735 14.5662 30.9837 13.5216C32.2004 12.4769 33.0428 10.8625 33.0428 9.05806Z" fill="#92001F"/>
<path d="M27.8014 11.5273L28.6437 11.0524C29.1117 10.7675 29.486 10.4826 29.8604 10.1027C30.5155 9.43795 30.5155 8.39331 29.7668 7.72853C29.1117 7.15872 28.1757 7.25369 27.5206 7.8235L27.427 7.91847C27.3334 8.01343 27.2398 8.01343 27.2398 7.91847L27.1462 7.8235C26.5847 7.25369 25.5552 7.15872 24.9 7.72853C24.2449 8.39331 24.1513 9.43795 24.8064 10.1027C25.1808 10.4826 25.5552 10.7675 26.0231 11.0524L26.8655 11.5273C26.959 11.6222 27.0526 11.7172 27.1462 11.8122C27.2398 11.9071 27.3334 11.9071 27.427 11.8122C27.6142 11.7172 27.7078 11.6222 27.8014 11.5273Z" fill="white"/>
</svg>
