<svg width="55" height="55" viewBox="0 0 55 55" fill="none" xmlns="http://www.w3.org/2000/svg">
<rect x="8.59961" y="14" width="37.8" height="29.7" rx="1" fill="#DCDCDC"/>
<path d="M8.59961 15C8.59961 14.4477 9.04732 14 9.59961 14H45.3996C45.9519 14 46.3996 14.4477 46.3996 15V22.1H8.59961V15Z" fill="#EE0033"/>
<path d="M27.5 14H45.4C45.9523 14 46.4 14.4477 46.4 15V22.1H27.5V14Z" fill="#92001F"/>
<rect x="14" y="8.59961" width="5.4" height="10.8" rx="1" fill="#DCDCDC"/>
<rect x="24.7988" y="8.59961" width="5.4" height="10.8" rx="1" fill="#DCDCDC"/>
<rect x="35.5996" y="8.59961" width="5.4" height="10.8" rx="1" fill="#DCDCDC"/>
<mask id="mask0" mask-type="alpha" maskUnits="userSpaceOnUse" x="14" y="8" width="6" height="12">
<rect x="14" y="8.59961" width="5.4" height="10.8" rx="1" fill="#DCDCDC"/>
</mask>
<g mask="url(#mask0)">
<rect x="16.6992" y="5.90039" width="5.4" height="16.2" fill="#C4C4C4"/>
</g>
<mask id="mask1" mask-type="alpha" maskUnits="userSpaceOnUse" x="24" y="8" width="7" height="12">
<rect x="24.7988" y="8.59961" width="5.4" height="10.8" rx="1" fill="#DCDCDC"/>
</mask>
<g mask="url(#mask1)">
<rect x="27.498" y="5.90039" width="5.4" height="16.2" fill="#C4C4C4"/>
</g>
<mask id="mask2" mask-type="alpha" maskUnits="userSpaceOnUse" x="35" y="8" width="6" height="12">
<rect x="35.5996" y="8.59961" width="5.4" height="10.8" rx="1" fill="#DCDCDC"/>
</mask>
<g mask="url(#mask2)">
<rect x="38.2988" y="5.90039" width="5.4" height="16.2" fill="#C4C4C4"/>
</g>
<ellipse cx="43.1516" cy="40.9562" rx="6.05391" ry="6.05391" fill="#EE0033"/>
<path fill-rule="evenodd" clip-rule="evenodd" d="M42.919 36.8994C42.5893 36.8908 42.3017 37.1504 42.2767 37.4793L42.2839 41.4637C42.2719 41.6216 42.3233 41.7747 42.4268 41.8893C42.5302 42.0039 42.6773 42.0706 42.8356 42.0748L45.6538 42.0748C45.9835 42.0834 46.271 41.8237 46.2961 41.4948C46.3211 41.1659 46.0741 40.8924 45.7443 40.8838L43.5232 40.8993L43.4708 37.5104C43.4958 37.1815 43.2487 36.908 42.919 36.8994Z" fill="white"/>
<path d="M30.6273 25.3291V29.7142C30.6273 29.9155 30.5063 30.0996 30.3148 30.1895L27.7514 31.3934C27.5927 31.4679 27.4061 31.4679 27.2474 31.3934L24.684 30.1895C24.4925 30.0996 24.3715 29.9155 24.3715 29.7142V25.3291C24.3715 25.0581 24.0349 24.9107 23.8147 25.0854L22.2726 26.308C21.8867 26.6139 21.6641 27.0645 21.6641 27.5393V30.9739C21.6641 31.7127 22.0678 32.3996 22.7328 32.7923L25.3133 34.3159V40.426C25.3133 40.7194 25.566 40.9573 25.8778 40.9573H29.1211C29.4329 40.9573 29.6856 40.7194 29.6856 40.426V34.3159L32.2661 32.7922C32.9311 32.3996 33.3348 31.7127 33.3348 30.9738V27.5393C33.3348 27.0645 33.1122 26.6139 32.7263 26.308L31.1842 25.0853C30.9639 24.9108 30.6273 25.0581 30.6273 25.3291Z" fill="#EE0033"/>
<mask id="mask3" mask-type="alpha" maskUnits="userSpaceOnUse" x="21" y="25" width="13" height="16">
<path d="M30.6273 25.3291V29.7142C30.6273 29.9155 30.5063 30.0996 30.3148 30.1895L27.7514 31.3934C27.5927 31.4679 27.4061 31.4679 27.2474 31.3934L24.684 30.1895C24.4925 30.0996 24.3715 29.9155 24.3715 29.7142V25.3291C24.3715 25.0581 24.0349 24.9107 23.8147 25.0854L22.2726 26.308C21.8867 26.6139 21.6641 27.0645 21.6641 27.5393V30.9739C21.6641 31.7127 22.0678 32.3996 22.7328 32.7923L25.3133 34.3159V40.426C25.3133 40.7194 25.566 40.9573 25.8778 40.9573H29.1211C29.4329 40.9573 29.6856 40.7194 29.6856 40.426V34.3159L32.2661 32.7922C32.9311 32.3996 33.3348 31.7127 33.3348 30.9738V27.5393C33.3348 27.0645 33.1122 26.6139 32.7263 26.308L31.1842 25.0853C30.9639 24.9108 30.6273 25.0581 30.6273 25.3291Z" fill="#EE0033"/>
</mask>
<g mask="url(#mask3)">
<rect x="27.5" y="22.0996" width="9.64757" height="29.5476" fill="#92001F"/>
</g>
</svg>
