<svg width="55" height="55" viewBox="0 0 55 55" fill="none" xmlns="http://www.w3.org/2000/svg">
<circle cx="27.5004" cy="27.5004" r="21.6" fill="#EE0033"/>
<path d="M5.90039 27.5004C5.90039 39.4297 15.571 49.1004 27.5004 49.1004V5.90039C15.571 5.90039 5.90039 15.571 5.90039 27.5004Z" fill="#92001F"/>
<path d="M27.4996 24.9278C26.9158 24.9278 26.478 24.4135 26.478 23.7278C26.478 23.0421 26.9158 22.5278 27.4996 22.5278C28.0834 22.5278 28.5212 23.0421 28.5212 23.7278H32.8996C32.8996 21.1564 31.5861 18.9278 29.6888 17.8992V16.6992H25.3104V17.8992C23.4131 18.9278 22.0996 21.1564 22.0996 23.7278C22.0996 27.1564 24.5807 30.0706 27.4996 30.0706C28.0834 30.0706 28.5212 30.5849 28.5212 31.2706C28.5212 31.9564 28.0834 32.4706 27.4996 32.4706C26.9158 32.4706 26.478 31.9564 26.478 31.2706H22.0996C22.0996 33.8421 23.4131 36.0706 25.3104 37.0992V38.2992H29.6888V37.0992C31.5861 36.0706 32.8996 33.8421 32.8996 31.2706C32.8996 27.8421 30.4185 24.9278 27.4996 24.9278Z" fill="white"/>
</svg>
