<svg width="55" height="55" viewBox="0 0 55 55" fill="none" xmlns="http://www.w3.org/2000/svg">
<path d="M17.1921 46.3996H37.8079C39.5706 46.3996 41 44.8604 41 42.9623V27.4996V16.6996C39.65 15.3496 32.9 8.59961 32.9 8.59961H17.1921C15.4294 8.59961 14 10.1389 14 12.0369V42.9597C14 44.8603 15.4294 46.3996 17.1921 46.3996Z" fill="#DCDCDC"/>
<path d="M32.9004 16.6996V8.59961L41.0004 16.6996H32.9004Z" fill="#828282"/>
<path fill-rule="evenodd" clip-rule="evenodd" d="M24.2674 32.6601C24.1668 32.6139 24.113 32.5041 24.1341 32.3955L24.5579 30.2129C24.6314 29.8346 24.2673 29.5188 23.9031 29.6452L19.945 31.0193C19.598 31.1398 19.495 31.5808 19.7528 31.8425L19.8921 31.984C19.9108 32.0029 19.9279 32.0233 19.9434 32.0449C20.7995 33.2358 21.9513 34.1849 23.2869 34.7975C24.6927 35.4424 26.2483 35.6898 27.7848 35.5127C29.3213 35.3357 30.7799 34.7411 32.0023 33.7934C33.0926 32.9481 33.9578 31.8506 34.5253 30.5986C34.6393 30.3471 34.5092 30.0571 34.2514 29.9582L32.9895 29.4738C32.7317 29.3748 32.4444 29.5047 32.3247 29.7535C31.9149 30.6055 31.3121 31.3529 30.5614 31.9349C29.6786 32.6193 28.6253 33.0487 27.5157 33.1766C26.406 33.3044 25.2826 33.1258 24.2674 32.6601Z" fill="#EE0033"/>
<path fill-rule="evenodd" clip-rule="evenodd" d="M30.0194 22.9141C30.117 22.9663 30.1641 23.0793 30.1364 23.1865L29.5801 25.3387C29.4836 25.7118 29.8278 26.0492 30.199 25.9453L34.2336 24.8156C34.5874 24.7165 34.7171 24.2826 34.4758 24.0057L34.3441 23.8545C34.3267 23.8345 34.3109 23.8131 34.2967 23.7907C33.515 22.5504 32.4237 21.5333 31.1286 20.8405C29.7648 20.1109 28.2272 19.769 26.6828 19.8519C25.1383 19.9347 23.6461 20.4391 22.3682 21.3104C21.2282 22.0875 20.2976 23.1301 19.6547 24.3451C19.5255 24.5892 19.6377 24.8866 19.889 25.0011L21.1189 25.5616C21.3702 25.6762 21.6649 25.5641 21.7996 25.323C22.2606 24.4977 22.908 23.7885 23.6928 23.2534C24.6157 22.6242 25.6934 22.26 26.8087 22.2001C27.9241 22.1403 29.0345 22.3872 30.0194 22.9141Z" fill="#EE0033"/>
</svg>
