<svg width="74" height="74" viewBox="0 0 74 74" fill="none" xmlns="http://www.w3.org/2000/svg">
<g clip-path="url(#clip0)">
<path d="M53.561 36.8616C56.7003 24.5409 49.2573 12.0082 36.9367 8.86887C24.616 5.72958 12.0832 13.1726 8.94395 25.4932C5.80466 37.8139 13.2476 50.3467 25.5683 53.4859C37.889 56.6252 50.4217 49.1823 53.561 36.8616Z" fill="#EE0033"/>
<path d="M65.7773 54.1469L63.8588 52.708C63.3792 52.3483 63.1394 51.8687 63.0194 51.2691C62.7796 48.3913 61.3407 45.7534 59.1824 43.8349L58.1032 42.9955C55.825 40.9571 52.4676 40.7173 49.8296 42.1562L43.2347 45.8733C42.875 45.9932 42.5153 45.9932 42.2755 45.7534L33.2824 38.439C32.8028 38.0793 32.0833 38.0793 31.7236 38.5589C30.4046 39.8779 30.4046 41.9163 31.7236 43.2353L41.3162 52.8279C41.9157 53.4275 42.2755 54.2668 42.2755 55.2261V56.7849C42.2755 59.6626 44.4338 61.9409 47.1917 62.4205L50.5491 62.9001C51.0287 63.02 51.5083 63.2599 51.988 63.6196L54.1463 65.7779H65.7773V54.1469Z" fill="#DCDCDC"/>
<path d="M38.9191 50.4298L31.7246 43.2354L38.9191 50.4298Z" fill="#DCDCDC"/>
<path d="M65.7772 54.147L63.8587 52.7081C63.6189 52.5882 63.499 52.3484 63.3791 52.2285V58.3438C63.3791 61.1017 61.1008 63.3799 58.343 63.3799H51.748L51.9879 63.6197L54.1462 65.778H65.7772V54.147Z" fill="#828282"/>
<path d="M42.3956 56.7855C42.3956 57.2651 42.5155 57.8647 42.6354 58.3443C43.3548 58.1045 44.0743 58.1045 44.6738 58.4642C44.9136 58.5841 45.2734 58.5841 45.5132 58.3443C45.8729 57.9846 45.8729 57.5049 45.5132 57.2651L41.3164 53.0684C41.9159 53.6679 42.2757 54.5072 42.2757 55.4665L42.3956 56.7855Z" fill="#828282"/>
<path d="M26.6887 29.3267C28.1457 29.3267 29.3267 28.1457 29.3267 26.6887C29.3267 25.2318 28.1457 24.0508 26.6887 24.0508C25.2318 24.0508 24.0508 25.2318 24.0508 26.6887C24.0508 28.1457 25.2318 29.3267 26.6887 29.3267Z" fill="white"/>
<path d="M38.44 35.6819C38.44 37.1208 37.2409 38.3199 35.802 38.3199C34.3631 38.3199 33.1641 37.1208 33.1641 35.6819C33.1641 34.243 34.3631 33.0439 35.802 33.0439C37.2409 33.0439 38.44 34.243 38.44 35.6819Z" fill="white"/>
<path d="M26.4491 37.1208C26.0894 37.1208 25.8495 37.0009 25.6097 36.7611C25.1301 36.2815 25.1301 35.562 25.6097 35.0824L35.0824 25.6097C35.562 25.1301 36.2815 25.1301 36.7611 25.6097C37.2407 26.0894 37.2407 26.8088 36.7611 27.2884L27.4083 36.7611C27.1685 37.0009 26.8088 37.1208 26.4491 37.1208Z" fill="white"/>
</g>
<defs>
<clipPath id="clip0">
<rect width="74" height="74" fill="white"/>
</clipPath>
</defs>
</svg>
