<svg width="55" height="55" viewBox="0 0 55 55" fill="none" xmlns="http://www.w3.org/2000/svg">
<path d="M27.6032 45.9485C38.1201 45.9485 46.6458 37.4229 46.6458 26.9059C46.6458 16.389 38.1201 7.86328 27.6032 7.86328C17.0862 7.86328 8.56055 16.389 8.56055 26.9059C8.56055 37.4229 17.0862 45.9485 27.6032 45.9485Z" fill="#EE0033"/>
<path d="M26.2941 14.2226L28.9134 14.2226C30.1223 14.2226 31.2305 15.2301 31.2305 16.5397L31.2305 27.0169C31.2305 28.2258 30.223 29.334 28.9134 29.334L26.2941 29.334C25.0852 29.334 23.977 28.3266 23.977 27.0169L23.977 16.439C23.977 15.2301 24.9844 14.2226 26.2941 14.2226Z" fill="white"/>
<path d="M27.2008 32.2563L28.0067 32.2563C29.7193 32.2563 31.2305 33.6667 31.2305 35.4801L31.2305 36.286C31.2305 37.9986 29.8201 39.5098 28.0067 39.5098L27.2008 39.5098C25.4882 39.5098 23.977 38.0994 23.977 36.286L23.977 35.4801C23.977 33.6667 25.3874 32.2563 27.2008 32.2563Z" fill="#92001F"/>
</svg>
