<svg width="55" height="55" viewBox="0 0 55 55" fill="none" xmlns="http://www.w3.org/2000/svg">
<path opacity="0.8" d="M46.3994 10.9258V17.2044C46.3994 17.6703 46.0524 18.0495 45.6259 18.0495L39.9727 18.0472C39.5462 18.0472 39.1992 17.668 39.1992 17.2021V9.44468C39.1992 8.97875 39.5462 8.59961 39.9727 8.59961H44.0333C44.0853 8.59961 44.1341 8.62245 44.1701 8.66128L46.3431 10.7762C46.3781 10.8162 46.3994 10.8699 46.3994 10.9258Z" fill="white"/>
<rect x="41" y="13.9141" width="3.60007" height="4.13432" fill="#EE0033"/>
<path opacity="0.8" d="M46.3994 25.0997V31.3782C46.3994 31.8442 46.0524 32.2233 45.6259 32.2233L39.9727 32.221C39.5462 32.221 39.1992 31.8419 39.1992 31.3759V23.6185C39.1992 23.1526 39.5462 22.7734 39.9727 22.7734H44.0333C44.0853 22.7734 44.1341 22.7963 44.1701 22.8351L46.3431 24.9501C46.3781 24.99 46.3994 25.0437 46.3994 25.0997Z" fill="white"/>
<rect x="41" y="28.0879" width="3.60007" height="4.13431" fill="#EE0033"/>
<path opacity="0.8" d="M46.3994 39.2755V45.554C46.3994 46.0199 46.0524 46.3991 45.6259 46.3991L39.9727 46.3968C39.5462 46.3968 39.1992 46.0177 39.1992 45.5517V37.7943C39.1992 37.3284 39.5462 36.9492 39.9727 36.9492H44.0333C44.0853 36.9492 44.1341 36.9721 44.1701 37.0109L46.3431 39.1259C46.3781 39.1658 46.3994 39.2195 46.3994 39.2755Z" fill="white"/>
<rect x="41" y="42.2637" width="3.60007" height="4.13431" fill="#EE0033"/>
<path d="M28.9029 46.399H13.2434C10.8827 46.399 8.99414 44.5091 8.99414 42.1466V12.852C8.99414 10.4896 10.8827 8.59961 13.2434 8.59961H28.9029C31.2637 8.59961 33.1522 10.4896 33.1522 12.852V42.1466C33.0736 44.5091 31.185 46.399 28.9029 46.399Z" fill="#DCDCDC"/>
<path d="M28.9029 8.59961H13.2434C10.8827 8.59961 8.99414 10.4896 8.99414 12.852V42.1466C8.99414 44.5091 10.8827 46.399 13.2434 46.399H28.9029C31.2637 46.399 33.1522 44.5091 33.1522 42.1466V12.852C33.0736 10.4896 31.185 8.59961 28.9029 8.59961ZM31.4997 42.1466C31.4997 43.6428 30.3194 44.8241 28.8242 44.8241H13.2434C11.7483 44.8241 10.568 43.6428 10.568 42.1466V12.852C10.568 11.3558 11.7483 10.1746 13.2434 10.1746H15.2107C15.6042 10.1746 16.0763 10.3321 16.3124 10.7258C16.5485 11.0408 17.0206 11.2771 17.4141 11.2771H24.6536C25.0471 11.2771 25.5192 11.1196 25.7553 10.7258C26.0701 10.3321 26.4635 10.1746 26.857 10.1746H28.8242C30.3194 10.1746 31.4997 11.3558 31.4997 12.852V42.1466Z" fill="#EE0033"/>
<path d="M8.99502 21.6721H8.91633C8.75894 21.6721 8.60156 21.5146 8.60156 21.3571V18.9947C8.60156 18.8372 8.75894 18.6797 8.91633 18.6797H8.99502V21.6721Z" fill="#92001F"/>
<path d="M8.99306 25.1364H8.91437C8.75699 25.1364 8.59961 25.0576 8.59961 24.9001V22.5377C8.59961 22.3802 8.75699 22.2227 8.91437 22.2227H8.99306V25.1364Z" fill="#92001F"/>
<path d="M33.0723 18.7578H33.151C33.3083 18.7578 33.4657 18.9153 33.4657 19.0728V21.4353C33.4657 21.5928 33.3083 21.7503 33.151 21.7503H33.0723V18.7578Z" fill="#92001F"/>
<path d="M27.4079 33.5645H16.8633V34.5094H27.4079V33.5645Z" fill="white"/>
<path d="M27.4079 35.8477H16.8633V36.7927H27.4079V35.8477Z" fill="white"/>
<path d="M22.1356 38.1328H16.8633V39.0778H22.1356V38.1328Z" fill="white"/>
<path d="M15.7613 33.5645H14.7383V34.5094H15.7613V33.5645Z" fill="white"/>
<path d="M15.7613 35.8477H14.7383V36.7927H15.7613V35.8477Z" fill="white"/>
<path d="M15.7613 38.1328H14.7383V39.0778H15.7613V38.1328Z" fill="white"/>
<path d="M39.1989 12.1426L39.1989 13.8485L36.7269 13.8485L36.7269 41.7394L39.1989 41.7394L39.1989 43.4453L35.8869 43.4453C35.3829 43.4453 35.0469 43.1041 35.0469 42.5924L35.0469 12.9956C35.0469 12.4838 35.3829 12.1426 35.8869 12.1426L39.1989 12.1426Z" fill="#92001F"/>
<path d="M33.1992 26.9078L33.1992 28.6797L39.1993 28.6797L39.1993 26.9078L33.1992 26.9078Z" fill="#92001F"/>
<rect x="14" y="16.6992" width="13.5" height="13.5" fill="#C4C4C4"/>
</svg>
