<svg width="55" height="55" viewBox="0 0 55 55" fill="none" xmlns="http://www.w3.org/2000/svg">
<path d="M39.6888 16.6064H39.2412H38.6323H38.0233H33.3728H16.2844H14.0427H12.1563H11.8067H10.635C10.0145 16.6064 9.45935 16.8882 9.09822 17.3345C8.93302 17.5387 8.80816 17.7751 8.73709 18.0342C8.69291 18.1968 8.66602 18.367 8.66602 18.541V18.7735V20.9785V40.0985C8.66602 41.1669 9.54579 42.033 10.6311 42.033H39.6849C40.7703 42.033 41.65 41.1669 41.65 40.0985V18.541C41.6539 17.4725 40.7741 16.6064 39.6888 16.6064Z" fill="#DCDCDC"/>
<path d="M33.5162 14.3935C33.2734 13.5312 32.458 12.9658 31.5696 12.9658C31.3919 12.9658 31.2143 12.9885 31.0366 13.0358L10.8105 16.606H17.3749H29.0544H32.0276H34.146L33.5162 14.3935Z" fill="#92001F"/>
<path d="M39.6504 35.5996C43.3783 35.5996 46.4004 32.5775 46.4004 28.8496C46.4004 25.1217 43.3783 22.0996 39.6504 22.0996C35.9225 22.0996 32.9004 25.1217 32.9004 28.8496C32.9004 32.5775 35.9225 35.5996 39.6504 35.5996Z" fill="#EE0033"/>
<path fill-rule="evenodd" clip-rule="evenodd" d="M43.7804 26.3217C44.0895 26.6308 44.0895 27.1319 43.7804 27.441L38.6514 32.57C38.503 32.7184 38.3017 32.8018 38.0918 32.8018C37.8818 32.8018 37.6805 32.7184 37.5321 32.57L34.8373 29.8752C34.5282 29.5661 34.5282 29.065 34.8373 28.7559C35.1464 28.4468 35.6475 28.4468 35.9566 28.7559L38.0918 30.891L42.6611 26.3217C42.9702 26.0126 43.4713 26.0126 43.7804 26.3217Z" fill="white"/>
</svg>
