<svg width="74" height="74" viewBox="0 0 74 74" fill="none" xmlns="http://www.w3.org/2000/svg">
<path d="M47.4087 18.9237V14.2074C47.4087 10.4621 45.4994 6.99421 42.2264 5.05221C39.0898 3.1102 35.1349 3.1102 31.8619 5.05221C28.7253 6.99421 26.6797 10.4621 26.6797 14.2074V18.9237C26.6797 22.2528 28.4526 25.3045 31.1801 26.9691C34.7258 29.0498 39.2262 29.0498 42.7719 26.9691C45.6358 25.3045 47.4087 22.2528 47.4087 18.9237Z" fill="#C4C4C4"/>
<path d="M52.1821 62.2028H21.9069C17.8156 62.2028 14.4062 58.7349 14.4062 54.5735C14.4062 41.8118 24.498 31.5469 37.0445 31.5469C49.5909 31.5469 59.6827 41.8118 59.6827 54.5735C59.6827 58.7349 56.4097 62.2028 52.1821 62.2028Z" fill="#C4C4C4"/>
<path d="M37.7255 49.9954L37.5892 50.1341C37.3164 50.4115 36.9073 50.4115 36.7709 50.1341L36.6345 49.9954C34.0434 47.3598 29.9522 46.9437 27.0883 49.3018C23.9517 51.9374 23.8153 56.6537 26.6792 59.5667C27.0883 59.9828 27.4974 60.399 28.0429 60.8151H46.5899C46.999 60.399 47.5445 59.9828 47.9536 59.5667C50.8175 56.6537 50.6811 51.9374 47.5445 49.3018C44.4079 46.9437 40.1803 47.4985 37.7255 49.9954Z" fill="#828282"/>
<path d="M44.2731 67.3347H29.8174C25.7261 67.3347 22.4531 64.0055 22.4531 59.8441C22.4531 55.6827 25.7261 52.3535 29.8174 52.3535H44.2731C48.3643 52.3535 51.6373 55.6827 51.6373 59.8441C51.6373 64.0055 48.3643 67.3347 44.2731 67.3347Z" fill="#828282"/>
<path d="M24.498 57.4859V49.4404L14.4062 54.5729V56.0987C14.4062 61.5086 17.952 66.3636 23.1342 67.7508L33.6351 70.2476C35.408 70.6638 37.0445 69.4153 37.0445 67.612C37.0445 66.5023 36.499 65.5313 35.5443 65.1152L25.9981 59.9827C25.1799 59.4279 24.498 58.4569 24.498 57.4859Z" fill="#C4C4C4"/>
<path d="M49.5914 57.4859V49.4404L59.6831 54.5729V56.0987C59.6831 61.5086 56.1374 66.3636 50.9552 67.7508L40.4543 70.2476C38.6814 70.6638 37.0449 69.4153 37.0449 67.612C37.0449 66.5023 37.5904 65.5313 38.545 65.1152L48.0913 59.9827C48.9095 59.4279 49.5914 58.4569 49.5914 57.4859Z" fill="#C4C4C4"/>
<path d="M38.5434 64.977L41.5437 63.3124C43.1802 62.3414 44.6803 61.2317 46.044 59.8446C48.4988 57.3477 48.3624 53.325 45.6349 51.1056C43.3165 49.0248 39.7708 49.441 37.5888 51.6604L37.4524 51.7991C37.1797 52.0766 36.9069 52.0766 36.6342 51.7991L36.4978 51.6604C34.3158 49.441 30.7701 49.0248 28.4517 51.1056C25.8606 53.325 25.7242 57.3477 28.0426 59.8446C29.4063 61.2317 30.9064 62.3414 32.5429 63.3124L35.5432 64.977C36.4978 65.3932 37.0433 66.3642 37.0433 67.4739C37.0433 66.3642 37.5888 65.3932 38.5434 64.977Z" fill="#EE0033"/>
<path d="M30.0898 32.6566C31.4536 33.6276 34.0447 34.1825 37.045 34.1825C40.0452 34.1825 42.4999 33.4889 44.0001 32.6566C41.8181 31.963 39.4997 31.5469 37.045 31.5469C34.5902 31.5469 32.2718 31.963 30.0898 32.6566Z" fill="#828282"/>
</svg>
