<svg width="74" height="74" viewBox="0 0 74 74" fill="none" xmlns="http://www.w3.org/2000/svg">
<path d="M63.9123 62.8034H63.1129L55.652 49.4152C54.9859 48.0764 52.9874 48.0764 52.188 49.4152L44.7271 62.8034H43.9277C42.8619 62.8034 42.0625 63.5337 42.0625 64.5073C42.0625 65.481 42.8619 66.2113 43.9277 66.2113H63.6458C64.7117 66.2113 65.5111 65.481 65.5111 64.5073C65.7775 63.5337 64.8449 62.8034 63.9123 62.8034Z" fill="#C4C4C4"/>
<path d="M8.88867 51.1188C21.812 62.9247 42.7292 62.9247 55.6526 51.1188C68.5759 39.3129 68.5759 20.2044 55.6526 8.39844L8.88867 51.1188Z" fill="#C4C4C4"/>
<path d="M38.0159 34.9226C50.9192 23.135 58.8486 11.2675 55.7269 8.41565C52.6051 5.56383 39.6143 12.8077 26.711 24.5952C13.8078 36.3828 5.87834 48.2503 9.00009 51.1022C12.1218 53.954 25.1127 46.7102 38.0159 34.9226Z" fill="#DCDCDC"/>
<path d="M48.724 14.7271C50.1896 16.0659 44.061 23.9771 35.0013 32.2534C25.9416 40.5297 17.2816 46.1284 15.8161 44.7896C14.3506 43.4508 20.4792 35.5396 29.5389 27.2633C38.5985 18.9869 47.2585 13.3883 48.724 14.7271Z" fill="#EE0033"/>
<path d="M21.0117 43.0855C24.6089 40.8947 29.6717 36.9999 35.0009 32.2532C40.1969 27.5065 44.4603 22.7598 46.8584 19.4736C43.2612 21.6644 38.1984 25.5592 32.8692 30.3059C27.6732 35.1743 23.4099 39.7993 21.0117 43.0855Z" fill="#92001F"/>
<path d="M32.4692 24.7075L28.872 22.6384L23.1431 19.3522C22.0772 18.7437 21.4111 17.6483 21.5443 16.5529C21.5443 15.3358 21.0114 14.1187 19.6791 13.5101C18.6132 12.9016 17.1477 12.9016 15.9486 13.5101C13.6837 14.7272 13.4172 17.4049 15.1492 18.9871C15.8154 19.5957 16.8812 19.9608 17.9471 19.9608C19.1461 19.9608 20.212 20.4476 20.8781 21.4213L24.4754 26.6549L26.7403 29.941L30.8704 35.9049C32.2027 34.8095 33.6683 33.5924 35.0006 32.2535C36.4661 30.9147 37.7984 29.6976 38.9975 28.4805L32.4692 24.7075Z" fill="#C4C4C4"/>
<path d="M19.0138 15.9444C18.7473 16.1879 18.3476 16.1879 17.9479 16.0661C17.8147 15.9444 17.6815 15.9444 17.5482 16.0661C17.1485 16.1879 16.7488 16.0661 16.4824 15.8227C16.2159 15.4576 16.3491 14.9708 16.7488 14.849C17.415 14.4839 18.2144 14.4839 18.7473 14.849C19.147 15.0925 19.2802 15.4576 19.0138 15.8227C19.0138 15.8227 19.0138 15.8227 19.0138 15.9444Z" fill="#DCDCDC"/>
</svg>
