<svg width="104" height="104" viewBox="0 0 104 104" fill="none" xmlns="http://www.w3.org/2000/svg">
<g clip-path="url(#clip0)">
<path d="M23.4167 0H80.6667C93.5833 0 104.083 10.5 104.083 23.4167V80.6667C104.083 93.5833 93.5833 104.083 80.6667 104.083H23.4167C10.5 104 0 93.5 0 80.6667V23.4167C0 10.5 10.5 0 23.4167 0Z" fill="#864FDF"/>
<path d="M102.667 51V78.6667C102.667 79.1667 102.667 79.6667 102.583 80.1667C101.833 92.3333 91.6667 102.083 79.25 102.083H41.25C51.5833 98.5833 59.75 90.4167 63.25 80.0833C63.3333 79.9167 63.3333 79.8333 63.4167 79.6667C65.75 72.5833 72.0833 67.3333 79.8333 66.1667C89.3333 64.3333 97.5 58.75 102.667 51Z" fill="white" stroke="#864FDF" stroke-width="2.6225"/>
<path d="M20.1654 24.7493L23.582 24.2493L29.9154 34.166L31.2487 23.166L34.832 22.666L32.7487 39.9993L29.6654 40.416L23.082 30.166L21.6654 41.5827L18.082 42.0827L20.1654 24.7493Z" fill="white"/>
<path d="M38.9167 22.166L51.3333 20.416L50.9167 23.8327L42.0833 24.9993L41.6667 28.5827L49.4167 27.4993L49 30.8327L41.25 31.916L40.8333 35.5827L49.75 34.3327L49.3333 37.7493L36.75 39.4993L38.9167 22.166Z" fill="white"/>
<path d="M57.7474 22.9167L52.6641 23.6667L53.0807 20.1667L66.9141 18.25L66.4974 21.75L61.4141 22.5L59.7474 36.25L56.0807 36.75L57.7474 22.9167Z" fill="white"/>
<path d="M70.9167 21.5L68 22.5833L67.5 19.5L72.5 17.3333L75 17L72.8333 34.4167L69.25 34.9167L70.9167 21.5Z" fill="white"/>
<path d="M21.4154 51.084L26.6654 50.334C27.832 50.1673 28.9154 50.1673 29.7487 50.334C30.6654 50.5007 31.4154 50.834 32.082 51.334C33.082 52.084 33.6654 53.1673 33.832 54.584C33.9987 55.584 33.9154 56.584 33.582 57.4173C33.2487 58.2507 32.832 59.084 32.1654 59.6673C31.4987 60.334 30.7487 60.834 29.7487 61.2506C28.832 61.6673 27.7487 62.0006 26.582 62.1673L23.4154 62.584L22.7487 67.834L19.082 68.334L21.4154 51.084ZM26.4987 58.9173C27.7487 58.7506 28.6654 58.334 29.332 57.7507C29.9987 57.1673 30.2487 56.334 30.1654 55.4173C30.082 54.834 29.832 54.4173 29.4154 54.084C29.1654 53.834 28.832 53.7507 28.4154 53.6673C28.082 53.584 27.582 53.584 26.9987 53.6673L24.582 54.0007L23.9154 59.2506L26.4987 58.9173Z" fill="white"/>
<path d="M37.5833 48.834L41.25 48.334L39.5833 62.1673L47.9167 61.0006L47.5 64.5007L35.5 66.1673L37.5833 48.834Z" fill="white"/>
<path d="M55.5807 63.1667C54.7474 63 54.0807 62.75 53.4974 62.3333C52.9141 61.9167 52.4141 61.4167 51.9974 60.75C51.5807 60.0833 51.3307 59.3333 51.2474 58.4167C51.1641 58 51.1641 57.5833 51.1641 57.0833C51.1641 56.5833 51.2474 56.1667 51.2474 55.6667L52.3307 46.6667L55.9974 46.1667L54.8307 55.5C54.8307 55.8333 54.7474 56.0833 54.7474 56.4167C54.7474 56.75 54.7474 57 54.8307 57.4167C54.9141 58.25 55.2474 58.8333 55.8307 59.3333C56.4141 59.8333 57.1641 59.9167 58.0807 59.75C59.1641 59.5833 59.9974 59.0833 60.6641 58.3333C61.3307 57.5 61.6641 56.4167 61.8307 55L62.9974 45.25L66.6641 44.75L65.4974 55C65.2474 57.25 64.5807 59 63.6641 60.3333C63.0807 61.0833 62.3307 61.75 61.4974 62.25C60.5807 62.75 59.5807 63.0833 58.3307 63.25C57.3307 63.3333 56.4141 63.3333 55.5807 63.1667Z" fill="white"/>
<path d="M67.6641 58.6668L70.0807 55.9168C70.8307 56.5001 71.6641 57.0001 72.4141 57.2501C73.2474 57.5001 74.0807 57.5834 75.0807 57.4168C75.8307 57.3334 76.4141 57.0834 76.8307 56.6668C77.2474 56.2501 77.4141 55.8334 77.3307 55.3334C77.3307 55.1668 77.2474 54.9168 77.0807 54.8334C76.9974 54.6668 76.8307 54.5001 76.5807 54.4168C76.3307 54.2501 75.9974 54.1668 75.6641 54.0001C75.2474 53.8334 74.7474 53.7501 74.1641 53.5834C73.5807 53.4168 73.0807 53.2501 72.4974 53.0834C71.9141 52.9168 71.4974 52.6668 71.0807 52.3334C70.6641 52.0001 70.3307 51.6668 69.9974 51.2501C69.7474 50.8334 69.4974 50.3334 69.4141 49.6668C69.3307 48.8334 69.3307 48.0001 69.6641 47.3334C69.9141 46.5834 70.3307 46.0001 70.8307 45.4168C71.3307 44.8334 71.9974 44.4168 72.7474 44.0001C73.4974 43.6668 74.3307 43.4168 75.2474 43.2501C76.6641 43.0834 77.9141 43.0834 78.9974 43.4168C80.0807 43.7501 80.9974 44.1668 81.8307 44.8334L79.6641 47.7501C78.9141 47.2501 78.2474 46.9168 77.5807 46.6668C76.9141 46.4168 76.1641 46.4168 75.4141 46.5001C74.6641 46.5834 74.0807 46.8334 73.6641 47.2501C73.3307 47.6668 73.1641 48.0834 73.1641 48.5001C73.1641 48.7501 73.2474 48.9168 73.4141 49.0834C73.4974 49.2501 73.7474 49.4168 73.9974 49.5001C74.2474 49.6668 74.5807 49.7501 74.9974 49.8334C75.4141 49.9168 75.9141 50.0834 76.4974 50.2501C77.0807 50.4168 77.6641 50.5834 78.1641 50.7501C78.6641 50.9168 79.1641 51.1668 79.5807 51.5001C79.9974 51.8334 80.3307 52.1668 80.5807 52.5834C80.8307 53.0001 80.9974 53.5001 81.0807 54.1668C81.1641 55.0001 81.1641 55.8334 80.8307 56.5834C80.4974 57.3334 80.1641 58.0001 79.6641 58.5001C79.1641 59.0834 78.4974 59.5001 77.7474 59.9168C76.9974 60.2501 76.1641 60.5001 75.2474 60.6668C72.0807 61.2501 69.4974 60.5001 67.6641 58.6668Z" fill="white"/>
</g>
<defs>
<clipPath id="clip0">
<rect width="104" height="104" fill="white"/>
</clipPath>
</defs>
</svg>
