<svg width="104" height="104" viewBox="0 0 104 104" fill="none" xmlns="http://www.w3.org/2000/svg">
<g clip-path="url(#clip0)">
<path d="M23.4167 0H80.6667C93.5833 0 104.083 10.5 104.083 23.4167V80.6667C104.083 93.5833 93.5833 104.083 80.6667 104.083H23.4167C10.5 104 0 93.5 0 80.6667V23.4167C0 10.5 10.5 0 23.4167 0Z" fill="#864FDF"/>
<path d="M102.667 51V78.6667C102.667 79.1667 102.667 79.6667 102.583 80.1667C101.833 92.3333 91.6667 102.083 79.25 102.083H41.25C51.5833 98.5833 59.75 90.4167 63.25 80.0833C63.3333 79.9167 63.3333 79.8333 63.4167 79.6667C65.75 72.5833 72.0833 67.3333 79.8333 66.1667C89.3333 64.3333 97.5 58.75 102.667 51Z" fill="white" stroke="#864FDF" stroke-width="2.6225"/>
<path d="M18.0013 25.0833L21.418 24.5833L27.7513 34.5L29.0846 23.5L32.668 23L30.5013 40.3333L27.5013 40.75L20.918 30.5L19.5013 41.8333L15.918 42.3333L18.0013 25.0833Z" fill="white"/>
<path d="M36.7526 22.5L49.1693 20.75L48.7526 24.1667L39.9193 25.4167L39.5026 28.9167L47.2526 27.8333L46.8359 31.1667L39.0859 32.25L38.6693 35.8333L47.5859 34.5833L47.1693 38L34.5859 39.75L36.7526 22.5Z" fill="white"/>
<path d="M55.6693 23.2507L50.5859 24.0007L51.0026 20.5007L64.8359 18.584L64.4193 22.084L59.3359 22.834L57.6693 36.584L54.0026 37.084L55.6693 23.2507Z" fill="white"/>
<path d="M64.5846 32.5007L72.168 25.5007C72.918 24.834 73.418 24.2507 73.7513 23.6673C74.0846 23.084 74.2513 22.584 74.168 22.084C74.0846 21.5007 73.8346 21.1673 73.418 20.9173C73.0013 20.6673 72.5013 20.584 71.8346 20.6673C71.0846 20.7507 70.418 21.084 69.918 21.5007C69.3346 22.0007 68.7513 22.584 68.168 23.2507L65.5846 21.2507C66.2513 20.2507 67.0846 19.334 68.0846 18.6673C69.0846 18.0007 70.2513 17.5007 71.5846 17.334C72.418 17.2507 73.2513 17.2507 74.0013 17.334C74.7513 17.5007 75.418 17.6673 75.918 18.0007C76.5013 18.334 76.918 18.7507 77.2513 19.2507C77.5846 19.7507 77.8346 20.334 77.918 21.0007C78.0013 21.5007 78.0013 22.0007 77.918 22.5007C77.8346 23.0007 77.668 23.5007 77.5013 23.9173C77.2513 24.4173 76.918 24.9173 76.5013 25.4173C76.0846 25.9173 75.5013 26.5007 74.8346 27.1673L70.168 31.4173L77.168 30.4173L76.668 33.834L64.168 35.584L64.5846 32.5007Z" fill="white"/>
<path d="M21.4193 51.084L26.6693 50.334C27.8359 50.1673 28.9193 50.1673 29.7526 50.334C30.6693 50.5007 31.4193 50.834 32.0859 51.334C33.0859 52.084 33.6693 53.1673 33.8359 54.584C34.0026 55.584 33.9193 56.584 33.5859 57.4173C33.2526 58.2507 32.8359 59.084 32.1693 59.6673C31.5026 60.334 30.7526 60.834 29.7526 61.2507C28.8359 61.6673 27.7526 62.0006 26.5859 62.1673L23.4193 62.584L22.7526 67.834L19.0859 68.334L21.4193 51.084ZM26.5026 58.9173C27.7526 58.7506 28.6693 58.334 29.3359 57.7507C30.0026 57.1673 30.2526 56.334 30.1693 55.4173C30.0859 54.834 29.8359 54.4173 29.4193 54.084C29.1693 53.834 28.8359 53.7507 28.4193 53.6673C28.0859 53.584 27.5859 53.584 27.0026 53.6673L24.5859 54.0007L23.9193 59.2506L26.5026 58.9173Z" fill="white"/>
<path d="M37.5872 48.834L41.2539 48.334L39.5872 62.1673L47.9206 61.0006L47.5039 64.5007L35.5039 66.1673L37.5872 48.834Z" fill="white"/>
<path d="M55.5846 63.1667C54.7513 63 54.0846 62.75 53.5013 62.3333C52.918 61.9167 52.418 61.4167 52.0013 60.75C51.5846 60.0833 51.3346 59.3333 51.2513 58.4167C51.168 58 51.168 57.5833 51.168 57.0833C51.168 56.5833 51.2513 56.1667 51.2513 55.6667L52.3346 46.6667L56.0013 46.1667L54.8346 55.5C54.8346 55.8333 54.7513 56.0833 54.7513 56.4167C54.7513 56.75 54.7513 57 54.8346 57.4167C54.918 58.25 55.2513 58.8333 55.8346 59.3333C56.418 59.8333 57.168 59.9167 58.0846 59.75C59.168 59.5833 60.0013 59.0833 60.668 58.3333C61.3346 57.5 61.668 56.4167 61.8346 55L63.0013 45.25L66.668 44.75L65.5013 55C65.2513 57.25 64.5846 59 63.668 60.3333C63.0846 61.0833 62.3346 61.75 61.5013 62.25C60.5846 62.75 59.5846 63.0833 58.3346 63.25C57.3346 63.3333 56.418 63.3333 55.5846 63.1667Z" fill="white"/>
<path d="M67.668 58.6668L70.0846 55.9168C70.8346 56.5001 71.668 57.0001 72.418 57.2501C73.2513 57.5001 74.0846 57.5834 75.0846 57.4168C75.8346 57.3334 76.418 57.0834 76.8346 56.6668C77.2513 56.2501 77.418 55.8334 77.3346 55.3334C77.3346 55.1668 77.2513 54.9168 77.0846 54.8334C77.0013 54.6668 76.8346 54.5001 76.5846 54.4168C76.3346 54.2501 76.0013 54.1668 75.668 54.0001C75.2513 53.8334 74.7513 53.7501 74.168 53.5834C73.5846 53.4168 73.0846 53.2501 72.5013 53.0834C71.918 52.9168 71.5013 52.6668 71.0846 52.3334C70.668 52.0001 70.3346 51.6668 70.0013 51.2501C69.7513 50.8334 69.5013 50.3334 69.418 49.6668C69.3346 48.8334 69.3346 48.0001 69.668 47.3334C69.918 46.5834 70.3346 46.0001 70.8346 45.4168C71.3346 44.8334 72.0013 44.4168 72.7513 44.0001C73.5013 43.6668 74.3346 43.4168 75.2513 43.2501C76.668 43.0834 77.918 43.0834 79.0013 43.4168C80.0846 43.7501 81.0013 44.1668 81.8346 44.8334L79.668 47.7501C78.918 47.2501 78.2513 46.9168 77.5846 46.6668C76.918 46.4168 76.168 46.4168 75.418 46.5001C74.668 46.5834 74.0846 46.8334 73.668 47.2501C73.3346 47.6668 73.168 48.0834 73.168 48.5001C73.168 48.7501 73.2513 48.9168 73.418 49.0834C73.5013 49.2501 73.7513 49.4168 74.0013 49.5001C74.2513 49.6668 74.5846 49.7501 75.0013 49.8334C75.418 49.9168 75.918 50.0834 76.5013 50.2501C77.0846 50.4168 77.668 50.5834 78.168 50.7501C78.668 50.9168 79.168 51.1668 79.5846 51.5001C80.0013 51.8334 80.3346 52.1668 80.5846 52.5834C80.8346 53.0001 81.0013 53.5001 81.0846 54.1668C81.168 55.0001 81.168 55.8334 80.8346 56.5834C80.5013 57.3334 80.168 58.0001 79.668 58.5001C79.168 59.0834 78.5013 59.5001 77.7513 59.9168C77.0013 60.2501 76.168 60.5001 75.2513 60.6668C72.0846 61.2501 69.5013 60.5001 67.668 58.6668Z" fill="white"/>
</g>
<defs>
<clipPath id="clip0">
<rect width="104" height="104" fill="white"/>
</clipPath>
</defs>
</svg>
