<svg width="16" height="16" viewBox="0 0 16 16" fill="none" xmlns="http://www.w3.org/2000/svg">
<path d="M14.6654 5.58301C14.9415 5.58301 15.1654 5.35915 15.1654 5.08301C15.1654 4.80686 14.9415 4.58301 14.6654 4.58301V5.58301ZM1.33203 4.58301C1.05589 4.58301 0.832033 4.80686 0.832033 5.08301C0.832033 5.35915 1.05589 5.58301 1.33203 5.58301V4.58301ZM10.9987 1.33301C10.9987 1.05687 10.7748 0.833008 10.4987 0.833008C10.2226 0.833008 9.9987 1.05687 9.9987 1.33301H10.9987ZM9.9987 2.99967C9.9987 3.27582 10.2226 3.49967 10.4987 3.49967C10.7748 3.49967 10.9987 3.27582 10.9987 2.99967H9.9987ZM5.9987 1.33301C5.9987 1.05687 5.77484 0.833008 5.4987 0.833008C5.22256 0.833008 4.9987 1.05687 4.9987 1.33301H5.9987ZM4.9987 2.99967C4.9987 3.27582 5.22256 3.49967 5.4987 3.49967C5.77484 3.49967 5.9987 3.27582 5.9987 2.99967H4.9987ZM4.66536 8.49967C4.94151 8.49967 5.16536 8.27582 5.16536 7.99967C5.16536 7.72353 4.94151 7.49967 4.66536 7.49967V8.49967ZM3.83203 7.49967C3.55589 7.49967 3.33203 7.72353 3.33203 7.99967C3.33203 8.27582 3.55589 8.49967 3.83203 8.49967V7.49967ZM8.83203 8.49967C9.10817 8.49967 9.33203 8.27582 9.33203 7.99967C9.33203 7.72353 9.10817 7.49967 8.83203 7.49967V8.49967ZM7.16536 7.49967C6.88922 7.49967 6.66536 7.72353 6.66536 7.99967C6.66536 8.27582 6.88922 8.49967 7.16536 8.49967V7.49967ZM12.1654 8.49967C12.4415 8.49967 12.6654 8.27582 12.6654 7.99967C12.6654 7.72353 12.4415 7.49967 12.1654 7.49967V8.49967ZM11.332 7.49967C11.0559 7.49967 10.832 7.72353 10.832 7.99967C10.832 8.27582 11.0559 8.49967 11.332 8.49967V7.49967ZM4.66536 11.833C4.94151 11.833 5.16536 11.6091 5.16536 11.333C5.16536 11.0569 4.94151 10.833 4.66536 10.833V11.833ZM3.83203 10.833C3.55589 10.833 3.33203 11.0569 3.33203 11.333C3.33203 11.6091 3.55589 11.833 3.83203 11.833V10.833ZM8.83203 11.833C9.10817 11.833 9.33203 11.6091 9.33203 11.333C9.33203 11.0569 9.10817 10.833 8.83203 10.833V11.833ZM7.16536 10.833C6.88922 10.833 6.66536 11.0569 6.66536 11.333C6.66536 11.6091 6.88922 11.833 7.16536 11.833V10.833ZM12.1654 11.833C12.4415 11.833 12.6654 11.6091 12.6654 11.333C12.6654 11.0569 12.4415 10.833 12.1654 10.833V11.833ZM11.332 10.833C11.0559 10.833 10.832 11.0569 10.832 11.333C10.832 11.6091 11.0559 11.833 11.332 11.833V10.833ZM14.1654 3.83301V12.9997H15.1654V3.83301H14.1654ZM12.9987 14.1663H2.9987V15.1663H12.9987V14.1663ZM1.83203 12.9997V3.83301H0.832031V12.9997H1.83203ZM12.9987 1.66634H2.9987V2.66634H12.9987V1.66634ZM2.9987 14.1663C2.35437 14.1663 1.83203 13.644 1.83203 12.9997H0.832031C0.832031 14.1963 1.80208 15.1663 2.9987 15.1663V14.1663ZM14.1654 12.9997C14.1654 13.644 13.643 14.1663 12.9987 14.1663V15.1663C14.1953 15.1663 15.1654 14.1963 15.1654 12.9997H14.1654ZM15.1654 3.83301C15.1654 2.63639 14.1953 1.66634 12.9987 1.66634V2.66634C13.643 2.66634 14.1654 3.18868 14.1654 3.83301H15.1654ZM1.83203 3.83301C1.83203 3.18868 2.35437 2.66634 2.9987 2.66634V1.66634C1.80208 1.66634 0.832031 2.63639 0.832031 3.83301H1.83203ZM14.6654 4.58301H1.33203V5.58301H14.6654V4.58301ZM9.9987 1.33301V2.99967H10.9987V1.33301H9.9987ZM4.9987 1.33301V2.99967H5.9987V1.33301H4.9987ZM4.66536 7.49967H3.83203V8.49967H4.66536V7.49967ZM8.83203 7.49967H7.16536V8.49967H8.83203V7.49967ZM12.1654 7.49967H11.332V8.49967H12.1654V7.49967ZM4.66536 10.833H3.83203V11.833H4.66536V10.833ZM8.83203 10.833H7.16536V11.833H8.83203V10.833ZM12.1654 10.833H11.332V11.833H12.1654V10.833Z" fill="#D1D1D1"/>
</svg>
