<svg width="200" height="225" fill="none" xmlns="http://www.w3.org/2000/svg"><path d="M24.406 72.86a8 8 0 017.746-6h135.749a8.001 8.001 0 017.735 5.956l18.67 70.688h-50.633a15.997 15.997 0 00-9.927 3.452l-29.525 23.357a8 8 0 01-10.02-.075L65.84 147.105a16.001 16.001 0 00-10.113-3.601H6.164l18.242-70.645z" fill="#fff" stroke="#E7E7E7" stroke-width="8"/><mask id="a" fill="#fff"><path fill-rule="evenodd" clip-rule="evenodd" d="M99.429 159.43c12.939 0 23.428-10.49 23.428-23.429 0-.313.251-.571.565-.571H188c6.627 0 12 5.372 12 12v64.571c0 6.628-5.373 12-12 12H12c-6.627 0-12-5.372-12-12V147.43c0-6.628 5.373-12 12-12h63.435c.314 0 .565.258.565.571 0 12.939 10.49 23.429 23.429 23.429z"/></mask><path fill-rule="evenodd" clip-rule="evenodd" d="M99.429 159.43c12.939 0 23.428-10.49 23.428-23.429 0-.313.251-.571.565-.571H188c6.627 0 12 5.372 12 12v64.571c0 6.628-5.373 12-12 12H12c-6.627 0-12-5.372-12-12V147.43c0-6.628 5.373-12 12-12h63.435c.314 0 .565.258.565.571 0 12.939 10.49 23.429 23.429 23.429z" fill="#fff"/><path d="M114.857 136.001c0 8.521-6.907 15.429-15.428 15.429v16c17.357 0 31.428-14.071 31.428-31.429h-16zm8.565 7.429H188v-16h-64.578v16zm64.578 0a4 4 0 014 4h16c0-11.046-8.954-20-20-20v16zm4 4v64.571h16V147.43h-16zm0 64.571a4 4 0 01-4 4v16c11.046 0 20-8.954 20-20h-16zm-4 4H12v16h176v-16zm-176 0a4 4 0 01-4-4H-8c0 11.046 8.954 20 20 20v-16zm-4-4V147.43H-8v64.571H8zm0-64.571a4 4 0 014-4v-16c-11.046 0-20 8.954-20 20H8zm4-4h63.435v-16H12v16zm87.429 8c-8.521 0-15.429-6.908-15.429-15.429H68c0 17.358 14.071 31.429 31.429 31.429v-16zm-23.994-8c-4.228 0-7.435-3.449-7.435-7.429h16c0-4.607-3.71-8.571-8.565-8.571v16zm55.422-7.429c0 3.98-3.206 7.429-7.435 7.429v-16c-4.856 0-8.565 3.964-8.565 8.571h16z" fill="#E7E7E7" mask="url(#a)"/><path stroke="#E7E7E7" stroke-width="8" stroke-linecap="round" d="M100.429 32.57V3.999M67.273 33.289L47.07 13.086M134.928 35.203l20.203-20.204"/></svg>