<svg width="264" height="96" viewBox="0 0 264 96" fill="none" xmlns="http://www.w3.org/2000/svg">
<g clip-path="url(#clip0)">
<rect width="264" height="95.7884" fill="#BE0129"/>
<path d="M154.557 5.03449C159.292 5.03449 163.846 6.47614 167.751 9.19251C171.747 11.9696 174.732 15.8696 176.376 20.4829L182.166 36.6749C184.262 42.5477 183.96 48.8758 181.321 54.521C178.683 60.1662 174.023 64.4304 168.188 66.5398L132.588 79.4236C126.708 81.5481 121.445 84.6742 116.967 88.7108C113.379 91.928 110.287 95.737 107.754 100.032C104.482 105.601 103.02 110.548 102.507 112.627L87.6097 70.8799L83.991 60.758L81.8197 54.6879C79.7238 48.8151 80.0254 42.487 82.6641 36.8418C85.3028 31.1966 89.962 26.9324 95.7972 24.823L146.702 6.40027C149.25 5.50493 151.888 5.03449 154.557 5.03449ZM154.557 4.73099C151.919 4.73099 149.235 5.18624 146.611 6.12711L95.7068 24.5499C83.4934 28.9659 77.1605 42.5022 81.5483 54.7941L83.7195 60.8642L87.3383 70.9861L102.582 113.674C102.582 113.674 107.061 88.9536 132.694 79.6816L168.294 66.7978C180.507 62.3818 186.84 48.8454 182.452 36.5535L176.662 20.3615C173.209 10.7404 164.177 4.73099 154.557 4.73099Z" fill="white"/>
<path d="M163.047 -9.65849C169.458 -9.65849 175.625 -7.70622 180.913 -4.02775C186.324 -0.267072 190.367 5.01431 192.593 11.2616L200.434 33.1886C203.272 41.1415 202.863 49.7109 199.29 57.3555C195.717 65.0002 189.407 70.7748 181.505 73.6312L133.297 91.0783C125.333 93.9553 118.207 98.1887 112.143 103.655C107.283 108.012 103.097 113.17 99.6667 118.985C95.2359 126.527 93.2552 133.227 92.561 136.042L72.3872 79.5086L67.4867 65.8016L64.5464 57.5816C61.7082 49.6287 62.1165 41.0593 65.6898 33.4146C69.2631 25.77 75.5725 19.9954 83.4746 17.1389L152.409 -7.80897C155.859 -9.02143 159.433 -9.65849 163.047 -9.65849ZM163.047 -10.0695C159.473 -10.0695 155.839 -9.45298 152.286 -8.17888L83.3521 16.769C66.8129 22.7491 58.237 41.0798 64.1788 57.7254L67.1191 65.9455L72.0197 79.6524L92.6631 137.46C92.6631 137.46 98.7275 103.984 133.439 91.4277L181.648 73.9806C198.188 68.0005 206.763 49.6698 200.822 33.0242L192.981 11.0972C188.305 -1.93163 176.074 -10.0695 163.047 -10.0695Z" fill="white"/>
<path d="M170.41 -24.3341C178.367 -24.3341 186.02 -21.9112 192.584 -17.346C199.299 -12.6787 204.316 -6.1242 207.079 1.62903L216.81 28.8418C220.332 38.7119 219.825 49.3471 215.39 58.8346C210.956 68.3221 203.125 75.4887 193.318 79.0338L133.488 100.687C123.605 104.257 114.761 109.511 107.235 116.295C101.204 121.702 96.0088 128.104 91.7515 135.321C86.2525 144.681 83.7944 152.995 82.9328 156.489L57.8959 86.3279L51.814 69.3167L48.1649 59.1151C44.6425 49.245 45.1493 38.6099 49.584 29.1224C54.0187 19.6349 61.8491 12.4682 71.6561 8.92318L157.207 -22.0387C161.49 -23.5434 165.925 -24.3341 170.41 -24.3341ZM170.41 -24.8441C165.975 -24.8441 161.465 -24.079 157.055 -22.4978L71.504 8.46411C50.9778 15.8858 40.3345 38.6354 47.7088 59.2936L51.3579 69.4952L57.4397 86.5064L83.0595 158.249C83.0595 158.249 90.5858 116.703 133.666 101.12L193.496 79.4673C214.022 72.0456 224.665 49.2961 217.291 28.6378L207.56 1.425C201.757 -14.7446 186.578 -24.8441 170.41 -24.8441Z" fill="white"/>
<path d="M76 36.8942C76 31.3713 80.4772 26.8942 86 26.8942H178C183.523 26.8942 188 31.3713 188 36.8942V58.8942C188 64.417 183.523 68.8942 178 68.8942H76V36.8942Z" fill="#BE0129"/>
<path d="M93.8483 55.8802H94.1423L96.1163 48.5302L100.61 34.0822C100.694 33.8022 100.82 33.6342 100.988 33.5782C101.184 33.4942 101.436 33.4522 101.744 33.4522H106.868C107.148 33.4522 107.302 33.5362 107.33 33.7042C107.386 33.8722 107.386 34.0262 107.33 34.1662L98.3003 60.6682C98.1323 61.1722 97.9503 61.5642 97.7543 61.8442C97.5863 62.1242 97.3763 62.3482 97.1243 62.5162C96.9003 62.6562 96.6343 62.7542 96.3263 62.8102C96.0183 62.8662 95.6683 62.8942 95.2763 62.8942H92.6723C92.2523 62.8942 91.8883 62.8662 91.5803 62.8102C91.2723 62.7542 90.9923 62.6422 90.7403 62.4742C90.5163 62.3062 90.3063 62.0822 90.1103 61.8022C89.9143 61.4942 89.7323 61.1022 89.5643 60.6262L80.6183 34.1662C80.5623 33.9702 80.5623 33.8022 80.6183 33.6622C80.7023 33.5222 80.8703 33.4522 81.1223 33.4522H86.1623C86.5543 33.4522 86.8203 33.5222 86.9603 33.6622C87.1003 33.7742 87.2123 33.9562 87.2963 34.2082L91.7063 48.4462L93.8483 55.8802ZM130.243 53.3182C130.243 54.9702 129.935 56.4262 129.319 57.6862C128.731 58.9462 127.905 59.9962 126.841 60.8362C125.805 61.6762 124.573 62.3202 123.145 62.7682C121.717 63.1882 120.191 63.3982 118.567 63.3982C116.747 63.3982 114.927 63.2162 113.107 62.8522C111.315 62.4602 109.621 61.6202 108.025 60.3322C107.633 60.0242 107.549 59.6882 107.773 59.3242C107.885 59.1562 108.039 58.9182 108.235 58.6102C108.431 58.3022 108.627 57.9802 108.823 57.6442C109.047 57.3082 109.257 57.0002 109.453 56.7202C109.649 56.4122 109.803 56.1742 109.915 56.0062C110.111 55.7262 110.307 55.6002 110.503 55.6282C110.727 55.6282 111.007 55.7402 111.343 55.9642C112.379 56.6922 113.485 57.2102 114.661 57.5182C115.865 57.8262 116.999 57.9802 118.063 57.9802C119.967 57.9802 121.423 57.5882 122.431 56.8042C123.467 55.9922 123.985 54.8862 123.985 53.4862C123.985 52.1702 123.551 51.1762 122.683 50.5042C121.815 49.8322 120.751 49.4962 119.491 49.4962C118.875 49.4962 118.329 49.5382 117.853 49.6222C117.377 49.7062 116.915 49.8182 116.467 49.9582C116.047 50.0702 115.627 50.2242 115.207 50.4202C114.787 50.5882 114.353 50.7702 113.905 50.9662C113.569 51.1062 113.177 51.2042 112.729 51.2602C112.281 51.2882 111.861 51.2322 111.469 51.0922L109.999 50.6722C109.355 50.4482 108.921 50.1542 108.697 49.7902C108.501 49.3982 108.431 48.8802 108.487 48.2362L109.579 37.7362C109.691 36.6442 110.013 35.8602 110.545 35.3842C111.077 34.8802 111.791 34.6282 112.687 34.6282H127.345C127.709 34.6282 127.947 34.6702 128.059 34.7542C128.199 34.8382 128.269 35.1042 128.269 35.5522V38.8702C128.269 39.2342 128.199 39.4862 128.059 39.6262C127.919 39.7382 127.681 39.7942 127.345 39.7942H115.081L114.451 45.2542C115.375 44.9462 116.313 44.7502 117.265 44.6662C118.217 44.5542 119.113 44.4982 119.953 44.4982C121.437 44.4982 122.809 44.7082 124.069 45.1282C125.329 45.5202 126.407 46.0942 127.303 46.8502C128.227 47.6062 128.941 48.5302 129.445 49.6222C129.977 50.7142 130.243 51.9462 130.243 53.3182ZM156.064 48.7402C156.064 50.9242 155.812 52.9122 155.308 54.7042C154.832 56.4962 154.09 58.0362 153.082 59.3242C152.074 60.6122 150.814 61.6062 149.302 62.3062C147.79 63.0062 146.026 63.3562 144.01 63.3562C141.994 63.3562 140.23 63.0202 138.718 62.3482C137.234 61.6482 135.988 60.6682 134.98 59.4082C134 58.1202 133.258 56.5802 132.754 54.7882C132.278 52.9962 132.04 51.0082 132.04 48.8242C132.04 46.6122 132.292 44.6102 132.796 42.8182C133.3 41.0262 134.056 39.4862 135.064 38.1982C136.072 36.9102 137.318 35.9162 138.802 35.2162C140.314 34.5162 142.078 34.1662 144.094 34.1662C146.138 34.1662 147.902 34.5162 149.386 35.2162C150.898 35.8882 152.144 36.8682 153.124 38.1562C154.132 39.4162 154.874 40.9422 155.35 42.7342C155.826 44.5262 156.064 46.5282 156.064 48.7402ZM149.806 48.8242C149.806 47.4522 149.694 46.1922 149.47 45.0442C149.274 43.8682 148.938 42.8602 148.462 42.0202C148.014 41.1802 147.426 40.5222 146.698 40.0462C145.97 39.5702 145.074 39.3322 144.01 39.3322C142.946 39.3322 142.05 39.5702 141.322 40.0462C140.622 40.4942 140.048 41.1382 139.6 41.9782C139.152 42.8182 138.83 43.8122 138.634 44.9602C138.438 46.1082 138.34 47.3682 138.34 48.7402C138.34 50.0842 138.438 51.3302 138.634 52.4782C138.83 53.6262 139.152 54.6342 139.6 55.5022C140.048 56.3422 140.636 57.0002 141.364 57.4762C142.12 57.9522 143.03 58.1902 144.094 58.1902C145.158 58.1902 146.054 57.9522 146.782 57.4762C147.51 57.0002 148.098 56.3422 148.546 55.5022C148.994 54.6622 149.316 53.6822 149.512 52.5622C149.708 51.4142 149.806 50.1682 149.806 48.8242ZM173.612 44.1622L183.398 61.8442C183.594 62.1522 183.65 62.4042 183.566 62.6002C183.482 62.7962 183.286 62.8942 182.978 62.8942H178.106C177.518 62.8942 177.084 62.8662 176.804 62.8102C176.552 62.7262 176.286 62.4322 176.006 61.9282L169.244 49.3702L164.792 54.7042V62.0122C164.792 62.4042 164.736 62.6562 164.624 62.7682C164.512 62.8522 164.246 62.8942 163.826 62.8942H159.416C159.08 62.8942 158.828 62.8382 158.66 62.7262C158.52 62.5862 158.45 62.3482 158.45 62.0122V34.3762C158.45 34.0402 158.52 33.8162 158.66 33.7042C158.828 33.5642 159.08 33.4942 159.416 33.4942H163.826C164.246 33.4942 164.512 33.5502 164.624 33.6622C164.736 33.7462 164.792 33.9842 164.792 34.3762V45.6322L164.96 45.7162L168.908 40.7182L174.158 34.1662C174.41 33.8862 174.662 33.7042 174.914 33.6202C175.166 33.5362 175.572 33.4942 176.132 33.4942H181.55C181.802 33.4942 181.97 33.5782 182.054 33.7462C182.166 33.8862 182.124 34.0682 181.928 34.2922L173.612 44.1622Z" fill="white"/>
</g>
<defs>
<clipPath id="clip0">
<rect width="264" height="95.7884" fill="white"/>
</clipPath>
</defs>
</svg>
