<svg width="56" height="57" viewBox="0 0 56 57" fill="none" xmlns="http://www.w3.org/2000/svg">
<path fill-rule="evenodd" clip-rule="evenodd" d="M26.9789 8.62064C28.3847 8.62064 29.5243 7.4848 29.5243 6.08367C29.5243 6.06141 29.524 6.03922 29.5235 6.01709H31.8003C33.1405 6.01709 34.1936 7.06664 34.1936 8.40243V43.0376C34.1936 47.9037 38.1186 51.8156 43.001 51.8156H13.8982C9.01586 51.8156 5.09082 47.9037 5.09082 43.133V8.40243C5.09082 7.06664 6.14388 6.01709 7.48414 6.01709H9.16155C9.16098 6.03922 9.16069 6.06141 9.16069 6.08367C9.16069 7.4848 10.3003 8.62064 11.7061 8.62064C13.112 8.62064 14.2516 7.4848 14.2516 6.08367C14.2516 6.06141 14.2513 6.03922 14.2507 6.01709H16.7979C16.7973 6.03922 16.7971 6.06141 16.7971 6.08367C16.7971 7.4848 17.9367 8.62064 19.3425 8.62064C20.7483 8.62064 21.888 7.4848 21.888 6.08367C21.888 6.06141 21.8877 6.03922 21.8871 6.01709H24.4343C24.4337 6.03922 24.4334 6.06141 24.4334 6.08367C24.4334 7.4848 25.5731 8.62064 26.9789 8.62064Z" fill="#C4C4C4"/>
<path d="M23.8608 45.8999C23.2864 45.8999 22.712 46.2816 22.5205 46.7586C21.0845 49.8119 18.1168 51.8155 14.5747 51.8155H43.6775C46.4537 51.8155 49.0385 50.4798 50.5702 48.4761C51.3361 47.4265 50.666 45.9953 49.3257 45.9953H23.8608V45.8999Z" fill="#EE0033"/>
<path d="M28.5453 21.5693H11.4092V23.3822H28.5453V21.5693Z" fill="#828282"/>
<path d="M28.5453 26.8169H11.4092V28.6298H28.5453V26.8169Z" fill="#828282"/>
<path d="M28.5453 32.0649H11.4092V33.8778H28.5453V32.0649Z" fill="#828282"/>
<path d="M22.1312 37.2173H11.4092V39.0301H22.1312V37.2173Z" fill="#828282"/>
<g clip-path="url(#clip0)">
<path d="M27.3184 42.6713C27.3184 48.6239 22.4579 53.4554 16.4546 53.4554C10.4514 53.4554 5.59082 48.6239 5.59082 42.6713C5.59082 36.7187 10.4514 31.8872 16.4546 31.8872C22.4579 31.8872 27.3184 36.7187 27.3184 42.6713Z" fill="#92001F" stroke="#92001F"/>
<path d="M15.4598 45.1655C14.9837 45.1655 14.5605 44.7453 14.5605 44.2726V38.8626C14.5605 38.3899 14.9837 37.9697 15.4598 37.9697C15.9358 37.9697 16.359 38.3899 16.359 38.8626V44.2726C16.359 44.7453 15.9358 45.1655 15.4598 45.1655Z" fill="#C4C4C4"/>
<path d="M14.5605 44.2723C14.5605 43.7996 14.9837 43.3794 15.4598 43.3794H19.1624C19.6384 43.3794 20.0616 43.7996 20.0616 44.2723C20.0616 44.745 19.6384 45.1652 19.1624 45.1652H15.4598C14.9837 45.1652 14.5605 44.745 14.5605 44.2723Z" fill="#DCDCDC"/>
<path d="M16.359 44.2723V43.3794H15.4598C14.9837 43.3794 14.5605 43.7996 14.5605 44.2723C14.5605 44.745 14.9837 45.1652 15.4598 45.1652C15.9358 45.1652 16.359 44.745 16.359 44.2723Z" fill="#DCDCDC"/>
<path d="M19.7972 44.9025L20.4319 44.2722L19.7972 43.642C19.4269 43.2743 18.898 43.2743 18.5277 43.642C18.1574 44.0096 18.1574 44.5349 18.5277 44.9025C18.898 45.2702 19.4269 45.2702 19.7972 44.9025Z" fill="#DCDCDC"/>
</g>
<defs>
<clipPath id="clip0">
<rect width="22.7276" height="22.5682" fill="white" transform="translate(5.09082 31.3872)"/>
</clipPath>
</defs>
</svg>
