<svg width="56" height="57" viewBox="0 0 56 57" fill="none" xmlns="http://www.w3.org/2000/svg">
<path d="M49.3233 44.9473L41.8402 37.4892C40.9164 36.5685 40.824 35.1873 41.3783 34.0824C45.166 26.9927 44.1498 18.0614 38.3297 11.9844C31.3086 4.80255 19.4835 4.34217 11.9081 11.0637C3.77841 18.3376 3.50126 30.9519 11.1691 38.502C17.2663 44.579 26.4123 45.5918 33.6181 41.8168C34.7267 41.2643 36.1125 41.3564 37.0363 42.2771L44.6117 49.8273C46.0899 51.3005 48.6766 51.1163 49.8776 49.2748C50.709 47.8937 50.4319 46.1443 49.3233 44.9473ZM16.6197 35.5556C9.78331 30.3074 9.78331 19.9949 16.6197 14.7467C21.3312 11.1557 27.9828 11.1557 32.6943 14.7467C39.5307 19.9949 39.5307 30.3074 32.6943 35.5556C27.9828 39.1466 21.2388 39.1466 16.6197 35.5556Z" fill="#EE0033"/>
<path d="M46.1877 41.8092L41.3838 46.5971L44.6172 49.8197C45.9106 51.1088 48.1278 51.1088 49.4211 49.8197C50.7145 48.5307 50.7145 46.3209 49.4211 45.0318L46.1877 41.8092Z" fill="#92001F"/>
<path d="M31.1411 24.0917C31.1411 26.1394 30.3101 26.7606 28.9077 26.7606H21.2898C21.3763 29.28 22.8653 30.022 24.8621 30.022C26.0221 30.022 27.2398 29.7229 28.2844 29.28C28.7577 29.1304 28.8788 29.1592 29.0289 29.487L29.9811 31.621C30.1312 31.9776 30.0389 32.1272 29.7157 32.3343C28.2556 33.2833 26.1145 33.6687 24.4466 33.6687C19.241 33.6687 16.7998 31.2069 16.7998 25.6333C16.7998 20.4163 19.6854 17.3907 24.1811 17.3907C28.8211 17.3907 31.1411 19.7893 31.1411 24.0917ZM21.3821 24.0055H26.9455C26.9455 22.2569 26.3511 20.9512 24.2677 20.9512C22.6287 20.9454 21.5322 22.2224 21.3821 24.0055Z" fill="#C4C4C4"/>
<path fill-rule="evenodd" clip-rule="evenodd" d="M17.673 27.199C18.4484 27.199 19.077 26.5724 19.077 25.7996C19.077 25.7873 19.0769 25.775 19.0765 25.7628H20.3325C21.0718 25.7628 21.6526 26.3417 21.6526 27.0785V46.1832C21.6526 48.8673 23.8177 51.0252 26.5108 51.0252H10.4578C7.76466 51.0252 5.59961 48.8673 5.59961 46.2358V27.0785C5.59961 26.3417 6.18048 25.7628 6.91976 25.7628H7.84483C7.84452 25.775 7.84436 25.7873 7.84436 25.7996C7.84436 26.5724 8.47298 27.199 9.24843 27.199C10.0239 27.199 10.6525 26.5724 10.6525 25.7996C10.6525 25.7873 10.6523 25.775 10.652 25.7628H12.0573C12.057 25.775 12.0568 25.7873 12.0568 25.7996C12.0568 26.5724 12.6854 27.199 13.4609 27.199C14.2363 27.199 14.865 26.5724 14.865 25.7996C14.865 25.7873 14.8648 25.775 14.8645 25.7628H16.2694C16.269 25.775 16.2689 25.7873 16.2689 25.7996C16.2689 26.5724 16.8975 27.199 17.673 27.199Z" fill="#DCDCDC"/>
<path d="M15.9532 47.7622C15.6364 47.7622 15.3196 47.9727 15.214 48.2359C14.4219 49.92 12.7849 51.0253 10.8311 51.0253H26.8841C28.4155 51.0253 29.8412 50.2884 30.6861 49.1832C31.1086 48.6043 30.7389 47.8148 29.9996 47.8148H15.9532V47.7622Z" fill="#EE0033"/>
<path d="M18.5372 34.3415H9.08496V35.3415H18.5372V34.3415Z" fill="#828282"/>
<path d="M18.5372 37.2361H9.08496V38.2361H18.5372V37.2361Z" fill="#828282"/>
<path d="M18.5372 40.1307H9.08496V41.1306H18.5372V40.1307Z" fill="#828282"/>
<path d="M14.9992 42.9727H9.08496V43.9726H14.9992V42.9727Z" fill="#828282"/>
</svg>
