<svg width="56" height="57" viewBox="0 0 56 57" fill="none" xmlns="http://www.w3.org/2000/svg">
<path d="M51.9412 45.8815L43.541 37.7036C42.5039 36.694 42.4002 35.1796 43.0225 33.9681C47.2744 26.1941 46.1337 16.4008 39.6002 9.73741C31.7185 1.86245 18.444 1.35764 9.94006 8.7278C0.813874 16.7037 0.502754 30.5354 9.1104 38.8142C15.955 45.4776 26.222 46.5882 34.3111 42.4488C35.5556 41.843 37.1112 41.944 38.1483 42.9536L46.6522 51.2324C48.3115 52.8478 51.2153 52.6459 52.5635 50.6266C53.4968 49.1122 53.1857 47.194 51.9412 45.8815ZM15.2291 35.5834C7.5548 29.8287 7.5548 18.521 15.2291 12.7662C20.5181 8.82876 27.985 8.82876 33.274 12.7662C40.9483 18.521 40.9483 29.8287 33.274 35.5834C27.985 39.5209 20.4144 39.5209 15.2291 35.5834Z" fill="#EE0033"/>
<path d="M48.3943 42.421L43.0088 47.6639L46.6336 51.1927C48.0836 52.6043 50.5692 52.6043 52.0191 51.1927C53.4691 49.7812 53.4691 47.3614 52.0191 45.9498L48.3943 42.421Z" fill="#92001F"/>
<rect x="19.3748" y="22.9914" width="9.8" height="9.8" rx="2.1" fill="#828282" stroke="#828282" stroke-width="1.4"/>
<path d="M21.8906 26.4518V20.4944C21.8906 18.9053 23.1789 17.617 24.768 17.617V17.617C26.3572 17.617 27.6454 18.9053 27.6454 20.4944V20.9921" stroke="#828282" stroke-width="2.8"/>
</svg>
