<svg width="56" height="57" viewBox="0 0 56 57" fill="none" xmlns="http://www.w3.org/2000/svg">
<path d="M49.3233 44.9473L41.8402 37.4892C40.9164 36.5685 40.824 35.1873 41.3783 34.0824C45.166 26.9927 44.1498 18.0614 38.3297 11.9844C31.3086 4.80255 19.4835 4.34217 11.9081 11.0637C3.77841 18.3376 3.50126 30.9519 11.1691 38.502C17.2663 44.579 26.4123 45.5918 33.6181 41.8168C34.7267 41.2643 36.1125 41.3564 37.0363 42.2771L44.6117 49.8273C46.0899 51.3005 48.6766 51.1163 49.8776 49.2748C50.709 47.8937 50.4319 46.1443 49.3233 44.9473ZM16.6197 35.5556C9.78331 30.3074 9.78331 19.9949 16.6197 14.7467C21.3312 11.1557 27.9828 11.1557 32.6943 14.7467C39.5307 19.9949 39.5307 30.3074 32.6943 35.5556C27.9828 39.1466 21.2388 39.1466 16.6197 35.5556Z" fill="#EE0033"/>
<path d="M46.1877 41.8092L41.3838 46.5971L44.6172 49.8197C45.9106 51.1088 48.1278 51.1088 49.4211 49.8197C50.7145 48.5307 50.7145 46.3209 49.4211 45.0318L46.1877 41.8092Z" fill="#92001F"/>
<path d="M25.3154 16.1066L18.3564 18.2845C18.0211 18.4033 17.7695 18.7201 17.7695 19.0368V28.9362C17.7695 29.0946 17.8115 29.2134 17.8953 29.3718C20.201 32.8168 25.3154 35.1135 25.3154 35.1135V16.1066Z" fill="#828282"/>
<path d="M25.3153 33.1334C23.7642 32.2622 20.7878 30.6783 19.5301 28.9756C19.4882 28.936 19.4463 28.8568 19.4463 28.7777C19.4463 27.8669 19.4463 22.1253 19.4463 20.2642C19.4463 19.9078 19.6978 19.591 20.0751 19.5118L25.3153 18.0863V33.1334Z" fill="#828282"/>
<path d="M25.2696 16.1066L32.2285 18.2845C32.5639 18.4033 32.8154 18.7201 32.8154 19.0368V28.9362C32.8154 29.0946 32.7735 29.2134 32.6897 29.3718C30.384 32.8168 25.2696 35.1135 25.2696 35.1135V16.1066Z" fill="#828282"/>
<path d="M25.2697 33.1334C26.8208 32.2622 29.7972 30.6783 31.0548 28.9756C31.0968 28.936 31.1387 28.8568 31.1387 28.7777C31.1387 27.8669 31.1387 22.1253 31.1387 20.2642C31.1387 19.9078 30.8871 19.591 30.5099 19.5118L25.2697 18.0863V33.1334Z" fill="#828282"/>
<path d="M21.061 26.136C21.8899 27.0475 22.7195 27.9598 23.5484 28.8713C23.9668 29.3314 24.6781 29.3322 25.0973 28.8713C26.5579 27.2651 28.0184 25.6589 29.479 24.0528C29.8974 23.5926 29.8974 22.8096 29.479 22.3494C29.0591 21.8877 28.3492 21.8877 27.9301 22.3494C26.4695 23.9556 25.0089 25.5618 23.5484 27.1679C24.0647 27.1679 24.581 27.1679 25.0973 27.1679C24.2684 26.2564 23.4396 25.3441 22.61 24.4326C22.1915 23.9725 21.4795 23.9725 21.061 24.4326C20.6411 24.8936 20.6411 25.6742 21.061 26.136Z" fill="white"/>
</svg>
