<svg width="56" height="57" viewBox="0 0 56 57" fill="none" xmlns="http://www.w3.org/2000/svg">
<path d="M49.3233 44.9473L41.8402 37.4892C40.9164 36.5685 40.824 35.1873 41.3783 34.0824C45.166 26.9927 44.1498 18.0614 38.3297 11.9844C31.3086 4.80255 19.4835 4.34217 11.9081 11.0637C3.77841 18.3376 3.50126 30.9519 11.1691 38.502C17.2663 44.579 26.4123 45.5918 33.6181 41.8168C34.7267 41.2643 36.1125 41.3564 37.0363 42.2771L44.6117 49.8273C46.0899 51.3005 48.6766 51.1163 49.8776 49.2748C50.709 47.8937 50.4319 46.1443 49.3233 44.9473ZM16.6197 35.5556C9.78331 30.3074 9.78331 19.9949 16.6197 14.7467C21.3312 11.1557 27.9828 11.1557 32.6943 14.7467C39.5307 19.9949 39.5307 30.3074 32.6943 35.5556C27.9828 39.1466 21.2388 39.1466 16.6197 35.5556Z" fill="#EE0033"/>
<path d="M46.1877 41.8092L41.3838 46.5971L44.6172 49.8197C45.9106 51.1088 48.1278 51.1088 49.4211 49.8197C50.7145 48.5307 50.7145 46.3209 49.4211 45.0318L46.1877 41.8092Z" fill="#92001F"/>
<path d="M23.2613 28.5534L17.703 32.7285C17.3556 32.9895 16.7998 32.7807 16.7998 32.4676V28.5534H23.2613Z" fill="#828282"/>
<path d="M17.9524 30.2707H29.4203C31.956 30.2707 34.0306 28.0522 34.0306 25.3406V18.6233C34.0306 17.9454 33.5119 17.3907 32.878 17.3907H17.9524C17.3185 17.3907 16.7998 17.9454 16.7998 18.6233V29.0998C16.7998 29.7161 17.3185 30.2707 17.9524 30.2707Z" fill="#C4C4C4"/>
<path d="M30.6049 20.7583H20.0303V21.6567H30.6049V20.7583Z" fill="white"/>
<path d="M30.6049 22.9296H20.0303V23.8281H30.6049V22.9296Z" fill="white"/>
<path d="M26.0986 25.1008H20.0303V25.9993H26.0986V25.1008Z" fill="white"/>
</svg>
