<svg width="56" height="57" viewBox="0 0 56 57" fill="none" xmlns="http://www.w3.org/2000/svg">
<path d="M49.3233 45.0508L41.8402 37.5927C40.9164 36.6719 40.824 35.2908 41.3783 34.1859C45.166 27.0961 44.1498 18.1648 38.3297 12.0879C31.3086 4.906 19.4835 4.44563 11.9081 11.1671C3.77841 18.441 3.50126 31.0553 11.1691 38.6055C17.2663 44.6825 26.4123 45.6953 33.6181 41.9202C34.7267 41.3678 36.1125 41.4598 37.0363 42.3806L44.6117 49.9307C46.0899 51.4039 48.6766 51.2198 49.8776 49.3783C50.709 47.9972 50.4319 46.2477 49.3233 45.0508ZM16.6197 35.6591C9.78331 30.4108 9.78331 20.0984 16.6197 14.8501C21.3312 11.2592 27.9828 11.2592 32.6943 14.8501C39.5307 20.0984 39.5307 30.4108 32.6943 35.6591C27.9828 39.25 21.2388 39.25 16.6197 35.6591Z" fill="#EE0033"/>
<path d="M46.1877 41.9126L41.3838 46.7005L44.6172 49.9231C45.9106 51.2122 48.1278 51.2122 49.4211 49.9231C50.7145 48.6341 50.7145 46.4243 49.4211 45.1352L46.1877 41.9126Z" fill="#92001F"/>
<path d="M14.7671 20.7749C14.7671 20.2226 15.2148 19.7749 15.7671 19.7749H33.3363C33.8885 19.7749 34.3363 20.2226 34.3363 20.7749V30.9773C34.3363 31.2534 34.1124 31.4773 33.8363 31.4773H15.2671C14.9909 31.4773 14.7671 31.2534 14.7671 30.9773V20.7749Z" fill="#DCDCDC"/>
<path d="M14.7671 20.2749C14.7671 19.9988 14.9909 19.7749 15.2671 19.7749H33.8363C34.1124 19.7749 34.3363 19.9988 34.3363 20.2749V23.0256H14.7671V20.2749Z" fill="#828282"/>
<path d="M14.7671 27.5767H34.3363V29.202H14.7671V27.5767Z" fill="#828282"/>
<g clip-path="url(#clip0)">
<path d="M30.1005 38.2787C30.1005 44.8545 24.7311 50.1912 18.1003 50.1912C11.4694 50.1912 6.1001 44.8545 6.1001 38.2787C6.1001 31.7029 11.4694 26.3662 18.1003 26.3662C24.7311 26.3662 30.1005 31.7029 30.1005 38.2787Z" fill="#92001F" stroke="#92001F"/>
<path d="M17.0062 41.0222C16.4826 41.0222 16.0171 40.56 16.0171 40.0401V34.0891C16.0171 33.5691 16.4826 33.1069 17.0062 33.1069C17.5299 33.1069 17.9953 33.5691 17.9953 34.0891V40.0401C17.9953 40.56 17.5299 41.0222 17.0062 41.0222Z" fill="#C4C4C4"/>
<path d="M16.0171 40.0403C16.0171 39.5203 16.4826 39.0581 17.0062 39.0581H21.0791C21.6028 39.0581 22.0682 39.5203 22.0682 40.0403C22.0682 40.5603 21.6028 41.0225 21.0791 41.0225H17.0062C16.4826 41.0225 16.0171 40.5603 16.0171 40.0403Z" fill="#DCDCDC"/>
<path d="M17.9953 40.0403V39.0581H17.0062C16.4826 39.0581 16.0171 39.5203 16.0171 40.0403C16.0171 40.5603 16.4826 41.0225 17.0062 41.0225C17.5299 41.0225 17.9953 40.5603 17.9953 40.0403Z" fill="#DCDCDC"/>
<path d="M21.7771 40.7334L22.4753 40.0401L21.7771 39.3468C21.3698 38.9423 20.788 38.9423 20.3807 39.3468C19.9734 39.7512 19.9734 40.329 20.3807 40.7334C20.788 41.1378 21.3698 41.1378 21.7771 40.7334Z" fill="#DCDCDC"/>
</g>
<defs>
<clipPath id="clip0">
<rect width="25.0004" height="24.825" fill="white" transform="translate(5.6001 25.8662)"/>
</clipPath>
</defs>
</svg>
