<svg width="41" height="33" viewBox="0 0 41 33" fill="none" xmlns="http://www.w3.org/2000/svg">
<path d="M30.9775 20.8195C30.3807 22.2668 28.9334 24.9226 24.7259 26.8324C19.9066 29.0257 9.99951 31.5025 1.3457 31.4577C25.7106 34.7849 39.9894 21.7147 39.9894 21.7147C36.7965 21.1179 33.7975 20.8493 30.9775 20.8195Z" stroke="#4EBCED" stroke-width="1.8" stroke-miterlimit="10" stroke-linecap="round" stroke-linejoin="round"/>
<path d="M30.9778 20.8192C31.0673 20.6103 31.127 20.4313 31.1867 20.2671C31.6343 19.0735 35.1107 4.40681 35.5583 2.67605C36.0059 0.945292 34.8571 1.01989 34.8571 1.01989C34.8571 1.01989 33.6187 0.975133 31.873 1.01989C30.1273 1.06465 28.5905 1.1691 25.3528 3.75032C18.5342 9.19624 1.33105 31.4574 1.33105 31.4574C1.33105 31.4574 11.9693 20.6103 30.9778 20.8192Z" stroke="#64AF53" stroke-width="1.8" stroke-miterlimit="10" stroke-linecap="round" stroke-linejoin="round"/>
<path d="M30.9775 20.8192C11.969 20.6104 1.3457 31.4575 1.3457 31.4575C9.99951 31.5022 19.8917 29.0254 24.7259 26.8321C28.9334 24.9223 30.3807 22.2665 30.9775 20.8192Z" stroke="#005490" stroke-width="1.8" stroke-miterlimit="10" stroke-linecap="round" stroke-linejoin="round"/>
</svg>
