<svg width="56" height="56" fill="none" xmlns="http://www.w3.org/2000/svg"><path fill-rule="evenodd" clip-rule="evenodd" d="M28 23.333a4.667 4.667 0 100 9.334 4.667 4.667 0 000-9.334zM18.667 28a9.333 9.333 0 1118.667 0 9.333 9.333 0 01-18.667 0z" fill="#FE9A00"/><path fill-rule="evenodd" clip-rule="evenodd" d="M21.019 2.044A2.333 2.333 0 0123.334 0h9.333c1.177 0 2.17.876 2.316 2.044L35.79 8.5a20.97 20.97 0 015.188 3.01l6.01-2.535a2.333 2.333 0 012.927.983l4.667 8.082a2.333 2.333 0 01-.612 3.027l-5.19 3.93c.145.992.219 1.993.22 2.997L46.668 28l2.334.005a21.105 21.105 0 01-.22 2.998l5.189 3.929c.938.71 1.2 2.008.612 3.027l-4.667 8.082a2.333 2.333 0 01-2.927.984l-6.01-2.536a20.97 20.97 0 01-5.188 3.01l-.807 6.457A2.333 2.333 0 0132.667 56h-9.333a2.333 2.333 0 01-2.315-2.044L20.21 47.5a20.974 20.974 0 01-5.187-3.01l-6.01 2.536a2.333 2.333 0 01-2.928-.984L1.419 37.96a2.333 2.333 0 01.612-3.027l5.188-3.928a20.767 20.767 0 010-6.008l-5.188-3.928a2.333 2.333 0 01-.612-3.027L6.086 9.96a2.333 2.333 0 012.928-.983l6.01 2.535a20.974 20.974 0 015.187-3.01l.808-6.457zM44.334 28a16.45 16.45 0 00-.384-3.496 2.333 2.333 0 01.87-2.361l4.69-3.552-2.606-4.515-5.436 2.293a2.333 2.333 0 01-2.484-.43 16.302 16.302 0 00-6.044-3.508 2.334 2.334 0 01-1.603-1.933l-.73-5.831h-5.213l-.73 5.83a2.333 2.333 0 01-1.603 1.934 16.3 16.3 0 00-6.044 3.508 2.333 2.333 0 01-2.484.43l-5.436-2.293L6.49 18.59l4.691 3.552a2.333 2.333 0 01.87 2.366c-.511 2.3-.511 4.683 0 6.982a2.333 2.333 0 01-.87 2.366l-4.69 3.552 2.606 4.515 5.436-2.293a2.333 2.333 0 012.484.43 16.3 16.3 0 006.044 3.508 2.333 2.333 0 011.604 1.933l.729 5.831h5.214l.729-5.83a2.334 2.334 0 011.603-1.934 16.302 16.302 0 006.044-3.508 2.333 2.333 0 012.484-.43l5.436 2.293 2.607-4.515-4.69-3.552a2.333 2.333 0 01-.871-2.361A16.45 16.45 0 0044.334 28z" fill="#EE0033"/></svg>