<svg width="56" height="56" fill="none" xmlns="http://www.w3.org/2000/svg"><path fill-rule="evenodd" clip-rule="evenodd" d="M4.667 2.333A2.333 2.333 0 017 0h42a2.333 2.333 0 012.333 2.333v49a2.333 2.333 0 01-3.627 1.942L42 49.47l-5.706 3.804a2.333 2.333 0 01-2.588 0L28 49.47l-5.706 3.804a2.333 2.333 0 01-2.588 0L14 49.47l-5.706 3.804a2.334 2.334 0 01-3.628-1.942v-49zm4.666 2.334v42.307l3.373-2.249a2.333 2.333 0 012.588 0L21 48.53l5.706-3.804a2.333 2.333 0 012.588 0L35 48.53l5.706-3.804a2.333 2.333 0 012.588 0l3.373 2.248V4.668H9.332z" fill="#EE0033"/><path fill-rule="evenodd" clip-rule="evenodd" d="M14 16.333A2.333 2.333 0 0116.333 14H28a2.333 2.333 0 110 4.667H16.333A2.333 2.333 0 0114 16.333zM35 16.333A2.333 2.333 0 0137.333 14h2.334a2.333 2.333 0 010 4.667h-2.334A2.333 2.333 0 0135 16.333zM14 25.667a2.333 2.333 0 012.333-2.334H28A2.333 2.333 0 1128 28H16.333A2.333 2.333 0 0114 25.667zM35 25.667a2.333 2.333 0 012.333-2.334h2.334a2.333 2.333 0 110 4.667h-2.334A2.333 2.333 0 0135 25.667zM14 35a2.333 2.333 0 012.333-2.333H28a2.333 2.333 0 010 4.666H16.333A2.333 2.333 0 0114 35zM35 35a2.333 2.333 0 012.333-2.333h2.334a2.333 2.333 0 010 4.666h-2.334A2.333 2.333 0 0135 35z" fill="#FE9A00"/></svg>