<svg width="56" height="56" fill="none" xmlns="http://www.w3.org/2000/svg"><path fill-rule="evenodd" clip-rule="evenodd" d="M28 4.667C15.113 4.667 4.667 15.113 4.667 28c0 12.887 10.446 23.333 23.333 23.333 12.887 0 23.333-10.446 23.333-23.333C51.333 15.113 40.887 4.667 28 4.667zM0 28C0 12.536 12.536 0 28 0s28 12.536 28 28-12.536 28-28 28S0 43.464 0 28z" fill="#EE0033"/><path fill-rule="evenodd" clip-rule="evenodd" d="M28 14a2.333 2.333 0 012.334 2.333v14a2.333 2.333 0 01-4.667 0v-14A2.333 2.333 0 0128 14z" fill="#FE9A00"/><path d="M28 42a2.333 2.333 0 100-4.667A2.333 2.333 0 0028 42z" fill="#FE9A00"/></svg>