<svg width="56" height="56" fill="none" xmlns="http://www.w3.org/2000/svg"><path fill-rule="evenodd" clip-rule="evenodd" d="M9.334 28a2.333 2.333 0 012.333-2.333h14A2.333 2.333 0 0128 28v14a2.333 2.333 0 01-2.333 2.333h-14A2.333 2.333 0 019.334 42V28zM14 30.333v9.334h9.334v-9.334H14z" fill="#FE9A00"/><path fill-rule="evenodd" clip-rule="evenodd" d="M0 14a2.333 2.333 0 012.333-2.333h21a2.333 2.333 0 010 4.666H4.667v35h46.666v-35H32.667a2.333 2.333 0 110-4.666h21A2.333 2.333 0 0156 14v39.667A2.333 2.333 0 0153.667 56H2.333A2.333 2.333 0 010 53.667V14z" fill="#EE0033"/><path fill-rule="evenodd" clip-rule="evenodd" d="M28 4.667A2.347 2.347 0 0025.667 7v9.333h4.666V7A2.347 2.347 0 0028 4.667zM21 7c0-3.855 3.145-7 7-7s7 3.145 7 7v11.667A2.333 2.333 0 0132.667 21h-9.334A2.333 2.333 0 0121 18.667V7z" fill="#EE0033"/><path fill-rule="evenodd" clip-rule="evenodd" d="M32.666 30.333A2.333 2.333 0 0135 28h9.333a2.333 2.333 0 010 4.667H35a2.333 2.333 0 01-2.334-2.334zM32.666 39.667A2.333 2.333 0 0135 37.333h9.333a2.333 2.333 0 110 4.667H35a2.333 2.333 0 01-2.334-2.333z" fill="#FE9A00"/></svg>