<svg width="56" height="56" fill="none" xmlns="http://www.w3.org/2000/svg"><path fill-rule="evenodd" clip-rule="evenodd" d="M28 7.583A20.371 20.371 0 007.584 28a2.333 2.333 0 11-4.667 0C2.917 14.11 14.112 2.916 28 2.916c10.03 0 18.91 5.975 22.782 14.686a2.333 2.333 0 11-4.264 1.895C43.39 12.46 36.172 7.583 28 7.583z" fill="#EE0033"/><path fill-rule="evenodd" clip-rule="evenodd" d="M50.75 25.666A2.333 2.333 0 0153.082 28c0 13.889-11.195 25.083-25.083 25.083-10.03 0-18.91-5.974-22.783-14.685a2.333 2.333 0 014.265-1.896c3.128 7.039 10.346 11.914 18.517 11.914A20.371 20.371 0 0048.416 28a2.333 2.333 0 012.334-2.334z" fill="#FE9A00"/><path fill-rule="evenodd" clip-rule="evenodd" d="M50.875 2.936a2.333 2.333 0 012.013 2.615l-1.75 13.475a2.333 2.333 0 01-2.614 2.013l-13.475-1.75a2.333 2.333 0 01.6-4.628l11.162 1.45L48.26 4.95a2.333 2.333 0 012.614-2.014z" fill="#EE0033"/><path fill-rule="evenodd" clip-rule="evenodd" d="M5.752 35.426a2.333 2.333 0 011.724-.465l13.475 1.75a2.333 2.333 0 01-.601 4.628l-11.161-1.45-1.45 11.161a2.333 2.333 0 11-4.628-.6l1.75-13.476c.08-.613.4-1.17.89-1.548z" fill="#FE9A00"/></svg>