<svg width="33" height="32" viewBox="0 0 33 32" fill="none" xmlns="http://www.w3.org/2000/svg">
<path d="M17.8754 12.1462C17.751 12.4845 17.6399 12.818 17.5342 13.1354L17.5309 13.1451C17.3965 13.5485 17.2704 13.9266 17.1258 14.3013L17.1257 14.3013L17.1223 14.3104C16.7896 15.1983 16.2815 15.9166 15.526 16.4796L17.8754 12.1462ZM17.8754 12.1462C17.549 11.9369 17.2317 11.7184 16.9265 11.5061C16.8669 11.4646 16.8078 11.4234 16.7492 11.3826C16.4365 11.1646 16.1366 10.9556 15.8313 10.7554C15.3245 10.4313 14.7959 10.2631 14.2554 10.2808C12.5343 10.3633 10.8128 10.4528 9.08907 10.5423L9.08811 10.5424C7.36302 10.632 5.63561 10.7218 3.90786 10.8046C3.3962 10.8292 3.23932 10.9117 3.18168 10.9544C3.13259 10.9907 3.02003 11.0973 2.87585 11.5462L2.87266 11.5561L2.87261 11.5561C1.48547 15.7246 2.0494 19.6102 4.37235 23.3475" stroke="#FF000E" stroke-width="2" stroke-miterlimit="10"/>
<path d="M17.5069 29.4253C17.2827 29.4474 17.0525 29.4702 16.8125 29.4965H16.5993H16.5982H16.597H16.5958H16.5947H16.5935H16.5924H16.5912H16.5901H16.5889H16.5878H16.5866H16.5855H16.5843H16.5832H16.582H16.5809H16.5797H16.5786H16.5774H16.5763H16.5751H16.574H16.5728H16.5717H16.5705H16.5694H16.5682H16.5671H16.5659H16.5648H16.5636H16.5625H16.5613H16.5602H16.559H16.5579H16.5567H16.5556H16.5544H16.5533H16.5521H16.551H16.5498H16.5487H16.5475H16.5464H16.5452H16.5441H16.5429H16.5418H16.5406H16.5395H16.5383H16.5372H16.536H16.5348H16.5337H16.5325H16.5314H16.5302H16.5291H16.5279H16.5268H16.5256H16.5245H16.5233H16.5222H16.521H16.5199H16.5187H16.5176H16.5164H16.5153H16.5141H16.513H16.5118H16.5107H16.5095H16.5084H16.5072H16.5061H16.5049H16.5038H16.5026H16.5015H16.5003H16.4992H16.498H16.4969H16.4957H16.4946H16.4934H16.4923H16.4911H16.49H16.4888H16.4877H16.4865H16.4854H16.4842H16.4831H16.4819H16.4808H16.4796H16.4785H16.4773H16.4762H16.475H16.4738H16.4727H16.4715H16.4704H16.4692H16.4681H16.4669H16.4658H16.4646H16.4635H16.4623H16.4612H16.46H16.4589H16.4577H16.4566H16.4554H16.4543H16.4531H16.452H16.4508H16.4497H16.4485H16.4474H16.4462H16.4451H16.4439H16.4428H16.4416H16.4405H16.4393H16.4382H16.437H16.4359H16.4347H16.4336H16.4324H16.4313H16.4301H16.429H16.4278H16.4267H16.4255H16.4244H16.4232H16.4221H16.4209H16.4198H16.4186H16.4175H16.4163H16.4152H16.414H16.4128H16.4117H16.4105H16.4094H16.4082H16.4071H16.4059H16.4048H16.4036H16.4025H16.4013H16.4002H16.399H16.3979H16.3967H16.3956H16.3944H16.3933H16.3921H16.391H16.3898H16.3887H16.3875H16.3864H16.3852H16.3841H16.3829H16.3818H16.3806H16.3795H16.3783H16.3772H16.376H16.3749H16.3737H16.3726H16.3714H16.3703H16.3691H16.368H16.3668H16.3657H16.3645H16.3634H16.3622H16.3611H16.3599H16.3588H16.3576H16.3565H16.3553H16.3542H16.353H16.3519H16.3507H16.3495H16.3484H16.3472H16.3461H16.3449H16.3438H16.3426H16.3415H16.3403H16.3392H16.338H16.3369H16.3357H16.3346H16.3334H16.3323H16.3311H16.33H16.3288H16.3277H16.3265H16.3254H16.3242H16.3231H16.3219H16.3208H16.3196H16.3185H16.3173H16.3162H16.315H16.3139H16.3127H16.3116H16.3104H16.3093H16.3081H16.307H16.3058H16.3047H16.3035H16.3024H16.3012H16.3001H16.2989H16.2978H16.2966H16.2955H16.2943H16.2932H16.292H16.2909H16.2897H16.2885H16.2874H16.2862H16.2851H16.2839H16.2828H16.2816H16.2805H16.2793H16.2782H16.277H16.2759H16.2747H16.2736H16.2724H16.2713H16.2701H16.269H16.2678H16.2667H16.2655H16.2644H16.2632H16.2621H16.2609H16.2598H16.2586H16.2575H16.2563H16.2552H16.254H16.2529H16.2517H16.2506H16.2494H16.2483H16.2471H16.246H16.2448H16.2437H16.2425H16.2414H16.2402H16.2391H16.2379H16.2368H16.2356H16.2345H16.2333H16.2322H16.231H16.2299H16.2287H16.2276H16.2264H16.2252H16.2241H16.2229H16.2218H16.2206H16.2195H16.2183H16.2172H16.216H16.2149H16.2137H16.2126H16.2114H16.2103H16.2091H16.208H16.2068H16.2057H16.2045H16.2034H16.2022H16.2011H16.1999H16.1988H16.1976H16.1965H16.1953H16.1942H16.193H16.1919H16.1907H16.1896H16.1884H16.1873H16.1861H16.185H16.1838H16.1827H16.1815H16.1804H16.1792H16.1781H16.1769H16.1758H16.1746H16.1735H16.1723H16.1712H16.17H16.1689H16.1677H16.1666H16.1654H16.1642H16.1631H16.1619H16.1608H16.1596H16.1585H16.1573H16.1562H16.155H16.1539H16.1527H16.1516H16.1504H16.1493H16.1481H16.147H16.1458H16.1447H16.1435H16.1424H16.1412H16.1401H16.1389H16.1378H16.1366H16.1355H16.1343H16.1332H16.132H16.1309H16.1297H16.1286H16.1274H16.1263H16.1251H16.124H16.1228H16.1217H16.1205H16.1194H16.1182H16.1171H16.1159H16.1148H16.1136H16.1125H16.1113H16.1102H16.109H16.1079H16.1067H16.1056H16.1044H16.1032H16.1021H16.1009H16.0998H16.0986H16.0975H16.0963H16.0952H16.094H16.0929H16.0917H16.0906H16.0894H16.0883H16.0871H16.086H16.0848H16.0837H16.0825H16.0814H16.0802H16.0791H16.0779H16.0768H16.0756H16.0745H16.0733H16.0722H16.071H16.0699H16.0687H16.0676H16.0664H16.0653H16.0641H16.063H16.0618H16.0607H16.0595H16.0584H16.0572H16.0561H16.0549H16.0538H16.0526H16.0515H16.0503H16.0492H16.048H16.0469H16.0457H16.0455C15.7181 29.472 15.5018 29.421 15.3659 29.3672C15.2987 29.3405 15.2592 29.3164 15.2379 29.3006C15.2178 29.2859 15.2115 29.277 15.2101 29.2751L15.2101 29.2751C15.2088 29.2733 15.2041 29.2665 15.1985 29.2476C15.1924 29.2271 15.1841 29.1876 15.1828 29.1223C15.18 28.985 15.2085 28.769 15.3084 28.4514L15.3084 28.4514L15.3112 28.4425C15.5718 27.5857 15.8353 26.725 16.0993 25.8624C16.7425 23.7614 17.3892 21.6488 18.0069 19.5527C18.5202 17.8382 19.354 16.5108 20.8194 15.6278L20.8195 15.6278L20.8232 15.6255C21.0305 15.4993 21.2187 15.3522 21.3712 15.2283C21.4394 15.1728 21.4969 15.1251 21.5496 15.0814C21.6317 15.0134 21.702 14.955 21.7832 14.892C21.8713 14.8235 21.9364 14.7786 21.9844 14.7498C22.0278 14.7767 22.0989 14.8255 22.2033 14.9124C22.2937 14.9876 22.3813 15.0665 22.4854 15.1602C22.5175 15.1891 22.5512 15.2195 22.587 15.2515C22.7259 15.3759 22.8926 15.5223 23.0719 15.655C23.1437 15.7093 23.2131 15.7615 23.2806 15.8124C23.5656 16.027 23.8177 16.2168 24.0722 16.4252C24.7027 16.9503 25.1284 17.4952 25.3613 18.1822L25.3613 18.1822L25.3645 18.1916C25.3975 18.2856 25.4304 18.3799 25.4635 18.4745C26.0173 20.0577 26.5942 21.7067 27.3011 23.2849C27.5177 23.7875 27.5333 24.1312 27.4732 24.3935C27.4105 24.6672 27.2356 24.9822 26.8419 25.3693C24.7245 27.451 22.1916 28.6885 19.2325 29.208L19.2294 29.2086C18.6483 29.3125 18.0983 29.3668 17.5069 29.4253Z" stroke="#FF000E" stroke-width="2" stroke-miterlimit="10"/>
<path d="M17.4995 7.50894V7.50885L17.4862 7.50903C15.5677 7.53452 13.7768 7.12861 12.0894 6.19858L12.0861 6.19674C11.3821 5.81225 10.6241 5.46598 9.90657 5.13826C9.56803 4.98362 9.23852 4.83311 8.928 4.68466C8.8809 4.66157 8.83277 4.63878 8.79177 4.61938C8.78429 4.61584 8.77705 4.61241 8.7701 4.60911C8.75361 4.6013 8.73814 4.59394 8.72345 4.5869C8.77145 4.55506 8.82751 4.52231 8.89199 4.48824C10.6874 3.59257 12.4261 2.86623 14.3053 2.69073C16.1764 2.53102 17.9772 2.56188 19.7569 2.94785L19.7643 2.94945L19.7717 2.95094C20.2863 3.05443 20.4922 3.21918 20.5534 3.30531C20.5537 3.30571 20.554 3.30616 20.5544 3.30666C20.5727 3.33198 20.6823 3.48384 20.4765 3.98689C19.9891 5.14406 19.6699 6.3724 19.3773 7.4983C19.3766 7.50083 19.376 7.50336 19.3753 7.5059C18.9485 7.49129 18.5041 7.49749 18.091 7.50327C17.884 7.50616 17.6848 7.50894 17.4995 7.50894Z" stroke="#FF000E" stroke-width="2" stroke-miterlimit="10"/>
<path d="M27.7969 16.0053L27.7949 16.0039C27.393 15.7118 27.1141 15.2261 26.8479 14.5459C26.6332 13.9936 26.4619 13.4813 26.2827 12.945C26.1908 12.67 26.0968 12.3887 25.9937 12.0925C26.4213 11.7989 26.848 11.5017 27.2715 11.2068L27.2734 11.2054C27.7792 10.8532 28.2805 10.5042 28.7811 10.1624L28.7825 10.1614C29.0156 10.0017 29.1385 9.96805 29.182 9.96124C29.2169 9.98644 29.3103 10.0704 29.4451 10.3141C30.1813 11.6668 30.6938 13.9062 30.6968 16.2405C30.6895 16.4254 30.6918 16.6113 30.6948 16.7776C30.6953 16.8082 30.6959 16.8382 30.6964 16.8677C30.6992 17.0135 30.7017 17.1466 30.7003 17.2825C30.6977 17.5591 30.6784 17.7877 30.6301 17.9858C29.6669 17.3281 28.7183 16.6783 27.7969 16.0053ZM29.2004 9.95966C29.2004 9.9597 29.1996 9.95972 29.198 9.95959C29.1996 9.95955 29.2004 9.95962 29.2004 9.95966ZM29.1682 9.95242C29.1672 9.95198 29.1667 9.95172 29.1667 9.95169L29.1682 9.95242Z" stroke="#FF000E" stroke-width="2" stroke-miterlimit="10"/>
<path d="M23.3423 4.2243C23.7686 4.34261 24.1628 4.61838 24.7313 5.03757L24.7312 5.03759L24.7374 5.04207C25.7494 5.77645 26.6581 6.60119 27.5253 7.52318C27.011 7.50886 26.488 7.50886 25.9818 7.50886H25.9701C25.7955 7.50886 25.6064 7.5061 25.4092 7.50323C25.0776 7.49839 24.723 7.49322 24.3753 7.50026C24.2138 6.96364 24.0442 6.43447 23.8774 5.91616C23.8632 5.87191 23.849 5.82775 23.8348 5.78368C23.6648 5.25547 23.4985 4.73915 23.3423 4.2243ZM24.0805 7.50737C24.0806 7.50731 24.0827 7.50746 24.0866 7.50799C24.0824 7.5077 24.0805 7.50743 24.0805 7.50737ZM24.4619 7.78299C24.4618 7.7831 24.4609 7.78112 24.459 7.77668C24.461 7.78066 24.4619 7.78288 24.4619 7.78299Z" stroke="#FF000E" stroke-width="2" stroke-miterlimit="10"/>
</svg>
