<svg width="56" height="56" fill="none" xmlns="http://www.w3.org/2000/svg"><path fill-rule="evenodd" clip-rule="evenodd" d="M7 44.333V41.03h4.667v3.304a7 7 0 007 7H28V56h-9.333C12.224 56 7 50.776 7 44.333zM25.667 4.667c-7.732 0-14 6.268-14 14v.947H7v-.947C7 8.357 15.357 0 25.667 0h4.666C40.643 0 49 8.357 49 18.667v.984h-4.667v-.984c0-7.732-6.268-14-14-14h-4.666z" fill="#EE0033"/><path fill-rule="evenodd" clip-rule="evenodd" d="M0 30.333c0-7.73 6.269-14 14-14 .96 0 1.896.098 2.8.283l1.867.381V43.67l-1.867.381c-.904.185-1.84.283-2.8.283-7.731 0-14-6.269-14-14zM14 21c-5.154 0-9.333 4.18-9.333 9.333 0 5.154 4.18 9.334 9.333 9.334V21zM39.2 16.616c.905-.185 1.84-.283 2.8-.283 7.731 0 14 6.27 14 14 0 7.731-6.269 14-14 14-.96 0-1.895-.098-2.8-.283l-1.867-.381V16.998l1.867-.382zM42 21v18.667c5.154 0 9.334-4.18 9.334-9.334C51.334 25.18 47.154 21 42 21z" fill="#FE9A00"/></svg>