<svg width="56" height="56" fill="none" xmlns="http://www.w3.org/2000/svg"><path fill-rule="evenodd" clip-rule="evenodd" d="M31.547 13.44a2.24 2.24 0 012.24-2.24h4.48a2.24 2.24 0 010 4.48h-4.48a2.24 2.24 0 01-2.24-2.24zM31.547 22.4a2.24 2.24 0 012.24-2.24h4.48a2.24 2.24 0 110 4.48h-4.48a2.24 2.24 0 01-2.24-2.24zM13.627 31.36a2.24 2.24 0 012.24-2.24h22.4a2.24 2.24 0 010 4.48h-22.4a2.24 2.24 0 01-2.24-2.24zM13.627 40.32a2.24 2.24 0 012.24-2.24h11.2a2.24 2.24 0 010 4.48h-11.2a2.24 2.24 0 01-2.24-2.24z" fill="#EE0033"/><path fill-rule="evenodd" clip-rule="evenodd" d="M43.403 32.016a2.24 2.24 0 013.168 0l6.72 6.72a2.24 2.24 0 010 3.168l-13.44 13.44c-.42.42-.99.656-1.584.656h-6.72a2.24 2.24 0 01-2.24-2.24v-6.72c0-.594.236-1.164.656-1.584l13.44-13.44zm-9.616 15.952v3.552h3.552l11.2-11.2-3.552-3.552-11.2 11.2z" fill="#FE9A00"/><path fill-rule="evenodd" clip-rule="evenodd" d="M13.627 13.44a2.24 2.24 0 012.24-2.24h8.96a2.24 2.24 0 012.24 2.24v8.96a2.24 2.24 0 01-2.24 2.24h-8.96a2.24 2.24 0 01-2.24-2.24v-8.96zm4.48 2.24v4.48h4.48v-4.48h-4.48z" fill="#EE0033"/><path fill-rule="evenodd" clip-rule="evenodd" d="M6.907 0a2.24 2.24 0 00-2.24 2.24v49.28a2.24 2.24 0 002.24 2.24h15.68c1.12 0 2.24-1.003 2.24-2.24 0-1.237-1.12-2.24-2.24-2.24H9.147V4.48h35.84v20.16c0 .975 1.042 2.095 2.24 2.095 1.197 0 2.24-1.12 2.24-2.095V2.24A2.24 2.24 0 0047.227 0H6.907z" fill="#EE0033"/></svg>