<svg width="33" height="33" viewBox="0 0 33 33" fill="none" xmlns="http://www.w3.org/2000/svg">
<path fill-rule="evenodd" clip-rule="evenodd" d="M0.0625 6.24475C0.0625 3.28973 2.41245 0.939781 5.36747 0.939781H26.7547C29.7098 0.939781 32.0597 3.28973 32.0597 6.24475V9.74267C32.0597 10.2991 31.6086 10.7502 31.0522 10.7502C30.4958 10.7502 30.0447 10.2991 30.0447 9.74267V6.24475C30.0447 4.40261 28.5969 2.95482 26.7547 2.95482H5.36747C3.52533 2.95482 2.07754 4.40261 2.07754 6.24475V27.632C2.07754 29.4742 3.52533 30.922 5.36747 30.922H8.96533C9.52176 30.922 9.97285 31.373 9.97285 31.9295C9.97285 32.4859 9.52176 32.937 8.96533 32.937H5.36747C2.41245 32.937 0.0625 30.587 0.0625 27.632V6.24475Z" fill="#EE0033"/>
<path fill-rule="evenodd" clip-rule="evenodd" d="M31.0514 18.7264C31.6093 18.7264 32.0617 19.1787 32.0617 19.7367V27.5321C32.0617 30.4886 29.7105 32.8398 26.7539 32.8398H18.9586C18.4006 32.8398 17.9482 32.3875 17.9482 31.8295C17.9482 31.2715 18.4006 30.8192 18.9586 30.8192H26.7539C28.5945 30.8192 30.041 29.3727 30.041 27.5321V19.7367C30.041 19.1787 30.4934 18.7264 31.0514 18.7264Z" fill="#FE9A00"/>
<path fill-rule="evenodd" clip-rule="evenodd" d="M18.8587 18.8481C18.3174 18.8481 17.8702 19.2952 17.8702 19.8366V25.6332C17.8702 26.1911 17.4179 26.6435 16.8599 26.6435C16.3019 26.6435 15.8496 26.1911 15.8496 25.6332V19.8366C15.8496 18.1793 17.2014 16.8275 18.8587 16.8275H26.0545C26.6124 16.8275 27.0648 17.2798 27.0648 17.8378C27.0648 18.3958 26.6124 18.8481 26.0545 18.8481H18.8587Z" fill="#FE9A00"/>
<path fill-rule="evenodd" clip-rule="evenodd" d="M16.9081 24.6241C17.4655 24.6506 17.8958 25.1239 17.8692 25.6813L16.8601 25.6332C17.8692 25.6813 17.8692 25.6819 17.8692 25.6826L17.8691 25.6842L17.8689 25.6876L17.8684 25.6964L17.8669 25.7207C17.8656 25.7399 17.8636 25.7652 17.8608 25.796C17.8551 25.8577 17.846 25.9419 17.8313 26.0455C17.802 26.2524 17.7503 26.5386 17.6597 26.8778C17.479 27.5539 17.1391 28.4574 16.4985 29.3642C16.114 29.9086 15.6313 30.4398 15.03 30.9192H18.8589C19.4169 30.9192 19.8692 31.3715 19.8692 31.9295C19.8692 32.4875 19.4169 32.9398 18.8589 32.9398H8.26519C7.70721 32.9398 7.25488 32.4875 7.25488 31.9295C7.25488 31.3715 7.70721 30.9192 8.26519 30.9192C12.1139 30.9192 13.9419 29.4814 14.8481 28.1985C15.3194 27.5313 15.5728 26.8606 15.7076 26.3562C15.7746 26.1051 15.8112 25.8994 15.8307 25.762C15.8404 25.6934 15.8458 25.6424 15.8486 25.6118C15.85 25.5966 15.8507 25.5865 15.851 25.5819C15.8511 25.581 15.8512 25.5803 15.8512 25.5798" fill="#FE9A00"/>
<path fill-rule="evenodd" clip-rule="evenodd" d="M31.0512 8.13269C31.6092 8.13269 32.0615 8.58502 32.0615 9.143V19.8366C32.0615 20.3946 31.6092 20.847 31.0512 20.847C30.4933 20.847 30.0409 20.3946 30.0409 19.8366V15.8838C29.8117 16.1921 29.5742 16.4711 29.3346 16.7228C28.6452 17.4475 27.9534 17.932 27.4273 18.238C27.1638 18.3912 26.9404 18.5006 26.7773 18.5736C26.6956 18.6101 26.6288 18.6377 26.5794 18.6571C26.5547 18.6669 26.5343 18.6746 26.5185 18.6804L26.4983 18.6878L26.4909 18.6904L26.4879 18.6915L26.4865 18.692C26.4859 18.6922 26.4853 18.6924 26.1541 17.7379L26.4853 18.6924C25.9581 18.8753 25.3825 18.5962 25.1996 18.069C25.0174 17.5438 25.2938 16.9704 25.8173 16.7854M31.0512 8.13269C30.4933 8.13269 30.0409 8.58502 30.0409 9.143L31.0512 8.13269Z" fill="#FE9A00"/>
<path fill-rule="evenodd" clip-rule="evenodd" d="M4.3125 9.14307C4.3125 8.67088 4.69529 8.28809 5.16749 8.28809H24.9557C25.4279 8.28809 25.8107 8.67088 25.8107 9.14307C25.8107 9.61527 25.4279 9.99806 24.9557 9.99806H5.16749C4.69529 9.99806 4.3125 9.61527 4.3125 9.14307Z" fill="#EE0033"/>
<path fill-rule="evenodd" clip-rule="evenodd" d="M4.43262 12.5409C4.43262 12.1347 4.76194 11.8053 5.16817 11.8053H14.7625C15.1687 11.8053 15.498 12.1347 15.498 12.5409C15.498 12.9471 15.1687 13.2765 14.7625 13.2765H5.16817C4.76194 13.2765 4.43262 12.9471 4.43262 12.5409Z" fill="#EE0033"/>
</svg>
