<svg width="33" height="32" viewBox="0 0 33 32" fill="none" xmlns="http://www.w3.org/2000/svg">
<path fill-rule="evenodd" clip-rule="evenodd" d="M15.3096 30.9787V1.02127H17.3521V30.9787H15.3096Z" fill="#FE9A00"/>
<path fill-rule="evenodd" clip-rule="evenodd" d="M31.31 17.0213H1.35254V14.9788H31.31V17.0213Z" fill="#EE0033"/>
<path fill-rule="evenodd" clip-rule="evenodd" d="M11.9486 5.86517C10.6781 8.40613 9.86287 11.9879 9.86287 16C9.86287 20.0121 10.6781 23.5939 11.9486 26.1348C13.2497 28.7369 14.858 29.9574 16.3309 29.9574C17.8039 29.9574 19.4122 28.7369 20.7133 26.1348C21.9838 23.5939 22.799 20.0121 22.799 16C22.799 11.9879 21.9838 8.40613 20.7133 5.86517C19.4122 3.26312 17.8039 2.04255 16.3309 2.04255C14.858 2.04255 13.2497 3.26312 11.9486 5.86517ZM10.1217 4.95171C11.5313 2.13253 13.6676 0 16.3309 0C18.9943 0 21.1306 2.13253 22.5402 4.95171C23.9803 7.83198 24.8416 11.7396 24.8416 16C24.8416 20.2604 23.9803 24.168 22.5402 27.0483C21.1306 29.8675 18.9943 32 16.3309 32C13.6676 32 11.5313 29.8675 10.1217 27.0483C8.68158 24.168 7.82031 20.2604 7.82031 16C7.82031 11.7396 8.68158 7.83198 10.1217 4.95171Z" fill="#FE9A00"/>
<path fill-rule="evenodd" clip-rule="evenodd" d="M16.3311 2.04255C8.62257 2.04255 2.37361 8.29151 2.37361 16C2.37361 23.7085 8.62257 29.9574 16.3311 29.9574C24.0395 29.9574 30.2885 23.7085 30.2885 16C30.2885 8.29151 24.0395 2.04255 16.3311 2.04255ZM0.331055 16C0.331055 7.16344 7.4945 0 16.3311 0C25.1676 0 32.3311 7.16344 32.3311 16C32.3311 24.8366 25.1676 32 16.3311 32C7.4945 32 0.331055 24.8366 0.331055 16Z" fill="#EE0033"/>
</svg>
