<svg width="109" height="109" viewBox="0 0 109 109" fill="none" xmlns="http://www.w3.org/2000/svg">
<path d="M54.5 23.8438C64.0375 23.8438 71.5312 31.3375 71.5312 40.875V47.6875C71.5312 57.225 64.0375 64.7188 54.5 64.7188C44.9625 64.7188 37.4688 57.225 37.4688 47.6875V40.875C37.4688 31.3375 44.9625 23.8438 54.5 23.8438Z" stroke="#FE9A00" stroke-width="4" stroke-linecap="round" stroke-linejoin="round"/>
<path d="M91 89C88.2941 77.75 80.1765 67.4375 68 59" stroke="#FE9A00" stroke-width="4" stroke-linecap="round" stroke-linejoin="round"/>
<path d="M40 60C28.3529 67 20.5882 77.5 18 88" stroke="#FE9A00" stroke-width="4" stroke-linecap="round" stroke-linejoin="round"/>
<path d="M54.5 105.594C82.7183 105.594 105.594 82.7183 105.594 54.5C105.594 26.2817 82.7183 3.40625 54.5 3.40625C26.2817 3.40625 3.40625 26.2817 3.40625 54.5C3.40625 82.7183 26.2817 105.594 54.5 105.594Z" stroke="#EE0033" stroke-width="4" stroke-linecap="round" stroke-linejoin="round"/>
</svg>
