<svg width="109" height="109" viewBox="0 0 109 109" fill="none" xmlns="http://www.w3.org/2000/svg">
<path d="M27.444 15.2094C30.6097 17.3944 32.9424 23.0131 32.9424 23.0131C32.9424 23.0131 35.6084 24.73 36.4415 27.0711C37.2746 29.2562 36.4415 32.3777 36.4415 32.3777C36.4415 32.3777 38.7741 39.0889 37.7744 40.8058C36.6081 42.6787 31.7761 43.9273 31.7761 43.9273C31.7761 43.9273 29.7766 47.3609 25.6111 47.9852C22.9452 48.2974 20.2793 50.0142 20.2793 53.604C20.2793 57.1937 24.1116 63.1246 24.1116 63.1246C24.1116 63.1246 28.1104 64.9975 28.6103 66.2461C29.1102 67.4947 29.4434 70.6162 29.4434 70.6162C29.4434 70.6162 33.2757 76.8592 31.1096 80.449C30.4431 81.5415 27.2773 82.478 27.2773 82.478L22.7786 88.721" stroke="#FE9A00" stroke-width="4" stroke-miterlimit="10" stroke-linecap="square"/>
<path d="M91.2561 25.5477C86.707 27.7512 78.7069 29.4826 78.7069 29.4826C78.7069 29.4826 72.9028 35.9358 69.1381 35.4636C65.3733 34.9914 61.4516 30.7418 61.4516 30.7418C61.4516 30.7418 61.7654 22.872 60.5104 22.3998C59.2555 21.9276 56.1182 24.1311 54.079 22.5572C52.0397 20.9832 53.2946 16.4188 53.2946 16.4188C53.2946 16.4188 48.9024 15.0022 48.2749 13.5856C47.6475 12.1691 49.8436 8.86378 50.3142 7.60461" stroke="#FE9A00" stroke-width="4" stroke-miterlimit="10" stroke-linecap="square"/>
<path d="M88.4979 57.6094C89.5868 60.0912 86.4757 66.606 83.9868 67.8469C80.7202 69.5532 78.3869 71.5697 77.4535 72.9657C76.5202 74.3617 75.2758 80.4112 72.3203 81.6521C69.2092 82.893 62.0537 89.5629 58.1648 88.6322C54.276 87.5464 54.276 78.3947 56.9204 74.3617C58.4759 71.8799 56.6093 66.606 56.4537 64.7447C56.2982 62.8833 50.6982 59.4708 50.6982 57.6094C50.6982 54.6622 57.076 47.0617 57.076 47.0617C57.076 47.0617 62.3648 45.3554 63.9203 45.6656C65.4759 45.9759 68.587 47.8372 68.587 47.8372C68.587 47.8372 74.498 48.3026 76.8313 49.5435L79.9424 52.3355C79.7868 52.3355 87.409 55.1276 88.4979 57.6094Z" stroke="#FE9A00" stroke-width="4" stroke-miterlimit="10" stroke-linecap="square"/>
<path d="M54.4998 104.794C82.2735 104.794 104.789 82.3516 104.789 54.6672C104.789 26.9827 82.2735 4.54004 54.4998 4.54004C26.726 4.54004 4.21094 26.9827 4.21094 54.6672C4.21094 82.3516 26.726 104.794 54.4998 104.794Z" stroke="#EE0033" stroke-width="4" stroke-miterlimit="10" stroke-linecap="square"/>
</svg>
