<svg width="102" height="105" viewBox="0 0 102 105" fill="none" xmlns="http://www.w3.org/2000/svg">
<path d="M24.9954 52.7219L6.54883 86.9024L24.3286 84.6829L33.2186 98L47.6647 66.7048" stroke="#FE9A00" stroke-width="4" stroke-miterlimit="10"/>
<path d="M77.0009 52.7219L95.4474 86.9024L77.6676 84.6829L68.7777 98L54.1094 66.7048" stroke="#FE9A00" stroke-width="4" stroke-miterlimit="10"/>
<path d="M50.9985 66.9269C68.1826 66.9269 82.1132 53.0149 82.1132 35.8537C82.1132 18.6925 68.1826 4.78052 50.9985 4.78052C33.8143 4.78052 19.8838 18.6925 19.8838 35.8537C19.8838 53.0149 33.8143 66.9269 50.9985 66.9269Z" stroke="#EE0033" stroke-width="4" stroke-miterlimit="10" stroke-linecap="square"/>
<path d="M50.9993 44.7317C55.909 44.7317 59.8892 40.7568 59.8892 35.8536C59.8892 30.9504 55.909 26.9756 50.9993 26.9756C46.0895 26.9756 42.1094 30.9504 42.1094 35.8536C42.1094 40.7568 46.0895 44.7317 50.9993 44.7317Z" stroke="#EE0033" stroke-width="4" stroke-miterlimit="10" stroke-linecap="square"/>
</svg>
