<svg width="109" height="109" viewBox="0 0 109 109" fill="none" xmlns="http://www.w3.org/2000/svg">
<g clip-path="url(#clip0)">
<path d="M17.5801 17.5807H91.4188" stroke="#EE0033" stroke-width="4" stroke-miterlimit="10"/>
<path d="M17.5801 87.9032H91.4188" stroke="#EE0033" stroke-width="4" stroke-miterlimit="10"/>
<path d="M1.75781 63.2903H21.0965C24.9643 63.2903 28.1288 60.1258 28.1288 56.258V47.4677C28.1288 44.479 30.4143 42.1935 33.403 42.1935C36.3917 42.1935 38.6772 44.479 38.6772 47.4677V68.5645C38.6772 71.5532 40.9627 73.8387 43.9514 73.8387C46.9401 73.8387 49.2256 71.5532 49.2256 68.5645V36.9193C49.2256 33.9306 51.511 31.6451 54.4997 31.6451C57.4885 31.6451 59.7739 33.9306 59.7739 36.9193V68.5645C59.7739 71.5532 62.0594 73.8387 65.0481 73.8387C68.0368 73.8387 70.3223 71.5532 70.3223 68.5645V47.4677C70.3223 44.479 72.6078 42.1935 75.5965 42.1935C78.5852 42.1935 80.8707 44.479 80.8707 47.4677V56.258C80.8707 60.1258 84.0352 63.2903 87.903 63.2903H107.242" stroke="#FE9A00" stroke-width="4" stroke-miterlimit="10" stroke-linecap="square"/>
<path d="M17.5801 73.8387V98.4516C17.5801 103.374 21.4478 107.242 26.3704 107.242H82.6285C87.551 107.242 91.4188 103.374 91.4188 98.4516V73.8387" stroke="#EE0033" stroke-width="4" stroke-miterlimit="10" stroke-linecap="square"/>
<path d="M91.4188 52.7419V10.5484C91.4188 5.6258 87.551 1.75806 82.6285 1.75806H26.3704C21.4478 1.75806 17.5801 5.6258 17.5801 10.5484V52.7419" stroke="#EE0033" stroke-width="4" stroke-miterlimit="10" stroke-linecap="square"/>
</g>
<defs>
<clipPath id="clip0">
<rect width="109" height="109" fill="white"/>
</clipPath>
</defs>
</svg>
