<svg width="69" height="77" viewBox="0 0 69 77" fill="none" xmlns="http://www.w3.org/2000/svg">
<path opacity="0.9" fill-rule="evenodd" clip-rule="evenodd" d="M36 12C39.3137 12 42 9.31371 42 6C42 2.68629 39.3137 0 36 0C32.6863 0 30 2.68629 30 6C30 9.31371 32.6863 12 36 12ZM69 25.5C69 31.299 64.299 36 58.5 36C52.701 36 48 31.299 48 25.5C48 19.701 52.701 15 58.5 15C64.299 15 69 19.701 69 25.5ZM51 51.5C51 65.5833 39.5833 77 25.5 77C11.4167 77 0 65.5833 0 51.5C0 37.4167 11.4167 26 25.5 26C39.5833 26 51 37.4167 51 51.5Z" fill="white"/>
</svg>
