<svg width="66" height="75" viewBox="0 0 66 75" fill="none" xmlns="http://www.w3.org/2000/svg">
<path fill-rule="evenodd" clip-rule="evenodd" d="M33 74.1172C51.2254 74.1172 66 59.3426 66 41.1172C66 22.8918 51.2254 8.11719 33 8.11719C14.7746 8.11719 0 22.8918 0 41.1172C0 59.3426 14.7746 74.1172 33 74.1172Z" fill="#44494D"/>
<mask id="mask0" mask-type="alpha" maskUnits="userSpaceOnUse" x="0" y="0" width="66" height="75">
<path fill-rule="evenodd" clip-rule="evenodd" d="M33.0001 74.1174C51.2255 74.1174 66.0001 59.3428 66.0001 41.1174C66.0001 22.892 54.2192 -1.91557 31.0001 0.117365C7.78098 2.1503 7.62003e-05 22.892 7.62003e-05 41.1174C7.62003e-05 59.3428 14.7747 74.1174 33.0001 74.1174Z" fill="white"/>
</mask>
<g mask="url(#mask0)">
<path fill-rule="evenodd" clip-rule="evenodd" d="M19.0139 23.8407C18.8097 20.8057 20.8761 18.2454 23.63 18.1218C26.3837 17.9983 28.7816 20.3585 28.986 23.3935C29.1905 26.4286 27.1239 28.989 24.3702 29.1126C21.6168 29.2361 19.2187 26.8758 19.0139 23.8407Z" fill="#500C0C"/>
<path fill-rule="evenodd" clip-rule="evenodd" d="M21.015 24.8101C20.8252 21.7745 22.4557 19.2271 24.6567 19.1206C26.8576 19.0144 28.7954 21.3888 28.985 24.4243C29.1746 27.4601 27.5443 30.0073 25.3434 30.1137C23.1424 30.2202 21.2044 27.8458 21.015 24.8101Z" fill="black"/>
<path fill-rule="evenodd" clip-rule="evenodd" d="M21.0103 15.0183C21.0922 17.8006 21.6924 20.1636 22.3665 20.1165C23.0886 20.0662 24.0771 17.5928 23.9952 14.8104C23.9133 12.0278 23.4546 11.0471 22.3912 11.121C21.3276 11.195 20.9286 12.2359 21.0103 15.0183Z" fill="#500C0C"/>
<path fill-rule="evenodd" clip-rule="evenodd" d="M48 53.1173C48 49.9552 40.5144 45.1172 35.8507 45.1172C29.3106 45.1172 23 48.8847 23 53.3032C23 57.7214 29.3106 61.1172 35.8507 61.1172C42.3913 61.1172 48 57.5355 48 53.1173Z" fill="#B5B4B4"/>
<mask id="mask1" mask-type="alpha" maskUnits="userSpaceOnUse" x="25" y="25" width="17" height="33">
<path fill-rule="evenodd" clip-rule="evenodd" d="M25.0332 57.0202L41.9631 57.0512L40.8508 42.0752L40.1106 25.1602L26.6797 40.1017L25.0332 57.0202Z" fill="white"/>
</mask>
<g mask="url(#mask1)">
<path fill-rule="evenodd" clip-rule="evenodd" d="M25.0332 57.0202L41.9631 57.0512L40.8508 42.0752L40.1106 25.1602L26.6797 40.1017L25.0332 57.0202Z" fill="url(#paint0_linear)"/>
</g>
<mask id="mask2" mask-type="alpha" maskUnits="userSpaceOnUse" x="21" y="20" width="5" height="7">
<path fill-rule="evenodd" clip-rule="evenodd" d="M21.1372 23.5668C21.1115 25.3847 22.141 26.881 23.4367 26.9087C24.7329 26.9361 25.8043 25.4851 25.8303 23.6668C25.8562 21.8489 24.8265 20.3526 23.5305 20.3246C22.2348 20.2972 21.1631 21.7485 21.1372 23.5668Z" fill="white"/>
</mask>
<g mask="url(#mask2)">
<path fill-rule="evenodd" clip-rule="evenodd" d="M21.0005 23.3597C20.9748 25.1777 22.0043 26.6739 23.3 26.7017C24.5962 26.7291 25.6676 25.278 25.6936 23.4598C25.7195 21.6418 24.6898 20.1456 23.3938 20.1176C22.0981 20.0902 21.0264 21.5415 21.0005 23.3597Z" fill="url(#paint1_linear)"/>
</g>
<path fill-rule="evenodd" clip-rule="evenodd" d="M33.2653 42.1164C36.4048 42.1724 39.8942 39.3891 40.592 34.9199C40.9422 32.678 41.5483 27.8286 41.5483 27.8286L43 10.4698L23 10.1172L23.6051 36.5703C23.6737 39.5723 26.2112 41.9893 29.3504 42.0453C30.3292 42.0632 31.9606 42.0931 33.2653 42.1164Z" fill="#FFE0DB"/>
<path fill-rule="evenodd" clip-rule="evenodd" d="M26.713 16.0326C31.4465 16.5496 34.3235 14.5202 39.2875 14.7001C42.5393 14.8181 44.3969 12.1605 43.9282 10.0949C42.8977 5.55467 34.7871 6.38588 31.7043 6.54652C24.2639 6.93468 21.408 5.84952 19.7107 5.20717C18.8862 4.89544 17.9795 5.4318 18.0004 6.22857C18.1801 12.9855 21.8593 15.5025 26.713 16.0326Z" fill="black"/>
<path fill-rule="evenodd" clip-rule="evenodd" d="M40.4236 16.9308C41.0196 18.4447 40.7656 22.8009 42.4367 23.0831C44.1044 23.365 48.0008 22.021 48 14.4598C47.9997 11.6923 45.81 7.06595 41.918 8.33202C35.0828 10.556 38.9638 13.2245 40.4236 16.9308Z" fill="black"/>
<path fill-rule="evenodd" clip-rule="evenodd" d="M24.6546 52.1172C24.6546 52.1172 30.5171 56.6726 41 54.1363L35.5283 90.269L36.7117 120.192L36.3417 122.117L8 120.165L19.0321 77.3952L24.6546 52.1172Z" fill="white"/>
<path fill-rule="evenodd" clip-rule="evenodd" d="M59 55.7818L48.568 50.1172L43.2572 52.0558L26 94.8648V147.449C26 147.449 33.6332 149.117 34.1311 149.117C34.6288 149.117 59 147.64 59 147.64L55.0397 108.425L57.1971 75.9785L59 55.7818Z" fill="#A80000"/>
<path fill-rule="evenodd" clip-rule="evenodd" d="M26 48.1172L18.7489 84.7456L12.6196 106.117L11.517 81.7126L10 58.2435L26 48.1172Z" fill="#A80000"/>
<path fill-rule="evenodd" clip-rule="evenodd" d="M10.3336 58.1537C7.91173 58.9614 6.98171 64.7581 6.26219 70.3408C5.35489 77.3823 4 142.117 4 142.117C4 142.117 9.22205 131.988 10.5709 129.725C11.4728 128.212 12.4156 124.263 12.6392 122.349C14.5019 106.419 15.0537 56.5792 10.3336 58.1537Z" fill="#A80000"/>
<mask id="mask3" mask-type="alpha" maskUnits="userSpaceOnUse" x="40" y="21" width="5" height="7">
<path fill-rule="evenodd" clip-rule="evenodd" d="M40.7891 21.4946C41.1651 21.3969 41.5646 21.3636 41.9759 21.4138C43.7591 21.6314 45.058 23.2729 44.877 25.08C44.6964 26.8875 43.1043 28.1764 41.3212 27.9588C40.9185 27.9095 40.5425 27.7847 40.2012 27.6047L40.7891 21.4946Z" fill="white"/>
</mask>
<g mask="url(#mask3)">
<path fill-rule="evenodd" clip-rule="evenodd" d="M40.7891 21.4946C41.1651 21.3969 41.5646 21.3636 41.9759 21.4138C43.7591 21.6314 45.058 23.2729 44.877 25.08C44.6964 26.8875 43.1043 28.1764 41.3212 27.9588C40.9185 27.9095 40.5425 27.7847 40.2012 27.6047L40.7891 21.4946Z" fill="url(#paint2_linear)"/>
</g>
<path fill-rule="evenodd" clip-rule="evenodd" d="M48.2234 51.9939C48.9547 54.4016 52 64.9566 52 64.9566L46.8487 66.0679L51.104 69.8462L25 94.1172C25 94.1172 42.484 49.5657 42.8297 48.1172C42.8297 48.1172 46.6352 49.64 47.5619 50.3925C47.7938 50.5812 48.0354 51.3742 48.2234 51.9939Z" fill="#B5B4B4"/>
<path fill-rule="evenodd" clip-rule="evenodd" d="M16.0911 56.1493L18.9523 58.687L15 59.8316L16.4394 92.1172C16.4394 92.1172 19.8954 79.9195 22.3723 67.8995C24.2094 58.9832 25.3209 49.1618 26 47.1172C26 47.1172 23.891 48.1112 23.1607 48.6056C22.6948 48.9212 16.0911 56.1493 16.0911 56.1493Z" fill="#B5B4B4"/>
<path fill-rule="evenodd" clip-rule="evenodd" d="M25.0451 6.39284C26.8193 5.08579 30.2431 3.50802 34.4298 4.35704C42.0853 5.91097 42.9716 18.5062 43 19.0431L41.4293 19.1172C41.4228 18.9969 40.5781 7.12133 34.0991 5.80657C31.6549 5.30907 29.5672 6.02649 28.1246 6.62046C28.0757 6.64031 24.9257 6.49663 25.0013 6.44081L25.0451 6.39284Z" fill="#A80000"/>
<path fill-rule="evenodd" clip-rule="evenodd" d="M29.0243 36.3608H31.2457C31.6947 36.3608 32.0741 36.7105 32.2117 37.1901C34.7947 36.946 37.1689 35.2218 38.5131 32.5629L40.2552 29.1172L41 29.6481L39.2577 33.0937C37.7602 36.0559 35.1089 37.9717 32.2285 38.2239C32.1078 38.7365 31.7144 39.1172 31.2457 39.1172H29.0243C28.4608 39.1172 28 38.5697 28 37.9007V37.5769C28 36.908 28.4608 36.3608 29.0243 36.3608Z" fill="#500C0C"/>
<path fill-rule="evenodd" clip-rule="evenodd" d="M38.0529 24.1791C37.6547 27.2067 39.5467 29.8576 42.2786 30.0994C45.0111 30.3415 47.5488 28.0832 47.9471 25.0553C48.3453 22.0277 46.4533 19.3768 43.7211 19.135C40.9892 18.8929 38.4512 21.1514 38.0529 24.1791Z" fill="#500C0C"/>
<path fill-rule="evenodd" clip-rule="evenodd" d="M40.0567 24.2393C39.6881 27.2695 41.1549 29.8951 43.3329 30.104C45.5106 30.3126 47.5748 28.0253 47.9434 24.9951C48.3115 21.9647 46.8448 19.3391 44.667 19.1304C42.489 18.9215 40.4251 21.2089 40.0567 24.2393Z" fill="#B5B4B4"/>
<path fill-rule="evenodd" clip-rule="evenodd" d="M40.0423 24.7188C39.7238 27.4711 41.2375 29.8808 43.4234 30.101C45.609 30.321 47.6392 28.2682 47.9577 25.5156C48.2762 22.7633 46.7625 20.3536 44.5766 20.1333C42.391 19.9133 40.3605 21.9662 40.0423 24.7188Z" fill="#EE0033"/>
<path fill-rule="evenodd" clip-rule="evenodd" d="M41.05 24.7752C40.7262 27.5303 42.0084 29.9165 43.9138 30.1052C45.8195 30.2945 47.6265 28.2144 47.95 25.4593C48.2738 22.7046 46.9916 20.3181 45.0862 20.1291C43.1805 19.9403 41.3735 22.0204 41.05 24.7752Z" fill="#A80000"/>
<path fill-rule="evenodd" clip-rule="evenodd" d="M10.9018 82.2669C10.9018 82.2669 11.2456 59.9182 10.6468 59.3464C9.70931 58.451 7.25524 60.3829 6.12651 61.6302C3.02493 65.0577 -11.8057 96.3932 -8.53074 108.298C-8.03062 110.117 -2.56103 112.117 -2.56103 112.117C-2.56103 112.117 5.42711 104.367 5.73039 103.682C7.76433 99.0948 10.2894 84.2397 10.2894 84.2397C10.6926 83.6527 10.9047 82.9689 10.9018 82.2669Z" fill="#A80000"/>
<path fill-rule="evenodd" clip-rule="evenodd" d="M52 81.1031C52 81.1031 55.3078 54.7202 56.1278 54.2014C57.4116 53.3886 63.1952 58.6753 64.5604 60.7966C68.3226 66.641 71.1733 80.3863 72.2881 86.388C73.6278 93.6143 74.679 106.12 73.4655 112.767C73.0919 114.815 70.8534 121.117 70.8534 121.117L55.6548 99.6421L52 81.1031Z" fill="#A80000"/>
<path d="M31 21.3904C31 21.3904 35.2912 20.4694 36.6456 21.3904" stroke="#1A4C7E"/>
<path fill-rule="evenodd" clip-rule="evenodd" d="M33 25.1172C33.5523 25.1172 34 24.6695 34 24.1172C34 23.5649 33.5523 23.1172 33 23.1172C32.4477 23.1172 32 23.5649 32 24.1172C32 24.6695 32.4477 25.1172 33 25.1172Z" fill="#1B3753"/>
<path fill-rule="evenodd" clip-rule="evenodd" d="M25 24.1172C25.5523 24.1172 26 23.6695 26 23.1172C26 22.5649 25.5523 22.1172 25 22.1172C24.4477 22.1172 24 22.5649 24 23.1172C24 23.6695 24.4477 24.1172 25 24.1172Z" fill="#1B3753"/>
<path d="M27 21.4531C27 21.4531 26.2066 20.1172 24 20.1172" stroke="#1A4C7E"/>
<path d="M25.6934 33.5332C25.6934 33.5332 29.7482 37.5332 34.4993 33.5332" stroke="#EEADA8" stroke-linecap="round"/>
</g>
<defs>
<linearGradient id="paint0_linear" x1="42.1724" y1="59.7336" x2="49.6875" y2="28.1617" gradientUnits="userSpaceOnUse">
<stop stop-color="#FFDCD7"/>
<stop offset="1" stop-color="#FFAFA9"/>
</linearGradient>
<linearGradient id="paint1_linear" x1="25.7293" y1="20.1681" x2="21.0358" y2="20.1171" gradientUnits="userSpaceOnUse">
<stop stop-color="#F5CBC6"/>
<stop offset="1" stop-color="#EBA49F"/>
</linearGradient>
<linearGradient id="paint2_linear" x1="45.1577" y1="20.5447" x2="38.6766" y2="20.1439" gradientUnits="userSpaceOnUse">
<stop stop-color="#F5CBC6"/>
<stop offset="1" stop-color="#EBA49F"/>
</linearGradient>
</defs>
</svg>
