<svg width="50" height="50" viewBox="0 0 50 50" fill="none" xmlns="http://www.w3.org/2000/svg">
<path d="M11.2 20.4C16.281 20.4 20.4 16.281 20.4 11.2C20.4 6.11899 16.281 2 11.2 2C6.11899 2 2 6.11899 2 11.2C2 16.281 6.11899 20.4 11.2 20.4Z" stroke="white" stroke-width="3" stroke-miterlimit="10" stroke-linecap="square"/>
<path d="M38.7996 47.9996C43.8806 47.9996 47.9996 43.8806 47.9996 38.7996C47.9996 33.7186 43.8806 29.5996 38.7996 29.5996C33.7186 29.5996 29.5996 33.7186 29.5996 38.7996C29.5996 43.8806 33.7186 47.9996 38.7996 47.9996Z" stroke="white" stroke-width="3" stroke-miterlimit="10" stroke-linecap="square"/>
<path d="M28.0664 12.7334H37.2664C40.6398 12.7334 43.3998 15.4934 43.3998 18.8667V23.4667" stroke="white" stroke-width="3" stroke-miterlimit="10"/>
<path d="M21.933 37.2665H12.7329C9.35961 37.2665 6.59961 34.5065 6.59961 31.1332V26.5332" stroke="white" stroke-width="3" stroke-miterlimit="10"/>
<path d="M34.1997 6.59961L28.0664 12.733L34.1997 18.8663" stroke="white" stroke-width="3" stroke-miterlimit="10" stroke-linecap="square"/>
<path d="M15.7998 31.1328L21.9331 37.2662L15.7998 43.3995" stroke="white" stroke-width="3" stroke-miterlimit="10" stroke-linecap="square"/>
</svg>
