<svg width="47" height="46" viewBox="0 0 47 46" fill="none" xmlns="http://www.w3.org/2000/svg">
<g clip-path="url(#clip0)">
<path d="M12.236 21.1631V1.46973H36.5545L45.3443 12.639V38.9458H4.03223" stroke="white" stroke-width="3" stroke-linecap="round" stroke-linejoin="round"/>
<path d="M27.296 30.4898H25.472V32.8418H22.944V30.4898H16.912V28.7458L22.192 21.6418H24.912L20.016 28.3778H23.024V26.2818H25.472V28.3778H27.296V30.4898ZM36.4995 27.0658H38.8675V31.6098C38.2595 32.0685 37.5555 32.4205 36.7555 32.6658C35.9555 32.9111 35.1502 33.0338 34.3395 33.0338C33.1768 33.0338 32.1315 32.7885 31.2035 32.2978C30.2755 31.7965 29.5448 31.1085 29.0115 30.2338C28.4888 29.3485 28.2275 28.3511 28.2275 27.2418C28.2275 26.1325 28.4888 25.1405 29.0115 24.2658C29.5448 23.3805 30.2808 22.6925 31.2195 22.2018C32.1582 21.7005 33.2142 21.4498 34.3875 21.4498C35.3688 21.4498 36.2595 21.6151 37.0595 21.9458C37.8595 22.2765 38.5315 22.7565 39.0755 23.3858L37.4115 24.9218C36.6115 24.0791 35.6462 23.6578 34.5155 23.6578C33.8008 23.6578 33.1662 23.8071 32.6115 24.1058C32.0568 24.4045 31.6248 24.8258 31.3155 25.3698C31.0062 25.9138 30.8515 26.5378 30.8515 27.2418C30.8515 27.9351 31.0062 28.5538 31.3155 29.0978C31.6248 29.6418 32.0515 30.0685 32.5955 30.3778C33.1502 30.6765 33.7795 30.8258 34.4835 30.8258C35.2302 30.8258 35.9022 30.6658 36.4995 30.3458V27.0658Z" fill="white"/>
<path d="M7.84128 33.5078L2.27441 38.9454L7.84128 44.5301" stroke="white" stroke-width="3" stroke-linecap="round" stroke-linejoin="round"/>
</g>
<defs>
<clipPath id="clip0">
<rect width="47" height="46" fill="white"/>
</clipPath>
</defs>
</svg>
