<svg width="30" height="26" fill="none" xmlns="http://www.w3.org/2000/svg"><path fill-rule="evenodd" clip-rule="evenodd" d="M1.25 13c.69 0 1.25.56 1.25 1.25v7.5A1.25 1.25 0 003.75 23h22.5a1.25 1.25 0 001.25-1.25v-7.5a1.25 1.25 0 112.5 0v7.5a3.75 3.75 0 01-3.75 3.75H3.75A3.75 3.75 0 010 21.75v-7.5C0 13.56.56 13 1.25 13z" fill="#EE0033"/><path fill-rule="evenodd" clip-rule="evenodd" d="M1.098 1.598A3.75 3.75 0 013.75.5h22.5A3.75 3.75 0 0130 4.25V8c0 .457-.25.878-.651 1.097l-13.75 7.5a1.25 1.25 0 01-1.198 0l-13.75-7.5A1.25 1.25 0 010 8V4.25a3.75 3.75 0 011.098-2.652zM3.75 3A1.25 1.25 0 002.5 4.25v3.008L15 14.076l12.5-6.818V4.25A1.25 1.25 0 0026.25 3H3.75z" fill="#EE0033"/></svg>