<svg width="30" height="30" fill="none" xmlns="http://www.w3.org/2000/svg"><path fill-rule="evenodd" clip-rule="evenodd" d="M13.75 28.75V1.25h2.5v27.5h-2.5z" fill="#EE0033"/><path fill-rule="evenodd" clip-rule="evenodd" d="M11.257 5.836c-1.14 2.28-1.882 5.519-1.882 9.164 0 3.645.741 6.883 1.882 9.164C12.434 26.519 13.83 27.5 15 27.5s2.566-.98 3.743-3.336c1.14-2.28 1.882-5.519 1.882-9.164 0-3.645-.741-6.883-1.882-9.164C17.566 3.481 16.17 2.5 15 2.5s-2.566.98-3.743 3.336zM9.02 4.718C10.33 2.098 12.373 0 15 0c2.627 0 4.669 2.097 5.98 4.718 1.347 2.696 2.145 6.333 2.145 10.282s-.798 7.586-2.146 10.282C19.67 27.902 17.627 30 15 30c-2.627 0-4.669-2.097-5.98-4.718C7.674 22.586 6.876 18.949 6.876 15s.798-7.586 2.146-10.282z" fill="#EE0033"/><path fill-rule="evenodd" clip-rule="evenodd" d="M28.75 16.25H1.25v-2.5h27.5v2.5z" fill="#EE0033"/><path fill-rule="evenodd" clip-rule="evenodd" d="M15 2.5C8.096 2.5 2.5 8.096 2.5 15S8.096 27.5 15 27.5 27.5 21.904 27.5 15 21.904 2.5 15 2.5zM0 15C0 6.716 6.716 0 15 0c8.284 0 15 6.716 15 15 0 8.284-6.716 15-15 15-8.284 0-15-6.716-15-15z" fill="#EE0033"/></svg>