<svg width="30" height="30" fill="none" xmlns="http://www.w3.org/2000/svg"><path fill-rule="evenodd" clip-rule="evenodd" d="M4.116 1.616a1.25 1.25 0 011.768 0l6.25 6.25a1.25 1.25 0 010 1.768L9.268 12.5l8.232 8.232 2.866-2.866a1.25 1.25 0 011.768 0l6.25 6.25a1.25 1.25 0 010 1.768l-3.75 3.75a1.25 1.25 0 01-.884.366C10.633 30 0 19.367 0 6.25c0-.332.132-.65.366-.884l3.75-3.75zm-1.61 5.146c.268 11.33 9.403 20.464 20.732 20.732L25.732 25l-4.482-4.482-2.866 2.866a1.25 1.25 0 01-1.768 0l-10-10a1.25 1.25 0 010-1.768L9.482 8.75 5 4.268 2.506 6.762z" fill="#EE0033"/><path fill-rule="evenodd" clip-rule="evenodd" d="M16.25 1.25c0-.69.56-1.25 1.25-1.25C24.404 0 30 5.596 30 12.5a1.25 1.25 0 11-2.5 0c0-5.523-4.477-10-10-10-.69 0-1.25-.56-1.25-1.25z" fill="#FE9A00"/><path fill-rule="evenodd" clip-rule="evenodd" d="M16.25 6.25c0-.69.56-1.25 1.25-1.25a7.5 7.5 0 017.5 7.5 1.25 1.25 0 11-2.5 0 5 5 0 00-5-5c-.69 0-1.25-.56-1.25-1.25z" fill="#FE9A00"/></svg>