<svg width="30" height="30" fill="none" xmlns="http://www.w3.org/2000/svg"><path fill-rule="evenodd" clip-rule="evenodd" d="M7.007 3.504a1.25 1.25 0 011.677-.56l15 7.5a1.25 1.25 0 01-1.118 2.237l-15-7.5a1.25 1.25 0 01-.559-1.677z" fill="#FE9A00"/><path fill-rule="evenodd" clip-rule="evenodd" d="M.132 6.941a1.25 1.25 0 011.677-.559l14.441 7.22 11.941-5.97a1.25 1.25 0 111.118 2.236l-12.5 6.25a1.25 1.25 0 01-1.118 0l-15-7.5a1.25 1.25 0 01-.559-1.677z" fill="#EE0033"/><path fill-rule="evenodd" clip-rule="evenodd" d="M16.25 13.75c.69 0 1.25.56 1.25 1.25v13.75a1.25 1.25 0 11-2.5 0V15c0-.69.56-1.25 1.25-1.25z" fill="#EE0033"/><path fill-rule="evenodd" clip-rule="evenodd" d="M13.191.132a1.25 1.25 0 011.118 0l15 7.5c.424.212.691.645.691 1.118v12.5c0 .44-.23.846-.607 1.072l-12.5 7.5a1.25 1.25 0 01-1.202.046l-15-7.5A1.25 1.25 0 010 21.25V7.5c0-.473.268-.906.691-1.118l12.5-6.25zM2.5 8.272v12.205l13.695 6.848L27.5 20.542V9.522L13.75 2.649 2.5 8.273z" fill="#EE0033"/></svg>