<svg width="44" height="44" viewBox="0 0 44 44" fill="none" xmlns="http://www.w3.org/2000/svg">
<mask id="path-1-outside-1" maskUnits="userSpaceOnUse" x="3.80814" y="22.8142" width="36.6459" height="20.7173" fill="black">
<rect fill="white" x="3.80814" y="22.8142" width="36.6459" height="20.7173"/>
<path fill-rule="evenodd" clip-rule="evenodd" d="M9.08831 30.1469C9.08616 30.1467 9.08422 30.1455 9.08302 30.1437V30.1437C9.08078 30.1403 9.07625 30.1394 9.07289 30.1417L9.07114 30.1428C9.06931 30.144 9.0671 30.1446 9.06491 30.1443L7.61693 29.9855C6.87984 29.9046 6.36883 30.7025 6.75063 31.3382L6.90283 31.5916C6.90744 31.5993 6.91449 31.6052 6.92286 31.6084V31.6084C6.9306 31.6114 6.93724 31.6166 6.94186 31.6235C8.75422 34.3292 11.2698 36.4902 14.2185 37.8739C17.1831 39.2651 20.4723 39.8174 23.7287 39.4708C26.9852 39.1242 30.0844 37.892 32.6898 35.908C35.0333 34.1234 36.8967 31.792 38.121 29.1239C38.3481 28.629 38.0967 28.0552 37.5901 27.8557L37.0032 27.6245C36.4966 27.425 35.9271 27.6756 35.6954 28.1683C34.6484 30.3948 33.0783 32.3411 31.1132 33.8375C28.8861 35.5334 26.2369 36.5867 23.4533 36.8829C20.6697 37.1792 17.8582 36.7071 15.324 35.5179C14.1475 34.9658 13.0517 34.269 12.0601 33.4476C11.6266 33.0886 11.6545 32.4287 12.0923 32.0749V32.0749C12.7369 31.554 12.4319 30.5138 11.6081 30.4234L9.08831 30.1469Z"/>
</mask>
<path fill-rule="evenodd" clip-rule="evenodd" d="M9.08831 30.1469C9.08616 30.1467 9.08422 30.1455 9.08302 30.1437V30.1437C9.08078 30.1403 9.07625 30.1394 9.07289 30.1417L9.07114 30.1428C9.06931 30.144 9.0671 30.1446 9.06491 30.1443L7.61693 29.9855C6.87984 29.9046 6.36883 30.7025 6.75063 31.3382L6.90283 31.5916C6.90744 31.5993 6.91449 31.6052 6.92286 31.6084V31.6084C6.9306 31.6114 6.93724 31.6166 6.94186 31.6235C8.75422 34.3292 11.2698 36.4902 14.2185 37.8739C17.1831 39.2651 20.4723 39.8174 23.7287 39.4708C26.9852 39.1242 30.0844 37.892 32.6898 35.908C35.0333 34.1234 36.8967 31.792 38.121 29.1239C38.3481 28.629 38.0967 28.0552 37.5901 27.8557L37.0032 27.6245C36.4966 27.425 35.9271 27.6756 35.6954 28.1683C34.6484 30.3948 33.0783 32.3411 31.1132 33.8375C28.8861 35.5334 26.2369 36.5867 23.4533 36.8829C20.6697 37.1792 17.8582 36.7071 15.324 35.5179C14.1475 34.9658 13.0517 34.269 12.0601 33.4476C11.6266 33.0886 11.6545 32.4287 12.0923 32.0749V32.0749C12.7369 31.554 12.4319 30.5138 11.6081 30.4234L9.08831 30.1469Z" fill="white"/>
<path d="M14.2185 37.8739L13.7159 38.9449L13.7159 38.9449L14.2185 37.8739ZM23.7287 39.4708L23.6035 38.2944L23.7287 39.4708ZM32.6898 35.908L31.9731 34.9668L31.9731 34.9668L32.6898 35.908ZM31.1132 33.8375L31.8299 34.7787L31.1132 33.8375ZM15.324 35.5179L15.8266 34.4469L15.8266 34.4469L15.324 35.5179ZM37.5901 27.8557L37.1565 28.9564L37.5901 27.8557ZM6.94186 31.6235L5.95894 32.2819L6.94186 31.6235ZM11.6081 30.4234L11.479 31.5994L11.6081 30.4234ZM6.90283 31.5916L7.917 30.9824L6.90283 31.5916ZM7.61693 29.9855L7.48789 31.1615L7.61693 29.9855ZM9.07114 30.1428L8.41565 29.158L9.07114 30.1428ZM9.06491 30.1443L8.93587 31.3203L9.06491 30.1443ZM9.07289 30.1417L8.41739 29.1568L9.07289 30.1417ZM9.08831 30.1469L8.95927 31.3229L9.08831 30.1469ZM8.41739 29.1568L8.41565 29.158L9.72663 31.1277L9.72838 31.1265L8.41739 29.1568ZM9.19395 28.9683L7.74597 28.8095L7.48789 31.1615L8.93587 31.3203L9.19395 28.9683ZM5.73645 31.9474L5.88865 32.2008L7.917 30.9824L7.7648 30.7291L5.73645 31.9474ZM5.95894 32.2819C7.89094 35.1662 10.5725 37.4698 13.7159 38.9449L14.721 36.8029C11.967 35.5105 9.6175 33.4922 7.92477 30.9651L5.95894 32.2819ZM13.7159 38.9449C16.8762 40.4279 20.3825 41.0167 23.8539 40.6472L23.6035 38.2944C20.562 38.6181 17.49 38.1023 14.721 36.8029L13.7159 38.9449ZM23.8539 40.6472C27.3253 40.2777 30.6292 38.9642 33.4066 36.8492L31.9731 34.9668C29.5397 36.8198 26.645 37.9707 23.6035 38.2944L23.8539 40.6472ZM33.4066 36.8492C35.9048 34.9468 37.8912 32.4615 39.1963 29.6173L37.0458 28.6305C35.9023 31.1224 34.1619 33.3 31.9731 34.9668L33.4066 36.8492ZM38.0236 26.7549L37.4367 26.5238L36.5697 28.7253L37.1565 28.9564L38.0236 26.7549ZM34.6248 27.6649C33.6587 29.7194 32.2098 31.5154 30.3964 32.8963L31.8299 34.7787C33.9468 33.1667 35.6382 31.0702 36.766 28.6718L34.6248 27.6649ZM30.3964 32.8963C28.3413 34.4612 25.8967 35.4332 23.3281 35.7065L23.5785 38.0594C26.577 37.7402 29.4308 36.6056 31.8299 34.7787L30.3964 32.8963ZM23.3281 35.7065C20.7595 35.9799 18.1651 35.5443 15.8266 34.4469L14.8215 36.5889C17.5513 37.8699 20.58 38.3785 23.5785 38.0594L23.3281 35.7065ZM15.8266 34.4469C14.741 33.9375 13.7298 33.2945 12.8147 32.5365L11.3054 34.3588C12.3737 35.2436 13.5541 35.9942 14.8215 36.5889L15.8266 34.4469ZM11.7371 29.2474L9.21734 28.9709L8.95927 31.3229L11.479 31.5994L11.7371 29.2474ZM37.4367 26.5238C36.3054 26.0782 35.1012 26.6517 34.6248 27.6649L36.766 28.6718C36.7553 28.6944 36.7357 28.7143 36.7072 28.7264C36.6756 28.7398 36.6231 28.7463 36.5697 28.7253L37.4367 26.5238ZM39.1963 29.6173C39.7245 28.4661 39.1211 27.1872 38.0236 26.7549L37.1565 28.9564C37.1084 28.9375 37.0654 28.8971 37.0418 28.8415C37.0168 28.7827 37.0128 28.7022 37.0458 28.6305L39.1963 29.6173ZM6.5003 32.7134C6.27897 32.6288 6.09009 32.4777 5.95894 32.2819L7.92477 30.9651C7.78439 30.7556 7.58223 30.5939 7.34541 30.5034L6.5003 32.7134ZM12.8359 32.9951C14.2987 31.8129 13.6066 29.4525 11.7371 29.2474L11.479 31.5994C11.44 31.5951 11.3862 31.5748 11.34 31.5341C11.2986 31.4976 11.2762 31.4566 11.2656 31.4206C11.255 31.3845 11.2517 31.3379 11.2669 31.2849C11.2838 31.2256 11.3181 31.1795 11.3487 31.1548L12.8359 32.9951ZM5.88865 32.2008C6.02948 32.4352 6.24483 32.6157 6.5003 32.7134L7.34541 30.5034C7.58415 30.5947 7.78539 30.7633 7.917 30.9824L5.88865 32.2008ZM12.8147 32.5365C12.896 32.6039 12.9346 32.7069 12.932 32.7943C12.9296 32.8764 12.8921 32.9496 12.8359 32.9951L11.3487 31.1548C10.3756 31.9412 10.2515 33.4859 11.3054 34.3588L12.8147 32.5365ZM7.74597 28.8095C6.03618 28.6219 4.85081 30.4729 5.73645 31.9474L7.7648 30.7291C7.88684 30.9322 7.7235 31.1873 7.48789 31.1615L7.74597 28.8095ZM8.41565 29.158C8.64482 29.0054 8.92031 28.9383 9.19395 28.9683L8.93587 31.3203C9.2139 31.3508 9.4938 31.2826 9.72663 31.1277L8.41565 29.158ZM10.0676 29.4878C9.70345 28.9412 8.96487 28.7924 8.41739 29.1568L9.72838 31.1265C9.18762 31.4864 8.45812 31.3395 8.09845 30.7996L10.0676 29.4878ZM8.09845 30.7996C8.29389 31.093 8.60918 31.2845 8.95927 31.3229L9.21734 28.9709C9.56313 29.0089 9.87455 29.198 10.0676 29.4878L8.09845 30.7996Z" fill="white" mask="url(#path-1-outside-1)"/>
<mask id="path-3-outside-2" maskUnits="userSpaceOnUse" x="3.38892" y="-0.375687" width="37.2812" height="22.4154" fill="black">
<rect fill="white" x="3.38892" y="-0.375687" width="37.2812" height="22.4154"/>
<path fill-rule="evenodd" clip-rule="evenodd" d="M34.8956 14.5374C34.8978 14.5378 34.8997 14.5391 34.9008 14.541V14.541C34.9029 14.5445 34.9074 14.5456 34.9109 14.5435L34.9127 14.5425C34.9146 14.5413 34.9169 14.5409 34.9191 14.5413L36.3567 14.7758C37.0886 14.8952 37.6407 14.1252 37.2927 13.4704L37.1541 13.2094C37.1499 13.2015 37.1431 13.1951 37.1348 13.1915V13.1915C37.1272 13.1881 37.1208 13.1824 37.1165 13.1752C35.4485 10.3784 33.0497 8.08859 30.1777 6.55225C27.29 5.00756 24.0343 4.28359 20.7642 4.45899C17.4941 4.63439 14.3345 5.70245 11.6286 7.54716C9.19481 9.20643 7.21176 11.437 5.8493 14.0372C5.59659 14.5195 5.8176 15.1057 6.31306 15.3315L6.88697 15.5931C7.38243 15.8189 7.96432 15.5985 8.22152 15.1186C9.38373 12.9501 11.0538 11.0888 13.0946 9.69747C15.4075 8.12062 18.1083 7.20766 20.9036 7.05773C23.6989 6.9078 26.4818 7.52664 28.9501 8.84703C30.0961 9.46003 31.1539 10.2134 32.1011 11.0856C32.5151 11.4668 32.4527 12.1244 31.997 12.4547V12.4547C31.326 12.9411 31.576 13.9958 32.394 14.1293L34.8956 14.5374Z"/>
</mask>
<path fill-rule="evenodd" clip-rule="evenodd" d="M34.8956 14.5374C34.8978 14.5378 34.8997 14.5391 34.9008 14.541V14.541C34.9029 14.5445 34.9074 14.5456 34.9109 14.5435L34.9127 14.5425C34.9146 14.5413 34.9169 14.5409 34.9191 14.5413L36.3567 14.7758C37.0886 14.8952 37.6407 14.1252 37.2927 13.4704L37.1541 13.2094C37.1499 13.2015 37.1431 13.1951 37.1348 13.1915V13.1915C37.1272 13.1881 37.1208 13.1824 37.1165 13.1752C35.4485 10.3784 33.0497 8.08859 30.1777 6.55225C27.29 5.00756 24.0343 4.28359 20.7642 4.45899C17.4941 4.63439 14.3345 5.70245 11.6286 7.54716C9.19481 9.20643 7.21176 11.437 5.8493 14.0372C5.59659 14.5195 5.8176 15.1057 6.31306 15.3315L6.88697 15.5931C7.38243 15.8189 7.96432 15.5985 8.22152 15.1186C9.38373 12.9501 11.0538 11.0888 13.0946 9.69747C15.4075 8.12062 18.1083 7.20766 20.9036 7.05773C23.6989 6.9078 26.4818 7.52664 28.9501 8.84703C30.0961 9.46003 31.1539 10.2134 32.1011 11.0856C32.5151 11.4668 32.4527 12.1244 31.997 12.4547V12.4547C31.326 12.9411 31.576 13.9958 32.394 14.1293L34.8956 14.5374Z" fill="white"/>
<path d="M30.1777 6.55225L29.6196 7.59543L29.6196 7.59543L30.1777 6.55225ZM20.7642 4.45899L20.8276 5.64035L20.7642 4.45899ZM11.6286 7.54716L12.295 8.52467L12.295 8.52467L11.6286 7.54716ZM13.0946 9.69747L13.761 10.675L13.761 10.675L13.0946 9.69747ZM20.9036 7.05773L20.967 8.23909L20.967 8.23909L20.9036 7.05773ZM28.9501 8.84703L28.3921 9.8902L28.3921 9.8902L28.9501 8.84703ZM6.88697 15.5931L6.39634 16.6696L6.88697 15.5931ZM6.31306 15.3315L5.82242 16.408L6.31306 15.3315ZM37.1165 13.1752L38.1326 12.5692L37.1165 13.1752ZM37.1541 13.2094L36.1094 13.7646L37.1541 13.2094ZM37.2927 13.4704L38.3375 12.9152L37.2927 13.4704ZM34.9127 14.5425L35.5157 15.5603L34.9127 14.5425ZM34.9191 14.5413L35.1096 13.3737L34.9191 14.5413ZM34.9109 14.5435L34.3079 13.5257L34.9109 14.5435ZM34.8956 14.5374L35.0861 13.3698L34.8956 14.5374ZM35.5139 15.5614L35.5157 15.5603L34.3097 13.5246L34.3079 13.5257L35.5139 15.5614ZM34.7286 15.7089L36.1662 15.9434L36.5472 13.6082L35.1096 13.3737L34.7286 15.7089ZM38.3375 12.9152L38.1988 12.6543L36.1094 13.7646L36.248 14.0255L38.3375 12.9152ZM38.1326 12.5692C36.3544 9.58779 33.7973 7.14683 30.7357 5.50908L29.6196 7.59543C32.3021 9.03036 34.5425 11.169 36.1004 13.7812L38.1326 12.5692ZM30.7357 5.50908C27.6574 3.86241 24.1868 3.09066 20.7008 3.27764L20.8276 5.64035C23.8818 5.47653 26.9226 6.1527 29.6196 7.59543L30.7357 5.50908ZM20.7008 3.27764C17.2148 3.46462 13.8467 4.60318 10.9622 6.56966L12.295 8.52467C14.8223 6.80172 17.7733 5.80417 20.8276 5.64035L20.7008 3.27764ZM10.9622 6.56966C8.36773 8.33846 6.25378 10.7163 4.80138 13.4881L6.89721 14.5863C8.16973 12.1577 10.0219 10.0744 12.295 8.52467L10.9622 6.56966ZM5.82242 16.408L6.39634 16.6696L7.37761 14.5166L6.80369 14.255L5.82242 16.408ZM9.26426 15.6775C10.3367 13.6764 11.8778 11.9589 13.761 10.675L12.4282 8.71996C10.2297 10.2188 8.43075 12.2238 7.17878 14.5598L9.26426 15.6775ZM13.761 10.675C15.8953 9.2199 18.3875 8.37744 20.967 8.23909L20.8402 5.87638C17.8291 6.03788 14.9197 7.02135 12.4282 8.71996L13.761 10.675ZM20.967 8.23909C23.5464 8.10073 26.1144 8.67178 28.3921 9.8902L29.5082 7.80385C26.8492 6.38149 23.8514 5.71487 20.8402 5.87638L20.967 8.23909ZM28.3921 9.8902C29.4495 10.4559 30.4256 11.151 31.2998 11.9559L32.9025 10.2153C31.8821 9.2757 30.7426 8.46419 29.5082 7.80385L28.3921 9.8902ZM32.2035 15.2969L34.7051 15.7051L35.0861 13.3698L32.5845 12.9617L32.2035 15.2969ZM6.39634 16.6696C7.50274 17.1739 8.73538 16.6643 9.26426 15.6775L7.17878 14.5598C7.19058 14.5377 7.21124 14.5188 7.24032 14.5083C7.27261 14.4966 7.32538 14.4928 7.37761 14.5166L6.39634 16.6696ZM4.80138 13.4881C4.21355 14.61 4.7491 15.9189 5.82242 16.408L6.80369 14.255C6.85077 14.2765 6.89162 14.3191 6.91226 14.3758C6.93414 14.4358 6.93385 14.5164 6.89721 14.5863L4.80138 13.4881ZM37.6147 12.1101C37.8313 12.2062 38.0119 12.3669 38.1326 12.5692L36.1004 13.7812C36.2296 13.9979 36.4231 14.1699 36.6549 14.2728L37.6147 12.1101ZM31.3026 11.4968C29.7799 12.6007 30.3473 14.994 32.2035 15.2969L32.5845 12.9617C32.6232 12.968 32.6759 12.9911 32.7199 13.0342C32.7593 13.0727 32.7796 13.1149 32.7882 13.1515C32.7969 13.1881 32.7978 13.2348 32.7799 13.2869C32.7598 13.3452 32.7231 13.3895 32.6913 13.4125L31.3026 11.4968ZM38.1988 12.6543C38.0704 12.4127 37.8648 12.2211 37.6147 12.1101L36.6549 14.2728C36.4214 14.1692 36.2293 13.9902 36.1094 13.7646L38.1988 12.6543ZM31.2998 11.9559C31.2221 11.8844 31.1889 11.7795 31.1961 11.6923C31.2028 11.6104 31.2441 11.5393 31.3026 11.4968L32.6913 13.4125C33.7043 12.6783 33.9092 11.1422 32.9025 10.2153L31.2998 11.9559ZM36.1662 15.9434C37.8638 16.2204 39.1446 14.4341 38.3375 12.9152L36.248 14.0255C36.1368 13.8162 36.3133 13.5701 36.5472 13.6082L36.1662 15.9434ZM35.5157 15.5603C35.2789 15.7006 35.0003 15.7532 34.7286 15.7089L35.1096 13.3737C34.8335 13.3286 34.5504 13.3821 34.3097 13.5246L35.5157 15.5603ZM33.8833 15.1445C34.2183 15.7094 34.9481 15.8966 35.5139 15.5614L34.3079 13.5257C34.8667 13.1946 35.5874 13.3795 35.9183 13.9374L33.8833 15.1445ZM35.9183 13.9374C35.7385 13.6343 35.4338 13.4265 35.0861 13.3698L34.7051 15.7051C34.3618 15.649 34.0608 15.4439 33.8833 15.1445L35.9183 13.9374Z" fill="white" mask="url(#path-3-outside-2)"/>
<path d="M26.8358 28.941C30.4505 28.941 33.3922 25.9992 33.3922 22.3846C33.3922 18.7699 30.4505 15.8281 26.8358 15.8281C23.2211 15.8281 20.2793 18.7699 20.2793 22.3846C20.2793 25.9992 23.2182 28.941 26.8358 28.941Z" fill="#DCDCDC"/>
<path d="M18.0938 28.941C21.7085 28.941 24.6503 25.9992 24.6503 22.3846C24.6503 18.7699 21.7085 15.8281 18.0938 15.8281C14.4791 15.8281 11.5374 18.7699 11.5374 22.3846C11.5374 25.9992 14.4763 28.941 18.0938 28.941Z" fill="#92001F"/>
</svg>
