<svg width="44" height="44" viewBox="0 0 44 44" fill="none" xmlns="http://www.w3.org/2000/svg">
<mask id="path-1-outside-1" maskUnits="userSpaceOnUse" x="4.78269" y="23.2752" width="34.6359" height="20.5363" fill="black">
<rect fill="white" x="4.78269" y="23.2752" width="34.6359" height="20.5363"/>
<path fill-rule="evenodd" clip-rule="evenodd" d="M9.86655 31.0406C9.86486 31.0404 9.86334 31.0395 9.8624 31.038V31.038C9.86065 31.0354 9.85707 31.0346 9.85443 31.0364L9.85307 31.0373C9.85163 31.0383 9.8499 31.0387 9.84817 31.0385L8.49772 30.8889C7.80236 30.8118 7.31976 31.5626 7.67775 32.1646L7.821 32.4054C7.82557 32.4131 7.8326 32.4191 7.84094 32.4223V32.4223C7.84867 32.4253 7.85529 32.4306 7.85987 32.4375C9.55553 34.9939 11.909 37.0357 14.6678 38.3432C17.4416 39.6577 20.519 40.1795 23.5658 39.8521C26.6125 39.5246 29.5122 38.3603 31.9499 36.4856C34.1292 34.8096 35.8648 32.6231 37.0105 30.1212C37.2363 29.6281 36.9852 29.0562 36.4808 28.8556L36.0484 28.6836C35.5404 28.4816 34.969 28.7327 34.7365 29.2268C33.7571 31.3079 32.2975 33.1274 30.4748 34.5292C28.3911 36.1316 25.9124 37.1269 23.3081 37.4068C20.7037 37.6867 18.0732 37.2407 15.7022 36.117C14.6012 35.5953 13.5758 34.9367 12.6478 34.1603C12.2408 33.8199 12.2665 33.199 12.6767 32.8642V32.8642C13.2831 32.3693 12.9917 31.3869 12.2129 31.3006L9.86655 31.0406Z"/>
</mask>
<path fill-rule="evenodd" clip-rule="evenodd" d="M9.86655 31.0406C9.86486 31.0404 9.86334 31.0395 9.8624 31.038V31.038C9.86065 31.0354 9.85707 31.0346 9.85443 31.0364L9.85307 31.0373C9.85163 31.0383 9.8499 31.0387 9.84817 31.0385L8.49772 30.8889C7.80236 30.8118 7.31976 31.5626 7.67775 32.1646L7.821 32.4054C7.82557 32.4131 7.8326 32.4191 7.84094 32.4223V32.4223C7.84867 32.4253 7.85529 32.4306 7.85987 32.4375C9.55553 34.9939 11.909 37.0357 14.6678 38.3432C17.4416 39.6577 20.519 40.1795 23.5658 39.8521C26.6125 39.5246 29.5122 38.3603 31.9499 36.4856C34.1292 34.8096 35.8648 32.6231 37.0105 30.1212C37.2363 29.6281 36.9852 29.0562 36.4808 28.8556L36.0484 28.6836C35.5404 28.4816 34.969 28.7327 34.7365 29.2268C33.7571 31.3079 32.2975 33.1274 30.4748 34.5292C28.3911 36.1316 25.9124 37.1269 23.3081 37.4068C20.7037 37.6867 18.0732 37.2407 15.7022 36.117C14.6012 35.5953 13.5758 34.9367 12.6478 34.1603C12.2408 33.8199 12.2665 33.199 12.6767 32.8642V32.8642C13.2831 32.3693 12.9917 31.3869 12.2129 31.3006L9.86655 31.0406Z" fill="white"/>
<path d="M14.6678 38.3432L15.1723 37.2739L15.1723 37.2739L14.6678 38.3432ZM31.9499 36.4856L31.2279 35.5468L31.2279 35.5468L31.9499 36.4856ZM30.4748 34.5292L29.7527 33.5904L29.7527 33.5904L30.4748 34.5292ZM23.3081 37.4068L23.1793 36.2303L23.1793 36.2303L23.3081 37.4068ZM15.7022 36.117L16.2067 35.0478L16.2067 35.0478L15.7022 36.117ZM37.0105 30.1212L38.086 30.6159L37.0105 30.1212ZM36.4808 28.8556L36.9157 27.7561L36.4808 28.8556ZM7.85987 32.4375L6.87476 33.0904L7.85987 32.4375ZM12.2129 31.3006L12.0851 32.4767L12.2129 31.3006ZM7.821 32.4054L6.80488 33.009L7.821 32.4054ZM12.6478 34.1603L11.8902 35.0675L12.6478 34.1603ZM8.49772 30.8889L8.36994 32.065L8.49772 30.8889ZM7.67775 32.1646L8.69387 31.5611L7.67775 32.1646ZM9.85307 31.0373L9.19205 30.0547L9.85307 31.0373ZM9.84817 31.0385L9.97596 29.8624L9.84817 31.0385ZM9.85443 31.0364L9.1934 30.0538L9.85443 31.0364ZM9.86655 31.0406L9.99434 29.8644L9.86655 31.0406ZM9.1934 30.0538L9.19205 30.0547L10.5141 32.02L10.5155 32.0191L9.1934 30.0538ZM9.97596 29.8624L8.6255 29.7128L8.36994 32.065L9.72039 32.2147L9.97596 29.8624ZM6.66163 32.7681L6.80488 33.009L8.83712 31.8019L8.69387 31.5611L6.66163 32.7681ZM6.87476 33.0904C8.68918 35.8258 11.2085 38.0121 14.1633 39.4124L15.1723 37.2739C12.6096 36.0594 10.4219 34.162 8.84497 31.7846L6.87476 33.0904ZM14.1633 39.4124C17.1342 40.8203 20.4308 41.3794 23.6945 41.0286L23.437 38.6755C20.6072 38.9797 17.7489 38.495 15.1723 37.2739L14.1633 39.4124ZM23.6945 41.0286C26.9582 40.6778 30.063 39.4307 32.672 37.4243L31.2279 35.5468C28.9615 37.2898 26.2669 38.3713 23.437 38.6755L23.6945 41.0286ZM32.672 37.4243C35.0044 35.6306 36.8608 33.2914 38.086 30.6159L35.935 29.6264C34.8688 31.9548 33.2541 33.9886 31.2279 35.5468L32.672 37.4243ZM36.9157 27.7561L36.4834 27.5841L35.6134 29.7831L36.0458 29.9551L36.9157 27.7561ZM33.6662 28.7209C32.7663 30.6331 31.4256 32.3039 29.7527 33.5904L31.1968 35.4679C33.1693 33.951 34.7479 31.9827 35.8068 29.7327L33.6662 28.7209ZM29.7527 33.5904C27.8403 35.0612 25.5667 35.9736 23.1793 36.2303L23.4368 38.5834C26.2581 38.2801 28.9418 37.2021 31.1968 35.4679L29.7527 33.5904ZM23.1793 36.2303C20.7919 36.4869 18.3805 36.078 16.2067 35.0478L15.1977 37.1862C17.7658 38.4033 20.6155 38.8866 23.4368 38.5834L23.1793 36.2303ZM16.2067 35.0478C15.1972 34.5694 14.2567 33.9654 13.4054 33.2532L11.8902 35.0675C12.8948 35.9079 14.0052 36.6211 15.1977 37.1862L16.2067 35.0478ZM12.3407 30.1244L9.99434 29.8644L9.73877 32.2167L12.0851 32.4767L12.3407 30.1244ZM36.4834 27.5841C35.3482 27.1326 34.1426 27.7087 33.6662 28.7209L35.8068 29.7327C35.7968 29.754 35.7782 29.773 35.7506 29.7847C35.7196 29.7978 35.6671 29.8045 35.6134 29.7831L36.4834 27.5841ZM38.086 30.6159C38.6125 29.466 38.0077 28.1904 36.9157 27.7561L36.0458 29.9551C35.9979 29.936 35.9549 29.8957 35.9311 29.8398C35.9059 29.7804 35.9018 29.699 35.935 29.6264L38.086 30.6159ZM7.417 33.5261C7.19489 33.4403 7.00565 33.2877 6.87476 33.0904L8.84497 31.7846C8.70492 31.5735 8.50245 31.4102 8.26489 31.3185L7.417 33.5261ZM13.4255 33.7817C14.8439 32.6241 14.1623 30.3263 12.3407 30.1244L12.0851 32.4767C11.8211 32.4475 11.7223 32.1144 11.9279 31.9466L13.4255 33.7817ZM6.80488 33.009C6.94529 33.245 7.16089 33.4272 7.417 33.5261L8.26489 31.3185C8.50431 31.4109 8.70586 31.5812 8.83712 31.8019L6.80488 33.009ZM13.4054 33.2532C13.4974 33.3302 13.541 33.4461 13.5381 33.5463C13.5354 33.6413 13.4924 33.7271 13.4255 33.7817L11.9279 31.9466C10.9885 32.7134 10.8682 34.2125 11.8902 35.0675L13.4054 33.2532ZM8.6255 29.7128C6.96008 29.5282 5.80422 31.3265 6.66163 32.7681L8.69387 31.5611C8.83529 31.7988 8.64464 32.0955 8.36994 32.065L8.6255 29.7128ZM9.19205 30.0547C9.42226 29.8999 9.69996 29.8318 9.97596 29.8624L9.72039 32.2147C9.99983 32.2456 10.281 32.1767 10.5141 32.02L9.19205 30.0547ZM10.8492 30.3878C10.4852 29.8358 9.74147 29.6854 9.1934 30.0538L10.5155 32.0191C9.97266 32.3839 9.23609 32.235 8.87556 31.6883L10.8492 30.3878ZM8.87556 31.6883C9.0707 31.9842 9.38721 32.1777 9.73877 32.2167L9.99434 29.8644C10.3425 29.903 10.656 30.0947 10.8492 30.3878L8.87556 31.6883Z" fill="white" mask="url(#path-1-outside-1)"/>
<mask id="path-3-outside-2" maskUnits="userSpaceOnUse" x="4.25874" y="0.0959528" width="35.2727" height="22.1488" fill="black">
<rect fill="white" x="4.25874" y="0.0959528" width="35.2727" height="22.1488"/>
<path fill-rule="evenodd" clip-rule="evenodd" d="M33.9846 14.3169C33.9862 14.3172 33.9877 14.3182 33.9886 14.3196V14.3196C33.9902 14.3224 33.9937 14.3233 33.9964 14.3217L33.9978 14.3208C33.9993 14.3199 34.001 14.3196 34.0027 14.3199L35.3443 14.541C36.0345 14.6547 36.5553 13.9304 36.2291 13.3103L36.0987 13.0626C36.0945 13.0545 36.0876 13.048 36.0793 13.0443V13.0443C36.0715 13.0408 36.065 13.035 36.0607 13.0277C34.5001 10.3852 32.2559 8.22174 29.5689 6.77014C26.8672 5.31057 23.8211 4.6265 20.7615 4.79223C17.7019 4.95797 14.7458 5.96717 12.2142 7.71022C9.9509 9.2685 8.10427 11.36 6.83028 13.7978C6.57917 14.2783 6.80017 14.8628 7.29352 15.0899L7.71658 15.2846C8.21324 15.5132 8.79677 15.2926 9.0546 14.8115C10.1407 12.7851 11.6927 11.0454 13.5857 9.74203C15.7497 8.25208 18.2766 7.38943 20.8919 7.24776C23.5072 7.10609 26.111 7.69083 28.4204 8.93845C29.4929 9.51786 30.4829 10.2299 31.3694 11.0545C31.7581 11.4159 31.7002 12.0346 31.2732 12.3472V12.3472C30.642 12.8093 30.8819 13.8057 31.6548 13.933L33.9846 14.3169Z"/>
</mask>
<path fill-rule="evenodd" clip-rule="evenodd" d="M33.9846 14.3169C33.9862 14.3172 33.9877 14.3182 33.9886 14.3196V14.3196C33.9902 14.3224 33.9937 14.3233 33.9964 14.3217L33.9978 14.3208C33.9993 14.3199 34.001 14.3196 34.0027 14.3199L35.3443 14.541C36.0345 14.6547 36.5553 13.9304 36.2291 13.3103L36.0987 13.0626C36.0945 13.0545 36.0876 13.048 36.0793 13.0443V13.0443C36.0715 13.0408 36.065 13.035 36.0607 13.0277C34.5001 10.3852 32.2559 8.22174 29.5689 6.77014C26.8672 5.31057 23.8211 4.6265 20.7615 4.79223C17.7019 4.95797 14.7458 5.96717 12.2142 7.71022C9.9509 9.2685 8.10427 11.36 6.83028 13.7978C6.57917 14.2783 6.80017 14.8628 7.29352 15.0899L7.71658 15.2846C8.21324 15.5132 8.79677 15.2926 9.0546 14.8115C10.1407 12.7851 11.6927 11.0454 13.5857 9.74203C15.7497 8.25208 18.2766 7.38943 20.8919 7.24776C23.5072 7.10609 26.111 7.69083 28.4204 8.93845C29.4929 9.51786 30.4829 10.2299 31.3694 11.0545C31.7581 11.4159 31.7002 12.0346 31.2732 12.3472V12.3472C30.642 12.8093 30.8819 13.8057 31.6548 13.933L33.9846 14.3169Z" fill="white"/>
<path d="M29.5689 6.77014L29.0097 7.81139L29.0097 7.81139L29.5689 6.77014ZM20.7615 4.79223L20.6941 3.61032L20.7615 4.79223ZM12.2142 7.71022L12.8862 8.68609L12.8862 8.68609L12.2142 7.71022ZM13.5857 9.74203L12.9137 8.76616L12.9137 8.76616L13.5857 9.74203ZM20.8919 7.24776L20.8245 6.06585L20.8245 6.06585L20.8919 7.24776ZM28.4204 8.93845L27.8612 9.9797L27.8612 9.9797L28.4204 8.93845ZM9.0546 14.8115L8.01226 14.2496L9.0546 14.8115ZM7.29352 15.0899L7.78488 14.0147L7.29352 15.0899ZM36.0607 13.0277L35.0433 13.6278L36.0607 13.0277ZM31.6548 13.933L31.8435 12.7651L31.6548 13.933ZM36.0987 13.0626L37.1446 12.5134L36.0987 13.0626ZM31.3694 11.0545L30.5659 11.9205L31.3694 11.0545ZM35.3443 14.541L35.533 13.373L35.3443 14.541ZM36.2291 13.3103L35.1832 13.8595L36.2291 13.3103ZM33.9978 14.3208L33.389 13.3043L33.9978 14.3208ZM34.0027 14.3199L33.814 15.4878L34.0027 14.3199ZM33.9964 14.3217L34.6052 15.3382L33.9964 14.3217ZM33.9846 14.3169L34.1732 13.149L33.9846 14.3169ZM34.6052 15.3382L34.6066 15.3373L33.389 13.3043L33.3876 13.3052L34.6052 15.3382ZM33.814 15.4878L35.1556 15.7089L35.533 13.373L34.1914 13.152L33.814 15.4878ZM37.275 12.7612L37.1446 12.5134L35.0529 13.6117L35.1832 13.8595L37.275 12.7612ZM37.0782 12.4276C35.4082 9.60002 33.006 7.2836 30.1281 5.72889L29.0097 7.81139C31.5058 9.15988 33.592 11.1704 35.0433 13.6278L37.0782 12.4276ZM30.1281 5.72889C27.2344 4.16561 23.9715 3.43279 20.6941 3.61032L20.8289 5.97415C23.6707 5.82021 26.5 6.45553 29.0097 7.81139L30.1281 5.72889ZM20.6941 3.61032C17.4168 3.78785 14.2516 4.86881 11.5421 6.73436L12.8862 8.68609C15.24 7.06552 17.9871 6.12809 20.8289 5.97415L20.6941 3.61032ZM11.5421 6.73436C9.11985 8.40208 7.14457 10.6398 5.78217 13.2467L7.87838 14.3489C9.06398 12.0803 10.7819 10.1349 12.8862 8.68609L11.5421 6.73436ZM6.80215 16.165L7.22521 16.3597L8.20794 14.2095L7.78488 14.0147L6.80215 16.165ZM10.0969 15.3735C11.0949 13.5117 12.5204 11.9141 14.2578 10.7179L12.9137 8.76616C10.8651 10.1766 9.18656 12.0586 8.01226 14.2496L10.0969 15.3735ZM14.2578 10.7179C16.2439 9.35044 18.5618 8.55955 20.9593 8.42968L20.8245 6.06585C17.9915 6.21931 15.2556 7.15373 12.9137 8.76616L14.2578 10.7179ZM20.9593 8.42968C23.3569 8.29981 25.7438 8.83579 27.8612 9.9797L28.9796 7.8972C26.4782 6.54587 23.6576 5.91238 20.8245 6.06585L20.9593 8.42968ZM27.8612 9.9797C28.8446 10.511 29.7526 11.164 30.5659 11.9205L32.1729 10.1884C31.2132 9.29585 30.1412 8.52473 28.9796 7.8972L27.8612 9.9797ZM31.4662 15.1009L33.7959 15.4848L34.1732 13.149L31.8435 12.7651L31.4662 15.1009ZM7.22521 16.3597C8.33512 16.8706 9.56874 16.359 10.0969 15.3735L8.01226 14.2496C8.02337 14.2288 8.04288 14.2108 8.07109 14.2006C8.10268 14.1892 8.15543 14.1853 8.20794 14.2095L7.22521 16.3597ZM5.78217 13.2467C5.19652 14.3673 5.73424 15.6735 6.80215 16.165L7.78488 14.0147C7.83166 14.0363 7.87256 14.0788 7.89338 14.136C7.91549 14.1966 7.91537 14.2781 7.87838 14.3489L5.78217 13.2467ZM36.5598 11.9642C36.7769 12.0615 36.9578 12.2238 37.0782 12.4276L35.0433 13.6278C35.1723 13.8462 35.3661 14.0201 35.5987 14.1243L36.5598 11.9642ZM30.5733 11.3911C29.0968 12.472 29.6579 14.803 31.4662 15.1009L31.8435 12.7651C32.1059 12.8083 32.1873 13.1465 31.9731 13.3033L30.5733 11.3911ZM37.1446 12.5134C37.0165 12.2701 36.8106 12.0766 36.5598 11.9642L35.5987 14.1243C35.3646 14.0194 35.1724 13.8389 35.0529 13.6117L37.1446 12.5134ZM30.5659 11.9205C30.4779 11.8387 30.4404 11.7205 30.4485 11.6205C30.4562 11.5257 30.5036 11.4421 30.5733 11.3911L31.9731 13.3033C32.9511 12.5874 33.1491 11.0964 32.1729 10.1884L30.5659 11.9205ZM35.1556 15.7089C36.809 15.9813 38.0564 14.2463 37.275 12.7612L35.1832 13.8595C35.0543 13.6144 35.2601 13.3281 35.533 13.373L35.1556 15.7089ZM34.6066 15.3373C34.3687 15.4796 34.0879 15.5329 33.814 15.4878L34.1914 13.152C33.9141 13.1063 33.6298 13.1602 33.389 13.3043L34.6066 15.3373ZM32.9695 14.9171C33.3043 15.4874 34.0389 15.6769 34.6052 15.3382L33.3876 13.3052C33.9485 12.9696 34.676 13.1574 35.0076 13.7222L32.9695 14.9171ZM35.0076 13.7222C34.8281 13.4166 34.5223 13.2065 34.1732 13.149L33.7959 15.4848C33.4502 15.4279 33.1473 15.2198 32.9695 14.9171L35.0076 13.7222Z" fill="white" mask="url(#path-3-outside-2)"/>
<path d="M24.7017 15.913L16.0298 23.7511L26.3731 27.3845" stroke="#EE0033" stroke-width="3.94351"/>
<ellipse cx="16.0297" cy="23.7177" rx="3.3" ry="3.3" fill="#DCDCDC"/>
<circle cx="24.0949" cy="16.5478" r="3.3" fill="#DCDCDC"/>
<ellipse cx="26.0715" cy="27.0177" rx="3.3" ry="3.3" fill="#DCDCDC"/>
</svg>
