<svg width="44" height="44" viewBox="0 0 44 44" fill="none" xmlns="http://www.w3.org/2000/svg">
<path d="M9.86471 16.5253L15.4002 4.89996H11.2841C10.7163 4.89996 10.2905 5.17032 10.0066 5.57585L2.76794 15.7142C2.34213 16.2549 2.2002 16.7956 2.2002 17.3363V19.6343C2.2002 20.5806 2.90987 21.2565 3.90342 21.2565H9.58084V17.4715C9.58084 17.2011 9.72278 16.7956 9.86471 16.5253Z" fill="#B5B4B4"/>
<path d="M41.2322 15.7143L33.9935 5.57591C33.7096 5.17038 33.1419 4.90002 32.5741 4.90002H28.458L33.9935 16.5253C34.1354 16.7957 34.1354 17.066 34.1354 17.4716V21.2565H39.8129C40.8064 21.2565 41.5161 20.5807 41.5161 19.6344V17.3364C41.8 16.7957 41.658 16.255 41.2322 15.7143Z" fill="#B5B4B4"/>
<path d="M38.6777 18.553H5.18091V37.3427H38.6777V18.553Z" fill="#B5B4B4"/>
<path d="M9.86471 16.5254H2.34213C2.2002 16.7957 2.2002 17.0661 2.2002 17.3364V19.6344C2.2002 20.5807 2.90987 21.2566 3.90342 21.2566H9.58084V17.4716C9.58084 17.2012 9.72278 16.7957 9.86471 16.5254Z" fill="#D1D1D1"/>
<path d="M41.6581 16.5253H34.1355C34.2774 16.7957 34.2774 17.066 34.2774 17.4715V21.2565H39.9549C40.9484 21.2565 41.6581 20.5806 41.6581 19.6344V17.3364C41.8 17.066 41.6581 16.7957 41.6581 16.5253Z" fill="#D1D1D1"/>
<path d="M28.6002 4.90002H15.4002L9.86468 16.5253C9.72275 16.7957 9.58081 17.2012 9.58081 17.4716V21.2565H34.2776V17.4716C34.2776 17.2012 34.1357 16.7957 34.1357 16.5253L28.6002 4.90002Z" fill="#D1D1D1"/>
<path d="M9.86468 16.5254C9.72275 16.7957 9.58081 17.2012 9.58081 17.4716V21.2566H34.2776V17.4716C34.2776 17.2012 34.1357 16.7957 34.1357 16.5254H9.86468Z" fill="#B5B4B4"/>
<path d="M24.0586 4.90002H19.8006L17.8135 16.7957C17.8135 16.9309 17.8135 17.066 17.8135 17.066V21.1214H26.0457V17.066C26.0457 16.9309 26.0457 16.7957 26.0457 16.7957L24.0586 4.90002Z" fill="#B5B4B4"/>
<path d="M26.0457 16.5254H17.9554V16.7957C17.8135 16.9309 17.8135 17.0661 17.8135 17.0661V21.1214H26.0457V17.0661C26.0457 16.9309 26.0457 16.7957 26.0457 16.7957V16.5254Z" fill="#D1D1D1"/>
<path d="M41.8002 37.3427H2.2002V39.1H41.8002V37.3427Z" fill="#D1D1D1"/>
<path d="M33.5639 31.4373L29.4809 27.3543C28.9769 26.8502 28.9265 26.0941 29.2289 25.4892C31.2956 21.6079 30.7411 16.7184 27.5655 13.3915C23.7345 9.45973 17.2824 9.20769 13.149 12.8874C8.71317 16.8696 8.56195 23.7754 12.7457 27.9088C16.0726 31.2356 21.0629 31.7901 24.9947 29.7234C25.5996 29.421 26.3557 29.4714 26.8598 29.9755L30.9932 34.1089C31.7997 34.9154 33.2111 34.8146 33.8664 33.8064C34.32 33.0503 34.1688 32.0926 33.5639 31.4373ZM15.7198 26.2957C11.9896 23.4225 11.9896 17.7769 15.7198 14.9037C18.2905 12.9378 21.9199 12.9378 24.4906 14.9037C28.2208 17.7769 28.2208 23.4225 24.4906 26.2957C21.9199 28.2616 18.2401 28.2616 15.7198 26.2957Z" fill="#EE0033"/>
<path d="M31.8531 29.7193L29.2319 32.3405L30.9962 34.1047C31.7019 34.8104 32.9117 34.8104 33.6174 34.1047C34.3231 33.399 34.3231 32.1892 33.6174 31.4835L31.8531 29.7193Z" fill="#92001F"/>
<path d="M27.435 20.6912C27.435 24.7086 24.1782 27.9653 20.1608 27.9653C16.1435 27.9653 12.8867 24.7086 12.8867 20.6912C12.8867 16.6738 16.1435 13.4171 20.1608 13.4171C24.1782 13.4171 27.435 16.6738 27.435 20.6912Z" fill="white"/>
</svg>
