<svg width="44" height="44" viewBox="0 0 44 44" fill="none" xmlns="http://www.w3.org/2000/svg">
<path d="M39.2855 31.2001H25.6662L21.9995 25.1388H36.8161L39.8842 30.2273C40.1087 30.6015 39.8093 31.2001 39.2855 31.2001Z" fill="#44494D"/>
<path d="M21.9997 25.1388H7.18311V39.9554H21.9997V25.1388Z" fill="#B5B4B4"/>
<path d="M36.8161 25.1388H21.9995V39.9554H36.8161V25.1388Z" fill="#EE0033"/>
<path d="M4.71361 31.2003H18.0336C18.2581 31.2003 18.4825 31.0507 18.5574 30.901L21.9996 25.2138H7.18304L4.11496 30.2275C3.89047 30.6017 4.1898 31.2003 4.71361 31.2003Z" fill="white"/>
<path d="M27.4612 9.00925C25.8149 7.51263 23.2706 7.81195 21.774 9.30858L21.3998 9.68273L21.0257 9.30858C19.4542 7.73712 16.91 7.51263 15.3385 9.00925C13.6174 10.5807 13.5426 13.1998 15.1889 14.8461L20.8012 20.4584C20.9509 20.6081 21.1754 20.6829 21.3998 20.6829C21.6243 20.6829 21.8488 20.6081 21.9985 20.4584L27.6108 14.8461C29.2571 13.2746 29.1823 10.5807 27.4612 9.00925Z" fill="white"/>
</svg>
