<svg width="44" height="44" viewBox="0 0 44 44" fill="none" xmlns="http://www.w3.org/2000/svg">
<path d="M38.7541 34.9239L32.8746 29.0444C32.1487 28.3186 32.0762 27.2298 32.5117 26.3587C35.4877 20.7695 34.6893 13.7286 30.1163 8.93791C24.5997 3.27615 15.3086 2.91321 9.35652 8.21204C2.96889 13.9464 2.75113 23.8908 8.77583 29.8429C13.5665 34.6336 20.7526 35.4321 26.4144 32.456C27.2854 32.0205 28.3742 32.0931 29.1001 32.8189L35.0522 38.771C36.2136 39.9324 38.246 39.7873 39.1897 38.3355C39.8429 37.2467 39.6252 35.8676 38.7541 34.9239ZM13.0584 27.5201C7.68703 23.3827 7.68703 15.253 13.0584 11.1155C16.7604 8.28463 21.9866 8.28463 25.6885 11.1155C31.0599 15.253 31.0599 23.3827 25.6885 27.5201C21.9866 30.351 16.6878 30.351 13.0584 27.5201Z" fill="#DCDCDC"/>
<path d="M36.2904 32.4501L32.5159 36.2246L35.0564 38.7651C36.0726 39.7813 37.8147 39.7813 38.8309 38.7651C39.8471 37.7489 39.8471 36.0068 38.8309 34.9906L36.2904 32.4501Z" fill="#828282"/>
<path d="M19.2837 17.9173C18.9478 17.9173 18.6959 17.6225 18.6959 17.2294C18.6959 16.8363 18.9478 16.5415 19.2837 16.5415C19.6197 16.5415 19.8716 16.8363 19.8716 17.2294H22.391C22.391 15.7552 21.6352 14.4776 20.5434 13.888L20.5434 13.2H18.0241L18.0241 13.888C16.9323 14.4776 16.1765 15.7552 16.1765 17.2294C16.1765 19.195 17.6042 20.8657 19.2837 20.8657C19.6197 20.8657 19.8716 21.1605 19.8716 21.5536C19.8716 21.9467 19.6197 22.2416 19.2837 22.2416C18.9478 22.2416 18.6959 21.9467 18.6959 21.5536H16.1765C16.1765 23.0278 16.9323 24.3054 18.0241 24.8951L18.0241 25.583H20.5434L20.5434 24.8951C21.6352 24.3054 22.391 23.0278 22.391 21.5536C22.391 19.5881 20.9633 17.9173 19.2837 17.9173Z" fill="white"/>
</svg>
