<svg width="20" height="20" viewBox="0 0 20 20" fill="none" xmlns="http://www.w3.org/2000/svg">
<path d="M11.668 9.16679L10.035 10.7998C9.70957 11.1252 9.18193 11.1252 8.85649 10.7998L8.33464 10.2779M15.8346 6.80004V9.79862C15.8346 12.4982 14.2066 14.9313 11.7112 15.9611L10.6371 16.4044C10.2299 16.5724 9.77271 16.5724 9.36549 16.4044L8.29139 15.9611C5.79599 14.9313 4.16797 12.4982 4.16797 9.79862V6.80004C4.16797 6.01888 4.71052 5.34252 5.47308 5.17306L5.85152 5.08896C6.67034 4.907 7.46302 4.62274 8.21087 4.24288L9.24653 3.71683C9.72087 3.4759 10.2817 3.4759 10.7561 3.71683L11.7917 4.24288C12.5396 4.62274 13.3323 4.907 14.1511 5.08896L14.5295 5.17306C15.2921 5.34252 15.8346 6.01887 15.8346 6.80004Z" stroke="#EE0033" stroke-linecap="round" stroke-linejoin="round"/>
</svg>
