<svg width="92" height="94" fill="none" xmlns="http://www.w3.org/2000/svg"><g clip-path="url(#clip0)"><path d="M29.325 60.086c.144.146.432.146.575.146.288 0 .72-.146.863-.438.287-.437.144-1.166-.288-1.458-8.912-5.542-14.23-15.167-14.23-25.814 0-16.625 13.368-30.334 29.9-30.334 16.387 0 29.9 13.563 29.9 30.334 0 10.647-5.32 20.272-14.232 25.814-.431.292-.719 1.02-.288 1.458.288.438 1.007.73 1.438.292C72.45 54.106 78.2 43.752 78.2 32.522 77.913 14.584 63.682 0 46 0 28.32 0 14.088 14.584 14.088 32.377c0 11.375 5.606 21.73 15.237 27.71z" fill="#FE9A00"/><path d="M60.376 51.334c5.893-4.521 9.2-11.521 9.2-18.96C69.576 19.25 59.082 8.458 46 8.458c-12.938 0-23.575 10.646-23.575 23.918 0 7.438 3.306 14.438 9.2 18.959.143.146.431.292.575.292.287 0 .575-.146.862-.438.288-.437.288-1.167-.144-1.458-5.318-4.084-8.337-10.5-8.337-17.21 0-12.104 9.631-21.875 21.419-21.875 11.787 0 21.419 9.77 21.419 21.73 0 6.854-3.02 13.125-8.338 17.209-.431.292-.575 1.02-.144 1.458.288.584.863.73 1.438.292z" fill="#FE9A00"/><path d="M56.35 42.146c.431.437 1.15.291 1.438-.146 2.156-2.771 3.306-5.98 3.306-9.48 0-8.459-6.757-15.313-15.094-15.313S30.906 24.061 30.906 32.52c0 3.5 1.15 6.855 3.306 9.48.144.291.575.437.863.437.287 0 .431-.145.719-.291.431-.438.575-1.021.144-1.459a13.139 13.139 0 01-2.876-8.167c0-7.292 5.894-13.125 12.938-13.125 7.188 0 12.938 5.98 12.938 13.125 0 3.063-1.007 5.834-2.876 8.167-.287.438-.143 1.021.288 1.459z" fill="#FE9A00"/><path d="M1.006 70.587c.575 0 1.007-.438 1.007-1.02v-8.605c0-.584-.432-1.021-1.007-1.021C.431 59.795 0 60.378 0 60.96v8.605c0 .438.431 1.021 1.006 1.021zM1.006 53.374c.575 0 1.007-.437 1.007-1.02V15.31c0-.583-.432-1.02-1.007-1.02S0 14.726 0 15.31v37.043c0 .584.431 1.021 1.006 1.021zM74.894 71.608c-.144-.292-.431-.438-.863-.438H60.52l-10.35-33.543c1.581-1.313 2.588-3.063 2.588-5.25 0-3.792-3.02-6.709-6.613-6.709-3.737 0-6.612 3.063-6.612 6.709 0 2.187 1.006 4.083 2.587 5.25L31.769 71.17H18.257c-.288 0-.576.146-.863.438L.288 91.588c-.288.291-.431.729-.144 1.166.144.292.431.584.863.584H90.85c.431 0 .719-.292 1.007-.584.143-.437.143-.875-.144-1.166l-16.819-19.98zM46 27.856c2.588 0 4.6 2.041 4.6 4.666 0 2.626-2.012 4.667-4.6 4.667-2.587 0-4.6-2.041-4.6-4.667 0-2.625 2.013-4.666 4.6-4.666zm-2.3 10.938a5.886 5.886 0 002.3.437c.863 0 1.581-.146 2.3-.437l3.882 12.542H39.819L43.7 38.794zm-4.456 14.584H52.9l2.444 7.875H36.8l2.444-7.875zM36.081 63.44H55.92l2.444 7.875H33.638l2.444-7.876zm-3.018 9.917h25.875l2.444 7.875H30.619l2.444-7.875zM3.307 91.15L18.4 73.358h12.363l-2.732 8.604c-.143.292 0 .73.144 1.021.144.292.575.438.863.438h33.637c.288 0 .719-.146.863-.438.144-.292.287-.583.144-1.02l-2.732-8.605h12.363L88.406 91.15h-85.1zM90.995 66.941c-.576 0-1.007.438-1.007 1.021v8.605c0 .583.431 1.02 1.007 1.02.575 0 1.006-.437 1.006-1.02v-8.605c0-.437-.431-1.02-1.007-1.02zM90.995 34.273c-.576 0-1.007.438-1.007 1.021v24.21c0 .583.431 1.02 1.007 1.02.575 0 1.006-.437 1.006-1.02v-24.21c0-.583-.431-1.02-1.007-1.02z" fill="#EE0033"/></g><defs><clipPath id="clip0"><path fill="#fff" d="M0 0h92v93.338H0z"/></clipPath></defs></svg>