<svg width="93" height="88" fill="none" xmlns="http://www.w3.org/2000/svg"><path d="M8 28H5v29h3V28zM88 28h-3v29h3V28z" fill="#FE9A00"/><path d="M12 81H9v7h3v-7zM84 81h-3v7h3v-7z" fill="#EE0033"/><path d="M3.875 57h85.25C90.697 57 92 58.302 92 59.902v17.561c0 1.601-1.303 2.903-2.875 2.903H3.875C2.303 80.366 1 79.064 1 77.463v-17.56C1 58.301 2.303 57 3.875 57z" stroke="#EE0033" stroke-width="2"/><path d="M25.769 40.783l2.13 2.146c10.27-10.342 27.126-10.342 37.394 0l2.132-2.146C55.8 29.27 37.2 29.27 25.769 40.783z" fill="#EE0033"/><path d="M14.531 29.463l2.132 2.146c7.943-8.195 18.6-12.683 29.837-12.683 11.237 0 21.894 4.488 30.031 12.488l2.131-2.147c-17.825-17.56-46.5-17.56-64.13.196z" fill="#EE0033"/><path d="M46.5 0C30.225 0 14.725 6.439 3.294 18.146l2.131 2.147c22.669-22.83 59.675-22.83 82.538 0l2.13-2.147C78.276 6.44 62.776 0 46.5 0zM46.5 48.582c-4.069 0-7.362 3.317-7.362 7.415h2.906c0-2.537 1.937-4.488 4.456-4.488s4.456 1.951 4.456 4.488h2.907c0-4.098-3.294-7.415-7.363-7.415z" fill="#EE0033"/><path d="M19 73H9v3h10v-3zM36 73H26v3h10v-3zM85 73H42v3h43v-3z" fill="#FE9A00"/></svg>