<svg width="16" height="16" viewBox="0 0 16 16" fill="none" xmlns="http://www.w3.org/2000/svg">
<path fill-rule="evenodd" clip-rule="evenodd" d="M2.16357 8.00016C2.21135 8.06055 2.26508 8.12696 2.32459 8.19837C2.61931 8.55204 3.05178 9.02368 3.60047 9.49399C4.70838 10.4436 6.22522 11.3335 7.99995 11.3335C9.77467 11.3335 11.2915 10.4436 12.3994 9.49399C12.9481 9.02368 13.3806 8.55204 13.6753 8.19837C13.7348 8.12696 13.7885 8.06055 13.8363 8.00016C13.7885 7.93978 13.7348 7.87337 13.6753 7.80195C13.3806 7.44829 12.9481 6.97664 12.3994 6.50633C11.2915 5.5567 9.77467 4.66683 7.99995 4.66683C6.22522 4.66683 4.70838 5.5567 3.60047 6.50633C3.05178 6.97664 2.61931 7.44829 2.32459 7.80195C2.26508 7.87337 2.21135 7.93978 2.16357 8.00016ZM14.6666 8.00016C15.2213 7.63036 15.2212 7.63016 15.221 7.62994L15.2198 7.62813L15.2173 7.62443L15.2094 7.61276C15.2028 7.60311 15.1936 7.58975 15.1818 7.57293C15.1583 7.5393 15.1244 7.49179 15.0806 7.43239C14.993 7.31365 14.8651 7.14698 14.6996 6.94837C14.3693 6.55204 13.8851 6.02368 13.2671 5.49399C12.0417 4.44363 10.2252 3.3335 7.99995 3.3335C5.77467 3.3335 3.95818 4.44363 2.73275 5.49399C2.11478 6.02368 1.63058 6.55204 1.3003 6.94837C1.13479 7.14698 1.00693 7.31365 0.91929 7.43239C0.875445 7.49179 0.84159 7.5393 0.818047 7.57293C0.806273 7.58975 0.797071 7.60311 0.790481 7.61276L0.782558 7.62443L0.780073 7.62813L0.779201 7.62943C0.779055 7.62965 0.778577 7.63036 1.33328 8.00016L0.778577 7.63036L0.532043 8.00016L0.778577 8.36996L1.33328 8.00016C0.778577 8.36996 0.778431 8.36974 0.778577 8.36996L0.779201 8.3709L0.780073 8.3722L0.782558 8.37589L0.790481 8.38756C0.797071 8.39721 0.806273 8.41057 0.818047 8.42739C0.84159 8.46103 0.875445 8.50854 0.91929 8.56794C1.00693 8.68668 1.13479 8.85334 1.3003 9.05195C1.63058 9.44829 2.11478 9.97664 2.73275 10.5063C3.95818 11.5567 5.77467 12.6668 7.99995 12.6668C10.2252 12.6668 12.0417 11.5567 13.2671 10.5063C13.8851 9.97664 14.3693 9.44829 14.6996 9.05195C14.8651 8.85334 14.993 8.68668 15.0806 8.56794C15.1244 8.50854 15.1583 8.46103 15.1818 8.42739C15.1936 8.41057 15.2028 8.39721 15.2094 8.38756L15.2173 8.37589L15.2198 8.3722L15.2207 8.3709C15.2208 8.37068 15.2213 8.36996 14.6666 8.00016ZM14.6666 8.00016L15.2213 8.36996L15.4678 8.00016L15.221 7.62994L14.6666 8.00016ZM1.88746 7.62959C1.88746 7.62959 1.88746 7.62958 1.88746 7.62959V7.62959Z" fill="#576C8A"/>
<path fill-rule="evenodd" clip-rule="evenodd" d="M8.00002 4.66683C6.89545 4.66683 6.00002 5.56226 6.00002 6.66683C6.00002 7.7714 6.89545 8.66683 8.00002 8.66683C9.10459 8.66683 10 7.7714 10 6.66683C10 5.56226 9.10459 4.66683 8.00002 4.66683ZM4.66669 6.66683C4.66669 4.82588 6.15907 3.3335 8.00002 3.3335C9.84097 3.3335 11.3334 4.82588 11.3334 6.66683C11.3334 8.50778 9.84097 10.0002 8.00002 10.0002C6.15907 10.0002 4.66669 8.50778 4.66669 6.66683Z" fill="#576C8A"/>
</svg>
