<svg width="16" height="15" viewBox="0 0 16 15" fill="none" xmlns="http://www.w3.org/2000/svg">
<path d="M3.15137 3.0957H14.0605L12.2423 9.04808H3.15137" stroke="white" stroke-miterlimit="10" stroke-linecap="round" stroke-linejoin="round"/>
<path d="M3.15157 15.0001C3.82101 15.0001 4.3637 14.4671 4.3637 13.8096C4.3637 13.1521 3.82101 12.6191 3.15157 12.6191C2.48214 12.6191 1.93945 13.1521 1.93945 13.8096C1.93945 14.4671 2.48214 15.0001 3.15157 15.0001Z" fill="white"/>
<path d="M12.8479 15.0001C13.5173 15.0001 14.06 14.4671 14.06 13.8096C14.06 13.1521 13.5173 12.6191 12.8479 12.6191C12.1784 12.6191 11.6357 13.1521 11.6357 13.8096C11.6357 14.4671 12.1784 15.0001 12.8479 15.0001Z" fill="white"/>
<path d="M1.33301 1.30957L3.15119 3.09528V9.04767L1.93907 11.4286H14.6663" stroke="white" stroke-miterlimit="10" stroke-linecap="round" stroke-linejoin="round"/>
</svg>
