<svg width="22" height="21" viewBox="0 0 22 21" fill="none" xmlns="http://www.w3.org/2000/svg">
<path fill-rule="evenodd" clip-rule="evenodd" d="M12.6749 5.94107C13.33 6.07005 13.9331 6.26928 14.3465 6.50296C14.5518 6.61902 14.6242 6.87958 14.5082 7.08492C14.3921 7.29027 14.1315 7.36264 13.9262 7.24658C13.6209 7.074 13.1146 6.89823 12.5099 6.77917C11.9103 6.6611 11.2445 6.6049 10.63 6.65217C10.0089 6.69995 9.48124 6.8502 9.1198 7.10815C8.7806 7.35023 8.56344 7.70188 8.56344 8.24977C8.56344 8.90318 8.84184 9.32214 9.29583 9.65246C9.77836 10.0036 10.4401 10.2394 11.1777 10.4852C11.2265 10.5015 11.2758 10.5179 11.3254 10.5343C11.9911 10.7552 12.7124 10.9946 13.2713 11.3532C13.9012 11.7573 14.3759 12.346 14.3759 13.2498C14.3759 14.0702 14.104 14.7151 13.6157 15.1779C13.1386 15.6301 12.4948 15.871 11.8109 15.9766C10.4494 16.1867 8.77982 15.884 7.4302 15.402C7.20806 15.3226 7.0923 15.0783 7.17164 14.8561C7.25097 14.634 7.49536 14.5182 7.71749 14.5976C8.99287 15.053 10.5108 15.3129 11.6806 15.1324C12.2623 15.0426 12.72 14.8499 13.0281 14.5579C13.3249 14.2766 13.5218 13.8668 13.5218 13.2498C13.5218 12.716 13.27 12.3672 12.81 12.0721C12.3454 11.7741 11.7224 11.5667 11.0203 11.3331C10.983 11.3207 10.9454 11.3082 10.9075 11.2956C10.192 11.057 9.40058 10.785 8.79327 10.3432C8.15741 9.88052 7.70925 9.22136 7.70925 8.24977C7.70925 7.42265 8.06241 6.81337 8.6236 6.41287C9.16255 6.02824 9.86538 5.85428 10.5645 5.80049C11.2703 5.7462 12.0148 5.81109 12.6749 5.94107Z" fill="#FE9A00" stroke="#FE9A00" stroke-width="0.5" stroke-linecap="round" stroke-linejoin="round"/>
<path fill-rule="evenodd" clip-rule="evenodd" d="M11.2615 4.13477C11.4974 4.13477 11.6886 4.32598 11.6886 4.56186V17.3744C11.6886 17.6102 11.4974 17.8015 11.2615 17.8015C11.0256 17.8015 10.8344 17.6102 10.8344 17.3744V4.56186C10.8344 4.32598 11.0256 4.13477 11.2615 4.13477Z" fill="#FE9A00" stroke="#FE9A00" stroke-width="0.5" stroke-linecap="round" stroke-linejoin="round"/>
<path fill-rule="evenodd" clip-rule="evenodd" d="M10.7616 2C5.92907 2 2.01157 5.91751 2.01157 10.75C2.01157 15.5825 5.92907 19.5 10.7616 19.5C15.5941 19.5 19.5116 15.5825 19.5116 10.75C19.5116 5.91751 15.5941 2 10.7616 2ZM0.761566 10.75C0.761566 5.22715 5.23872 0.75 10.7616 0.75C16.2844 0.75 20.7616 5.22715 20.7616 10.75C20.7616 16.2728 16.2844 20.75 10.7616 20.75C5.23872 20.75 0.761566 16.2728 0.761566 10.75Z" fill="#EE0033" stroke="#EE0033" stroke-width="0.5" stroke-linecap="round" stroke-linejoin="round"/>
</svg>
