<svg width="21" height="21" viewBox="0 0 21 21" fill="none" xmlns="http://www.w3.org/2000/svg">
<path fill-rule="evenodd" clip-rule="evenodd" d="M2.39282 2.21094C2.09079 2.21094 1.84595 2.45578 1.84595 2.75781V19.1641C1.84595 19.4661 2.09079 19.7109 2.39282 19.7109H9.42407C9.76925 19.7109 10.0491 19.9908 10.0491 20.3359C10.0491 20.6811 9.76925 20.9609 9.42407 20.9609H2.39282C1.40044 20.9609 0.595947 20.1564 0.595947 19.1641V2.75781C0.595947 1.76543 1.40044 0.960938 2.39282 0.960938H12.9397C13.9321 0.960938 14.7366 1.76543 14.7366 2.75781V7.31321C14.7366 7.65839 14.4567 7.93821 14.1116 7.93821C13.7664 7.93821 13.4866 7.65839 13.4866 7.31321V2.75781C13.4866 2.45578 13.2417 2.21094 12.9397 2.21094H2.39282Z" fill="#EE0033"/>
<path fill-rule="evenodd" clip-rule="evenodd" d="M0.888916 16.5273C0.888916 16.1822 1.16874 15.9023 1.51392 15.9023H9.42407C9.76925 15.9023 10.0491 16.1822 10.0491 16.5273C10.0491 16.8725 9.76925 17.1523 9.42407 17.1523H1.51392C1.16874 17.1523 0.888916 16.8725 0.888916 16.5273Z" fill="#EE0033"/>
<path fill-rule="evenodd" clip-rule="evenodd" d="M5.57642 18.2852C5.57642 17.94 5.85624 17.6602 6.20142 17.6602H8.2522C8.59738 17.6602 8.8772 17.94 8.8772 18.2852C8.8772 18.6303 8.59738 18.9102 8.2522 18.9102H6.20142C5.85624 18.9102 5.57642 18.6303 5.57642 18.2852Z" fill="#EE0033"/>
<path fill-rule="evenodd" clip-rule="evenodd" d="M14.6975 10.4141C12.1302 10.4141 10.0491 12.4952 10.0491 15.0625C10.0491 17.6298 12.1302 19.7109 14.6975 19.7109C17.2648 19.7109 19.3459 17.6298 19.3459 15.0625C19.3459 12.4952 17.2648 10.4141 14.6975 10.4141ZM8.79907 15.0625C8.79907 11.8049 11.4399 9.16406 14.6975 9.16406C17.9551 9.16406 20.5959 11.8049 20.5959 15.0625C20.5959 18.3201 17.9551 20.9609 14.6975 20.9609C11.4399 20.9609 8.79907 18.3201 8.79907 15.0625Z" fill="#FE9A00"/>
<path fill-rule="evenodd" clip-rule="evenodd" d="M14.5201 12.1029C15.3194 12.0494 16.2376 12.2366 16.7407 12.4952C17.0477 12.653 17.1687 13.0297 17.011 13.3368C16.8532 13.6438 16.4764 13.7648 16.1694 13.607C15.8997 13.4684 15.2145 13.3092 14.6037 13.3501C14.302 13.3704 14.0966 13.4353 13.9845 13.5091C13.9078 13.5596 13.8733 13.6073 13.8733 13.7248C13.8733 13.8853 13.9267 13.9791 14.0844 14.0871C14.2835 14.2234 14.5767 14.3256 14.9796 14.451C15.008 14.4599 15.0371 14.4689 15.0669 14.4781C15.4098 14.5841 15.8383 14.7165 16.1786 14.9213C16.5878 15.1677 16.9642 15.5771 16.9642 16.2266C16.9642 16.7496 16.7741 17.1902 16.4176 17.5052C16.0823 17.8014 15.6541 17.9388 15.2482 17.9957C14.4411 18.1088 13.4874 17.9367 12.7399 17.6848C12.4128 17.5746 12.2369 17.2201 12.3472 16.893C12.4574 16.5659 12.8119 16.39 13.139 16.5003C13.7838 16.7175 14.5301 16.8341 15.0747 16.7578C15.3447 16.72 15.5054 16.6431 15.59 16.5684C15.6534 16.5124 15.7142 16.4253 15.7142 16.2266C15.7142 16.1545 15.7042 16.0948 15.5339 15.9923C15.3292 15.869 15.0396 15.7789 14.6373 15.6537C14.6276 15.6506 14.6178 15.6476 14.6079 15.6445C14.238 15.5293 13.7586 15.379 13.3781 15.1184C12.9563 14.8295 12.6233 14.3821 12.6233 13.7248C12.6233 13.159 12.8931 12.7312 13.2969 12.4652C13.6653 12.2225 14.1167 12.13 14.5201 12.1029Z" fill="#EE0033"/>
<path fill-rule="evenodd" clip-rule="evenodd" d="M14.6974 11.5078C15.0426 11.5078 15.3224 11.7876 15.3224 12.1328V17.9922C15.3224 18.3374 15.0426 18.6172 14.6974 18.6172C14.3522 18.6172 14.0724 18.3374 14.0724 17.9922V12.1328C14.0724 11.7876 14.3522 11.5078 14.6974 11.5078Z" fill="#EE0033"/>
</svg>
