<svg width="20" height="20" viewBox="0 0 20 20" fill="none" xmlns="http://www.w3.org/2000/svg">
<path fill-rule="evenodd" clip-rule="evenodd" d="M10 1.66667C5.39763 1.66667 1.66667 5.39763 1.66667 10C1.66667 14.6024 5.39763 18.3333 10 18.3333C14.6024 18.3333 18.3333 14.6024 18.3333 10C18.3333 5.39763 14.6024 1.66667 10 1.66667ZM0 10C0 4.47715 4.47715 0 10 0C15.5228 0 20 4.47715 20 10C20 15.5228 15.5228 20 10 20C4.47715 20 0 15.5228 0 10Z" fill="#EE0033"/>
<path fill-rule="evenodd" clip-rule="evenodd" d="M10 4.41602C10.2301 4.41602 10.4167 4.5959 10.4167 4.8178V13.3892C10.4167 13.6111 10.2301 13.791 10 13.791C9.76989 13.791 9.58334 13.6111 9.58334 13.3892V4.8178C9.58334 4.5959 9.76989 4.41602 10 4.41602Z" fill="#FE9A00" stroke="#FE9A00" stroke-width="0.5" stroke-miterlimit="10" stroke-linecap="round" stroke-linejoin="round"/>
<path fill-rule="evenodd" clip-rule="evenodd" d="M5 8.5C5 8.22386 5.19188 8 5.42857 8H14.5714C14.8081 8 15 8.22386 15 8.5C15 8.77614 14.8081 9 14.5714 9H5.42857C5.19188 9 5 8.77614 5 8.5Z" fill="#FE9A00" stroke="#FE9A00" stroke-width="0.5" stroke-miterlimit="10" stroke-linecap="round" stroke-linejoin="round"/>
<path fill-rule="evenodd" clip-rule="evenodd" d="M5 13.5C5 13.2239 5.19188 13 5.42857 13H14.5714C14.8081 13 15 13.2239 15 13.5C15 13.7761 14.8081 14 14.5714 14H5.42857C5.19188 14 5 13.7761 5 13.5Z" fill="#FE9A00" stroke="#FE9A00" stroke-width="0.5" stroke-miterlimit="10" stroke-linecap="round" stroke-linejoin="round"/>
</svg>
