<svg width="20" height="20" viewBox="0 0 20 20" fill="none" xmlns="http://www.w3.org/2000/svg">
<path fill-rule="evenodd" clip-rule="evenodd" d="M10 1.66667C5.39763 1.66667 1.66667 5.39763 1.66667 10C1.66667 14.6024 5.39763 18.3333 10 18.3333C14.6024 18.3333 18.3333 14.6024 18.3333 10C18.3333 5.39763 14.6024 1.66667 10 1.66667ZM0 10C0 4.47715 4.47715 0 10 0C15.5228 0 20 4.47715 20 10C20 15.5228 15.5228 20 10 20C4.47715 20 0 15.5228 0 10Z" fill="#EE0033"/>
<path fill-rule="evenodd" clip-rule="evenodd" d="M6.66669 5.83268C6.20645 5.83268 5.83335 6.20578 5.83335 6.66602C5.83335 7.12625 6.20645 7.49935 6.66669 7.49935C7.12692 7.49935 7.50002 7.12625 7.50002 6.66602C7.50002 6.20578 7.12692 5.83268 6.66669 5.83268ZM4.16669 6.66602C4.16669 5.2853 5.28598 4.16602 6.66669 4.16602C8.0474 4.16602 9.16669 5.2853 9.16669 6.66602C9.16669 8.04673 8.0474 9.16602 6.66669 9.16602C5.28598 9.16602 4.16669 8.04673 4.16669 6.66602Z" fill="#FE9A00"/>
<path fill-rule="evenodd" clip-rule="evenodd" d="M13.3333 12.5007C12.8731 12.5007 12.5 12.8737 12.5 13.334C12.5 13.7942 12.8731 14.1673 13.3333 14.1673C13.7936 14.1673 14.1666 13.7942 14.1666 13.334C14.1666 12.8737 13.7936 12.5007 13.3333 12.5007ZM10.8333 13.334C10.8333 11.9533 11.9526 10.834 13.3333 10.834C14.714 10.834 15.8333 11.9533 15.8333 13.334C15.8333 14.7147 14.714 15.834 13.3333 15.834C11.9526 15.834 10.8333 14.7147 10.8333 13.334Z" fill="#FE9A00"/>
<path fill-rule="evenodd" clip-rule="evenodd" d="M13.9226 6.07806C14.248 6.4035 14.248 6.93114 13.9226 7.25657L7.2559 13.9232C6.93047 14.2487 6.40283 14.2487 6.07739 13.9232C5.75195 13.5978 5.75195 13.0702 6.07739 12.7447L12.7441 6.07806C13.0695 5.75263 13.5971 5.75263 13.9226 6.07806Z" fill="#FE9A00"/>
</svg>
