<svg width="24" height="24" viewBox="0 0 24 24" fill="none" xmlns="http://www.w3.org/2000/svg">
<path fill-rule="evenodd" clip-rule="evenodd" d="M2 21C2 17.1337 5.13372 14 9 14H15C18.8663 14 22 17.1337 22 21V22C22 22.4349 21.719 22.8199 21.3048 22.9524L21 22C21.3048 22.9524 21.3051 22.9523 21.3048 22.9524L21.3022 22.9533L21.2984 22.9544L21.2875 22.9579L21.2518 22.9688C21.2219 22.9778 21.1799 22.9901 21.1258 23.0054C21.0175 23.0359 20.8609 23.0781 20.6567 23.1278C20.2482 23.2274 19.6493 23.3574 18.8659 23.4867C17.2989 23.7451 14.9945 24 12 24C9.00555 24 6.7011 23.7451 5.13413 23.4867C4.35071 23.3574 3.75182 23.2274 3.34335 23.1278C3.13912 23.0781 2.9825 23.0359 2.87423 23.0054C2.8201 22.9901 2.77806 22.9778 2.74819 22.9688L2.71254 22.9579L2.70158 22.9544L2.69783 22.9533L2.69638 22.9528C2.69611 22.9527 2.69522 22.9524 3 22L2.69522 22.9524C2.28104 22.8199 2 22.4349 2 22V21ZM4 21.2282C4.35421 21.3102 4.84191 21.4114 5.45962 21.5133C6.9239 21.7549 9.11945 22 12 22C14.8805 22 17.0761 21.7549 18.5404 21.5133C19.1581 21.4114 19.6458 21.3102 20 21.2282V21C20 18.2383 17.7617 16 15 16H9C6.23829 16 4 18.2383 4 21V21.2282Z" fill="#EE0033"/>
<path fill-rule="evenodd" clip-rule="evenodd" d="M12 2C9.79128 2 8 3.79128 8 6C8 7.13178 8.46847 8.4189 9.25178 9.41862C10.0381 10.4222 11.026 11 12 11C12.974 11 13.9619 10.4222 14.7482 9.41862C15.5315 8.4189 16 7.13178 16 6C16 3.79128 14.2087 2 12 2ZM6 6C6 2.68672 8.68672 0 12 0C15.3133 0 18 2.68672 18 6C18 7.62922 17.349 9.3421 16.3225 10.6521C15.2991 11.9583 13.787 13 12 13C10.213 13 8.7009 11.9583 7.67747 10.6521C6.65103 9.3421 6 7.62922 6 6Z" fill="#EE0033"/>
</svg>
