<svg width="108" height="22" viewBox="0 0 108 22" fill="none" xmlns="http://www.w3.org/2000/svg">
<path fill-rule="evenodd" clip-rule="evenodd" d="M54 15C56.2091 15 58 13.2091 58 11C58 8.79086 56.2091 7 54 7C51.7909 7 50 8.79086 50 11C50 13.2091 51.7909 15 54 15Z" fill="white" fill-opacity="0.3"/>
<path fill-rule="evenodd" clip-rule="evenodd" d="M29 15C31.2091 15 33 13.2091 33 11C33 8.79086 31.2091 7 29 7C26.7909 7 25 8.79086 25 11C25 13.2091 26.7909 15 29 15Z" fill="white"/>
<path fill-rule="evenodd" clip-rule="evenodd" d="M4 15C6.20914 15 8 13.2091 8 11C8 8.79086 6.20914 7 4 7C1.79086 7 0 8.79086 0 11C0 13.2091 1.79086 15 4 15Z" fill="white" fill-opacity="0.3"/>
<path fill-rule="evenodd" clip-rule="evenodd" d="M79 15C81.2091 15 83 13.2091 83 11C83 8.79086 81.2091 7 79 7C76.7909 7 75 8.79086 75 11C75 13.2091 76.7909 15 79 15Z" fill="white" fill-opacity="0.3"/>
<path fill-rule="evenodd" clip-rule="evenodd" d="M104 15C106.209 15 108 13.2091 108 11C108 8.79086 106.209 7 104 7C101.791 7 100 8.79086 100 11C100 13.2091 101.791 15 104 15Z" fill="white" fill-opacity="0.3"/>
<path d="M38 11C38 15.9706 33.9706 20 29 20C24.0294 20 20 15.9706 20 11C20 6.02944 24.0294 2 29 2C33.9706 2 38 6.02944 38 11Z" stroke="white" stroke-opacity="0.3" stroke-width="2"/>
<path d="M22 18.2358C23.8051 19.9484 26.2502 21 28.9423 21C34.497 21 39 16.5228 39 11C39 5.47715 34.497 1 28.9423 1" stroke="white" stroke-width="2"/>
</svg>
