<svg width="16" height="16" viewBox="0 0 16 16" fill="none" xmlns="http://www.w3.org/2000/svg">
<path fill-rule="evenodd" clip-rule="evenodd" d="M0 5.10352C0 4.82737 0.223858 4.60352 0.5 4.60352H15.5C15.7761 4.60352 16 4.82737 16 5.10352C16 5.37966 15.7761 5.60352 15.5 5.60352H0.5C0.223858 5.60352 0 5.37966 0 5.10352Z" fill="#EE0033"/>
<path fill-rule="evenodd" clip-rule="evenodd" d="M0 3.10352C0 2.27737 0.673858 1.60352 1.5 1.60352H14.5C15.3261 1.60352 16 2.27737 16 3.10352V7.04688C16 7.32302 15.7761 7.54688 15.5 7.54688C15.2239 7.54688 15 7.32302 15 7.04688V3.10352C15 2.82966 14.7739 2.60352 14.5 2.60352H1.5C1.22614 2.60352 1 2.82966 1 3.10352V14.1035C1 14.3774 1.22614 14.6035 1.5 14.6035H1.50628L1.50628 14.6036L7.50628 14.6789C7.7824 14.6824 8.00343 14.9091 7.99996 15.1852C7.99649 15.4613 7.76984 15.6823 7.49372 15.6789L1.49651 15.6035C0.671962 15.6016 0 14.9285 0 14.1035V3.10352Z" fill="#EE0033"/>
<path fill-rule="evenodd" clip-rule="evenodd" d="M4.5 0.103516C4.77614 0.103516 5 0.327373 5 0.603516V2.10352C5 2.37966 4.77614 2.60352 4.5 2.60352C4.22386 2.60352 4 2.37966 4 2.10352V0.603516C4 0.327373 4.22386 0.103516 4.5 0.103516Z" fill="#EE0033"/>
<path fill-rule="evenodd" clip-rule="evenodd" d="M11.5 0.103516C11.7761 0.103516 12 0.327373 12 0.603516V2.10352C12 2.37966 11.7761 2.60352 11.5 2.60352C11.2239 2.60352 11 2.37966 11 2.10352V0.603516C11 0.327373 11.2239 0.103516 11.5 0.103516Z" fill="#EE0033"/>
<path fill-rule="evenodd" clip-rule="evenodd" d="M11.5 7.60352C9.567 7.60352 8 9.17052 8 11.1035C8 13.0365 9.567 14.6035 11.5 14.6035C13.433 14.6035 15 13.0365 15 11.1035C15 9.17052 13.433 7.60352 11.5 7.60352ZM7 11.1035C7 8.61823 9.01472 6.60352 11.5 6.60352C13.9853 6.60352 16 8.61823 16 11.1035C16 13.5888 13.9853 15.6035 11.5 15.6035C9.01472 15.6035 7 13.5888 7 11.1035Z" fill="#FE9A00"/>
<path fill-rule="evenodd" clip-rule="evenodd" d="M11.6504 8.75391C11.9265 8.75391 12.1504 8.97776 12.1504 9.25391V11.2539C12.1504 11.53 11.9265 11.7539 11.6504 11.7539H9.65039C9.37425 11.7539 9.15039 11.53 9.15039 11.2539C9.15039 10.9778 9.37425 10.7539 9.65039 10.7539H11.1504V9.25391C11.1504 8.97776 11.3742 8.75391 11.6504 8.75391Z" fill="#FE9A00"/>
</svg>
