<svg width="48" height="54" viewBox="0 0 48 54" fill="none" xmlns="http://www.w3.org/2000/svg">
<path fill-rule="evenodd" clip-rule="evenodd" d="M0.415741 2.33333C0.415741 1.04467 1.47215 0 2.77529 0H45.2472C46.5504 0 47.6068 1.04467 47.6068 2.33333V51.3333C47.6068 52.1939 47.1278 52.9845 46.3606 53.3906C45.5934 53.7966 44.6624 53.7521 43.9384 53.2748L38.1686 49.471L32.3987 53.2748C31.6062 53.7973 30.5736 53.7973 29.7811 53.2748L24.0112 49.471L18.2414 53.2748C17.4489 53.7973 16.4163 53.7973 15.6238 53.2748L9.85394 49.471L4.08414 53.2748C3.36009 53.7521 2.42914 53.7966 1.66192 53.3906C0.894693 52.9845 0.415741 52.1939 0.415741 51.3333V2.33333ZM5.13484 4.66667V46.9735L8.5451 44.7252C9.33767 44.2027 10.3702 44.2027 11.1628 44.7252L16.9326 48.529L22.7024 44.7252C23.495 44.2027 24.5275 44.2027 25.3201 44.7252L31.0899 48.529L36.8597 44.7252C37.6523 44.2027 38.6848 44.2027 39.4774 44.7252L42.8877 46.9735V4.66667H5.13484Z" fill="#EE0033"/>
<path fill-rule="evenodd" clip-rule="evenodd" d="M9.85394 16.3333C9.85394 15.0447 10.9103 14 12.2135 14H24.0112C25.3144 14 26.3708 15.0447 26.3708 16.3333C26.3708 17.622 25.3144 18.6667 24.0112 18.6667H12.2135C10.9103 18.6667 9.85394 17.622 9.85394 16.3333Z" fill="#FE9A00"/>
<path fill-rule="evenodd" clip-rule="evenodd" d="M31.0899 16.3333C31.0899 15.0447 32.1463 14 33.4495 14H35.809C37.1121 14 38.1686 15.0447 38.1686 16.3333C38.1686 17.622 37.1121 18.6667 35.809 18.6667H33.4495C32.1463 18.6667 31.0899 17.622 31.0899 16.3333Z" fill="#FE9A00"/>
<path fill-rule="evenodd" clip-rule="evenodd" d="M9.85394 25.6673C9.85394 24.3787 10.9103 23.334 12.2135 23.334H24.0112C25.3144 23.334 26.3708 24.3787 26.3708 25.6673C26.3708 26.956 25.3144 28.0007 24.0112 28.0007H12.2135C10.9103 28.0007 9.85394 26.956 9.85394 25.6673Z" fill="#FE9A00"/>
<path fill-rule="evenodd" clip-rule="evenodd" d="M31.0899 25.6673C31.0899 24.3787 32.1463 23.334 33.4495 23.334H35.809C37.1121 23.334 38.1686 24.3787 38.1686 25.6673C38.1686 26.956 37.1121 28.0007 35.809 28.0007H33.4495C32.1463 28.0007 31.0899 26.956 31.0899 25.6673Z" fill="#FE9A00"/>
<path fill-rule="evenodd" clip-rule="evenodd" d="M9.85394 34.9994C9.85394 33.7107 10.9103 32.666 12.2135 32.666H24.0112C25.3144 32.666 26.3708 33.7107 26.3708 34.9994C26.3708 36.288 25.3144 37.3327 24.0112 37.3327H12.2135C10.9103 37.3327 9.85394 36.288 9.85394 34.9994Z" fill="#FE9A00"/>
<path fill-rule="evenodd" clip-rule="evenodd" d="M31.0899 34.9994C31.0899 33.7107 32.1463 32.666 33.4495 32.666H35.809C37.1121 32.666 38.1686 33.7107 38.1686 34.9994C38.1686 36.288 37.1121 37.3327 35.809 37.3327H33.4495C32.1463 37.3327 31.0899 36.288 31.0899 34.9994Z" fill="#FE9A00"/>
</svg>
