<svg width="23" height="23" viewBox="0 0 23 23" fill="none" xmlns="http://www.w3.org/2000/svg">
<path fill-rule="evenodd" clip-rule="evenodd" d="M11.5003 9.58366C10.4418 9.58366 9.58366 10.4418 9.58366 11.5003C9.58366 12.5589 10.4418 13.417 11.5003 13.417C12.5589 13.417 13.417 12.5589 13.417 11.5003C13.417 10.4418 12.5589 9.58366 11.5003 9.58366ZM7.66699 11.5003C7.66699 9.38323 9.38323 7.66699 11.5003 7.66699C13.6174 7.66699 15.3337 9.38323 15.3337 11.5003C15.3337 13.6174 13.6174 15.3337 11.5003 15.3337C9.38323 15.3337 7.66699 13.6174 7.66699 11.5003Z" fill="#FE9A00"/>
<path fill-rule="evenodd" clip-rule="evenodd" d="M8.63282 0.839432C8.69278 0.35987 9.10045 0 9.58375 0H13.4171C13.9004 0 14.308 0.35987 14.368 0.839432L14.6996 3.49131C15.4654 3.79922 16.183 4.21564 16.8303 4.72774L19.2986 3.68636C19.7439 3.4985 20.2594 3.67161 20.5011 4.09016L22.4178 7.40982C22.6594 7.82834 22.5516 8.36129 22.1663 8.65302L20.035 10.2668C20.0943 10.6743 20.1246 11.0857 20.1254 11.498L19.1671 11.5L20.1254 11.502C20.1246 11.9143 20.0943 12.3257 20.035 12.7332L22.1663 14.347C22.5516 14.6387 22.6594 15.1717 22.4178 15.5902L20.5011 18.9098C20.2594 19.3284 19.7439 19.5015 19.2986 19.3136L16.8303 18.2723C16.183 18.7844 15.4654 19.2008 14.6996 19.5087L14.368 22.1606C14.308 22.6401 13.9004 23 13.4171 23H9.58375C9.10045 23 8.69278 22.6401 8.63282 22.1606L8.30123 19.5087C7.53543 19.2008 6.81784 18.7844 6.17054 18.2723L3.70218 19.3136C3.25688 19.5015 2.74138 19.3284 2.49973 18.9098L0.58306 15.5902C0.341421 15.1717 0.449207 14.6387 0.834488 14.347L2.96515 12.7337C2.84556 11.9156 2.84556 11.0844 2.96515 10.2663L0.834488 8.65302C0.449207 8.36129 0.341421 7.82834 0.58306 7.40982L2.49973 4.09016C2.74138 3.67161 3.25688 3.4985 3.70218 3.68636L6.17054 4.72774C6.81784 4.21564 7.53543 3.79922 8.30123 3.49131L8.63282 0.839432ZM18.2087 11.5C18.2076 11.0172 18.1547 10.5359 18.051 10.0643C17.9706 9.69893 18.1101 9.32018 18.4084 9.09435L20.3349 7.63561L19.2642 5.78115L17.0316 6.72305C16.6863 6.86874 16.2878 6.79975 16.0115 6.54648C15.298 5.89232 14.4511 5.40065 13.5292 5.10537C13.1738 4.99155 12.9169 4.68184 12.8706 4.31161L12.5711 1.91667H10.4297L10.1303 4.31161C10.084 4.68184 9.82699 4.99155 9.47166 5.10537C8.54977 5.40065 7.70286 5.89232 6.98931 6.54648C6.71305 6.79975 6.3145 6.86874 5.96919 6.72305L3.7366 5.78115L2.66589 7.63561L4.59242 9.09435C4.89123 9.3206 5.03072 9.70029 4.94945 10.0662C4.73968 11.0106 4.73968 11.9894 4.94945 12.9338C5.03072 13.2997 4.89123 13.6794 4.59242 13.9056L2.66589 15.3644L3.7366 17.2189L5.96919 16.2769C6.3145 16.1313 6.71305 16.2002 6.98931 16.4535C7.70286 17.1077 8.54977 17.5993 9.47166 17.8946C9.82699 18.0084 10.084 18.3182 10.1303 18.6884L10.4297 21.0833H12.5711L12.8706 18.6884C12.9169 18.3182 13.1738 18.0084 13.5292 17.8946C14.4511 17.5993 15.298 17.1077 16.0115 16.4535C16.2878 16.2002 16.6863 16.1313 17.0316 16.2769L19.2642 17.2189L20.3349 15.3644L18.4084 13.9056C18.1101 13.6798 17.9706 13.3011 18.051 12.9357C18.1547 12.4641 18.2076 11.9828 18.2087 11.5Z" fill="#EE0033"/>
</svg>
