<svg width="21" height="23" viewBox="0 0 21 23" fill="none" xmlns="http://www.w3.org/2000/svg">
<path fill-rule="evenodd" clip-rule="evenodd" d="M0.916992 0.958333C0.916992 0.42906 1.34605 0 1.87533 0H19.1253C19.6546 0 20.0837 0.42906 20.0837 0.958333V21.0833C20.0837 21.4368 19.8891 21.7615 19.5775 21.9283C19.2659 22.095 18.8878 22.0768 18.5937 21.8807L16.2503 20.3184L13.9069 21.8807C13.585 22.0953 13.1656 22.0953 12.8437 21.8807L10.5003 20.3184L8.15691 21.8807C7.83501 22.0953 7.41564 22.0953 7.09374 21.8807L4.75033 20.3184L2.40691 21.8807C2.11284 22.0768 1.73474 22.095 1.42313 21.9283C1.11152 21.7615 0.916992 21.4368 0.916992 21.0833V0.958333ZM2.83366 1.91667V19.2927L4.21874 18.3693C4.54064 18.1547 4.96001 18.1547 5.28191 18.3693L7.62533 19.9316L9.96874 18.3693C10.2906 18.1547 10.71 18.1547 11.0319 18.3693L13.3753 19.9316L15.7187 18.3693C16.0406 18.1547 16.46 18.1547 16.7819 18.3693L18.167 19.2927V1.91667H2.83366Z" fill="#EE0033"/>
<path fill-rule="evenodd" clip-rule="evenodd" d="M4.75 6.70833C4.75 6.17906 5.17906 5.75 5.70833 5.75H10.5C11.0293 5.75 11.4583 6.17906 11.4583 6.70833C11.4583 7.23761 11.0293 7.66667 10.5 7.66667H5.70833C5.17906 7.66667 4.75 7.23761 4.75 6.70833Z" fill="#FE9A00"/>
<path fill-rule="evenodd" clip-rule="evenodd" d="M13.375 6.70833C13.375 6.17906 13.8041 5.75 14.3333 5.75H15.2917C15.8209 5.75 16.25 6.17906 16.25 6.70833C16.25 7.23761 15.8209 7.66667 15.2917 7.66667H14.3333C13.8041 7.66667 13.375 7.23761 13.375 6.70833Z" fill="#FE9A00"/>
<path fill-rule="evenodd" clip-rule="evenodd" d="M4.75 10.5413C4.75 10.0121 5.17906 9.58301 5.70833 9.58301H10.5C11.0293 9.58301 11.4583 10.0121 11.4583 10.5413C11.4583 11.0706 11.0293 11.4997 10.5 11.4997H5.70833C5.17906 11.4997 4.75 11.0706 4.75 10.5413Z" fill="#FE9A00"/>
<path fill-rule="evenodd" clip-rule="evenodd" d="M13.375 10.5413C13.375 10.0121 13.8041 9.58301 14.3333 9.58301H15.2917C15.8209 9.58301 16.25 10.0121 16.25 10.5413C16.25 11.0706 15.8209 11.4997 15.2917 11.4997H14.3333C13.8041 11.4997 13.375 11.0706 13.375 10.5413Z" fill="#FE9A00"/>
<path fill-rule="evenodd" clip-rule="evenodd" d="M4.75 14.3753C4.75 13.8461 5.17906 13.417 5.70833 13.417H10.5C11.0293 13.417 11.4583 13.8461 11.4583 14.3753C11.4583 14.9046 11.0293 15.3337 10.5 15.3337H5.70833C5.17906 15.3337 4.75 14.9046 4.75 14.3753Z" fill="#FE9A00"/>
<path fill-rule="evenodd" clip-rule="evenodd" d="M13.375 14.3753C13.375 13.8461 13.8041 13.417 14.3333 13.417H15.2917C15.8209 13.417 16.25 13.8461 16.25 14.3753C16.25 14.9046 15.8209 15.3337 15.2917 15.3337H14.3333C13.8041 15.3337 13.375 14.9046 13.375 14.3753Z" fill="#FE9A00"/>
</svg>
