<svg width="24" height="24" viewBox="0 0 24 24" fill="none" xmlns="http://www.w3.org/2000/svg">
<path fill-rule="evenodd" clip-rule="evenodd" d="M3.70711 3.95696C4.09763 3.56643 4.71949 3.55512 5.09607 3.9317L19.6423 18.4779C20.0188 18.8545 20.0075 19.4763 19.617 19.8669C19.2265 20.2574 18.6046 20.2687 18.228 19.8921L3.68185 5.34592C3.30528 4.96934 3.31658 4.34748 3.70711 3.95696Z" fill="#FF0048"/>
<path fill-rule="evenodd" clip-rule="evenodd" d="M3.95711 19.6173C3.56658 19.2267 3.55528 18.6049 3.93185 18.2283L18.478 3.68211C18.8546 3.30553 19.4765 3.31684 19.867 3.70736C20.2575 4.09788 20.2688 4.71974 19.8923 5.09632L5.34607 19.6425C4.96949 20.0191 4.34763 20.0078 3.95711 19.6173Z" fill="#FF0048"/>
</svg>
