<svg width="24" height="24" viewBox="0 0 24 24" fill="none" xmlns="http://www.w3.org/2000/svg">
<path fill-rule="evenodd" clip-rule="evenodd" d="M12 2C11.4477 2 11 2.44772 11 3C11 3.55228 11.4477 4 12 4C12.5523 4 13 3.55228 13 3C13 2.44772 12.5523 2 12 2ZM9 3C9 1.34315 10.3431 0 12 0C13.6569 0 15 1.34315 15 3C15 4.65685 13.6569 6 12 6C10.3431 6 9 4.65685 9 3Z" fill="#FE9A00"/>
<path fill-rule="evenodd" clip-rule="evenodd" d="M18.3648 4.73438C17.8678 4.73438 17.4648 5.13732 17.4648 5.63438C17.4648 6.13143 17.8678 6.53437 18.3648 6.53437C18.8619 6.53437 19.2648 6.13143 19.2648 5.63438C19.2648 5.13732 18.8619 4.73438 18.3648 4.73438ZM15.4648 5.63438C15.4648 4.03275 16.7632 2.73438 18.3648 2.73438C19.9665 2.73438 21.2648 4.03275 21.2648 5.63438C21.2648 7.236 19.9665 8.53437 18.3648 8.53437C16.7632 8.53437 15.4648 7.236 15.4648 5.63438Z" fill="#FE9A00"/>
<path fill-rule="evenodd" clip-rule="evenodd" d="M20.9992 11.1992C20.5574 11.1992 20.1992 11.5574 20.1992 11.9992C20.1992 12.441 20.5574 12.7992 20.9992 12.7992C21.441 12.7992 21.7992 12.441 21.7992 11.9992C21.7992 11.5574 21.441 11.1992 20.9992 11.1992ZM18.1992 11.9992C18.1992 10.4528 19.4528 9.19922 20.9992 9.19922C22.5456 9.19922 23.7992 10.4528 23.7992 11.9992C23.7992 13.5456 22.5456 14.7992 20.9992 14.7992C19.4528 14.7992 18.1992 13.5456 18.1992 11.9992Z" fill="#FE9A00"/>
<path fill-rule="evenodd" clip-rule="evenodd" d="M18.3641 17.6641C17.9775 17.6641 17.6641 17.9775 17.6641 18.3641C17.6641 18.7507 17.9775 19.0641 18.3641 19.0641C18.7507 19.0641 19.0641 18.7507 19.0641 18.3641C19.0641 17.9775 18.7507 17.6641 18.3641 17.6641ZM15.6641 18.3641C15.6641 16.8729 16.8729 15.6641 18.3641 15.6641C19.8552 15.6641 21.0641 16.8729 21.0641 18.3641C21.0641 19.8552 19.8552 21.0641 18.3641 21.0641C16.8729 21.0641 15.6641 19.8552 15.6641 18.3641Z" fill="#FE9A00"/>
<path fill-rule="evenodd" clip-rule="evenodd" d="M12.0004 20.3984C11.669 20.3984 11.4004 20.6671 11.4004 20.9984C11.4004 21.3298 11.669 21.5984 12.0004 21.5984C12.3318 21.5984 12.6004 21.3298 12.6004 20.9984C12.6004 20.6671 12.3318 20.3984 12.0004 20.3984ZM9.40039 20.9984C9.40039 19.5625 10.5645 18.3984 12.0004 18.3984C13.4363 18.3984 14.6004 19.5625 14.6004 20.9984C14.6004 22.4344 13.4363 23.5984 12.0004 23.5984C10.5645 23.5984 9.40039 22.4344 9.40039 20.9984Z" fill="#FE9A00"/>
<path fill-rule="evenodd" clip-rule="evenodd" d="M5.63672 17.8633C5.36058 17.8633 5.13672 18.0871 5.13672 18.3633C5.13672 18.6394 5.36058 18.8633 5.63672 18.8633C5.91286 18.8633 6.13672 18.6394 6.13672 18.3633C6.13672 18.0871 5.91286 17.8633 5.63672 17.8633ZM3.13672 18.3633C3.13672 16.9826 4.25601 15.8633 5.63672 15.8633C7.01743 15.8633 8.13672 16.9826 8.13672 18.3633C8.13672 19.744 7.01743 20.8633 5.63672 20.8633C4.25601 20.8633 3.13672 19.744 3.13672 18.3633Z" fill="#FE9A00"/>
<path fill-rule="evenodd" clip-rule="evenodd" d="M2.99961 11.6016C2.7787 11.6016 2.59961 11.7806 2.59961 12.0016C2.59961 12.2225 2.7787 12.4016 2.99961 12.4016C3.22052 12.4016 3.39961 12.2225 3.39961 12.0016C3.39961 11.7806 3.22052 11.6016 2.99961 11.6016ZM0.599609 12.0016C0.599609 10.6761 1.67413 9.60156 2.99961 9.60156C4.32509 9.60156 5.39961 10.6761 5.39961 12.0016C5.39961 13.327 4.32509 14.4016 2.99961 14.4016C1.67413 14.4016 0.599609 13.327 0.599609 12.0016Z" fill="#FE9A00"/>
<path fill-rule="evenodd" clip-rule="evenodd" d="M5.63594 5.33594C5.47025 5.33594 5.33594 5.47025 5.33594 5.63594C5.33594 5.80162 5.47025 5.93594 5.63594 5.93594C5.80162 5.93594 5.93594 5.80162 5.93594 5.63594C5.93594 5.47025 5.80162 5.33594 5.63594 5.33594ZM3.33594 5.63594C3.33594 4.36568 4.36568 3.33594 5.63594 3.33594C6.90619 3.33594 7.93594 4.36568 7.93594 5.63594C7.93594 6.90619 6.90619 7.93594 5.63594 7.93594C4.36568 7.93594 3.33594 6.90619 3.33594 5.63594Z" fill="#FE9A00"/>
</svg>
