<svg width="17" height="17" viewBox="0 0 17 17" fill="none" xmlns="http://www.w3.org/2000/svg">
<path d="M10.2853 11.7143H13.1424V2.42857C13.1424 1.64286 13.7853 1 14.571 1H8.85672C7.64244 1 6.71387 1.92857 6.71387 3.14286V9.57143" stroke="white" stroke-width="0.9" stroke-miterlimit="10" stroke-linecap="round" stroke-linejoin="round"/>
<path d="M3.14286 11.7143C3.14286 10.5 4.07143 9.57141 5.28571 9.57141H11.3571H11.7143C10.9286 9.57141 10.2857 10.2143 10.2857 11V13.8571C10.2857 15.0714 9.35714 16 8.14286 16H1C2.21429 16 3.14286 15.0714 3.14286 13.8571V11.7143Z" stroke="white" stroke-width="0.9" stroke-miterlimit="10" stroke-linecap="round" stroke-linejoin="round"/>
<path d="M11 9.57141H11.7143C12.5 9.57141 13.1429 10.2143 13.1429 11V11.7143" stroke="white" stroke-width="0.9" stroke-miterlimit="10" stroke-linecap="round" stroke-linejoin="round"/>
<path d="M14.5711 1C15.3569 1 15.9997 1.64286 15.9997 2.42857V3.14286H13.1426" stroke="white" stroke-width="0.9" stroke-miterlimit="10" stroke-linecap="round" stroke-linejoin="round"/>
<path d="M8.14258 3.14282H11.714" stroke="white" stroke-width="0.9" stroke-miterlimit="10" stroke-linecap="round" stroke-linejoin="round"/>
<path d="M8.14258 5.28571H11.714" stroke="white" stroke-width="0.9" stroke-miterlimit="10" stroke-linecap="round" stroke-linejoin="round"/>
<path d="M8.14258 7.42859H11.714" stroke="white" stroke-width="0.9" stroke-miterlimit="10" stroke-linecap="round" stroke-linejoin="round"/>
<path d="M4.57129 11.7143H8.857" stroke="white" stroke-width="0.9" stroke-miterlimit="10" stroke-linecap="round" stroke-linejoin="round"/>
<path d="M4.57129 13.8572H8.857" stroke="white" stroke-width="0.9" stroke-miterlimit="10" stroke-linecap="round" stroke-linejoin="round"/>
</svg>
