<svg width="19" height="18" viewBox="0 0 19 18" fill="none" xmlns="http://www.w3.org/2000/svg">
<path d="M3.74219 3.71289H16.6967L14.5376 10.8557H3.74219" stroke="#576C8A" stroke-width="1.5" stroke-miterlimit="10" stroke-linecap="round" stroke-linejoin="round"/>
<path d="M4.43152 16.5692C4.43152 16.9386 4.12822 17.2478 3.74213 17.2478C3.35604 17.2478 3.05273 16.9386 3.05273 16.5692C3.05273 16.1998 3.35604 15.8906 3.74213 15.8906C4.12822 15.8906 4.43152 16.1998 4.43152 16.5692Z" fill="#576C8A" stroke="#576C8A" stroke-width="1.5"/>
<path d="M15.9462 16.5692C15.9462 16.9386 15.6429 17.2478 15.2568 17.2478C14.8707 17.2478 14.5674 16.9386 14.5674 16.5692C14.5674 16.1998 14.8707 15.8906 15.2568 15.8906C15.6429 15.8906 15.9462 16.1998 15.9462 16.5692Z" fill="#576C8A" stroke="#576C8A" stroke-width="1.5"/>
<path d="M1.58301 1.57031L3.7421 3.71317V10.856L2.3027 13.7132H17.4163" stroke="#576C8A" stroke-width="1.5" stroke-miterlimit="10" stroke-linecap="round" stroke-linejoin="round"/>
</svg>
