<svg width="278" height="138" viewBox="0 0 278 138" fill="none" xmlns="http://www.w3.org/2000/svg">
<mask id="mask0" mask-type="alpha" maskUnits="userSpaceOnUse" x="0" y="0" width="278" height="138">
<rect x="277.481" width="138" height="276.709" transform="rotate(90 277.481 0)" fill="#C4C4C4"/>
</mask>
<g mask="url(#mask0)">
<path d="M119.607 0.958281C93.5845 4.76747 69.1978 15.9219 49.3246 33.1052C29.4515 50.2885 14.9214 72.7834 7.44894 97.9353C-0.023468 123.087 -0.126221 149.846 7.15274 175.055C14.4317 200.263 28.7887 222.868 48.5293 240.203C68.2698 257.537 92.5701 268.878 118.562 272.886C144.554 276.894 171.154 273.402 195.221 262.822C219.288 252.243 239.819 235.017 254.39 213.178C268.961 191.339 276.965 165.798 277.456 139.57L265.608 139.349C265.159 163.323 257.843 186.668 244.525 206.629C231.206 226.591 212.44 242.336 190.442 252.006C168.443 261.676 144.131 264.868 120.373 261.205C96.615 257.541 74.4036 247.176 56.36 231.331C38.3163 215.487 25.1936 194.825 18.5403 171.783C11.887 148.742 11.981 124.283 18.811 101.293C25.6411 78.3037 38.9222 57.7424 57.087 42.0362C75.2518 26.3301 97.5421 16.1345 121.327 12.6528L119.607 0.958281Z" fill="#D8D8D8"/>
<path d="M277.481 137.5C277.481 118.346 273.469 99.4032 265.702 81.886C257.935 64.3688 246.584 48.6634 232.377 35.7764C218.17 22.8893 201.421 13.1049 183.202 7.05034C164.983 0.995742 145.697 -1.19551 126.579 0.617015L127.701 12.3837C145.175 10.727 162.803 12.7299 179.456 18.2641C196.108 23.7982 211.418 32.7415 224.404 44.5207C237.389 56.2999 247.764 70.6553 254.864 86.6667C261.963 102.678 265.631 119.992 265.631 137.5L277.481 137.5Z" fill="#FE9A00"/>
</g>
</svg>
