<svg width="17" height="14" viewBox="0 0 17 14" fill="none" xmlns="http://www.w3.org/2000/svg">
<path d="M0.624949 13.7188C0.635366 13.7188 0.640574 13.7188 0.640574 13.7188C0.765574 13.7188 0.864533 13.6771 0.937449 13.5938C1.02078 13.5 1.06766 13.3906 1.07807 13.2656C1.07807 13.224 1.14057 12.9583 1.26557 12.4688C1.40099 11.9688 1.7187 11.4323 2.2187 10.8594C2.7187 10.2865 3.4687 9.76562 4.4687 9.29688C5.4687 8.82812 6.8437 8.59375 8.5937 8.59375L8.60932 11.4688C8.60932 11.5625 8.63537 11.651 8.68745 11.7344C8.73953 11.8177 8.80724 11.8802 8.89057 11.9219C8.98432 11.9635 9.07807 11.9792 9.17182 11.9688C9.26557 11.9583 9.34891 11.9219 9.42182 11.8594L15.9062 6.48438C15.9687 6.43229 16.0156 6.375 16.0468 6.3125C16.0781 6.23958 16.0937 6.16667 16.0937 6.09375C16.0937 6.02083 16.0781 5.95312 16.0468 5.89062C16.0156 5.81771 15.9687 5.75521 15.9062 5.70312L9.42182 0.390625C9.34891 0.328125 9.26557 0.291667 9.17182 0.28125C9.07807 0.270833 8.98432 0.286458 8.89057 0.328125C8.80724 0.369792 8.73953 0.432292 8.68745 0.515625C8.63537 0.588542 8.60932 0.677083 8.60932 0.78125L8.5937 3.57812C7.86453 3.59896 7.17703 3.67708 6.5312 3.8125C5.89578 3.9375 5.29682 4.11458 4.73432 4.34375C4.18224 4.57292 3.67703 4.85417 3.2187 5.1875C2.76037 5.51042 2.34891 5.88542 1.98432 6.3125C1.39057 7.01042 0.958283 7.76042 0.687449 8.5625C0.427033 9.35417 0.255158 10.0938 0.171824 10.7812C0.0884911 11.4688 0.0624495 12.0521 0.0936995 12.5312C0.135366 13 0.156199 13.2552 0.156199 13.2969C0.177033 13.4219 0.229116 13.526 0.312449 13.6094C0.395783 13.6823 0.499949 13.7188 0.624949 13.7188ZM9.10932 7.59375C7.85932 7.59375 6.78641 7.69271 5.89057 7.89062C5.00516 8.07812 4.24995 8.32292 3.62495 8.625C3.01037 8.92708 2.50516 9.27083 2.10932 9.65625C1.71349 10.0312 1.38016 10.4062 1.10932 10.7812C1.18224 10.1771 1.3437 9.53646 1.5937 8.85938C1.85412 8.18229 2.23953 7.55208 2.74995 6.96875C3.08328 6.57292 3.4687 6.22917 3.9062 5.9375C4.3437 5.63542 4.82807 5.38542 5.35932 5.1875C5.90099 4.97917 6.48432 4.82812 7.10932 4.73438C7.73432 4.63021 8.40099 4.57812 9.10932 4.57812C9.24474 4.57812 9.35932 4.53125 9.45307 4.4375C9.55724 4.33333 9.60932 4.21354 9.60932 4.07812V1.82812L14.8124 6.09375L9.60932 10.4062V8.09375C9.60932 8.02083 9.5937 7.95833 9.56245 7.90625C9.54162 7.84375 9.51037 7.78646 9.4687 7.73438C9.41662 7.69271 9.35932 7.66146 9.29682 7.64062C9.23432 7.60938 9.17182 7.59375 9.10932 7.59375Z" fill="#EE0033"/>
</svg>
