<svg width="279" height="138" viewBox="0 0 279 138" fill="none" xmlns="http://www.w3.org/2000/svg">
<mask id="mask0" mask-type="alpha" maskUnits="userSpaceOnUse" x="0" y="0" width="279" height="138">
<rect x="278.729" width="138" height="278.699" transform="rotate(90 278.729 0)" fill="#C4C4C4"/>
</mask>
<g mask="url(#mask0)">
<path d="M38.289 43.4815C20.3051 62.6237 8.18655 86.4976 3.36358 112.286C-1.45942 138.074 1.21441 164.7 11.0695 189.022C20.9246 213.344 37.5497 234.346 58.9827 249.55C80.4157 264.755 105.762 273.526 132.031 274.83C158.299 276.134 184.394 269.916 207.234 256.909C230.075 243.902 248.708 224.65 260.936 201.424C273.163 178.198 278.474 151.969 276.242 125.83C274.01 99.6919 264.327 74.7359 248.338 53.9075L238.929 61.0933C253.544 80.1312 262.394 102.942 264.434 126.833C266.474 150.725 261.62 174.7 250.444 195.929C239.267 217.158 222.236 234.755 201.358 246.644C180.481 258.533 156.63 264.217 132.62 263.025C108.609 261.833 85.4417 253.815 65.8511 239.918C46.2605 226.021 31.0646 206.824 22.0566 184.593C13.0487 162.362 10.6047 138.025 15.0131 114.453C19.4215 90.8819 30.4983 69.0602 46.9362 51.5636L38.289 43.4815Z" fill="#D8D8D8"/>
<path d="M276.739 137.5C276.739 110.435 268.731 83.9726 253.718 61.4275C238.706 38.8823 217.357 21.2575 192.345 10.7613C167.334 0.265189 139.774 -2.63545 113.117 2.42287C86.4603 7.48118 61.893 20.2735 42.4935 39.1969L50.7793 47.6473C68.5112 30.3505 90.9666 18.6579 115.332 14.0344C139.697 9.41088 164.888 12.0622 187.75 21.6561C210.611 31.25 230.125 47.3597 243.847 67.9668C257.569 88.574 264.888 112.762 264.888 137.5L276.739 137.5Z" fill="#EE0033"/>
</g>
</svg>
