<svg width="19" height="19" viewBox="0 0 19 19" fill="none" xmlns="http://www.w3.org/2000/svg">
<path d="M14.4777 1.46289C13.0949 0.654297 11.5891 0.25 9.96015 0.25C8.33124 0.25 6.82538 0.654297 5.44257 1.46289C4.05976 2.25977 2.96405 3.34961 2.15546 4.73242C1.35859 6.11523 0.960148 7.62109 0.960148 9.25C0.960148 10.8789 1.35859 12.3848 2.15546 13.7676C2.96405 15.1504 4.05976 16.2402 5.44257 17.0371C6.82538 17.8457 8.33124 18.25 9.96015 18.25C11.5891 18.25 13.0949 17.8457 14.4777 17.0371C15.8605 16.2402 16.9504 15.1504 17.7473 13.7676C18.5559 12.3848 18.9601 10.8789 18.9601 9.25C18.9601 7.62109 18.5559 6.11523 17.7473 4.73242C16.9504 3.34961 15.8605 2.25977 14.4777 1.46289ZM15.4269 14.7168C14.7121 15.4316 13.8918 15.9824 12.966 16.3691C12.0168 16.7793 11.0148 16.9844 9.96015 16.9844C8.90546 16.9844 7.90351 16.7852 6.95429 16.3867C6.02851 15.9883 5.20819 15.4316 4.49335 14.7168C3.77851 14.002 3.22773 13.1816 2.84101 12.2559C2.43085 11.3066 2.22577 10.3047 2.22577 9.25C2.22577 8.19531 2.42499 7.19336 2.82343 6.24414C3.22187 5.31836 3.77851 4.49805 4.49335 3.7832C5.20819 3.06836 6.02851 2.51758 6.95429 2.13086C7.90351 1.7207 8.90546 1.51562 9.96015 1.51562C11.0148 1.51562 12.0168 1.71484 12.966 2.11328C13.8918 2.51172 14.7121 3.06836 15.4269 3.7832C16.1418 4.49805 16.6926 5.31836 17.0793 6.24414C17.4894 7.19336 17.6945 8.19531 17.6945 9.25C17.6945 10.3047 17.4953 11.3066 17.0969 12.2559C16.6984 13.1816 16.1418 14.002 15.4269 14.7168ZM13.8273 8.61719H10.593V5.40039C10.593 5.22461 10.5285 5.07812 10.3996 4.96094C10.2824 4.83203 10.1359 4.76758 9.96015 4.76758C9.79609 4.76758 9.6496 4.83203 9.52069 4.96094C9.39179 5.07812 9.32734 5.22461 9.32734 5.40039V8.61719H6.09296C5.91718 8.61719 5.76484 8.68164 5.63593 8.81055C5.51874 8.93945 5.46015 9.08594 5.46015 9.25C5.46015 9.42578 5.51874 9.57812 5.63593 9.70703C5.76484 9.82422 5.91718 9.88281 6.09296 9.88281H9.32734V13.0996C9.32734 13.2754 9.39179 13.4277 9.52069 13.5566C9.6496 13.6738 9.79609 13.7324 9.96015 13.7324C10.1359 13.7324 10.2824 13.6738 10.3996 13.5566C10.5285 13.4277 10.593 13.2754 10.593 13.0996V9.88281H13.8273C14.0031 9.88281 14.1496 9.82422 14.2668 9.70703C14.3957 9.57812 14.4601 9.42578 14.4601 9.25C14.4601 9.08594 14.3957 8.93945 14.2668 8.81055C14.1496 8.68164 14.0031 8.61719 13.8273 8.61719Z" fill="#EE0033"/>
</svg>
