<svg width="13" height="12" viewBox="0 0 13 12" fill="none" xmlns="http://www.w3.org/2000/svg">
<path fill-rule="evenodd" clip-rule="evenodd" d="M6.05664 0.857143C3.20762 0.857143 0.913783 3.15098 0.913783 6C0.913783 8.84902 3.20762 11.1429 6.05664 11.1429C8.90566 11.1429 11.1995 8.84902 11.1995 6C11.1995 5.76648 11.1704 5.56518 11.1325 5.30333C11.1278 5.27103 11.123 5.23779 11.1181 5.20347C11.0846 4.96915 11.2474 4.75207 11.4817 4.71859C11.7161 4.68512 11.9331 4.84793 11.9666 5.08225C11.9713 5.115 11.9761 5.14781 11.9809 5.18076C12.0182 5.43698 12.0566 5.70081 12.0566 6C12.0566 9.32241 9.37905 12 6.05664 12C2.73423 12 0.0566406 9.32241 0.0566406 6C0.0566406 2.67759 2.73423 0 6.05664 0C7.06719 0 7.99676 0.230431 8.8362 0.69679C9.04311 0.811738 9.11766 1.07265 9.00271 1.27956C8.88776 1.48647 8.62684 1.56102 8.41994 1.44607C7.71653 1.05528 6.93181 0.857143 6.05664 0.857143Z" fill="#EE0033"/>
<path fill-rule="evenodd" clip-rule="evenodd" d="M11.9291 0.980485C12.0976 1.14676 12.0994 1.41811 11.9331 1.58656L6.01101 7.58656C5.93048 7.66815 5.82063 7.71408 5.70599 7.71408C5.59136 7.71408 5.4815 7.66815 5.40097 7.58656L3.18019 5.33656C3.01392 5.16811 3.0157 4.89675 3.18415 4.73048C3.35261 4.56421 3.62396 4.56599 3.79023 4.73445L5.70599 6.67541L11.323 0.984446C11.4893 0.815989 11.7607 0.814215 11.9291 0.980485Z" fill="#FE9A00"/>
</svg>
