<svg width="12" height="12" viewBox="0 0 12 12" fill="none" xmlns="http://www.w3.org/2000/svg">
<g clip-path="url(#clip0)">
<path fill-rule="evenodd" clip-rule="evenodd" d="M0.375 0.625C0.651142 0.625 0.875 0.848858 0.875 1.125V10.875C0.875 11.1511 0.651142 11.375 0.375 11.375C0.0988576 11.375 -0.125 11.1511 -0.125 10.875V1.125C-0.125 0.848858 0.0988576 0.625 0.375 0.625Z" fill="#EE0033"/>
<path fill-rule="evenodd" clip-rule="evenodd" d="M2.625 0.625C2.90114 0.625 3.125 0.848858 3.125 1.125V8.625C3.125 8.90114 2.90114 9.125 2.625 9.125C2.34886 9.125 2.125 8.90114 2.125 8.625V1.125C2.125 0.848858 2.34886 0.625 2.625 0.625Z" fill="#EE0033"/>
<path fill-rule="evenodd" clip-rule="evenodd" d="M9.375 0.625C9.65114 0.625 9.875 0.848858 9.875 1.125V8.625C9.875 8.90114 9.65114 9.125 9.375 9.125C9.09886 9.125 8.875 8.90114 8.875 8.625V1.125C8.875 0.848858 9.09886 0.625 9.375 0.625Z" fill="#EE0033"/>
<path fill-rule="evenodd" clip-rule="evenodd" d="M11.625 0.625C11.9011 0.625 12.125 0.848858 12.125 1.125V10.875C12.125 11.1511 11.9011 11.375 11.625 11.375C11.3489 11.375 11.125 11.1511 11.125 10.875V1.125C11.125 0.848858 11.3489 0.625 11.625 0.625Z" fill="#EE0033"/>
<path fill-rule="evenodd" clip-rule="evenodd" d="M4.375 1.125C4.375 0.848858 4.59886 0.625 4.875 0.625H7.125C7.40114 0.625 7.625 0.848858 7.625 1.125V8.625C7.625 8.90114 7.40114 9.125 7.125 9.125H4.875C4.59886 9.125 4.375 8.90114 4.375 8.625V1.125ZM5.375 1.625V8.125H6.625V1.625H5.375Z" fill="#FE9A00"/>
</g>
<defs>
<clipPath id="clip0">
<rect width="12" height="12" fill="white"/>
</clipPath>
</defs>
</svg>
