<svg width="24" height="24" viewBox="0 0 24 24" fill="none" xmlns="http://www.w3.org/2000/svg">
<circle cx="12" cy="12" r="12" fill="#FE9A00"/>
<path fill-rule="evenodd" clip-rule="evenodd" d="M12 7.5C9.52614 7.5 7.5 9.52614 7.5 12C7.5 14.4739 9.52614 16.5 12 16.5C14.4739 16.5 16.5 14.4739 16.5 12C16.5 11.7239 16.7239 11.5 17 11.5C17.2761 11.5 17.5 11.7239 17.5 12C17.5 15.0261 15.0261 17.5 12 17.5C8.97386 17.5 6.5 15.0261 6.5 12C6.5 8.97386 8.97386 6.5 12 6.5C14.1413 6.5 16.0162 7.70923 16.8999 9.53186C17.0204 9.78034 16.9166 10.0794 16.6681 10.1999C16.4197 10.3204 16.1206 10.2166 16.0001 9.96814C15.2838 8.49077 13.7587 7.5 12 7.5Z" fill="white"/>
<path fill-rule="evenodd" clip-rule="evenodd" d="M16.9672 6.3542C17.2409 6.39131 17.4326 6.64321 17.3955 6.91685L16.9955 9.86685C16.9585 10.1401 16.7073 10.3317 16.434 10.2953L13.434 9.89528C13.1603 9.85879 12.9679 9.60731 13.0044 9.33359C13.0409 9.05987 13.2924 8.86756 13.5661 8.90405L16.0716 9.23812L16.4046 6.78249C16.4417 6.50885 16.6936 6.3171 16.9672 6.3542Z" fill="white"/>
</svg>
