<svg width="13" height="12" viewBox="0 0 13 12" fill="none" xmlns="http://www.w3.org/2000/svg">
<path fill-rule="evenodd" clip-rule="evenodd" d="M2.20844 0.109835C2.35758 -0.0366117 2.59937 -0.0366117 2.7485 0.109835L5.20345 2.52055C5.27507 2.59088 5.3153 2.68626 5.3153 2.78571C5.3153 2.88517 5.27507 2.98055 5.20345 3.05088L3.83685 4.39286L8.20668 8.68396L9.57328 7.34198C9.72242 7.19553 9.96421 7.19553 10.1133 7.34198L12.5683 9.75269C12.6399 9.82302 12.6801 9.9184 12.6801 10.0179C12.6801 10.1173 12.6399 10.2127 12.5683 10.283L10.9317 11.8902C10.86 11.9605 10.7629 12 10.6616 12C5.00892 12 0.459961 7.533 0.459961 1.98214C0.459961 1.88269 0.500195 1.7873 0.571811 1.71698L2.20844 0.109835ZM2.47847 0.90533L1.22499 2.13623C1.30729 7.14989 5.39906 11.1679 10.5047 11.2488L11.7582 10.0179L9.84332 8.13747L8.47672 9.47945C8.32758 9.6259 8.08579 9.6259 7.93665 9.47945L3.02676 4.65802C2.95514 4.5877 2.91491 4.49231 2.91491 4.39286C2.91491 4.2934 2.95514 4.19802 3.02676 4.12769L4.39336 2.78571L2.47847 0.90533Z" fill="#EE0033"/>
<path fill-rule="evenodd" clip-rule="evenodd" d="M6.59814 2.78564C6.59814 2.57854 6.76912 2.41064 6.98003 2.41064C8.78665 2.41064 10.226 3.82407 10.226 5.59814C10.226 5.80525 10.055 5.97314 9.84413 5.97314C9.63322 5.97314 9.46225 5.80525 9.46225 5.59814C9.46225 4.23829 8.36483 3.16064 6.98003 3.16064C6.76912 3.16064 6.59814 2.99275 6.59814 2.78564Z" fill="#FE9A00"/>
<path fill-rule="evenodd" clip-rule="evenodd" d="M6.59814 0.375C6.59814 0.167893 6.76912 0 6.98003 0C10.1369 0 12.681 2.49825 12.681 5.59821C12.681 5.80532 12.51 5.97321 12.2991 5.97321C12.0882 5.97321 11.9172 5.80532 11.9172 5.59821C11.9172 2.91246 9.71505 0.75 6.98003 0.75C6.76912 0.75 6.59814 0.582107 6.59814 0.375Z" fill="#FE9A00"/>
</svg>
