<svg width="13" height="13" viewBox="0 0 13 13" fill="none" xmlns="http://www.w3.org/2000/svg">
<path fill-rule="evenodd" clip-rule="evenodd" d="M5.36777 5.66553C5.57868 5.66553 5.74965 5.83342 5.74965 6.04053V6.86553C5.74965 7.65246 5.23537 8.40533 4.45514 8.64706L1.9769 9.47073C1.97204 9.47235 1.96714 9.47387 1.96222 9.47529C1.48573 9.61291 1.16708 10.0587 1.16708 10.5405V11.328H11.8597V10.5405C11.8597 10.054 11.5359 9.60825 11.0966 9.47346L11.0881 9.47073L8.60987 8.64706C7.82965 8.40533 7.31536 7.65246 7.31536 6.86553V6.04053C7.31536 5.83342 7.48634 5.66553 7.69724 5.66553C7.90815 5.66553 8.07912 5.83342 8.07912 6.04053V6.86553C8.07912 7.35207 8.40298 7.79781 8.84223 7.9326L8.85075 7.93532L11.329 8.759C12.1092 9.00073 12.6235 9.75359 12.6235 10.5405V11.703C12.6235 11.9101 12.4525 12.078 12.2416 12.078H0.785201C0.574294 12.078 0.40332 11.9101 0.40332 11.703V10.5405C0.40332 9.74985 0.921508 8.99793 1.73891 8.75804L4.21426 7.93532L4.22279 7.9326C4.66203 7.79781 4.98589 7.35207 4.98589 6.86553V6.04053C4.98589 5.83342 5.15686 5.66553 5.36777 5.66553Z" fill="#FE9A00"/>
<path fill-rule="evenodd" clip-rule="evenodd" d="M6.51354 0.828125C5.23511 0.828125 4.22226 1.82273 4.22226 3.07812C4.22226 3.72129 4.48709 4.49001 4.92891 5.09569C5.37444 5.70646 5.94197 6.07812 6.51354 6.07812C7.08511 6.07812 7.65264 5.70646 8.09817 5.09569C8.53999 4.49001 8.80483 3.72129 8.80483 3.07812C8.80483 1.82273 7.79197 0.828125 6.51354 0.828125ZM3.4585 3.07812C3.4585 1.40852 4.8133 0.078125 6.51354 0.078125C8.21378 0.078125 9.56859 1.40852 9.56859 3.07812C9.56859 3.89746 9.24151 4.81624 8.71908 5.53244C8.20036 6.24354 7.43131 6.82812 6.51354 6.82812C5.59578 6.82812 4.82673 6.24354 4.30801 5.53244C3.78557 4.81624 3.4585 3.89746 3.4585 3.07812Z" fill="#EE0033"/>
</svg>
