<svg width="16" height="16" viewBox="0 0 16 16" fill="none" xmlns="http://www.w3.org/2000/svg">
<path fill-rule="evenodd" clip-rule="evenodd" d="M8 1.33333C5.70098 1.33333 3.33333 3.03198 3.33333 6C3.33333 6.65655 3.60852 7.49202 4.09201 8.42575C4.568 9.34501 5.2103 10.2927 5.86454 11.1555C6.51703 12.016 7.17113 12.7786 7.66289 13.3267C7.78663 13.4646 7.89988 13.5887 8 13.6971C8.10012 13.5887 8.21337 13.4646 8.33711 13.3267C8.82887 12.7786 9.48297 12.016 10.1355 11.1555C10.7897 10.2927 11.432 9.34501 11.908 8.42575C12.3915 7.49202 12.6667 6.65655 12.6667 6C12.6667 3.03198 10.299 1.33333 8 1.33333ZM8 14.6667C7.52568 15.1351 7.52559 15.135 7.52548 15.1349L7.52069 15.1301L7.50811 15.1172C7.49724 15.1061 7.48147 15.09 7.46113 15.0689C7.42044 15.0269 7.36143 14.9655 7.28671 14.8866C7.13732 14.7288 6.9249 14.5007 6.67045 14.2171C6.1622 13.6506 5.48297 12.859 4.80212 11.9611C4.12303 11.0656 3.432 10.0508 2.90799 9.03883C2.39148 8.04132 2 6.97679 2 6C2 2.16802 5.09902 0 8 0C10.901 0 14 2.16802 14 6C14 6.97679 13.6085 8.04132 13.092 9.03883C12.568 10.0508 11.877 11.0656 11.1979 11.9611C10.517 12.859 9.8378 13.6506 9.32955 14.2171C9.0751 14.5007 8.86268 14.7288 8.71329 14.8866C8.63857 14.9655 8.57956 15.0269 8.53887 15.0689C8.51853 15.09 8.50276 15.1061 8.49189 15.1172L8.47931 15.1301L8.47484 15.1346C8.47473 15.1347 8.47432 15.1351 8 14.6667ZM8 14.6667L8.47432 15.1351L8 15.6154L7.52548 15.1349L8 14.6667Z" fill="#EE0033"/>
<path fill-rule="evenodd" clip-rule="evenodd" d="M8.00016 4.66683C7.26378 4.66683 6.66683 5.26378 6.66683 6.00016C6.66683 6.73654 7.26378 7.3335 8.00016 7.3335C8.73654 7.3335 9.3335 6.73654 9.3335 6.00016C9.3335 5.26378 8.73654 4.66683 8.00016 4.66683ZM5.3335 6.00016C5.3335 4.5274 6.5274 3.3335 8.00016 3.3335C9.47292 3.3335 10.6668 4.5274 10.6668 6.00016C10.6668 7.47292 9.47292 8.66683 8.00016 8.66683C6.5274 8.66683 5.3335 7.47292 5.3335 6.00016Z" fill="#FE9A00"/>
</svg>
