<svg width="14" height="16" viewBox="0 0 14 16" fill="none" xmlns="http://www.w3.org/2000/svg">
<path opacity="0.85" fill-rule="evenodd" clip-rule="evenodd" d="M9.14286 1.536V0H4.57143V1.536H9.14286ZM13.312 6.85714C13.056 6.15009 12.6903 5.49791 12.2149 4.90057L13.2937 3.78514C12.9158 3.34628 12.5562 2.98667 12.2149 2.70629L11.136 3.82171C10.5265 3.34628 9.86819 2.97448 9.16114 2.70629C8.40533 2.4259 7.63734 2.28571 6.85714 2.28571C5.61371 2.28571 4.46172 2.59657 3.40114 3.21829C2.36495 3.82781 1.5421 4.65066 0.932571 5.68686C0.310854 6.74743 0 7.89942 0 9.14286C0 10.3863 0.310854 11.5383 0.932571 12.5989C1.5421 13.6351 2.36495 14.4579 3.40114 15.0674C4.46172 15.6891 5.61371 16 6.85714 16C8.10058 16 9.25257 15.6891 10.3131 15.0674C11.3493 14.4579 12.1722 13.6351 12.7817 12.5989C13.4034 11.5383 13.7143 10.3863 13.7143 9.14286C13.7143 8.35047 13.5802 7.58858 13.312 6.85714ZM9.54514 13.7691C8.72838 14.2568 7.83239 14.5006 6.85714 14.5006C5.8819 14.5006 4.98591 14.2568 4.16914 13.7691C3.36457 13.2937 2.72457 12.6476 2.24914 11.8309C1.77371 11.0141 1.536 10.1181 1.536 9.14286C1.536 8.16761 1.77371 7.27162 2.24914 6.45486C2.72457 5.65028 3.36457 5.01029 4.16914 4.53486C4.98591 4.05943 5.8819 3.82171 6.85714 3.82171C7.83239 3.82171 8.72838 4.05943 9.54514 4.53486C10.3497 5.01029 10.9897 5.65028 11.4651 6.45486C11.9406 7.27162 12.1783 8.16761 12.1783 9.14286C12.1783 10.1181 11.9406 11.0141 11.4651 11.8309C10.9897 12.6476 10.3497 13.2937 9.54514 13.7691ZM6.10743 9.92914V5.35771H7.60686V9.92914H6.10743Z" fill="white"/>
</svg>
