<svg width="24" height="20" viewBox="0 0 24 20" fill="none" xmlns="http://www.w3.org/2000/svg">
<path fill-rule="evenodd" clip-rule="evenodd" d="M1 10C1.55228 10 2 10.4477 2 11V17C2 17.2652 2.10536 17.5196 2.29289 17.7071C2.48043 17.8946 2.73478 18 3 18H21C21.2652 18 21.5196 17.8946 21.7071 17.7071C21.8946 17.5196 22 17.2652 22 17V11C22 10.4477 22.4477 10 23 10C23.5523 10 24 10.4477 24 11V17C24 17.7957 23.6839 18.5587 23.1213 19.1213C22.5587 19.6839 21.7957 20 21 20H3C2.20435 20 1.44129 19.6839 0.87868 19.1213C0.316071 18.5587 0 17.7956 0 17V11C0 10.4477 0.447715 10 1 10Z" fill="#EE0033"/>
<path fill-rule="evenodd" clip-rule="evenodd" d="M0.87868 0.87868C1.44129 0.31607 2.20435 0 3 0H21C21.7957 0 22.5587 0.31607 23.1213 0.87868C23.6839 1.44129 24 2.20435 24 3V6C24 6.36594 23.8001 6.70266 23.4789 6.8779L12.4789 12.8779C12.1804 13.0407 11.8196 13.0407 11.5211 12.8779L0.521148 6.8779C0.199887 6.70266 0 6.36594 0 6V3C0 2.20435 0.316071 1.44129 0.87868 0.87868ZM3 2C2.73478 2 2.48043 2.10536 2.29289 2.29289C2.10536 2.48043 2 2.73478 2 3V5.40637L12 10.8609L22 5.40637V3C22 2.73478 21.8946 2.48043 21.7071 2.29289C21.5196 2.10536 21.2652 2 21 2H3Z" fill="#EE0033"/>
</svg>
