<svg width="23" height="23" viewBox="0 0 23 23" fill="none" xmlns="http://www.w3.org/2000/svg">
<path fill-rule="evenodd" clip-rule="evenodd" d="M3.29289 0.292893C3.68342 -0.0976311 4.31658 -0.0976311 4.70711 0.292893L9.70711 5.29289C10.0976 5.68342 10.0976 6.31658 9.70711 6.70711L7.41421 9L14 15.5858L16.2929 13.2929C16.6834 12.9024 17.3166 12.9024 17.7071 13.2929L22.7071 18.2929C23.0976 18.6834 23.0976 19.3166 22.7071 19.7071L19.7071 22.7071C19.5196 22.8946 19.2652 23 19 23C8.50672 23 0 14.4933 0 4C0 3.73478 0.105357 3.48043 0.292893 3.29289L3.29289 0.292893ZM2.00483 4.40938C2.21904 13.4729 9.5271 20.781 18.5906 20.9952L20.5858 19L17 15.4142L14.7071 17.7071C14.3166 18.0976 13.6834 18.0976 13.2929 17.7071L5.29289 9.70711C4.90237 9.31658 4.90237 8.68342 5.29289 8.29289L7.58579 6L4 2.41421L2.00483 4.40938Z" fill="#EE0033"/>
</svg>
