<svg width="30" height="23" viewBox="0 0 30 23" fill="none" xmlns="http://www.w3.org/2000/svg">
<g clip-path="url(#clip0)">
<path d="M1.875 12.1875C1.875 11.6697 1.45527 11.25 0.9375 11.25C0.419733 11.25 0 11.6697 0 12.1875V17.8125C0 18.5584 0.296316 19.2738 0.823762 19.8012C1.35121 20.3287 2.06658 20.625 2.8125 20.625H16.4062C16.924 20.625 17.3438 20.2053 17.3438 19.6875C17.3438 19.1697 16.924 18.75 16.4062 18.75H2.8125C2.56386 18.75 2.3254 18.6512 2.14959 18.4754C1.97377 18.2996 1.875 18.0611 1.875 17.8125V12.1875Z" fill="#EE0033"/>
<path fill-rule="evenodd" clip-rule="evenodd" d="M0.823762 2.69876C1.35121 2.17132 2.06658 1.875 2.8125 1.875H19.6875C20.4334 1.875 21.1488 2.17132 21.6762 2.69876C22.2037 3.22621 22.5 3.94158 22.5 4.6875V7.5C22.5 7.84307 22.3126 8.15875 22.0114 8.32303L11.6989 13.948C11.4191 14.1007 11.0809 14.1007 10.8011 13.948L0.488576 8.32303C0.187394 8.15875 0 7.84307 0 7.5V4.6875C0 3.94158 0.296316 3.22621 0.823762 2.69876ZM2.8125 3.75C2.56386 3.75 2.3254 3.84877 2.14959 4.02459C1.97377 4.2004 1.875 4.43886 1.875 4.6875V6.94347L11.25 12.0571L20.625 6.94347V4.6875C20.625 4.43886 20.5262 4.2004 20.3504 4.02459C20.1746 3.84877 19.9361 3.75 19.6875 3.75H2.8125Z" fill="#EE0033"/>
<path fill-rule="evenodd" clip-rule="evenodd" d="M17.8125 15.9375C17.8125 15.4197 18.0434 15 18.3281 15H27.6094C27.8941 15 28.125 15.4197 28.125 15.9375C28.125 16.4553 27.8941 16.875 27.6094 16.875H18.3281C18.0434 16.875 17.8125 16.4553 17.8125 15.9375Z" fill="#FE9A00"/>
<path fill-rule="evenodd" clip-rule="evenodd" d="M21.8371 9.64959C22.2032 9.28347 22.7968 9.28347 23.1629 9.64959L28.7879 15.2746C29.154 15.6407 29.154 16.2343 28.7879 16.6004L23.1629 22.2254C22.7968 22.5915 22.2032 22.5915 21.8371 22.2254C21.471 21.8593 21.471 21.2657 21.8371 20.8996L26.7992 15.9375L21.8371 10.9754C21.471 10.6093 21.471 10.0157 21.8371 9.64959Z" fill="#FE9A00"/>
</g>
<defs>
<clipPath id="clip0">
<rect width="30" height="22.5" fill="white"/>
</clipPath>
</defs>
</svg>
