<svg width="24" height="24" viewBox="0 0 24 24" fill="none" xmlns="http://www.w3.org/2000/svg">
<path fill-rule="evenodd" clip-rule="evenodd" d="M10 1C10 0.447715 10.4477 0 11 0H23C23.5523 0 24 0.447715 24 1V7C24 7.55228 23.5523 8 23 8H16.3508L11.6247 11.7809C11.3245 12.021 10.9133 12.0678 10.5668 11.9013C10.2203 11.7348 10 11.3844 10 11V1ZM12 2V8.91938L15.3753 6.21913C15.5526 6.07728 15.7729 6 16 6H22V2H12Z" fill="#EE0033"/>
<path fill-rule="evenodd" clip-rule="evenodd" d="M1.11675 19.4984C1.96722 18.8233 3.4337 18 5.5 18C7.56673 18 9.03339 18.8237 9.88378 19.4988C10.6071 20.0726 11 20.9418 11 21.836V23C11 23.5523 10.5523 24 10 24H1C0.447715 24 0 23.5523 0 23V21.836C0 20.9418 0.392864 20.0726 1.11622 19.4988M5.5 20C3.99673 20 2.95539 20.5923 2.35978 21.0652L2.35925 21.0656C2.13694 21.2419 2 21.5224 2 21.836V22H9V21.836C9 21.5224 8.86306 21.2419 8.64075 21.0656L8.64021 21.0652C8.04461 20.5923 7.00327 20 5.5 20Z" fill="#EE0033"/>
<path fill-rule="evenodd" clip-rule="evenodd" d="M5.5 12C4.67157 12 4 12.6716 4 13.5C4 14.3284 4.67157 15 5.5 15C6.32843 15 7 14.3284 7 13.5C7 12.6716 6.32843 12 5.5 12ZM2 13.5C2 11.567 3.567 10 5.5 10C7.433 10 9 11.567 9 13.5C9 15.433 7.433 17 5.5 17C3.567 17 2 15.433 2 13.5Z" fill="#EE0033"/>
<path fill-rule="evenodd" clip-rule="evenodd" d="M14.1167 19.4984C14.9672 18.8233 16.4337 18 18.5 18C20.5667 18 22.0334 18.8237 22.8838 19.4988C23.6071 20.0726 24 20.9418 24 21.836V23C24 23.5523 23.5523 24 23 24H14C13.4477 24 13 23.5523 13 23V21.836C13 20.9418 13.3929 20.0726 14.1162 19.4988M18.5 20C16.9967 20 15.9554 20.5923 15.3598 21.0652L15.3593 21.0656C15.1369 21.2419 15 21.5224 15 21.836V22H22V21.836C22 21.5224 21.8631 21.2419 21.6407 21.0656L21.6402 21.0652C21.0446 20.5923 20.0033 20 18.5 20Z" fill="#EE0033"/>
<path fill-rule="evenodd" clip-rule="evenodd" d="M18.5 12C17.6716 12 17 12.6716 17 13.5C17 14.3284 17.6716 15 18.5 15C19.3284 15 20 14.3284 20 13.5C20 12.6716 19.3284 12 18.5 12ZM15 13.5C15 11.567 16.567 10 18.5 10C20.433 10 22 11.567 22 13.5C22 15.433 20.433 17 18.5 17C16.567 17 15 15.433 15 13.5Z" fill="#EE0033"/>
</svg>
