<svg width="30" height="23" viewBox="0 0 30 23" fill="none" xmlns="http://www.w3.org/2000/svg">
<g clip-path="url(#clip0)">
<path d="M1.875 12.1875C1.875 11.6697 1.45527 11.25 0.9375 11.25C0.419733 11.25 0 11.6697 0 12.1875V17.8125C0 18.5584 0.296316 19.2738 0.823762 19.8012C1.35121 20.3287 2.06658 20.625 2.8125 20.625H16.4062C16.924 20.625 17.3438 20.2053 17.3438 19.6875C17.3438 19.1697 16.924 18.75 16.4062 18.75H2.8125C2.56386 18.75 2.3254 18.6512 2.14959 18.4754C1.97377 18.2996 1.875 18.0611 1.875 17.8125V12.1875Z" fill="#EE0033"/>
<path fill-rule="evenodd" clip-rule="evenodd" d="M0.823762 2.69876C1.35121 2.17132 2.06658 1.875 2.8125 1.875H19.6875C20.4334 1.875 21.1488 2.17132 21.6762 2.69876C22.2037 3.22621 22.5 3.94158 22.5 4.6875V7.5C22.5 7.84307 22.3126 8.15875 22.0114 8.32303L11.6989 13.948C11.4191 14.1007 11.0809 14.1007 10.8011 13.948L0.488576 8.32303C0.187394 8.15875 0 7.84307 0 7.5V4.6875C0 3.94158 0.296316 3.22621 0.823762 2.69876ZM2.8125 3.75C2.56386 3.75 2.3254 3.84877 2.14959 4.02459C1.97377 4.2004 1.875 4.43886 1.875 4.6875V6.94347L11.25 12.0571L20.625 6.94347V4.6875C20.625 4.43886 20.5262 4.2004 20.3504 4.02459C20.1746 3.84877 19.9361 3.75 19.6875 3.75H2.8125Z" fill="#EE0033"/>
<path fill-rule="evenodd" clip-rule="evenodd" d="M29.0625 15.9375C29.0625 16.4553 28.8316 16.875 28.5469 16.875H19.2656C18.9809 16.875 18.75 16.4553 18.75 15.9375C18.75 15.4197 18.9809 15 19.2656 15L28.5469 15C28.8316 15 29.0625 15.4197 29.0625 15.9375Z" fill="#FE9A00"/>
<path fill-rule="evenodd" clip-rule="evenodd" d="M25.0379 22.2254C24.6718 22.5915 24.0782 22.5915 23.7121 22.2254L18.0871 16.6004C17.721 16.2343 17.721 15.6407 18.0871 15.2746L23.7121 9.64959C24.0782 9.28347 24.6718 9.28347 25.0379 9.64959C25.404 10.0157 25.404 10.6093 25.0379 10.9754L20.0758 15.9375L25.0379 20.8996C25.404 21.2657 25.404 21.8593 25.0379 22.2254Z" fill="#FE9A00"/>
</g>
<defs>
<clipPath id="clip0">
<rect width="30" height="22.5" fill="white"/>
</clipPath>
</defs>
</svg>
