<svg width="24" height="24" viewBox="0 0 24 24" fill="none" xmlns="http://www.w3.org/2000/svg">
<path fill-rule="evenodd" clip-rule="evenodd" d="M3 19V17.584H5V19C5 20.6567 6.34328 22 8 22H12V24H8C5.23872 24 3 21.7613 3 19Z" fill="#EE0033"/>
<path fill-rule="evenodd" clip-rule="evenodd" d="M11 2C7.68629 2 5 4.68629 5 8V8.406H3V8C3 3.58172 6.58172 0 11 0H13C17.4183 0 21 3.58172 21 8V8.422H19V8C19 4.68629 16.3137 2 13 2H11Z" fill="#EE0033"/>
<path fill-rule="evenodd" clip-rule="evenodd" d="M0 13C0 9.68672 2.68672 7 6 7C6.41133 7 6.81239 7.042 7.2002 7.12124L8 7.28467V18.7153L7.2002 18.8788C6.81239 18.958 6.41133 19 6 19C2.68672 19 0 16.3133 0 13ZM6 9C3.79128 9 2 10.7913 2 13C2 15.2087 3.79128 17 6 17V9Z" fill="#EE0033"/>
<path fill-rule="evenodd" clip-rule="evenodd" d="M16.7998 7.12124C17.1876 7.042 17.5887 7 18 7C21.3133 7 24 9.68672 24 13C24 16.3133 21.3133 19 18 19C17.5887 19 17.1876 18.958 16.7998 18.8788L16 18.7153V7.28467L16.7998 7.12124ZM18 9V17C20.2087 17 22 15.2087 22 13C22 10.7913 20.2087 9 18 9Z" fill="#EE0033"/>
</svg>
