<svg width="30" height="30" viewBox="0 0 30 30" fill="none" xmlns="http://www.w3.org/2000/svg">
<path fill-rule="evenodd" clip-rule="evenodd" d="M13.75 28.75V1.25H16.25V28.75H13.75Z" fill="#EE0033"/>
<path fill-rule="evenodd" clip-rule="evenodd" d="M11.2567 5.8363C10.1164 8.11691 9.375 11.355 9.375 15C9.375 18.645 10.1164 21.8831 11.2567 24.1637C12.4344 26.5191 13.8301 27.5 15 27.5C16.1699 27.5 17.5656 26.5191 18.7433 24.1637C19.8836 21.8831 20.625 18.645 20.625 15C20.625 11.355 19.8836 8.11691 18.7433 5.8363C17.5656 3.48092 16.1699 2.5 15 2.5C13.8301 2.5 12.4344 3.48092 11.2567 5.8363ZM9.02061 4.71826C10.3312 2.09712 12.373 0 15 0C17.627 0 19.6688 2.09712 20.9794 4.71826C22.3273 7.41417 23.125 11.0511 23.125 15C23.125 18.9489 22.3273 22.5858 20.9794 25.2817C19.6688 27.9029 17.627 30 15 30C12.373 30 10.3312 27.9029 9.02061 25.2817C7.67265 22.5858 6.875 18.9489 6.875 15C6.875 11.0511 7.67265 7.41417 9.02061 4.71826Z" fill="#EE0033"/>
<path fill-rule="evenodd" clip-rule="evenodd" d="M28.75 16.25H1.25V13.75H28.75V16.25Z" fill="#EE0033"/>
<path fill-rule="evenodd" clip-rule="evenodd" d="M15 2.5C8.09644 2.5 2.5 8.09644 2.5 15C2.5 21.9036 8.09644 27.5 15 27.5C21.9036 27.5 27.5 21.9036 27.5 15C27.5 8.09644 21.9036 2.5 15 2.5ZM0 15C0 6.71573 6.71573 0 15 0C23.2843 0 30 6.71573 30 15C30 23.2843 23.2843 30 15 30C6.71573 30 0 23.2843 0 15Z" fill="#EE0033"/>
</svg>
