<svg width="37" height="39" viewBox="0 0 37 39" fill="none" xmlns="http://www.w3.org/2000/svg">
<g clip-path="url(#clip0)">
<path fill-rule="evenodd" clip-rule="evenodd" d="M4.11612 9.61807C4.60427 9.12991 5.39573 9.12991 5.88388 9.61807L12.1339 15.8681C12.622 16.3562 12.622 17.1477 12.1339 17.6358L9.26777 20.502L17.5 28.7342L20.3661 25.8681C20.8543 25.3799 21.6457 25.3799 22.1339 25.8681L28.3839 32.1181C28.872 32.6062 28.872 33.3977 28.3839 33.8858L24.6339 37.6358C24.3995 37.8703 24.0815 38.002 23.75 38.002C10.6334 38.002 0 27.3686 0 14.252C0 13.9204 0.131696 13.6025 0.366117 13.3681L4.11612 9.61807ZM2.50604 14.7637C2.7738 26.0931 11.9089 35.2282 23.2383 35.4959L25.7322 33.002L21.25 28.5197L18.3839 31.3858C17.8957 31.874 17.1043 31.874 16.6161 31.3858L6.61612 21.3858C6.12796 20.8977 6.12796 20.1062 6.61612 19.6181L9.48223 16.752L5 12.2697L2.50604 14.7637Z" fill="#EE0033"/>
</g>
<path fill-rule="evenodd" clip-rule="evenodd" d="M31.0922 4.95305C31.4827 5.34357 31.4827 5.97674 31.0922 6.36726L18.3643 19.0952C17.9738 19.4857 17.3406 19.4857 16.9501 19.0952C16.5595 18.7047 16.5596 18.0715 16.9501 17.681L29.678 4.95305C30.0685 4.56253 30.7017 4.56253 31.0922 4.95305Z" fill="#FE9A00"/>
<path fill-rule="evenodd" clip-rule="evenodd" d="M27.1424 18.3867C27.1424 18.939 26.6947 19.3867 26.1424 19.3867L17.6571 19.3867C17.1049 19.3867 16.6571 18.939 16.6571 18.3867L16.6571 9.90144C16.6571 9.34915 17.1049 8.90144 17.6571 8.90144C18.2094 8.90144 18.6571 9.34915 18.6571 9.90144L18.6571 17.3867L26.1424 17.3867C26.6947 17.3867 27.1424 17.8344 27.1424 18.3867Z" fill="#FE9A00"/>
<defs>
<clipPath id="clip0">
<rect width="30" height="30" fill="white" transform="translate(0 8.00195)"/>
</clipPath>
</defs>
</svg>
