<svg width="36" height="37" viewBox="0 0 36 37" fill="none" xmlns="http://www.w3.org/2000/svg">
<path fill-rule="evenodd" clip-rule="evenodd" d="M4.11612 8.61612C4.60427 8.12796 5.39573 8.12796 5.88388 8.61612L12.1339 14.8661C12.622 15.3543 12.622 16.1457 12.1339 16.6339L9.26777 19.5L17.5 27.7322L20.3661 24.8661C20.8543 24.378 21.6457 24.378 22.1339 24.8661L28.3839 31.1161C28.872 31.6043 28.872 32.3957 28.3839 32.8839L24.6339 36.6339C24.3995 36.8683 24.0815 37 23.75 37C10.6334 37 0 26.3666 0 13.25C0 12.9185 0.131696 12.6005 0.366117 12.3661L4.11612 8.61612ZM2.50604 13.7617C2.7738 25.0911 11.9089 34.2262 23.2383 34.494L25.7322 32L21.25 27.5178L18.3839 30.3839C17.8957 30.872 17.1043 30.872 16.6161 30.3839L6.61612 20.3839C6.12796 19.8957 6.12796 19.1043 6.61612 18.6161L9.48223 15.75L5 11.2678L2.50604 13.7617Z" fill="#EE0033"/>
<path fill-rule="evenodd" clip-rule="evenodd" d="M15.9498 19.0919C15.5593 18.7013 15.5593 18.0682 15.9498 17.6777L28.6777 4.94974C29.0682 4.55921 29.7014 4.55921 30.0919 4.94974C30.4824 5.34026 30.4824 5.97343 30.0919 6.36395L17.364 19.0919C16.9735 19.4824 16.3403 19.4824 15.9498 19.0919Z" fill="#FE9A00"/>
<path fill-rule="evenodd" clip-rule="evenodd" d="M19.8996 5.6582C19.8996 5.10592 20.3473 4.6582 20.8996 4.6582L29.3848 4.6582C29.9371 4.6582 30.3848 5.10592 30.3848 5.6582L30.3848 14.1435C30.3848 14.6958 29.9371 15.1435 29.3848 15.1435C28.8326 15.1435 28.3848 14.6958 28.3848 14.1435L28.3848 6.6582L20.8996 6.6582C20.3473 6.6582 19.8996 6.21049 19.8996 5.6582Z" fill="#FE9A00"/>
</svg>
