<svg width="28" height="28" viewBox="0 0 28 28" fill="none" xmlns="http://www.w3.org/2000/svg">
<path d="M16.1777 0.623047C22.3377 0.623047 27.3777 5.66305 27.3777 11.823" stroke="#FE9A00" stroke-width="2" stroke-miterlimit="10" stroke-linecap="square"/>
<path d="M16.1777 5.60156C19.6 5.60156 22.4 8.40156 22.4 11.8238" stroke="#FE9A00" stroke-width="2" stroke-miterlimit="10" stroke-linecap="square"/>
<path d="M18.0445 17.3615L15.929 20.037C12.6312 18.1082 9.89341 15.3704 7.96452 12.0726L10.6401 9.95705C11.2623 9.45927 11.5112 8.58816 11.1379 7.84149L8.71119 2.30371C8.33786 1.49482 7.46675 1.05927 6.59563 1.30816L1.99119 2.49038C1.12008 2.73927 0.497857 3.61038 0.622302 4.48149C2.3023 16.3659 11.6356 25.637 23.4579 27.317C24.3912 27.4415 25.2623 26.8815 25.449 25.9482L26.6312 21.3437C26.8801 20.4726 26.4445 19.6015 25.6356 19.2282L20.1601 16.8015C19.4756 16.5526 18.6045 16.7393 18.0445 17.3615Z" stroke="#EE0033" stroke-width="2" stroke-miterlimit="10" stroke-linecap="square"/>
</svg>
