<svg width="30" height="34" viewBox="0 0 30 34" fill="none" xmlns="http://www.w3.org/2000/svg">
<path d="M30 16.905V23.2483C30 23.3752 30 23.5337 30 23.6606C29.7742 27.086 26.8065 29.8136 23.2258 29.8136H9.22581L4.83871 34.0002V29.6867C2.03226 28.8938 0 26.3565 0 23.3117V16.7781C0 13.1308 3.03226 10.1494 6.74194 10.1494H15.9677C14.2903 11.0692 12.6129 12.2427 12.5806 16.6196V16.8099H17.0968V16.6513C17.0968 15.0972 17.4194 14.0822 18.3548 13.4796C19.7419 12.5916 22.3871 11.989 23.8387 10.1811C23.9355 10.1811 24.0323 10.2128 24.129 10.2128C27.4194 10.6886 30 13.6065 30 16.905Z" fill="#EE0033"/>
<path d="M23.8391 10.1811C22.3875 12.0524 19.7746 12.5916 18.3875 13.5114C17.452 14.114 17.0972 15.0655 17.0972 16.6513V16.8099H12.5811V16.6196C12.6133 12.2744 14.0972 11.0692 15.8069 10.1494H23.194C23.4198 10.1494 23.6456 10.1811 23.8391 10.1811Z" fill="#1A4C7E"/>
<path d="M24.9034 6.88246C24.9034 7.42164 24.8389 7.89739 24.7421 8.34142C24.5485 9.0709 24.2582 9.67351 23.8389 10.181C23.6131 10.1493 23.4195 10.1493 23.1937 10.1493H15.8066C15.9034 10.0858 16.0324 10.0541 16.1292 9.99067C17.355 9.35634 19.0002 9.03918 19.7098 8.27799C20.0647 7.9291 20.2582 7.48507 20.2582 6.85075C20.2582 4.34515 17.8711 3.74254 15.7744 3.74254C13.6131 3.74254 11.3873 4.91604 11.355 6.97761H6.83887C6.93564 2.15672 11.1292 0 15.8711 0C20.6131 0 25.0002 1.99813 24.9034 6.88246Z" fill="#FE9A00"/>
<path d="M12.71 20.8694C12.71 23.6604 17.0648 23.6604 17.0648 20.8694C17.0648 18.0149 12.71 18.0149 12.71 20.8694Z" fill="#1A4C7E"/>
</svg>
