<svg width="22" height="22" viewBox="0 0 22 22" fill="none" xmlns="http://www.w3.org/2000/svg">
<path d="M11 0C17.072 0 22 4.928 22 11C22 17.072 17.072 22 11 22C4.928 22 0 17.072 0 11C0 4.928 4.928 0 11 0Z" fill="#EE0033"/>
<path d="M8.59255 7.66443V13.9075L13.4989 10.7644L8.59255 7.66443ZM8.18743 15.07C8.09741 15.07 8.05239 15.07 7.96237 15.027C7.82733 14.9408 7.7373 14.8117 7.7373 14.6825V6.88943C7.7373 6.71721 7.82733 6.58804 7.96237 6.54499C8.09741 6.45888 8.27746 6.50192 8.4125 6.58803L14.5342 10.463C14.6693 10.5492 14.7143 10.6783 14.7143 10.8075C14.7143 10.9367 14.6243 11.0658 14.5342 11.1519L8.4125 15.027C8.32247 15.027 8.27746 15.07 8.18743 15.07Z" fill="white"/>
</svg>
