<svg width="14" height="16" viewBox="0 0 14 16" fill="none" xmlns="http://www.w3.org/2000/svg">
<path opacity="0.85" fill-rule="evenodd" clip-rule="evenodd" d="M9.14286 1.536V0H4.57143V1.536H9.14286ZM13.312 6.85756C13.056 6.15051 12.6903 5.49833 12.2149 4.90099L13.2937 3.78556C12.9158 3.3467 12.5562 2.98709 12.2149 2.7067L11.136 3.82213C10.5265 3.3467 9.86819 2.9749 9.16114 2.7067C8.40533 2.42632 7.63734 2.28613 6.85714 2.28613C5.61371 2.28613 4.46172 2.59699 3.40114 3.2187C2.36495 3.82823 1.5421 4.65108 0.932571 5.68728C0.310854 6.74785 0 7.89984 0 9.14328C0 10.3867 0.310854 11.5387 0.932571 12.5993C1.5421 13.6355 2.36495 14.4583 3.40114 15.0678C4.46172 15.6896 5.61371 16.0004 6.85714 16.0004C8.10058 16.0004 9.25257 15.6896 10.3131 15.0678C11.3493 14.4583 12.1722 13.6355 12.7817 12.5993C13.4034 11.5387 13.7143 10.3867 13.7143 9.14328C13.7143 8.35089 13.5802 7.58899 13.312 6.85756ZM9.54515 13.7687C8.72839 14.2563 7.8324 14.5001 6.85715 14.5001C5.88191 14.5001 4.98592 14.2563 4.16915 13.7687C3.36458 13.2933 2.72458 12.6472 2.24915 11.8304C1.77372 11.0137 1.53601 10.1177 1.53601 9.14243C1.53601 8.16719 1.77372 7.2712 2.24915 6.45443C2.72458 5.64986 3.36458 5.00986 4.16915 4.53443C4.98592 4.059 5.88191 3.82129 6.85715 3.82129C7.8324 3.82129 8.72839 4.059 9.54515 4.53443C10.3497 5.00986 10.9897 5.64986 11.4652 6.45443C11.9406 7.2712 12.1783 8.16719 12.1783 9.14243C12.1783 10.1177 11.9406 11.0137 11.4652 11.8304C10.9897 12.6472 10.3497 13.2933 9.54515 13.7687ZM6.10744 9.92885V5.35742H7.60686V9.92885H6.10744Z" fill="white"/>
</svg>
