<svg width="12" height="12" viewBox="0 0 12 12" fill="none" xmlns="http://www.w3.org/2000/svg">
<g opacity="0.85" clip-path="url(#clip0)">
<path d="M0.260742 1.82617V3.91313C0.260742 4.80008 1.66944 5.47835 3.39118 5.47835C5.11292 5.47835 6.52161 4.80008 6.52161 3.91313V1.82617" stroke="white" stroke-width="0.7" stroke-miterlimit="10"/>
<path d="M0.260742 3.91309V6.00004C0.260742 6.887 1.66944 7.56526 3.39118 7.56526C4.17379 7.56526 4.90422 7.40874 5.47813 7.14787" stroke="white" stroke-width="0.7" stroke-miterlimit="10"/>
<path d="M0.260742 6V8.08696C0.260742 8.97391 1.66944 9.65217 3.39118 9.65217C4.17379 9.65217 4.90422 9.49565 5.47813 9.23478" stroke="white" stroke-width="0.7" stroke-miterlimit="10"/>
<path d="M3.39118 3.39118C5.12007 3.39118 6.52161 2.69041 6.52161 1.82596C6.52161 0.961514 5.12007 0.260742 3.39118 0.260742C1.66229 0.260742 0.260742 0.961514 0.260742 1.82596C0.260742 2.69041 1.66229 3.39118 3.39118 3.39118Z" stroke="white" stroke-width="0.7" stroke-miterlimit="10" stroke-linecap="square"/>
<path d="M5.47803 6V8.08696C5.47803 8.97391 6.88672 9.65217 8.60846 9.65217C10.3302 9.65217 11.7389 8.97391 11.7389 8.08696V6" stroke="white" stroke-width="0.7" stroke-miterlimit="10"/>
<path d="M5.47803 8.08691V10.1739C5.47803 11.0608 6.88672 11.7391 8.60846 11.7391C10.3302 11.7391 11.7389 11.0608 11.7389 10.1739V8.08691" stroke="white" stroke-width="0.7" stroke-miterlimit="10"/>
<path d="M8.60846 7.565C10.3374 7.565 11.7389 6.86423 11.7389 5.99979C11.7389 5.13534 10.3374 4.43457 8.60846 4.43457C6.87957 4.43457 5.47803 5.13534 5.47803 5.99979C5.47803 6.86423 6.87957 7.565 8.60846 7.565Z" stroke="white" stroke-width="0.7" stroke-miterlimit="10" stroke-linecap="square"/>
</g>
<defs>
<clipPath id="clip0">
<rect width="12" height="12" fill="white"/>
</clipPath>
</defs>
</svg>
