<svg width="28" height="14" viewBox="0 0 28 14" fill="none" xmlns="http://www.w3.org/2000/svg">
<path d="M15.4864 4.40856C15.7846 5.09027 15.9124 5.81459 15.9124 6.53891C15.9124 9.60661 13.4412 12.0778 10.3735 12.0778H6.53891C3.47121 12.0778 1 9.60661 1 6.53891C1 3.4712 3.47121 1 6.53891 1H10.3735C10.6718 1 10.9274 1.04261 11.2257 1.08521" stroke="#EE0033" stroke-width="2" stroke-miterlimit="10" stroke-linecap="round"/>
<path d="M12.0782 8.66926C11.7799 7.98754 11.6521 7.26323 11.6521 6.53891C11.6521 3.4712 14.1233 1 17.191 1H21.0256C24.0933 1 26.5645 3.4712 26.5645 6.53891C26.5645 9.60661 24.0933 12.0778 21.0256 12.0778H17.191C16.8928 12.0778 16.6371 12.0352 16.3389 11.9926" stroke="#FE9A00" stroke-width="2" stroke-miterlimit="10" stroke-linecap="round"/>
</svg>
