<svg width="631" height="831" viewBox="0 0 631 831" fill="none" xmlns="http://www.w3.org/2000/svg">
<g clip-path="url(#clip0)">
<circle cx="170.311" cy="415.311" r="414.811" stroke="#FFE0E7"/>
<circle cx="170.72" cy="414.905" r="260.2" fill="#FFEDF1"/>
<path d="M153.023 724.058L57.6328 730.732L83.8721 754.383L153.023 724.058Z" fill="#FFEDF1"/>
<path d="M83.871 754.384L81.5872 790.926L153.022 724.059L83.871 754.384Z" fill="#FFE0E7"/>
<path d="M248.075 664.839L200.879 666.545L213.437 678.656L248.075 664.839Z" fill="#FFE0E7"/>
<path d="M213.435 678.656L211.699 696.655L248.073 664.838L213.435 678.656Z" fill="#FFEDF1"/>
<g opacity="0.5">
<path d="M467.56 195.601L445.542 191.378L450.066 198.315L467.56 195.601Z" fill="#FFE0E7"/>
<path d="M450.069 198.316L447.354 206.46L467.563 195.602L450.069 198.316Z" fill="#FFEDF1"/>
</g>
<path d="M559.111 351.369L525 349.694L533.303 359.193L559.111 351.369Z" fill="#FFE0E7"/>
<path d="M533.303 359.192L530.945 372.054L559.11 351.368L533.303 359.192Z" fill="#FFEDF1"/>
<g opacity="0.5">
<path d="M118.343 41.709L96.3242 37.4863L100.849 44.4236L118.343 41.709Z" fill="#FFE0E7"/>
<path d="M100.851 44.4246L98.1367 52.5683L118.345 41.71L100.851 44.4246Z" fill="#FFEDF1"/>
</g>
<path opacity="0.5" d="M254.164 212.767L230.488 208.073L234.173 226.687L254.164 212.767Z" fill="#FFE0E7"/>
<path opacity="0.5" d="M516.371 519.747L506.703 517.83L508.208 525.431L516.371 519.747Z" fill="#FFE0E7"/>
<path d="M112.459 161.306C97.5615 157.815 94.3403 146.568 92.7297 138.811C92.7297 146.18 86.2874 157.815 73 161.306C82.2609 162.469 92.7297 172.941 92.7297 184.189C93.9377 171.39 101.588 163.245 112.459 161.306Z" fill="#FFDCE3"/>
<path d="M122.323 135.759C114.875 134.089 113.264 128.71 112.459 125C112.459 128.524 109.237 134.089 102.594 135.759C107.224 136.315 112.459 141.323 112.459 146.703C113.063 140.581 116.888 136.686 122.323 135.759Z" fill="#FFDCE3"/>
<path d="M438.703 349.498C430.509 347.525 428.737 341.168 427.851 336.783C427.851 340.948 424.308 347.525 417 349.498C422.093 350.156 427.851 356.074 427.851 362.432C428.516 355.198 432.723 350.594 438.703 349.498Z" fill="#FFDCE3"/>
<path d="M444.619 328.824C439.405 327.61 438.278 323.698 437.714 321C437.714 323.563 435.459 327.61 430.809 328.824C434.05 329.229 437.714 332.872 437.714 336.784C438.137 332.332 440.814 329.499 444.619 328.824Z" fill="#FFDCE3"/>
<path d="M39.2965 656.309C31.1026 654.336 29.3309 647.979 28.4451 643.595C28.4451 647.76 24.9018 654.336 17.5938 656.309C22.6872 656.967 28.4451 662.886 28.4451 669.243C29.1095 662.009 33.3171 657.406 39.2965 656.309Z" fill="#FFDCE3"/>
<path d="M19.568 647.489C15.8435 646.579 15.0382 643.645 14.6356 641.621C14.6356 643.543 13.025 646.579 9.70312 647.489C12.0183 647.793 14.6356 650.525 14.6356 653.459C14.9375 650.12 16.8501 647.995 19.568 647.489Z" fill="#FFDCE3"/>
</g>
<defs>
<clipPath id="clip0">
<rect width="631" height="831" fill="white"/>
</clipPath>
</defs>
</svg>
