<svg width="631" height="831" viewBox="0 0 631 831" fill="none" xmlns="http://www.w3.org/2000/svg">
<g clip-path="url(#clip0)">
<circle r="414.811" transform="matrix(-1 0 0 1 460.689 415.311)" stroke="#FFE0E7"/>
<circle r="260.2" transform="matrix(-1 0 0 1 460.28 414.905)" fill="#FFEDF1"/>
<path d="M477.977 724.058L573.367 730.732L547.128 754.383L477.977 724.058Z" fill="#FFEDF1"/>
<path d="M547.129 754.384L549.413 790.926L477.978 724.059L547.129 754.384Z" fill="#FFE0E7"/>
<path d="M382.925 664.839L430.121 666.545L417.563 678.656L382.925 664.839Z" fill="#FFE0E7"/>
<path d="M417.565 678.656L419.301 696.655L382.927 664.838L417.565 678.656Z" fill="#FFEDF1"/>
<g opacity="0.5">
<path d="M163.44 195.601L185.458 191.378L180.934 198.315L163.44 195.601Z" fill="#FFE0E7"/>
<path d="M180.931 198.316L183.646 206.46L163.437 195.602L180.931 198.316Z" fill="#FFEDF1"/>
</g>
<path d="M71.8893 351.369L106 349.694L97.6968 359.193L71.8893 351.369Z" fill="#FFE0E7"/>
<path d="M97.6974 359.192L100.055 372.054L71.8899 351.368L97.6974 359.192Z" fill="#FFEDF1"/>
<g opacity="0.5">
<path d="M512.657 41.709L534.676 37.4863L530.151 44.4236L512.657 41.709Z" fill="#FFE0E7"/>
<path d="M530.149 44.4246L532.863 52.5683L512.655 41.71L530.149 44.4246Z" fill="#FFEDF1"/>
</g>
<path opacity="0.5" d="M376.836 212.767L400.512 208.073L396.827 226.687L376.836 212.767Z" fill="#FFE0E7"/>
<path opacity="0.5" d="M114.629 519.747L124.297 517.83L122.792 525.431L114.629 519.747Z" fill="#FFE0E7"/>
<path d="M518.541 161.306C533.438 157.815 536.66 146.568 538.27 138.811C538.27 146.18 544.713 157.815 558 161.306C548.739 162.469 538.27 172.941 538.27 184.189C537.062 171.39 529.412 163.245 518.541 161.306Z" fill="#FFDCE3"/>
<path d="M508.677 135.759C516.125 134.089 517.736 128.71 518.541 125C518.541 128.524 521.763 134.089 528.406 135.759C523.776 136.315 518.541 141.323 518.541 146.703C517.937 140.581 514.112 136.686 508.677 135.759Z" fill="#FFDCE3"/>
<path d="M192.297 349.498C200.491 347.525 202.263 341.168 203.149 336.783C203.149 340.948 206.692 347.525 214 349.498C208.907 350.156 203.149 356.074 203.149 362.432C202.484 355.198 198.277 350.594 192.297 349.498Z" fill="#FFDCE3"/>
<path d="M186.381 328.824C191.595 327.61 192.722 323.698 193.286 321C193.286 323.563 195.541 327.61 200.191 328.824C196.95 329.229 193.286 332.872 193.286 336.784C192.863 332.332 190.186 329.499 186.381 328.824Z" fill="#FFDCE3"/>
<path d="M591.704 656.309C599.897 654.336 601.669 647.979 602.555 643.595C602.555 647.76 606.098 654.336 613.406 656.309C608.313 656.967 602.555 662.886 602.555 669.243C601.891 662.009 597.683 657.406 591.704 656.309Z" fill="#FFDCE3"/>
<path d="M611.432 647.489C615.156 646.579 615.962 643.645 616.364 641.621C616.364 643.543 617.975 646.579 621.297 647.489C618.982 647.793 616.364 650.525 616.364 653.459C616.062 650.12 614.15 647.995 611.432 647.489Z" fill="#FFDCE3"/>
</g>
<defs>
<clipPath id="clip0">
<rect width="631" height="831" fill="white" transform="matrix(-1 0 0 1 631 0)"/>
</clipPath>
</defs>
</svg>
