<svg width="1440" height="556" viewBox="0 0 1440 556" fill="none" xmlns="http://www.w3.org/2000/svg">
<path d="M337.131 400.271L303 401.462L312.07 410.231L337.131 400.271Z" fill="#FFE0E7"/>
<path d="M312.069 410.233L310.797 423.247L337.13 400.273L312.069 410.233Z" fill="#FFEDF1"/>
<path d="M137.39 445.408L42 452.082L68.2392 475.733L137.39 445.408Z" fill="#FFEDF1"/>
<path d="M68.2382 475.734L65.9543 512.276L137.389 445.409L68.2382 475.734Z" fill="#FFE0E7"/>
<path d="M244.196 489.67L197 491.376L209.558 503.487L244.196 489.67Z" fill="#FFE0E7"/>
<path d="M209.556 503.487L207.82 521.486L244.194 489.67L209.556 503.487Z" fill="#FFEDF1"/>
<g clip-path="url(#clip0)">
<path d="M1245.95 463.745L1279.78 496.696L1279.86 479.25L1245.95 463.745Z" fill="#FFE0E7"/>
<path d="M1279.86 479.251L1294.08 468.075L1245.95 463.747L1279.86 479.251Z" fill="#FFEDF1"/>
<path d="M878.924 452.002L913.035 453.677L904.732 444.178L878.924 452.002Z" fill="#FFE0E7"/>
<path d="M904.733 444.177L907.091 431.315L878.926 452.001L904.733 444.177Z" fill="#FFEDF1"/>
<path opacity="0.5" d="M923.629 311.255L933.297 313.172L931.792 305.571L923.629 311.255Z" fill="#FFE0E7"/>
<path d="M1171.86 84.8866C1186.76 88.3772 1189.98 99.6248 1191.59 107.382C1191.59 100.013 1198.04 88.3772 1211.32 84.8866C1202.06 83.723 1191.59 73.2511 1191.59 62.0035C1190.39 74.8025 1182.74 82.9473 1171.86 84.8866Z" fill="#FFEDF1"/>
<path d="M1162 110.432C1169.45 112.101 1171.06 117.481 1171.87 121.19C1171.87 117.666 1175.09 112.101 1181.73 110.432C1177.1 109.875 1171.87 104.867 1171.87 99.4877C1171.26 105.609 1167.44 109.504 1162 110.432Z" fill="#FFEDF1"/>
<path d="M1059.91 490.934C1068.11 492.907 1069.88 499.264 1070.77 503.648C1070.77 499.483 1074.31 492.907 1081.62 490.934C1076.52 490.276 1070.77 484.357 1070.77 478C1070.1 485.234 1065.89 489.838 1059.91 490.934Z" fill="#FFEDF1"/>
<path d="M1054 511.609C1059.21 512.823 1060.34 516.736 1060.9 519.434C1060.9 516.87 1063.16 512.823 1067.81 511.609C1064.57 511.204 1060.9 507.562 1060.9 503.65C1060.48 508.102 1057.8 510.935 1054 511.609Z" fill="#FFEDF1"/>
<path d="M1367 337.936C1375.19 339.909 1376.97 346.266 1377.85 350.65C1377.85 346.485 1381.4 339.909 1388.7 337.936C1383.61 337.278 1377.85 331.359 1377.85 325.002C1377.19 332.236 1372.98 336.84 1367 337.936Z" fill="#FFEDF1"/>
<path d="M1386.73 346.756C1390.45 347.666 1391.26 350.6 1391.66 352.624C1391.66 350.702 1393.27 347.666 1396.59 346.756C1394.28 346.452 1391.66 343.72 1391.66 340.786C1391.36 344.125 1389.45 346.25 1386.73 346.756Z" fill="#FFEDF1"/>
</g>
<path d="M47.6367 195.196H88.806C92.6357 195.196 96.4654 192.324 96.4654 187.536V146.367C96.4654 124.346 112.742 104.24 134.762 102.326C159.655 99.4534 181.676 119.559 181.676 144.452V188.494C181.676 192.324 184.548 196.153 189.336 196.153H230.505C252.526 196.153 272.632 212.43 274.546 234.45C277.419 259.343 257.313 281.364 232.42 281.364H188.378C184.548 281.364 180.719 284.236 180.719 289.024V330.193C180.719 352.214 164.443 372.32 142.422 374.234C117.529 377.107 95.508 357.001 95.508 332.108V288.066C95.508 284.236 92.6357 280.407 87.8485 280.407H43.807C18.9139 280.407 -1.19198 258.386 1.6803 233.493C5.51 211.472 25.6159 195.196 47.6367 195.196Z" fill="#F7F7F7"/>
<path d="M-46.2109 80.3062H-25.1476C-23.2327 80.3062 -21.3179 78.3914 -21.3179 76.4765V55.4132C-21.3179 43.9241 -12.701 34.3498 -2.16937 33.3924C10.2772 31.4776 21.7663 41.0518 21.7663 54.4558V76.4765C21.7663 78.3914 23.6811 80.3062 25.596 80.3062H46.6593C58.1484 80.3062 67.7227 88.9231 68.6801 99.4547C69.6375 111.901 60.0633 123.39 47.6167 123.39H25.596C23.6811 123.39 21.7663 125.305 21.7663 127.22V148.283C21.7663 159.773 13.1494 169.347 2.61776 170.304C-9.82877 171.262 -21.3179 161.687 -21.3179 149.241V127.22C-21.3179 125.305 -23.2327 123.39 -25.1476 123.39H-47.1684C-59.6149 123.39 -70.1466 112.859 -68.2317 99.4547C-68.2317 87.9656 -57.7 80.3062 -46.2109 80.3062Z" fill="#F7F7F7"/>
<path d="M57.5195 203.227H98.6888C102.518 203.227 106.348 200.355 106.348 195.568V154.398C106.348 132.378 122.624 112.272 144.645 110.357C169.538 107.485 191.559 127.591 191.559 152.484V196.525C191.559 200.355 194.431 204.185 199.218 204.185H240.388C262.408 204.185 282.514 220.461 284.429 242.482C287.302 267.375 267.196 289.395 242.303 289.395H198.261C194.431 289.395 190.602 292.268 190.602 297.055V338.224C190.602 360.245 174.325 380.351 152.305 382.266C127.412 385.138 105.391 365.032 105.391 340.139V296.097C105.391 292.268 102.518 288.438 97.7314 288.438H53.6898C28.7968 288.438 8.69083 266.417 11.5631 241.524C15.3928 219.503 35.4987 203.227 57.5195 203.227Z" stroke="#F7F7F7" stroke-width="2" stroke-miterlimit="10" stroke-linecap="round" stroke-linejoin="round"/>
<path d="M-36.3281 88.3375H-15.2648C-13.3499 88.3375 -11.4351 86.4226 -11.4351 84.5078V63.4444C-11.4351 51.9553 -2.81823 42.3811 7.71344 41.4237C20.16 39.5088 31.6491 49.0831 31.6491 62.487V84.5078C31.6491 86.4226 33.5639 88.3375 35.4788 88.3375H56.5421C68.0312 88.3375 77.6055 96.9543 78.5629 107.486C79.5203 119.933 69.9461 131.422 57.4995 131.422H35.4788C33.5639 131.422 31.6491 133.336 31.6491 135.251V156.315C31.6491 167.804 23.0322 177.378 12.5006 178.335C0.0540435 179.293 -11.4351 169.719 -11.4351 157.272V135.251C-11.4351 133.336 -13.3499 131.422 -15.2648 131.422H-37.2855C-49.7321 131.422 -60.2637 120.89 -58.3489 107.486C-58.3489 95.9969 -47.8172 88.3375 -36.3281 88.3375Z" stroke="#F7F7F7" stroke-width="2" stroke-miterlimit="10" stroke-linecap="round" stroke-linejoin="round"/>
<defs>
<clipPath id="clip0">
<rect width="631" height="831" fill="white" transform="translate(1440 831) rotate(-180)"/>
</clipPath>
</defs>
</svg>
