<svg width="17" height="16" viewBox="0 0 17 16" fill="none" xmlns="http://www.w3.org/2000/svg">
<g clip-path="url(#clip0)">
<path fill-rule="evenodd" clip-rule="evenodd" d="M0.631208 0.833984C1.00139 0.833984 1.30148 1.13246 1.30148 1.50065V14.5007C1.30148 14.8688 1.00139 15.1673 0.631208 15.1673C0.261028 15.1673 -0.0390625 14.8688 -0.0390625 14.5007V1.50065C-0.0390625 1.13246 0.261028 0.833984 0.631208 0.833984Z" fill="#EE0033"/>
<path fill-rule="evenodd" clip-rule="evenodd" d="M3.64683 0.833984C4.01701 0.833984 4.3171 1.13246 4.3171 1.50065V11.5007C4.3171 11.8688 4.01701 12.1673 3.64683 12.1673C3.27665 12.1673 2.97656 11.8688 2.97656 11.5007V1.50065C2.97656 1.13246 3.27665 0.833984 3.64683 0.833984Z" fill="#EE0033"/>
<path fill-rule="evenodd" clip-rule="evenodd" d="M12.6976 0.833984C13.0678 0.833984 13.3679 1.13246 13.3679 1.50065V11.5007C13.3679 11.8688 13.0678 12.1673 12.6976 12.1673C12.3274 12.1673 12.0273 11.8688 12.0273 11.5007V1.50065C12.0273 1.13246 12.3274 0.833984 12.6976 0.833984Z" fill="#EE0033"/>
<path fill-rule="evenodd" clip-rule="evenodd" d="M15.7132 0.833984C16.0834 0.833984 16.3835 1.13246 16.3835 1.50065V14.5007C16.3835 14.8688 16.0834 15.1673 15.7132 15.1673C15.3431 15.1673 15.043 14.8688 15.043 14.5007V1.50065C15.043 1.13246 15.3431 0.833984 15.7132 0.833984Z" fill="#EE0033"/>
<path fill-rule="evenodd" clip-rule="evenodd" d="M5.99219 1.50065C5.99219 1.13246 6.29228 0.833984 6.66246 0.833984H9.67867C10.0489 0.833984 10.3489 1.13246 10.3489 1.50065V11.5007C10.3489 11.8688 10.0489 12.1673 9.67867 12.1673H6.66246C6.29228 12.1673 5.99219 11.8688 5.99219 11.5007V1.50065ZM7.33273 2.16732V10.834H9.0084V2.16732H7.33273Z" fill="#92001F"/>
</g>
<defs>
<clipPath id="clip0">
<rect width="16.0865" height="16" fill="white" transform="translate(0.128906)"/>
</clipPath>
</defs>
</svg>
