<svg width="48" height="48" fill="none" xmlns="http://www.w3.org/2000/svg"><path opacity=".25" d="M24 48c-2.29 0-4.55-.566-6.525-1.632l-10.95-5.904C2.495 38.296 0 34.244 0 29.9V18.1c0-4.345 2.503-8.388 6.525-10.564l10.95-5.904A13.834 13.834 0 0124 0c2.29 0 4.55.566 6.525 1.632l10.95 5.904C45.505 9.704 48 13.756 48 18.1v11.807c0 4.345-2.503 8.389-6.525 10.565l-10.95 5.903A13.868 13.868 0 0124 48z" fill="#fff"/><path d="M24 45c-1.961 0-3.894-.48-5.594-1.395L8.594 38.32C5.144 36.464 3 33.003 3 29.285v-10.57c0-3.718 2.144-7.18 5.594-9.035l9.812-5.285A11.832 11.832 0 0124 3c1.961 0 3.894.48 5.594 1.395l9.812 5.285C42.856 11.536 45 14.997 45 18.715v10.57c0 3.718-2.144 7.18-5.594 9.035l-9.812 5.285A11.909 11.909 0 0124 45z" fill="#fff"/></svg>