<svg width="17" height="16" viewBox="0 0 17 16" fill="none" xmlns="http://www.w3.org/2000/svg">
<path fill-rule="evenodd" clip-rule="evenodd" d="M8.12697 1.05273C4.38369 1.05273 1.34916 4.07095 1.34916 7.79411C1.34916 11.5173 4.38369 14.5355 8.12697 14.5355C11.8703 14.5355 14.9048 11.5173 14.9048 7.79411C14.9048 4.07095 11.8703 1.05273 8.12697 1.05273ZM0.34375 7.79411C0.34375 3.51867 3.82842 0.0527344 8.12697 0.0527344C12.4255 0.0527344 15.9102 3.51867 15.9102 7.79411C15.9102 12.0696 12.4255 15.5355 8.12697 15.5355C3.82842 15.5355 0.34375 12.0696 0.34375 7.79411Z" fill="#EE0033"/>
<path fill-rule="evenodd" clip-rule="evenodd" d="M8.1254 2.95117C8.40303 2.95117 8.6281 3.17503 8.6281 3.45117V8.82777C8.6281 9.10392 8.40303 9.32777 8.1254 9.32777H4.06911C3.79147 9.32777 3.56641 9.10392 3.56641 8.82777C3.56641 8.55163 3.79147 8.32777 4.06911 8.32777H7.6227V3.45117C7.6227 3.17503 7.84776 2.95117 8.1254 2.95117Z" fill="#92001F"/>
</svg>
