<svg width="80" height="80" viewBox="0 0 80 80" fill="none" xmlns="http://www.w3.org/2000/svg">
<path d="M37 1.73205C38.8564 0.660254 41.1436 0.660254 43 1.73205L71.641 18.268C73.4974 19.3397 74.641 21.3205 74.641 23.4641V56.5359C74.641 58.6795 73.4974 60.6603 71.641 61.7321L43 78.268C41.1436 79.3397 38.8564 79.3397 37 78.268L8.35898 61.7321C6.50257 60.6603 5.35898 58.6795 5.35898 56.5359V23.4641C5.35898 21.3205 6.50258 19.3397 8.35898 18.268L37 1.73205Z" fill="url(#paint0_linear)"/>
<path d="M41.222 49.868L42.0223 47.444L42.7967 47.849L41.1785 49.9997L41.222 49.868ZM38.8497 49.8729L38.8681 49.9279L37.2411 47.7835L38.0137 47.3753L38.8497 49.8729Z" stroke="white" stroke-width="2.5"/>
<defs>
<linearGradient id="paint0_linear" x1="6.66667" y1="61.1111" x2="66.1111" y2="15.5556" gradientUnits="userSpaceOnUse">
<stop stop-color="#B5072C"/>
<stop offset="1" stop-color="#EE0033"/>
</linearGradient>
</defs>
</svg>
