<svg width="100" height="100" viewBox="0 0 100 100" fill="none" xmlns="http://www.w3.org/2000/svg">
<path d="M50 100C77.6142 100 100 77.6142 100 50C100 22.3858 77.6142 0 50 0C22.3858 0 0 22.3858 0 50C0 77.6142 22.3858 100 50 100Z" fill="#F26436"/>
<path d="M29.0195 72.5541L55.9911 99.5257C78.7041 96.8443 96.6851 79.021 99.5243 56.3081L72.3949 29.1787L29.0195 72.5541Z" fill="#DF4715"/>
<path d="M73.6584 61.0406C75.8666 63.2488 75.8666 67.0343 73.6584 69.2425L69.242 73.6589C67.0338 75.8671 63.2483 75.8671 61.0401 73.6589L26.3397 38.9585C24.1315 36.7503 24.1315 32.9649 26.3397 30.7567L30.9139 26.1825C33.1221 23.9743 36.9076 23.9743 39.1158 26.1825L73.6584 61.0406Z" fill="white"/>
<path d="M55.362 42.5869L42.5859 55.3629L61.0402 73.6595C63.2484 75.8677 67.0339 75.8677 69.2421 73.6595L73.8162 69.0853C76.0244 66.8771 76.0244 63.0916 73.8162 60.8834L55.362 42.5869Z" fill="#E7E7E7"/>
<path d="M61.0401 26.3407C63.2483 24.1325 67.0338 24.1325 69.242 26.3407L73.8161 30.9149C76.0243 33.1231 76.0243 36.9085 73.8161 39.1167L38.958 73.6593C36.7498 75.8675 32.9643 75.8675 30.7561 73.6593L26.3397 69.2429C24.1315 67.0347 24.1315 63.2492 26.3397 61.041L61.0401 26.3407Z" fill="white"/>
</svg>
