<svg width="122" height="40" viewBox="0 0 122 40" fill="none" xmlns="http://www.w3.org/2000/svg">
<path d="M0.5 5.33333C0.5 2.67172 2.69593 0.5 5.42222 0.5H116.578C119.304 0.5 121.5 2.67171 121.5 5.33333V34.6667C121.5 37.3284 119.304 39.5 116.578 39.5H5.42222C2.69592 39.5 0.5 37.3284 0.5 34.6667V5.33333Z" fill="white" stroke="black"/>
<path d="M42.2666 9.88013H40.7565V13.9998H40.1402V9.88013H38.6333V9.37866H42.2666V9.88013Z" fill="black"/>
<path d="M45.2997 12.7937H43.3314L42.8894 13.9998H42.2505L44.0445 9.37866H44.5866L46.3839 13.9998H45.7482L45.2997 12.7937ZM43.5186 12.2922H45.1158L44.3156 10.1309L43.5186 12.2922ZM44.1284 9.02637L44.1252 8.54077C44.2865 8.53019 44.4048 8.50903 44.4801 8.4773C44.5554 8.44556 44.5931 8.38843 44.5931 8.30591C44.5931 8.22339 44.5436 8.16203 44.4446 8.12183C44.3478 8.07951 44.2188 8.05835 44.0574 8.05835L44.08 7.72192C44.4005 7.72192 44.6436 7.77694 44.8093 7.88696C44.9749 7.99487 45.0577 8.13875 45.0577 8.3186C45.0577 8.44767 45.0158 8.55452 44.9319 8.63916C44.848 8.7238 44.7232 8.77775 44.5576 8.80103L44.5543 9.02637H44.1284Z" fill="black"/>
<path d="M47.681 13.9998H47.0615V9.37866H47.681V13.9998Z" fill="black"/>
<path d="M52.0113 13.1904L53.3536 9.37866H54.0312L52.2888 13.9998H51.7403L50.0011 9.37866H50.6754L52.0113 13.1904Z" fill="black"/>
<path d="M57.3193 11.8638H55.2832V13.5015H57.6484V13.9998H54.6637V9.37866H57.6161V9.88013H55.2832V11.3655H57.3193V11.8638ZM57.2935 9.04858H56.6578L56.1092 8.54712L55.5607 9.04858H54.9283L55.864 8.21704H56.3545L57.2935 9.04858ZM55.1638 8.48682H54.7121L54.0667 7.66797H54.7088L55.1638 8.48682Z" fill="black"/>
<path d="M63.1758 9.88013H61.6657V13.9998H61.0494V9.88013H59.5425V9.37866H63.1758V9.88013Z" fill="black"/>
<path d="M65.5958 12.1304H64.4923V13.9998H63.8695V9.37866H65.4248C65.954 9.37866 66.3606 9.49715 66.6445 9.73413C66.9306 9.97111 67.0737 10.316 67.0737 10.7688C67.0737 11.0566 66.9941 11.3073 66.8349 11.521C66.6779 11.7347 66.4584 11.8945 66.1766 12.0002L67.2802 13.9617V13.9998H66.6155L65.5958 12.1304ZM64.4923 11.6321H65.4442C65.7518 11.6321 65.9959 11.5538 66.1766 11.3972C66.3595 11.2406 66.4509 11.0312 66.4509 10.7688C66.4509 10.4832 66.3638 10.2642 66.1895 10.1118C66.0174 9.95947 65.7679 9.88224 65.4409 9.88013H64.4923V11.6321Z" fill="black"/>
<path d="M70.6005 11.8638H68.5644V13.5015H70.9296V13.9998H67.9449V9.37866H70.8973V9.88013H68.5644V11.3655H70.6005V11.8638ZM70.3746 8.97241V9.00415H69.8809L69.3969 8.4646L68.9161 9.00415H68.4224V8.96606L69.2162 8.10278H69.5776L70.3746 8.97241Z" fill="black"/>
<path d="M75.3115 13.9998H74.6887L72.3235 10.4387V13.9998H71.7008V9.37866H72.3235L74.6952 12.9556V9.37866H75.3115V13.9998Z" fill="black"/>
<path d="M38.4321 24.9126C38.4321 24.0513 38.6339 23.2786 39.0374 22.5946C39.4495 21.9106 40.0032 21.3786 40.6986 20.9986C41.4026 20.6102 42.171 20.416 43.0037 20.416C43.9567 20.416 44.8023 20.6482 45.5407 21.1126C46.2876 21.5686 46.8284 22.2189 47.1633 23.0633H45.399C45.1672 22.6242 44.8453 22.2949 44.4332 22.0753C44.0211 21.8473 43.5446 21.7333 43.0037 21.7333C42.4114 21.7333 41.8834 21.8642 41.4198 22.126C40.9562 22.3877 40.5913 22.7593 40.3252 23.2406C40.0676 23.722 39.9388 24.2793 39.9388 24.9126C39.9388 25.546 40.0676 26.1075 40.3252 26.5973C40.5913 27.0786 40.9562 27.4502 41.4198 27.712C41.8834 27.9737 42.4114 28.1046 43.0037 28.1046C43.8022 28.1046 44.4504 27.8851 44.9483 27.446C45.4548 26.9984 45.7596 26.3946 45.8626 25.6346H42.5015V24.5073H47.4337V25.6346C47.3392 26.3186 47.0903 26.9477 46.6868 27.522C46.2919 28.0962 45.7725 28.5564 45.1286 28.9026C44.4933 29.2404 43.785 29.4093 43.0037 29.4093C42.1624 29.4093 41.394 29.2193 40.6986 28.8393C40.0032 28.4509 39.4495 27.9146 39.0374 27.2306C38.6339 26.5466 38.4321 25.774 38.4321 24.9126ZM51.7019 29.4473C51.0322 29.4473 50.427 29.2995 49.8861 29.004C49.3452 28.7 48.9203 28.2777 48.6112 27.7373C48.3021 27.1884 48.1476 26.5551 48.1476 25.8373C48.1476 25.128 48.3064 24.4989 48.6241 23.95C48.9418 23.4011 49.3753 22.9789 49.9247 22.6833C50.4742 22.3877 51.088 22.24 51.7663 22.24C52.4445 22.24 53.0583 22.3877 53.6078 22.6833C54.1573 22.9789 54.5908 23.4011 54.9084 23.95C55.2261 24.4989 55.3849 25.128 55.3849 25.8373C55.3849 26.5466 55.2218 27.1757 54.8956 27.7246C54.5693 28.2735 54.1229 28.7 53.5563 29.004C52.9983 29.2995 52.3801 29.4473 51.7019 29.4473ZM51.7019 28.2313C52.0796 28.2313 52.4316 28.1384 52.7578 27.9526C53.0927 27.7669 53.3631 27.4966 53.5691 27.142C53.7752 26.7789 53.8782 26.344 53.8782 25.8373C53.8782 25.3306 53.7795 24.9 53.582 24.5453C53.3846 24.1822 53.1227 23.912 52.7965 23.7346C52.4703 23.5489 52.1183 23.456 51.7405 23.456C51.3628 23.456 51.0151 23.5489 50.6974 23.7346C50.3798 23.912 50.1222 24.1822 49.9247 24.5453C49.7359 24.9 49.6414 25.3306 49.6414 25.8373C49.6414 26.344 49.7316 26.7789 49.9119 27.142C50.1008 27.5051 50.3497 27.7795 50.6588 27.9653C50.9764 28.1426 51.3241 28.2313 51.7019 28.2313ZM59.6564 29.4473C58.9868 29.4473 58.3815 29.2995 57.8406 29.004C57.2998 28.7 56.8748 28.2777 56.5657 27.7373C56.2567 27.1884 56.1021 26.5551 56.1021 25.8373C56.1021 25.128 56.261 24.4989 56.5786 23.95C56.8963 23.4011 57.3298 22.9789 57.8793 22.6833C58.4287 22.3877 59.0426 22.24 59.7208 22.24C60.399 22.24 61.0129 22.3877 61.5623 22.6833C62.1118 22.9789 62.5453 23.4011 62.863 23.95C63.1806 24.4989 63.3395 25.128 63.3395 25.8373C63.3395 26.5466 63.1763 27.1757 62.8501 27.7246C62.5239 28.2735 62.0774 28.7 61.5108 29.004C60.9528 29.2995 60.3347 29.4473 59.6564 29.4473ZM59.6564 28.2313C60.0342 28.2313 60.3862 28.1384 60.7124 27.9526C61.0472 27.7669 61.3176 27.4966 61.5237 27.142C61.7297 26.7789 61.8328 26.344 61.8328 25.8373C61.8328 25.3306 61.734 24.9 61.5366 24.5453C61.3391 24.1822 61.0773 23.912 60.751 23.7346C60.4248 23.5489 60.0728 23.456 59.695 23.456C59.3173 23.456 58.9696 23.5489 58.6519 23.7346C58.3343 23.912 58.0767 24.1822 57.8793 24.5453C57.6904 24.9 57.596 25.3306 57.596 25.8373C57.596 26.344 57.6861 26.7789 57.8664 27.142C58.0553 27.5051 58.3042 27.7795 58.6133 27.9653C58.931 28.1426 59.2787 28.2313 59.6564 28.2313ZM67.3921 22.24C67.9415 22.24 68.4265 22.3497 68.8472 22.5693C69.2765 22.7804 69.6113 23.0464 69.8517 23.3673V22.354H71.3327V29.4473C71.3327 30.0891 71.1953 30.6591 70.9206 31.1573C70.6458 31.664 70.2466 32.0609 69.7229 32.348C69.2078 32.6351 68.5897 32.7786 67.8685 32.7786C66.907 32.7786 66.1085 32.5549 65.4733 32.1073C64.838 31.6682 64.4774 31.0686 64.3915 30.3086H65.8467C65.9583 30.6717 66.1944 30.9631 66.555 31.1826C66.9242 31.4106 67.362 31.5246 67.8685 31.5246C68.4609 31.5246 68.9374 31.3473 69.298 30.9926C69.6671 30.638 69.8517 30.1229 69.8517 29.4473V28.282C69.6027 28.6113 69.2636 28.89 68.8344 29.118C68.4137 29.3375 67.9329 29.4473 67.3921 29.4473C66.7739 29.4473 66.2073 29.2953 65.6922 28.9913C65.1856 28.6789 64.7821 28.2482 64.4817 27.6993C64.1898 27.142 64.0438 26.5129 64.0438 25.812C64.0438 25.1111 64.1898 24.4904 64.4817 23.95C64.7821 23.4095 65.1856 22.9915 65.6922 22.696C66.2073 22.392 66.7739 22.24 67.3921 22.24ZM69.8517 25.8373C69.8517 25.356 69.7487 24.938 69.5426 24.5833C69.3452 24.2286 69.0833 23.9584 68.7571 23.7726C68.4309 23.5869 68.0788 23.494 67.7011 23.494C67.3234 23.494 66.9714 23.5869 66.6451 23.7726C66.3189 23.95 66.0528 24.216 65.8467 24.5706C65.6493 24.9169 65.5505 25.3306 65.5505 25.812C65.5505 26.2933 65.6493 26.7155 65.8467 27.0786C66.0528 27.4417 66.3189 27.7204 66.6451 27.9146C66.98 28.1004 67.3319 28.1933 67.7011 28.1933C68.0788 28.1933 68.4309 28.1004 68.7571 27.9146C69.0833 27.7289 69.3452 27.4586 69.5426 27.104C69.7487 26.7409 69.8517 26.3186 69.8517 25.8373ZM74.4713 19.96V29.3333H73.0032V19.96H74.4713ZM82.6446 25.6473C82.6446 25.8922 82.6273 26.1202 82.5931 26.3313H77.1587C77.2017 26.914 77.4118 27.3784 77.7897 27.7246C78.1675 28.0624 78.6352 28.2313 79.1934 28.2313C79.9833 28.2313 80.5411 27.9062 80.8675 27.256H82.4514C82.2369 27.8977 81.8462 28.4255 81.2796 28.8393C80.7214 29.2446 80.026 29.4473 79.1934 29.4473C78.5152 29.4473 77.9056 29.2995 77.3647 29.004C76.8323 28.7 76.4118 28.2777 76.1027 27.7373C75.8021 27.1884 75.652 26.5551 75.652 25.8373C75.652 25.1195 75.798 24.4904 76.0898 23.95C76.3904 23.4011 76.8066 22.9789 77.339 22.6833C77.8798 22.3877 78.498 22.24 79.1934 22.24C79.863 22.24 80.4598 22.3835 80.9834 22.6706C81.507 22.9577 81.915 23.3589 82.2068 23.874C82.4985 24.3891 82.6446 24.9802 82.6446 25.6473ZM81.1121 25.2926C81.1037 24.7269 80.9105 24.2793 80.5326 23.95C80.1636 23.6206 79.6956 23.456 79.129 23.456C78.6139 23.456 78.1716 23.6206 77.8026 23.95C77.442 24.2793 77.2315 24.7269 77.1715 25.2926H81.1121ZM93.6937 23.152C93.6937 23.5995 93.5863 24.0217 93.3718 24.4186C93.1569 24.8155 92.8136 25.1406 92.3416 25.394C91.8692 25.6389 91.2639 25.7613 90.5258 25.7613H88.9032V29.3333H87.4351V20.53H90.5258C91.2124 20.53 91.7919 20.6482 92.2643 20.8846C92.7448 21.1126 93.1014 21.4251 93.3332 21.822C93.5734 22.2189 93.6937 22.6622 93.6937 23.152ZM90.5258 24.634C91.0836 24.634 91.5001 24.5031 91.7749 24.2413C92.0494 23.9795 92.187 23.6164 92.187 23.152C92.187 22.6791 92.0494 22.3117 91.7749 22.05C91.5001 21.7882 91.0836 21.6573 90.5258 21.6573H88.9032V24.634H90.5258ZM96.3042 19.96V29.3333H94.8361V19.96H96.3042ZM97.4849 25.812C97.4849 25.1111 97.6306 24.4904 97.9227 23.95C98.223 23.4095 98.6266 22.9915 99.1332 22.696C99.6484 22.392 100.215 22.24 100.833 22.24C101.391 22.24 101.876 22.3497 102.288 22.5693C102.709 22.7804 103.044 23.0464 103.293 23.3673V22.354H104.774V29.3333H103.293V28.2946C103.044 28.624 102.704 28.8984 102.275 29.118C101.846 29.3375 101.357 29.4473 100.807 29.4473C100.198 29.4473 99.6395 29.2953 99.1332 28.9913C98.6266 28.6789 98.223 28.2482 97.9227 27.6993C97.6306 27.142 97.4849 26.5129 97.4849 25.812ZM103.293 25.8373C103.293 25.356 103.19 24.938 102.984 24.5833C102.786 24.2286 102.524 23.9584 102.198 23.7726C101.872 23.5869 101.52 23.494 101.142 23.494C100.764 23.494 100.412 23.5869 100.086 23.7726C99.7598 23.95 99.4938 24.216 99.2878 24.5706C99.0902 24.9169 98.9916 25.3306 98.9916 25.812C98.9916 26.2933 99.0902 26.7155 99.2878 27.0786C99.4938 27.4417 99.7598 27.7204 100.086 27.9146C100.421 28.1004 100.773 28.1933 101.142 28.1933C101.52 28.1933 101.872 28.1004 102.198 27.9146C102.524 27.7289 102.786 27.4586 102.984 27.104C103.19 26.7409 103.293 26.3186 103.293 25.8373ZM107.243 22.354L109.239 27.674L111.312 22.354H112.832L108.479 32.614H106.96L108.402 29.2193L105.607 22.354H107.243Z" fill="black"/>
<mask id="mask0" mask-type="alpha" maskUnits="userSpaceOnUse" x="8" y="8" width="21" height="24">
<path d="M8.81104 9.9603C8.81104 8.93733 9.93387 8.29541 10.8376 8.80175L27.8474 18.3325C28.7393 18.8323 28.7648 20.0879 27.8939 20.6223L10.8841 31.0607C9.98122 31.6148 8.81104 30.9763 8.81104 29.9295V9.9603Z" fill="#C4C4C4"/>
</mask>
<g mask="url(#mask0)">
<path d="M8.81104 9.9603C8.81104 8.93733 9.93387 8.29541 10.8376 8.80175L27.8474 18.3325C28.7393 18.8323 28.7648 20.0879 27.8939 20.6223L10.8841 31.0607C9.98122 31.6148 8.81104 30.9763 8.81104 29.9295V9.9603Z" fill="#00F076"/>
<path d="M27.789 27.333L7.11681 6.83301L5.42236 31.333L9.99736 34.833L27.789 27.333Z" fill="#00C9FF"/>
<path d="M5.93066 33.1663L25.5862 14.333L33.3807 17.4997L19.3168 33.833L5.93066 33.1663Z" fill="#F53349"/>
<path fill-rule="evenodd" clip-rule="evenodd" d="M26.2379 25.7949L33.3807 17.4997L25.5862 14.333L20.0392 19.6479L26.2379 25.7949ZM23.2752 29.2358L13.1036 33.5236L19.3168 33.833L23.2752 29.2358ZM7.9501 33.2669L6.76895 32.3632L5.93066 33.1663L7.9501 33.2669Z" fill="#FFCC00"/>
</g>
</svg>
