<svg width="122" height="40" viewBox="0 0 122 40" fill="none" xmlns="http://www.w3.org/2000/svg">
<g clip-path="url(#clip0)">
<path d="M112.285 0.00013H9.7208C9.34695 0.00013 8.97757 0.00013 8.6047 0.00213C8.29258 0.00413 7.98294 0.00994 7.66782 0.01483C6.98322 0.0227318 6.30024 0.0818063 5.6248 0.19154C4.95031 0.303663 4.29695 0.515046 3.68681 0.81854C3.07742 1.1246 2.52061 1.5223 2.03656 1.9972C1.54998 2.47077 1.14437 3.01815 0.835344 3.61829C0.525461 4.21724 0.310587 4.85907 0.198144 5.52161C0.0846314 6.18331 0.0235493 6.85265 0.0154457 7.52361C0.00598459 7.83021 0.00498546 8.13783 0 8.44447V31.5587C0.00498546 31.8692 0.00598459 32.17 0.0154457 32.4806C0.0235518 33.1516 0.0846339 33.8209 0.198144 34.4825C0.310277 35.1455 0.525163 35.7877 0.835344 36.3868C1.14423 36.985 1.5499 37.5302 2.03656 38.0011C2.51877 38.4781 3.07595 38.8761 3.68681 39.1798C4.29694 39.4841 4.95023 39.6968 5.6248 39.8106C6.30035 39.9195 6.98327 39.9786 7.66782 39.9874C7.98294 39.9942 8.29258 39.9981 8.6047 39.9981C8.97756 40.0001 9.34697 40.0001 9.7208 40.0001H112.285C112.651 40.0001 113.023 40.0001 113.39 39.9981C113.7 39.9981 114.019 39.9942 114.33 39.9874C115.013 39.979 115.695 39.9199 116.369 39.8106C117.046 39.696 117.701 39.4834 118.314 39.1798C118.925 38.8759 119.481 38.478 119.963 38.0011C120.448 37.5283 120.855 36.9836 121.168 36.3868C121.476 35.7872 121.688 35.1451 121.799 34.4825C121.913 33.8208 121.976 33.1516 121.988 32.4806C121.992 32.17 121.992 31.8692 121.992 31.5587C122 31.1954 122 30.8341 122 30.4649V9.53626C122 9.17005 122 8.80677 121.992 8.44447C121.992 8.13783 121.992 7.83021 121.988 7.52357C121.976 6.85255 121.913 6.18337 121.799 5.52157C121.688 4.85941 121.475 4.21763 121.168 3.61825C120.538 2.41533 119.54 1.43616 118.314 0.81845C117.701 0.515697 117.045 0.30437 116.369 0.19145C115.695 0.0812328 115.013 0.0221378 114.33 0.01469C114.019 0.00981 113.7 0.00395 113.39 0.002C113.023 0 112.651 0 112.285 0V0.00013Z" fill="black"/>
<path d="M8.58571 39.125C8.27595 39.125 7.97368 39.1211 7.66635 39.1143C7.0297 39.1061 6.39453 39.0516 5.76606 38.9512C5.18004 38.8519 4.61235 38.6673 4.08171 38.4033C3.55593 38.1415 3.07638 37.7983 2.66142 37.3867C2.24046 36.98 1.88999 36.5082 1.6239 35.9902C1.35488 35.4688 1.1687 34.9099 1.07185 34.333C0.967264 33.7131 0.910676 33.0863 0.902579 32.458C0.896134 32.2471 0.887695 31.5449 0.887695 31.5449V8.44434C0.887695 8.44434 0.896683 7.75293 0.90263 7.5498C0.910383 6.92248 0.966642 6.29665 1.07092 5.67773C1.16795 5.09925 1.35427 4.53875 1.62344 4.01563C1.88855 3.49794 2.23707 3.02586 2.6555 2.61768C3.07345 2.20562 3.55454 1.8606 4.08121 1.59521C4.61063 1.33209 5.17725 1.14873 5.76208 1.05127C6.39262 0.949836 7.02999 0.894996 7.66885 0.88721L8.58621 0.875H113.068L113.996 0.8877C114.629 0.895099 115.261 0.94945 115.885 1.05029C116.476 1.14898 117.049 1.33362 117.584 1.59814C118.639 2.13299 119.498 2.97916 120.039 4.01807C120.304 4.53758 120.488 5.09351 120.583 5.66699C120.689 6.29099 120.748 6.92174 120.76 7.5542C120.763 7.8374 120.763 8.1416 120.763 8.44434C120.771 8.81934 120.771 9.17627 120.771 9.53613V30.4648C120.771 30.8281 120.771 31.1826 120.763 31.54C120.763 31.8652 120.763 32.1631 120.759 32.4697C120.747 33.0909 120.689 33.7104 120.585 34.3232C120.49 34.9043 120.305 35.4675 120.036 35.9932C119.768 36.5056 119.42 36.9733 119.004 37.3789C118.588 37.7927 118.108 38.1379 117.581 38.4014C117.047 38.6674 116.475 38.8527 115.885 38.9512C115.257 39.0522 114.622 39.1067 113.985 39.1143C113.687 39.1211 113.375 39.125 113.073 39.125L111.97 39.127L8.58571 39.125Z" fill="white"/>
<path d="M25.4132 19.8887C25.4245 19.0208 25.6589 18.1697 26.0945 17.4148C26.5301 16.6599 27.1528 16.0256 27.9046 15.571C27.427 14.9001 26.7969 14.348 26.0645 13.9585C25.332 13.569 24.5173 13.3529 23.685 13.3272C21.9097 13.1439 20.1886 14.3722 19.2839 14.3722C18.3617 14.3722 16.9688 13.3454 15.4689 13.3758C14.4987 13.4066 13.5531 13.6841 12.7244 14.1813C11.8957 14.6784 11.212 15.3782 10.74 16.2125C8.69534 19.6945 10.2205 24.8119 12.1791 27.6265C13.159 29.0047 14.3043 30.5442 15.8029 30.4896C17.2693 30.4298 17.817 29.5699 19.5871 29.5699C21.3408 29.5699 21.8546 30.4896 23.3836 30.4549C24.9572 30.4298 25.9486 29.0706 26.8941 27.6793C27.5982 26.6973 28.14 25.6119 28.4995 24.4634C27.5853 24.0831 26.8051 23.4465 26.2563 22.633C25.7075 21.8195 25.4142 20.865 25.4132 19.8887Z" fill="black"/>
<path d="M22.5251 11.4766C23.3831 10.4635 23.8058 9.16135 23.7034 7.84668C22.3926 7.98209 21.1818 8.59829 20.3123 9.5725C19.8871 10.0484 19.5615 10.6021 19.354 11.2019C19.1466 11.8017 19.0613 12.4358 19.1031 13.068C19.7587 13.0746 20.4074 12.9349 21.0001 12.6592C21.5928 12.3835 22.1143 11.9792 22.5251 11.4766Z" fill="black"/>
<path d="M43.0067 27.1397H38.1944L37.0388 30.4961H35.0005L39.5586 18.0781H41.6763L46.2345 30.4961H44.1614L43.0067 27.1397ZM38.6929 25.5908H42.5074L40.6269 20.1436H40.5743L38.6929 25.5908Z" fill="black"/>
<path d="M56.0787 25.9695C56.0787 28.7829 54.5477 30.5905 52.2374 30.5905C51.6521 30.6207 51.0701 30.4881 50.5579 30.2079C50.0457 29.9278 49.6241 29.5114 49.3413 29.0065H49.2976V33.4909H47.4082V21.4421H49.237V22.948H49.2718C49.5676 22.4455 49.9963 22.0313 50.5124 21.7495C51.0285 21.4676 51.6126 21.3287 52.2026 21.3474C54.5388 21.3474 56.0787 23.1638 56.0787 25.9695ZM54.1367 25.9695C54.1367 24.1365 53.1736 22.9314 51.7042 22.9314C50.2607 22.9314 49.2897 24.1618 49.2897 25.9695C49.2897 27.7937 50.2607 29.0154 51.7042 29.0154C53.1736 29.0154 54.1367 27.8191 54.1367 25.9695H54.1367Z" fill="black"/>
<path d="M66.21 25.9695C66.21 28.7829 64.6786 30.5905 62.3683 30.5905C61.783 30.6207 61.201 30.4881 60.6888 30.2079C60.1766 29.9278 59.755 29.5114 59.4722 29.0065H59.4284V33.4909H57.5391V21.4421H59.3679V22.948H59.4026C59.6984 22.4455 60.1272 22.0313 60.6433 21.7495C61.1594 21.4676 61.7435 21.3287 62.3335 21.3474C64.6697 21.3474 66.21 23.1638 66.21 25.9695ZM64.2676 25.9695C64.2676 24.1365 63.3045 22.9314 61.8351 22.9314C60.3915 22.9314 59.4205 24.1618 59.4205 25.9695C59.4205 27.7937 60.3915 29.0154 61.8351 29.0154C63.3045 29.0154 64.2676 27.8191 64.2676 25.9695Z" fill="black"/>
<path d="M72.9048 27.0362C73.0448 28.2676 74.261 29.0762 75.923 29.0762C77.5155 29.0762 78.6613 28.2676 78.6613 27.1572C78.6613 26.1934 77.9703 25.6162 76.3341 25.2207L74.6979 24.833C72.3796 24.2822 71.3034 23.2158 71.3034 21.4854C71.3034 19.3428 73.2017 17.8711 75.8962 17.8711C78.565 17.8711 80.3938 19.3428 80.4554 21.4854H78.5481C78.4339 20.2461 77.3924 19.4981 75.8704 19.4981C74.3484 19.4981 73.3069 20.2549 73.3069 21.3565C73.3069 22.2344 73.9721 22.751 75.5994 23.1465L76.9903 23.4824C79.5806 24.0849 80.6559 25.1084 80.6559 26.9248C80.6559 29.248 78.7754 30.7031 75.783 30.7031C72.9832 30.7031 71.0928 29.2822 70.9707 27.0361L72.9048 27.0362Z" fill="black"/>
<path d="M84.7352 19.2998V21.4424H86.4856V22.9141H84.7352V27.9053C84.7352 28.6807 85.0857 29.042 85.8551 29.042C86.0629 29.0384 86.2704 29.0241 86.4766 28.999V30.4619C86.1307 30.5255 85.7791 30.5543 85.4272 30.5478C83.5636 30.5478 82.8369 29.8593 82.8369 28.1035V22.9141H81.4985V21.4424H82.8369V19.2998H84.7352Z" fill="black"/>
<path d="M87.4985 25.9697C87.4985 23.1211 89.2042 21.3311 91.864 21.3311C94.5328 21.3311 96.2305 23.1211 96.2305 25.9697C96.2305 28.8262 94.5417 30.6084 91.864 30.6084C89.1873 30.6084 87.4985 28.8262 87.4985 25.9697ZM94.3054 25.9697C94.3054 24.0156 93.395 22.8623 91.864 22.8623C90.3331 22.8623 89.4226 24.0244 89.4226 25.9697C89.4226 27.9316 90.3331 29.0762 91.864 29.0762C93.395 29.0762 94.3054 27.9316 94.3054 25.9697H94.3054Z" fill="black"/>
<path d="M97.7881 21.442H99.5901V22.983H99.6338C99.7557 22.5017 100.042 22.0764 100.446 21.7785C100.849 21.4806 101.344 21.3284 101.848 21.3473C102.066 21.3465 102.283 21.3698 102.495 21.4166V23.1549C102.22 23.0723 101.934 23.0343 101.646 23.0426C101.372 23.0316 101.098 23.0792 100.844 23.1821C100.59 23.285 100.362 23.4408 100.175 23.6386C99.9877 23.8365 99.8464 24.0719 99.7606 24.3286C99.6747 24.5852 99.6464 24.8571 99.6775 25.1256V30.4957H97.7881L97.7881 21.442Z" fill="black"/>
<path d="M111.206 27.8369C110.952 29.4805 109.325 30.6084 107.243 30.6084C104.565 30.6084 102.903 28.8437 102.903 26.0127C102.903 23.1729 104.574 21.3311 107.164 21.3311C109.71 21.3311 111.312 23.0518 111.312 25.7969V26.4336H104.811V26.5459C104.781 26.8791 104.823 27.2148 104.935 27.5306C105.047 27.8464 105.226 28.1352 105.46 28.3778C105.694 28.6203 105.978 28.8111 106.293 28.9374C106.608 29.0637 106.947 29.1227 107.287 29.1103C107.733 29.1515 108.181 29.0498 108.564 28.8203C108.947 28.5909 109.245 28.246 109.412 27.8369L111.206 27.8369ZM104.819 25.1348H109.421C109.438 24.8352 109.392 24.5354 109.286 24.2541C109.179 23.9729 109.015 23.7164 108.803 23.5006C108.591 23.2849 108.336 23.1145 108.054 23.0003C107.772 22.8861 107.469 22.8305 107.164 22.8369C106.856 22.8351 106.551 22.8933 106.266 23.008C105.982 23.1227 105.723 23.2918 105.505 23.5054C105.287 23.7191 105.114 23.973 104.996 24.2527C104.879 24.5323 104.819 24.8321 104.819 25.1348V25.1348Z" fill="black"/>
<path d="M37.8043 14.6982V9.57467H35.896V8.73145H40.6508V9.57471H38.7465V14.6982L37.8043 14.6982Z" fill="black"/>
<path d="M40.9419 13.4239C40.9419 12.6134 41.5555 12.1461 42.6446 12.0797L43.8847 12.0094V11.6207C43.8847 11.1451 43.565 10.8766 42.9474 10.8766C42.4431 10.8766 42.0936 11.0587 41.9933 11.377H41.1186C41.211 10.6036 41.9506 10.1075 42.9891 10.1075C44.1368 10.1075 44.7842 10.6695 44.7842 11.6207V14.6974H43.9145V14.0645H43.8429C43.6978 14.2915 43.4941 14.4766 43.2525 14.6008C43.0109 14.725 42.7401 14.7839 42.4678 14.7715C42.2757 14.7912 42.0814 14.771 41.8977 14.7123C41.7139 14.6536 41.5447 14.5577 41.4009 14.4307C41.2571 14.3038 41.142 14.1486 41.0629 13.9752C40.9839 13.8017 40.9427 13.614 40.9419 13.4239ZM43.8847 13.0391V12.6627L42.7667 12.733C42.1363 12.7745 41.8503 12.9854 41.8503 13.3824C41.8503 13.7877 42.2078 14.0235 42.6993 14.0235C42.8433 14.0379 42.9887 14.0236 43.127 13.9815C43.2653 13.9394 43.3935 13.8704 43.5041 13.7785C43.6147 13.6867 43.7054 13.5739 43.7708 13.4469C43.8362 13.3198 43.8749 13.1812 43.8847 13.0391ZM42.3378 8.01474C42.5298 7.95007 42.7316 7.91803 42.9345 7.92001C43.5362 7.92001 43.9264 8.23401 43.9264 8.73056C43.9091 8.95213 43.8228 9.16309 43.6793 9.33469C43.5357 9.5063 43.3419 9.63021 43.1241 9.68956L42.7786 9.25156C43.0527 9.16465 43.2453 8.98691 43.2453 8.80869C43.2453 8.62705 43.0646 8.49469 42.8084 8.49469C42.6471 8.49033 42.4866 8.51996 42.3378 8.5816L42.3378 8.01474Z" fill="black"/>
<path d="M46.0806 8.86287C46.0737 8.74777 46.102 8.63326 46.1619 8.53418C46.2219 8.4351 46.3107 8.35601 46.4169 8.30716C46.5231 8.25831 46.6417 8.24194 46.7575 8.26018C46.8732 8.27842 46.9808 8.33042 47.0661 8.40946C47.1515 8.4885 47.2107 8.59092 47.2362 8.70346C47.2617 8.81601 47.2523 8.93349 47.2091 9.04069C47.1659 9.14789 47.091 9.23987 46.9941 9.30471C46.8971 9.36955 46.7826 9.40427 46.6654 9.40437C46.5905 9.40813 46.5156 9.39694 46.4451 9.37149C46.3747 9.34604 46.3103 9.30685 46.2556 9.25626C46.201 9.20568 46.1573 9.14476 46.1273 9.07715C46.0972 9.00955 46.0813 8.93666 46.0806 8.86287ZM46.2147 10.1944H47.1152V14.6973H46.2147V10.1944Z" fill="black"/>
<path d="M53.2837 14.6982H52.3127L50.6606 10.1953H51.6267L52.7665 13.7471H52.8379L53.9727 10.1953H54.9318L53.2837 14.6982Z" fill="black"/>
<path d="M59.6717 13.4819C59.5489 13.8935 59.283 14.2495 58.9203 14.4876C58.5577 14.7258 58.1215 14.8309 57.688 14.7847C57.3864 14.7925 57.0866 14.7357 56.8096 14.6181C56.5326 14.5006 56.2848 14.3252 56.0836 14.1041C55.8824 13.8829 55.7325 13.6214 55.6444 13.3375C55.5563 13.0537 55.532 12.7544 55.5732 12.4604C55.5331 12.1656 55.5578 11.8656 55.6457 11.581C55.7336 11.2963 55.8827 11.0335 56.0829 10.8104C56.283 10.5874 56.5296 10.4092 56.8058 10.288C57.0821 10.1668 57.3815 10.1054 57.684 10.1079C58.9578 10.1079 59.7263 10.9639 59.7263 12.3779V12.688H56.4936V12.7378C56.4795 12.903 56.5006 13.0694 56.5556 13.2261C56.6106 13.3829 56.6983 13.5266 56.8131 13.648C56.9279 13.7695 57.0672 13.866 57.2222 13.9314C57.3771 13.9968 57.5442 14.0296 57.7128 14.0278C57.9289 14.0533 58.1479 14.015 58.3418 13.9178C58.5358 13.8206 58.6959 13.6689 58.802 13.4819L59.6717 13.4819ZM59.353 9.57861H58.4108L57.7168 8.73486H57.6503L56.9563 9.57861H56.015L57.1916 8.21H58.1755L59.353 9.57861ZM56.4936 12.0308H58.8059C58.8173 11.8796 58.7964 11.7278 58.7446 11.5851C58.6928 11.4424 58.6112 11.3119 58.5051 11.2021C58.399 11.0922 58.2707 11.0054 58.1284 10.9472C57.9861 10.889 57.8331 10.8608 57.679 10.8643C57.5228 10.8623 57.3677 10.8912 57.223 10.9491C57.0782 11.0071 56.9467 11.0929 56.8362 11.2016C56.7258 11.3104 56.6385 11.4397 56.5797 11.5821C56.5208 11.7245 56.4916 11.8771 56.4936 12.0308ZM58.802 8.09814L57.8647 6.7998H58.8059L59.6091 8.09814H58.802Z" fill="black"/>
<path d="M64.6459 9.07422V10.2158H65.6377V10.9644H64.6459V13.2798C64.6459 13.7515 64.8435 13.958 65.2932 13.958C65.4084 13.9576 65.5234 13.9508 65.6377 13.9375V14.6777C65.4755 14.7063 65.3111 14.7215 65.1463 14.7231C64.1415 14.7231 63.7414 14.3755 63.7414 13.5073V10.9643H63.0146V10.2158H63.7414V9.07422H64.6459Z" fill="black"/>
<path d="M66.8306 10.1947H67.7003V10.8851H67.7678C67.8652 10.6454 68.0373 10.4423 68.2593 10.3048C68.4814 10.1673 68.7421 10.1026 69.0039 10.1199C69.1392 10.1182 69.2743 10.1306 69.407 10.1571V11.0341C69.2412 10.9992 69.0722 10.9812 68.9026 10.9803C68.7536 10.9672 68.6034 10.9848 68.4618 11.0322C68.3201 11.0795 68.1901 11.1554 68.08 11.2551C67.97 11.3548 67.8823 11.476 67.8228 11.611C67.7632 11.746 67.733 11.8918 67.7341 12.0389V14.6976H66.8306L66.8306 10.1947Z" fill="black"/>
<path d="M74.1585 13.4824C74.0357 13.894 73.7698 14.2499 73.4072 14.4881C73.0445 14.7262 72.6083 14.8314 72.1748 14.7851C71.8732 14.793 71.5735 14.7362 71.2964 14.6186C71.0194 14.5011 70.7717 14.3257 70.5704 14.1045C70.3692 13.8834 70.2194 13.6218 70.1312 13.338C70.0431 13.0542 70.0188 12.7549 70.0601 12.4609C70.0199 12.166 70.0446 11.8661 70.1325 11.5814C70.2205 11.2968 70.3696 11.034 70.5697 10.8109C70.7699 10.5879 71.0164 10.4097 71.2926 10.2885C71.5689 10.1673 71.8684 10.1058 72.1708 10.1084C73.4446 10.1084 74.2131 10.9644 74.2131 12.3784V12.6885H70.9804V12.7383C70.9663 12.9035 70.9874 13.0699 71.0424 13.2266C71.0974 13.3834 71.1852 13.5271 71.2999 13.6485C71.4147 13.77 71.5541 13.8665 71.709 13.9319C71.8639 13.9973 72.031 14.0301 72.1996 14.0283C72.4157 14.0538 72.6347 14.0155 72.8286 13.9183C73.0226 13.8211 73.1827 13.6694 73.2888 13.4824L74.1585 13.4824ZM73.8348 9.5791H72.9065L72.2036 8.67334H72.137L71.4351 9.5791H70.5018L71.6783 8.14844H72.6622L73.8348 9.5791ZM70.9804 12.0312H73.2927C73.3041 11.8801 73.2832 11.7283 73.2314 11.5856C73.1796 11.4429 73.098 11.3124 72.9919 11.2025C72.8858 11.0927 72.7575 11.0059 72.6152 10.9477C72.4729 10.8895 72.3199 10.8613 72.1659 10.8647C72.0096 10.8628 71.8545 10.8917 71.7098 10.9496C71.565 11.0076 71.4335 11.0934 71.3231 11.2021C71.2126 11.3108 71.1254 11.4402 71.0665 11.5826C71.0077 11.725 70.9784 11.8775 70.9804 12.0312Z" fill="black"/>
<path d="M75.4263 10.1949H76.296V10.9102H76.3635C76.478 10.6533 76.6712 10.4379 76.9161 10.2941C77.161 10.1503 77.4454 10.0852 77.7297 10.1079C77.9524 10.0915 78.1761 10.1245 78.3841 10.2046C78.5921 10.2847 78.7791 10.4098 78.9313 10.5707C79.0835 10.7315 79.1969 10.924 79.2632 11.1338C79.3295 11.3436 79.3469 11.5654 79.3142 11.7827V14.6977H78.4107V12.0059C78.4107 11.2823 78.0911 10.9224 77.4229 10.9224C77.2716 10.9155 77.1207 10.9408 76.9803 10.9966C76.8399 11.0525 76.7135 11.1375 76.6097 11.2459C76.5059 11.3542 76.4271 11.4834 76.3788 11.6246C76.3305 11.7657 76.3137 11.9154 76.3297 12.0635V14.6978H75.4263V10.1949Z" fill="black"/>
</g>
<defs>
<clipPath id="clip0">
<rect width="122" height="40" fill="white"/>
</clipPath>
</defs>
</svg>
