<svg width="120" height="120" viewBox="0 0 120 120" fill="none" xmlns="http://www.w3.org/2000/svg">
<g clip-path="url(#clip0)">
<path d="M7.08321 49.6875L0.443833 66.0771C-0.809605 69.1713 0.682661 72.6956 3.77665 73.9491L7.08321 75.2885V49.6875Z" fill="#E7E7E7"/>
<path d="M66.6327 25.9603L29.3375 10.852C26.2433 9.5986 22.719 11.0909 21.4655 14.1848L16.6953 25.9603H66.6327Z" fill="#E7E7E7"/>
<path d="M18.4595 21.6055L16.6953 25.9602H66.6327L55.8826 21.6055H18.4595Z" fill="#B5B4B4"/>
<path d="M53.3672 94.041L90.6624 109.149C93.7566 110.403 97.2809 108.91 98.5343 105.816L103.305 94.041H53.3672Z" fill="#E7E7E7"/>
<path d="M101.54 98.3957L103.305 94.041H53.3672L64.1173 98.3957H101.54Z" fill="#B5B4B4"/>
<path d="M116.225 46.0504L112.918 44.7109V70.312L119.557 53.9223C120.811 50.8281 119.319 47.3038 116.225 46.0504Z" fill="#E7E7E7"/>
<path d="M106.871 94.0398H13.1268C9.78836 94.0398 7.08203 91.3335 7.08203 87.9951V32.0057C7.08203 28.6673 9.78836 25.9609 13.1268 25.9609H106.871C110.209 25.9609 112.916 28.6673 112.916 32.0057V87.9951C112.915 91.3335 110.209 94.0398 106.871 94.0398Z" fill="#F2F2F2"/>
<path d="M106.871 89.6834H13.1268C9.78836 89.6834 7.08203 86.9771 7.08203 83.6387V87.9936C7.08203 91.332 9.78836 94.0384 13.1268 94.0384H106.871C110.209 94.0384 112.916 91.332 112.916 87.9936V83.6387C112.915 86.9771 110.209 89.6834 106.871 89.6834Z" fill="#E7E7E7"/>
<path d="M90.9448 83.1646V84.9051C90.9448 85.9073 91.7571 86.7196 92.7593 86.7196C93.7615 86.7196 94.5739 85.9073 94.5739 84.9051V83.2143C95.9417 82.9241 96.8787 82.3023 97.4789 81.7375C98.663 80.623 99.3703 78.9412 99.3703 77.238C99.3703 75.8432 98.9358 74.5806 98.1139 73.5866C97.0121 72.2542 95.2819 71.4491 92.9712 71.1941C90.8171 70.9565 90.4957 69.8462 90.4957 69.2057C90.4957 68.8277 90.6049 66.9419 92.7593 66.9419C94.1468 66.9419 94.7471 67.7692 94.8954 68.0162C95.1675 68.6774 95.8174 69.1434 96.5768 69.1434C97.9442 69.1434 98.7326 67.7212 98.2095 66.5235C97.7775 65.5851 96.5881 64.139 94.5739 63.5641V61.7891C94.5739 60.787 93.7615 59.9746 92.7593 59.9746C91.7571 59.9746 90.9448 60.787 90.9448 61.7891V63.5591C89.7094 63.914 88.6791 64.645 87.9558 65.702C86.9449 67.1793 86.8667 68.7573 86.8667 69.2057C86.8667 71.4965 88.3613 74.3364 92.5735 74.8012C95.7413 75.1509 95.7413 76.667 95.7413 77.238C95.7413 77.7946 95.5444 78.5748 94.9922 79.0944C94.4665 79.589 93.6518 79.8069 92.5714 79.7406C90.2817 79.6012 89.7626 78.1748 89.7108 78.0126L89.7101 78.0128C89.5135 77.2209 88.8 76.6333 87.9474 76.6333C86.6996 76.6333 85.8089 77.9151 86.2451 79.0855C86.43 79.6668 87.4697 82.3755 90.9448 83.1646Z" fill="#98999A"/>
<path d="M112.915 51.9515H54.4398C57.0777 50.5394 59.1063 48.748 60.0044 46.6349C61.4488 43.2367 59.4789 40.462 58.176 39.1105C56.4796 37.3506 54.4173 36.5964 52.2173 36.9288C47.7463 37.6042 43.4322 42.7914 40.5573 47.1095V25.9609H36.9353V47.1095C34.0602 42.7914 29.7461 37.604 25.2752 36.9288C23.073 36.5962 21.0128 37.3509 19.3166 39.1105C18.0138 40.462 16.0441 43.2365 17.4883 46.6349C18.3864 48.748 20.4147 50.5396 23.0526 51.9515H7.08203V55.5735H32.7941C28.6131 58.8768 23.0348 64.5906 20.6828 72.8238C20.4081 73.7856 20.965 74.7878 21.9266 75.0625C22.0928 75.1101 22.2604 75.1326 22.4252 75.1326C23.2134 75.1326 23.9383 74.6141 24.1656 73.8184C26.6085 65.2666 33.2127 59.6329 36.9353 57.0332V94.0394H40.5573V57.0337C44.2799 59.6334 50.8839 65.267 53.3268 73.8189C53.5541 74.6144 54.2793 75.1331 55.0673 75.1331C55.2318 75.1331 55.3996 75.1103 55.5658 75.063C56.5274 74.7883 57.0843 73.7859 56.8096 72.8242C54.4574 64.5911 48.8793 58.877 44.6983 55.574H112.915V51.9515H112.915ZM20.8218 45.2181C20.5115 44.4883 20.2884 43.3216 21.9243 41.6245C22.832 40.6827 23.6409 40.4727 24.2612 40.4727C24.434 40.4727 24.592 40.4889 24.7333 40.5102C26.923 40.8402 29.8141 43.3713 32.8745 47.6369C33.9377 49.1188 34.8634 50.5907 35.5776 51.7954C28.6368 51.1171 22.1458 48.3339 20.8218 45.2181ZM41.9141 51.7954C42.6215 50.6022 43.5374 49.1458 44.5921 47.6732C47.6617 43.3858 50.5619 40.8421 52.7584 40.5102C52.9002 40.4887 53.0587 40.4725 53.2314 40.4725C53.852 40.4725 54.6609 40.683 55.5686 41.6242C57.2045 43.3213 56.9812 44.488 56.6709 45.2179C55.3466 48.3339 48.8549 51.1171 41.9141 51.7954Z" fill="#98999A"/>
</g>
<defs>
<clipPath id="clip0">
<rect width="120" height="120" fill="white"/>
</clipPath>
</defs>
</svg>
