<svg width="100" height="100" viewBox="0 0 100 100" fill="none" xmlns="http://www.w3.org/2000/svg">
<g clip-path="url(#clip0)">
<path d="M26.7942 96.9427C26.4311 96.9427 26.068 96.8069 25.7867 96.5346C25.2134 95.9792 25.1996 95.0651 25.7569 94.4929L27.5548 92.6443C28.1113 92.0721 29.0271 92.0584 29.6004 92.6138C30.1738 93.1692 30.1875 94.0832 29.631 94.6555L27.8323 96.5041C27.5487 96.7963 27.1718 96.9427 26.7942 96.9427Z" fill="#FF0000"/>
<path d="M46.3092 26.0277C45.9468 26.0277 45.583 25.8919 45.3024 25.6195C44.7291 25.0641 44.7153 24.1501 45.2718 23.5787L47.0706 21.7293C47.6271 21.1571 48.5421 21.1434 49.1154 21.6988C49.6887 22.2542 49.7025 23.1682 49.146 23.7404L47.3473 25.5898C47.0637 25.8812 46.6868 26.0277 46.3092 26.0277Z" fill="#FF0000"/>
<path d="M87.8334 19.6081C87.4703 19.6081 87.1072 19.473 86.8259 19.2007C86.2525 18.6452 86.2388 17.7312 86.7953 17.159L88.594 15.3097C89.1505 14.7382 90.0663 14.7245 90.6396 15.2799C91.2129 15.8346 91.2267 16.7493 90.6702 17.3208L88.8715 19.1701C88.5879 19.4616 88.211 19.6081 87.8334 19.6081Z" fill="#3471DE"/>
<path d="M87.8334 90.5802C87.4703 90.5802 87.1072 90.4444 86.8259 90.1728C86.2525 89.6173 86.2388 88.7033 86.7953 88.1311L88.594 86.2818C89.1505 85.7103 90.0663 85.6958 90.6396 86.2512C91.2129 86.8067 91.2267 87.7207 90.6702 88.2929L88.8715 90.1422C88.5879 90.4337 88.211 90.5802 87.8334 90.5802Z" fill="#D2C50A"/>
<path d="M19.1959 22.0514C18.8336 22.0514 18.4697 21.9164 18.1891 21.644C17.6158 21.0886 17.6021 20.1746 18.1586 19.6024L19.9573 17.753C20.5138 17.1816 21.4296 17.1679 22.0029 17.7233C22.5754 18.2787 22.5892 19.1927 22.0327 19.7641L20.234 21.6135C19.9504 21.9049 19.5735 22.0514 19.1959 22.0514Z" fill="#D2C50A"/>
<path d="M9.2584 54.4584C8.89606 54.4584 8.53219 54.3233 8.25164 54.051C7.67831 53.4955 7.66455 52.5815 8.22106 52.0093L10.019 50.16C10.5755 49.5878 11.4913 49.574 12.0646 50.1294C12.638 50.6849 12.6517 51.5989 12.0952 52.1711L10.2965 54.0205C10.0137 54.3119 9.63603 54.4584 9.2584 54.4584Z" fill="#ED2C25"/>
<path d="M49.1788 54.3931L44.4829 56.9314C43.2652 57.5898 41.8418 56.5263 42.0742 55.1317L42.9709 49.756C43.0633 49.2021 42.8852 48.6375 42.4938 48.2454L38.6946 44.4375C37.7093 43.4503 38.2528 41.7299 39.615 41.5262L44.8644 40.7419C45.4056 40.661 45.8726 40.3123 46.1142 39.808L48.4625 34.9168C49.0718 33.6488 50.8307 33.6488 51.44 34.9168L53.7876 39.808C54.0299 40.3123 54.497 40.661 55.0374 40.7419L60.2875 41.5262C61.649 41.7299 62.1925 43.4503 61.2071 44.4375L57.4087 48.2454C57.0173 48.6375 56.8384 49.2021 56.9309 49.756L57.8276 55.1317C58.0607 56.5263 56.6374 57.5898 55.4196 56.9314L50.7237 54.3931C50.2398 54.1314 49.6619 54.1314 49.1788 54.3931Z" fill="#F4E614"/>
<path d="M49.9502 99.9998C49.1514 99.9998 48.5039 99.3536 48.5039 98.5563V75.9794C48.5039 75.1821 49.1514 74.5352 49.9502 74.5352C50.749 74.5352 51.3965 75.1821 51.3965 75.9794V98.5563C51.3965 99.3536 50.749 99.9998 49.9502 99.9998Z" fill="#3471DE"/>
<path d="M49.9653 69.8086H49.9432C49.1443 69.8086 48.4961 69.1617 48.4961 68.3644C48.4961 67.5671 49.1436 66.9209 49.9432 66.9209H49.9653C50.7642 66.9209 51.4116 67.5671 51.4116 68.3644C51.4116 69.1617 50.7642 69.8086 49.9653 69.8086Z" fill="#3471DE"/>
<path d="M49.9653 64.844C49.963 64.844 49.9607 64.844 49.9592 64.844H49.9363C49.1375 64.8409 48.493 64.1917 48.4961 63.3944C48.4999 62.5987 49.1466 61.957 49.9424 61.957H49.9493H49.9714C50.7703 61.9601 51.4147 62.6093 51.4116 63.4066C51.4086 64.2016 50.7611 64.844 49.9653 64.844Z" fill="#D2C50A"/>
<path d="M23.9226 45.0963C23.545 45.0963 23.1682 44.9498 22.8845 44.6583L7.35815 28.6938C6.80164 28.1216 6.81464 27.2076 7.38796 26.653C7.96129 26.0976 8.87708 26.1113 9.43359 26.6827L24.9607 42.6472C25.5173 43.2187 25.5035 44.1334 24.9302 44.6881C24.6489 44.9605 24.2858 45.0963 23.9226 45.0963Z" fill="#FF0000"/>
<path d="M29.1497 50.4896C28.7851 50.4896 28.4205 50.353 28.1391 50.0784C27.5673 49.5214 27.5566 48.6074 28.1147 48.0367L28.1307 48.0207C28.6888 47.4508 29.6046 47.4394 30.1764 47.9971C30.7482 48.554 30.7589 49.468 30.2001 50.0387L30.1848 50.0547C29.9012 50.3439 29.5258 50.4896 29.1497 50.4896Z" fill="#D2C50A"/>
<path d="M32.5632 54.0004C32.2001 54.0004 31.837 53.8646 31.5557 53.5922C30.9831 53.0368 30.9693 52.1228 31.5258 51.5514L31.5411 51.5346C32.0984 50.9624 33.0142 50.9494 33.5868 51.5048C34.1601 52.0602 34.1738 52.9742 33.6173 53.5464L33.6013 53.5625C33.3177 53.8539 32.9408 54.0004 32.5632 54.0004Z" fill="#3471DE"/>
<path d="M75.9732 44.5288C75.6101 44.5288 75.247 44.3938 74.9665 44.1214C74.3932 43.566 74.3794 42.652 74.9359 42.0798L90.4623 26.116C91.0188 25.5438 91.9346 25.5301 92.5079 26.0855C93.0812 26.6409 93.095 27.5549 92.5385 28.1271L77.0113 44.0909C76.7277 44.3823 76.3509 44.5288 75.9732 44.5288Z" fill="#D2C50A"/>
<path d="M70.7474 49.9221C70.3728 49.9221 69.999 49.778 69.7162 49.4903L69.7001 49.4743C69.1398 48.9052 69.1482 47.9912 69.7177 47.4327C70.288 46.8735 71.2038 46.8819 71.7633 47.4502L71.7794 47.4663C72.3389 48.0354 72.3313 48.9494 71.761 49.5079C71.4797 49.7841 71.1135 49.9221 70.7474 49.9221Z" fill="#FF0000"/>
<path d="M67.3335 53.4337C66.9559 53.4337 66.579 53.2872 66.2954 52.9958L66.2794 52.9798C65.7236 52.4076 65.7366 51.4936 66.3099 50.9381C66.8833 50.3827 67.7991 50.3964 68.3556 50.9679L68.3716 50.9839C68.9274 51.5561 68.9144 52.4701 68.341 53.0255C68.0597 53.2979 67.6966 53.4337 67.3335 53.4337Z" fill="#D2C50A"/>
<path d="M65.687 22.7908C65.4439 22.7908 65.1978 22.7298 64.9723 22.6009C64.2782 22.2057 64.0366 21.3237 64.4326 20.6317L75.5605 1.16837C75.9564 0.47638 76.8394 0.235291 77.5335 0.630494C78.2276 1.0257 78.4691 1.90765 78.0731 2.59964L66.9453 22.063C66.6785 22.5291 66.19 22.7908 65.687 22.7908Z" fill="#ED2C25"/>
<path d="M61.9372 29.3617C61.6841 29.3617 61.4288 29.2961 61.1957 29.1573L61.1766 29.1458C60.4916 28.7369 60.2677 27.8503 60.6781 27.166C61.0879 26.4809 61.9762 26.2589 62.6618 26.6678L62.681 26.6792C63.3666 27.0882 63.5899 27.9747 63.1801 28.6591C62.9088 29.1115 62.4295 29.3617 61.9372 29.3617Z" fill="#D2C50A"/>
<path d="M59.4956 33.6413C59.2411 33.6413 58.9834 33.5741 58.7503 33.4337L58.7312 33.4223C58.047 33.0103 57.8269 32.123 58.2389 31.4402C58.6517 30.7574 59.5407 30.5384 60.2249 30.9496L60.244 30.9611C60.9282 31.3731 61.1483 32.2604 60.7355 32.9432C60.4642 33.3925 59.9856 33.6413 59.4956 33.6413Z" fill="#ED2C25"/>
<path d="M34.2406 22.791C33.7376 22.791 33.2491 22.5293 32.9823 22.0624L21.8545 2.5998C21.4585 1.90706 21.7001 1.02586 22.3934 0.630658C23.0875 0.235455 23.9712 0.475781 24.3672 1.16853L35.495 20.6311C35.891 21.3239 35.6494 22.2058 34.9561 22.601C34.7298 22.73 34.4837 22.791 34.2406 22.791Z" fill="#3471DE"/>
<path d="M37.9794 29.3617C37.4886 29.3617 37.0093 29.1123 36.7379 28.6621C36.3267 27.9785 36.5484 27.0912 37.2325 26.6808L37.2524 26.6693C37.9373 26.2589 38.8256 26.4794 39.2369 27.163C39.6489 27.8466 39.4272 28.7331 38.7423 29.1443L38.7232 29.1558C38.49 29.2954 38.2332 29.3617 37.9794 29.3617Z" fill="#FF0000"/>
<path d="M40.4325 33.6413C39.9433 33.6413 39.4663 33.3941 39.1941 32.9455C38.7798 32.2634 38.9984 31.3761 39.6811 30.9626L39.7002 30.9512C40.3844 30.5384 41.2734 30.7559 41.6877 31.4379C42.1013 32.12 41.8834 33.0073 41.2 33.4208L41.1809 33.4323C40.9462 33.5742 40.6878 33.6413 40.4325 33.6413Z" fill="#D2C50A"/>
<path d="M85.5473 69.7821L82.5094 72.0481C81.722 72.6363 80.6205 72.0397 80.6457 71.0395L80.7443 67.182C80.7543 66.7845 80.5738 66.4077 80.2612 66.1734L77.2264 63.9037C76.439 63.3147 76.65 62.0536 77.5834 61.769L81.1823 60.6734C81.5523 60.5605 81.8459 60.2667 81.9651 59.8891L83.1271 56.2201C83.4282 55.268 84.6605 55.0849 85.2117 55.9096L87.3376 59.0903C87.557 59.4176 87.9185 59.6137 88.3046 59.6137L92.0579 59.616C93.0318 59.6167 93.5822 60.7649 92.989 61.5592L90.7041 64.6201C90.4687 64.9359 90.3991 65.3502 90.5184 65.7279L91.6765 69.3991C91.9761 70.3513 91.084 71.2439 90.1667 70.9098L86.6289 69.6212C86.2651 69.4884 85.8607 69.5487 85.5473 69.7821Z" fill="#F4E614"/>
<path d="M58.0205 99.9991C57.2217 99.9991 56.5742 99.3529 56.5742 98.5556C56.5742 87.3778 61.0423 79.8208 64.7903 75.4492C68.8663 70.6968 72.9339 68.6087 73.1051 68.5217C73.8175 68.1608 74.6882 68.4454 75.049 69.1572C75.4098 69.8675 75.1262 70.735 74.4146 71.0966C74.3534 71.1279 70.5985 73.0818 66.9063 77.4237C61.9696 83.2281 59.4668 90.338 59.4668 98.5556C59.4668 99.3529 58.8194 99.9991 58.0205 99.9991Z" fill="#FF0000"/>
<path d="M26.9748 77.6082L29.2773 80.6561C29.875 81.4465 31.0943 81.1894 31.3412 80.2212L32.2929 76.4882C32.3908 76.1044 32.6667 75.7939 33.0306 75.6588L36.5608 74.3489C37.4766 74.0094 37.6157 72.7375 36.797 72.1974L33.6383 70.113C33.3135 69.8979 33.1116 69.5324 33.0987 69.1357L32.9779 65.2783C32.9473 64.2781 31.8136 63.7486 31.0607 64.3826L28.1566 66.8271C27.8569 67.0788 27.4564 67.1635 27.0856 67.0529L23.4806 65.9787C22.5457 65.7002 21.7055 66.6447 22.0595 67.577L23.4232 71.1728C23.5639 71.5428 23.518 71.9609 23.3009 72.2897L21.1934 75.4826C20.6468 76.3112 21.2606 77.4235 22.233 77.3663L25.9795 77.1435C26.3655 77.1206 26.7378 77.2946 26.9748 77.6082Z" fill="#F4E614"/>
<path d="M41.8826 99.9998C41.0838 99.9998 40.4363 99.3536 40.4363 98.5564C40.4363 92.6856 39.1292 87.3145 36.5515 82.5926C36.1693 81.8923 36.4284 81.0157 37.1302 80.6342C37.8319 80.2527 38.7103 80.5113 39.0925 81.211C41.9033 86.3623 43.329 92.198 43.329 98.5564C43.329 99.3536 42.6815 99.9998 41.8826 99.9998Z" fill="#D2C50A"/>
<path d="M59.4823 10.9187C59.4823 8.71454 57.744 6.92773 55.6005 6.92773C53.4563 6.92773 51.7188 8.71454 51.7188 10.9187C51.7188 13.1228 53.4563 14.9104 55.6005 14.9104C57.744 14.9104 59.4823 13.1228 59.4823 10.9187Z" fill="#F4E614"/>
<path d="M79.8605 87.2683C79.8605 85.0641 78.1229 83.2773 75.9795 83.2773C73.8352 83.2773 72.0977 85.0641 72.0977 87.2683C72.0977 89.4724 73.8352 91.2592 75.9795 91.2592C78.1229 91.2592 79.8605 89.4724 79.8605 87.2683Z" fill="#3471DE"/>
<path d="M15.488 88.058C15.488 86.2902 14.0945 84.8574 12.3745 84.8574C10.6553 84.8574 9.26172 86.2902 9.26172 88.058C9.26172 89.8264 10.6553 91.2592 12.3745 91.2592C14.0945 91.2592 15.488 89.8264 15.488 88.058Z" fill="#ED2C25"/>
<path d="M24.1052 56.3187C24.1052 54.551 22.7116 53.1182 20.9917 53.1182C19.2725 53.1182 17.8789 54.551 17.8789 56.3187C17.8789 58.0864 19.2725 59.52 20.9917 59.52C22.7116 59.52 24.1052 58.0864 24.1052 56.3187Z" fill="#3471DE"/>
<path d="M48.1091 3.20129C48.1091 1.4328 46.7156 0 44.9963 0C43.2764 0 41.8828 1.4328 41.8828 3.20129C41.8828 4.96902 43.2764 6.40182 44.9963 6.40182C46.7156 6.40182 48.1091 4.96902 48.1091 3.20129Z" fill="#FF0000"/>
<path d="M78.3208 29.8595C78.3208 28.0918 76.9265 26.6582 75.2073 26.6582C73.4881 26.6582 72.0938 28.0918 72.0938 29.8595C72.0938 31.6272 73.4881 33.06 75.2073 33.06C76.9265 33.06 78.3208 31.6272 78.3208 29.8595Z" fill="#FF0000"/>
<path d="M34.2357 6.39586C33.8726 6.39586 33.5095 6.26082 33.2282 5.98769C32.6549 5.43227 32.6411 4.51903 33.1976 3.94683L34.9963 2.09746C35.5528 1.52526 36.4686 1.51152 37.0412 2.06694C37.6145 2.62236 37.6283 3.53636 37.0718 4.10857L35.2738 5.95793C34.9902 6.24938 34.6126 6.39586 34.2357 6.39586Z" fill="#FF0000"/>
</g>
<defs>
<clipPath id="clip0">
<rect width="100" height="100" fill="white"/>
</clipPath>
</defs>
</svg>
