<svg width="100" height="100" viewBox="0 0 100 100" fill="none" xmlns="http://www.w3.org/2000/svg">
<path d="M50 100C77.6142 100 100 77.6142 100 50C100 22.3858 77.6142 0 50 0C22.3858 0 0 22.3858 0 50C0 77.6142 22.3858 100 50 100Z" fill="#EE0033"/>
<path d="M91.8758 22.7341L47.6568 68.5157L47.7349 73.4375H49.7662L97.6572 34.8435C96.2508 30.5468 94.2976 26.4061 91.8758 22.7341Z" fill="#C6002A"/>
<path d="M99.06 20.5473L90.2318 11.7972C89.0598 10.6252 87.1067 10.6252 85.8568 11.7972L48.1222 50.7817L31.7939 34.6879C30.622 33.516 28.6689 33.516 27.419 34.6879L19.6063 42.4224C18.4344 43.5944 18.4344 45.5475 19.6063 46.7194L45.7003 72.5787C46.4035 73.2819 47.341 73.5162 48.2785 73.438C49.216 73.5162 50.1534 73.2817 50.8566 72.5787L99.06 24.9222C100.232 23.6721 100.232 21.719 99.06 20.5473Z" fill="#FFEDF1"/>
<path d="M50.8662 72.5789L99.0696 24.9224C100.242 23.7505 100.242 21.7974 99.0696 20.6254L97.6634 19.2974L48.2099 67.8914L20.866 41.2507L19.6941 42.4226C18.5221 43.5946 18.5221 45.5477 19.6941 46.7196L45.788 72.5791C46.4912 73.2823 47.4287 73.5166 48.3662 73.4384C49.2255 73.5164 50.163 73.2821 50.8662 72.5789Z" fill="#E7E7E7"/>
</svg>
