<svg width="100" height="100" viewBox="0 0 100 100" fill="none" xmlns="http://www.w3.org/2000/svg">
<path d="M64.6484 35.3516C74.3416 35.3516 82.2266 27.4666 82.2266 17.7734C82.2266 11.3104 76.968 6.05469 70.5078 6.05469C63.9732 6.05469 62.0277 8.99863 53.8338 21.3926C52.7008 23.1062 51.4305 25.0232 50 27.1689C48.5695 25.0232 47.2992 23.1062 46.1662 21.3926C37.9723 8.99863 36.0268 6.05469 29.4922 6.05469C23.032 6.05469 17.7734 11.3104 17.7734 17.7734C17.7734 27.4666 25.6584 35.3516 35.3516 35.3516H64.6484Z" fill="#FFBB33"/>
<path d="M64.6484 35.3516C74.3416 35.3516 82.2266 27.4666 82.2266 17.7734C82.2266 11.3104 76.968 6.05469 70.5078 6.05469C63.9732 6.05469 62.0277 8.99863 53.8338 21.3926C52.7008 23.1062 51.4305 25.0232 50 27.1689V35.3516H64.6484Z" fill="#DDAD03"/>
<path d="M91.2109 47.0703H8.78906C7.14824 47.0703 5.85938 48.3592 5.85938 50V91.0156C5.85938 92.6561 7.14824 93.9453 8.78906 93.9453H41.2109L50 91.0156L58.7891 93.9453H91.2109C92.8518 93.9453 94.1406 92.6561 94.1406 91.0156V50C94.1406 48.3592 92.8518 47.0703 91.2109 47.0703Z" fill="#FF3B4A"/>
<path d="M94.1406 50V91.0156C94.1406 92.6561 92.8518 93.9453 91.2109 93.9453H58.7891L50 91.0156V47.0703H91.2109C92.8518 47.0703 94.1406 48.3592 94.1406 50Z" fill="#C6002A"/>
<path d="M100 32.4219V50C100 51.6404 98.7111 52.9297 97.0703 52.9297H2.92969C1.28887 52.9297 0 51.6404 0 50V32.4219C0 30.7811 1.28887 29.4922 2.92969 29.4922H41.2109L47.0703 35.3516H52.9297L58.7891 29.4922H97.0703C98.7111 29.4922 100 30.7811 100 32.4219Z" fill="#FF5764"/>
<path d="M100 32.4219V50C100 51.6404 98.7111 52.9297 97.0703 52.9297H50V35.3516H52.9297L58.7891 29.4922H97.0703C98.7111 29.4922 100 30.7811 100 32.4219Z" fill="#EE0033"/>
<path d="M41.2109 29.4922H58.7891V93.9453H41.2109V29.4922Z" fill="#FFDC44"/>
<path d="M50 29.4922H58.7891V93.9453H50V29.4922Z" fill="#F7C30A"/>
</svg>
