<svg width="32" height="32" fill="none" xmlns="http://www.w3.org/2000/svg"><circle cx="16" cy="16" r="15.5" fill="#fff" stroke="#50C1BA"/><path d="M22.472 13.466l-.42-.42a.667.667 0 00-.72-.173c-.212.086-.438.129-.667.126A1.666 1.666 0 0119 11.332c-.003-.228.04-.455.126-.666a.666.666 0 00-.173-.747l-.42-.42a.666.666 0 00-.467-.166h-.786a.667.667 0 00-.467.193l-7.287 7.287a.667.667 0 00-.193.466v.787c0 .175.07.342.193.466l.42.42a.666.666 0 00.72.174c.212-.086.439-.13.667-.127a1.667 1.667 0 011.667 1.667c.002.228-.04.455-.127.666a.666.666 0 00.173.747l.42.42a.666.666 0 00.467.194h.787c.175-.001.342-.07.466-.194l7.287-7.313a.667.667 0 00.193-.467v-.787a.667.667 0 00-.193-.466zm-6.473 3.867a1.334 1.334 0 110-2.668 1.334 1.334 0 010 2.668z" fill="#50C1BA"/></svg>